<svg width="24" height="24" viewBox="0 0 24 24" fill="none" xmlns="http://www.w3.org/2000/svg">
<path d="M6.4581 2.33855C6.28263 2.13959 6.03529 2.01851 5.77053 2.00195C5.50576 1.98539 5.24527 2.07472 5.04638 2.25026C3.41431 3.69076 2.30731 5.71691 2.05473 8L11.4512 8L6.4581 2.33855Z" fill="black"/>
<path d="M17.9998 10H2.05469C2.55213 14.5 6.3672 18 10.9998 18C15.9703 18 19.9998 13.9706 19.9998 9V7H20.9998C21.552 7 21.9998 6.55229 21.9998 6C21.9998 5.44772 21.552 5 20.9998 5H18.9998C18.4475 5 17.9998 5.44772 17.9998 6V10Z" fill="black"/>
<path d="M4.99976 18C3.89519 18 2.99976 18.8954 2.99976 20C2.99976 21.1046 3.89519 22 4.99976 22C6.10433 22 6.99976 21.1046 6.99976 20C6.99976 18.8954 6.10433 18 4.99976 18Z" fill="black"/>
<path d="M14.9998 20C14.9998 18.8954 15.8952 18 16.9998 18C18.1043 18 18.9998 18.8954 18.9998 20C18.9998 21.1046 18.1043 22 16.9998 22C15.8952 22 14.9998 21.1046 14.9998 20Z" fill="black"/>
</svg>
