<svg width="24" height="24" viewBox="0 0 24 24" fill="none" xmlns="http://www.w3.org/2000/svg">
<path fill-rule="evenodd" clip-rule="evenodd" d="M3 3C2.44772 3 2 3.44772 2 4V14.3542C1.37764 15.0593 1 15.9856 1 17C1 19.2091 2.79086 21 5 21H14C16.2091 21 18 19.2091 18 17C18 16.2714 17.8052 15.5883 17.4649 15H19V15.8945C19 16.4867 19.1753 17.0658 19.5039 17.5586L21.168 20.0547C21.4743 20.5142 22.0952 20.6384 22.5547 20.332C23.0142 20.0257 23.1384 19.4048 22.832 18.9453L21.168 16.4492C21.0584 16.2849 21 16.0919 21 15.8945V12.1056C21 11.9082 21.0584 11.7151 21.1679 11.5509L22.8321 9.05471C23.1384 8.59518 23.0142 7.97431 22.5547 7.66796C22.0952 7.36161 21.4743 7.48579 21.1679 7.94532L19.5038 10.4415C19.1753 10.9343 19 11.5133 19 12.1056V13H16V12C16 10.6938 15.1652 9.58254 14 9.17071V7C14 6.44772 13.5523 6 13 6C12.4477 6 12 6.44772 12 7V9H10.7208L9.40453 5.05132C8.99619 3.82629 7.84977 3 6.55848 3H3ZM7.50716 5.68377L8.61257 9H4V5H6.55848C6.98891 5 7.37105 5.27543 7.50716 5.68377ZM5 15C3.89543 15 3 15.8954 3 17C3 18.1046 3.89543 19 5 19H14C15.1046 19 16 18.1046 16 17C16 15.8954 15.1046 15 14 15H5Z" fill="black"/>
<path fill-rule="evenodd" clip-rule="evenodd" d="M4.5 17C4.5 16.4477 4.94772 16 5.5 16H5.509C6.06128 16 6.509 16.4477 6.509 17C6.509 17.5523 6.06128 18 5.509 18H5.5C4.94772 18 4.5 17.5523 4.5 17Z" fill="black"/>
<path fill-rule="evenodd" clip-rule="evenodd" d="M8.5 17C8.5 16.4477 8.94772 16 9.5 16H9.509C10.0613 16 10.509 16.4477 10.509 17C10.509 17.5523 10.0613 18 9.509 18H9.5C8.94772 18 8.5 17.5523 8.5 17Z" fill="black"/>
<path fill-rule="evenodd" clip-rule="evenodd" d="M12.5 17C12.5 16.4477 12.9477 16 13.5 16H13.509C14.0613 16 14.509 16.4477 14.509 17C14.509 17.5523 14.0613 18 13.509 18H13.5C12.9477 18 12.5 17.5523 12.5 17Z" fill="black"/>
</svg>
