<svg width="24" height="24" viewBox="0 0 24 24" fill="none" xmlns="http://www.w3.org/2000/svg">
<path fill-rule="evenodd" clip-rule="evenodd" d="M21.3627 2.93203C21.8774 2.73186 22.1324 2.15231 21.9323 1.63758C21.7321 1.12285 21.1526 0.867846 20.6378 1.06802L11.6596 4.55956C11.6451 4.56482 11.6307 4.5704 11.6165 4.57631L2.63782 8.06802C2.12309 8.26819 1.86809 8.84774 2.06826 9.36247C2.26844 9.8772 2.84798 10.1322 3.36271 9.93203L11.0003 6.96187V10.5H7.00027C4.79113 10.5 3.00027 12.2909 3.00027 14.5V19C3.00027 21.2092 4.79113 23 7.00027 23H17.0003C19.2094 23 21.0003 21.2092 21.0003 19V14.5C21.0003 12.2909 19.2094 10.5 17.0003 10.5H13.0003V6.18409L21.3627 2.93203ZM10.0003 16V12.5H14.0003V16H10.0003ZM16.0003 16V12.5H17.0003C18.1048 12.5 19.0003 13.3955 19.0003 14.5V16H16.0003ZM8.00027 16H5.00027V14.5C5.00027 13.3955 5.8957 12.5 7.00027 12.5H8.00027V16Z" fill="black"/>
<path d="M13.0003 1.00002C12.448 1.00002 12.0003 1.44774 12.0003 2.00002C12.0003 2.55231 12.448 3.00002 13.0003 3.00002H13.0093C13.5616 3.00002 14.0093 2.55231 14.0093 2.00002C14.0093 1.44774 13.5616 1.00002 13.0093 1.00002H13.0003Z" fill="black"/>
<path d="M9.00027 2.50002C8.44798 2.50002 8.00027 2.94774 8.00027 3.50002C8.00027 4.05231 8.44798 4.50002 9.00027 4.50002H9.00927C9.56155 4.50002 10.0093 4.05231 10.0093 3.50002C10.0093 2.94774 9.56155 2.50002 9.00927 2.50002H9.00027Z" fill="black"/>
</svg>
