<svg width="24" height="24" viewBox="0 0 24 24" fill="none" xmlns="http://www.w3.org/2000/svg">
<path fill-rule="evenodd" clip-rule="evenodd" d="M7.22979 3.64802C7.68778 3.49853 8.18042 3.49915 8.74027 3.49985H15.2597C15.8196 3.49915 16.3122 3.49853 16.7702 3.64802C17.1716 3.77903 17.5408 3.99329 17.8537 4.27678C18.2107 4.60026 18.4546 5.0283 18.7317 5.51473L21.0612 9.59145C21.3407 10.0804 21.5344 10.4191 21.6735 10.7849C21.7966 11.1087 21.8858 11.4444 21.9395 11.7866C21.9749 12.012 21.9896 12.2386 21.9957 12.4999H19C18.4477 12.4999 18 12.9477 18 13.4999C18 14.0522 18.4477 14.4999 19 14.4999H22L22 18.0266C22 18.2365 22 18.4411 21.9882 18.6152C21.9752 18.8055 21.9447 19.0313 21.8478 19.2653C21.6448 19.7554 21.2554 20.1447 20.7654 20.3477C20.5313 20.4447 20.3056 20.4751 20.1152 20.4881C19.9412 20.5 19.7365 20.5 19.5265 20.4999H19.4734C19.2634 20.5 19.0588 20.5 18.8848 20.4881C18.6944 20.4751 18.4687 20.4447 18.2346 20.3477C17.7446 20.1447 17.3552 19.7554 17.1522 19.2653C17.0553 19.0313 17.0248 18.8055 17.0118 18.6152C17.0093 18.5781 17.0073 18.5396 17.0058 18.4999H6.99426C6.9927 18.5396 6.9907 18.5781 6.98817 18.6152C6.97518 18.8055 6.94471 19.0313 6.84777 19.2653C6.64478 19.7554 6.25543 20.1447 5.76537 20.3477C5.53133 20.4447 5.30561 20.4751 5.11523 20.4881C4.9412 20.5 4.7365 20.5 4.52652 20.4999H4.4734C4.26341 20.5 4.05882 20.5 3.88478 20.4881C3.69441 20.4751 3.46868 20.4447 3.23464 20.3477C2.74458 20.1447 2.35524 19.7554 2.15225 19.2653C2.0553 19.0313 2.02483 18.8055 2.01184 18.6152C1.99996 18.4411 1.99998 18.2365 2.00001 18.0264L2 14.4999H4.99999C5.55227 14.4999 5.99999 14.0522 5.99999 13.4999C5.99999 12.9477 5.55227 12.4999 4.99999 12.4999H2.00429C2.0104 12.2386 2.02514 12.012 2.06052 11.7866C2.11426 11.4444 2.20341 11.1087 2.32654 10.7849C2.46566 10.4191 2.65931 10.0804 2.93885 9.59139L5.26827 5.51473C5.54542 5.0283 5.7893 4.60026 6.14632 4.27678C6.45921 3.99329 6.82841 3.77903 7.22979 3.64802ZM9.99999 16.4999H14V14.4999H9.99999V16.4999ZM18.8173 9.69576C18.4007 9.56844 17.9584 9.49995 17.5 9.49995H6.50001C6.04162 9.49995 5.59931 9.56844 5.18272 9.69576L6.9469 6.60844C7.31612 5.96232 7.39933 5.84033 7.48921 5.75889C7.5935 5.66439 7.71657 5.59297 7.85036 5.5493C7.96567 5.51167 8.11287 5.49995 8.85704 5.49995H15.143C15.8871 5.49995 16.0343 5.51167 16.1496 5.5493C16.2834 5.59297 16.4065 5.66439 16.5108 5.75889C16.6007 5.84033 16.6839 5.96232 17.0531 6.60844L18.8173 9.69576Z" fill="black"/>
</svg>
