<svg width="24" height="24" viewBox="0 0 24 24" fill="none" xmlns="http://www.w3.org/2000/svg">
<path d="M5.5 4C4.11929 4 3 5.11929 3 6.5C3 7.88071 4.11929 9 5.5 9C6.05228 9 6.5 9.44772 6.5 10C6.5 10.5523 6.05228 11 5.5 11C3.01472 11 1 8.98528 1 6.5C1 4.01472 3.01472 2 5.5 2C7.98528 2 10 4.01472 10 6.5C10 7.05228 9.55228 7.5 9 7.5C8.44772 7.5 8 7.05228 8 6.5C8 5.11929 6.88071 4 5.5 4Z" fill="black"/>
<path d="M18.5 4C17.1193 4 16 5.11929 16 6.5C16 7.05228 15.5523 7.5 15 7.5C14.4477 7.5 14 7.05228 14 6.5C14 4.01472 16.0147 2 18.5 2C20.9853 2 23 4.01472 23 6.5C23 8.98528 20.9853 11 18.5 11C17.9477 11 17.5 10.5523 17.5 10C17.5 9.44772 17.9477 9 18.5 9C19.8807 9 21 7.88071 21 6.5C21 5.11929 19.8807 4 18.5 4Z" fill="black"/>
<path d="M5.5 15C4.11929 15 3 16.1193 3 17.5C3 18.8807 4.11929 20 5.5 20C6.88071 20 8 18.8807 8 17.5C8 16.9477 8.44772 16.5 9 16.5C9.55228 16.5 10 16.9477 10 17.5C10 19.9853 7.98528 22 5.5 22C3.01472 22 1 19.9853 1 17.5C1 15.0147 3.01472 13 5.5 13C6.05228 13 6.5 13.4477 6.5 14C6.5 14.5523 6.05228 15 5.5 15Z" fill="black"/>
<path d="M17.5 14C17.5 13.4477 17.9477 13 18.5 13C20.9853 13 23 15.0147 23 17.5C23 19.9853 20.9853 22 18.5 22C16.0147 22 14 19.9853 14 17.5C14 16.9477 14.4477 16.5 15 16.5C15.5523 16.5 16 16.9477 16 17.5C16 18.8807 17.1193 20 18.5 20C19.8807 20 21 18.8807 21 17.5C21 16.1193 19.8807 15 18.5 15C17.9477 15 17.5 14.5523 17.5 14Z" fill="black"/>
<path d="M6.14596 5.73663C5.72436 5.37989 5.09338 5.43247 4.73663 5.85408C4.37989 6.27569 4.43247 6.90666 4.85408 7.26341L7.55946 9.55257C7.52063 9.70813 7.50002 9.87089 7.50002 10.0385V13.9615C7.50002 14.1291 7.52063 14.2919 7.55945 14.4474L4.85408 16.7366C4.43247 17.0933 4.37989 17.7243 4.73663 18.1459C5.09338 18.5675 5.72436 18.6201 6.14596 18.2634L8.9551 15.8864C9.12833 15.9354 9.31112 15.9615 9.50002 15.9615H14.5C14.6893 15.9615 14.8724 15.9353 15.046 15.8861L17.8554 18.2634C18.277 18.6201 18.908 18.5675 19.2648 18.1459C19.6215 17.7243 19.5689 17.0933 19.1473 16.7366L16.4408 14.4465C16.4795 14.2912 16.5 14.1288 16.5 13.9616V10.0385C16.5 9.87123 16.4795 9.70878 16.4408 9.55351L19.1473 7.26341C19.5689 6.90666 19.6215 6.27569 19.2648 5.85408C18.908 5.43247 18.277 5.37989 17.8554 5.73663L15.0459 8.11389C14.8724 8.06476 14.6893 8.03847 14.5 8.03847H9.50002C9.31112 8.03847 9.12834 8.06466 8.95511 8.1136L6.14596 5.73663Z" fill="black"/>
</svg>
