<svg width="24" height="24" viewBox="0 0 24 24" fill="none" xmlns="http://www.w3.org/2000/svg">
<path fill-rule="evenodd" clip-rule="evenodd" d="M17.0271 10.7234L21 7.25384V14.5886L16.2929 19.2957C16.0069 19.5817 15.9213 20.0118 16.0761 20.3855C16.2309 20.7592 16.5955 21.0028 17 21.0028H20C21.6569 21.0028 23 19.6597 23 18.0028V4.43993C23.0074 3.81656 22.7733 3.18576 22.2939 2.70631C21.7861 2.19852 21.104 1.96305 20.4376 2.0047C19.9215 2.03695 19.411 2.23545 18.9954 2.60134L18.9931 2.60332L14.8066 6.26036L14.4045 5.05413C13.9962 3.8291 12.8498 3.00281 11.5585 3.00281H6C5.44772 3.00281 5 3.45052 5 4.00281V9.00287L3.99998 9.00287C2.34313 9.00288 1 10.346 1 12.0029V12.5278C2.06151 11.5777 3.46329 11 5 11H12C13.5367 11 14.9385 11.5777 16 12.5278V11.631L16.9954 10.7526C17.0062 10.743 17.0168 10.7333 17.0271 10.7234ZM12.5072 5.68658L13.3675 8.26772C13.377 8.30231 13.3884 8.33652 13.4017 8.37019L13.6126 9.00282L7 9.00285V5.00281H11.5585C11.9889 5.00281 12.3711 5.27824 12.5072 5.68658Z" fill="black"/>
<path d="M5 16.0028C4.44772 16.0028 4 16.4505 4 17.0028C4 17.5551 4.44772 18.0028 5 18.0028H5.009C5.56128 18.0028 6.009 17.5551 6.009 17.0028C6.009 16.4505 5.56128 16.0028 5.009 16.0028H5Z" fill="black"/>
<path d="M8.5 16.0028C7.94772 16.0028 7.5 16.4505 7.5 17.0028C7.5 17.5551 7.94772 18.0028 8.5 18.0028H8.509C9.06129 18.0028 9.509 17.5551 9.509 17.0028C9.509 16.4505 9.06129 16.0028 8.509 16.0028H8.5Z" fill="black"/>
<path d="M12 16.0028C11.4477 16.0028 11 16.4505 11 17.0028C11 17.5551 11.4477 18.0028 12 18.0028H12.009C12.5613 18.0028 13.009 17.5551 13.009 17.0028C13.009 16.4505 12.5613 16.0028 12.009 16.0028H12Z" fill="black"/>
<path fill-rule="evenodd" clip-rule="evenodd" d="M16 17C16 14.7909 14.2091 13 12 13H5C2.79086 13 1 14.7909 1 17V17.0028C1 19.0728 2.48222 21.0028 4.6 21.0028H12.4C14.5178 21.0028 16 19.0728 16 17.0028V17ZM12.4 15.0028C13.1541 15.0028 14 15.7591 14 17.0028C14 18.2465 13.1541 19.0028 12.4 19.0028H4.6C3.8459 19.0028 3 18.2465 3 17.0028C3 15.7591 3.8459 15.0028 4.6 15.0028H12.4Z" fill="black"/>
</svg>
