<svg width="24" height="24" viewBox="0 0 24 24" fill="none" xmlns="http://www.w3.org/2000/svg">
<path d="M7 3C7 2.44772 7.44772 2 8 2H16C16.5523 2 17 2.44772 17 3V4H20C20.3466 4 20.6684 4.17945 20.8507 4.47427C21.0329 4.76909 21.0494 5.13723 20.8944 5.44721L20.618 6L3.38197 6L3.10557 5.44721C2.95058 5.13723 2.96714 4.76909 3.14935 4.47427C3.33156 4.17945 3.65342 4 4 4H7V3Z" fill="black"/>
<path fill-rule="evenodd" clip-rule="evenodd" d="M2.35418 8C1.52375 8.73294 1 9.80531 1 11V18C1 18.1974 1.05844 18.3904 1.16795 18.5547L2.57422 20.6641C3.13061 21.4987 4.06731 22 5.07037 22H18.9296C19.9327 22 20.8694 21.4987 21.4258 20.6641L22.8321 18.5547C22.9416 18.3904 23 18.1974 23 18V11C23 9.80531 22.4762 8.73295 21.6458 8L2.35418 8ZM18 18V12H6V18H18Z" fill="black"/>
</svg>
