<svg width="24" height="24" viewBox="0 0 24 24" fill="none" xmlns="http://www.w3.org/2000/svg">
<path fill-rule="evenodd" clip-rule="evenodd" d="M4 17C3.44772 17 3 16.5523 3 16V12C3 11.4477 3.44772 11 4 11C4.35372 11 4.66454 11.1837 4.84233 11.4608L9 9.38197V6.5C9 6.36008 9.02936 6.22172 9.08619 6.09386L11.0862 1.59386C11.2467 1.23273 11.6048 1 12 1C12.3952 1 12.7533 1.23273 12.9138 1.59386L14.9138 6.09386C14.9706 6.22172 15 6.36008 15 6.5V9.38197L19.1577 11.4608C19.3355 11.1837 19.6463 11 20 11C20.5523 11 21 11.4477 21 12V16C21 16.5523 20.5523 17 20 17C19.6299 17 19.3067 16.7989 19.1338 16.5H15L16.4 17.55C16.7777 17.8333 17 18.2779 17 18.75V20.5C17 21.3284 16.3284 22 15.5 22H13C13 22.5523 12.5523 23 12 23C11.4477 23 11 22.5523 11 22H8.5C7.67157 22 7 21.3284 7 20.5V18.75C7 18.2779 7.22229 17.8333 7.6 17.55L9 16.5H4.86622C4.69331 16.7989 4.37014 17 4 17ZM12 21C11.4477 21 11 20.5523 11 20V18C11 17.4477 11.4477 17 12 17C12.5523 17 13 17.4477 13 18V20C13 20.5523 12.5523 21 12 21Z" fill="black"/>
</svg>
