<svg width="24" height="24" viewBox="0 0 24 24" fill="none" xmlns="http://www.w3.org/2000/svg">
<path d="M8 2C6.89543 2 6 2.89543 6 4C6 5.10457 6.89543 6 8 6C9.10457 6 10 5.10457 10 4C10 2.89543 9.10457 2 8 2Z" fill="black"/>
<path d="M11.8293 18C11.4175 16.8348 10.3062 16 9 16H4C3.24921 16 2.56284 16.2758 2.03667 16.7316C1.40167 17.2817 1 18.0939 1 19C1 20.6569 2.34315 22 4 22H9C10.6569 22 12 20.6569 12 19C12 18.6494 11.9398 18.3128 11.8293 18Z" fill="black"/>
<path d="M12.6838 6.05132C13.2077 5.87667 13.774 6.15983 13.9487 6.68377L14.8177 9.29082L20.4472 12.1056C20.786 12.275 21 12.6212 21 13V15C21 15.3344 20.8329 15.6466 20.5547 15.8321L17.9696 17.5554L20 19.5858L21.2929 18.2929C21.6834 17.9024 22.3166 17.9024 22.7071 18.2929C23.0976 18.6834 23.0976 19.3166 22.7071 19.7071L20.7071 21.7071C20.5196 21.8946 20.2652 22 20 22H15C14.4477 22 14 21.5523 14 21C14 20.4477 14.4477 20 15 20H17.5858L15.5858 18H13.9C13.4367 15.7178 11.419 14 9 14H4C3.93147 14 3.86327 14.0014 3.79541 14.0041L4.16795 13.4453C4.35342 13.1671 4.66565 13 5 13H10.5L11.25 12H5.71485C5.3787 12 5.06505 11.8311 4.88001 11.5505C4.69496 11.2699 4.66329 10.915 4.7957 10.6061L5.58846 8.75501C6.04475 7.69032 7.09165 7 8.25 7C9.40835 7 10.4552 7.69032 10.9115 8.75501L11.4457 10H12.75L12.8856 9.81916L12.0513 7.31623C11.8767 6.79228 12.1598 6.22596 12.6838 6.05132Z" fill="black"/>
</svg>
