<svg width="24" height="24" viewBox="0 0 24 24" fill="none" xmlns="http://www.w3.org/2000/svg">
<path fill-rule="evenodd" clip-rule="evenodd" d="M12.0002 2C12.5525 2 13.0002 2.44772 13.0002 3V8C13.0002 8.55228 12.5525 9 12.0002 9C11.448 9 11.0002 8.55228 11.0002 8V3C11.0002 2.44772 11.448 2 12.0002 2ZM4.00024 5C4.00024 3.89543 4.89567 3 6.00024 3C7.10481 3 8.00024 3.89543 8.00024 5C8.00024 6.10457 7.10481 7 6.00024 7C4.89567 7 4.00024 6.10457 4.00024 5ZM6.5941 7.58619C7.09878 7.36188 7.68974 7.58918 7.91405 8.09386L9.52295 11.7139L13.6288 10.0715C13.8911 9.96662 14.1855 9.97752 14.4393 10.1015C14.6931 10.2255 14.8826 10.4511 14.961 10.7225L16.6585 16.5985L18.7746 15.7846C19.513 15.5006 20.0002 14.7912 20.0002 14C20.0002 13.4477 20.448 13 21.0002 13C21.5525 13 22.0002 13.4477 22.0002 14C22.0002 15.6187 21.0033 17.0702 19.4925 17.6513L16.3704 18.8521C16.3637 18.8548 16.3569 18.8574 16.3502 18.8599L8.35922 21.9333C7.84374 22.1316 7.26515 21.8745 7.06689 21.359C6.86863 20.8435 7.12578 20.2649 7.64126 20.0667L14.7849 17.3191L13.3461 12.3387L9.37163 13.9285C8.87247 14.1281 8.30477 13.8974 8.08642 13.4061L6.08642 8.90614C5.86212 8.40145 6.08941 7.81049 6.5941 7.58619ZM2.57444 8.09518C3.07416 7.86002 3.66989 8.07449 3.90506 8.5742L6.50067 14.0899C7.06406 15.2871 8.4627 15.838 9.6912 15.3466L11.6288 14.5715C12.1416 14.3664 12.7236 14.6158 12.9287 15.1286C13.1338 15.6414 12.8844 16.2234 12.3716 16.4285L10.434 17.2035C8.22268 18.0881 5.70513 17.0964 4.69103 14.9415L2.09542 9.4258C1.86026 8.92608 2.07472 8.33034 2.57444 8.09518Z" fill="black"/>
</svg>
