<svg width="24" height="24" viewBox="0 0 24 24" fill="none" xmlns="http://www.w3.org/2000/svg">
<path d="M10.5 2C9.97989 2 9.54662 2.39869 9.50345 2.917L9.49113 3.06497C8.63236 3.28962 7.9987 4.07081 7.9987 5C7.9987 5.8121 8.48272 6.51115 9.17801 6.8244L9.06833 8.14136L7.99208 8.32074C7.90142 7.30015 7.04415 6.5 6 6.5H5C3.89543 6.5 3 7.39543 3 8.5V9.50897C1.8787 9.61001 1 10.5524 1 11.7V12.3C1 13.4476 1.8787 14.39 3 14.491V15.5C3 16.6046 3.89543 17.5 5 17.5H6C7.04419 17.5 7.90149 16.6998 7.99209 15.6791L9.06833 15.8585L9.17802 17.1756C8.48272 17.4888 7.9987 18.1879 7.9987 19C7.9987 19.9292 8.63236 20.7104 9.49113 20.935L9.50345 21.083C9.54662 21.6013 9.97989 22 10.5 22H13C13.4888 22 13.906 21.6466 13.9864 21.1644L14.1805 20H15.5V20.5C15.5 21.0523 15.9477 21.5 16.5 21.5C17.0523 21.5 17.5 21.0523 17.5 20.5V17.5C17.5 16.9477 17.0523 16.5 16.5 16.5C15.9477 16.5 15.5 16.9477 15.5 17.5V18H14.5138L14.8471 16H17.5924C18.185 16 18.7762 15.9415 19.3574 15.8252L19.4563 15.8055C20.7671 15.5433 21.9065 14.7403 22.5943 13.594C22.9001 13.0843 23.0334 12.5057 22.9981 11.9379C22.964 11.3904 22.7731 10.8514 22.4291 10.3928L22.3575 10.2973C21.8073 9.5637 21.0659 8.99552 20.2145 8.65495L20.1863 8.64369C19.1233 8.21847 17.9888 7.99999 16.8439 7.99998L14.8471 7.99999L14.5138 6H15V6.5C15 7.05228 15.4477 7.5 16 7.5C16.5523 7.5 17 7.05228 17 6.5V6C17.5517 5.9993 17.9987 5.55185 17.9987 5C17.9987 4.44815 17.5517 4.0007 17 4V3.5C17 2.94772 16.5523 2.5 16 2.5C15.4477 2.5 15 2.94772 15 3.5V4H14.1805L13.9864 2.8356C13.906 2.35341 13.4888 2 13 2H10.5Z" fill="black"/>
</svg>
