<svg width="24" height="24" viewBox="0 0 24 24" fill="none" xmlns="http://www.w3.org/2000/svg">
<path fill-rule="evenodd" clip-rule="evenodd" d="M2.82386 5.86929C2.24064 3.94289 3.6824 2 5.69515 2H8.54623C9.12296 2 9.67161 2.24896 10.0514 2.68299L16.4538 10H22C22.5523 10 23 10.4477 23 11V21C23 21.5523 22.5523 22 22 22H13C12.9111 22 12.8226 21.9881 12.7369 21.9648L3.66641 19.491C2.09214 19.0617 1 17.6318 1 16C1 14.3682 2.09214 12.9383 3.66641 12.509L4.74498 12.2148L2.82386 5.86929ZM10 15C9.44771 15 9 15.4477 9 16C9 16.5523 9.44771 17 10 17H16C16.5523 17 17 16.5523 17 16C17 15.4477 16.5523 15 16 15H10Z" fill="black"/>
</svg>
