<svg width="24" height="24" viewBox="0 0 24 24" fill="none" xmlns="http://www.w3.org/2000/svg">
<path d="M6.18877 2.41529C6.37672 2.15452 6.67856 2 7.00001 2H11C11.3557 2 11.6846 2.18891 11.8638 2.49613L12.741 4H14.0013C15.1059 4 16.0013 4.89543 16.0013 6C16.0013 6.76588 15.5708 7.43122 14.9386 7.76722L15.0744 8H18.2951C18.3067 8 18.325 7.99961 18.3492 7.99909C18.5595 7.99457 19.2153 7.98049 19.7753 8.13131C20.9431 8.44589 21.6336 9.12211 22.1916 9.81962L22.2692 9.91653C22.7563 10.5255 23 11.2635 23 12C23 12.7365 22.7563 13.4745 22.2692 14.0835L22.1916 14.1804C21.6336 14.8779 20.9431 15.5541 19.7753 15.8687C19.2153 16.0195 18.5595 16.0054 18.3492 16.0009L18.3215 16.0003L18.2951 16H15.0744L14.9386 16.2328C15.5708 16.5688 16.0013 17.2341 16.0013 18C16.0013 19.1046 15.1059 20 14.0013 20H12.741L11.8638 21.5039C11.6846 21.8111 11.3557 22 11 22H7.00001C6.67856 22 6.37672 21.8455 6.18877 21.5847C6.00081 21.3239 5.94968 20.9887 6.05132 20.6838L7.61258 16H6.61804L5.89444 17.4472C5.72504 17.786 5.37878 18 5.00001 18H2.00001C1.6839 18 1.38641 17.8505 1.19772 17.5969C1.00902 17.3433 0.95135 17.0154 1.04218 16.7127L2.15598 13H2C1.44772 13 1 12.5523 1 12C1 11.4477 1.44772 11 2 11H2.15598L1.04218 7.28735C0.95135 6.98457 1.00902 6.65668 1.19772 6.40307C1.38641 6.14946 1.6839 6 2.00001 6H4.50001C4.81477 6 5.11115 6.14819 5.30001 6.4L6.50001 8H7.61258L6.05132 3.31623C5.94968 3.01128 6.00081 2.67606 6.18877 2.41529Z" fill="black"/>
</svg>
