<svg width="24" height="24" viewBox="0 0 24 24" fill="none" xmlns="http://www.w3.org/2000/svg">
<path d="M2 17C2 17.3214 2.15452 17.6233 2.41529 17.8112C2.67606 17.9992 3.01128 18.0503 3.31623 17.9487L8 16.3874V17.5L6.4 18.7C6.14819 18.8889 6 19.1852 6 19.5V22C6 22.3161 6.14946 22.6136 6.40307 22.8023C6.65668 22.991 6.98457 23.0487 7.28735 22.9578L12 21.544L16.7127 22.9578C17.0154 23.0487 17.3433 22.991 17.5969 22.8023C17.8505 22.6136 18 22.3161 18 22V19C18 18.6212 17.786 18.275 17.4472 18.1056L16 17.382V16.3874L20.6838 17.9487C20.9887 18.0503 21.3239 17.9992 21.5847 17.8112C21.8455 17.6233 22 17.3214 22 17V13C22 12.6443 21.8111 12.3154 21.5039 12.1362L16 8.92563V5.7049C16 5.69826 16.0001 5.6894 16.0003 5.67847C16.0005 5.67036 16.0007 5.66112 16.0009 5.6508C16.0054 5.44049 16.0195 4.78467 15.8687 4.22475C15.5541 3.0569 14.8779 2.36638 14.1804 1.80837L14.0835 1.73084C13.4745 1.2437 12.7365 1 12 1C11.2635 1 10.5255 1.24369 9.91653 1.73084L9.81962 1.80837C9.12211 2.36638 8.44589 3.0569 8.13131 4.22475C7.98049 4.78467 7.99457 5.44049 7.99909 5.6508C7.99961 5.67502 8 5.69333 8 5.7049V8.92563L2.49613 12.1362C2.18891 12.3154 2 12.6443 2 13V17Z" fill="black"/>
</svg>
