<svg width="24" height="24" viewBox="0 0 24 24" fill="none" xmlns="http://www.w3.org/2000/svg">
<path d="M1.25671 2.33104C1.62617 1.92053 2.25846 1.88726 2.66897 2.25671L6.99637 6.15137L6.05133 3.31624C5.94968 3.01129 6.00081 2.67607 6.18877 2.4153C6.37672 2.15453 6.67857 2.00001 7.00001 2.00001H11C11.3557 2.00001 11.6846 2.18892 11.8638 2.49614L15.0744 8.00001H18.2951C18.3067 8.00001 18.325 7.99962 18.3492 7.9991C18.5595 7.99458 19.2153 7.9805 19.7753 8.13132C20.9431 8.4459 21.6336 9.12212 22.1916 9.81963L22.2692 9.91654C22.7563 10.5255 23 11.2635 23 12C23 12.7365 22.7563 13.4745 22.2692 14.0835L22.1916 14.1804C21.6336 14.8779 20.9431 15.5541 19.7753 15.8687C19.2153 16.0195 18.5595 16.0054 18.3492 16.0009C18.325 16.0004 18.3067 16 18.2951 16H17.9393L22.669 20.2567C23.0795 20.6262 23.1128 21.2585 22.7433 21.669C22.3738 22.0795 21.7416 22.1128 21.331 21.7433L1.33104 3.7433C0.920534 3.37384 0.887255 2.74155 1.25671 2.33104Z" fill="black"/>
<path d="M1.23602 6.35478C1.2228 6.37043 1.21003 6.38653 1.19772 6.40308C1.00902 6.65669 0.95135 6.98458 1.04218 7.28736L2.45598 12L1.04218 16.7127C0.95135 17.0154 1.00902 17.3433 1.19772 17.5969C1.38641 17.8505 1.6839 18 2.00001 18H5.00001C5.37878 18 5.72504 17.786 5.89444 17.4472L6.61804 16H7.61258L6.05133 20.6838C5.94968 20.9887 6.00081 21.324 6.18877 21.5847C6.37672 21.8455 6.67857 22 7.00001 22H11C11.3557 22 11.6846 21.8111 11.8638 21.5039L13.9998 17.8422L1.23602 6.35478Z" fill="black"/>
</svg>
