<svg width="24" height="24" viewBox="0 0 24 24" fill="none" xmlns="http://www.w3.org/2000/svg">
<path d="M7.00001 2C6.67856 2 6.37672 2.15452 6.18877 2.41529C6.00081 2.67606 5.94968 3.01128 6.05132 3.31623L7.61258 8H6.50001L5.30001 6.4C5.11115 6.14819 4.81477 6 4.50001 6H2.00001C1.6839 6 1.38641 6.14946 1.19772 6.40307C1.00902 6.65668 0.95135 6.98457 1.04218 7.28735L2.45598 12L1.04218 16.7127C0.95135 17.0154 1.00902 17.3433 1.19772 17.5969C1.38641 17.8505 1.6839 18 2.00001 18H5.00001C5.37878 18 5.72504 17.786 5.89444 17.4472L6.61804 16H7.61258L6.05132 20.6838C5.94968 20.9887 6.00081 21.3239 6.18877 21.5847C6.37672 21.8455 6.67856 22 7.00001 22H11C11.3557 22 11.6846 21.8111 11.8638 21.5039L15.0744 16H18.2951C18.3017 16 18.3106 16.0001 18.3215 16.0003C18.3296 16.0005 18.3389 16.0007 18.3492 16.0009C18.5595 16.0054 19.2153 16.0195 19.7753 15.8687C20.9431 15.5541 21.6336 14.8779 22.1916 14.1804L22.2692 14.0835C22.7563 13.4745 23 12.7365 23 12C23 11.2635 22.7563 10.5255 22.2692 9.91653L22.1916 9.81962C21.6336 9.12211 20.9431 8.44589 19.7753 8.13131C19.2153 7.98049 18.5595 7.99457 18.3492 7.99909C18.325 7.99961 18.3067 8 18.2951 8H15.0744L11.8638 2.49613C11.6846 2.18891 11.3557 2 11 2H7.00001Z" fill="black"/>
</svg>
