<svg width="24" height="24" viewBox="0 0 24 24" fill="none" xmlns="http://www.w3.org/2000/svg">
<path fill-rule="evenodd" clip-rule="evenodd" d="M11 2H8.51954C7.17192 2 5.98967 2.89861 5.62899 4.19707L1.7401 18.1971C1.2091 20.1087 2.64669 22 4.63065 22H11V18C11 17.4477 11.4477 17 12 17C12.5523 17 13 17.4477 13 18V22H19.3681C21.3521 22 22.7896 20.1087 22.2586 18.1971L18.3698 4.19707C18.0091 2.89861 16.8268 2 15.4792 2H13V6C13 6.55228 12.5523 7 12 7C11.4477 7 11 6.55228 11 6V2ZM13 10C13 9.44772 12.5523 9 12 9C11.4477 9 11 9.44772 11 10V14C11 14.5523 11.4477 15 12 15C12.5523 15 13 14.5523 13 14V10Z" fill="black"/>
</svg>
