<svg width="24" height="24" viewBox="0 0 24 24" fill="none" xmlns="http://www.w3.org/2000/svg">
<path d="M6.21946 6H3V5C3 4.44772 2.55228 4 2 4C1.44772 4 1 4.44772 1 5V21C1 21.5523 1.44772 22 2 22C2.55228 22 3 21.5523 3 21V16H3.71946L6.21946 6Z" fill="black"/>
<path d="M8.28101 6L5.78101 16H7.71946L10.2195 6H8.28101Z" fill="black"/>
<path d="M12.281 6L9.78101 16H11.7195L14.2195 6H12.281Z" fill="black"/>
<path d="M16.281 6L13.781 16H15.7195L18.2195 6H16.281Z" fill="black"/>
<path d="M20.281 6L17.781 16H21V21C21 21.5523 21.4477 22 22 22C22.5523 22 23 21.5523 23 21V5C23 4.44772 22.5523 4 22 4C21.4477 4 21 4.44772 21 5V6H20.281Z" fill="black"/>
</svg>
