<svg width="24" height="24" viewBox="0 0 24 24" fill="none" xmlns="http://www.w3.org/2000/svg">
<path d="M3 6.8765C3 5.74849 4.49542 5.35136 5.05507 6.33075L7 9.73438V6.8765C7 5.74849 8.49542 5.35136 9.05507 6.33075L11 9.73438V6.8765C11 5.74848 12.4954 5.35137 13.0551 6.33074L15 9.73438V6.8765C15 5.74848 16.4954 5.35137 17.0551 6.33074L20.8682 13.0038C21.0451 13.3133 21.0438 13.6936 20.8649 14.0019C20.686 14.3102 20.3565 14.4999 20 14.4999H4C3.44772 14.4999 3 14.0522 3 13.4999V6.8765Z" fill="black"/>
<path d="M1 17.4999C1 16.9477 1.44772 16.4999 2 16.4999H22C22.5523 16.4999 23 16.9477 23 17.4999C23 18.0522 22.5523 18.4999 22 18.4999H2C1.44772 18.4999 1 18.0522 1 17.4999Z" fill="black"/>
</svg>
