<svg width="24" height="24" viewBox="0 0 24 24" fill="none" xmlns="http://www.w3.org/2000/svg">
<path fill-rule="evenodd" clip-rule="evenodd" d="M18 8.62602V8C18 4.68629 15.3137 2 12 2C8.6863 2 6.00001 4.68629 6.00001 8L6.00001 8.62602C4.27478 9.07006 3.00001 10.6362 3.00001 12.5V17.8377L2.05132 20.6838C1.94967 20.9887 2.00081 21.3239 2.18877 21.5847C2.37672 21.8455 2.67856 22 3.00001 22H7.00001C7.55229 22 8.00001 21.5523 8.00001 21V18.8508L8.21914 19.1247C8.40891 19.3619 8.69622 19.5 9.00001 19.5H15C15.3038 19.5 15.5911 19.3619 15.7809 19.1247L16 18.8508V21C16 21.5523 16.4477 22 17 22H21C21.3215 22 21.6233 21.8455 21.8113 21.5847C21.9992 21.3239 22.0503 20.9887 21.9487 20.6838L21 17.8377V12.5C21 10.6362 19.7252 9.07006 18 8.62602ZM9.25 6C9.25 5.30964 9.80964 4.75 10.5 4.75C11.1904 4.75 11.75 5.30964 11.75 6C11.75 6.69036 11.1904 7.25 10.5 7.25C9.80964 7.25 9.25 6.69036 9.25 6ZM9.5 12.5C9.5 11.9477 9.94772 11.5 10.5 11.5H13.5C14.0523 11.5 14.5 11.9477 14.5 12.5C14.5 13.0523 14.0523 13.5 13.5 13.5H10.5C9.94772 13.5 9.5 13.0523 9.5 12.5ZM10.5 14C9.94772 14 9.5 14.4477 9.5 15C9.5 15.5523 9.94772 16 10.5 16H13.5C14.0523 16 14.5 15.5523 14.5 15C14.5 14.4477 14.0523 14 13.5 14H10.5ZM14 6C13.4477 6 13 6.44772 13 7C13 7.55228 13.4477 8 14 8H14.009C14.5613 8 15.009 7.55228 15.009 7C15.009 6.44772 14.5613 6 14.009 6H14Z" fill="black"/>
</svg>
