<svg width="24" height="24" viewBox="0 0 24 24" fill="none" xmlns="http://www.w3.org/2000/svg">
<path fill-rule="evenodd" clip-rule="evenodd" d="M7.01788 14C7.04796 14 7.07793 14.0004 7.10779 14.0013C7.42436 14.0106 7.72866 14.069 8.01334 14.1691C9.12999 14.562 9.94509 15.5975 10.013 16.832C10.016 16.8857 10.0176 16.937 10.0179 16.9866L10.0352 21.0043C10.0366 21.3427 10.2091 21.6574 10.4936 21.8407C10.778 22.0239 11.1358 22.0509 11.4445 21.9124L14.1301 20.7074C15.5671 20.0626 16.4919 18.6346 16.4926 17.0596V17.058L16.4982 15.2251C19.8837 13.2723 21.9998 9.64876 21.9998 5.69778V3C21.9998 2.44772 21.552 2 20.9998 2H17.0415C13.5756 2 10.4177 3.9902 8.92232 7.1169L8.73384 7.511L6.93268 7.54262C5.36079 7.5463 3.93635 8.47044 3.29262 9.90512L2.08765 12.5906C1.94882 12.9 1.97627 13.2587 2.16056 13.5434C2.34486 13.8281 2.66088 14 3.00002 14H7.01788ZM14.5 7.5C14.5 6.39543 15.3954 5.5 16.5 5.5C17.6046 5.5 18.5 6.39543 18.5 7.5C18.5 8.60457 17.6046 9.5 16.5 9.5C15.3954 9.5 14.5 8.60457 14.5 7.5Z" fill="black"/>
<path fill-rule="evenodd" clip-rule="evenodd" d="M6.73334 18.0711C6.79163 17.6048 6.39519 17.2084 5.92887 17.2667C5.26589 17.3495 4.72658 17.8402 4.58164 18.4925L4.3171 19.6829L5.50754 19.4184C6.15977 19.2734 6.65047 18.7341 6.73334 18.0711ZM5.6808 15.2821C7.44127 15.0621 8.93796 16.5587 8.7179 18.3192C8.53019 19.8209 7.41873 21.0425 5.9414 21.3707L3.21695 21.9762C2.88319 22.0504 2.53467 21.9489 2.29291 21.7071C2.05115 21.4653 1.94966 21.1168 2.02383 20.7831L2.62926 18.0586C2.95756 16.5813 4.17912 15.4698 5.6808 15.2821Z" fill="black"/>
</svg>
