<svg width="24" height="24" viewBox="0 0 24 24" fill="none" xmlns="http://www.w3.org/2000/svg">
<path fill-rule="evenodd" clip-rule="evenodd" d="M8.92208 7.1169C10.4175 3.9902 13.5754 2 17.0413 2H20.9995C21.5518 2 21.9995 2.44772 21.9995 3V5.69778C21.9995 9.6515 19.8805 13.2773 16.4909 15.2292V17.058C16.4909 18.6336 15.566 20.0624 14.1284 20.7074L11.4429 21.9124C11.1349 22.0506 10.7779 22.0241 10.4937 21.8418C10.2095 21.6595 10.0364 21.3461 10.0336 21.0085L10.0112 18.3638L9.93097 18.4021C9.54848 18.5851 9.09221 18.5069 8.79241 18.2071L5.79241 15.2071C5.49261 14.9073 5.41445 14.451 5.59738 14.0685L5.63016 14H3C2.66087 14 2.34484 13.8281 2.16055 13.5434C1.97625 13.2588 1.9488 12.9001 2.08764 12.5906L3.2926 9.90513C3.93634 8.47045 5.36078 7.5463 6.93268 7.54264L8.73358 7.51104L8.92208 7.1169ZM14.5 7.5C14.5 6.39543 15.3954 5.5 16.5 5.5C17.6046 5.5 18.5 6.39543 18.5 7.5C18.5 8.60457 17.6046 9.5 16.5 9.5C15.3954 9.5 14.5 8.60457 14.5 7.5Z" fill="black"/>
</svg>
