<svg width="24" height="24" viewBox="0 0 24 24" fill="none" xmlns="http://www.w3.org/2000/svg">
<path d="M13.7809 2.37536C13.5156 2.04374 13.0698 1.91585 12.669 2.05643C12.2683 2.197 12 2.57537 12 3.00006V13.0001C12 13.5523 12.4477 14.0001 13 14.0001H21C21.3844 14.0001 21.7348 13.7797 21.9013 13.4332C22.0678 13.0868 22.021 12.6755 21.7809 12.3754L13.7809 2.37536Z" fill="black"/>
<path d="M10 6.00006C10 5.58158 9.73944 5.20736 9.34696 5.06217C8.95448 4.91698 8.5131 5.03153 8.24076 5.34927L2.24076 12.3493C1.9866 12.6458 1.92832 13.0631 2.0915 13.4179C2.25469 13.7727 2.60948 14.0001 3.00001 14.0001H9.00001C9.5523 14.0001 10 13.5523 10 13.0001V6.00006Z" fill="black"/>
<path d="M3.09757 16.0001C2.4914 16.0001 2.00001 16.4915 2.00001 17.0976C2.00001 19.8052 4.19491 22.0001 6.90245 22.0001H17.0976C19.8051 22.0001 22 19.8052 22 17.0976C22 16.4914 21.5086 16.0001 20.9025 16.0001H3.09757Z" fill="black"/>
</svg>
