<svg width="24" height="24" viewBox="0 0 24 24" fill="none" xmlns="http://www.w3.org/2000/svg">
<path d="M5 2C5 1.44772 4.55228 1 4 1C3.44772 1 3 1.44772 3 2V8.5C3 8.63992 3.02936 8.77828 3.08619 8.90614L6.55831 16.7184C7.03981 17.8018 8.11418 18.5 9.29975 18.5H12V21H8C7.44772 21 7 21.4477 7 22C7 22.5523 7.44772 23 8 23H18C18.5523 23 19 22.5523 19 22C19 21.4477 18.5523 21 18 21H14V18.5H16.7003C17.8858 18.5 18.9602 17.8018 19.4417 16.7184L20.9138 13.4061C21.0513 13.0968 21.0229 12.7389 20.8385 12.4551C20.654 12.1713 20.3385 12 20 12H6.64987L5.76098 10H16C16.5523 10 17 9.55228 17 9C17 8.44772 16.5523 8 16 8H5V2Z" fill="black"/>
</svg>
