<svg width="24" height="24" viewBox="0 0 24 24" fill="none" xmlns="http://www.w3.org/2000/svg">
<rect width="24" height="24" fill="white"/>
<path fill-rule="evenodd" clip-rule="evenodd" d="M5.5 7V4H4.5C3.39543 4 2.5 4.89543 2.5 6V7.06301C1.63739 7.28503 1 8.06808 1 9V15C1 15.9319 1.63739 16.715 2.5 16.937V18C2.5 19.1046 3.39543 20 4.5 20H5.5V17H6C6.15525 17 6.30836 16.9639 6.44721 16.8944L7.5 16.368L8.23417 16H15.6863C18.0732 16 20.3624 15.0518 22.0503 13.364L22.7071 12.7071C23.0976 12.3166 23.0976 11.6834 22.7071 11.2929L22.0503 10.636C20.3624 8.94821 18.0732 8 15.6863 8H8.23417L6.44721 7.10557C6.30836 7.03615 6.15525 7 6 7H5.5ZM17.5 11.75C17.5 11.1977 17.0523 10.75 16.5 10.75C15.9477 10.75 15.5 11.1977 15.5 11.75V12.25C15.5 12.8023 15.9477 13.25 16.5 13.25C17.0523 13.25 17.5 12.8023 17.5 12.25V11.75Z" fill="black"/>
<path d="M7.5 5.39748L8.70504 6H10.8508L8.62469 4.21913C8.44738 4.07728 8.22707 4 8 4H7.5V5.39748Z" fill="black"/>
<path d="M7.5 20V18.6025L8.70504 18H10.8508L8.62469 19.7809C8.44738 19.9227 8.22707 20 8 20H7.5Z" fill="black"/>
</svg>
