<svg width="24" height="24" viewBox="0 0 24 24" fill="none" xmlns="http://www.w3.org/2000/svg">
<path d="M5.5 17C4.94772 17 4.5 17.4477 4.5 18C4.5 18.5523 4.94772 19 5.5 19H5.509C6.06128 19 6.509 18.5523 6.509 18C6.509 17.4477 6.06128 17 5.509 17H5.5Z" fill="black"/>
<path d="M9.5 17C8.94772 17 8.5 17.4477 8.5 18C8.5 18.5523 8.94772 19 9.5 19H9.509C10.0613 19 10.509 18.5523 10.509 18C10.509 17.4477 10.0613 17 9.509 17H9.5Z" fill="black"/>
<path d="M13.5 17C12.9477 17 12.5 17.4477 12.5 18C12.5 18.5523 12.9477 19 13.5 19H13.509C14.0613 19 14.509 18.5523 14.509 18C14.509 17.4477 14.0613 17 13.509 17H13.5Z" fill="black"/>
<path fill-rule="evenodd" clip-rule="evenodd" d="M6 2C5.44772 2 5 2.44772 5 3V7H3C2.44772 7 2 7.44772 2 8V15.3542C1.37764 16.0593 1 16.9856 1 18C1 20.2091 2.79086 22 5 22H14C16.2091 22 18 20.2091 18 18C18 17.2714 17.8052 16.5883 17.4649 16H19V16.8944C19 17.4867 19.1753 18.0658 19.5039 18.5586L21.168 21.0547C21.4743 21.5142 22.0952 21.6384 22.5547 21.332C23.0142 21.0257 23.1384 20.4048 22.832 19.9453L21.168 17.4491C21.0584 17.2849 21 17.0919 21 16.8944V13.1056C21 12.9081 21.0584 12.7151 21.1679 12.5509L22.8321 10.0547C23.1384 9.59517 23.0142 8.9743 22.5547 8.66795C22.0952 8.3616 21.4743 8.48577 21.1679 8.9453L19.5038 11.4415C19.1753 11.9343 19 12.5133 19 13.1056V14H16V11C16 10.9182 15.99 10.8368 15.9701 10.7575L14.3489 4.27239C14.015 2.93689 12.815 2 11.4384 2H6ZM8.53518 10H13.7192L12.4086 4.75746C12.2973 4.3123 11.8973 4 11.4384 4H7V7.69722L8.53518 10ZM3 18C3 16.8954 3.89543 16 5 16H14C14.0173 16 14.0345 16.0002 14.0516 16.0007C15.1323 16.028 16 16.9127 16 18C16 19.1046 15.1046 20 14 20H5C3.89543 20 3 19.1046 3 18Z" fill="black"/>
</svg>
