<svg width="24" height="24" viewBox="0 0 24 24" fill="none" xmlns="http://www.w3.org/2000/svg">
<path d="M12 14C13.1046 14 14 13.1046 14 12C14 10.8954 13.1046 10 12 10C10.8954 10 10 10.8954 10 12C10 13.1046 10.8954 14 12 14Z" fill="black"/>
<path fill-rule="evenodd" clip-rule="evenodd" d="M6.8 2.40006C7.13137 2.84189 7.04183 3.46869 6.6 3.80006L3 6.50006V8.77034L6.18099 8.108C6.57417 7.52126 7.05401 6.99705 7.60227 6.5538C8.56403 5.77623 9.73628 5.24784 11.0206 5.06799C11.3406 5.02317 11.6676 5 12 5C14.4257 5 16.5632 6.23378 17.8192 8.10804L21 8.77034V6.50006L17.4 3.80006C16.9582 3.46869 16.8686 2.84189 17.2 2.40006C17.5314 1.95823 18.1582 1.86869 18.6 2.20006L22.6 5.20006C22.8518 5.38891 23 5.6853 23 6.00006V18.0001C23 18.3148 22.8518 18.6112 22.6 18.8001L18.6 21.8001C18.1582 22.1314 17.5314 22.0419 17.2 21.6001C16.8686 21.1582 16.9582 20.5314 17.4 20.2001L21 17.5001V15.2297L17.819 15.892C17.4245 16.4807 16.9427 17.0065 16.3921 17.4507C15.4314 18.2258 14.2612 18.7525 12.9794 18.932C12.6594 18.9768 12.3324 19 12 19C9.57434 19 7.43684 17.7662 6.18082 15.892L3 15.2297V17.5001L6.6 20.2001C7.04183 20.5314 7.13137 21.1582 6.8 21.6001C6.46863 22.0419 5.84183 22.1314 5.4 21.8001L1.4 18.8001C1.14819 18.6112 1 18.3148 1 18.0001V6.00006C1 5.6853 1.14819 5.38891 1.4 5.20006L5.4 2.20006C5.84183 1.86869 6.46863 1.95823 6.8 2.40006ZM15 12C15 13.6569 13.6569 15 12 15C10.3431 15 9 13.6569 9 12C9 10.3431 10.3431 9 12 9C13.6569 9 15 10.3431 15 12Z" fill="black"/>
</svg>
