<svg width="24" height="24" viewBox="0 0 24 24" fill="none" xmlns="http://www.w3.org/2000/svg">
<path d="M4.54545 7.5H3.25C2.00736 7.5 1 6.49264 1 5.25C1 4.00736 2.00736 3 3.25 3H6.75C7.99264 3 9 4.00736 9 5.25C9 6.35036 8.21012 7.26623 7.16643 7.46154L7.82937 8.22115C7.29706 9.37017 7 10.6504 7 12C7 13.3496 7.29706 14.6298 7.82937 15.7789L7.16643 16.5385C8.21012 16.7338 9 17.6496 9 18.75C9 19.9926 7.99264 21 6.75 21H3.25C2.00736 21 1 19.9926 1 18.75C1 17.5074 2.00736 16.5 3.25 16.5H4.54545L6.10129 14.7173C4.87199 14.3986 4 13.2861 4 12.0001C4 10.714 4.87203 9.60148 6.10138 9.28283L4.54545 7.5Z" fill="black"/>
<path d="M16 13C16.5523 13 17 12.5523 17 12C17 11.4477 16.5523 11 16 11C15.4477 11 15 11.4477 15 12C15 12.5523 15.4477 13 16 13Z" fill="black"/>
<path fill-rule="evenodd" clip-rule="evenodd" d="M14.8193 18.9008C12.7058 18.5418 10.9159 17.2354 9.90029 15.4363C9.32726 14.4212 9 13.2488 9 12C9 10.7513 9.32697 9.57892 9.89997 8.56388C10.95 6.70375 12.8279 5.37024 15.0353 5.06594C15.3506 5.02247 15.6727 5 16 5C19.866 5 23 8.13401 23 12C23 15.866 19.866 19 16 19C15.5976 19 15.2031 18.966 14.8193 18.9008ZM18.5 12C18.5 13.3807 17.3807 14.5 16 14.5C14.6193 14.5 13.5 13.3807 13.5 12C13.5 10.6193 14.6193 9.5 16 9.5C17.3807 9.5 18.5 10.6193 18.5 12Z" fill="black"/>
</svg>
