<svg width="24" height="24" viewBox="0 0 24 24" fill="none" xmlns="http://www.w3.org/2000/svg">
<path fill-rule="evenodd" clip-rule="evenodd" d="M3 3C3 2.44772 2.55228 2 2 2C1.44772 2 1 2.44772 1 3V21C1 21.5523 1.44772 22 2 22C2.55228 22 3 21.5523 3 21V15.2297L6.18082 15.892C7.43684 17.7662 9.57434 19 12 19C12.3324 19 12.6594 18.9768 12.9794 18.932C14.2612 18.7525 15.4314 18.2258 16.3921 17.4507C16.9427 17.0065 17.4245 16.4807 17.819 15.892L21 15.2297V21C21 21.5523 21.4477 22 22 22C22.5523 22 23 21.5523 23 21V3C23 2.44772 22.5523 2 22 2C21.4477 2 21 2.44772 21 3V8.77034L17.8192 8.10804C16.5632 6.23378 14.4257 5 12 5C11.6676 5 11.3406 5.02317 11.0206 5.06799C9.73628 5.24784 8.56403 5.77623 7.60227 6.5538C7.05401 6.99705 6.57417 7.52126 6.18099 8.108L3 8.77034V3ZM12 15C13.6569 15 15 13.6569 15 12C15 10.3431 13.6569 9 12 9C10.3431 9 9 10.3431 9 12C9 13.6569 10.3431 15 12 15Z" fill="black"/>
<path d="M14 12C14 13.1046 13.1046 14 12 14C10.8954 14 10 13.1046 10 12C10 10.8954 10.8954 10 12 10C13.1046 10 14 10.8954 14 12Z" fill="black"/>
</svg>
