<svg width="24" height="24" viewBox="0 0 24 24" fill="none" xmlns="http://www.w3.org/2000/svg">
<path fill-rule="evenodd" clip-rule="evenodd" d="M10.8528 19.8928L11.0896 20.4138C11.2519 20.7708 11.6079 21 12 21H16.5226C18.0414 21 19.2726 19.7688 19.2726 18.25C19.2726 18.0728 19.2557 17.8995 19.2236 17.7314L21.8667 17.065C22.533 16.897 23 16.2977 23 15.6106L23.0001 14.0013C23.0002 13.1728 22.3286 12.5012 21.5001 12.5012H17.9419C17.9804 12.173 18.0002 11.8392 18.0002 11.5012C18.0002 11.1633 17.9804 10.8295 17.9419 10.5012L21.5001 10.5012C22.3286 10.5012 23.0002 9.82956 23.0001 9.0011L23 7.38967C23 6.70243 22.5329 6.10313 21.8665 5.93524L12.7165 3.62994C11.723 3.22355 10.6364 3 9.5 3C4.80558 3 1 6.80558 1 11.5C1 16.1944 4.80558 20 9.5 20C9.95989 20 10.4118 19.9634 10.8528 19.8928ZM9.5 14C10.8807 14 12 12.8807 12 11.5C12 10.1193 10.8807 9 9.5 9C8.11929 9 7 10.1193 7 11.5C7 12.8807 8.11929 14 9.5 14Z" fill="black"/>
</svg>
