<svg width="24" height="24" viewBox="0 0 24 24" fill="none" xmlns="http://www.w3.org/2000/svg">
<path fill-rule="evenodd" clip-rule="evenodd" d="M16.5 5.07665V5C16.5 3.34315 15.1569 2 13.5 2H10.5C8.84317 2 7.50003 3.34315 7.50003 5V5.07665C7.40964 5.09535 7.31964 5.11875 7.22981 5.14807C6.82843 5.27908 6.45923 5.49334 6.14634 5.77683C5.78932 6.10032 5.54544 6.52835 5.26828 7.01479L4.07853 9.09705L3.64021 8.73178C3.21593 8.37821 2.58537 8.43554 2.2318 8.85982C1.87824 9.28409 1.93556 9.91466 2.35984 10.2682L3.07076 10.8607L2.93888 11.0914C2.65934 11.5804 2.46568 11.9192 2.32656 12.285C2.20343 12.6088 2.11428 12.9445 2.06054 13.2867C1.99983 13.6733 1.99991 14.0635 2.00002 14.6267L2.00002 19.5265C2 19.7365 1.99998 19.9411 2.01186 20.1152C2.02485 20.3056 2.05532 20.5313 2.15227 20.7654C2.35525 21.2554 2.7446 21.6448 3.23466 21.8478C3.4687 21.9447 3.69443 21.9752 3.8848 21.9882C4.05884 22 4.2634 22 4.47339 22H4.5265C4.73649 22 4.94121 22 5.11525 21.9882C5.30562 21.9752 5.53135 21.9447 5.76539 21.8478C6.25545 21.6448 6.6448 21.2554 6.84778 20.7654C6.94473 20.5313 6.9752 20.3056 6.98819 20.1152C6.99072 20.0781 6.99271 20.0396 6.99428 20H17.0058C17.0073 20.0396 17.0093 20.0781 17.0119 20.1152C17.0248 20.3056 17.0553 20.5313 17.1523 20.7654C17.3553 21.2554 17.7446 21.6448 18.2347 21.8478C18.4687 21.9447 18.6944 21.9752 18.8848 21.9882C19.0588 22 19.2634 22 19.4734 22H19.5265C19.7365 22 19.9412 22 20.1153 21.9882C20.3056 21.9752 20.5313 21.9447 20.7654 21.8478C21.2555 21.6448 21.6448 21.2554 21.8478 20.7654C21.9447 20.5313 21.9752 20.3056 21.9882 20.1152C22.0001 19.9412 22 19.7366 22 19.5266L22 14.6267C22.0001 14.0635 22.0002 13.6733 21.9395 13.2867C21.8858 12.9445 21.7966 12.6088 21.6735 12.285C21.5344 11.9192 21.3407 11.5804 21.0612 11.0915L20.9293 10.8607L21.6402 10.2682C22.0645 9.91466 22.1218 9.28409 21.7682 8.85982C21.4147 8.43554 20.7841 8.37821 20.3598 8.73178L19.9215 9.09705L18.7318 7.01479C18.4546 6.52835 18.2107 6.10032 17.8537 5.77683C17.5408 5.49334 17.1716 5.27908 16.7702 5.14807C16.6804 5.11875 16.5904 5.09535 16.5 5.07665ZM18.3611 10.3974L17.0531 8.10849C16.6839 7.46237 16.6007 7.34038 16.5108 7.25894C16.4065 7.16445 16.2835 7.09303 16.1497 7.04936C16.0726 7.02421 15.9526 7.00375 15.4934 7.00069C15.3896 7 15.2748 7 15.143 7H8.85706C8.72523 7 8.61049 7 8.50667 7.00069C8.04741 7.00375 7.92743 7.02421 7.85038 7.04936C7.71659 7.09303 7.59352 7.16445 7.48923 7.25894C7.39934 7.34038 7.31614 7.46237 6.94692 8.10849L5.63897 10.3974L6.19519 10.8609C6.28353 10.9345 6.32746 10.9709 6.36038 10.9961L6.3628 10.998L6.36584 10.9981C6.40729 10.9998 6.46431 11 6.57931 11H17.4207C17.5357 11 17.5928 10.9998 17.6342 10.9981L17.6372 10.998L17.6397 10.9961C17.6726 10.9709 17.7165 10.9345 17.8049 10.8609L18.3611 10.3974ZM5 15.5C5 14.6716 5.67157 14 6.5 14C7.32843 14 8 14.6716 8 15.5C8 16.3284 7.32843 17 6.5 17C5.67157 17 5 16.3284 5 15.5ZM16 15.5C16 14.6716 16.6716 14 17.5 14C18.3284 14 19 14.6716 19 15.5C19 16.3284 18.3284 17 17.5 17C16.6716 17 16 16.3284 16 15.5Z" fill="black"/>
</svg>
