<svg width="24" height="24" viewBox="0 0 24 24" fill="none" xmlns="http://www.w3.org/2000/svg">
<path fill-rule="evenodd" clip-rule="evenodd" d="M11 3V4H9C8.44772 4 8 4.44772 8 5V7H5.28224C3.98109 7 3.02638 8.22278 3.34195 9.48507L4.72991 15.0369C4.30883 15.1547 4 15.5413 4 16C4 16.5523 4.44772 17 5 17H5.97903C5.99344 17.0003 6.00789 17.0003 6.02238 17H7V22C7 22.5523 7.44772 23 8 23H16C16.5523 23 17 22.5523 17 22V17H17.9805C17.995 17.0003 18.0095 17.0003 18.0239 17H19C19.5523 17 20 16.5523 20 16C20 15.5423 19.6925 15.1564 19.2728 15.0377L20.661 9.48507C20.9765 8.22278 20.0218 7 18.7207 7H16V5C16 4.44772 15.5523 4 15 4H13V3H14C14.5523 3 15 2.55228 15 2C15 1.44772 14.5523 1 14 1H10C9.44772 1 9 1.44772 9 2C9 2.55228 9.44772 3 10 3H11ZM14 9V15H10V9L14 9ZM8 9H5.28224L6.78224 15H8V9ZM16 15H17.2207L18.7207 9H16V15Z" fill="black"/>
</svg>
