<svg width="24" height="24" viewBox="0 0 24 24" fill="none" xmlns="http://www.w3.org/2000/svg">
<path fill-rule="evenodd" clip-rule="evenodd" d="M15.1707 18C15.0602 18.3128 15 18.6494 15 19C15 20.6569 16.3431 22 18 22C19.6569 22 21 20.6569 21 19C21 18.3721 20.8071 17.7893 20.4774 17.3075C19.937 16.518 19.029 16 18 16C16.6938 16 15.5825 16.8348 15.1707 18ZM18 18C17.4477 18 17 18.4477 17 19C17 19.5523 17.4477 20 18 20C18.5523 20 19 19.5523 19 19C19 18.4477 18.5523 18 18 18Z" fill="black"/>
<path fill-rule="evenodd" clip-rule="evenodd" d="M5 4C4.44772 4 4 4.44772 4 5V10.8169C3.72993 10.8944 3.47518 11.0395 3.26243 11.2523L2.25228 12.2624C1.82356 12.6912 1.66938 13.2905 1.78975 13.8419C1.31474 14.1466 1 14.6794 1 15.2857V16.7143C1 17.3206 1.31474 17.8534 1.78975 18.1581C1.66939 18.7096 1.82356 19.3088 2.25228 19.7376L3.26243 20.7477C3.69115 21.1764 4.29044 21.3306 4.84185 21.2102C5.14664 21.6853 5.67942 22 6.28571 22H7.71429C8.32058 22 8.85336 21.6853 9.15815 21.2102C9.70955 21.3306 10.3088 21.1764 10.7376 20.7477L11.7477 19.7376C12.1764 19.3088 12.3306 18.7096 12.2102 18.1582C12.2841 18.1108 12.3541 18.0578 12.4196 18H13.1C13.5633 15.7178 15.581 14 18 14C19.7725 14 21.3296 14.9223 22.2175 16.3132L22.4961 16.154C22.8077 15.9759 23 15.6446 23 15.2857V11C23 10.4477 22.5523 10 22 10H19.5V9.10555C19.5 8.43684 19.8342 7.81238 20.3906 7.44145L20.5547 7.33205C21.0142 7.0257 21.1384 6.40483 20.8321 5.9453C20.5257 5.48577 19.9048 5.3616 19.4453 5.66795L19.2812 5.77735C18.1684 6.51921 17.5 7.76814 17.5 9.10555V10H14.618L11.8944 4.55279C11.725 4.214 11.3788 4 11 4H5ZM10.382 6L12.382 10H6V6H10.382ZM7 18C8.10457 18 9 17.1046 9 16C9 14.8954 8.10457 14 7 14C5.89543 14 5 14.8954 5 16C5 17.1046 5.89543 18 7 18Z" fill="black"/>
</svg>
