<svg width="24" height="24" viewBox="0 0 24 24" fill="none" xmlns="http://www.w3.org/2000/svg">
<path fill-rule="evenodd" clip-rule="evenodd" d="M11 4C10.4477 4 10 4.44772 10 5C10 5.55228 10.4477 6 11 6H12.7396C13.1247 6 13.4755 6.22113 13.6417 6.56854L15.0783 9.57243L12.532 13.3987L2.17906 11.5164C1.63568 11.4176 1.1151 11.778 1.0163 12.3213C0.927154 12.8117 1.21191 13.2834 1.66762 13.4435C1.2477 14.0208 1 14.7315 1 15.5C1 17.433 2.567 19 4.5 19C5.04518 19 5.56124 18.8754 6.02125 18.653C6.65444 19.2881 7.53043 19.6816 8.49939 19.6816C10.4324 19.6816 11.9994 18.1146 11.9994 16.1816C11.9994 15.8824 11.9619 15.5921 11.8913 15.315L12.8213 15.4841C13.214 15.5555 13.6115 15.3865 13.8327 15.0542L16.0829 11.6729L17.1507 13.9056C16.4439 14.546 16 15.4711 16 16.5C16 18.433 17.567 20 19.5 20C21.433 20 23 18.433 23 16.5C23 14.567 21.433 13 19.5 13C19.3145 13 19.1324 13.0144 18.9548 13.0422L17.1362 9.23971C17.1305 9.22722 17.1246 9.21485 17.1184 9.20259L15.446 5.70563C14.9475 4.6634 13.8949 4 12.7396 4H11ZM18.1153 15.9224L18.5979 16.9315C18.8362 17.4297 19.4332 17.6404 19.9315 17.4021C20.4297 17.1638 20.6404 16.5668 20.4021 16.0685L19.9195 15.0595C20.5438 15.2409 21 15.8172 21 16.5C21 17.3284 20.3284 18 19.5 18C18.6716 18 18 17.3284 18 16.5C18 16.2953 18.041 16.1002 18.1153 15.9224ZM9.10415 14.8083L8.41925 14.6837C8.24608 14.6928 8.08109 14.731 7.92871 14.7937C7.97545 15.0218 8 15.2581 8 15.5C8 16.1589 7.81792 16.7753 7.50132 17.3016C7.76687 17.5383 8.11683 17.6816 8.49939 17.6816C9.32782 17.6816 9.99939 17.0101 9.99939 16.1816C9.99939 15.5698 9.63272 15.0414 9.10415 14.8083ZM4.5 14C3.67157 14 3 14.6716 3 15.5C3 16.3284 3.67157 17 4.5 17C5.32843 17 6 16.3284 6 15.5C6 14.6716 5.32843 14 4.5 14Z" fill="black"/>
<path d="M1.55301 6.10555C2.04698 5.85856 2.64766 6.05878 2.89465 6.55276L3.93641 8.63629C4.08026 8.924 4.35374 9.12494 4.67129 9.17626L7.15976 9.57844C7.70498 9.66656 8.07552 10.18 7.98741 10.7252C7.89929 11.2704 7.38588 11.6409 6.84067 11.5528L4.3522 11.1506C3.39955 10.9967 2.57912 10.3938 2.14755 9.53071L1.10579 7.44719C0.858803 6.95321 1.05903 6.35254 1.55301 6.10555Z" fill="black"/>
</svg>
