<svg width="24" height="24" viewBox="0 0 24 24" fill="none" xmlns="http://www.w3.org/2000/svg">
<path fill-rule="evenodd" clip-rule="evenodd" d="M11 4C11 3.44772 11.4477 3 12 3H16.1459C17.7222 3 19 4.27783 19 5.8541C19 6.93516 18.3892 7.92343 17.4223 8.40689L15.3178 9.45914L16.1185 11.1749C16.5599 11.0608 17.0229 11 17.5 11C20.5376 11 23 13.4624 23 16.5C23 19.5376 20.5376 22 17.5 22C14.4624 22 12 19.5376 12 16.5C12 14.6532 12.9102 13.019 14.3065 12.0216L13.3631 10H10.5C9.19456 10 8.03518 10.6254 7.30509 11.5928C7.30102 11.5984 7.29689 11.6039 7.2927 11.6094C6.96 12.055 6.71799 12.5723 6.59401 13.1339C8.5506 13.6226 10 15.392 10 17.5C10 19.9853 7.98528 22 5.5 22C3.01472 22 1 19.9853 1 17.5C1 15.3344 2.52972 13.5261 4.56754 13.0967C4.68941 12.2896 4.97207 11.5352 5.38185 10.8671L4.30694 8H3C2.44772 8 2 7.55228 2 7C2 6.44772 2.44772 6 3 6H4.97666C4.99215 5.99964 5.00762 5.99964 5.02305 6H7C7.55228 6 8 6.44772 8 7C8 7.55228 7.55228 8 7 8H6.44288L6.89423 9.2039C7.89801 8.44805 9.14668 8 10.5 8H13.7639L16.5279 6.61803C16.8172 6.47336 17 6.17761 17 5.8541C17 5.38239 16.6176 5 16.1459 5H12C11.4477 5 11 4.55228 11 4ZM15.1754 13.8834C14.4543 14.5245 14 15.4592 14 16.5C14 18.433 15.567 20 17.5 20C19.433 20 21 18.433 21 16.5C21 14.567 19.433 13 17.5 13C17.3259 13 17.1548 13.0127 16.9876 13.0372L18.4062 16.0771C18.6397 16.5776 18.4234 17.1726 17.9229 17.4062C17.4224 17.6397 16.8274 17.4234 16.5938 16.9229L15.1754 13.8834ZM5.5 15C4.11929 15 3 16.1193 3 17.5C3 18.8807 4.11929 20 5.5 20C6.88071 20 8 18.8807 8 17.5C8 16.1193 6.88071 15 5.5 15Z" fill="black"/>
</svg>
