<svg width="24" height="24" viewBox="0 0 24 24" fill="none" xmlns="http://www.w3.org/2000/svg">
<path fill-rule="evenodd" clip-rule="evenodd" d="M15 3C14.4477 3 14 3.44772 14 4V13H11.8293C11.4175 11.8348 10.3062 11 9 11C7.95651 11 7.03746 11.5328 6.5 12.3411C5.96254 11.5328 5.04349 11 4 11C2.34315 11 1 12.3431 1 14C1 15.6569 2.34315 17 4 17C5.04349 17 5.96254 16.4672 6.5 15.6589C7.03746 16.4672 7.95651 17 9 17C10.3062 17 11.4175 16.1652 11.8293 15H15.1707C15.5825 16.1652 16.6938 17 18 17C19.3062 17 20.4175 16.1652 20.8293 15H22C22.5523 15 23 14.5523 23 14V8C23 7.78363 22.9298 7.5731 22.8 7.4L19.8 3.4C19.6111 3.14819 19.3148 3 19 3H15ZM21 8H16V5H18.5L21 8ZM4 13C3.44772 13 3 13.4477 3 14C3 14.5523 3.44772 15 4 15C4.55228 15 5 14.5523 5 14C5 13.4477 4.55228 13 4 13ZM18 13C17.4477 13 17 13.4477 17 14C17 14.5523 17.4477 15 18 15C18.5523 15 19 14.5523 19 14C19 13.4477 18.5523 13 18 13ZM8 14C8 13.4477 8.44772 13 9 13C9.55228 13 10 13.4477 10 14C10 14.5523 9.55228 15 9 15C8.44772 15 8 14.5523 8 14Z" fill="black"/>
</svg>
