<svg width="24" height="24" viewBox="0 0 24 24" fill="none" xmlns="http://www.w3.org/2000/svg">
<path fill-rule="evenodd" clip-rule="evenodd" d="M1 3C1 2.44772 1.44772 2 2 2H22C22.5523 2 23 2.44772 23 3C23 3.55228 22.5523 4 22 4H12V12H1V8.5C1 7.68209 1.39278 6.95592 2 6.49982V4C1.44772 4 1 3.55228 1 3ZM4 4V6H6V4H4ZM8 4V6H10V4H8Z" fill="black"/>
<path fill-rule="evenodd" clip-rule="evenodd" d="M1 14V16C1 17.2096 1.85905 18.2186 3.00035 18.4501C3.00012 18.4667 3 18.4833 3 18.5C3 20.433 4.567 22 6.5 22C8.433 22 10 20.433 10 18.5H14C14 20.433 15.567 22 17.5 22C19.433 22 21 20.433 21 18.5C21 18.4833 20.9999 18.4667 20.9996 18.4501C22.1409 18.2186 23 17.2096 23 16V8.5C23 7.11929 21.8807 6 20.5 6H19.9146C19.7087 5.4174 19.1531 5 18.5 5C17.8469 5 17.2913 5.4174 17.0854 6H14V13C14 13.5523 13.5523 14 13 14H1ZM17.5 17C17.3733 17 17.2503 17.0157 17.1328 17.0453C16.4819 17.2091 16 17.7983 16 18.5C16 19.3284 16.6716 20 17.5 20C18.3284 20 19 19.3284 19 18.5C19 18.2848 18.9553 18.0827 18.8756 17.9004C18.6432 17.3685 18.1135 17 17.5 17ZM6.13075 17.0458C5.48087 17.2103 5 17.799 5 18.5C5 19.3284 5.67157 20 6.5 20C7.32843 20 8 19.3284 8 18.5C8 17.7751 7.48583 17.1703 6.8023 17.0305C6.70466 17.0105 6.60355 17 6.5 17C6.37258 17 6.24887 17.0159 6.13075 17.0458ZM16 10.1C16 9.49249 16.4925 9 17.1 9H18.9C19.5075 9 20 9.49249 20 10.1V11.9C20 12.5075 19.5075 13 18.9 13H17.1C16.4925 13 16 12.5075 16 11.9V10.1Z" fill="black"/>
</svg>
