<svg width="24" height="24" viewBox="0 0 24 24" fill="none" xmlns="http://www.w3.org/2000/svg">
<path fill-rule="evenodd" clip-rule="evenodd" d="M15 5C14.4477 5 14 5.44772 14 6V15H9.82929C9.41746 13.8348 8.30622 13 7 13C5.69378 13 4.58254 13.8348 4.17071 15H2C1.44772 15 1 15.4477 1 16C1 16.5523 1.44772 17 2 17H4.17071C4.58254 18.1652 5.69378 19 7 19C8.30622 19 9.41746 18.1652 9.82929 17H15.1707C15.5825 18.1652 16.6938 19 18 19C19.3062 19 20.4175 18.1652 20.8293 17H22C22.5523 17 23 16.5523 23 16V10C23 9.78363 22.9298 9.5731 22.8 9.4L19.8 5.4C19.6111 5.14819 19.3148 5 19 5H15ZM16 10H21L18.5 7H16V10ZM6 16C6 15.4477 6.44772 15 7 15C7.55228 15 8 15.4477 8 16C8 16.5523 7.55228 17 7 17C6.44772 17 6 16.5523 6 16ZM17 16C17 15.4477 17.4477 15 18 15C18.5523 15 19 15.4477 19 16C19 16.5523 18.5523 17 18 17C17.4477 17 17 16.5523 17 16Z" fill="black"/>
</svg>
