<svg width="24" height="24" viewBox="0 0 24 24" fill="none" xmlns="http://www.w3.org/2000/svg">
<path fill-rule="evenodd" clip-rule="evenodd" d="M3 4C2.44772 4 2 4.44772 2 5C2 5.55228 2.44772 6 3 6V8C2.44772 8 2 8.44772 2 9C2 9.55228 2.44772 10 3 10H11C11.5523 10 12 9.55228 12 9C12 8.44772 11.5523 8 11 8V6C11.5523 6 12 5.55228 12 5C12 4.44772 11.5523 4 11 4H3ZM5 8V6H6V8H5ZM8 8V6H9V8H8Z" fill="black"/>
<path fill-rule="evenodd" clip-rule="evenodd" d="M15 6C14.4477 6 14 6.44772 14 7V11H2C1.44772 11 1 11.4477 1 12V17C1 17.5523 1.44772 18 2 18H4.17071C4.58254 19.1652 5.69378 20 7 20C8.30622 20 9.41746 19.1652 9.82929 18H15.1707C15.5825 19.1652 16.6938 20 18 20C19.3062 20 20.4175 19.1652 20.8293 18H22C22.5523 18 23 17.5523 23 17V11C23 10.7836 22.9298 10.5731 22.8 10.4L19.8 6.4C19.6111 6.14819 19.3148 6 19 6H15ZM21 11H16V8H18.5L21 11ZM6 17C6 16.4477 6.44772 16 7 16C7.55228 16 8 16.4477 8 17C8 17.5523 7.55228 18 7 18C6.44772 18 6 17.5523 6 17ZM17 17C17 16.4477 17.4477 16 18 16C18.5523 16 19 16.4477 19 17C19 17.5523 18.5523 18 18 18C17.4477 18 17 17.5523 17 17Z" fill="black"/>
</svg>
