<svg width="24" height="24" viewBox="0 0 24 24" fill="none" xmlns="http://www.w3.org/2000/svg">
<path fill-rule="evenodd" clip-rule="evenodd" d="M7 4C6.44772 4 6 4.44772 6 5V9H3C1.89543 9 1 9.89543 1 11V16C1 16.5523 1.44772 17 2 17H2.17071C2.58254 18.1652 3.69378 19 5 19C6.30622 19 7.41746 18.1652 7.82929 17H11.1707C11.5825 18.1652 12.6938 19 14 19C15.3062 19 16.4175 18.1652 16.8293 17H19.4658C19.4782 17.0197 19.4909 17.0392 19.5039 17.0586L21.168 19.5547C21.4743 20.0142 22.0952 20.1384 22.5547 19.832C23.0142 19.5257 23.1384 18.9048 22.832 18.4453L21.168 15.9492C21.0584 15.7849 21 15.5919 21 15.3945V11.6056C21 11.4082 21.0584 11.2152 21.1679 11.0509L22.8321 8.55472C23.1384 8.09519 23.0142 7.47432 22.5547 7.16797C22.0952 6.86162 21.4743 6.9858 21.1679 7.44533L19.5038 9.94149C19.1753 10.4343 19 11.0133 19 11.6056V15H18V11C18 9.89543 17.1046 9 16 9H14.5662L11.8575 4.4855C11.6768 4.1843 11.3513 4 11 4H7ZM12.2338 9H8V6H10.4338L12.2338 9ZM4 16C4 15.4477 4.44772 15 5 15C5.55228 15 6 15.4477 6 16C6 16.5523 5.55228 17 5 17C4.44772 17 4 16.5523 4 16ZM13 16C13 15.4477 13.4477 15 14 15C14.5523 15 15 15.4477 15 16C15 16.5523 14.5523 17 14 17C13.4477 17 13 16.5523 13 16Z" fill="black"/>
</svg>
