<svg width="24" height="24" viewBox="0 0 24 24" fill="none" xmlns="http://www.w3.org/2000/svg">
<path fill-rule="evenodd" clip-rule="evenodd" d="M12 5C11.4477 5 11 5.44772 11 6V9H5C3.34314 9 2 10.3431 2 12V15C1.44772 15 1 15.4477 1 16C1 16.5523 1.44772 17 2 17H5.17071C5.58254 18.1652 6.69378 19 8 19C9.30622 19 10.4175 18.1652 10.8293 17H14.1707C14.5825 18.1652 15.6938 19 17 19C18.3062 19 19.4175 18.1652 19.8293 17H21.9982C22.5505 17 22.9982 16.5523 22.9982 16C22.9982 15.4477 22.5505 15 21.9982 15V12C21.9982 10.5267 20.9362 9.30153 19.5361 9.04808L16.8 5.4C16.6111 5.14819 16.3148 5 16 5H12ZM17 9H13V7H15.5L17 9ZM7 16C7 15.4477 7.44772 15 8 15C8.55228 15 9 15.4477 9 16C9 16.5523 8.55228 17 8 17C7.44772 17 7 16.5523 7 16ZM16 16C16 15.4477 16.4477 15 17 15C17.5523 15 18 15.4477 18 16C18 16.5523 17.5523 17 17 17C16.4477 17 16 16.5523 16 16Z" fill="black"/>
</svg>
