<svg width="24" height="24" viewBox="0 0 24 24" fill="none" xmlns="http://www.w3.org/2000/svg">
<path fill-rule="evenodd" clip-rule="evenodd" d="M5 3C4.44772 3 4 3.44772 4 4V8.5C4 8.77614 3.77614 9 3.5 9C3.22386 9 3 8.77614 3 8.5V8C3 7.44772 2.55228 7 2 7C1.44772 7 1 7.44772 1 8V8.5C1 9.88071 2.11929 11 3.5 11C4.88071 11 6 9.88071 6 8.5V7.85913L8.30049 12H2C1.44772 12 1 12.4477 1 13V18C1 18.5523 1.44772 19 2 19H4.17071C4.58254 20.1652 5.69378 21 7 21C8.30622 21 9.41746 20.1652 9.82929 19H15.1707C15.5825 20.1652 16.6938 21 18 21C19.3062 21 20.4175 20.1652 20.8293 19H22C22.5523 19 23 18.5523 23 18V12C23 11.7836 22.9298 11.5731 22.8 11.4L19.8 7.4C19.6111 7.14819 19.3148 7 19 7H15C14.4477 7 14 7.44772 14 8V10.0855L8.78935 3.38606C8.5999 3.14247 8.30859 3 8 3H5ZM20.75 12H16V9H18.5L20.75 12ZM6 18C6 17.4477 6.44772 17 7 17C7.55228 17 8 17.4477 8 18C8 18.5523 7.55228 19 7 19C6.44772 19 6 18.5523 6 18ZM17 18C17 17.4477 17.4477 17 18 17C18.5523 17 19 17.4477 19 18C19 18.5523 18.5523 19 18 19C17.4477 19 17 18.5523 17 18Z" fill="black"/>
</svg>
