<svg width="24" height="24" viewBox="0 0 24 24" fill="none" xmlns="http://www.w3.org/2000/svg">
<path fill-rule="evenodd" clip-rule="evenodd" d="M21.5162 11.9236C20.8417 11.2904 19.9733 10.7526 18.9801 10.3183C18.9932 10.2145 19 10.1083 19 10C19 6.13401 15.866 3 12 3C8.13401 3 5 6.13401 5 10C5 10.1084 5.0068 10.2145 5.01984 10.3184C4.02666 10.7526 3.15829 11.2905 2.48377 11.9236C1.60424 12.7492 1 13.7948 1 15C1 16.9635 2.56577 18.472 4.48172 19.4299C6.45748 20.4178 9.11699 21 12 21C14.883 21 17.5425 20.4178 19.5183 19.4299C21.4342 18.472 23 16.9635 23 15C23 13.7948 22.3958 12.7492 21.5162 11.9236ZM12 5C9.23858 5 7 7.23858 7 10C7 10.0895 7.02519 10.2079 7.11032 10.3503L7.1215 10.3681C7.24452 10.5639 7.46537 10.7808 7.79049 10.9917C8.12417 11.208 8.5588 11.4122 9.08827 11.5805L9.10346 11.5853C9.92279 11.8438 10.9169 12 12 12C13.5353 12 14.8758 11.6867 15.7954 11.2269C16.7749 10.7372 17 10.2456 17 10C17 7.23858 14.7614 5 12 5ZM6 14C5.44772 14 5 14.4477 5 15C5 15.5523 5.44772 16 6 16H6.009C6.56128 16 7.009 15.5523 7.009 15C7.009 14.4477 6.56128 14 6.009 14H6ZM11 17C11 16.4477 11.4477 16 12 16H12.009C12.5613 16 13.009 16.4477 13.009 17C13.009 17.5523 12.5613 18 12.009 18H12C11.4477 18 11 17.5523 11 17ZM18 14C17.4477 14 17 14.4477 17 15C17 15.5523 17.4477 16 18 16H18.009C18.5613 16 19.009 15.5523 19.009 15C19.009 14.4477 18.5613 14 18.009 14H18Z" fill="black"/>
</svg>
