<svg width="24" height="24" viewBox="0 0 24 24" fill="none" xmlns="http://www.w3.org/2000/svg">
<path opacity="0.14" d="M11.244 4.174C11.4755 3.50808 11.5912 3.17513 11.7624 3.08285C11.9105 3.00298 12.0889 3.00298 12.237 3.08285C12.4081 3.17513 12.5239 3.50808 12.7553 4.174L14.2856 8.57639C14.3515 8.76592 14.3844 8.86068 14.4438 8.93125C14.4962 8.99359 14.5631 9.04218 14.6386 9.07278C14.7241 9.10743 14.8244 9.10947 15.025 9.11356L19.6848 9.20852C20.3896 9.22288 20.742 9.23007 20.8827 9.36432C21.0044 9.48051 21.0595 9.65014 21.0294 9.81569C20.9945 10.007 20.7136 10.2199 20.1518 10.6459L16.4377 13.4616C16.2778 13.5829 16.1979 13.6435 16.1491 13.7217C16.106 13.7909 16.0805 13.8695 16.0747 13.9507C16.0682 14.0427 16.0972 14.1387 16.1553 14.3308L17.505 18.7919C17.7091 19.4667 17.8112 19.8041 17.727 19.9793C17.6541 20.131 17.5098 20.2358 17.343 20.2583C17.1503 20.2842 16.861 20.0829 16.2823 19.6802L12.4566 17.0181C12.2919 16.9035 12.2096 16.8462 12.1201 16.8239C12.041 16.8043 11.9584 16.8043 11.8793 16.8239C11.7898 16.8462 11.7074 16.9035 11.5427 17.0181L7.71707 19.6802C7.13839 20.0829 6.84905 20.2842 6.65635 20.2583C6.48958 20.2358 6.34528 20.131 6.2724 19.9793C6.18818 19.8041 6.29025 19.4667 6.4944 18.7919L7.84405 14.3308C7.90215 14.1387 7.93121 14.0427 7.92466 13.9507C7.91889 13.8695 7.89334 13.7909 7.85026 13.7217C7.80148 13.6435 7.72154 13.5829 7.56164 13.4616L3.8476 10.6459C3.28581 10.2199 3.00491 10.007 2.97003 9.81569C2.93985 9.65014 2.99496 9.48051 3.11669 9.36432C3.25734 9.23007 3.60976 9.22289 4.31462 9.20852L8.97442 9.11356C9.17503 9.10947 9.27533 9.10743 9.36079 9.07278C9.43629 9.04218 9.50316 8.99359 9.55559 8.93125C9.61495 8.86068 9.64789 8.76592 9.71377 8.57639L11.244 4.174Z" fill="black"/>
<path d="M11.245 4.174C11.4765 3.50808 11.5922 3.17513 11.7634 3.08285C11.9115 3.00298 12.0898 3.00298 12.238 3.08285C12.4091 3.17513 12.5248 3.50808 12.7563 4.174L14.2866 8.57639C14.3525 8.76592 14.3854 8.86068 14.4448 8.93125C14.4972 8.99359 14.5641 9.04218 14.6396 9.07278C14.725 9.10743 14.8253 9.10947 15.0259 9.11356L19.6857 9.20852C20.3906 9.22288 20.743 9.23007 20.8837 9.36432C21.0054 9.48051 21.0605 9.65014 21.0303 9.81569C20.9955 10.007 20.7146 10.2199 20.1528 10.6459L16.4387 13.4616C16.2788 13.5829 16.1989 13.6435 16.1501 13.7217C16.107 13.7909 16.0815 13.8695 16.0757 13.9507C16.0692 14.0427 16.0982 14.1387 16.1563 14.3308L17.506 18.7919C17.7101 19.4667 17.8122 19.8041 17.728 19.9793C17.6551 20.131 17.5108 20.2358 17.344 20.2583C17.1513 20.2842 16.862 20.0829 16.2833 19.6802L12.4576 17.0181C12.2929 16.9035 12.2106 16.8462 12.1211 16.8239C12.042 16.8043 11.9593 16.8043 11.8803 16.8239C11.7908 16.8462 11.7084 16.9035 11.5437 17.0181L7.71805 19.6802C7.13937 20.0829 6.85003 20.2842 6.65733 20.2583C6.49056 20.2358 6.34626 20.131 6.27337 19.9793C6.18915 19.8041 6.29123 19.4667 6.49538 18.7919L7.84503 14.3308C7.90313 14.1387 7.93218 14.0427 7.92564 13.9507C7.91986 13.8695 7.89432 13.7909 7.85123 13.7217C7.80246 13.6435 7.72251 13.5829 7.56262 13.4616L3.84858 10.6459C3.28678 10.2199 3.00588 10.007 2.97101 9.81569C2.94082 9.65014 2.99594 9.48051 3.11767 9.36432C3.25831 9.23007 3.61074 9.22289 4.31559 9.20852L8.9754 9.11356C9.176 9.10947 9.27631 9.10743 9.36177 9.07278C9.43726 9.04218 9.50414 8.99359 9.55657 8.93125C9.61593 8.86068 9.64887 8.76592 9.71475 8.57639L11.245 4.174Z" stroke="black" stroke-width="2" stroke-linecap="round" stroke-linejoin="round"/>
</svg>
