<svg width="24" height="24" viewBox="0 0 24 24" fill="none" xmlns="http://www.w3.org/2000/svg">
<g opacity="0.3">
<path d="M7.02346 4.09184C7.06936 3.69541 6.87517 3.30965 6.52941 3.11039C6.18364 2.91112 5.7525 2.93652 5.43252 3.175C2.74419 5.17858 1 8.38575 1 12.0001C1 13.2943 1.22431 14.5381 1.63616 15.6937C1.7341 15.9685 1.94714 16.1868 2.21944 16.2914C2.49174 16.3961 2.79615 16.3766 3.05289 16.2381C3.33389 16.0865 3.65555 16.0001 4.00038 16.0001C5.05342 16.0001 5.9173 16.8145 5.99501 17.8467C6.02365 18.2272 6.26627 18.5582 6.62044 18.7C6.97462 18.8418 7.37863 18.7698 7.66194 18.5142C8.01715 18.1939 8.48514 18.0001 9.00075 18.0001C9.23613 18.0001 9.4599 18.0403 9.66693 18.1134C9.80869 18.1635 9.95763 18.1803 10.103 18.1652C9.94725 17.9662 9.81603 17.7976 9.70903 17.6582C9.60842 17.527 9.52369 17.4144 9.4577 17.3225C9.4047 17.2486 9.32374 17.134 9.26681 17.0209C9.24923 16.9859 9.24081 16.9697 9.23193 16.9525L9.20843 16.9068C9.19213 16.8747 9.15683 16.8053 9.12667 16.7181C9.09651 16.6309 9.08146 16.5548 9.07448 16.5196L9.06463 16.4687C9.06103 16.4498 9.05761 16.4318 9.04985 16.3934C8.99932 16.1438 8.99968 15.8533 9.00007 15.5518L9.00013 7.66354C7.81778 7.10185 7 5.89604 7 4.50006C7 4.36159 7.00799 4.2254 7.02346 4.09184Z" fill="black"/>
<path d="M13.8975 18.1655C14.0531 17.9667 14.1842 17.7984 14.2911 17.659C14.3917 17.5279 14.4764 17.4154 14.5424 17.3235C14.5954 17.2497 14.6764 17.1351 14.7333 17.0219C14.7509 16.9869 14.7593 16.9708 14.7681 16.9537L14.7919 16.9075C14.8082 16.8754 14.8434 16.8063 14.8735 16.7191C14.9037 16.6319 14.9188 16.5555 14.9258 16.5202L14.9356 16.4695C14.9392 16.4507 14.9426 16.4328 14.9504 16.3944C15.0009 16.1447 15.0006 15.8541 15.0002 15.5524L15.0001 7.66342C16.1823 7.10167 17 5.89594 17 4.50006C17 4.35849 16.9925 4.22242 16.9773 4.09184C16.9314 3.69541 17.1256 3.30965 17.4714 3.11039C17.8172 2.91112 18.2483 2.93652 18.5683 3.175C21.2566 5.17858 23.0008 8.38575 23.0008 12.0001C23.0008 13.294 22.7769 14.5379 22.365 15.6937C22.2671 15.9685 22.054 16.1868 21.7817 16.2914C21.5094 16.3961 21.205 16.3766 20.9483 16.2381C20.6672 16.0864 20.3459 16.0001 20.0012 16.0001C18.9483 16.0001 18.0847 16.8143 18.0069 17.8467C17.967 18.3775 17.5197 18.7801 16.9944 18.7716C16.7603 18.7683 16.5263 18.6834 16.3388 18.5142C15.9836 18.1939 15.5156 18.0001 15 18.0001C14.7645 18.0001 14.5405 18.0404 14.3332 18.1136C14.1916 18.1637 14.0428 18.1805 13.8975 18.1655Z" fill="black"/>
</g>
<path fill-rule="evenodd" clip-rule="evenodd" d="M9.77038 4.02685C10.2218 3.92029 10.6872 4.13807 10.8946 4.55288L11.6182 6.0001H12.3821L13.1057 4.55288C13.3131 4.13807 13.7785 3.92029 14.2299 4.02685C14.6813 4.1334 15.0001 4.53632 15.0001 5.0001V15.4736C15.0001 15.4999 15.0002 15.5262 15.0002 15.5525C15.0006 15.8541 15.0009 16.1447 14.9504 16.3944C14.9426 16.4328 14.9392 16.4507 14.9356 16.4695C14.933 16.4832 14.9303 16.4974 14.9258 16.5202C14.9188 16.5555 14.9037 16.6319 14.8735 16.7191C14.8434 16.8064 14.8082 16.8755 14.7919 16.9075C14.7813 16.9283 14.7745 16.9414 14.7681 16.9538C14.7593 16.9708 14.7509 16.9869 14.7333 17.022C14.6764 17.1351 14.5954 17.2497 14.5424 17.3235C14.4764 17.4154 14.3917 17.528 14.2911 17.6591C14.0904 17.9207 13.8045 18.2845 13.431 18.7598L13.4262 18.7659C13.1589 19.106 13.0001 19.5331 13.0001 20.0001C13.0001 20.5524 12.5524 21.0001 12.0001 21.0001C11.4478 21.0001 11.0001 20.5524 11.0001 20.0001C11.0001 19.5329 10.8413 19.1058 10.5742 18.7657L10.5694 18.7596C10.1958 18.284 9.90981 17.9199 9.70903 17.6582C9.60842 17.527 9.5237 17.4144 9.45769 17.3225C9.4047 17.2487 9.32374 17.1341 9.26681 17.0209C9.24923 16.9859 9.24081 16.9697 9.23193 16.9526C9.22554 16.9402 9.2189 16.9274 9.20843 16.9068C9.19214 16.8748 9.15683 16.8054 9.12667 16.7181C9.0965 16.6309 9.08145 16.5548 9.07448 16.5196C9.06999 16.4969 9.06723 16.4824 9.06463 16.4687C9.06103 16.4498 9.05761 16.4318 9.04985 16.3935C8.99932 16.1439 8.99968 15.8533 9.00007 15.5519C9.0001 15.5256 9.00013 15.4994 9.00013 15.473V5.0001C9.00013 4.53632 9.31901 4.1334 9.77038 4.02685Z" fill="black"/>
</svg>
