<svg width="24" height="24" viewBox="0 0 24 24" fill="none" xmlns="http://www.w3.org/2000/svg">
<path opacity="0.3" fill-rule="evenodd" clip-rule="evenodd" d="M16.7647 1.9917C17.0299 1.9917 17.2842 2.09705 17.4718 2.28459L21.7144 6.52723C21.902 6.71477 22.0073 6.96912 22.0073 7.23434C22.0073 7.49956 21.902 7.75391 21.7144 7.94145L14.2075 15.4484C13.817 15.8389 13.1838 15.8389 12.7933 15.4484L11.3792 14.0343L6.25996 19.1538C5.28365 20.1301 3.70073 20.1301 2.72442 19.1538C1.74811 18.1774 1.74811 16.5945 2.72442 15.6182L16.0575 2.28461C16.2451 2.09707 16.4994 1.9917 16.7647 1.9917ZM7.75685 13.4142L4.13863 17.0324C3.94337 17.2277 3.94337 17.5443 4.13863 17.7395C4.3339 17.9348 4.65048 17.9348 4.84574 17.7395L8.46396 14.1213L7.75685 13.4142Z" fill="black"/>
<path d="M12 19.4997V14.6549L12.7933 15.4482C13.1838 15.8387 13.817 15.8387 14.2075 15.4482L21.7144 7.94126C21.902 7.75373 22.0073 7.49937 22.0073 7.23415C22.0073 6.96894 21.902 6.71458 21.7144 6.52705L21.6874 6.5C21.8883 6.686 22.0084 6.95055 22.0083 7.2347L22.0007 19.7507C22 20.993 20.9927 21.9997 19.7504 21.9997C18.5075 21.9997 17.5 20.9922 17.5 19.7494V18.7043C17.5 18.5662 17.3881 18.4543 17.25 18.4543C17.1119 18.4543 17 18.5662 17 18.7043V19.4997C17 20.8804 15.8807 21.9997 14.5 21.9997C13.1193 21.9997 12 20.8804 12 19.4997Z" fill="black"/>
</svg>
