<svg width="24" height="24" viewBox="0 0 24 24" fill="none" xmlns="http://www.w3.org/2000/svg">
<path opacity="0.3" fill-rule="evenodd" clip-rule="evenodd" d="M10.8466 2.46796C10.5614 2.01421 9.9692 1.86599 9.50386 2.13189L2.50386 6.13189C2.27039 6.26531 2.10049 6.48713 2.0325 6.74729C1.96451 7.00746 2.00416 7.28405 2.14251 7.51463L8.14251 17.5146C8.42237 17.9811 9.02375 18.1383 9.49606 17.8684L16.7067 13.749C16.9433 13.6138 17.1145 13.3879 17.1807 13.1235C17.2469 12.8592 17.2023 12.5792 17.0573 12.3485L10.8466 2.46796ZM9 8.00012C9.55228 8.00012 10 7.55241 10 7.00012C10 6.44784 9.55228 6.00012 9 6.00012C8.44772 6.00012 8 6.44784 8 7.00012C8 7.55241 8.44772 8.00012 9 8.00012Z" fill="black"/>
<path fill-rule="evenodd" clip-rule="evenodd" d="M14.6797 14.9072L16.7073 13.7488C16.9439 13.6136 17.1151 13.3877 17.1813 13.1234C17.2475 12.859 17.2029 12.5791 17.0578 12.3483L17.0359 12.3135C17.0438 12.3249 17.0504 12.3365 17.0578 12.3483L21.2288 18.9823C21.8558 19.9798 21.6129 21.2914 20.6704 21.9983C19.6307 22.7781 18.1493 22.5243 17.4284 21.4429L15.1695 18.0546C14.9983 17.7979 14.9553 17.4764 15.0529 17.1837L15.4074 16.12L14.6797 14.9072ZM17.1049 17.3522L17.3603 16.586L19.5355 20.0467C19.6086 20.163 19.5803 20.3159 19.4704 20.3983C19.3492 20.4892 19.1765 20.4596 19.0925 20.3335L17.1049 17.3522Z" fill="black"/>
</svg>
