<svg width="24" height="24" viewBox="0 0 24 24" fill="none" xmlns="http://www.w3.org/2000/svg">
<g opacity="0.3">
<path d="M22 9.6499L12.4064 13.9137C12.1468 14.0291 11.8504 14.0286 11.5912 13.9124L4 10.5095V13.5857L4.27009 13.8558L6.68377 13.0512C6.93538 12.9674 7.21 12.9869 7.44721 13.1055L9.44721 14.1055C9.94119 14.3525 10.1414 14.9532 9.89443 15.4471C9.64744 15.9411 9.04676 16.1413 8.55279 15.8943L6.92327 15.0796L4.54018 15.8739L3.70711 16.707C3.31658 17.0975 2.68342 17.0975 2.29289 16.707C2.09763 16.5118 2 16.2558 2 15.9999V18.9999C2 19.5522 2.44772 19.9999 3 19.9999H14V16.4999C14 15.1192 15.1193 13.9999 16.5 13.9999H17C17 12.8953 17.8954 11.9999 19 11.9999H22V9.6499Z" fill="black"/>
<path d="M19 13.9999H21V17.9999C21 18.5522 20.5523 18.9999 20 18.9999H16V16.4999C16 16.2238 16.2239 15.9999 16.5 15.9999H17C18.1046 15.9999 19 15.1045 19 13.9999Z" fill="black"/>
</g>
<path d="M2 5C2 4.87667 2.02233 4.75856 2.06316 4.64948L6.40786 6.82183L8.29311 8.70708C8.68364 9.09761 9.3168 9.09761 9.70733 8.70708C10.0979 8.31656 10.0979 7.68339 9.70733 7.29287L8.68838 6.27393L9.44743 5.8944C9.94141 5.64741 10.1416 5.04674 9.89465 4.55276C9.72296 4.20938 9.38036 4.00794 9.0215 4H21C21.5523 4 22 4.44772 22 5V7.46135L12.002 11.9049L2 7.42125V5Z" fill="black"/>
<path d="M5.23634 4H8.97739C8.83426 4.00317 8.68956 4.03727 8.55301 4.10555L7.00022 4.88194L5.23634 4Z" fill="black"/>
</svg>
