<svg width="24" height="24" viewBox="0 0 24 24" fill="none" xmlns="http://www.w3.org/2000/svg">
<path opacity="0.3" fill-rule="evenodd" clip-rule="evenodd" d="M2 19.5C2 18.1193 3.11929 17 4.5 17H19.5C20.8807 17 22 18.1193 22 19.5C22 20.8807 20.8807 22 19.5 22H4.5C3.11929 22 2 20.8807 2 19.5Z" fill="black"/>
<path d="M16.6076 2.2053C16.9112 2.43713 17.0561 2.82161 16.9812 3.19612L16.1678 7.26333C16.0918 7.64326 16.0803 7.71831 16.0787 7.78522C16.0768 7.86234 16.0839 7.93941 16.0998 8.0149C16.1135 8.08039 16.1385 8.1521 16.2824 8.51184L19.6777 17H15.0006V14.6C15.0006 14.0399 15.0006 13.7599 14.8917 13.546C14.7958 13.3578 14.6428 13.2049 14.4546 13.109C14.2407 13 13.9607 13 13.4006 13H10.6006C10.0406 13 9.76057 13 9.54666 13.109C9.35849 13.2049 9.20551 13.3578 9.10964 13.546C9.00065 13.7599 9.00065 14.0399 9.00065 14.6V17H4.33398L8.2011 7.71888C8.50207 6.99601 8.71049 6.49544 9.01804 6.054C9.28997 5.66367 9.61622 5.31416 9.98691 5.01601C10.4062 4.67881 10.8912 4.43646 11.5917 4.08644L15.5534 2.10558C15.895 1.93477 16.3041 1.97347 16.6076 2.2053Z" fill="black"/>
<path d="M11.0006 17H13.0006V15H11.0006V17Z" fill="black"/>
</svg>
