<svg width="24" height="24" viewBox="0 0 24 24" fill="none" xmlns="http://www.w3.org/2000/svg">
<path opacity="0.3" d="M16.15 11.2575L16.6925 11.7784C16.8938 11.9716 17.0052 12.24 16.9998 12.5189C16.9945 12.7978 16.8729 13.0618 16.6644 13.2471L10.6773 18.569C8.56371 20.4477 5.93005 21.6413 3.12404 21.992C2.75173 22.0386 2.38469 21.8728 2.17348 21.5626C1.96227 21.2525 1.94244 20.8503 2.12211 20.5209L2.94228 19.0172C3.74335 17.5486 4.17506 16.7571 4.67286 16.0057C5.11512 15.3382 5.5952 14.6965 6.11075 14.0837C6.69104 13.3941 7.32845 12.7565 8.51125 11.5734L10.6168 9.46729C10.6622 9.55258 10.7208 9.6327 10.7927 9.70459L13.5427 12.4566C13.7303 12.6442 13.9846 12.7497 14.2499 12.7497C14.5152 12.7497 14.7696 12.6444 14.9572 12.4568L15.8288 11.5853C15.9418 11.4725 16.0495 11.365 16.15 11.2575Z" fill="black"/>
<path fill-rule="evenodd" clip-rule="evenodd" d="M16.7427 2.3427C17.6817 1.40399 19.1328 1.20978 20.2856 1.86852C21.9714 2.83183 22.2797 5.13444 20.9068 6.50737L20.5486 6.8656C20.1424 7.27177 19.5915 7.49995 19.0171 7.49995H18.4142L17 8.91415C16.9991 9.25779 16.9899 9.56872 16.9171 9.87186C16.8436 10.178 16.7224 10.4706 16.5579 10.739C16.3707 11.0446 16.1168 11.298 15.8288 11.5854C15.8093 11.6049 15.7896 11.6245 15.7698 11.6443L14.9572 12.457C14.7696 12.6445 14.5152 12.7499 14.2499 12.7499C13.9846 12.7498 13.7303 12.6444 13.5427 12.4567L10.7927 9.70476C10.4023 9.31415 10.4025 8.68109 10.793 8.29068L16.7427 2.3427Z" fill="black"/>
</svg>
