<svg width="24" height="24" viewBox="0 0 24 24" fill="none" xmlns="http://www.w3.org/2000/svg">
<path opacity="0.3" fill-rule="evenodd" clip-rule="evenodd" d="M6.44601 6.19205C6.80492 6.13741 7.1696 6.13188 7.53 6.17563C7.87138 6.21706 8.19999 6.31577 8.63471 6.44635L12.0004 7.45606L15.366 6.44635C15.8008 6.31577 16.1294 6.21706 16.4707 6.17563C16.8311 6.13188 17.1958 6.13741 17.5547 6.19205C17.8947 6.2438 18.2202 6.35242 18.6507 6.4961L18.7562 6.53128C19.4886 6.77541 20.0922 6.97659 20.5711 7.17829C21.0674 7.3873 21.5087 7.62782 21.8807 7.98793C22.5708 8.65614 22.9974 9.55039 23.0825 10.5072C23.1284 11.0229 23.0377 11.5172 22.8879 12.0345C22.7433 12.5336 22.5199 13.1294 22.2488 13.8522L21.6665 15.4055C21.4359 16.0232 21.2333 16.5658 20.8651 16.9836C20.543 17.3491 20.1367 17.6307 19.6813 17.804C19.1608 18.002 18.5817 18.0012 17.9222 18.0002L16.7083 18.0001C16.4731 18.0002 16.2654 18.0004 16.0566 17.9711C15.8728 17.9454 15.6918 17.9027 15.5159 17.8435C15.316 17.7762 15.1303 17.6833 14.9199 17.5779L12.0004 16.1181L9.08082 17.5779C8.87043 17.6833 8.68473 17.7762 8.48489 17.8435C8.30899 17.9027 8.12797 17.9454 7.94418 17.9711C7.73536 18.0004 7.52769 18.0002 7.29241 18.0001L6.0785 18.0002C5.41906 18.0012 4.83994 18.002 4.31943 17.804C3.86408 17.6307 3.45779 17.3491 3.13567 16.9836C2.76745 16.5658 2.56489 16.0232 2.33424 15.4055L1.75192 13.8522C1.48083 13.1294 1.25743 12.5336 1.11286 12.0345C0.963046 11.5172 0.872328 11.0229 0.9182 10.5072C1.00332 9.55039 1.42995 8.65614 2.12009 7.98793C2.49203 7.62782 2.93333 7.3873 3.42962 7.17829C3.90855 6.97659 4.51212 6.77541 5.24453 6.53128L5.35001 6.4961C5.78058 6.35242 6.10605 6.2438 6.44601 6.19205ZM6 12.0001C6 11.4478 6.44772 11.0001 7 11.0001H8C8.55228 11.0001 9 11.4478 9 12.0001C9 12.5524 8.55228 13.0001 8 13.0001H7C6.44772 13.0001 6 12.5524 6 12.0001ZM15 12.0001C15 11.4478 15.4477 11.0001 16 11.0001H17C17.5523 11.0001 18 11.4478 18 12.0001C18 12.5524 17.5523 13.0001 17 13.0001H16C15.4477 13.0001 15 12.5524 15 12.0001Z" fill="black"/>
<path fill-rule="evenodd" clip-rule="evenodd" d="M6 12C6 11.4477 6.44772 11 7 11H8C8.55228 11 9 11.4477 9 12C9 12.5523 8.55228 13 8 13H7C6.44772 13 6 12.5523 6 12ZM15 12C15 11.4477 15.4477 11 16 11H17C17.5523 11 18 11.4477 18 12C18 12.5523 17.5523 13 17 13H16C15.4477 13 15 12.5523 15 12Z" fill="black"/>
</svg>
