<svg width="24" height="24" viewBox="0 0 24 24" fill="none" xmlns="http://www.w3.org/2000/svg">
<path opacity="0.3" d="M3.4707 5.61813C3.58212 5.67763 3.68405 5.75937 3.76956 5.8627L7.32552 10.1595C11.2482 6.86412 16.1895 5.40388 21.0178 5.78062C21.4938 5.81777 21.9297 5.51317 22.0585 5.05338C22.1873 4.59359 21.973 4.10688 21.547 3.89134C15.7871 0.977458 8.71443 1.55142 3.4707 5.61813Z" fill="black"/>
<path fill-rule="evenodd" clip-rule="evenodd" d="M2.36246 5.72963C2.78794 5.37751 3.4183 5.43698 3.77042 5.86246L15.7704 20.3625C16.1225 20.7879 16.0631 21.4183 15.6376 21.7704C15.2121 22.1225 14.5818 22.0631 14.2296 21.6376L2.22963 7.13759C1.87751 6.71212 1.93698 6.08175 2.36246 5.72963Z" fill="black"/>
</svg>
