<svg width="24" height="24" viewBox="0 0 24 24" fill="none" xmlns="http://www.w3.org/2000/svg">
<path opacity="0.3" fill-rule="evenodd" clip-rule="evenodd" d="M19.472 2.27511C19.8297 2.14641 20.2229 2.15831 20.5721 2.30842C20.7516 2.38555 20.8833 2.48918 20.9717 2.56646C21.0478 2.63305 21.1281 2.71342 21.1947 2.78003L21.2208 2.80615C21.2874 2.87271 21.3678 2.95303 21.4344 3.02915C21.5116 3.11749 21.6153 3.24921 21.6924 3.42866C21.8425 3.77792 21.8544 4.17114 21.7257 4.52883C21.6596 4.71262 21.5641 4.85037 21.4923 4.94322C21.4304 5.02325 21.3551 5.10829 21.2926 5.17877L7.35431 20.9155C7.17731 21.1154 7.00604 21.3088 6.84801 21.4598C6.67545 21.6246 6.45297 21.8049 6.15452 21.9161C5.7432 22.0693 5.29291 22.0829 4.87307 21.9549C4.56845 21.862 4.33547 21.6955 4.15325 21.5414C3.98638 21.4003 3.80374 21.2176 3.61497 21.0288L2.97206 20.3859C2.78325 20.1971 2.60056 20.0144 2.45945 19.8476C2.30536 19.6653 2.13886 19.4324 2.04596 19.1277C1.91793 18.7079 1.93156 18.2576 2.08476 17.8463C2.19591 17.5478 2.3762 17.3254 2.54103 17.1528C2.69198 16.9948 2.88539 16.8235 3.08527 16.6465L18.8221 2.7082C18.8925 2.64574 18.9776 2.57037 19.0576 2.50851C19.1504 2.43672 19.2882 2.34124 19.472 2.27511Z" fill="black"/>
<path d="M9.4601 11.0001H7C6.73366 11.0001 6.47833 11.1064 6.29061 11.2953C6.1029 11.4843 5.9983 11.7403 6.00002 12.0066L6.01324 14.0531L9.4601 11.0001Z" fill="black"/>
<path d="M16.1364 11.0001H18C18.5523 11.0001 19 10.5524 19 10.0001V7.76709L16.1364 11.0001Z" fill="black"/>
</svg>
