<svg width="24" height="24" viewBox="0 0 24 24" fill="none" xmlns="http://www.w3.org/2000/svg">
<path d="M10.8685 3.13146C11.2645 2.73545 11.4625 2.53744 11.6908 2.46325C11.8917 2.39799 12.108 2.39799 12.3089 2.46325C12.5372 2.53744 12.7352 2.73545 13.1312 3.13146L14.5312 4.53146C14.7042 4.70442 14.7906 4.79089 14.8916 4.85273C14.981 4.90756 15.0786 4.94797 15.1806 4.97246C15.2957 5.00009 15.418 5.00009 15.6626 5.00009H17.3998C17.9599 5.00009 18.2399 5.00009 18.4538 5.10909C18.642 5.20496 18.795 5.35794 18.8909 5.5461C18.9998 5.76001 18.9998 6.04004 18.9998 6.60009V8.33735C18.9998 8.58194 18.9998 8.70424 19.0275 8.81932C19.052 8.92136 19.0924 9.01891 19.1472 9.10838C19.2091 9.20929 19.2955 9.29577 19.4685 9.46872L20.8685 10.8687C21.2645 11.2647 21.4625 11.4627 21.5367 11.6911C21.6019 11.8919 21.6019 12.1083 21.5367 12.3091C21.4625 12.5374 21.2645 12.7354 20.8685 13.1315L19.4685 14.5315C19.2955 14.7044 19.2091 14.7909 19.1472 14.8918C19.0924 14.9813 19.052 15.0788 19.0275 15.1809C18.9998 15.2959 18.9998 15.4182 18.9998 15.6628V17.4001C18.9998 17.9601 18.9998 18.2402 18.8909 18.4541C18.795 18.6422 18.642 18.7952 18.4538 18.8911C18.2399 19.0001 17.9599 19.0001 17.3998 19.0001H15.6626C15.418 19.0001 15.2957 19.0001 15.1806 19.0277C15.0786 19.0522 14.981 19.0926 14.8916 19.1475C14.7906 19.2093 14.7042 19.2958 14.5312 19.4687L13.1312 20.8687C12.7352 21.2647 12.5372 21.4627 12.3089 21.5369C12.108 21.6022 11.8917 21.6022 11.6908 21.5369C11.4625 21.4627 11.2645 21.2647 10.8685 20.8687L9.46848 19.4687C9.29553 19.2958 9.20905 19.2093 9.10813 19.1475C9.01866 19.0926 8.92112 19.0522 8.81908 19.0277C8.70399 19.0001 8.5817 19.0001 8.33711 19.0001H6.59985C6.0398 19.0001 5.75977 19.0001 5.54586 18.8911C5.3577 18.7952 5.20472 18.6422 5.10884 18.4541C4.99985 18.2402 4.99985 17.9601 4.99985 17.4001V15.6628C4.99985 15.4182 4.99985 15.2959 4.97222 15.1809C4.94772 15.0788 4.90732 14.9813 4.85249 14.8918C4.79065 14.7909 4.70417 14.7044 4.53122 14.5315L3.13122 13.1315C2.7352 12.7354 2.53719 12.5374 2.46301 12.3091C2.39775 12.1083 2.39775 11.8919 2.46301 11.6911C2.53719 11.4627 2.7352 11.2647 3.13122 10.8687L4.53122 9.46872C4.70417 9.29577 4.79065 9.20929 4.85249 9.10838C4.90732 9.01891 4.94772 8.92136 4.97222 8.81932C4.99985 8.70424 4.99985 8.58194 4.99985 8.33735V6.60009C4.99985 6.04004 4.99985 5.76001 5.10884 5.5461C5.20472 5.35794 5.3577 5.20496 5.54586 5.10909C5.75977 5.00009 6.0398 5.00009 6.59985 5.00009H8.33711C8.5817 5.00009 8.70399 5.00009 8.81908 4.97246C8.92112 4.94797 9.01866 4.90756 9.10813 4.85273C9.20905 4.79089 9.29553 4.70442 9.46848 4.53146L10.8685 3.13146Z" stroke="black" stroke-width="2" stroke-linecap="round" stroke-linejoin="round"/>
</svg>
