<svg width="24" height="24" viewBox="0 0 24 24" fill="none" xmlns="http://www.w3.org/2000/svg">
<path d="M11.3174 3.61207C11.543 3.24428 11.6558 3.06039 11.8009 2.99763C11.9275 2.94285 12.0712 2.94285 12.1979 2.99763C12.3429 3.06039 12.4557 3.24428 12.6813 3.61207L14.6663 6.84837C14.7513 6.98706 14.7939 7.05641 14.8519 7.10683C14.9032 7.15146 14.9631 7.18514 15.0279 7.20582C15.1012 7.22918 15.1825 7.22949 15.3452 7.2301L19.2503 7.24488C19.7117 7.24663 19.9425 7.2475 20.0741 7.34478C20.1889 7.42962 20.2619 7.55945 20.2748 7.70159C20.2897 7.86459 20.1707 8.06225 19.9326 8.45756L18.0479 11.5875C17.9575 11.7375 17.9124 11.8126 17.8947 11.8927C17.8791 11.9635 17.8791 12.0369 17.8947 12.1078C17.9124 12.1879 17.9575 12.2629 18.0479 12.4129L19.9326 15.5429C20.1707 15.9382 20.2897 16.1358 20.2748 16.2988C20.2619 16.441 20.1889 16.5708 20.0741 16.6556C19.9425 16.7529 19.7117 16.7538 19.2503 16.7555L15.3452 16.7703C15.1825 16.7709 15.1012 16.7713 15.0279 16.7946C14.9631 16.8153 14.9032 16.849 14.8519 16.8936C14.7939 16.944 14.7513 17.0134 14.6663 17.1521L12.6813 20.3884C12.4557 20.7561 12.3429 20.94 12.1979 21.0028C12.0712 21.0576 11.9275 21.0576 11.8009 21.0028C11.6558 20.94 11.543 20.7561 11.3174 20.3884L9.33246 17.1521C9.2474 17.0134 9.20487 16.944 9.14686 16.8936C9.09552 16.849 9.03562 16.8153 8.97081 16.7946C8.89759 16.7713 8.81624 16.7709 8.65354 16.7703L4.74844 16.7555C4.28699 16.7538 4.05627 16.7529 3.92465 16.6556C3.80987 16.5708 3.73682 16.441 3.72389 16.2988C3.70907 16.1358 3.82809 15.9382 4.06613 15.5429L5.95087 12.4129C6.0412 12.2629 6.08637 12.1879 6.10401 12.1078C6.11962 12.0369 6.11962 11.9635 6.10401 11.8927C6.08637 11.8126 6.0412 11.7375 5.95087 11.5875L4.06613 8.45756C3.82809 8.06225 3.70907 7.86459 3.72389 7.70159C3.73682 7.55945 3.80987 7.42962 3.92465 7.34478C4.05627 7.2475 4.28699 7.24663 4.74844 7.24488L8.65354 7.2301C8.81624 7.22949 8.89759 7.22918 8.97081 7.20582C9.03562 7.18514 9.09552 7.15146 9.14686 7.10683C9.20487 7.05641 9.2474 6.98706 9.33246 6.84838L11.3174 3.61207Z" stroke="black" stroke-width="2" stroke-linecap="round" stroke-linejoin="round"/>
</svg>
