<svg width="24" height="24" viewBox="0 0 24 24" fill="none" xmlns="http://www.w3.org/2000/svg">
<path d="M14 5C14 6.10457 13.1046 7 12 7C10.8954 7 10 6.10457 10 5C10 3.89543 10.8954 3 12 3C13.1046 3 14 3.89543 14 5Z" fill="black"/>
<path d="M6 8C6 9.10457 5.10457 10 4 10C2.89543 10 2 9.10457 2 8C2 6.89543 2.89543 6 4 6C5.10457 6 6 6.89543 6 8Z" fill="black"/>
<path d="M20 10C21.1046 10 22 9.10457 22 8C22 6.89543 21.1046 6 20 6C18.8954 6 18 6.89543 18 8C18 9.10457 18.8954 10 20 10Z" fill="black"/>
<path opacity="0.3" d="M10.6918 6.51318L9.73705 8.74089C9.44829 9.41467 9.25698 9.8587 9.08436 10.1795C8.91495 10.4944 8.81833 10.5817 8.77261 10.614C8.56968 10.7569 8.32083 10.8193 8.07447 10.7889C8.01896 10.7821 7.89255 10.7506 7.59466 10.5529C7.29114 10.3514 6.91302 10.0501 6.3406 9.59218L5.68909 9.07096C5.33433 9.62944 4.71028 10 3.99966 10C3.68755 10 3.39214 9.92856 3.12891 9.80105L5.01579 20.1789C5.10225 20.6544 5.51638 21 5.99966 21H17.9997C18.483 21 18.8971 20.6544 18.9835 20.1789L20.8704 9.80105C20.6072 9.92856 20.3118 10 19.9997 10C19.289 10 18.665 9.62944 18.3102 9.07097L17.6587 9.59218C17.0863 10.0501 16.7082 10.3514 16.4047 10.5529C16.1068 10.7506 15.9804 10.7821 15.9249 10.7889C15.6785 10.8193 15.4296 10.7569 15.2267 10.614C15.181 10.5817 15.0844 10.4944 14.915 10.1795C14.7424 9.85869 14.551 9.41467 14.2623 8.74089L13.3075 6.51318C12.9569 6.81654 12.4997 7.00005 11.9997 7.00005C11.4996 7.00005 11.0424 6.81654 10.6918 6.51318Z" fill="black"/>
</svg>
