<svg width="24" height="24" viewBox="0 0 24 24" fill="none" xmlns="http://www.w3.org/2000/svg">
<g opacity="0.3">
<path d="M7 18.4141L9.05733 20.4715C9.43006 20.8442 9.75163 21.1658 10.0381 21.409C10.3405 21.6657 10.669 21.8934 11.0729 22.0246C11.6754 22.2204 12.3244 22.2204 12.927 22.0246C13.3309 21.8934 13.6593 21.6657 13.9617 21.409C14.2482 21.1658 14.5698 20.8442 14.9425 20.4715L17.0001 18.4139L12.0002 13.414L7 18.4141Z" fill="black"/>
<path d="M17.0001 5.58563L14.9425 3.52809C14.5698 3.15534 14.2482 2.83373 13.9617 2.59051C13.6593 2.3338 13.3309 2.10618 12.927 1.97496C12.3244 1.77918 11.6754 1.77918 11.0729 1.97496C10.669 2.10618 10.3405 2.3338 10.0381 2.59051C9.75162 2.83374 9.43007 3.15531 9.05733 3.52808L7.00001 5.5854L12.0002 10.5855L17.0001 5.58563Z" fill="black"/>
</g>
<path d="M5.58564 7L3.52808 9.05756C3.15532 9.43029 2.83373 9.75186 2.59051 10.0384C2.3338 10.3408 2.10618 10.6692 1.97496 11.0731C1.77918 11.6756 1.77918 12.3247 1.97496 12.9272C2.10618 13.3311 2.3338 13.6596 2.59051 13.962C2.83373 14.2485 3.15531 14.57 3.52807 14.9427L5.58563 17.0003L10.5858 12.0001L5.58564 7Z" fill="black"/>
<path d="M18.4141 17.0001L20.4714 14.9428C20.8442 14.57 21.1658 14.2485 21.409 13.962C21.6657 13.6596 21.8934 13.3311 22.0246 12.9272C22.2204 12.3247 22.2204 11.6756 22.0246 11.0731C21.8934 10.6692 21.6657 10.3407 21.409 10.0384C21.1658 9.75187 20.8442 9.43032 20.4715 9.0576L18.4141 7.00023L13.4142 12.0001L18.4141 17.0001Z" fill="black"/>
</svg>
