<svg width="24" height="24" viewBox="0 0 24 24" fill="none" xmlns="http://www.w3.org/2000/svg">
<path opacity="0.3" fill-rule="evenodd" clip-rule="evenodd" d="M3.52808 9.05717L9.05717 3.52808C9.42991 3.15531 9.75147 2.83374 10.038 2.59051C10.3404 2.3338 10.6688 2.10618 11.0727 1.97496C11.6752 1.77918 12.3243 1.77918 12.9268 1.97496C13.3307 2.10618 13.6592 2.3338 13.9616 2.59051C14.2481 2.83374 14.5696 3.15532 14.9424 3.52809L20.4714 9.05716C20.8442 9.4299 21.1658 9.75146 21.409 10.038C21.6657 10.3404 21.8934 10.6688 22.0246 11.0727C22.2204 11.6752 22.2204 12.3243 22.0246 12.9268C21.8934 13.3307 21.6657 13.6592 21.409 13.9616C21.1658 14.2481 20.8442 14.5696 20.4714 14.9424L14.9424 20.4714C14.5696 20.8442 14.2481 21.1658 13.9616 21.409C13.6592 21.6657 13.3307 21.8934 12.9268 22.0246C12.3243 22.2204 11.6752 22.2204 11.0727 22.0246C10.6688 21.8934 10.3404 21.6657 10.038 21.409C9.75147 21.1658 9.42991 20.8442 9.05717 20.4715L3.52808 14.9424C3.15531 14.5696 2.83374 14.2481 2.59051 13.9616C2.3338 13.6592 2.10618 13.3307 1.97496 12.9268C1.77918 12.3243 1.77918 11.6752 1.97496 11.0727C2.10618 10.6688 2.3338 10.3404 2.59051 10.038C2.83374 9.75147 3.15531 9.42991 3.52808 9.05717Z" fill="black"/>
</svg>
