<svg width="24" height="24" viewBox="0 0 24 24" fill="none" xmlns="http://www.w3.org/2000/svg">
<path opacity="0.3" fill-rule="evenodd" clip-rule="evenodd" d="M11.4038 2.07982C11.7838 1.91545 12.2149 1.91545 12.5949 2.07982C12.9102 2.21624 13.1033 2.44839 13.2106 2.59208C13.3132 2.72945 13.4191 2.90228 13.5171 3.06217C13.5227 3.07124 13.5282 3.08026 13.5337 3.08924L15.4604 6.23053L19.2871 6.24501C19.4886 6.24572 19.7024 6.24648 19.881 6.26354C20.0631 6.28095 20.3786 6.32638 20.6684 6.5406C21.0128 6.79509 21.2319 7.18461 21.2707 7.61102C21.3034 7.96994 21.1784 8.26319 21.0988 8.42789C21.0207 8.58936 20.9103 8.77253 20.8063 8.94513C20.8006 8.95459 20.7949 8.96402 20.7893 8.97342L18.9666 12.0002L20.7893 15.027C20.7949 15.0364 20.8006 15.0459 20.8063 15.0553C20.9103 15.2279 21.0207 15.4111 21.0988 15.5725C21.1784 15.7372 21.3034 16.0305 21.2707 16.3894C21.2319 16.8158 21.0128 17.2053 20.6684 17.4598C20.3786 17.674 20.0631 17.7195 19.881 17.7369C19.7024 17.754 19.4886 17.7547 19.2871 17.7554L15.4604 17.7699L13.5171 20.9383C13.4191 21.0982 13.3132 21.271 13.2106 21.4084C13.1033 21.552 12.9102 21.7842 12.5949 21.9206C12.2149 22.085 11.7838 22.085 11.4038 21.9206C11.0884 21.7842 10.8954 21.552 10.7881 21.4083C10.6855 21.271 10.5796 21.0981 10.4816 20.9383L8.53828 17.7699L4.71162 17.7554C4.51012 17.7547 4.29626 17.754 4.11771 17.7369C3.93559 17.7195 3.62008 17.674 3.33025 17.4598C2.98592 17.2053 2.76676 16.8158 2.72798 16.3894C2.69534 16.0305 2.82028 15.7372 2.89994 15.5725C2.97805 15.4111 3.08842 15.2279 3.19241 15.0553C3.19811 15.0458 3.20378 15.0364 3.20943 15.027L5.03204 12.0002L3.20943 8.97341C3.20378 8.96403 3.1981 8.95461 3.1924 8.94515C3.08841 8.77255 2.97804 8.58936 2.89994 8.42789C2.82028 8.26319 2.69534 7.96994 2.72798 7.61101C2.76676 7.1846 2.98592 6.79509 3.33025 6.5406C3.62008 6.32638 3.93559 6.28095 4.11771 6.26354C4.29627 6.24648 4.51013 6.24572 4.71163 6.24501C4.72267 6.24497 4.73368 6.24493 4.74463 6.24489L8.53828 6.23053L10.465 3.08924C10.4705 3.08027 10.476 3.07124 10.4816 3.06218C10.5796 2.90228 10.6855 2.72946 10.7881 2.59208C10.8954 2.44839 11.0884 2.21624 11.4038 2.07982Z" fill="black"/>
</svg>
