<svg width="24" height="24" viewBox="0 0 24 24" fill="none" xmlns="http://www.w3.org/2000/svg">
<path opacity="0.3" fill-rule="evenodd" clip-rule="evenodd" d="M13 7.05542V16.7137L16.4745 18.6585L15.6715 14.6173C15.6697 14.6083 15.6675 14.5978 15.6651 14.5861C15.6414 14.4724 15.5924 14.2369 15.6191 13.9955C15.6416 13.7919 15.7055 13.5951 15.807 13.4172C15.9273 13.2062 16.1054 13.0445 16.1913 12.9665C16.2002 12.9584 16.2081 12.9512 16.2149 12.945L19.2399 10.1475L15.1483 9.6624C15.1392 9.66132 15.1286 9.66016 15.1166 9.65885C15.0012 9.64623 14.7621 9.62007 14.5408 9.52012C14.3541 9.43581 14.1867 9.31416 14.0488 9.16267C13.8853 8.98306 13.7866 8.76373 13.7389 8.65789C13.734 8.64693 13.7296 8.6372 13.7257 8.62884L13 7.05542Z" fill="black"/>
<path fill-rule="evenodd" clip-rule="evenodd" d="M11.3405 2.34675C11.7567 2.14288 12.2438 2.14288 12.66 2.34675C13.0247 2.52538 13.2186 2.83794 13.3133 3.00239C13.414 3.17746 13.5173 3.40148 13.6197 3.62349C13.6247 3.63439 13.6297 3.64529 13.6348 3.65618L15.4952 7.68967L19.942 8.2169C20.1847 8.24564 20.4297 8.27464 20.6274 8.31638C20.813 8.35558 21.1702 8.44338 21.4528 8.73503C21.7753 9.0679 21.9258 9.53118 21.8605 9.99004C21.8034 10.3921 21.566 10.6731 21.4389 10.8139C21.3035 10.9638 21.1224 11.1313 20.9429 11.2972L17.6552 14.3375L18.5279 18.7296C18.5756 18.9693 18.6237 19.2113 18.6451 19.4121C18.6652 19.6008 18.6921 19.9676 18.502 20.3265C18.2851 20.7361 17.891 21.0224 17.4344 21.1021C17.0344 21.172 16.6938 21.0331 16.5206 20.9557C16.3362 20.8733 16.121 20.7527 15.9077 20.6333L12.0002 18.4461L8.09286 20.6333C7.87956 20.7527 7.66432 20.8733 7.4799 20.9557C7.30667 21.0331 6.9661 21.172 6.56605 21.1021C6.10947 21.0224 5.71539 20.7361 5.49848 20.3265C5.30842 19.9676 5.3353 19.6008 5.35538 19.4121C5.37676 19.2113 5.42488 18.9693 5.47257 18.7295L6.34526 14.3375L3.0841 11.3217C3.0753 11.3135 3.06649 11.3054 3.05767 11.2972C2.87816 11.1313 2.69701 10.9638 2.56165 10.8139C2.4345 10.6731 2.19715 10.3921 2.13996 9.99004C2.07469 9.53117 2.22522 9.0679 2.54774 8.73503C2.83032 8.44338 3.1875 8.35558 3.37314 8.31638C3.57078 8.27464 3.81576 8.24564 4.05853 8.2169C4.07045 8.21549 4.08237 8.21408 4.09428 8.21267L8.50528 7.68967L10.3657 3.65618C10.3708 3.64529 10.3758 3.63439 10.3808 3.62349C10.4832 3.40148 10.5865 3.17746 10.6872 3.00239C10.7819 2.83794 10.9758 2.52538 11.3405 2.34675ZM13.0002 7.0556V16.7138L16.4748 18.6587L15.6718 14.6175C15.67 14.6085 15.6678 14.598 15.6653 14.5862C15.6417 14.4726 15.5927 14.2371 15.6194 13.9957C15.6418 13.7921 15.7058 13.5953 15.8073 13.4174C15.9276 13.2064 16.1056 13.0447 16.1916 12.9667C16.2005 12.9586 16.2084 12.9514 16.2151 12.9452L19.2402 10.1477L15.1486 9.66258C15.1394 9.6615 15.1288 9.66034 15.1169 9.65903C15.0015 9.64641 14.7624 9.62025 14.541 9.5203C14.3544 9.43599 14.1869 9.31434 14.0491 9.16285C13.8856 8.98324 13.7868 8.76391 13.7392 8.65807C13.7342 8.64711 13.7299 8.63738 13.726 8.62902L13.0002 7.0556Z" fill="black"/>
</svg>
