<svg width="24" height="24" viewBox="0 0 24 24" fill="none" xmlns="http://www.w3.org/2000/svg">
<path opacity="0.3" d="M12 2C6.47715 2 2 6.47715 2 12C2 17.5228 6.47715 22 12 22C17.5228 22 22 17.5228 22 12C22 6.47715 17.5228 2 12 2Z" fill="black"/>
<path fill-rule="evenodd" clip-rule="evenodd" d="M7.85162 10.3501C7.85162 9.52167 8.52319 8.8501 9.35162 8.8501C10.18 8.8501 10.8516 9.52167 10.8516 10.3501C10.8516 11.1785 10.18 11.8501 9.35162 11.8501C8.52319 11.8501 7.85162 11.1785 7.85162 10.3501ZM13.2501 10.3001C13.2501 9.49928 13.8992 8.8501 14.7001 8.8501C15.5009 8.8501 16.1501 9.49928 16.1501 10.3001C16.1501 11.1009 15.5009 11.7501 14.7001 11.7501C13.8992 11.7501 13.2501 11.1009 13.2501 10.3001ZM7.39948 14.2006C7.84107 13.8689 8.46793 13.958 8.79962 14.3995C9.53108 15.3734 10.6924 16.0001 12.0004 16.0001C12.5527 16.0001 13.0004 16.4478 13.0004 17.0001C13.0004 17.5524 12.5527 18.0001 12.0004 18.0001C10.0368 18.0001 8.29345 17.0558 7.20049 15.6007C6.8688 15.1591 6.95789 14.5322 7.39948 14.2006Z" fill="black"/>
<path fill-rule="evenodd" clip-rule="evenodd" d="M16.9285 13.6287C16.7766 13.2491 16.4089 13.0001 16 13.0001C15.5911 13.0001 15.2234 13.2491 15.0715 13.6287L14.1615 15.9038C14.0548 16.1705 14 16.4551 14 16.7423V17.0001C14 18.1047 14.8954 19.0001 16 19.0001C17.1046 19.0001 18 18.1047 18 17.0001V16.7423C18 16.4551 17.9452 16.1705 17.8385 15.9038L16.9285 13.6287Z" fill="#020202"/>
</svg>
