<svg width="24" height="24" viewBox="0 0 24 24" fill="none" xmlns="http://www.w3.org/2000/svg">
<path opacity="0.3" d="M12 2C6.47715 2 2 6.47715 2 12C2 17.5228 6.47715 22 12 22C17.5228 22 22 17.5228 22 12C22 6.47715 17.5228 2 12 2Z" fill="black"/>
<path fill-rule="evenodd" clip-rule="evenodd" d="M16.1679 8.55461C15.9433 8.21766 15.4817 8.13859 15.1578 8.38157L14.6 8.79991C14.1582 9.13128 13.5314 9.04173 13.2 8.59991C12.8686 8.15808 12.9582 7.53128 13.4 7.19991L13.9578 6.78157C15.2003 5.84969 16.9705 6.15292 17.8321 7.44521C18.1384 7.90473 18.0142 8.5256 17.5547 8.83196C17.0952 9.13831 16.4743 9.01413 16.1679 8.55461ZM6 7.99991C6 7.44762 6.44772 6.99991 7 6.99991H10C10.5523 6.99991 11 7.44762 11 7.99991C11 8.55219 10.5523 8.99991 10 8.99991H7C6.44772 8.99991 6 8.55219 6 7.99991ZM7.85156 11.3499C7.85156 10.5215 8.52313 9.84988 9.35156 9.84988C10.18 9.84988 10.8516 10.5215 10.8516 11.3499C10.8516 12.1783 10.18 12.8499 9.35156 12.8499C8.52313 12.8499 7.85156 12.1783 7.85156 11.3499ZM13.25 11.2999C13.25 10.4991 13.8992 9.84988 14.7 9.84988C15.5008 9.84988 16.15 10.4991 16.15 11.2999C16.15 12.1007 15.5008 12.7499 14.7 12.7499C13.8992 12.7499 13.25 12.1007 13.25 11.2999ZM8 16.9999C8 16.4476 8.44772 15.9999 9 15.9999H15C15.5523 15.9999 16 16.4476 16 16.9999C16 17.5522 15.5523 17.9999 15 17.9999H9C8.44772 17.9999 8 17.5522 8 16.9999Z" fill="black"/>
</svg>
