<svg width="24" height="24" viewBox="0 0 24 24" fill="none" xmlns="http://www.w3.org/2000/svg">
<path opacity="0.3" d="M12 2C6.47715 2 2 6.47715 2 12C2 17.5228 6.47715 22 12 22C17.5228 22 22 17.5228 22 12C22 6.47715 17.5228 2 12 2Z" fill="black"/>
<path fill-rule="evenodd" clip-rule="evenodd" d="M6.08111 7.60634C6.29867 7.09871 6.88655 6.86356 7.39418 7.08111L10.8942 8.58111C11.4018 8.79867 11.637 9.38655 11.4194 9.89418C11.2018 10.4018 10.614 10.637 10.1063 10.4194L9.85129 10.3101C9.85164 10.3234 9.85182 10.3368 9.85182 10.3502C9.85182 11.1787 9.18025 11.8502 8.35182 11.8502C7.52339 11.8502 6.85182 11.1787 6.85182 10.3502C6.85182 9.90843 7.04282 9.51123 7.34676 9.23673L6.60634 8.9194C6.09871 8.70185 5.86356 8.11397 6.08111 7.60634ZM17.9194 7.60634C18.137 8.11397 17.9018 8.70185 17.3942 8.9194L16.6757 9.22733C16.9672 9.49256 17.1503 9.87502 17.1503 10.3002C17.1503 11.101 16.5011 11.7502 15.7003 11.7502C14.8994 11.7502 14.2503 11.101 14.2503 10.3002C14.2503 10.289 14.2504 10.2778 14.2506 10.2666L13.8942 10.4194C13.3865 10.637 12.7987 10.4018 12.5811 9.89418C12.3636 9.38655 12.5987 8.79867 13.1063 8.58111L16.6063 7.08111C17.114 6.86356 17.7018 7.09871 17.9194 7.60634ZM8.33642 16.2524C9.2388 15.4514 10.5806 15.0003 12.0003 15.0003C13.42 15.0003 14.7617 15.4514 15.6641 16.2524C16.0771 16.619 16.1148 17.2511 15.7481 17.6641C15.3815 18.0771 14.7495 18.1148 14.3364 17.7481C13.8706 17.3347 13.0341 17.0003 12.0003 17.0003C10.9664 17.0003 10.1299 17.3347 9.6641 17.7481C9.25106 18.1148 8.61901 18.0771 8.25238 17.6641C7.88575 17.2511 7.92338 16.619 8.33642 16.2524Z" fill="black"/>
</svg>
