<svg width="24" height="24" viewBox="0 0 24 24" fill="none" xmlns="http://www.w3.org/2000/svg">
<path opacity="0.3" d="M12 2C6.47715 2 2 6.47715 2 12C2 17.5228 6.47715 22 12 22C17.5228 22 22 17.5228 22 12C22 6.47715 17.5228 2 12 2Z" fill="black"/>
<path fill-rule="evenodd" clip-rule="evenodd" d="M7.85156 9.3001C7.85156 8.49928 8.50075 7.8501 9.30156 7.8501C10.1024 7.8501 10.7516 8.49928 10.7516 9.3001C10.7516 10.1009 10.1024 10.7501 9.30156 10.7501C8.50075 10.7501 7.85156 10.1009 7.85156 9.3001ZM13.25 9.3001C13.25 8.49928 13.8992 7.8501 14.7 7.8501C15.5008 7.8501 16.15 8.49928 16.15 9.3001C16.15 10.1009 15.5008 10.7501 14.7 10.7501C13.8992 10.7501 13.25 10.1009 13.25 9.3001ZM7.33189 13.0568C7.02598 12.9492 6.68676 12.9966 6.4221 13.184C6.15736 13.3715 6 13.6757 6 14.0001C6 15.5668 7.04268 16.8286 8.16012 17.6383C9.29205 18.4585 10.7429 19.0001 12 19.0001C13.2571 19.0001 14.708 18.4585 15.8399 17.6383C16.9573 16.8286 18 15.5668 18 14.0001C18 13.6757 17.8426 13.3715 17.5779 13.184C17.3132 12.9966 16.9741 12.9492 16.6681 13.0568L16.6633 13.0585L16.6428 13.0656C16.624 13.072 16.5952 13.0818 16.557 13.0946C16.4807 13.1201 16.3675 13.1571 16.2242 13.2019C15.9372 13.2916 15.532 13.4114 15.0626 13.5312C14.1062 13.7751 12.9529 14.0001 12 14.0001C11.0471 14.0001 9.89383 13.7751 8.93735 13.5312C8.46799 13.4114 8.06282 13.2916 7.77581 13.2019C7.63254 13.1571 7.51933 13.1201 7.443 13.0946C7.40485 13.0818 7.37595 13.072 7.35717 13.0655L7.3367 13.0585L7.33189 13.0568Z" fill="black"/>
</svg>
