<svg width="24" height="24" viewBox="0 0 24 24" fill="none" xmlns="http://www.w3.org/2000/svg">
<path opacity="0.3" d="M12 2C6.47715 2 2 6.47715 2 12C2 17.5228 6.47715 22 12 22C17.5228 22 22 17.5228 22 12C22 6.47715 17.5228 2 12 2Z" fill="black"/>
<path fill-rule="evenodd" clip-rule="evenodd" d="M6.10584 9.05301C6.35283 8.55903 6.95351 8.3588 7.44748 8.60579L10.4475 10.1058C10.8092 10.2867 11.0264 10.6677 10.9978 11.0711C10.9691 11.4746 10.7002 11.821 10.3165 11.9489L7.3165 12.9489C6.79256 13.1235 6.22624 12.8404 6.05159 12.3164C5.87694 11.7925 6.1601 11.2262 6.68404 11.0515L7.39372 10.815L6.55306 10.3946C6.05908 10.1477 5.85885 9.54698 6.10584 9.05301ZM17.8947 9.05301C18.1417 9.54698 17.9415 10.1477 17.4475 10.3946L16.6068 10.815L17.3165 11.0515C17.8404 11.2262 18.1236 11.7925 17.949 12.3164C17.7743 12.8404 17.208 13.1235 16.684 12.9489L13.684 11.9489C13.3003 11.821 13.0315 11.4746 13.0028 11.0711C12.9741 10.6677 13.1913 10.2867 13.5531 10.1058L16.5531 8.60579C17.047 8.3588 17.6477 8.55903 17.8947 9.05301ZM9.29316 14.2931C9.64506 13.9412 10.2022 13.9016 10.6003 14.2002L12.0003 15.2502L13.4003 14.2002C13.7984 13.9016 14.3555 13.9412 14.7074 14.2931L15.7704 15.3561L16.684 15.0515C17.208 14.8769 17.7743 15.16 17.949 15.684C18.1236 16.2079 17.8404 16.7743 17.3165 16.9489L15.8165 17.4489C15.4572 17.5687 15.061 17.4752 14.7932 17.2073L13.9064 16.3206L12.6003 17.3002C12.2447 17.5669 11.7558 17.5669 11.4003 17.3002L10.0941 16.3206L9.20738 17.2073C8.93955 17.4752 8.54338 17.5687 8.18404 17.4489L6.68404 16.9489C6.1601 16.7743 5.87694 16.2079 6.05159 15.684C6.22624 15.16 6.79256 14.8769 7.3165 15.0515L8.23018 15.3561L9.29316 14.2931Z" fill="black"/>
</svg>
