<svg width="24" height="24" viewBox="0 0 24 24" fill="none" xmlns="http://www.w3.org/2000/svg">
<path opacity="0.3" d="M12 2C6.47715 2 2 6.47715 2 12C2 17.5228 6.47715 22 12 22C17.5228 22 22 17.5228 22 12C22 6.47715 17.5228 2 12 2Z" fill="black"/>
<path fill-rule="evenodd" clip-rule="evenodd" d="M10.5308 5.49374C10.999 5.7867 11.141 6.40373 10.8481 6.87191C10.0159 8.20172 8.749 9.23243 7.24367 9.76448C6.72296 9.94853 6.15164 9.6756 5.96759 9.15489C5.78354 8.63417 6.05647 8.06285 6.57718 7.8788C7.65004 7.4996 8.55692 6.763 9.15266 5.81098C9.44563 5.3428 10.0627 5.20077 10.5308 5.49374ZM13.4698 5.49374C13.938 5.20077 14.555 5.3428 14.848 5.81098C15.4437 6.763 16.3506 7.4996 17.4235 7.8788C17.9442 8.06285 18.2171 8.63417 18.0331 9.15489C17.849 9.6756 17.2777 9.94853 16.757 9.76448C15.2516 9.23243 13.9847 8.20172 13.1526 6.87191C12.8596 6.40373 13.0016 5.7867 13.4698 5.49374ZM6.64287 10.9856C6.92702 10.512 7.54128 10.3584 8.01486 10.6426L10.5149 12.1426C10.8161 12.3233 11.0004 12.6488 11.0004 13C11.0004 13.3513 10.8161 13.6768 10.5149 13.8575L8.01486 15.3575C7.54128 15.6417 6.92702 15.4881 6.64287 15.0145C6.35873 14.541 6.51229 13.9267 6.98587 13.6426L8.05672 13L6.98587 12.3575C6.51229 12.0734 6.35873 11.4591 6.64287 10.9856ZM17.3579 10.9856C17.642 11.4591 17.4884 12.0734 17.0149 12.3575L15.944 13L17.0149 13.6426C17.4884 13.9267 17.642 14.541 17.3579 15.0145C17.0737 15.4881 16.4595 15.6417 15.9859 15.3575L13.4859 13.8575C13.1847 13.6768 13.0004 13.3513 13.0004 13C13.0004 12.6488 13.1847 12.3233 13.4859 12.1426L15.9859 10.6426C16.4595 10.3584 17.0737 10.512 17.3579 10.9856ZM8.33653 17.2522C9.23891 16.4512 10.5807 16 12.0004 16C13.4201 16 14.7618 16.4512 15.6642 17.2522C16.0772 17.6188 16.1149 18.2508 15.7482 18.6639C15.3816 19.0769 14.7496 19.1146 14.3365 18.7479C13.8707 18.3345 13.0342 18 12.0004 18C10.9666 18 10.13 18.3345 9.66421 18.7479C9.25117 19.1146 8.61912 19.0769 8.25249 18.6639C7.88586 18.2508 7.92349 17.6188 8.33653 17.2522Z" fill="black"/>
</svg>
