<svg width="24" height="24" viewBox="0 0 24 24" fill="none" xmlns="http://www.w3.org/2000/svg">
<path opacity="0.3" d="M12 2C6.47715 2 2 6.47715 2 12C2 17.5228 6.47715 22 12 22C17.5228 22 22 17.5228 22 12C22 6.47715 17.5228 2 12 2Z" fill="black"/>
<path fill-rule="evenodd" clip-rule="evenodd" d="M7.85162 9.3501C7.85162 8.52167 8.52319 7.8501 9.35162 7.8501C10.18 7.8501 10.8516 8.52167 10.8516 9.3501C10.8516 10.1785 10.18 10.8501 9.35162 10.8501C8.52319 10.8501 7.85162 10.1785 7.85162 9.3501ZM13.2501 9.3001C13.2501 8.49928 13.8992 7.8501 14.7001 7.8501C15.5009 7.8501 16.1501 8.49928 16.1501 9.3001C16.1501 10.1009 15.5009 10.7501 14.7001 10.7501C13.8992 10.7501 13.2501 10.1009 13.2501 9.3001ZM8.59416 13.9668C9.46728 13.3754 10.5618 13.0001 12.0004 13.0001C13.439 13.0001 14.5334 13.3754 15.4064 13.9668C16.254 14.5411 16.8385 15.2856 17.2996 15.8995C17.6313 16.3411 17.5422 16.968 17.1006 17.2997C16.659 17.6314 16.0322 17.5423 15.7005 17.1007C15.2494 16.5002 14.8339 15.9947 14.2846 15.6226C13.7608 15.2677 13.0614 15.0001 12.0004 15.0001C10.9394 15.0001 10.2399 15.2677 9.71576 15.6227C9.1663 15.9948 8.75058 16.5003 8.29962 17.1007C7.96793 17.5423 7.34107 17.6314 6.89948 17.2997C6.45789 16.968 6.3688 16.3411 6.70049 15.8995C7.16174 15.2855 7.74639 14.541 8.59416 13.9668Z" fill="black"/>
</svg>
