<svg width="24" height="24" viewBox="0 0 24 24" fill="none" xmlns="http://www.w3.org/2000/svg">
<path opacity="0.3" d="M12 2C6.47715 2 2 6.47715 2 12C2 17.5228 6.47715 22 12 22C17.5228 22 22 17.5228 22 12C22 6.47715 17.5228 2 12 2Z" fill="black"/>
<path fill-rule="evenodd" clip-rule="evenodd" d="M7.85156 9.3001C7.85156 8.49928 8.50075 7.8501 9.30156 7.8501C10.1024 7.8501 10.7516 8.49928 10.7516 9.3001C10.7516 10.1009 10.1024 10.7501 9.30156 10.7501C8.50075 10.7501 7.85156 10.1009 7.85156 9.3001ZM15.5 10.0001C15.1833 10.0001 14.8726 10.1039 14.5847 10.3114C14.1366 10.6343 13.5116 10.5328 13.1887 10.0848C12.8658 9.63672 12.9673 9.01174 13.4153 8.68884C14.01 8.26032 14.7238 8.00012 15.5 8.00012C16.2762 8.00012 16.99 8.26032 17.5847 8.68884C18.0327 9.01174 18.1342 9.63672 17.8113 10.0848C17.4884 10.5328 16.8634 10.6343 16.4153 10.3114C16.1274 10.1039 15.8167 10.0001 15.5 10.0001ZM7 14.0001C7 13.4478 7.44772 13.0001 8 13.0001H16C16.5523 13.0001 17 13.4478 17 14.0001C17 16.7615 14.7614 19.0001 12 19.0001C9.23858 19.0001 7 16.7615 7 14.0001Z" fill="black"/>
</svg>
