<svg width="24" height="24" viewBox="0 0 24 24" fill="none" xmlns="http://www.w3.org/2000/svg">
<path opacity="0.3" d="M12 2C6.47715 2 2 6.47715 2 12C2 17.5228 6.47715 22 12 22C17.5228 22 22 17.5228 22 12C22 6.47715 17.5228 2 12 2Z" fill="black"/>
<path fill-rule="evenodd" clip-rule="evenodd" d="M7.85156 9.3001C7.85156 8.49928 8.50075 7.8501 9.30156 7.8501C10.1024 7.8501 10.7516 8.49928 10.7516 9.3001C10.7516 10.1009 10.1024 10.7501 9.30156 10.7501C8.50075 10.7501 7.85156 10.1009 7.85156 9.3001ZM15.5 10.0001C15.1833 10.0001 14.8726 10.1039 14.5847 10.3114C14.1366 10.6343 13.5116 10.5328 13.1887 10.0848C12.8658 9.63672 12.9673 9.01174 13.4153 8.68884C14.01 8.26032 14.7238 8.00012 15.5 8.00012C16.2762 8.00012 16.99 8.26032 17.5847 8.68884C18.0327 9.01174 18.1342 9.63672 17.8113 10.0848C17.4884 10.5328 16.8634 10.6343 16.4153 10.3114C16.1274 10.1039 15.8167 10.0001 15.5 10.0001ZM11.1056 13.5529C11.3526 13.0589 11.9532 12.8587 12.4472 13.1057L13.4472 13.6057C14.3924 14.0783 14.5601 15.2718 13.9502 16.0001C14.5601 16.7285 14.3924 17.9219 13.4472 18.3945L12.4472 18.8945C11.9532 19.1415 11.3526 18.9413 11.1056 18.4473C10.8586 17.9534 11.0588 17.3527 11.5528 17.1057L11.9706 16.8968C11.5978 16.3646 11.5978 15.6356 11.9706 15.1034L11.5528 14.8945C11.0588 14.6476 10.8586 14.0469 11.1056 13.5529ZM19.1269 16.4982C18.7591 15.8517 18.0703 15.3725 17.1479 15.46C15.9661 15.5722 15.0937 16.5718 15.1543 17.752C15.1725 18.1068 15.2725 18.637 15.3622 19.0682C15.4572 19.5253 15.5612 19.9652 15.613 20.1801L15.6137 20.183C15.6173 20.1981 15.6309 20.2558 15.6492 20.3116C15.6735 20.386 15.7242 20.5187 15.8326 20.6552C15.9652 20.8223 16.1441 20.9475 16.3465 21.015C16.5119 21.0701 16.6539 21.0725 16.7321 21.0699C16.7907 21.0679 16.8497 21.061 16.8651 21.0592L16.868 21.0589C17.0877 21.0341 17.5366 20.9813 17.9986 20.9143C18.4345 20.851 18.9669 20.7637 19.3065 20.6594C20.4225 20.317 21.097 19.1614 20.775 17.9891C20.5323 17.1056 19.8568 16.6223 19.1269 16.4982Z" fill="black"/>
</svg>
