<svg width="24" height="24" viewBox="0 0 24 24" fill="none" xmlns="http://www.w3.org/2000/svg">
<path opacity="0.3" d="M12 2C6.47715 2 2 6.47715 2 12C2 17.5228 6.47715 22 12 22C17.5228 22 22 17.5228 22 12C22 6.47715 17.5228 2 12 2Z" fill="black"/>
<path fill-rule="evenodd" clip-rule="evenodd" d="M6.64266 7.48566C6.92681 7.01208 7.54107 6.85851 8.01465 7.14266L10.5146 8.64266C10.8159 8.82338 11.0002 9.14889 11.0002 9.50015C11.0002 9.85141 10.8159 10.1769 10.5146 10.3576L8.01465 11.8576C7.54107 12.1418 6.92681 11.9882 6.64266 11.5146C6.35851 11.0411 6.51208 10.4268 6.98566 10.1427L8.0565 9.50015L6.98566 8.85764C6.51208 8.5735 6.35851 7.95924 6.64266 7.48566ZM17.3576 7.48566C17.6418 7.95924 17.4882 8.5735 17.0146 8.85764L15.9438 9.50015L17.0146 10.1427C17.4882 10.4268 17.6418 11.0411 17.3576 11.5146C17.0735 11.9882 16.4592 12.1418 15.9857 11.8576L13.4857 10.3576C13.1845 10.1769 13.0002 9.85141 13.0002 9.50015C13.0002 9.14889 13.1845 8.82338 13.4857 8.64266L15.9857 7.14266C16.4592 6.85851 17.0735 7.01208 17.3576 7.48566ZM7.10988 16.161C7.45095 13.7735 9.49565 12.0002 11.9073 12.0002H12.093C14.5047 12.0002 16.5494 13.7735 16.8904 16.161C17.0383 17.1965 16.1066 18.0332 15.1132 17.8317C14.2776 17.6622 12.9403 17.4287 12.0002 17.4287C11.06 17.4287 9.72268 17.6622 8.88705 17.8317C7.89375 18.0332 6.96195 17.1965 7.10988 16.161Z" fill="black"/>
</svg>
