<svg width="24" height="24" viewBox="0 0 24 24" fill="none" xmlns="http://www.w3.org/2000/svg">
<path opacity="0.3" d="M12 2C6.47715 2 2 6.47715 2 12C2 17.5228 6.47715 22 12 22C17.5228 22 22 17.5228 22 12C22 6.47715 17.5228 2 12 2Z" fill="black"/>
<path fill-rule="evenodd" clip-rule="evenodd" d="M7.85156 9.3001C7.85156 8.49928 8.50075 7.8501 9.30156 7.8501C10.1024 7.8501 10.7516 8.49928 10.7516 9.3001C10.7516 10.1009 10.1024 10.7501 9.30156 10.7501C8.50075 10.7501 7.85156 10.1009 7.85156 9.3001ZM13.25 9.3001C13.25 8.49928 13.8992 7.8501 14.7 7.8501C15.5008 7.8501 16.15 8.49928 16.15 9.3001C16.15 10.1009 15.5008 10.7501 14.7 10.7501C13.8992 10.7501 13.25 10.1009 13.25 9.3001ZM7 14.0001C7 13.4478 7.44772 13.0001 8 13.0001H16C16.5523 13.0001 17 13.4478 17 14.0001C17 16.7615 14.7614 19.0001 12 19.0001C9.23858 19.0001 7 16.7615 7 14.0001Z" fill="black"/>
</svg>
