<svg width="24" height="24" viewBox="0 0 24 24" fill="none" xmlns="http://www.w3.org/2000/svg">
<path opacity="0.3" d="M12 2C6.47715 2 2 6.47715 2 12C2 17.5228 6.47715 22 12 22C17.5228 22 22 17.5228 22 12C22 6.47715 17.5228 2 12 2Z" fill="black"/>
<path fill-rule="evenodd" clip-rule="evenodd" d="M7.33207 13.0569L7.3367 13.0585L7.35717 13.0655C7.37595 13.072 7.40485 13.0818 7.443 13.0946C7.51933 13.1201 7.63254 13.1571 7.77581 13.2019C8.06282 13.2916 8.46799 13.4114 8.93735 13.5312C9.89383 13.7751 11.0471 14.0001 12 14.0001C12.9529 14.0001 14.1062 13.7751 15.0626 13.5312C15.532 13.4114 15.9372 13.2916 16.2242 13.2019C16.3675 13.1571 16.4807 13.1201 16.557 13.0946C16.5952 13.0818 16.624 13.072 16.6428 13.0656L16.6633 13.0585L16.6676 13.057C16.9736 12.9493 17.3132 12.9966 17.5779 13.184C17.8426 13.3715 18 13.6757 18 14.0001C18 15.4855 17.0659 16.6972 16 17.5183V18.0001C16 20.2093 14.2091 22.0001 12 22.0001C9.79086 22.0001 8 20.2093 8 18.0001V17.5183C6.93412 16.6972 6 15.4855 6 14.0001C6 13.6757 6.15736 13.3715 6.4221 13.184C6.68676 12.9966 7.02617 12.9493 7.33207 13.0569Z" fill="black"/>
<path fill-rule="evenodd" clip-rule="evenodd" d="M7.85156 9.3501C7.85156 8.52167 8.52313 7.8501 9.35156 7.8501C10.18 7.8501 10.8516 8.52167 10.8516 9.3501C10.8516 10.1785 10.18 10.8501 9.35156 10.8501C8.52313 10.8501 7.85156 10.1785 7.85156 9.3501ZM13.25 9.3001C13.25 8.49928 13.8992 7.8501 14.7 7.8501C15.5008 7.8501 16.15 8.49928 16.15 9.3001C16.15 10.1009 15.5008 10.7501 14.7 10.7501C13.8992 10.7501 13.25 10.1009 13.25 9.3001Z" fill="black"/>
</svg>
