<svg width="24" height="24" viewBox="0 0 24 24" fill="none" xmlns="http://www.w3.org/2000/svg">
<path opacity="0.3" d="M12 2C6.47715 2 2 6.47715 2 12C2 17.5228 6.47715 22 12 22C17.5228 22 22 17.5228 22 12C22 6.47715 17.5228 2 12 2Z" fill="black"/>
<path fill-rule="evenodd" clip-rule="evenodd" d="M7.85162 10.3501C7.85162 9.52167 8.52319 8.8501 9.35162 8.8501C10.18 8.8501 10.8516 9.52167 10.8516 10.3501C10.8516 11.1785 10.18 11.8501 9.35162 11.8501C8.52319 11.8501 7.85162 11.1785 7.85162 10.3501ZM15.5001 11.0001C15.1834 11.0001 14.8726 11.1039 14.5847 11.3114C14.1367 11.6343 13.5117 11.5328 13.1888 11.0848C12.8659 10.6367 12.9673 10.0117 13.4154 9.68884C14.01 9.26032 14.7239 9.00012 15.5001 9.00012C16.2763 9.00012 16.9901 9.26032 17.5847 9.68884C18.0328 10.0117 18.1342 10.6367 17.8113 11.0848C17.4884 11.5328 16.8635 11.6343 16.4154 11.3114C16.1275 11.1039 15.8167 11.0001 15.5001 11.0001ZM7.39948 14.2006C7.84107 13.8689 8.46793 13.958 8.79962 14.3995C9.53108 15.3734 10.6924 16.0001 12.0004 16.0001C13.3084 16.0001 14.4698 15.3734 15.2012 14.3995C15.5329 13.958 16.1598 13.8689 16.6014 14.2006C17.043 14.5322 17.132 15.1591 16.8004 15.6007C15.7074 17.0558 13.9641 18.0001 12.0004 18.0001C10.0368 18.0001 8.29345 17.0558 7.20049 15.6007C6.8688 15.1591 6.95789 14.5322 7.39948 14.2006Z" fill="black"/>
</svg>
