<svg width="24" height="24" viewBox="0 0 24 24" fill="none" xmlns="http://www.w3.org/2000/svg">
<path opacity="0.3" d="M12 2C6.47715 2 2 6.47715 2 12C2 17.5228 6.47715 22 12 22C17.5228 22 22 17.5228 22 12C22 6.47715 17.5228 2 12 2Z" fill="black"/>
<path fill-rule="evenodd" clip-rule="evenodd" d="M10.9431 6.00809C11.1271 6.52881 10.8542 7.10013 10.3335 7.28418C9.26061 7.66338 8.35374 8.39998 7.758 9.352C7.46503 9.82018 6.848 9.96221 6.37982 9.66924C5.91165 9.37628 5.76962 8.75925 6.06258 8.29107C6.89473 6.96126 8.16166 5.93055 9.66698 5.3985C10.1877 5.21445 10.759 5.48737 10.9431 6.00809ZM13.0572 6.00809C13.2412 5.48737 13.8126 5.21445 14.3333 5.3985C15.8386 5.93055 17.1055 6.96126 17.9377 8.29107C18.2307 8.75925 18.0886 9.37628 17.6204 9.66924C17.1523 9.96221 16.5352 9.82018 16.2423 9.352C15.6465 8.39998 14.7397 7.66338 13.6668 7.28418C13.1461 7.10013 12.8732 6.52881 13.0572 6.00809ZM6.18885 11.4153C6.51175 10.9672 7.13673 10.8658 7.58479 11.1887C7.87269 11.3961 8.18347 11.4999 8.50013 11.4999C8.8168 11.4999 9.12758 11.3961 9.41548 11.1887C9.86353 10.8658 10.4885 10.9672 10.8114 11.4153C11.1343 11.8633 11.0328 12.4883 10.5848 12.8112C9.99017 13.2397 9.27633 13.4999 8.50013 13.4999C7.72393 13.4999 7.0101 13.2397 6.41548 12.8112C5.96742 12.4883 5.86596 11.8633 6.18885 11.4153ZM13.1889 11.4153C13.5118 10.9672 14.1367 10.8658 14.5848 11.1887C14.8727 11.3961 15.1835 11.4999 15.5001 11.4999C15.8168 11.4999 16.1276 11.3961 16.4155 11.1887C16.8635 10.8658 17.4885 10.9672 17.8114 11.4153C18.1343 11.8633 18.0328 12.4883 17.5848 12.8112C16.9902 13.2397 16.2763 13.4999 15.5001 13.4999C14.7239 13.4999 14.0101 13.2397 13.4155 12.8112C12.9674 12.4883 12.866 11.8633 13.1889 11.4153ZM8.25226 16.3361C8.61889 15.9231 9.25093 15.8854 9.66397 16.2521C10.1298 16.6655 10.9663 16.9999 12.0001 16.9999C13.0339 16.9999 13.8705 16.6655 14.3363 16.2521C14.7493 15.8854 15.3814 15.9231 15.748 16.3361C16.1146 16.7491 16.077 17.3812 15.664 17.7478C14.7616 18.5488 13.4198 18.9999 12.0001 18.9999C10.5804 18.9999 9.23868 18.5488 8.33629 17.7478C7.92325 17.3812 7.88563 16.7491 8.25226 16.3361Z" fill="black"/>
</svg>
