<svg width="24" height="24" viewBox="0 0 24 24" fill="none" xmlns="http://www.w3.org/2000/svg">
<path opacity="0.3" d="M12 2C6.47715 2 2 6.47715 2 12C2 17.5228 6.47715 22 12 22C17.5228 22 22 17.5228 22 12C22 6.47715 17.5228 2 12 2Z" fill="black"/>
<path fill-rule="evenodd" clip-rule="evenodd" d="M6.10584 7.05301C6.35283 6.55903 6.95351 6.3588 7.44748 6.60579L10.4475 8.10579C10.8092 8.28667 11.0264 8.66766 10.9978 9.07111C10.9691 9.47455 10.7002 9.821 10.3165 9.9489L7.3165 10.9489C6.79256 11.1235 6.22624 10.8404 6.05159 10.3164C5.87694 9.7925 6.1601 9.22618 6.68404 9.05154L7.39372 8.81498L6.55306 8.39465C6.05908 8.14766 5.85885 7.54698 6.10584 7.05301ZM17.8947 7.05301C18.1417 7.54698 17.9415 8.14766 17.4475 8.39465L16.6068 8.81498L17.3165 9.05154C17.8404 9.22618 18.1236 9.7925 17.949 10.3164C17.7743 10.8404 17.208 11.1235 16.684 10.9489L13.684 9.9489C13.3003 9.821 13.0315 9.47455 13.0028 9.07111C12.9741 8.66766 13.1913 8.28667 13.5531 8.10579L16.5531 6.60579C17.047 6.3588 17.6477 6.55903 17.8947 7.05301ZM7.00027 14.0002C7.00027 13.4479 7.44799 13.0002 8.00027 13.0002H16.0003C16.5526 13.0002 17.0003 13.4479 17.0003 14.0002C17.0003 16.7616 14.7617 19.0002 12.0003 19.0002C9.23885 19.0002 7.00027 16.7616 7.00027 14.0002Z" fill="black"/>
</svg>
