<svg width="24" height="24" viewBox="0 0 24 24" fill="none" xmlns="http://www.w3.org/2000/svg">
<path opacity="0.3" d="M12 2C6.47715 2 2 6.47715 2 12C2 17.5228 6.47715 22 12 22C17.5228 22 22 17.5228 22 12C22 6.47715 17.5228 2 12 2Z" fill="black"/>
<path fill-rule="evenodd" clip-rule="evenodd" d="M7.85156 9.3501C7.85156 8.52167 8.52313 7.8501 9.35156 7.8501C10.18 7.8501 10.8516 8.52167 10.8516 9.3501C10.8516 10.1785 10.18 10.8501 9.35156 10.8501C8.52313 10.8501 7.85156 10.1785 7.85156 9.3501ZM13.25 9.3001C13.25 8.49928 13.8992 7.8501 14.7 7.8501C15.5008 7.8501 16.15 8.49928 16.15 9.3001C16.15 10.1009 15.5008 10.7501 14.7 10.7501C13.8992 10.7501 13.25 10.1009 13.25 9.3001Z" fill="black"/>
</svg>
