<svg width="24" height="24" viewBox="0 0 24 24" fill="none" xmlns="http://www.w3.org/2000/svg">
<path opacity="0.3" d="M12 2C6.47715 2 2 6.47715 2 12C2 17.5228 6.47715 22 12 22C17.5228 22 22 17.5228 22 12C22 6.47715 17.5228 2 12 2Z" fill="black"/>
<path fill-rule="evenodd" clip-rule="evenodd" d="M7.6644 6.44759C8.16949 6.10927 8.82884 6.10927 9.33393 6.44759C9.60294 6.62778 9.75068 6.88052 9.8242 7.01348C9.88749 7.12794 9.95328 7.26613 10.0191 7.40804C10.1744 7.42681 10.3262 7.44668 10.4546 7.4715C10.6038 7.50034 10.8898 7.56274 11.1443 7.7629C11.6222 8.13873 11.8259 8.76581 11.6602 9.35073C11.572 9.66226 11.3773 9.88086 11.2735 9.99187C11.1842 10.0874 11.0731 10.1927 10.9585 10.2992C10.9887 10.4527 11.0167 10.6032 11.0327 10.733C11.0514 10.8837 11.0804 11.1751 10.9687 11.479C10.759 12.0495 10.2255 12.4371 9.61804 12.4603C9.29449 12.4726 9.02641 12.355 8.88878 12.2906C8.7703 12.2352 8.63585 12.1621 8.49916 12.086C8.36248 12.1621 8.22803 12.2352 8.10955 12.2906C7.97192 12.355 7.70383 12.4726 7.38029 12.4603C6.7728 12.4371 6.23937 12.0496 6.0296 11.479C5.91788 11.1751 5.94692 10.8837 5.96559 10.733C5.98167 10.6032 6.00966 10.4527 6.03981 10.2992C5.92519 10.1927 5.8141 10.0874 5.7248 9.99187C5.62107 9.88086 5.42634 9.66225 5.3381 9.35073C5.17242 8.76581 5.37617 8.13873 5.85402 7.7629C6.10852 7.56274 6.39454 7.50034 6.54372 7.4715C6.67213 7.44668 6.82388 7.42681 6.9792 7.40804C7.04504 7.26613 7.11084 7.12794 7.17413 7.01348C7.24765 6.88052 7.39538 6.62778 7.6644 6.44759ZM14.6644 6.44759C15.1695 6.10927 15.8288 6.10927 16.3339 6.44759C16.6029 6.62778 16.7507 6.88052 16.8242 7.01348C16.8875 7.12794 16.9533 7.26613 17.0191 7.40804C17.1744 7.42681 17.3262 7.44668 17.4546 7.4715C17.6038 7.50034 17.8898 7.56274 18.1443 7.7629C18.6222 8.13873 18.8259 8.76581 18.6602 9.35073C18.572 9.66226 18.3773 9.88086 18.2735 9.99187C18.1842 10.0874 18.0731 10.1927 17.9585 10.2992C17.9887 10.4527 18.0167 10.6032 18.0327 10.733C18.0514 10.8837 18.0804 11.1751 17.9687 11.479C17.759 12.0495 17.2255 12.4371 16.618 12.4603C16.2945 12.4726 16.0264 12.355 15.8888 12.2906C15.7703 12.2352 15.6358 12.1621 15.4992 12.086C15.3625 12.1621 15.228 12.2352 15.1095 12.2906C14.9719 12.355 14.7038 12.4726 14.3803 12.4603C13.7728 12.4371 13.2394 12.0496 13.0296 11.479C12.9179 11.1751 12.9469 10.8837 12.9656 10.733C12.9817 10.6032 13.0097 10.4527 13.0398 10.2992C12.9252 10.1927 12.8141 10.0874 12.7248 9.99187C12.6211 9.88086 12.4263 9.66225 12.3381 9.35073C12.1724 8.76581 12.3762 8.13873 12.854 7.7629C13.1085 7.56274 13.3945 7.50034 13.5437 7.4715C13.6721 7.44668 13.8239 7.42681 13.9792 7.40804C14.045 7.26613 14.1108 7.12794 14.1741 7.01348C14.2477 6.88052 14.3954 6.62778 14.6644 6.44759ZM7.33105 13.0568C7.02515 12.9492 6.68592 12.9966 6.42127 13.184C6.15652 13.3714 5.99916 13.6757 5.99916 14.0001C5.99916 15.5667 7.04185 16.8286 8.15929 17.6383C9.29121 18.4585 10.742 19.0001 11.9992 19.0001C13.2563 19.0001 14.7071 18.4585 15.839 17.6383C16.9565 16.8286 17.9992 15.5667 17.9992 14.0001C17.9992 13.6757 17.8418 13.3714 17.5771 13.184C17.3124 12.9966 16.9732 12.9491 16.6673 13.0568L16.6625 13.0585L16.642 13.0655C16.6232 13.072 16.5943 13.0818 16.5562 13.0945C16.4798 13.12 16.3666 13.1571 16.2234 13.2019C15.9363 13.2915 15.5312 13.4114 15.0618 13.5311C14.1053 13.7751 12.9521 14.0001 11.9992 14.0001C11.0462 14.0001 9.893 13.7751 8.93652 13.5311C8.46715 13.4114 8.06198 13.2915 7.77497 13.2019C7.6317 13.1571 7.5185 13.12 7.44216 13.0945C7.40401 13.0818 7.37511 13.072 7.35633 13.0655L7.33587 13.0585L7.33105 13.0568Z" fill="black"/>
</svg>
