<svg width="24" height="24" viewBox="0 0 24 24" fill="none" xmlns="http://www.w3.org/2000/svg">
<path opacity="0.3" d="M12 2C6.47715 2 2 6.47715 2 12C2 17.5228 6.47715 22 12 22C17.5228 22 22 17.5228 22 12C22 6.47715 17.5228 2 12 2Z" fill="black"/>
<path fill-rule="evenodd" clip-rule="evenodd" d="M7.85162 9.3501C7.85162 8.52167 8.52319 7.8501 9.35162 7.8501C10.18 7.8501 10.8516 8.52167 10.8516 9.3501C10.8516 10.1785 10.18 10.8501 9.35162 10.8501C8.52319 10.8501 7.85162 10.1785 7.85162 9.3501ZM13.2501 9.3001C13.2501 8.49928 13.8992 7.8501 14.7001 7.8501C15.5009 7.8501 16.1501 8.49928 16.1501 9.3001C16.1501 10.1009 15.5009 10.7501 14.7001 10.7501C13.8992 10.7501 13.2501 10.1009 13.2501 9.3001ZM7.20049 15.3995C8.29345 13.9445 10.0368 13.0001 12.0004 13.0001C13.9641 13.0001 15.7074 13.9445 16.8004 15.3995C17.132 15.8411 17.043 16.468 16.6014 16.7997C16.1598 17.1314 15.5329 17.0423 15.2012 16.6007C14.4698 15.6269 13.3084 15.0001 12.0004 15.0001C10.6924 15.0001 9.53108 15.6269 8.79962 16.6007C8.46793 17.0423 7.84107 17.1314 7.39948 16.7997C6.95789 16.468 6.8688 15.8411 7.20049 15.3995Z" fill="black"/>
</svg>
