<svg width="24" height="24" viewBox="0 0 24 24" fill="none" xmlns="http://www.w3.org/2000/svg">
<path opacity="0.3" d="M12 2C6.47715 2 2 6.47715 2 12C2 17.5228 6.47715 22 12 22C17.5228 22 22 17.5228 22 12C22 6.47715 17.5228 2 12 2Z" fill="black"/>
<path fill-rule="evenodd" clip-rule="evenodd" d="M7.85156 9.3001C7.85156 8.49928 8.50075 7.8501 9.30156 7.8501C10.1024 7.8501 10.7516 8.49928 10.7516 9.3001C10.7516 10.1009 10.1024 10.7501 9.30156 10.7501C8.50075 10.7501 7.85156 10.1009 7.85156 9.3001ZM13.25 9.3001C13.25 8.49928 13.8992 7.8501 14.7 7.8501C15.5008 7.8501 16.15 8.49928 16.15 9.3001C16.15 10.1009 15.5008 10.7501 14.7 10.7501C13.8992 10.7501 13.25 10.1009 13.25 9.3001ZM12 13.0001C12 12.4478 12.4477 12.0001 13 12.0001H19.5C20.8807 12.0001 22 13.1194 22 14.5001C22 15.8808 20.8807 17.0001 19.5 17.0001H15.5C14.9477 17.0001 14.5 16.5524 14.5 16.0001C14.5 15.4478 14.9477 15.0001 15.5 15.0001H19.5C19.7761 15.0001 20 14.7763 20 14.5001C20 14.224 19.7761 14.0001 19.5 14.0001H13C12.4477 14.0001 12 13.5524 12 13.0001ZM9.33765 14.9798C10.1877 14.7248 11.1306 14.752 12.2425 15.03C12.7783 15.1639 13.1041 15.7069 12.9701 16.2427C12.8362 16.7784 12.2933 17.1042 11.7575 16.9703C10.8694 16.7483 10.3123 16.7755 9.91235 16.8955C9.51172 17.0156 9.15095 17.2634 8.70711 17.7072C8.31658 18.0978 7.68342 18.0978 7.29289 17.7072C6.90237 17.3167 6.90237 16.6835 7.29289 16.293C7.84905 15.7369 8.48828 15.2346 9.33765 14.9798Z" fill="black"/>
</svg>
