<svg width="24" height="24" viewBox="0 0 24 24" fill="none" xmlns="http://www.w3.org/2000/svg">
<path opacity="0.3" d="M12 2C6.47715 2 2 6.47715 2 12C2 17.5228 6.47715 22 12 22C17.5228 22 22 17.5228 22 12C22 6.47715 17.5228 2 12 2Z" fill="black"/>
<path fill-rule="evenodd" clip-rule="evenodd" d="M10.5549 5.66806C11.0144 5.97441 11.1386 6.59528 10.8323 7.05481C10.0221 8.27012 8.65807 9.00011 7.19744 9.00011H7.00022C6.44793 9.00011 6.00022 8.55239 6.00022 8.00011C6.00022 7.44782 6.44793 7.00011 7.00022 7.00011H7.19744C7.98936 7.00011 8.72889 6.60433 9.16817 5.94541C9.47452 5.48588 10.0954 5.3617 10.5549 5.66806ZM13.6396 7.4859C14.0531 6.93454 14.7007 6.50011 15.5002 6.50011C16.2998 6.50011 16.9474 6.93454 17.3609 7.4859C17.7742 8.03694 18.0002 8.75238 18.0002 9.50011C18.0002 10.2478 17.7742 10.9633 17.3609 11.5143C16.9474 12.0657 16.2998 12.5001 15.5002 12.5001C14.7007 12.5001 14.0531 12.0657 13.6396 11.5143C13.2263 10.9633 13.0002 10.2478 13.0002 9.50011C13.0002 8.75238 13.2263 8.03694 13.6396 7.4859ZM11.4287 9.62872C11.6338 10.1415 11.3844 10.7235 10.8716 10.9286L8.37161 11.9286C7.85883 12.1337 7.27686 11.8843 7.07174 11.3715C6.86663 10.8587 7.11604 10.2767 7.62883 10.0716L10.1288 9.07163C10.6416 8.86652 11.2236 9.11594 11.4287 9.62872ZM17.7684 13.8599C18.122 14.2842 18.0647 14.9148 17.6404 15.2683L15.7317 16.8589C14.7514 17.6758 13.3618 17.7832 12.2676 17.1267L11.8364 16.868C11.5684 16.7072 11.2407 16.681 10.9505 16.797L10.2055 17.095C9.40988 17.4133 8.51614 17.3761 7.74969 16.9929L6.55301 16.3945C6.05903 16.1475 5.8588 15.5469 6.10579 15.0529C6.35278 14.5589 6.95345 14.3587 7.44743 14.6057L8.64412 15.204C8.8996 15.3318 9.19752 15.3442 9.46272 15.2381L10.2077 14.9401C11.0782 14.5919 12.0614 14.6707 12.8654 15.153L13.2966 15.4118C13.6613 15.6306 14.1246 15.5948 14.4513 15.3225L16.36 13.7319C16.7843 13.3783 17.4149 13.4356 17.7684 13.8599Z" fill="black"/>
</svg>
