<svg width="24" height="24" viewBox="0 0 24 24" fill="none" xmlns="http://www.w3.org/2000/svg">
<path opacity="0.3" d="M12 2C6.47715 2 2 6.47715 2 12C2 17.5228 6.47715 22 12 22C17.5228 22 22 17.5228 22 12C22 6.47715 17.5228 2 12 2Z" fill="black"/>
<path fill-rule="evenodd" clip-rule="evenodd" d="M7.85113 9.3001C7.85113 8.49928 8.50031 7.8501 9.30113 7.8501C10.1019 7.8501 10.7511 8.49928 10.7511 9.3001C10.7511 10.1009 10.1019 10.7501 9.30113 10.7501C8.50031 10.7501 7.85113 10.1009 7.85113 9.3001ZM13.2496 9.3001C13.2496 8.49928 13.8988 7.8501 14.6996 7.8501C15.5004 7.8501 16.1496 8.49928 16.1496 9.3001C16.1496 10.1009 15.5004 10.7501 14.6996 10.7501C13.8987 10.7501 13.2496 10.1009 13.2496 9.3001ZM7.10929 16.1609C7.45036 13.7735 9.49506 12.0001 11.9068 12.0001H12.0924C14.5041 12.0001 16.5488 13.7735 16.8898 16.1609C17.0378 17.1964 16.106 18.0331 15.1127 17.8317C14.277 17.6622 12.9397 17.4287 11.9996 17.4287C11.0594 17.4287 9.72209 17.6622 8.88647 17.8317C7.89316 18.0331 6.96137 17.1964 7.10929 16.1609Z" fill="black"/>
</svg>
