<svg width="24" height="24" viewBox="0 0 24 24" fill="none" xmlns="http://www.w3.org/2000/svg">
<path opacity="0.3" d="M12 2C7.02944 2 3 6.13276 3 11.2308C3 13.4137 3.73881 15.4197 4.97396 17H19.026C20.2612 15.4197 21 13.4137 21 11.2308C21 6.13276 16.9706 2 12 2Z" fill="black"/>
<path d="M6.64266 7.48541C6.92681 7.01183 7.54107 6.85827 8.01465 7.14241L10.5146 8.64241C10.8159 8.82314 11.0002 9.14864 11.0002 9.49991C11.0002 9.85117 10.8159 10.1767 10.5146 10.3574L8.01465 11.8574C7.54107 12.1415 6.92681 11.988 6.64266 11.5144C6.35851 11.0408 6.51207 10.4266 6.98566 10.1424L8.0565 9.49991L6.98566 8.8574C6.51207 8.57325 6.35851 7.95899 6.64266 7.48541Z" fill="black"/>
<path d="M17.0146 8.8574C17.4882 8.57325 17.6418 7.95899 17.3576 7.48541C17.0735 7.01183 16.4592 6.85827 15.9857 7.14241L13.4857 8.64241C13.1844 8.82314 13.0002 9.14864 13.0002 9.49991C13.0002 9.85117 13.1844 10.1767 13.4857 10.3574L15.9857 11.8574C16.4592 12.1415 17.0735 11.988 17.3576 11.5144C17.6418 11.0408 17.4882 10.4266 17.0146 10.1424L15.9438 9.49991L17.0146 8.8574Z" fill="black"/>
<path d="M3.5 17.9999C2.67157 17.9999 2 18.6715 2 19.4999C2 20.3283 2.67157 20.9999 3.5 20.9999C4.32843 20.9999 5 20.3283 5 19.4999C5 18.6715 4.32843 17.9999 3.5 17.9999Z" fill="black"/>
<path d="M20.5 17.9999C19.6716 17.9999 19 18.6715 19 19.4999C19 20.3283 19.6716 20.9999 20.5 20.9999C21.3284 20.9999 22 20.3283 22 19.4999C22 18.6715 21.3284 17.9999 20.5 17.9999Z" fill="black"/>
<path fill-rule="evenodd" clip-rule="evenodd" d="M12 13.9999C10.4893 13.9999 9.30459 14.5385 8.74684 15.1649C8.37957 15.5774 7.74747 15.614 7.335 15.2468C6.92253 14.8795 6.88589 14.2474 7.25316 13.8349C8.29228 12.6679 10.0922 11.9999 12 11.9999C13.9078 11.9999 15.7077 12.6679 16.7468 13.8349C17.1141 14.2474 17.0775 14.8795 16.665 15.2468C16.2525 15.614 15.6204 15.5774 15.2532 15.1649C14.6954 14.5385 13.5107 13.9999 12 13.9999Z" fill="black"/>
<path d="M9.2885 15.9999C8.75352 15.9999 8.31329 16.3157 8.2895 16.7165C8.22164 17.8595 7.82549 19.5956 6.30091 20.7137C6.01026 20.9268 5.92057 21.2507 6.07402 21.533C6.22747 21.8153 6.59352 21.9999 7.00003 21.9999H17C17.4065 21.9999 17.7725 21.8153 17.926 21.533C18.0794 21.2507 17.9897 20.9268 17.6991 20.7137C16.1408 19.5709 15.5668 17.8006 15.3686 16.6535C15.304 16.2797 14.8795 15.9999 14.3769 15.9999H9.2885Z" fill="black"/>
</svg>
