<svg width="24" height="24" viewBox="0 0 24 24" fill="none" xmlns="http://www.w3.org/2000/svg">
<path opacity="0.3" d="M11 2C6.02944 2 2 6.02944 2 11C2 15.9706 6.02944 20 11 20C15.9706 20 20 15.9706 20 11C20 6.02944 15.9706 2 11 2Z" fill="black"/>
<path d="M8.35156 7.8501C7.52313 7.8501 6.85156 8.52167 6.85156 9.3501C6.85156 10.1785 7.52313 10.8501 8.35156 10.8501C9.17999 10.8501 9.85156 10.1785 9.85156 9.3501C9.85156 8.52167 9.17999 7.8501 8.35156 7.8501Z" fill="black"/>
<path d="M13.7 7.8501C12.8992 7.8501 12.25 8.49928 12.25 9.3001C12.25 10.1009 12.8992 10.7501 13.7 10.7501C14.5008 10.7501 15.15 10.1009 15.15 9.3001C15.15 8.49928 14.5008 7.8501 13.7 7.8501Z" fill="black"/>
<path d="M9 14.0001C9 13.4478 8.55228 13.0001 8 13.0001C7.44772 13.0001 7 13.4478 7 14.0001V15.0001C7 15.5524 7.44772 16.0001 8 16.0001C8.55228 16.0001 9 15.5524 9 15.0001V14.0001Z" fill="black"/>
<path d="M12 14.0001C12 13.4478 11.5523 13.0001 11 13.0001C10.4477 13.0001 10 13.4478 10 14.0001V15.0001C10 15.5524 10.4477 16.0001 11 16.0001C11.5523 16.0001 12 15.5524 12 15.0001V14.0001Z" fill="black"/>
<path d="M15 14.0001C15 13.4478 14.5523 13.0001 14 13.0001C13.4477 13.0001 13 13.4478 13 14.0001V15.0001C13 15.5524 13.4477 16.0001 14 16.0001C14.5523 16.0001 15 15.5524 15 15.0001V14.0001Z" fill="black"/>
<path fill-rule="evenodd" clip-rule="evenodd" d="M18.5953 15.5887C18.2257 15.2456 17.6584 15.2313 17.2721 15.5555L15.74 16.8411C15.3537 17.1652 15.2692 17.7264 15.543 18.1499L16.9169 20.2757C17.6757 21.4498 19.2919 21.6932 20.3628 20.7945C21.4337 19.8959 21.4747 18.2621 20.4502 17.3109L18.5953 15.5887Z" fill="black"/>
</svg>
