<svg width="24" height="24" viewBox="0 0 24 24" fill="none" xmlns="http://www.w3.org/2000/svg">
<path opacity="0.3" d="M12 2C6.47715 2 2 6.47715 2 12C2 17.5228 6.47715 22 12 22C17.5228 22 22 17.5228 22 12C22 6.47715 17.5228 2 12 2Z" fill="black"/>
<path fill-rule="evenodd" clip-rule="evenodd" d="M7.33207 13.0569L7.3367 13.0585L7.35717 13.0656C7.37595 13.072 7.40485 13.0819 7.443 13.0946C7.51933 13.1201 7.63254 13.1571 7.77581 13.2019C8.06282 13.2916 8.46799 13.4115 8.93735 13.5312C9.89383 13.7752 11.0471 14.0002 12 14.0002C12.9529 14.0002 14.1062 13.7752 15.0626 13.5312C15.532 13.4115 15.9372 13.2916 16.2242 13.2019C16.3675 13.1571 16.4807 13.1201 16.557 13.0946C16.5952 13.0819 16.624 13.072 16.6428 13.0656L16.6633 13.0585L16.6676 13.057C16.9736 12.9494 17.3132 12.9966 17.5779 13.184C17.8426 13.3715 18 13.6758 18 14.0002C18 15.4856 17.0659 16.6972 16 17.5183V18.0002C16 20.2093 14.2091 22.0002 12 22.0002C9.79086 22.0002 8 20.2093 8 18.0002V17.5183C6.93412 16.6972 6 15.4856 6 14.0002C6 13.6758 6.15736 13.3715 6.4221 13.184C6.68676 12.9966 7.02617 12.9493 7.33207 13.0569Z" fill="black"/>
<path fill-rule="evenodd" clip-rule="evenodd" d="M6.64251 6.98566C6.92666 6.51208 7.54092 6.35851 8.0145 6.64266L10.5145 8.14266C10.8157 8.32338 11 8.64889 11 9.00015C11 9.35141 10.8157 9.67692 10.5145 9.85764L8.0145 11.3576C7.54092 11.6418 6.92666 11.4882 6.64251 11.0146C6.35836 10.5411 6.51192 9.92681 6.9855 9.64266L8.05635 9.00015L6.9855 8.35764C6.51192 8.0735 6.35836 7.45924 6.64251 6.98566ZM17.3575 6.98566C17.6416 7.45924 17.4881 8.0735 17.0145 8.35764L15.9437 9.00015L17.0145 9.64266C17.4881 9.92681 17.6416 10.5411 17.3575 11.0146C17.0733 11.4882 16.4591 11.6418 15.9855 11.3576L13.4855 9.85764C13.1843 9.67692 13 9.35141 13 9.00015C13 8.64889 13.1843 8.32338 13.4855 8.14266L15.9855 6.64266C16.4591 6.35851 17.0733 6.51208 17.3575 6.98566Z" fill="black"/>
</svg>
