<svg width="24" height="24" viewBox="0 0 24 24" fill="none" xmlns="http://www.w3.org/2000/svg">
<path opacity="0.14" d="M12 21C7.02944 21 3 16.9706 3 12C3 7.02944 7.02944 3 12 3C14.8273 3 17.35 4.30367 19 6.34267V17.6573C17.35 19.6963 14.8273 21 12 21Z" fill="black"/>
<path d="M19 17.658C18.8026 17.9016 18.5906 18.1373 18.364 18.364C14.8492 21.8787 9.15076 21.8787 5.63604 18.364C2.12132 14.8492 2.12132 9.15076 5.63604 5.63604C9.15076 2.12132 14.8492 2.12132 18.364 5.63604C18.5906 5.86266 18.8026 6.09837 19 6.34198" stroke="black" stroke-width="2" stroke-linecap="round" stroke-linejoin="round"/>
</svg>
