<svg width="24" height="24" viewBox="0 0 24 24" fill="none" xmlns="http://www.w3.org/2000/svg">
<rect opacity="0.14" x="4" y="4" width="16" height="16" rx="2" fill="black"/>
<path d="M8.5 11C8.5 9.067 10.067 7.5 12 7.5C13.933 7.5 15.5 9.067 15.5 11V13C15.5 14.933 13.933 16.5 12 16.5C10.067 16.5 8.5 14.933 8.5 13V11Z" stroke="black" stroke-width="2" stroke-linejoin="round"/>
<path d="M4 6C4 4.89543 4.89543 4 6 4H18C19.1046 4 20 4.89543 20 6V18C20 19.1046 19.1046 20 18 20H6C4.89543 20 4 19.1046 4 18V6Z" stroke="black" stroke-width="2" stroke-linejoin="round"/>
</svg>
