<svg width="24" height="24" viewBox="0 0 24 24" fill="none" xmlns="http://www.w3.org/2000/svg">
<rect opacity="0.14" x="4" y="4" width="16" height="16" rx="2" fill="black"/>
<path d="M10 14C10 13.4477 9.55228 13 9 13C8.44772 13 8 13.4477 8 14H10ZM16 7C16 6.44772 15.5523 6 15 6C14.4477 6 14 6.44772 14 7H16ZM14 14C14 15.1046 13.1046 16 12 16V18C14.2091 18 16 16.2091 16 14H14ZM12 16C10.8954 16 10 15.1046 10 14H8C8 16.2091 9.79086 18 12 18V16ZM16 14V7H14V14H16ZM6 5H18V3H6V5ZM19 6V18H21V6H19ZM18 19H6V21H18V19ZM5 18V6H3V18H5ZM6 19C5.44772 19 5 18.5523 5 18H3C3 19.6569 4.34315 21 6 21V19ZM19 18C19 18.5523 18.5523 19 18 19V21C19.6569 21 21 19.6569 21 18H19ZM18 5C18.5523 5 19 5.44772 19 6H21C21 4.34315 19.6569 3 18 3V5ZM6 3C4.34315 3 3 4.34315 3 6H5C5 5.44772 5.44772 5 6 5V3Z" fill="black"/>
</svg>
