<svg width="24" height="24" viewBox="0 0 24 24" fill="none" xmlns="http://www.w3.org/2000/svg">
<path opacity="0.3" fill-rule="evenodd" clip-rule="evenodd" d="M8.16146 5.00122H15.8385C16.3657 5.0012 16.8205 5.00119 17.195 5.03179C17.5904 5.06409 17.9836 5.13541 18.362 5.3282C18.9265 5.61582 19.3854 6.07476 19.673 6.63925C19.8658 7.01763 19.9371 7.41085 19.9694 7.80619C20 8.18077 20 8.63554 20 9.1627V17.8397C20 18.3669 20 18.8217 19.9694 19.1963C19.9371 19.5916 19.8658 19.9848 19.673 20.3632C19.3854 20.9277 18.9265 21.3866 18.362 21.6742C17.9836 21.867 17.5904 21.9384 17.195 21.9707C16.8205 22.0013 16.3657 22.0012 15.8385 22.0012H8.16148C7.63432 22.0012 7.17955 22.0013 6.80497 21.9707C6.40963 21.9384 6.01641 21.867 5.63803 21.6742C5.07354 21.3866 4.6146 20.9277 4.32698 20.3632C4.13419 19.9848 4.06287 19.5916 4.03057 19.1963C3.99997 18.8217 3.99998 18.3669 4 17.8398V9.16268C3.99998 8.63553 3.99997 8.18077 4.03057 7.80619C4.06287 7.41085 4.13419 7.01763 4.32698 6.63925C4.6146 6.07476 5.07354 5.61582 5.63803 5.3282C6.01641 5.13541 6.40963 5.06409 6.80497 5.03179C7.17955 5.00119 7.63431 5.0012 8.16146 5.00122Z" fill="black"/>
<path d="M14.958 3.46149C14.7953 3.50454 14.5743 3.58389 14.1953 3.72169L10.6766 5.00122H8.16145C7.63431 5.0012 7.17954 5.00119 6.80497 5.03179C6.40963 5.06409 6.01641 5.13541 5.63803 5.3282C5.07354 5.61582 4.6146 6.07476 4.32698 6.63925C4.13419 7.01763 4.06287 7.41085 4.03057 7.80619C4.007 8.09469 4.00159 8.43076 4.00036 8.81083V7.68227L4.00018 7.56474C3.99907 7.08047 3.99795 6.5947 4.16649 6.15576C4.31323 5.77359 4.55158 5.43329 4.8606 5.16478C5.21551 4.85639 5.67242 4.69143 6.12792 4.52697L6.23843 4.48698L13.5485 1.82876C13.878 1.70893 14.1855 1.59708 14.4464 1.52804C14.7209 1.45541 15.0712 1.39261 15.4507 1.4803C15.9556 1.59699 16.3956 1.90514 16.6778 2.33982C16.8899 2.66647 16.9506 3.01718 16.9761 3.29997C17.0004 3.56877 17.0004 3.89598 17.0004 4.24654L17.0004 5.01886C16.6663 5.00119 16.2775 5.00121 15.8386 5.00122H15.0004V4.28557C15.0004 3.88233 14.9994 3.6475 14.9843 3.4799L14.9819 3.45537L14.958 3.46149Z" fill="black"/>
<path d="M8 10.0012C8 9.44894 8.44771 9.00122 9 9.00122H15C15.5523 9.00122 16 9.44894 16 10.0012C16 10.5535 15.5523 11.0012 15 11.0012H9C8.44771 11.0012 8 10.5535 8 10.0012Z" fill="black"/>
<path d="M8 13.5012C8 12.9489 8.44771 12.5012 9 12.5012H15C15.5523 12.5012 16 12.9489 16 13.5012C16 14.0535 15.5523 14.5012 15 14.5012H9C8.44771 14.5012 8 14.0535 8 13.5012Z" fill="black"/>
<path d="M9 16.0012C8.44771 16.0012 8 16.4489 8 17.0012C8 17.5535 8.44771 18.0012 9 18.0012H15C15.5523 18.0012 16 17.5535 16 17.0012C16 16.4489 15.5523 16.0012 15 16.0012H9Z" fill="black"/>
</svg>
