<svg width="24" height="24" viewBox="0 0 24 24" fill="none" xmlns="http://www.w3.org/2000/svg">
<path opacity="0.3" fill-rule="evenodd" clip-rule="evenodd" d="M5 3C5 2.44772 5.44772 2 6 2H18C18.5523 2 19 2.44772 19 3V7C19 10.866 15.866 14 12 14C8.13401 14 5 10.866 5 7V3Z" fill="black"/>
<path d="M11 13.9292V20.0001H8C7.44772 20.0001 7 20.4478 7 21.0001C7 21.5524 7.44772 22.0001 8 22.0001H16C16.5523 22.0001 17 21.5524 17 21.0001C17 20.4478 16.5523 20.0001 16 20.0001H13V13.9292C12.6734 13.9759 12.3395 14.0001 12 14.0001C11.6605 14.0001 11.3266 13.9759 11 13.9292Z" fill="black"/>
</svg>
