<svg width="24" height="24" viewBox="0 0 24 24" fill="none" xmlns="http://www.w3.org/2000/svg">
<g opacity="0.14">
<path d="M19 20.0001H5L6.94444 15.0001H17.0556L19 20.0001Z" fill="black"/>
<path d="M11.4736 4.13418C11.093 4.33229 10.8287 5.01201 10.3 6.37144L8.88889 10.0001H15.1111L13.7 6.37145L13.7 6.37142C13.1713 5.012 12.907 4.33229 12.5264 4.13418C12.1965 3.96244 11.8035 3.96244 11.4736 4.13418Z" fill="black"/>
</g>
<path d="M3 20.0001H21M5 20.0001L6.94444 15.0001M19 20.0001L17.0556 15.0001M15.1111 10.0001L13.7 6.37145C13.1713 5.01201 12.907 4.33229 12.5264 4.13418C12.1965 3.96244 11.8035 3.96244 11.4736 4.13418C11.093 4.33229 10.8287 5.01201 10.3 6.37144L8.88889 10.0001M15.1111 10.0001H8.88889M15.1111 10.0001L17.0556 15.0001M8.88889 10.0001L6.94444 15.0001M6.94444 15.0001H17.0556" stroke="black" stroke-width="2" stroke-linecap="round" stroke-linejoin="round"/>
</svg>
