<svg width="24" height="24" viewBox="0 0 24 24" fill="none" xmlns="http://www.w3.org/2000/svg">
<path opacity="0.14" d="M5.05416 18.9498C7.78783 21.6834 12.22 21.6834 14.9537 18.9498C17.6873 16.2161 21.0508 9.99999 21.0508 9.99999L18 10L21.0508 3.00001L14 6V3C14 3 7.78783 6.31661 5.05416 9.05028C2.32049 11.784 2.32049 16.2161 5.05416 18.9498Z" fill="black"/>
<path d="M11 9L11.8981 11.7639H14.8042L12.4531 13.4721L13.3511 16.2361L11 14.5279L8.64886 16.2361L9.54692 13.4721L7.19577 11.7639H10.1019L11 9Z" stroke="black" stroke-width="2" stroke-linecap="round" stroke-linejoin="round"/>
<path d="M5.05416 18.9498C7.78783 21.6834 12.22 21.6834 14.9537 18.9498C17.6873 16.2161 21.0508 9.99999 21.0508 9.99999L18 10L21.0508 3.00001L14 6V3C14 3 7.78783 6.31661 5.05416 9.05028C2.32049 11.784 2.32049 16.2161 5.05416 18.9498Z" stroke="black" stroke-width="2" stroke-linecap="round" stroke-linejoin="round"/>
</svg>
