<svg width="24" height="24" viewBox="0 0 24 24" fill="none" xmlns="http://www.w3.org/2000/svg">
<path opacity="0.14" d="M14 4C10.6863 4 8 6.68629 8 10C8 10.7013 8.12031 11.3744 8.34141 12C7.39427 11.8333 5.2 11.2 4 10C4 13.3137 6.68629 16 10 16C10.7013 16 11.3744 15.8797 12 15.6586C11.8333 16.6057 11.2 18.8 10 20C13.3137 20 16 17.3137 16 14C16 13.2987 15.8797 12.6256 15.6586 12C16.6057 12.1667 18.8 12.8 20 14C20 10.6863 17.3137 8 14 8C13.2987 8 12.6256 8.12031 12 8.34141C12.1667 7.39427 12.8 5.2 14 4Z" fill="black"/>
<path d="M14 4C10.6863 4 8 6.68629 8 10C8 10.7013 8.12031 11.3744 8.34141 12C7.39427 11.8333 5.2 11.2 4 10C4 13.3137 6.68629 16 10 16C10.7013 16 11.3744 15.8797 12 15.6586C11.8333 16.6057 11.2 18.8 10 20C13.3137 20 16 17.3137 16 14C16 13.2987 15.8797 12.6256 15.6586 12C16.6057 12.1667 18.8 12.8 20 14C20 10.6863 17.3137 8 14 8C13.2987 8 12.6256 8.12031 12 8.34141C12.1667 7.39427 12.8 5.2 14 4Z" stroke="black" stroke-width="2" stroke-linejoin="round"/>
<path d="M13 12C13 12.5523 12.5523 13 12 13C11.4477 13 11 12.5523 11 12C11 11.4477 11.4477 11 12 11C12.5523 11 13 11.4477 13 12Z" stroke="black" stroke-width="2" stroke-linejoin="round"/>
</svg>
