<svg width="24" height="24" viewBox="0 0 24 24" fill="none" xmlns="http://www.w3.org/2000/svg">
<path opacity="0.14" d="M19 12C19 15.866 15.866 19 12 19C8.13401 19 5 15.866 5 12C5 8.13401 8.13401 5 12 5C15.866 5 19 8.13401 19 12Z" fill="black"/>
<path d="M5.55363 14.7331C3.45378 17.6023 2.48648 19.9449 3.27078 20.7292C4.47604 21.9345 9.36129 19.0033 14.1823 14.1823C19.0033 9.36129 21.9345 4.47604 20.7292 3.27078C19.9449 2.48648 17.6023 3.45378 14.7331 5.55363M19 12C19 15.866 15.866 19 12 19C8.13401 19 5 15.866 5 12C5 8.13401 8.13401 5 12 5C15.866 5 19 8.13401 19 12Z" stroke="black" stroke-width="2"/>
</svg>
