<svg width="24" height="24" viewBox="0 0 24 24" fill="none" xmlns="http://www.w3.org/2000/svg">
<g opacity="0.14">
<path d="M21.0003 8L16.0003 3L7.94531 11.055C9.16671 11.2231 10.3452 11.7767 11.2843 12.7157C12.2239 13.6553 12.7776 14.8347 12.9453 16.0569V16.055L21.0003 8Z" fill="black"/>
<path d="M3 12.7157L11.2843 21C12.6323 19.652 13.186 17.8104 12.9453 16.0569C12.7776 14.8347 12.2239 13.6553 11.2843 12.7157C10.3452 11.7767 9.16671 11.2231 7.94531 11.055C6.19118 10.8135 4.34861 11.3671 3 12.7157Z" fill="black"/>
</g>
<path d="M4 20L7.14214 16.8579M7.94531 11.055L16.0003 3L21.0003 8L12.9453 16.055M7.94531 11.055C6.19118 10.8135 4.34861 11.3671 3 12.7157L11.2843 21C12.6323 19.652 13.186 17.8104 12.9453 16.0569M7.94531 11.055C9.16671 11.2231 10.3452 11.7767 11.2843 12.7157C12.2239 13.6553 12.7776 14.8347 12.9453 16.0569M7.94531 11.055L5.00027 8L10.0003 3L12.9453 6.05469M12.9453 16.055V16.0569M12.9453 16.055L16 19L21 14L17.9453 11.0549M5 20C5 20.5523 4.55228 21 4 21C3.44772 21 3 20.5523 3 20C3 19.4477 3.44772 19 4 19C4.55228 19 5 19.4477 5 20Z" stroke="black" stroke-width="2" stroke-linecap="round" stroke-linejoin="round"/>
</svg>
