<svg width="24" height="24" viewBox="0 0 24 24" fill="none" xmlns="http://www.w3.org/2000/svg">
<g opacity="0.14">
<path d="M13.9998 12.0001C13.9998 13.1047 13.1044 14.0001 11.9998 14.0001C10.8953 14.0001 9.99985 13.1047 9.99985 12.0001C9.99985 10.8956 10.8953 10.0001 11.9998 10.0001C13.1044 10.0001 13.9998 10.8956 13.9998 12.0001Z" fill="black"/>
<path d="M16.8905 8.11111C16.8905 8.6634 16.4428 9.11111 15.8905 9.11111C15.6343 9.11111 15.4006 9.01479 15.2237 8.85639C15.0192 8.67329 14.8905 8.40723 14.8905 8.11111C14.8905 7.55883 15.3382 7.11111 15.8905 7.11111C16.4428 7.11111 16.8905 7.55883 16.8905 8.11111Z" fill="black"/>
<path d="M6.62891 5.64014C6.62891 6.19242 6.18119 6.64014 5.62891 6.64014C5.37274 6.64014 5.13907 6.54382 4.96214 6.38542C4.75761 6.20231 4.62891 5.93625 4.62891 5.64014C4.62891 5.08785 5.07662 4.64014 5.62891 4.64014C6.18119 4.64014 6.62891 5.08785 6.62891 5.64014Z" fill="black"/>
<path d="M19.3711 18.3635C19.3711 18.9158 18.9234 19.3635 18.3711 19.3635C17.8188 19.3635 17.3711 18.9158 17.3711 18.3635C17.3711 17.8112 17.8188 17.3635 18.3711 17.3635C18.6252 17.3635 18.8572 17.4583 19.0337 17.6145C19.2406 17.7977 19.3711 18.0654 19.3711 18.3635Z" fill="black"/>
</g>
<path d="M5.74555 7.01006C6.09056 6.5788 6.02065 5.94951 5.58939 5.6045C5.15813 5.25948 4.52884 5.32939 4.18383 5.76065L5.74555 7.01006ZM8.67012 2.56799C8.14922 2.75153 7.87574 3.32258 8.05928 3.84348C8.24281 4.36437 8.81387 4.63786 9.33476 4.45432L8.67012 2.56799ZM15.3353 21.4291C15.8561 21.2453 16.1293 20.6741 15.9454 20.1533C15.7616 19.6325 15.1904 19.3593 14.6696 19.5432L15.3353 21.4291ZM18.2539 16.9897C17.9088 17.4209 17.9787 18.0502 18.4099 18.3952C18.8411 18.7403 19.4704 18.6705 19.8155 18.2392L18.2539 16.9897ZM4.96109 6.38534L4.29408 7.13038L4.96109 6.38534ZM19.0326 17.6144L18.3698 18.3632L19.0326 17.6144ZM15.2227 8.85631L14.5556 9.60136L15.2227 8.85631ZM11.9988 11C11.4465 11 10.9988 11.4478 10.9988 12C10.9988 12.5523 11.4465 13 11.9988 13V11ZM12.0078 13C12.5601 13 13.0078 12.5523 13.0078 12C13.0078 11.4478 12.5601 11 12.0078 11V13ZM6.34315 17.6564C3.43294 14.7462 3.23337 10.1502 5.74555 7.01006L4.18383 5.76065C1.0421 9.6877 1.2901 15.4317 4.92893 19.0706L6.34315 17.6564ZM9.33476 4.45432C12.1509 3.46206 15.4076 4.09342 17.6569 6.34266L19.0711 4.92844C16.2571 2.11451 12.1848 1.32961 8.67012 2.56799L9.33476 4.45432ZM14.6696 19.5432C11.8525 20.5376 8.59354 19.9068 6.34315 17.6564L4.92893 19.0706C7.74431 21.886 11.8194 22.6702 15.3353 21.4291L14.6696 19.5432ZM17.6569 6.34266C20.5673 9.25308 20.7667 13.8495 18.2539 16.9897L19.8155 18.2392C22.9579 14.3122 22.7102 8.56755 19.0711 4.92844L17.6569 6.34266ZM5.62786 5.64006L5.62786 5.64006V7.64006C6.73243 7.64006 7.62786 6.74463 7.62786 5.64006H5.62786ZM5.62786 5.64006L5.62786 5.64006V3.64006C4.52329 3.64006 3.62786 4.53549 3.62786 5.64006H5.62786ZM5.62786 5.64006L5.62786 5.64006H7.62786C7.62786 4.53549 6.73243 3.64006 5.62786 3.64006V5.64006ZM5.62786 5.64006L5.62811 5.64029L4.29408 7.13038C4.64728 7.44659 5.11617 7.64006 5.62786 7.64006V5.64006ZM5.62811 5.64029L5.62786 5.64006H3.62786C3.62786 6.23239 3.88663 6.7656 4.29408 7.13038L5.62811 5.64029ZM18.3701 18.3634V18.3634V20.3634C19.4746 20.3634 20.3701 19.468 20.3701 18.3634H18.3701ZM18.3701 18.3634L18.37 18.3634H16.37C16.37 19.468 17.2655 20.3634 18.3701 20.3634V18.3634ZM18.37 18.3634V18.3634V16.3634C17.2655 16.3634 16.37 17.2589 16.37 18.3634H18.37ZM18.37 18.3634L18.3698 18.3632L19.6955 16.8657C19.3432 16.5539 18.8777 16.3634 18.37 16.3634V18.3634ZM18.3698 18.3632L18.3701 18.3634H20.3701C20.3701 17.767 20.1077 17.2306 19.6955 16.8657L18.3698 18.3632ZM15.1808 15.1818C13.4234 16.9391 10.5742 16.9391 8.81683 15.1818L7.40261 16.596C9.94102 19.1344 14.0566 19.1344 16.595 16.596L15.1808 15.1818ZM8.81683 15.1818C7.05947 13.4244 7.05946 10.5752 8.81682 8.81779L7.40261 7.40358C4.8642 9.94199 4.86421 14.0576 7.40261 16.596L8.81683 15.1818ZM8.81682 8.81779C10.5742 7.06043 13.4234 7.06043 15.1808 8.81779L16.595 7.40358C14.0566 4.86517 9.94102 4.86517 7.40261 7.40358L8.81682 8.81779ZM15.1808 8.81779C16.9381 10.5752 16.9381 13.4244 15.1808 15.1818L16.595 16.596C19.1334 14.0576 19.1334 9.94199 16.595 7.40358L15.1808 8.81779ZM15.8894 8.11103V8.11103V10.111C16.994 10.111 17.8894 9.2156 17.8894 8.11103H15.8894ZM15.8894 8.11103V8.11103V6.11103C14.7849 6.11103 13.8894 7.00646 13.8894 8.11103H15.8894ZM15.8894 8.11103L15.8894 8.11103H17.8894C17.8894 7.00646 16.994 6.11103 15.8894 6.11103V8.11103ZM15.8894 8.11103L15.8897 8.11127L14.5556 9.60136C14.9088 9.91756 15.3777 10.111 15.8894 10.111V8.11103ZM15.8897 8.11127L15.8894 8.11103H13.8894C13.8894 8.70336 14.1482 9.23658 14.5556 9.60136L15.8897 8.11127ZM12.9988 12C12.9988 12.5523 12.5511 13 11.9988 13V15C13.6557 15 14.9988 13.6569 14.9988 12H12.9988ZM11.9988 13C11.4465 13 10.9988 12.5523 10.9988 12H8.9988C8.9988 13.6569 10.3419 15 11.9988 15V13ZM10.9988 12C10.9988 11.4478 11.4465 11 11.9988 11V9.00004C10.3419 9.00004 8.9988 10.3432 8.9988 12H10.9988ZM11.9988 11C12.5511 11 12.9988 11.4478 12.9988 12H14.9988C14.9988 10.3432 13.6557 9.00004 11.9988 9.00004V11ZM11.9988 13H12.0078V11H11.9988V13Z" fill="black"/>
</svg>
