<svg width="24" height="24" viewBox="0 0 24 24" fill="none" xmlns="http://www.w3.org/2000/svg">
<g opacity="0.14">
<path d="M5.42188 12.1653L6.5567 15.2815L11.0167 14.2741C11.0044 14.1845 10.9981 14.093 10.9981 14C10.9981 12.8954 11.8935 12 12.9981 12C13.8265 12 14.5373 12.5037 14.8409 13.2215C14.8649 13.2783 14.8864 13.3364 14.9052 13.3957L16.8961 12.9459L14.844 7.30777L5.42188 12.1653Z" fill="black"/>
<path d="M12.9981 12C11.8935 12 10.9981 12.8954 10.9981 14C10.9981 14.093 11.0044 14.1845 11.0167 14.2741C11.0865 14.7834 11.3481 15.2317 11.7263 15.5436C12.072 15.8287 12.515 16 12.9981 16C13.4812 16 13.9242 15.8287 14.2699 15.5436C14.7146 15.1768 14.9981 14.6215 14.9981 14C14.9981 13.7894 14.9655 13.5864 14.9052 13.3957C14.8864 13.3364 14.8649 13.2783 14.8409 13.2215C14.5373 12.5037 13.8265 12 12.9981 12Z" fill="black"/>
<path d="M14.8451 7.3076L16.8973 12.9458L16.8961 12.9459L17.2382 13.8856L20.9969 12.5175L18.2608 5L14.502 6.36808L14.844 7.30777L14.8451 7.3076Z" fill="black"/>
</g>
<path d="M15 14C15 15.1046 14.1046 16 13 16M15 14C15 12.8954 14.1046 12 13 12C11.8954 12 11 12.8954 11 14M15 14C15 14.6215 14.7165 15.1768 14.2718 15.5436C13.9261 15.8287 13.4831 16 13 16M13 16C11.8954 16 11 15.1046 11 14M13 16C12.5169 16 12.0739 15.8287 11.7282 15.5436M11 14C11 14.6215 11.2835 15.1768 11.7282 15.5436M11.7282 15.5436L10 19.0001M16.0016 19.0001L14.2734 15.5437M14.9071 13.3957L16.8992 12.9458L14.847 7.3076L5.42377 12.1653L6.5586 15.2815L11.0186 14.2741M3 14L3.54627 15.5M14.8459 7.30777L16.898 12.9459M14.5039 6.36808L18.2627 5L20.9988 12.5175L17.2401 13.8856L14.5039 6.36808Z" stroke="black" stroke-width="2" stroke-linecap="round" stroke-linejoin="round"/>
</svg>
