<svg width="24" height="24" viewBox="0 0 24 24" fill="none" xmlns="http://www.w3.org/2000/svg">
<path opacity="0.3" fill-rule="evenodd" clip-rule="evenodd" d="M8.73152 2.33969C8.76992 2.33974 8.80864 2.33979 8.84769 2.33979H15.1526C15.1917 2.33979 15.2304 2.33974 15.2688 2.33969C15.826 2.339 16.3163 2.33839 16.7725 2.48662C17.1724 2.61654 17.5404 2.82904 17.8529 3.11036C18.2093 3.43133 18.454 3.85626 18.732 4.33915C18.7511 4.37242 18.7704 4.40598 18.79 4.43979L21.9424 9.90004C21.962 9.93386 21.9814 9.96737 22.0006 10.0006C22.2798 10.4828 22.5255 10.9071 22.6252 11.3763C22.7126 11.7875 22.7126 12.2126 22.6252 12.6238C22.5255 13.093 22.2798 13.5173 22.0006 13.9995C21.9814 14.0327 21.962 14.0662 21.9424 14.1L18.79 19.5603C18.7704 19.5941 18.7511 19.6277 18.732 19.6609C18.454 20.1438 18.2093 20.5688 17.8529 20.8897C17.5404 21.171 17.1724 21.3836 16.7725 21.5135C16.3163 21.6617 15.826 21.6611 15.2688 21.6604C15.2304 21.6603 15.1917 21.6603 15.1526 21.6603H8.84769C8.80864 21.6603 8.76992 21.6603 8.73152 21.6604C8.17434 21.6611 7.68403 21.6617 7.22782 21.5135C6.82798 21.3836 6.45991 21.171 6.14748 20.8897C5.79099 20.5688 5.54637 20.1438 5.26838 19.6609C5.24922 19.6277 5.22991 19.5941 5.21038 19.5603L2.0579 14.1C2.03838 14.0662 2.01898 14.0327 1.99974 13.9995C1.72055 13.5173 1.47486 13.093 1.37513 12.6238C1.28772 12.2126 1.28772 11.7875 1.37513 11.3763C1.47486 10.9071 1.72054 10.4828 1.99974 10.0006C2.01898 9.96737 2.03838 9.93386 2.0579 9.90005L5.21038 4.43979C5.22991 4.40597 5.24923 4.37242 5.26838 4.33914C5.54637 3.85626 5.791 3.43133 6.14748 3.11036C6.45991 2.82904 6.82798 2.61654 7.22782 2.48662C7.68403 2.33839 8.17434 2.339 8.73152 2.33969Z" fill="black"/>
<path fill-rule="evenodd" clip-rule="evenodd" d="M12 7C11.4477 7 11 7.44772 11 8V13C11 13.5523 11.4477 14 12 14C12.5523 14 13 13.5523 13 13V8C13 7.44772 12.5523 7 12 7ZM12 17C12.5523 17 13 16.5523 13 16C13 15.4477 12.5523 15 12 15C11.4477 15 11 15.4477 11 16C11 16.5523 11.4477 17 12 17Z" fill="black"/>
</svg>
