<svg width="24" height="24" viewBox="0 0 24 24" fill="none" xmlns="http://www.w3.org/2000/svg">
<path opacity="0.3" fill-rule="evenodd" clip-rule="evenodd" d="M11.9991 4.00122C7.88263 4.00122 4.49118 7.11167 4.04893 11.11C3.98821 11.659 3.49399 12.0547 2.94505 11.994C2.39611 11.9333 2.00033 11.4391 2.06105 10.8902C2.61413 5.88979 6.85182 2.00122 11.9991 2.00122C15.2722 2.00122 18.1766 3.57399 20 6.00238V5.00006C20 4.44778 20.4477 4.00006 21 4.00006C21.5523 4.00006 22 4.44778 22 5.00006V9.00006C22 9.55235 21.5523 10.0001 21 10.0001H17C16.4477 10.0001 16 9.55235 16 9.00006C16 8.44778 16.4477 8.00006 17 8.00006H18.9278C17.5435 5.60778 14.9581 4.00122 11.9991 4.00122ZM21.0532 12.0111C21.6021 12.0721 21.9977 12.5664 21.9367 13.1154C21.3817 18.1137 17.145 22 11.9991 22C8.7271 22 5.82346 20.4283 4 18.0012V19.0001C4 19.5523 3.55228 20.0001 3 20.0001C2.44772 20.0001 2 19.5523 2 19.0001V15.0001C2 14.4478 2.44772 14.0001 3 14.0001H7C7.55228 14.0001 8 14.4478 8 15.0001C8 15.5523 7.55228 16.0001 7 16.0001H5.06978C6.45395 18.393 9.03969 20 11.9991 20C16.1144 20 19.5051 16.8913 19.9489 12.8946C20.0099 12.3457 20.5043 11.9501 21.0532 12.0111Z" fill="black"/>
<path d="M12 7C12.5523 7 13 7.44772 13 8V13C13 13.5523 12.5523 14 12 14C11.4477 14 11 13.5523 11 13V8C11 7.44772 11.4477 7 12 7Z" fill="black"/>
<path d="M11 16C11 15.4477 11.4477 15 12 15H12.01C12.5623 15 13.01 15.4477 13.01 16C13.01 16.5523 12.5623 17 12.01 17H12C11.4477 17 11 16.5523 11 16Z" fill="black"/>
</svg>
