<svg width="24" height="24" viewBox="0 0 24 24" fill="none" xmlns="http://www.w3.org/2000/svg">
<path opacity="0.3" d="M12.6179 1.51219C12.2162 1.38168 11.7835 1.38168 11.3818 1.51219C11.0921 1.60633 10.8702 1.7659 10.6954 1.91433C10.5361 2.04949 10.3624 2.22331 10.1839 2.40178L8.76137 3.82436C8.66874 3.91699 8.62234 3.96305 8.58722 3.9951L8.58457 3.99751L8.58098 3.99768C8.53349 3.99985 8.46811 4.00009 8.33711 4.00009L6.56795 4.00009C6.31557 4.00006 6.06978 4.00003 5.86162 4.01704C5.63303 4.03572 5.36329 4.07978 5.09187 4.21808C4.71554 4.40983 4.40958 4.71579 4.21784 5.09211C4.07954 5.36354 4.03547 5.63327 4.01679 5.86186C3.99979 6.07001 3.99982 6.3158 3.99985 6.56817L3.99985 8.33735C3.99985 8.46835 3.99961 8.53373 3.99744 8.58122L3.99727 8.58481L3.99485 8.58747C3.96281 8.62258 3.91674 8.66898 3.82411 8.76162L2.40155 10.1842C2.22307 10.3626 2.04925 10.5364 1.91409 10.6956C1.76565 10.8705 1.60608 11.0923 1.51195 11.3821C1.38143 11.7837 1.38143 12.2164 1.51195 12.6181C1.60608 12.9078 1.76565 13.1297 1.91409 13.3046C2.04925 13.4638 2.22307 13.6376 2.40155 13.816L3.82411 15.2386C3.91674 15.3312 3.96281 15.3776 3.99485 15.4127L3.99727 15.4154L3.99744 15.419C3.99961 15.4665 3.99985 15.5318 3.99985 15.6628L3.99985 17.432C3.99982 17.6844 3.99979 17.9302 4.01679 18.1383C4.03547 18.3669 4.07954 18.6367 4.21784 18.9081C4.40958 19.2844 4.71554 19.5904 5.09187 19.7821C5.36329 19.9204 5.63303 19.9645 5.86162 19.9831C6.06974 20.0002 6.31548 20.0001 6.56782 20.0001L8.33711 20.0001C8.46811 20.0001 8.53349 20.0003 8.58098 20.0025L8.58456 20.0027L8.58722 20.0051C8.62234 20.0371 8.66874 20.0832 8.76137 20.1758L10.1839 21.5984C10.3624 21.7769 10.5361 21.9507 10.6954 22.0859C10.8702 22.2343 11.0921 22.3939 11.3818 22.488C11.7835 22.6185 12.2162 22.6185 12.6179 22.488C12.9076 22.3939 13.1295 22.2343 13.3043 22.0859C13.4635 21.9507 13.6373 21.7769 13.8157 21.5984L15.2383 20.1758C15.331 20.0832 15.3774 20.0371 15.4125 20.0051L15.4151 20.0027L15.4187 20.0025C15.4662 20.0003 15.5316 20.0001 15.6626 20.0001L17.4318 20.0001C17.6841 20.0001 17.93 20.0002 18.1381 19.9831C18.3667 19.9645 18.6364 19.9204 18.9078 19.7821C19.2842 19.5904 19.5901 19.2844 19.7819 18.9081C19.9202 18.6367 19.9642 18.3669 19.9829 18.1383C19.9999 17.9302 19.9999 17.6845 19.9999 17.4321L19.9998 15.6628C19.9998 15.5318 20.0001 15.4665 20.0023 15.419L20.0024 15.4154L20.0048 15.4127C20.0369 15.3776 20.083 15.3312 20.1756 15.2386L21.5981 13.816C21.7766 13.6376 21.9504 13.4638 22.0856 13.3046C22.234 13.1297 22.3936 12.9078 22.4877 12.6181C22.6183 12.2164 22.6183 11.7837 22.4877 11.3821C22.3936 11.0923 22.234 10.8705 22.0856 10.6956C21.9505 10.5364 21.7766 10.3626 21.5982 10.1842L20.1756 8.76162C20.083 8.66899 20.0369 8.62258 20.0048 8.58747L20.0024 8.58481L20.0023 8.58123C20.0001 8.53373 19.9998 8.46835 19.9998 8.33735L19.9999 6.56818C19.9999 6.31584 19.9999 6.06998 19.9829 5.86186C19.9642 5.63327 19.9202 5.36354 19.7819 5.09211C19.5901 4.71579 19.2842 4.40983 18.9078 4.21808C18.6364 4.07978 18.3667 4.03571 18.1381 4.01704C17.9299 4.00003 17.6841 4.00006 17.4317 4.00009L15.6626 4.00009C15.5316 4.00009 15.4662 3.99985 15.4187 3.99768L15.4151 3.99751L15.4125 3.9951C15.3774 3.96305 15.331 3.91699 15.2383 3.82436L13.8158 2.40181C13.6373 2.22333 13.4636 2.0495 13.3043 1.91433C13.1295 1.7659 12.9076 1.60633 12.6179 1.51219Z" fill="black"/>
<path d="M11.0312 10.0493C11.1422 9.61779 11.5351 9.30005 11.9997 9.30005C12.552 9.30005 12.9997 9.74776 12.9997 10.3C12.9997 10.4732 12.9542 10.6053 12.6803 10.8697C12.5459 10.9994 12.3907 11.1283 12.1861 11.2981L12.0946 11.3741C11.8563 11.5723 11.5768 11.8088 11.2926 12.0929C10.9021 12.4835 10.9021 13.1166 11.2926 13.5072C11.6832 13.8977 12.3163 13.8977 12.7069 13.5072C12.9227 13.2913 13.1432 13.1033 13.3736 12.9117L13.4594 12.8405C13.6568 12.6769 13.8764 12.4949 14.0692 12.3088C14.5452 11.8493 14.9997 11.2314 14.9997 10.3C14.9997 8.64319 13.6566 7.30005 11.9997 7.30005C10.6005 7.30005 9.42728 8.25708 9.0943 9.55079C8.95664 10.0856 9.27863 10.6308 9.81348 10.7685C10.3483 10.9061 10.8935 10.5842 11.0312 10.0493Z" fill="black"/>
<path d="M12 16.8C12.5523 16.8 13 16.3523 13 15.8C13 15.2478 12.5523 14.8 12 14.8C11.4477 14.8 11 15.2478 11 15.8C11 16.3523 11.4477 16.8 12 16.8Z" fill="black"/>
</svg>
