<svg width="24" height="24" viewBox="0 0 24 24" fill="none" xmlns="http://www.w3.org/2000/svg">
<path opacity="0.3" fill-rule="evenodd" clip-rule="evenodd" d="M10.7571 2.41973C11.5468 2.06028 12.4533 2.06028 13.243 2.41973C13.8038 2.67501 14.1973 3.14374 14.5285 3.63383C14.8584 4.12194 15.2195 4.77859 15.6564 5.57285L21.2915 15.8185C21.7009 16.5629 22.0413 17.1817 22.2648 17.6941C22.4911 18.2127 22.6667 18.7685 22.5962 19.357C22.4961 20.1925 22.0496 20.9477 21.3657 21.4381C20.8841 21.7834 20.3124 21.8974 19.749 21.9491C19.1923 22.0001 18.486 22.0001 17.6365 22.0001H6.36358C5.51407 22.0001 4.80778 22.0001 4.25112 21.9491C3.68771 21.8974 3.11601 21.7834 2.63438 21.4381C1.95049 20.9477 1.50402 20.1925 1.4039 19.357C1.33339 18.7685 1.50904 18.2127 1.73529 17.6941C1.95883 17.1817 2.29922 16.5629 2.70864 15.8185L8.34374 5.57287C8.78057 4.7786 9.14171 4.12195 9.47158 3.63383C9.80278 3.14374 10.1963 2.67501 10.7571 2.41973Z" fill="black"/>
<path d="M12.0001 9C12.5523 9 13.0001 9.44772 13.0001 10V14C13.0001 14.5523 12.5523 15 12.0001 15C11.4478 15 11.0001 14.5523 11.0001 14V10C11.0001 9.44772 11.4478 9 12.0001 9Z" fill="black"/>
<path d="M11.0001 17C11.0001 16.4477 11.4478 16 12.0001 16H12.0101C12.5623 16 13.0101 16.4477 13.0101 17C13.0101 17.5523 12.5623 18 12.0101 18H12.0001C11.4478 18 11.0001 17.5523 11.0001 17Z" fill="black"/>
</svg>
