<svg width="24" height="24" viewBox="0 0 24 24" fill="none" xmlns="http://www.w3.org/2000/svg">
<g opacity="0.3">
<path d="M8.96397 5.27302C9.1109 5.8054 8.79844 6.35609 8.26606 6.50303C6.15981 7.08435 4.25153 8.14618 2.66692 9.56444C2.2554 9.93277 1.6232 9.89775 1.25487 9.48622C0.886548 9.07469 0.921569 8.4425 1.3331 8.07417C3.14233 6.45486 5.32353 5.24039 7.73396 4.57511C8.26634 4.42818 8.81703 4.74064 8.96397 5.27302Z" fill="black"/>
<path d="M15.0361 5.27302C15.183 4.74064 15.7337 4.42818 16.2661 4.57511C18.6765 5.24039 20.8577 6.45486 22.6669 8.07417C23.0784 8.4425 23.1135 9.07469 22.7451 9.48622C22.3768 9.89775 21.7446 9.93277 21.3331 9.56444C19.7485 8.14618 17.8402 7.08435 15.734 6.50303C15.2016 6.35609 14.8891 5.8054 15.0361 5.27302Z" fill="black"/>
<path d="M8.91636 10.4316C9.13748 10.9376 8.90647 11.5272 8.40038 11.7483C7.39079 12.1894 6.47699 12.8109 5.70005 13.5725C5.30567 13.9591 4.67253 13.9528 4.28591 13.5584C3.89929 13.1641 3.90558 12.5309 4.29997 12.1443C5.24805 11.2149 6.3643 10.4553 7.59964 9.91557C8.10573 9.69445 8.69524 9.92547 8.91636 10.4316Z" fill="black"/>
<path d="M15.0837 10.4316C15.3048 9.92547 15.8943 9.69445 16.4004 9.91557C17.6357 10.4553 18.752 11.2149 19.7001 12.1443C20.0944 12.5309 20.1007 13.1641 19.7141 13.5584C19.3275 13.9528 18.6944 13.9591 18.3 13.5725C17.523 12.8109 16.6092 12.1894 15.5996 11.7483C15.0935 11.5272 14.8625 10.9376 15.0837 10.4316Z" fill="black"/>
</g>
<path fill-rule="evenodd" clip-rule="evenodd" d="M12 3.5C12.5523 3.5 13 3.94772 13 4.5V15.5001C13 16.0524 12.5523 16.5001 12 16.5001C11.4477 16.5001 11 16.0524 11 15.5001V4.5C11 3.94772 11.4477 3.5 12 3.5ZM11 19.4999C11 18.9477 11.4477 18.4999 12 18.4999H12.01C12.5623 18.4999 13.01 18.9477 13.01 19.4999C13.01 20.0522 12.5623 20.4999 12.01 20.4999H12C11.4477 20.4999 11 20.0522 11 19.4999Z" fill="black"/>
</svg>
