<svg width="24" height="24" viewBox="0 0 24 24" fill="none" xmlns="http://www.w3.org/2000/svg">
<g opacity="0.14">
<path d="M11 17C15.4183 17 19 13.4183 19 9H11H3C3 13.4183 6.58172 17 11 17Z" fill="black"/>
<path d="M5.70835 3C4.04751 4.46589 3 6.61061 3 9H11L5.70835 3Z" fill="black"/>
<path d="M6 20C6 20.5523 5.55228 21 5 21C4.44772 21 4 20.5523 4 20C4 19.4477 4.44772 19 5 19C5.55228 19 6 19.4477 6 20Z" fill="black"/>
</g>
<path d="M19 6V5C18.4477 5 18 5.44772 18 6H19ZM21 7C21.5523 7 22 6.55228 22 6C22 5.44772 21.5523 5 21 5V7ZM5.70835 3L6.45834 2.33855C6.28287 2.13959 6.03554 2.01851 5.77077 2.00195C5.50601 1.98539 5.24551 2.07471 5.04662 2.25026L5.70835 3ZM10.25 9.66145C10.6153 10.0757 11.2472 10.1153 11.6614 9.74999C12.0757 9.38468 12.1153 8.75276 11.75 8.33855L10.25 9.66145ZM18 9C18 12.866 14.866 16 11 16V18C15.9706 18 20 13.9706 20 9H18ZM11 16C7.13401 16 4 12.866 4 9H2C2 13.9706 6.02944 18 11 18V16ZM20 9V6H18V9H20ZM19 7H21V5H19V7ZM4 9C4 6.90943 4.91519 5.03386 6.37008 3.74974L5.04662 2.25026C3.17983 3.89792 2 6.3118 2 9H4ZM4.95836 3.66145L10.25 9.66145L11.75 8.33855L6.45834 2.33855L4.95836 3.66145ZM19 8H3V10H19V8ZM5 20V22C6.10457 22 7 21.1046 7 20H5ZM5 20H3C3 21.1046 3.89543 22 5 22V20ZM5 20V18C3.89543 18 3 18.8954 3 20H5ZM5 20H7C7 18.8954 6.10457 18 5 18V20ZM17 20V22C18.1046 22 19 21.1046 19 20H17ZM17 20H15C15 21.1046 15.8954 22 17 22V20ZM17 20V18C15.8954 18 15 18.8954 15 20H17ZM17 20H19C19 18.8954 18.1046 18 17 18V20Z" fill="black"/>
</svg>
