<svg width="24" height="24" viewBox="0 0 24 24" fill="none" xmlns="http://www.w3.org/2000/svg">
<g opacity="0.14">
<path d="M5 14H14C14.3506 14 14.6872 14.0602 15 14.1707V12C15 10.8954 14.1046 10 13 10H10H3V14.7639C3.53076 14.2889 4.23165 14 5 14Z" fill="black"/>
<path d="M14 14H5C4.23165 14 3.53076 14.2889 3 14.7639C2.38625 15.3132 2 16.1115 2 17C2 18.6569 3.34315 20 5 20H14C15.6569 20 17 18.6569 17 17C17 15.6938 16.1652 14.5825 15 14.1707C14.6872 14.0602 14.3506 14 14 14Z" fill="black"/>
</g>
<path d="M21.168 20.0547C21.4743 20.5142 22.0952 20.6384 22.5547 20.332C23.0142 20.0257 23.1384 19.4048 22.832 18.9453L21.168 20.0547ZM20.3359 17.0039L21.168 16.4491L20.3359 17.0039ZM20.3359 10.9962L21.1679 11.5509L20.3359 10.9962ZM22.8321 9.0547C23.1384 8.59517 23.0142 7.9743 22.5547 7.66795C22.0952 7.3616 21.4743 7.48577 21.1679 7.9453L22.8321 9.0547ZM20 15C20.5523 15 21 14.5523 21 14C21 13.4477 20.5523 13 20 13V15ZM16 13C15.4477 13 15 13.4477 15 14C15 14.5523 15.4477 15 16 15V13ZM2 14.7639C2 15.3162 2.44772 15.7639 3 15.7639C3.55228 15.7639 4 15.3162 4 14.7639H2ZM14 14.1707C14 14.723 14.4477 15.1707 15 15.1707C15.5523 15.1707 16 14.723 16 14.1707H14ZM3 4V3C2.44772 3 2 3.44772 2 4H3ZM8.45585 5.36754L9.40453 5.05132V5.05132L8.45585 5.36754ZM9.05132 10.3162C9.22596 10.8402 9.79228 11.1233 10.3162 10.9487C10.8402 10.774 11.1233 10.2077 10.9487 9.68377L9.05132 10.3162ZM14 7C14 6.44772 13.5523 6 13 6C12.4477 6 12 6.44772 12 7H14ZM5.5 16C4.94772 16 4.5 16.4477 4.5 17C4.5 17.5523 4.94772 18 5.5 18V16ZM5.509 18C6.06128 18 6.509 17.5523 6.509 17C6.509 16.4477 6.06128 16 5.509 16V18ZM9.5 16C8.94772 16 8.5 16.4477 8.5 17C8.5 17.5523 8.94772 18 9.5 18V16ZM9.509 18C10.0613 18 10.509 17.5523 10.509 17C10.509 16.4477 10.0613 16 9.509 16V18ZM13.5 16C12.9477 16 12.5 16.4477 12.5 17C12.5 17.5523 12.9477 18 13.5 18V16ZM13.509 18C14.0613 18 14.509 17.5523 14.509 17C14.509 16.4477 14.0613 16 13.509 16V18ZM22.832 18.9453L21.168 16.4491L19.5039 17.5586L21.168 20.0547L22.832 18.9453ZM21 15.8944V12.1056H19V15.8944H21ZM21.1679 11.5509L22.8321 9.0547L21.1679 7.9453L19.5038 10.4415L21.1679 11.5509ZM21 12.1056C21 11.9081 21.0584 11.7151 21.1679 11.5509L19.5038 10.4415C19.1753 10.9343 19 11.5133 19 12.1056H21ZM21.168 16.4491C21.0584 16.2849 21 16.0919 21 15.8944H19C19 16.4867 19.1753 17.0657 19.5039 17.5586L21.168 16.4491ZM20 13H16V15H20V13ZM5 15H14V13H5V15ZM14 19H5V21H14V19ZM5 19C3.89543 19 3 18.1046 3 17H1C1 19.2091 2.79086 21 5 21V19ZM16 17C16 18.1046 15.1046 19 14 19V21C16.2091 21 18 19.2091 18 17H16ZM14 15C15.1046 15 16 15.8954 16 17H18C18 14.7909 16.2091 13 14 13V15ZM5 13C2.79086 13 1 14.7909 1 17H3C3 15.8954 3.89543 15 5 15V13ZM4 14.7639V10H2V14.7639H4ZM3 11H13V9H3V11ZM14 12V14.1707H16V12H14ZM13 11C13.5523 11 14 11.4477 14 12H16C16 10.3431 14.6569 9 13 9V11ZM4 10V4H2V10H4ZM3 5H6.55848V3H3V5ZM7.50716 5.68377L9.05132 10.3162L10.9487 9.68377L9.40453 5.05132L7.50716 5.68377ZM6.55848 5C6.98891 5 7.37105 5.27543 7.50716 5.68377L9.40453 5.05132C8.99619 3.82629 7.84977 3 6.55848 3V5ZM14 10V7H12V10H14ZM5.5 18H5.509V16H5.5V18ZM9.5 18H9.509V16H9.5V18ZM13.5 18H13.509V16H13.5V18Z" fill="black"/>
</svg>
