<svg width="24" height="24" viewBox="0 0 24 24" fill="none" xmlns="http://www.w3.org/2000/svg">
<path d="M7 22H17C18.6569 22 20 20.6569 20 19V16.75H15H9H4V19C4 20.6569 5.34315 22 7 22Z" fill="#D9D9D9"/>
<path d="M4 16.75V15.75H3V16.75H4ZM20 16.75H21V15.75H20V16.75ZM17 21H7V23H17V21ZM5 19V16.75H3V19H5ZM19 16.75V19H21V16.75H19ZM7 21C5.89543 21 5 20.1046 5 19H3C3 21.2091 4.79086 23 7 23V21ZM17 23C19.2091 23 21 21.2091 21 19H19C19 20.1046 18.1046 21 17 21V23ZM4 17.75H9V15.75H4V17.75ZM9 17.75H15V15.75H9V17.75ZM15 17.75H20V15.75H15V17.75Z" fill="black"/>
<path d="M11 11.5C11 12.0523 11.4477 12.5 12 12.5C12.5523 12.5 13 12.0523 13 11.5H11ZM13 5.5C13 4.94772 12.5523 4.5 12 4.5C11.4477 4.5 11 4.94772 11 5.5H13ZM2.63755 8.068C2.12282 8.26817 1.86782 8.84771 2.068 9.36245C2.26817 9.87718 2.84771 10.1322 3.36245 9.932L2.63755 8.068ZM21.3624 2.932C21.8772 2.73183 22.1322 2.15229 21.932 1.63755C21.7318 1.12282 21.1523 0.867822 20.6376 1.068L21.3624 2.932ZM9 2.5C8.44772 2.5 8 2.94772 8 3.5C8 4.05228 8.44772 4.5 9 4.5V2.5ZM9.009 4.5C9.56128 4.5 10.009 4.05228 10.009 3.5C10.009 2.94772 9.56128 2.5 9.009 2.5V4.5ZM13 1C12.4477 1 12 1.44772 12 2C12 2.55228 12.4477 3 13 3V1ZM13.009 3C13.5613 3 14.009 2.55228 14.009 2C14.009 1.44772 13.5613 1 13.009 1V3ZM7 12.5H17V10.5H7V12.5ZM17 21H7V23H17V21ZM5 19V16.75H3V19H5ZM5 16.75V14.5H3V16.75H5ZM19 14.5V16.75H21V14.5H19ZM19 16.75V19H21V16.75H19ZM7 21C5.89543 21 5 20.1046 5 19H3C3 21.2091 4.79086 23 7 23V21ZM17 23C19.2091 23 21 21.2091 21 19H19C19 20.1046 18.1046 21 17 21V23ZM17 12.5C18.1046 12.5 19 13.3954 19 14.5H21C21 12.2909 19.2091 10.5 17 10.5V12.5ZM7 10.5C4.79086 10.5 3 12.2909 3 14.5H5C5 13.3954 5.89543 12.5 7 12.5V10.5ZM4 17.75H9V15.75H4V17.75ZM9 17.75H15V15.75H9V17.75ZM15 17.75H20V15.75H15V17.75ZM16 16.75V11.5H14V16.75H16ZM10 16.75V11.5H8V16.75H10ZM13 11.5V5.5H11V11.5H13ZM3.36245 9.932L21.3624 2.932L20.6376 1.068L2.63755 8.068L3.36245 9.932ZM9 4.5H9.009V2.5H9V4.5ZM13 3H13.009V1H13V3Z" fill="black"/>
</svg>
