<svg width="24" height="24" viewBox="0 0 24 24" fill="none" xmlns="http://www.w3.org/2000/svg">
<g opacity="0.14">
<path d="M8 17H16C16 15.8954 16.8954 15 18 15C18.8282 15 19.5389 15.5034 19.8426 16.221C20.0148 16.6279 20.3582 17 20.8 17C20.9858 17 21.0787 17 21.1564 16.9877C21.5843 16.9199 21.9199 16.5843 21.9877 16.1564C22 16.0787 22 15.9858 22 15.8C22 15.0568 22 14.6852 21.9508 14.3743C21.7663 13.2096 21.0858 12.216 20.1306 11.6144C19.5546 11.2517 18.9688 10.8707 18.5855 10.3082L16.425 7.13744C15.904 6.35597 15.6435 5.96523 15.2993 5.68236C14.9946 5.43194 14.6436 5.24406 14.2662 5.12945C13.8399 5 13.3703 5 12.4311 5H9.06621C7.6216 5 6.8993 5 6.31346 5.26281C5.79705 5.49447 5.35671 5.8675 5.0433 6.3388C4.68776 6.87345 4.56901 7.58593 4.33152 9.01088L4.15247 10.0955C4.06327 10.6359 3.58004 10.9693 3.09202 11.218C2.71569 11.4097 2.40973 11.7157 2.21799 12.092C2 12.5198 2 13.0799 2 14.2V15.4C2 15.9601 2 16.2401 2.10899 16.454C2.20487 16.6422 2.35785 16.7951 2.54601 16.891C2.75992 17 3.03995 17 3.6 17C3.82091 17 3.99583 16.8191 4.03949 16.6026C4.22381 15.6884 5.03151 15 6 15C7.10457 15 8 15.8954 8 17Z" fill="black"/>
<path d="M8 17H7C7 17.5523 7.44772 18 8 18V17ZM16 17V18C16.5523 18 17 17.5523 17 17H16ZM4.33152 9.01088L3.34512 8.84649L3.34487 8.84801L4.33152 9.01088ZM16.425 7.13744L15.5929 7.69217L15.5986 7.70054L16.425 7.13744ZM14.2662 5.12945L13.9756 6.0863H13.9756L14.2662 5.12945ZM15.2993 5.68236L14.6644 6.45491L14.6644 6.45491L15.2993 5.68236ZM5.0433 6.3388L4.21061 5.78506L4.21061 5.78506L5.0433 6.3388ZM6.31346 5.26281L6.72277 6.17521V6.17521L6.31346 5.26281ZM2.10899 16.454L3 16L3 16L2.10899 16.454ZM2.54601 16.891L3 16H3L2.54601 16.891ZM21.1564 16.9877L21.3129 17.9754L21.3129 17.9754L21.1564 16.9877ZM21.9877 16.1564L21 16V16L21.9877 16.1564ZM21.9508 14.3743L22.9384 14.2178V14.2178L21.9508 14.3743ZM2.21799 12.092L1.32698 11.638H1.32698L2.21799 12.092ZM4.03949 16.6026L3.05922 16.4049L4.03949 16.6026ZM19.8426 16.221L18.9217 16.6108L19.8426 16.221ZM18.5855 10.3082L17.7591 10.8713L18.5855 10.3082ZM4.15247 10.0955L3.16582 9.93266L4.15247 10.0955ZM8 18H16V16H8V18ZM3.34487 8.84801L3.16582 9.93266L5.13912 10.2584L5.31817 9.17375L3.34487 8.84801ZM9.06621 6H12.4311V4H9.06621V6ZM15.5986 7.70054L17.7591 10.8713L19.4119 9.74505L17.2513 6.57433L15.5986 7.70054ZM12.4311 6C13.4326 6 13.725 6.01019 13.9756 6.0863L14.5568 4.1726C13.9549 3.98981 13.3081 4 12.4311 4V6ZM17.257 6.58274C16.7706 5.85308 16.4202 5.30923 15.9343 4.90982L14.6644 6.45491C14.8667 6.62123 15.0374 6.85886 15.5929 7.69214L17.257 6.58274ZM13.9756 6.0863C14.2272 6.1627 14.4612 6.28796 14.6644 6.45491L15.9343 4.90982C15.528 4.57592 15.0599 4.32541 14.5568 4.1726L13.9756 6.0863ZM5.31791 9.17528C5.43913 8.44798 5.5216 7.95716 5.61433 7.5793C5.70406 7.21364 5.78751 7.02559 5.876 6.89253L4.21061 5.78506C3.94355 6.18666 3.78986 6.62218 3.67195 7.10266C3.55705 7.57094 3.4614 8.14884 3.34513 8.84649L5.31791 9.17528ZM9.06621 4C8.35894 4 7.77318 3.99934 7.29238 4.0357C6.79905 4.07301 6.34419 4.15301 5.90415 4.35041L6.72277 6.17521C6.86856 6.1098 7.06777 6.0584 7.44321 6.03C7.83118 6.00066 8.32887 6 9.06621 6V4ZM5.876 6.89253C6.08494 6.57833 6.37849 6.32965 6.72277 6.17521L5.90415 4.35041C5.21561 4.6593 4.62849 5.15666 4.21061 5.78506L5.876 6.89253ZM3 15.4V14.2H1V15.4H3ZM1 15.4C1 15.6635 0.999222 15.9213 1.01695 16.1382C1.03562 16.3668 1.07969 16.6366 1.21799 16.908L3 16C3.0293 16.0575 3.01887 16.0803 3.0103 15.9754C3.00078 15.8588 3 15.6965 3 15.4H1ZM3.6 16C3.30347 16 3.14122 15.9992 3.02463 15.9897C2.91972 15.9811 2.94249 15.9707 3 16L2.09202 17.782C2.36344 17.9203 2.63318 17.9644 2.86177 17.9831C3.07869 18.0008 3.33647 18 3.6 18V16ZM1.21799 16.908C1.40973 17.2843 1.7157 17.5903 2.09202 17.782L3 16L3 16L1.21799 16.908ZM20.8 18C20.9476 18 21.1378 18.0031 21.3129 17.9754L21 16C21.0219 15.9965 21.0276 15.9978 20.9914 15.9988C20.9521 15.9999 20.8983 16 20.8 16V18ZM21 15.8C21 15.8983 20.9999 15.9521 20.9988 15.9914C20.9978 16.0276 20.9965 16.0219 21 16L22.9754 16.3129C23.0031 16.1378 23 15.9476 23 15.8H21ZM21.3129 17.9754C22.1687 17.8398 22.8398 17.1687 22.9754 16.3129L21 16L21.3129 17.9754ZM23 15.8C23 15.095 23.0031 14.6261 22.9384 14.2178L20.9631 14.5307C20.9969 14.7443 21 15.0186 21 15.8H23ZM3 14.2C3 13.6234 3.00078 13.2512 3.02393 12.9678C3.04612 12.6962 3.0838 12.5955 3.10899 12.546L1.32698 11.638C1.13419 12.0164 1.06287 12.4096 1.03057 12.805C0.999222 13.1886 1 13.6564 1 14.2H3ZM3.10899 12.546C3.20487 12.3578 3.35785 12.2049 3.54601 12.109L2.63803 10.327C2.07354 10.6146 1.6146 11.0735 1.32698 11.638L3.10899 12.546ZM5.01976 16.8002C5.11184 16.3436 5.51691 16 6 16V14C4.54612 14 3.33579 15.0332 3.05922 16.4049L5.01976 16.8002ZM6 16C6.55228 16 7 16.4477 7 17H9C9 15.3431 7.65685 14 6 14V16ZM17 17C17 16.4477 17.4477 16 18 16V14C16.3431 14 15 15.3431 15 17H17ZM18 16C18.4126 16 18.769 16.25 18.9217 16.6108L20.7635 15.8312C20.3088 14.7569 19.2439 14 18 14V16ZM22.9384 14.2178C22.7078 12.7617 21.8567 11.5197 20.6634 10.7682L19.5977 12.4606C20.3149 12.9123 20.8248 13.6576 20.9631 14.5307L22.9384 14.2178ZM3.6 18C4.41118 18 4.90656 17.3616 5.01976 16.8002L3.05922 16.4049C3.07671 16.3182 3.12082 16.2296 3.2008 16.1543C3.2857 16.0744 3.42479 16 3.6 16V18ZM20.8 16C20.8332 16 20.8615 16.0076 20.8795 16.0152C20.8953 16.0219 20.8955 16.0253 20.8829 16.0142C20.8702 16.003 20.8501 15.9817 20.8268 15.9479C20.8038 15.9144 20.7818 15.8745 20.7635 15.8312L18.9217 16.6108C19.1549 17.1616 19.7579 18 20.8 18V16ZM17.7591 10.8713C18.277 11.6312 19.044 12.112 19.5977 12.4606L20.6634 10.7682C20.0651 10.3914 19.6606 10.1101 19.4119 9.74505L17.7591 10.8713ZM3.16582 9.93266C3.16504 9.93744 3.1637 9.94356 3.15617 9.95634C3.14726 9.97146 3.12734 9.99938 3.08569 10.0387C2.99501 10.1242 2.85059 10.2187 2.63803 10.327L3.54601 12.109C4.03082 11.862 4.9619 11.332 5.13912 10.2584L3.16582 9.93266Z" fill="black"/>
</g>
<path d="M4.33152 9.01088L5.31791 9.17528L4.33152 9.01088ZM3.01361 10.8356C2.92281 11.3804 3.29083 11.8956 3.8356 11.9864C4.38037 12.0772 4.8956 11.7092 4.98639 11.1644L3.01361 10.8356ZM16.425 7.13744L15.5929 7.69214L16.425 7.13744ZM18.1679 11.5547C18.4743 12.0142 19.0952 12.1384 19.5547 11.8321C20.0142 11.5257 20.1384 10.9048 19.8321 10.4453L18.1679 11.5547ZM14.2662 5.12945L13.9756 6.0863H13.9756L14.2662 5.12945ZM15.2993 5.68236L14.6644 6.45491L14.6644 6.45491L15.2993 5.68236ZM5.0433 6.3388L4.21061 5.78506L4.21061 5.78506L5.0433 6.3388ZM6.31346 5.26281L6.72277 6.17521V6.17521L6.31346 5.26281ZM7 12C7.55228 12 8 11.5523 8 11C8 10.4477 7.55228 10 7 10V12ZM16 10C15.4477 10 15 10.4477 15 11C15 11.5523 15.4477 12 16 12V10ZM2.10899 16.454L3 16L3 16L2.10899 16.454ZM2.54601 16.891L3 16H3L2.54601 16.891ZM21.1564 16.9877L21.3129 17.9754L21.3129 17.9754L21.1564 16.9877ZM21.9877 16.1564L21 16V16L21.9877 16.1564ZM21.9508 14.3743L22.9384 14.2178V14.2178L21.9508 14.3743ZM18.6257 11.0492L18.7822 10.0616H18.7822L18.6257 11.0492ZM2.21799 12.092L1.32698 11.638H1.32698L2.21799 12.092ZM3.09202 11.218L2.63803 10.327H2.63803L3.09202 11.218ZM13.3321 8.5547C13.6384 8.09517 13.5142 7.4743 13.0547 7.16795C12.5952 6.8616 11.9743 6.98577 11.6679 7.4453L13.3321 8.5547ZM10.5 11L9.66795 10.4453C9.46338 10.7522 9.44431 11.1467 9.61833 11.4719C9.79234 11.797 10.1312 12 10.5 12V11ZM13.5 11L14.3321 11.5547C14.5366 11.2478 14.5557 10.8533 14.3817 10.5281C14.2077 10.203 13.8688 10 13.5 10V11ZM10.6679 13.4453C10.3616 13.9048 10.4858 14.5257 10.9453 14.8321C11.4048 15.1384 12.0257 15.0142 12.3321 14.5547L10.6679 13.4453ZM8 18H16V16H8V18ZM3.34513 8.84649L3.01361 10.8356L4.98639 11.1644L5.31791 9.17528L3.34513 8.84649ZM9.06621 6H12.4311V4H9.06621V6ZM15.5929 7.69214L18.1679 11.5547L19.8321 10.4453L17.257 6.58274L15.5929 7.69214ZM12.4311 6C13.4326 6 13.725 6.01019 13.9756 6.0863L14.5568 4.1726C13.9549 3.98981 13.3081 4 12.4311 4V6ZM17.257 6.58274C16.7706 5.85308 16.4202 5.30923 15.9343 4.90982L14.6644 6.45491C14.8667 6.62123 15.0374 6.85886 15.5929 7.69214L17.257 6.58274ZM13.9756 6.0863C14.2272 6.1627 14.4612 6.28796 14.6644 6.45491L15.9343 4.90982C15.528 4.57592 15.0599 4.32541 14.5568 4.1726L13.9756 6.0863ZM5.31791 9.17528C5.43913 8.44798 5.5216 7.95716 5.61433 7.5793C5.70406 7.21364 5.78751 7.02559 5.876 6.89253L4.21061 5.78506C3.94355 6.18666 3.78986 6.62218 3.67195 7.10266C3.55705 7.57094 3.4614 8.14884 3.34513 8.84649L5.31791 9.17528ZM9.06621 4C8.35894 4 7.77318 3.99934 7.29238 4.0357C6.79905 4.07301 6.34419 4.15301 5.90415 4.35041L6.72277 6.17521C6.86856 6.1098 7.06777 6.0584 7.44321 6.03C7.83118 6.00066 8.32887 6 9.06621 6V4ZM5.876 6.89253C6.08494 6.57833 6.37849 6.32965 6.72277 6.17521L5.90415 4.35041C5.21561 4.6593 4.62849 5.15666 4.21061 5.78506L5.876 6.89253ZM3 15.4V14.2H1V15.4H3ZM4 16H3.6V18H4V16ZM20.8 16H20V18H20.8V16ZM5.2 12H7V10H5.2V12ZM16 12H17.2V10H16V12ZM1 15.4C1 15.6635 0.999222 15.9213 1.01695 16.1382C1.03562 16.3668 1.07969 16.6366 1.21799 16.908L3 16C3.0293 16.0575 3.01887 16.0803 3.0103 15.9754C3.00078 15.8588 3 15.6965 3 15.4H1ZM3.6 16C3.30347 16 3.14122 15.9992 3.02463 15.9897C2.91972 15.9811 2.94249 15.9707 3 16L2.09202 17.782C2.36344 17.9203 2.63318 17.9644 2.86177 17.9831C3.07869 18.0008 3.33647 18 3.6 18V16ZM1.21799 16.908C1.40973 17.2843 1.7157 17.5903 2.09202 17.782L3 16L3 16L1.21799 16.908ZM20.8 18C20.9476 18 21.1378 18.0031 21.3129 17.9754L21 16C21.0219 15.9965 21.0276 15.9978 20.9914 15.9988C20.9521 15.9999 20.8983 16 20.8 16V18ZM21 15.8C21 15.8983 20.9999 15.9521 20.9988 15.9914C20.9978 16.0276 20.9965 16.0219 21 16L22.9754 16.3129C23.0031 16.1378 23 15.9476 23 15.8H21ZM21.3129 17.9754C22.1687 17.8398 22.8398 17.1687 22.9754 16.3129L21 16L21.3129 17.9754ZM23 15.8C23 15.095 23.0031 14.6261 22.9384 14.2178L20.9631 14.5307C20.9969 14.7443 21 15.0186 21 15.8H23ZM17.2 12C17.9814 12 18.2557 12.0031 18.4693 12.0369L18.7822 10.0616C18.3739 9.9969 17.905 10 17.2 10V12ZM22.9384 14.2178C22.5996 12.0784 20.9216 10.4004 18.7822 10.0616L18.4693 12.0369C19.753 12.2402 20.7598 13.247 20.9631 14.5307L22.9384 14.2178ZM3 14.2C3 13.6234 3.00078 13.2512 3.02393 12.9678C3.04612 12.6962 3.0838 12.5955 3.10899 12.546L1.32698 11.638C1.13419 12.0164 1.06287 12.4096 1.03057 12.805C0.999222 13.1886 1 13.6564 1 14.2H3ZM5.2 10C4.65645 10 4.18864 9.99922 3.80497 10.0306C3.40963 10.0629 3.01641 10.1342 2.63803 10.327L3.54601 12.109C3.59545 12.0838 3.69617 12.0461 3.96784 12.0239C4.25117 12.0008 4.62345 12 5.2 12V10ZM3.10899 12.546C3.20487 12.3578 3.35785 12.2049 3.54601 12.109L2.63803 10.327C2.07354 10.6146 1.6146 11.0735 1.32698 11.638L3.10899 12.546ZM7 17C7 17.5523 6.55228 18 6 18V20C7.65685 20 9 18.6569 9 17H7ZM6 18C5.44772 18 5 17.5523 5 17H3C3 18.6569 4.34315 20 6 20V18ZM5 17C5 16.4477 5.44772 16 6 16V14C4.34315 14 3 15.3431 3 17H5ZM6 16C6.55228 16 7 16.4477 7 17H9C9 15.3431 7.65685 14 6 14V16ZM19 17C19 17.5523 18.5523 18 18 18V20C19.6569 20 21 18.6569 21 17H19ZM18 18C17.4477 18 17 17.5523 17 17H15C15 18.6569 16.3431 20 18 20V18ZM17 17C17 16.4477 17.4477 16 18 16V14C16.3431 14 15 15.3431 15 17H17ZM18 16C18.5523 16 19 16.4477 19 17H21C21 15.3431 19.6569 14 18 14V16ZM11.6679 7.4453L9.66795 10.4453L11.3321 11.5547L13.3321 8.5547L11.6679 7.4453ZM10.5 12H13.5V10H10.5V12ZM12.6679 10.4453L10.6679 13.4453L12.3321 14.5547L14.3321 11.5547L12.6679 10.4453Z" fill="black"/>
</svg>
