<svg width="24" height="24" viewBox="0 0 24 24" fill="none" xmlns="http://www.w3.org/2000/svg">
<path opacity="0.14" d="M15.143 4.5H8.85703C8.18068 4.5 7.84251 4.5 7.54007 4.59871C7.27249 4.68605 7.02635 4.82889 6.81776 5.01789C6.582 5.2315 6.41422 5.52512 6.07865 6.11236L3.84324 10.0243C3.5292 10.5739 3.37217 10.8487 3.26123 11.1404C3.16272 11.3995 3.0914 11.668 3.04841 11.9418C3 12.2501 3 12.5666 3 13.1996V18C3 18.4659 3 18.6989 3.07612 18.8827C3.17761 19.1277 3.37229 19.3224 3.61732 19.4239C3.80109 19.5 4.03406 19.5 4.5 19.5C4.96594 19.5 5.19891 19.5 5.38268 19.4239C5.62771 19.3224 5.82239 19.1277 5.92388 18.8827C6 18.6989 6 18.4659 6 18V17.5H18V18C18 18.4659 18 18.6989 18.0761 18.8827C18.1776 19.1277 18.3723 19.3224 18.6173 19.4239C18.8011 19.5 19.0341 19.5 19.5 19.5C19.9659 19.5 20.1989 19.5 20.3827 19.4239C20.6277 19.3224 20.8224 19.1277 20.9239 18.8827C21 18.6989 21 18.4659 21 18V13.1996C21 12.5666 21 12.2501 20.9516 11.9418C20.9086 11.668 20.8373 11.3995 20.7388 11.1404C20.6278 10.8487 20.4708 10.5739 20.1568 10.0243L20.1568 10.0243L17.9213 6.11236C17.5858 5.52512 17.418 5.2315 17.1822 5.01789C16.9737 4.82889 16.7275 4.68605 16.4599 4.59871C16.1575 4.5 15.8193 4.5 15.143 4.5Z" fill="black"/>
<path d="M17.9213 6.11236L17.0531 6.60849V6.60849L17.9213 6.11236ZM20.1568 10.0243L21.025 9.52818L21.025 9.52818L20.1568 10.0243ZM18 17.5H19C19 16.9477 18.5523 16.5 18 16.5V17.5ZM6 17.5V16.5C5.44772 16.5 5 16.9477 5 17.5H6ZM3.84324 10.0243L4.71149 10.5205H4.71149L3.84324 10.0243ZM6.07865 6.11236L6.9469 6.60849V6.60849L6.07865 6.11236ZM3.04841 11.9418L4.03631 12.0969H4.03631L3.04841 11.9418ZM3.26123 11.1404L4.19592 11.4959L3.26123 11.1404ZM3.61732 19.4239L3.23463 20.3478H3.23463L3.61732 19.4239ZM3.07612 18.8827L2.15224 19.2654H2.15224L3.07612 18.8827ZM5.92388 18.8827L6.84776 19.2654L6.84776 19.2654L5.92388 18.8827ZM5.38268 19.4239L5.76537 20.3478L5.38268 19.4239ZM18.6173 19.4239L18.2346 20.3478H18.2346L18.6173 19.4239ZM18.0761 18.8827L17.1522 19.2654V19.2654L18.0761 18.8827ZM20.9239 18.8827L21.8478 19.2654V19.2654L20.9239 18.8827ZM20.3827 19.4239L20 18.5L20 18.5L20.3827 19.4239ZM20.7388 11.1404L19.8041 11.4959L19.8041 11.4959L20.7388 11.1404ZM20.9516 11.9418L19.9637 12.0969V12.0969L20.9516 11.9418ZM16.4599 4.59871L16.1496 5.54936L16.1496 5.54936L16.4599 4.59871ZM17.1822 5.01789L17.8537 4.27683L17.8537 4.27683L17.1822 5.01789ZM7.54007 4.59871L7.22978 3.64807L7.22978 3.64807L7.54007 4.59871ZM6.81776 5.01789L7.4892 5.75894V5.75894L6.81776 5.01789ZM3.64018 7.23178C3.21591 6.87821 2.58534 6.93554 2.23178 7.35982C1.87821 7.78409 1.93554 8.41466 2.35982 8.76822L3.64018 7.23178ZM5.55499 10.1292L6.19517 9.36093L6.19517 9.36093L5.55499 10.1292ZM18.445 10.1292L17.8048 9.36093L17.8048 9.36093L18.445 10.1292ZM21.6402 8.76822C22.0645 8.41466 22.1218 7.78409 21.7682 7.35982C21.4147 6.93554 20.7841 6.87821 20.3598 7.23178L21.6402 8.76822ZM7 11.5C7.55228 11.5 8 11.0523 8 10.5C8 9.94772 7.55228 9.5 7 9.5V11.5ZM17 9.5C16.4477 9.5 16 9.94772 16 10.5C16 11.0523 16.4477 11.5 17 11.5V9.5ZM18.1053 10.3841L17.6379 9.5L17.6379 9.5L18.1053 10.3841ZM17.8449 10.4784L18.0518 11.4567L17.8449 10.4784ZM5.89468 10.3841L6.36205 9.5H6.36205L5.89468 10.3841ZM6.15513 10.4784L5.94822 11.4567H5.94822L6.15513 10.4784ZM6.5 13C5.94772 13 5.5 13.4477 5.5 14C5.5 14.5523 5.94772 15 6.5 15V13ZM6.51 15C7.06229 15 7.51 14.5523 7.51 14C7.51 13.4477 7.06229 13 6.51 13V15ZM17.5 13C16.9477 13 16.5 13.4477 16.5 14C16.5 14.5523 16.9477 15 17.5 15V13ZM17.51 15C18.0623 15 18.51 14.5523 18.51 14C18.51 13.4477 18.0623 13 17.51 13V15ZM13.3321 8.5547C13.6384 8.09517 13.5142 7.4743 13.0547 7.16795C12.5952 6.8616 11.9743 6.98577 11.6679 7.4453L13.3321 8.5547ZM10.5 11L9.66795 10.4453C9.46338 10.7522 9.44431 11.1467 9.61833 11.4719C9.79234 11.797 10.1312 12 10.5 12V11ZM13.5 11L14.3321 11.5547C14.5366 11.2478 14.5557 10.8533 14.3817 10.5281C14.2077 10.203 13.8688 10 13.5 10V11ZM10.6679 13.4453C10.3616 13.9048 10.4858 14.5257 10.9453 14.8321C11.4048 15.1384 12.0257 15.0142 12.3321 14.5547L10.6679 13.4453ZM8.85703 5.5H15.143V3.5H8.85703V5.5ZM17.0531 6.60849L19.2885 10.5205L21.025 9.52818L18.7896 5.61622L17.0531 6.60849ZM20 13.1996V18H22V13.1996H20ZM19 18V17.5H17V18H19ZM18 16.5H6V18.5H18V16.5ZM5 17.5V18H7V17.5H5ZM4 18V13.1996H2V18H4ZM4.71149 10.5205L6.9469 6.60849L5.21041 5.61622L2.975 9.52818L4.71149 10.5205ZM4 13.1996C4 12.5365 4.00277 12.3105 4.03631 12.0969L2.06052 11.7867C1.99723 12.1898 2 12.5967 2 13.1996H4ZM2.975 9.52818C2.67589 10.0516 2.47157 10.4036 2.32654 10.785L4.19592 11.4959C4.27277 11.2938 4.38251 11.0962 4.71149 10.5205L2.975 9.52818ZM4.03631 12.0969C4.06855 11.8916 4.12204 11.6902 4.19592 11.4959L2.32654 10.785C2.2034 11.1088 2.11425 11.4445 2.06052 11.7867L4.03631 12.0969ZM4.5 18.5C4.25335 18.5 4.11844 18.4995 4.02092 18.4928C3.93237 18.4868 3.94973 18.4792 4 18.5L3.23463 20.3478C3.46868 20.4447 3.6944 20.4752 3.88477 20.4882C4.06616 20.5005 4.28071 20.5 4.5 20.5V18.5ZM2 18C2 18.2193 1.99946 18.4338 2.01183 18.6152C2.02482 18.8056 2.0553 19.0313 2.15224 19.2654L4 18.5C4.02082 18.5503 4.01324 18.5676 4.0072 18.4791C4.00054 18.3816 4 18.2467 4 18H2ZM4 18.5H4L2.15224 19.2654C2.35523 19.7554 2.74458 20.1448 3.23463 20.3478L4 18.5ZM5 18C5 18.2467 4.99946 18.3816 4.9928 18.4791C4.98676 18.5676 4.97918 18.5503 5 18.5L6.84776 19.2654C6.9447 19.0313 6.97518 18.8056 6.98817 18.6152C7.00054 18.4338 7 18.2193 7 18H5ZM4.5 20.5C4.71929 20.5 4.93384 20.5005 5.11523 20.4882C5.3056 20.4752 5.53132 20.4447 5.76537 20.3478L5 18.5C5.05027 18.4792 5.06763 18.4868 4.97908 18.4928C4.88156 18.4995 4.74665 18.5 4.5 18.5V20.5ZM5 18.5V18.5L5.76537 20.3478C6.25542 20.1448 6.64477 19.7554 6.84776 19.2654L5 18.5ZM19.5 18.5C19.2533 18.5 19.1184 18.4995 19.0209 18.4928C18.9324 18.4868 18.9497 18.4792 19 18.5L18.2346 20.3478C18.4687 20.4447 18.6944 20.4752 18.8848 20.4882C19.0662 20.5005 19.2807 20.5 19.5 20.5V18.5ZM17 18C17 18.2193 16.9995 18.4338 17.0118 18.6152C17.0248 18.8056 17.0553 19.0313 17.1522 19.2654L19 18.5C19.0208 18.5503 19.0132 18.5676 19.0072 18.4791C19.0005 18.3816 19 18.2467 19 18H17ZM19 18.5L17.1522 19.2654C17.3552 19.7554 17.7446 20.1448 18.2346 20.3478L19 18.5ZM20 18C20 18.2467 19.9995 18.3816 19.9928 18.4791C19.9868 18.5676 19.9792 18.5503 20 18.5L21.8478 19.2654C21.9447 19.0313 21.9752 18.8056 21.9882 18.6152C22.0005 18.4338 22 18.2193 22 18H20ZM19.5 20.5C19.7193 20.5 19.9338 20.5005 20.1152 20.4882C20.3056 20.4752 20.5313 20.4447 20.7654 20.3478L20 18.5C20.0503 18.4792 20.0676 18.4868 19.9791 18.4928C19.8816 18.4995 19.7467 18.5 19.5 18.5V20.5ZM20 18.5L20 18.5L20.7654 20.3478C21.2554 20.1448 21.6448 19.7554 21.8478 19.2654L20 18.5ZM19.2885 10.5205C19.6175 11.0962 19.7272 11.2938 19.8041 11.4959L21.6735 10.785C21.5284 10.4036 21.3241 10.0516 21.025 9.52818L19.2885 10.5205ZM22 13.1996C22 12.5967 22.0028 12.1898 21.9395 11.7867L19.9637 12.0969C19.9972 12.3105 20 12.5365 20 13.1996H22ZM19.8041 11.4959C19.878 11.6902 19.9314 11.8916 19.9637 12.0969L21.9395 11.7867C21.8857 11.4445 21.7966 11.1088 21.6735 10.785L19.8041 11.4959ZM15.143 5.5C15.8871 5.5 16.0343 5.51172 16.1496 5.54936L16.7702 3.64807C16.2806 3.48828 15.7515 3.5 15.143 3.5V5.5ZM18.7896 5.61622C18.4877 5.08787 18.2353 4.62262 17.8537 4.27683L16.5108 5.75894C16.6007 5.84038 16.6839 5.96237 17.0531 6.60849L18.7896 5.61622ZM16.1496 5.54936C16.2834 5.59303 16.4065 5.66445 16.5108 5.75894L17.8537 4.27683C17.5408 3.99334 17.1716 3.77908 16.7702 3.64807L16.1496 5.54936ZM8.85703 3.5C8.2485 3.5 7.71935 3.48828 7.22978 3.64807L7.85036 5.54936C7.96566 5.51172 8.11286 5.5 8.85703 5.5V3.5ZM6.9469 6.60849C7.31611 5.96237 7.39932 5.84038 7.4892 5.75894L6.14631 4.27683C5.76468 4.62262 5.51232 5.08787 5.21041 5.61622L6.9469 6.60849ZM7.22978 3.64807C6.82841 3.77908 6.4592 3.99334 6.14631 4.27683L7.4892 5.75894C7.5935 5.66445 7.71657 5.59303 7.85036 5.54936L7.22978 3.64807ZM2.35982 8.76822L4.9148 10.8974L6.19517 9.36093L3.64018 7.23178L2.35982 8.76822ZM19.0852 10.8974L21.6402 8.76822L20.3598 7.23178L17.8048 9.36093L19.0852 10.8974ZM6.57928 11.5H7V9.5H6.57928V11.5ZM17.4207 9.5H17V11.5H17.4207V9.5ZM17.8048 9.36093C17.7165 9.43455 17.6726 9.47091 17.6396 9.49615C17.6133 9.51636 17.6181 9.51051 17.6379 9.5L18.5727 11.2681C18.779 11.159 18.9522 11.0082 19.0852 10.8974L17.8048 9.36093ZM17.4207 11.5C17.5939 11.5 17.8235 11.505 18.0518 11.4567L17.6379 9.5C17.66 9.49535 17.6674 9.49677 17.6342 9.49812C17.5927 9.49981 17.5357 9.5 17.4207 9.5V11.5ZM17.6379 9.5L17.6379 9.5L18.0518 11.4567C18.2333 11.4183 18.4086 11.3548 18.5727 11.2681L17.6379 9.5ZM4.9148 10.8974C5.04782 11.0082 5.22099 11.159 5.4273 11.2681L6.36205 9.5C6.38194 9.51051 6.38673 9.51636 6.36036 9.49615C6.32743 9.47091 6.28351 9.43455 6.19517 9.36093L4.9148 10.8974ZM6.57928 9.5C6.46429 9.5 6.40727 9.49981 6.36581 9.49812C6.33262 9.49677 6.34004 9.49535 6.36205 9.5L5.94822 11.4567C6.17654 11.505 6.40612 11.5 6.57928 11.5V9.5ZM5.4273 11.2681C5.59135 11.3548 5.76667 11.4183 5.94822 11.4567L6.36205 9.5L6.36205 9.5L5.4273 11.2681ZM6 14C6 13.7239 6.22386 13.5 6.5 13.5V15.5C7.32843 15.5 8 14.8284 8 14H6ZM6.5 13.5C6.77614 13.5 7 13.7239 7 14H5C5 14.8284 5.67157 15.5 6.5 15.5V13.5ZM7 14C7 14.2761 6.77614 14.5 6.5 14.5V12.5C5.67157 12.5 5 13.1716 5 14H7ZM6.5 14.5C6.22386 14.5 6 14.2761 6 14H8C8 13.1716 7.32843 12.5 6.5 12.5V14.5ZM17 14C17 13.7239 17.2239 13.5 17.5 13.5V15.5C18.3284 15.5 19 14.8284 19 14H17ZM17.5 13.5C17.7761 13.5 18 13.7239 18 14H16C16 14.8284 16.6716 15.5 17.5 15.5V13.5ZM18 14C18 14.2761 17.7761 14.5 17.5 14.5V12.5C16.6716 12.5 16 13.1716 16 14H18ZM17.5 14.5C17.2239 14.5 17 14.2761 17 14H19C19 13.1716 18.3284 12.5 17.5 12.5V14.5ZM6.5 15H6.51V13H6.5V15ZM17.5 15H17.51V13H17.5V15ZM11.6679 7.4453L9.66795 10.4453L11.3321 11.5547L13.3321 8.5547L11.6679 7.4453ZM10.5 12H13.5V10H10.5V12ZM12.6679 10.4453L10.6679 13.4453L12.3321 14.5547L14.3321 11.5547L12.6679 10.4453Z" fill="black"/>
</svg>
