<svg width="24" height="24" viewBox="0 0 24 24" fill="none" xmlns="http://www.w3.org/2000/svg">
<path opacity="0.14" d="M21.7696 13.6971L20.1278 9.05779C19.9113 8.46298 19.8031 8.16557 19.6521 7.89239C19.5181 7.64983 19.3592 7.42185 19.178 7.21213C18.974 6.97594 18.7325 6.77141 18.2494 6.3624L17.586 5.88909L16.9176 7.03778C16.8097 7.22322 16.7557 7.31593 16.6855 7.39349C16.6233 7.4623 16.5518 7.5221 16.473 7.57119C16.3843 7.62652 16.2835 7.66321 16.0819 7.73659L5.89425 11.4446C5.69265 11.518 5.59184 11.5546 5.48829 11.5693C5.39642 11.5823 5.30319 11.5825 5.21128 11.5698C5.10768 11.5555 5.00675 11.5191 4.8049 11.4464L3.35589 10.9575L3.15778 11.9616C3.05064 12.5855 2.99707 12.8974 2.9926 13.2095C2.98863 13.4866 3.01346 13.7633 3.0667 14.0353C3.12667 14.3416 3.23491 14.639 3.45141 15.2338L5.09323 19.8732C5.2526 20.311 5.33228 20.5299 5.46666 20.6766C5.64584 20.8721 5.89535 20.9885 6.16032 21C6.35904 21.0087 6.57796 20.929 7.0158 20.7697C7.45365 20.6103 7.67257 20.5306 7.81922 20.3962C8.01476 20.2171 8.13111 19.9675 8.14268 19.7026C8.15135 19.5039 8.07167 19.2849 7.91231 18.8471L7.7413 18.3772L18.7795 14.2533L18.9506 14.7232C19.1099 15.161 19.1896 15.3799 19.324 15.5266C19.5032 15.7221 19.7527 15.8385 20.0176 15.85C20.2164 15.8587 20.4353 15.779 20.8731 15.6197C21.311 15.4603 21.5299 15.3806 21.6765 15.2463C21.8721 15.0671 21.9884 14.8176 22 14.5526C22.0087 14.3539 21.929 14.135 21.7696 13.6971Z" fill="black"/>
<path d="M6 5.52839L6.34202 6.46808C6.34718 6.4662 6.35232 6.46428 6.35744 6.46232L6 5.52839ZM11.6688 3.35879L11.3268 2.4191C11.3216 2.42098 11.3165 2.4229 11.3113 2.42486L11.6688 3.35879ZM14.8311 3.92365L14.1849 4.68683C14.206 4.70469 14.2278 4.72166 14.2503 4.73771L14.8311 3.92365ZM18.2494 6.3624L18.8956 5.59922C18.8745 5.58136 18.8527 5.56439 18.8302 5.54833L18.2494 6.3624ZM20.1278 9.05779L21.0706 8.72415L21.0675 8.71577L20.1278 9.05779ZM21.7696 13.6971L20.8269 14.0307L20.8299 14.0391L21.7696 13.6971ZM18.9506 14.7232L19.8903 14.3812L19.8902 14.3812L18.9506 14.7232ZM18.7795 14.2533L19.7192 13.9113C19.628 13.6607 19.4405 13.4569 19.1983 13.3452C18.9561 13.2336 18.6794 13.2232 18.4296 13.3166L18.7795 14.2533ZM7.7413 18.3772L7.39133 17.4405C6.87707 17.6326 6.61385 18.2034 6.80161 18.7193L7.7413 18.3772ZM7.91231 18.8471L6.97262 19.1891H6.97262L7.91231 18.8471ZM5.09323 19.8732L4.15049 20.2068L4.15354 20.2152L5.09323 19.8732ZM3.45141 15.2338L4.39415 14.9002L4.3911 14.8918L3.45141 15.2338ZM3.15778 11.9616L2.1767 11.7681C2.1751 11.7761 2.17361 11.7842 2.17221 11.7924L3.15778 11.9616ZM3.94064 7.99377L4.92172 8.18733C4.92332 8.17925 4.92481 8.17115 4.92621 8.16303L3.94064 7.99377ZM3.0667 14.0353L4.04807 13.8432L3.0667 14.0353ZM2.9926 13.2095L3.9925 13.2238V13.2238L2.9926 13.2095ZM6.16032 21L6.1167 21.9991L6.16032 21ZM5.46666 20.6766L4.72938 21.3522H4.72938L5.46666 20.6766ZM8.14268 19.7026L9.14173 19.7462V19.7462L8.14268 19.7026ZM7.81922 20.3962L8.49481 21.1335L7.81922 20.3962ZM20.0176 15.85L19.974 16.8491L20.0176 15.85ZM19.324 15.5266L18.5867 16.2022L18.5867 16.2022L19.324 15.5266ZM22 14.5526L22.999 14.5962V14.5962L22 14.5526ZM21.6765 15.2463L21.001 14.509V14.509L21.6765 15.2463ZM19.178 7.21213L18.4213 7.86584L18.4213 7.86584L19.178 7.21213ZM19.6521 7.89239L18.7768 8.37602V8.37603L19.6521 7.89239ZM12.9401 3.00113L12.9736 4.00056L12.9401 3.00113ZM13.7622 3.14798L14.1397 2.22197L14.1397 2.22196L13.7622 3.14798ZM4.79622 6.07158L4.17951 5.28439L4.17951 5.28439L4.79622 6.07158ZM4.26084 6.71252L5.14524 7.17923L4.26084 6.71252ZM13 3.00001L13.0036 4.00001L13 3.00001ZM2.31971 9.55248C1.79641 9.37591 1.22906 9.65699 1.05248 10.1803C0.875913 10.7036 1.15699 11.2709 1.68029 11.4475L2.31971 9.55248ZM4.8049 11.4464L5.14373 10.5056C5.13738 10.5033 5.131 10.5011 5.12461 10.4989L4.8049 11.4464ZM5.89425 11.4446L5.55223 10.5049L5.89425 11.4446ZM16.0819 7.73659L15.7399 6.7969L15.7399 6.7969L16.0819 7.73659ZM16.9176 7.03778L16.0532 6.53484L16.0532 6.53484L16.9176 7.03778ZM16.6855 7.39349L17.4271 8.06439L17.4271 8.06439L16.6855 7.39349ZM16.473 7.57119L15.944 6.7226L15.944 6.7226L16.473 7.57119ZM5.21128 11.5698L5.34811 10.5792H5.3481L5.21128 11.5698ZM5.48829 11.5693L5.34811 10.5792H5.3481L5.48829 11.5693ZM19.5495 4.50294C19.8273 4.02558 19.6655 3.41344 19.1881 3.13568C18.7108 2.85791 18.0986 3.01971 17.8209 3.49706L19.5495 4.50294ZM7.01562 13.7593C6.46334 13.7593 6.01562 14.207 6.01562 14.7593C6.01562 15.3116 6.46334 15.7593 7.01562 15.7593V13.7593ZM7.02563 15.7593C7.57791 15.7593 8.02563 15.3116 8.02563 14.7593C8.02563 14.207 7.57791 13.7593 7.02563 13.7593V15.7593ZM16.75 10.25C16.1977 10.25 15.75 10.6977 15.75 11.25C15.75 11.8023 16.1977 12.25 16.75 12.25V10.25ZM16.76 12.25C17.3123 12.25 17.76 11.8023 17.76 11.25C17.76 10.6977 17.3123 10.25 16.76 10.25V12.25ZM2 20C1.44772 20 1 20.4477 1 21C1 21.5523 1.44772 22 2 22V20ZM22 22C22.5523 22 23 21.5523 23 21C23 20.4477 22.5523 20 22 20V22ZM6.35744 6.46232L12.0262 4.29273L11.3113 2.42486L5.64256 4.59445L6.35744 6.46232ZM14.2503 4.73771L17.6686 7.17646L18.8302 5.54833L15.4118 3.10959L14.2503 4.73771ZM19.1851 9.3914L20.8269 14.0307L22.7123 13.3635L21.0705 8.72417L19.1851 9.3914ZM19.8902 14.3812L19.7192 13.9113L17.8399 14.5953L18.0109 15.0652L19.8902 14.3812ZM18.4296 13.3166L7.39133 17.4405L8.09128 19.314L19.1295 15.1901L18.4296 13.3166ZM6.80161 18.7193L6.97262 19.1891L8.85201 18.5051L8.681 18.0352L6.80161 18.7193ZM6.03594 19.5395L4.39411 14.9002L2.5087 15.5674L4.15053 20.2068L6.03594 19.5395ZM4.13887 12.1552L4.92172 8.18733L2.95955 7.8002L2.1767 11.7681L4.13887 12.1552ZM4.3911 14.8918C4.16431 14.2687 4.08961 14.0554 4.04807 13.8432L2.08533 14.2274C2.16372 14.6279 2.30551 15.0093 2.51171 15.5758L4.3911 14.8918ZM2.17221 11.7924C2.07017 12.3866 1.99855 12.7872 1.9927 13.1951L3.9925 13.2238C3.9956 13.0076 4.03112 12.7844 4.14335 12.1309L2.17221 11.7924ZM4.04807 13.8432C4.00814 13.6392 3.98952 13.4316 3.9925 13.2238L1.9927 13.1951C1.98774 13.5415 2.01878 13.8875 2.08533 14.2274L4.04807 13.8432ZM6.67378 19.83C6.44201 19.9143 6.31505 19.96 6.22113 19.9871C6.13586 20.0117 6.14957 19.9986 6.20394 20.001L6.1167 21.9991C6.36978 22.0101 6.59232 21.9616 6.77565 21.9087C6.95034 21.8582 7.15176 21.7844 7.35782 21.7094L6.67378 19.83ZM4.15354 20.2152C4.22854 20.4212 4.30141 20.623 4.37508 20.7892C4.4524 20.9637 4.55824 21.1654 4.72938 21.3522L6.20394 20.001C6.2407 20.0411 6.23951 20.06 6.20355 19.9789C6.16394 19.8895 6.11729 19.7629 6.03293 19.5311L4.15354 20.2152ZM6.20394 20.001H6.20394L4.72938 21.3522C5.08774 21.7432 5.58677 21.9759 6.1167 21.9991L6.20394 20.001ZM6.97262 19.1891C7.05698 19.4209 7.10261 19.5479 7.12971 19.6418C7.15432 19.727 7.14126 19.7133 7.14363 19.659L9.14173 19.7462C9.15278 19.4931 9.10421 19.2706 9.0513 19.0872C9.00089 18.9126 8.92701 18.7111 8.85201 18.5051L6.97262 19.1891ZM7.35782 21.7094C7.56389 21.6344 7.76568 21.5615 7.9319 21.4878C8.10635 21.4105 8.30804 21.3047 8.49481 21.1335L7.14363 19.659C7.18375 19.6222 7.20265 19.6234 7.12151 19.6594C7.03215 19.699 6.90556 19.7456 6.67378 19.83L7.35782 21.7094ZM7.14363 19.659L7.14363 19.659L8.49481 21.1335C8.88589 20.7752 9.11859 20.2761 9.14173 19.7462L7.14363 19.659ZM20.5311 14.68C20.2993 14.7644 20.1724 14.81 20.0785 14.8371C19.9932 14.8617 20.0069 14.8486 20.0613 14.851L19.974 16.8491C20.2271 16.8601 20.4496 16.8116 20.633 16.7587C20.8077 16.7083 21.0091 16.6344 21.2151 16.5594L20.5311 14.68ZM18.0109 15.0652C18.0859 15.2713 18.1587 15.4731 18.2324 15.6393C18.3097 15.8137 18.4156 16.0154 18.5867 16.2022L20.0613 14.851C20.098 14.8911 20.0968 14.91 20.0609 14.8289C20.0213 14.7395 19.9746 14.6129 19.8903 14.3812L18.0109 15.0652ZM20.0613 14.851V14.851L18.5867 16.2022C18.9451 16.5933 19.4441 16.826 19.974 16.8491L20.0613 14.851ZM20.8299 14.0391C20.9143 14.2709 20.9599 14.3979 20.987 14.4918C21.0116 14.5771 20.9986 14.5633 21.001 14.509L22.999 14.5962C23.0101 14.3431 22.9615 14.1206 22.9086 13.9373C22.8582 13.7626 22.7843 13.5612 22.7093 13.3551L20.8299 14.0391ZM21.2151 16.5594C21.4212 16.4844 21.623 16.4115 21.7892 16.3378C21.9637 16.2605 22.1654 16.1547 22.3521 15.9835L21.001 14.509C21.0411 14.4722 21.06 14.4734 20.9788 14.5094C20.8895 14.549 20.7629 14.5956 20.5311 14.68L21.2151 16.5594ZM21.001 14.509L21.001 14.509L22.3521 15.9835C22.7432 15.6252 22.9759 15.1261 22.999 14.5962L21.001 14.509ZM17.6032 7.12557C18.1092 7.55404 18.28 7.70223 18.4213 7.86584L19.9348 6.55843C19.6681 6.24965 19.3557 5.98879 18.8956 5.59922L17.6032 7.12557ZM21.0675 8.71577C20.8613 8.14924 20.7247 7.76588 20.5274 7.40874L18.7768 8.37603C18.8814 8.56526 18.9613 8.77672 19.1881 9.39981L21.0675 8.71577ZM18.4213 7.86584C18.5572 8.02313 18.6763 8.19411 18.7768 8.37602L20.5274 7.40875C20.3598 7.10554 20.1612 6.82057 19.9348 6.55843L18.4213 7.86584ZM12.0108 4.29849C12.7101 4.04396 12.8524 4.00463 12.9736 4.00056L12.9065 2.00169C12.3918 2.01898 11.8986 2.21097 11.3268 2.4191L12.0108 4.29849ZM15.4773 3.16048C15.0128 2.76725 14.6166 2.41637 14.1397 2.22197L13.3847 4.07399C13.497 4.11977 13.6169 4.20595 14.1849 4.68683L15.4773 3.16048ZM5.65798 4.58869C5.08615 4.79682 4.5849 4.96679 4.17951 5.28439L5.41294 6.85876C5.50841 6.78396 5.64273 6.7226 6.34202 6.46808L5.65798 4.58869ZM4.92621 8.16303C5.05217 7.42959 5.08864 7.2865 5.14524 7.17923L3.37643 6.2458C3.13608 6.70126 3.05807 7.22476 2.95507 7.82451L4.92621 8.16303ZM4.17951 5.28439C3.84714 5.54478 3.57349 5.87239 3.37643 6.2458L5.14524 7.17923C5.21093 7.05476 5.30215 6.94556 5.41294 6.85876L4.17951 5.28439ZM12.9736 4.00056C12.9836 4.00023 12.9936 4.00004 13.0036 4.00001L12.9964 2.00002C12.9664 2.00013 12.9365 2.00068 12.9065 2.00169L12.9736 4.00056ZM13.0036 4.00001C13.1342 3.99954 13.2636 4.02463 13.3847 4.07399L14.1397 2.22196C13.7765 2.0739 13.388 1.99861 12.9964 2.00002L13.0036 4.00001ZM1.68029 11.4475L4.48518 12.3939L5.12461 10.4989L2.31971 9.55248L1.68029 11.4475ZM6.23627 12.3843L16.4239 8.67628L15.7399 6.7969L5.55223 10.5049L6.23627 12.3843ZM16.0532 6.53484C15.9954 6.63423 15.9666 6.68342 15.9443 6.7184C15.9264 6.74641 15.9289 6.73928 15.944 6.7226L17.4271 8.06439C17.5837 7.89133 17.6948 7.69038 17.7819 7.54071L16.0532 6.53484ZM16.4239 8.67628C16.5866 8.61706 16.8041 8.54324 17.0021 8.41977L15.944 6.7226C15.9631 6.7107 15.9705 6.7095 15.9398 6.72212C15.9014 6.73789 15.8479 6.75757 15.7399 6.7969L16.4239 8.67628ZM15.944 6.7226L15.944 6.7226L17.0021 8.41978C17.1596 8.3216 17.3026 8.20199 17.4271 8.06439L15.944 6.7226ZM4.46606 12.3873C4.62898 12.4459 4.84329 12.5284 5.07447 12.5604L5.3481 10.5792C5.37039 10.5823 5.37689 10.5861 5.3452 10.5761C5.30563 10.5637 5.25192 10.5445 5.14373 10.5056L4.46606 12.3873ZM5.55223 10.5049C5.44418 10.5442 5.39053 10.5635 5.351 10.5761C5.31934 10.5862 5.32583 10.5823 5.34811 10.5792L5.62847 12.5594C5.85953 12.5267 6.07356 12.4435 6.23627 12.3843L5.55223 10.5049ZM5.07446 12.5604C5.25828 12.5858 5.44474 12.5854 5.62847 12.5594L5.3481 10.5792H5.34811L5.07446 12.5604ZM17.7819 7.54072L19.5495 4.50294L17.8209 3.49706L16.0532 6.53484L17.7819 7.54072ZM6.51562 14.761C6.51562 14.4848 6.73948 14.261 7.01562 14.261V16.261C7.84405 16.261 8.51562 15.5894 8.51562 14.761H6.51562ZM7.01562 14.261C7.29177 14.261 7.51562 14.4848 7.51562 14.761H5.51562C5.51562 15.5894 6.1872 16.261 7.01562 16.261V14.261ZM7.51562 14.761C7.51562 15.0371 7.29177 15.261 7.01562 15.261V13.261C6.1872 13.261 5.51562 13.9326 5.51562 14.761H7.51562ZM7.01562 15.261C6.73948 15.261 6.51562 15.0371 6.51562 14.761H8.51562C8.51562 13.9326 7.84405 13.261 7.01562 13.261V15.261ZM16.25 11.25C16.25 10.9739 16.4739 10.75 16.75 10.75V12.75C17.5784 12.75 18.25 12.0784 18.25 11.25H16.25ZM16.75 10.75C17.0261 10.75 17.25 10.9739 17.25 11.25H15.25C15.25 12.0784 15.9216 12.75 16.75 12.75V10.75ZM17.25 11.25C17.25 11.5261 17.0261 11.75 16.75 11.75V9.75C15.9216 9.75 15.25 10.4216 15.25 11.25H17.25ZM16.75 11.75C16.4739 11.75 16.25 11.5261 16.25 11.25H18.25C18.25 10.4216 17.5784 9.75 16.75 9.75V11.75ZM7.01562 15.7593H7.02563V13.7593H7.01562V15.7593ZM16.75 12.25H16.76V10.25H16.75V12.25ZM2 22H22V20H2V22Z" fill="black"/>
</svg>
