<svg width="24" height="24" viewBox="0 0 24 24" fill="none" xmlns="http://www.w3.org/2000/svg">
<g opacity="0.14">
<path d="M2 11V18H6V13C6 12.4477 6.44772 12 7 12H17C17.5523 12 18 12.4477 18 13V18H22V11C22 9.34315 20.6569 8 19 8H18.5H5.5H5C3.34315 8 2 9.34315 2 11Z" fill="black"/>
<path d="M22 18H18H6H2L3.40627 20.1094C3.7772 20.6658 4.40166 21 5.07037 21H18.9296C19.5983 21 20.2228 20.6658 20.5937 20.1094L22 18Z" fill="black"/>
<path d="M5.5 8H18.5L20 5H16V3H8V5H4L5.5 8Z" fill="black"/>
<path d="M2 18V11C2 9.34315 3.34315 8 5 8M2 18H22M2 18L3.40627 20.1094C3.7772 20.6658 4.40166 21 5.07037 21H18.9296C19.5983 21 20.2228 20.6658 20.5937 20.1094L22 18M2 18H6M22 18V11C22 9.34315 20.6569 8 19 8M22 18H18M5 8H19M5 8H5.5M19 8H18.5M6 18V13C6 12.4477 6.44772 12 7 12H17C17.5523 12 18 12.4477 18 13V18M6 18H18M18.5 8L20 5H16V3H8V5H4L5.5 8M18.5 8H5.5" stroke="black" stroke-width="2" stroke-linecap="round" stroke-linejoin="round"/>
</g>
<path d="M2 18V11C2 9.34315 3.34315 8 5 8H19C20.6569 8 22 9.34315 22 11V18M2 18H22M2 18L3.40627 20.1094C3.7772 20.6658 4.40166 21 5.07037 21H18.9296C19.5983 21 20.2228 20.6658 20.5937 20.1094L22 18M6 18V13C6 12.4477 6.44772 12 7 12H17C17.5523 12 18 12.4477 18 13V18M18.5 8L20 5H16V3H8V5H4L5.5 8" stroke="black" stroke-width="2" stroke-linecap="round" stroke-linejoin="round"/>
</svg>
