<svg width="24" height="24" viewBox="0 0 24 24" fill="none" xmlns="http://www.w3.org/2000/svg">
<g opacity="0.14">
<path d="M20 15.5V13L14 10V15.5H20Z" fill="black"/>
<path d="M4 13V15.5H10V10L4 13Z" fill="black"/>
<path d="M14 17V15.5V10V6.5L12 2L10 6.5V10V15.5V17L8.2 18.35C8.0741 18.4444 8 18.5926 8 18.75V20.5C8 20.7761 8.22386 21 8.5 21H15.5C15.7761 21 16 20.7761 16 20.5V18.75C16 18.5926 15.9259 18.4444 15.8 18.35L14 17Z" fill="black"/>
</g>
<path d="M20 16V12M4 16V12M20 13L14 10M4 13L10 10M20 15.5H14M4 15.5H10M12 19V22M14 17V6.5L12 2L10 6.5V17L8.2 18.35C8.0741 18.4444 8 18.5926 8 18.75V20.5C8 20.7761 8.22386 21 8.5 21H15.5C15.7761 21 16 20.7761 16 20.5V18.75C16 18.5926 15.9259 18.4444 15.8 18.35L14 17Z" stroke="black" stroke-width="2" stroke-linecap="round" stroke-linejoin="round"/>
</svg>
