<svg width="24" height="24" viewBox="0 0 24 24" fill="none" xmlns="http://www.w3.org/2000/svg">
<g opacity="0.14">
<path d="M4 17H9H16H17L20 15V13L14 10L12.875 11.5L11 14H5L3 17H4Z" fill="black"/>
<path d="M5.5 11.5L6.5076 9.14893C6.80632 8.45192 7.49168 8 8.25 8C9.00832 8 9.69368 8.45192 9.9924 9.14893L11 11.5H5.5Z" fill="black"/>
</g>
<path d="M4.58085 11.1061C4.3633 11.6137 4.59845 12.2016 5.10608 12.4191C5.61371 12.6367 6.20159 12.4015 6.41915 11.8939L4.58085 11.1061ZM6.5076 9.14893L5.58846 8.75501L6.5076 9.14893ZM11 11.5L10.0809 11.8939C10.2384 12.2616 10.6 12.5 11 12.5V11.5ZM13.9487 6.68377C13.774 6.15983 13.2077 5.87667 12.6838 6.05132C12.1598 6.22596 11.8767 6.79228 12.0513 7.31623L13.9487 6.68377ZM15 20C14.4477 20 14 20.4477 14 21C14 21.5523 14.4477 22 15 22V20ZM20 21V22C20.2652 22 20.5196 21.8946 20.7071 21.7071L20 21ZM22.7071 19.7071C23.0976 19.3166 23.0976 18.6834 22.7071 18.2929C22.3166 17.9024 21.6834 17.9024 21.2929 18.2929L22.7071 19.7071ZM3 17L2.16795 16.4453C1.96338 16.7522 1.94431 17.1467 2.11833 17.4719C2.29234 17.797 2.6312 18 3 18V17ZM17 17V18C17.1974 18 17.3904 17.9416 17.5547 17.8321L17 17ZM20 15L20.5547 15.8321C20.8329 15.6466 21 15.3344 21 15H20ZM20 13H21C21 12.6212 20.786 12.275 20.4472 12.1056L20 13ZM11 14V15C11.3148 15 11.6111 14.8518 11.8 14.6L11 14ZM5 14V13C4.66565 13 4.35342 13.1671 4.16795 13.4453L5 14ZM8 3C7.44772 3 7 3.44772 7 4C7 4.55228 7.44772 5 8 5V3ZM8.009 5C8.56128 5 9.009 4.55228 9.009 4C9.009 3.44772 8.56128 3 8.009 3V5ZM6.41915 11.8939L7.42675 9.54285L5.58846 8.75501L4.58085 11.1061L6.41915 11.8939ZM9.07325 9.54285L10.0809 11.8939L11.9191 11.1061L10.9115 8.75501L9.07325 9.54285ZM11 12.5H12.875V10.5H11V12.5ZM8.25 9C8.60829 9 8.93212 9.21353 9.07325 9.54285L10.9115 8.75501C10.4552 7.69032 9.40835 7 8.25 7V9ZM7.42675 9.54285C7.56789 9.21353 7.89171 9 8.25 9V7C7.09165 7 6.04475 7.69032 5.58846 8.75501L7.42675 9.54285ZM14.9487 9.68377L13.9487 6.68377L12.0513 7.31623L13.0513 10.3162L14.9487 9.68377ZM4 22H9V20H4V22ZM9 16H4V18H9V16ZM4 16C2.34315 16 1 17.3431 1 19H3C3 18.4477 3.44772 18 4 18V16ZM12 19C12 17.3431 10.6569 16 9 16V18C9.55228 18 10 18.4477 10 19H12ZM9 22C10.6569 22 12 20.6569 12 19H10C10 19.5523 9.55228 20 9 20V22ZM4 20C3.44772 20 3 19.5523 3 19H1C1 20.6569 2.34315 22 4 22V20ZM15 22H20V20H15V22ZM20.7071 21.7071L22.7071 19.7071L21.2929 18.2929L19.2929 20.2929L20.7071 21.7071ZM20.7071 20.2929L16.7071 16.2929L15.2929 17.7071L19.2929 21.7071L20.7071 20.2929ZM3 18H17V16H3V18ZM17.5547 17.8321L20.5547 15.8321L19.4453 14.1679L16.4453 16.1679L17.5547 17.8321ZM21 15V13H19V15H21ZM20.4472 12.1056L14.4472 9.10557L13.5528 10.8944L19.5528 13.8944L20.4472 12.1056ZM13.2 9.4L10.2 13.4L11.8 14.6L14.8 10.6L13.2 9.4ZM11 13H5V15H11V13ZM4.16795 13.4453L2.16795 16.4453L3.83205 17.5547L5.83205 14.5547L4.16795 13.4453ZM8 5H8.009V3H8V5ZM8 4V6C9.10457 6 10 5.10457 10 4H8ZM8 4H6C6 5.10457 6.89543 6 8 6V4ZM8 4V2C6.89543 2 6 2.89543 6 4H8ZM8 4H10C10 2.89543 9.10457 2 8 2V4ZM9 18H16V16H9V18ZM16 18H17V16H16V18ZM13.2 9.4L12.075 10.9L13.675 12.1L14.8 10.6L13.2 9.4ZM12.075 10.9L10.2 13.4L11.8 14.6L13.675 12.1L12.075 10.9ZM3 18H4V16H3V18Z" fill="black"/>
</svg>
