<svg width="24" height="24" viewBox="0 0 24 24" fill="none" xmlns="http://www.w3.org/2000/svg">
<path d="M12.3714 16.4285C12.8842 16.2234 13.1336 15.6414 12.9285 15.1286C12.7234 14.6158 12.1414 14.3664 11.6286 14.5715L12.3714 16.4285ZM10.0623 16.2751L10.4337 17.2035L10.0623 16.2751ZM5.59562 14.5157L6.50043 14.0899V14.0899L5.59562 14.5157ZM3.90482 8.5742C3.66966 8.07449 3.07392 7.86002 2.5742 8.09518C2.07449 8.33034 1.86002 8.92608 2.09518 9.4258L3.90482 8.5742ZM7.64102 20.0667C7.12555 20.2649 6.8684 20.8435 7.06665 21.359C7.26491 21.8745 7.84351 22.1316 8.35898 21.9333L7.64102 20.0667ZM19.1333 16.718L19.4923 17.6513H19.4923L19.1333 16.718ZM22 14C22 13.4477 21.5523 13 21 13C20.4477 13 20 13.4477 20 14H22ZM15.0393 18.2006C15.1926 18.7312 15.747 19.0371 16.2775 18.8838C16.8081 18.7305 17.114 18.1761 16.9607 17.6455L15.0393 18.2006ZM14 11L14.9607 10.7225C14.8823 10.4511 14.6928 10.2255 14.439 10.1015C14.1853 9.97752 13.8909 9.96662 13.6286 10.0715L14 11ZM9 13L8.08619 13.4061C8.30453 13.8974 8.87223 14.1281 9.37139 13.9285L9 13ZM7.91381 8.09386C7.68951 7.58918 7.09855 7.36188 6.59386 7.58619C6.08918 7.81049 5.86188 8.40145 6.08619 8.90614L7.91381 8.09386ZM6 4C5.44772 4 5 4.44772 5 5C5 5.55228 5.44772 6 6 6V4ZM6.009 6C6.56128 6 7.009 5.55228 7.009 5C7.009 4.44772 6.56128 4 6.009 4V6ZM11 8C11 8.55228 11.4477 9 12 9C12.5523 9 13 8.55228 13 8H11ZM13 3C13 2.44772 12.5523 2 12 2C11.4477 2 11 2.44772 11 3H13ZM11.6286 14.5715L9.69096 15.3466L10.4337 17.2035L12.3714 16.4285L11.6286 14.5715ZM6.50043 14.0899L3.90482 8.5742L2.09518 9.4258L4.6908 14.9415L6.50043 14.0899ZM9.69096 15.3466C8.46246 15.838 7.06382 15.2871 6.50043 14.0899L4.6908 14.9415C5.70489 17.0964 8.22245 18.0881 10.4337 17.2035L9.69096 15.3466ZM8.35898 21.9333L19.4923 17.6513L18.7743 15.7846L7.64102 20.0667L8.35898 21.9333ZM19.4923 17.6513C21.0031 17.0702 22 15.6187 22 14H20C20 14.7912 19.5128 15.5006 18.7743 15.7846L19.4923 17.6513ZM16.9607 17.6455L14.9607 10.7225L13.0393 11.2775L15.0393 18.2006L16.9607 17.6455ZM13.6286 10.0715L8.62861 12.0715L9.37139 13.9285L14.3714 11.9285L13.6286 10.0715ZM9.91381 12.5939L7.91381 8.09386L6.08619 8.90614L8.08619 13.4061L9.91381 12.5939ZM6 6H6.009V4H6V6ZM6 5V7C7.10457 7 8 6.10457 8 5H6ZM6 5H4C4 6.10457 4.89543 7 6 7V5ZM6 5V3C4.89543 3 4 3.89543 4 5H6ZM6 5H8C8 3.89543 7.10457 3 6 3V5ZM13 8V3H11V8H13Z" fill="black"/>
</svg>
