<svg width="24" height="24" viewBox="0 0 24 24" fill="none" xmlns="http://www.w3.org/2000/svg">
<path opacity="0.14" d="M11 21H7L9 15H6L5 17H2L3.5 12L2 7H4.5L6 9H9L7 3H11L14.5 9H18.2951C18.4875 9 19.0536 8.97258 19.5152 9.0969C20.3921 9.33312 20.917 9.8271 21.4108 10.4443L21.4883 10.5412C21.8294 10.9677 22 11.4838 22 12C22 12.5162 21.8294 13.0323 21.4883 13.4588L21.4108 13.5557C20.917 14.1729 20.3921 14.6669 19.5152 14.9031C19.0536 15.0274 18.4875 15 18.2951 15H14.5L11 21Z" fill="black"/>
<path d="M11 21H7L9 15H6L5 17H2L3.5 12L2 7H4.5L6 9H9L7 3H11L14.5 9H18.2951C18.4875 9 19.0536 8.97258 19.5152 9.0969C20.3921 9.33312 20.917 9.8271 21.4108 10.4443L21.4883 10.5412C21.8294 10.9677 22 11.4838 22 12C22 12.5162 21.8294 13.0323 21.4883 13.4588L21.4108 13.5557C20.917 14.1729 20.3921 14.6669 19.5152 14.9031C19.0536 15.0274 18.4875 15 18.2951 15H14.5L11 21Z" stroke="black" stroke-width="2" stroke-linecap="round" stroke-linejoin="round"/>
</svg>
