<svg width="24" height="24" viewBox="0 0 24 24" fill="none" xmlns="http://www.w3.org/2000/svg">
<g opacity="0.14">
<path d="M13 21L14 15H10.0828C10.0551 15 10.0275 14.9989 10 14.9966L10.5 21H13Z" fill="black"/>
<path d="M7.11644 14.5194L9.91836 14.9864C9.94544 14.9909 9.97267 14.9943 10 14.9966C10.0275 14.9989 10.0551 15 10.0828 15H14H17.5924C18.1192 15 18.6447 14.948 19.1613 14.8446L19.2602 14.8249C20.2947 14.618 21.194 13.9842 21.7368 13.0795C21.9362 12.7472 22.023 12.3703 22 12C21.9778 11.6429 21.8534 11.2918 21.6291 10.9928L21.5575 10.8973C21.1173 10.3104 20.5242 9.85589 19.8431 9.58342L19.8149 9.57216C18.87 9.19419 17.8616 8.99999 16.8439 8.99998L14 9L10.0828 8.99988C10.0551 8.99988 10.0275 9.00102 10 9.00331C9.97267 9.00558 9.94543 9.00897 9.91836 9.01348L7.11644 9.48047C7.05549 9.49063 7 9.44363 7 9.38183V8.5C7 7.94772 6.55228 7.5 6 7.5H5C4.44772 7.5 4 7.94772 4 8.5V9.7C4 10.1418 3.64183 10.5 3.2 10.5C2.53726 10.5 2 11.0373 2 11.7V12.3C2 12.9627 2.53726 13.5 3.2 13.5C3.64183 13.5 4 13.8582 4 14.3V15.5C4 16.0523 4.44772 16.5 5 16.5H6C6.55228 16.5 7 16.0523 7 15.5V14.618C7 14.5563 7.05549 14.5092 7.11644 14.5194Z" fill="black"/>
<path d="M14 9L13 3H10.5L10 9.00331C10.0275 9.00102 10.0551 8.99988 10.0828 8.99988L14 9Z" fill="black"/>
</g>
<path d="M14 15L13 21H10.5L10 15M14 9L13 3H10.5L10 9M16 6.5V3.5M16.5 20.5V17.5M16.9987 5H13.332M16.332 19H13.332M10.4141 20H9.9987C9.44641 20 8.9987 19.5523 8.9987 19C8.9987 18.4477 9.44641 18 9.9987 18H10.2474M10.4141 4H9.9987C9.44641 4 8.9987 4.44772 8.9987 5C8.9987 5.55228 9.44641 6 9.9987 6H10.2474M7.11644 14.5194L9.91836 14.9864C9.97269 14.9954 10.0277 15 10.0828 15H17.5924C18.1192 15 18.6447 14.948 19.1613 14.8446L19.2602 14.8249C20.2947 14.618 21.194 13.9842 21.7368 13.0795C21.9362 12.7472 22.023 12.3703 22 12C21.9778 11.6429 21.8534 11.2918 21.6291 10.9928L21.5575 10.8973C21.1173 10.3104 20.5242 9.85589 19.8431 9.58342L19.8149 9.57216C18.87 9.19419 17.8616 8.99999 16.8439 8.99998L10.0828 8.99988C10.0277 8.99988 9.97269 9.00443 9.91836 9.01348L7.11644 9.48047C7.05549 9.49063 7 9.44363 7 9.38183V8.5C7 7.94772 6.55228 7.5 6 7.5H5C4.44772 7.5 4 7.94772 4 8.5V9.7C4 10.1418 3.64183 10.5 3.2 10.5C2.53726 10.5 2 11.0373 2 11.7V12.3C2 12.9627 2.53726 13.5 3.2 13.5C3.64183 13.5 4 13.8582 4 14.3V15.5C4 16.0523 4.44772 16.5 5 16.5H6C6.55228 16.5 7 16.0523 7 15.5V14.618C7 14.5563 7.05549 14.5092 7.11644 14.5194Z" stroke="black" stroke-width="2" stroke-linecap="round" stroke-linejoin="round"/>
</svg>
