<svg width="24" height="24" viewBox="0 0 24 24" fill="none" xmlns="http://www.w3.org/2000/svg">
<path opacity="0.14" d="M22 21H13L3.92953 18.5262C2.79032 18.2155 2 17.1808 2 16C2 14.8192 2.79032 13.7845 3.92953 13.4738L5.99999 12.9091L3.78095 5.57953C3.39214 4.29526 4.35332 3 5.69515 3H8.54623C8.83459 3 9.10892 3.12448 9.29881 3.34149L16 11H22V21Z" fill="black"/>
<path d="M22 21H13L3.92953 18.5262C2.79032 18.2155 2 17.1808 2 16C2 14.8192 2.79032 13.7845 3.92953 13.4738L13 11H22M16 11L9.29881 3.34149C9.10892 3.12448 8.83459 3 8.54623 3H5.69515C4.35332 3 3.39214 4.29526 3.78095 5.57953L6 12.9091M10 16H16" stroke="black" stroke-width="2" stroke-linecap="round" stroke-linejoin="round"/>
</svg>
