<svg width="24" height="24" viewBox="0 0 24 24" fill="none" xmlns="http://www.w3.org/2000/svg">
<path opacity="0.14" d="M6.59192 4.46471L2.70304 18.4647C2.34904 19.7391 3.30743 21 4.63007 21H19.3675C20.6902 21 21.6485 19.7391 21.2945 18.4647L17.4057 4.46471C17.1652 3.59908 16.377 3 15.4786 3H8.51896C7.62054 3 6.83238 3.59908 6.59192 4.46471Z" fill="black"/>
<path d="M11.9988 21V18M11.9988 14V10M11.9988 3V6M2.70304 18.4647L6.59192 4.46471C6.83238 3.59908 7.62054 3 8.51896 3H15.4786C16.377 3 17.1652 3.59908 17.4057 4.46471L21.2945 18.4647C21.6485 19.7391 20.6902 21 19.3675 21H4.63007C3.30743 21 2.34904 19.7391 2.70304 18.4647Z" stroke="black" stroke-width="2" stroke-linecap="round" stroke-linejoin="round"/>
</svg>
