<svg width="24" height="24" viewBox="0 0 24 24" fill="none" xmlns="http://www.w3.org/2000/svg">
<g opacity="0.14">
<path d="M20.9997 3H17.0415C13.9607 3 11.1537 4.76906 9.82444 7.54835L9.3693 8.5L7.21484 13.0048C9.25756 13.104 10.8992 14.7358 11.0115 16.777L15.3143 14.7191C15.3766 14.6893 15.4385 14.6589 15.5 14.6279C18.867 12.9316 20.9997 9.47971 20.9997 5.69778V3Z" fill="black"/>
<path d="M3.60543 18.2755L3 21L5.72445 20.3945C6.78923 20.1579 7.59031 19.2775 7.7256 18.1952C7.86478 17.0818 6.91821 16.1352 5.80482 16.2744C4.72249 16.4097 3.84205 17.2107 3.60543 18.2755Z" fill="black"/>
<path d="M3 13H7.01787C7.08391 13 7.14958 13.0016 7.21484 13.0048L9.3693 8.5L6.94207 8.54261C5.76036 8.54261 4.68873 9.23634 4.20497 10.3145L3 13Z" fill="black"/>
<path d="M15.3143 14.7191L11.0115 16.777C11.0152 16.845 11.0175 16.9133 11.0178 16.9821L11.0352 21L13.7207 19.7951C14.7988 19.3113 15.4925 18.2397 15.4925 17.058L15.5 14.6279C15.4385 14.6589 15.3766 14.6893 15.3143 14.7191Z" fill="black"/>
</g>
<path d="M15.4925 14.6338V17.058C15.4925 18.2397 14.7988 19.3113 13.7207 19.7951L11.0352 21L11.0178 16.9821C11.008 14.78 9.22002 13 7.01787 13H3L4.20497 10.3145C4.68873 9.23634 5.76036 8.54261 6.94207 8.54261L9.37109 8.49999M17.0415 3H20.9997V5.69778C20.9997 9.54878 18.7884 13.0576 15.3143 14.7191L11.0115 16.777C10.8992 14.7358 9.25756 13.104 7.21484 13.0048L9.82444 7.54835C11.1537 4.76906 13.9607 3 17.0415 3ZM3 21L3.60543 18.2755C3.84205 17.2107 4.72249 16.4097 5.80482 16.2744C6.91821 16.1352 7.86478 17.0818 7.7256 18.1952C7.59031 19.2775 6.78923 20.1579 5.72445 20.3945L3 21ZM17.5 7.5C17.5 8.05228 17.0523 8.5 16.5 8.5C15.9477 8.5 15.5 8.05228 15.5 7.5C15.5 6.94772 15.9477 6.5 16.5 6.5C17.0523 6.5 17.5 6.94772 17.5 7.5Z" stroke="black" stroke-width="2" stroke-linecap="round" stroke-linejoin="round"/>
</svg>
