<svg width="24" height="24" viewBox="0 0 24 24" fill="none" xmlns="http://www.w3.org/2000/svg">
<g opacity="0.14">
<path fill-rule="evenodd" clip-rule="evenodd" d="M18 9.5H19H20.5V8.5C20.5 6.84315 19.1569 5.5 17.5 5.5H14V4H8V5.5H2V13L6 17H6.26756C6.61337 16.4022 7.25972 16 8 16C8.74028 16 9.38663 16.4022 9.73244 17H14V13V9.5H18ZM5.5 12H10.5V9H5.5V12Z" fill="black"/>
<path d="M15.2676 17C15.6134 16.4022 16.2597 16 17 16C17.7403 16 18.3866 16.4022 18.7324 17H22V13H14V17H15.2676Z" fill="black"/>
</g>
<path d="M22 17V18C22.5523 18 23 17.5523 23 17H22ZM22 13H23C23 12.7116 22.8755 12.4373 22.6585 12.2474L22 13ZM18 9.5V8.5C17.5834 8.5 17.2104 8.75828 17.0639 9.14827C16.9174 9.53826 17.028 9.97824 17.3415 10.2526L18 9.5ZM20.5 9.5V10.5C21.0523 10.5 21.5 10.0523 21.5 9.5H20.5ZM14 5.5H13C13 6.05228 13.4477 6.5 14 6.5V5.5ZM14 4H15C15 3.44772 14.5523 3 14 3V4ZM8 4V3C7.44772 3 7 3.44772 7 4H8ZM8 5.5V6.5C8.55228 6.5 9 6.05228 9 5.5H8ZM2 5.5V4.5C1.44772 4.5 1 4.94772 1 5.5H2ZM2 13H1C1 13.2652 1.10536 13.5196 1.29289 13.7071L2 13ZM6 17L5.29289 17.7071C5.48043 17.8946 5.73478 18 6 18V17ZM6.26756 18C6.81985 18 7.26756 17.5523 7.26756 17C7.26756 16.4477 6.81985 16 6.26756 16V18ZM9.73244 16C9.18015 16 8.73244 16.4477 8.73244 17C8.73244 17.5523 9.18015 18 9.73244 18V16ZM15.2676 18C15.8198 18 16.2676 17.5523 16.2676 17C16.2676 16.4477 15.8198 16 15.2676 16V18ZM18.7324 16C18.1802 16 17.7324 16.4477 17.7324 17C17.7324 17.5523 18.1802 18 18.7324 18V16ZM10.5 12V13C11.0523 13 11.5 12.5523 11.5 12H10.5ZM5.5 12H4.5C4.5 12.5523 4.94772 13 5.5 13V12ZM5.5 9V8C4.94772 8 4.5 8.44772 4.5 9H5.5ZM10.5 9H11.5C11.5 8.44772 11.0523 8 10.5 8V9ZM13 17C13 17.5523 13.4477 18 14 18C14.5523 18 15 17.5523 15 17H13ZM14 9.5V8.5C13.4477 8.5 13 8.94772 13 9.5H14ZM19 10.5C19.5523 10.5 20 10.0523 20 9.5C20 8.94772 19.5523 8.5 19 8.5V10.5ZM14 12C13.4477 12 13 12.4477 13 13C13 13.5523 13.4477 14 14 14V12ZM9 18C9 18.5523 8.55228 19 8 19V21C9.65685 21 11 19.6569 11 18H9ZM8 19C7.44772 19 7 18.5523 7 18H5C5 19.6569 6.34315 21 8 21V19ZM7 18C7 17.4477 7.44772 17 8 17V15C6.34315 15 5 16.3431 5 18H7ZM8 17C8.55228 17 9 17.4477 9 18H11C11 16.3431 9.65685 15 8 15V17ZM18 18C18 18.5523 17.5523 19 17 19V21C18.6569 21 20 19.6569 20 18H18ZM17 19C16.4477 19 16 18.5523 16 18H14C14 19.6569 15.3431 21 17 21V19ZM16 18C16 17.4477 16.4477 17 17 17V15C15.3431 15 14 16.3431 14 18H16ZM17 17C17.5523 17 18 17.4477 18 18H20C20 16.3431 18.6569 15 17 15V17ZM23 17V13H21V17H23ZM22.6585 12.2474L18.6585 8.74742L17.3415 10.2526L21.3415 13.7526L22.6585 12.2474ZM18 10.5H20.5V8.5H18V10.5ZM21.5 9.5V8.5H19.5V9.5H21.5ZM17.5 4.5H14V6.5H17.5V4.5ZM15 5.5V4H13V5.5H15ZM14 3H8V5H14V3ZM7 4V5.5H9V4H7ZM8 4.5H2V6.5H8V4.5ZM1 5.5V13H3V5.5H1ZM1.29289 13.7071L5.29289 17.7071L6.70711 16.2929L2.70711 12.2929L1.29289 13.7071ZM6 18H6.26756V16H6V18ZM9.73244 18H15.2676V16H9.73244V18ZM18.7324 18H22V16H18.7324V18ZM10.5 11H5.5V13H10.5V11ZM6.5 12V9H4.5V12H6.5ZM5.5 10H10.5V8H5.5V10ZM9.5 9V12H11.5V9H9.5ZM21.5 8.5C21.5 6.29086 19.7091 4.5 17.5 4.5V6.5C18.6046 6.5 19.5 7.39543 19.5 8.5H21.5ZM15 17V9.5H13V17H15ZM14 10.5H19V8.5H14V10.5ZM14 14H22V12H14V14Z" fill="black"/>
</svg>
