<svg width="24" height="24" viewBox="0 0 24 24" fill="none" xmlns="http://www.w3.org/2000/svg">
<g opacity="0.14">
<path d="M15 3H9V6H15V3Z" fill="black"/>
<path d="M3.80155 15.4756C4.03623 15.6688 6.62324 18.0636 9 19.8462C9.34801 20.1072 9.81712 20.3683 10.2809 20.5977C10.8229 20.8659 11.4114 21 12 21C12.5886 21 13.1771 20.866 13.7191 20.5978C14.1829 20.3683 14.652 20.1073 15 19.8462C17.3768 18.0631 19.965 15.6688 20.1996 15.4756C20.5747 15.1667 20.8408 14.7456 20.9586 14.2742C20.9923 14.1393 21.0055 14.0039 21 13.8712C20.9762 13.2967 20.6024 12.7751 20.0311 12.5847L18 11.8877L12.9191 10.1442C12.6203 10.0481 12.3101 9.99999 12 10C11.6898 10 11.3797 10.0481 11.0809 10.1443L6 11.888L3.97008 12.5847C3.39025 12.7779 3.01375 13.3125 3.00037 13.8972C2.99752 14.0216 3.01109 14.1481 3.04261 14.2742C3.16045 14.7456 3.42648 15.1667 3.80155 15.4756Z" fill="black"/>
</g>
<path d="M15 6V3H9V6M12 10C11.6898 10 11.3797 10.0481 11.0809 10.1443L3.97008 12.5847C3.39025 12.7779 3.01375 13.3125 3.00037 13.8972C2.99752 14.0216 3.01109 14.1481 3.04261 14.2742C3.16045 14.7456 3.42648 15.1667 3.80155 15.4756C4.03623 15.6688 6.62324 18.0636 9 19.8462C9.34801 20.1072 9.81712 20.3683 10.2809 20.5977C10.8229 20.8659 11.4114 21 12 21C12.5886 21 13.1771 20.866 13.7191 20.5978C14.1829 20.3683 14.652 20.1073 15 19.8462C17.3768 18.0631 19.965 15.6688 20.1996 15.4756C20.5747 15.1667 20.8408 14.7456 20.9586 14.2742C20.9923 14.1393 21.0055 14.0039 21 13.8712C20.9762 13.2967 20.6024 12.7751 20.0311 12.5847L12.9191 10.1442C12.6203 10.0481 12.3101 9.99999 12 10ZM12 10V16M18 11.89V6H6V11.89" stroke="black" stroke-width="2" stroke-linecap="round" stroke-linejoin="round"/>
</svg>
