<svg width="24" height="24" viewBox="0 0 24 24" fill="none" xmlns="http://www.w3.org/2000/svg">
<g opacity="0.14">
<path d="M14 15H5C4.27513 15 3.6103 15.2571 3.09172 15.6851C3.06062 15.7107 3.03004 15.737 3 15.7639C2.38625 16.3132 2 17.1115 2 18C2 19.6569 3.34315 21 5 21H14C15.6569 21 17 19.6569 17 18C17 16.6938 16.1652 15.5825 15 15.1707C14.9874 15.1663 14.9748 15.1619 14.9622 15.1576C14.6602 15.0554 14.3365 15 14 15Z" fill="black"/>
<path d="M5 15H14C14.3365 15 14.6602 15.0554 14.9622 15.1576C14.9748 15.1619 14.9874 15.1663 15 15.1707V11H8L6 8H3V15.7639C3.03004 15.737 3.06062 15.7107 3.09172 15.6851C3.6103 15.2571 4.27513 15 5 15Z" fill="black"/>
</g>
<path d="M21.168 21.0547C21.4743 21.5142 22.0952 21.6384 22.5547 21.332C23.0142 21.0257 23.1384 20.4048 22.832 19.9453L21.168 21.0547ZM20.3359 18.0039L21.168 17.4491L20.3359 18.0039ZM20.3359 11.9962L21.1679 12.5509L20.3359 11.9962ZM22.8321 10.0547C23.1384 9.59517 23.0142 8.9743 22.5547 8.66795C22.0952 8.3616 21.4743 8.48577 21.1679 8.9453L22.8321 10.0547ZM20 16C20.5523 16 21 15.5523 21 15C21 14.4477 20.5523 14 20 14V16ZM16 14C15.4477 14 15 14.4477 15 15C15 15.5523 15.4477 16 16 16V14ZM2 15.7639C2 16.3162 2.44772 16.7639 3 16.7639C3.55228 16.7639 4 16.3162 4 15.7639H2ZM3 8V7C2.44772 7 2 7.44772 2 8H3ZM15 11H16C16 10.9182 15.99 10.8368 15.9701 10.7575L15 11ZM14 15.1707C14 15.723 14.4477 16.1707 15 16.1707C15.5523 16.1707 16 15.723 16 15.1707H14ZM8 11L7.16795 11.5547C7.35342 11.8329 7.66565 12 8 12V11ZM6 3V2C5.44772 2 5 2.44772 5 3H6ZM13.3787 4.51493L12.4086 4.75746V4.75746L13.3787 4.51493ZM5.5 17C4.94772 17 4.5 17.4477 4.5 18C4.5 18.5523 4.94772 19 5.5 19V17ZM5.509 19C6.06128 19 6.509 18.5523 6.509 18C6.509 17.4477 6.06128 17 5.509 17V19ZM9.5 17C8.94772 17 8.5 17.4477 8.5 18C8.5 18.5523 8.94772 19 9.5 19V17ZM9.509 19C10.0613 19 10.509 18.5523 10.509 18C10.509 17.4477 10.0613 17 9.509 17V19ZM13.5 17C12.9477 17 12.5 17.4477 12.5 18C12.5 18.5523 12.9477 19 13.5 19V17ZM13.509 19C14.0613 19 14.509 18.5523 14.509 18C14.509 17.4477 14.0613 17 13.509 17V19ZM22.832 19.9453L21.168 17.4491L19.5039 18.5586L21.168 21.0547L22.832 19.9453ZM21 16.8944V13.1056H19V16.8944H21ZM21.1679 12.5509L22.8321 10.0547L21.1679 8.9453L19.5038 11.4415L21.1679 12.5509ZM21 13.1056C21 12.9081 21.0584 12.7151 21.1679 12.5509L19.5038 11.4415C19.1753 11.9343 19 12.5133 19 13.1056H21ZM21.168 17.4491C21.0584 17.2849 21 17.0919 21 16.8944H19C19 17.4867 19.1753 18.0657 19.5039 18.5586L21.168 17.4491ZM20 14H16V16H20V14ZM5 16H14V14H5V16ZM14 20H5V22H14V20ZM5 20C3.89543 20 3 19.1046 3 18H1C1 20.2091 2.79086 22 5 22V20ZM16 18C16 19.1046 15.1046 20 14 20V22C16.2091 22 18 20.2091 18 18H16ZM14 16C15.1046 16 16 16.8954 16 18H18C18 15.7909 16.2091 14 14 14V16ZM5 14C2.79086 14 1 15.7909 1 18H3C3 16.8954 3.89543 16 5 16V14ZM4 15.7639V8H2V15.7639H4ZM14 11V15.1707H16V11H14ZM3 9H6V7H3V9ZM5.16795 8.5547L7.16795 11.5547L8.83205 10.4453L6.83205 7.4453L5.16795 8.5547ZM8 12H15V10H8V12ZM7 8V3H5V8H7ZM6 4H11.4384V2H6V4ZM12.4086 4.75746L14.0299 11.2425L15.9701 10.7575L14.3489 4.27239L12.4086 4.75746ZM11.4384 4C11.8973 4 12.2973 4.3123 12.4086 4.75746L14.3489 4.27239C14.015 2.93689 12.815 2 11.4384 2V4ZM5.5 19H5.509V17H5.5V19ZM9.5 19H9.509V17H9.5V19ZM13.5 19H13.509V17H13.5V19Z" fill="black"/>
</svg>
