<svg width="24" height="24" viewBox="0 0 24 24" fill="none" xmlns="http://www.w3.org/2000/svg">
<g opacity="0.14">
<path d="M6.80269 15C6.29218 14.1175 6 13.0929 6 12C6 10.9645 6.26233 9.9902 6.72417 9.14004C6.74974 9.09298 6.77591 9.04629 6.80269 9L2 10V14L6.80269 15Z" fill="black"/>
<path fill-rule="evenodd" clip-rule="evenodd" d="M17.1973 15C17.2241 14.9537 17.2503 14.907 17.2758 14.86C17.7377 14.0098 18 13.0355 18 12C18 10.9071 17.7078 9.88252 17.1973 9C16.1599 7.2066 14.2208 6 12 6C9.77915 6 7.84012 7.2066 6.80269 9C6.77591 9.04629 6.74974 9.09298 6.72417 9.14004C6.26233 9.9902 6 10.9645 6 12C6 13.0929 6.29218 14.1175 6.80269 15C7.84012 16.7934 9.77915 18 12 18C14.2208 18 16.1599 16.7934 17.1973 15ZM12 14C13.1046 14 14 13.1046 14 12C14 10.8954 13.1046 10 12 10C10.8954 10 10 10.8954 10 12C10 13.1046 10.8954 14 12 14Z" fill="black"/>
<path d="M18 12C18 13.0355 17.7377 14.0098 17.2758 14.86C17.2503 14.907 17.2241 14.9537 17.1973 15L22 14V10L17.1973 9C17.7078 9.88252 18 10.9071 18 12Z" fill="black"/>
</g>
<path d="M2 21V3M22 21V3M6.80269 9L2 10M6.80269 15L2 14M17.1973 9L22 10M17.1973 15L22 14M18 12C18 15.3137 15.3137 18 12 18C8.68629 18 6 15.3137 6 12C6 8.68629 8.68629 6 12 6C15.3137 6 18 8.68629 18 12ZM14 12C14 13.1046 13.1046 14 12 14C10.8954 14 10 13.1046 10 12C10 10.8954 10.8954 10 12 10C13.1046 10 14 10.8954 14 12Z" stroke="black" stroke-width="2" stroke-linecap="round"/>
</svg>
