<svg width="24" height="24" viewBox="0 0 24 24" fill="none" xmlns="http://www.w3.org/2000/svg">
<g opacity="0.14">
<path d="M12.6172 3H11.3861C10.8804 3 10.4542 3.3776 10.3934 3.87967L9.5 11.2501V12V19.5H14.5V12V11L13.6095 3.87597C13.5469 3.37554 13.1215 3 12.6172 3Z" fill="black"/>
<path d="M7 19.5V14H3V17L7 19.5Z" fill="black"/>
<path d="M17 14V19.5L21 17V14H17Z" fill="black"/>
</g>
<path d="M9.5 19.5V11.2501L10.3934 3.87967C10.4542 3.3776 10.8804 3 11.3861 3H12.6172C13.1215 3 13.5469 3.37554 13.6095 3.87597L14.5 11V19.5M9.5 19.5H14.5M9.5 19.5H7M9.5 19.5V21M14.5 19.5H17M14.5 19.5V21M7 19.5V12H9.5M7 19.5L3 17V14H7M17 19.5V12H14.5M17 19.5L21 17V14H17M3 19.5V6M21 19.5V6M2 8H4M20 8H22M12 14V12" stroke="black" stroke-width="2" stroke-linecap="round" stroke-linejoin="round"/>
</svg>
