<svg width="24" height="24" viewBox="0 0 24 24" fill="none" xmlns="http://www.w3.org/2000/svg">
<g opacity="0.14">
<path d="M21 19.5V14.6996C21 14.0666 21 13.7501 20.9516 13.4418C20.9086 13.168 20.8373 12.8995 20.7388 12.6404C20.6278 12.3487 20.4708 12.0739 20.1568 11.5243L19.6452 10.629L18.445 11.6292C18.2802 11.7665 18.1978 11.8352 18.1053 11.8841C18.0233 11.9274 17.9356 11.9592 17.8449 11.9784C17.7425 12 17.6353 12 17.4207 12H6.57928C6.36473 12 6.25746 12 6.15513 11.9784C6.06436 11.9592 5.9767 11.9274 5.89468 11.8841C5.80221 11.8352 5.7198 11.7665 5.55499 11.6292L4.35484 10.629L3.84324 11.5243C3.5292 12.0739 3.37217 12.3487 3.26123 12.6404C3.16272 12.8995 3.0914 13.168 3.04841 13.4418C3 13.7501 3 14.0666 3 14.6996V19.5C3 19.9659 3 20.1989 3.07612 20.3827C3.17761 20.6277 3.37229 20.8224 3.61732 20.9239C3.80109 21 4.03406 21 4.5 21C4.96594 21 5.19891 21 5.38268 20.9239C5.62771 20.8224 5.82239 20.6277 5.92388 20.3827C6 20.1989 6 19.9659 6 19.5V19H18V19.5C18 19.9659 18 20.1989 18.0761 20.3827C18.1776 20.6277 18.3723 20.8224 18.6173 20.9239C18.8011 21 19.0341 21 19.5 21C19.9659 21 20.1989 21 20.3827 20.9239C20.6277 20.8224 20.8224 20.6277 20.9239 20.3827C21 20.1989 21 19.9659 21 19.5Z" fill="black"/>
<path d="M13.5 3H10.5C9.39543 3 8.5 3.89543 8.5 5C8.5 5.55228 8.94772 6 9.5 6H14.5C15.0523 6 15.5 5.55228 15.5 5C15.5 3.89543 14.6046 3 13.5 3Z" fill="black"/>
</g>
<path d="M17.9213 7.61236L17.0531 8.10849V8.10849L17.9213 7.61236ZM20.1568 11.5243L21.025 11.0282H21.025L20.1568 11.5243ZM18 19H19C19 18.4477 18.5523 18 18 18V19ZM6 19V18C5.44772 18 5 18.4477 5 19H6ZM3.84324 11.5243L4.71149 12.0205L4.71149 12.0205L3.84324 11.5243ZM6.07865 7.61236L6.9469 8.10849L6.07865 7.61236ZM3.04841 13.4418L4.03631 13.5969H4.03631L3.04841 13.4418ZM3.26123 12.6404L4.19592 12.9959L3.26123 12.6404ZM3.61732 20.9239L3.23463 21.8478H3.23463L3.61732 20.9239ZM3.07612 20.3827L2.15224 20.7654L2.15224 20.7654L3.07612 20.3827ZM5.92388 20.3827L6.84776 20.7654L6.84776 20.7654L5.92388 20.3827ZM5.38268 20.9239L5.76537 21.8478L5.38268 20.9239ZM18.6173 20.9239L18.2346 21.8478H18.2346L18.6173 20.9239ZM18.0761 20.3827L17.1522 20.7654V20.7654L18.0761 20.3827ZM20.9239 20.3827L21.8478 20.7654V20.7654L20.9239 20.3827ZM20.3827 20.9239L20 20H20L20.3827 20.9239ZM20.7388 12.6404L19.8041 12.9959L19.8041 12.9959L20.7388 12.6404ZM20.9516 13.4418L19.9637 13.5969V13.5969L20.9516 13.4418ZM16.4599 6.09871L16.1496 7.04936H16.1496L16.4599 6.09871ZM17.1822 6.51789L17.8537 5.77683L17.8537 5.77683L17.1822 6.51789ZM7.54007 6.09871L7.22978 5.14807L7.22978 5.14807L7.54007 6.09871ZM6.81776 6.51789L7.4892 7.25894L6.81776 6.51789ZM3.64018 8.73178C3.21591 8.37821 2.58534 8.43554 2.23178 8.85982C1.87821 9.28409 1.93554 9.91466 2.35982 10.2682L3.64018 8.73178ZM5.55499 11.6292L6.19517 10.8609L6.19517 10.8609L5.55499 11.6292ZM18.445 11.6292L17.8048 10.8609L17.8048 10.8609L18.445 11.6292ZM21.6402 10.2682C22.0645 9.91466 22.1218 9.28409 21.7682 8.85982C21.4147 8.43554 20.7841 8.37821 20.3598 8.73178L21.6402 10.2682ZM17.8449 11.9784L18.0518 12.9567L17.8449 11.9784ZM18.1053 11.8841L17.6379 11L17.6379 11L18.1053 11.8841ZM5.89468 11.8841L6.36205 11H6.36205L5.89468 11.8841ZM6.15513 11.9784L5.94822 12.9567H5.94822L6.15513 11.9784ZM7.5 6C7.5 6.55228 7.94772 7 8.5 7C9.05228 7 9.5 6.55228 9.5 6H7.5ZM14.5 6C14.5 6.55228 14.9477 7 15.5 7C16.0523 7 16.5 6.55228 16.5 6H14.5ZM6.5 14.5C5.94772 14.5 5.5 14.9477 5.5 15.5C5.5 16.0523 5.94772 16.5 6.5 16.5V14.5ZM6.51 16.5C7.06229 16.5 7.51 16.0523 7.51 15.5C7.51 14.9477 7.06229 14.5 6.51 14.5V16.5ZM17.5 14.5C16.9477 14.5 16.5 14.9477 16.5 15.5C16.5 16.0523 16.9477 16.5 17.5 16.5V14.5ZM17.51 16.5C18.0623 16.5 18.51 16.0523 18.51 15.5C18.51 14.9477 18.0623 14.5 17.51 14.5V16.5ZM8.85703 7H15.143V5H8.85703V7ZM17.0531 8.10849L19.2885 12.0205L21.025 11.0282L18.7896 7.11622L17.0531 8.10849ZM20 14.6996V19.5H22V14.6996H20ZM19 19.5V19H17V19.5H19ZM18 18H6V20H18V18ZM5 19V19.5H7V19H5ZM4 19.5V14.6996H2V19.5H4ZM4.71149 12.0205L6.9469 8.10849L5.21041 7.11622L2.975 11.0282L4.71149 12.0205ZM4 14.6996C4 14.0365 4.00277 13.8105 4.03631 13.5969L2.06052 13.2867C1.99723 13.6898 2 14.0967 2 14.6996H4ZM2.975 11.0282C2.67588 11.5516 2.47157 11.9036 2.32654 12.285L4.19592 12.9959C4.27277 12.7938 4.38251 12.5962 4.71149 12.0205L2.975 11.0282ZM4.03631 13.5969C4.06855 13.3916 4.12204 13.1902 4.19592 12.9959L2.32654 12.285C2.2034 12.6088 2.11425 12.9445 2.06052 13.2867L4.03631 13.5969ZM4.5 20C4.25335 20 4.11844 19.9995 4.02092 19.9928C3.93237 19.9868 3.94973 19.9792 4 20L3.23463 21.8478C3.46868 21.9447 3.6944 21.9752 3.88477 21.9882C4.06616 22.0005 4.28071 22 4.5 22V20ZM2 19.5C2 19.7193 1.99946 19.9338 2.01183 20.1152C2.02482 20.3056 2.0553 20.5313 2.15224 20.7654L4 20C4.02082 20.0503 4.01324 20.0676 4.0072 19.9791C4.00054 19.8816 4 19.7467 4 19.5H2ZM4 20L4 20L2.15224 20.7654C2.35523 21.2554 2.74457 21.6448 3.23463 21.8478L4 20ZM5 19.5C5 19.7467 4.99946 19.8816 4.9928 19.9791C4.98676 20.0676 4.97918 20.0503 5 20L6.84776 20.7654C6.9447 20.5313 6.97518 20.3056 6.98817 20.1152C7.00054 19.9338 7 19.7193 7 19.5H5ZM4.5 22C4.71929 22 4.93384 22.0005 5.11523 21.9882C5.3056 21.9752 5.53132 21.9447 5.76537 21.8478L5 20C5.05027 19.9792 5.06763 19.9868 4.97908 19.9928C4.88156 19.9995 4.74665 20 4.5 20V22ZM5 20V20L5.76537 21.8478C6.25543 21.6448 6.64477 21.2554 6.84776 20.7654L5 20ZM19.5 20C19.2533 20 19.1184 19.9995 19.0209 19.9928C18.9324 19.9868 18.9497 19.9792 19 20L18.2346 21.8478C18.4687 21.9447 18.6944 21.9752 18.8848 21.9882C19.0662 22.0005 19.2807 22 19.5 22V20ZM17 19.5C17 19.7193 16.9995 19.9338 17.0118 20.1152C17.0248 20.3056 17.0553 20.5313 17.1522 20.7654L19 20C19.0208 20.0503 19.0132 20.0676 19.0072 19.9791C19.0005 19.8816 19 19.7467 19 19.5H17ZM19 20V20L17.1522 20.7654C17.3552 21.2554 17.7446 21.6448 18.2346 21.8478L19 20ZM20 19.5C20 19.7467 19.9995 19.8816 19.9928 19.9791C19.9868 20.0676 19.9792 20.0503 20 20L21.8478 20.7654C21.9447 20.5313 21.9752 20.3056 21.9882 20.1152C22.0005 19.9338 22 19.7193 22 19.5H20ZM19.5 22C19.7193 22 19.9338 22.0005 20.1152 21.9882C20.3056 21.9752 20.5313 21.9447 20.7654 21.8478L20 20C20.0503 19.9792 20.0676 19.9868 19.9791 19.9928C19.8816 19.9995 19.7467 20 19.5 20V22ZM20 20L20 20L20.7654 21.8478C21.2554 21.6448 21.6448 21.2554 21.8478 20.7654L20 20ZM19.2885 12.0205C19.6175 12.5962 19.7272 12.7938 19.8041 12.9959L21.6735 12.285C21.5284 11.9036 21.3241 11.5516 21.025 11.0282L19.2885 12.0205ZM22 14.6996C22 14.0967 22.0028 13.6898 21.9395 13.2867L19.9637 13.5969C19.9972 13.8105 20 14.0365 20 14.6996H22ZM19.8041 12.9959C19.878 13.1902 19.9314 13.3916 19.9637 13.5969L21.9395 13.2867C21.8857 12.9445 21.7966 12.6088 21.6735 12.285L19.8041 12.9959ZM15.143 7C15.8871 7 16.0343 7.01172 16.1496 7.04936L16.7702 5.14807C16.2806 4.98828 15.7515 5 15.143 5V7ZM18.7896 7.11622C18.4877 6.58787 18.2353 6.12262 17.8537 5.77683L16.5108 7.25894C16.6007 7.34038 16.6839 7.46237 17.0531 8.10849L18.7896 7.11622ZM16.1496 7.04936C16.2834 7.09303 16.4065 7.16445 16.5108 7.25894L17.8537 5.77683C17.5408 5.49334 17.1716 5.27908 16.7702 5.14807L16.1496 7.04936ZM8.85703 5C8.2485 5 7.71935 4.98828 7.22978 5.14807L7.85036 7.04936C7.96566 7.01172 8.11286 7 8.85703 7V5ZM6.9469 8.10849C7.31611 7.46237 7.39932 7.34038 7.4892 7.25894L6.14631 5.77683C5.76468 6.12262 5.51233 6.58787 5.21041 7.11622L6.9469 8.10849ZM7.22978 5.14807C6.82841 5.27908 6.4592 5.49334 6.14631 5.77683L7.4892 7.25894C7.5935 7.16445 7.71657 7.09303 7.85036 7.04936L7.22978 5.14807ZM2.35982 10.2682L4.9148 12.3974L6.19517 10.8609L3.64018 8.73178L2.35982 10.2682ZM6.57928 13H17.4207V11H6.57928V13ZM19.0852 12.3974L21.6402 10.2682L20.3598 8.73178L17.8048 10.8609L19.0852 12.3974ZM17.4207 13C17.5939 13 17.8235 13.005 18.0518 12.9567L17.6379 11C17.66 10.9953 17.6674 10.9968 17.6342 10.9981C17.5927 10.9998 17.5357 11 17.4207 11V13ZM17.8048 10.8609C17.7165 10.9345 17.6726 10.9709 17.6396 10.9961C17.6133 11.0164 17.6181 11.0105 17.6379 11L18.5727 12.7681C18.779 12.659 18.9522 12.5082 19.0852 12.3974L17.8048 10.8609ZM18.0518 12.9567C18.2333 12.9183 18.4087 12.8548 18.5727 12.7681L17.6379 11L17.6379 11L18.0518 12.9567ZM4.9148 12.3974C5.04783 12.5082 5.22099 12.659 5.4273 12.7681L6.36205 11C6.38193 11.0105 6.38673 11.0164 6.36036 10.9961C6.32743 10.9709 6.28351 10.9345 6.19517 10.8609L4.9148 12.3974ZM6.57928 11C6.46429 11 6.40726 10.9998 6.36581 10.9981C6.33262 10.9968 6.34004 10.9953 6.36205 11L5.94822 12.9567C6.17654 13.005 6.40613 13 6.57928 13V11ZM5.4273 12.7681C5.59135 12.8548 5.76667 12.9183 5.94822 12.9567L6.36205 11L6.36205 11L5.4273 12.7681ZM9.5 6V5H7.5V6H9.5ZM10.5 4H13.5V2H10.5V4ZM14.5 5V6H16.5V5H14.5ZM13.5 4C14.0523 4 14.5 4.44772 14.5 5H16.5C16.5 3.34315 15.1569 2 13.5 2V4ZM9.5 5C9.5 4.44772 9.94772 4 10.5 4V2C8.84315 2 7.5 3.34315 7.5 5H9.5ZM6 15.5C6 15.2239 6.22386 15 6.5 15V17C7.32843 17 8 16.3284 8 15.5H6ZM6.5 15C6.77614 15 7 15.2239 7 15.5H5C5 16.3284 5.67157 17 6.5 17V15ZM7 15.5C7 15.7761 6.77614 16 6.5 16V14C5.67157 14 5 14.6716 5 15.5H7ZM6.5 16C6.22386 16 6 15.7761 6 15.5H8C8 14.6716 7.32843 14 6.5 14V16ZM17 15.5C17 15.2239 17.2239 15 17.5 15V17C18.3284 17 19 16.3284 19 15.5H17ZM17.5 15C17.7761 15 18 15.2239 18 15.5H16C16 16.3284 16.6716 17 17.5 17V15ZM18 15.5C18 15.7761 17.7761 16 17.5 16V14C16.6716 14 16 14.6716 16 15.5H18ZM17.5 16C17.2239 16 17 15.7761 17 15.5H19C19 14.6716 18.3284 14 17.5 14V16ZM6.5 16.5H6.51V14.5H6.5V16.5ZM17.5 16.5H17.51V14.5H17.5V16.5Z" fill="black"/>
</svg>
