<svg width="24" height="24" viewBox="0 0 24 24" fill="none" xmlns="http://www.w3.org/2000/svg">
<g opacity="0.14">
<path d="M16.001 16H16.4394C17.3571 16 18.1571 15.3754 18.3797 14.4851L19.6903 9.24254C19.8481 8.61139 19.3708 8 18.7202 8H15.001H9.00097H5.28174C4.63117 8 4.15381 8.61139 4.3116 9.24254L5.62223 14.4851C5.84482 15.3754 6.64478 16 7.56252 16H8.00097H16.001Z" fill="black"/>
<path d="M12.001 5H9.00097V8H15.001V5H12.001Z" fill="black"/>
<path d="M14.001 22C15.1055 22 16.001 21.1046 16.001 20V16H8.00097V20C8.00097 21.1046 8.8964 22 10.001 22H14.001Z" fill="black"/>
</g>
<path d="M8.00097 22V16M16.001 22V16M19.001 16H5.00097M6.00097 16L4.3116 9.24254C4.15381 8.61139 4.63117 8 5.28174 8H18.7202C19.3708 8 19.8481 8.61139 19.6903 9.24254L18.001 16M9.00097 16V5H15.001V16M12.001 5V2M14.001 2H10.001" stroke="black" stroke-width="2" stroke-linecap="round" stroke-linejoin="round"/>
</svg>
