<svg width="24" height="24" viewBox="0 0 24 24" fill="none" xmlns="http://www.w3.org/2000/svg">
<g opacity="0.14">
<path d="M19 17L22 15.2857V11H18.5H14H7.71429C8.10877 11 8.42857 11.3198 8.42857 11.7143V12.5511L9.0203 11.9594C9.29924 11.6804 9.7515 11.6804 10.0304 11.9594L11.0406 12.9695C11.3195 13.2485 11.3195 13.7007 11.0406 13.9797L10.4489 14.5714H11.2857C11.6802 14.5714 12 14.8912 12 15.2857V16.7143C12 16.8159 11.9788 16.9125 11.9406 17H18H19Z" fill="black"/>
<path fill-rule="evenodd" clip-rule="evenodd" d="M7.71429 11H6.28571C5.89123 11 5.57143 11.3198 5.57143 11.7143V12.5511L4.97969 11.9594C4.70074 11.6804 4.24848 11.6804 3.96953 11.9594L2.95938 12.9695C2.68044 13.2485 2.68044 13.7007 2.95938 13.9797L3.55112 14.5714H2.71429C2.3198 14.5714 2 14.8912 2 15.2857V16.7143C2 17.1088 2.3198 17.4286 2.71429 17.4286H3.55112L2.95938 18.0203C2.68044 18.2993 2.68044 18.7515 2.95938 19.0305L3.96953 20.0406C4.24848 20.3196 4.70074 20.3196 4.97969 20.0406L5.57143 19.4489V20.2857C5.57143 20.6802 5.89123 21 6.28571 21H7.71429C8.10877 21 8.42857 20.6802 8.42857 20.2857V19.4489L9.0203 20.0406C9.29924 20.3196 9.7515 20.3196 10.0304 20.0406L11.0406 19.0305C11.3195 18.7515 11.3195 18.2993 11.0406 18.0203L10.4489 17.4286H11.2857C11.5786 17.4286 11.8303 17.2523 11.9406 17C11.9788 16.9125 12 16.8159 12 16.7143V15.2857C12 14.8912 11.6802 14.5714 11.2857 14.5714H10.4489L11.0406 13.9797C11.3195 13.7007 11.3195 13.2485 11.0406 12.9695L10.0304 11.9594C9.7515 11.6804 9.29924 11.6804 9.0203 11.9594L8.42857 12.5511V11.7143C8.42857 11.3198 8.10877 11 7.71429 11ZM7 17C7.55228 17 8 16.5523 8 16C8 15.4477 7.55228 15 7 15C6.44772 15 6 15.4477 6 16C6 16.5523 6.44772 17 7 17Z" fill="black"/>
<path d="M18 21C19.1046 21 20 20.1046 20 19C20 17.8954 19.1046 17 18 17C16.8954 17 16 17.8954 16 19C16 20.1046 16.8954 21 18 21Z" fill="black"/>
</g>
<path d="M12 17H19L22 15.2857V11H5V5H11L14 11M18.5 11V9.10555C18.5 8.10249 19.0013 7.1658 19.8359 6.6094L20 6.5M8 16C8 16.5523 7.55228 17 7 17C6.44772 17 6 16.5523 6 16C6 15.4477 6.44772 15 7 15C7.55228 15 8 15.4477 8 16ZM2.71429 14.5714H3.55112L2.95938 13.9797C2.68044 13.7007 2.68044 13.2485 2.95938 12.9695L3.96953 11.9594C4.24848 11.6804 4.70074 11.6804 4.97969 11.9594L5.57143 12.5511V11.7143C5.57143 11.3198 5.89123 11 6.28571 11H7.71429C8.10877 11 8.42857 11.3198 8.42857 11.7143V12.5511L9.0203 11.9594C9.29924 11.6804 9.7515 11.6804 10.0304 11.9594L11.0406 12.9695C11.3195 13.2485 11.3195 13.7007 11.0406 13.9797L10.4489 14.5714H11.2857C11.6802 14.5714 12 14.8912 12 15.2857V16.7143C12 17.1088 11.6802 17.4286 11.2857 17.4286H10.4489L11.0406 18.0203C11.3195 18.2993 11.3195 18.7515 11.0406 19.0305L10.0304 20.0406C9.7515 20.3196 9.29924 20.3196 9.0203 20.0406L8.42857 19.4489V20.2857C8.42857 20.6802 8.10877 21 7.71429 21H6.28571C5.89123 21 5.57143 20.6802 5.57143 20.2857V19.4489L4.97969 20.0406C4.70074 20.3196 4.24848 20.3196 3.96953 20.0406L2.95938 19.0305C2.68044 18.7515 2.68044 18.2993 2.95938 18.0203L3.55112 17.4286H2.71429C2.3198 17.4286 2 17.1088 2 16.7143V15.2857C2 14.8912 2.3198 14.5714 2.71429 14.5714ZM20 19C20 20.1046 19.1046 21 18 21C16.8954 21 16 20.1046 16 19C16 17.8954 16.8954 17 18 17C19.1046 17 20 17.8954 20 19Z" stroke="black" stroke-width="2" stroke-linecap="round" stroke-linejoin="round"/>
</svg>
