<svg width="24" height="24" viewBox="0 0 24 24" fill="none" xmlns="http://www.w3.org/2000/svg">
<g opacity="0.14">
<path d="M7 15.5C7 16.8807 5.88071 18 4.5 18C3.11929 18 2 16.8807 2 15.5C2 14.1193 3.11929 13 4.5 13C5.88071 13 7 14.1193 7 15.5Z" fill="black"/>
<path d="M11 16.5C11 17.8807 9.88071 19 8.5 19C7.11929 19 6 17.8807 6 16.5C6 15.1193 7.11929 14 8.5 14C9.88071 14 11 15.1193 11 16.5Z" fill="black"/>
<path d="M22 16.5C22 17.8807 20.8807 19 19.5 19C18.1193 19 17 17.8807 17 16.5C17 15.1193 18.1193 14 19.5 14C20.8807 14 22 15.1193 22 16.5Z" fill="black"/>
</g>
<path d="M2.17889 11.5163C1.63551 11.4175 1.11493 11.7779 1.01613 12.3212C0.917334 12.8646 1.27774 13.3852 1.82111 13.484L2.17889 11.5163ZM13 14.5001L12.8211 15.484C13.2138 15.5554 13.6114 15.3864 13.8325 15.0541L13 14.5001ZM17.0579 10.2073C17.3639 9.74756 17.2392 9.12679 16.7795 8.82081C16.3197 8.51484 15.6989 8.63952 15.3929 9.09931L17.0579 10.2073ZM3.04176 9.08352L3.93619 8.63631L3.04176 9.08352ZM2.89443 6.55279C2.64744 6.05881 2.04676 5.85858 1.55279 6.10557C1.05881 6.35256 0.858584 6.95324 1.10557 7.44721L2.89443 6.55279ZM4.51152 10.1635L4.67107 9.17629L4.51152 10.1635ZM6.84045 11.5528C7.38566 11.641 7.89908 11.2704 7.98719 10.7252C8.07531 10.18 7.70476 9.66658 7.15955 9.57847L6.84045 11.5528ZM18.5979 16.9315C18.8362 17.4297 19.4332 17.6404 19.9315 17.4021C20.4297 17.1638 20.6404 16.5668 20.4021 16.0685L18.5979 16.9315ZM14.5438 6.13709L13.6417 6.56854V6.56854L14.5438 6.13709ZM11 4C10.4477 4 10 4.44772 10 5C10 5.55228 10.4477 6 11 6V4ZM21 16.5C21 17.3284 20.3284 18 19.5 18V20C21.433 20 23 18.433 23 16.5H21ZM19.5 18C18.6716 18 18 17.3284 18 16.5H16C16 18.433 17.567 20 19.5 20V18ZM18 16.5C18 15.6716 18.6716 15 19.5 15V13C17.567 13 16 14.567 16 16.5H18ZM19.5 15C20.3284 15 21 15.6716 21 16.5H23C23 14.567 21.433 13 19.5 13V15ZM9.99978 16.1816C9.99978 17.0101 9.32821 17.6816 8.49978 17.6816V19.6816C10.4328 19.6816 11.9998 18.1146 11.9998 16.1816H9.99978ZM8.49978 17.6816C7.85706 17.6816 7.30634 17.2769 7.09336 16.7051L5.21914 17.4032C5.71418 18.7323 6.99485 19.6816 8.49978 19.6816V17.6816ZM7.50617 15.0579C7.77142 14.8231 8.11787 14.6816 8.49978 14.6816V12.6816C7.61091 12.6816 6.79732 13.0143 6.18045 13.5604L7.50617 15.0579ZM9.02994 14.7777C9.59829 14.9925 9.99978 15.5415 9.99978 16.1816H11.9998C11.9998 14.6826 11.0579 13.4061 9.73703 12.9069L9.02994 14.7777ZM6 15.5C6 16.3284 5.32843 17 4.5 17V19C6.433 19 8 17.433 8 15.5H6ZM4.5 17C3.67157 17 3 16.3284 3 15.5H1C1 17.433 2.567 19 4.5 19V17ZM3 15.5C3 14.6716 3.67157 14 4.5 14V12C2.567 12 1 13.567 1 15.5H3ZM4.5 14C5.32843 14 6 14.6716 6 15.5H8C8 13.567 6.433 12 4.5 12V14ZM1.82111 13.484L12.8211 15.484L13.1789 13.5163L2.17889 11.5163L1.82111 13.484ZM13.8325 15.0541L17.0579 10.2073L15.3929 9.09931L12.1675 13.9461L13.8325 15.0541ZM3.93619 8.63631L2.89443 6.55279L1.10557 7.44721L2.14734 9.53074L3.93619 8.63631ZM4.35198 11.1507L6.84045 11.5528L7.15955 9.57847L4.67107 9.17629L4.35198 11.1507ZM2.14734 9.53074C2.5789 10.3939 3.39933 10.9967 4.35198 11.1507L4.67107 9.17629C4.35352 9.12497 4.08005 8.92402 3.93619 8.63631L2.14734 9.53074ZM20.4021 16.0685L15.446 5.70563L13.6417 6.56854L18.5979 16.9315L20.4021 16.0685ZM12.7396 4H11V6H12.7396V4ZM15.446 5.70563C14.9475 4.6634 13.8949 4 12.7396 4V6C13.1247 6 13.4755 6.22113 13.6417 6.56854L15.446 5.70563Z" fill="black"/>
</svg>
