<svg width="24" height="24" viewBox="0 0 24 24" fill="none" xmlns="http://www.w3.org/2000/svg">
<g opacity="0.14">
<path d="M9 17.5C9 19.433 7.433 21 5.5 21C3.567 21 2 19.433 2 17.5C2 15.567 3.567 14 5.5 14C7.433 14 9 15.567 9 17.5Z" fill="black"/>
<path d="M22 16.5C22 18.9853 19.9853 21 17.5 21C15.0147 21 13 18.9853 13 16.5C13 14.0147 15.0147 12 17.5 12C19.9853 12 22 14.0147 22 16.5Z" fill="black"/>
</g>
<path d="M17.5 16.5L14 9M14 9H10.5C7.73858 9 5.5 11.2386 5.5 14M14 9L16.9751 7.51246C17.6032 7.19839 18 6.55638 18 5.8541C18 4.83011 17.1699 4 16.1459 4H12M5.5 14C3.567 14 2 15.567 2 17.5C2 19.433 3.567 21 5.5 21C7.433 21 9 19.433 9 17.5C9 15.567 7.433 14 5.5 14ZM6.49963 11L5 7M3 7H7M22 16.5C22 18.9853 19.9853 21 17.5 21C15.0147 21 13 18.9853 13 16.5C13 14.0147 15.0147 12 17.5 12C19.9853 12 22 14.0147 22 16.5Z" stroke="black" stroke-width="2" stroke-linecap="round"/>
</svg>
