<svg width="24" height="24" viewBox="0 0 24 24" fill="none" xmlns="http://www.w3.org/2000/svg">
<path opacity="0.14" d="M16 16C16 14.8954 16.8954 14 18 14C19.1046 14 20 14.8954 20 16H22V10H15V16H16Z" fill="black"/>
<path d="M15 6V5C14.4477 5 14 5.44772 14 6H15ZM19 6L19.8 5.4C19.6111 5.14819 19.3148 5 19 5V6ZM14 16C14 16.5523 14.4477 17 15 17C15.5523 17 16 16.5523 16 16H14ZM22 10H23C23 9.78363 22.9298 9.5731 22.8 9.4L22 10ZM22 16V17C22.5523 17 23 16.5523 23 16H22ZM20.5 15C19.9477 15 19.5 15.4477 19.5 16C19.5 16.5523 19.9477 17 20.5 17V15ZM2 15C1.44772 15 1 15.4477 1 16C1 16.5523 1.44772 17 2 17V15ZM15 9C14.4477 9 14 9.44772 14 10C14 10.5523 14.4477 11 15 11V9ZM19 16C19 16.5523 18.5523 17 18 17V19C19.6569 19 21 17.6569 21 16H19ZM18 17C17.4477 17 17 16.5523 17 16H15C15 17.6569 16.3431 19 18 19V17ZM17 16C17 15.4477 17.4477 15 18 15V13C16.3431 13 15 14.3431 15 16H17ZM18 15C18.5523 15 19 15.4477 19 16H21C21 14.3431 19.6569 13 18 13V15ZM8 16C8 16.5523 7.55228 17 7 17V19C8.65685 19 10 17.6569 10 16H8ZM7 17C6.44772 17 6 16.5523 6 16H4C4 17.6569 5.34315 19 7 19V17ZM6 16C6 15.4477 6.44772 15 7 15V13C5.34315 13 4 14.3431 4 16H6ZM7 15C7.55228 15 8 15.4477 8 16H10C10 14.3431 8.65685 13 7 13V15ZM15 7H19V5H15V7ZM16 16V6H14V16H16ZM18.2 6.6L21.2 10.6L22.8 9.4L19.8 5.4L18.2 6.6ZM21 10V16H23V10H21ZM20.5 17H22V15H20.5V17ZM16 15H9V17H16V15ZM5 15H2V17H5V15ZM22 9H15V11H22V9Z" fill="black"/>
</svg>
