<svg width="24" height="24" viewBox="0 0 24 24" fill="none" xmlns="http://www.w3.org/2000/svg">
<path opacity="0.14" d="M12 19.9999C17.5228 19.9999 22 17.7613 22 14.9999C22 13.3032 20.3098 11.8038 17.7253 10.8999C16.9607 12.117 14.6865 12.9999 12 12.9999C9.31346 12.9999 7.03931 12.117 6.27472 10.8999C3.69023 11.8039 2 13.3032 2 14.9999C2 17.7613 6.47715 19.9999 12 19.9999Z" fill="black"/>
<path d="M6.27472 10.9L7.12149 10.3681L6.6973 9.69283L5.94457 9.9561L6.27472 10.9ZM17.7253 10.9L18.0554 9.95609L17.3027 9.69282L16.8785 10.3681L17.7253 10.9ZM6 14C5.44772 14 5 14.4477 5 15C5 15.5523 5.44772 16 6 16V14ZM6.009 16C6.56128 16 7.009 15.5523 7.009 15C7.009 14.4477 6.56128 14 6.009 14V16ZM12 16C11.4477 16 11 16.4477 11 17C11 17.5523 11.4477 18 12 18V16ZM12.009 18C12.5613 18 13.009 17.5523 13.009 17C13.009 16.4477 12.5613 16 12.009 16V18ZM18 14C17.4477 14 17 14.4477 17 15C17 15.5523 17.4477 16 18 16V14ZM18.009 16C18.5613 16 19.009 15.5523 19.009 15C19.009 14.4477 18.5613 14 18.009 14V16ZM21 15C21 15.7979 20.3272 16.7894 18.6239 17.6411C16.9803 18.4628 14.6398 19 12 19V21C14.883 21 17.5425 20.4178 19.5183 19.4299C21.4342 18.472 23 16.9635 23 15H21ZM12 19C9.36016 19 7.01967 18.4628 5.37615 17.6411C3.67281 16.7894 3 15.7979 3 15H1C1 16.9635 2.56577 18.472 4.48172 19.4299C6.45748 20.4178 9.11699 21 12 21V19ZM12 12C10.7603 12 9.64037 11.7955 8.766 11.4694C7.86589 11.1338 7.33846 10.7135 7.12149 10.3681L5.42794 11.432C5.97556 12.3037 6.9675 12.9333 8.06725 13.3434C9.19274 13.7631 10.5531 14 12 14V12ZM3 15C3 14.5084 3.24088 13.956 3.85258 13.3818C4.46715 12.8049 5.40038 12.2652 6.60486 11.844L5.94457 9.9561C4.56456 10.4388 3.36043 11.1007 2.48377 11.9236C1.60424 12.7492 1 13.7948 1 15H3ZM16.8785 10.3681C16.6615 10.7135 16.1341 11.1338 15.234 11.4694C14.3596 11.7955 13.2397 12 12 12V14C13.4469 14 14.8073 13.7631 15.9328 13.3434C17.0325 12.9333 18.0244 12.3037 18.5721 11.432L16.8785 10.3681ZM17.3951 11.844C18.5996 12.2652 19.5328 12.8049 20.1474 13.3818C20.7591 13.956 21 14.5084 21 15H23C23 13.7948 22.3958 12.7492 21.5162 11.9236C20.6396 11.1007 19.4354 10.4388 18.0554 9.95609L17.3951 11.844ZM7 10C7 7.23858 9.23858 5 12 5V3C8.13401 3 5 6.13401 5 10H7ZM12 5C14.7614 5 17 7.23858 17 10H19C19 6.13401 15.866 3 12 3V5ZM17 10C17 10.2456 16.7749 10.7371 15.7954 11.2269C14.8758 11.6867 13.5353 12 12 12V14C13.7784 14 15.4379 13.6417 16.6898 13.0157C17.8819 12.4197 19 11.4113 19 10H17ZM12 12C10.4647 12 9.12424 11.6867 8.20457 11.2269C7.22509 10.7371 7 10.2456 7 10H5C5 11.4113 6.11806 12.4197 7.31015 13.0157C8.56205 13.6417 10.2216 14 12 14V12ZM6 16H6.009V14H6V16ZM12 18H12.009V16H12V18ZM18 16H18.009V14H18V16Z" fill="black"/>
</svg>
