<svg width="24" height="24" viewBox="0 0 24 24" fill="none" xmlns="http://www.w3.org/2000/svg">
<path fill-rule="evenodd" clip-rule="evenodd" d="M5.83205 4.44541C5.5257 3.98588 4.90483 3.8617 4.4453 4.16806C3.98577 4.47441 3.8616 5.09528 4.16795 5.55481L5.86596 8.10183C3.51346 9.93148 2 12.789 2 16.0001V19.0001C2 19.5524 2.44772 20.0001 3 20.0001H21C21.5523 20.0001 22 19.5524 22 19.0001V16.0001C22 12.7886 20.4855 9.93138 18.1352 8.10286L19.8339 5.55481C20.1403 5.09528 20.0161 4.47441 19.5566 4.16806C19.0971 3.8617 18.4762 3.98588 18.1698 4.44541L16.4413 7.03825C15.1025 6.37366 13.5939 6.00011 12 6.00011C10.4053 6.00011 8.89775 6.37339 7.56002 7.03736L5.83205 4.44541ZM10 14.0001C10 14.5524 9.55228 15.0001 9 15.0001C8.44772 15.0001 8 14.5524 8 14.0001C8 13.4478 8.44772 13.0001 9 13.0001C9.55228 13.0001 10 13.4478 10 14.0001ZM15 15.0001C15.5523 15.0001 16 14.5524 16 14.0001C16 13.4478 15.5523 13.0001 15 13.0001C14.4477 13.0001 14 13.4478 14 14.0001C14 14.5524 14.4477 15.0001 15 15.0001Z" fill="black"/>
</svg>
