<svg width="24" height="24" viewBox="0 0 24 24" fill="none" xmlns="http://www.w3.org/2000/svg">
<path fill-rule="evenodd" clip-rule="evenodd" d="M9.50974 3.12836C9.9911 2.85759 10.6008 3.02831 10.8716 3.50967L12 5.51576L13.1284 3.50967C13.3992 3.02831 14.0089 2.85759 14.4903 3.12836C14.9716 3.39912 15.1423 4.00884 14.8716 4.49019L8.95985 14.9999H13C13.5523 14.9999 14 15.4476 14 15.9999C14 16.5522 13.5523 16.9999 13 16.9999H3C2.44772 16.9999 2 16.5522 2 15.9999C2 15.4476 2.44772 14.9999 3 14.9999H6.66515L10.8527 7.55549L9.12842 4.49019C8.85766 4.00884 9.02838 3.39912 9.50974 3.12836ZM13.4472 10.1284C13.9286 9.85759 14.5383 10.0283 14.8091 10.5097L17.3348 14.9999H21C21.5523 14.9999 22 15.4476 22 15.9999C22 16.5522 21.5523 16.9999 21 16.9999H18.4598L19.8716 19.5097C20.1423 19.991 19.9716 20.6007 19.4903 20.8715C19.0089 21.1423 18.3992 20.9716 18.1284 20.4902L13.0659 11.4902C12.7952 11.0088 12.9659 10.3991 13.4472 10.1284ZM6.05276 18.1284C6.53412 18.3991 6.70484 19.0088 6.43408 19.4902L5.87158 20.4902C5.60081 20.9716 4.9911 21.1423 4.50974 20.8715C4.02838 20.6007 3.85766 19.991 4.12842 19.5097L4.69092 18.5097C4.96169 18.0283 5.5714 17.8576 6.05276 18.1284Z" fill="black"/>
</svg>
