<svg width="24" height="24" viewBox="0 0 24 24" fill="none" xmlns="http://www.w3.org/2000/svg">
<path d="M16.8319 3.55475C17.0611 3.211 17.0553 2.76171 16.8173 2.42401C16.5793 2.0863 16.1582 1.92971 15.7574 2.02991L15.5996 2.06924C14.7554 2.27949 14.093 2.44447 13.5702 2.793C13.0247 3.15666 12.6679 3.6933 12.247 4.32636L12.1678 4.44535C11.9387 4.78911 11.9445 5.2384 12.1825 5.5761C12.4205 5.91381 12.8416 6.0704 13.2424 5.9702L13.4002 5.93087C14.2444 5.72062 14.9068 5.55564 15.4296 5.2071C15.9751 4.84344 16.3319 4.30681 16.7528 3.67375L16.8319 3.55475Z" fill="black"/>
<path d="M7.91523 7.14281C9.46828 6.79864 11.1058 7.08125 12.6436 7.934C13.2449 7.57951 13.8305 7.31045 14.4384 7.15442C15.2464 6.94706 16.0349 6.95403 16.8865 7.14277C17.8756 7.36195 18.792 7.88859 19.4908 8.74249C19.6677 8.95875 19.7462 9.23918 19.707 9.51587C19.6679 9.79255 19.5148 10.0402 19.2848 10.1989C18.8159 10.5224 18.4382 10.8508 18.1627 11.317C17.89 11.7783 17.6691 12.4586 17.6695 13.5533C17.6697 13.9742 17.8958 14.5011 18.3238 15.0674C18.7371 15.6142 19.2499 16.0798 19.6069 16.3526C19.9595 16.6219 20.0925 17.0914 19.9335 17.5057C19.4503 18.7642 18.7806 19.9233 17.9916 20.7459C17.2305 21.5396 16.1596 22.2096 14.9472 21.941C14.8693 21.9237 14.7939 21.8972 14.7224 21.8621C14.4821 21.744 14.2856 21.6338 14.1315 21.5474L14.0578 21.5062C13.8881 21.4116 13.785 21.3585 13.679 21.3179C13.4907 21.2457 13.1925 21.1742 12.401 21.1742C11.8592 21.1742 11.5754 21.2726 11.2991 21.3946C11.2448 21.4186 11.1833 21.4478 11.1146 21.4803C10.8204 21.6197 10.3952 21.8212 9.8546 21.941C9.03966 22.1216 8.27638 21.8706 7.65281 21.4592C7.03498 21.0516 6.48915 20.4488 6.02827 19.7685C5.10515 18.4058 4.39931 16.5495 4.12915 14.6853C3.82183 12.5648 4.07267 10.8368 4.77834 9.53788C5.49358 8.22134 6.63519 7.42648 7.91523 7.14281Z" fill="black"/>
</svg>
