<svg width="24" height="24" viewBox="0 0 24 24" fill="none" xmlns="http://www.w3.org/2000/svg">
<path d="M8 5V6C8.55228 6 9 5.55228 9 5H8ZM8.21202 19.8971L9.10546 19.448C8.88799 19.0154 8.39186 18.8008 7.92768 18.9384L8.21202 19.8971ZM5.00541 17.6657L6.00327 17.6004C5.97955 17.2381 5.76124 16.917 5.43295 16.7618L5.00541 17.6657ZM4.48578 11.6373L5.06193 12.4547C5.50194 12.1445 5.61744 11.5417 5.32325 11.0908L4.48578 11.6373ZM6.00698 7.16825L6.33788 8.11191C6.76767 7.96121 7.04133 7.53912 7.00353 7.08524L6.00698 7.16825ZM16 5H15C15 5.55228 15.4477 6 16 6V5ZM15.788 19.8971L16.0723 18.9384C15.6081 18.8008 15.112 19.0154 14.8945 19.448L15.788 19.8971ZM18.9946 17.6657L18.5671 16.7618C18.2388 16.917 18.0204 17.2381 17.9967 17.6004L18.9946 17.6657ZM19.5142 11.6373L18.6768 11.0908C18.3826 11.5417 18.4981 12.1445 18.9381 12.4547L19.5142 11.6373ZM17.993 7.16825L16.9965 7.08524C16.9587 7.53912 17.2323 7.96121 17.6621 8.11191L17.993 7.16825ZM11 5V19H13V5H11ZM11 19C11 19.5523 10.5523 20 10 20V22C11.6569 22 13 20.6569 13 19H11ZM7 7C7 6.44772 7.44772 6 8 6V4C6.34315 4 5 5.34315 5 7H7ZM9 5C9 4.44772 9.44772 4 10 4V2C8.34315 2 7 3.34315 7 5H9ZM10 4C10.5523 4 11 4.44772 11 5H13C13 3.34315 11.6569 2 10 2V4ZM7.92768 18.9384C7.79334 18.9783 7.65009 19 7.5 19V21C7.84467 21 8.17938 20.9499 8.49636 20.8559L7.92768 18.9384ZM10 20C9.61046 20 9.27111 19.7774 9.10546 19.448L7.31858 20.3463C7.81059 21.325 8.82557 22 10 22V20ZM5.43295 16.7618C4.58393 16.3602 4 15.4973 4 14.5H2C2 16.2994 3.05611 17.85 4.57787 18.5697L5.43295 16.7618ZM7.5 19C6.70538 19 6.0544 18.3815 6.00327 17.6004L4.00754 17.7311C4.12705 19.5568 5.64458 21 7.5 21V19ZM4 14.5C4 13.6557 4.41757 12.9089 5.06193 12.4547L3.90963 10.82C2.75656 11.6328 2 12.978 2 14.5H4ZM5.32325 11.0908C5.11886 10.7776 5 10.4042 5 10H3C3 10.804 3.23826 11.5554 3.64832 12.1838L5.32325 11.0908ZM5 10C5 9.12901 5.55734 8.38562 6.33788 8.11191L5.67607 6.22458C4.11895 6.7706 3 8.25334 3 10H5ZM7.00353 7.08524C7.0012 7.05735 7 7.02893 7 7H5C5 7.0844 5.00351 7.16821 5.01043 7.25125L7.00353 7.08524ZM11 19C11 20.6569 12.3431 22 14 22V20C13.4477 20 13 19.5523 13 19H11ZM19 7C19 5.34315 17.6569 4 16 4V6C16.5523 6 17 6.44772 17 7H19ZM17 5C17 3.34315 15.6569 2 14 2V4C14.5523 4 15 4.44772 15 5H17ZM14 2C12.3431 2 11 3.34315 11 5H13C13 4.44772 13.4477 4 14 4V2ZM15.5036 20.8559C15.8206 20.9499 16.1553 21 16.5 21V19C16.3499 19 16.2067 18.9783 16.0723 18.9384L15.5036 20.8559ZM14 22C15.1744 22 16.1894 21.325 16.6814 20.3463L14.8945 19.448C14.7289 19.7774 14.3895 20 14 20V22ZM19.4221 18.5697C20.9439 17.85 22 16.2994 22 14.5H20C20 15.4973 19.4161 16.3602 18.5671 16.7618L19.4221 18.5697ZM16.5 21C18.3554 21 19.873 19.5568 19.9925 17.7311L17.9967 17.6004C17.9456 18.3815 17.2946 19 16.5 19V21ZM22 14.5C22 12.978 21.2434 11.6328 20.0904 10.82L18.9381 12.4547C19.5824 12.9089 20 13.6557 20 14.5H22ZM20.3517 12.1838C20.7617 11.5554 21 10.804 21 10H19C19 10.4042 18.8811 10.7776 18.6768 11.0908L20.3517 12.1838ZM21 10C21 8.25334 19.8811 6.7706 18.3239 6.22458L17.6621 8.11191C18.4427 8.38562 19 9.12901 19 10H21ZM18.9896 7.25125C18.9965 7.16821 19 7.0844 19 7H17C17 7.02892 16.9988 7.05735 16.9965 7.08524L18.9896 7.25125Z" fill="black"/>
</svg>
