<svg width="24" height="24" viewBox="0 0 24 24" fill="none" xmlns="http://www.w3.org/2000/svg">
<path d="M3.20711 18.7929C2.81658 18.4024 2.18342 18.4024 1.79289 18.7929C1.40237 19.1834 1.40237 19.8166 1.79289 20.2071L3.20711 18.7929ZM3.11612 20.1161L3.82322 19.409H3.82322L3.11612 20.1161ZM7.38388 20.1161L6.67678 19.409H6.67678L7.38388 20.1161ZM7.61612 19.8839L8.32322 20.591H8.32322L7.61612 19.8839ZM11.8839 19.8839L11.1768 20.591H11.1768L11.8839 19.8839ZM12.1161 20.1161L12.8232 19.409H12.8232L12.1161 20.1161ZM16.3839 20.1161L15.6768 19.409H15.6768L16.3839 20.1161ZM16.6161 19.8839L17.3232 20.591H17.3232L16.6161 19.8839ZM20.8839 19.8839L21.591 19.1768H21.591L20.8839 19.8839ZM20.7929 21.2071C21.1834 21.5976 21.8166 21.5976 22.2071 21.2071C22.5976 20.8166 22.5976 20.1834 22.2071 19.7929L20.7929 21.2071ZM13 3C13 2.44772 12.5523 2 12 2C11.4477 2 11 2.44772 11 3H13ZM6.01479 15.8287C5.92016 16.3728 6.28454 16.8906 6.82866 16.9852C7.37278 17.0798 7.89058 16.7155 7.98521 16.1713L6.01479 15.8287ZM8.48598 7.45564L9.47119 7.62698L8.48598 7.45564ZM15.514 7.45564L14.5288 7.62698L15.514 7.45564ZM16.0148 16.1713C16.1094 16.7155 16.6272 17.0798 17.1713 16.9852C17.7155 16.8906 18.0798 16.3728 17.9852 15.8287L16.0148 16.1713ZM7.69531 11C7.14303 11 6.69531 11.4477 6.69531 12C6.69531 12.5523 7.14303 13 7.69531 13V11ZM16.304 13C16.8563 13 17.304 12.5523 17.304 12C17.304 11.4477 16.8563 11 16.304 11V13ZM1.79289 20.2071L2.40901 20.8232L3.82322 19.409L3.20711 18.7929L1.79289 20.2071ZM8.09099 20.8232L8.32322 20.591L6.90901 19.1768L6.67678 19.409L8.09099 20.8232ZM11.1768 20.591L11.409 20.8232L12.8232 19.409L12.591 19.1768L11.1768 20.591ZM17.091 20.8232L17.3232 20.591L15.909 19.1768L15.6768 19.409L17.091 20.8232ZM20.1768 20.591L20.7929 21.2071L22.2071 19.7929L21.591 19.1768L20.1768 20.591ZM18.75 20C19.2851 20 19.7984 20.2126 20.1768 20.591L21.591 19.1768C20.8375 18.4233 19.8156 18 18.75 18V20ZM17.3232 20.591C17.7016 20.2126 18.2149 20 18.75 20V18C17.6844 18 16.6625 18.4233 15.909 19.1768L17.3232 20.591ZM14.25 22C15.3156 22 16.3375 21.5767 17.091 20.8232L15.6768 19.409C15.2984 19.7874 14.7851 20 14.25 20V22ZM11.409 20.8232C12.1625 21.5767 13.1844 22 14.25 22V20C13.7149 20 13.2016 19.7874 12.8232 19.409L11.409 20.8232ZM9.75 20C10.2851 20 10.7984 20.2126 11.1768 20.591L12.591 19.1768C11.8375 18.4233 10.8156 18 9.75 18V20ZM8.32322 20.591C8.70163 20.2126 9.21485 20 9.75 20V18C8.68442 18 7.66249 18.4233 6.90901 19.1768L8.32322 20.591ZM5.25 22C6.31558 22 7.33751 21.5767 8.09099 20.8232L6.67678 19.409C6.29837 19.7874 5.78514 20 5.25 20V22ZM2.40901 20.8232C3.16249 21.5767 4.18442 22 5.25 22V20C4.71486 20 4.20163 19.7874 3.82322 19.409L2.40901 20.8232ZM13 4.5V3H11V4.5H13ZM7.98521 16.1713L9.47119 7.62698L7.50076 7.2843L6.01479 15.8287L7.98521 16.1713ZM14.5288 7.62698L16.0148 16.1713L17.9852 15.8287L16.4992 7.2843L14.5288 7.62698ZM12 5.5C13.2479 5.5 14.315 6.39752 14.5288 7.62698L16.4992 7.2843C16.1188 5.09687 14.2203 3.5 12 3.5V5.5ZM9.47119 7.62698C9.68501 6.39753 10.7521 5.5 12 5.5V3.5C9.77974 3.5 7.88119 5.09687 7.50076 7.2843L9.47119 7.62698ZM7.69531 13H16.304V11H7.69531V13Z" fill="black"/>
</svg>
