<svg width="24" height="24" viewBox="0 0 24 24" fill="none" xmlns="http://www.w3.org/2000/svg">
<path d="M3 15.2H2H3ZM3 8.8H4H3ZM9 15.2H10H9ZM6 18V19V18ZM3 11C2.44772 11 2 11.4477 2 12C2 12.5523 2.44772 13 3 13V11ZM9 13C9.55228 13 10 12.5523 10 12C10 11.4477 9.55228 11 9 11V13ZM15.9778 16.7426L15.2707 17.4497L15.9778 16.7426ZM11.4523 12.2171L12.1594 11.51L11.4523 12.2171ZM15.6949 7.97451L14.9878 8.68161L15.6949 7.97451ZM20.2204 12.5L20.9275 11.7929V11.7929L20.2204 12.5ZM10.6737 10.1941L9.67428 10.159L10.6737 10.1941ZM20.9998 14.5L21.9994 14.5271L20.9998 14.5ZM18.6646 10.9444C19.0551 10.5539 19.0551 9.92072 18.6646 9.5302C18.2741 9.13967 17.6409 9.13967 17.2504 9.5302L18.6646 10.9444ZM13.0077 13.7728C12.6172 14.1634 12.6172 14.7965 13.0077 15.1871C13.3983 15.5776 14.0314 15.5776 14.422 15.1871L13.0077 13.7728ZM4 15.2L4 8.8H2L2 15.2H4ZM8 8.8V15.2H10V8.8H8ZM6 7C7.17067 7 8 7.86975 8 8.8H10C10 6.63746 8.14304 5 6 5V7ZM4 8.8C4 7.86975 4.82933 7 6 7V5C3.85696 5 2 6.63746 2 8.8H4ZM6 17C4.82933 17 4 16.1302 4 15.2H2C2 17.3625 3.85696 19 6 19V17ZM6 19C8.14304 19 10 17.3625 10 15.2H8C8 16.1302 7.17067 17 6 17V19ZM3 13H9V11H3V13ZM16.6849 16.0355L12.1594 11.51L10.7452 12.9243L15.2707 17.4497L16.6849 16.0355ZM14.9878 8.68161L19.5133 13.2071L20.9275 11.7929L16.402 7.2674L14.9878 8.68161ZM12.3008 8.82303C13.1286 7.99524 14.33 8.02383 14.9878 8.68161L16.402 7.2674C14.8729 5.73825 12.402 5.89346 10.8866 7.40882L12.3008 8.82303ZM19.3719 15.8941C18.5441 16.7219 17.3427 16.6933 16.6849 16.0355L15.2707 17.4497C16.7998 18.9789 19.2707 18.8237 20.7861 17.3083L19.3719 15.8941ZM12.1594 11.51C11.8241 11.1748 11.6559 10.7177 11.6731 10.2291L9.67428 10.159C9.63932 11.156 9.98615 12.1652 10.7452 12.9243L12.1594 11.51ZM11.6731 10.2291C11.6902 9.73971 11.895 9.22887 12.3008 8.82303L10.8866 7.40882C10.1218 8.17365 9.70914 9.16525 9.67428 10.159L11.6731 10.2291ZM20.7861 17.3083C21.5588 16.5356 21.9721 15.5313 21.9994 14.5271L20.0001 14.4728C19.9867 14.9668 19.7819 15.484 19.3719 15.8941L20.7861 17.3083ZM21.9994 14.5271C22.0262 13.5403 21.6786 12.544 20.9275 11.7929L19.5133 13.2071C19.8452 13.539 20.0132 13.9899 20.0001 14.4728L21.9994 14.5271ZM17.2504 9.5302L13.0077 13.7728L14.422 15.1871L18.6646 10.9444L17.2504 9.5302Z" fill="black"/>
</svg>
