<svg width="24" height="24" viewBox="0 0 24 24" fill="none" xmlns="http://www.w3.org/2000/svg">
<path d="M13 13C12.4477 13 12 13.4477 12 14C12 14.5523 12.4477 15 13 15V13ZM13.009 15C13.5613 15 14.009 14.5523 14.009 14C14.009 13.4477 13.5613 13 13.009 13V15ZM9 10C8.44772 10 8 10.4477 8 11C8 11.5523 8.44772 12 9 12V10ZM9.009 12C9.56128 12 10.009 11.5523 10.009 11C10.009 10.4477 9.56128 10 9.009 10V12ZM14 9C13.4477 9 13 9.44772 13 10C13 10.5523 13.4477 11 14 11V9ZM14.009 11C14.5613 11 15.009 10.5523 15.009 10C15.009 9.44772 14.5613 9 14.009 9V11ZM15.748 19.5537L15.1351 18.7635L15.1351 18.7635L15.748 19.5537ZM15.8213 19.4968L16.4342 20.287L16.4342 20.287L15.8213 19.4968ZM19.4847 13.2783L19.8463 14.2107L19.8463 14.2107L19.4847 13.2783ZM19.8295 13.1446L19.4679 12.2123L19.4679 12.2123L19.8295 13.1446ZM19.5874 9.57663L19.8114 8.60204L19.5874 9.57663ZM18.6526 9.36181L18.4287 10.3364L18.6526 9.36181ZM15.4393 6.23114L16.4032 5.96485V5.96485L15.4393 6.23114ZM15.2619 5.58893L16.2258 5.32263V5.32263L15.2619 5.58893ZM11.6168 4.76507L12.3867 5.4032L12.3867 5.4032L11.6168 4.76507ZM11.2835 5.16714L10.5136 4.52901L10.5136 4.52902L11.2835 5.16714ZM7.23494 6.65369L7.05014 7.63646L7.23494 6.65369ZM5.31953 6.29353L5.50432 5.31075L5.50432 5.31075L5.31953 6.29353ZM3.57633 9.73425L4.29521 9.03912L4.29521 9.03912L3.57633 9.73425ZM3.91765 10.0872L3.19876 10.7824L3.19876 10.7824L3.91765 10.0872ZM3.91765 17.8976L4.63654 17.2024L4.63654 17.2024L3.91765 17.8976ZM3.99253 17.975L3.27364 18.6701L3.27364 18.6701L3.99253 17.975ZM5.92249 18.4462L6.2484 19.3916L5.92249 18.4462ZM7.66936 17.844L7.99526 18.7894L7.66936 17.844ZM11.4279 18.3645L11.9955 17.5412H11.9955L11.4279 18.3645ZM13.2564 19.6252L12.6888 20.4485H12.6888L13.2564 19.6252ZM3.91765 15.2941L3.19876 14.599L3.19876 14.599L3.91765 15.2941ZM3.14078 7.53977L2.20811 7.17903L3.14078 7.53977ZM14.4961 4.4382L15.109 3.64803V3.64803L14.4961 4.4382ZM13 15H13.009V13H13V15ZM9 12H9.009V10H9V12ZM14 11H14.009V9H14V11ZM16.3609 20.3439L16.4342 20.287L15.2085 18.7066L15.1351 18.7635L16.3609 20.3439ZM17.6845 17.7116V17.4572H15.6845V17.7116H17.6845ZM19.8463 14.2107L20.191 14.077L19.4679 12.2123L19.1231 12.346L19.8463 14.2107ZM19.8114 8.60204L18.8766 8.38722L18.4287 10.3364L19.3634 10.5512L19.8114 8.60204ZM16.4032 5.96485L16.2258 5.32263L14.298 5.85522L14.4754 6.49744L16.4032 5.96485ZM10.8468 4.12694L10.5136 4.52901L12.0535 5.80527L12.3867 5.4032L10.8468 4.12694ZM7.41973 5.67091L5.50432 5.31075L5.13473 7.2763L7.05014 7.63646L7.41973 5.67091ZM2.85744 10.4294L3.19876 10.7824L4.63654 9.39211L4.29521 9.03912L2.85744 10.4294ZM3.19876 18.5927L3.27364 18.6701L4.71141 17.2799L4.63654 17.2024L3.19876 18.5927ZM6.2484 19.3916L7.99526 18.7894L7.34345 16.8986L5.59659 17.5008L6.2484 19.3916ZM10.8603 19.1878L12.6888 20.4485L13.8241 18.8019L11.9955 17.5412L10.8603 19.1878ZM7.99526 18.7894C8.95579 18.4583 10.0115 18.6026 10.8603 19.1878L11.9955 17.5412C10.6281 16.5985 8.90971 16.3586 7.34345 16.8986L7.99526 18.7894ZM3.27364 18.6701C4.04405 19.4669 5.19694 19.754 6.2484 19.3916L5.59659 17.5008C5.29267 17.6055 4.95124 17.5279 4.71141 17.2799L3.27364 18.6701ZM3.19876 14.599C2.12878 15.7055 2.12878 17.4861 3.19876 18.5927L4.63654 17.2024C4.31619 16.8711 4.31619 16.3205 4.63654 15.9892L3.19876 14.599ZM3.19876 10.7824C4.21427 11.8326 4.21427 13.5488 3.19876 14.599L4.63654 15.9892C6.40167 14.1638 6.40167 11.2176 4.63654 9.39211L3.19876 10.7824ZM2.20811 7.17903C1.7774 8.29263 2.02574 9.56925 2.85744 10.4294L4.29521 9.03912C4.01384 8.74813 3.91955 8.2984 4.07345 7.90051L2.20811 7.17903ZM5.50432 5.31075C4.09052 5.04491 2.72209 5.85018 2.20811 7.17903L4.07345 7.90051C4.25432 7.43288 4.70778 7.19602 5.13473 7.2763L5.50432 5.31075ZM10.5136 4.52902C9.74194 5.46006 8.56332 5.88594 7.41973 5.67091L7.05014 7.63646C8.92472 7.98894 10.8287 7.28296 12.0535 5.80527L10.5136 4.52902ZM15.109 3.64803C13.7842 2.62054 11.9136 2.83988 10.8468 4.12695L12.3867 5.4032C12.773 4.93709 13.4217 4.87043 13.8832 5.22838L15.109 3.64803ZM16.2258 5.32263C16.0425 4.65924 15.6527 4.06978 15.109 3.64803L13.8832 5.22838C14.0792 5.38037 14.2273 5.59917 14.298 5.85523L16.2258 5.32263ZM18.8766 8.38722C17.7026 8.11741 16.7439 7.19807 16.4032 5.96485L14.4754 6.49744C15.0044 8.4123 16.5122 9.89597 18.4287 10.3364L18.8766 8.38722ZM22 11.3978C22 10.0793 21.1119 8.90092 19.8114 8.60204L19.3634 10.5512C19.7136 10.6317 20 10.9675 20 11.3978H22ZM20.191 14.077C21.295 13.6488 22 12.5719 22 11.3978H20C20 11.7791 19.7721 12.0943 19.4679 12.2123L20.191 14.077ZM17.6845 17.4572C17.6845 15.9932 18.5618 14.7088 19.8463 14.2107L19.1231 12.346C17.0389 13.1543 15.6845 15.2004 15.6845 17.4572H17.6845ZM16.4342 20.287C17.2279 19.6714 17.6845 18.7153 17.6845 17.7116H15.6845C15.6845 18.1127 15.5015 18.4793 15.2085 18.7066L16.4342 20.287ZM15.1351 18.7635C14.7467 19.0648 14.2257 19.0788 13.8241 18.8019L12.6888 20.4485C13.8096 21.2212 15.2856 21.1779 16.3609 20.3439L15.1351 18.7635Z" fill="black"/>
</svg>
