<svg width="24" height="24" viewBox="0 0 24 24" fill="none" xmlns="http://www.w3.org/2000/svg">
<path d="M5.83984 2C5.28756 2 4.83984 2.44772 4.83984 3C4.83984 3.55228 5.28756 4 5.83984 4V2ZM12.8398 4C13.3921 4 13.8398 3.55228 13.8398 3C13.8398 2.44772 13.3921 2 12.8398 2V4ZM4.19531 14C3.64303 14 3.19531 14.4477 3.19531 15C3.19531 15.5523 3.64303 16 4.19531 16V14ZM7.5 16C8.05228 16 8.5 15.5523 8.5 15C8.5 14.4477 8.05228 14 7.5 14V16ZM12.8398 3C12.8398 2.44772 12.3921 2 11.8398 2C11.2876 2 10.8398 2.44772 10.8398 3H12.8398ZM10.8398 7C10.8398 7.55228 11.2876 8 11.8398 8C12.3921 8 12.8398 7.55228 12.8398 7H10.8398ZM7.83984 3C7.83984 2.44772 7.39213 2 6.83984 2C6.28756 2 5.83984 2.44772 5.83984 3H7.83984ZM6.83984 10.7888L7.68447 11.3242C7.78596 11.1641 7.83984 10.9784 7.83984 10.7888H6.83984ZM2.32091 17.9184L3.16211 18.4592L3.16554 18.4538L2.32091 17.9184ZM9.33994 22C9.89222 22 10.3399 21.5522 10.3399 21C10.3399 20.4477 9.89222 20 9.33994 20V22ZM16.7369 11.0381C16.942 11.5508 17.524 11.8003 18.0368 11.5951C18.5495 11.39 18.799 10.8081 18.5938 10.2953L16.7369 11.0381ZM17.3701 9.92848L18.2986 9.55709V9.55708L17.3701 9.92848ZM14.6273 20.0715L15.5558 19.7001L15.5558 19.7001L14.6273 20.0715ZM15.2605 18.9619C15.0554 18.4492 14.4734 18.1997 13.9606 18.4049C13.4479 18.61 13.1984 19.1919 13.4036 19.7047L15.2605 18.9619ZM16.6018 9.04003L16.3217 10L16.3217 10L16.6018 9.04003ZM17.1089 9.38341L16.3217 10L16.3217 10L17.1089 9.38341ZM16.6018 20.96L16.3217 20L16.6018 20.96ZM17.1089 20.6166L16.3217 20L16.3217 20L17.1089 20.6166ZM15.3956 20.96L15.1155 21.9199H15.1155L15.3956 20.96ZM14.8885 20.6166L15.6757 20H15.6757L14.8885 20.6166ZM15.3956 9.04003L15.1155 8.08006L15.1155 8.08006L15.3956 9.04003ZM14.8885 9.38341L15.6757 10H15.6757L14.8885 9.38341ZM13.1975 10.2884L13.5138 9.33976L13.5137 9.33974L13.1975 10.2884ZM11.3602 12.237L12.2887 11.8656L11.3602 12.237ZM10.7369 13.3713C10.942 13.8841 11.524 14.1335 12.0368 13.9284C12.5495 13.7233 12.799 13.1413 12.5938 12.6285L10.7369 13.3713ZM18.7709 19.7018L19.0872 18.7531L19.0871 18.7531L18.7709 19.7018ZM20.7006 17.7722L21.6492 17.456V17.456L20.7006 17.7722ZM21.2807 16.3504C21.1061 15.8264 20.5397 15.5433 20.0158 15.7179C19.4919 15.8926 19.2087 16.4589 19.3833 16.9828L21.2807 16.3504ZM12.1036 10.2772L11.6052 9.41026L12.1036 10.2772ZM12.6603 10.1458L12.7184 9.14745L12.6603 10.1458ZM20.7348 18.8711L19.8546 18.3965V18.3965L20.7348 18.8711ZM20.8541 18.3657L21.8536 18.3348V18.3348L20.8541 18.3657ZM19.8699 19.736L19.3953 18.8558L19.3953 18.8558L19.8699 19.736ZM19.3644 19.8553L19.3336 20.8549H19.3336L19.3644 19.8553ZM11.2983 11.0878L12.1721 11.5741L11.2983 11.0878ZM11.1774 11.6769L12.1721 11.5741V11.5741L11.1774 11.6769ZM17.3517 9.71792C16.8278 9.89257 16.5446 10.4589 16.7193 10.9828C16.8939 11.5068 17.4603 11.7899 17.9842 11.6153L17.3517 9.71792ZM18.8025 10.2884L19.1187 11.2371H19.1187L18.8025 10.2884ZM20.6398 12.237L21.5683 12.6084V12.6084L20.6398 12.237ZM19.4062 12.6285C19.201 13.1413 19.4505 13.7233 19.9632 13.9284C20.476 14.1335 21.058 13.8841 21.2631 13.3713L19.4062 12.6285ZM11.2994 17.7722L12.2481 18.0884V18.0884L11.2994 17.7722ZM12.6167 16.9828C12.7913 16.4589 12.5081 15.8926 11.9842 15.7179C11.4603 15.5433 10.8939 15.8264 10.7193 16.3504L12.6167 16.9828ZM14.6509 20.282C15.1748 20.1073 15.458 19.541 15.2833 19.017C15.1087 18.4931 14.5424 18.2099 14.0184 18.3846L14.6509 20.282ZM13.2291 19.7018L12.9128 18.7531L12.9128 18.7531L13.2291 19.7018ZM19.8964 10.2772L20.3948 9.41026L19.8964 10.2772ZM19.3397 10.1458L19.3979 11.1441L19.3397 10.1458ZM11.2652 18.8711L12.1454 18.3965L12.1454 18.3965L11.2652 18.8711ZM11.1459 18.3657L10.1464 18.3348V18.3348L11.1459 18.3657ZM12.1301 19.736L12.6047 18.8558L12.6047 18.8558L12.1301 19.736ZM12.6356 19.8553L12.6664 20.8549H12.6664L12.6356 19.8553ZM20.7017 11.0878L21.5755 10.6015L20.7017 11.0878ZM20.8226 11.6769L21.8173 11.7797V11.7797L20.8226 11.6769ZM12.1812 13.8575C12.6547 13.5733 12.8083 12.959 12.5242 12.4855C12.24 12.0119 11.6258 11.8583 11.1522 12.1425L12.1812 13.8575ZM10.7768 13.5339L10.2623 12.6764L10.2623 12.6764L10.7768 13.5339ZM11.0058 16.4023L10.6344 17.3307V17.3307L11.0058 16.4023ZM11.2953 17.5951C11.8081 17.8002 12.39 17.5508 12.5951 17.038C12.8003 16.5252 12.5508 15.9433 12.0381 15.7381L11.2953 17.5951ZM21.2232 13.5339L20.7087 14.3914V14.3914L21.2232 13.5339ZM20.8478 12.1425C20.3743 11.8583 19.76 12.0119 19.4758 12.4855C19.1917 12.959 19.3453 13.5733 19.8188 13.8575L20.8478 12.1425ZM19.9619 15.7381C19.4492 15.9433 19.1997 16.5252 19.4049 17.038C19.61 17.5508 20.1919 17.8002 20.7047 17.5951L19.9619 15.7381ZM20.9942 16.4023L20.6228 15.4738L20.9942 16.4023ZM10.0474 14.2619L9.09479 13.9577V13.9577L10.0474 14.2619ZM10.249 13.9058L11 14.5661V14.5661L10.249 13.9058ZM21.9526 14.2619L22.9052 13.9577V13.9577L21.9526 14.2619ZM21.751 13.9058L21 14.5661H21L21.751 13.9058ZM21.9369 15.6725L22.8738 16.022L22.8738 16.022L21.9369 15.6725ZM21.6725 16.063L22.345 16.8031L22.345 16.8031L21.6725 16.063ZM10.0631 15.6725L11 15.3229L10.0631 15.6725ZM10.3275 16.063L9.65498 16.8031L10.3275 16.063ZM18.4196 19.5847L18.1035 20.5334L18.4196 19.5847ZM5.83984 4H12.8398V2H5.83984V4ZM4.19531 16H7.5V14H4.19531V16ZM10.8398 3V7H12.8398V3H10.8398ZM5.83984 3V10.7888H7.83984V3H5.83984ZM4.00327 20C3.21211 20 2.73426 19.1247 3.16209 18.4592L1.47974 17.3777C0.196249 19.3742 1.62977 22 4.00327 22V20ZM3.16554 18.4538L7.68447 11.3242L5.99521 10.2535L1.47628 17.3831L3.16554 18.4538ZM9.33994 20H4.00327V22H9.33994V20ZM18.5938 10.2953L18.2986 9.55709L16.4416 10.2999L16.7369 11.0381L18.5938 10.2953ZM15.5558 19.7001L15.2605 18.9619L13.4036 19.7047L13.6988 20.4429L15.5558 19.7001ZM15.9987 10C16.1642 10 16.2502 10.0003 16.3125 10.0036C16.3656 10.0064 16.3547 10.0096 16.3217 10L16.8819 8.08006C16.5745 7.99036 16.2466 8 15.9987 8V10ZM18.2986 9.55708C18.2065 9.32692 18.0937 9.01892 17.8962 8.76681L16.3217 10C16.3004 9.97288 16.2994 9.96157 16.3217 10.0098C16.3479 10.0665 16.3801 10.1462 16.4416 10.2999L18.2986 9.55708ZM16.3217 10H16.3217L17.8962 8.76681C17.6383 8.43744 17.2835 8.19725 16.8819 8.08006L16.3217 10ZM15.9987 22C16.2466 22 16.5745 22.0096 16.8819 21.9199L16.3217 20C16.3547 19.9904 16.3656 19.9936 16.3125 19.9964C16.2502 19.9997 16.1642 20 15.9987 20V22ZM16.4416 19.7001C16.3801 19.8538 16.3479 19.9335 16.3217 19.9902C16.2994 20.0384 16.3004 20.0271 16.3217 20L17.8962 21.2332C18.0937 20.9811 18.2065 20.6731 18.2986 20.4429L16.4416 19.7001ZM16.8819 21.9199C17.2835 21.8028 17.6383 21.5626 17.8962 21.2332L16.3217 20L16.3217 20L16.8819 21.9199ZM15.9987 20C15.8332 20 15.7472 19.9997 15.6849 19.9964C15.6318 19.9936 15.6427 19.9904 15.6757 20L15.1155 21.9199C15.4229 22.0096 15.7508 22 15.9987 22V20ZM13.6988 20.4429C13.7909 20.6731 13.9037 20.9811 14.1012 21.2332L15.6757 20C15.697 20.0271 15.698 20.0384 15.6757 19.9902C15.6495 19.9335 15.6173 19.8538 15.5558 19.7001L13.6988 20.4429ZM15.6757 20L15.6757 20L14.1012 21.2332C14.3591 21.5626 14.7139 21.8028 15.1155 21.9199L15.6757 20ZM15.9987 8C15.7508 8 15.4229 7.99036 15.1155 8.08006L15.6757 10C15.6427 10.0096 15.6318 10.0064 15.6848 10.0036C15.7472 10.0003 15.8332 10 15.9987 10V8ZM15.5558 10.2999C15.6173 10.1462 15.6495 10.0665 15.6757 10.0098C15.698 9.96158 15.697 9.97288 15.6757 10L14.1012 8.76681C13.9037 9.01892 13.7909 9.32692 13.6988 9.55709L15.5558 10.2999ZM15.1155 8.08006C14.7139 8.19725 14.3591 8.43744 14.1012 8.76681L15.6757 10L15.6757 10L15.1155 8.08006ZM13.8941 9.46654L13.5138 9.33976L12.8812 11.2371L13.2615 11.3639L13.8941 9.46654ZM10.4317 12.6084L10.7369 13.3713L12.5938 12.6285L12.2887 11.8656L10.4317 12.6084ZM18.1035 20.5334L18.4548 20.6505L19.0871 18.7531L18.7358 18.636L18.1035 20.5334ZM21.6492 17.456L21.2807 16.3504L19.3833 16.9828L19.7519 18.0884L21.6492 17.456ZM12.3941 11.3521C12.5014 11.2448 12.5568 11.1898 12.5989 11.1516C12.6343 11.1196 12.6292 11.1285 12.6021 11.1441L11.6052 9.41026C11.3479 9.55817 11.1408 9.77695 10.9798 9.93791L12.3941 11.3521ZM13.5137 9.33974C13.2978 9.26776 13.0147 9.16471 12.7184 9.14745L12.6021 11.1441C12.5709 11.1422 12.5624 11.1366 12.6084 11.1494C12.6631 11.1647 12.7372 11.1891 12.8813 11.2371L13.5137 9.33974ZM12.6021 11.1441H12.6021L12.7184 9.14745C12.3297 9.1248 11.9428 9.21614 11.6052 9.41026L12.6021 11.1441ZM21.0391 20.0404C21.2167 19.8628 21.4594 19.6343 21.615 19.3457L19.8546 18.3965C19.8709 18.3663 19.8811 18.3607 19.846 18.3998C19.8042 18.4464 19.7435 18.5076 19.6249 18.6262L21.0391 20.0404ZM19.7519 18.0884C19.8049 18.2475 19.8318 18.3294 19.8484 18.3898C19.8622 18.4404 19.8556 18.4309 19.8546 18.3965L21.8536 18.3348C21.8435 18.007 21.7287 17.6942 21.6492 17.456L19.7519 18.0884ZM21.615 19.3457C21.7822 19.0356 21.8645 18.6869 21.8536 18.3348L19.8546 18.3965V18.3965L21.615 19.3457ZM19.6249 18.6262C19.5064 18.7447 19.4452 18.8054 19.3985 18.8472C19.3594 18.8823 19.365 18.8721 19.3953 18.8558L20.3445 20.6162C20.6331 20.4606 20.8616 20.218 21.0391 20.0404L19.6249 18.6262ZM18.4547 20.6505C18.693 20.7299 19.0058 20.8447 19.3336 20.8549L19.3953 18.8558C19.4296 18.8569 19.4392 18.8635 19.3885 18.8496C19.3281 18.8331 19.2462 18.8061 19.0872 18.7531L18.4547 20.6505ZM19.3953 18.8558L19.3953 18.8558L19.3336 20.8549C19.6857 20.8657 20.0344 20.7834 20.3445 20.6162L19.3953 18.8558ZM10.9798 9.93791C10.809 10.1087 10.5766 10.3281 10.4245 10.6015L12.1721 11.5741C12.1558 11.6033 12.1462 11.6086 12.1806 11.5704C12.2213 11.5254 12.28 11.4661 12.3941 11.3521L10.9798 9.93791ZM12.2887 11.8656C12.2288 11.7159 12.1981 11.6383 12.1785 11.5809C12.1619 11.5322 12.1686 11.5409 12.1721 11.5741L10.1827 11.7797C10.2148 12.0909 10.342 12.3841 10.4317 12.6084L12.2887 11.8656ZM10.4245 10.6015C10.2249 10.9601 10.1405 11.3714 10.1827 11.7797L12.1721 11.5741L10.4245 10.6015ZM17.9842 11.6153L19.1187 11.2371L18.4863 9.33974L17.3517 9.71792L17.9842 11.6153ZM19.7113 11.8656L19.4062 12.6285L21.2631 13.3713L21.5683 12.6084L19.7113 11.8656ZM12.2481 18.0884L12.6167 16.9828L10.7193 16.3504L10.3508 17.456L12.2481 18.0884ZM14.0184 18.3846L12.9128 18.7531L13.5453 20.6505L14.6509 20.282L14.0184 18.3846ZM21.0202 9.93791C20.8592 9.77695 20.6521 9.55817 20.3948 9.41026L19.3979 11.1441C19.3708 11.1285 19.3657 11.1196 19.4011 11.1516C19.4432 11.1898 19.4986 11.2448 19.6059 11.3521L21.0202 9.93791ZM19.1187 11.2371C19.2628 11.1891 19.3369 11.1647 19.3916 11.1494C19.4376 11.1366 19.4291 11.1422 19.3979 11.1441L19.2816 9.14745C18.9853 9.16471 18.7022 9.26776 18.4863 9.33974L19.1187 11.2371ZM20.3948 9.41026C20.0572 9.21614 19.6703 9.1248 19.2816 9.14745L19.3979 11.1441L20.3948 9.41026ZM12.3751 18.6262C12.2565 18.5076 12.1958 18.4464 12.154 18.3998C12.1189 18.3607 12.1291 18.3663 12.1454 18.3965L10.385 19.3457C10.5406 19.6344 10.7833 19.8628 10.9609 20.0404L12.3751 18.6262ZM10.3508 17.456C10.2713 17.6942 10.1565 18.007 10.1464 18.3348L12.1454 18.3965C12.1444 18.4309 12.1378 18.4404 12.1516 18.3898C12.1682 18.3294 12.1951 18.2475 12.2481 18.0884L10.3508 17.456ZM12.1454 18.3965L12.1454 18.3965L10.1464 18.3348C10.1355 18.6869 10.2178 19.0356 10.385 19.3457L12.1454 18.3965ZM10.9609 20.0404C11.1384 20.2179 11.3669 20.4606 11.6555 20.6162L12.6047 18.8558C12.635 18.8721 12.6406 18.8823 12.6015 18.8472C12.5548 18.8054 12.4936 18.7447 12.3751 18.6262L10.9609 20.0404ZM12.9128 18.7531C12.7538 18.8061 12.6719 18.8331 12.6115 18.8496C12.5608 18.8635 12.5704 18.8569 12.6047 18.8558L12.6664 20.8549C12.9942 20.8447 13.307 20.7299 13.5453 20.6505L12.9128 18.7531ZM11.6555 20.6162C11.9656 20.7834 12.3143 20.8657 12.6664 20.8549L12.6047 18.8558L12.6047 18.8558L11.6555 20.6162ZM19.6059 11.3521C19.72 11.4661 19.7787 11.5254 19.8194 11.5704C19.8538 11.6086 19.8442 11.6033 19.8279 11.5741L21.5755 10.6015C21.4234 10.3281 21.1909 10.1087 21.0202 9.93791L19.6059 11.3521ZM21.5683 12.6084C21.658 12.3841 21.7852 12.0909 21.8173 11.7797L19.8279 11.5741C19.8314 11.5409 19.8381 11.5322 19.8215 11.5809C19.8019 11.6383 19.7712 11.7159 19.7113 11.8656L21.5683 12.6084ZM19.8279 11.5741V11.5741L21.8173 11.7797C21.8595 11.3714 21.7751 10.9601 21.5755 10.6015L19.8279 11.5741ZM11.1522 12.1425L10.2623 12.6764L11.2913 14.3914L12.1812 13.8575L11.1522 12.1425ZM10.6344 17.3307L11.2953 17.5951L12.0381 15.7381L11.3772 15.4738L10.6344 17.3307ZM21.7377 12.6764L20.8478 12.1425L19.8188 13.8575L20.7087 14.3914L21.7377 12.6764ZM20.7047 17.5951L21.3656 17.3307L20.6228 15.4738L19.9619 15.7381L20.7047 17.5951ZM11 14.9108C11 14.7327 11.0004 14.6412 11.0042 14.5749C11.0075 14.5195 11.0111 14.5315 11 14.5661L9.09479 13.9577C8.98869 14.29 9 14.6443 9 14.9108H11ZM10.2623 12.6764C10.0357 12.8123 9.7282 12.9837 9.49806 13.2455L11 14.5661C10.9765 14.5929 10.9644 14.5961 11.009 14.5656C11.063 14.5288 11.14 14.4822 11.2913 14.3914L10.2623 12.6764ZM11 14.5662V14.5661L9.49806 13.2455C9.31597 13.4526 9.17868 13.6951 9.09479 13.9577L11 14.5662ZM23 14.9108C23 14.6443 23.0113 14.29 22.9052 13.9577L21 14.5661C20.9889 14.5315 20.9925 14.5195 20.9958 14.5749C20.9996 14.6412 21 14.7327 21 14.9108H23ZM20.7087 14.3914C20.86 14.4822 20.937 14.5288 20.991 14.5656C21.0356 14.5961 21.0235 14.5929 21 14.5661L22.5019 13.2455C22.2718 12.9837 21.9643 12.8123 21.7377 12.6764L20.7087 14.3914ZM22.9052 13.9577C22.8213 13.695 22.684 13.4526 22.5019 13.2455L21 14.5661V14.5662L22.9052 13.9577ZM21 14.9108C21 15.1212 20.9995 15.2312 20.9943 15.3108C20.9898 15.3786 20.9847 15.3639 21 15.3229L22.8738 16.022C23.0153 15.6429 23 15.2248 23 14.9108H21ZM21.3656 17.3307C21.6546 17.2151 22.0457 17.075 22.345 16.8031L21 15.3229C21.0317 15.2941 21.0471 15.2932 20.9875 15.3218C20.9167 15.3557 20.8164 15.3964 20.6228 15.4738L21.3656 17.3307ZM21 15.3229L21 15.3229L22.345 16.8031C22.581 16.5886 22.7624 16.3208 22.8738 16.022L21 15.3229ZM9 14.9108C9 15.2248 8.98472 15.6429 9.12616 16.022L11 15.3229C11.0153 15.3639 11.0102 15.3786 11.0057 15.3108C11.0005 15.2312 11 15.1212 11 14.9108H9ZM11.3772 15.4738C11.1836 15.3964 11.0833 15.3557 11.0125 15.3218C10.9529 15.2932 10.9683 15.2941 11 15.3229L9.65498 16.8031C9.95425 17.075 10.3454 17.2151 10.6344 17.3307L11.3772 15.4738ZM9.12616 16.022C9.23764 16.3208 9.41895 16.5886 9.65498 16.8031L11 15.3229H11L9.12616 16.022ZM17 15C17 15.5523 16.5523 16 16 16V18C17.6569 18 19 16.6569 19 15H17ZM16 16C15.4477 16 15 15.5523 15 15H13C13 16.6569 14.3431 18 16 18V16ZM15 15C15 14.4477 15.4477 14 16 14V12C14.3431 12 13 13.3431 13 15H15ZM16 14C16.5523 14 17 14.4477 17 15H19C19 13.3431 17.6569 12 16 12V14ZM18.2986 20.4429C18.2677 20.52 18.1822 20.5597 18.1035 20.5334L18.7358 18.636C17.81 18.3274 16.8041 18.794 16.4416 19.7001L18.2986 20.4429ZM13.6988 9.55709C13.7297 9.47998 13.8153 9.44028 13.8941 9.46654L13.2615 11.3639C14.1874 11.6725 15.1933 11.206 15.5558 10.2999L13.6988 9.55709Z" fill="black"/>
</svg>
