<svg width="24" height="24" viewBox="0 0 24 24" fill="none" xmlns="http://www.w3.org/2000/svg">
<path d="M20 11.0001V14.5148C20 16.5834 18.6431 18.4071 16.6617 19.0015L16.5333 19.0401C15.7998 19.2601 15.5217 20.1521 16 20.7501L17 22.0001H7L8 20.7501C8.47835 20.1521 8.20016 19.2601 7.46673 19.0401L7.33827 19.0015C5.35689 18.4071 4 16.5834 4 14.5148V11.0001M16 11.0001L20.2693 5.02209C20.6905 4.43232 20.6236 3.62447 20.1112 3.112C19.5079 2.50876 18.5213 2.53778 17.9546 3.17543L11 11.0001M3 11.0001H21" stroke="black" stroke-width="2" stroke-linecap="round" stroke-linejoin="round"/>
</svg>
