<svg width="24" height="24" viewBox="0 0 24 24" fill="none" xmlns="http://www.w3.org/2000/svg">
<path d="M3 15.2H2H3ZM3 8.8H4H3ZM9 15.2H10H9ZM6 18V19V18ZM3 11C2.44772 11 2 11.4477 2 12C2 12.5523 2.44772 13 3 13V11ZM9 13C9.55228 13 10 12.5523 10 12C10 11.4477 9.55228 11 9 11V13ZM4 15.2L4 8.8H2L2 15.2H4ZM8 8.8V15.2H10V8.8H8ZM6 7C7.17067 7 8 7.86975 8 8.8H10C10 6.63746 8.14304 5 6 5V7ZM4 8.8C4 7.86975 4.82933 7 6 7V5C3.85696 5 2 6.63746 2 8.8H4ZM6 17C4.82933 17 4 16.1302 4 15.2H2C2 17.3625 3.85696 19 6 19V17ZM6 19C8.14304 19 10 17.3625 10 15.2H8C8 16.1302 7.17067 17 6 17V19ZM3 13H9V11H3V13ZM19.1213 11.8787C20.2929 13.0503 20.2929 14.9497 19.1213 16.1213L20.5355 17.5355C22.4882 15.5829 22.4882 12.4171 20.5355 10.4645L19.1213 11.8787ZM19.1213 16.1213C17.9497 17.2929 16.0503 17.2929 14.8787 16.1213L13.4645 17.5355C15.4171 19.4882 18.5829 19.4882 20.5355 17.5355L19.1213 16.1213ZM14.8787 16.1213C13.7071 14.9497 13.7071 13.0503 14.8787 11.8787L13.4645 10.4645C11.5118 12.4171 11.5118 15.5829 13.4645 17.5355L14.8787 16.1213ZM14.8787 11.8787C16.0503 10.7071 17.9497 10.7071 19.1213 11.8787L20.5355 10.4645C18.5829 8.51184 15.4171 8.51184 13.4645 10.4645L14.8787 11.8787ZM20.5355 16.1213L14.8787 10.4645L13.4645 11.8787L19.1213 17.5355L20.5355 16.1213Z" fill="black"/>
</svg>
