<svg width="24" height="24" viewBox="0 0 24 24" fill="none" xmlns="http://www.w3.org/2000/svg">
<path d="M5 3C5 2.44772 4.55228 2 4 2C3.44772 2 3 2.44772 3 3H5ZM9 11C9 11.5523 9.44772 12 10 12C10.5523 12 11 11.5523 11 11H9ZM11 3C11 2.44772 10.5523 2 10 2C9.44772 2 9 2.44772 9 3H11ZM9.66691 20.9813C10.0784 20.6129 10.1135 19.9807 9.74513 19.5692C9.37681 19.1577 8.74461 19.1227 8.33309 19.491L9.66691 20.9813ZM3 2C2.44772 2 2 2.44772 2 3C2 3.55228 2.44772 4 3 4V2ZM11 4C11.5523 4 12 3.55228 12 3C12 2.44772 11.5523 2 11 2V4ZM4 8C3.44772 8 3 8.44772 3 9C3 9.55228 3.44772 10 4 10V8ZM10 10C10.5523 10 11 9.55228 11 9C11 8.44772 10.5523 8 10 8V10ZM14.1936 15.4649C13.7958 15.0818 13.1628 15.0938 12.7797 15.4916C12.3966 15.8894 12.4085 16.5225 12.8064 16.9055L14.1936 15.4649ZM15.0385 17.6667L14.3448 18.387C14.7321 18.7599 15.3449 18.7599 15.7321 18.387L15.0385 17.6667ZM19.1936 15.0537C19.5915 14.6706 19.6034 14.0376 19.2203 13.6397C18.8372 13.2419 18.2042 13.23 17.8064 13.6131L19.1936 15.0537ZM3 3V18H5V3H3ZM11 11V3H9V11H11ZM3 18C3 20.2092 4.79086 22 7 22V20C5.89543 20 5 19.1046 5 18H3ZM8.33309 19.491C7.97858 19.8083 7.51288 20 7 20V22C8.02383 22 8.9599 21.6141 9.66691 20.9813L8.33309 19.491ZM3 4H11V2H3V4ZM4 10H10V8H4V10ZM20 16C20 18.2091 18.2091 20 16 20V22C19.3137 22 22 19.3137 22 16H20ZM16 20C13.7909 20 12 18.2091 12 16H10C10 19.3137 12.6863 22 16 22V20ZM12 16C12 13.7909 13.7909 12 16 12V10C12.6863 10 10 12.6863 10 16H12ZM16 12C18.2091 12 20 13.7909 20 16H22C22 12.6863 19.3137 10 16 10V12ZM12.8064 16.9055L14.3448 18.387L15.7321 16.9464L14.1936 15.4649L12.8064 16.9055ZM15.7321 18.387L19.1936 15.0537L17.8064 13.6131L14.3448 16.9464L15.7321 18.387Z" fill="black"/>
</svg>
