<svg width="24" height="24" viewBox="0 0 24 24" fill="none" xmlns="http://www.w3.org/2000/svg">
<path opacity="0.14" d="M3 6.53434C3 5.24753 3 4.60412 3.19146 4.26247C3.38442 3.91813 3.57834 3.74822 3.94506 3.60219C4.30891 3.4573 5.0221 3.55185 6.44847 3.74097C7.83836 3.92525 9.67377 4.07133 12 4.07133C14.3262 4.07133 16.1616 3.92525 17.5515 3.74097C18.9779 3.55185 19.6911 3.4573 20.0549 3.60219C20.4217 3.74822 20.6156 3.91813 20.8085 4.26247C21 4.60412 21 5.24753 21 6.53434V14.4655C21 15.7523 21 16.3957 20.8085 16.7373C20.6156 17.0817 20.4217 17.2516 20.0549 17.3976C19.6911 17.5425 18.9779 17.448 17.5515 17.2588C16.1616 17.0746 14.3262 16.9285 12 16.9285C9.67377 16.9285 7.83836 17.0746 6.44848 17.2588C5.0221 17.448 4.30891 17.5425 3.94506 17.3976C3.57834 17.2516 3.38442 17.0817 3.19146 16.7373C3 16.3957 3 15.7523 3 14.4655V6.53434Z" fill="black"/>
<path d="M7 20.9999H17M9 16.9999V20.9999M15 16.9999V20.9999M12 4.07133C9.67377 4.07133 7.83836 3.92525 6.44847 3.74097C5.0221 3.55185 4.30891 3.4573 3.94506 3.60219C3.57834 3.74822 3.38442 3.91813 3.19146 4.26247C3 4.60412 3 5.24753 3 6.53434V14.4655C3 15.7523 3 16.3957 3.19146 16.7373C3.38442 17.0817 3.57834 17.2516 3.94506 17.3976C4.30891 17.5425 5.0221 17.448 6.44848 17.2588C7.83836 17.0746 9.67377 16.9285 12 16.9285C14.3262 16.9285 16.1616 17.0746 17.5515 17.2588C18.9779 17.448 19.6911 17.5425 20.0549 17.3976C20.4217 17.2516 20.6156 17.0817 20.8085 16.7373C21 16.3957 21 15.7523 21 14.4655V6.53434C21 5.24753 21 4.60412 20.8085 4.26247C20.6156 3.91813 20.4217 3.74822 20.0549 3.60219C19.6911 3.4573 18.9779 3.55185 17.5515 3.74097C16.1616 3.92525 14.3262 4.07133 12 4.07133Z" stroke="black" stroke-width="2" stroke-linecap="round" stroke-linejoin="round"/>
</svg>
