<svg width="24" height="24" viewBox="0 0 24 24" fill="none" xmlns="http://www.w3.org/2000/svg">
<path opacity="0.3" fill-rule="evenodd" clip-rule="evenodd" d="M7 7.1023C7 4.30834 9.21492 2 12 2C14.8178 2 17 4.55695 17 7.1023C17 9.28531 16.1212 10.8064 14.9971 12H17C17.5523 12 18 12.4477 18 13C18 13.5523 17.5523 14 17 14H7C6.44772 14 6 13.5523 6 13C6 12.4477 6.44772 12 7 12H9.00294C7.87881 10.8064 7 9.28531 7 7.1023ZM9 7.1023C9 5.36499 10.3668 4 12 4C13.6005 4 15 5.54535 15 7.1023C15 9.3631 13.7399 10.6235 12 11.9908C10.2601 10.6235 9 9.3631 9 7.1023Z" fill="black"/>
<path fill-rule="evenodd" clip-rule="evenodd" d="M13 14V21C13 21.5523 12.5523 22 12 22C11.4477 22 11 21.5523 11 21V14H13Z" fill="black"/>
</svg>
