<svg width="24" height="24" viewBox="0 0 24 24" fill="none" xmlns="http://www.w3.org/2000/svg">
<path opacity="0.3" fill-rule="evenodd" clip-rule="evenodd" d="M12 6.93677L11.5607 8.60968C11.4772 8.92753 11.2429 9.18408 10.9339 9.29595C10.6249 9.40782 10.2806 9.36072 10.013 9.16997L8.60718 8.16789L9.34676 9.7734C9.48291 10.069 9.46673 10.4123 9.30338 10.6938C9.14004 10.9752 8.84996 11.1596 8.52578 11.188L6.76953 11.3419L8.37687 12.1006C8.67013 12.239 8.87806 12.5111 8.93465 12.8304C8.99125 13.1497 8.88949 13.4766 8.66166 13.7074L7.41166 14.9737L9.09285 14.5141C9.4084 14.4278 9.7462 14.5014 9.99734 14.711C10.2485 14.9206 10.3812 15.2398 10.3528 15.5657L10.2007 17.3071L11.1761 15.889C11.3627 15.6177 11.6708 15.4557 12 15.4557C12.3292 15.4557 12.6373 15.6177 12.8239 15.889L13.7993 17.3071L13.6472 15.5657C13.6188 15.2398 13.7515 14.9206 14.0027 14.711C14.2538 14.5014 14.5916 14.4278 14.9072 14.5141L16.5883 14.9737L15.3383 13.7074C15.1105 13.4766 15.0088 13.1497 15.0653 12.8304C15.1219 12.5111 15.3299 12.239 15.6231 12.1006L17.2305 11.3419L15.4742 11.188C15.15 11.1596 14.86 10.9752 14.6966 10.6938C14.5333 10.4123 14.5171 10.069 14.6532 9.7734L15.3928 8.16789L13.987 9.16997C13.7194 9.36072 13.3751 9.40782 13.0661 9.29595C12.7571 9.18408 12.5228 8.92753 12.4393 8.60968L12 6.93677Z" fill="black"/>
<path fill-rule="evenodd" clip-rule="evenodd" d="M12.0001 2C12.4545 2 12.8518 2.30644 12.9673 2.74599L14.0058 6.70056L17.294 4.35676C17.6631 4.09365 18.163 4.11174 18.5122 4.40084C18.8613 4.68994 18.9723 5.17774 18.7827 5.58946L17.0643 9.31971L21.0874 9.67221C21.5373 9.71164 21.905 10.0478 21.9845 10.4925C22.0639 10.9372 21.8354 11.3799 21.4269 11.5727L17.7532 13.3068L20.6262 16.2172C20.944 16.5391 21.0061 17.0343 20.7777 17.4247C20.5492 17.8151 20.0872 18.0036 19.6508 17.8843L15.7646 16.8219L16.1219 20.913C16.1615 21.3654 15.8912 21.7876 15.4638 21.9411C15.0364 22.0946 14.5592 21.9409 14.3018 21.5667L12.0001 18.2203L9.69832 21.5667C9.44096 21.9409 8.96378 22.0946 8.53638 21.9411C8.10898 21.7876 7.83868 21.3654 7.87819 20.913L8.2355 16.8219L4.3493 17.8843C3.91297 18.0036 3.4509 17.8151 3.22247 17.4247C2.99405 17.0343 3.05616 16.5391 3.37394 16.2172L6.24692 13.3068L2.5732 11.5727C2.16472 11.3799 1.93621 10.9372 2.01566 10.4925C2.09511 10.0478 2.4628 9.71164 2.91278 9.67221L6.9358 9.31971L5.21747 5.58946C5.02781 5.17774 5.13882 4.68994 5.48797 4.40084C5.83711 4.11174 6.33705 4.09365 6.70618 4.35676L9.9943 6.70056L11.0329 2.74599C11.1483 2.30644 11.5456 2 12.0001 2ZM12.0001 6.93684L11.5607 8.60975C11.4772 8.9276 11.2429 9.18415 10.9339 9.29602C10.6249 9.40789 10.2807 9.36079 10.0131 9.17004L8.60725 8.16795L9.34683 9.77347C9.48298 10.069 9.4668 10.4124 9.30345 10.6938C9.14011 10.9753 8.85002 11.1596 8.52585 11.188L6.7696 11.3419L8.37694 12.1006C8.6702 12.2391 8.87813 12.5111 8.93472 12.8304C8.99132 13.1498 8.88956 13.4767 8.66173 13.7075L7.41173 14.9738L9.09292 14.5142C9.40847 14.4279 9.74627 14.5014 9.99741 14.711C10.2486 14.9207 10.3813 15.2399 10.3528 15.5658L10.2007 17.3071L11.1762 15.889C11.3627 15.6178 11.6709 15.4557 12.0001 15.4557C12.3293 15.4557 12.6374 15.6178 12.824 15.889L13.7994 17.3071L13.6473 15.5658C13.6188 15.2399 13.7516 14.9207 14.0027 14.711C14.2539 14.5014 14.5917 14.4279 14.9072 14.5142L16.5884 14.9738L15.3384 13.7075C15.1106 13.4767 15.0088 13.1498 15.0654 12.8304C15.122 12.5111 15.3299 12.2391 15.6232 12.1006L17.2305 11.3419L15.4743 11.188C15.1501 11.1596 14.86 10.9753 14.6967 10.6938C14.5333 10.4124 14.5172 10.069 14.6533 9.77347L15.3929 8.16795L13.9871 9.17004C13.7195 9.36079 13.3752 9.40789 13.0662 9.29602C12.7572 9.18415 12.5229 8.9276 12.4394 8.60975L12.0001 6.93684Z" fill="black"/>
</svg>
