<svg width="24" height="24" viewBox="0 0 24 24" fill="none" xmlns="http://www.w3.org/2000/svg">
<path opacity="0.3" fill-rule="evenodd" clip-rule="evenodd" d="M15.8385 2H8.16146C7.63434 1.99998 7.17953 1.99997 6.80498 2.03057C6.40963 2.06287 6.01641 2.13419 5.63803 2.32698C5.07355 2.6146 4.6146 3.07355 4.32698 3.63803C4.13419 4.01641 4.06287 4.40963 4.03057 4.80498C3.99997 5.17953 3.99998 5.63427 4 6.16139V19C4 20.6569 5.34315 22 7 22H19C19.5523 22 20 21.5523 20 21C20 20.4477 19.5523 20 19 20H7C6.44772 20 6 19.5523 6 19C6 18.4477 6.44772 18 7 18H19C19.5523 18 20 17.5523 20 17V6.16148C20 5.63439 20 5.17951 19.9694 4.80498C19.9371 4.40963 19.8658 4.01641 19.673 3.63803C19.3854 3.07355 18.9265 2.6146 18.362 2.32698C17.9836 2.13419 17.5904 2.06287 17.195 2.03057C16.8205 1.99997 16.3657 1.99998 15.8385 2ZM12.8638 5.49613C12.6846 5.18891 12.3557 5 12 5C11.6443 5 11.3154 5.18891 11.1362 5.49613L10.259 7H8.5C8.14193 7 7.8112 7.19145 7.63286 7.50194C7.45452 7.81243 7.4558 8.19458 7.63622 8.50387L8.50896 10L7.63622 11.4961C7.4558 11.8054 7.45452 12.1876 7.63286 12.4981C7.8112 12.8086 8.14193 13 8.5 13H10.259L11.1362 14.5039C11.3154 14.8111 11.6443 15 12 15C12.3557 15 12.6846 14.8111 12.8638 14.5039L13.741 13H15.5C15.8581 13 16.1888 12.8086 16.3671 12.4981C16.5455 12.1876 16.5442 11.8054 16.3638 11.4961L15.491 10L16.3638 8.50387C16.5442 8.19458 16.5455 7.81243 16.3671 7.50194C16.1888 7.19145 15.8581 7 15.5 7H13.741L12.8638 5.49613Z" fill="black"/>
<path d="M19 20V18H7C6.44772 18 6 18.4477 6 19C6 19.5523 6.44772 20 7 20H19Z" fill="black"/>
<path d="M12.8638 5.49613C12.6846 5.18891 12.3557 5 12 5C11.6443 5 11.3154 5.18891 11.1362 5.49613L10.259 7H8.5C8.14194 7 7.8112 7.19145 7.63286 7.50194C7.45452 7.81243 7.4558 8.19458 7.63622 8.50387L8.50896 10L7.63622 11.4961C7.4558 11.8054 7.45452 12.1876 7.63286 12.4981C7.8112 12.8086 8.14194 13 8.5 13H10.259L11.1362 14.5039C11.3154 14.8111 11.6443 15 12 15C12.3557 15 12.6846 14.8111 12.8638 14.5039L13.741 13H15.5C15.8581 13 16.1888 12.8086 16.3671 12.4981C16.5455 12.1876 16.5442 11.8054 16.3638 11.4961L15.491 10L16.3638 8.50387C16.5442 8.19458 16.5455 7.81243 16.3671 7.50194C16.1888 7.19145 15.8581 7 15.5 7H13.741L12.8638 5.49613Z" fill="black"/>
</svg>
