<svg width="24" height="24" viewBox="0 0 24 24" fill="none" xmlns="http://www.w3.org/2000/svg">
<path opacity="0.3" fill-rule="evenodd" clip-rule="evenodd" d="M8.16146 2H15.8385C16.3657 1.99998 16.8205 1.99997 17.195 2.03057C17.5904 2.06287 17.9836 2.13419 18.362 2.32698C18.9265 2.6146 19.3854 3.07355 19.673 3.63803C19.8658 4.01641 19.9371 4.40963 19.9694 4.80498C20 5.17951 20 5.63439 20 6.16148V17C20 17.5523 19.5523 18 19 18H7C6.44772 18 6 18.4477 6 19C6 19.5523 6.44772 20 7 20H19C19.5523 20 20 20.4477 20 21C20 21.5523 19.5523 22 19 22H7C5.34315 22 4 20.6569 4 19V6.16139C3.99998 5.63427 3.99997 5.17953 4.03057 4.80498C4.06287 4.40963 4.13419 4.01641 4.32698 3.63803C4.6146 3.07355 5.07355 2.6146 5.63803 2.32698C6.01641 2.13419 6.40963 2.06287 6.80498 2.03057C7.17953 1.99997 7.63434 1.99998 8.16146 2ZM12 6C12.5523 6 13 6.44772 13 7V8H14C14.5523 8 15 8.44772 15 9C15 9.55229 14.5523 10 14 10H13V13C13 13.5523 12.5523 14 12 14C11.4477 14 11 13.5523 11 13V10H10C9.44772 10 9 9.55229 9 9C9 8.44772 9.44772 8 10 8H11V7C11 6.44772 11.4477 6 12 6Z" fill="black"/>
<path d="M19 20V18H7C6.44772 18 6 18.4477 6 19C6 19.5523 6.44772 20 7 20H19Z" fill="black"/>
<path d="M12 6C12.5523 6 13 6.44772 13 7V8H14C14.5523 8 15 8.44772 15 9C15 9.55228 14.5523 10 14 10H13V13C13 13.5523 12.5523 14 12 14C11.4477 14 11 13.5523 11 13V10H10C9.44771 10 9 9.55228 9 9C9 8.44772 9.44771 8 10 8H11V7C11 6.44772 11.4477 6 12 6Z" fill="black"/>
</svg>
