<svg width="24" height="24" viewBox="0 0 24 24" fill="none" xmlns="http://www.w3.org/2000/svg">
<path opacity="0.3" fill-rule="evenodd" clip-rule="evenodd" d="M12 2C12.5523 2 13 2.44772 13 3V9.00001C13 9.55229 12.5523 10 12 10C11.4477 10 11 9.55229 11 9.00001V3C11 2.44772 11.4477 2 12 2ZM4.92961 4.92894C5.32014 4.53842 5.9533 4.53842 6.34383 4.92894L10.5865 9.17158C10.977 9.56211 10.977 10.1953 10.5865 10.5858C10.1959 10.9763 9.56278 10.9763 9.17225 10.5858L4.92961 6.34315C4.53909 5.95263 4.53909 5.31946 4.92961 4.92894ZM19.0708 4.92894C19.4614 5.31946 19.4614 5.95263 19.0708 6.34315L14.8282 10.5858C14.4377 10.9763 13.8045 10.9763 13.414 10.5858C13.0235 10.1953 13.0235 9.56211 13.414 9.17158L17.6566 4.92894C18.0472 4.53842 18.6803 4.53842 19.0708 4.92894ZM2 12C2 11.4477 2.44772 11 3 11L9.00068 11C9.55297 11 10.0007 11.4477 10.0007 12C10.0007 12.5523 9.55296 13 9.00068 13L3 13C2.44771 13 2 12.5523 2 12ZM20.9993 13L15 13C14.4477 13 14 12.5523 14 12C14 11.4477 14.4477 11 15 11L20.9993 11C21.5516 11 21.9993 11.4477 21.9993 12C21.9993 12.5523 21.5516 13 20.9993 13ZM10.5865 13.4142C10.977 13.8048 10.977 14.4379 10.5865 14.8284L6.34383 19.0711C5.9533 19.4616 5.32014 19.4616 4.92961 19.0711C4.53909 18.6806 4.53909 18.0474 4.92961 17.6569L9.17225 13.4142C9.56278 13.0237 10.1959 13.0237 10.5865 13.4142ZM13.414 13.4142C13.8045 13.0237 14.4377 13.0237 14.8282 13.4142L19.0708 17.6569C19.4614 18.0474 19.4614 18.6806 19.0708 19.0711C18.6803 19.4616 18.0472 19.4616 17.6566 19.0711L13.414 14.8284C13.0235 14.4379 13.0235 13.8048 13.414 13.4142ZM12 14C12.5523 14 13 14.4477 13 15V21C13 21.5523 12.5523 22 12 22C11.4477 22 11 21.5523 11 21V15C11 14.4477 11.4477 14 12 14Z" fill="black"/>
<path fill-rule="evenodd" clip-rule="evenodd" d="M12 6C8.68629 6 6 8.68629 6 12C6 15.3137 8.68629 18 12 18C15.3137 18 18 15.3137 18 12C18 8.68629 15.3137 6 12 6ZM4 12C4 7.58172 7.58172 4 12 4C16.4183 4 20 7.58172 20 12C20 16.4183 16.4183 20 12 20C7.58172 20 4 16.4183 4 12Z" fill="black"/>
<path fill-rule="evenodd" clip-rule="evenodd" d="M12 10C11.4474 10 10.9488 10.2228 10.5858 10.5858C10.2228 10.9488 10 11.4474 10 12C10 12.5526 10.2228 13.0512 10.5858 13.4142C10.9488 13.7772 11.4474 14 12 14C12.5526 14 13.0512 13.7772 13.4142 13.4142C13.7772 13.0512 14 12.5526 14 12C14 11.4474 13.7772 10.9488 13.4142 10.5858C13.0512 10.2228 12.5526 10 12 10ZM9.17157 9.17157C9.89434 8.44881 10.8957 8 12 8C13.1043 8 14.1057 8.44881 14.8284 9.17157C15.5512 9.89433 16 10.8957 16 12C16 13.1043 15.5512 14.1057 14.8284 14.8284C14.1057 15.5512 13.1043 16 12 16C10.8957 16 9.89433 15.5512 9.17157 14.8284C8.44881 14.1057 8 13.1043 8 12C8 10.8957 8.44881 9.89434 9.17157 9.17157Z" fill="black"/>
</svg>
