<svg width="24" height="24" viewBox="0 0 24 24" fill="none" xmlns="http://www.w3.org/2000/svg">
<path opacity="0.3" fill-rule="evenodd" clip-rule="evenodd" d="M9.10508 4.21009C9.45179 2.93647 10.6165 2 12 2C13.3835 2 14.5482 2.93647 14.8949 4.21009C15.2369 4.07452 15.6098 4 16 4C17.6569 4 19 5.34315 19 7V12H19.5316C20.8949 12 22 13.1051 22 14.4684C22 15.0458 21.7976 15.605 21.4279 16.0486L19.167 18.7617C17.457 20.8136 14.924 22 12.253 22H11.747C9.07598 22 6.54295 20.8136 4.83301 18.7617L2.57212 16.0486C2.20245 15.605 2 15.0458 2 14.4684C2 13.1051 3.10513 12 4.46837 12H5V7C5 5.34315 6.34315 4 8 4C8.39025 4 8.76309 4.07451 9.10508 4.21009ZM8.05486 15.6733C8.60706 14.0756 10.2048 13 12 13C13.7952 13 15.393 14.0756 15.9451 15.6734C16.0183 15.885 16.0183 16.115 15.9451 16.3267C15.3929 17.9244 13.7952 19 12 19C10.2048 19 8.60705 17.9244 8.05485 16.3266C7.98171 16.115 7.98172 15.885 8.05486 15.6733Z" fill="black"/>
<path fill-rule="evenodd" clip-rule="evenodd" d="M10.5078 16C10.5078 15.1716 11.1764 14.5 12.0011 14.5H12.0145C12.8392 14.5 13.5078 15.1716 13.5078 16C13.5078 16.8284 12.8392 17.5 12.0145 17.5H12.0011C11.1764 17.5 10.5078 16.8284 10.5078 16Z" fill="black"/>
</svg>
