<svg width="24" height="24" viewBox="0 0 24 24" fill="none" xmlns="http://www.w3.org/2000/svg">
<g opacity="0.3">
<path fill-rule="evenodd" clip-rule="evenodd" d="M18.5733 12.3137C18.7479 12.8376 18.4648 13.404 17.9408 13.5786L15.6967 14.3267C15.1728 14.5013 14.6064 14.2181 14.4318 13.6942C14.2571 13.1703 14.5403 12.6039 15.0642 12.4293L17.3084 11.6812C17.8323 11.5066 18.3986 11.7898 18.5733 12.3137ZM5.42827 12.3137C5.60292 11.7898 6.16924 11.5066 6.69318 11.6812L8.94111 12.4306C9.46505 12.6052 9.74821 13.1715 9.57356 13.6955C9.39892 14.2194 8.8326 14.5026 8.30865 14.3279L6.06073 13.5786C5.53678 13.404 5.25362 12.8376 5.42827 12.3137ZM14.0756 13.8129C14.2503 14.3369 13.9671 14.9032 13.4432 15.0778L12.317 15.4532C12.1117 15.5216 11.8898 15.5216 11.6846 15.4532L10.5604 15.0785C10.0364 14.9038 9.75328 14.3375 9.92793 13.8136C10.1026 13.2896 10.6689 13.0065 11.1928 13.1811L12.0008 13.4504L12.8107 13.1805C13.3347 13.0058 13.901 13.289 14.0756 13.8129Z" fill="black"/>
<path fill-rule="evenodd" clip-rule="evenodd" d="M11.6838 2.05132C11.889 1.98289 12.111 1.98289 12.3162 2.05132L21.3162 5.05132C21.7246 5.18743 22 5.56957 22 6C22 6.43043 21.7246 6.81257 21.3162 6.94868L12.3162 9.94868C12.111 10.0171 11.889 10.0171 11.6838 9.94868L2.68377 6.94868C2.27543 6.81257 2 6.43043 2 6C2 5.56957 2.27543 5.18743 2.68377 5.05132L11.6838 2.05132ZM6.16228 6L12 7.94591L17.8377 6L12 4.05409L6.16228 6Z" fill="black"/>
<path fill-rule="evenodd" clip-rule="evenodd" d="M2.19513 10.1813C2.13046 10.1597 2.06515 10.1451 2 10.1371L2.00077 8.82068L11.6838 12.0486C11.889 12.117 12.111 12.117 12.3162 12.0486L22 8.82068V10.138C21.9352 10.1461 21.8703 10.1606 21.8061 10.182L19.5631 10.9297C19.0391 11.1043 18.756 11.6706 18.9306 12.1946C19.1053 12.7185 19.6716 13.0017 20.1955 12.827L22 12.2256V17.9999C22 18.4304 21.7246 18.8125 21.3162 18.9486L12.3162 21.9486C12.111 22.017 11.889 22.017 11.6838 21.9486L2.68377 18.9486C2.27543 18.8125 2 18.4304 2 17.9999V12.2244L2.65173 12.4416C2.66256 12.4457 2.6735 12.4495 2.68455 12.4532L3.80838 12.8278C4.33233 13.0025 4.89865 12.7193 5.07329 12.1954C5.24794 11.6714 4.96478 11.1051 4.44084 10.9305L3.35179 10.5674C3.34096 10.5634 3.33001 10.5596 3.31896 10.5559L2.19513 10.1813ZM18.5733 12.3137C18.7479 12.8376 18.4648 13.404 17.9408 13.5786L15.6967 14.3267C15.1728 14.5013 14.6064 14.2181 14.4318 13.6942C14.2571 13.1703 14.5403 12.6039 15.0642 12.4293L17.3084 11.6812C17.8323 11.5066 18.3986 11.7898 18.5733 12.3137ZM5.42827 12.3137C5.60292 11.7898 6.16924 11.5066 6.69318 11.6812L8.94111 12.4306C9.46505 12.6052 9.74821 13.1715 9.57356 13.6955C9.39892 14.2194 8.8326 14.5026 8.30865 14.3279L6.06073 13.5786C5.53678 13.404 5.25362 12.8376 5.42827 12.3137ZM14.0756 13.8129C14.2503 14.3369 13.9671 14.9032 13.4432 15.0778L12.317 15.4532C12.1117 15.5216 11.8898 15.5216 11.6846 15.4532L10.5604 15.0785C10.0364 14.9038 9.75328 14.3375 9.92793 13.8136C10.1026 13.2896 10.6689 13.0065 11.1928 13.1811L12.0008 13.4504L12.8107 13.1805C13.3347 13.0058 13.901 13.289 14.0756 13.8129Z" fill="black"/>
</g>
<path fill-rule="evenodd" clip-rule="evenodd" d="M18.5736 12.3092C18.7482 12.8332 18.465 13.3995 17.9411 13.5741L15.697 14.3222C15.173 14.4968 14.6067 14.2137 14.4321 13.6897C14.2574 13.1658 14.5406 12.5995 15.0645 12.4248L17.3087 11.6768C17.8326 11.5021 18.3989 11.7853 18.5736 12.3092ZM5.42854 12.3092C5.60319 11.7853 6.16951 11.5021 6.69345 11.6768L8.94138 12.4261C9.46532 12.6007 9.74848 13.1671 9.57384 13.691C9.39919 14.2149 8.83287 14.4981 8.30893 14.3235L6.061 13.5741C5.53705 13.3995 5.25389 12.8332 5.42854 12.3092ZM14.0759 13.8085C14.2506 14.3324 13.9674 14.8987 13.4435 15.0734L12.3173 15.4488C12.112 15.5172 11.8901 15.5172 11.6848 15.4488L10.5607 15.074C10.0367 14.8994 9.75355 14.3331 9.9282 13.8091C10.1028 13.2852 10.6692 13.002 11.1931 13.1767L12.0011 13.446L12.811 13.176C13.3349 13.0013 13.9013 13.2845 14.0759 13.8085Z" fill="black"/>
<path d="M18.9309 12.1901C19.1055 12.7141 19.6719 12.9972 20.1958 12.8226L22 12.2212V10.1336C21.9353 10.1417 21.8705 10.1562 21.8063 10.1776L19.5633 10.9252C19.0394 11.0999 18.7562 11.6662 18.9309 12.1901Z" fill="black"/>
<path d="M3.31923 10.5514L2.19541 10.1768C2.13064 10.1552 2.06524 10.1406 2 10.1326V12.2198L2.65079 12.4367C2.66202 12.4409 2.67336 12.4449 2.68483 12.4488L3.80865 12.8234C4.3326 12.998 4.89892 12.7149 5.07356 12.1909C5.24821 11.667 4.96505 11.1006 4.44111 10.926L3.35327 10.5634C3.34204 10.5592 3.3307 10.5552 3.31923 10.5514Z" fill="black"/>
<path d="M6.16406 6.00011L12.0018 7.94601L17.8395 6.00011L12.0018 4.0542L6.16406 6.00011Z" fill="black"/>
</svg>
