<svg width="24" height="24" viewBox="0 0 24 24" fill="none" xmlns="http://www.w3.org/2000/svg">
<g opacity="0.3">
<path d="M13.0003 4.06203C12.6723 4.02109 12.3382 4 11.9992 4C11.6609 4 11.3275 4.021 11.0003 4.06175L10.9992 12.353L4.66406 15.1982C4.9354 15.8197 5.2834 16.4 5.6961 16.9272L10.9992 14.5455V19.9381C11.3268 19.979 11.6605 20 11.9992 20C12.3378 20 12.6716 19.979 12.9992 19.9381V14.545L18.3029 16.9263C18.7155 16.399 19.0634 15.8187 19.3347 15.1972L12.9992 12.3527L13.0003 4.06203Z" fill="black"/>
<path d="M12.0001 2C11.9998 2 12.0004 2 12.0001 2V2Z" fill="black"/>
</g>
<path fill-rule="evenodd" clip-rule="evenodd" d="M12 4C7.58172 4 4 7.58172 4 12C4 16.4183 7.58172 20 12 20C16.4183 20 20 16.4183 20 12C20 7.58172 16.4183 4 12 4ZM2 12C2 6.47715 6.47715 2 12 2C17.5228 2 22 6.47715 22 12C22 17.5228 17.5228 22 12 22C6.47715 22 2 17.5228 2 12Z" fill="black"/>
</svg>
