<svg width="24" height="24" viewBox="0 0 24 24" fill="none" xmlns="http://www.w3.org/2000/svg">
<path opacity="0.3" d="M12.1188 8.03311C10.7279 7.26038 8.97365 7.84705 8.32742 9.30106L5.8293 14.9218C5.1983 16.3416 5.75566 18.0082 7.11381 18.7627L11.1409 21H5C4.44772 21 4 21.4477 4 22C4 22.5523 4.44772 23 5 23H15C15.4557 23 15.8537 22.6919 15.968 22.2508C16.0823 21.8097 15.884 21.3471 15.4856 21.1258L10.2854 18.2368L13.0533 12.0089L15.2294 14.6377C15.4247 14.8737 15.7174 15.0071 16.0237 14.9998C16.3299 14.9925 16.6159 14.8452 16.7997 14.6001L19.8 10.6001C20.1314 10.1583 20.0419 9.53153 19.6 9.20013C19.1582 8.86874 18.5314 8.95825 18.2 9.40006L15.961 12.3851L12.9436 8.73995C12.7253 8.45845 12.4481 8.21609 12.1188 8.03311Z" fill="black"/>
<path d="M14 1C12.3431 1 11 2.34315 11 4C11 5.65685 12.3431 7 14 7C15.6569 7 17 5.65685 17 4C17 2.34315 15.6569 1 14 1Z" fill="black"/>
</svg>
