<svg width="24" height="24" viewBox="0 0 24 24" fill="none" xmlns="http://www.w3.org/2000/svg">
<g opacity="0.3">
<path fill-rule="evenodd" clip-rule="evenodd" d="M12.4304 7.74806C12.3408 7.59446 12.1763 7.5 11.9985 7.5C11.8207 7.5 11.6562 7.59446 11.5666 7.74806L10.5447 9.5H8.49851C8.31948 9.5 8.15411 9.59572 8.06494 9.75097C7.97577 9.90622 7.97641 10.0973 8.06662 10.2519L9.08632 12L8.06662 13.7481C7.97641 13.9027 7.97577 14.0938 8.06494 14.249C8.15411 14.4043 8.31948 14.5 8.49851 14.5H10.5447L11.5666 16.2519C11.6562 16.4055 11.8207 16.5 11.9985 16.5C12.1763 16.5 12.3408 16.4055 12.4304 16.2519L13.4524 14.5H15.4985C15.6775 14.5 15.8429 14.4043 15.9321 14.249C16.0213 14.0938 16.0206 13.9027 15.9304 13.7481L14.9107 12L15.9304 10.2519C16.0206 10.0973 16.0213 9.90622 15.9321 9.75097C15.8429 9.59572 15.6775 9.5 15.4985 9.5H13.4524L12.4304 7.74806Z" fill="black"/>
<path fill-rule="evenodd" clip-rule="evenodd" d="M17.54 4H6.45703C6.48431 4.1626 6.49851 4.32964 6.49851 4.5V19.5C6.49851 19.6704 6.48431 19.8374 6.45703 20H17.54C17.5127 19.8374 17.4985 19.6704 17.4985 19.5V4.5C17.4985 4.32964 17.5127 4.1626 17.54 4ZM12.4304 7.74806C12.3408 7.59446 12.1763 7.5 11.9985 7.5C11.8207 7.5 11.6562 7.59446 11.5666 7.74806L10.5447 9.5H8.49851C8.31948 9.5 8.15411 9.59572 8.06494 9.75097C7.97577 9.90622 7.97641 10.0973 8.06662 10.2519L9.08632 12L8.06662 13.7481C7.97641 13.9027 7.97577 14.0938 8.06494 14.249C8.15411 14.4043 8.31948 14.5 8.49851 14.5H10.5447L11.5666 16.2519C11.6562 16.4055 11.8207 16.5 11.9985 16.5C12.1763 16.5 12.3408 16.4055 12.4304 16.2519L13.4524 14.5H15.4985C15.6775 14.5 15.8429 14.4043 15.9321 14.249C16.0213 14.0938 16.0206 13.9027 15.9304 13.7481L14.9107 12L15.9304 10.2519C16.0206 10.0973 16.0213 9.90622 15.9321 9.75097C15.8429 9.59572 15.6775 9.5 15.4985 9.5H13.4524L12.4304 7.74806Z" fill="black"/>
</g>
<path d="M12.4319 7.74806C12.3423 7.59446 12.1778 7.5 12 7.5C11.8222 7.5 11.6577 7.59446 11.5681 7.74806L10.5461 9.5H8.5C8.32097 9.5 8.1556 9.59572 8.06643 9.75097C7.97726 9.90622 7.9779 10.0973 8.06811 10.2519L9.08781 12L8.06811 13.7481C7.9779 13.9027 7.97726 14.0938 8.06643 14.249C8.1556 14.4043 8.32097 14.5 8.5 14.5H10.5461L11.5681 16.2519C11.6577 16.4055 11.8222 16.5 12 16.5C12.1778 16.5 12.3423 16.4055 12.4319 16.2519L13.4539 14.5H15.5C15.679 14.5 15.8444 14.4043 15.9336 14.249C16.0227 14.0938 16.0221 13.9027 15.9319 13.7481L14.9122 12L15.9319 10.2519C16.0221 10.0973 16.0227 9.90622 15.9336 9.75097C15.8444 9.59572 15.679 9.5 15.5 9.5H13.4539L12.4319 7.74806Z" fill="black"/>
<path d="M0.5 4.5V19.5C0.5 21.1569 1.84315 22.5 3.5 22.5C5.15685 22.5 6.5 21.1569 6.5 19.5V4.5C6.5 2.84315 5.15685 1.5 3.5 1.5C1.84315 1.5 0.5 2.84315 0.5 4.5Z" fill="black"/>
<path d="M17.5 4.5V19.5C17.5 21.1569 18.8431 22.5 20.5 22.5C22.1569 22.5 23.5 21.1569 23.5 19.5V4.5C23.5 2.84315 22.1569 1.5 20.5 1.5C18.8431 1.5 17.5 2.84315 17.5 4.5Z" fill="black"/>
</svg>
