<svg width="24" height="24" viewBox="0 0 24 24" fill="none" xmlns="http://www.w3.org/2000/svg">
<path opacity="0.3" fill-rule="evenodd" clip-rule="evenodd" d="M3.13509 6.49807C3.31401 6.18976 3.64353 6 4 6H20C20.3565 6 20.686 6.18976 20.8649 6.49807C21.0438 6.80639 21.0451 7.18664 20.8682 7.49614L12.8682 21.4961C12.6902 21.8077 12.3589 22 12 22C11.6411 22 11.3098 21.8077 11.1318 21.4961L3.13176 7.49614C2.9549 7.18664 2.95617 6.80639 3.13509 6.49807ZM5.72318 8L12 18.9844L18.2768 8H5.72318Z" fill="black"/>
<path d="M3.13509 17.5019C3.31401 17.8102 3.64353 18 4 18H9.13502H11.4385H12.5636L13.7064 16H10.2957H7.99216H5.72318L6.85767 14.0146L5.70592 11.9991L3.13176 16.5039C2.9549 16.8134 2.95617 17.1936 3.13509 17.5019Z" fill="black"/>
<path d="M20.8649 17.5019C21.0438 17.1936 21.0451 16.8134 20.8682 16.5039L17.1434 9.98536L16.0089 8H13.7054L15.9916 12.0009L18.2768 16H16.0099L14.8671 18H20C20.3565 18 20.686 17.8102 20.8649 17.5019Z" fill="black"/>
<path d="M12.8682 2.50386C12.6902 2.19229 12.3589 2 12 2C11.6411 2 11.3098 2.19229 11.1318 2.50386L7.99111 8L6.85767 9.98351L8.00942 11.9991L10.2946 8L12 5.01556L12.5625 6H14.866L12.8682 2.50386Z" fill="black"/>
</svg>
