<svg width="24" height="24" viewBox="0 0 24 24" fill="none" xmlns="http://www.w3.org/2000/svg">
<g opacity="0.3">
<path d="M12 5.5C10.8954 5.5 10 6.39543 10 7.5C10 8.60457 10.8954 9.5 12 9.5C13.1046 9.5 14 8.60457 14 7.5C14 6.39543 13.1046 5.5 12 5.5Z" fill="black"/>
<path fill-rule="evenodd" clip-rule="evenodd" d="M10 16.5C10 15.3954 10.8954 14.5 12 14.5C13.1046 14.5 14 15.3954 14 16.5C14 17.6046 13.1046 18.5 12 18.5C10.8954 18.5 10 17.6046 10 16.5Z" fill="black"/>
<path fill-rule="evenodd" clip-rule="evenodd" d="M7 17C7 19.7614 9.23858 22 12 22C17.5228 22 22 17.5228 22 12C22 6.47715 17.5228 2 12 2C14.7614 2 17 4.23858 17 7C17 9.76142 14.7614 12 12 12C9.23858 12 7 14.2386 7 17ZM10 16.5C10 15.3954 10.8954 14.5 12 14.5C13.1046 14.5 14 15.3954 14 16.5C14 17.6046 13.1046 18.5 12 18.5C10.8954 18.5 10 17.6046 10 16.5Z" fill="black"/>
</g>
<path fill-rule="evenodd" clip-rule="evenodd" d="M12 2C6.47715 2 2 6.47715 2 12C2 17.5228 6.47715 22 12 22C9.23858 22 7 19.7614 7 17C7 14.2386 9.23858 12 12 12C14.7614 12 17 9.76142 17 7C17 4.23858 14.7614 2 12 2ZM12 5.5C10.8954 5.5 10 6.39543 10 7.5C10 8.60457 10.8954 9.5 12 9.5C13.1046 9.5 14 8.60457 14 7.5C14 6.39543 13.1046 5.5 12 5.5Z" fill="black"/>
<path fill-rule="evenodd" clip-rule="evenodd" d="M10 16.5C10 15.3954 10.8954 14.5 12 14.5C13.1046 14.5 14 15.3954 14 16.5C14 17.6046 13.1046 18.5 12 18.5C10.8954 18.5 10 17.6046 10 16.5Z" fill="black"/>
</svg>
