<svg width="24" height="24" viewBox="0 0 24 24" fill="none" xmlns="http://www.w3.org/2000/svg">
<path opacity="0.14" d="M16 7.1023C16 9.87106 14.3804 11.394 12.5986 12.7923C12.2456 13.0692 11.7544 13.0692 11.4014 12.7923C9.61965 11.394 8 9.87106 8 7.1023C8 4.83666 9.79086 3 12 3C14.2091 3 16 5.05115 16 7.1023Z" fill="black"/>
<path d="M12 21V13M7 13H17M16 7.1023C16 9.87106 14.3804 11.394 12.5986 12.7923C12.2456 13.0692 11.7544 13.0692 11.4014 12.7923C9.61965 11.394 8 9.87106 8 7.1023C8 4.83666 9.79086 3 12 3C14.2091 3 16 5.05115 16 7.1023Z" stroke="black" stroke-width="2" stroke-linecap="round"/>
</svg>
