<svg width="24" height="24" viewBox="0 0 24 24" fill="none" xmlns="http://www.w3.org/2000/svg">
<path opacity="0.14" d="M8.2 3H15.8C16.9201 3 17.4802 3 17.908 3.21799C18.2843 3.40973 18.5903 3.71569 18.782 4.09202C19 4.51984 19 5.0799 19 6.2V17H7C5.89543 17 5 17.8954 5 19V6.2C5 5.0799 5 4.51984 5.21799 4.09202C5.40973 3.71569 5.71569 3.40973 6.09202 3.21799C6.51984 3 7.0799 3 8.2 3Z" fill="black"/>
<path d="M19 17V18C19.5523 18 20 17.5523 20 17H19ZM17.908 3.21799L17.454 4.10899L17.454 4.10899L17.908 3.21799ZM18.782 4.09202L17.891 4.54601V4.54601L18.782 4.09202ZM6.09202 3.21799L5.63803 2.32698L5.63803 2.32698L6.09202 3.21799ZM5.21799 4.09202L4.32698 3.63803L4.32698 3.63803L5.21799 4.09202ZM19 22C19.5523 22 20 21.5523 20 21C20 20.4477 19.5523 20 19 20V22ZM19 17C19 16.4477 18.5523 16 18 16C17.4477 16 17 16.4477 17 17H19ZM17 21C17 21.5523 17.4477 22 18 22C18.5523 22 19 21.5523 19 21H17ZM8.5 12L7.63622 11.4961C7.4558 11.8054 7.45452 12.1876 7.63286 12.4981C7.8112 12.8086 8.14193 13 8.5 13V12ZM12 6L12.8638 5.49613C12.6846 5.18891 12.3557 5 12 5C11.6443 5 11.3154 5.18891 11.1362 5.49613L12 6ZM15.5 12V13C15.8581 13 16.1888 12.8086 16.3671 12.4981C16.5455 12.1876 16.5442 11.8054 16.3638 11.4961L15.5 12ZM12 14L11.1362 14.5039C11.3154 14.8111 11.6443 15 12 15C12.3557 15 12.6846 14.8111 12.8638 14.5039L12 14ZM15.5 8L16.3638 8.50387C16.5442 8.19458 16.5455 7.81243 16.3671 7.50194C16.1888 7.19145 15.8581 7 15.5 7V8ZM8.5 8V7C8.14193 7 7.8112 7.19145 7.63286 7.50194C7.45452 7.81243 7.4558 8.19458 7.63622 8.50387L8.5 8ZM8.2 4H15.8V2H8.2V4ZM18 6.2V17H20V6.2H18ZM6 19V6.2H4V19H6ZM15.8 4C16.3766 4 16.7488 4.00078 17.0322 4.02393C17.3038 4.04612 17.4045 4.0838 17.454 4.10899L18.362 2.32698C17.9836 2.13419 17.5904 2.06287 17.195 2.03057C16.8114 1.99922 16.3436 2 15.8 2V4ZM20 6.2C20 5.65645 20.0008 5.18864 19.9694 4.80497C19.9371 4.40963 19.8658 4.01641 19.673 3.63803L17.891 4.54601C17.9162 4.59545 17.9539 4.69617 17.9761 4.96784C17.9992 5.25117 18 5.62345 18 6.2H20ZM17.454 4.10899C17.6422 4.20487 17.7951 4.35785 17.891 4.54601L19.673 3.63803C19.3854 3.07354 18.9265 2.6146 18.362 2.32698L17.454 4.10899ZM8.2 2C7.65645 2 7.18864 1.99922 6.80497 2.03057C6.40963 2.06287 6.01641 2.13419 5.63803 2.32698L6.54601 4.10899C6.59545 4.0838 6.69617 4.04612 6.96784 4.02393C7.25117 4.00078 7.62345 4 8.2 4V2ZM6 6.2C6 5.62345 6.00078 5.25117 6.02393 4.96784C6.04612 4.69617 6.0838 4.59545 6.10899 4.54601L4.32698 3.63803C4.13419 4.01641 4.06287 4.40963 4.03057 4.80497C3.99922 5.18864 4 5.65645 4 6.2H6ZM5.63803 2.32698C5.07354 2.6146 4.6146 3.07354 4.32698 3.63803L6.10899 4.54601C6.20487 4.35785 6.35785 4.20487 6.54601 4.10899L5.63803 2.32698ZM7 18H19V16H7V18ZM19 20H7V22H19V20ZM7 20C6.44772 20 6 19.5523 6 19H4C4 20.6569 5.34315 22 7 22V20ZM7 16C5.34315 16 4 17.3431 4 19H6C6 18.4477 6.44772 18 7 18V16ZM17 17V21H19V17H17ZM9.36378 12.5039L12.8638 6.50387L11.1362 5.49613L7.63622 11.4961L9.36378 12.5039ZM11.1362 6.50387L14.6362 12.5039L16.3638 11.4961L12.8638 5.49613L11.1362 6.50387ZM15.5 11H8.5V13H15.5V11ZM12.8638 14.5039L16.3638 8.50387L14.6362 7.49613L11.1362 13.4961L12.8638 14.5039ZM15.5 7H8.5V9H15.5V7ZM7.63622 8.50387L11.1362 14.5039L12.8638 13.4961L9.36378 7.49613L7.63622 8.50387Z" fill="black"/>
</svg>
