<svg width="24" height="24" viewBox="0 0 24 24" fill="none" xmlns="http://www.w3.org/2000/svg">
<path opacity="0.14" d="M13 3H11C10.4477 3 10 3.44772 10 4V7C10 7.55228 9.55228 8 9 8H6C5.44772 8 5 8.44772 5 9V11C5 11.5523 5.44772 12 6 12H9C9.55228 12 10 12.4477 10 13V20C10 20.5523 10.4477 21 11 21H13C13.5523 21 14 20.5523 14 20V13C14 12.4477 14.4477 12 15 12H18C18.5523 12 19 11.5523 19 11V9C19 8.44772 18.5523 8 18 8H15C14.4477 8 14 7.55228 14 7V4C14 3.44772 13.5523 3 13 3Z" fill="black"/>
<path d="M13 3H11C10.4477 3 10 3.44772 10 4V7C10 7.55228 9.55228 8 9 8H6C5.44772 8 5 8.44772 5 9V11C5 11.5523 5.44772 12 6 12H9C9.55228 12 10 12.4477 10 13V20C10 20.5523 10.4477 21 11 21H13C13.5523 21 14 20.5523 14 20V13C14 12.4477 14.4477 12 15 12H18C18.5523 12 19 11.5523 19 11V9C19 8.44772 18.5523 8 18 8H15C14.4477 8 14 7.55228 14 7V4C14 3.44772 13.5523 3 13 3Z" stroke="black" stroke-width="2" stroke-linejoin="round"/>
</svg>
