<svg width="24" height="24" viewBox="0 0 24 24" fill="none" xmlns="http://www.w3.org/2000/svg">
<circle opacity="0.14" cx="12" cy="12" r="7" fill="black"/>
<path d="M14.1211 9.87869L18.3637 5.63605M14.1211 9.87869C14.664 10.4216 15 11.1716 15 12M14.1211 9.87869C13.5782 9.3358 12.8284 9.00001 12 9.00001M15 12L20.9993 12M15 12C15 12.8284 14.664 13.5784 14.1211 14.1213M18.3637 18.364L14.1211 14.1213M14.1211 14.1213C13.5782 14.6642 12.8284 15 12 15M12 21V15M12 15C11.1716 15 10.4223 14.6642 9.87936 14.1213M5.63672 18.364L9.87936 14.1213M9.87936 14.1213C9.33647 13.5784 9.00068 12.8284 9.00068 12M9.00068 12L3 12M9.00068 12C9.00068 11.1716 9.33647 10.4216 9.87936 9.87869M9.87936 9.87869L5.63672 5.63605M9.87936 9.87869C10.4223 9.33579 11.1716 9.00001 12 9.00001M12 9.00001V3M19 12C19 15.866 15.866 19 12 19C8.13401 19 5 15.866 5 12C5 8.13401 8.13401 5 12 5C15.866 5 19 8.13401 19 12Z" stroke="black" stroke-width="2" stroke-linecap="round" stroke-linejoin="round"/>
</svg>
