<svg width="24" height="24" viewBox="0 0 24 24" fill="none" xmlns="http://www.w3.org/2000/svg">
<path opacity="0.14" d="M6 7V13H4.46837C3.65741 13 3 13.6574 3 14.4684C3 14.8119 3.12043 15.1445 3.34034 15.4084L5.60123 18.1215C7.12118 19.9454 9.37276 21 11.747 21H12.253C14.6272 21 16.8788 19.9454 18.3988 18.1215L20.6597 15.4084C20.8796 15.1445 21 14.8119 21 14.4684C21 13.6574 20.3426 13 19.5316 13H18V7C18 5.89543 17.1046 5 16 5C14.8954 5 14 5.89543 14 7V5C14 3.89543 13.1046 3 12 3C10.8954 3 10 3.89543 10 5V7C10 5.89543 9.10457 5 8 5C6.89543 5 6 5.89543 6 7Z" fill="black"/>
<path d="M9 11C9 11.5523 9.44772 12 10 12C10.5523 12 11 11.5523 11 11H9ZM6 13V14C6.55228 14 7 13.5523 7 13H6ZM13 11C13 11.5523 13.4477 12 14 12C14.5523 12 15 11.5523 15 11H13ZM18 13H17C17 13.5523 17.4477 14 18 14V13ZM3.34034 15.4084L2.57212 16.0486H2.57212L3.34034 15.4084ZM5.60123 18.1215L6.36945 17.4813L5.60123 18.1215ZM20.6597 15.4084L19.8914 14.7682L20.6597 15.4084ZM18.3988 18.1215L17.6305 17.4813H17.6305L18.3988 18.1215ZM9 16L8.05486 15.6733C7.98172 15.885 7.98171 16.115 8.05485 16.3266L9 16ZM15 16L15.9451 16.3267C16.0183 16.115 16.0183 15.885 15.9451 15.6734L15 16ZM12 15C11.4477 15 11 15.4477 11 16C11 16.5523 11.4477 17 12 17V15ZM12.009 17C12.5613 17 13.009 16.5523 13.009 16C13.009 15.4477 12.5613 15 12.009 15V17ZM9 7V11H11V7H9ZM7 13V7H5V13H7ZM8 6C8.55228 6 9 6.44772 9 7H11C11 5.34315 9.65685 4 8 4V6ZM8 4C6.34315 4 5 5.34315 5 7H7C7 6.44772 7.44772 6 8 6V4ZM13 5V11H15V5H13ZM11 11V5H9V11H11ZM12 4C12.5523 4 13 4.44772 13 5H15C15 3.34315 13.6569 2 12 2V4ZM12 2C10.3431 2 9 3.34315 9 5H11C11 4.44772 11.4477 4 12 4V2ZM17 7V13H19V7H17ZM15 11V7H13V11H15ZM16 6C16.5523 6 17 6.44772 17 7H19C19 5.34315 17.6569 4 16 4V6ZM16 4C14.3431 4 13 5.34315 13 7H15C15 6.44772 15.4477 6 16 6V4ZM6 12H4.46837V14H6V12ZM2.57212 16.0486L4.83301 18.7617L6.36945 17.4813L4.10856 14.7682L2.57212 16.0486ZM11.747 22H12.253V20H11.747V22ZM18 14H19.5316V12H18V14ZM19.8914 14.7682L17.6305 17.4813L19.167 18.7617L21.4279 16.0486L19.8914 14.7682ZM20 14.4684C20 14.5779 19.9616 14.684 19.8914 14.7682L21.4279 16.0486C21.7976 15.605 22 15.0458 22 14.4684H20ZM12.253 22C14.924 22 17.457 20.8136 19.167 18.7617L17.6305 17.4813C16.3006 19.0772 14.3305 20 12.253 20V22ZM4.83301 18.7617C6.54295 20.8136 9.07598 22 11.747 22V20C9.66954 20 7.69941 19.0772 6.36945 17.4813L4.83301 18.7617ZM2 14.4684C2 15.0458 2.20245 15.605 2.57212 16.0486L4.10856 14.7682C4.03841 14.684 4 14.5779 4 14.4684H2ZM19.5316 14C19.7903 14 20 14.2097 20 14.4684H22C22 13.1051 20.8949 12 19.5316 12V14ZM4.46837 12C3.10513 12 2 13.1051 2 14.4684H4C4 14.2097 4.2097 14 4.46837 14V12ZM9.94514 16.3266C10.1942 15.6061 10.9797 15 12 15V13C10.2048 13 8.60706 14.0756 8.05486 15.6733L9.94514 16.3266ZM12 15C13.0203 15 13.8058 15.6061 14.0549 16.3267L15.9451 15.6734C15.393 14.0756 13.7952 13 12 13V15ZM14.0549 15.6734C13.8058 16.3939 13.0203 17 12 17V19C13.7952 19 15.3929 17.9244 15.9451 16.3267L14.0549 15.6734ZM12 17C10.9797 17 10.1942 16.3939 9.94515 15.6733L8.05485 16.3266C8.60705 17.9244 10.2048 19 12 19V17ZM12 17H12.009V15H12V17Z" fill="black"/>
</svg>
