<svg width="24" height="24" viewBox="0 0 24 24" fill="none" xmlns="http://www.w3.org/2000/svg">
<path opacity="0.14" fill-rule="evenodd" clip-rule="evenodd" d="M8.52 3.70554L5.39067 7.33122C4.4921 8.40951 4 9.76871 4 11.1723V16.0862L3 21.0001L10 21L12 17L14 21L21 21L20.0039 15V11.1745C20.0039 9.77091 19.5118 8.41171 18.6132 7.33342L15.4839 3.70774C15.1258 3.27799 14.6057 3.02824 14.0639 3.00225C13.8747 2.99318 13.6835 3.0114 13.4939 3.05879C12.5971 3.283 12.0364 4.06233 12.002 4.89137C11.9685 4.06151 11.4076 3.281 10.51 3.0566C10.3204 3.0092 10.1292 2.99098 9.94 3.00006C9.39825 3.02604 8.87812 3.27579 8.52 3.70554ZM8.89555 9.74625L11.63 6.10777C11.856 5.79138 11.9786 5.43905 12 5.08837C12.0008 5.07597 12.0014 5.06356 12.0019 5.05116C12.0024 5.06429 12.0031 5.07743 12.0039 5.09057C12.0253 5.44125 12.1479 5.79358 12.3739 6.10997L15.1084 9.74845C15.6908 10.5639 16.0039 11.5409 16.0039 12.543L16 13C16 11.8954 15.1046 11 14 11C12.8954 11 12 11.8954 12 13C12 11.8954 11.1046 11 10 11C8.89543 11 8 11.8954 8 13V12.5408C8 11.5387 8.31311 10.5617 8.89555 9.74625Z" fill="black"/>
<path d="M3 21.0001L4 16.0862V11.1723C4 9.76871 4.4921 8.40951 5.39067 7.33122L8.52 3.70554C8.87812 3.27579 9.39825 3.02604 9.94 3.00006C10.1292 2.99098 10.3204 3.0092 10.51 3.0566C11.4784 3.2987 12.0548 4.18807 12 5.08837C11.9786 5.43905 11.856 5.79138 11.63 6.10777L8.89555 9.74625C8.31311 10.5617 8 11.5387 8 12.5408V14V13C8 11.8954 8.89543 11 10 11C11.1046 11 12 11.8954 12 13M21 21L20.0039 15V11.1745C20.0039 9.77091 19.5118 8.41171 18.6132 7.33342L15.4839 3.70774C15.1258 3.27799 14.6057 3.02824 14.0639 3.00225C13.8747 2.99318 13.6835 3.0114 13.4939 3.05879C12.5255 3.30089 11.9491 4.19027 12.0039 5.09057C12.0253 5.44125 12.1479 5.79358 12.3739 6.10997L15.1084 9.74845C15.6908 10.5639 16.0039 11.5409 16.0039 12.543L16 14V13C16 11.8954 15.1046 11 14 11C12.8954 11 12 11.8954 12 13M12 13V17M12 17L14 21M12 17L10 21" stroke="black" stroke-width="2" stroke-linecap="round" stroke-linejoin="round"/>
</svg>
