<svg width="24" height="24" viewBox="0 0 24 24" fill="none" xmlns="http://www.w3.org/2000/svg">
<path d="M4 16.5C4 15.9477 3.55228 15.5 3 15.5C2.44772 15.5 2 15.9477 2 16.5H4ZM5.39933 6.70051C4.95778 7.03225 4.86876 7.65913 5.20051 8.10067C5.53225 8.54222 6.15913 8.63124 6.60067 8.29949L5.39933 6.70051ZM15.6213 10.8787L16.3284 11.5858H16.3284L15.6213 10.8787ZM15.3787 11.1213L14.6716 10.4142L14.6716 10.4142L15.3787 11.1213ZM8 11C7.44772 11 7 11.4477 7 12C7 12.5523 7.44772 13 8 13V11ZM16 16.5C16 15.9477 15.5523 15.5 15 15.5C14.4477 15.5 14 15.9477 14 16.5H16ZM19.3089 7.24974C19.7229 6.88427 19.7623 6.25234 19.3969 5.83827C19.0314 5.4242 18.3995 5.3848 17.9854 5.75026L19.3089 7.24974ZM14.0172 5.75026C13.6031 5.3848 12.9712 5.4242 12.6057 5.83827C12.2403 6.25234 12.2797 6.88427 12.6937 7.24974L14.0172 5.75026ZM16 5L15.2929 5.70711C15.6834 6.09763 16.3166 6.09763 16.7071 5.70711L16 5ZM17 4L17.7071 4.70711C18.0976 4.31658 18.0976 3.68342 17.7071 3.29289L17 4ZM16 3L16.7071 2.29289C16.3166 1.90237 15.6834 1.90237 15.2929 2.29289L16 3ZM15 4L14.2929 3.29289C13.9024 3.68342 13.9024 4.31658 14.2929 4.70711L15 4ZM11 16.5C11 18.433 9.433 20 7.5 20V22C10.5376 22 13 19.5376 13 16.5H11ZM7.5 20C5.567 20 4 18.433 4 16.5H2C2 19.5376 4.46243 22 7.5 22V20ZM7.5 13C9.433 13 11 14.567 11 16.5H13C13 13.4624 10.5376 11 7.5 11V13ZM9.00024 9.5C9.00024 10.3283 8.32855 11 7.5 11V13C9.43287 13 11.0002 11.4331 11.0002 9.5H9.00024ZM7.50024 8C8.32867 8 9.00024 8.67157 9.00024 9.5H11.0002C11.0002 7.567 9.43324 6 7.50024 6V8ZM6.60067 8.29949C6.85131 8.11119 7.16135 8 7.50024 8V6C6.71332 6 5.98444 6.2609 5.39933 6.70051L6.60067 8.29949ZM17.5 20H18V18H17.5V20ZM22 16V13H20V16H22ZM18 9H17.7426V11H18V9ZM14.9142 10.1716L14.6716 10.4142L16.0858 11.8284L16.3284 11.5858L14.9142 10.1716ZM13.2574 11H8V13H13.2574V11ZM14.6716 10.4142C14.2965 10.7893 13.7878 11 13.2574 11V13C14.3182 13 15.3356 12.5786 16.0858 11.8284L14.6716 10.4142ZM17.7426 9C16.6818 9 15.6644 9.42143 14.9142 10.1716L16.3284 11.5858C16.7035 11.2107 17.2122 11 17.7426 11V9ZM22 13C22 10.7909 20.2091 9 18 9V11C19.1046 11 20 11.8954 20 13H22ZM18 20C20.2091 20 22 18.2091 22 16H20C20 17.1046 19.1046 18 18 18V20ZM14 16.5C14 18.433 15.567 20 17.5 20V18C16.6716 18 16 17.3284 16 16.5H14ZM17.9854 5.75026C17.4559 6.21757 16.7628 6.5 16.0013 6.5V8.5C17.2687 8.5 18.428 8.02716 19.3089 7.24974L17.9854 5.75026ZM16.0013 6.5C15.2398 6.5 14.5467 6.21757 14.0172 5.75026L12.6937 7.24974C13.5745 8.02716 14.7339 8.5 16.0013 8.5V6.5ZM16.7071 5.70711L17.7071 4.70711L16.2929 3.29289L15.2929 4.29289L16.7071 5.70711ZM17.7071 3.29289L16.7071 2.29289L15.2929 3.70711L16.2929 4.70711L17.7071 3.29289ZM15.2929 2.29289L14.2929 3.29289L15.7071 4.70711L16.7071 3.70711L15.2929 2.29289ZM14.2929 4.70711L15.2929 5.70711L16.7071 4.29289L15.7071 3.29289L14.2929 4.70711Z" fill="black"/>
</svg>
