<svg width="24" height="24" viewBox="0 0 24 24" fill="none" xmlns="http://www.w3.org/2000/svg">
<g opacity="0.14">
<path d="M6 19V5C6 3.89543 5.10457 3 4 3C2.89543 3 2 3.89543 2 5V19C2 20.1046 2.89543 21 4 21C5.10457 21 6 20.1046 6 19Z" fill="black"/>
<path fill-rule="evenodd" clip-rule="evenodd" d="M18 19V5L6 5V19H18ZM8.5 14L9.66667 12L8.5 10H10.8333L12 8L13.1667 10H15.5L14.3333 12L15.5 14H13.1667L12 16L10.8333 14H8.5Z" fill="black"/>
<path d="M22 19V5C22 3.89543 21.1046 3 20 3C18.8954 3 18 3.89543 18 5V19C18 20.1046 18.8954 21 20 21C21.1046 21 22 20.1046 22 19Z" fill="black"/>
</g>
<path d="M18 19V5M18 19C18 20.1046 18.8954 21 20 21C21.1046 21 22 20.1046 22 19V5C22 3.89543 21.1046 3 20 3C18.8954 3 18 3.89543 18 5M18 19H6M18 5L6 5M6 19V5M6 19C6 20.1046 5.10457 21 4 21C2.89543 21 2 20.1046 2 19V5C2 3.89543 2.89543 3 4 3C5.10457 3 6 3.89543 6 5M8.5 14L12 8L15.5 14H8.5ZM12 16L15.5 10H8.5L12 16Z" stroke="black" stroke-width="2" stroke-linecap="round" stroke-linejoin="round"/>
</svg>
