<svg width="24" height="24" viewBox="0 0 24 24" fill="none" xmlns="http://www.w3.org/2000/svg">
<g opacity="0.14">
<path d="M16 8L17.2361 10.6334L20 11.0557L18 13.1056L18.4721 16L16 14.6334L13.5279 16L14 13.1056L12 11.0557L14.7639 10.6334L16 8Z" fill="black"/>
<path d="M4 12C4 16.9706 8.02944 21 13 21C13.6874 21 14.3568 20.9229 15 20.777C10.992 19.8675 8 16.2832 8 12C8 7.71683 10.992 4.13247 15 3.22302C14.3568 3.07706 13.6874 3 13 3C8.02944 3 4 7.02944 4 12Z" fill="black"/>
</g>
<path d="M16 8L17.2361 10.6334L20 11.0557L18 13.1056L18.4721 16L16 14.6334L13.5279 16L14 13.1056L12 11.0557L14.7639 10.6334L16 8Z" stroke="black" stroke-width="2" stroke-linejoin="round"/>
<path d="M4 12C4 16.9706 8.02944 21 13 21C13.6874 21 14.3568 20.9229 15 20.777C10.992 19.8675 8 16.2832 8 12C8 7.71683 10.992 4.13247 15 3.22302C14.3568 3.07706 13.6874 3 13 3C8.02944 3 4 7.02944 4 12Z" stroke="black" stroke-width="2" stroke-linejoin="round"/>
</svg>
