<svg width="24" height="24" viewBox="0 0 24 24" fill="none" xmlns="http://www.w3.org/2000/svg">
<path d="M12 3C12.5523 3 13 3.44772 13 4V10.2769L18.504 7.13174C18.9835 6.85773 19.5944 7.02433 19.8684 7.50385C20.1424 7.98337 19.9758 8.59422 19.4963 8.86823L14.0157 12L19.4963 15.1317C19.9758 15.4058 20.1424 16.0166 19.8684 16.4961C19.5944 16.9756 18.9835 17.1422 18.504 16.8682L13 13.7231V20C13 20.5523 12.5523 21 12 21C11.4477 21 11 20.5523 11 20V13.7233L5.49631 16.8682C5.01679 17.1422 4.40594 16.9756 4.13193 16.4961C3.85792 16.0166 4.02451 15.4058 4.50403 15.1317L9.98461 12L4.50403 8.86823C4.02451 8.59422 3.85792 7.98337 4.13193 7.50385C4.40594 7.02433 5.01679 6.85773 5.49631 7.13174L11 10.2767V4C11 3.44772 11.4477 3 12 3Z" fill="black"/>
</svg>
