<svg width="24" height="24" viewBox="0 0 24 24" fill="none" xmlns="http://www.w3.org/2000/svg">
<path fill-rule="evenodd" clip-rule="evenodd" d="M17.0704 17C16.736 17 16.4238 16.8329 16.2383 16.5547L9.42578 6.3359C8.86939 5.5013 7.93269 5 6.92963 5H3C2.44772 5 2 5.44771 2 6C2 6.55229 2.44772 7 3 7H6.92963C7.26399 7 7.57622 7.1671 7.76168 7.4453L14.5742 17.6641C15.1306 18.4987 16.0673 19 17.0704 19H21C21.5523 19 22 18.5523 22 18C22 17.4477 21.5523 17 21 17H17.0704Z" fill="black"/>
<path fill-rule="evenodd" clip-rule="evenodd" d="M15 6C15 6.55228 15.4477 7 16 7H21C21.5523 7 22 6.55228 22 6C22 5.44772 21.5523 5 21 5H16C15.4477 5 15 5.44772 15 6Z" fill="black"/>
</svg>
