<svg width="24" height="24" viewBox="0 0 24 24" fill="none" xmlns="http://www.w3.org/2000/svg">
<path d="M1 9V17C1 18.6569 2.34315 20 4 20H8C9.65685 20 11 18.6569 11 17V13C11 11.3431 9.65685 10 8 10H4C3.64936 10 3.31278 10.0602 3 10.1707V9C3 7.34315 4.34315 6 6 6H7C7.55228 6 8 5.55228 8 5C8 4.44771 7.55228 4 7 4H6C3.23858 4 1 6.23858 1 9Z" fill="black"/>
<path d="M20 20C21.6569 20 23 18.6569 23 17V13C23 11.3431 21.6569 10 20 10H16C15.6494 10 15.3128 10.0602 15 10.1707V9C15 7.34315 16.3431 6 18 6H19C19.5523 6 20 5.55228 20 5C20 4.44771 19.5523 4 19 4H18C15.2386 4 13 6.23858 13 9V17C13 18.6569 14.3431 20 16 20H20Z" fill="black"/>
</svg>
