<svg width="24" height="24" viewBox="0 0 24 24" fill="none" xmlns="http://www.w3.org/2000/svg">
<path d="M3 5C3 4.44772 3.44772 4 4 4H4.5C5.05228 4 5.5 3.55228 5.5 3C5.5 2.44772 5.05228 2 4.5 2H4C2.34315 2 1 3.34315 1 5V9C1 10.1046 1.89543 11 3 11H5C6.10457 11 7 10.1046 7 9V7C7 5.89543 6.10457 5 5 5H3Z" fill="black"/>
<path d="M10 5C10 4.44772 10.4477 4 11 4H11.5C12.0523 4 12.5 3.55228 12.5 3C12.5 2.44772 12.0523 2 11.5 2H11C9.34315 2 8 3.34315 8 5V9C8 10.1046 8.89543 11 10 11H12C13.1046 11 14 10.1046 14 9V7C14 5.89543 13.1046 5 12 5H10Z" fill="black"/>
<path d="M12 13C10.8954 13 10 13.8954 10 15V17C10 18.1046 10.8954 19 12 19H14C14 19.5523 13.5523 20 13 20H12.5C11.9477 20 11.5 20.4477 11.5 21C11.5 21.5523 11.9477 22 12.5 22H13C14.6569 22 16 20.6569 16 19V15C16 13.8954 15.1046 13 14 13H12Z" fill="black"/>
<path d="M19 13C17.8954 13 17 13.8954 17 15V17C17 18.1046 17.8954 19 19 19H21C21 19.5523 20.5523 20 20 20H19.5C18.9477 20 18.5 20.4477 18.5 21C18.5 21.5523 18.9477 22 19.5 22H20C21.6569 22 23 20.6569 23 19V15C23 13.8954 22.1046 13 21 13H19Z" fill="black"/>
</svg>
