<svg width="24" height="24" viewBox="0 0 24 24" fill="none" xmlns="http://www.w3.org/2000/svg">
<path d="M10.0667 8.98086C10.0667 8.43915 10.5058 8 11.0475 8H11.2335C11.6936 8 12.0667 8.37303 12.0667 8.83318C12.0667 9.10257 11.9364 9.35533 11.7171 9.51168L10.8148 10.1547L10.3399 9.66013C10.1646 9.47747 10.0667 9.23407 10.0667 8.98086Z" fill="black"/>
<path d="M9.58038 13.4905L10.5686 12.7862L12.5915 14.8935L12.1629 15.4675C11.9127 15.8026 11.519 16 11.1008 16H10.3831C9.61925 16 9 15.3807 9 14.6169C9 14.1697 9.21621 13.7501 9.58038 13.4905Z" fill="black"/>
<path fill-rule="evenodd" clip-rule="evenodd" d="M3 6C3 4.34315 4.34315 3 6 3H18C19.6569 3 21 4.34315 21 6V18C21 19.6569 19.6569 21 18 21H6C4.34315 21 3 19.6569 3 18V6ZM12.8778 11.1404L12.2147 11.613L13.8045 13.269L15.1987 11.4017C15.5291 10.9592 16.1558 10.8683 16.5983 11.1987C17.0408 11.5291 17.1317 12.1558 16.8013 12.5983L15.2085 14.7315L16.7214 16.3075C17.1039 16.7059 17.0909 17.3389 16.6925 17.7214C16.2941 18.1039 15.6611 18.0909 15.2786 17.6925L13.9955 16.356L13.7655 16.6641C13.1377 17.5048 12.15 18 11.1008 18H10.3831C8.51468 18 7 16.4853 7 14.6169C7 13.523 7.52885 12.4967 8.41959 11.8618L9.16864 11.328L8.89717 11.0452C8.36426 10.4901 8.06667 9.75038 8.06667 8.98086C8.06667 7.33458 9.40124 6 11.0475 6H11.2335C12.7982 6 14.0667 7.26846 14.0667 8.83318C14.0667 9.7492 13.6238 10.6087 12.8778 11.1404Z" fill="black"/>
</svg>
