<svg width="24" height="24" viewBox="0 0 24 24" fill="none" xmlns="http://www.w3.org/2000/svg">
<path fill-rule="evenodd" clip-rule="evenodd" d="M6 3C4.34315 3 3 4.34315 3 6V18C3 19.6569 4.34315 21 6 21H18C19.6569 21 21 19.6569 21 18V6C21 4.34315 19.6569 3 18 3H6ZM12.5 10.2143C12.5 9.2221 13.33 8.5 14.25 8.5H15.75C16.67 8.5 17.5 9.2221 17.5 10.2143V13.0714C17.5 14.4581 16.3342 15.5 15 15.5H14.625C14.0727 15.5 13.625 15.0523 13.625 14.5C13.625 13.9477 14.0727 13.5 14.625 13.5H15C15.1615 13.5 15.2866 13.4405 15.3713 13.3571H14.25C13.33 13.3571 12.5 12.635 12.5 11.6429V10.2143ZM8.25 8.5C7.33004 8.5 6.5 9.2221 6.5 10.2143V11.6429C6.5 12.635 7.33004 13.3571 8.25 13.3571H9.37131C9.28664 13.4405 9.16153 13.5 9 13.5H8.625C8.07272 13.5 7.625 13.9477 7.625 14.5C7.625 15.0523 8.07272 15.5 8.625 15.5H9C10.3342 15.5 11.5 14.4581 11.5 13.0714V10.2143C11.5 9.2221 10.67 8.5 9.75 8.5H8.25Z" fill="black"/>
</svg>
