<svg width="24" height="24" viewBox="0 0 24 24" fill="none" xmlns="http://www.w3.org/2000/svg">
<path d="M18.1957 8.80388C18.9727 9.22793 19.4998 10.0523 19.4998 10.9998C19.4998 12.3805 18.3805 13.4998 16.9998 13.4998C16.0523 13.4998 15.2279 12.9727 14.8039 12.1957M18.1957 8.80388L20.9998 5.99981L15.9998 5.99981L13.9998 3.99981C12.8952 2.89524 11.1044 2.89524 9.99981 3.99981C8.89524 5.10438 8.89524 6.89525 9.99981 7.99982L11.9998 9.99981L11.9998 14.9998L14.8039 12.1957M18.1957 8.80388L14.8039 12.1957M8.99951 20.9995L6.99951 11.9995L10.4995 8.49951M2.99951 20.9995L14.9995 20.9995" stroke="black" stroke-width="2" stroke-linecap="round" stroke-linejoin="round"/>
</svg>
