<svg width="24" height="24" viewBox="0 0 24 24" fill="none" xmlns="http://www.w3.org/2000/svg">
<path d="M15.2747 12.3521C15.9352 11.153 16.2998 9.72895 16.2998 8.14864L14.9909 7.82138C14.642 7.73415 14.2823 7.91808 14.1487 8.25202L13.5761 9.68349C13.4812 9.92072 13.5193 10.1905 13.6762 10.3922L15.2747 12.3521ZM15.2747 12.3521C14.5386 13.6885 13.4349 14.7455 12.0588 15.4281M12.0588 15.4281C10.9231 15.9914 9.60189 16.2998 8.14849 16.2998L7.82138 14.9909C7.73415 14.642 7.91808 14.2823 8.25202 14.1487L9.6262 13.5991C9.89333 13.4922 10.1984 13.5548 10.4019 13.7583L12.0588 15.4281ZM7.19902 3.99902H16.799C17.9191 3.99902 18.4792 3.99902 18.907 4.21701C19.2833 4.40876 19.5893 4.71472 19.781 5.09104C19.999 5.51887 19.999 6.07892 19.999 7.19902V16.799C19.999 17.9191 19.999 18.4792 19.781 18.907C19.5893 19.2833 19.2833 19.5893 18.907 19.781C18.4792 19.999 17.9191 19.999 16.799 19.999H7.19902C6.07892 19.999 5.51887 19.999 5.09104 19.781C4.71472 19.5893 4.40876 19.2833 4.21701 18.907C3.99902 18.4792 3.99902 17.9191 3.99902 16.799V7.19902C3.99902 6.07892 3.99902 5.51887 4.21701 5.09104C4.40876 4.71472 4.71472 4.40876 5.09104 4.21701C5.51887 3.99902 6.07892 3.99902 7.19902 3.99902Z" stroke="black" stroke-width="2" stroke-linecap="round" stroke-linejoin="round"/>
</svg>
