<svg width="24" height="24" viewBox="0 0 24 24" fill="none" xmlns="http://www.w3.org/2000/svg">
<path d="M15 7C15 6.44772 15.4477 6 16 6H16.009C16.5613 6 17.009 6.44772 17.009 7C17.009 7.55228 16.5613 8 16.009 8H16C15.4477 8 15 7.55228 15 7Z" fill="black"/>
<path d="M22.0004 5.5C22.5056 5.5 22.9314 5.87679 22.9929 6.37821C23.0545 6.87964 22.7324 7.3482 22.2422 7.47034L21.0486 7.76771C21.0048 7.04517 20.8353 6.37021 20.5547 5.5H22.0004Z" fill="black"/>
<path d="M1 12C1 10.3431 2.34315 9 4 9H4.62761C4.50978 9.09013 4.39913 9.18751 4.29409 9.2924C3.69035 9.89529 3.57378 10.6407 3.55701 11.1032C3.22695 11.2666 3 11.6068 3 12V14C3 14.5523 2.55228 15 2 15C1.44772 15 1 14.5523 1 14V12Z" fill="black"/>
<path opacity="0.3" d="M20.9993 4C20.9993 4.42434 20.735 4.78694 20.362 4.93217C20.3925 5.01695 20.4176 5.09229 20.4381 5.15412L20.448 5.18377C20.484 5.29185 20.5186 5.39716 20.5518 5.5H20.554C20.8345 6.37005 21.004 7.04492 21.0478 7.76731L21.0458 7.76781C21.0721 8.19858 21.0528 8.63368 20.9916 9.12403C20.8269 10.4416 19.7377 11.1897 18.649 11.3625C18.1183 11.4468 17.5494 11.4089 16.9935 11.2393C16.9814 12.0286 16.9489 12.6436 16.862 13.1648C16.7214 14.0083 16.4416 14.6053 15.9993 15.2996V19C15.9993 20.1046 15.1038 21 13.9993 21H12.4993C11.3947 21 10.4993 20.1046 10.4993 19V16.3471L9.24551 16.1382L9.04005 16.96L9.50922 18.3675C9.94091 19.6626 8.97697 21 7.61185 21H5.72004C4.85918 21 4.0949 20.4491 3.82267 19.6324L3.44355 18.4951C3.10808 17.4887 3.18614 16.3902 3.66058 15.4413L3.95427 14.8539C4.22342 14.3156 4.2376 13.656 3.99006 13.0386C3.88964 12.7882 3.79007 12.5243 3.71403 12.2865C3.65157 12.0912 3.55928 11.7811 3.55928 11.5C3.55928 11.4812 3.55845 11.4561 3.55743 11.4252C3.55493 11.3491 3.55128 11.2382 3.55611 11.1033C3.57289 10.6407 3.68963 9.89529 4.29337 9.2924C4.39841 9.18751 4.50839 9.09013 4.62622 9C4.67658 8.96149 4.72824 8.9243 4.78135 8.88841C5.43676 10.4662 6.43119 11.7716 7.47822 12.692C7.89303 13.0566 8.52488 13.0159 8.88952 12.6011C9.25415 12.1863 9.21347 11.5545 8.79867 11.1898C7.33919 9.90689 5.99928 7.66741 5.99928 5C5.99928 4.65342 6.17873 4.33156 6.47355 4.14935C6.76836 3.96714 7.1365 3.95058 7.44649 4.10557L11.1381 5.95139C11.5989 4.25088 13.153 3 14.9993 3H19.9993C20.5516 3 20.9993 3.44772 20.9993 4Z" fill="black"/>
</svg>
