<svg width="24" height="24" viewBox="0 0 24 24" fill="none" xmlns="http://www.w3.org/2000/svg">
<g opacity="0.3">
<path fill-rule="evenodd" clip-rule="evenodd" d="M19.5738 5.0951C19.7031 5.03411 19.8476 5 20 5H22C22.5523 5 23 4.55228 23 4C23 3.44772 22.5523 3 22 3H20C18.6462 3 17.5019 3.89669 17.1285 5.12854C15.8967 5.5019 15 6.64623 15 8V9.33682C14.5454 9.12085 14.0368 9 13.5 9C12.8445 9 12.2312 9.18018 11.7067 9.49371C11.1117 8.03113 9.67629 7 8 7H6C3.23858 7 1 9.23858 1 12C1 14.0515 2.5444 15.7423 4.53397 15.9731L5.07179 14.6286C5.2769 14.1158 5.85887 13.8664 6.37166 14.0715C6.88444 14.2766 7.13386 14.8586 6.92874 15.3714L6.6773 16H7.52323L8.07179 14.6286C8.2769 14.1158 8.85887 13.8664 9.37166 14.0715C9.88444 14.2766 10.1339 14.8586 9.92874 15.3714L9.86055 15.5419C10.2318 15.3465 10.5685 15.0944 10.8593 14.7972C10.8921 14.8349 10.9257 14.8718 10.96 14.908L11.2283 14.2373C11.4334 13.7245 12.0154 13.4751 12.5282 13.6802C13.041 13.8853 13.2904 14.4673 13.0853 14.9801L12.7128 15.9111C12.9659 15.9693 13.2293 16 13.5 16C13.8665 16 14.2198 15.9437 14.5518 15.8392L14.1058 14.9472C13.8588 14.4532 14.059 13.8526 14.553 13.6056C14.7414 13.5114 14.9454 13.4822 15.1393 13.5096C14.9251 13.1479 14.9555 12.6751 15.2474 12.3415C15.6111 11.9259 16.2429 11.8838 16.6585 12.2474L16.9997 12.546L17 12.5C17 12.3302 16.9879 12.1633 16.9646 12H20.3333C21.8061 12 23 10.8061 23 9.33333C23 7.25123 21.5315 5.5121 19.5738 5.0951ZM18.9883 7.5C18.436 7.5 17.9883 7.94772 17.9883 8.5C17.9883 9.05228 18.436 9.5 18.9883 9.5H18.9973C19.5496 9.5 19.9973 9.05228 19.9973 8.5C19.9973 7.94772 19.5496 7.5 18.9973 7.5H18.9883Z" fill="black"/>
<path d="M16.058 14.3795L16.2198 14.7031C16.2486 14.6676 16.2767 14.6315 16.3041 14.5949L16.058 14.3795Z" fill="black"/>
</g>
<path fill-rule="evenodd" clip-rule="evenodd" d="M6.37166 14.0715C6.88444 14.2766 7.13386 14.8586 6.92874 15.3714L4.92874 20.3714C4.72363 20.8842 4.14166 21.1336 3.62888 20.9285C3.11609 20.7234 2.86668 20.1414 3.07179 19.6286L5.07179 14.6286C5.2769 14.1158 5.85887 13.8664 6.37166 14.0715Z" fill="black"/>
<path fill-rule="evenodd" clip-rule="evenodd" d="M9.37166 14.0715C9.88444 14.2766 10.1339 14.8586 9.92874 15.3714L7.92874 20.3714C7.72363 20.8842 7.14166 21.1336 6.62888 20.9285C6.11609 20.7234 5.86668 20.1414 6.07179 19.6286L8.07179 14.6286C8.2769 14.1158 8.85887 13.8664 9.37166 14.0715Z" fill="black"/>
<path fill-rule="evenodd" clip-rule="evenodd" d="M12.5282 13.6802C13.041 13.8853 13.2904 14.4673 13.0853 14.9801L10.9287 20.3714C10.7236 20.8842 10.1417 21.1336 9.62888 20.9285C9.11609 20.7234 8.86668 20.1414 9.07179 19.6286L11.2283 14.2373C11.4334 13.7245 12.0154 13.4751 12.5282 13.6802Z" fill="black"/>
<path fill-rule="evenodd" clip-rule="evenodd" d="M17.9885 8.5C17.9885 7.94772 18.4363 7.5 18.9885 7.5H18.9975C19.5498 7.5 19.9975 7.94772 19.9975 8.5C19.9975 9.05228 19.5498 9.5 18.9975 9.5H18.9885C18.4363 9.5 17.9885 9.05228 17.9885 8.5Z" fill="black"/>
<path d="M17.5334 17.5665C17.4811 17.3051 17.3942 17.0517 17.2749 16.8132L16.0579 14.3792L18.8978 16.8641C19.0427 16.9909 19.1479 17.1568 19.2008 17.342L20.0387 20.2747C20.1905 20.8058 20.744 21.1132 21.275 20.9615C21.806 20.8098 22.1135 20.2563 21.9618 19.7253L21.1239 16.7925C20.9652 16.2371 20.6495 15.7393 20.2148 15.3589L16.6588 12.2474C16.2431 11.8837 15.6114 11.9259 15.2477 12.3415C14.9558 12.6751 14.9253 13.148 15.1396 13.5097C14.9456 13.4822 14.7416 13.5113 14.5531 13.6056C14.0591 13.8526 13.8588 14.4532 14.1058 14.9472L15.4861 17.7077C15.5258 17.7872 15.5548 17.8716 15.5722 17.9588L16.0197 20.1961C16.128 20.7377 16.6548 21.0889 17.1964 20.9806C17.7379 20.8723 18.0892 20.3454 17.9808 19.8039L17.5334 17.5665Z" fill="black"/>
<path fill-rule="evenodd" clip-rule="evenodd" d="M20 5C19.4477 5 19 5.44772 19 6C19 6.55228 18.5523 7 18 7C17.4477 7 17 6.55228 17 6C17 4.34315 18.3431 3 20 3H22C22.5523 3 23 3.44772 23 4C23 4.55228 22.5523 5 22 5H20Z" fill="black"/>
</svg>
