<svg width="24" height="24" viewBox="0 0 24 24" fill="none" xmlns="http://www.w3.org/2000/svg">
<g opacity="0.3">
<path d="M10.9999 9H10C9.6575 9 9.32305 9.03444 8.99992 9.10003V7C8.99992 6.44772 9.44763 6 9.99992 6C10.5522 6 10.9999 6.44772 10.9999 7V9Z" fill="black"/>
<path d="M14.9999 9.1C14.6768 9.03442 14.3424 9 14 9H12.9999V7C12.9999 6.44772 13.4476 6 13.9999 6C14.5522 6 14.9999 6.44772 14.9999 7V9.1Z" fill="black"/>
<path d="M19 14.5H19.9996C20.1549 14.5 20.308 14.4639 20.4468 14.3944L22.4468 13.3944C22.9408 13.1474 23.141 12.5468 22.894 12.0528C22.647 11.5588 22.0464 11.3586 21.5524 11.6056L19.7635 12.5H19.2361L18.8301 12.703C18.9409 13.1166 19 13.5514 19 14V14.5Z" fill="black"/>
<path d="M17.8133 16.5828L18.8321 15.0547C18.8901 14.9676 18.9338 14.8725 18.962 14.7729L20.1947 15.0194C20.4254 15.0656 20.6324 15.1916 20.7794 15.3753L22.7794 17.8753C23.1244 18.3066 23.0545 18.9359 22.6232 19.2809C22.192 19.6259 21.5627 19.556 21.2177 19.1247L19.4452 16.9091L17.8133 16.5828Z" fill="black"/>
<path d="M16.3424 18.7893L17.4604 17.1122L19.4471 18.1056C19.6407 18.2023 19.7976 18.3593 19.8943 18.5528L20.8943 20.5528C21.1413 21.0468 20.9411 21.6474 20.4471 21.8944C19.9531 22.1414 19.3525 21.9412 19.1055 21.4472L18.2546 19.7454L16.3424 18.7893Z" fill="black"/>
<path d="M14.0857 20H15C15.3344 20 15.6466 19.8329 15.8321 19.5547L16.0868 19.1726L17.207 20.2929C17.3946 20.4804 17.4999 20.7348 17.4999 21V22C17.4999 22.5523 17.0522 23 16.4999 23C15.9476 23 15.4999 22.5523 15.4999 22V21.4142L14.0857 20Z" fill="black"/>
<path d="M7.91317 19.1725L8.16795 19.5547C8.35342 19.8329 8.66565 20 9 20H9.91413L8.49992 21.4142V22C8.49992 22.5523 8.0522 23 7.49992 23C6.94763 23 6.49992 22.5523 6.49992 22V21C6.49992 20.7348 6.60527 20.4804 6.79281 20.2929L7.91317 19.1725Z" fill="black"/>
<path d="M6.53957 17.1121L7.65761 18.7892L5.74527 19.7454L4.89434 21.4472C4.64735 21.9412 4.04668 22.1414 3.5527 21.8944C3.05872 21.6474 2.8585 21.0468 3.10549 20.5528L4.10549 18.5528C4.20225 18.3593 4.35918 18.2023 4.5527 18.1056L6.53957 17.1121Z" fill="black"/>
<path d="M5.03795 14.7729C5.0662 14.8725 5.1099 14.9676 5.16795 15.0547L6.18664 16.5827L4.55461 16.9091L2.78216 19.1247C2.43715 19.556 1.80786 19.6259 1.3766 19.2809C0.945338 18.9359 0.875417 18.3066 1.22043 17.8753L3.22043 15.3753C3.36741 15.1916 3.57446 15.0656 3.80518 15.0194L5.03795 14.7729Z" fill="black"/>
<path d="M4.76393 12.5L5.16987 12.703C5.05908 13.1166 5 13.5514 5 14V14.5H4.00022C3.84497 14.5 3.69186 14.4639 3.55301 14.3944L1.55301 13.3944C1.05903 13.1474 0.858803 12.5468 1.10579 12.0528C1.35278 11.5588 1.95345 11.3586 2.44743 11.6056L4.23629 12.5H4.76393Z" fill="black"/>
</g>
<path d="M3 9.38197V8H6.58579C7.11622 8 7.62493 7.78929 8 7.41421L8.70711 6.70711C9.059 6.35521 9.09859 5.79812 8.8 5.4L7.88154 4.17539L9.62469 2.78087C9.95632 2.51557 10.0842 2.06974 9.94363 1.66899C9.80305 1.26825 9.42469 1 9 1H4C2.34315 1 1 2.34315 1 4V10C1 10.3788 1.214 10.725 1.55279 10.8944L5.16987 12.703C5.05908 13.1166 5 13.5514 5 14V14.5C5 14.6974 5.05844 14.8904 5.16795 15.0547L8.16795 19.5547C8.35342 19.8329 8.66565 20 9 20H15C15.3344 20 15.6466 19.8329 15.8321 19.5547L18.8321 15.0547C18.9416 14.8904 19 14.6974 19 14.5V14C19 13.5514 18.9409 13.1166 18.8301 12.703L22.4472 10.8944C22.786 10.725 23 10.3788 23 10V4C23 2.34315 21.6569 1 20 1H15C14.5753 1 14.1969 1.26825 14.0564 1.66899C13.9158 2.06974 14.0437 2.51557 14.3753 2.78087L16.1185 4.17539L15.2 5.4C14.9014 5.79812 14.941 6.35521 15.2929 6.70711L16 7.41421C16.3751 7.78929 16.8838 8 17.4142 8H21V9.38197L17.9348 10.9146C17.0194 9.74885 15.5971 9 14 9H10C8.40286 9 6.98062 9.74885 6.06524 10.9146L3 9.38197Z" fill="black"/>
</svg>
