<svg width="24" height="24" viewBox="0 0 24 24" fill="none" xmlns="http://www.w3.org/2000/svg">
<path opacity="0.3" d="M3 11.8889C3 11.2436 3.1892 10.6458 3.54739 10.1601C2.60582 9.42828 2 8.28489 2 7.00001C2 6.44773 2.44772 6.00001 3 6.00001C3.55228 6.00001 4 6.44773 4 7.00001C4 8.10458 4.89543 9.00001 6 9.00001H9.39286L2.41884 3.81381C1.96943 3.4928 1.86534 2.86825 2.18634 2.41884C2.50735 1.96943 3.1319 1.86534 3.58132 2.18634L11.3701 7.9786L12.2774 3.25669C12.5405 1.72326 14.6419 1.56455 15.2066 2.9462L15.213 2.96219L15.5732 3.8889L16.5239 3.8889C16.6805 3.88884 16.8754 3.88878 17.0613 3.9085C17.5321 3.95844 17.869 4.2133 18.0678 4.41092L18.301 4.64265C18.3098 4.65144 18.3299 4.66307 18.3588 4.66307H19.2292C20.7244 4.66307 22 5.84053 22 7.36985C22 9.71513 20.0469 11.7834 17.5986 11.7834C17.3971 11.7834 17.2117 11.8625 17.0826 11.9907L17.0574 12.0158C17.041 12.0321 17.0352 12.0425 17.0352 12.0425C17.0341 12.0445 17.0298 12.0524 17.0244 12.0737C17.0098 12.1312 17 12.2262 17 12.4445V19.4859C17 20.8758 15.8664 21.9988 14.4766 21.9858C13.1051 21.973 12 20.8575 12 19.4859V17.4142C11.5783 17.5141 11.1015 17.5933 10.5984 17.6354C9.80811 17.7014 8.89166 17.6804 8 17.4637V19.5C8 20.8807 6.88071 22 5.5 22C4.11929 22 3 20.8807 3 19.5V11.8889Z" fill="black"/>
<path d="M18.4326 11.7019L18.4651 11.6401L11.9682 8.22689L11.3826 7.92257L11.1755 9.00005H10V17.6665C10.2055 17.6624 10.4057 17.6515 10.5984 17.6354C11.1015 17.5933 11.5783 17.5141 12 17.4142V10.5028L17 13.1296V12.4445C17 12.2262 17.0098 12.1312 17.0244 12.0737C17.0298 12.0524 17.0341 12.0445 17.0352 12.0425C17.0352 12.0425 17.041 12.0321 17.0574 12.0158L17.0826 11.9907C17.2117 11.8625 17.3971 11.7834 17.5986 11.7834C17.8841 11.7834 18.1629 11.7553 18.4326 11.7019Z" fill="black"/>
<path d="M15.9988 6.5C15.4465 6.5 14.9988 6.94772 14.9988 7.5C14.9988 8.05228 15.4465 8.5 15.9988 8.5H16.0078C16.5601 8.5 17.0078 8.05228 17.0078 7.5C17.0078 6.94772 16.5601 6.5 16.0078 6.5H15.9988Z" fill="black"/>
</svg>
