<svg width="24" height="24" viewBox="0 0 24 24" fill="none" xmlns="http://www.w3.org/2000/svg">
<path opacity="0.3" d="M12.2774 3.25669C12.5405 1.72326 14.6419 1.56455 15.2066 2.9462L15.213 2.96219L15.5732 3.8889L16.5239 3.8889C16.6805 3.88884 16.8754 3.88878 17.0613 3.9085C17.5321 3.95844 17.869 4.2133 18.0678 4.41092L18.301 4.64265C18.3098 4.65144 18.3299 4.66307 18.3588 4.66307H19.2292C20.7244 4.66307 22 5.84053 22 7.36985C22 9.71513 20.0469 11.7834 17.5986 11.7834C17.3971 11.7834 17.2117 11.8625 17.0826 11.9907L17.0574 12.0158C17.041 12.0321 17.0353 12.0424 17.0353 12.0424C17.0342 12.0444 17.0298 12.0524 17.0244 12.0737C17.0098 12.1312 17 12.2262 17 12.4445V19.25C17 20.7688 15.7688 22 14.25 22C12.7312 22 11.5 20.7688 11.5 19.25V17.5004C11.2302 17.5669 10.9434 17.6179 10.6455 17.6478C10.0112 17.7116 9.2977 17.6832 8.56061 17.4922V19.1111C8.56061 19.1218 8.56043 19.1325 8.56009 19.1432L8.55471 19.311C8.50662 20.8099 7.27767 22 5.77807 22C4.24378 22 3 20.7562 3 19.2219V11.8889C3 11.2436 3.1892 10.6458 3.5474 10.1601C2.60582 9.42827 2 8.28488 2 7C2 6.44772 2.44772 6 3 6C3.55228 6 4 6.44772 4 7C4 8.10457 4.89543 9 6 9H6.5L6.50522 9.00001H11.1739L12.2774 3.25669Z" fill="black"/>
<path d="M9.02734 9.00001H11.1725L11.3701 7.97161L11.6424 8.11467C11.6551 8.12135 11.6676 8.12826 11.6799 8.13539L18.4582 11.6964C18.1801 11.7534 17.8923 11.7834 17.5973 11.7834C17.3957 11.7834 17.2103 11.8625 17.0813 11.9907L17.056 12.0158C17.0396 12.0321 17.0339 12.0424 17.0339 12.0424C17.0328 12.0444 17.0285 12.0524 17.0231 12.0737C17.0085 12.1312 16.9987 12.2262 16.9987 12.4445V13.1889L10.7104 9.88522C10.6977 9.87855 10.6852 9.87164 10.6729 9.86451L9.02734 9.00001Z" fill="black"/>
<path fill-rule="evenodd" clip-rule="evenodd" d="M15.0032 7.5C15.0032 6.94772 15.449 6.5 15.9988 6.5H16.0077C16.5575 6.5 17.0032 6.94772 17.0032 7.5C17.0032 8.05228 16.5575 8.5 16.0077 8.5H15.9988C15.449 8.5 15.0032 8.05228 15.0032 7.5Z" fill="black"/>
</svg>
