<svg width="24" height="24" viewBox="0 0 24 24" fill="none" xmlns="http://www.w3.org/2000/svg">
<path opacity="0.3" d="M3.91038 3.5862C3.75314 3.24028 3.41344 3.01336 3.03367 3.00057C2.6539 2.98778 2.2997 3.19134 2.11955 3.5259C0.775664 6.02168 0.867796 10.6258 5.26574 15.6162L1.62852 17.0716C1.31659 17.1964 1.08818 17.4695 1.02051 17.7986C0.95284 18.1277 1.05496 18.4688 1.29235 18.7065C2.06879 19.4842 4.24802 21.1113 7.22541 21.9616C7.50746 22.0421 7.81066 21.9948 8.05472 21.8321L10.8036 20H16C16.7424 20 17.4537 19.7258 18.0652 19.3552C18.6841 18.9801 19.2607 18.4707 19.7526 17.9085C20.7022 16.8233 21.5 15.3459 21.5 14C21.5 12.9936 21.4835 11.2381 21.4671 9.73905C21.4589 8.98847 21.4506 8.30049 21.4445 7.80018L21.4382 7.29695L22.7481 5.33205C23.4126 4.33522 22.6981 3 21.5 3H16.4984C14.2893 3 12.4984 4.79086 12.4984 7V8.76342C11.3592 8.50978 9.92639 8.14338 8.51621 7.54253C6.53151 6.69689 4.75996 5.45527 3.91038 3.5862Z" fill="black"/>
<path d="M8.96652 2.28191C9.32029 2.42061 9.56488 2.74782 9.59775 3.12638C9.77158 5.1277 10.9786 6.85276 12.4984 8.27884V8.76354C11.3592 8.50991 9.92637 8.1435 8.51619 7.54265C7.53253 7.12354 6.60124 6.60715 5.80859 5.96532C6.26488 4.38437 7.09825 3.2266 7.92954 2.47233C8.21095 2.21699 8.61275 2.14321 8.96652 2.28191Z" fill="black"/>
<path fill-rule="evenodd" clip-rule="evenodd" d="M15.4883 7.00012C15.4883 6.44784 15.936 6.00012 16.4883 6.00012H16.4973C17.0496 6.00012 17.4973 6.44784 17.4973 7.00012C17.4973 7.55241 17.0496 8.00012 16.4973 8.00012H16.4883C15.936 8.00012 15.4883 7.55241 15.4883 7.00012Z" fill="black"/>
</svg>
