<svg width="24" height="24" viewBox="0 0 24 24" fill="none" xmlns="http://www.w3.org/2000/svg">
<path opacity="0.3" d="M10 2C9.57531 2 9.19695 2.26825 9.05637 2.66899C8.9158 3.06974 9.04368 3.51557 9.37531 3.78087L10.8992 5L9.37531 6.21913C9.11963 6.42367 8.98028 6.74042 9.00225 7.06711C9.02423 7.3938 9.20474 7.68903 9.4855 7.85749L11.5 9.06619V11.2044C11.5 12.224 11.7599 13.2269 12.2551 14.1182L13.3686 16.1225L3.36145 16.8923C2.02894 16.9948 1 18.1059 1 19.4424C1 20.8549 2.14508 22 3.55761 22H17.5C20.2614 22 22.5 19.7614 22.5 17V16.3847C22.5 15.5395 22.1434 14.7335 21.518 14.1649L17.0131 10.0695C17.0047 10.0619 17 10.0512 17 10.04C17 10.0179 17.0179 10 17.04 10H17.1514C17.1813 10 17.2105 10.0088 17.2354 10.0254L17.7872 10.3933C18.4214 10.8161 19.1927 10.9817 19.9445 10.8564L20.4932 10.7649C21.9398 10.5238 23 9.27226 23 7.80575V7C23 6.05573 22.5554 5.16656 21.8 4.6L19.6667 3C18.8012 2.35089 17.7485 2 16.6667 2H10Z" fill="black"/>
<path d="M11.5 9.64685V11.2045C11.5 12.2242 11.7599 13.227 12.2551 14.1184L12.7449 15H6.00002C5.65344 15 5.33157 14.8206 5.14937 14.5258C4.96716 14.231 4.95059 13.8628 5.10559 13.5528L5.38198 13H2.00002C1.60764 13 1.25152 12.7706 1.08938 12.4133C0.927247 12.056 0.989057 11.6368 1.24744 11.3415L4.74744 7.34154C5.03871 7.00866 5.51406 6.90668 5.91625 7.09079L11.5 9.64685Z" fill="black"/>
<path d="M18.0548 5.16806C17.5953 4.8617 16.9744 4.98588 16.6681 5.44541C16.3617 5.90493 16.4859 6.5258 16.9454 6.83216L17.6954 7.33216C18.1549 7.63851 18.7758 7.51434 19.0822 7.05481C19.3885 6.59528 19.2643 5.97441 18.8048 5.66806L18.0548 5.16806Z" fill="black"/>
</svg>
