<svg width="24" height="24" viewBox="0 0 24 24" fill="none" xmlns="http://www.w3.org/2000/svg">
<g opacity="0.3">
<path d="M11.2515 10.3087L5.0729 12.4184L11.2515 10.3087Z" fill="black"/>
<path d="M5.0729 12.4184L2.44721 11.1056L5.0729 12.4184Z" fill="black"/>
<path d="M1 12V13V12Z" fill="black"/>
<path d="M10 22H14H10Z" fill="black"/>
<path d="M18 11.5279V11.0003V11.5279Z" fill="black"/>
<path d="M10 7C10 8.26947 10.4731 9.42762 11.2515 10.3087L5.0729 12.4184L2.44721 11.1056C2.13723 10.9506 1.76909 10.9672 1.47427 11.1494C1.17945 11.3316 1 11.6534 1 12V13C1 17.9706 5.02944 22 10 22H14C17.3137 22 20 19.3137 20 16C20 14.2224 19.2261 12.6253 18 11.5279V11.0003C19.2126 10.0897 20 8.6368 20 7.00001C20 6.78921 19.9869 6.58101 19.9614 6.37627C19.9193 6.03919 19.8427 5.70927 19.7371 5.39649C19.0687 3.42134 17.2009 2 15 2C12.2386 2 10 4.23858 10 7Z" fill="black"/>
</g>
<path d="M15 7C15 6.44772 15.4477 6 16 6H16.009C16.5613 6 17.009 6.44772 17.009 7C17.009 7.55228 16.5613 8 16.009 8H16C15.4477 8 15 7.55228 15 7Z" fill="black"/>
<path d="M15.4487 14.3163C15.6234 13.7923 15.3402 13.226 14.8163 13.0513C14.2923 12.8767 13.726 13.1599 13.5514 13.6838C12.9105 15.6065 11.6807 16.4833 10.4542 16.7776C9.16271 17.0876 7.84692 16.7602 7.10006 16.2C6.65823 15.8687 6.03143 15.9582 5.70006 16.4C5.36869 16.8419 5.45823 17.4687 5.90006 17.8C7.15319 18.7399 9.08741 19.1625 10.9209 18.7224C12.8194 18.2668 14.5897 16.8935 15.4487 14.3163Z" fill="black"/>
<path d="M18 11.2272C18.7957 11.1593 19.75 10.9401 20.6271 10.3647C21.8174 9.58391 22.728 8.23801 22.9923 6.124C23.0321 5.80504 22.9162 5.48635 22.6808 5.26751C22.4453 5.04866 22.119 4.9564 21.8038 5.01944C21.3927 5.10167 20.3228 5.2941 19.7371 5.39649C19.8433 5.71027 19.9192 6.03802 19.9614 6.37627C19.9869 6.58101 20 6.78921 20 7.00001C20 8.6368 19.2126 10.0897 18 11.0003V11.2272Z" fill="black"/>
</svg>
