<svg width="24" height="24" viewBox="0 0 24 24" fill="none" xmlns="http://www.w3.org/2000/svg">
<path opacity="0.3" d="M20.2071 3.79322C17.3526 0.938707 12.8102 1.7759 10.2929 4.29325L7.05026 7.53585C5.7375 8.84861 5 10.6291 5 12.4856V17.0003C5 18.1049 5.89543 19.0003 7 19.0003L11.5147 19.0003C13.3712 19.0003 15.1517 18.2628 16.4645 16.9501L19.7071 13.7075C22.2244 11.1901 23.0617 6.64775 20.2071 3.79322Z" fill="black"/>
<path fill-rule="evenodd" clip-rule="evenodd" d="M15.7071 8.29289C16.0976 8.68342 16.0976 9.31658 15.7071 9.70711L3.70711 21.7071C3.31658 22.0976 2.68342 22.0976 2.29289 21.7071C1.90237 21.3166 1.90237 20.6834 2.29289 20.2929L14.2929 8.29289C14.6834 7.90237 15.3166 7.90237 15.7071 8.29289Z" fill="black"/>
<path d="M18 9H21.9591C21.8844 9.68257 21.7144 10.3576 21.4628 11H18C17.4477 11 17 10.5523 17 10C17 9.44772 17.4477 9 18 9Z" fill="black"/>
<path d="M16 13H20.3298C20.1361 13.2497 19.9281 13.4863 19.7071 13.7072L18.4143 15H16C15.4477 15 15 14.5523 15 14C15 13.4477 15.4477 13 16 13Z" fill="black"/>
</svg>
