<svg width="24" height="24" viewBox="0 0 24 24" fill="none" xmlns="http://www.w3.org/2000/svg">
<path opacity="0.3" d="M21.7141 2.29937C21.4861 2.0672 21.1595 1.96047 20.8384 2.01326L20.8228 2.01584L20.7801 2.02296C20.743 2.0292 20.6887 2.03838 20.6191 2.05032C20.4801 2.07421 20.2798 2.10916 20.0333 2.15372C19.5406 2.2428 18.8612 2.37063 18.1151 2.52563C16.6518 2.82966 14.8348 3.2573 13.6987 3.72297C13.5453 3.78585 13.3884 3.84959 13.2284 3.91453C11.2932 4.70043 8.92368 5.66272 7.1932 7.3932L6.2935 8.2929C3.69384 10.8926 3.69383 15.1075 6.2935 17.7071C8.89316 20.3068 13.108 20.3068 15.7077 17.7071L16.6074 16.8074C17.1859 16.2289 17.6775 15.63 18.1065 15C18.5366 14.3683 18.9039 13.7053 19.2328 13C19.5268 12.3697 19.7903 11.7056 20.0406 11C20.1291 10.7508 20.2158 10.4965 20.3018 10.2366C20.4285 9.8535 20.5534 9.43514 20.6742 9C20.9767 7.91098 21.2543 6.71685 21.4734 5.7068C21.6278 4.99474 21.7553 4.36445 21.8442 3.91198C21.8886 3.68565 21.9235 3.50353 21.9473 3.37762L21.9746 3.23233L21.9842 3.18018C22.0429 2.86011 21.9421 2.53154 21.7141 2.29937Z" fill="black"/>
<path fill-rule="evenodd" clip-rule="evenodd" d="M15.7071 8.29289C16.0976 8.68342 16.0976 9.31658 15.7071 9.70711L3.70711 21.7071C3.31658 22.0976 2.68342 22.0976 2.29289 21.7071C1.90237 21.3166 1.90237 20.6834 2.29289 20.2929L14.2929 8.29289C14.6834 7.90237 15.3166 7.90237 15.7071 8.29289Z" fill="black"/>
<path d="M15 14C15 13.4477 15.4477 13 16 13H19.2328C18.9039 13.7053 18.5366 14.3683 18.1065 15H16C15.4477 15 15 14.5523 15 14Z" fill="black"/>
<path d="M17 10C17 9.44772 17.4477 9 18 9H20.6742C20.5534 9.43514 20.4285 9.8535 20.3018 10.2366C20.2158 10.4965 20.1291 10.7508 20.0406 11H18C17.4477 11 17 10.5523 17 10Z" fill="black"/>
</svg>
