<svg width="24" height="24" viewBox="0 0 24 24" fill="none" xmlns="http://www.w3.org/2000/svg">
<g opacity="0.3">
<path d="M3.44725 6.10559C3.0759 5.91992 2.62845 5.98301 2.32293 6.26414C2.01741 6.54526 1.91737 6.98592 2.07156 7.37141L3.92301 12L2.07156 16.6286C1.91737 17.0141 2.01741 17.4548 2.32293 17.7359C2.62845 18.017 3.0759 18.0801 3.44725 17.8944L5.44725 16.8944C5.78604 16.7251 6.00004 16.3788 6.00004 16V13V11V8.00002C6.00004 7.62125 5.78604 7.27498 5.44725 7.10559L3.44725 6.10559Z" fill="black"/>
<path d="M17 13.0001V16.2255C17 16.6087 17.219 16.9581 17.5637 17.1253C17.9085 17.2925 18.3185 17.248 18.6193 17.0107C20.213 15.7538 21.3724 14.0453 21.9487 12.3163C22.0171 12.1111 22.0171 11.8892 21.9487 11.6839C21.3724 9.95491 20.213 8.24637 18.6193 6.98949C18.3185 6.75222 17.9085 6.70771 17.5637 6.87488C17.219 7.04206 17 7.39152 17 7.77468V11.0001V13.0001Z" fill="black"/>
</g>
<path d="M7.5 13L6 13V11L7.5 11V9C7.5 8.44772 7.94772 8 8.5 8C9.05228 8 9.5 8.44772 9.5 9V11L10.5 11V7.5C10.5 6.94772 10.9477 6.5 11.5 6.5C12.0523 6.5 12.5 6.94772 12.5 7.5V11.0001L13.5 11.0001V8C13.5 7.44772 13.9477 7 14.5 7C15.0523 7 15.5 7.44772 15.5 8V11.0001L17 11.0001V13.0001L15.5 13.0001V16C15.5 16.5523 15.0523 17 14.5 17C13.9477 17 13.5 16.5523 13.5 16V13.0001L12.5 13.0001V16.5C12.5 17.0523 12.0523 17.5 11.5 17.5C10.9477 17.5 10.5 17.0523 10.5 16.5V13L9.5 13V15C9.5 15.5523 9.05228 16 8.5 16C7.94772 16 7.5 15.5523 7.5 15V13Z" fill="black"/>
</svg>
