<svg width="24" height="24" viewBox="0 0 24 24" fill="none" xmlns="http://www.w3.org/2000/svg">
<path opacity="0.3" fill-rule="evenodd" clip-rule="evenodd" d="M21.9487 11.6838C22.0171 11.8891 22.0171 12.111 21.9487 12.3162C20.8457 15.6251 17.5267 19 13 19C11.1635 19 9.84115 18.7395 8.7539 18.1182C7.92451 17.6443 7.29893 16.9952 6.71095 16.2626L3.44725 17.8944C3.0759 18.0801 2.62845 18.017 2.32293 17.7359C2.01741 17.4548 1.91737 17.0141 2.07156 16.6286L3.92301 12L2.07156 7.37139C1.91737 6.9859 2.01741 6.54524 2.32293 6.26412C2.62845 5.983 3.0759 5.9199 3.44725 6.10557L6.71095 7.73742C7.29893 7.00481 7.92451 6.35569 8.7539 5.88176C9.84115 5.26047 11.1635 5 13 5C17.5267 5 20.8458 8.37486 21.9487 11.6838ZM15.9922 11C15.4399 11 14.9922 11.4477 14.9922 12C14.9922 12.5523 15.4399 13 15.9922 13H16.0012C16.5535 13 17.0012 12.5523 17.0012 12C17.0012 11.4477 16.5535 11 16.0012 11H15.9922Z" fill="black"/>
<path fill-rule="evenodd" clip-rule="evenodd" d="M14.9922 12C14.9922 11.4477 15.4399 11 15.9922 11H16.0012C16.5535 11 17.0012 11.4477 17.0012 12C17.0012 12.5523 16.5535 13 16.0012 13H15.9922C15.4399 13 14.9922 12.5523 14.9922 12Z" fill="black"/>
</svg>
