<svg width="24" height="24" viewBox="0 0 24 24" fill="none" xmlns="http://www.w3.org/2000/svg">
<path opacity="0.3" fill-rule="evenodd" clip-rule="evenodd" d="M21.3627 4.93217C21.7357 4.78694 22 4.42434 22 4C22 3.44772 21.5523 3 21 3H16C13.7909 3 12 4.79086 12 7V8.08051C11.1254 7.86067 10.1744 7.7703 9.26468 7.81361C7.98844 7.87438 6.61477 8.20847 5.62124 9H5C3.34315 9 2 10.3431 2 12V14C2 14.5523 2.44772 15 3 15C3.55228 15 4 14.5523 4 14V12C4 11.6069 4.22687 11.2667 4.55684 11.1033C4.55199 11.2383 4.55565 11.3492 4.55816 11.4254C4.55917 11.4562 4.56 11.4814 4.56 11.5002C4.56 11.7813 4.65229 12.0914 4.71476 12.2867C4.7908 12.5244 4.89036 12.7883 4.99078 13.0388C5.23833 13.6562 5.22415 14.3158 4.955 14.8541L4.6613 15.4415C4.18687 16.3904 4.1088 17.4888 4.44427 18.4953L4.82339 19.6326C5.09562 20.4493 5.8599 21.0002 6.72076 21.0002H8.61257C9.97769 21.0002 10.9416 19.6628 10.5099 18.3677L10.0695 17.0465C10.11 16.9439 10.1544 16.8243 10.1987 16.6914C10.2419 16.5619 10.2867 16.4146 10.3282 16.2541C10.7444 16.3403 11.1294 16.3957 11.4521 16.4316L11.5 16.4368V19.0002C11.5 20.1047 12.3954 21.0002 13.5 21.0002H15C16.1046 21.0002 17 20.1047 17 19.0002V15.2976C17.4416 14.6041 17.7209 14.0073 17.8614 13.1645C17.9482 12.6433 17.9807 12.0282 17.9928 11.2389C18.5488 11.4087 19.1178 11.4468 19.6487 11.3627C20.7377 11.1902 21.8275 10.442 21.9923 9.12403C21.9974 9.08289 22 9.04146 22 9V8L21.9999 7.98817L21.9996 7.97234C21.9754 7.09743 21.8247 6.31168 21.4487 5.18377L21.4388 5.15412C21.4183 5.09229 21.3933 5.01695 21.3627 4.93217ZM17.5 6C16.9477 6 16.5 6.44772 16.5 7C16.5 7.55228 16.9477 8 17.5 8H17.509C18.0613 8 18.509 7.55228 18.509 7C18.509 6.44772 18.0613 6 17.509 6H17.5Z" fill="black"/>
<path fill-rule="evenodd" clip-rule="evenodd" d="M16.5014 7C16.5014 6.44772 16.9491 6 17.5014 6H17.5104C18.0627 6 18.5104 6.44772 18.5104 7C18.5104 7.55228 18.0627 8 17.5104 8H17.5014C16.9491 8 16.5014 7.55228 16.5014 7Z" fill="black"/>
<path d="M2 12C2 10.3431 3.34315 9 5 9H5.62761C5.50978 9.09013 5.39913 9.18751 5.29409 9.2924C4.69035 9.89529 4.57378 10.6407 4.55701 11.1032C4.22695 11.2666 4 11.6068 4 12V14C4 14.5523 3.55228 15 3 15C2.44772 15 2 14.5523 2 14V12Z" fill="black"/>
</svg>
