<svg width="24" height="24" viewBox="0 0 24 24" fill="none" xmlns="http://www.w3.org/2000/svg">
<path opacity="0.3" d="M8 3C4.13401 3 1 6.13401 1 10C1 13.866 4.13401 17 8 17H8.70813C9.68876 17 10.6604 16.8129 11.5709 16.4487L14.179 15.4054C14.8486 15.1376 15.5631 15 16.2842 15H18C20.7614 15 23 12.7614 23 10C23 7.23858 20.7614 5 18 5H16.2842C15.5631 5 14.8486 4.8624 14.179 4.59458L11.5709 3.55131C10.6604 3.18712 9.68876 3 8.70813 3H8Z" fill="black"/>
<path fill-rule="evenodd" clip-rule="evenodd" d="M17 10C17 9.44772 17.4477 9 18 9H18.009C18.5613 9 19.009 9.44772 19.009 10C19.009 10.5523 18.5613 11 18.009 11H18C17.4477 11 17 10.5523 17 10Z" fill="black"/>
<path d="M23 20V10C23 11.6358 22.2144 13.0882 21 14.0004C20.5142 14.3652 19.9599 14.6437 19.3597 14.8129C18.9274 14.9348 18.4713 15 18 15H17L21.2 20.6C21.4583 20.9443 21.9079 21.0848 22.3162 20.9487C22.7246 20.8126 23 20.4304 23 20Z" fill="black"/>
<path d="M10 21C10.5523 21 11 20.5523 11 20V16.6514C10.3518 16.8533 9.67932 16.9687 9 16.9945V20C9 20.5523 9.44771 21 10 21Z" fill="black"/>
<path d="M6 21C6.55228 21 7 20.5523 7 20V16.9291C6.29385 16.8281 5.62171 16.6217 5 16.3264V20C5 20.5523 5.44772 21 6 21Z" fill="black"/>
</svg>
