<svg width="24" height="24" viewBox="0 0 24 24" fill="none" xmlns="http://www.w3.org/2000/svg">
<path opacity="0.3" fill-rule="evenodd" clip-rule="evenodd" d="M16.3186 14.62L16.6634 14.7678C17.4743 15.1153 18 15.9126 18 16.7947C18 18.0127 17.0127 19 15.7947 19H5C4.44772 19 4 19.4477 4 20C4 20.5523 4.44772 21 5 21H20C20.5523 21 21 21.4477 21 22C21 22.5523 20.5523 23 20 23H5C3.34315 23 2 21.6569 2 20C2 18.3431 3.34315 17 5 17H5.68121C5.25 16.3265 5 15.5258 5 14.6667C5 11.1137 7.41683 8.12526 10.6962 7.2556C10.2569 6.61346 10 5.83673 10 5C10 2.79086 11.7909 1 14 1C14.5293 1 15.0361 1.10328 15.5 1.29105C15.9639 1.10328 16.4707 1 17 1C19.2091 1 21 2.79086 21 5C21 5.68944 20.825 6.33883 20.5177 6.90534C21.4314 7.79931 22 9.04729 22 10.4286C22 11.8487 20.8487 13 19.4286 13H17.1207L16.3186 14.62Z" fill="black"/>
<path d="M18.8245 5.82104C18.9374 5.57061 19 5.29284 19 4.99986C19 4.06811 18.3628 3.28517 17.5004 3.06299C17.8186 3.63659 18 4.29691 18 4.99986V5.58738C18.2841 5.64162 18.5597 5.72026 18.8245 5.82104Z" fill="black"/>
<path d="M15.5 4.99986C15.5 4.44758 15.0523 3.99986 14.5 3.99986C14.0944 3.99986 13.7453 4.24128 13.5884 4.58824C13.2414 4.74515 13 5.09431 13 5.49986C13 6.05215 13.4477 6.49986 14 6.49986H14.5C15.0523 6.49986 15.5 6.05215 15.5 5.49986V4.99986Z" fill="black"/>
<path d="M17.4922 8.49986C16.9399 8.49986 16.4922 8.94758 16.4922 9.49986C16.4922 10.0521 16.9399 10.4999 17.4922 10.4999H17.5012C18.0535 10.4999 18.5012 10.0521 18.5012 9.49986C18.5012 8.94758 18.0535 8.49986 17.5012 8.49986H17.4922Z" fill="black"/>
</svg>
