<svg width="24" height="24" viewBox="0 0 24 24" fill="none" xmlns="http://www.w3.org/2000/svg">
<path opacity="0.3" fill-rule="evenodd" clip-rule="evenodd" d="M16.2967 19.9117C13.7743 17.9426 10.2271 17.9432 7.70322 19.9119C7.16082 21.1407 5.93188 22 4.5 22C2.567 22 1 20.433 1 18.5V18C1 17.4477 1.44772 17 2 17C2.55228 17 3 17.4477 3 18V18.5C3 19.3284 3.67157 20 4.5 20C5.15887 20 5.72098 19.5746 5.92165 18.9806C5.97219 18.831 6 18.6698 6 18.5V17.0357L5.81836 14.4927C4.54065 14.4008 3.47706 13.4451 3.26361 12.1644C3.19971 11.781 2.86799 11.5 2.47931 11.5H2C1.44772 11.5 1 11.0523 1 10.5C1 9.94772 1.44772 9.5 2 9.5H2.47931C3.84567 9.5 5.01177 10.4878 5.23639 11.8356C5.27973 12.0956 5.44627 12.3086 5.67021 12.4187L5.45139 9.35518C5.1675 5.38068 8.31532 2 12.2999 2C16.4524 2 19.6545 5.65738 19.1057 9.77344L18.6922 12.8752C18.8767 12.7573 19.0106 12.5648 19.0488 12.3356C19.2734 10.9878 20.4395 10 21.8058 10H22.2852C22.8374 10 23.2852 10.4477 23.2852 11C23.2852 11.5523 22.8374 12 22.2852 12H21.8058C21.4172 12 21.0854 12.281 21.0216 12.6644C20.8049 13.9643 19.7125 14.9293 18.4093 14.9963L18 18.0664V18.5C18 18.6698 18.0278 18.831 18.0783 18.9806C18.279 19.5746 18.8411 20 19.5 20C20.3284 20 21 19.3284 21 18.5V18C21 17.4477 21.4477 17 22 17C22.5523 17 23 17.4477 23 18V18.5C23 20.433 21.433 22 19.5 22C18.068 22 16.8391 21.1406 16.2967 19.9117Z" fill="black"/>
<path d="M10 9C9.44771 9 9 9.44772 9 10C9 10.5523 9.44771 11 10 11H10.009C10.5613 11 11.009 10.5523 11.009 10C11.009 9.44772 10.5613 9 10.009 9H10Z" fill="black"/>
<path d="M15 9C14.4477 9 14 9.44772 14 10C14 10.5523 14.4477 11 15 11H15.009C15.5613 11 16.009 10.5523 16.009 10C16.009 9.44772 15.5613 9 15.009 9H15Z" fill="black"/>
<path d="M2 9.5C1.44772 9.5 1 9.94772 1 10.5C1 11.0523 1.44772 11.5 2 11.5H2.47931C2.86799 11.5 3.19971 11.781 3.26361 12.1644C3.47706 13.4451 4.54065 14.4008 5.81836 14.4927L5.67021 12.4187C5.44627 12.3086 5.27973 12.0956 5.23639 11.8356C5.01177 10.4878 3.84567 9.5 2.47931 9.5H2Z" fill="black"/>
<path d="M21.0215 12.6644C21.0854 12.281 21.4172 12 21.8058 12H22.2852C22.8374 12 23.2852 11.5523 23.2852 11C23.2852 10.4477 22.8374 10 22.2852 10H21.8058C20.4395 10 19.2734 10.9878 19.0488 12.3356C19.0106 12.5648 18.8767 12.7573 18.6922 12.8752L18.4093 14.9963C19.7125 14.9293 20.8049 13.9643 21.0215 12.6644Z" fill="black"/>
</svg>
