<svg width="24" height="24" viewBox="0 0 24 24" fill="none" xmlns="http://www.w3.org/2000/svg">
<path opacity="0.3" d="M14.0221 8.59141C12.7478 6.96962 10.2549 7.08766 9.13958 8.8226L6.74928 12.5408C6.58054 12.8033 6.22637 13.0237 5.6521 13.1841C3.5462 13.7726 2 15.7045 2 18.0001C2 20.7615 4.23858 23.0001 7 23.0001C8.67003 23.0001 10.1487 22.1803 11.0551 20.9257C11.228 20.6864 11.373 20.5425 11.5089 20.4609C11.8112 20.2796 12.1888 20.2796 12.4911 20.4609C12.627 20.5425 12.772 20.6864 12.9449 20.9257C13.8513 22.1803 15.33 23.0001 17 23.0001C19.7614 23.0001 22 20.7615 22 18.0001C22 15.6523 20.3827 13.6847 18.2028 13.1459C17.6856 13.0181 17.3597 12.8393 17.1858 12.6179L14.0221 8.59141Z" fill="black"/>
<path d="M8.5 1C6.98122 1 5.75 2.23122 5.75 3.75C5.75 5.26878 6.98122 6.5 8.5 6.5C10.0188 6.5 11.25 5.26878 11.25 3.75C11.25 2.23122 10.0188 1 8.5 1Z" fill="black"/>
<path d="M15.5 1C13.9812 1 12.75 2.23122 12.75 3.75C12.75 5.26878 13.9812 6.5 15.5 6.5C17.0188 6.5 18.25 5.26878 18.25 3.75C18.25 2.23122 17.0188 1 15.5 1Z" fill="black"/>
<path d="M4.75 6C3.23122 6 2 7.23122 2 8.75C2 10.2688 3.23122 11.5 4.75 11.5C6.26878 11.5 7.5 10.2688 7.5 8.75C7.5 7.23122 6.26878 6 4.75 6Z" fill="black"/>
<path d="M19.25 6C17.7312 6 16.5 7.23122 16.5 8.75C16.5 10.2688 17.7312 11.5 19.25 11.5C20.7688 11.5 22 10.2688 22 8.75C22 7.23122 20.7688 6 19.25 6Z" fill="black"/>
</svg>
