<svg width="24" height="24" viewBox="0 0 24 24" fill="none" xmlns="http://www.w3.org/2000/svg">
<path opacity="0.3" d="M7.78602 12.6715C10.0284 10.1408 13.9716 10.1408 16.214 12.6715L19.6387 16.5365C20.7425 17.7823 20.7906 19.6438 19.7528 20.9451C19.0177 21.8669 17.7861 22.2326 16.6674 21.8585L13.312 20.7365C12.4603 20.4517 11.5397 20.4517 10.688 20.7365L7.3326 21.8585C6.21386 22.2326 4.98228 21.8669 4.24719 20.9451C3.20942 19.6438 3.25747 17.7823 4.36134 16.5365L7.78602 12.6715Z" fill="black"/>
<path d="M9.67078 2.60448C10.2438 3.06907 10.7107 3.76035 10.9981 4.55011C11.2856 5.33986 11.3722 6.16954 11.2319 6.89373C11.0961 7.59514 10.6949 8.38507 9.84596 8.69408C8.99697 9.00309 8.18194 8.65579 7.627 8.20583C7.05402 7.74124 6.58711 7.04996 6.29966 6.26021C6.01221 5.47045 5.92554 4.64077 6.06584 3.91658C6.20171 3.21517 6.60283 2.42524 7.45182 2.11623C8.30081 1.80723 9.11584 2.15452 9.67078 2.60448Z" fill="black"/>
<path d="M14.127 2.60448C14.6819 2.15452 15.497 1.80723 16.346 2.11623C17.1949 2.42524 17.5961 3.21517 17.7319 3.91658C17.8722 4.64077 17.7856 5.47045 17.4981 6.26021C17.2107 7.04996 16.7438 7.74124 16.1708 8.20583C15.6158 8.65579 14.8008 9.00309 13.9518 8.69408C13.1028 8.38507 12.7017 7.59514 12.5658 6.89373C12.4255 6.16954 12.5122 5.33986 12.7997 4.55011C13.0871 3.76035 13.554 3.06907 14.127 2.60448Z" fill="black"/>
<path d="M4.24375 7.80742C4.87719 8.078 5.43068 8.58455 5.80454 9.23211C6.17841 9.87966 6.34036 10.6123 6.25797 11.2961C6.17553 11.9804 5.8319 12.6804 5.13948 13.0802C4.44706 13.48 3.669 13.4275 3.03521 13.1568C2.40177 12.8862 1.84828 12.3797 1.47442 11.7321C1.10055 11.0846 0.938603 10.3519 1.021 9.66808C1.10343 8.98383 1.44706 8.2838 2.13948 7.88403C2.8319 7.48426 3.60996 7.53669 4.24375 7.80742Z" fill="black"/>
<path d="M19.754 7.80742C20.3878 7.53669 21.1658 7.48426 21.8582 7.88403C22.5507 8.2838 22.8943 8.98383 22.9767 9.66808C23.0591 10.3519 22.8972 11.0846 22.5233 11.7321C22.1494 12.3797 21.5959 12.8862 20.9625 13.1568C20.3287 13.4275 19.5507 13.48 18.8582 13.0802C18.1658 12.6804 17.8222 11.9804 17.7397 11.2961C17.6574 10.6123 17.8193 9.87966 18.1932 9.23211C18.567 8.58455 19.1205 8.078 19.754 7.80742Z" fill="black"/>
</svg>
