<svg width="24" height="24" viewBox="0 0 24 24" fill="none" xmlns="http://www.w3.org/2000/svg">
<path d="M16 7C16 6.44772 16.4477 6 17 6H17.009C17.5613 6 18.009 6.44772 18.009 7C18.009 7.55228 17.5613 8 17.009 8H17C16.4477 8 16 7.55228 16 7Z" fill="black"/>
<path d="M2 12C2 10.3431 3.34315 9 5 9H5.62761C5.50978 9.09013 5.39913 9.18751 5.29409 9.2924C4.69035 9.89529 4.57378 10.6407 4.55701 11.1032C4.22695 11.2666 4 11.6068 4 12V14C4 14.5523 3.55228 15 3 15C2.44772 15 2 14.5523 2 14V12Z" fill="black"/>
<path opacity="0.3" fill-rule="evenodd" clip-rule="evenodd" d="M21.3627 4.93217C21.7357 4.78694 22 4.42434 22 4C22 3.44772 21.5523 3 21 3H16C14.1537 3 12.5996 4.25088 12.1389 5.95139L8.44721 4.10557C8.13723 3.95058 7.76909 3.96714 7.47427 4.14935C7.17945 4.33156 7 4.65342 7 5C7 7.66741 8.33992 9.90689 9.79939 11.1898C10.2142 11.5545 10.2549 12.1863 9.89024 12.6011C9.52561 13.0159 8.89375 13.0566 8.47895 12.692C7.43191 11.7716 6.43749 10.4662 5.78207 8.88841C5.72897 8.9243 5.6773 8.96149 5.62694 9H5C3.34315 9 2 10.3431 2 12V14C2 14.5523 2.44772 15 3 15C3.55228 15 4 14.5523 4 14V12C4 11.6069 4.22687 11.2667 4.55684 11.1033C4.552 11.2382 4.55565 11.3491 4.55816 11.4252C4.55917 11.4561 4.56 11.4812 4.56 11.5C4.56 11.7811 4.65229 12.0912 4.71476 12.2865C4.7908 12.5243 4.89036 12.7882 4.99078 13.0386C5.23833 13.656 5.22415 14.3156 4.955 14.8539L4.6613 15.4413C4.18687 16.3902 4.1088 17.4887 4.44427 18.4951L4.82339 19.6324C5.09562 20.4491 5.8599 21 6.72076 21H8.61257C9.97769 21 10.9416 19.6626 10.5099 18.3675L10.0408 16.96L10.2462 16.1382L11.5 16.3471V19C11.5 20.1046 12.3954 21 13.5 21H15C16.1046 21 17 20.1046 17 19V15.2996C17.4423 14.6053 17.7221 14.0083 17.8627 13.1648C17.9496 12.6436 17.9821 12.0286 17.9942 11.2393C18.5501 11.4089 19.119 11.4468 19.6497 11.3625C20.7384 11.1897 21.8276 10.4416 21.9923 9.12403C21.9961 9.09339 21.9998 9.06296 22.0033 9.03273C22.1654 7.6305 21.9606 6.72213 21.4558 5.20503C21.4534 5.19796 21.451 5.19087 21.4487 5.18377L21.4388 5.15412C21.4183 5.09229 21.3933 5.01695 21.3627 4.93217ZM16 7C16 6.44772 16.4477 6 17 6H17.009C17.5613 6 18.009 6.44772 18.009 7C18.009 7.55228 17.5613 8 17.009 8H17C16.4477 8 16 7.55228 16 7Z" fill="black"/>
</svg>
