<svg width="24" height="24" viewBox="0 0 24 24" fill="none" xmlns="http://www.w3.org/2000/svg">
<path opacity="0.3" d="M18.3944 4.05289C18.1848 3.63368 17.7122 3.41629 17.2575 3.52996C15.6926 3.92119 14.3332 4.87138 13.6093 5.50011H9.25C6.07436 5.50011 3.5 8.07447 3.5 11.2501C3.5 12.8233 4.13298 14.2501 5.15568 15.2873L7.07733 19.8857C7.23284 20.2578 7.59668 20.5001 8 20.5001H10.5C11.0523 20.5001 11.5 20.0524 11.5 19.5001V18.0001H13.5V19.5001C13.5 20.0524 13.9477 20.5001 14.5 20.5001H17C17.4304 20.5001 17.8126 20.2247 17.9487 19.8163L18.8225 17.1948C19.2139 16.9722 19.5605 16.7241 19.8718 16.4174C20.1513 16.142 20.3828 15.8387 20.5901 15.5001H21C22.1046 15.5001 23 14.6047 23 13.5001V11.5001C23 10.3955 22.1046 9.50011 21 9.50011H20.6148C20.269 8.83758 19.8168 8.09064 19.1142 7.53202C19.1759 6.93529 19.1075 6.34413 19.0041 5.84666C18.8518 5.11393 18.5966 4.45732 18.3944 4.05289Z" fill="black"/>
<path fill-rule="evenodd" clip-rule="evenodd" d="M16 11.5C16 10.9477 16.4477 10.5 17 10.5H17.009C17.5613 10.5 18.009 10.9477 18.009 11.5C18.009 12.0523 17.5613 12.5 17.009 12.5H17C16.4477 12.5 16 12.0523 16 11.5Z" fill="black"/>
<path d="M20.9966 5.68921C21.2728 5.68921 21.5001 5.91391 21.4699 6.18841C21.3398 7.37419 20.7512 8.15712 20.1035 8.62774C19.838 8.2348 19.5173 7.85234 19.1143 7.53186C19.176 6.93513 19.1076 6.34397 19.0042 5.8465C18.9932 5.79365 18.9817 5.7412 18.9697 5.68921H20.9966Z" fill="black"/>
<path d="M3.15916 9.53304C3.08301 9.62018 3.00009 9.7667 3 10.0004C2.99991 10.2336 3.0826 10.3796 3.15863 10.4665C3.1698 10.4793 3.18055 10.4904 3.19054 10.5H3.54847C3.51649 10.7455 3.5 10.9958 3.5 11.25C3.5 11.6792 3.54711 12.0975 3.6364 12.5H2.9996C2.6726 12.5 2.39294 12.3642 2.22816 12.2665C2.02923 12.1486 1.83067 11.986 1.65347 11.7835C1.292 11.3704 0.999692 10.7664 1 9.9996C1.00031 9.2333 1.2924 8.62982 1.65319 8.21696C1.83007 8.01456 2.02824 7.85202 2.22676 7.73406C2.39075 7.63662 2.67059 7.5 2.99821 7.5C3.55049 7.5 3.99821 7.94772 3.99821 8.5C3.99821 8.97694 3.66432 9.37589 3.21754 9.47587C3.20148 9.48908 3.18113 9.5079 3.15916 9.53304Z" fill="black"/>
</svg>
