<svg width="24" height="24" viewBox="0 0 24 24" fill="none" xmlns="http://www.w3.org/2000/svg">
<path opacity="0.3" d="M11.9472 2.10565C11.5149 1.88952 10.99 2.01345 10.7 2.40008C10.3092 2.92108 9.88543 3.99625 9.81397 5.25594C9.74473 6.47645 10.0013 7.94432 10.9989 9.33558V10.5823C8.06837 11.7692 6 14.642 6 18.0001V19.0001C6 20.6569 7.34315 22.0001 9 22.0001H13.4999C14.8801 22.0001 16.0005 20.8813 16.0005 19.5001C16.0005 19.255 15.9652 19.0182 15.8994 18.7944L16.066 19.0078C16.5363 19.6098 17.0158 20.2186 17.3912 20.6842C17.5781 20.916 17.744 21.1183 17.8719 21.2682C17.9349 21.342 17.9961 21.4118 18.0496 21.4688C18.0755 21.4964 18.109 21.5311 18.1458 21.5652L18.1467 21.5661C18.1586 21.5775 18.2678 21.6825 18.4233 21.7567C18.5388 21.8119 18.6593 21.8585 18.7839 21.8957C19.012 21.9638 19.2526 22.0001 19.5 22.0001C20.8807 22.0001 22 20.8808 22 19.5001C22 19.1166 21.913 18.7507 21.7566 18.4234C21.717 18.3404 21.6674 18.269 21.6595 18.2575L21.6585 18.2561C21.6391 18.2277 21.6172 18.1971 21.5956 18.1675C21.5518 18.1073 21.4941 18.0304 21.4268 17.9418C21.2915 17.7637 21.1056 17.5229 20.8878 17.2431C20.4517 16.6825 19.88 15.9548 19.3125 15.2348C18.9718 14.8027 18.6323 14.3728 18.3238 13.9827C19.8281 13.8209 20.9993 12.5473 20.9993 11.0001C20.9993 10.0558 20.5547 9.16663 19.7993 8.60007L17.1327 6.60007C16.8769 6.40821 16.554 6.3125 16.3583 6.26098C16.1214 6.19861 15.8587 6.15036 15.6127 6.11365C15.4746 6.09304 15.334 6.07495 15.197 6.05962C15.0291 5.4381 14.7171 4.81497 14.3411 4.26473C13.7604 3.41506 12.9322 2.59814 11.9472 2.10565Z" fill="black"/>
<path d="M15.5 9.00012C14.9477 9.00012 14.5 9.44784 14.5 10.0001C14.5 10.5524 14.9477 11.0001 15.5 11.0001H15.509C16.0613 11.0001 16.509 10.5524 16.509 10.0001C16.509 9.44784 16.0613 9.00012 15.509 9.00012H15.5Z" fill="black"/>
<path d="M2 18.0001C2 16.3433 3.34315 15.0001 5 15.0001C5.52292 15.0001 6.01459 15.1339 6.44266 15.3691C6.15587 16.193 6 17.0783 6 18.0001V19.0001C6 19.5947 6.17298 20.1489 6.47137 20.6151C6.03664 20.8603 5.53465 21.0001 5 21.0001C3.34315 21.0001 2 19.657 2 18.0001Z" fill="black"/>
<path d="M17.9694 2.75763C17.8399 2.23978 17.3265 1.9149 16.8031 2.01959C16.3641 2.10738 15.6532 2.29363 14.9162 2.65562C14.5147 2.85281 14.0875 3.11103 13.6893 3.4476C13.9305 3.70954 14.1482 3.98539 14.3392 4.26479C14.7152 4.81503 15.0272 5.43816 15.1951 6.05968C15.3321 6.07501 15.4727 6.0931 15.6108 6.11371C15.8568 6.15042 16.1195 6.19867 16.3564 6.26104C16.5521 6.31256 16.875 6.40827 17.1308 6.60013L17.7134 7.0371C17.8314 6.63741 17.9448 6.16393 18.0249 5.65598C18.1618 4.78835 18.2148 3.73934 17.9694 2.75763Z" fill="black"/>
</svg>
