<svg width="24" height="24" viewBox="0 0 24 24" fill="none" xmlns="http://www.w3.org/2000/svg">
<path opacity="0.3" d="M14.1866 15.592C14.1933 15.5986 14.1998 15.6054 14.2062 15.6122C14.4153 15.8342 14.5128 16.1415 14.4669 16.4465C14.2437 17.928 12.9982 19 11.5 19C10.8464 19 10.2422 18.7909 9.75 18.4368C9.25784 18.7909 8.65357 19 8 19C6.69202 19 5.57955 18.1629 5.16905 16.9953C5.11307 16.9984 5.0567 17 5 17C4.63937 17 4.29146 16.9359 3.96851 16.8177L3.94459 16.8088C3.65451 16.6998 3.38638 16.5474 3.14793 16.3602C2.97666 16.2256 2.82025 16.0726 2.68175 15.9041C2.25598 15.3865 2 14.7235 2 14C2 13.7614 2.02802 13.5289 2.08096 13.3058C1.42084 12.7559 1 11.9278 1 11C1 9.69202 1.83706 8.57955 3.00471 8.16905C3.00158 8.11307 3 8.0567 3 8C3 6.34315 4.34315 5 6 5C6.38641 5 6.7559 5.07327 7.09516 5.20642C7.64203 4.47403 8.51527 4 9.5 4C9.75412 4 9.98609 4.09478 10.1625 4.25093C10.3695 4.43414 10.5 4.70183 10.5 5V5.24301C10.5 5.52533 10.5 5.66648 10.5194 5.80473C10.5366 5.9275 10.5652 6.04841 10.6048 6.16589C10.6494 6.29817 10.7127 6.42437 10.8392 6.67675C10.9359 6.86976 10.8981 7.10301 10.7455 7.25567L10.1758 7.82532C9.44707 8.55409 9.15411 9.61178 9.40407 10.6116C9.62313 11.4879 10.2335 12.2144 11.0589 12.5812L11.4872 12.7716C11.7997 12.9105 12.0012 13.2204 12.0012 13.5625V13.8356C12.0012 14.5757 12.4472 15.3363 13.2024 15.3363C13.5544 15.2354 13.9312 15.3353 14.1866 15.592Z" fill="black"/>
<path fill-rule="evenodd" clip-rule="evenodd" d="M13.4991 2C12.1184 2 10.9991 3.11929 10.9991 4.5C10.9991 5.05228 11.4468 5.5 11.9991 5.5C12.5514 5.5 12.9991 5.05228 12.9991 4.5C12.9991 4.22386 13.223 4 13.4991 4C13.7752 4 13.9991 4.22386 13.9991 4.5V6.35418C13.5112 6.90697 13.1737 7.59566 13.0506 8.3562L11.5519 9.10557C11.0579 9.35256 10.8577 9.95324 11.1047 10.4472C11.3517 10.9412 11.9523 11.1414 12.4463 10.8944L12.9991 10.618V11C12.9991 13.2091 14.79 15 16.9991 15C19.2082 15 20.9991 13.2091 20.9991 11V10.618L21.5519 10.8944C22.0459 11.1414 22.6465 10.9412 22.8935 10.4472C23.1405 9.95324 22.9403 9.35256 22.4463 9.10557L20.9476 8.3562C20.8245 7.59566 20.487 6.90697 19.9991 6.35418V4.5C19.9991 4.22386 20.223 4 20.4991 4C20.7752 4 20.9991 4.22386 20.9991 4.5C20.9991 5.05228 21.4468 5.5 21.9991 5.5C22.5514 5.5 22.9991 5.05228 22.9991 4.5C22.9991 3.11929 21.8798 2 20.4991 2C19.1184 2 17.9991 3.11929 17.9991 4.5V5.12602C17.6795 5.04375 17.3444 5 16.9991 5C16.6538 5 16.3187 5.04375 15.9991 5.12602V4.5C15.9991 3.11929 14.8798 2 13.4991 2ZM15.4991 8C14.9468 8 14.4991 8.44772 14.4991 9C14.4991 9.55228 14.9468 10 15.4991 10H15.5081C16.0604 10 16.5081 9.55228 16.5081 9C16.5081 8.44772 16.0604 8 15.5081 8H15.4991ZM17.4991 9C17.4991 8.44772 17.9468 8 18.4991 8H18.5081C19.0604 8 19.5081 8.44772 19.5081 9C19.5081 9.55228 19.0604 10 18.5081 10H18.4991C17.9468 10 17.4991 9.55228 17.4991 9Z" fill="black"/>
<path d="M4.02384 21.2218C4.12739 21.677 4.53211 22 4.99893 22H7.99893C8.55122 22 8.99893 21.5523 8.99893 21V18.8292C8.68626 18.9398 8.34967 19 7.99888 19C6.6909 19 5.57843 18.1629 5.16793 16.9953C5.11194 16.9984 5.05558 17 4.99888 17C4.63825 17 4.29034 16.9359 3.96738 16.8177L3.94347 16.8088C3.65339 16.6998 3.38525 16.5474 3.14681 16.3602C3.0456 16.2807 2.94958 16.1947 2.85938 16.1029L4.02384 21.2218Z" fill="black"/>
<path d="M17.3303 16.8047C17.4803 16.4446 17.4073 16.0302 17.1432 15.7431C16.8791 15.456 16.4721 15.3487 16.1008 15.4682L14.4304 15.9962C14.4757 16.1395 14.4888 16.2933 14.4657 16.4465C14.2426 17.928 12.9971 19 11.4989 19C11.1481 19 10.8116 18.9398 10.4989 18.8292V21C10.4989 21.5523 10.9466 22 11.4989 22H14.4989C14.9026 22 15.2667 21.7573 15.422 21.3846L17.3303 16.8047Z" fill="black"/>
</svg>
