<svg width="24" height="24" viewBox="0 0 24 24" fill="none" xmlns="http://www.w3.org/2000/svg">
<path opacity="0.3" d="M2 14C2 13.7614 2.02802 13.5289 2.08096 13.3058C1.42084 12.7559 1 11.9278 1 11C1 9.69202 1.83706 8.57955 3.00471 8.16905C3.00158 8.11306 3 8.0567 3 8C3 6.34315 4.34315 5 6 5C6.38641 5 6.7559 5.07327 7.09516 5.20642C7.64203 4.47403 8.51527 4 9.5 4C10.0523 4 10.5 4.44772 10.5 5L10.5391 6.23517C10.6455 9.63989 13.1873 12.4737 16.5605 12.9483L16.8604 12.9905C17.161 13.0328 17.4262 13.2093 17.5811 13.4703C17.8202 13.8733 17.9677 14.3372 17.9953 14.8308C17.9984 14.8869 18 14.9433 18 15C18 15.0466 17.9989 15.093 17.9968 15.1391C17.9241 16.7314 16.6102 18 15 18C14.6136 18 14.2441 17.9267 13.9048 17.7936C13.358 18.526 12.4847 19 11.5 19C11.1492 19 10.8127 18.9398 10.5 18.8292C10.2301 18.7338 9.97803 18.6008 9.75 18.4368C9.52199 18.6008 9.26991 18.7338 9.00001 18.8292C8.68735 18.9398 8.35078 19 8 19C6.69202 19 5.57955 18.1629 5.16905 16.9953C5.11307 16.9984 5.0567 17 5 17C3.34315 17 2 15.6569 2 14Z" fill="black"/>
<path fill-rule="evenodd" clip-rule="evenodd" d="M16.9991 2C15.0091 2 13.3585 3.45315 13.0506 5.3562L11.5519 6.10557C11.0579 6.35256 10.8577 6.95324 11.1046 7.44721C11.3516 7.94119 11.9523 8.14142 12.4463 7.89443L12.9991 7.61803V8C12.9991 10.2091 14.7899 12 16.9991 12C19.2082 12 20.9991 10.2091 20.9991 8V7.61803L21.5519 7.89443C22.0458 8.14142 22.6465 7.94119 22.8935 7.44721C23.1405 6.95324 22.9403 6.35256 22.4463 6.10557L20.9475 5.3562C20.6396 3.45315 18.989 2 16.9991 2ZM15.4989 5C14.9466 5 14.4989 5.44772 14.4989 6C14.4989 6.55228 14.9466 7 15.4989 7H15.5079C16.0601 7 16.5079 6.55228 16.5079 6C16.5079 5.44772 16.0601 5 15.5079 5H15.4989ZM17.4989 6C17.4989 5.44772 17.9466 5 18.4989 5H18.5079C19.0601 5 19.5079 5.44772 19.5079 6C19.5079 6.55228 19.0601 7 18.5079 7H18.4989C17.9466 7 17.4989 6.55228 17.4989 6Z" fill="black"/>
<path d="M4.99891 22C4.53209 22 4.12737 21.677 4.02382 21.2218L2.85938 16.103C3.40364 16.6567 4.16115 17 4.99885 17C5.05556 17 5.11192 16.9984 5.1679 16.9953C5.57841 18.1629 6.69088 19 7.99885 19C8.32564 19 8.6401 18.9477 8.93439 18.8512C8.95599 18.8441 8.97748 18.8368 8.99887 18.8292C9.26876 18.7338 9.52084 18.6008 9.74886 18.4368C9.97688 18.6008 10.229 18.7338 10.4989 18.8292C10.8115 18.9398 11.1481 19 11.4989 19C12.4836 19 13.3568 18.526 13.9037 17.7936C14.243 17.9267 14.6124 18 14.9989 18C15.9017 18 16.7114 17.6012 17.2614 16.9701L15.422 21.3846C15.2667 21.7573 14.9026 22 14.4989 22H11.4989C10.9466 22 10.4989 21.5523 10.4989 21L10.4989 18.8292C10.229 18.7338 9.97688 18.6008 9.74886 18.4368C9.52084 18.6008 9.26876 18.7338 8.99887 18.8292L8.99891 21C8.99891 21.5523 8.55119 22 7.99891 22H4.99891Z" fill="black"/>
</svg>
