<svg width="24" height="24" viewBox="0 0 24 24" fill="none" xmlns="http://www.w3.org/2000/svg">
<g opacity="0.3">
<path d="M13 16.5613L9.14142 16.0101C8.73539 15.952 8.33511 16.1479 8.13167 16.504C7.92824 16.8602 7.96291 17.3044 8.21913 17.6247L9.71938 19.5L8.21913 21.3753C7.979 21.6755 7.93218 22.0867 8.0987 22.4332C8.26522 22.7797 8.61559 23 9 23H13V16.5613Z" fill="black"/>
<path fill-rule="evenodd" clip-rule="evenodd" d="M5 7C5 10.866 8.13401 14 12 14H13V5H5V7ZM9.49219 9C9.49219 8.44772 9.9399 8 10.4922 8H10.5012C11.0535 8 11.5012 8.44772 11.5012 9C11.5012 9.55228 11.0535 10 10.5012 10H10.4922C9.9399 10 9.49219 9.55228 9.49219 9Z" fill="black"/>
<path d="M15 5.22299V13.1747L21.1236 10.1219C19.9531 7.67441 17.7091 5.83768 15 5.22299Z" fill="black"/>
<path d="M20.8584 18.39C21.5854 17.0909 22 15.5929 22 14C22 13.3233 21.9252 12.6632 21.783 12.0279L15.5973 15.1118L20.8584 18.39Z" fill="black"/>
<path d="M15 22.7768C16.6006 22.4134 18.0384 21.6239 19.1876 20.5356C19.3622 20.3702 19.5302 20.1979 19.6911 20.0191L15 17.0961V22.7768Z" fill="black"/>
</g>
<path d="M13 5V14H13.6777C14.1273 14 14.525 14.2235 14.7654 14.5701C14.9134 14.7833 15 15.0412 15 15.3223C15 15.5439 14.9471 15.7473 14.8555 15.9255C14.7881 16.0566 14.6988 16.1755 14.5924 16.2773C14.3951 16.466 14.1432 16.592 13.8696 16.6316C13.749 16.6491 13.6221 16.6501 13.4907 16.6314L13 16.5613V23C13.1313 23 13.2621 22.9972 13.3922 22.9916C13.6435 22.9808 13.8923 22.9597 14.1382 22.9286C14.4301 22.8917 14.7176 22.8409 15 22.7768V17.0961L19.6911 20.0191C19.8994 19.7878 20.0958 19.5455 20.2795 19.2934C20.4896 19.0048 20.6831 18.7031 20.8584 18.39L15.5973 15.1118L21.783 12.0279C21.7192 11.7426 21.6419 11.4623 21.5516 11.1878C21.4313 10.8215 21.288 10.4657 21.1236 10.1219L15 13.1747V5.22299C14.3568 5.07706 13.6875 5 13 5Z" fill="black"/>
<path fill-rule="evenodd" clip-rule="evenodd" d="M9.49219 9C9.49219 8.44772 9.9399 8 10.4922 8H10.5012C11.0535 8 11.5012 8.44772 11.5012 9C11.5012 9.55229 11.0535 10 10.5012 10H10.4922C9.9399 10 9.49219 9.55229 9.49219 9Z" fill="black"/>
<path fill-rule="evenodd" clip-rule="evenodd" d="M2 4C2 2.34315 3.34315 1 5 1H17C17.5523 1 18 1.44772 18 2C18 2.55228 17.5523 3 17 3H5C4.44772 3 4 3.44772 4 4C4 4.55228 4.44772 5 5 5V7C3.34315 7 2 5.65685 2 4Z" fill="black"/>
</svg>
