<svg width="24" height="24" viewBox="0 0 24 24" fill="none" xmlns="http://www.w3.org/2000/svg">
<path opacity="0.3" fill-rule="evenodd" clip-rule="evenodd" d="M14.7321 6.30815C15.4298 6.56592 16.0539 6.9748 16.5648 7.49428C17.4522 8.39664 18 9.63438 18 11V13C18 13.0154 18.0003 13.0307 18.001 13.0459L18.0011 13.1452C18.0011 14.6341 17.1745 15.998 15.8599 16.6878L15.35 18.7276C15.0161 20.0631 13.8162 21 12.4395 21H11.5627C10.1861 21 8.9861 20.0631 8.65223 18.7276L8.14251 16.6887L7.65946 16.4472C6.64311 15.939 6.0011 14.9002 6.0011 13.7639L6.00185 11.93L6 11.9298V11C6 9.63356 6.54812 8.39515 7.43649 7.49265L7.43869 7.4927C8.34428 6.57265 9.60551 6 11.0011 6H13.0011C13.0267 6 13.0522 6.00019 13.0777 6.00058C13.6586 6.00942 14.2154 6.11733 14.7321 6.30815ZM10 10.5C9.44772 10.5 9 10.9477 9 11.5C9 12.0523 9.44772 12.5 10 12.5H10.009C10.5613 12.5 11.009 12.0523 11.009 11.5C11.009 10.9477 10.5613 10.5 10.009 10.5H10ZM13 11.5C13 10.9477 13.4477 10.5 14 10.5H14.009C14.5613 10.5 15.009 10.9477 15.009 11.5C15.009 12.0523 14.5613 12.5 14.009 12.5H14C13.4477 12.5 13 12.0523 13 11.5Z" fill="black"/>
<path d="M19.6518 3.04188C20.1194 2.90237 20.6194 3.12071 20.8349 3.5585C22.3763 6.68995 22.3244 8.94267 21.0737 10.4011C20.7584 10.7688 20.3903 11.0549 20 11.2767V11.0001C20 9.5214 19.5415 8.14978 18.7589 7.01966C18.8576 6.90621 18.9701 6.69583 19.0244 6.24813C19.0834 5.76199 19.0633 5.08195 18.9452 4.12228C18.8856 3.63798 19.1842 3.18138 19.6518 3.04188Z" fill="black"/>
<path d="M5.25201 7.00397C5.1535 6.88791 5.0437 6.67607 4.99083 6.23577C4.93271 5.7518 4.95365 5.07603 5.07263 4.12417C5.13305 3.6408 4.83637 3.18421 4.37013 3.04305C3.9039 2.90188 3.40378 3.11721 3.18592 3.55292C1.62214 6.6805 1.6546 8.9369 2.9064 10.4002C3.22636 10.7742 3.60169 11.0639 4 11.2873V11.0001C4 9.51456 4.46277 8.13708 5.25201 7.00397Z" fill="black"/>
<path fill-rule="evenodd" clip-rule="evenodd" d="M9 11.5001C9 10.9478 9.44772 10.5001 10 10.5001H10.009C10.5613 10.5001 11.009 10.9478 11.009 11.5001C11.009 12.0524 10.5613 12.5001 10.009 12.5001H10C9.44772 12.5001 9 12.0524 9 11.5001Z" fill="black"/>
<path fill-rule="evenodd" clip-rule="evenodd" d="M13 11.5001C13 10.9478 13.4477 10.5001 14 10.5001H14.009C14.5613 10.5001 15.009 10.9478 15.009 11.5001C15.009 12.0524 14.5613 12.5001 14.009 12.5001H14C13.4477 12.5001 13 12.0524 13 11.5001Z" fill="black"/>
</svg>
