<svg width="24" height="24" viewBox="0 0 24 24" fill="none" xmlns="http://www.w3.org/2000/svg">
<path opacity="0.3" fill-rule="evenodd" clip-rule="evenodd" d="M15.5547 3.16795C15.2478 2.96338 14.8533 2.94431 14.5281 3.11833C14.203 3.29235 14 3.63121 14 4V9C14 9.43974 13.7465 10.6435 13 11.5674L13 8.49104C12.9952 5.45759 10.5346 3 7.5 3C4.46243 3 2 5.46244 2 8.5C2 11.1822 3.91992 13.4159 6.46043 13.9019C6.16508 14.5398 6 15.2507 6 16C6 18.7614 8.23858 21 11 21H20C20.5523 21 21 20.5523 21 20C21 19.4477 20.5523 19 20 19L19.5 19C19.5 17.3431 18.1569 16 16.5 16C15.9477 16 15.5 15.5523 15.5 15C15.5 14.4477 15.9477 14 16.5 14C17.4107 14 18.2646 14.2435 19 14.6689V12.8327C19.5128 12.6716 20.0404 12.3983 20.4997 12.0309C21.3032 11.3881 22 10.3717 22 9C22 7.57436 21.3166 6.5484 20.4863 5.90699C20.0222 5.54848 19.4998 5.29897 19 5.15366V4C19 3.63121 18.797 3.29235 18.4719 3.11833C18.1467 2.94431 17.7522 2.96338 17.4453 3.16795L16.5 3.79815L15.5547 3.16795ZM18 8C17.4477 8 17 8.44772 17 9C17 9.55228 17.4477 10 18 10H18.009C18.5613 10 19.009 9.55228 19.009 9C19.009 8.44772 18.5613 8 18.009 8H18Z" fill="black"/>
<path d="M18 8C17.4477 8 17 8.44772 17 9C17 9.55228 17.4477 10 18 10H18.009C18.5613 10 19.009 9.55228 19.009 9C19.009 8.44772 18.5613 8 18.009 8H18Z" fill="black"/>
<path d="M6 16C6 18.7614 8.23858 21 11 21H14C12.5032 21 11.1985 20.1779 10.5126 18.9606C10.1862 18.3813 10 17.7124 10 17C10 15.6482 10.3976 14.6555 11 13.7911C11.4742 13.1108 12.0754 12.51 12.7095 11.8763L12.7929 11.7929C12.866 11.7198 12.935 11.6445 13 11.5674V8.5C13 5.46243 10.5376 3 7.5 3C4.46243 3 2 5.46243 2 8.5C2 11.1822 3.91992 13.4159 6.46043 13.9019C6.16508 14.5398 6 15.2507 6 16Z" fill="black"/>
</svg>
