<svg width="24" height="24" viewBox="0 0 24 24" fill="none" xmlns="http://www.w3.org/2000/svg">
<path opacity="0.3" fill-rule="evenodd" clip-rule="evenodd" d="M12.9178 4.66031C13.3982 4.40508 13.904 4.19221 14.4301 4.02607L19.0269 2.57445L20.3678 2.15085C21.2491 1.87257 22.1011 2.65323 21.9006 3.55547L21.4589 5.54299L21.4591 5.54489L20.8024 8.49982C20.5494 9.63824 20.0815 10.7015 19.4373 11.6401C18.5845 12.8827 17.4221 13.9068 16.041 14.5973L14.6878 15.274L14.7925 15.3787C15.183 15.7692 15.8162 15.7692 16.2067 15.3787L17.5854 14C18.3664 13.219 19.6328 13.219 20.4138 14L21.7067 15.2929C21.8942 15.4804 21.9996 15.7348 21.9996 16C21.9996 16.2652 21.8942 16.5196 21.7067 16.7071L21.1209 17.2929C19.959 18.4548 18.0811 18.4644 16.9074 17.3216C15.7733 17.9246 14.3337 17.7484 13.3783 16.7929L12.9254 16.34L12.8301 16.4163L14.2067 17.7929C15.1495 18.7357 15.1495 20.2643 14.2067 21.2071C13.8162 21.5976 13.183 21.5976 12.7925 21.2071C12.402 20.8166 12.402 20.1834 12.7925 19.7929C12.9543 19.6311 12.9543 19.3689 12.7925 19.2071L11.2587 17.6733L9.96684 18.7068C9.71606 18.9075 9.69534 19.2815 9.92243 19.5086C10.0817 19.6679 10.3389 19.7123 10.5524 19.6056C11.0464 19.3586 11.647 19.5588 11.894 20.0528C12.141 20.5468 11.9408 21.1474 11.4468 21.3944C10.4754 21.8801 9.28569 21.7003 8.50822 20.9228C7.43824 19.8529 7.53586 18.0904 8.71745 17.1451L9.8358 16.2504L7.74919 14.1638L6.85451 15.2822C5.90923 16.4638 4.14675 16.5614 3.07677 15.4914C2.2993 14.7139 2.11948 13.5242 2.60518 12.5528C2.85216 12.0588 3.45284 11.8586 3.94682 12.1056C4.44079 12.3526 4.64102 12.9532 4.39403 13.4472C4.28728 13.6607 4.33173 13.9179 4.49099 14.0772C4.71808 14.3043 5.09214 14.2835 5.29277 14.0328L6.32627 12.7409L4.79249 11.2071C4.63074 11.0454 4.36847 11.0454 4.20671 11.2071C3.81619 11.5976 3.18302 11.5976 2.7925 11.2071C2.40197 10.8166 2.40197 10.1834 2.7925 9.7929C3.7353 8.85009 5.2639 8.85009 6.20671 9.7929L7.58335 11.1695L7.65961 11.0742L7.20671 10.6213C6.25125 9.66586 6.075 8.22627 6.67796 7.09219C5.53522 5.91848 5.5448 4.0406 6.70671 2.87869L7.2925 2.2929C7.68302 1.90237 8.31618 1.90237 8.70671 2.2929L9.9996 3.58579C10.7806 4.36684 10.7807 5.63317 9.9996 6.41422L8.62092 7.7929C8.2304 8.18342 8.2304 8.81659 8.62092 9.20711L8.72565 9.31184L9.08987 8.58341C9.8237 7.11574 10.9372 5.89072 12.2957 5.02308C12.4977 4.8941 12.7054 4.77312 12.9178 4.66031ZM10.5 10.5C10.5 9.94771 10.9477 9.5 11.5 9.5H11.509C12.0613 9.5 12.509 9.94771 12.509 10.5C12.509 11.0523 12.0613 11.5 11.509 11.5H11.5C10.9477 11.5 10.5 11.0523 10.5 10.5ZM13.5 11.5C12.9477 11.5 12.5 11.9477 12.5 12.5C12.5 13.0523 12.9477 13.5 13.5 13.5H13.509C14.0613 13.5 14.509 13.0523 14.509 12.5C14.509 11.9477 14.0613 11.5 13.509 11.5H13.5Z" fill="black"/>
<path d="M21.6539 11.7566C21.4077 11.9694 21.0732 12.0491 20.7575 11.9701L19.4373 11.6401C20.0815 10.7015 20.5494 9.63824 20.8024 8.49982L21.4594 5.54362L21.995 10.9005C22.0274 11.2244 21.9002 11.5437 21.6539 11.7566Z" fill="black"/>
<path d="M14.4301 4.02607C13.904 4.19221 13.3982 4.40508 12.9178 4.66031C12.7054 4.77312 12.4981 4.8942 12.2961 5.02318L12.0114 3.15033C11.965 2.8456 12.0618 2.53652 12.2737 2.31265C12.4856 2.08877 12.7888 1.97511 13.0956 2.00459L19.0269 2.57446L14.4301 4.02607Z" fill="black"/>
<path fill-rule="evenodd" clip-rule="evenodd" d="M10.5 10.5C10.5 9.94772 10.9477 9.5 11.5 9.5H11.509C12.0613 9.5 12.509 9.94772 12.509 10.5C12.509 11.0523 12.0613 11.5 11.509 11.5H11.5C10.9477 11.5 10.5 11.0523 10.5 10.5Z" fill="black"/>
<path fill-rule="evenodd" clip-rule="evenodd" d="M12.5 12.5C12.5 11.9477 12.9477 11.5 13.5 11.5H13.509C14.0613 11.5 14.509 11.9477 14.509 12.5C14.509 13.0523 14.0613 13.5 13.509 13.5H13.5C12.9477 13.5 12.5 13.0523 12.5 12.5Z" fill="black"/>
</svg>
