<svg width="24" height="24" viewBox="0 0 24 24" fill="none" xmlns="http://www.w3.org/2000/svg">
<path opacity="0.3" d="M15 12V10V9.5V9.07143C15 7.09898 16.599 5.5 18.5714 5.5C21.0173 5.5 23 7.48274 23 9.92857V10.1667C23 11.7315 21.7315 13 20.1667 13C20.1356 13 20.0807 13.0097 20.0023 13.0815C19.9181 13.1586 19.8357 13.2849 19.7899 13.4378C19.2184 15.3438 17.5406 16.7728 15.5 16.9753V20C15.5 20.5523 15.0523 21 14.5 21H11C10.4477 21 10 20.5523 10 20V17H9V20C9 20.5523 8.55228 21 8 21H4.5C3.94772 21 3.5 20.5523 3.5 20V16.9585C2.08114 16.7205 1 15.4865 1 14C1 13.231 1.28959 12.5302 1.76409 12H15Z" fill="black"/>
<path fill-rule="evenodd" clip-rule="evenodd" d="M18 9C18 8.44772 18.4477 8 19 8H19.009C19.5613 8 20.009 8.44772 20.009 9C20.009 9.55228 19.5613 10 19.009 10H19C18.4477 10 18 9.55228 18 9Z" fill="black"/>
<path d="M2 10H15V9.5C15 5.91015 12.0899 3 8.5 3C4.91015 3 2 5.91015 2 9.5V10Z" fill="black"/>
</svg>
