<svg width="24" height="24" viewBox="0 0 24 24" fill="none" xmlns="http://www.w3.org/2000/svg">
<path opacity="0.3" d="M21 4C21 4.42434 20.7357 4.78694 20.3627 4.93217C20.3933 5.01695 20.4183 5.09229 20.4388 5.15412L20.4487 5.18377C20.4847 5.29185 20.5193 5.39716 20.5525 5.5H21.9987C22.5039 5.5 22.9298 5.87679 22.9913 6.37821C23.0528 6.87964 22.7307 7.3482 22.2405 7.47034L21.0466 7.76781C21.0728 8.19858 21.0536 8.63368 20.9923 9.12403C20.8276 10.4416 19.7384 11.1897 18.6497 11.3625C18.119 11.4468 17.55 11.4089 16.9941 11.2393C16.9818 12.0287 16.9491 12.6439 16.862 13.1652C16.7211 14.0077 16.4414 14.6043 16 15.2974V19C16 20.1045 15.1046 21 14 21H12.5C11.3954 21 10.5 20.1045 10.5 19V16.3471L9.24623 16.1381L9.04077 16.96L9.50994 18.3675C9.94163 19.6626 8.97769 21 7.61257 21H5.72076C4.8599 21 4.09562 20.4491 3.82339 19.6324L3.44427 18.4951C3.1088 17.4886 3.18686 16.3902 3.6613 15.4413L3.955 14.8539C4.22415 14.3156 4.23833 13.656 3.99078 13.0386C3.89036 12.7881 3.7908 12.5242 3.71476 12.2865C3.65229 12.0912 3.56 11.7811 3.56 11.5C3.56 11.4812 3.55917 11.4561 3.55816 11.4252C3.55565 11.3491 3.552 11.2382 3.55683 11.1033C3.22687 11.2667 3 11.6069 3 12V14C3 14.5523 2.55228 15 2 15C1.44772 15 1 14.5523 1 14V12C1 10.3431 2.34315 9 4 9H4.62124C5.61477 8.20847 6.98844 7.87438 8.26468 7.81361C9.17442 7.7703 10.1254 7.86067 11 8.08051V7C11 4.79086 12.7909 3 15 3H20C20.5523 3 21 3.44772 21 4Z" fill="black"/>
<path d="M15 7C15 6.44772 15.4477 6 16 6H16.009C16.5613 6 17.009 6.44772 17.009 7C17.009 7.55228 16.5613 8 16.009 8H16C15.4477 8 15 7.55228 15 7Z" fill="black"/>
<path d="M22.0004 5.5C22.5056 5.5 22.9314 5.87679 22.9929 6.37821C23.0545 6.87964 22.7324 7.3482 22.2422 7.47034L21.0486 7.76771C21.0048 7.04517 20.8353 6.37021 20.5547 5.5H22.0004Z" fill="black"/>
<path d="M1 12C1 10.3431 2.34315 9 4 9H4.62761C4.50978 9.09013 4.39913 9.18751 4.29409 9.2924C3.69035 9.89529 3.57378 10.6407 3.55701 11.1032C3.22695 11.2666 3 11.6068 3 12V14C3 14.5523 2.55228 15 2 15C1.44772 15 1 14.5523 1 14V12Z" fill="black"/>
</svg>
