<svg width="24" height="24" viewBox="0 0 24 24" fill="none" xmlns="http://www.w3.org/2000/svg">
<path fill-rule="evenodd" clip-rule="evenodd" d="M6.03642 2.26266C6.63406 1.92286 7.36646 1.92286 7.96409 2.26266C8.25349 2.42721 8.43894 2.66782 8.55937 2.86519C8.68215 3.06641 8.78062 3.29525 8.86564 3.52336C9.03075 3.96633 9.20324 4.57009 9.41089 5.29693L9.4233 5.34035L10.9618 10.725C11.1135 11.2561 10.806 11.8096 10.275 11.9613C9.74394 12.113 9.19046 11.8055 9.03873 11.2745L8.38881 8.99976H5.6117L4.96178 11.2745C4.81006 11.8055 4.25657 12.113 3.72554 11.9613C3.1945 11.8096 2.88701 11.2561 3.03873 10.725L4.58963 5.29691C4.79728 4.57008 4.96977 3.96632 5.13487 3.52336C5.21989 3.29525 5.31837 3.06641 5.44114 2.86519C5.56157 2.66782 5.74703 2.42721 6.03642 2.26266ZM6.18313 6.99976H7.81738L7.50025 5.88979C7.28182 5.12527 7.13228 4.60457 7.00026 4.24529C6.86823 4.60456 6.7187 5.12527 6.50027 5.88979L6.18313 6.99976ZM15.0265 8.01647C14.7895 8.0003 14.4799 7.99976 14.0003 7.99976C13.448 7.99976 13.0003 7.55204 13.0003 6.99976C13.0003 6.44748 13.448 5.99976 14.0003 5.99976L14.0322 5.99976C14.4709 5.99975 14.8494 5.99974 15.1626 6.02111C15.4925 6.04361 15.8224 6.09312 16.1483 6.22812C16.8834 6.5326 17.4674 7.11662 17.7719 7.85171C17.9069 8.17764 17.9564 8.50755 17.9789 8.83738C18.0003 9.15063 18.0003 9.52912 18.0003 9.96777V9.99976C18.0003 10.552 17.5525 10.9998 17.0003 10.9998C16.448 10.9998 16.0003 10.552 16.0003 9.99976C16.0003 9.52014 15.9997 9.2105 15.9835 8.97352C15.968 8.74552 15.9414 8.65869 15.9241 8.61708C15.8226 8.37205 15.628 8.17738 15.3829 8.07588C15.3413 8.05864 15.2545 8.03203 15.0265 8.01647ZM17.0003 12.4998C17.5525 12.4998 18.0003 12.9475 18.0003 13.4998V13.9998H20.0003C20.5525 13.9998 21.0003 14.4475 21.0003 14.9998C21.0003 15.552 20.5525 15.9998 20.0003 15.9998H19.9813C19.879 17.3446 19.3676 18.5749 18.5711 19.5666C19.039 19.789 19.551 19.9328 20.09 19.9814C20.64 20.0309 21.0458 20.517 20.9962 21.0671C20.9467 21.6171 20.4606 22.0229 19.9105 21.9733C18.8449 21.8773 17.8542 21.5246 17.0002 20.9778C16.1458 21.5247 15.155 21.8773 14.09 21.9733C13.54 22.0229 13.0539 21.6171 13.0043 21.0671C12.9547 20.517 13.3605 20.0309 13.9105 19.9814C14.4499 19.9328 14.9618 19.7889 15.4294 19.5666C15.1534 19.2229 14.9117 18.8506 14.7095 18.4549C14.4581 17.9632 14.6529 17.3607 15.1447 17.1094C15.6365 16.858 16.2389 17.0528 16.4903 17.5446C16.6332 17.8242 16.8044 18.0868 17.0001 18.3286C17.5269 17.6775 17.8758 16.8765 17.9728 15.9998H14.0003C13.448 15.9998 13.0003 15.552 13.0003 14.9998C13.0003 14.4475 13.448 13.9998 14.0003 13.9998H16.0003V13.4998C16.0003 12.9475 16.448 12.4998 17.0003 12.4998ZM7.00026 13.9998C7.55254 13.9998 8.00026 14.4475 8.00026 14.9998C8.00026 15.4794 8.0008 15.789 8.01697 16.026C8.03252 16.254 8.05914 16.3408 8.07638 16.3824C8.17787 16.6275 8.37255 16.8221 8.61757 16.9236C8.65919 16.9409 8.74602 16.9675 8.97402 16.983C9.211 16.9992 9.52063 16.9998 10.0003 16.9998C10.5525 16.9998 11.0003 17.4475 11.0003 17.9998C11.0003 18.552 10.5525 18.9998 10.0003 18.9998H9.96827C9.52962 18.9998 9.15113 18.9998 8.83787 18.9784C8.50805 18.9559 8.17813 18.9064 7.85221 18.7714C7.11712 18.4669 6.5331 17.8829 6.22862 17.1478C6.09362 16.8219 6.04411 16.492 6.02161 16.1621C6.00023 15.8489 6.00024 15.4704 6.00026 15.0317L6.00026 14.9998C6.00026 14.4475 6.44797 13.9998 7.00026 13.9998Z" fill="black"/>
</svg>
