<svg width="24" height="24" viewBox="0 0 24 24" fill="none" xmlns="http://www.w3.org/2000/svg">
<path fill-rule="evenodd" clip-rule="evenodd" d="M8.98639 3.16431C9.07719 2.61954 8.70917 2.10431 8.1644 2.01352C7.61963 1.92272 7.1044 2.29074 7.01361 2.83551L6.15287 7.99991H4C3.44772 7.99991 3 8.44763 3 8.99991C3 9.5522 3.44772 9.99991 4 9.99991H5.81954L5.15287 13.9999H3C2.44772 13.9999 2 14.4476 2 14.9999C2 15.5522 2.44772 15.9999 3 15.9999H4.81954L4.01361 20.8355C3.92281 21.3803 4.29083 21.8955 4.8356 21.9863C5.38037 22.0771 5.8956 21.7091 5.98639 21.1643L6.84713 15.9999H10.8195L10.0136 20.8355C9.92281 21.3803 10.2908 21.8955 10.8356 21.9863C11.3804 22.0771 11.8956 21.7091 11.9864 21.1643L12.9833 15.1829C12.9854 15.1714 12.9874 15.1598 12.9891 15.1481L13.8471 9.99991H16C16.5523 9.99991 17 9.5522 17 8.99991C17 8.44763 16.5523 7.99991 16 7.99991H14.1805L14.9864 3.16431C15.0772 2.61954 14.7092 2.10431 14.1644 2.01352C13.6196 1.92272 13.1044 2.29074 13.0136 2.83551L12.1529 7.99991H8.18046L8.98639 3.16431ZM7.18046 13.9999L7.84713 9.99991H11.8195L11.1529 13.9999H7.18046Z" fill="black"/>
<path fill-rule="evenodd" clip-rule="evenodd" d="M18 13.9999C16.3431 13.9999 15 15.3431 15 16.9999V17.2679C14.6208 17.4868 14.3216 17.8256 14.1522 18.2346C14.0553 18.4686 14.0248 18.6943 14.0118 18.8847C14 19.0588 14 19.2634 14 19.4734V19.5264C14 19.7364 14 19.9411 14.0118 20.1152C14.0248 20.3055 14.0553 20.5313 14.1522 20.7653C14.3552 21.2554 14.7446 21.6447 15.2346 21.8477C15.4687 21.9446 15.6944 21.9751 15.8848 21.9881C16.0589 22 16.2635 22 16.4735 21.9999H19.5265C19.7365 22 19.9411 22 20.1152 21.9881C20.3056 21.9751 20.5313 21.9446 20.7654 21.8477C21.2554 21.6447 21.6448 21.2554 21.8478 20.7653C21.9447 20.5313 21.9752 20.3055 21.9882 20.1152C22 19.9411 22 19.7365 22 19.5264V19.4735C22 19.2634 22 19.0588 21.9882 18.8847C21.9752 18.6943 21.9447 18.4686 21.8478 18.2346C21.6784 17.8256 21.3792 17.4868 21 17.2679V16.9999C21 15.3431 19.6569 13.9999 18 13.9999ZM18 15.9999C18.5523 15.9999 19 16.4477 19 16.9999L17 16.9999C17 16.4477 17.4477 15.9999 18 15.9999Z" fill="black"/>
</svg>
