<svg width="24" height="24" viewBox="0 0 24 24" fill="none" xmlns="http://www.w3.org/2000/svg">
<path opacity="0.14" d="M7.0441 3.05301L12 9.00009L16.9559 3.05298C16.9894 3.06969 17.0209 3.09014 17.0499 3.11399C17.1073 3.16113 17.1507 3.22625 17.2375 3.3565L20.6861 8.52931C20.7991 8.69885 20.8556 8.78366 20.8759 8.87486C20.8938 8.95541 20.8915 9.03914 20.8691 9.11858C20.8439 9.20852 20.7827 9.29003 20.6605 9.45305L12.64 20.1469C12.4229 20.4364 12.3144 20.5812 12.1813 20.6329C12.0647 20.6783 11.9354 20.6783 11.8188 20.6329C11.6857 20.5812 11.5772 20.4364 11.3601 20.1469L3.33966 9.45307C3.21738 9.29004 3.15625 9.20852 3.13096 9.11858C3.10863 9.03914 3.10631 8.95541 3.1242 8.87486C3.14445 8.78365 3.20097 8.69887 3.31401 8.52931L6.76256 3.3565C6.84939 3.22625 6.8928 3.16113 6.95016 3.11399C6.97916 3.09015 7.01068 3.06972 7.0441 3.05301Z" fill="black"/>
<path d="M3.11328 9H20.8882M16.9597 3.05469L12 9.0001L7.04883 3.05078M7 3H17L21 9L12 21L3 9L7 3Z" stroke="black" stroke-width="2" stroke-linejoin="round"/>
</svg>
