<svg width="24" height="24" viewBox="0 0 24 24" fill="none" xmlns="http://www.w3.org/2000/svg">
<g opacity="0.3">
<path fill-rule="evenodd" clip-rule="evenodd" d="M21.089 7.85537C21.6551 7.23358 22.0001 6.40709 22.0001 5.5C22.0001 3.567 20.4331 2 18.5001 2C16.5671 2 15.0001 3.567 15.0001 5.5C15.0001 7.13042 16.1149 8.50046 17.6239 8.88942L17.2319 9.35982C16.8783 9.78409 16.9357 10.4147 17.3599 10.7682C17.7842 11.1218 18.4148 11.0645 18.7683 10.6402L21.089 7.85537ZM18.5001 7C19.3285 7 20.0001 6.32843 20.0001 5.5C20.0001 4.67157 19.3285 4 18.5001 4C17.6717 4 17.0001 4.67157 17.0001 5.5C17.0001 6.32843 17.6717 7 18.5001 7Z" fill="black"/>
<path d="M19.5001 14C19.5001 13.5955 19.2565 13.2309 18.8828 13.0761C18.5091 12.9213 18.079 13.0069 17.793 13.2929L15.793 15.2929C15.4025 15.6834 15.4025 16.3166 15.793 16.7071C16.1835 17.0976 16.8167 17.0976 17.2072 16.7071L17.5001 16.4142V20H16.5001C15.9478 20 15.5001 20.4477 15.5001 21C15.5001 21.5523 15.9478 22 16.5001 22H20.5001C21.0524 22 21.5001 21.5523 21.5001 21C21.5001 20.4477 21.0524 20 20.5001 20H19.5001V14Z" fill="black"/>
</g>
<path fill-rule="evenodd" clip-rule="evenodd" d="M7.00012 2C7.55241 2 8.00012 2.44772 8.00012 3V18.5858L10.293 16.2929C10.6835 15.9024 11.3167 15.9024 11.7072 16.2929C12.0978 16.6834 12.0978 17.3166 11.7072 17.7071L7.70723 21.7071C7.3167 22.0976 6.68354 22.0976 6.29302 21.7071L2.29302 17.7071C1.90249 17.3166 1.90249 16.6834 2.29302 16.2929C2.68354 15.9024 3.3167 15.9024 3.70723 16.2929L6.00012 18.5858V3C6.00012 2.44772 6.44784 2 7.00012 2Z" fill="black"/>
</svg>
