<svg width="24" height="24" viewBox="0 0 24 24" fill="none" xmlns="http://www.w3.org/2000/svg">
<g opacity="0.3">
<path fill-rule="evenodd" clip-rule="evenodd" d="M21.0891 7.85537C21.6552 7.23358 22.0002 6.40709 22.0002 5.5C22.0002 3.567 20.4332 2 18.5002 2C16.5672 2 15.0002 3.567 15.0002 5.5C15.0002 7.13042 16.1151 8.50046 17.624 8.88942L17.232 9.35982C16.8785 9.78409 16.9358 10.4147 17.3601 10.7682C17.7843 11.1218 18.4149 11.0645 18.7685 10.6402L21.0891 7.85537ZM18.5002 7C19.3287 7 20.0002 6.32843 20.0002 5.5C20.0002 4.67157 19.3287 4 18.5002 4C17.6718 4 17.0002 4.67157 17.0002 5.5C17.0002 6.32843 17.6718 7 18.5002 7Z" fill="black"/>
<path d="M19.5002 14C19.5002 13.5955 19.2566 13.2309 18.8829 13.0761C18.5093 12.9213 18.0791 13.0069 17.7931 13.2929L15.7931 15.2929C15.4026 15.6834 15.4026 16.3166 15.7931 16.7071C16.1837 17.0976 16.8168 17.0976 17.2074 16.7071L17.5002 16.4142V20H16.5002C15.948 20 15.5002 20.4477 15.5002 21C15.5002 21.5523 15.948 22 16.5002 22H20.5002C21.0525 22 21.5002 21.5523 21.5002 21C21.5002 20.4477 21.0525 20 20.5002 20H19.5002V14Z" fill="black"/>
</g>
<path fill-rule="evenodd" clip-rule="evenodd" d="M6.29302 2.29289C6.68354 1.90237 7.3167 1.90237 7.70723 2.29289L11.7072 6.29289C12.0978 6.68342 12.0978 7.31658 11.7072 7.70711C11.3167 8.09763 10.6835 8.09763 10.293 7.70711L8.00012 5.41421V21C8.00012 21.5523 7.55241 22 7.00012 22C6.44784 22 6.00012 21.5523 6.00012 21V5.41421L3.70723 7.70711C3.3167 8.09763 2.68354 8.09763 2.29302 7.70711C1.90249 7.31658 1.90249 6.68342 2.29302 6.29289L6.29302 2.29289Z" fill="black"/>
</svg>
