<svg width="24" height="24" viewBox="0 0 24 24" fill="none" xmlns="http://www.w3.org/2000/svg">
<g opacity="0.3">
<path d="M19.5001 3.00003C19.5001 2.59557 19.2565 2.23093 18.8828 2.07615C18.5091 1.92137 18.079 2.00692 17.793 2.29292L15.793 4.29292C15.4025 4.68345 15.4025 5.31661 15.793 5.70714C16.1835 6.09766 16.8167 6.09766 17.2072 5.70714L17.5001 5.41424V9.00003H16.5001C15.9478 9.00003 15.5001 9.44774 15.5001 10C15.5001 10.5523 15.9478 11 16.5001 11H20.5001C21.0524 11 21.5001 10.5523 21.5001 10C21.5001 9.44774 21.0524 9.00003 20.5001 9.00003H19.5001V3.00003Z" fill="black"/>
<path fill-rule="evenodd" clip-rule="evenodd" d="M21.089 18.8554C21.6551 18.2336 22.0001 17.4071 22.0001 16.5C22.0001 14.567 20.4331 13 18.5001 13C16.5671 13 15.0001 14.567 15.0001 16.5C15.0001 18.1304 16.1149 19.5005 17.6239 19.8894L17.2319 20.3598C16.8783 20.7841 16.9357 21.4147 17.3599 21.7682C17.7842 22.1218 18.4148 22.0645 18.7683 21.6402L21.089 18.8554ZM18.5001 18C19.3285 18 20.0001 17.3284 20.0001 16.5C20.0001 15.6716 19.3285 15 18.5001 15C17.6717 15 17.0001 15.6716 17.0001 16.5C17.0001 17.3284 17.6717 18 18.5001 18Z" fill="black"/>
</g>
<path fill-rule="evenodd" clip-rule="evenodd" d="M7 2C7.55228 2 8 2.44772 8 3V18.5858L10.2929 16.2929C10.6834 15.9024 11.3166 15.9024 11.7071 16.2929C12.0976 16.6834 12.0976 17.3166 11.7071 17.7071L7.70711 21.7071C7.31658 22.0976 6.68342 22.0976 6.29289 21.7071L2.29289 17.7071C1.90237 17.3166 1.90237 16.6834 2.29289 16.2929C2.68342 15.9024 3.31658 15.9024 3.70711 16.2929L6 18.5858V3C6 2.44772 6.44772 2 7 2Z" fill="black"/>
</svg>
