<svg width="24" height="24" viewBox="0 0 24 24" fill="none" xmlns="http://www.w3.org/2000/svg">
<path opacity="0.3" d="M13.9996 2.99952V8.99951H8.99963C7.34278 8.99951 5.99963 10.3427 5.99963 11.9995C5.99963 13.6564 7.34278 14.9995 8.99963 14.9995H13.9996L13.9996 20.9995C13.9996 21.5518 13.5519 21.9995 12.9996 21.9995H6.16185C5.63471 21.9995 5.17995 21.9995 4.80539 21.9689C4.41004 21.9366 4.01682 21.8653 3.63844 21.6725C3.07396 21.3849 2.61502 20.926 2.3274 20.3615C2.1346 19.9831 2.06329 19.5899 2.03098 19.1945C2.00038 18.82 2.0004 18.3652 2.00042 17.838L2.00042 6.16096C2.0004 5.63382 2.00038 5.17906 2.03098 4.80449C2.06329 4.40914 2.1346 4.01592 2.3274 3.63754C2.61502 3.07306 3.07396 2.61412 3.63844 2.3265C4.01682 2.1337 4.41004 2.06239 4.80539 2.03008C5.17994 1.99948 5.63471 1.9995 6.16183 1.99951L12.9996 1.99951C13.5519 1.99951 13.9996 2.44723 13.9996 2.99952Z" fill="black"/>
<path d="M21.7067 12.7066C22.0973 12.3161 22.0973 11.6829 21.7067 11.2924L17.7067 7.29241C17.3162 6.90188 16.6831 6.90188 16.2925 7.29241C15.902 7.68293 15.902 8.31609 16.2925 8.70662L18.5854 10.9995H8.99963C8.44735 10.9995 7.99963 11.4472 7.99963 11.9995C7.99963 12.5518 8.44735 12.9995 8.99963 12.9995H18.5854L16.2925 15.2924C15.902 15.6829 15.902 16.3161 16.2925 16.7066C16.6831 17.0971 17.3162 17.0971 17.7067 16.7066L21.7067 12.7066Z" fill="black"/>
</svg>
