<svg width="24" height="24" viewBox="0 0 24 24" fill="none" xmlns="http://www.w3.org/2000/svg">
<path opacity="0.3" d="M22 12C22 17.5228 17.5228 22 12 22C6.47715 22 2 17.5228 2 12C2 6.47715 6.47715 2 12 2C17.5228 2 22 6.47715 22 12Z" fill="black"/>
<path d="M4.25708 5.67105C4.68024 5.15394 5.15418 4.68 5.67129 4.25684L12.9997 11.5855V8.34285C12.9997 7.79057 13.4475 7.34285 13.9997 7.34285C14.552 7.34285 14.9997 7.79057 14.9997 8.34285V13.9997C14.9997 14.552 14.552 14.9997 13.9997 14.9997H8.34289C7.79061 14.9997 7.34289 14.552 7.34289 13.9997C7.34289 13.4474 7.79061 12.9997 8.34289 12.9997H11.5856L4.25708 5.67105Z" fill="black"/>
</svg>
