<svg width="24" height="24" viewBox="0 0 24 24" fill="none" xmlns="http://www.w3.org/2000/svg">
<path opacity="0.3" d="M12.0001 11H18.5859L16.293 8.70711C15.9025 8.31658 15.9025 7.68342 16.293 7.29289C16.6835 6.90237 17.3167 6.90237 17.7072 7.29289L21.7072 11.2929C22.0978 11.6834 22.0978 12.3166 21.7072 12.7071L17.7072 16.7071C17.3167 17.0976 16.6835 17.0976 16.293 16.7071C15.9025 16.3166 15.9025 15.6834 16.293 15.2929L18.5859 13H12.0001V11Z" fill="black"/>
<path d="M12.0002 11H5.41446L7.70735 8.70711C8.09788 8.31658 8.09788 7.68342 7.70735 7.29289C7.31683 6.90237 6.68366 6.90237 6.29314 7.29289L2.29314 11.2929C1.90261 11.6834 1.90261 12.3166 2.29314 12.7071L6.29314 16.7071C6.68366 17.0976 7.31683 17.0976 7.70735 16.7071C8.09788 16.3166 8.09788 15.6834 7.70735 15.2929L5.41446 13H12.0002V11Z" fill="black"/>
</svg>
