<svg width="24" height="24" viewBox="0 0 24 24" fill="none" xmlns="http://www.w3.org/2000/svg">
<path opacity="0.3" d="M22 12C22 17.5228 17.5228 22 12 22C6.47715 22 2 17.5228 2 12C2 6.47715 6.47715 2 12 2C17.5228 2 22 6.47715 22 12Z" fill="black"/>
<path d="M4.25708 18.3287L11.5856 11H8.3429C7.79062 11 7.3429 10.5523 7.3429 10C7.3429 9.44772 7.79062 9 8.3429 9H13.9998C14.552 9 14.9998 9.44772 14.9998 10V15.6569C14.9998 16.2091 14.552 16.6569 13.9998 16.6569C13.4475 16.6569 12.9998 16.2091 12.9998 15.6569V12.4143L5.67129 19.7429C5.15418 19.3198 4.68024 18.8458 4.25708 18.3287Z" fill="black"/>
</svg>
