<svg width="24" height="24" viewBox="0 0 24 24" fill="none" xmlns="http://www.w3.org/2000/svg">
<g opacity="0.3">
<path d="M21 4H14C13.4477 4 13 3.55228 13 3C13 2.44772 13.4477 2 14 2H21C21.5523 2 22 2.44772 22 3C22 3.55228 21.5523 4 21 4Z" fill="black"/>
<path d="M13 9C13 8.44772 13.4477 8 14 8H19C19.5523 8 20 8.44772 20 9C20 9.55228 19.5523 10 19 10H14C13.4477 10 13 9.55228 13 9Z" fill="black"/>
<path d="M13 15C13 14.4477 13.4477 14 14 14H17C17.5523 14 18 14.4477 18 15C18 15.5523 17.5523 16 17 16H14C13.4477 16 13 15.5523 13 15Z" fill="black"/>
<path d="M13 21C13 20.4477 13.4477 20 14 20H15C15.5523 20 16 20.4477 16 21C16 21.5523 15.5523 22 15 22H14C13.4477 22 13 21.5523 13 21Z" fill="black"/>
</g>
<path fill-rule="evenodd" clip-rule="evenodd" d="M6.29302 2.29289C6.68354 1.90237 7.3167 1.90237 7.70723 2.29289L11.7072 6.29289C12.0978 6.68342 12.0978 7.31658 11.7072 7.70711C11.3167 8.09763 10.6835 8.09763 10.293 7.70711L8.00012 5.41421V21C8.00012 21.5523 7.55241 22 7.00012 22C6.44784 22 6.00012 21.5523 6.00012 21V5.41421L3.70723 7.70711C3.3167 8.09763 2.68354 8.09763 2.29302 7.70711C1.90249 7.31658 1.90249 6.68342 2.29302 6.29289L6.29302 2.29289Z" fill="black"/>
</svg>
