<svg width="24" height="24" viewBox="0 0 24 24" fill="none" xmlns="http://www.w3.org/2000/svg">
<path opacity="0.3" d="M22 12C22 17.5228 17.5228 22 12 22C6.47715 22 2 17.5228 2 12C2 6.47715 6.47715 2 12 2C17.5228 2 22 6.47715 22 12Z" fill="black"/>
<path d="M19.7429 5.67105L12.4142 12.9997H15.5C16.0523 12.9997 16.5 13.4474 16.5 13.9997C16.5 14.552 16.0523 14.9997 15.5 14.9997H10C9.44772 14.9997 9 14.552 9 13.9997V8.34288C9 7.79059 9.44772 7.34288 10 7.34288C10.5523 7.34288 11 7.79059 11 8.34288V11.5855L18.3287 4.25684C18.8458 4.68 19.3198 5.15394 19.7429 5.67105Z" fill="black"/>
</svg>
