<svg width="24" height="24" viewBox="0 0 24 24" fill="none" xmlns="http://www.w3.org/2000/svg">
<g opacity="0.3">
<path fill-rule="evenodd" clip-rule="evenodd" d="M18.9196 2.60608C18.7621 2.2384 18.4005 2 18.0005 2C17.6005 2 17.2389 2.2384 17.0814 2.60608L14.0814 9.60608C13.8638 10.1137 14.099 10.7016 14.6066 10.9191C15.1142 11.1367 15.7021 10.9015 15.9196 10.3939L16.0885 10H19.9125L20.0814 10.3939C20.2989 10.9015 20.8868 11.1367 21.3944 10.9191C21.902 10.7016 22.1372 10.1137 21.9196 9.60608L18.9196 2.60608ZM18.0004 5.53857L19.0553 7.99998H16.9456L18.0004 5.53857Z" fill="black"/>
<path d="M15.5005 13C14.9482 13 14.5005 13.4477 14.5005 14C14.5005 14.5523 14.9482 15 15.5005 15H18.5573L14.6868 20.4188C14.469 20.7236 14.4399 21.1245 14.6113 21.4576C14.7827 21.7907 15.1259 22 15.5005 22H20.5005C21.0528 22 21.5005 21.5523 21.5005 21C21.5005 20.4477 21.0528 20 20.5005 20H17.4437L21.3142 14.5812C21.532 14.2764 21.5611 13.8755 21.3897 13.5424C21.2183 13.2093 20.8751 13 20.5005 13H15.5005Z" fill="black"/>
</g>
<path fill-rule="evenodd" clip-rule="evenodd" d="M6.29302 2.29289C6.68354 1.90237 7.3167 1.90237 7.70723 2.29289L11.7072 6.29289C12.0978 6.68342 12.0978 7.31658 11.7072 7.70711C11.3167 8.09763 10.6835 8.09763 10.293 7.70711L8.00012 5.41421V21C8.00012 21.5523 7.55241 22 7.00012 22C6.44784 22 6.00012 21.5523 6.00012 21V5.41421L3.70723 7.70711C3.3167 8.09763 2.68354 8.09763 2.29302 7.70711C1.90249 7.31658 1.90249 6.68342 2.29302 6.29289L6.29302 2.29289Z" fill="black"/>
</svg>
