<svg width="24" height="24" viewBox="0 0 24 24" fill="none" xmlns="http://www.w3.org/2000/svg">
<g opacity="0.3">
<path d="M15.5005 4H18.5573L14.6868 9.41876C14.469 9.72358 14.4399 10.1245 14.6113 10.4576C14.7827 10.7907 15.1259 11 15.5005 11H20.5005C21.0528 11 21.5005 10.5523 21.5005 10C21.5005 9.44772 21.0528 9 20.5005 9H17.4437L21.3142 3.58124C21.532 3.27642 21.5611 2.87549 21.3897 2.54242C21.2183 2.20935 20.8751 2 20.5005 2H15.5005C14.9482 2 14.5005 2.44772 14.5005 3C14.5005 3.55228 14.9482 4 15.5005 4Z" fill="black"/>
<path fill-rule="evenodd" clip-rule="evenodd" d="M18.9196 13.6061C18.7621 13.2384 18.4005 13 18.0005 13C17.6005 13 17.2389 13.2384 17.0814 13.6061L14.0814 20.6061C13.8638 21.1137 14.099 21.7016 14.6066 21.9191C15.1142 22.1367 15.7021 21.9015 15.9196 21.3939L16.0885 21H19.9125L20.0814 21.3939C20.2989 21.9015 20.8868 22.1367 21.3944 21.9191C21.902 21.7016 22.1372 21.1137 21.9196 20.6061L18.9196 13.6061ZM18.0004 16.5386L19.0553 19H16.9456L18.0004 16.5386Z" fill="black"/>
</g>
<path fill-rule="evenodd" clip-rule="evenodd" d="M6.29302 2.29289C6.68354 1.90237 7.3167 1.90237 7.70723 2.29289L11.7072 6.29289C12.0978 6.68342 12.0978 7.31658 11.7072 7.70711C11.3167 8.09763 10.6835 8.09763 10.293 7.70711L8.00012 5.41421V21C8.00012 21.5523 7.55241 22 7.00012 22C6.44784 22 6.00012 21.5523 6.00012 21V5.41421L3.70723 7.70711C3.3167 8.09763 2.68354 8.09763 2.29302 7.70711C1.90249 7.31658 1.90249 6.68342 2.29302 6.29289L6.29302 2.29289Z" fill="black"/>
</svg>
