<svg width="24" height="24" viewBox="0 0 24 24" fill="none" xmlns="http://www.w3.org/2000/svg">
<g opacity="0.3">
<path fill-rule="evenodd" clip-rule="evenodd" d="M18.9195 2.60608C18.7619 2.2384 18.4004 2 18.0004 2C17.6004 2 17.2388 2.2384 17.0812 2.60608L14.0812 9.60608C13.8637 10.1137 14.0988 10.7016 14.6065 10.9191C15.1141 11.1367 15.702 10.9015 15.9195 10.3939L16.0883 10H19.9124L20.0812 10.3939C20.2988 10.9015 20.8867 11.1367 21.3943 10.9191C21.9019 10.7016 22.1371 10.1137 21.9195 9.60608L18.9195 2.60608ZM18.0003 5.53857L19.0552 7.99998H16.9454L18.0003 5.53857Z" fill="black"/>
<path d="M15.5004 13C14.9481 13 14.5004 13.4477 14.5004 14C14.5004 14.5523 14.9481 15 15.5004 15H18.5572L14.6866 20.4188C14.4689 20.7236 14.4398 21.1245 14.6112 21.4576C14.7826 21.7907 15.1258 22 15.5004 22H20.5004C21.0527 22 21.5004 21.5523 21.5004 21C21.5004 20.4477 21.0527 20 20.5004 20H17.4436L21.3141 14.5812C21.5318 14.2764 21.5609 13.8755 21.3895 13.5424C21.2181 13.2093 20.875 13 20.5004 13H15.5004Z" fill="black"/>
</g>
<path fill-rule="evenodd" clip-rule="evenodd" d="M7 2C7.55228 2 8 2.44772 8 3V18.5858L10.2929 16.2929C10.6834 15.9024 11.3166 15.9024 11.7071 16.2929C12.0976 16.6834 12.0976 17.3166 11.7071 17.7071L7.70711 21.7071C7.31658 22.0976 6.68342 22.0976 6.29289 21.7071L2.29289 17.7071C1.90237 17.3166 1.90237 16.6834 2.29289 16.2929C2.68342 15.9024 3.31658 15.9024 3.70711 16.2929L6 18.5858V3C6 2.44772 6.44772 2 7 2Z" fill="black"/>
</svg>
