<svg width="24" height="24" viewBox="0 0 24 24" fill="none" xmlns="http://www.w3.org/2000/svg">
<path opacity="0.3" d="M10.0004 20.9995V18.8287C11.0557 19.2009 12.2776 18.9649 13.1217 18.1208L17.1217 14.1208C18.2933 12.9493 18.2933 11.0498 17.1217 9.87819L13.1217 5.87819C12.2776 5.03412 11.0557 4.79817 10.0004 5.17035V2.99951C10.0004 2.44723 10.4481 1.99951 11.0004 1.99951H17.8382C18.3653 1.99949 18.82 1.99948 19.1946 2.03008C19.59 2.06238 19.9832 2.1337 20.3616 2.32649C20.926 2.61411 21.385 3.07305 21.6726 3.63754C21.8654 4.01592 21.9367 4.40914 21.969 4.80448C21.9996 5.17906 21.9996 5.63384 21.9996 6.16099V17.8381C21.9996 18.3652 21.9996 18.82 21.969 19.1945C21.9367 19.5899 21.8654 19.9831 21.6726 20.3615C21.385 20.926 20.926 21.3849 20.3616 21.6725C19.9832 21.8653 19.59 21.9366 19.1946 21.9689C18.8201 21.9995 18.3653 21.9995 17.8382 21.9995H11.0004C10.4481 21.9995 10.0004 21.5518 10.0004 20.9995Z" fill="black"/>
<path d="M3.00037 10.9995C2.44808 10.9995 2.00037 11.4472 2.00037 11.9995C2.00037 12.5518 2.44808 12.9995 3.00037 12.9995H12.5862L10.2933 15.2924C9.90274 15.6829 9.90274 16.3161 10.2933 16.7066C10.6838 17.0971 11.3169 17.0971 11.7075 16.7066L15.7075 12.7066C16.098 12.3161 16.098 11.6829 15.7075 11.2924L11.7075 7.29241C11.3169 6.90188 10.6838 6.90188 10.2933 7.29241C9.90274 7.68293 9.90274 8.31609 10.2933 8.70662L12.5862 10.9995H3.00037Z" fill="black"/>
</svg>
