<svg width="24" height="24" viewBox="0 0 24 24" fill="none" xmlns="http://www.w3.org/2000/svg">
<path opacity="0.3" d="M12.7071 21.7071C12.5196 21.8946 12.2652 22 12 22C11.7348 22 11.4804 21.8946 11.2929 21.7071L7.29289 17.7071C6.90237 17.3166 6.90237 16.6834 7.29289 16.2929C7.68342 15.9024 8.31658 15.9024 8.70711 16.2929L11 18.5858V12H13V18.5858L15.2929 16.2929C15.6834 15.9024 16.3166 15.9024 16.7071 16.2929C17.0976 16.6834 17.0976 17.3166 16.7071 17.7071L12.7071 21.7071Z" fill="black"/>
<path d="M12.7072 2.29289C12.5197 2.10536 12.2653 2 12.0001 2C11.7349 2 11.4806 2.10536 11.293 2.29289L7.29302 6.29289C6.90249 6.68342 6.90249 7.31658 7.29302 7.70711C7.68354 8.09763 8.3167 8.09763 8.70723 7.70711L11.0001 5.41421V12H13.0001V5.41421L15.293 7.70711C15.6835 8.09763 16.3167 8.09763 16.7072 7.70711C17.0978 7.31658 17.0978 6.68342 16.7072 6.29289L12.7072 2.29289Z" fill="black"/>
</svg>
