<svg width="24" height="24" viewBox="0 0 24 24" fill="none" xmlns="http://www.w3.org/2000/svg">
<g opacity="0.3">
<path d="M15.5004 2C14.9481 2 14.5004 2.44772 14.5004 3C14.5004 3.55228 14.9481 4 15.5004 4H18.5572L14.6866 9.41876C14.4689 9.72358 14.4398 10.1245 14.6112 10.4576C14.7826 10.7907 15.1258 11 15.5004 11H20.5004C21.0527 11 21.5004 10.5523 21.5004 10C21.5004 9.44772 21.0527 9 20.5004 9H17.4436L21.3141 3.58124C21.5318 3.27642 21.5609 2.87549 21.3895 2.54242C21.2181 2.20935 20.875 2 20.5004 2H15.5004Z" fill="black"/>
<path fill-rule="evenodd" clip-rule="evenodd" d="M18.9195 13.6061C18.7619 13.2384 18.4004 13 18.0004 13C17.6004 13 17.2388 13.2384 17.0812 13.6061L14.0812 20.6061C13.8637 21.1137 14.0988 21.7016 14.6065 21.9191C15.1141 22.1367 15.702 21.9015 15.9195 21.3939L16.0883 21H19.9124L20.0812 21.3939C20.2988 21.9015 20.8867 22.1367 21.3943 21.9191C21.9019 21.7016 22.1371 21.1137 21.9195 20.6061L18.9195 13.6061ZM18.0003 16.5386L19.0552 19H16.9454L18.0003 16.5386Z" fill="black"/>
</g>
<path fill-rule="evenodd" clip-rule="evenodd" d="M7 2C7.55228 2 8 2.44772 8 3V18.5858L10.2929 16.2929C10.6834 15.9024 11.3166 15.9024 11.7071 16.2929C12.0976 16.6834 12.0976 17.3166 11.7071 17.7071L7.70711 21.7071C7.31658 22.0976 6.68342 22.0976 6.29289 21.7071L2.29289 17.7071C1.90237 17.3166 1.90237 16.6834 2.29289 16.2929C2.68342 15.9024 3.31658 15.9024 3.70711 16.2929L6 18.5858V3C6 2.44772 6.44772 2 7 2Z" fill="black"/>
</svg>
