<svg width="24" height="24" viewBox="0 0 24 24" fill="none" xmlns="http://www.w3.org/2000/svg">
<g opacity="0.3">
<path d="M19.5002 3.00003C19.5002 2.59557 19.2566 2.23093 18.8829 2.07615C18.5093 1.92137 18.0791 2.00692 17.7931 2.29292L15.7931 4.29292C15.4026 4.68345 15.4026 5.31661 15.7931 5.70714C16.1837 6.09766 16.8168 6.09766 17.2074 5.70714L17.5002 5.41424V9.00003H16.5002C15.948 9.00003 15.5002 9.44774 15.5002 10C15.5002 10.5523 15.948 11 16.5002 11H20.5002C21.0525 11 21.5002 10.5523 21.5002 10C21.5002 9.44774 21.0525 9.00003 20.5002 9.00003H19.5002V3.00003Z" fill="black"/>
<path fill-rule="evenodd" clip-rule="evenodd" d="M21.0891 18.8554C21.6552 18.2336 22.0002 17.4071 22.0002 16.5C22.0002 14.567 20.4332 13 18.5002 13C16.5672 13 15.0002 14.567 15.0002 16.5C15.0002 18.1304 16.1151 19.5005 17.624 19.8894L17.232 20.3598C16.8785 20.7841 16.9358 21.4147 17.3601 21.7682C17.7843 22.1218 18.4149 22.0645 18.7685 21.6402L21.0891 18.8554ZM18.5002 18C19.3287 18 20.0002 17.3284 20.0002 16.5C20.0002 15.6716 19.3287 15 18.5002 15C17.6718 15 17.0002 15.6716 17.0002 16.5C17.0002 17.3284 17.6718 18 18.5002 18Z" fill="black"/>
</g>
<path fill-rule="evenodd" clip-rule="evenodd" d="M6.29302 2.29289C6.68354 1.90237 7.3167 1.90237 7.70723 2.29289L11.7072 6.29289C12.0978 6.68342 12.0978 7.31658 11.7072 7.70711C11.3167 8.09763 10.6835 8.09763 10.293 7.70711L8.00012 5.41421V21C8.00012 21.5523 7.55241 22 7.00012 22C6.44784 22 6.00012 21.5523 6.00012 21V5.41421L3.70723 7.70711C3.3167 8.09763 2.68354 8.09763 2.29302 7.70711C1.90249 7.31658 1.90249 6.68342 2.29302 6.29289L6.29302 2.29289Z" fill="black"/>
</svg>
