<svg width="24" height="24" viewBox="0 0 24 24" fill="none" xmlns="http://www.w3.org/2000/svg">
<path opacity="0.3" d="M17.7671 15.6405C18.1322 15.3287 18.326 14.8609 18.2883 14.3822C18.2546 13.9536 18.0079 13.6442 17.8849 13.4972C17.747 13.3325 17.559 13.1446 17.3678 12.9535L13.2565 8.84215C13.1723 8.75789 13.0717 8.65725 12.9759 8.57587C12.8648 8.48158 12.6962 8.35603 12.4636 8.28045C12.1623 8.18256 11.8378 8.18256 11.5365 8.28045C11.3039 8.35603 11.1353 8.48158 11.0242 8.57587C10.9284 8.65725 10.8278 8.75787 10.7436 8.84213L6.63226 12.9535C6.44106 13.1446 6.25313 13.3325 6.11524 13.4972C5.99223 13.6442 5.74552 13.9536 5.71179 14.3822C5.67411 14.8609 5.86788 15.3287 6.23299 15.6405C6.55994 15.9198 6.95319 15.9641 7.14408 15.981C7.35805 16 7.62381 16 7.89419 15.9999L16.1059 15.9999C16.3763 16 16.6421 16 16.856 15.981C17.0469 15.9641 17.4402 15.9198 17.7671 15.6405Z" fill="black"/>
</svg>
