<svg width="24" height="24" viewBox="0 0 24 24" fill="none" xmlns="http://www.w3.org/2000/svg">
<path opacity="0.3" d="M8.35952 17.7672C8.67136 18.1324 9.13914 18.3261 9.61782 18.2884C10.0465 18.2547 10.3559 18.008 10.5028 17.885C10.6675 17.7471 10.8554 17.5591 11.0466 17.3679L15.1579 13.2566C15.2422 13.1724 15.3428 13.0719 15.4242 12.976C15.5185 12.8649 15.644 12.6963 15.7196 12.4637C15.8175 12.1624 15.8175 11.8379 15.7196 11.5367C15.644 11.304 15.5185 11.1354 15.4242 11.0243C15.3428 10.9285 15.2422 10.8279 15.1579 10.7437L11.0466 6.63238C10.8554 6.44119 10.6675 6.25325 10.5028 6.11537C10.3559 5.99235 10.0465 5.74564 9.61781 5.71191C9.13914 5.67424 8.67136 5.868 8.35952 6.23311C8.08028 6.56006 8.03592 6.95331 8.01901 7.1442C8.00005 7.35817 8.00009 7.62393 8.00013 7.89431V16.106C8.00009 16.3764 8.00005 16.6422 8.01901 16.8562C8.03592 17.047 8.08028 17.4403 8.35952 17.7672Z" fill="black"/>
</svg>
