<svg width="24" height="24" viewBox="0 0 24 24" fill="none" xmlns="http://www.w3.org/2000/svg">
<path opacity="0.3" fill-rule="evenodd" clip-rule="evenodd" d="M6.66824 6.03542C8.08406 4.76888 9.95093 4 11.9998 4C16.418 4 19.9998 7.58172 19.9998 12C19.9998 16.4183 16.418 20 11.9998 20C8.19376 20 5.00636 17.3412 4.19799 13.7787C4.07578 13.2401 3.54009 12.9026 3.00149 13.0248C2.4629 13.147 2.12536 13.6827 2.24757 14.2213C3.25812 18.6747 7.23942 22 11.9998 22C17.5226 22 21.9998 17.5228 21.9998 12C21.9998 6.47715 17.5226 2 11.9998 2C9.43922 2 7.10137 2.96367 5.33285 4.54655L2.32966 7.25773C1.91972 7.62782 1.88741 8.26016 2.25749 8.6701C2.62758 9.08005 3.25992 9.11236 3.66987 8.74227L6.66824 6.03542Z" fill="black"/>
<path fill-rule="evenodd" clip-rule="evenodd" d="M3 2C3.55228 2 4 2.44772 4 3V7H8C8.55228 7 9 7.44772 9 8C9 8.55228 8.55228 9 8 9H3C2.44772 9 2 8.55228 2 8V3C2 2.44772 2.44772 2 3 2Z" fill="black"/>
</svg>
