<svg width="24" height="24" viewBox="0 0 24 24" fill="none" xmlns="http://www.w3.org/2000/svg">
<path opacity="0.3" fill-rule="evenodd" clip-rule="evenodd" d="M12 5C11.7207 5 11.4456 5.01631 11.1755 5.04795C10.627 5.11221 10.1302 4.71963 10.0659 4.1711C10.0017 3.62256 10.3943 3.12579 10.9428 3.06153C11.2899 3.02087 11.6427 3 12 3C16.9706 3 21 7.02944 21 12C21 14.8426 19.681 17.3779 17.6255 19.0256C17.1946 19.3711 16.5652 19.3018 16.2198 18.8708C15.8743 18.4399 15.9436 17.8106 16.3745 17.4651C17.9769 16.1806 19 14.2101 19 12C19 8.13401 15.866 5 12 5ZM7.78025 5.12916C8.12569 5.56008 8.05639 6.18944 7.62547 6.53488C6.02312 7.81937 5 9.78986 5 12C5 15.866 8.13401 19 12 19C12.2882 19 12.572 18.9826 12.8503 18.949C13.3986 18.8827 13.8968 19.2734 13.9631 19.8217C14.0294 20.37 13.6387 20.8682 13.0904 20.9345C12.7326 20.9778 12.3687 21 12 21C7.02944 21 3 16.9706 3 12C3 9.15737 4.31903 6.62213 6.37453 4.97438C6.80545 4.62894 7.43481 4.69824 7.78025 5.12916Z" fill="black"/>
<path fill-rule="evenodd" clip-rule="evenodd" d="M13.7077 1.2937C14.0977 1.68467 14.097 2.31783 13.7061 2.70791L12.414 3.99706L13.7077 5.2937C14.0977 5.68467 14.097 6.31783 13.7061 6.70791C13.3151 7.09799 12.6819 7.09727 12.2918 6.7063L10.2918 4.70175C10.1045 4.514 9.99946 4.25953 9.99976 3.99431C10.0001 3.72909 10.1057 3.47486 10.2935 3.28754L12.2935 1.29209C12.6844 0.902009 13.3176 0.90273 13.7077 1.2937ZM10.2767 17.3093C10.6582 16.9099 11.2912 16.8955 11.6905 17.277L13.6905 19.1877C13.8824 19.371 13.9936 19.6231 13.9995 19.8884C14.0054 20.1538 13.9056 20.4106 13.7221 20.6023L11.7221 22.6916C11.3402 23.0905 10.7072 23.1043 10.3083 22.7224C9.9093 22.3405 9.89548 21.7075 10.2774 21.3086L11.5852 19.9424L10.309 18.7231C9.90964 18.3416 9.89519 17.7086 10.2767 17.3093Z" fill="black"/>
</svg>
