<svg width="24" height="24" viewBox="0 0 24 24" fill="none" xmlns="http://www.w3.org/2000/svg">
<path opacity="0.3" fill-rule="evenodd" clip-rule="evenodd" d="M6.66824 6.03542C8.08406 4.76888 9.95093 4 11.9998 4C16.418 4 19.9998 7.58172 19.9998 12C19.9998 12.5523 20.4475 13 20.9998 13C21.552 13 21.9998 12.5523 21.9998 12C21.9998 6.47715 17.5226 2 11.9998 2C9.43922 2 7.10137 2.96367 5.33285 4.54655L2.32966 7.25773C1.91972 7.62782 1.88741 8.26016 2.25749 8.6701C2.62758 9.08005 3.25992 9.11236 3.66987 8.74227L6.66824 6.03542ZM2.99976 11C3.55205 11 3.99976 11.4477 3.99976 12C3.99976 16.4183 7.58149 20 11.9998 20C14.0487 20 15.9156 19.2311 17.3314 17.9645C17.3319 17.964 17.3324 17.9636 17.3328 17.9632L20.3297 15.2577C20.7396 14.8876 21.3719 14.92 21.742 15.3299C22.1121 15.7398 22.0798 16.3722 21.6699 16.7423L18.6699 19.4506L18.6667 19.4535C16.8982 21.0363 14.5603 22 11.9998 22C6.47692 22 1.99976 17.5228 1.99976 12C1.99976 11.4477 2.44748 11 2.99976 11Z" fill="black"/>
<path fill-rule="evenodd" clip-rule="evenodd" d="M3 2C3.55228 2 4 2.44772 4 3V7H8C8.55228 7 9 7.44772 9 8C9 8.55228 8.55228 9 8 9H3C2.44772 9 2 8.55228 2 8V3C2 2.44772 2.44772 2 3 2ZM15 16C15 15.4477 15.4477 15 16 15H21C21.5523 15 22 15.4477 22 16V21C22 21.5523 21.5523 22 21 22C20.4477 22 20 21.5523 20 21V17H16C15.4477 17 15 16.5523 15 16Z" fill="black"/>
</svg>
