<svg width="24" height="24" viewBox="0 0 24 24" fill="none" xmlns="http://www.w3.org/2000/svg">
<path opacity="0.3" d="M11.5 2.5C6.25329 2.5 2 6.75329 2 12C2 17.2467 6.25329 21.5 11.5 21.5C12.0523 21.5 12.5 21.0523 12.5 20.5C12.5 19.9477 12.0523 19.5 11.5 19.5C7.35786 19.5 4 16.1421 4 12C4 7.85786 7.35786 4.5 11.5 4.5C15.6421 4.5 19 7.85786 19 12C19 12.6622 18.9144 13.3036 18.7538 13.9142L19.153 15.085L20.6464 14.5757C20.8768 13.7561 21 12.8921 21 12C21 6.75329 16.7467 2.5 11.5 2.5Z" fill="black"/>
<path fill-rule="evenodd" clip-rule="evenodd" d="M16.8518 11.4366C17.3745 11.2583 17.9428 11.5376 18.1211 12.0603L19.1525 15.0849L22.1771 14.0534C22.6998 13.8752 23.2681 14.1544 23.4464 14.6771C23.6246 15.1999 23.3454 15.7681 22.8227 15.9464L18.8516 17.3006C18.6006 17.3862 18.3258 17.3686 18.0878 17.2516C17.8498 17.1347 17.668 16.9279 17.5824 16.6769L16.2281 12.7059C16.0498 12.1831 16.3291 11.6149 16.8518 11.4366Z" fill="black"/>
</svg>
