<svg width="24" height="24" viewBox="0 0 24 24" fill="none" xmlns="http://www.w3.org/2000/svg">
<path opacity="0.3" d="M18.2716 8.28556C18.3093 8.76423 18.1155 9.23202 17.7504 9.54385C17.4235 9.82309 17.0302 9.86745 16.8393 9.88437C16.6253 9.90333 16.3596 9.90329 16.0892 9.90325H7.87746C7.60709 9.90329 7.34133 9.90333 7.12736 9.88437C6.93647 9.86745 6.54321 9.82309 6.21627 9.54385C5.85115 9.23202 5.65739 8.76424 5.69506 8.28556C5.7288 7.85692 5.9755 7.54748 6.09852 7.40054C6.23637 7.23588 6.42426 7.04804 6.61542 6.85694L10.7269 2.74545C10.8111 2.66119 10.9116 2.56057 11.0075 2.47919C11.1186 2.3849 11.2872 2.25935 11.5198 2.18377C11.8211 2.08588 12.1456 2.08588 12.4469 2.18377C12.6795 2.25935 12.8481 2.3849 12.9592 2.47919C13.055 2.56057 13.1556 2.66121 13.2398 2.74547L17.3511 6.85678C17.5423 7.04794 17.7302 7.23583 17.8681 7.40054C17.9912 7.54748 18.2379 7.85692 18.2716 8.28556Z" fill="black"/>
</svg>
