<svg width="24" height="24" viewBox="0 0 24 24" fill="none" xmlns="http://www.w3.org/2000/svg">
<path d="M11.2767 21.6905C11.658 22.09 12.291 22.1047 12.6905 21.7233C13.09 21.342 13.1047 20.709 12.7233 20.3095L11.2767 21.6905ZM12.7233 11.6905C13.1047 11.291 13.09 10.658 12.6905 10.2767C12.291 9.89531 11.658 9.91002 11.2767 10.3095L12.7233 11.6905ZM19.2767 20.3095C18.8953 20.709 18.91 21.342 19.3095 21.7233C19.709 22.1047 20.342 22.09 20.7233 21.6905L19.2767 20.3095ZM20.7233 10.3095C20.342 9.91002 19.709 9.89531 19.3095 10.2767C18.91 10.658 18.8953 11.291 19.2767 11.6905L20.7233 10.3095ZM18.7071 14.7071C19.0976 14.3166 19.0976 13.6834 18.7071 13.2929C18.3166 12.9024 17.6834 12.9024 17.2929 13.2929L18.7071 14.7071ZM13.2929 17.2929C12.9024 17.6834 12.9024 18.3166 13.2929 18.7071C13.6834 19.0976 14.3166 19.0976 14.7071 18.7071L13.2929 17.2929ZM17.2929 18.7071C17.6834 19.0976 18.3166 19.0976 18.7071 18.7071C19.0976 18.3166 19.0976 17.6834 18.7071 17.2929L17.2929 18.7071ZM14.7071 13.2929C14.3166 12.9024 13.6834 12.9024 13.2929 13.2929C12.9024 13.6834 12.9024 14.3166 13.2929 14.7071L14.7071 13.2929ZM10 4C10.5523 4 11 3.55228 11 3C11 2.44772 10.5523 2 10 2V4ZM2 9C1.44772 9 1 9.44772 1 10C1 10.5523 1.44772 11 2 11V9ZM8 11C8.55228 11 9 10.5523 9 10C9 9.44772 8.55228 9 8 9V11ZM2 20C1.44772 20 1 20.4477 1 21C1 21.5523 1.44772 22 2 22V20ZM9 16C9 18.2071 9.86699 20.2137 11.2767 21.6905L12.7233 20.3095C11.6556 19.1909 11 17.6739 11 16H9ZM11.2767 10.3095C9.86699 11.7863 9 13.7929 9 16H11C11 14.3261 11.6556 12.8091 12.7233 11.6905L11.2767 10.3095ZM21 16C21 17.6739 20.3444 19.1909 19.2767 20.3095L20.7233 21.6905C22.133 20.2137 23 18.2071 23 16H21ZM19.2767 11.6905C20.3444 12.8091 21 14.3261 21 16H23C23 13.7929 22.133 11.7863 20.7233 10.3095L19.2767 11.6905ZM17.2929 13.2929L13.2929 17.2929L14.7071 18.7071L18.7071 14.7071L17.2929 13.2929ZM18.7071 17.2929L14.7071 13.2929L13.2929 14.7071L17.2929 18.7071L18.7071 17.2929ZM6 18V10H4V18H6ZM6 10V6H4V10H6ZM8 4H10V2H8V4ZM2 11H5V9H2V11ZM5 11H8V9H5V11ZM6 6C6 4.89543 6.89543 4 8 4V2C5.79086 2 4 3.79086 4 6H6ZM2 22C4.20914 22 6 20.2091 6 18H4C4 19.1046 3.10457 20 2 20V22Z" fill="black"/>
</svg>
