<svg width="24" height="24" viewBox="0 0 24 24" fill="none" xmlns="http://www.w3.org/2000/svg">
<path d="M7.26988 20.6114L7.5789 19.6604L7.26988 20.6114ZM6.53967 19.8604L7.40569 19.3604L6.53967 19.8604ZM6.90977 20.4035L7.5789 19.6604L6.90977 20.4035ZM17.4634 19.8604L16.5974 19.3604L17.4634 19.8604ZM17.0933 20.4035L16.4242 19.6604L17.0933 20.4035ZM16.7332 20.6114L16.4242 19.6604L16.7332 20.6114ZM21.5397 11.2001L20.6736 11.7001L21.5397 11.2001ZM21.825 11.7922L22.8031 11.5843L21.825 11.7922ZM21.5397 12.8001L20.6736 12.3001L21.5397 12.8001ZM21.825 12.208L22.8031 12.4159L21.825 12.208ZM16.7332 3.38879L17.0422 2.43773L16.7332 3.38879ZM17.4634 4.13984L18.3295 3.63984V3.63984L17.4634 4.13984ZM17.0933 3.5967L16.4242 4.33984L17.0933 3.5967ZM6.53967 4.13984L5.67364 3.63984L6.53967 4.13984ZM6.90977 3.5967L7.5789 4.33984L6.90977 3.5967ZM7.26988 3.38879L6.96087 2.43773L7.26988 3.38879ZM2.46343 11.2001L3.32946 11.7001L2.46343 11.2001ZM2.1781 11.7922L1.19995 11.5843L2.1781 11.7922ZM2.46343 12.8001L1.5974 13.3001L2.46343 12.8001ZM2.1781 12.208L1.19995 12.4159L2.1781 12.208ZM15.7087 9.70721C16.0992 9.31668 16.0992 8.68352 15.7087 8.29299C15.3181 7.90247 14.685 7.90247 14.2944 8.29299L15.7087 9.70721ZM8.29444 14.293C7.90392 14.6835 7.90392 15.3167 8.29444 15.7072C8.68497 16.0977 9.31813 16.0977 9.70866 15.7072L8.29444 14.293ZM14.2944 15.7072C14.685 16.0977 15.3181 16.0977 15.7087 15.7072C16.0992 15.3167 16.0992 14.6835 15.7087 14.293L14.2944 15.7072ZM9.70866 8.29299C9.31813 7.90247 8.68497 7.90247 8.29444 8.29299C7.90392 8.68352 7.90392 9.31668 8.29444 9.70721L9.70866 8.29299ZM3.32946 11.7001L7.40569 4.63984L5.67364 3.63984L1.5974 10.7001L3.32946 11.7001ZM7.92531 4.33984H16.0778V2.33984H7.92531V4.33984ZM16.5974 4.63984L20.6736 11.7001L22.4057 10.7001L18.3295 3.63984L16.5974 4.63984ZM20.6736 12.3001L16.5974 19.3604L18.3295 20.3604L22.4057 13.3001L20.6736 12.3001ZM16.0778 19.6604H7.92531V21.6604H16.0778V19.6604ZM7.40569 19.3604L3.32946 12.3001L1.5974 13.3001L5.67364 20.3604L7.40569 19.3604ZM7.92531 19.6604C7.74556 19.6604 7.65372 19.66 7.5872 19.656C7.5321 19.6527 7.54434 19.6491 7.5789 19.6604L6.96087 21.5625C7.29789 21.672 7.65623 21.6604 7.92531 21.6604V19.6604ZM5.67364 20.3604C5.80818 20.5934 5.97729 20.9095 6.24064 21.1466L7.5789 19.6604C7.6059 19.6847 7.60891 19.6971 7.57852 19.651C7.54184 19.5954 7.49557 19.516 7.40569 19.3604L5.67364 20.3604ZM7.5789 19.6604L6.24064 21.1466C6.44892 21.3342 6.6943 21.4759 6.96087 21.5625L7.5789 19.6604ZM16.5974 19.3604C16.5075 19.516 16.4613 19.5954 16.4246 19.651C16.3942 19.6971 16.3972 19.6847 16.4242 19.6604L17.7625 21.1466C18.0258 20.9095 18.1949 20.5934 18.3295 20.3604L16.5974 19.3604ZM16.0778 21.6604C16.3469 21.6604 16.7052 21.672 17.0422 21.5625L16.4242 19.6604C16.4588 19.6491 16.471 19.6527 16.4159 19.656C16.3494 19.66 16.2575 19.6604 16.0778 19.6604V21.6604ZM16.4242 19.6604L17.0422 21.5625C17.3088 21.4759 17.5542 21.3342 17.7625 21.1466L16.4242 19.6604ZM20.6736 11.7001C20.7635 11.8558 20.8091 11.9355 20.8389 11.9951C20.8636 12.0444 20.8544 12.0356 20.8468 12.0001L22.8031 11.5843C22.7295 11.2376 22.5402 10.9331 22.4057 10.7001L20.6736 11.7001ZM22.4057 13.3001C22.5402 13.0671 22.7295 12.7625 22.8031 12.4159L20.8468 12.0001C20.8544 11.9646 20.8636 11.9558 20.8389 12.0051C20.8091 12.0647 20.7635 12.1444 20.6736 12.3001L22.4057 13.3001ZM20.8468 12.0001L22.8031 12.4159C22.8614 12.1418 22.8614 11.8584 22.8031 11.5843L20.8468 12.0001ZM16.0778 4.33984C16.2575 4.33984 16.3494 4.34025 16.4159 4.3442C16.471 4.34748 16.4588 4.35107 16.4242 4.33984L17.0422 2.43773C16.7052 2.32822 16.3469 2.33984 16.0778 2.33984V4.33984ZM18.3295 3.63984C18.1949 3.40682 18.0258 3.09067 17.7625 2.85355L16.4242 4.33984C16.3972 4.31553 16.3942 4.30313 16.4246 4.34921C16.4613 4.40484 16.5075 4.48417 16.5974 4.63984L18.3295 3.63984ZM16.4242 4.33984L17.7625 2.85355C17.5542 2.66601 17.3088 2.52434 17.0422 2.43773L16.4242 4.33984ZM7.40569 4.63984C7.49557 4.48417 7.54184 4.40484 7.57852 4.34921C7.60891 4.30313 7.6059 4.31553 7.5789 4.33984L6.24064 2.85355C5.97729 3.09067 5.80818 3.40682 5.67364 3.63984L7.40569 4.63984ZM7.92531 2.33984C7.65624 2.33984 7.29789 2.32822 6.96087 2.43773L7.5789 4.33984C7.54434 4.35107 7.5321 4.34748 7.5872 4.3442C7.65372 4.34025 7.74556 4.33984 7.92531 4.33984V2.33984ZM7.5789 4.33984L6.96087 2.43773C6.69431 2.52434 6.44893 2.66601 6.24064 2.85355L7.5789 4.33984ZM1.5974 10.7001C1.46287 10.9331 1.27363 11.2377 1.19995 11.5843L3.15625 12.0001C3.1487 12.0356 3.13946 12.0444 3.16417 11.9951C3.19401 11.9355 3.23958 11.8558 3.32946 11.7001L1.5974 10.7001ZM3.32946 12.3001C3.23958 12.1444 3.19401 12.0647 3.16417 12.0051C3.13946 11.9558 3.1487 11.9646 3.15625 12.0001L1.19995 12.4159C1.27363 12.7625 1.46287 13.0671 1.5974 13.3001L3.32946 12.3001ZM1.19995 11.5843C1.14168 11.8584 1.14168 12.1418 1.19995 12.4159L3.15625 12.0001L1.19995 11.5843ZM14.2944 8.29299L8.29444 14.293L9.70866 15.7072L15.7087 9.70721L14.2944 8.29299ZM15.7087 14.293L9.70866 8.29299L8.29444 9.70721L14.2944 15.7072L15.7087 14.293Z" fill="black"/>
</svg>
