<svg width="24" height="24" viewBox="0 0 24 24" fill="none" xmlns="http://www.w3.org/2000/svg">
<path d="M2 6H2.228C3.89538 6 5.38786 7.03429 5.97332 8.5955L8.62219 15.6591C9.1502 17.0671 10.4962 17.9999 12 17.9999C13.5038 17.9999 14.8498 17.0671 15.3778 15.6591M22 6H21.772C20.1046 6 18.6121 7.03429 18.0267 8.5955M2 18H2.228C3.89538 18 5.38786 16.9657 5.97332 15.4045M22 18H21.772C20.1046 18 18.6121 16.9657 18.0267 15.4045L15.3778 8.34088C14.8498 6.93286 13.5038 6.00006 12 6.00006C10.4962 6.00006 9.1502 6.93286 8.62219 8.34088" stroke="black" stroke-width="2" stroke-linecap="round" stroke-linejoin="round"/>
</svg>
