<svg width="24" height="24" viewBox="0 0 24 24" fill="none" xmlns="http://www.w3.org/2000/svg">
<path opacity="0.14" d="M16 22H8L2 16V8L8 2H16L22 8V16L16 22Z" fill="black"/>
<path d="M8 22L7.29289 22.7071C7.48043 22.8946 7.73478 23 8 23V22ZM16 22V23C16.2652 23 16.5196 22.8946 16.7071 22.7071L16 22ZM22 16L22.7071 16.7071C22.8946 16.5196 23 16.2652 23 16H22ZM22 8H23C23 7.73478 22.8946 7.48043 22.7071 7.29289L22 8ZM16 2L16.7071 1.29289C16.5196 1.10536 16.2652 1 16 1V2ZM8 2V1C7.73478 1 7.48043 1.10536 7.29289 1.29289L8 2ZM2 8L1.29289 7.29289C1.10536 7.48043 1 7.73478 1 8H2ZM2 16H1C1 16.2652 1.10536 16.5196 1.29289 16.7071L2 16ZM7 11C6.44772 11 6 11.4477 6 12C6 12.5523 6.44772 13 7 13V11ZM17 13C17.5523 13 18 12.5523 18 12C18 11.4477 17.5523 11 17 11V13ZM12 7C11.4477 7 11 7.44772 11 8C11 8.55228 11.4477 9 12 9V7ZM12.009 9C12.5613 9 13.009 8.55228 13.009 8C13.009 7.44772 12.5613 7 12.009 7V9ZM12 15C11.4477 15 11 15.4477 11 16C11 16.5523 11.4477 17 12 17V15ZM12.009 17C12.5613 17 13.009 16.5523 13.009 16C13.009 15.4477 12.5613 15 12.009 15V17ZM8 23H16V21H8V23ZM16.7071 22.7071L22.7071 16.7071L21.2929 15.2929L15.2929 21.2929L16.7071 22.7071ZM23 16V8H21V16H23ZM22.7071 7.29289L16.7071 1.29289L15.2929 2.70711L21.2929 8.70711L22.7071 7.29289ZM16 1H8V3H16V1ZM7.29289 1.29289L1.29289 7.29289L2.70711 8.70711L8.70711 2.70711L7.29289 1.29289ZM1 8V16H3V8H1ZM1.29289 16.7071L7.29289 22.7071L8.70711 21.2929L2.70711 15.2929L1.29289 16.7071ZM7 13H17V11H7V13ZM12 9H12.009V7H12V9ZM12 17H12.009V15H12V17Z" fill="black"/>
</svg>
