<svg width="24" height="24" viewBox="0 0 24 24" fill="none" xmlns="http://www.w3.org/2000/svg">
<path opacity="0.3" d="M3.60064 5.20147C3.15905 4.86978 2.53218 4.95887 2.20049 5.40046C1.8688 5.84205 1.95789 6.46891 2.39948 6.8006C3.62545 7.72147 4.98833 8.47041 6.45185 9.01152L5.37384 11.2967C5.70254 11.3289 6.03164 11.4164 6.34824 11.5641C6.66722 11.7128 6.94789 11.9107 7.18536 12.1443L8.38997 9.59078C9.23672 9.78611 10.1091 9.91424 11.0011 9.96923V12.1707C11.3137 12.0602 11.6502 11.9999 12.0009 11.9999C12.3516 11.9999 12.6883 12.0603 13.0011 12.1709V9.9691C13.894 9.91394 14.7672 9.7855 15.6148 9.58971L16.8313 12.1461C17.0691 11.9117 17.3504 11.7132 17.6702 11.5641C17.986 11.4168 18.3142 11.3294 18.6421 11.2969L17.5536 9.00955C19.0151 8.46859 20.3762 7.72035 21.6006 6.8006C22.0422 6.46891 22.1313 5.84205 21.7996 5.40046C21.4679 4.95887 20.8411 4.86978 20.3995 5.20147C18.0597 6.95893 15.1529 7.99994 12.0001 7.99994C10.6613 7.99994 9.36691 7.81224 8.14146 7.4617C8.12367 7.45603 8.10581 7.45089 8.0879 7.44627C6.44789 6.97002 4.93241 6.2018 3.60064 5.20147Z" fill="black"/>
<path fill-rule="evenodd" clip-rule="evenodd" d="M3.56813 11.6926C4.38641 11.2153 5.42087 11.1319 6.34824 11.5643C7.27477 11.9964 7.87804 12.8426 8.03853 13.7772C8.165 14.5136 7.90223 15.138 7.55593 15.5945C7.22016 16.0371 6.77267 16.3727 6.37889 16.6122L4.33315 17.8565C4.04749 18.0303 3.69389 18.0498 3.39086 17.9085C3.08784 17.7672 2.87548 17.4838 2.82496 17.1532L2.46319 14.7863C2.39355 14.3307 2.36297 13.7722 2.48622 13.2304C2.61334 12.6717 2.92269 12.0691 3.56813 11.6926ZM17.6702 11.5643C18.5976 11.1319 19.632 11.2153 20.4503 11.6926C21.0957 12.0691 21.4051 12.6717 21.5322 13.2304C21.6555 13.7722 21.6249 14.3307 21.5553 14.7863L21.1935 17.1532C21.143 17.4838 20.9306 17.7672 20.6276 17.9085C20.3246 18.0498 19.971 18.0303 19.6853 17.8565L17.6396 16.6122C17.2458 16.3727 16.7983 16.0371 16.4625 15.5945C16.1162 15.138 15.8534 14.5136 15.9799 13.7772C16.1404 12.8426 16.7437 11.9964 17.6702 11.5643ZM9.53459 13.2918C10.0745 12.5133 10.9777 12.0002 12.0009 12.0002C13.0241 12.0002 13.9272 12.5133 14.4671 13.2918C14.893 13.9058 14.9187 14.5827 14.7978 15.1428C14.6805 15.6858 14.4168 16.1791 14.1611 16.5626L12.8329 18.5549C12.6475 18.8331 12.3352 19.0002 12.0009 19.0002C11.6665 19.0002 11.3543 18.8331 11.1688 18.5549L9.84061 16.5626C9.58495 16.1791 9.32121 15.6858 9.20396 15.1428C9.08304 14.5827 9.10874 13.9058 9.53459 13.2918Z" fill="black"/>
</svg>
