<svg width="24" height="24" viewBox="0 0 24 24" fill="none" xmlns="http://www.w3.org/2000/svg">
<path opacity="0.3" fill-rule="evenodd" clip-rule="evenodd" d="M4.45046 9.28516C4.39036 9.415 4.35798 9.55801 4.35798 9.70518V11.5001C4.35798 12.551 3.70916 13.4528 2.78653 13.8222C2.48724 13.9421 2.26408 14.1988 2.18712 14.5119C2.11017 14.8249 2.18886 15.1559 2.39848 15.4008C2.99728 16.1005 3.35798 17.0069 3.35798 18.0001C3.35798 18.8269 3.10817 19.5924 2.68005 20.229C2.42659 20.6058 2.4589 21.1061 2.75872 21.4472C3.05855 21.7884 3.55059 21.8846 3.95684 21.6816C4.82898 21.2457 5.81335 21.0001 6.85798 21.0001C7.81129 21.0001 8.71413 21.2047 9.52719 21.5714C10.008 21.7882 10.5745 21.5944 10.8217 21.1285C11.1412 20.5263 11.6105 20.0151 12.1792 19.6449C12.7478 20.0151 13.2171 20.5263 13.5366 21.1285C13.7838 21.5944 14.3503 21.7882 14.8311 21.5714C15.6441 21.2046 16.547 21 17.5003 21C18.5449 21 19.5293 21.2457 20.4014 21.6815C20.8077 21.8846 21.2997 21.7883 21.5996 21.4472C21.8994 21.1061 21.9317 20.6058 21.6782 20.2289C21.2501 19.5924 21.0003 18.8269 21.0003 18C21.0003 17.0068 21.361 16.1004 21.9598 15.4008C22.1694 15.1559 22.2481 14.8249 22.1712 14.5119C22.0942 14.1988 21.871 13.942 21.5717 13.8222C21.0484 13.6127 20.6132 13.2317 20.3344 12.7494C19.647 14.0806 18.4759 15.1214 17.0536 15.6395L17.9571 16.543C18.3476 16.9335 18.3476 17.5667 17.9571 17.9572C17.5666 18.3477 16.9334 18.3477 16.5429 17.9572L15.2929 16.7072C15.0976 16.5119 15 16.256 15 16.0001C12.7765 16.0001 10.8373 14.7907 9.80108 12.9969C7.38217 12.9181 5.3253 11.4075 4.45046 9.28516ZM9.95711 15.7072C10.3476 15.3167 10.3476 14.6835 9.95711 14.293C9.56658 13.9025 8.93342 13.9025 8.54289 14.293L7.29289 15.543C6.90237 15.9335 6.90237 16.5667 7.29289 16.9572C7.68342 17.3477 8.31658 17.3477 8.70711 16.9572L9.95711 15.7072Z" fill="black"/>
<path d="M14.0547 4.07405C11.1901 4.52742 9 7.00795 9 10C9 10.6845 9.11487 11.3422 9.32602 11.9548C8.85884 11.8918 8.41123 11.7641 7.99314 11.5807C7.51147 11.3694 7.0701 11.0848 6.68294 10.7413C5.65206 9.82682 5 8.48892 5 7C5 4.23858 7.23858 2 10 2C11.6695 2 13.1467 2.81777 14.0547 4.07405Z" fill="black"/>
<path fill-rule="evenodd" clip-rule="evenodd" d="M10 10C10 7.23858 12.2386 5 15 5C17.7614 5 20 7.23858 20 10C20 12.7614 17.7614 15 15 15C14.7982 15 14.5987 14.988 14.4024 14.9646C13.5118 14.8582 12.693 14.5179 12.0104 14.008C10.792 13.0981 10 11.6414 10 10ZM14.0619 8.65443C14.2528 8.13617 14.8276 7.87078 15.3459 8.06165C15.8246 8.23796 16.2587 8.51692 16.618 8.87855C17.0073 9.27033 17.0052 9.90349 16.6134 10.2928C16.2216 10.682 15.5885 10.68 15.1992 10.2882C15.0452 10.1331 14.8593 10.0138 14.6547 9.93841C14.1364 9.74754 13.871 9.17268 14.0619 8.65443Z" fill="black"/>
</svg>
