<svg width="24" height="24" viewBox="0 0 24 24" fill="none" xmlns="http://www.w3.org/2000/svg">
<path opacity="0.3" fill-rule="evenodd" clip-rule="evenodd" d="M8.54661 8.96582L4.21913 14.3752C3.979 14.6753 3.93218 15.0866 4.0987 15.433C4.26522 15.7795 4.6156 15.9999 5 15.9999H6.13148L3.16795 20.4452C2.96338 20.752 2.94431 21.1466 3.11833 21.4717C3.29235 21.7969 3.63121 21.9999 4 21.9999H20C20.3688 21.9999 20.7077 21.7969 20.8817 21.4717C21.0557 21.1466 21.0366 20.752 20.8321 20.4452L17.8685 15.9999H19C19.3844 15.9999 19.7348 15.7795 19.9013 15.433C20.0678 15.0866 20.021 14.6753 19.7809 14.3752L15.4534 8.96582C15.3055 8.98824 15.1541 8.99986 15 8.99986C15 10.6567 13.6569 11.9999 12 11.9999C10.3431 11.9999 9 10.6567 9 8.99986C8.84588 8.99986 8.69447 8.98824 8.54661 8.96582ZM10 13.9999C10 13.4476 10.4477 12.9999 11 12.9999H11.01C11.5623 12.9999 12.01 13.4476 12.01 13.9999C12.01 14.5522 11.5623 14.9999 11.01 14.9999H11C10.4477 14.9999 10 14.5522 10 13.9999ZM13 17.9999C13 17.4476 13.4477 16.9999 14 16.9999H14.01C14.5623 16.9999 15.01 17.4476 15.01 17.9999C15.01 18.5522 14.5623 18.9999 14.01 18.9999H14C13.4477 18.9999 13 18.5522 13 17.9999Z" fill="black"/>
<path d="M12 2C12.5523 2 13 2.44772 13 3V5H15C15.5523 5 16 5.44772 16 6C16 6.55228 15.5523 7 15 7H13V9C13 9.55228 12.5523 10 12 10C11.4477 10 11 9.55228 11 9V7H9C8.44772 7 8 6.55228 8 6C8 5.44772 8.44772 5 9 5H11V3C11 2.44772 11.4477 2 12 2Z" fill="black"/>
<path d="M11 13C10.4477 13 10 13.4477 10 14C10 14.5523 10.4477 15 11 15H11.01C11.5623 15 12.01 14.5523 12.01 14C12.01 13.4477 11.5623 13 11.01 13H11Z" fill="black"/>
<path d="M14 17C13.4477 17 13 17.4477 13 18C13 18.5523 13.4477 19 14 19H14.01C14.5623 19 15.01 18.5523 15.01 18C15.01 17.4477 14.5623 17 14.01 17H14Z" fill="black"/>
</svg>
