<svg width="24" height="24" viewBox="0 0 24 24" fill="none" xmlns="http://www.w3.org/2000/svg">
<g opacity="0.3">
<path d="M12.9062 1.57711C12.7419 1.22504 12.3885 1 12 1C11.6115 1 11.2581 1.22504 11.0938 1.57711L8.79606 6.50089L17.3355 11.0685L12.9062 1.57711Z" fill="black"/>
<path d="M18.746 14.0911L7.94903 8.31595L7.37543 9.54509L19.7535 16.2499L18.746 14.0911Z" fill="black"/>
<path d="M18.7853 18L6.52814 11.3607L4.09382 16.5771C3.94929 16.8868 3.97294 17.2489 4.15653 17.5372C4.34012 17.8255 4.65823 18 5 18H18.7853Z" fill="black"/>
</g>
<path d="M8.79526 6.50098L7.94823 8.31604L18.7452 14.0912L17.3347 11.0686L8.79526 6.50098Z" fill="black"/>
<path d="M7.37463 9.54518L6.52734 11.3608L18.7845 18.0001H18.9992C19.341 18.0001 19.6591 17.8255 19.8427 17.5373C20.0263 17.249 20.0499 16.8869 19.9054 16.5772L19.7527 16.25L7.37463 9.54518Z" fill="black"/>
<path d="M13 18.0001H11V21.0001H9C8.44772 21.0001 8 21.4478 8 22.0001C8 22.5524 8.44772 23.0001 9 23.0001H15C15.5523 23.0001 16 22.5524 16 22.0001C16 21.4478 15.5523 21.0001 15 21.0001H13V18.0001Z" fill="black"/>
</svg>
