<svg width="24" height="24" viewBox="0 0 24 24" fill="none" xmlns="http://www.w3.org/2000/svg">
<path opacity="0.3" d="M11.5626 13.9946C12.7214 15.3132 12.9841 16.7934 12.6248 17.8883C12.2586 19.0046 11.1501 20.0001 9 20.0001H3C2.44772 20.0001 2 20.4478 2 21.0001C2 21.5524 2.44772 22.0001 3 22.0001H9C11.8499 22.0001 13.8414 20.5956 14.5252 18.5119C15.0076 17.0415 14.7869 15.3834 13.9353 13.8911C13.3073 13.9628 12.6599 14.0001 12 14.0001C11.8535 14.0001 11.7077 13.9983 11.5626 13.9946Z" fill="black"/>
<path fill-rule="evenodd" clip-rule="evenodd" d="M6.12168 5.33862C4.63388 6.16518 4 7.14736 4 8C4 8.85264 4.63388 9.83482 6.12168 10.6614C7.57561 11.4691 9.65195 12 12 12C14.3481 12 16.4244 11.4691 17.8783 10.6614C19.3661 9.83482 20 8.85264 20 8C20 7.14736 19.3661 6.16518 17.8783 5.33862C16.4244 4.53089 14.3481 4 12 4C9.65195 4 7.57561 4.53089 6.12168 5.33862ZM5.1504 3.59031C6.95383 2.5884 9.37749 2 12 2C14.6225 2 17.0462 2.5884 18.8496 3.59031C20.6192 4.5734 22 6.09122 22 8C22 9.90878 20.6192 11.4266 18.8496 12.4097C17.0462 13.4116 14.6225 14 12 14C9.37749 14 6.95383 13.4116 5.1504 12.4097C3.38084 11.4266 2 9.90878 2 8C2 6.09122 3.38084 4.5734 5.1504 3.59031Z" fill="black"/>
</svg>
