<svg width="24" height="24" viewBox="0 0 24 24" fill="none" xmlns="http://www.w3.org/2000/svg">
<g opacity="0.3">
<path d="M21.8536 3.1466C20.8299 2.12298 19.1703 2.12301 18.1466 3.14667L11.8539 9.43941L15.561 13.1465L21.8537 6.85378C22.8774 5.83006 22.8774 4.17028 21.8536 3.1466Z" fill="black"/>
<path d="M14.1468 14.5607L10.4397 10.8536L9.11542 12.1779C8.55592 12.7374 8.30221 13.4869 8.35431 14.2187C9.45787 14.6138 10.3223 15.5115 10.6717 16.6359C11.4378 16.7229 12.235 16.4725 12.8225 15.885L14.1468 14.5607Z" fill="black"/>
</g>
<path fill-rule="evenodd" clip-rule="evenodd" d="M2.48675 20.4481C3.30633 20.0383 3.71492 19.1005 3.45694 18.2213C3.3826 17.9679 3.32741 17.6705 3.36055 17.3549C3.55852 15.4695 5.15232 14.0005 7.08989 14.0005C9.16096 14.0005 10.8399 15.6794 10.8399 17.7505C10.8399 19.8216 9.16096 21.5005 7.08989 21.5005H2.50005C2.26816 21.5005 2.0667 21.341 2.01342 21.1154C1.96015 20.8897 2.06904 20.657 2.27644 20.5533L2.48675 20.4481Z" fill="black"/>
</svg>
