<svg width="24" height="24" viewBox="0 0 24 24" fill="none" xmlns="http://www.w3.org/2000/svg">
<g opacity="0.3">
<path d="M6.34003 7.75411C6.09523 7.95423 5.88303 8.19227 5.71182 8.45983C5.44481 8.87711 5.32224 9.37009 5.1829 9.93052L2.6709 19.9789L7.66305 15.1576C7.42188 14.4358 7.58865 13.6076 8.16337 13.0329C8.97303 12.2232 10.2858 12.2232 11.0954 13.0329C11.9051 13.8426 11.9051 15.1553 11.0954 15.9649C10.5647 16.4957 9.8178 16.6785 9.13813 16.5135L3.98089 21.4942L14.1935 18.9412C14.754 18.8018 15.247 18.6793 15.6642 18.4122C15.9318 18.241 16.1698 18.0288 16.37 17.784L6.34003 7.75411Z" fill="black"/>
<path d="M18.0764 12.1387L17.7377 13.4933L10.6308 6.38635L11.7992 6.09424L18.0898 12.0853L18.0764 12.1387Z" fill="black"/>
</g>
<path d="M3.70711 2.29289C3.31658 1.90237 2.68342 1.90237 2.29289 2.29289C1.90237 2.68342 1.90237 3.31658 2.29289 3.70711L20.2929 21.7071C20.6834 22.0976 21.3166 22.0976 21.7071 21.7071C22.0976 21.3166 22.0976 20.6834 21.7071 20.2929L3.70711 2.29289Z" fill="black"/>
<path d="M19.3296 10.5042L21.5732 8.26061C21.7607 8.07307 21.8661 7.81872 21.8661 7.5535C21.8661 7.28828 21.7607 7.03393 21.5732 6.84639L17.0197 2.29289C16.6292 1.90237 15.996 1.90237 15.6055 2.29289L13.2163 4.68206L19.3296 10.5042Z" fill="black"/>
</svg>
