<svg width="24" height="24" viewBox="0 0 24 24" fill="none" xmlns="http://www.w3.org/2000/svg">
<path opacity="0.3" d="M8.09251 7.02091L11.7992 6.09424L18.0898 12.0853L18.0764 12.1387L17.1032 16.0315C16.9638 16.592 16.8412 17.085 16.5742 17.5022C16.3403 17.8678 16.0298 18.1783 15.6642 18.4122C15.247 18.6793 14.754 18.8018 14.1935 18.9412L3.98089 21.4942L9.13813 16.5135C9.8178 16.6785 10.5647 16.4957 11.0954 15.9649C11.9051 15.1553 11.9051 13.8426 11.0954 13.0329C10.2858 12.2232 8.97303 12.2232 8.16337 13.0329C7.58865 13.6076 7.42188 14.4358 7.66305 15.1576L2.6709 19.9789L5.1829 9.93052C5.32224 9.37009 5.44481 8.87711 5.71182 8.45983C5.94576 8.09424 6.25623 7.78376 6.62182 7.54983C7.0391 7.28282 7.53209 7.16025 8.09251 7.02091Z" fill="black"/>
<path d="M21.5727 8.26061L19.3291 10.5042L13.2158 4.68206L15.605 2.29289C15.9955 1.90237 16.6287 1.90237 17.0192 2.29289L21.5727 6.84639C21.7602 7.03393 21.8656 7.28828 21.8656 7.5535C21.8656 7.81872 21.7602 8.07307 21.5727 8.26061Z" fill="black"/>
</svg>
