<svg width="24" height="24" viewBox="0 0 24 24" fill="none" xmlns="http://www.w3.org/2000/svg">
<path opacity="0.3" d="M4.43375 17.816C4.99796 18.3745 5.87523 18.3626 6.39684 17.841L14.4425 9.79531C15.7707 8.46715 17.9184 8.50468 19.2395 9.82568C20.56 11.1462 20.5992 13.2932 19.2706 14.6218L16.2527 17.6397C16.0016 17.8908 15.9274 18.1399 15.9329 18.3753C15.9389 18.6348 16.0468 18.9394 16.2663 19.2292C16.7451 19.8615 17.4264 20.0656 17.8618 19.901C18.0494 19.8301 18.2322 19.7294 18.4959 19.5842L18.5285 19.5663C18.7842 19.4255 19.1217 19.2411 19.5038 19.1168L20.6729 18.7365C21.1981 18.5656 21.7623 18.8528 21.9332 19.378C22.104 19.9032 21.8168 20.4675 21.2916 20.6383L20.1226 21.0187C19.9428 21.0772 19.7575 21.1727 19.493 21.3183L19.4312 21.3524C19.199 21.4808 18.8963 21.6481 18.569 21.7718C17.0196 22.3575 15.4765 21.4992 14.6719 20.4367C14.2497 19.8792 13.9511 19.1783 13.9334 18.4219C13.9152 17.6413 14.2001 16.8639 14.8385 16.2255L17.8564 13.2076C18.3792 12.6848 18.3897 11.8043 17.8252 11.2399C17.2612 10.6759 16.38 10.6862 15.8567 11.2095L7.81105 19.2552C6.4847 20.5816 4.34098 20.5459 3.01953 19.2302L4.43375 17.816Z" fill="black"/>
<path d="M12.4138 2.99951C11.0928 1.6785 8.94502 1.64097 7.61686 2.96914L2.92355 7.66245C2.53303 8.05297 2.53303 8.68614 2.92355 9.07666C3.31407 9.46719 3.94724 9.46719 4.33776 9.07666L9.03107 4.38336C9.55436 3.86006 10.4356 3.84972 10.9996 4.41372C11.5636 4.97772 11.5532 5.85894 11.0299 6.38223L2.98428 14.4279C1.65611 15.7561 1.69364 17.9038 3.01464 19.2248C3.01645 19.2266 3.01825 19.2284 3.02006 19.2302L4.43428 17.816C4.43247 17.8142 4.43066 17.8124 4.42886 17.8106C3.86486 17.2466 3.8752 16.3654 4.39849 15.8421L12.4442 7.79645C13.7723 6.46828 13.7348 4.32051 12.4138 2.99951Z" fill="black"/>
</svg>
