<svg width="24" height="24" viewBox="0 0 24 24" fill="none" xmlns="http://www.w3.org/2000/svg">
<g opacity="0.3">
<path d="M6 7.00034C6 6.44805 5.55228 6.00034 5 6.00034C4.44772 6.00034 4 6.44805 4 7.00034V8.00034H3C2.44772 8.00034 2 8.44805 2 9.00034C2 9.55262 2.44772 10.0003 3 10.0003H4V11.0003C4 11.5526 4.44772 12.0003 5 12.0003C5.55228 12.0003 6 11.5526 6 11.0003V10.0003H7C7.55228 10.0003 8 9.55262 8 9.00034C8 8.44805 7.55228 8.00034 7 8.00034H6V7.00034Z" fill="black"/>
<path d="M19 16.0003C19 15.4481 18.5523 15.0003 18 15.0003C17.4477 15.0003 17 15.4481 17 16.0003V17.0003H16C15.4477 17.0003 15 17.4481 15 18.0003C15 18.5526 15.4477 19.0003 16 19.0003H17V20.0003C17 20.5526 17.4477 21.0003 18 21.0003C18.5523 21.0003 19 20.5526 19 20.0003V19.0003H20C20.5523 19.0003 21 18.5526 21 18.0003C21 17.4481 20.5523 17.0003 20 17.0003H19V16.0003Z" fill="black"/>
<path d="M19.0033 2.12718C18.6016 1.99667 18.1689 1.99667 17.7672 2.12718C17.4775 2.22132 17.2556 2.38089 17.0808 2.52932C16.9216 2.66447 16.7478 2.83828 16.5694 3.01673L13.8123 5.77389L18.1835 9.88797L20.812 7.25939C20.9905 7.08099 21.1643 6.90718 21.2995 6.748C21.4479 6.57315 21.6075 6.35126 21.7016 6.06154C21.8321 5.65986 21.8321 5.22716 21.7016 4.82548C21.6075 4.53576 21.4479 4.31387 21.2995 4.13902C21.1643 3.97983 20.9905 3.80608 20.8121 3.62767L20.2012 3.01677C20.0227 2.83829 19.849 2.66448 19.6898 2.52932C19.5149 2.38089 19.293 2.22132 19.0033 2.12718Z" fill="black"/>
</g>
<path d="M10.0005 1C10.5528 1 11.0005 1.44772 11.0005 2V3H12.0005C12.5528 3 13.0005 3.44772 13.0005 4C13.0005 4.55228 12.5528 5 12.0005 5H11.0005V6C11.0005 6.55228 10.5528 7 10.0005 7C9.4482 7 9.00049 6.55228 9.00049 6V5H8.00049C7.4482 5 7.00049 4.55228 7.00049 4C7.00049 3.44772 7.4482 3 8.00049 3H9.00049V2C9.00049 1.44772 9.4482 1 10.0005 1Z" fill="black"/>
<path d="M16.7692 11.3026L12.398 7.18848L2.96797 16.6185C2.78949 16.7969 2.61566 16.9707 2.48049 17.1299C2.33206 17.3047 2.17249 17.5266 2.07836 17.8164C1.94784 18.218 1.94784 18.6507 2.07836 19.0524C2.17249 19.3421 2.33206 19.564 2.48049 19.7389C2.61565 19.8981 2.78946 20.0719 2.96794 20.2503L3.57898 20.8613C3.75731 21.0397 3.93107 21.2135 4.09019 21.3486C4.26504 21.497 4.48693 21.6566 4.77665 21.7507C5.17834 21.8812 5.61103 21.8812 6.01272 21.7507C6.30243 21.6566 6.52432 21.497 6.69917 21.3486C6.85837 21.2134 7.03216 21.0396 7.21058 20.8611L16.7692 11.3026Z" fill="black"/>
</svg>
