<svg width="24" height="24" viewBox="0 0 24 24" fill="none" xmlns="http://www.w3.org/2000/svg">
<path opacity="0.3" d="M17.7677 2.12621C18.1694 1.99569 18.6021 1.99569 19.0037 2.12621C19.2935 2.22034 19.5153 2.37991 19.6902 2.52835C19.8494 2.6635 20.0232 2.83733 20.2016 3.0158L20.8125 3.62666C20.9909 3.80508 21.1647 3.97884 21.2999 4.13804C21.4483 4.31289 21.6079 4.53478 21.702 4.8245C21.8325 5.22619 21.8325 5.65888 21.702 6.06057C21.6079 6.35029 21.4483 6.57218 21.2999 6.74702C21.1647 6.90622 20.9909 7.07998 20.8125 7.2584L18.2426 9.82824L14 5.5856L16.5698 3.01584C16.7482 2.83735 16.922 2.66352 17.0812 2.52835C17.2561 2.37991 17.478 2.22034 17.7677 2.12621Z" fill="black"/>
<path d="M12.5858 7L2.96795 16.6179C2.78947 16.7963 2.61565 16.9701 2.48049 17.1293C2.33206 17.3042 2.17249 17.5261 2.07836 17.8158C1.94784 18.2175 1.94784 18.6502 2.07836 19.0518C2.17249 19.3416 2.33206 19.5634 2.48049 19.7383C2.61566 19.8975 2.78948 20.0713 2.96797 20.2497L3.57881 20.8606C3.75723 21.039 3.93099 21.2128 4.09019 21.348C4.26504 21.4964 4.48693 21.656 4.77665 21.7501C5.17833 21.8806 5.61103 21.8806 6.01272 21.7501C6.30243 21.656 6.52433 21.4964 6.69917 21.348C6.85837 21.2128 7.03213 21.039 7.21054 20.8606L16.8285 11.2426L12.5858 7Z" fill="black"/>
</svg>
