<svg width="24" height="24" viewBox="0 0 24 24" fill="none" xmlns="http://www.w3.org/2000/svg">
<path fill-rule="evenodd" clip-rule="evenodd" d="M6.52941 3.11039C6.87517 3.30965 7.06936 3.69541 7.02346 4.09184C7.00799 4.2254 7 4.36159 7 4.50006C7 5.89599 7.81772 7.10176 9 7.66348V5.00006C9 4.53629 9.31888 4.13337 9.77025 4.02682C10.2216 3.92026 10.687 4.13804 10.8944 4.55285L11.618 6.00006H12.382L13.1056 4.55285C13.313 4.13804 13.7784 3.92026 14.2298 4.02682C14.6811 4.13337 15 4.53629 15 5.00006V7.66348C16.1823 7.10176 17 5.89599 17 4.50006C17 4.35849 16.9925 4.22242 16.9773 4.09184C16.9314 3.69541 17.1256 3.30965 17.4714 3.11039C17.8172 2.91112 18.2483 2.93652 18.5683 3.175C21.2566 5.17858 23.0008 8.38575 23.0008 12.0001C23.0008 13.294 22.7769 14.5379 22.365 15.6937C22.2671 15.9685 22.054 16.1868 21.7817 16.2914C21.5094 16.3961 21.205 16.3766 20.9483 16.2381C20.6672 16.0864 20.3459 16.0001 20.0012 16.0001C18.9483 16.0001 18.0847 16.8143 18.0069 17.8467C17.967 18.3775 17.5197 18.7801 16.9944 18.7716C16.7603 18.7683 16.5263 18.6834 16.3388 18.5142C15.9836 18.1939 15.5156 18.0001 15 18.0001C13.8958 18.0001 13.0008 18.8952 13.0008 20.0001C13.0008 20.5523 12.553 21.0001 12.0008 21.0001C11.4485 21.0001 11.0008 20.5523 11.0008 20.0001C11.0008 18.8955 10.1053 18.0001 9.00075 18.0001C8.48501 18.0001 8.01668 18.194 7.66157 18.5142C7.37826 18.7698 6.97425 18.8418 6.62007 18.7C6.2659 18.5582 6.02328 18.2272 5.99464 17.8467C5.91691 16.8143 5.05327 16.0001 4.00038 16.0001C3.65555 16.0001 3.33389 16.0865 3.05289 16.2381C2.79615 16.3766 2.49174 16.3961 2.21944 16.2914C1.94714 16.1868 1.7341 15.9685 1.63616 15.6937C1.22431 14.5381 1 13.2943 1 12.0001C1 8.38575 2.74419 5.17858 5.43252 3.175C5.7525 2.93652 6.18364 2.91112 6.52941 3.11039Z" fill="black"/>
</svg>
