<svg width="24" height="24" viewBox="0 0 24 24" fill="none" xmlns="http://www.w3.org/2000/svg">
<path d="M13.1126 2.09558C12.3859 1.88513 11.6143 1.88513 10.8875 2.09558C10.423 2.23009 10.0234 2.46433 9.62214 2.75627C9.23795 3.0358 8.79951 3.40859 8.27159 3.85746L6.92784 4.99997H17.0723L15.7286 3.85747C15.2007 3.4086 14.7622 3.0358 14.378 2.75627C13.9768 2.46433 13.5772 2.23009 13.1126 2.09558Z" fill="black"/>
<path d="M19 6.63895V11.1294L21.6362 9.37229C21.5383 9.15864 21.4215 8.95364 21.2871 8.75978C20.9877 8.32809 20.5816 7.98311 20.0438 7.52636L19 6.63895Z" fill="black"/>
<path d="M22.0001 11.5333L18.6061 13.7954C18.5722 13.8213 18.5366 13.8451 18.4995 13.8665L16.2907 15.3387L21.7833 19.2604C21.8775 18.9398 21.927 18.6047 21.9559 18.2518C22.0001 17.7106 22.0001 17.0462 22.0001 16.2413L22.0001 11.7576C22.0002 11.6809 22.0002 11.6062 22.0001 11.5333Z" fill="black"/>
<path d="M20.7042 20.9474L13.9676 16.1375C13.9571 16.1304 13.9468 16.1231 13.9367 16.1156L13.2091 15.6051C12.5108 15.1397 12.3628 15.0589 12.2318 15.0275C12.0786 14.9908 11.9189 14.9908 11.7657 15.0275C11.6346 15.0589 11.4867 15.1397 10.7884 15.605L10.0624 16.1147C10.0514 16.1228 10.0403 16.1307 10.029 16.1383L3.29551 20.9471C3.56082 21.1905 3.85937 21.3985 4.18412 21.564C4.66945 21.8113 5.18615 21.9098 5.74825 21.9558C6.28944 22 6.95379 22 7.75875 22H16.2414C17.0464 22 17.7107 22 18.2519 21.9558C18.814 21.9098 19.3307 21.8113 19.816 21.564C20.1406 21.3986 20.439 21.1908 20.7042 20.9474Z" fill="black"/>
<path d="M2.21667 19.2598L7.70719 15.3388L5.48313 13.8562C5.45801 13.841 5.43361 13.8247 5.41 13.8075L2.00009 11.5344C1.99996 11.6069 2 11.6812 2.00004 11.7576L2.00008 16.2413C2.00006 17.0462 2.00005 17.7106 2.04427 18.2518C2.07309 18.6045 2.12264 18.9394 2.21667 19.2598Z" fill="black"/>
<path d="M2.36358 9.37306L5 11.1305V6.63909L3.95639 7.52635C3.4186 7.98311 3.01242 8.32809 2.71307 8.75978C2.57847 8.95387 2.46159 9.15913 2.36358 9.37306Z" fill="black"/>
<path fill-rule="evenodd" clip-rule="evenodd" d="M14.5446 14.0989L17 12.4624V6.99997H7V12.4637L9.45296 14.0989L9.64911 13.9612L9.669 13.9476L9.78056 13.873C10.3096 13.5193 10.7745 13.2084 11.2996 13.0826C11.7592 12.9724 12.2383 12.9724 12.6979 13.0826C13.223 13.2084 13.6878 13.5193 14.2169 13.873L14.3285 13.9476L14.3482 13.9611L14.5446 14.0989ZM11.3946 10.4472C11.6416 9.95323 11.4414 9.35256 10.9474 9.10557L9.94743 8.60557C9.45345 8.35858 8.85278 8.5588 8.60579 9.05278C8.3588 9.54676 8.55903 10.1474 9.05301 10.3944L10.053 10.8944C10.547 11.1414 11.1477 10.9412 11.3946 10.4472ZM13.0526 9.10557C12.5586 9.35256 12.3584 9.95323 12.6054 10.4472C12.8523 10.9412 13.453 11.1414 13.947 10.8944L14.947 10.3944C15.441 10.1474 15.6412 9.54676 15.3942 9.05278C15.1472 8.5588 14.5465 8.35858 14.0526 8.60557L13.0526 9.10557Z" fill="black"/>
</svg>
