<svg width="24" height="24" viewBox="0 0 24 24" fill="none" xmlns="http://www.w3.org/2000/svg">
<path d="M3 11.2998C3 6.32924 7.02944 2.2998 12 2.2998C16.9706 2.2998 21 6.32924 21 11.2998M3 11.2998H5C6.10457 11.2998 7 12.1952 7 13.2998V15.2998C7 16.4044 6.10457 17.2998 5 17.2998M3 11.2998V16.2998C3 16.8521 3.44772 17.2998 4 17.2998H5M21 11.2998H19C17.8954 11.2998 17 12.1952 17 13.2998V15.2998C17 16.4044 17.8954 17.2998 19 17.2998H20C20.5523 17.2998 21 16.8521 21 16.2998V11.2998ZM5 17.2998V18.2998C5 19.4044 5.89543 20.2998 7 20.2998H9M9 20.2998C9 21.1282 9.67157 21.7998 10.5 21.7998H11.5C12.3284 21.7998 13 21.1282 13 20.2998C13 19.4714 12.3284 18.7998 11.5 18.7998H10.5C9.67157 18.7998 9 19.4714 9 20.2998Z" stroke="black" stroke-width="2" stroke-linecap="round"/>
</svg>
