<svg width="24" height="24" viewBox="0 0 24 24" fill="none" xmlns="http://www.w3.org/2000/svg">
<path fill-rule="evenodd" clip-rule="evenodd" d="M12.3699 2.15247C12.1262 2.10674 11.8761 2.10673 11.6323 2.15245C11.3509 2.20525 11.0959 2.33373 10.8933 2.43583L10.8384 2.46343L4.43773 5.66347L4.36994 5.69715C4.12257 5.81965 3.81167 5.97361 3.5716 6.21872C3.47532 6.31702 3.38973 6.42469 3.316 6.53987C3.23087 6.67285 3.16152 6.81585 3.10972 6.96603C2.99784 7.29036 2.99916 7.6373 3.00021 7.91333L3.0004 7.98902V16.0112L3.00021 16.0869C2.99916 16.363 2.99784 16.7099 3.10972 17.0342C3.20639 17.3145 3.36416 17.5698 3.5716 17.7815C3.81167 18.0266 4.12257 18.1806 4.36994 18.3031L4.43773 18.3368L10.8384 21.5368L10.8933 21.5644C11.0959 21.6665 11.3509 21.795 11.6323 21.8478C11.7538 21.8706 11.8768 21.882 11.9998 21.8821C12.1237 21.8822 12.2476 21.8707 12.3699 21.8478C12.6514 21.795 12.9064 21.6665 13.109 21.5643L13.1639 21.5367L14.3659 20.9357C14.0748 20.4027 13.9424 19.7766 14.0235 19.1279C14.0866 18.6232 14.2716 18.1635 14.5454 17.7747C14.2051 17.1869 13.9989 16.4851 14.0003 15.6823C14.0028 14.2256 14.6831 12.981 15.7962 12.2142C15.9224 12.1272 16.0502 12.049 16.1787 11.9787C16.5965 10.8247 17.7021 10.0001 19.0003 10.0001C19.7687 10.0001 20.4696 10.289 21.0004 10.7641V7.98895L21.0006 7.91326C21.0016 7.63725 21.003 7.29034 20.8911 6.96602C20.8393 6.81585 20.77 6.67286 20.6849 6.5399C20.6111 6.42471 20.5256 6.31704 20.4293 6.21874C20.1892 5.97364 19.8784 5.81966 19.631 5.69716L19.5632 5.66348L13.1639 2.46351L13.109 2.43591C12.9064 2.3338 12.6514 2.20529 12.3699 2.15247ZM11.9966 4.12404C11.9439 4.147 11.8728 4.18215 11.7325 4.2523L6.23633 7.00015L8.00019 7.88208L13.7644 4.99999L12.2692 4.25232C12.1288 4.18215 12.0578 4.14701 12.005 4.12404L12.0008 4.12222L11.9966 4.12404ZM16.0003 6.11807L10.2363 9.00011L12.0002 9.88208L17.7642 7.00008L16.0003 6.11807ZM7.94739 11.8557C7.45341 11.6087 6.85274 11.8089 6.60575 12.3029C6.35876 12.7969 6.55899 13.3976 7.05297 13.6445L8.05297 14.1445C8.54694 14.3915 9.14762 14.1913 9.39461 13.6973C9.6416 13.2034 9.44137 12.6027 8.94739 12.3557L7.94739 11.8557Z" fill="black"/>
<path d="M20.0001 13.0001C20.0001 12.4478 19.5524 12.0001 19.0001 12.0001C18.4478 12.0001 18.0001 12.4478 18.0001 13.0001V13.4361C17.6395 13.5025 17.2647 13.6311 16.9306 13.8612C16.3604 14.254 16.0015 14.8833 16.0001 15.6858C15.9985 16.6093 16.4959 17.2526 17.1513 17.6046C17.7371 17.9192 18.4295 18 19.0001 18C19.4588 18 19.7609 18.0594 19.9176 18.14C19.9492 18.1562 19.9663 18.1693 19.9742 18.1761C19.9781 18.1796 19.9801 18.1818 19.9809 18.1827L19.982 18.184C19.982 18.1842 19.9826 18.1851 19.9837 18.1875C19.9847 18.1899 19.9867 18.195 19.989 18.2035C19.9934 18.2202 20.0001 18.2546 20.0001 18.3125C20.0001 18.317 20 18.3206 19.9998 18.3234C19.9912 18.3321 19.9731 18.3479 19.9396 18.3689C19.8016 18.4554 19.5369 18.546 19.1247 18.5991C19.0193 18.5993 18.9222 18.5998 18.8308 18.6003C18.2535 18.6033 17.9034 18.6052 17.1241 18.5078C16.5761 18.4392 16.0763 18.828 16.0078 19.376C15.9393 19.924 16.3281 20.4238 16.8761 20.4923C17.3417 20.5505 17.6905 20.5783 18.0001 20.5911V21.0001C18.0001 21.5524 18.4478 22.0001 19.0001 22.0001C19.5524 22.0001 20.0001 21.5524 20.0001 21.0001V20.4691C20.3495 20.3832 20.6958 20.2553 21.0015 20.0637C21.5628 19.712 22.0001 19.1267 22.0001 18.3125C22.0001 17.8827 21.8987 17.4747 21.6745 17.1185C21.4519 16.7649 21.1464 16.5231 20.8326 16.3616C20.2393 16.0563 19.5414 16 19.0001 16C18.5707 16 18.2622 15.931 18.0976 15.8426C18.0624 15.8237 18.0409 15.8076 18.0289 15.797C18.0175 15.787 18.0138 15.7813 18.0132 15.7803C18.0127 15.7796 18.0106 15.7764 18.0081 15.7673C18.0053 15.7572 18 15.7329 18.0001 15.6893C18.0003 15.5936 18.0191 15.5566 18.0225 15.5502C18.0259 15.5438 18.0339 15.5298 18.0652 15.5082C18.1464 15.4523 18.3308 15.3852 18.6292 15.3756C18.7029 15.3736 18.7442 15.3729 18.7687 15.3727L18.7893 15.3727L18.793 15.3728L18.8131 15.3737C18.8258 15.3742 18.8414 15.3748 18.8608 15.3752C18.8985 15.3761 18.9437 15.3764 19.0068 15.376C19.7341 15.3711 20.4075 15.3834 20.7594 15.4706C21.2954 15.6036 21.8377 15.2768 21.9707 14.7408C22.1037 14.2047 21.7769 13.6624 21.2408 13.5294C20.8857 13.4414 20.438 13.4025 20.0001 13.386V13.0001Z" fill="black"/>
</svg>
