<svg width="24" height="24" viewBox="0 0 24 24" fill="none" xmlns="http://www.w3.org/2000/svg">
<path fill-rule="evenodd" clip-rule="evenodd" d="M12.3699 2.15247C12.1262 2.10674 11.8761 2.10673 11.6323 2.15245C11.3509 2.20525 11.0959 2.33373 10.8933 2.43583L10.8384 2.46343L4.43773 5.66347L4.36994 5.69715C4.12257 5.81965 3.81167 5.97361 3.5716 6.21872C3.47532 6.31702 3.38973 6.42469 3.316 6.53987C3.23087 6.67285 3.16152 6.81585 3.10972 6.96603C2.99784 7.29036 2.99916 7.6373 3.00021 7.91333L3.0004 7.98902V16.0112L3.00021 16.0869C2.99916 16.363 2.99784 16.7099 3.10972 17.0342C3.20639 17.3145 3.36416 17.5698 3.5716 17.7815C3.81167 18.0266 4.12257 18.1806 4.36994 18.3031L4.43773 18.3368L10.8384 21.5368L10.8933 21.5644C11.0959 21.6665 11.3509 21.795 11.6323 21.8478C11.7538 21.8706 11.8768 21.882 11.9998 21.8821C12.1237 21.8822 12.2476 21.8707 12.3699 21.8478C12.6514 21.795 12.9064 21.6665 13.109 21.5643L13.1639 21.5367L14.3122 20.9625C13.8788 20.5693 13.5328 20.0819 13.3045 19.5309C13.0898 19.0125 13.0364 18.5437 13.0165 18.2515C12.9997 18.0057 12.9999 17.7351 13 17.544V17.4562C12.9999 17.2651 12.9997 16.9945 13.0165 16.7488C13.0364 16.4566 13.0898 15.9877 13.3045 15.4694C13.4844 15.0352 13.7374 14.6405 14.0486 14.3003C14.389 11.8702 16.4761 10.0001 19 10.0001C19.7113 10.0001 20.3878 10.1486 21.0004 10.4163V7.98895L21.0006 7.91326C21.0016 7.63725 21.003 7.29034 20.8911 6.96602C20.8393 6.81585 20.77 6.67286 20.6849 6.5399C20.6111 6.42471 20.5256 6.31704 20.4293 6.21874C20.1892 5.97364 19.8784 5.81966 19.631 5.69716L19.5632 5.66348L13.1639 2.46351L13.109 2.43591C12.9064 2.3338 12.6514 2.20529 12.3699 2.15247ZM11.9966 4.12404C11.9439 4.147 11.8728 4.18215 11.7325 4.2523L6.23633 7.00015L8.00019 7.88208L13.7644 4.99999L12.2692 4.25232C12.1288 4.18215 12.0578 4.14701 12.005 4.12404L12.0008 4.12222L11.9966 4.12404ZM16.0003 6.11807L10.2363 9.00011L12.0002 9.88208L17.7642 7.00008L16.0003 6.11807ZM7.94739 11.8557C7.45341 11.6087 6.85274 11.8089 6.60575 12.3029C6.35876 12.7969 6.55899 13.3976 7.05297 13.6445L8.05297 14.1445C8.54694 14.3915 9.14762 14.1913 9.39461 13.6973C9.6416 13.2034 9.44137 12.6027 8.94739 12.3557L7.94739 11.8557Z" fill="black"/>
<path fill-rule="evenodd" clip-rule="evenodd" d="M19 12.0001C17.3431 12.0001 16 13.3433 16 15.0001V15.2681C15.6208 15.487 15.3216 15.8258 15.1522 16.2348C15.0553 16.4688 15.0248 16.6945 15.0118 16.8849C15 17.059 15 17.2636 15 17.4736V17.5266C15 17.7366 15 17.9413 15.0118 18.1153C15.0248 18.3057 15.0553 18.5314 15.1522 18.7655C15.3552 19.2555 15.7446 19.6449 16.2346 19.8479C16.4687 19.9448 16.6944 19.9753 16.8848 19.9883C17.0589 20.0002 17.2635 20.0001 17.4735 20.0001H20.5265C20.7365 20.0001 20.9411 20.0002 21.1152 19.9883C21.3056 19.9753 21.5313 19.9448 21.7654 19.8479C22.2554 19.6449 22.6448 19.2555 22.8478 18.7655C22.9447 18.5314 22.9752 18.3057 22.9882 18.1153C23 17.9413 23 17.7366 23 17.5266V17.4736C23 17.2636 23 17.059 22.9882 16.8849C22.9752 16.6945 22.9447 16.4688 22.8478 16.2348C22.6784 15.8258 22.3792 15.487 22 15.2681V15.0001C22 13.3433 20.6569 12.0001 19 12.0001ZM19 14.0001C19.5523 14.0001 20 14.4478 20 15.0001H18C18 14.4478 18.4477 14.0001 19 14.0001ZM20.9791 17.0073L20.9919 17.0083L20.9928 17.021C20.9995 17.1186 21 17.2535 21 17.5001C21 17.7468 20.9995 17.8817 20.9928 17.9792L20.9919 17.992L20.9791 17.9929C20.8816 17.9996 20.7467 18.0001 20.5 18.0001H17.5C17.2534 18.0001 17.1184 17.9996 17.0209 17.9929L17.0081 17.992L17.0072 17.9792C17.0005 17.8817 17 17.7468 17 17.5001C17 17.2535 17.0005 17.1186 17.0072 17.021L17.0081 17.0083L17.0209 17.0073C17.1184 17.0007 17.2534 17.0001 17.5 17.0001H20.5C20.7467 17.0001 20.8816 17.0007 20.9791 17.0073Z" fill="black"/>
</svg>
