<svg width="24" height="24" viewBox="0 0 24 24" fill="none" xmlns="http://www.w3.org/2000/svg">
<path opacity="0.3" fill-rule="evenodd" clip-rule="evenodd" d="M17.0704 7C16.736 7 16.4238 7.1671 16.2383 7.4453L9.42578 17.6641C8.86939 18.4987 7.93269 19 6.92963 19H3C2.44772 19 2 18.5523 2 18C2 17.4477 2.44772 17 3 17H6.92963C7.26399 17 7.57622 16.8329 7.76168 16.5547L14.5742 6.3359C15.1306 5.5013 16.0673 5 17.0704 5H21C21.5523 5 22 5.44772 22 6C22 6.55228 21.5523 7 21 7H17.0704Z" fill="black"/>
<path fill-rule="evenodd" clip-rule="evenodd" d="M15 18C15 17.4477 15.4477 17 16 17H21C21.5523 17 22 17.4477 22 18C22 18.5523 21.5523 19 21 19H16C15.4477 19 15 18.5523 15 18Z" fill="black"/>
</svg>
