<svg width="24" height="24" viewBox="0 0 24 24" fill="none" xmlns="http://www.w3.org/2000/svg">
<path opacity="0.3" fill-rule="evenodd" clip-rule="evenodd" d="M10.0355 4C8.6352 4 7.5 5.1352 7.5 6.53553C7.5 7.208 7.76714 7.85292 8.24264 8.32843L9.66714 9.75292L12.0103 8.14967C12.6297 7.72592 13 7.02383 13 6.27341C13 5.01784 11.9822 4 10.7266 4H10.0355ZM11.106 11.1918L13.1397 9.80029C14.3039 9.00374 15 7.68401 15 6.27341C15 3.91327 13.0867 2 10.7266 2H10.0355C7.53063 2 5.5 4.03063 5.5 6.53553C5.5 7.73843 5.97785 8.89206 6.82843 9.74264L7.98776 10.902L5.67658 12.4833C4.31446 13.4153 3.5 14.9594 3.5 16.6098V17C3.5 19.7614 5.73858 22 8.5 22H11.0327C12.2671 22 13.4323 21.4301 14.1902 20.4558L15.6564 18.5706L18.7929 21.7071C19.1834 22.0976 19.8166 22.0976 20.2071 21.7071C20.5976 21.3166 20.5976 20.6834 20.2071 20.2929L16.8938 16.9796L20.2894 12.6139C20.6284 12.178 20.5499 11.5497 20.1139 11.2106C19.678 10.8716 19.0497 10.9501 18.7106 11.3861L15.4686 15.5544L11.106 11.1918ZM9.42661 12.3408L6.80595 14.1339C5.98868 14.6931 5.5 15.6196 5.5 16.6098V17C5.5 18.6569 6.84315 20 8.5 20H11.0327C11.6499 20 12.2325 19.7151 12.6115 19.2279L14.2312 17.1454L9.42661 12.3408Z" fill="black"/>
</svg>
