<svg width="24" height="24" viewBox="0 0 24 24" fill="none" xmlns="http://www.w3.org/2000/svg">
<path opacity="0.3" d="M7.36012 6.5C5.5063 6.5 4.09617 8.1646 4.40094 9.9932L5.3484 15.678C5.52364 16.7294 6.4333 17.5 7.4992 17.5C8.56509 17.5 9.47476 16.7294 9.64999 15.678L10.5975 9.9932C10.9022 8.1646 9.49209 6.5 7.63828 6.5H7.36012Z" fill="black"/>
<path d="M16.3601 6.5C14.5063 6.5 13.0962 8.1646 13.4009 9.9932L14.3484 15.678C14.5236 16.7294 15.4333 17.5 16.4992 17.5C17.5651 17.5 18.4748 16.7294 18.65 15.678L19.5975 9.9932C19.9022 8.1646 18.4921 6.5 16.6383 6.5H16.3601Z" fill="black"/>
</svg>
