<svg width="24" height="24" viewBox="0 0 24 24" fill="none" xmlns="http://www.w3.org/2000/svg">
<path opacity="0.3" d="M11 19C11 18.4477 11.4477 18 12 18H12.01C12.5623 18 13.01 18.4477 13.01 19C13.01 19.5523 12.5623 20 12.01 20H12C11.4477 20 11 19.5523 11 19Z" fill="black"/>
<path fill-rule="evenodd" clip-rule="evenodd" d="M12.002 6C10.6888 6 9.57032 6.84425 9.16452 8.02252C8.98468 8.54471 8.41558 8.82223 7.89339 8.64239C7.37121 8.46255 7.09368 7.89345 7.27353 7.37126C7.94871 5.41082 9.80928 4 12.002 4C14.7634 4 17.002 6.23858 17.002 9C17.002 11.0721 15.7417 12.8476 13.9498 13.6061C13.5722 13.766 13.3136 13.8756 13.1316 13.9601C13.0802 13.984 13.0406 14.0033 13.0103 14.0186C13.0096 14.0285 13.0089 14.0399 13.0083 14.0527C13.0023 14.1703 13.002 14.3325 13.002 14.6L13.002 16C13.002 16.5523 12.5543 17 12.002 17C11.4497 17 11.002 16.5523 11.002 16L11.002 15.0588C11.0008 15.0394 11.0003 15.0198 11.0003 15V9C11.0003 8.44772 11.448 8 12.0003 8C12.5526 8 13.0003 8.44772 13.0003 9V11.8363C13.0494 11.8154 13.1 11.794 13.1519 11.7721L13.1701 11.7643C14.2485 11.3079 15.002 10.2408 15.002 9C15.002 7.34315 13.6588 6 12.002 6Z" fill="black"/>
</svg>
