<svg width="24" height="24" viewBox="0 0 24 24" fill="none" xmlns="http://www.w3.org/2000/svg">
<path opacity="0.3" d="M11 15V7C11 5.34315 9.65685 4 8 4H4C2.34315 4 1 5.34315 1 7V11C1 12.6569 2.34315 14 4 14H8C8.35064 14 8.68722 13.9398 9 13.8293V15C9 16.6569 7.65685 18 6 18H5C4.44772 18 4 18.4477 4 19C4 19.5523 4.44772 20 5 20H6C8.76142 20 11 17.7614 11 15Z" fill="black"/>
<path d="M16 4C14.3431 4 13 5.34315 13 7V11C13 12.6569 14.3431 14 16 14H20C20.3506 14 20.6872 13.9398 21 13.8293V15C21 16.6569 19.6569 18 18 18H17C16.4477 18 16 18.4477 16 19C16 19.5523 16.4477 20 17 20H18C20.7614 20 23 17.7614 23 15V7C23 5.34315 21.6569 4 20 4H16Z" fill="black"/>
</svg>
