<svg width="24" height="24" viewBox="0 0 24 24" fill="none" xmlns="http://www.w3.org/2000/svg">
<path opacity="0.3" fill-rule="evenodd" clip-rule="evenodd" d="M10.808 4C9.80963 4 9.00027 4.80936 9.00027 5.80776C9.00027 6.63729 9.56483 7.36036 10.3696 7.56155L14.4215 8.57453C15.9371 8.95342 17.0003 10.3152 17.0003 11.8774C17.0003 13.1926 16.25 14.3502 15.1331 14.9156C16.2678 15.5877 17.0003 16.8209 17.0003 18.1922C17.0003 20.2952 15.2955 22 13.1925 22H11.6984C11.3548 22 10.8136 21.9136 10.4571 21.8521C9.96483 21.767 9.49528 21.6286 9.0518 21.4623L7.64915 20.9363C7.13203 20.7424 6.87002 20.166 7.06394 19.6489C7.25786 19.1318 7.83427 18.8698 8.35139 19.0637L9.75405 19.5897C10.1058 19.7216 10.4529 19.8217 10.7975 19.8813C11.1954 19.95 11.559 20 11.6984 20H13.1925C14.1909 20 15.0003 19.1906 15.0003 18.1922C15.0003 17.3627 14.4357 16.6396 13.631 16.4384L9.57905 15.4255C8.06348 15.0466 7.00027 13.6848 7.00027 12.1226C7.00027 10.8074 7.75054 9.64976 8.86748 9.08437C7.73278 8.41232 7.00027 7.1791 7.00027 5.80776C7.00027 3.70479 8.70507 2 10.808 2H12.3022C12.6457 2 13.187 2.08636 13.5435 2.14794C14.0357 2.23297 14.5053 2.37137 14.9487 2.53768L16.3514 3.06367C16.8685 3.25759 17.1305 3.834 16.9366 4.35112C16.7427 4.86824 16.1663 5.13025 15.6491 4.93633L14.2465 4.41033C13.8948 4.27844 13.5476 4.17828 13.203 4.11875C12.8052 4.05002 12.4416 4 12.3022 4H10.808ZM13.2723 10.3488L10.2306 10.729C9.52771 10.8169 9.00027 11.4143 9.00027 12.1226C9.00027 12.7671 9.43889 13.3289 10.0641 13.4852L10.7283 13.6512L13.77 13.271C14.4728 13.1831 15.0003 12.5857 15.0003 11.8774C15.0003 11.2329 14.5617 10.6711 13.9364 10.5148L13.2723 10.3488Z" fill="black"/>
</svg>
