<svg width="24" height="24" viewBox="0 0 24 24" fill="none" xmlns="http://www.w3.org/2000/svg">
<path opacity="0.3" d="M6 3C4.34315 3 3 4.34315 3 6V18C3 19.6569 4.34315 21 6 21H18C19.6569 21 21 19.6569 21 18V6C21 4.34315 19.6569 3 18 3H6Z" fill="black"/>
<path fill-rule="evenodd" clip-rule="evenodd" d="M11.0475 8C10.5058 8 10.0667 8.43915 10.0667 8.98086C10.0667 9.23407 10.1646 9.47747 10.3399 9.66013L10.8148 10.1547L11.7171 9.51168C11.9364 9.35533 12.0667 9.10257 12.0667 8.83318C12.0667 8.37303 11.6936 8 11.2335 8H11.0475ZM12.2147 11.613L12.8778 11.1403C13.6238 10.6087 14.0667 9.7492 14.0667 8.83318C14.0667 7.26846 12.7982 6 11.2335 6H11.0475C9.40124 6 8.06667 7.33458 8.06667 8.98086C8.06667 9.75038 8.36426 10.4901 8.89717 11.0452L9.16864 11.328L8.41959 11.8618C7.52885 12.4967 7 13.523 7 14.6169C7 16.4853 8.51468 18 10.3831 18H11.1008C12.15 18 13.1377 17.5048 13.7655 16.6641L13.9955 16.356L15.2786 17.6925C15.6611 18.0909 16.2941 18.1039 16.6925 17.7214C17.0909 17.3389 17.1039 16.7059 16.7214 16.3075L15.2085 14.7315L16.8013 12.5983C17.1317 12.1558 17.0408 11.5291 16.5983 11.1987C16.1558 10.8683 15.5291 10.9592 15.1987 11.4017L13.8045 13.269L12.2147 11.613ZM10.5686 12.7862L9.58038 13.4905C9.21621 13.7501 9 14.1697 9 14.6169C9 15.3807 9.61925 16 10.3831 16H11.1008C11.519 16 11.9127 15.8026 12.1629 15.4675L12.5915 14.8935L10.5686 12.7862Z" fill="black"/>
</svg>
