<svg width="24" height="24" viewBox="0 0 24 24" fill="none" xmlns="http://www.w3.org/2000/svg">
<path d="M10.6489 12.9363C11.166 13.1302 11.7424 12.8682 11.9363 12.3511C12.1302 11.834 11.8682 11.2576 11.3511 11.0637L10.6489 12.9363ZM7 5L7.44721 4.10557C7.13723 3.95058 6.76909 3.96714 6.47427 4.14935C6.17945 4.33156 6 4.65342 6 5H7ZM12 7.5L11.5528 8.39443C11.8628 8.54942 12.2309 8.53286 12.5257 8.35065C12.8205 8.16844 13 7.84658 13 7.5H12ZM20 5C20.5523 5 21 4.55228 21 4C21 3.44772 20.5523 3 20 3V5ZM18 3C17.4477 3 17 3.44772 17 4C17 4.55228 17.4477 5 18 5V3ZM20 9L20.9923 9.12403V9.12403L20 9ZM16.7071 8.79289C16.3166 8.40237 15.6834 8.40237 15.2929 8.79289C14.9024 9.18342 14.9024 9.81658 15.2929 10.2071L16.7071 8.79289ZM21.9987 6.5L22.2405 7.47034C22.7307 7.3482 23.0528 6.87964 22.9913 6.37821C22.9298 5.87679 22.5039 5.5 21.9987 5.5V6.5ZM19.6926 6.04401C19.1567 6.17753 18.8305 6.7202 18.964 7.2561C19.0976 7.792 19.6402 8.1182 20.1761 7.98468L19.6926 6.04401ZM19.8086 5.5C19.2563 5.5 18.8086 5.94772 18.8086 6.5C18.8086 7.05228 19.2563 7.5 19.8086 7.5V5.5ZM1 14C1 14.5523 1.44772 15 2 15C2.55228 15 3 14.5523 3 14H1ZM4.77208 19.3162L5.72076 19L4.77208 19.3162ZM4.39296 18.1789L5.34164 17.8626L4.39296 18.1789ZM4.55573 15.8885L3.6613 15.4413H3.6613L4.55573 15.8885ZM4.84942 15.3011L5.74385 15.7484L4.84942 15.3011ZM4.91895 12.6665L5.84713 12.2943L4.91895 12.6665ZM8.56126 18.6838L9.50994 18.3675L8.56126 18.6838ZM8 17L7.02986 16.7575C6.98373 16.942 6.99118 17.1358 7.05132 17.3162L8 17ZM8.5 15L8.6644 14.0136C8.15013 13.9279 7.65631 14.2517 7.52986 14.7575L8.5 15ZM11.5 15.5H12.5C12.5 15.0112 12.1466 14.594 11.6644 14.5136L11.5 15.5ZM16 15C16 14.4477 15.5523 14 15 14C14.4477 14 14 14.4477 14 15H16ZM14.1694 14.4453C13.863 14.9048 13.9872 15.5257 14.4467 15.832C14.9062 16.1384 15.5271 16.0142 15.8335 15.5547L14.1694 14.4453ZM17.0014 9.49999C17.0014 8.94771 16.5537 8.49999 16.0014 8.49999C15.4491 8.49999 15.0014 8.94771 15.0014 9.49999H17.0014ZM8.17924 10.0868C8.73115 10.0663 9.16195 9.60233 9.14146 9.05043C9.12097 8.49852 8.65695 8.06772 8.10505 8.08821L8.17924 10.0868ZM16 6C15.4477 6 15 6.44772 15 7C15 7.55228 15.4477 8 16 8V6ZM16.009 8C16.5613 8 17.009 7.55228 17.009 7C17.009 6.44772 16.5613 6 16.009 6V8ZM11.3511 11.0637C11.1833 11.0007 10.8749 10.8166 10.4858 10.4622C10.1099 10.1199 9.70342 9.65927 9.32946 9.10394C8.57802 7.98804 8 6.55435 8 5H6C6 7.04565 6.75532 8.86196 7.67054 10.2211C8.12991 10.9032 8.64009 11.4864 9.13917 11.9409C9.62507 12.3834 10.1501 12.7493 10.6489 12.9363L11.3511 11.0637ZM6.55279 5.89443L11.5528 8.39443L12.4472 6.60557L7.44721 4.10557L6.55279 5.89443ZM13 7.5V7H11V7.5H13ZM15 5H20V3H15V5ZM13 7C13 5.89543 13.8954 5 15 5V3C12.7909 3 11 4.79086 11 7H13ZM18 5C18.0821 5 18.119 5.0174 18.138 5.02811C18.1631 5.04234 18.2027 5.07283 18.2534 5.14133C18.3718 5.30123 18.4542 5.52484 18.5513 5.81623L20.4487 5.18377C20.3647 4.93194 20.1971 4.40555 19.8608 3.95126C19.4901 3.45054 18.886 3 18 3V5ZM19.0077 8.87597C18.985 9.05795 18.8248 9.30985 18.3357 9.38732C17.865 9.46189 17.2323 9.3181 16.7071 8.79289L15.2929 10.2071C16.2677 11.1819 17.5412 11.5381 18.6487 11.3627C19.7377 11.1902 20.8275 10.442 20.9923 9.12403L19.0077 8.87597ZM20.9923 9.12403C21.1749 7.66271 20.9696 6.74646 20.4487 5.18377L18.5513 5.81623C19.0304 7.25354 19.1371 7.8408 19.0077 8.87597L20.9923 9.12403ZM21.757 5.52966L19.6926 6.04401L20.1761 7.98468L22.2405 7.47034L21.757 5.52966ZM19.8086 7.5H21.9987V5.5H19.8086V7.5ZM5 9H4V11H5V9ZM1 12V14H3V12H1ZM4 9C2.34315 9 1 10.3431 1 12H3C3 11.4477 3.44772 11 4 11V9ZM5.72076 21H7.61257V19H5.72076V21ZM5.72076 19L5.34164 17.8626L3.44427 18.4951L3.82339 19.6324L5.72076 19ZM5.45015 16.3358L5.74385 15.7484L3.955 14.8539L3.6613 15.4413L5.45015 16.3358ZM5.84713 12.2943C5.75486 12.0642 5.67495 11.85 5.61969 11.6772C5.59201 11.5907 5.57414 11.5258 5.56403 11.4813C5.5513 11.4255 5.56 11.4415 5.56 11.5H3.56C3.56 11.7811 3.65229 12.0912 3.71476 12.2865C3.7908 12.5243 3.89036 12.7882 3.99078 13.0386L5.84713 12.2943ZM9.50994 18.3675L8.94868 16.6838L7.05132 17.3162L7.61257 19L9.50994 18.3675ZM8.97014 17.2425L9.47014 15.2425L7.52986 14.7575L7.02986 16.7575L8.97014 17.2425ZM8.3356 15.9864L11.3356 16.4864L11.6644 14.5136L8.6644 14.0136L8.3356 15.9864ZM10.5 15.5V19H12.5V15.5H10.5ZM12.5 21H14V19H12.5V21ZM16 19V15H14V19H16ZM15.8335 15.5547C16.3732 14.7451 16.7053 14.1095 16.8628 13.1644C17.0049 12.3117 17.0014 11.2075 17.0014 9.49999H15.0014C15.0014 11.2925 14.9979 12.1883 14.89 12.8356C14.7975 13.3905 14.6296 13.7549 14.1694 14.4453L15.8335 15.5547ZM5.56 11.5C5.56 11.2522 5.54947 11.1347 5.57698 10.979C5.59837 10.858 5.63657 10.7775 5.70661 10.7076L4.29339 9.2924C3.44217 10.1424 3.56 11.2762 3.56 11.5H5.56ZM5.70661 10.7076C5.94109 10.4735 6.38491 10.1534 8.17924 10.0868L8.10505 8.08821C6.12682 8.16165 5.06032 8.52655 4.29339 9.2924L5.70661 10.7076ZM14 21C15.1046 21 16 20.1046 16 19H14V21ZM10.5 19C10.5 20.1046 11.3954 21 12.5 21V19H10.5ZM5.74385 15.7484C6.29638 14.6433 6.28335 13.3823 5.84713 12.2943L3.99078 13.0386C4.23833 13.656 4.22415 14.3156 3.955 14.8539L5.74385 15.7484ZM5.34164 17.8626C5.1739 17.3594 5.21294 16.8102 5.45015 16.3358L3.6613 15.4413C3.18686 16.3902 3.1088 17.4887 3.44427 18.4951L5.34164 17.8626ZM7.61257 21C8.97769 21 9.94163 19.6626 9.50994 18.3675L7.61257 19V21ZM5.72076 19L3.82339 19.6324C4.09562 20.4491 4.8599 21 5.72076 21V19ZM16 8H16.009V6H16V8Z" fill="black"/>
</svg>
