<svg width="24" height="24" viewBox="0 0 24 24" fill="none" xmlns="http://www.w3.org/2000/svg">
<path d="M9 17V16C8.66818 16 8.35796 16.1646 8.17193 16.4394C7.9859 16.7141 7.94829 17.0633 8.07152 17.3714L9 17ZM10 19.5L10.9285 19.8714C11.0238 19.633 11.0238 19.367 10.9285 19.1286L10 19.5ZM9 22L8.07152 21.6286C7.94829 21.9367 7.9859 22.2859 8.17193 22.5606C8.35796 22.8354 8.66818 23 9 23V22ZM15.5 19.5V20.5C15.5369 20.5 15.5738 20.498 15.6104 20.4939L15.5 19.5ZM4.72516 9.01656L5.27986 9.84861H5.27986L4.72516 9.01656ZM5.0547 8.79687L4.5 7.96482H4.5L5.0547 8.79687ZM14.5667 2.8L13.9667 3.6V3.6L14.5667 2.8ZM15.5 3.5L14.9 4.3C15.2253 4.54395 15.6659 4.56668 16.0145 4.35749L15.5 3.5ZM20 2.5H21C21 2.04113 20.6877 1.64115 20.2425 1.52986L20 2.5ZM18.5 6.5L17.7 5.9C17.4397 6.24703 17.4329 6.72229 17.683 7.07668L18.5 6.5ZM14.8757 12L15.4149 11.1578C15.1394 10.9814 14.795 10.951 14.4928 11.0762C14.1907 11.2015 13.9688 11.4666 13.8989 11.7861L14.8757 12ZM9.78416 12.2526L9.1198 13V13L9.78416 12.2526ZM12.7239 14.8657L13.3883 14.1183V14.1183L12.7239 14.8657ZM14.3651 14.3322L15.342 14.546L15.342 14.546L14.3651 14.3322ZM10 6C9.44772 6 9 6.44772 9 7C9 7.55228 9.44772 8 10 8V6ZM10.009 8C10.5613 8 11.009 7.55228 11.009 7C11.009 6.44772 10.5613 6 10.009 6V8ZM13.4285 19.1286C13.2097 18.5817 12.7497 17.8244 12.041 17.1916C11.3188 16.5468 10.2993 16 9 16V18C9.70067 18 10.2645 18.2866 10.709 18.6834C11.1669 19.0923 11.457 19.585 11.5715 19.8714L13.4285 19.1286ZM8.07152 17.3714L9.07152 19.8714L10.9285 19.1286L9.92848 16.6286L8.07152 17.3714ZM9.07152 19.1286L8.07152 21.6286L9.92848 22.3714L10.9285 19.8714L9.07152 19.1286ZM11.5715 19.1286C11.457 19.415 11.1669 19.9077 10.709 20.3166C10.2645 20.7134 9.70067 21 9 21V23C10.2993 23 11.3188 22.4532 12.041 21.8084C12.7497 21.1756 13.2097 20.4183 13.4285 19.8714L11.5715 19.1286ZM15.5 18.5H12.5V20.5H15.5V18.5ZM9.1198 11H5.62847V13H9.1198V11ZM5.27986 9.84861L5.6094 9.62892L4.5 7.96482L4.17046 8.18451L5.27986 9.84861ZM6.5 7.96482V7H4.5V7.96482H6.5ZM10.5 3H12.1667V1H10.5V3ZM13.9667 3.6L14.9 4.3L16.1 2.7L15.1667 2L13.9667 3.6ZM16.0145 4.35749C16.363 4.14839 17.009 3.83475 17.7404 3.6231C18.4877 3.40688 19.205 3.33202 19.7575 3.47014L20.2425 1.52986C19.195 1.26798 18.0789 1.44312 17.1846 1.7019C16.2744 1.96525 15.4703 2.35161 14.9855 2.64251L16.0145 4.35749ZM19 2.5C19 2.9756 18.7558 4.4923 17.7 5.9L19.3 7.1C20.6442 5.3077 21 3.35773 21 2.5H19ZM16.0355 20.3445C19.1113 18.3943 19.0604 13.4915 15.4149 11.1578L14.3366 12.8422C16.9396 14.5085 16.62 17.6057 14.9645 18.6555L16.0355 20.3445ZM17.683 7.07668C18.4812 8.20749 19 10.1379 19 12H21C21 9.86209 20.4219 7.48858 19.317 5.92332L17.683 7.07668ZM19 12C19 13.018 18.9917 14.5985 18.4966 15.9738C18.2542 16.6471 17.9101 17.2248 17.4321 17.6556C16.9645 18.077 16.32 18.4027 15.3896 18.5061L15.6104 20.4939C16.93 20.3473 17.973 19.8605 18.771 19.1413C19.5587 18.4314 20.0583 17.5404 20.3784 16.6512C21.0083 14.9015 21 12.982 21 12H19ZM12.1667 3C12.8158 3 13.4474 3.21053 13.9667 3.6L15.1667 2C14.3012 1.35089 13.2485 1 12.1667 1V3ZM6.5 7C6.5 4.79086 8.29086 3 10.5 3V1C7.18629 1 4.5 3.68629 4.5 7H6.5ZM5.6094 9.62892C6.1658 9.25799 6.5 8.63352 6.5 7.96482H4.5H4.5L5.6094 9.62892ZM5 10.3715C5 10.1614 5.10502 9.96517 5.27986 9.84861L4.17046 8.18451C3.43922 8.672 3 9.49269 3 10.3715H5ZM5.62847 11C5.28138 11 5 10.7186 5 10.3715H3C3 11.8232 4.17681 13 5.62847 13V11ZM9.1198 13L12.0596 15.6131L13.3883 14.1183L10.4485 11.5052L9.1198 13ZM15.342 14.546L15.8526 12.2139L13.8989 11.7861L13.3883 14.1183L15.342 14.546ZM12.0596 15.6131C13.202 16.6286 15.0151 16.0392 15.342 14.546L13.3883 14.1183L13.3883 14.1183L12.0596 15.6131ZM9.1198 13L10.4485 11.5052C10.0824 11.1798 9.60963 11 9.1198 11V13ZM10 8H10.009V6H10V8Z" fill="black"/>
</svg>
