<svg width="24" height="24" viewBox="0 0 24 24" fill="none" xmlns="http://www.w3.org/2000/svg">
<path d="M12.5 11.2044V8.5L10 7L12.5 5L10 3H16.6667C17.5321 3 18.3743 3.28071 19.0667 3.8L21.2 5.4C21.7036 5.77771 22 6.37049 22 7V7.80575C22 8.78342 21.2932 9.6178 20.3288 9.77853L19.7801 9.86998C19.2789 9.95351 18.7647 9.84314 18.3419 9.56129L17.7901 9.19338C17.6009 9.06728 17.3787 9 17.1514 9H17.04C16.4656 9 16 9.4656 16 10.04C16 10.333 16.1236 10.6124 16.3404 10.8095L20.8453 14.9049C21.2623 15.2839 21.5 15.8212 21.5 16.3847V17C21.5 19.2091 19.7091 21 17.5 21H3.55761C2.69736 21 2 20.3026 2 19.4424C2 18.6285 2.62664 17.9518 3.43814 17.8894L15 17L13.1292 13.6326C12.7166 12.8898 12.5 12.0541 12.5 11.2044ZM12.5 11.2044L5.5 8L2 12H7L6 14H13.3333M18.25 6.5L17.5 6" stroke="black" stroke-width="2" stroke-linecap="round" stroke-linejoin="round"/>
</svg>
