<svg width="24" height="24" viewBox="0 0 24 24" fill="none" xmlns="http://www.w3.org/2000/svg">
<path d="M7.1 16.2C6.65817 15.8686 6.03137 15.9582 5.7 16.4C5.36863 16.8418 5.45817 17.4686 5.9 17.8L7.1 16.2ZM15.4487 14.3162C15.6233 13.7923 15.3402 13.226 14.8162 13.0513C14.2923 12.8767 13.726 13.1598 13.5513 13.6838L15.4487 14.3162ZM2 12L2.44721 11.1056C2.13723 10.9506 1.76909 10.9672 1.47427 11.1494C1.17945 11.3316 1 11.6534 1 12H2ZM5 13.5L4.55279 14.3945C4.79226 14.5142 5.06976 14.5329 5.32314 14.4464L5 13.5ZM17 11.9997H16C16 12.3142 16.148 12.6103 16.3994 12.7992L17 11.9997ZM13.2926 10.6183L13.7199 9.71424L13.7199 9.71424L13.2926 10.6183ZM13.355 10.6472L13.6781 11.5935C14.0664 11.4609 14.3343 11.1046 14.3539 10.6948C14.3734 10.2849 14.1406 9.90475 13.7667 9.73584L13.355 10.6472ZM17.2222 10.3264L17.7785 11.1574L17.7785 11.1574L17.2222 10.3264ZM17 10.4649L16.4993 9.59927C16.1903 9.77801 16 10.1079 16 10.4649H17ZM18.9691 6.5L17.9767 6.62374V6.62374L18.9691 6.5ZM22 6L22.9922 6.12403C23.0321 5.80507 22.9162 5.48639 22.6808 5.26755C22.4453 5.0487 22.119 4.95638 21.8038 5.01942L22 6ZM16 6C15.4477 6 15 6.44772 15 7C15 7.55228 15.4477 8 16 8V6ZM16.009 8C16.5613 8 17.009 7.55228 17.009 7C17.009 6.44772 16.5613 6 16.009 6V8ZM5.9 17.8C7.15313 18.7399 9.08735 19.1624 10.9209 18.7224C12.8194 18.2667 14.5896 16.8935 15.4487 14.3162L13.5513 13.6838C12.9104 15.6065 11.6806 16.4833 10.4541 16.7776C9.16265 17.0876 7.84687 16.7601 7.1 16.2L5.9 17.8ZM1 12V13H3V12H1ZM10 22H14V20H10V22ZM1.55279 12.8945L4.55279 14.3945L5.44721 12.6056L2.44721 11.1056L1.55279 12.8945ZM1 13C1 17.9706 5.02944 22 10 22V20C6.13401 20 3 16.866 3 13H1ZM18 16C18 18.2092 16.2091 20 14 20V22C17.3137 22 20 19.3137 20 16H18ZM16.3994 12.7992C17.3732 13.5307 18 14.692 18 16H20C20 14.0364 19.0557 12.293 17.6006 11.2001L16.3994 12.7992ZM12 7C12 5.34315 13.3431 4 15 4V2C12.2386 2 10 4.23858 10 7H12ZM13.7199 9.71424C12.7013 9.23272 12 8.19726 12 7H10C10 8.99945 11.1736 10.7228 12.8652 11.5224L13.7199 9.71424ZM13.7667 9.73584C13.751 9.72877 13.7354 9.72157 13.7199 9.71424L12.8652 11.5224C12.8911 11.5346 12.9172 11.5467 12.9433 11.5585L13.7667 9.73584ZM5.32314 14.4464L13.6781 11.5935L13.0319 9.70082L4.67686 12.5537L5.32314 14.4464ZM16.666 9.49541C16.6116 9.5318 16.556 9.56645 16.4993 9.59927L17.5007 11.3305C17.5953 11.2757 17.688 11.218 17.7785 11.1574L16.666 9.49541ZM18 11.9997V10.4649H16V11.9997H18ZM18 7C18 8.0047 17.5071 8.89426 16.7455 9.44031L17.9109 11.0657C19.1738 10.1602 20 8.67656 20 7H18ZM16.7455 9.44031C16.7193 9.4591 16.6928 9.47747 16.666 9.49541L17.7785 11.1574C17.8231 11.1275 17.8673 11.097 17.9109 11.0657L16.7455 9.44031ZM15 4C16.5291 4 17.7923 5.1449 17.9767 6.62374L19.9614 6.37626C19.6537 3.90879 17.5505 2 15 2V4ZM17.9767 6.62374C17.9921 6.74659 18 6.87213 18 7H20C20 6.78921 19.9869 6.58101 19.9614 6.37626L17.9767 6.62374ZM21.8038 5.01942C21.3927 5.10165 20.751 5.22504 20.1652 5.32744C19.8719 5.37873 19.5985 5.42371 19.3776 5.45554C19.267 5.47148 19.1749 5.48334 19.1031 5.49103C19.0236 5.49954 18.9951 5.5 19 5.5V7.5C19.1831 7.5 19.4384 7.46744 19.6629 7.43509C19.9119 7.39921 20.2072 7.35044 20.5097 7.29756C21.1156 7.19163 21.7739 7.06502 22.1961 6.98058L21.8038 5.01942ZM17.3199 11.253C18.2036 11.2602 19.4812 11.1164 20.6271 10.3647C21.8174 9.58394 22.728 8.23805 22.9922 6.12403L21.0077 5.87597C20.8062 7.48788 20.1665 8.27495 19.5301 8.69243C18.8493 9.139 18.0239 9.2587 17.3364 9.25304L17.3199 11.253ZM19 5.5H18.9691V7.5H19V5.5ZM16 8H16.009V6H16V8Z" fill="black"/>
</svg>
