<svg width="24" height="24" viewBox="0 0 24 24" fill="none" xmlns="http://www.w3.org/2000/svg">
<path d="M2 15.5L1.29289 14.7929C1.0069 15.0789 0.921339 15.509 1.07612 15.8827C1.2309 16.2564 1.59554 16.5 2 16.5L2 15.5ZM18 15C18 15.5523 18.4477 16 19 16C19.5523 16 20 15.5523 20 15H18ZM14.5937 4.18246C14.0559 4.05715 13.5182 4.39159 13.3929 4.92947C13.2676 5.46735 13.602 6.00498 14.1399 6.1303L14.5937 4.18246ZM9.76389 6C10.3162 6 10.7639 5.55228 10.7639 5C10.7639 4.44772 10.3162 4 9.76389 4V6ZM4 15H5C5 14.6534 4.82055 14.3316 4.52573 14.1493C4.23091 13.9671 3.86278 13.9506 3.55279 14.1056L4 15ZM4 20H3C3 20.5523 3.44772 21 4 21V20ZM7.5 20V21C8.05228 21 8.5 20.5523 8.5 20H7.5ZM7.5 16L7.94721 15.1056C7.63723 14.9506 7.26909 14.9671 6.97427 15.1493C6.67945 15.3316 6.5 15.6534 6.5 16H7.5ZM11.5 16H12.5C12.5 15.6534 12.3205 15.3316 12.0257 15.1493C11.7309 14.9671 11.3628 14.9506 11.0528 15.1056L11.5 16ZM11.5 20H10.5C10.5 20.5523 10.9477 21 11.5 21V20ZM15 20V21C15.5523 21 16 20.5523 16 20H15ZM15 13.5L15.7682 12.8598C15.4987 12.5364 15.0554 12.4164 14.6596 12.5597C14.2637 12.7031 14 13.079 14 13.5H15ZM17 14.8849L17.3519 13.9489L17 14.8849ZM21.4961 15.3682C21.9757 15.0942 22.1423 14.4834 21.8682 14.0039C21.5942 13.5243 20.9834 13.3577 20.5039 13.6318L21.4961 15.3682ZM23 16.5C23 15.9477 22.5523 15.5 22 15.5C21.4477 15.5 21 15.9477 21 16.5H23ZM12 11C12.5523 11 13 10.5523 13 10C13 9.44772 12.5523 9 12 9V11ZM14 7C14 7.55228 14.4477 8 15 8C15.5523 8 16 7.55228 16 7H14ZM16 9C15.4477 9 15 9.44772 15 10C15 10.5523 15.4477 11 16 11V9ZM16.009 11C16.5613 11 17.009 10.5523 17.009 10C17.009 9.44772 16.5613 9 16.009 9V11ZM2.70711 16.2071C3.05144 15.8628 3.36069 15.2447 3.58694 14.4483C3.82429 13.6128 4 12.4775 4 11H2C2 12.3225 1.84238 13.2705 1.66306 13.9017C1.47264 14.572 1.2819 14.8039 1.29289 14.7929L2.70711 16.2071ZM18 11V15H20V11H18ZM4 11C4 8.23858 6.23858 6 9 6V4C5.13401 4 2 7.13401 2 11H4ZM14.1399 6.1303C16.3525 6.64578 18 8.6317 18 11H20C20 7.68129 17.6915 4.90419 14.5937 4.18246L14.1399 6.1303ZM9 6H9.76389V4H9V6ZM2 16.5C2.45176 16.5 3.4788 16.3786 4.44721 15.8944L3.55279 14.1056C2.9212 14.4214 2.21491 14.5 2 14.5V16.5ZM3 15V20H5V15H3ZM4 21H7.5V19H4V21ZM8.5 20V16H6.5V20H8.5ZM7.05279 16.8944C7.88402 17.31 9.96631 17.8849 11.9472 16.8944L11.0528 15.1056C9.83369 15.7151 8.44931 15.3566 7.94721 15.1056L7.05279 16.8944ZM10.5 16V20H12.5V16H10.5ZM11.5 21H15V19H11.5V21ZM16 20V13.5H14V20H16ZM14.2318 14.1402C14.7132 14.7179 15.5542 15.4097 16.6481 15.8209L17.3519 13.9489C16.6114 13.6705 16.049 13.1967 15.7682 12.8598L14.2318 14.1402ZM16.6481 15.8209C17.9839 16.3232 19.6904 16.4001 21.4961 15.3682L20.5039 13.6318C19.2705 14.3365 18.1931 14.2651 17.3519 13.9489L16.6481 15.8209ZM16 14.8849V16.5H18V14.8849H16ZM19.5 20C21.433 20 23 18.433 23 16.5H21C21 17.3284 20.3284 18 19.5 18V20ZM16 16.5C16 18.433 17.567 20 19.5 20V18C18.6716 18 18 17.3284 18 16.5H16ZM12 9C10.8954 9 10 8.10457 10 7H8C8 9.20914 9.79086 11 12 11V9ZM10 7C10 5.89543 10.8954 5 12 5V3C9.79086 3 8 4.79086 8 7H10ZM12 5C13.1046 5 14 5.89543 14 7H16C16 4.79086 14.2091 3 12 3V5ZM16 11H16.009V9H16V11Z" fill="black"/>
</svg>
