<svg width="24" height="24" viewBox="0 0 24 24" fill="none" xmlns="http://www.w3.org/2000/svg">
<path d="M17.0877 5.54737L17.6022 6.40487L17.0877 5.54737ZM15.5 6.5L14.9855 5.64251C14.6843 5.82323 14.5 6.14874 14.5 6.5C14.5 6.85126 14.6843 7.17677 14.9855 7.35749L15.5 6.5ZM17.525 7.71499L17.0105 8.57248L17.0105 8.57248L17.525 7.71499ZM18.2607 8.4888L17.3783 8.95938L17.3783 8.95938L18.2607 8.4888ZM20.7625 13.1796L19.8801 13.6502L20.7625 13.1796ZM15.8517 17.3888L16.4517 16.5888L15.8517 17.3888ZM14 16L14.6 15.2C14.2747 14.956 13.8341 14.9333 13.4855 15.1425L14 16ZM13.3742 16.3755L12.8597 15.518V15.518L13.3742 16.3755ZM9.85515 16.0608L10.5137 15.3082L9.85515 16.0608ZM8.1585 13.2474C7.74287 12.8837 7.11111 12.9259 6.74742 13.3415C6.38374 13.7571 6.42586 14.3889 6.8415 14.7526L8.1585 13.2474ZM15 21V22C15.3688 22 15.7077 21.797 15.8817 21.4719C16.0557 21.1467 16.0366 20.7522 15.8321 20.4453L15 21ZM13.1654 16.4453C12.859 15.9858 12.2382 15.8616 11.7786 16.1679C11.3191 16.4743 11.1949 17.0952 11.5013 17.5547L13.1654 16.4453ZM20.0209 17.2317L20.6794 17.9843L20.0209 17.2317ZM17.6966 3.98028L16.7381 4.26548V4.26548L17.6966 3.98028ZM15 10C14.4477 10 14 10.4477 14 11C14 11.5523 14.4477 12 15 12V10ZM15.009 12C15.5613 12 16.009 11.5523 16.009 11C16.009 10.4477 15.5613 10 15.009 10V12ZM3 19V17.0116H1V19H3ZM16.0116 4H16.3821V2H16.0116V4ZM16.5732 4.68988L14.9855 5.64251L16.0145 7.35749L17.6022 6.40487L16.5732 4.68988ZM14.9855 7.35749L17.0105 8.57248L18.0395 6.85749L16.0145 5.64251L14.9855 7.35749ZM17.3783 8.95938L19.8801 13.6502L21.6448 12.709L19.143 8.01821L17.3783 8.95938ZM16.4517 16.5888L14.6 15.2L13.4 16.8L15.2517 18.1888L16.4517 16.5888ZM13.4855 15.1425L12.8597 15.518L13.8886 17.233L14.5145 16.8575L13.4855 15.1425ZM10.5137 15.3082L8.1585 13.2474L6.8415 14.7526L9.19665 16.8133L10.5137 15.3082ZM4 22H15V20H4V22ZM15.8321 20.4453L13.1654 16.4453L11.5013 17.5547L14.1679 21.5547L15.8321 20.4453ZM12.8597 15.518C12.115 15.9648 11.1672 15.88 10.5137 15.3082L9.19665 16.8133C10.5037 17.957 12.3994 18.1266 13.8886 17.233L12.8597 15.518ZM19.3624 16.4791C18.5399 17.1988 17.326 17.2445 16.4517 16.5888L15.2517 18.1888C16.8821 19.4115 19.1457 19.3262 20.6794 17.9843L19.3624 16.4791ZM19.8801 13.6502C20.3861 14.5989 20.1715 15.7711 19.3624 16.4791L20.6794 17.9843C22.1883 16.664 22.5883 14.4781 21.6448 12.709L19.8801 13.6502ZM16.7381 4.26548C16.7865 4.428 16.7186 4.60264 16.5732 4.68988L17.6022 6.40487C18.5306 5.84784 18.9638 4.73278 18.655 3.69508L16.7381 4.26548ZM16.3821 4C16.5464 4 16.6912 4.10798 16.7381 4.26548L18.655 3.69508C18.3558 2.68946 17.4313 2 16.3821 2V4ZM3 17.0116C3 9.8255 8.8255 4 16.0116 4V2C7.72093 2 1 8.72093 1 17.0116H3ZM17.0105 8.57248C17.1659 8.66573 17.293 8.79946 17.3783 8.95938L19.143 8.01821C18.8872 7.53844 18.5057 7.13724 18.0395 6.85749L17.0105 8.57248ZM1 19C1 20.6569 2.34315 22 4 22V20C3.44772 20 3 19.5523 3 19H1ZM15 12H15.009V10H15V12Z" fill="black"/>
</svg>
