<svg width="24" height="24" viewBox="0 0 24 24" fill="none" xmlns="http://www.w3.org/2000/svg">
<path d="M13 9.5L12.5528 10.3944C12.8628 10.5494 13.2309 10.5329 13.5257 10.3507C13.8205 10.1684 14 9.84658 14 9.5H13ZM21 5C21.5523 5 22 4.55228 22 4C22 3.44772 21.5523 3 21 3V5ZM19 3C18.4477 3 18 3.44772 18 4C18 4.55228 18.4477 5 19 5V3ZM21 9L21.9923 9.12403C21.9974 9.08289 22 9.04146 22 9H21ZM17.7071 8.79289C17.3166 8.40237 16.6834 8.40237 16.2929 8.79289C15.9024 9.18342 15.9024 9.81658 16.2929 10.2071L17.7071 8.79289ZM21 8H22C22 7.99078 21.9999 7.98156 21.9996 7.97234L21 8ZM6 10L6.70661 10.7076L6.70728 10.7069L6 10ZM2 14C2 14.5523 2.44772 15 3 15C3.55228 15 4 14.5523 4 14H2ZM5.77208 19.3164L6.72076 19.0002L5.77208 19.3164ZM5.39296 18.179L6.34164 17.8628L5.39296 18.179ZM5.55573 15.8887L4.6613 15.4415H4.6613L5.55573 15.8887ZM5.84942 15.3013L6.74385 15.7485L6.74385 15.7485L5.84942 15.3013ZM5.91895 12.6666L4.99078 13.0388L5.91895 12.6666ZM9.56126 18.6839L10.5099 18.3677L9.56126 18.6839ZM9 17.0002L8.10557 16.553C7.98696 16.7902 7.96745 17.0648 8.05132 17.3164L9 17.0002ZM9.5 15.0002L9.81623 14.0515C9.51128 13.9498 9.17606 14.001 8.91529 14.1889C8.65452 14.3769 8.5 14.6787 8.5 15.0002H9.5ZM12.5 15.5002H13.5C13.5 15.235 13.3946 14.9806 13.2071 14.7931C13.0196 14.6055 12.7652 14.5002 12.5 14.5002L12.5 15.5002ZM17 15.0002C17 14.4479 16.5523 14.0002 16 14.0002C15.4477 14.0002 15 14.4479 15 15.0002H17ZM15.1694 14.4455C14.863 14.905 14.9872 15.5259 15.4467 15.8322C15.9062 16.1386 16.5271 16.0144 16.8335 15.5549L15.1694 14.4455ZM18.0014 9.50017C18.0014 8.94788 17.5537 8.50017 17.0014 8.50017C16.4491 8.50017 16.0014 8.94788 16.0014 9.50017H18.0014ZM17.5 6C16.9477 6 16.5 6.44772 16.5 7C16.5 7.55228 16.9477 8 17.5 8V6ZM17.509 8C18.0613 8 18.509 7.55228 18.509 7C18.509 6.44772 18.0613 6 17.509 6V8ZM14 9.5V7H12V9.5H14ZM16 5H21V3H16V5ZM14 7C14 5.89543 14.8954 5 16 5V3C13.7909 3 12 4.79086 12 7H14ZM19 5C19.0821 5 19.119 5.0174 19.138 5.02811C19.1631 5.04234 19.2027 5.07283 19.2534 5.14133C19.3718 5.30123 19.4542 5.52484 19.5513 5.81623L21.4487 5.18377C21.3647 4.93194 21.1971 4.40555 20.8608 3.95126C20.4901 3.45054 19.886 3 19 3V5ZM20.0077 8.87597C19.985 9.05795 19.8248 9.30985 19.3357 9.38732C18.865 9.46189 18.2323 9.3181 17.7071 8.79289L16.2929 10.2071C17.2677 11.1819 18.5412 11.5381 19.6487 11.3627C20.7377 11.1902 21.8275 10.442 21.9923 9.12403L20.0077 8.87597ZM21.9996 7.97234C21.9754 7.09743 21.8247 6.31168 21.4487 5.18377L19.5513 5.81623C19.8825 6.80992 19.9829 7.39734 20.0004 8.02766L21.9996 7.97234ZM22 9V8H20V9H22ZM6 9H5V11H6V9ZM2 12V14H4V12H2ZM5 9C3.34315 9 2 10.3431 2 12H4C4 11.4477 4.44772 11 5 11V9ZM6.72076 21.0002H8.61257V19.0002H6.72076V21.0002ZM6.72076 19.0002L6.34164 17.8628L4.44427 18.4953L4.82339 19.6326L6.72076 19.0002ZM6.45015 16.3359L6.74385 15.7485L4.955 14.8541L4.6613 15.4415L6.45015 16.3359ZM6.84713 12.2945C6.75486 12.0644 6.67495 11.8502 6.61969 11.6774C6.59201 11.5909 6.57414 11.5259 6.56403 11.4815C6.5513 11.4256 6.56 11.4416 6.56 11.5002H4.56C4.56 11.7813 4.65229 12.0914 4.71476 12.2867C4.7908 12.5244 4.89036 12.7883 4.99078 13.0388L6.84713 12.2945ZM10.5099 18.3677L9.94868 16.6839L8.05132 17.3164L8.61257 19.0002L10.5099 18.3677ZM9 17.0002C9.89443 17.4474 9.89452 17.4472 9.89461 17.447C9.89464 17.447 9.89473 17.4468 9.8948 17.4466C9.89493 17.4464 9.89507 17.4461 9.89522 17.4458C9.89551 17.4452 9.89584 17.4446 9.89619 17.4438C9.89691 17.4424 9.89774 17.4407 9.89869 17.4388C9.90059 17.4349 9.90296 17.4301 9.90577 17.4243C9.91139 17.4126 9.91877 17.3972 9.92767 17.3781C9.94543 17.3401 9.96933 17.2874 9.99727 17.2222C10.0529 17.0923 10.1259 16.9098 10.1987 16.6914C10.3403 16.2665 10.5 15.6514 10.5 15.0002H8.5C8.5 15.3489 8.40968 15.7339 8.30132 16.0589C8.24913 16.2155 8.19706 16.3455 8.15898 16.4344C8.14005 16.4785 8.12488 16.5118 8.1153 16.5324C8.11052 16.5426 8.10716 16.5496 8.10546 16.5531C8.10461 16.5549 8.10417 16.5558 8.10418 16.5558C8.10418 16.5557 8.1043 16.5555 8.10453 16.555C8.10465 16.5548 8.10479 16.5545 8.10496 16.5542C8.10505 16.554 8.10515 16.5538 8.10525 16.5536C8.1053 16.5535 8.10538 16.5533 8.10541 16.5533C8.10549 16.5531 8.10557 16.553 9 17.0002ZM9.18377 15.9489C10.0224 16.2284 10.8469 16.3643 11.4521 16.4316C11.7572 16.4655 12.0128 16.4826 12.1946 16.4912C12.2857 16.4956 12.3586 16.4978 12.4104 16.4989C12.4363 16.4995 12.457 16.4998 12.472 16.5C12.4796 16.5001 12.4857 16.5001 12.4904 16.5001C12.4927 16.5002 12.4947 16.5002 12.4963 16.5002C12.4971 16.5002 12.4978 16.5002 12.4984 16.5002C12.4987 16.5002 12.499 16.5002 12.4993 16.5002C12.4994 16.5002 12.4996 16.5002 12.4997 16.5002C12.4998 16.5002 12.5 16.5002 12.5 15.5002C12.5 14.5002 12.5002 14.5002 12.5003 14.5002C12.5003 14.5002 12.5005 14.5002 12.5006 14.5002C12.5008 14.5002 12.5009 14.5002 12.501 14.5002C12.5013 14.5002 12.5014 14.5002 12.5015 14.5002C12.5017 14.5002 12.5015 14.5002 12.5009 14.5002C12.4998 14.5002 12.4974 14.5001 12.4935 14.5001C12.4859 14.5 12.4729 14.4998 12.4548 14.4994C12.4188 14.4986 12.3628 14.497 12.2897 14.4935C12.1434 14.4865 11.9303 14.4724 11.6729 14.4438C11.1531 14.386 10.4776 14.272 9.81623 14.0515L9.18377 15.9489ZM11.5 15.5002V19.0002H13.5V15.5002H11.5ZM13.5 21.0002H15V19.0002H13.5V21.0002ZM17 19.0002V15.0002H15V19.0002H17ZM16.8335 15.5549C17.3732 14.7453 17.7053 14.1096 17.8628 13.1646C18.0049 12.3119 18.0014 11.2077 18.0014 9.50017H16.0014C16.0014 11.2926 15.9979 12.1884 15.89 12.8358C15.7975 13.3907 15.6296 13.755 15.1694 14.4455L16.8335 15.5549ZM6.56 11.5002C6.56 11.2524 6.54947 11.1348 6.57699 10.9791C6.59839 10.858 6.63661 10.7775 6.70661 10.7076L5.29339 9.2924C4.44216 10.1424 4.56 11.2765 4.56 11.5002H6.56ZM6.70728 10.7069C7.20336 10.2106 8.15836 9.86855 9.35979 9.81135C10.5372 9.75529 11.7353 9.98569 12.5528 10.3944L13.4472 8.60557C12.2647 8.01431 10.7125 7.74468 9.26468 7.81361C7.84094 7.8814 6.29594 8.28935 5.29272 9.29307L6.70728 10.7069ZM15 21.0002C16.1046 21.0002 17 20.1047 17 19.0002H15V19.0002V21.0002ZM11.5 19.0002C11.5 20.1047 12.3954 21.0002 13.5 21.0002V19.0002V19.0002H11.5ZM6.74385 15.7485C7.29638 14.6435 7.28335 13.3824 6.84713 12.2945L4.99078 13.0388C5.23833 13.6562 5.22415 14.3158 4.955 14.8541L6.74385 15.7485ZM6.34164 17.8628C6.1739 17.3596 6.21294 16.8104 6.45015 16.3359L4.6613 15.4415C4.18686 16.3904 4.1088 17.4888 4.44427 18.4953L6.34164 17.8628ZM8.61257 21.0002C9.97769 21.0002 10.9416 19.6628 10.5099 18.3677L8.61257 19.0002V19.0002V21.0002ZM6.72076 19.0002V19.0002L4.82339 19.6326C5.09562 20.4493 5.8599 21.0002 6.72076 21.0002V19.0002ZM17.5 8H17.509V6H17.5V8Z" fill="black"/>
</svg>
