<svg width="24" height="24" viewBox="0 0 24 24" fill="none" xmlns="http://www.w3.org/2000/svg">
<path d="M18 22C18.5523 22 19 21.5523 19 21C19 20.4477 18.5523 20 18 20V22ZM5 7C4.44772 7 4 7.44772 4 8C4 8.55228 4.44772 9 5 9V7ZM16 21C16 21.5523 16.4477 22 17 22C17.5523 22 18 21.5523 18 21H16ZM17 13L17.5145 12.1425C17.2056 11.9571 16.8208 11.9523 16.5073 12.1298C16.1938 12.3073 16 12.6397 16 13H17ZM21 21C21 21.5523 21.4477 22 22 22C22.5523 22 23 21.5523 23 21H21ZM19.087 14.2522L19.6015 13.3947V13.3947L19.087 14.2522ZM7 20.5C7 21.0523 7.44772 21.5 8 21.5C8.55228 21.5 9 21.0523 9 20.5H7ZM11.4472 12.8944C11.9412 12.6474 12.1414 12.0468 11.8944 11.5528C11.6474 11.0588 11.0468 10.8586 10.5528 11.1056L11.4472 12.8944ZM13 14C12.4477 14 12 14.4477 12 15C12 15.5523 12.4477 16 13 16V14ZM15.5015 5C14.9492 5 14.5015 5.44772 14.5015 6C14.5015 6.55228 14.9492 7 15.5015 7V5ZM15.5105 7C16.0628 7 16.5105 6.55228 16.5105 6C16.5105 5.44772 16.0628 5 15.5105 5V7ZM17.5015 5C16.9492 5 16.5015 5.44772 16.5015 6C16.5015 6.55228 16.9492 7 17.5015 7V5ZM17.5105 7C18.0628 7 18.5105 6.55228 18.5105 6C18.5105 5.44772 18.0628 5 17.5105 5V7ZM18 20H8V22H18V20ZM3 15V6H1V15H3ZM5 4H5.5V2H5V4ZM5.5 7H5V9H5.5V7ZM7 5.5C7 6.32843 6.32843 7 5.5 7V9C7.433 9 9 7.433 9 5.5H7ZM5.5 4C6.32843 4 7 4.67157 7 5.5H9C9 3.567 7.433 2 5.5 2V4ZM3 6C3 4.89543 3.89543 4 5 4V2C2.79086 2 1 3.79086 1 6H3ZM8 20C5.23858 20 3 17.7614 3 15H1C1 18.866 4.13401 22 8 22V20ZM18 21V13H16V21H18ZM23 21V19.3971H21V21H23ZM19.6015 13.3947L17.5145 12.1425L16.4855 13.8575L18.5725 15.1097L19.6015 13.3947ZM23 19.3971C23 16.9383 21.7099 14.6598 19.6015 13.3947L18.5725 15.1097C20.0785 16.0133 21 17.6408 21 19.3971H23ZM9 20.5V16.5902H7V20.5H9ZM11.2111 13.0125L11.4472 12.8944L10.5528 11.1056L10.3167 11.2236L11.2111 13.0125ZM9 16.5902C9 15.0751 9.85601 13.69 11.2111 13.0125L10.3167 11.2236C8.28401 12.24 7 14.3175 7 16.5902H9ZM18 21V19H16V21H18ZM18 19C18 16.2386 15.7614 14 13 14V16C14.6569 16 16 17.3431 16 19H18ZM21 7.5V6.5H19V7.5H21ZM12 6.5V7.5H14V6.5H12ZM16.5 2C14.0147 2 12 4.01472 12 6.5H14C14 5.11929 15.1193 4 16.5 4V2ZM21 6.5C21 4.01472 18.9853 2 16.5 2V4C17.8807 4 19 5.11929 19 6.5H21ZM16.5 12C18.9853 12 21 9.98528 21 7.5H19C19 8.88071 17.8807 10 16.5 10V12ZM16.5 10C15.1193 10 14 8.88071 14 7.5H12C12 9.98528 14.0147 12 16.5 12V10ZM15.5015 7H15.5105V5H15.5015V7ZM17.5015 7H17.5105V5H17.5015V7ZM21 6V8C22.1046 8 23 7.10457 23 6H21ZM21 6H19C19 7.10457 19.8954 8 21 8V6ZM21 6V4C19.8954 4 19 4.89543 19 6H21ZM21 6H23C23 4.89543 22.1046 4 21 4V6ZM12 6V8C13.1046 8 14 7.10457 14 6H12ZM12 6H10C10 7.10457 10.8954 8 12 8V6ZM12 6V4C10.8954 4 10 4.89543 10 6H12ZM12 6H14C14 4.89543 13.1046 4 12 4V6Z" fill="black"/>
</svg>
