<svg width="24" height="24" viewBox="0 0 24 24" fill="none" xmlns="http://www.w3.org/2000/svg">
<path d="M5 14L5.6 13.2C5.29698 12.9727 4.89157 12.9362 4.55279 13.1056C4.214 13.275 4 13.6212 4 14H5ZM10.2188 10.6718L9.38675 10.1171L10.2188 10.6718ZM8.17274 13.7409L9.00479 14.2956L8.17274 13.7409ZM5.30864 14.2315L4.70864 15.0315L4.70864 15.0315L5.30864 14.2315ZM17.6258 8.01436C17.3576 8.49714 17.5316 9.10594 18.0144 9.37416C18.4971 9.64237 19.1059 9.46843 19.3742 8.98564L17.6258 8.01436ZM21.8742 4.48564C22.1424 4.00286 21.9684 3.39406 21.4856 3.12584C21.0029 2.85763 20.3941 3.03157 20.1258 3.51436L21.8742 4.48564ZM4 14.5C4 15.0523 4.44772 15.5 5 15.5C5.55228 15.5 6 15.0523 6 14.5H4ZM6.88675 8.74217L7.44145 9.57422L6.88675 8.74217ZM3.11325 8.74217L3.66795 7.91012L3.11325 8.74217ZM2 4L2.5547 3.16795C2.24784 2.96338 1.8533 2.94431 1.52814 3.11833C1.20298 3.29234 1 3.6312 1 4H2ZM5 6L4.4453 6.83205C4.7812 7.05598 5.2188 7.05598 5.5547 6.83205L5 6ZM8 4H9C9 3.6312 8.79702 3.29234 8.47186 3.11833C8.1467 2.94431 7.75216 2.96338 7.4453 3.16795L8 4ZM18 13C17.4477 13 17 13.4477 17 14C17 14.5523 17.4477 15 18 15V13ZM18.009 15C18.5613 15 19.009 14.5523 19.009 14C19.009 13.4477 18.5613 13 18.009 13V15ZM4 14V15H6V14H4ZM10 21H16V19H10V21ZM16 7H15.2111V9H16V7ZM9.38675 10.1171L7.34069 13.1862L9.00479 14.2956L11.0509 11.2265L9.38675 10.1171ZM5.90864 13.4315L5.6 13.2L4.4 14.8L4.70864 15.0315L5.90864 13.4315ZM7.34069 13.1862C7.02225 13.6639 6.36791 13.7759 5.90864 13.4315L4.70864 15.0315C6.08645 16.0648 8.04946 15.7286 9.00479 14.2956L7.34069 13.1862ZM15.2111 7C12.8706 7 10.685 8.16971 9.38675 10.1171L11.0509 11.2265C11.9782 9.83551 13.5393 9 15.2111 9V7ZM23 14C23 10.134 19.866 7 16 7V9C18.7614 9 21 11.2386 21 14H23ZM16 21C19.866 21 23 17.866 23 14H21C21 16.7614 18.7614 19 16 19V21ZM4 15C4 18.3137 6.68629 21 10 21V19C7.79086 19 6 17.2091 6 15H4ZM19.3742 8.98564L21.8742 4.48564L20.1258 3.51436L17.6258 8.01436L19.3742 8.98564ZM6 14.5V10H4V14.5H6ZM5.5547 10.8321L7.44145 9.57422L6.33205 7.91012L4.4453 9.16795L5.5547 10.8321ZM5.5547 9.16795L3.66795 7.91012L2.55855 9.57422L4.4453 10.8321L5.5547 9.16795ZM3 6.66204V4H1V6.66204H3ZM1.4453 4.83205L4.4453 6.83205L5.5547 5.16795L2.5547 3.16795L1.4453 4.83205ZM5.5547 6.83205L8.5547 4.83205L7.4453 3.16795L4.4453 5.16795L5.5547 6.83205ZM7 4V6.66204H9V4H7ZM3.66795 7.91012C3.25065 7.63192 3 7.16357 3 6.66204H1C1 7.83228 1.58485 8.92509 2.55855 9.57422L3.66795 7.91012ZM7.44145 9.57422C8.41515 8.92509 9 7.83228 9 6.66204H7C7 7.16357 6.74935 7.63192 6.33205 7.91012L7.44145 9.57422ZM18 15H18.009V13H18V15Z" fill="black"/>
</svg>
