<svg width="24" height="24" viewBox="0 0 24 24" fill="none" xmlns="http://www.w3.org/2000/svg">
<path d="M3 18C3 17.4477 2.55228 17 2 17C1.44772 17 1 17.4477 1 18H3ZM7 17H8C8 16.9762 7.99915 16.9525 7.99746 16.9288L7 17ZM6.44885 9.28394L5.45139 9.35518L6.44885 9.28394ZM23 18C23 17.4477 22.5523 17 22 17C21.4477 17 21 17.4477 21 18H23ZM17 18L16.0088 17.8678C16.0029 17.9116 16 17.9558 16 18H17ZM18.1145 9.64127L17.1233 9.50911V9.50911L18.1145 9.64127ZM16.4863 20.0669C16.9095 20.4218 17.5402 20.3664 17.8951 19.9432C18.2499 19.52 18.1945 18.8892 17.7713 18.5344L16.4863 20.0669ZM6.22494 18.5342C5.80162 18.8889 5.74599 19.5196 6.10069 19.943C6.45539 20.3663 7.0861 20.4219 7.50943 20.0672L6.22494 18.5342ZM17.5352 13C16.9829 13 16.5352 13.4477 16.5352 14C16.5352 14.5523 16.9829 15 17.5352 15V13ZM22.2852 12C22.8374 12 23.2852 11.5523 23.2852 11C23.2852 10.4477 22.8374 10 22.2852 10V12ZM20.0352 12.5L21.0216 12.6644L20.0352 12.5ZM6.75 14.5C7.30228 14.5 7.75 14.0523 7.75 13.5C7.75 12.9477 7.30228 12.5 6.75 12.5V14.5ZM2 9.5C1.44772 9.5 1 9.94772 1 10.5C1 11.0523 1.44772 11.5 2 11.5V9.5ZM4.25 12L3.26361 12.1644L4.25 12ZM10 9C9.44772 9 9 9.44772 9 10C9 10.5523 9.44772 11 10 11V9ZM10.009 11C10.5613 11 11.009 10.5523 11.009 10C11.009 9.44772 10.5613 9 10.009 9V11ZM15 9C14.4477 9 14 9.44772 14 10C14 10.5523 14.4477 11 15 11V9ZM15.009 11C15.5613 11 16.009 10.5523 16.009 10C16.009 9.44772 15.5613 9 15.009 9V11ZM1 18V18.5H3V18H1ZM8 18.5V17H6V18.5H8ZM7.99746 16.9288L7.44631 9.21269L5.45139 9.35518L6.00254 17.0712L7.99746 16.9288ZM21 18V18.5H23V18H21ZM18 18.5V18H16V18.5H18ZM17.9912 18.1322L19.1057 9.77344L17.1233 9.50911L16.0088 17.8678L17.9912 18.1322ZM19.5 20C18.6716 20 18 19.3284 18 18.5H16C16 20.433 17.567 22 19.5 22V20ZM12.2999 4C15.2429 4 17.5122 6.59202 17.1233 9.50911L19.1057 9.77344C19.6545 5.65738 16.4524 2 12.2999 2V4ZM7.44631 9.21269C7.24511 6.39592 9.476 4 12.2999 4V2C8.31532 2 5.1675 5.38068 5.45139 9.35518L7.44631 9.21269ZM21 18.5C21 19.3284 20.3284 20 19.5 20V22C21.433 22 23 20.433 23 18.5H21ZM4.5 22C6.433 22 8 20.433 8 18.5H6C6 19.3284 5.32843 20 4.5 20V22ZM1 18.5C1 20.433 2.567 22 4.5 22V20C3.67157 20 3 19.3284 3 18.5H1ZM17.7713 18.5344C14.4324 15.7346 9.56416 15.7363 6.22494 18.5342L7.50943 20.0672C10.106 17.8916 13.8912 17.8909 16.4863 20.0669L17.7713 18.5344ZM17.5352 15H18.2645V13H17.5352V15ZM21.8058 12H22.2852V10H21.8058V12ZM21.0216 12.6644C21.0854 12.281 21.4172 12 21.8058 12V10C20.4395 10 19.2734 10.9878 19.0488 12.3356L21.0216 12.6644ZM18.2645 15C19.6308 15 20.7969 14.0122 21.0216 12.6644L19.0488 12.3356C18.9849 12.719 18.6531 13 18.2645 13V15ZM6.75 12.5H6.02069V14.5H6.75V12.5ZM2.47931 9.5H2V11.5H2.47931V9.5ZM5.23639 11.8356C5.01177 10.4878 3.84567 9.5 2.47931 9.5V11.5C2.86799 11.5 3.19971 11.781 3.26361 12.1644L5.23639 11.8356ZM6.02069 12.5C5.63201 12.5 5.30029 12.219 5.23639 11.8356L3.26361 12.1644C3.48823 13.5122 4.65433 14.5 6.02069 14.5V12.5ZM10 11H10.009V9H10V11ZM15 11H15.009V9H15V11Z" fill="black"/>
</svg>
