<svg width="24" height="24" viewBox="0 0 24 24" fill="none" xmlns="http://www.w3.org/2000/svg">
<path d="M17 22C19.2091 22 21 20.2092 21 18C21 16.1228 19.7069 14.5477 17.9629 14.1167C17.3671 13.9694 16.7786 13.7182 16.3994 13.2357L13.2358 9.20915C12.3862 8.12796 10.7243 8.20665 9.98076 9.36328L7.59045 13.0815C7.22245 13.654 6.57663 13.964 5.92121 14.1472C4.2361 14.618 3 16.1647 3 18C3 20.2092 4.79086 22 7 22C8.33542 22 9.518 21.3456 10.2445 20.34C10.4518 20.0531 10.691 19.7854 10.9944 19.6033C11.6134 19.232 12.3866 19.232 13.0056 19.6033C13.309 19.7854 13.5482 20.0531 13.7555 20.34C14.482 21.3456 15.6646 22 17 22Z" stroke="black" stroke-width="2"/>
<path d="M6.5 8.75C6.5 9.7165 5.7165 10.5 4.75 10.5C3.7835 10.5 3 9.7165 3 8.75C3 7.7835 3.7835 7 4.75 7C5.7165 7 6.5 7.7835 6.5 8.75Z" stroke="black" stroke-width="2"/>
<path d="M10.25 3.75C10.25 4.7165 9.4665 5.5 8.5 5.5C7.5335 5.5 6.75 4.7165 6.75 3.75C6.75 2.7835 7.5335 2 8.5 2C9.4665 2 10.25 2.7835 10.25 3.75Z" stroke="black" stroke-width="2"/>
<path d="M17.25 3.75C17.25 4.7165 16.4665 5.5 15.5 5.5C14.5335 5.5 13.75 4.7165 13.75 3.75C13.75 2.7835 14.5335 2 15.5 2C16.4665 2 17.25 2.7835 17.25 3.75Z" stroke="black" stroke-width="2"/>
<path d="M21 8.75C21 9.7165 20.2165 10.5 19.25 10.5C18.2835 10.5 17.5 9.7165 17.5 8.75C17.5 7.7835 18.2835 7 19.25 7C20.2165 7 21 7.7835 21 8.75Z" stroke="black" stroke-width="2"/>
</svg>
