<svg width="24" height="24" viewBox="0 0 24 24" fill="none" xmlns="http://www.w3.org/2000/svg">
<path d="M11.6489 12.9363C12.166 13.1302 12.7424 12.8682 12.9363 12.3511C13.1302 11.834 12.8682 11.2576 12.3511 11.0637L11.6489 12.9363ZM8 5L8.44721 4.10557C8.13723 3.95058 7.76909 3.96714 7.47427 4.14935C7.17945 4.33156 7 4.65342 7 5H8ZM13 7.5L12.5528 8.39443C12.8628 8.54942 13.2309 8.53286 13.5257 8.35065C13.8205 8.16844 14 7.84658 14 7.5H13ZM21 5C21.5523 5 22 4.55228 22 4C22 3.44772 21.5523 3 21 3V5ZM19 3C18.4477 3 18 3.44772 18 4C18 4.55228 18.4477 5 19 5V3ZM21 9L21.9923 9.12403V9.12403L21 9ZM17.7071 8.79289C17.3166 8.40237 16.6834 8.40237 16.2929 8.79289C15.9024 9.18342 15.9024 9.81658 16.2929 10.2071L17.7071 8.79289ZM2 14C2 14.5523 2.44772 15 3 15C3.55228 15 4 14.5523 4 14H2ZM5.77208 19.3162L6.72076 19L5.77208 19.3162ZM5.39296 18.1789L6.34164 17.8626L5.39296 18.1789ZM5.55573 15.8885L4.6613 15.4413H4.6613L5.55573 15.8885ZM5.84942 15.3011L6.74385 15.7484L5.84942 15.3011ZM5.91895 12.6665L6.84713 12.2943L5.91895 12.6665ZM9.56126 18.6838L10.5099 18.3675L9.56126 18.6838ZM9 17L8.02986 16.7575C7.98373 16.942 7.99118 17.1358 8.05132 17.3162L9 17ZM9.5 15L9.6644 14.0136C9.15013 13.9279 8.65631 14.2517 8.52986 14.7575L9.5 15ZM12.5 15.5H13.5C13.5 15.0112 13.1466 14.594 12.6644 14.5136L12.5 15.5ZM17 15C17 14.4477 16.5523 14 16 14C15.4477 14 15 14.4477 15 15H17ZM15.1694 14.4453C14.863 14.9048 14.9872 15.5257 15.4467 15.832C15.9062 16.1384 16.5271 16.0142 16.8335 15.5547L15.1694 14.4453ZM18.0014 9.49999C18.0014 8.94771 17.5537 8.49999 17.0014 8.49999C16.4491 8.49999 16.0014 8.94771 16.0014 9.49999H18.0014ZM9.17924 10.0868C9.73115 10.0663 10.1619 9.60233 10.1415 9.05043C10.121 8.49852 9.65695 8.06772 9.10505 8.08821L9.17924 10.0868ZM17 6C16.4477 6 16 6.44772 16 7C16 7.55228 16.4477 8 17 8V6ZM17.009 8C17.5613 8 18.009 7.55228 18.009 7C18.009 6.44772 17.5613 6 17.009 6V8ZM12.3511 11.0637C12.1833 11.0007 11.8749 10.8166 11.4858 10.4622C11.1099 10.1199 10.7034 9.65927 10.3295 9.10394C9.57802 7.98804 9 6.55435 9 5H7C7 7.04565 7.75532 8.86196 8.67054 10.2211C9.12991 10.9032 9.64009 11.4864 10.1392 11.9409C10.6251 12.3834 11.1501 12.7493 11.6489 12.9363L12.3511 11.0637ZM7.55279 5.89443L12.5528 8.39443L13.4472 6.60557L8.44721 4.10557L7.55279 5.89443ZM14 7.5V7H12V7.5H14ZM16 5H21V3H16V5ZM14 7C14 5.89543 14.8954 5 16 5V3C13.7909 3 12 4.79086 12 7H14ZM19 5C19.0821 5 19.119 5.0174 19.138 5.02811C19.1631 5.04234 19.2027 5.07283 19.2534 5.14133C19.3718 5.30123 19.4542 5.52484 19.5513 5.81623L21.4487 5.18377C21.3647 4.93194 21.1971 4.40555 20.8608 3.95126C20.4901 3.45054 19.886 3 19 3V5ZM20.0077 8.87597C19.985 9.05795 19.8248 9.30985 19.3357 9.38732C18.865 9.46189 18.2323 9.3181 17.7071 8.79289L16.2929 10.2071C17.2677 11.1819 18.5412 11.5381 19.6487 11.3627C20.7377 11.1902 21.8275 10.442 21.9923 9.12403L20.0077 8.87597ZM21.9923 9.12403C22.1749 7.66271 21.9696 6.74646 21.4487 5.18377L19.5513 5.81623C20.0304 7.25354 20.1371 7.8408 20.0077 8.87597L21.9923 9.12403ZM6 9H5V11H6V9ZM2 12V14H4V12H2ZM5 9C3.34315 9 2 10.3431 2 12H4C4 11.4477 4.44772 11 5 11V9ZM6.72076 21H8.61257V19H6.72076V21ZM6.72076 19L6.34164 17.8626L4.44427 18.4951L4.82339 19.6324L6.72076 19ZM6.45015 16.3358L6.74385 15.7484L4.955 14.8539L4.6613 15.4413L6.45015 16.3358ZM6.84713 12.2943C6.75486 12.0642 6.67495 11.85 6.61969 11.6772C6.59201 11.5907 6.57414 11.5258 6.56403 11.4813C6.5513 11.4255 6.56 11.4415 6.56 11.5H4.56C4.56 11.7811 4.65229 12.0912 4.71476 12.2865C4.7908 12.5243 4.89036 12.7882 4.99078 13.0386L6.84713 12.2943ZM10.5099 18.3675L9.94868 16.6838L8.05132 17.3162L8.61257 19L10.5099 18.3675ZM9.97014 17.2425L10.4701 15.2425L8.52986 14.7575L8.02986 16.7575L9.97014 17.2425ZM9.3356 15.9864L12.3356 16.4864L12.6644 14.5136L9.6644 14.0136L9.3356 15.9864ZM11.5 15.5V19H13.5V15.5H11.5ZM13.5 21H15V19H13.5V21ZM17 19V15H15V19H17ZM16.8335 15.5547C17.3732 14.7451 17.7053 14.1095 17.8628 13.1644C18.0049 12.3117 18.0014 11.2075 18.0014 9.49999H16.0014C16.0014 11.2925 15.9979 12.1883 15.89 12.8356C15.7975 13.3905 15.6296 13.7549 15.1694 14.4453L16.8335 15.5547ZM6.56 11.5C6.56 11.2522 6.54947 11.1347 6.57698 10.979C6.59837 10.858 6.63657 10.7775 6.70661 10.7076L5.29339 9.2924C4.44217 10.1424 4.56 11.2762 4.56 11.5H6.56ZM6.70661 10.7076C6.94109 10.4735 7.38491 10.1534 9.17924 10.0868L9.10505 8.08821C7.12682 8.16165 6.06032 8.52655 5.29339 9.2924L6.70661 10.7076ZM15 21C16.1046 21 17 20.1046 17 19H15V21ZM11.5 19C11.5 20.1046 12.3954 21 13.5 21V19H11.5ZM6.74385 15.7484C7.29638 14.6433 7.28335 13.3823 6.84713 12.2943L4.99078 13.0386C5.23833 13.656 5.22415 14.3156 4.955 14.8539L6.74385 15.7484ZM6.34164 17.8626C6.1739 17.3594 6.21294 16.8102 6.45015 16.3358L4.6613 15.4413C4.18686 16.3902 4.1088 17.4887 4.44427 18.4951L6.34164 17.8626ZM8.61257 21C9.97769 21 10.9416 19.6626 10.5099 18.3675L8.61257 19V21ZM6.72076 19L4.82339 19.6324C5.09562 20.4491 5.8599 21 6.72076 21V19ZM17 8H17.009V6H17V8Z" fill="black"/>
</svg>
