<svg width="24" height="24" viewBox="0 0 24 24" fill="none" xmlns="http://www.w3.org/2000/svg">
<path d="M16.9993 10C16.447 10 15.9993 10.4477 15.9993 11C15.9993 11.5523 16.447 12 16.9993 12V10ZM19.9373 4L20.8345 3.55836C20.619 3.12057 20.119 2.90224 19.6514 3.04174C19.1838 3.18124 18.8852 3.63784 18.9448 4.12214L19.9373 4ZM16.1182 7.49979C15.5659 7.50181 15.1198 7.95116 15.1218 8.50344C15.1238 9.05572 15.5732 9.50179 16.1255 9.49977L16.1182 7.49979ZM7.00184 12C7.55412 12 8.00184 11.5523 8.00184 11C8.00184 10.4477 7.55412 10 7.00184 10V12ZM4.07996 4L5.07224 4.12403C5.13266 3.64066 4.83598 3.18407 4.36975 3.04291C3.90351 2.90174 3.40339 3.11708 3.18554 3.55279L4.07996 4ZM7.87361 9.4994C8.42588 9.50272 8.87628 9.05771 8.8796 8.50543C8.88292 7.95316 8.43791 7.50276 7.88563 7.49943L7.87361 9.4994ZM14.3794 18.4851L13.4093 18.2425L14.3794 18.4851ZM14.9896 16.0446L14.0194 15.8021L14.0194 15.8021L14.9896 16.0446ZM15.0419 15.9794L15.4891 16.8739L15.4891 16.8739L15.0419 15.9794ZM15.3424 15.8292L15.7896 16.7236H15.7896L15.3424 15.8292ZM8.10629 15.5528L8.5535 14.6584H8.5535L8.10629 15.5528ZM8.95958 15.9794L8.51236 16.8739L8.51237 16.8739L8.95958 15.9794ZM9.01187 16.0446L9.98201 15.8021L9.01187 16.0446ZM9.62198 18.4851L8.65184 18.7276L9.62198 18.4851ZM10.0007 10.5C9.44843 10.5 9.00071 10.9477 9.00071 11.5C9.00071 12.0523 9.44843 12.5 10.0007 12.5V10.5ZM10.0097 12.5C10.562 12.5 11.0097 12.0523 11.0097 11.5C11.0097 10.9477 10.562 10.5 10.0097 10.5V12.5ZM14.0007 10.5C13.4484 10.5 13.0007 10.9477 13.0007 11.5C13.0007 12.0523 13.4484 12.5 14.0007 12.5V10.5ZM14.0097 12.5C14.562 12.5 15.0097 12.0523 15.0097 11.5C15.0097 10.9477 14.562 10.5 14.0097 10.5V12.5ZM16.9993 12C18.0634 12 19.9213 11.7444 21.0733 10.401C22.324 8.94253 22.3759 6.68981 20.8345 3.55836L19.0401 4.44164C20.4521 7.31019 20.0195 8.55747 19.5551 9.09903C18.992 9.75562 17.9042 10 16.9993 10V12ZM18.9448 4.12214C19.0629 5.08201 19.0831 5.76218 19.0242 6.2484C18.9666 6.72357 18.8435 6.93132 18.741 7.03958C18.6351 7.15129 18.4373 7.27718 17.9967 7.36781C17.5473 7.46025 16.9439 7.49677 16.1182 7.49979L16.1255 9.49977C16.973 9.49668 17.7439 9.46169 18.3997 9.3268C19.0642 9.1901 19.7023 8.93284 20.1928 8.41516C20.6866 7.89403 20.9203 7.22615 21.0096 6.489C21.0976 5.76291 21.0548 4.89409 20.9298 3.87786L18.9448 4.12214ZM7.00184 10C6.07756 10 4.98528 9.75397 4.42579 9.09994C3.96665 8.56323 3.53818 7.31964 4.97439 4.44721L3.18554 3.55279C1.62175 6.68036 1.65422 8.93677 2.90602 10.4001C4.05745 11.746 5.92612 12 7.00184 12V10ZM3.08769 3.87597C2.96152 4.88526 2.91767 5.74996 3.00454 6.47417C3.09275 7.20946 3.32507 7.87611 3.81555 8.398C4.30303 8.9167 4.93831 9.17781 5.6023 9.31797C6.25732 9.45624 7.02702 9.49431 7.87361 9.4994L7.88563 7.49943C7.06332 7.49449 6.46233 7.45544 6.01538 7.36109C5.57741 7.26864 5.37944 7.14164 5.27294 7.02832C5.16945 6.9182 5.04704 6.70891 4.99031 6.23596C4.93224 5.75192 4.95324 5.07605 5.07224 4.12403L3.08769 3.87597ZM11.5623 21H12.4392V19H11.5623V21ZM15.3496 18.7276L15.9597 16.2872L14.0194 15.8021L13.4093 18.2425L15.3496 18.7276ZM15.4891 16.8739L15.7896 16.7236L14.8951 14.9348L14.5946 15.085L15.4891 16.8739ZM18.0007 13.1459V11H16.0007V13.1459H18.0007ZM13.0007 6H11.0007V8H13.0007V6ZM6.00071 11V13.7639H8.00071V11H6.00071ZM7.65907 16.4472L8.51236 16.8739L9.40679 15.085L8.5535 14.6584L7.65907 16.4472ZM8.04173 16.2872L8.65184 18.7276L10.5921 18.2425L9.98201 15.8021L8.04173 16.2872ZM8.51237 16.8739C8.27737 16.7564 8.10545 16.542 8.04173 16.2872L9.98201 15.8021C9.90413 15.4906 9.694 15.2286 9.40678 15.085L8.51237 16.8739ZM6.00071 13.7639C6.00071 14.9002 6.64272 15.939 7.65907 16.4472L8.5535 14.6584C8.21472 14.489 8.00071 14.1427 8.00071 13.7639H6.00071ZM11.0007 6C8.23929 6 6.00071 8.23858 6.00071 11H8.00071C8.00071 9.34315 9.34386 8 11.0007 8V6ZM18.0007 11C18.0007 8.23858 15.7621 6 13.0007 6V8C14.6576 8 16.0007 9.34315 16.0007 11H18.0007ZM15.7896 16.7236C17.1447 16.046 18.0007 14.661 18.0007 13.1459H16.0007C16.0007 13.9034 15.5727 14.596 14.8951 14.9348L15.7896 16.7236ZM15.9597 16.2872C15.896 16.542 15.7241 16.7564 15.4891 16.8739L14.5947 15.085C14.3074 15.2286 14.0973 15.4906 14.0194 15.8021L15.9597 16.2872ZM12.4392 21C13.8158 21 15.0157 20.0631 15.3496 18.7276L13.4093 18.2425C13.298 18.6877 12.898 19 12.4392 19V21ZM11.5623 19C11.1034 19 10.7034 18.6877 10.5921 18.2425L8.65184 18.7276C8.98571 20.0631 10.1857 21 11.5623 21V19ZM10.0007 12.5H10.0097V10.5H10.0007V12.5ZM14.0007 12.5H14.0097V10.5H14.0007V12.5Z" fill="black"/>
</svg>
