<svg width="24" height="24" viewBox="0 0 24 24" fill="none" xmlns="http://www.w3.org/2000/svg">
<path d="M20.9997 16L21.7068 16.7071C21.8943 16.5196 21.9997 16.2652 21.9997 16C21.9997 15.7348 21.8943 15.4804 21.7068 15.2929L20.9997 16ZM20.4139 16.5858L21.121 17.2929L20.4139 16.5858ZM19.7068 14.7071L18.9997 15.4142L19.7068 14.7071ZM18.2926 14.7071L17.5855 14L18.2926 14.7071ZM17.5855 16.5858L16.8784 17.2929L17.5855 16.5858ZM12.9997 15L12.5525 14.1056C12.4895 14.1371 12.43 14.1751 12.375 14.2191L12.9997 15ZM15.5939 13.7029L16.0411 14.5973H16.0411L15.5939 13.7029ZM19.8257 8.28291L18.8495 8.06598L19.8257 8.28291ZM14.7307 4.97967L15.0319 5.93325V5.93325L14.7307 4.97967ZM9.98436 9.03062L10.8788 9.47784L9.98436 9.03062ZM8.99967 11L9.78054 11.6247C9.82454 11.5697 9.8626 11.5102 9.8941 11.4472L8.99967 11ZM13.3864 5.54344L13.8556 6.42654V6.42654L13.3864 5.54344ZM20.9244 3.33853L21.9006 3.55546V3.55546L20.9244 3.33853ZM20.669 3.10443L20.9701 4.05801L20.9701 4.05801L20.669 3.10443ZM12.9997 3L13.0953 2.00458C12.7885 1.97511 12.4852 2.08878 12.2733 2.31266C12.0615 2.53653 11.9647 2.8456 12.011 3.15032L12.9997 3ZM19.0379 4.58454C19.5876 4.63734 20.0761 4.23447 20.1289 3.68472C20.1817 3.13496 19.7788 2.6465 19.2291 2.5937L19.0379 4.58454ZM19.2422 9.52986C18.7064 9.39591 18.1635 9.72167 18.0295 10.2575C17.8956 10.7933 18.2213 11.3362 18.7571 11.4701L19.2422 9.52986ZM20.9997 11L20.7571 11.9701C21.0729 12.0491 21.4073 11.9694 21.6536 11.7566C21.8998 11.5437 22.0271 11.2244 21.9947 10.9005L20.9997 11ZM21.4947 5.9005C21.4398 5.35095 20.9497 4.95001 20.4002 5.00496C19.8506 5.05992 19.4497 5.54996 19.5046 6.0995L21.4947 5.9005ZM7.91389 9.91421L8.62099 9.20711L8.62099 9.20711L7.91389 9.91421ZM9.29257 4.29289L9.99967 3.58579L9.99967 3.58579L9.29257 4.29289ZM7.99967 3L8.70678 2.29289C8.31626 1.90237 7.68309 1.90237 7.29257 2.29289L7.99967 3ZM7.91389 7.08579L7.20678 6.37868V6.37868L7.91389 7.08579ZM7.41389 6.41421L8.12099 5.70711L8.12099 5.70711L7.41389 6.41421ZM9.34222 17.926L8.71752 17.1451L9.34222 17.926ZM9.2154 20.2157L8.50829 20.9228L9.2154 20.2157ZM11.4469 21.3944C11.9409 21.1474 12.1411 20.5468 11.8941 20.0528C11.6471 19.5588 11.0464 19.3586 10.5525 19.6056L11.4469 21.3944ZM6.07371 14.6575L5.29284 14.0328L5.29284 14.0328L6.07371 14.6575ZM3.78395 14.7843L4.49106 14.0772L3.78395 14.7843ZM4.3941 13.4472C4.64109 12.9532 4.44087 12.3526 3.94689 12.1056C3.45291 11.8586 2.85224 12.0588 2.60525 12.5528L4.3941 13.4472ZM2.79257 9.79289C2.40204 10.1834 2.40204 10.8166 2.79257 11.2071C3.18309 11.5976 3.81626 11.5976 4.20678 11.2071L2.79257 9.79289ZM12.7926 19.7929C12.402 20.1834 12.402 20.8166 12.7926 21.2071C13.1831 21.5976 13.8163 21.5976 14.2068 21.2071L12.7926 19.7929ZM11.4997 9.5C10.9474 9.5 10.4997 9.94772 10.4997 10.5C10.4997 11.0523 10.9474 11.5 11.4997 11.5V9.5ZM11.5087 11.5C12.061 11.5 12.5087 11.0523 12.5087 10.5C12.5087 9.94772 12.061 9.5 11.5087 9.5V11.5ZM13.4997 11.5C12.9474 11.5 12.4997 11.9477 12.4997 12.5C12.4997 13.0523 12.9474 13.5 13.4997 13.5V11.5ZM13.5087 13.5C14.061 13.5 14.5087 13.0523 14.5087 12.5C14.5087 11.9477 14.061 11.5 13.5087 11.5V13.5ZM20.2926 15.2929L19.7068 15.8787L21.121 17.2929L21.7068 16.7071L20.2926 15.2929ZM21.7068 15.2929L20.4139 14L18.9997 15.4142L20.2926 16.7071L21.7068 15.2929ZM17.5855 14L16.2926 15.2929L17.7068 16.7071L18.9997 15.4142L17.5855 14ZM16.2926 16.7071L16.8784 17.2929L18.2926 15.8787L17.7068 15.2929L16.2926 16.7071ZM16.2926 15.2929L16.2068 15.3787L17.621 16.7929L17.7068 16.7071L16.2926 15.2929ZM14.7926 15.3787L13.7068 14.2929L12.2926 15.7071L13.3784 16.7929L14.7926 15.3787ZM16.2068 15.3787C15.8163 15.7692 15.1831 15.7692 14.7926 15.3787L13.3784 16.7929C14.5499 17.9645 16.4494 17.9645 17.621 16.7929L16.2068 15.3787ZM20.4139 14C19.6328 13.219 18.3665 13.219 17.5855 14L18.9997 15.4142L20.4139 14ZM19.7068 15.8787C19.3163 16.2692 18.6831 16.2692 18.2926 15.8787L16.8784 17.2929C18.0499 18.4645 19.9494 18.4645 21.121 17.2929L19.7068 15.8787ZM13.4469 15.8944L16.0411 14.5973L15.1467 12.8085L12.5525 14.1056L13.4469 15.8944ZM9.08994 8.58341L8.10525 10.5528L9.8941 11.4472L10.8788 9.47784L9.08994 8.58341ZM16.0411 14.5973C18.4652 13.3853 20.214 11.1455 20.8019 8.49984L18.8495 8.06598C18.3922 10.1237 17.0321 11.8658 15.1467 12.8085L16.0411 14.5973ZM14.4296 4.02609C13.9035 4.19223 13.3976 4.4051 12.9172 4.66033L13.8556 6.42654C14.2291 6.22807 14.6226 6.06251 15.0319 5.93325L14.4296 4.02609ZM12.9172 4.66033C11.2765 5.532 9.93282 6.89764 9.08994 8.58341L10.8788 9.47784C11.5343 8.16676 12.5794 7.10455 13.8556 6.42654L12.9172 4.66033ZM21.9006 3.55546C22.1011 2.6532 21.2492 1.87252 20.3678 2.15085L20.9701 4.05801C20.3825 4.24357 19.8146 3.72311 19.9483 3.1216L21.9006 3.55546ZM14.375 5.39312L13.9883 2.84968L12.011 3.15032L12.3978 5.69376L14.375 5.39312ZM12.9041 3.99542L19.0379 4.58454L19.2291 2.5937L13.0953 2.00458L12.9041 3.99542ZM18.7571 11.4701L20.7571 11.9701L21.2422 10.0299L19.2422 9.52986L18.7571 11.4701ZM21.9947 10.9005L21.4947 5.9005L19.5046 6.0995L20.0046 11.0995L21.9947 10.9005ZM9.70678 10.2929L8.62099 9.20711L7.20678 10.6213L8.29256 11.7071L9.70678 10.2929ZM9.99967 3.58579L8.70678 2.29289L7.29257 3.70711L8.58546 5L9.99967 3.58579ZM7.29257 2.29289L6.70678 2.87868L8.12099 4.29289L8.70678 3.70711L7.29257 2.29289ZM8.62099 7.79289L8.70678 7.70711L7.29257 6.29289L7.20678 6.37868L8.62099 7.79289ZM8.70678 7.70711L9.99967 6.41421L8.58546 5L7.29257 6.29289L8.70678 7.70711ZM6.70678 7.12132L7.29257 7.70711L8.70678 6.29289L8.12099 5.70711L6.70678 7.12132ZM6.70678 2.87868C5.53521 4.05025 5.53521 5.94975 6.70678 7.12132L8.12099 5.70711C7.73047 5.31658 7.73047 4.68342 8.12099 4.29289L6.70678 2.87868ZM8.58546 5L8.58546 5L9.99967 6.41421C10.7807 5.63316 10.7807 4.36683 9.99967 3.58579L8.58546 5ZM8.62099 9.20711C8.23047 8.81658 8.23047 8.18342 8.62099 7.79289L7.20678 6.37868C6.03521 7.55025 6.0352 9.44975 7.20678 10.6213L8.62099 9.20711ZM12.375 14.2191L8.71752 17.1451L9.96691 18.7068L13.6244 15.7809L12.375 14.2191ZM8.50829 20.9228C9.28576 21.7003 10.4755 21.8801 11.4469 21.3944L10.5525 19.6056C10.339 19.7123 10.0818 19.6679 9.9225 19.5086L8.50829 20.9228ZM8.71752 17.1451C7.53593 18.0904 7.43831 19.8529 8.50829 20.9228L9.9225 19.5086C9.69541 19.2815 9.71613 18.9075 9.96691 18.7068L8.71752 17.1451ZM8.2188 10.3753L5.29284 14.0328L6.85458 15.2822L9.78054 11.6247L8.2188 10.3753ZM4.49106 14.0772C4.3318 13.9179 4.28735 13.6607 4.3941 13.4472L2.60525 12.5528C2.11955 13.5242 2.29937 14.7139 3.07684 15.4914L4.49106 14.0772ZM5.29284 14.0328C5.09221 14.2835 4.71815 14.3043 4.49106 14.0772L3.07684 15.4914C4.14682 16.5614 5.9093 16.4637 6.85458 15.2822L5.29284 14.0328ZM14.2068 17.7929L6.20678 9.79289L4.79257 11.2071L12.7926 19.2071L14.2068 17.7929ZM6.20678 9.79289C5.26397 8.85008 3.73537 8.85008 2.79257 9.79289L4.20678 11.2071C4.36854 11.0453 4.63081 11.0453 4.79257 11.2071L6.20678 9.79289ZM14.2068 21.2071C15.1496 20.2643 15.1496 18.7357 14.2068 17.7929L12.7926 19.2071C12.9543 19.3689 12.9543 19.6311 12.7926 19.7929L14.2068 21.2071ZM11.4997 11.5H11.5087V9.5H11.4997V11.5ZM13.4997 13.5H13.5087V11.5H13.4997V13.5ZM20.8019 8.49984L21.9006 3.55546L19.9483 3.1216L18.8495 8.06598L20.8019 8.49984ZM20.3678 2.15085L14.4296 4.02609L15.0319 5.93325L20.9701 4.05801L20.3678 2.15085Z" fill="black"/>
</svg>
