<svg width="24" height="24" viewBox="0 0 24 24" fill="none" xmlns="http://www.w3.org/2000/svg">
<path d="M11 8.5C11 9.05228 11.4477 9.5 12 9.5C12.5523 9.5 13 9.05228 13 8.5H11ZM8.4808 12.8928L9.11105 13.6692C9.47119 13.3768 9.58301 12.8752 9.38111 12.4576C9.17922 12.0399 8.71663 11.816 8.26381 11.9166L8.4808 12.8928ZM20 21C20.5523 21 21 20.5523 21 20C21 19.4477 20.5523 19 20 19V21ZM15.5 14C14.9477 14 14.5 14.4477 14.5 15C14.5 15.5523 14.9477 16 15.5 16V14ZM17 16.3411C17 16.8934 17.4477 17.3411 18 17.3411C18.5523 17.3411 19 16.8934 19 16.3411H17ZM18 12V11C17.4477 11 17 11.4477 17 12H18ZM18 6H17C17 6.55228 17.4477 7 18 7V6ZM19 4C19 3.44772 18.5523 3 18 3C17.4477 3 17 3.44772 17 4H19ZM16 4C16 3.44772 15.5523 3 15 3C14.4477 3 14 3.44772 14 4H16ZM13.5 12.5L12.7929 11.7929V11.7929L13.5 12.5ZM10 17C10 17.5523 10.4477 18 11 18C11.5523 18 12 17.5523 12 17H10ZM18 8C17.4477 8 17 8.44772 17 9C17 9.55228 17.4477 10 18 10V8ZM18.009 10C18.5613 10 19.009 9.55228 19.009 9C19.009 8.44772 18.5613 8 18.009 8V10ZM7.5 12C5.567 12 4 10.433 4 8.5H2C2 11.5376 4.46243 14 7.5 14V12ZM4 8.5C4 6.567 5.567 5 7.5 5V3C4.46243 3 2 5.46243 2 8.5H4ZM7.5 5C9.433 5 11 6.567 11 8.5H13C13 5.46243 10.5376 3 7.5 3V5ZM11 19C9.34315 19 8 17.6569 8 16H6C6 18.7614 8.23858 21 11 21V19ZM8 16C8 15.0597 8.43146 14.2209 9.11105 13.6692L7.85055 12.1164C6.72323 13.0315 6 14.4317 6 16H8ZM8.26381 11.9166C8.01886 11.9711 7.7634 12 7.5 12V14C7.91032 14 8.31129 13.9549 8.69779 13.869L8.26381 11.9166ZM20 19H17.7361V21H20V19ZM17.7361 19H11V21H17.7361V19ZM15.5 16C16.6046 16 17.5 16.8954 17.5 18H19.5C19.5 15.7909 17.7091 14 15.5 14V16ZM17.5 18C17.5 18.5129 17.3083 18.9786 16.991 19.3331L18.4812 20.6669C19.114 19.9599 19.5 19.0238 19.5 18H17.5ZM19 16.3411V12H17V16.3411H19ZM18 13C18.7632 13 19.7278 12.6483 20.4997 12.0309C21.3032 11.3881 22 10.3717 22 9H20C20 9.62826 19.6968 10.1119 19.2503 10.4691C18.7721 10.8517 18.2368 11 18 11V13ZM22 9C22 7.57436 21.3166 6.54839 20.4863 5.90699C19.6932 5.29433 18.7299 5 18 5V7C18.2701 7 18.8068 7.13684 19.2637 7.48976C19.6834 7.81395 20 8.28798 20 9H22ZM19 6V4H17V6H19ZM14 4V9H16V4H14ZM14 9C14 9.48678 13.7526 10.8332 12.7929 11.7929L14.2071 13.2071C15.6474 11.7668 16 9.84655 16 9H14ZM12.7929 11.7929C11.3193 13.2665 10 14.5375 10 17H12C12 15.4625 12.6807 14.7335 14.2071 13.2071L12.7929 11.7929ZM18 10H18.009V8H18V10Z" fill="black"/>
</svg>
