<svg width="24" height="24" viewBox="0 0 24 24" fill="none" xmlns="http://www.w3.org/2000/svg">
<path opacity="0.14" d="M3 21H21L20 18L20.5149 15.9403C20.8371 14.6516 21 13.3283 21 12C21 10.6717 20.8371 9.34837 20.5149 8.05971L20 6L21 3H3L4 6L3.48507 8.05971C3.16291 9.34837 3 10.6717 3 12C3 13.3283 3.16291 14.6516 3.48507 15.9403L4 18L3 21Z" fill="black" stroke="black" stroke-width="2" stroke-linecap="round" stroke-linejoin="round"/>
<path d="M20 18L21 21H3L4 18M20 18H4M20 18L20.5149 15.9403C20.8371 14.6516 21 13.3283 21 12C21 10.6717 20.8371 9.34837 20.5149 8.05971L20 6M4 18L3.48507 15.9403C3.16291 14.6516 3 13.3283 3 12C3 10.6717 3.16291 9.34837 3.48507 8.05971L4 6M20 6L21 3H3L4 6M20 6H4M12 15V11.5M12 13V12M12 13H13C14.6569 13 16 11.6569 16 10V9H15C13.3431 9 12 10.3431 12 12M12 13H11C9.34315 13 8 11.6569 8 10V9H9C10.6569 9 12 10.3431 12 12" stroke="black" stroke-width="2" stroke-linecap="round" stroke-linejoin="round"/>
</svg>
