<svg width="24" height="24" viewBox="0 0 24 24" fill="none" xmlns="http://www.w3.org/2000/svg">
<g opacity="0.14">
<path d="M2 16.7733V20C2 20.5523 2.44772 21 3 21H8.5C9.05228 21 9.5 20.5523 9.5 20V7C9.5 6.44772 9.05228 6 8.5 6H5C4.44772 6 4 6.44772 4 7V9.72671C4 10.5662 3.82383 11.3964 3.48287 12.1635L2.51713 14.3365C2.17617 15.1036 2 15.9338 2 16.7733Z" fill="black"/>
<path d="M22 16.7733V20C22 20.5523 21.5523 21 21 21H15.5C14.9477 21 14.5 20.5523 14.5 20V7C14.5 6.44772 14.9477 6 15.5 6H19C19.5523 6 20 6.44772 20 7V9.72671C20 10.5662 20.1762 11.3964 20.5171 12.1635L21.4829 14.3365C21.8238 15.1036 22 15.9338 22 16.7733Z" fill="black"/>
</g>
<path d="M9.5 9H14.5M14.5 13H9.5M5.25 3H8.25M15.75 3H18.75M2 20V16.7733C2 15.9338 2.17617 15.1036 2.51713 14.3365L3.48287 12.1635C3.82383 11.3964 4 10.5662 4 9.72671V7C4 6.44772 4.44772 6 5 6H8.5C9.05228 6 9.5 6.44772 9.5 7V20C9.5 20.5523 9.05228 21 8.5 21H3C2.44772 21 2 20.5523 2 20ZM22 20V16.7733C22 15.9338 21.8238 15.1036 21.4829 14.3365L20.5171 12.1635C20.1762 11.3964 20 10.5662 20 9.72671V7C20 6.44772 19.5523 6 19 6H15.5C14.9477 6 14.5 6.44772 14.5 7V20C14.5 20.5523 14.9477 21 15.5 21H21C21.5523 21 22 20.5523 22 20Z" stroke="black" stroke-width="2" stroke-linecap="round" stroke-linejoin="round"/>
</svg>
