<svg width="24" height="24" viewBox="0 0 24 24" fill="none" xmlns="http://www.w3.org/2000/svg">
<g opacity="0.14">
<path d="M4.5 7.5C4.5 6.67157 5.17157 6 6 6C6.82843 6 7.5 6.67157 7.5 7.5V9.5C7.5 10.3284 6.82843 11 6 11C5.17157 11 4.5 10.3284 4.5 9.5V7.5Z" fill="black"/>
<path d="M16.1697 13.691C16.5198 12.9401 17.4123 12.6153 18.1631 12.9654C18.9139 13.3155 19.2388 14.208 18.8886 14.9588L18.0434 16.7714C17.6933 17.5222 16.8008 17.8471 16.05 17.497C15.2992 17.1469 14.9744 16.2544 15.3245 15.5036L16.1697 13.691Z" fill="black"/>
<path d="M4.5 7.5C4.5 6.67157 5.17157 6 6 6C6.82843 6 7.5 6.67157 7.5 7.5V9.5C7.5 10.3284 6.82843 11 6 11C5.17157 11 4.5 10.3284 4.5 9.5V7.5Z" stroke="black" stroke-width="2" stroke-linecap="round" stroke-linejoin="round"/>
<path d="M16.1697 13.691C16.5198 12.9401 17.4123 12.6153 18.1631 12.9654C18.9139 13.3155 19.2388 14.208 18.8886 14.9588L18.0434 16.7714C17.6933 17.5222 16.8008 17.8471 16.05 17.497C15.2992 17.1469 14.9744 16.2544 15.3245 15.5036L16.1697 13.691Z" stroke="black" stroke-width="2" stroke-linecap="round" stroke-linejoin="round"/>
</g>
<path d="M1.02986 12.7575C0.895909 13.2933 1.22167 13.8362 1.75746 13.9701C2.29326 14.1041 2.83619 13.7783 2.97014 13.2425L1.02986 12.7575ZM2.5 11L2.05279 10.1056C1.79168 10.2361 1.60066 10.4742 1.52986 10.7575L2.5 11ZM5.0202 10.8579C5.51418 10.6109 5.7144 10.0103 5.46741 9.51629C5.22042 9.02231 4.61975 8.82208 4.12577 9.06907L5.0202 10.8579ZM2.5 7.5L1.52986 7.74254C1.64115 8.1877 2.04113 8.5 2.5 8.5V7.5ZM2.97014 5.25746C2.83619 4.72167 2.29326 4.39591 1.75746 4.52986C1.22167 4.66381 0.895909 5.20674 1.02986 5.74254L2.97014 5.25746ZM8.39443 3.44721C8.64142 2.95324 8.44119 2.35256 7.94721 2.10557C7.45324 1.85858 6.85256 2.05881 6.60557 2.55279L8.39443 3.44721ZM5.39443 2.55279C5.14744 2.05881 4.54676 1.85858 4.05279 2.10557C3.55881 2.35256 3.35858 2.95324 3.60557 3.44721L5.39443 2.55279ZM9.5 7.5V8.5C9.95887 8.5 10.3589 8.1877 10.4701 7.74254L9.5 7.5ZM10.9701 5.74254C11.1041 5.20674 10.7783 4.66381 10.2425 4.52986C9.70674 4.39591 9.16381 4.72167 9.02986 5.25746L10.9701 5.74254ZM9.02986 13.2425C9.16381 13.7783 9.70674 14.1041 10.2425 13.9701C10.7783 13.8362 11.1041 13.2933 10.9701 12.7575L9.02986 13.2425ZM9.5 11L10.4701 10.7575C10.3993 10.4742 10.2083 10.2361 9.94721 10.1056L9.5 11ZM7.87423 9.06907C7.38025 8.82208 6.77958 9.02231 6.53259 9.51629C6.2856 10.0103 6.48582 10.6109 6.9798 10.8579L7.87423 9.06907ZM15.3245 15.5036L16.2308 15.9262L15.3245 15.5036ZM18.0434 16.7714L18.9497 17.194L18.0434 16.7714ZM18.8886 14.9588L17.9823 14.5362L18.8886 14.9588ZM16.1697 13.691L15.2634 13.2683L16.1697 13.691ZM21.4129 11.6638C21.8455 11.3205 21.918 10.6915 21.5748 10.2589C21.2316 9.8262 20.6026 9.75371 20.1699 10.097L21.4129 11.6638ZM19.0699 9.58524C19.0549 9.03316 18.5951 8.59784 18.043 8.61292C17.4909 8.62801 17.0556 9.08778 17.0707 9.63986L19.0699 9.58524ZM20.6993 15.8041L20.2767 16.7104C20.6926 16.9043 21.1871 16.7903 21.4761 16.4339L20.6993 15.8041ZM22.7745 14.8326C23.1223 14.4036 23.0565 13.7738 22.6275 13.426C22.1985 13.0782 21.5688 13.144 21.221 13.5729L22.7745 14.8326ZM14.3594 12.8457L13.3776 12.6555C13.2904 13.106 13.5209 13.5581 13.9368 13.752L14.3594 12.8457ZM15.7332 11.012C15.8382 10.4698 15.4838 9.94507 14.9416 9.84003C14.3994 9.73499 13.8747 10.0894 13.7697 10.6316L15.7332 11.012ZM10.8053 16.9893C10.4574 17.4182 10.5232 18.048 10.9522 18.3958C11.3812 18.7437 12.0109 18.6779 12.3588 18.2489L10.8053 16.9893ZM12.8804 16.0178L12.8531 15.0181C12.5613 15.0261 12.2875 15.1612 12.1037 15.388L12.8804 16.0178ZM15.2245 16.9541C15.7766 16.939 16.2119 16.4792 16.1969 15.9272C16.1818 15.3751 15.722 14.9398 15.1699 14.9548L15.2245 16.9541ZM17.852 20.8098C17.747 21.352 18.1014 21.8767 18.6436 21.9818C19.1858 22.0868 19.7105 21.7324 19.8155 21.1902L17.852 20.8098ZM19.2259 18.9761L20.2076 19.1663C20.2631 18.8797 20.1907 18.5831 20.0092 18.3545L19.2259 18.9761ZM18.5685 16.539C18.2252 16.1064 17.5961 16.034 17.1635 16.3773C16.7309 16.7206 16.6585 17.3497 17.0018 17.7823L18.5685 16.539ZM6.5 7.5V9.5H8.5V7.5H6.5ZM5.5 9.5V7.5H3.5V9.5H5.5ZM6 10C5.72386 10 5.5 9.77614 5.5 9.5H3.5C3.5 10.8807 4.61929 12 6 12V10ZM6.5 9.5C6.5 9.77614 6.27614 10 6 10V12C7.38071 12 8.5 10.8807 8.5 9.5H6.5ZM6 7C6.27614 7 6.5 7.22386 6.5 7.5H8.5C8.5 6.11929 7.38071 5 6 5V7ZM6 5C4.61929 5 3.5 6.11929 3.5 7.5H5.5C5.5 7.22386 5.72386 7 6 7V5ZM2.97014 13.2425L3.47014 11.2425L1.52986 10.7575L1.02986 12.7575L2.97014 13.2425ZM2.94721 11.8944L5.0202 10.8579L4.12577 9.06907L2.05279 10.1056L2.94721 11.8944ZM4.5 6.5H2.5V8.5H4.5V6.5ZM3.47014 7.25746L2.97014 5.25746L1.02986 5.74254L1.52986 7.74254L3.47014 7.25746ZM6.89443 6.44721L8.39443 3.44721L6.60557 2.55279L5.10557 5.55279L6.89443 6.44721ZM6.89443 5.55279L5.39443 2.55279L3.60557 3.44721L5.10557 6.44721L6.89443 5.55279ZM7.5 8.5H9.5V6.5H7.5V8.5ZM10.4701 7.74254L10.9701 5.74254L9.02986 5.25746L8.52986 7.25746L10.4701 7.74254ZM10.9701 12.7575L10.4701 10.7575L8.52986 11.2425L9.02986 13.2425L10.9701 12.7575ZM9.94721 10.1056L7.87423 9.06907L6.9798 10.8579L9.05279 11.8944L9.94721 10.1056ZM17.9823 14.5362L17.1371 16.3488L18.9497 17.194L19.795 15.3814L17.9823 14.5362ZM16.2308 15.9262L17.076 14.1136L15.2634 13.2683L14.4182 15.081L16.2308 15.9262ZM16.4726 16.5907C16.2224 16.4739 16.1141 16.1765 16.2308 15.9262L14.4182 15.081C13.8347 16.3323 14.3761 17.8198 15.6274 18.4033L16.4726 16.5907ZM17.1371 16.3488C17.0204 16.5991 16.7229 16.7074 16.4726 16.5907L15.6274 18.4033C16.8788 18.9868 18.3662 18.4454 18.9497 17.194L17.1371 16.3488ZM17.7405 13.8717C17.9908 13.9884 18.099 14.2859 17.9823 14.5362L19.795 15.3814C20.3785 14.1301 19.8371 12.6426 18.5857 12.0591L17.7405 13.8717ZM18.5857 12.0591C17.3344 11.4756 15.8469 12.017 15.2634 13.2683L17.076 14.1136C17.1927 13.8633 17.4902 13.755 17.7405 13.8717L18.5857 12.0591ZM18.7846 13.7488L21.4129 11.6638L20.1699 10.097L17.5416 12.182L18.7846 13.7488ZM19.1615 12.9381L19.0699 9.58524L17.0707 9.63986L17.1623 12.9927L19.1615 12.9381ZM18.4641 15.8651L20.2767 16.7104L21.122 14.8978L19.3093 14.0525L18.4641 15.8651ZM21.4761 16.4339L22.7745 14.8326L21.221 13.5729L19.9226 15.1743L21.4761 16.4339ZM16.5946 12.7846L14.782 11.9394L13.9368 13.752L15.7494 14.5972L16.5946 12.7846ZM15.3411 13.0359L15.7332 11.012L13.7697 10.6316L13.3776 12.6555L15.3411 13.0359ZM12.3588 18.2489L13.6572 16.6476L12.1037 15.388L10.8053 16.9893L12.3588 18.2489ZM12.9077 17.0174L15.2245 16.9541L15.1699 14.9548L12.8531 15.0181L12.9077 17.0174ZM19.8155 21.1902L20.2076 19.1663L18.2441 18.7859L17.852 20.8098L19.8155 21.1902ZM20.0092 18.3545L18.5685 16.539L17.0018 17.7823L18.4426 19.5977L20.0092 18.3545Z" fill="black"/>
</svg>
