<svg width="24" height="24" viewBox="0 0 24 24" fill="none" xmlns="http://www.w3.org/2000/svg">
<g opacity="0.14">
<path d="M15.5 16V19H18C19.6569 19 21 17.6569 21 16V12.5C21 11.6716 20.3284 11 19.5 11C18.6716 11 18 11.6716 18 12.5V15.5C18 15.7761 17.7761 16 17.5 16H15.5Z" fill="black"/>
<path d="M8.5 14V11H6.5C6.22386 11 6 10.7761 6 10.5V7.5C6 6.67157 5.32843 6 4.5 6C3.67157 6 3 6.67157 3 7.5V11C3 12.6569 4.34315 14 6 14H8.5Z" fill="black"/>
<path d="M8.5 14V21H15.5V19V16V6.5C15.5 4.567 13.933 3 12 3C10.067 3 8.5 4.567 8.5 6.5V11V14Z" fill="black"/>
</g>
<path d="M8.5 21H7.5C7.5 21.5523 7.94772 22 8.5 22V21ZM15.5 21V22C16.0523 22 16.5 21.5523 16.5 21H15.5ZM15.5 18C14.9477 18 14.5 18.4477 14.5 19C14.5 19.5523 14.9477 20 15.5 20V18ZM15.5 15C14.9477 15 14.5 15.4477 14.5 16C14.5 16.5523 14.9477 17 15.5 17V15ZM8.5 15C9.05228 15 9.5 14.5523 9.5 14C9.5 13.4477 9.05228 13 8.5 13V15ZM8.5 12C9.05228 12 9.5 11.5523 9.5 11C9.5 10.4477 9.05228 10 8.5 10V12ZM13 16C12.4477 16 12 16.4477 12 17C12 17.5523 12.4477 18 13 18V16ZM13.009 18C13.5613 18 14.009 17.5523 14.009 17C14.009 16.4477 13.5613 16 13.009 16V18ZM11 9C10.4477 9 10 9.44772 10 10C10 10.5523 10.4477 11 11 11V9ZM11.009 11C11.5613 11 12.009 10.5523 12.009 10C12.009 9.44772 11.5613 9 11.009 9V11ZM9.5 21V6.5H7.5V21H9.5ZM14.5 6.5V21H16.5V6.5H14.5ZM15.5 20H8.5V22H15.5V20ZM12 4C13.3807 4 14.5 5.11929 14.5 6.5H16.5C16.5 4.01472 14.4853 2 12 2V4ZM9.5 6.5C9.5 5.11929 10.6193 4 12 4V2C9.51472 2 7.5 4.01472 7.5 6.5H9.5ZM15.5 20H18V18H15.5V20ZM22 16V12.5H20V16H22ZM17 12.5V15.5H19V12.5H17ZM17.5 15H15.5V17H17.5V15ZM17 15.5C17 15.2239 17.2239 15 17.5 15V17C18.3284 17 19 16.3284 19 15.5H17ZM19.5 10C18.1193 10 17 11.1193 17 12.5H19C19 12.2239 19.2239 12 19.5 12V10ZM22 12.5C22 11.1193 20.8807 10 19.5 10V12C19.7761 12 20 12.2239 20 12.5H22ZM18 20C20.2091 20 22 18.2091 22 16H20C20 17.1046 19.1046 18 18 18V20ZM8.5 13H6V15H8.5V13ZM4 11V7.5H2V11H4ZM5 7.5V10.5H7V7.5H5ZM6.5 12H8.5V10H6.5V12ZM5 10.5C5 11.3284 5.67157 12 6.5 12V10C6.77614 10 7 10.2239 7 10.5H5ZM4.5 7C4.77614 7 5 7.22386 5 7.5H7C7 6.11929 5.88071 5 4.5 5V7ZM4 7.5C4 7.22386 4.22386 7 4.5 7V5C3.11929 5 2 6.11929 2 7.5H4ZM6 13C4.89543 13 4 12.1046 4 11H2C2 13.2091 3.79086 15 6 15V13ZM13 18H13.009V16H13V18ZM11 11H11.009V9H11V11Z" fill="black"/>
</svg>
