<svg width="24" height="24" viewBox="0 0 24 24" fill="none" xmlns="http://www.w3.org/2000/svg">
<path opacity="0.14" d="M9.5 10C9.5 6.5 11 3 12 2C13 3 14.5 6.5 14.5 10C16.5 7.5 18.5 7 20 7C20 8.5 20 11 17.5 13L21 14.5C19 16.5 16 16 16 16L17 19L12 17.5L7 19L8 16C8 16 5 16.5 3 14.5L6.5 13C4 11 4 8.5 4 7C5.5 7 7.5 7.5 9.5 10Z" fill="black"/>
<path d="M12 22V15M12 2C11 3 9.5 6.5 9.5 10C7.5 7.5 5.5 7 4 7C4 8.5 4 11 6.5 13L3 14.5C5 16.5 8 16 8 16L7 19L12 17.5L17 19L16 16C16 16 19 16.5 21 14.5L17.5 13C20 11 20 8.5 20 7C18.5 7 16.5 7.5 14.5 10C14.5 6.5 13 3 12 2Z" stroke="black" stroke-width="2" stroke-linecap="round" stroke-linejoin="round"/>
</svg>
