<svg width="24" height="24" viewBox="0 0 24 24" fill="none" xmlns="http://www.w3.org/2000/svg">
<path opacity="0.14" fill-rule="evenodd" clip-rule="evenodd" d="M15.5 3C18.5376 3 21 5.46243 21 8.5C21 9.82963 20.5282 11.0491 19.7428 12C20.5282 12.9509 21 14.1704 21 15.5C21 18.5376 18.5376 21 15.5 21C14.1704 21 12.9509 20.5282 12 19.7428C11.0491 20.5282 9.82963 21 8.5 21C5.46243 21 3 18.5376 3 15.5C3 14.1704 3.47182 12.9509 4.25716 12C3.47182 11.0491 3 9.82963 3 8.5C3 5.46243 5.46243 3 8.5 3C9.82963 3 11.0491 3.47182 12 4.25716C12.9509 3.47182 14.1704 3 15.5 3ZM12 14.5C13.3807 14.5 14.5 13.3807 14.5 12C14.5 10.6193 13.3807 9.5 12 9.5C10.6193 9.5 9.5 10.6193 9.5 12C9.5 13.3807 10.6193 14.5 12 14.5Z" fill="black"/>
<path d="M19.7428 12L18.9718 11.3632C18.6665 11.7329 18.6665 12.2671 18.9718 12.6368L19.7428 12ZM12 4.25716L11.3632 5.02821C11.7329 5.33348 12.2671 5.33348 12.6368 5.02821L12 4.25716ZM4.25716 12L5.02821 12.6368C5.33348 12.2671 5.33348 11.7329 5.02821 11.3632L4.25716 12ZM12 19.7428L12.6368 18.9718C12.2671 18.6665 11.7329 18.6665 11.3632 18.9718L12 19.7428ZM15.5 4C17.9853 4 20 6.01472 20 8.5H22C22 4.91015 19.0899 2 15.5 2V4ZM20 8.5C20 9.58876 19.6146 10.5849 18.9718 11.3632L20.5139 12.6368C21.4418 11.5133 22 10.0705 22 8.5H20ZM12.6368 5.02821C13.4151 4.38539 14.4112 4 15.5 4V2C13.9295 2 12.4867 2.55824 11.3632 3.48611L12.6368 5.02821ZM4 8.5C4 6.01472 6.01472 4 8.5 4V2C4.91015 2 2 4.91015 2 8.5H4ZM8.5 4C9.58877 4 10.5849 4.38539 11.3632 5.02821L12.6368 3.48611C11.5133 2.55824 10.0705 2 8.5 2V4ZM5.02821 11.3632C4.38539 10.5849 4 9.58877 4 8.5H2C2 10.0705 2.55824 11.5133 3.48611 12.6368L5.02821 11.3632ZM8.5 20C6.01472 20 4 17.9853 4 15.5H2C2 19.0899 4.91015 22 8.5 22V20ZM11.3632 18.9718C10.5849 19.6146 9.58876 20 8.5 20V22C10.0705 22 11.5133 21.4418 12.6368 20.5139L11.3632 18.9718ZM4 15.5C4 14.4112 4.38539 13.4151 5.02821 12.6368L3.48611 11.3632C2.55824 12.4867 2 13.9295 2 15.5H4ZM20 15.5C20 17.9853 17.9853 20 15.5 20V22C19.0899 22 22 19.0899 22 15.5H20ZM15.5 20C14.4112 20 13.4151 19.6146 12.6368 18.9718L11.3632 20.5139C12.4867 21.4418 13.9295 22 15.5 22V20ZM18.9718 12.6368C19.6146 13.4151 20 14.4112 20 15.5H22C22 13.9295 21.4418 12.4867 20.5139 11.3632L18.9718 12.6368ZM13.5 12C13.5 12.8284 12.8284 13.5 12 13.5V15.5C13.933 15.5 15.5 13.933 15.5 12H13.5ZM12 13.5C11.1716 13.5 10.5 12.8284 10.5 12H8.5C8.5 13.933 10.067 15.5 12 15.5V13.5ZM10.5 12C10.5 11.1716 11.1716 10.5 12 10.5V8.5C10.067 8.5 8.5 10.067 8.5 12H10.5ZM12 10.5C12.8284 10.5 13.5 11.1716 13.5 12H15.5C15.5 10.067 13.933 8.5 12 8.5V10.5Z" fill="black"/>
</svg>
