<svg width="24" height="24" viewBox="0 0 24 24" fill="none" xmlns="http://www.w3.org/2000/svg">
<g opacity="0.14">
<path d="M7 8V2L10 4L12 2L14 4L17 2V8C17 10.2091 15.2091 12 13 12H11C8.79086 12 7 10.2091 7 8Z" fill="black"/>
<path d="M9.25 22H12C12 18.6863 9.31371 16 6 16H4.75C4.33579 16 4 16.3358 4 16.75C4 19.6495 6.35051 22 9.25 22Z" fill="black"/>
<path d="M14.75 22H12C12 18.6863 14.6863 16 18 16H19.25C19.6642 16 20 16.3358 20 16.75C20 19.6495 17.6495 22 14.75 22Z" fill="black"/>
</g>
<path d="M12 12V21M12 22H9.25C6.35051 22 4 19.6495 4 16.75C4 16.3358 4.33579 16 4.75 16H6C9.31371 16 12 18.6863 12 22ZM12 22H14.75C17.6495 22 20 19.6495 20 16.75C20 16.3358 19.6642 16 19.25 16H18C14.6863 16 12 18.6863 12 22ZM7 2V8C7 10.2091 8.79086 12 11 12H13C15.2091 12 17 10.2091 17 8V2L14 4L12 2L10 4L7 2Z" stroke="black" stroke-width="2" stroke-linecap="round" stroke-linejoin="round"/>
</svg>
