<svg width="24" height="24" viewBox="0 0 24 24" fill="none" xmlns="http://www.w3.org/2000/svg">
<path opacity="0.14" d="M21 6C21 4.34315 19.6569 3 18 3C16.9565 3 16.0375 3.53275 15.5 4.3411C14.9625 3.53275 14.0435 3 13 3C11.713 3 10.6152 3.81047 10.1893 4.94889C9.64193 4.36489 8.86358 4 8 4C6.34315 4 5 5.34315 5 7V7.17071C3.83481 7.58254 3 8.69378 3 10C3 12.5 6 14.5 6 18C9.5 18 11.5 21 14 21C15.3062 21 16.4175 20.1652 16.8293 19H17C18.6569 19 20 17.6569 20 16C20 15.1364 19.6351 14.3581 19.0511 13.8107C20.1895 13.3848 21 12.287 21 11C21 9.95651 20.4672 9.03746 19.6589 8.5C20.4672 7.96254 21 7.04349 21 6Z" fill="black"/>
<path d="M3 21L13 11M18 3C19.6569 3 21 4.34315 21 6C21 7.04349 20.4672 7.96254 19.6589 8.5C20.4672 9.03746 21 9.95651 21 11C21 12.287 20.1895 13.3848 19.0511 13.8107C19.6351 14.3581 20 15.1364 20 16C20 17.6569 18.6569 19 17 19H16.8293C16.4175 20.1652 15.3062 21 14 21C11.5 21 9.5 18 6 18C6 14.5 3 12.5 3 10C3 8.69378 3.83481 7.58254 5 7.17071V7C5 5.34315 6.34315 4 8 4C8.86358 4 9.64193 4.36489 10.1893 4.94889C10.6152 3.81047 11.713 3 13 3C14.0435 3 14.9625 3.53275 15.5 4.3411C16.0375 3.53275 16.9565 3 18 3Z" stroke="black" stroke-width="2" stroke-linecap="round" stroke-linejoin="round"/>
</svg>
