<svg width="24" height="24" viewBox="0 0 24 24" fill="none" xmlns="http://www.w3.org/2000/svg">
<path opacity="0.14" d="M9 21L7 17L3 15L5 13.5L3 5.5L5 6L7 4L9 6L11 5L12 7L14.5 3L17 4.5L21 3L19.5 7L21 9.5L17 12L19 13L18 15L20 17L18 19L18.5 21L10.5 19L9 21Z" fill="black"/>
<path d="M3 21L13 11M7 17L9 21L10.5 19L18.5 21L18 19L20 17L18 15L19 13L17 12L21 9.5L19.5 7L21 3L17 4.5L14.5 3L12 7L11 5L9 6L7 4L5 6L3 5.5L5 13.5L3 15L7 17Z" stroke="black" stroke-width="2" stroke-linecap="round" stroke-linejoin="round"/>
</svg>
