<svg width="24" height="24" viewBox="0 0 24 24" fill="none" xmlns="http://www.w3.org/2000/svg">
<g opacity="0.14">
<path d="M21.0008 6C21.0008 7.10457 20.1054 8 19.0008 8C17.8962 8 17.0008 7.10457 17.0008 6C17.0008 4.89543 17.8962 4 19.0008 4C20.1054 4 21.0008 4.89543 21.0008 6Z" fill="black"/>
<path d="M8.1149 9.40222L3.38516 17.6004C2.93084 18.3879 2.70368 18.7817 2.73771 19.1048C2.76739 19.3866 2.91524 19.6425 3.1445 19.8091C3.40734 20 3.86191 20 4.77105 20H14.2305H19.2823C20.1769 20 20.6242 20 20.8858 19.8119C21.114 19.6478 21.2626 19.3952 21.2953 19.116C21.3326 18.796 21.1154 18.405 20.681 17.623L18.4002 13.5176C17.9435 12.6956 17.7152 12.2847 17.4143 12.1483C17.1519 12.0294 16.8511 12.0294 16.5888 12.1483C16.2878 12.2847 16.0595 12.6956 15.6029 13.5176L14.4536 15.5849L10.8867 9.40222C10.4319 8.61398 10.2046 8.21986 9.90765 8.08762C9.64868 7.97228 9.35292 7.97228 9.09394 8.08762C8.79704 8.21986 8.56966 8.61398 8.1149 9.40222Z" fill="black"/>
</g>
<path d="M8.1149 9.40222L7.24872 8.9025L8.1149 9.40222ZM3.38516 17.6004L2.51897 17.1007H2.51897L3.38516 17.6004ZM10.8867 9.40222L10.0205 9.90194V9.90194L10.8867 9.40222ZM15.6164 17.6004L14.7503 18.1002L15.6164 17.6004ZM16.2639 19.1048L17.2584 19.2095V19.2095L16.2639 19.1048ZM15.8571 19.8091L16.4448 20.6181L15.8571 19.8091ZM2.73771 19.1048L3.73221 19L2.73771 19.1048ZM3.1445 19.8091L2.55679 20.6181H2.55679L3.1445 19.8091ZM9.09394 8.08762L9.5008 9.00111L9.5008 9.00111L9.09394 8.08762ZM9.90765 8.08762L9.5008 9.00111L9.5008 9.00111L9.90765 8.08762ZM18.4002 13.5176L19.2743 13.0319V13.0319L18.4002 13.5176ZM20.681 17.623L19.8068 18.1086V18.1086L20.681 17.623ZM15.6029 13.5176L14.7287 13.0319L15.6029 13.5176ZM13.5802 15.0993C13.312 15.582 13.4859 16.1909 13.9687 16.4591C14.4515 16.7273 15.0603 16.5533 15.3285 16.0705L13.5802 15.0993ZM21.2953 19.116L20.302 19V19L21.2953 19.116ZM20.8858 19.8119L20.302 19L20.302 19L20.8858 19.8119ZM17.4143 12.1483L17.0015 13.0591H17.0015L17.4143 12.1483ZM16.5888 12.1483L17.0015 13.0591H17.0015L16.5888 12.1483ZM7.24872 8.9025L2.51897 17.1007L4.25134 18.1002L8.98109 9.90194L7.24872 8.9025ZM10.0205 9.90194L14.7503 18.1002L16.4826 17.1007L11.7529 8.9025L10.0205 9.90194ZM14.2305 19H4.77105V21H14.2305V19ZM14.7503 18.1002C14.9873 18.511 15.1295 18.7596 15.2151 18.9452C15.3028 19.1357 15.2576 19.1124 15.2694 19L17.2584 19.2095C17.3042 18.7741 17.1624 18.3924 17.0315 18.1083C16.8984 17.8194 16.6999 17.4774 16.4826 17.1007L14.7503 18.1002ZM14.2305 21C14.6654 21 15.0609 21.001 15.3775 20.972C15.689 20.9434 16.0905 20.8755 16.4448 20.6181L15.2694 19C15.3608 18.9336 15.4036 18.9612 15.1948 18.9803C14.9912 18.999 14.7048 19 14.2305 19V21ZM15.2694 19V19L16.4448 20.6181C16.9033 20.2851 17.199 19.7731 17.2584 19.2095L15.2694 19ZM2.51897 17.1007C2.30166 17.4774 2.10317 17.8194 1.97009 18.1083C1.83918 18.3924 1.69735 18.7741 1.74321 19.2095L3.73221 19C3.74404 19.1124 3.69878 19.1357 3.78652 18.9452C3.87209 18.7596 4.01433 18.511 4.25134 18.1002L2.51897 17.1007ZM4.77105 19C4.29677 19 4.01038 18.999 3.80677 18.9803C3.59799 18.9612 3.6408 18.9336 3.73221 19L2.55679 20.6181C2.91105 20.8755 3.31255 20.9434 3.62406 20.972C3.94073 21.001 4.3362 21 4.77105 21V19ZM1.74321 19.2095C1.80258 19.7731 2.09827 20.2851 2.55679 20.6181L3.73221 19H3.73221L1.74321 19.2095ZM8.98109 9.90194C9.21832 9.49074 9.36247 9.2429 9.48052 9.07568C9.60162 8.90417 9.60412 8.95509 9.5008 9.00111L8.68709 7.17412C8.28686 7.35238 8.02722 7.66648 7.84671 7.92215C7.66316 8.18212 7.46624 8.52545 7.24872 8.9025L8.98109 9.90194ZM11.7529 8.9025C11.5354 8.52545 11.3384 8.18212 11.1549 7.92215C10.9744 7.66648 10.7147 7.35238 10.3145 7.17412L9.5008 9.00111C9.39748 8.95509 9.39998 8.90417 9.52107 9.07568C9.63913 9.2429 9.78328 9.49074 10.0205 9.90194L11.7529 8.9025ZM9.5008 9.00111L10.3145 7.17412C9.79656 6.94344 9.20504 6.94344 8.68709 7.17412L9.5008 9.00111ZM17.526 14.0032L19.8068 18.1086L21.5551 17.1373L19.2743 13.0319L17.526 14.0032ZM14.7287 13.0319L13.5802 15.0993L15.3285 16.0705L16.477 14.0032L14.7287 13.0319ZM19.2823 19H14.2305V21H19.2823V19ZM19.8068 18.1086C20.0336 18.5168 20.1692 18.7629 20.2502 18.9465C20.3329 19.1339 20.2891 19.1102 20.302 19L22.2885 19.232C22.3388 18.8018 22.2051 18.4226 22.0799 18.139C21.953 17.8515 21.7628 17.5111 21.5551 17.1373L19.8068 18.1086ZM19.2823 21C19.7099 21 20.0999 21.001 20.4127 20.9723C20.7215 20.944 21.1179 20.8767 21.4696 20.6238L20.302 19C20.3921 18.9352 20.434 18.962 20.2301 18.9807C20.0302 18.999 19.7493 19 19.2823 19V21ZM20.302 19L20.302 19L21.4696 20.6238C21.926 20.2956 22.2233 19.7904 22.2885 19.232L20.302 19ZM19.2743 13.0319C19.0556 12.6383 18.8588 12.2818 18.675 12.0124C18.4955 11.7492 18.2348 11.4222 17.827 11.2374L17.0015 13.0591C16.8947 13.0107 16.8986 12.9574 17.0227 13.1393C17.1425 13.3149 17.2881 13.5749 17.526 14.0032L19.2743 13.0319ZM16.477 14.0032C16.715 13.5749 16.8606 13.3149 16.9803 13.1393C17.1044 12.9574 17.1084 13.0107 17.0015 13.0591L16.176 11.2374C15.7682 11.4222 15.5075 11.7492 15.3281 12.0124C15.1443 12.2818 14.9474 12.6383 14.7287 13.0319L16.477 14.0032ZM17.827 11.2374C17.3024 10.9997 16.7007 10.9997 16.176 11.2374L17.0015 13.0591H17.0015L17.827 11.2374ZM20.0008 6C20.0008 6.55228 19.5531 7 19.0008 7V9C20.6577 9 22.0008 7.65685 22.0008 6H20.0008ZM19.0008 7C18.4485 7 18.0008 6.55229 18.0008 6H16.0008C16.0008 7.65685 17.3439 9 19.0008 9V7ZM18.0008 6C18.0008 5.44771 18.4485 5 19.0008 5V3C17.3439 3 16.0008 4.34315 16.0008 6H18.0008ZM19.0008 5C19.5531 5 20.0008 5.44772 20.0008 6H22.0008C22.0008 4.34315 20.6577 3 19.0008 3V5Z" fill="black"/>
</svg>
