<svg width="24" height="24" viewBox="0 0 24 24" fill="none" xmlns="http://www.w3.org/2000/svg">
<path opacity="0.14" d="M10.6041 6.47897L4.33986 17.6154C3.89896 18.3992 3.67851 18.7911 3.7148 19.1122C3.74646 19.3922 3.89483 19.6459 4.12341 19.8108C4.38541 19.9998 4.83506 19.9998 5.73438 19.9998H18.2629C19.1622 19.9998 19.6118 19.9998 19.8738 19.8108C20.1024 19.6459 20.2508 19.3922 20.2824 19.1122C20.3187 18.7911 20.0983 18.3992 19.6574 17.6154L13.3931 6.47897C12.9371 5.66823 12.7091 5.26285 12.4094 5.12784C12.1482 5.01012 11.849 5.01012 11.5878 5.12784C11.2882 5.26285 11.0601 5.66823 10.6041 6.47897Z" fill="black"/>
<path d="M16.2159 11.4998H12.5426L10.0426 13.9998L7.67831 11.6778M10.6041 6.47897L4.33986 17.6154C3.89896 18.3992 3.67851 18.7911 3.7148 19.1122C3.74646 19.3922 3.89483 19.6459 4.12341 19.8108C4.38541 19.9998 4.83506 19.9998 5.73438 19.9998H18.2629C19.1622 19.9998 19.6118 19.9998 19.8738 19.8108C20.1024 19.6459 20.2508 19.3922 20.2824 19.1122C20.3187 18.7911 20.0983 18.3992 19.6574 17.6154L13.3931 6.47897C12.9371 5.66823 12.7091 5.26285 12.4094 5.12784C12.1482 5.01012 11.849 5.01012 11.5878 5.12784C11.2882 5.26285 11.0601 5.66823 10.6041 6.47897Z" stroke="black" stroke-width="2" stroke-linecap="round" stroke-linejoin="round"/>
</svg>
