<svg width="24" height="24" viewBox="0 0 24 24" fill="none" xmlns="http://www.w3.org/2000/svg">
<path opacity="0.14" d="M8 6C6.34315 6 5 7.34315 5 9C5 9.05673 5.00157 9.1131 5.00468 9.16905C3.83704 9.57957 3 10.692 3 12C3 13.6569 4.34315 15 6 15H18C19.6569 15 21 13.6569 21 12C21 10.692 20.163 9.57957 18.9953 9.16905C18.9984 9.1131 19 9.05673 19 9C19 7.34315 17.6569 6 16 6C15.8195 6 15.6426 6.01595 15.4709 6.04651C15.2485 4.32775 13.7793 3 12 3C10.2207 3 8.75147 4.32775 8.52911 6.04651C8.35735 6.01595 8.18054 6 8 6Z" fill="black"/>
<path d="M12 22V10M5 9C5 7.34315 6.34315 6 8 6C8.18054 6 8.35735 6.01595 8.52911 6.04651C8.75147 4.32775 10.2207 3 12 3C13.7793 3 15.2485 4.32775 15.4709 6.04651C15.6426 6.01595 15.8195 6 16 6C17.6569 6 19 7.34315 19 9C19 9.05673 18.9984 9.1131 18.9953 9.16905C20.163 9.57957 21 10.692 21 12C21 13.6569 19.6569 15 18 15H6C4.34315 15 3 13.6569 3 12C3 10.692 3.83704 9.57957 5.00468 9.16905C5.00157 9.1131 5 9.05673 5 9Z" stroke="black" stroke-width="2" stroke-linecap="round" stroke-linejoin="round"/>
</svg>
