<svg width="24" height="24" viewBox="0 0 24 24" fill="none" xmlns="http://www.w3.org/2000/svg">
<g opacity="0.14">
<path d="M4.88593 21H19.1123C20.0545 21 20.5256 21 20.7911 20.8028C21.0226 20.6309 21.1686 20.3675 21.1917 20.0801C21.2182 19.7505 20.9685 19.351 20.4691 18.552L17.1591 13.256C16.6444 12.4325 16.3871 12.0208 16.0386 11.7221C15.7301 11.4577 15.3711 11.2587 14.9834 11.1373C14.5454 11 14.0599 11 13.0887 11H10.9095C9.93841 11 9.45286 11 9.01484 11.1373C8.62716 11.2587 8.26819 11.4577 7.9597 11.7221C7.61116 12.0208 7.35382 12.4325 6.83913 13.256L3.52913 18.552C3.02977 19.351 2.7801 19.7505 2.8066 20.0801C2.8297 20.3675 2.9757 20.6309 3.20713 20.8028C3.47265 21 3.94374 21 4.88593 21Z" fill="black"/>
<path d="M7.99913 4.5C7.99913 5.32843 8.67071 6 9.49913 6C9.95761 6 10.368 5.79431 10.6432 5.47018L11.9991 7.5L13.3551 5.47018C13.6302 5.79431 14.0407 6 14.4991 6C15.3276 6 15.9991 5.32843 15.9991 4.5C15.9991 3.67157 15.3276 3 14.4991 3C14.2533 3 14.0213 3.05913 13.8165 3.16395C13.5 2.4769 12.8052 2 11.9991 2C11.193 2 10.4983 2.4769 10.1817 3.16395C9.97698 3.05913 9.74496 3 9.49913 3C8.67071 3 7.99913 3.67157 7.99913 4.5Z" fill="black"/>
</g>
<path d="M6.83913 13.256L7.68713 13.786L6.83913 13.256ZM3.52913 18.552L2.68113 18.022H2.68113L3.52913 18.552ZM17.1591 13.256L16.3111 13.786L17.1591 13.256ZM20.4691 18.552L19.6211 19.082L20.4691 18.552ZM16.0386 11.7221L15.3878 12.4814L16.0386 11.7221ZM14.9834 11.1373L15.2824 10.183L14.9834 11.1373ZM7.9597 11.7221L8.61043 12.4814L8.61043 12.4814L7.9597 11.7221ZM9.01484 11.1373L9.31385 12.0915H9.31385L9.01484 11.1373ZM20.7911 20.8028L20.1949 20L20.7911 20.8028ZM21.1917 20.0801L22.1885 20.1603L21.1917 20.0801ZM3.20713 20.8028L3.80338 20L3.80338 20L3.20713 20.8028ZM2.8066 20.0801L1.80981 20.1603H1.80981L2.8066 20.0801ZM6.37383 14.2191C5.94257 13.8741 5.31328 13.944 4.96827 14.3753C4.62326 14.8065 4.69318 15.4358 5.12444 15.7808L6.37383 14.2191ZM8.49913 14L9.20624 14.7071L8.49913 14ZM12.9991 14.5L12.292 15.2071L12.9991 14.5ZM14.7231 16.2239L15.4302 15.5168L15.4302 15.5168L14.7231 16.2239ZM15.2818 16.2308L14.5922 15.5066L14.5922 15.5066L15.2818 16.2308ZM18.3138 14.7241C18.7137 14.3432 18.7292 13.7102 18.3483 13.3103C17.9674 12.9104 17.3344 12.8949 16.9345 13.2758L18.3138 14.7241ZM14.9244 16.3879L14.6084 17.3366L14.6084 17.3366L14.9244 16.3879ZM15.0766 16.3897L15.3693 17.3459L15.3693 17.3459L15.0766 16.3897ZM10.6432 5.47018L11.4747 4.9147C11.3004 4.65382 11.0138 4.48984 10.7006 4.47183C10.3874 4.45382 10.0839 4.58385 9.88082 4.82303L10.6432 5.47018ZM13.3551 5.47018L14.1175 4.82303C13.9144 4.58385 13.6109 4.45382 13.2977 4.47183C12.9844 4.48984 12.6978 4.65382 12.5236 4.9147L13.3551 5.47018ZM13.8165 3.16395L12.9083 3.58245C13.0223 3.82984 13.2323 4.02002 13.4897 4.10904C13.7472 4.19806 14.0298 4.17822 14.2722 4.05409L13.8165 3.16395ZM10.1817 3.16395L9.72604 4.05409C9.9685 4.17822 10.2511 4.19806 10.5085 4.10904C10.766 4.02002 10.976 3.82984 11.0899 3.58245L10.1817 3.16395ZM11.9991 7.5L11.1676 8.05548C11.3531 8.33323 11.6651 8.5 11.9991 8.5C12.3332 8.5 12.6451 8.33323 12.8307 8.05548L11.9991 7.5ZM19.1123 20H4.88593V22H19.1123V20ZM5.99113 12.726L2.68113 18.022L4.37713 19.082L7.68713 13.786L5.99113 12.726ZM16.3111 13.786L19.6211 19.082L21.3171 18.022L18.0071 12.726L16.3111 13.786ZM10.9095 12H13.0887V10H10.9095V12ZM18.0071 12.726C17.5267 11.9573 17.1815 11.3846 16.6893 10.9627L15.3878 12.4814C15.5927 12.6569 15.7622 12.9077 16.3111 13.786L18.0071 12.726ZM13.0887 12C14.1245 12 14.427 12.0108 14.6844 12.0915L15.2824 10.183C14.6639 9.98917 13.9952 10 13.0887 10V12ZM16.6893 10.9627C16.278 10.6103 15.7994 10.345 15.2824 10.183L14.6844 12.0915C14.9429 12.1725 15.1822 12.3051 15.3878 12.4814L16.6893 10.9627ZM7.68713 13.786C8.23606 12.9077 8.40556 12.6569 8.61043 12.4814L7.30898 10.9627C6.81676 11.3846 6.47158 11.9573 5.99113 12.726L7.68713 13.786ZM10.9095 10C10.003 10 9.3344 9.98917 8.71582 10.183L9.31385 12.0915C9.57131 12.0108 9.8738 12 10.9095 12V10ZM8.61043 12.4814C8.81608 12.3051 9.0554 12.1725 9.31385 12.0915L8.71582 10.183C8.19892 10.345 7.72029 10.6103 7.30898 10.9627L8.61043 12.4814ZM19.1123 22C19.5636 22 19.9715 22.001 20.2968 21.9712C20.6144 21.942 21.0275 21.8729 21.3874 21.6056L20.1949 20C20.2893 19.9299 20.3341 19.9594 20.1141 19.9795C19.902 19.999 19.6032 20 19.1123 20V22ZM19.6211 19.082C19.8813 19.4983 20.0388 19.7521 20.1347 19.9424C20.2342 20.1396 20.1855 20.1172 20.1949 20L22.1885 20.1603C22.2244 19.7134 22.0641 19.3264 21.9205 19.0417C21.7734 18.7501 21.5563 18.4047 21.3171 18.022L19.6211 19.082ZM21.3874 21.6056C21.8503 21.2618 22.1423 20.735 22.1885 20.1603L20.1949 20V20L21.3874 21.6056ZM4.88593 20C4.39503 20 4.09631 19.999 3.88412 19.9795C3.6642 19.9594 3.709 19.9299 3.80338 20L2.61089 21.6056C2.97078 21.8729 3.38389 21.942 3.70144 21.9712C4.02672 22.001 4.43464 22 4.88593 22V20ZM2.68113 18.022C2.44195 18.4047 2.2249 18.7501 2.0778 19.0417C1.9342 19.3264 1.77389 19.7134 1.80981 20.1603L3.80338 20C3.8128 20.1172 3.76408 20.1396 3.86353 19.9424C3.95949 19.7521 4.11696 19.4983 4.37713 19.082L2.68113 18.022ZM3.80338 20L3.80338 20L1.80981 20.1603C1.85602 20.735 2.14801 21.2618 2.61089 21.6056L3.80338 20ZM5.12444 15.7808C5.51574 16.0939 5.94948 16.334 6.43551 16.3977C6.95129 16.4654 7.39095 16.3177 7.74198 16.1016C8.06514 15.9028 8.33662 15.6312 8.54965 15.4061C8.79686 15.1449 8.96403 14.9493 9.20624 14.7071L7.79203 13.2929C7.53424 13.5507 7.26391 13.855 7.09706 14.0313C6.89602 14.2438 6.77688 14.3472 6.69379 14.3983C6.63857 14.4323 6.65635 14.4096 6.69558 14.4147C6.70504 14.416 6.60753 14.4061 6.37383 14.2191L5.12444 15.7808ZM9.20624 14.7071C9.33997 14.5733 9.77688 14.3614 10.4398 14.3901C11.0583 14.4169 11.739 14.6541 12.292 15.2071L13.7062 13.7929C12.7593 12.8459 11.5852 12.4378 10.5264 12.3919C9.51195 12.348 8.44887 12.636 7.79203 13.2929L9.20624 14.7071ZM12.292 15.2071L14.016 16.9311L15.4302 15.5168L13.7062 13.7929L12.292 15.2071ZM15.9715 16.9549L18.3138 14.7241L16.9345 13.2758L14.5922 15.5066L15.9715 16.9549ZM14.016 16.931C14.0529 16.9679 14.1221 17.0382 14.1913 17.097C14.2695 17.1636 14.4087 17.2701 14.6084 17.3366L15.2404 15.4391C15.3841 15.487 15.4711 15.56 15.4869 15.5734C15.4951 15.5804 15.4959 15.5817 15.4835 15.5698C15.4712 15.5578 15.456 15.5426 15.4302 15.5168L14.016 16.931ZM14.5922 15.5066C14.5657 15.5318 14.5501 15.5466 14.5375 15.5582C14.525 15.5698 14.5257 15.5686 14.5341 15.5618C14.5503 15.5487 14.639 15.4779 14.7838 15.4335L15.3693 17.3459C15.5706 17.2843 15.7124 17.1812 15.7922 17.1166C15.8628 17.0594 15.9337 16.9909 15.9715 16.9549L14.5922 15.5066ZM14.6084 17.3366C14.8549 17.4187 15.1209 17.422 15.3693 17.3459L14.7838 15.4335C14.9329 15.3879 15.0925 15.3898 15.2404 15.4391L14.6084 17.3366ZM9.49913 5C9.22299 5 8.99913 4.77614 8.99913 4.5H6.99913C6.99913 5.88071 8.11842 7 9.49913 7V5ZM8.99913 4.5C8.99913 4.22386 9.22299 4 9.49913 4V2C8.11842 2 6.99913 3.11929 6.99913 4.5H8.99913ZM14.9991 4.5C14.9991 4.77614 14.7753 5 14.4991 5V7C15.8798 7 16.9991 5.88071 16.9991 4.5H14.9991ZM14.4991 4C14.7753 4 14.9991 4.22386 14.9991 4.5H16.9991C16.9991 3.11929 15.8798 2 14.4991 2V4ZM9.88082 4.82303C9.78755 4.9329 9.65169 5 9.49913 5V7C10.2635 7 10.9485 6.65572 11.4055 6.11733L9.88082 4.82303ZM14.4991 5C14.3466 5 14.2107 4.9329 14.1175 4.82303L12.5927 6.11733C13.0497 6.65572 13.7347 7 14.4991 7V5ZM11.9991 3C12.4007 3 12.749 3.23668 12.9083 3.58245L14.7248 2.74546C14.2509 1.71713 13.2098 1 11.9991 1V3ZM14.2722 4.05409C14.3392 4.0198 14.4154 4 14.4991 4V2C14.0912 2 13.7034 2.09847 13.3609 2.27382L14.2722 4.05409ZM11.0899 3.58245C11.2493 3.23668 11.5976 3 11.9991 3V1C10.7885 1 9.74735 1.71713 9.27351 2.74546L11.0899 3.58245ZM9.49913 4C9.58287 4 9.65906 4.0198 9.72604 4.05409L10.6374 2.27381C10.2949 2.09846 9.90705 2 9.49913 2V4ZM9.81165 6.02566L11.1676 8.05548L12.8307 6.94452L11.4747 4.9147L9.81165 6.02566ZM12.8307 8.05548L14.1866 6.02566L12.5236 4.9147L11.1676 6.94452L12.8307 8.05548Z" fill="black"/>
</svg>
