<svg width="24" height="24" viewBox="0 0 24 24" fill="none" xmlns="http://www.w3.org/2000/svg">
<path opacity="0.14" d="M7.25188 9L6.75229 12.3306C6.61811 13.2251 5.89269 13.9026 5.00891 13.9904C5.08882 13.9968 5.16925 14 5.25 14C6.05036 14 6.81794 13.6821 7.38388 13.1161L7.61612 12.8839C8.18206 12.3179 8.94964 12 9.75 12C10.5504 12 11.3179 12.3179 11.8839 12.8839L12.1161 13.1161C12.6821 13.6821 13.4496 14 14.25 14C15.0504 14 15.8179 13.6821 16.3839 13.1161L16.6161 12.8839C17.1695 12.3305 17.9157 12.0142 18.6968 12.0005C18.6783 12.0002 18.6598 12 18.6413 12C17.9075 12 17.1897 12.2498 16.6166 12.7082L16.4802 12.8173C15.579 13.5383 14.3283 13.6632 13.2961 13.1471C11.9277 12.4629 11.1141 10.9899 11.2831 9.46945C11.4222 8.21752 12.0933 7.086 13.1252 6.36365L15.371 4.79163C15.7195 4.54765 15.5469 4 15.1214 4H13.0578C10.1517 4 7.68297 6.12608 7.25188 9Z" fill="black"/>
<path d="M2.5 12.5L3.42588 13.4259C3.79348 13.7935 4.29206 14 4.81193 14C5.7822 14 6.60648 13.2901 6.75041 12.3306L7.25 9C7.68109 6.12608 10.1499 4 13.0559 4H15.1196C15.545 4 15.7176 4.54765 15.3691 4.79163L13.1234 6.36365C12.0914 7.086 11.4203 8.21752 11.2812 9.46945C11.1122 10.9899 11.9259 12.4629 13.2942 13.1471C14.3264 13.6632 15.5771 13.5383 16.4783 12.8173L16.6147 12.7082C17.1878 12.2498 17.9056 12 18.6395 12C19.5062 12 20.3443 12.3443 20.9572 12.9572L21.5 13.5M2.5 18.5L3.11612 19.1161C3.68206 19.6821 4.44964 20 5.25 20C6.05036 20 6.81794 19.6821 7.38388 19.1161L7.61612 18.8839C8.18206 18.3179 8.94964 18 9.75 18C10.5504 18 11.3179 18.3179 11.8839 18.8839L12.1161 19.1161C12.6821 19.6821 13.4496 20 14.25 20C15.0504 20 15.8179 19.6821 16.3839 19.1161L16.6161 18.8839C17.1821 18.3179 17.9496 18 18.75 18C19.5504 18 20.3179 18.3179 20.8839 18.8839L21.5 19.5" stroke="black" stroke-width="2" stroke-linecap="round" stroke-linejoin="round"/>
</svg>
