<svg width="24" height="24" viewBox="0 0 24 24" fill="none" xmlns="http://www.w3.org/2000/svg">
<path opacity="0.3" d="M2.75781 13.9966C2.75781 8.88927 6.89642 4.74902 12.0017 4.74902C17.1071 4.74902 21.2457 8.88927 21.2457 13.9966C21.2457 16.0672 19.5674 17.7458 17.4974 17.7458C15.4273 17.7458 13.7491 16.0672 13.7491 13.9966C13.7491 13.0302 12.9659 12.2474 12.0008 12.2474C11.0358 12.2474 10.2525 13.0302 10.2525 13.9966C10.2525 16.5923 11.6172 18.8699 13.6718 20.1512C14.1404 20.4435 14.2834 21.0603 13.9912 21.5289C13.6989 21.9975 13.0821 22.1405 12.6135 21.8483C9.99819 20.2173 8.25254 17.3117 8.25254 13.9966C8.25254 11.9261 9.93077 10.2474 12.0008 10.2474C14.0709 10.2474 15.7491 11.9261 15.7491 13.9966C15.7491 14.963 16.5323 15.7458 17.4974 15.7458C18.4624 15.7458 19.2457 14.963 19.2457 13.9966C19.2457 9.99312 16.0018 6.74902 12.0017 6.74902C8.00172 6.74902 4.75781 9.99312 4.75781 13.9966C4.75781 14.9371 4.86303 15.8541 5.05719 16.7397C5.17546 17.2792 4.834 17.8124 4.29453 17.9306C3.75506 18.0489 3.22185 17.7075 3.10358 17.168C2.87986 16.1475 2.75781 15.0869 2.75781 13.9966Z" fill="black"/>
<path fill-rule="evenodd" clip-rule="evenodd" d="M3.57755 5.81605C5.63223 3.48205 8.64126 2 12.0011 2C15.361 2 18.3701 3.48205 20.4247 5.81605C20.7897 6.23059 20.7495 6.86248 20.3349 7.22741C19.9204 7.59234 19.2885 7.55212 18.9236 7.13758C17.2302 5.21399 14.7591 4 12.0011 4C9.24316 4 6.77212 5.21399 5.07873 7.13758C4.7138 7.55212 4.08191 7.59234 3.66737 7.22741C3.25283 6.86248 3.21261 6.23059 3.57755 5.81605ZM12 9.49844C9.51756 9.49844 7.50431 11.5117 7.50431 13.9968C7.50431 16.1293 8.1727 18.102 9.31002 19.725C9.62695 20.1773 9.51722 20.8009 9.06492 21.1179C8.61262 21.4348 7.98904 21.3251 7.67211 20.8728C6.30765 18.9255 5.50431 16.5545 5.50431 13.9968C5.50431 10.408 8.41212 7.49844 12 7.49844C15.5878 7.49844 18.4956 10.408 18.4956 13.9968C18.4956 14.5491 18.0479 14.9968 17.4956 14.9968C16.9433 14.9968 16.4956 14.5491 16.4956 13.9968C16.4956 11.5117 14.4823 9.49844 12 9.49844ZM12.0019 12.9969C12.5541 12.9969 13.0019 13.4446 13.0019 13.9969C13.0019 16.482 15.0151 18.4953 17.4975 18.4953C17.5355 18.4953 17.5604 18.4936 17.6064 18.4904C17.6373 18.4883 17.6778 18.4855 17.738 18.4821C18.2895 18.4515 18.7613 18.8737 18.792 19.4251C18.8226 19.9766 18.4004 20.4484 17.849 20.4791C17.8394 20.4796 17.8252 20.4806 17.8074 20.4818C17.7357 20.4866 17.6067 20.4953 17.4975 20.4953C13.9097 20.4953 11.0019 17.5857 11.0019 13.9969C11.0019 13.4446 11.4496 12.9969 12.0019 12.9969Z" fill="black"/>
</svg>
