<svg width="24" height="24" viewBox="0 0 24 24" fill="none" xmlns="http://www.w3.org/2000/svg">
<path opacity="0.3" d="M10.9707 10.6211L6.33514 15.2531C6.32077 15.2659 6.30668 15.2792 6.29289 15.293C6.27929 15.3066 6.26617 15.3205 6.25351 15.3346L3.29317 18.2927C3.10551 18.4802 3.00005 18.7346 3 18.9999C2.99995 19.2652 3.10531 19.5196 3.29289 19.7072L5.29289 21.7072C5.68342 22.0977 6.31658 22.0977 6.70711 21.7072C7.09763 21.3166 7.09763 20.6835 6.70711 20.293L5.41449 19.0003L7.00089 17.4152L8.29289 18.7072C8.68342 19.0977 9.31658 19.0977 9.70711 18.7072C10.0976 18.3166 10.0976 17.6835 9.70711 17.293L8.41564 16.0015L12.386 12.0342C11.8326 11.6534 11.3523 11.1739 10.9707 10.6211Z" fill="black"/>
<path fill-rule="evenodd" clip-rule="evenodd" d="M15.5 13C18.5376 13 21 10.5376 21 7.5C21 4.46243 18.5376 2 15.5 2C12.4624 2 10 4.46243 10 7.5C10 10.5376 12.4624 13 15.5 13ZM15.5 11C17.433 11 19 9.433 19 7.5C19 5.567 17.433 4 15.5 4C13.567 4 12 5.567 12 7.5C12 9.433 13.567 11 15.5 11Z" fill="black"/>
</svg>
