<svg width="24" height="24" viewBox="0 0 24 24" fill="none" xmlns="http://www.w3.org/2000/svg">
<path opacity="0.3" d="M15.1344 4.4992C15.4109 4.02114 16.0227 3.85777 16.5007 4.13432C19.1882 5.68895 21 8.59714 21 11.9297C21 15.2622 19.1882 18.1704 16.5007 19.725C16.1125 19.9496 15.6222 19.8882 15.3013 19.5748L9.30133 13.7155C8.9062 13.3296 8.89869 12.6965 9.28456 12.3014C9.67043 11.9062 10.3035 11.8987 10.6987 12.2846L16.1263 17.585C17.8699 16.3105 19 14.2516 19 11.9297C19 9.33993 17.5942 7.07737 15.4993 5.86553C15.0212 5.58898 14.8579 4.97726 15.1344 4.4992Z" fill="black"/>
<path fill-rule="evenodd" clip-rule="evenodd" d="M7.49927 4.20473C7.88943 3.97904 8.38234 4.04224 8.70293 4.35907L14.7029 10.2888C15.0957 10.677 15.0995 11.3101 14.7113 11.7029C14.323 12.0958 13.6899 12.0995 13.2971 11.7113L7.86983 6.34764C6.12841 7.62229 5 9.67988 5 12.0001C5 14.5898 6.40581 16.8524 8.50073 18.0642C8.97879 18.3408 9.14215 18.9525 8.86561 19.4305C8.58906 19.9086 7.97733 20.072 7.49927 19.7954C4.81178 18.2408 3 15.3326 3 12.0001C3 8.66755 4.81178 5.75936 7.49927 4.20473Z" fill="black"/>
</svg>
