<svg width="24" height="24" viewBox="0 0 24 24" fill="none" xmlns="http://www.w3.org/2000/svg">
<path opacity="0.3" fill-rule="evenodd" clip-rule="evenodd" d="M12.0003 2C12.4127 2 12.7828 2.25318 12.9323 2.63755L19.9323 20.6376C20.1324 21.1523 19.8774 21.7318 19.3627 21.932C18.848 22.1322 18.2684 21.8772 18.0683 21.3624L15.9829 16H8.01767L5.93227 21.3624C5.7321 21.8772 5.15255 22.1322 4.63782 21.932C4.12309 21.7318 3.86809 21.1523 4.06826 20.6376L6.38168 14.6888C6.393 14.6542 6.40614 14.6205 6.421 14.5877L11.0683 2.63755C11.2177 2.25318 11.5879 2 12.0003 2ZM8.79545 14H15.2051L12.0003 5.75903L8.79545 14Z" fill="black"/>
</svg>
