<svg width="24" height="24" viewBox="0 0 24 24" fill="none" xmlns="http://www.w3.org/2000/svg">
<path opacity="0.3" fill-rule="evenodd" clip-rule="evenodd" d="M17.6569 6.34315C14.5327 3.21895 9.46734 3.21895 6.34315 6.34315C3.21895 9.46734 3.21895 14.5327 6.34315 17.6569C9.46734 20.781 14.5327 20.781 17.6569 17.6569C17.8588 17.4549 18.0475 17.2451 18.2231 17.0285C18.5708 16.5994 19.2005 16.5334 19.6296 16.8811C20.0587 17.2288 20.1246 17.8585 19.7769 18.2876C19.5577 18.5582 19.3224 18.8198 19.0711 19.0711C15.1658 22.9763 8.83418 22.9763 4.92893 19.0711C1.02369 15.1658 1.02369 8.83418 4.92893 4.92893C8.83418 1.02369 15.1658 1.02369 19.0711 4.92893C19.3224 5.18022 19.5577 5.44181 19.7769 5.71242C20.1246 6.14151 20.0587 6.77123 19.6296 7.11893C19.2005 7.46663 18.5708 7.40064 18.2231 6.97155C18.0475 6.75493 17.8588 6.54511 17.6569 6.34315Z" fill="black"/>
</svg>
