<svg width="24" height="24" viewBox="0 0 24 24" fill="none" xmlns="http://www.w3.org/2000/svg">
<path opacity="0.3" fill-rule="evenodd" clip-rule="evenodd" d="M2 12C2 6.47715 6.47715 2 12 2C17.5228 2 22 6.47715 22 12C22 17.5228 17.5228 22 12 22C6.47715 22 2 17.5228 2 12ZM9.00001 7C8.44772 7 8.00001 7.44772 8.00001 8C8.00001 8.55228 8.44772 9 9.00001 9H13L8.20001 15.4C7.97274 15.703 7.93619 16.1084 8.10558 16.4472C8.27497 16.786 8.62123 17 9.00001 17H15C15.5523 17 16 16.5523 16 16C16 15.4477 15.5523 15 15 15H11L15.8 8.6C16.0273 8.29698 16.0638 7.89157 15.8944 7.55279C15.725 7.214 15.3788 7 15 7H9.00001Z" fill="black"/>
<path fill-rule="evenodd" clip-rule="evenodd" d="M8.00001 8C8.00001 7.44772 8.44772 7 9.00001 7H15C15.3788 7 15.725 7.214 15.8944 7.55279C16.0638 7.89157 16.0273 8.29698 15.8 8.6L11 15H15C15.5523 15 16 15.4477 16 16C16 16.5523 15.5523 17 15 17H9.00001C8.62123 17 8.27497 16.786 8.10558 16.4472C7.93619 16.1084 7.97274 15.703 8.20001 15.4L13 9H9.00001C8.44772 9 8.00001 8.55228 8.00001 8Z" fill="black"/>
</svg>
