<svg width="24" height="24" viewBox="0 0 24 24" fill="none" xmlns="http://www.w3.org/2000/svg">
<path opacity="0.3" fill-rule="evenodd" clip-rule="evenodd" d="M2 12C2 6.47715 6.47715 2 12 2C17.5228 2 22 6.47715 22 12C22 17.5228 17.5228 22 12 22C6.47715 22 2 17.5228 2 12ZM8 7.5C7.44772 7.5 7 7.94772 7 8.5C7 9.05228 7.44772 9.5 8 9.5H11V16.5C11 17.0523 11.4477 17.5 12 17.5C12.5523 17.5 13 17.0523 13 16.5V9.5H16C16.5523 9.5 17 9.05228 17 8.5C17 7.94772 16.5523 7.5 16 7.5H8Z" fill="black"/>
<path fill-rule="evenodd" clip-rule="evenodd" d="M7 8.5C7 7.94772 7.44772 7.5 8 7.5H16C16.5523 7.5 17 7.94772 17 8.5C17 9.05228 16.5523 9.5 16 9.5H13V16.5C13 17.0523 12.5523 17.5 12 17.5C11.4477 17.5 11 17.0523 11 16.5V9.5H8C7.44772 9.5 7 9.05228 7 8.5Z" fill="black"/>
</svg>
