<svg width="24" height="24" viewBox="0 0 24 24" fill="none" xmlns="http://www.w3.org/2000/svg">
<path fill-rule="evenodd" clip-rule="evenodd" d="M8.5 7C9.05228 7 9.5 7.44772 9.5 8V13.5C9.5 14.8807 10.6193 16 12 16C13.3807 16 14.5 14.8807 14.5 13.5V8C14.5 7.44772 14.9477 7 15.5 7C16.0523 7 16.5 7.44772 16.5 8V13.5C16.5 15.9853 14.4853 18 12 18C9.51472 18 7.5 15.9853 7.5 13.5V8C7.5 7.44772 7.94772 7 8.5 7Z" fill="black"/>
<path opacity="0.3" fill-rule="evenodd" clip-rule="evenodd" d="M2 12C2 6.47715 6.47715 2 12 2C17.5228 2 22 6.47715 22 12C22 17.5228 17.5228 22 12 22C6.47715 22 2 17.5228 2 12ZM9.5 8C9.5 7.44772 9.05228 7 8.5 7C7.94772 7 7.5 7.44772 7.5 8V13.5C7.5 15.9853 9.51472 18 12 18C14.4853 18 16.5 15.9853 16.5 13.5V8C16.5 7.44772 16.0523 7 15.5 7C14.9477 7 14.5 7.44772 14.5 8V13.5C14.5 14.8807 13.3807 16 12 16C10.6193 16 9.5 14.8807 9.5 13.5V8Z" fill="black"/>
</svg>
