<svg width="24" height="24" viewBox="0 0 24 24" fill="none" xmlns="http://www.w3.org/2000/svg">
<path opacity="0.3" fill-rule="evenodd" clip-rule="evenodd" d="M2 12C2 6.47715 6.47715 2 12 2C17.5228 2 22 6.47715 22 12C22 17.5228 17.5228 22 12 22C6.47715 22 2 17.5228 2 12ZM8.89465 8.05276C8.64766 7.55878 8.04698 7.35856 7.55301 7.60555C7.05903 7.85254 6.8588 8.45321 7.10579 8.94719L11.1058 16.9472C11.2752 17.286 11.6214 17.5 12.0002 17.5C12.379 17.5 12.7253 17.286 12.8946 16.9472L16.8946 8.94719C17.1416 8.45321 16.9414 7.85254 16.4474 7.60555C15.9535 7.35856 15.3528 7.55878 15.1058 8.05276L12.0002 14.2639L8.89465 8.05276Z" fill="black"/>
<path fill-rule="evenodd" clip-rule="evenodd" d="M7.55301 7.60579C8.04698 7.3588 8.64766 7.55903 8.89465 8.05301L12.0002 14.2642L15.1058 8.05301C15.3528 7.55903 15.9535 7.3588 16.4474 7.60579C16.9414 7.85278 17.1416 8.45345 16.8946 8.94743L12.8946 16.9474C12.7253 17.2862 12.379 17.5002 12.0002 17.5002C11.6214 17.5002 11.2752 17.2862 11.1058 16.9474L7.10579 8.94743C6.8588 8.45345 7.05903 7.85278 7.55301 7.60579Z" fill="black"/>
</svg>
