<svg width="24" height="24" viewBox="0 0 24 24" fill="none" xmlns="http://www.w3.org/2000/svg">
<path opacity="0.3" fill-rule="evenodd" clip-rule="evenodd" d="M2 12C2 6.47715 6.47715 2 12 2C17.5228 2 22 6.47715 22 12C22 17.5228 17.5228 22 12 22C6.47715 22 2 17.5228 2 12ZM10 8C10 7.44772 9.55228 7 9 7C8.44772 7 8 7.44772 8 8V16C8 16.5523 8.44772 17 9 17C9.55228 17 10 16.5523 10 16V13H14V16C14 16.5523 14.4477 17 15 17C15.5523 17 16 16.5523 16 16V8C16 7.44772 15.5523 7 15 7C14.4477 7 14 7.44772 14 8V11H10V8Z" fill="black"/>
<path fill-rule="evenodd" clip-rule="evenodd" d="M9 7C9.55228 7 10 7.44772 10 8V11H14V8C14 7.44772 14.4477 7 15 7C15.5523 7 16 7.44772 16 8V16C16 16.5523 15.5523 17 15 17C14.4477 17 14 16.5523 14 16V13H10V16C10 16.5523 9.55228 17 9 17C8.44772 17 8 16.5523 8 16V8C8 7.44772 8.44772 7 9 7Z" fill="black"/>
</svg>
