<svg width="24" height="24" viewBox="0 0 24 24" fill="none" xmlns="http://www.w3.org/2000/svg">
<path opacity="0.3" fill-rule="evenodd" clip-rule="evenodd" d="M2 12C2 6.47715 6.47715 2 12 2C17.5228 2 22 6.47715 22 12C22 17.5228 17.5228 22 12 22C6.47715 22 2 17.5228 2 12ZM8 12C8 9.79086 9.79086 8 12 8C13.308 8 14.4693 8.62676 15.2008 9.60058C15.5325 10.0422 16.1594 10.1313 16.6009 9.79957C17.0425 9.46788 17.1316 8.84101 16.7999 8.39942C15.707 6.94434 13.9636 6 12 6C8.68629 6 6 8.68629 6 12C6 15.3137 8.68629 18 12 18C15.3137 18 18 15.3137 18 12C18 11.4477 17.5523 11 17 11H14C13.4477 11 13 11.4477 13 12C13 12.5523 13.4477 13 14 13H15.874C15.4299 14.7252 13.8638 16 12 16C9.79086 16 8 14.2091 8 12Z" fill="black"/>
<path fill-rule="evenodd" clip-rule="evenodd" d="M12 8C9.79086 8 8 9.79086 8 12C8 14.2091 9.79086 16 12 16C13.8638 16 15.4299 14.7252 15.874 13H14C13.4477 13 13 12.5523 13 12C13 11.4477 13.4477 11 14 11H17C17.5523 11 18 11.4477 18 12C18 15.3137 15.3137 18 12 18C8.68629 18 6 15.3137 6 12C6 8.68629 8.68629 6 12 6C13.9636 6 15.707 6.94434 16.7999 8.39942C17.1316 8.84101 17.0425 9.46788 16.6009 9.79957C16.1594 10.1313 15.5325 10.0422 15.2008 9.60058C14.4693 8.62676 13.308 8 12 8Z" fill="black"/>
</svg>
