<svg width="24" height="24" viewBox="0 0 24 24" fill="none" xmlns="http://www.w3.org/2000/svg">
<path fill-rule="evenodd" clip-rule="evenodd" d="M8.68377 7.05138C9.09211 6.91527 9.54174 7.05572 9.8 7.40006L14 13.0001V8.00006C14 7.44778 14.4477 7.00006 15 7.00006C15.5523 7.00006 16 7.44778 16 8.00006V16.0001C16 16.4305 15.7246 16.8126 15.3162 16.9487C14.9079 17.0849 14.4583 16.9444 14.2 16.6001L10 11.0001V16.0001C10 16.5524 9.55228 17.0001 9 17.0001C8.44772 17.0001 8 16.5524 8 16.0001V8.00006C8 7.56963 8.27543 7.1875 8.68377 7.05138Z" fill="black"/>
<path opacity="0.3" fill-rule="evenodd" clip-rule="evenodd" d="M2 12C2 6.47715 6.47715 2 12 2C17.5228 2 22 6.47715 22 12C22 17.5228 17.5228 22 12 22C6.47715 22 2 17.5228 2 12ZM9.8 7.39994C9.54174 7.0556 9.09211 6.91514 8.68377 7.05126C8.27543 7.18737 8 7.56951 8 7.99994V15.9999C8 16.5522 8.44772 16.9999 9 16.9999C9.55228 16.9999 10 16.5522 10 15.9999V10.9999L14.2 16.5999C14.4583 16.9443 14.9079 17.0847 15.3162 16.9486C15.7246 16.8125 16 16.4304 16 15.9999V7.99994C16 7.44766 15.5523 6.99994 15 6.99994C14.4477 6.99994 14 7.44766 14 7.99994V12.9999L9.8 7.39994Z" fill="black"/>
</svg>
