<svg width="24" height="24" viewBox="0 0 24 24" fill="none" xmlns="http://www.w3.org/2000/svg">
<path opacity="0.3" fill-rule="evenodd" clip-rule="evenodd" d="M18.6247 21.7809C18.1934 22.1259 17.5641 22.056 17.2191 21.6247L9.91704 12.4971L6.99996 15.4142V21C6.99996 21.5523 6.55225 22 5.99996 22C5.44768 22 4.99996 21.5523 4.99996 21V3C4.99996 2.44772 5.44768 2 5.99996 2C6.55225 2 6.99996 2.44772 6.99996 3V12.5858L17.2929 2.29289C17.6834 1.90237 18.3165 1.90237 18.7071 2.29289C19.0976 2.68342 19.0976 3.31658 18.7071 3.70711L11.34 11.0742L18.7808 20.3753C19.1258 20.8066 19.0559 21.4359 18.6247 21.7809Z" fill="black"/>
</svg>
