<svg width="24" height="24" viewBox="0 0 24 24" fill="none" xmlns="http://www.w3.org/2000/svg">
<path opacity="0.3" fill-rule="evenodd" clip-rule="evenodd" d="M3 6C3 4.34315 4.34315 3 6 3H18C19.6569 3 21 4.34315 21 6V18C21 19.6569 19.6569 21 18 21H6C4.34315 21 3 19.6569 3 18V6ZM8.89465 7.55276C8.64766 7.05878 8.04698 6.85856 7.55301 7.10555C7.05903 7.35254 6.8588 7.95321 7.10579 8.44719L11.1058 16.4472C11.2752 16.786 11.6214 17 12.0002 17C12.379 17 12.7253 16.786 12.8946 16.4472L16.8946 8.44719C17.1416 7.95321 16.9414 7.35254 16.4474 7.10555C15.9535 6.85856 15.3528 7.05878 15.1058 7.55276L12.0002 13.7639L8.89465 7.55276Z" fill="black"/>
<path fill-rule="evenodd" clip-rule="evenodd" d="M7.55301 7.10555C8.04698 6.85856 8.64766 7.05878 8.89465 7.55276L12.0002 13.7639L15.1058 7.55276C15.3528 7.05878 15.9535 6.85856 16.4474 7.10555C16.9414 7.35254 17.1416 7.95321 16.8946 8.44719L12.8946 16.4472C12.7253 16.786 12.379 17 12.0002 17C11.6214 17 11.2752 16.786 11.1058 16.4472L7.10579 8.44719C6.8588 7.95321 7.05903 7.35254 7.55301 7.10555Z" fill="black"/>
</svg>
