<svg width="24" height="24" viewBox="0 0 24 24" fill="none" xmlns="http://www.w3.org/2000/svg">
<path opacity="0.3" fill-rule="evenodd" clip-rule="evenodd" d="M3 6C3 4.34315 4.34315 3 6 3H18C19.6569 3 21 4.34315 21 6V18C21 19.6569 19.6569 21 18 21H6C4.34315 21 3 19.6569 3 18V6ZM12 6.5C9.51472 6.5 7.5 8.51472 7.5 11V13C7.5 15.4853 9.51472 17.5 12 17.5C14.4853 17.5 16.5 15.4853 16.5 13V11C16.5 8.51472 14.4853 6.5 12 6.5ZM9.5 11C9.5 9.61929 10.6193 8.5 12 8.5C13.3807 8.5 14.5 9.61929 14.5 11V13C14.5 14.3807 13.3807 15.5 12 15.5C10.6193 15.5 9.5 14.3807 9.5 13V11Z" fill="black"/>
<path fill-rule="evenodd" clip-rule="evenodd" d="M7.5 11C7.5 8.51472 9.51472 6.5 12 6.5C14.4853 6.5 16.5 8.51472 16.5 11V13C16.5 15.4853 14.4853 17.5 12 17.5C9.51472 17.5 7.5 15.4853 7.5 13V11ZM12 8.5C10.6193 8.5 9.5 9.61929 9.5 11V13C9.5 14.3807 10.6193 15.5 12 15.5C13.3807 15.5 14.5 14.3807 14.5 13V11C14.5 9.61929 13.3807 8.5 12 8.5Z" fill="black"/>
</svg>
