<svg width="24" height="24" viewBox="0 0 24 24" fill="none" xmlns="http://www.w3.org/2000/svg">
<path opacity="0.3" fill-rule="evenodd" clip-rule="evenodd" d="M3 6C3 4.34315 4.34315 3 6 3H18C19.6569 3 21 4.34315 21 6V18C21 19.6569 19.6569 21 18 21H6C4.34315 21 3 19.6569 3 18V6ZM15 17C15.5523 17 16 16.5523 16 16C16 15.4477 15.5523 15 15 15H10V8C10 7.44772 9.55228 7 9 7C8.44772 7 8 7.44772 8 8V15.5C8 16.3284 8.67157 17 9.5 17H15Z" fill="black"/>
<path fill-rule="evenodd" clip-rule="evenodd" d="M16 16C16 16.5523 15.5523 17 15 17H9.5C8.67157 17 8 16.3284 8 15.5V8C8 7.44772 8.44772 7 9 7C9.55228 7 10 7.44772 10 8V15H15C15.5523 15 16 15.4477 16 16Z" fill="black"/>
</svg>
