<svg width="24" height="24" viewBox="0 0 24 24" fill="none" xmlns="http://www.w3.org/2000/svg">
<g opacity="0.3">
<path d="M8.5 12C8.5 10.067 10.067 8.5 12 8.5C13.933 8.5 15.5 10.067 15.5 12C15.5 12.6028 15.3476 13.1699 15.0793 13.6651L14.2071 12.7929C13.8166 12.4024 13.1834 12.4024 12.7929 12.7929C12.4024 13.1834 12.4024 13.8166 12.7929 14.2071L13.6651 15.0793C13.1699 15.3476 12.6028 15.5 12 15.5C10.067 15.5 8.5 13.933 8.5 12Z" fill="black"/>
<path fill-rule="evenodd" clip-rule="evenodd" d="M3 6C3 4.34315 4.34315 3 6 3H18C19.6569 3 21 4.34315 21 6V18C21 19.6569 19.6569 21 18 21H6C4.34315 21 3 19.6569 3 18V6ZM17.5 12C17.5 13.1575 17.1424 14.2315 16.5317 15.1175L17.2071 15.7929C17.5976 16.1834 17.5976 16.8166 17.2071 17.2071C16.8166 17.5976 16.1834 17.5976 15.7929 17.2071L15.1175 16.5317C14.2315 17.1424 13.1575 17.5 12 17.5C8.96243 17.5 6.5 15.0376 6.5 12C6.5 8.96243 8.96243 6.5 12 6.5C15.0376 6.5 17.5 8.96243 17.5 12Z" fill="black"/>
</g>
<path fill-rule="evenodd" clip-rule="evenodd" d="M12 8.5C10.067 8.5 8.5 10.067 8.5 12C8.5 13.933 10.067 15.5 12 15.5C12.6028 15.5 13.1699 15.3476 13.6651 15.0793L12.7929 14.2071C12.4024 13.8166 12.4024 13.1834 12.7929 12.7929C13.1834 12.4024 13.8166 12.4024 14.2071 12.7929L15.0793 13.6651C15.3476 13.1699 15.5 12.6028 15.5 12C15.5 10.067 13.933 8.5 12 8.5ZM16.5317 15.1175C17.1424 14.2315 17.5 13.1575 17.5 12C17.5 8.96243 15.0376 6.5 12 6.5C8.96243 6.5 6.5 8.96243 6.5 12C6.5 15.0376 8.96243 17.5 12 17.5C13.1575 17.5 14.2315 17.1424 15.1175 16.5317L15.7929 17.2071C16.1834 17.5976 16.8166 17.5976 17.2071 17.2071C17.5976 16.8166 17.5976 16.1834 17.2071 15.7929L16.5317 15.1175Z" fill="black"/>
</svg>
