<svg width="24" height="24" viewBox="0 0 24 24" fill="none" xmlns="http://www.w3.org/2000/svg">
<g opacity="0.3">
<path d="M9 16V8H10.6667C13.1217 8 15 9.85068 15 12C15 14.1493 13.1217 16 10.6667 16H9Z" fill="black"/>
<path fill-rule="evenodd" clip-rule="evenodd" d="M3 6C3 4.34315 4.34315 3 6 3H18C19.6569 3 21 4.34315 21 6V18C21 19.6569 19.6569 21 18 21H6C4.34315 21 3 19.6569 3 18V6ZM8 6C7.44772 6 7 6.44772 7 7V17C7 17.5523 7.44772 18 8 18H10.6667C14.1027 18 17 15.3735 17 12C17 8.62648 14.1027 6 10.6667 6H8Z" fill="black"/>
</g>
<path fill-rule="evenodd" clip-rule="evenodd" d="M7 7C7 6.44772 7.44772 6 8 6H10.6667C14.1027 6 17 8.62648 17 12C17 15.3735 14.1027 18 10.6667 18H8C7.44772 18 7 17.5523 7 17V7ZM9 8V16H10.6667C13.1217 16 15 14.1493 15 12C15 9.85068 13.1217 8 10.6667 8H9Z" fill="black"/>
</svg>
