<svg width="24" height="24" viewBox="0 0 24 24" fill="none" xmlns="http://www.w3.org/2000/svg">
<g opacity="0.3">
<path d="M12.0002 9.46221L13.3504 12.5H10.6501L12.0002 9.46221Z" fill="black"/>
<path fill-rule="evenodd" clip-rule="evenodd" d="M3 6C3 4.34315 4.34315 3 6 3H18C19.6569 3 21 4.34315 21 6V18C21 19.6569 19.6569 21 18 21H6C4.34315 21 3 19.6569 3 18V6ZM12.9141 6.59386C12.7536 6.23273 12.3954 6 12.0002 6C11.6051 6 11.2469 6.23273 11.0864 6.59386L8.22158 13.0398C8.20309 13.0754 8.18668 13.1122 8.17251 13.1502L7.08644 15.5939C6.86213 16.0985 7.08943 16.6895 7.59411 16.9138C8.0988 17.1381 8.68976 16.9108 8.91406 16.4061L9.76123 14.5H14.2393L15.0864 16.4061C15.3107 16.9108 15.9017 17.1381 16.4064 16.9138C16.9111 16.6895 17.1384 16.0985 16.9141 15.5939L12.9141 6.59386Z" fill="black"/>
</g>
<path fill-rule="evenodd" clip-rule="evenodd" d="M12.0002 6C12.3954 6 12.7536 6.23273 12.9141 6.59386L16.9141 15.5939C17.1384 16.0985 16.9111 16.6895 16.4064 16.9138C15.9017 17.1381 15.3107 16.9108 15.0864 16.4061L14.2393 14.5H9.76123L8.91406 16.4061C8.68976 16.9108 8.0988 17.1381 7.59411 16.9138C7.08943 16.6895 6.86213 16.0985 7.08644 15.5939L8.17251 13.1502C8.18668 13.1122 8.20309 13.0754 8.22158 13.0398L11.0864 6.59386C11.2469 6.23273 11.6051 6 12.0002 6ZM10.6501 12.5H13.3504L12.0002 9.46221L10.6501 12.5Z" fill="black"/>
</svg>
