<svg width="24" height="24" viewBox="0 0 24 24" fill="none" xmlns="http://www.w3.org/2000/svg">
<path opacity="0.3" fill-rule="evenodd" clip-rule="evenodd" d="M3 6C3 4.34315 4.34315 3 6 3H18C19.6569 3 21 4.34315 21 6V18C21 19.6569 19.6569 21 18 21H6C4.34315 21 3 19.6569 3 18V6ZM8.5 12C8.5 10.067 10.067 8.5 12 8.5C13.1444 8.5 14.1605 9.04821 14.8008 9.90058C15.1325 10.3422 15.7593 10.4313 16.2009 10.0996C16.6425 9.76788 16.7316 9.14101 16.3999 8.69942C15.3982 7.36579 13.8 6.5 12 6.5C8.96243 6.5 6.5 8.96243 6.5 12C6.5 15.0376 8.96243 17.5 12 17.5C15.0376 17.5 17.5 15.0376 17.5 12C17.5 11.4477 17.0523 11 16.5 11H13.8C13.2477 11 12.8 11.4477 12.8 12C12.8 12.5523 13.2477 13 13.8 13H15.3551C14.9248 14.4457 13.5855 15.5 12 15.5C10.067 15.5 8.5 13.933 8.5 12Z" fill="black"/>
<path fill-rule="evenodd" clip-rule="evenodd" d="M12 8.5C10.067 8.5 8.5 10.067 8.5 12C8.5 13.933 10.067 15.5 12 15.5C13.5855 15.5 14.9248 14.4457 15.3551 13H13.8C13.2477 13 12.8 12.5523 12.8 12C12.8 11.4477 13.2477 11 13.8 11H16.5C17.0523 11 17.5 11.4477 17.5 12C17.5 15.0376 15.0376 17.5 12 17.5C8.96243 17.5 6.5 15.0376 6.5 12C6.5 8.96243 8.96243 6.5 12 6.5C13.8 6.5 15.3982 7.36579 16.3999 8.69942C16.7316 9.14101 16.6425 9.76788 16.2009 10.0996C15.7593 10.4313 15.1325 10.3422 14.8008 9.90058C14.1605 9.04821 13.1444 8.5 12 8.5Z" fill="black"/>
</svg>
