<svg width="24" height="24" viewBox="0 0 24 24" fill="none" xmlns="http://www.w3.org/2000/svg">
<path opacity="0.3" fill-rule="evenodd" clip-rule="evenodd" d="M3 6C3 4.34315 4.34315 3 6 3H18C19.6569 3 21 4.34315 21 6V18C21 19.6569 19.6569 21 18 21H6C4.34315 21 3 19.6569 3 18V6ZM15 9C15.5523 9 16 8.55228 16 8C16 7.44772 15.5523 7 15 7H9C8.44772 7 8 7.44772 8 8C8 8.55228 8.44772 9 9 9H11V15H9C8.44772 15 8 15.4477 8 16C8 16.5523 8.44772 17 9 17H15C15.5523 17 16 16.5523 16 16C16 15.4477 15.5523 15 15 15H13V9H15Z" fill="black"/>
<path fill-rule="evenodd" clip-rule="evenodd" d="M16 8C16 8.55228 15.5523 9 15 9H13V15H15C15.5523 15 16 15.4477 16 16C16 16.5523 15.5523 17 15 17H9C8.44772 17 8 16.5523 8 16C8 15.4477 8.44772 15 9 15H11V9H9C8.44772 9 8 8.55228 8 8C8 7.44772 8.44772 7 9 7H15C15.5523 7 16 7.44772 16 8Z" fill="black"/>
</svg>
