<svg width="24" height="24" viewBox="0 0 24 24" fill="none" xmlns="http://www.w3.org/2000/svg">
<path opacity="0.3" fill-rule="evenodd" clip-rule="evenodd" d="M2.73261 2.03674C3.26475 1.88892 3.81596 2.20047 3.96377 2.73261L7.89242 16.8757L11.0241 2.78332C11.1236 2.33532 11.5153 2.01259 11.9741 2.0006C12.4329 1.9886 12.8409 2.29042 12.9638 2.73261L16.8924 16.8757L20.0241 2.78332C20.1439 2.24419 20.6781 1.90426 21.2172 2.02407C21.7563 2.14387 22.0962 2.67805 21.9764 3.21718L17.9764 21.2172C17.8769 21.6652 17.4852 21.9879 17.0264 21.9999C16.5676 22.0119 16.1596 21.7101 16.0367 21.2679L12.1081 7.12477L8.97644 21.2172C8.87688 21.6652 8.48516 21.9879 8.02639 21.9999C7.56762 22.0119 7.15957 21.7101 7.03674 21.2679L2.03674 3.2679C1.88892 2.73576 2.20047 2.18455 2.73261 2.03674Z" fill="black"/>
</svg>
