<svg width="24" height="24" viewBox="0 0 24 24" fill="none" xmlns="http://www.w3.org/2000/svg">
<path opacity="0.3" fill-rule="evenodd" clip-rule="evenodd" d="M4.38611 2.21069C4.82205 1.87162 5.45033 1.95016 5.7894 2.38611L12 10.3712L18.2107 2.38611C18.5498 1.95016 19.178 1.87162 19.614 2.21069C20.0499 2.54976 20.1285 3.17804 19.7894 3.61399L13.2669 12L19.7894 20.3861C20.1285 20.8221 20.0499 21.4503 19.614 21.7894C19.178 22.1285 18.5498 22.0499 18.2107 21.614L12 13.6289L5.7894 21.614C5.45033 22.0499 4.82205 22.1285 4.38611 21.7894C3.95016 21.4503 3.87162 20.8221 4.21069 20.3861L10.7332 12L4.21069 3.61399C3.87162 3.17804 3.95016 2.54976 4.38611 2.21069Z" fill="black"/>
</svg>
