<svg width="24" height="24" viewBox="0 0 24 24" fill="none" xmlns="http://www.w3.org/2000/svg">
<path opacity="0.14" d="M16 14.5C16 18.0899 13.0899 21 9.5 21C5.91015 21 3 18.0899 3 14.5C3 10.9101 5.91015 8 9.5 8C13.0899 8 16 10.9101 16 14.5Z" fill="black"/>
<path d="M20 9C20 9.55228 20.4477 10 21 10C21.5523 10 22 9.55228 22 9H20ZM21 3H22C22 2.44772 21.5523 2 21 2V3ZM15 2C14.4477 2 14 2.44772 14 3C14 3.55228 14.4477 4 15 4V2ZM13.3905 9.19643C13 9.58696 13 10.2201 13.3905 10.6106C13.7811 11.0012 14.4142 11.0012 14.8048 10.6106L13.3905 9.19643ZM21.7083 3.70711C22.0988 3.31658 22.0988 2.68342 21.7083 2.29289C21.3178 1.90237 20.6846 1.90237 20.2941 2.29289L21.7083 3.70711ZM17.2929 9.70711C17.6834 10.0976 18.3166 10.0976 18.7071 9.70711C19.0976 9.31658 19.0976 8.68342 18.7071 8.29289L17.2929 9.70711ZM15.7071 5.29289C15.3166 4.90237 14.6834 4.90237 14.2929 5.29289C13.9024 5.68342 13.9024 6.31658 14.2929 6.70711L15.7071 5.29289ZM22 9V3H20V9H22ZM15 4H21V2H15V4ZM14.8048 10.6106L21.7083 3.70711L20.2941 2.29289L13.3905 9.19643L14.8048 10.6106ZM15 14.5C15 17.5376 12.5376 20 9.5 20V22C13.6421 22 17 18.6421 17 14.5H15ZM9.5 20C6.46243 20 4 17.5376 4 14.5H2C2 18.6421 5.35786 22 9.5 22V20ZM4 14.5C4 11.4624 6.46243 9 9.5 9V7C5.35786 7 2 10.3579 2 14.5H4ZM9.5 9C12.5376 9 15 11.4624 15 14.5H17C17 10.3579 13.6421 7 9.5 7V9ZM18.7071 8.29289L15.7071 5.29289L14.2929 6.70711L17.2929 9.70711L18.7071 8.29289Z" fill="black"/>
</svg>
