<svg width="24" height="24" viewBox="0 0 24 24" fill="none" xmlns="http://www.w3.org/2000/svg">
<path d="M18.4976 14.7121L17.7536 15.3803C17.9433 15.5914 18.2138 15.7121 18.4976 15.7121C18.7814 15.7121 19.0519 15.5914 19.2416 15.3803L18.4976 14.7121ZM15.4425 17.1869L16.2173 16.5547L15.4425 17.1869ZM18.4976 20.0001L17.858 20.7688C18.2286 21.0772 18.7666 21.0772 19.1373 20.7688L18.4976 20.0001ZM12 21.0001L11.5528 21.8946C11.8628 22.0496 12.2309 22.033 12.5258 21.8508C12.8206 21.6686 13 21.3467 13 21.0001H12ZM8.05279 14.1446C8.54676 14.3915 9.14744 14.1913 9.39443 13.6973C9.64142 13.2034 9.44119 12.6027 8.94721 12.3557L8.05279 14.1446ZM7.94721 11.8557C7.45324 11.6087 6.85256 11.8089 6.60557 12.3029C6.35858 12.7969 6.55881 13.3976 7.05279 13.6446L7.94721 11.8557ZM16.4472 5.89456C16.9412 5.64757 17.1414 5.04689 16.8944 4.55292C16.6474 4.05894 16.0468 3.85871 15.5528 4.1057L16.4472 5.89456ZM4.88451 17.4423L5.33172 16.5479L5.33169 16.5479L4.88451 17.4423ZM4.88451 6.55791L5.33169 7.45236L5.33169 7.45236L4.88451 6.55791ZM11.2851 3.35788L11.7323 4.25232L11.7323 4.25232L11.2851 3.35788ZM12.7162 3.35793L12.269 4.25234V4.25234L12.7162 3.35793ZM19.1156 6.55789L19.5628 5.66348V5.66348L19.1156 6.55789ZM19 10.0001C19 10.5524 19.4477 11.0001 20 11.0001C20.5523 11.0001 21 10.5524 21 10.0001H19ZM19.7144 6.91844L20.4289 6.21874L20.4289 6.21874L19.7144 6.91844ZM19.9453 7.29208L20.8907 6.96602V6.96602L19.9453 7.29208ZM11.8163 3.13531L12.0006 4.11816L12.0007 4.11816L11.8163 3.13531ZM12.1851 3.13532L12.0007 4.11816L12.0007 4.11816L12.1851 3.13532ZM4.05466 7.29211L5 7.61819H5L4.05466 7.29211ZM4.2856 6.91845L5 7.61819L5 7.61819L4.2856 6.91845ZM4.2856 17.0818L5 16.3821L5 16.3821L4.2856 17.0818ZM4.05466 16.7082L3.10932 17.0342L3.10932 17.0342L4.05466 16.7082ZM19.8422 7.07902L20.6845 6.53989L19.8422 7.07902ZM19.2416 14.0439C18.2426 12.9316 16.4767 12.5596 15.123 13.6612L16.3853 15.2124C16.7851 14.8871 17.3531 14.9343 17.7536 15.3803L19.2416 14.0439ZM15.123 13.6612C13.8295 14.7137 13.6199 16.535 14.6677 17.8191L16.2173 16.5547C15.888 16.1512 15.9252 15.5868 16.3853 15.2124L15.123 13.6612ZM22.3275 17.8191C23.3659 16.5466 23.1948 14.708 21.8617 13.6527L20.6204 15.2209C21.071 15.5775 21.1166 16.1397 20.7779 16.5547L22.3275 17.8191ZM21.8617 13.6527C20.5034 12.5775 18.7599 12.9235 17.7536 14.0439L19.2416 15.3803C19.6348 14.9424 20.195 14.8841 20.6204 15.2209L21.8617 13.6527ZM14.6677 17.8191C15.0736 18.3167 15.904 19.0753 16.5667 19.6599C16.9114 19.9639 17.2335 20.2406 17.4693 20.441C17.5873 20.5414 17.6839 20.6229 17.7513 20.6795C17.785 20.7078 17.8114 20.7299 17.8295 20.745C17.8385 20.7526 17.8455 20.7584 17.8503 20.7624C17.8527 20.7644 17.8545 20.766 17.8558 20.767C17.8565 20.7676 17.857 20.768 17.8573 20.7683C17.8575 20.7684 17.8576 20.7685 17.8577 20.7686C17.8578 20.7687 17.8578 20.7687 17.8579 20.7687C17.8579 20.7688 17.858 20.7688 18.4976 20.0001C19.1373 19.2315 19.1373 19.2315 19.1373 19.2315C19.1373 19.2315 19.1373 19.2315 19.1372 19.2315C19.1372 19.2314 19.1371 19.2314 19.137 19.2313C19.1368 19.2311 19.1364 19.2308 19.1359 19.2304C19.1349 19.2295 19.1334 19.2282 19.1313 19.2265C19.1271 19.223 19.1207 19.2176 19.1122 19.2106C19.0953 19.1964 19.0702 19.1754 19.0378 19.1482C18.9731 19.0938 18.8795 19.0149 18.7649 18.9174C18.5354 18.7223 18.2228 18.4538 17.8898 18.16C17.197 17.5489 16.4998 16.901 16.2173 16.5547L14.6677 17.8191ZM18.4976 20.0001C19.1373 20.7688 19.1373 20.7688 19.1373 20.7687C19.1374 20.7687 19.1374 20.7687 19.1375 20.7686C19.1376 20.7685 19.1377 20.7684 19.1379 20.7683C19.1382 20.768 19.1387 20.7676 19.1394 20.767C19.1407 20.766 19.1425 20.7644 19.1449 20.7624C19.1497 20.7584 19.1567 20.7526 19.1657 20.745C19.1838 20.7299 19.2102 20.7078 19.2439 20.6795C19.3113 20.6229 19.4079 20.5414 19.5259 20.441C19.7617 20.2406 20.0838 19.9639 20.4285 19.6599C21.0912 19.0753 21.9216 18.3167 22.3275 17.8191L20.7779 16.5547C20.4954 16.901 19.7982 17.5489 19.1054 18.16C18.7724 18.4538 18.4598 18.7223 18.2303 18.9174C18.1157 19.0149 18.0221 19.0938 17.9574 19.1482C17.925 19.1754 17.8999 19.1964 17.883 19.2106C17.8745 19.2176 17.8681 19.223 17.8639 19.2265C17.8618 19.2282 17.8603 19.2295 17.8593 19.2304C17.8588 19.2308 17.8584 19.2311 17.8582 19.2313C17.8581 19.2314 17.858 19.2314 17.858 19.2315C17.8579 19.2315 17.8579 19.2315 17.8579 19.2315C17.8579 19.2315 17.858 19.2315 18.4976 20.0001ZM11 11.0001V21.0001H13V11.0001H11ZM8.94721 12.3557L7.94721 11.8557L7.05279 13.6446L8.05279 14.1446L8.94721 12.3557ZM15.5528 4.1057L7.55279 8.1057L8.44721 9.89456L16.4472 5.89456L15.5528 4.1057ZM12.4472 20.1057L5.33172 16.5479L4.43729 18.3368L11.5528 21.8946L12.4472 20.1057ZM5 16.0112V7.98902H3V16.0112H5ZM5.33169 7.45236L11.7323 4.25232L10.838 2.46343L4.43733 5.66347L5.33169 7.45236ZM12.269 4.25234L18.6683 7.4523L19.5628 5.66348L13.1635 2.46351L12.269 4.25234ZM19 7.98895V10.0001H21V7.98895H19ZM18.6683 7.4523C18.8397 7.53798 18.9276 7.58244 18.9894 7.6183C19.0409 7.64823 19.0273 7.646 19 7.61814L20.4289 6.21874C20.1663 5.95066 19.819 5.79159 19.5628 5.66348L18.6683 7.4523ZM21 7.98895C21 7.70249 21.013 7.32075 20.8907 6.96602L19 7.61814C18.9873 7.58127 18.9914 7.56808 18.9951 7.62757C18.9996 7.69886 19 7.79737 19 7.98895H21ZM11.7323 4.25232C11.8726 4.18217 11.9437 4.14702 11.9964 4.12406C12.0396 4.10529 12.0314 4.11239 12.0006 4.11816L11.6319 2.15245C11.3244 2.21013 11.0485 2.35819 10.8379 2.46344L11.7323 4.25232ZM13.1635 2.46351C12.953 2.35825 12.677 2.21018 12.3695 2.15247L12.0007 4.11816C11.9699 4.11239 11.9617 4.10529 12.0049 4.12406C12.0576 4.14702 12.1287 4.18217 12.269 4.25234L13.1635 2.46351ZM12.0007 4.11816V4.11816L12.3695 2.15247C12.1258 2.10674 11.8757 2.10673 11.6319 2.15245L12.0007 4.11816ZM5 7.98902C5 7.79743 5.00045 7.69891 5.00489 7.62762C5.0086 7.56812 5.01272 7.58132 5 7.61819L3.10932 6.96603C2.98695 7.32077 3 7.70255 3 7.98902H5ZM4.43733 5.66347C4.1811 5.79157 3.83378 5.95063 3.5712 6.21872L5 7.61819C4.97271 7.64605 4.95906 7.64827 5.01063 7.61834C5.07241 7.58249 5.16033 7.53803 5.33169 7.45236L4.43733 5.66347ZM5.33169 16.5479C5.16032 16.4622 5.0724 16.4178 5.01062 16.3819C4.95906 16.352 4.97271 16.3542 5 16.3821L3.5712 17.7815C3.83378 18.0496 4.18109 18.2087 4.43733 18.3368L5.33169 16.5479ZM3 16.0112C3 16.2977 2.98695 16.6795 3.10932 17.0342L5 16.3821C5.01272 16.4189 5.0086 16.4321 5.00489 16.3726C5.00045 16.3013 5 16.2028 5 16.0112H3ZM5 16.3821L5 16.3821L3.10932 17.0342C3.20599 17.3145 3.36375 17.5698 3.5712 17.7815L5 16.3821ZM5 7.61819L5 7.61819L3.31559 6.53987C3.23046 6.67285 3.16112 6.81585 3.10932 6.96603L5 7.61819ZM5 7.61819L5 7.61819L3.5712 6.21871C3.47491 6.31702 3.38933 6.42469 3.31559 6.53987L5 7.61819ZM12.4472 10.1057L4.60501 6.1846L3.71058 7.97346L11.5528 11.8946L12.4472 10.1057ZM19 7.61814L19 7.61814L20.6845 6.53989C20.6107 6.42471 20.5251 6.31704 20.4289 6.21874L19 7.61814ZM19 7.61814V7.61814L20.8907 6.96602C20.8389 6.81585 20.7696 6.67286 20.6845 6.53989L19 7.61814ZM19.395 6.18459L11.5528 10.1057L12.4472 11.8946L20.2894 7.97344L19.395 6.18459Z" fill="black"/>
</svg>
