<svg width="24" height="24" viewBox="0 0 24 24" fill="none" xmlns="http://www.w3.org/2000/svg">
<path d="M21.9239 18.3828L21 18.0001L21.9239 18.3828ZM21.9239 16.6174L21 17.0001L21.9239 16.6174ZM20 16.004C20 16.5563 20.4477 17.004 21 17.004C21.5523 17.004 22 16.5563 22 16.004H20ZM16 16.004C16 16.5563 16.4477 17.004 17 17.004C17.5523 17.004 18 16.5563 18 16.004H16ZM12 21.0001L11.5528 21.8946C11.8628 22.0496 12.2309 22.033 12.5258 21.8508C12.8206 21.6686 13 21.3467 13 21.0001H12ZM16.4472 5.89456C16.9412 5.64757 17.1414 5.04689 16.8944 4.55292C16.6474 4.05894 16.0468 3.85871 15.5528 4.1057L16.4472 5.89456ZM4.88451 17.4423L5.33172 16.5479L5.33169 16.5479L4.88451 17.4423ZM4.88451 6.55791L5.33169 7.45236L5.33169 7.45236L4.88451 6.55791ZM11.2851 3.35788L11.7323 4.25232L11.7323 4.25232L11.2851 3.35788ZM12.7162 3.35793L12.269 4.25234V4.25234L12.7162 3.35793ZM19.1156 6.55789L19.5628 5.66348V5.66348L19.1156 6.55789ZM19 9.00013C19 9.55241 19.4477 10.0001 20 10.0001C20.5523 10.0001 21 9.55241 21 9.00013H19ZM19.7144 6.91844L20.4289 6.21874L20.4289 6.21874L19.7144 6.91844ZM19.9453 7.29208L20.8907 6.96602V6.96602L19.9453 7.29208ZM11.8163 3.13531L12.0006 4.11816L12.0007 4.11816L11.8163 3.13531ZM12.1851 3.13532L12.0007 4.11816L12.0007 4.11816L12.1851 3.13532ZM4.05466 7.29211L5 7.61819H5L4.05466 7.29211ZM4.2856 6.91845L5 7.61819L5 7.61819L4.2856 6.91845ZM4.2856 17.0818L5 16.3821L5 16.3821L4.2856 17.0818ZM4.05466 16.7082L3.10932 17.0342L3.10932 17.0342L4.05466 16.7082ZM8.05279 14.1446C8.54676 14.3915 9.14744 14.1913 9.39443 13.6973C9.64142 13.2034 9.44119 12.6027 8.94721 12.3557L8.05279 14.1446ZM7.94721 11.8557C7.45324 11.6087 6.85256 11.8089 6.60557 12.3029C6.35858 12.7969 6.55881 13.3976 7.05279 13.6446L7.94721 11.8557ZM19.8422 7.07902L20.6845 6.53989L19.8422 7.07902ZM17.5 17.0001H20.5V15.0001H17.5V17.0001ZM20.5 18.0001H17.5V20.0001H20.5V18.0001ZM17.5 18.0001C17.2533 18.0001 17.1184 17.9996 17.0209 17.9929C16.9324 17.9869 16.9497 17.9793 17 18.0001L16.2346 19.8479C16.4687 19.9448 16.6944 19.9753 16.8848 19.9883C17.0662 20.0007 17.2807 20.0001 17.5 20.0001V18.0001ZM15 17.5001C15 17.7194 14.9995 17.934 15.0118 18.1154C15.0248 18.3057 15.0553 18.5315 15.1522 18.7655L17 18.0001C17.0208 18.0504 17.0132 18.0678 17.0072 17.9792C17.0005 17.8817 17 17.7468 17 17.5001H15ZM17 18.0001L15.1522 18.7655C15.3552 19.2556 15.7446 19.6449 16.2346 19.8479L17 18.0001ZM21 17.5001C21 17.7468 20.9995 17.8817 20.9928 17.9792C20.9868 18.0678 20.9792 18.0504 21 18.0001L22.8478 18.7655C22.9447 18.5315 22.9752 18.3057 22.9882 18.1154C23.0005 17.934 23 17.7194 23 17.5001H21ZM20.5 20.0001C20.7193 20.0001 20.9338 20.0007 21.1152 19.9883C21.3056 19.9753 21.5313 19.9448 21.7654 19.8479L21 18.0001C21.0503 17.9793 21.0676 17.9869 20.9791 17.9929C20.8816 17.9996 20.7467 18.0001 20.5 18.0001V20.0001ZM21 18.0001L21.7654 19.8479C22.2554 19.6449 22.6448 19.2556 22.8478 18.7655L21 18.0001ZM20.5 17.0001C20.7467 17.0001 20.8816 17.0007 20.9791 17.0073C21.0676 17.0134 21.0503 17.021 21 17.0001L21.7654 15.1524C21.5313 15.0554 21.3056 15.025 21.1152 15.012C20.9338 14.9996 20.7193 15.0001 20.5 15.0001V17.0001ZM23 17.5001C23 17.2808 23.0005 17.0663 22.9882 16.8849C22.9752 16.6945 22.9447 16.4688 22.8478 16.2348L21 17.0001C20.9792 16.9499 20.9868 16.9325 20.9928 17.021C20.9995 17.1186 21 17.2535 21 17.5001H23ZM21 17.0001V17.0001L22.8478 16.2348C22.6448 15.7447 22.2554 15.3554 21.7654 15.1524L21 17.0001ZM17.5 15.0001C17.2807 15.0001 17.0662 14.9996 16.8848 15.012C16.6944 15.025 16.4687 15.0554 16.2346 15.1524L17 17.0001C16.9497 17.021 16.9324 17.0134 17.0209 17.0073C17.1184 17.0007 17.2533 17.0001 17.5 17.0001V15.0001ZM17 17.5001C17 17.2535 17.0005 17.1186 17.0072 17.021C17.0132 16.9325 17.0208 16.9499 17 17.0001L15.1522 16.2348C15.0553 16.4688 15.0248 16.6945 15.0118 16.8849C14.9995 17.0663 15 17.2808 15 17.5001H17ZM16.2346 15.1524C15.7446 15.3554 15.3552 15.7447 15.1522 16.2348L17 17.0001V17.0001L16.2346 15.1524ZM20 15.0001V16.004H22V15.0001H20ZM18 16.004V15.0001H16V16.004H18ZM19 14.0001C19.5523 14.0001 20 14.4478 20 15.0001H22C22 13.3433 20.6569 12.0001 19 12.0001V14.0001ZM19 12.0001C17.3431 12.0001 16 13.3433 16 15.0001H18C18 14.4478 18.4477 14.0001 19 14.0001V12.0001ZM11 11.0001V21.0001H13V11.0001H11ZM15.5528 4.1057L7.55279 8.1057L8.44721 9.89456L16.4472 5.89456L15.5528 4.1057ZM12.4472 20.1057L5.33172 16.5479L4.43729 18.3368L11.5528 21.8946L12.4472 20.1057ZM5 16.0112V7.98902H3V16.0112H5ZM5.33169 7.45236L11.7323 4.25232L10.838 2.46343L4.43733 5.66347L5.33169 7.45236ZM12.269 4.25234L18.6683 7.4523L19.5628 5.66348L13.1635 2.46351L12.269 4.25234ZM19 7.98895V9.00013H21V7.98895H19ZM18.6683 7.4523C18.8397 7.53798 18.9276 7.58244 18.9894 7.6183C19.0409 7.64823 19.0273 7.646 19 7.61814L20.4289 6.21874C20.1663 5.95066 19.819 5.79159 19.5628 5.66348L18.6683 7.4523ZM21 7.98895C21 7.70249 21.013 7.32075 20.8907 6.96602L19 7.61814C18.9873 7.58127 18.9914 7.56808 18.9951 7.62757C18.9996 7.69886 19 7.79737 19 7.98895H21ZM11.7323 4.25232C11.8726 4.18217 11.9437 4.14702 11.9964 4.12406C12.0396 4.10529 12.0314 4.11239 12.0006 4.11816L11.6319 2.15245C11.3244 2.21013 11.0485 2.35819 10.8379 2.46344L11.7323 4.25232ZM13.1635 2.46351C12.953 2.35825 12.677 2.21018 12.3695 2.15247L12.0007 4.11816C11.9699 4.11239 11.9617 4.10529 12.0049 4.12406C12.0576 4.14702 12.1287 4.18217 12.269 4.25234L13.1635 2.46351ZM12.0007 4.11816V4.11816L12.3695 2.15247C12.1258 2.10674 11.8757 2.10673 11.6319 2.15245L12.0007 4.11816ZM5 7.98902C5 7.79743 5.00045 7.69891 5.00489 7.62762C5.0086 7.56812 5.01272 7.58132 5 7.61819L3.10932 6.96603C2.98695 7.32077 3 7.70255 3 7.98902H5ZM4.43733 5.66347C4.1811 5.79157 3.83378 5.95063 3.5712 6.21872L5 7.61819C4.97271 7.64605 4.95906 7.64827 5.01063 7.61834C5.07241 7.58249 5.16033 7.53803 5.33169 7.45236L4.43733 5.66347ZM5.33169 16.5479C5.16032 16.4622 5.0724 16.4178 5.01062 16.3819C4.95906 16.352 4.97271 16.3542 5 16.3821L3.5712 17.7815C3.83378 18.0496 4.18109 18.2087 4.43733 18.3368L5.33169 16.5479ZM3 16.0112C3 16.2977 2.98695 16.6795 3.10932 17.0342L5 16.3821C5.01272 16.4189 5.0086 16.4321 5.00489 16.3726C5.00045 16.3013 5 16.2028 5 16.0112H3ZM5 16.3821L5 16.3821L3.10932 17.0342C3.20599 17.3145 3.36375 17.5698 3.5712 17.7815L5 16.3821ZM8.94721 12.3557L7.94721 11.8557L7.05279 13.6446L8.05279 14.1446L8.94721 12.3557ZM5 7.61819L5 7.61819L3.31559 6.53987C3.23046 6.67285 3.16112 6.81585 3.10932 6.96603L5 7.61819ZM5 7.61819L5 7.61819L3.5712 6.21871C3.47491 6.31702 3.38933 6.42469 3.31559 6.53987L5 7.61819ZM12.4472 10.1057L4.60501 6.1846L3.71058 7.97346L11.5528 11.8946L12.4472 10.1057ZM19 7.61814L19 7.61814L20.6845 6.53989C20.6107 6.42471 20.5251 6.31704 20.4289 6.21874L19 7.61814ZM19 7.61814V7.61814L20.8907 6.96602C20.8389 6.81585 20.7696 6.67286 20.6845 6.53989L19 7.61814ZM19.395 6.18459L11.5528 10.1057L12.4472 11.8946L20.2894 7.97344L19.395 6.18459Z" fill="black"/>
</svg>
