<svg width="24" height="24" viewBox="0 0 24 24" fill="none" xmlns="http://www.w3.org/2000/svg">
<path d="M17.2924 16.2928C16.9019 16.6833 16.9019 17.3165 17.2924 17.707C17.6829 18.0975 18.3161 18.0975 18.7066 17.707L17.2924 16.2928ZM15.0941 13.7506C14.9564 14.2855 15.2784 14.8307 15.8132 14.9683C16.3481 15.106 16.8933 14.784 17.0309 14.2491L15.0941 13.7506ZM18 18.9999C17.4477 18.9999 17 19.4476 17 19.9999C17 20.5522 17.4477 20.9999 18 20.9999V18.9999ZM18.01 20.9999C18.5623 20.9999 19.01 20.5522 19.01 19.9999C19.01 19.4476 18.5623 18.9999 18.01 18.9999V20.9999ZM11.285 20.6421L10.8379 21.5365H10.8379L11.285 20.6421ZM4.88451 17.4421L5.33169 16.5477H5.33169L4.88451 17.4421ZM4.88451 6.55767L5.33169 7.45211L5.33169 7.45211L4.88451 6.55767ZM11.2851 3.35763L11.7323 4.25207L11.7323 4.25207L11.2851 3.35763ZM12.7162 3.35768L12.269 4.25209V4.25209L12.7162 3.35768ZM19.1156 6.55764L19.5628 5.66323V5.66323L19.1156 6.55764ZM19 8.99989C19 9.55217 19.4477 9.99989 20 9.99989C20.5523 9.99989 21 9.55217 21 8.99989H19ZM14.4473 20.8943C14.9413 20.6472 15.1414 20.0465 14.8944 19.5525C14.6473 19.0586 14.0466 18.8585 13.5527 19.1055L14.4473 20.8943ZM12.7163 20.642L13.1636 21.5363L12.7163 20.642ZM19.7144 6.91819L20.4289 6.21849L20.4289 6.21849L19.7144 6.91819ZM19.9453 7.29183L20.8907 6.96577V6.96577L19.9453 7.29183ZM11.8163 3.13506L12.0006 4.11792L12.0007 4.11792L11.8163 3.13506ZM12.1851 3.13507L12.0007 4.11792L12.0007 4.11792L12.1851 3.13507ZM4.05466 7.29186L5 7.61794H5L4.05466 7.29186ZM4.2856 6.91821L5 7.61795L5 7.61794L4.2856 6.91821ZM4.2856 17.0816L5 16.3818L5 16.3818L4.2856 17.0816ZM4.05466 16.7079L3.10932 17.034L3.10932 17.034L4.05466 16.7079ZM11.8163 20.8647L11.6319 21.8476H11.6319L11.8163 20.8647ZM12.1851 20.8647L12.0006 19.8818L12.1851 20.8647ZM16.4472 5.89431C16.9412 5.64732 17.1414 5.04665 16.8944 4.55267C16.6474 4.05869 16.0468 3.85847 15.5528 4.10546L16.4472 5.89431ZM8.05279 14.1443C8.54676 14.3913 9.14744 14.1911 9.39443 13.6971C9.64142 13.2031 9.44119 12.6024 8.94721 12.3555L8.05279 14.1443ZM7.94721 11.8555C7.45324 11.6085 6.85256 11.8087 6.60557 12.3027C6.35858 12.7967 6.55881 13.3973 7.05279 13.6443L7.94721 11.8555ZM19.8422 7.07877L20.6845 6.53965L19.8422 7.07877ZM12 20.8818L11.9995 21.8818L12 20.8818ZM18.9995 14.4999C18.9995 14.6731 18.954 14.8052 18.68 15.0696C18.5263 15.2179 18.3453 15.3652 18.0944 15.5739C17.8561 15.7722 17.5766 16.0086 17.2924 16.2928L18.7066 17.707C18.9225 17.4911 19.143 17.3032 19.3734 17.1115C19.5912 16.9304 19.8477 16.7222 20.069 16.5086C20.545 16.0492 20.9995 15.4313 20.9995 14.4999H18.9995ZM17.9995 13.4999C18.5518 13.4999 18.9995 13.9476 18.9995 14.4999H20.9995C20.9995 12.843 19.6563 11.4999 17.9995 11.4999V13.4999ZM17.0309 14.2491C17.142 13.8176 17.5349 13.4999 17.9995 13.4999V11.4999C16.6002 11.4999 15.427 12.4569 15.0941 13.7506L17.0309 14.2491ZM18 20.9999H18.01V18.9999H18V20.9999ZM11.7322 19.7477L5.33169 16.5477L4.43733 18.3365L10.8379 21.5365L11.7322 19.7477ZM5 16.011V7.98878H3V16.011H5ZM5.33169 7.45211L11.7323 4.25207L10.838 2.46319L4.43733 5.66323L5.33169 7.45211ZM12.269 4.25209L18.6683 7.45205L19.5628 5.66323L13.1635 2.46327L12.269 4.25209ZM19 7.9887V8.99989H21V7.9887H19ZM13.5527 19.1055L12.2689 19.7476L13.1636 21.5363L14.4473 20.8943L13.5527 19.1055ZM18.6683 7.45205C18.8397 7.53774 18.9276 7.58219 18.9894 7.61805C19.0409 7.64798 19.0273 7.64576 19 7.6179L20.4289 6.21849C20.1663 5.95041 19.819 5.79134 19.5628 5.66323L18.6683 7.45205ZM21 7.9887C21 7.70225 21.013 7.3205 20.8907 6.96577L19 7.61789C18.9873 7.58103 18.9914 7.56783 18.9951 7.62733C18.9996 7.69861 19 7.79712 19 7.9887H21ZM11.7323 4.25207C11.8726 4.18192 11.9437 4.14678 11.9964 4.12382C12.0396 4.10504 12.0314 4.11215 12.0006 4.11792L11.6319 2.1522C11.3244 2.20989 11.0485 2.35795 10.8379 2.46319L11.7323 4.25207ZM13.1635 2.46327C12.953 2.358 12.677 2.20994 12.3695 2.15223L12.0007 4.11792C11.9699 4.11215 11.9617 4.10504 12.0049 4.12381C12.0576 4.14678 12.1287 4.18192 12.269 4.25209L13.1635 2.46327ZM12.0007 4.11792V4.11792L12.3695 2.15223C12.1258 2.10649 11.8757 2.10648 11.6319 2.1522L12.0007 4.11792ZM5 7.98878C5 7.79719 5.00045 7.69867 5.00489 7.62737C5.0086 7.56788 5.01272 7.58107 5 7.61794L3.10932 6.96578C2.98695 7.32053 3 7.70231 3 7.98878H5ZM4.43733 5.66323C4.1811 5.79133 3.83378 5.95039 3.5712 6.21847L5 7.61794C4.97271 7.64581 4.95906 7.64803 5.01063 7.6181C5.07241 7.58224 5.16033 7.53779 5.33169 7.45211L4.43733 5.66323ZM5.33169 16.5477C5.16032 16.462 5.0724 16.4175 5.01062 16.3817C4.95906 16.3517 4.97271 16.354 5 16.3818L3.5712 17.7813C3.83378 18.0494 4.18109 18.2084 4.43733 18.3365L5.33169 16.5477ZM3 16.011C3 16.2975 2.98695 16.6792 3.10932 17.034L5 16.3818C5.01272 16.4187 5.0086 16.4319 5.00489 16.3724C5.00045 16.3011 5 16.2026 5 16.011H3ZM5 16.3818L5 16.3818L3.10932 17.034C3.20599 17.3142 3.36375 17.5695 3.5712 17.7813L5 16.3818ZM10.8379 21.5365C11.0484 21.6418 11.3244 21.7899 11.6319 21.8476L12.0006 19.8818C12.0314 19.8876 12.0395 19.8947 11.9964 19.8759C11.9436 19.853 11.8726 19.8178 11.7322 19.7477L10.8379 21.5365ZM12.2689 19.7476C12.1286 19.8178 12.0576 19.853 12.0048 19.8759C11.9617 19.8947 11.9698 19.8876 12.0006 19.8818L12.3696 21.8475C12.6772 21.7897 12.9531 21.6416 13.1636 21.5363L12.2689 19.7476ZM15.5528 4.10546L7.55279 8.10546L8.44721 9.89431L16.4472 5.89431L15.5528 4.10546ZM8.94721 12.3555L7.94721 11.8555L7.05279 13.6443L8.05279 14.1443L8.94721 12.3555ZM5 7.61794L5 7.61794L3.31559 6.53962C3.23046 6.6726 3.16112 6.8156 3.10932 6.96578L5 7.61794ZM5 7.61794L5 7.61795L3.5712 6.21847C3.47491 6.31677 3.38933 6.42444 3.31559 6.53962L5 7.61794ZM12.4472 10.1055L4.60501 6.18436L3.71058 7.97321L11.5528 11.8943L12.4472 10.1055ZM19 7.61789L19 7.6179L20.6845 6.53965C20.6107 6.42447 20.5251 6.3168 20.4289 6.21849L19 7.61789ZM19 7.6179V7.6179L20.8907 6.96577C20.8389 6.81561 20.7696 6.67262 20.6845 6.53965L19 7.6179ZM19.395 6.18435L11.5528 10.1055L12.4472 11.8943L20.2894 7.9732L19.395 6.18435ZM11.6319 21.8476C11.7534 21.8703 11.8764 21.8818 11.9995 21.8818L12.0006 19.8818H12.0006L11.6319 21.8476ZM11.9995 21.8818C12.1234 21.8819 12.2473 21.8704 12.3696 21.8475L12.0006 19.8818H12.0006L11.9995 21.8818ZM11 10.9999V20.8818H13V10.9999H11Z" fill="black"/>
</svg>
