<svg width="24" height="24" viewBox="0 0 24 24" fill="none" xmlns="http://www.w3.org/2000/svg">
<path d="M18.6 14.3758L18.5735 13.3761L18.5688 13.3763L18.6 14.3758ZM17 15.6873L16 15.6856L17 15.6873ZM20.7593 15.4704C21.2953 15.6033 21.8376 15.2766 21.9706 14.7405C22.1035 14.2045 21.7768 13.6622 21.2407 13.5292L20.7593 15.4704ZM19 14.3758L19.0067 15.3758L19 14.3758ZM19.1861 19.5988V20.5988C19.225 20.5988 19.2638 20.5966 19.3025 20.5921L19.1861 19.5988ZM17.124 18.5075C16.576 18.439 16.0762 18.8277 16.0077 19.3758C15.9392 19.9238 16.3279 20.4236 16.876 20.4921L17.124 18.5075ZM20 19.9999C20 19.4476 19.5523 18.9999 19 18.9999C18.4477 18.9999 18 19.4476 18 19.9999H20ZM18 20.9999C18 21.5522 18.4477 21.9999 19 21.9999C19.5523 21.9999 20 21.5522 20 20.9999H18ZM20 12.9999C20 12.4476 19.5523 11.9999 19 11.9999C18.4477 11.9999 18 12.4476 18 12.9999H20ZM18 13.9999C18 14.5522 18.4477 14.9999 19 14.9999C19.5523 14.9999 20 14.5522 20 13.9999H18ZM16.4472 5.89431C16.9412 5.64732 17.1414 5.04665 16.8944 4.55267C16.6474 4.05869 16.0468 3.85847 15.5528 4.10546L16.4472 5.89431ZM11.2851 20.6421L10.838 21.5366H10.838L11.2851 20.6421ZM4.88451 17.4421L5.33169 16.5477H5.33169L4.88451 17.4421ZM4.88451 6.55767L5.33169 7.45211L5.33169 7.45211L4.88451 6.55767ZM11.2851 3.35763L11.7323 4.25207L11.7323 4.25207L11.2851 3.35763ZM12.7162 3.35768L12.269 4.25209V4.25209L12.7162 3.35768ZM19.1156 6.55764L19.5628 5.66323V5.66323L19.1156 6.55764ZM19 8.99989C19 9.55217 19.4477 9.99989 20 9.99989C20.5523 9.99989 21 9.55217 21 8.99989H19ZM13.4476 21.3944C13.9416 21.1474 14.1418 20.5467 13.8948 20.0528C13.6478 19.5588 13.0471 19.3586 12.5531 19.6056L13.4476 21.3944ZM12.7162 20.6421L13.1635 21.5365H13.1635L12.7162 20.6421ZM19.7144 6.91819L20.4289 6.21849L20.4289 6.21849L19.7144 6.91819ZM19.9453 7.29183L20.8907 6.96577V6.96577L19.9453 7.29183ZM11.8163 3.13506L12.0006 4.11792L12.0007 4.11792L11.8163 3.13506ZM12.1851 3.13507L12.0007 4.11792L12.0007 4.11792L12.1851 3.13507ZM4.05466 7.29186L5 7.61794H5L4.05466 7.29186ZM4.2856 6.91821L5 7.61795L5 7.61794L4.2856 6.91821ZM4.2856 17.0816L5 16.3818L5 16.3818L4.2856 17.0816ZM4.05466 16.7079L3.10932 17.034L3.10932 17.034L4.05466 16.7079ZM11.8163 20.8647L11.6319 21.8476L11.8163 20.8647ZM12.1851 20.8647L12.0007 19.8819L12.1851 20.8647ZM8.05279 14.1443C8.54676 14.3913 9.14744 14.1911 9.39443 13.6971C9.64142 13.2031 9.44119 12.6024 8.94721 12.3555L8.05279 14.1443ZM7.94721 11.8555C7.45324 11.6085 6.85256 11.8087 6.60557 12.3027C6.35858 12.7967 6.55881 13.3973 7.05279 13.6443L7.94721 11.8555ZM19.8422 7.07877L20.6845 6.53965L19.8422 7.07877ZM12 20.8819L11.9994 21.8819L12 20.8819ZM18.5688 13.3763C18.061 13.3921 17.4469 13.5052 16.9305 13.8609C16.3603 14.2538 16.0014 14.8831 16 15.6856L18 15.689C18.0002 15.5934 18.019 15.5563 18.0224 15.55C18.0258 15.5435 18.0338 15.5296 18.0651 15.508C18.1465 15.4519 18.3316 15.3846 18.6312 15.3753L18.5688 13.3763ZM16 15.6856C15.9984 16.6091 16.4958 17.2523 17.1512 17.6043C17.737 17.919 18.4294 17.9998 19 17.9998V15.9998C18.5706 15.9998 18.2621 15.9308 18.0975 15.8424C18.0623 15.8235 18.0408 15.8074 18.0288 15.7968C18.0174 15.7867 18.0137 15.781 18.0131 15.7801C18.0127 15.7795 18.0106 15.7765 18.008 15.767C18.0052 15.7569 17.9999 15.7326 18 15.689L16 15.6856ZM19 17.9998C19.4587 17.9998 19.7608 18.0591 19.9175 18.1397C19.9491 18.156 19.9662 18.169 19.9741 18.1759C19.978 18.1793 19.98 18.1815 19.9808 18.1825C19.9816 18.1834 19.9818 18.1837 19.9819 18.1838C19.9819 18.1839 19.9825 18.1848 19.9836 18.1872C19.9846 18.1897 19.9866 18.1948 19.9889 18.2032C19.9933 18.22 20 18.2543 20 18.3123H22C22 17.8825 21.8986 17.4744 21.6744 17.1183C21.4517 16.7646 21.1463 16.5228 20.8325 16.3614C20.2392 16.056 19.5413 15.9998 19 15.9998V17.9998ZM21.2407 13.5292C20.5926 13.3684 19.6362 13.3715 18.9933 13.3758L19.0067 15.3758C19.734 15.3709 20.4074 15.3831 20.7593 15.4704L21.2407 13.5292ZM18.9933 13.3758C18.9419 13.3761 18.9184 13.3758 18.908 13.3755C18.8914 13.3752 18.9052 13.3754 18.8673 13.374C18.7995 13.3714 18.7283 13.372 18.5735 13.3761L18.6265 15.3754C18.7018 15.3734 18.7439 15.3727 18.7686 15.3725C18.7804 15.3724 18.7865 15.3725 18.7892 15.3725C18.7911 15.3725 18.7918 15.3725 18.7929 15.3726C18.7994 15.3728 18.7961 15.3727 18.813 15.3734C18.8257 15.374 18.8413 15.3745 18.8607 15.375C18.8984 15.3759 18.9436 15.3762 19.0067 15.3758L18.9933 13.3758ZM20 18.3123C20 18.3411 19.9954 18.3335 20.005 18.3178C20.0107 18.3085 20.0017 18.3297 19.9395 18.3687C19.7954 18.459 19.5134 18.5537 19.0697 18.6056L19.3025 20.5921C19.8652 20.5261 20.4901 20.3839 21.0014 20.0635C21.5627 19.7117 22 19.1265 22 18.3123H20ZM19.1861 18.5988C18.3702 18.5988 18.0503 18.6233 17.124 18.5075L16.876 20.4921C17.9497 20.6263 18.402 20.5988 19.1861 20.5988V18.5988ZM18 19.9999V20.9999H20V19.9999H18ZM18 12.9999V13.9999H20V12.9999H18ZM15.5528 4.10546L7.55279 8.10546L8.44721 9.89431L16.4472 5.89431L15.5528 4.10546ZM11.7323 19.7477L5.33169 16.5477L4.43733 18.3365L10.838 21.5366L11.7323 19.7477ZM5 16.011V7.98878H3V16.011H5ZM5.33169 7.45211L11.7323 4.25207L10.838 2.46319L4.43733 5.66323L5.33169 7.45211ZM12.269 4.25209L18.6683 7.45205L19.5628 5.66323L13.1635 2.46327L12.269 4.25209ZM19 7.9887V8.99989H21V7.9887H19ZM12.5531 19.6056L12.269 19.7477L13.1635 21.5365L13.4476 21.3944L12.5531 19.6056ZM18.6683 7.45205C18.8397 7.53774 18.9276 7.58219 18.9894 7.61805C19.0409 7.64798 19.0273 7.64576 19 7.6179L20.4289 6.21849C20.1663 5.95041 19.819 5.79134 19.5628 5.66323L18.6683 7.45205ZM21 7.9887C21 7.70225 21.013 7.3205 20.8907 6.96577L19 7.61789C18.9873 7.58103 18.9914 7.56783 18.9951 7.62733C18.9996 7.69861 19 7.79712 19 7.9887H21ZM11.7323 4.25207C11.8726 4.18192 11.9437 4.14678 11.9964 4.12382C12.0396 4.10504 12.0314 4.11215 12.0006 4.11792L11.6319 2.1522C11.3244 2.20989 11.0485 2.35795 10.8379 2.46319L11.7323 4.25207ZM13.1635 2.46327C12.953 2.358 12.677 2.20994 12.3695 2.15223L12.0007 4.11792C11.9699 4.11215 11.9617 4.10504 12.0049 4.12381C12.0576 4.14678 12.1287 4.18192 12.269 4.25209L13.1635 2.46327ZM12.0007 4.11792V4.11792L12.3695 2.15223C12.1258 2.10649 11.8757 2.10648 11.6319 2.1522L12.0007 4.11792ZM5 7.98878C5 7.79719 5.00045 7.69867 5.00489 7.62737C5.0086 7.56788 5.01272 7.58107 5 7.61794L3.10932 6.96578C2.98695 7.32053 3 7.70231 3 7.98878H5ZM4.43733 5.66323C4.1811 5.79133 3.83378 5.95039 3.5712 6.21847L5 7.61794C4.97271 7.64581 4.95906 7.64803 5.01063 7.6181C5.07241 7.58224 5.16033 7.53779 5.33169 7.45211L4.43733 5.66323ZM5.33169 16.5477C5.16032 16.462 5.0724 16.4175 5.01062 16.3817C4.95906 16.3517 4.97271 16.354 5 16.3818L3.5712 17.7813C3.83378 18.0494 4.18109 18.2084 4.43733 18.3365L5.33169 16.5477ZM3 16.011C3 16.2975 2.98695 16.6792 3.10932 17.034L5 16.3818C5.01272 16.4187 5.0086 16.4319 5.00489 16.3724C5.00045 16.3011 5 16.2026 5 16.011H3ZM5 16.3818L5 16.3818L3.10932 17.034C3.20599 17.3142 3.36375 17.5695 3.5712 17.7813L5 16.3818ZM10.838 21.5366C11.0485 21.6418 11.3244 21.7899 11.6319 21.8476L12.0007 19.8819C12.0314 19.8876 12.0396 19.8947 11.9964 19.876C11.9437 19.853 11.8727 19.8179 11.7323 19.7477L10.838 21.5366ZM12.269 19.7477C12.1287 19.8178 12.0576 19.853 12.0049 19.876C11.9617 19.8947 11.9699 19.8876 12.0007 19.8819L12.3695 21.8475C12.677 21.7898 12.9529 21.6418 13.1635 21.5365L12.269 19.7477ZM8.94721 12.3555L7.94721 11.8555L7.05279 13.6443L8.05279 14.1443L8.94721 12.3555ZM5 7.61794L5 7.61794L3.31559 6.53962C3.23046 6.6726 3.16112 6.8156 3.10932 6.96578L5 7.61794ZM5 7.61794L5 7.61795L3.5712 6.21847C3.47491 6.31677 3.38933 6.42444 3.31559 6.53962L5 7.61794ZM12.4472 10.1055L4.60501 6.18436L3.71058 7.97321L11.5528 11.8943L12.4472 10.1055ZM19 7.61789L19 7.6179L20.6845 6.53965C20.6107 6.42447 20.5251 6.3168 20.4289 6.21849L19 7.61789ZM19 7.6179V7.6179L20.8907 6.96577C20.8389 6.81561 20.7696 6.67262 20.6845 6.53965L19 7.6179ZM19.395 6.18435L11.5528 10.1055L12.4472 11.8943L20.2894 7.9732L19.395 6.18435ZM11.6319 21.8476C11.7534 21.8703 11.8764 21.8818 11.9994 21.8819L12.0007 19.8819H12.0007L11.6319 21.8476ZM11.9994 21.8819C12.1233 21.8819 12.2472 21.8705 12.3695 21.8475L12.0007 19.8819H12.0007L11.9994 21.8819ZM11 10.9999V20.8819H13V10.9999H11Z" fill="black"/>
</svg>
