<svg width="24" height="24" viewBox="0 0 24 24" fill="none" xmlns="http://www.w3.org/2000/svg">
<path d="M12 20.9999L11.5528 21.8943C11.8628 22.0493 12.2309 22.0327 12.5258 21.8505C12.8206 21.6683 13 21.3465 13 20.9999H12ZM16.4472 5.89431C16.9412 5.64732 17.1414 5.04665 16.8944 4.55267C16.6474 4.05869 16.0468 3.85847 15.5528 4.10546L16.4472 5.89431ZM4.88451 17.4421L5.33172 16.5477L5.33169 16.5477L4.88451 17.4421ZM4.88451 6.55767L5.33169 7.45211L5.33169 7.45211L4.88451 6.55767ZM11.2851 3.35763L11.7323 4.25207L11.7323 4.25207L11.2851 3.35763ZM12.7162 3.35768L12.269 4.25209V4.25209L12.7162 3.35768ZM19.1156 6.55764L19.5628 5.66323V5.66323L19.1156 6.55764ZM19 8.99989C19 9.55217 19.4477 9.99989 20 9.99989C20.5523 9.99989 21 9.55217 21 8.99989H19ZM19.7144 6.91819L20.4289 6.21849L20.4289 6.21849L19.7144 6.91819ZM19.9453 7.29183L20.8907 6.96577V6.96577L19.9453 7.29183ZM11.8163 3.13506L12.0006 4.11792L12.0007 4.11792L11.8163 3.13506ZM12.1851 3.13507L12.0007 4.11792L12.0007 4.11792L12.1851 3.13507ZM4.05466 7.29186L5 7.61794H5L4.05466 7.29186ZM4.2856 6.91821L5 7.61795L5 7.61794L4.2856 6.91821ZM4.2856 17.0816L5 16.3818L5 16.3818L4.2856 17.0816ZM4.05466 16.7079L3.10932 17.034L3.10932 17.034L4.05466 16.7079ZM18.9912 12.9999L19.678 12.273C19.2857 11.9024 18.6701 11.9099 18.287 12.2899L18.9912 12.9999ZM17.1484 14.9017L17.8962 15.5656H17.8963L17.1484 14.9017ZM20.8984 14.9017L20.1506 15.5656L20.8984 14.9017ZM8.05279 14.1443C8.54676 14.3913 9.14744 14.1911 9.39443 13.6971C9.64142 13.2031 9.44119 12.6024 8.94721 12.3555L8.05279 14.1443ZM7.94721 11.8555C7.45324 11.6085 6.85256 11.8087 6.60557 12.3027C6.35858 12.7967 6.55881 13.3973 7.05279 13.6443L7.94721 11.8555ZM19.8422 7.07877L20.6845 6.53965L19.8422 7.07877ZM11 10.9999V20.9999H13V10.9999H11ZM15.5528 4.10546L7.55279 8.10546L8.44721 9.89431L16.4472 5.89431L15.5528 4.10546ZM12.4472 20.1055L5.33172 16.5477L4.43729 18.3365L11.5528 21.8943L12.4472 20.1055ZM5 16.011V7.98878H3V16.011H5ZM5.33169 7.45211L11.7323 4.25207L10.838 2.46319L4.43733 5.66323L5.33169 7.45211ZM12.269 4.25209L18.6683 7.45205L19.5628 5.66323L13.1635 2.46327L12.269 4.25209ZM19 7.9887V8.99989H21V7.9887H19ZM18.6683 7.45205C18.8397 7.53774 18.9276 7.58219 18.9894 7.61805C19.0409 7.64798 19.0273 7.64576 19 7.6179L20.4289 6.21849C20.1663 5.95041 19.819 5.79134 19.5628 5.66323L18.6683 7.45205ZM21 7.9887C21 7.70225 21.013 7.3205 20.8907 6.96577L19 7.61789C18.9873 7.58103 18.9914 7.56783 18.9951 7.62733C18.9996 7.69861 19 7.79712 19 7.9887H21ZM11.7323 4.25207C11.8726 4.18192 11.9437 4.14678 11.9964 4.12382C12.0396 4.10504 12.0314 4.11215 12.0006 4.11792L11.6319 2.1522C11.3244 2.20989 11.0485 2.35795 10.8379 2.46319L11.7323 4.25207ZM13.1635 2.46327C12.953 2.358 12.677 2.20994 12.3695 2.15223L12.0007 4.11792C11.9699 4.11215 11.9617 4.10504 12.0049 4.12381C12.0576 4.14678 12.1287 4.18192 12.269 4.25209L13.1635 2.46327ZM12.0007 4.11792V4.11792L12.3695 2.15223C12.1258 2.10649 11.8757 2.10648 11.6319 2.1522L12.0007 4.11792ZM5 7.98878C5 7.79719 5.00045 7.69867 5.00489 7.62737C5.0086 7.56788 5.01272 7.58107 5 7.61794L3.10932 6.96578C2.98695 7.32053 3 7.70231 3 7.98878H5ZM4.43733 5.66323C4.1811 5.79133 3.83378 5.95039 3.5712 6.21847L5 7.61794C4.97271 7.64581 4.95906 7.64803 5.01063 7.6181C5.07241 7.58224 5.16033 7.53779 5.33169 7.45211L4.43733 5.66323ZM5.33169 16.5477C5.16032 16.462 5.0724 16.4175 5.01062 16.3817C4.95906 16.3517 4.97271 16.354 5 16.3818L3.5712 17.7813C3.83378 18.0494 4.18109 18.2084 4.43733 18.3365L5.33169 16.5477ZM3 16.011C3 16.2975 2.98695 16.6792 3.10932 17.034L5 16.3818C5.01272 16.4187 5.0086 16.4319 5.00489 16.3724C5.00045 16.3011 5 16.2026 5 16.011H3ZM5 16.3818L5 16.3818L3.10932 17.034C3.20599 17.3142 3.36375 17.5695 3.5712 17.7813L5 16.3818ZM21 17.0174C21 18.1068 20.1101 18.9999 19 18.9999V20.9999C21.2036 20.9999 23 19.2224 23 17.0174H21ZM19 18.9999C17.8899 18.9999 17 18.1068 17 17.0174H15C15 19.2224 16.7964 20.9999 19 20.9999V18.9999ZM17 17.0174C17 16.917 17.0553 16.7123 17.2489 16.4003C17.431 16.1068 17.6715 15.8187 17.8962 15.5656L16.4006 14.2378C16.1586 14.5104 15.8248 14.902 15.5495 15.3458C15.2856 15.7711 15 16.3615 15 17.0174H17ZM17.8963 15.5656C18.1516 15.278 18.5949 14.8199 18.9885 14.4203C19.1823 14.2234 19.3594 14.0455 19.488 13.9168C19.5522 13.8525 19.6043 13.8005 19.6402 13.7648C19.6582 13.7469 19.6721 13.733 19.6815 13.7237C19.6862 13.7191 19.6897 13.7156 19.6921 13.7132C19.6932 13.7121 19.6941 13.7112 19.6947 13.7106C19.695 13.7103 19.6952 13.7101 19.6953 13.71C19.6954 13.7099 19.6954 13.7099 19.6954 13.7099C19.6954 13.7099 19.6955 13.7098 19.6955 13.7098C19.6955 13.7098 19.6955 13.7098 18.9912 12.9999C18.287 12.2899 18.287 12.2899 18.2869 12.29C18.2869 12.29 18.2869 12.29 18.2869 12.29C18.2868 12.2901 18.2867 12.2901 18.2867 12.2902C18.2865 12.2904 18.2862 12.2907 18.2859 12.291C18.2852 12.2917 18.2842 12.2927 18.2829 12.2939C18.2803 12.2965 18.2766 12.3003 18.2716 12.3051C18.2618 12.3149 18.2474 12.3293 18.2289 12.3477C18.192 12.3844 18.1387 12.4376 18.0732 12.5032C17.9421 12.6343 17.7616 12.8158 17.5634 13.017C17.173 13.4134 16.695 13.9062 16.4006 14.2378L17.8963 15.5656ZM18.9912 12.9999C18.3044 13.7268 18.3044 13.7267 18.3044 13.7267C18.3044 13.7267 18.3044 13.7267 18.3044 13.7268C18.3045 13.7268 18.3045 13.7268 18.3046 13.7269C18.3047 13.727 18.3049 13.7272 18.3052 13.7275C18.3058 13.728 18.3067 13.7289 18.3079 13.73C18.3103 13.7323 18.314 13.7358 18.3189 13.7404C18.3286 13.7497 18.3431 13.7634 18.3619 13.7812C18.3994 13.8168 18.4537 13.8686 18.5208 13.9327C18.6549 14.061 18.8393 14.2383 19.0404 14.4345C19.4512 14.8351 19.9031 15.2868 20.1506 15.5656L21.6462 14.2378C21.3441 13.8975 20.8424 13.3982 20.4369 13.0028C20.2299 12.8008 20.0406 12.6188 19.9031 12.4873C19.8342 12.4214 19.7783 12.3681 19.7393 12.3312C19.7199 12.3127 19.7047 12.2983 19.6943 12.2885C19.6891 12.2835 19.6851 12.2797 19.6824 12.2771C19.681 12.2758 19.6799 12.2749 19.6792 12.2742C19.6788 12.2738 19.6785 12.2735 19.6783 12.2734C19.6782 12.2733 19.6782 12.2732 19.6781 12.2731C19.6781 12.2731 19.678 12.2731 19.678 12.2731C19.678 12.273 19.678 12.273 18.9912 12.9999ZM20.1506 15.5656C20.364 15.806 20.5921 16.091 20.7625 16.3804C20.9423 16.6858 21 16.8994 21 17.0174H23C23 16.379 22.7403 15.7977 22.486 15.3657C22.2223 14.9178 21.8996 14.5232 21.6462 14.2378L20.1506 15.5656ZM8.94721 12.3555L7.94721 11.8555L7.05279 13.6443L8.05279 14.1443L8.94721 12.3555ZM5 7.61794L5 7.61794L3.31559 6.53962C3.23046 6.6726 3.16112 6.8156 3.10932 6.96578L5 7.61794ZM5 7.61794L5 7.61795L3.5712 6.21847C3.47491 6.31677 3.38933 6.42444 3.31559 6.53962L5 7.61794ZM12.4472 10.1055L4.60501 6.18436L3.71058 7.97321L11.5528 11.8943L12.4472 10.1055ZM19 7.61789L19 7.6179L20.6845 6.53965C20.6107 6.42447 20.5251 6.3168 20.4289 6.21849L19 7.61789ZM19 7.6179V7.6179L20.8907 6.96577C20.8389 6.81561 20.7696 6.67262 20.6845 6.53965L19 7.6179ZM19.395 6.18435L11.5528 10.1055L12.4472 11.8943L20.2894 7.9732L19.395 6.18435Z" fill="black"/>
</svg>
