<svg width="24" height="24" viewBox="0 0 24 24" fill="none" xmlns="http://www.w3.org/2000/svg">
<path d="M13.4774 2.91934C13.3582 2.70518 13.1414 2.35221 12.7429 2.15427C11.8826 1.72693 10.9664 2.12189 10.5227 2.91934L10.1066 3.79821C10.1066 3.79821 9.69794 4.79785 9.44373 5.26851L9.43861 5.2779L9.42814 5.27567C9.32783 5.25382 9.19147 5.21363 8.93777 5.13752L7.22848 4.62473C6.9407 4.53836 6.66269 4.45492 6.43051 4.40779C6.2005 4.36111 5.83179 4.30666 5.44966 4.45213C4.98781 4.62795 4.62754 4.9993 4.46579 5.46627C4.33196 5.85262 4.39755 6.21952 4.45118 6.448C4.50531 6.67864 4.59714 6.954 4.69219 7.23902L5.26036 8.94354L4.54879 9.2485C4.26181 9.37145 3.98679 9.48927 3.77301 9.6049C3.56399 9.71796 3.23646 9.91732 3.03558 10.2845C2.79461 10.7249 2.76456 11.2504 2.95374 11.7154C2.99686 11.8213 3.05081 11.9159 3.11042 12.0002H8.12602C8.04375 11.6806 8 11.3455 8 11.0002C8 8.79111 9.79086 7.00024 12 7.00024C14.2091 7.00024 16 8.79111 16 11.0002C16 11.3455 15.9562 11.6806 15.874 12.0002H20.8896C20.9492 11.9159 21.0032 11.8213 21.0463 11.7154C21.2355 11.2504 21.2054 10.7249 20.9645 10.2845C20.7636 9.91732 20.436 9.71795 20.227 9.6049C20.0132 9.48928 19.7383 9.37147 19.4513 9.24852L18.7397 8.94354L19.3078 7.23903C19.4029 6.954 19.4947 6.67865 19.5489 6.44801C19.6025 6.21952 19.6681 5.85262 19.5342 5.46627C19.3725 4.9993 19.0122 4.62795 18.5504 4.45213C18.1682 4.30666 17.7995 4.36111 17.5695 4.40779C17.3373 4.45491 17.0593 4.53836 16.7716 4.62473L15.0623 5.13752C14.8086 5.21363 14.6722 5.25382 14.5719 5.27567L14.5614 5.2779L14.5563 5.26851C14.5075 5.17818 14.4491 5.04855 14.3416 4.80651L13.877 3.76123C13.7361 3.44421 13.6041 3.14713 13.4774 2.91934Z" fill="black"/>
<path d="M10 11.0002C10 11.3645 10.0974 11.7061 10.2676 12.0002H13.7324C13.9026 11.7061 14 11.3645 14 11.0002C14 9.89567 13.1046 9.00024 12 9.00024C10.8954 9.00024 10 9.89567 10 11.0002Z" fill="black"/>
<path d="M5 14.0002C4.44772 14.0002 4 14.448 4 15.0002C4 15.5525 4.44772 16.0002 5 16.0002H13C13.5523 16.0002 14 15.5525 14 15.0002C14 14.448 13.5523 14.0002 13 14.0002H5Z" fill="black"/>
<path d="M17 14.0002C16.4477 14.0002 16 14.448 16 15.0002C16 15.5525 16.4477 16.0002 17 16.0002H21C21.5523 16.0002 22 15.5525 22 15.0002C22 14.448 21.5523 14.0002 21 14.0002H17Z" fill="black"/>
<path d="M3 17.0002C2.44772 17.0002 2 17.448 2 18.0002C2 18.5525 2.44772 19.0002 3 19.0002H19C19.5523 19.0002 20 18.5525 20 18.0002C20 17.448 19.5523 17.0002 19 17.0002H3Z" fill="black"/>
<path d="M5 20.0002C4.44772 20.0002 4 20.448 4 21.0002C4 21.5525 4.44772 22.0002 5 22.0002H9C9.55228 22.0002 10 21.5525 10 21.0002C10 20.448 9.55228 20.0002 9 20.0002H5Z" fill="black"/>
<path d="M13 20.0002C12.4477 20.0002 12 20.448 12 21.0002C12 21.5525 12.4477 22.0002 13 22.0002H21C21.5523 22.0002 22 21.5525 22 21.0002C22 20.448 21.5523 20.0002 21 20.0002H13Z" fill="black"/>
</svg>
