<svg width="24" height="24" viewBox="0 0 24 24" fill="none" xmlns="http://www.w3.org/2000/svg">
<path d="M12.4314 2.51252C11.5845 1.87018 10.4136 1.87018 9.56679 2.51252C9.23665 2.76294 9.02379 3.12124 8.86362 3.42834C8.69729 3.74725 8.51289 4.16625 8.29386 4.66394L8.27975 4.696C8.20395 4.86822 8.16313 4.96007 8.13001 5.02524L8.1258 5.03343L8.11677 5.03161C8.04518 5.01688 7.94791 4.99152 7.766 4.9434L7.73219 4.93446C7.2065 4.7954 6.76392 4.67832 6.41087 4.60952C6.0709 4.54327 5.65806 4.4863 5.25643 4.58828C4.22624 4.84986 3.49619 5.76532 3.4704 6.82789C3.46035 7.24215 3.60776 7.63196 3.748 7.94865C3.89363 8.27755 4.10626 8.68298 4.35881 9.16454L4.37505 9.19552C4.46244 9.36216 4.50881 9.45134 4.5391 9.51787L4.54289 9.52626L4.53583 9.53219C4.47967 9.57898 4.3992 9.63922 4.24817 9.75144L4.22009 9.7723C3.7836 10.0966 3.41613 10.3696 3.14222 10.6028C2.87846 10.8272 2.57651 11.1145 2.40583 11.4921C1.96803 12.4606 2.22858 13.6022 3.04325 14.2848C3.36087 14.551 3.75754 14.6788 4.09258 14.7666C4.44052 14.8578 4.89005 14.9443 5.42401 15.0471L5.45838 15.0537C5.64315 15.0893 5.74179 15.1087 5.81269 15.1265L5.82161 15.1287L5.82185 15.1379C5.82342 15.211 5.82034 15.3115 5.81391 15.4995L5.81271 15.5345C5.79411 16.0779 5.77846 16.5355 5.78994 16.895C5.801 17.2412 5.83732 17.6564 6.02612 18.0252C6.31709 18.5937 6.8141 19.0041 7.39046 19.1952L11.6361 14.9496C11.4289 14.9827 11.2165 14.9999 11 14.9999C8.79086 14.9999 7 13.209 7 10.9999C7 8.79074 8.79086 6.99988 11 6.99988C13.2091 6.99988 15 8.79074 15 10.9999C15 11.2164 14.9828 11.4288 14.9497 11.636L17.8779 8.70777C18.0264 8.42084 18.1532 8.16773 18.2502 7.94865C18.3904 7.63196 18.5378 7.24215 18.5278 6.82789C18.502 5.76532 17.7719 4.84986 16.7417 4.58828C16.3401 4.4863 15.9273 4.54327 15.5873 4.60952C15.2342 4.67832 14.7917 4.7954 14.266 4.93446L14.2322 4.9434C14.0502 4.99152 13.953 5.01688 13.8814 5.03161L13.8724 5.03343L13.8681 5.02523C13.835 4.96007 13.7942 4.86822 13.7184 4.696L13.7043 4.66397C13.4853 4.1663 13.3009 3.74724 13.1345 3.42834C12.9744 3.12124 12.7615 2.76294 12.4314 2.51252Z" fill="black"/>
<path d="M9 10.9999C9 9.89531 9.89543 8.99988 11 8.99988C12.1046 8.99988 13 9.89531 13 10.9999C13 12.1044 12.1046 12.9999 11 12.9999C9.89543 12.9999 9 12.1044 9 10.9999Z" fill="black"/>
<path d="M22 10.9999C22 11.5522 21.5523 11.9999 21 11.9999C20.4477 11.9999 20 11.5522 20 10.9999C20 10.4476 20.4477 9.99988 21 9.99988C21.5523 9.99988 22 10.4476 22 10.9999Z" fill="black"/>
<path d="M19.5 13.4999C19.5 14.0522 19.0523 14.4999 18.5 14.4999C17.9477 14.4999 17.5 14.0522 17.5 13.4999C17.5 12.9476 17.9477 12.4999 18.5 12.4999C19.0523 12.4999 19.5 12.9476 19.5 13.4999Z" fill="black"/>
<path d="M17 15.9999C17 16.5522 16.5523 16.9999 16 16.9999C15.4477 16.9999 15 16.5522 15 15.9999C15 15.4476 15.4477 14.9999 16 14.9999C16.5523 14.9999 17 15.4476 17 15.9999Z" fill="black"/>
<path d="M12 20.9999C12 21.5522 11.5523 21.9999 11 21.9999C10.4477 21.9999 10 21.5522 10 20.9999C10 20.4476 10.4477 19.9999 11 19.9999C11.5523 19.9999 12 20.4476 12 20.9999Z" fill="black"/>
<path d="M17 20.9999C17 21.5522 16.5523 21.9999 16 21.9999C15.4477 21.9999 15 21.5522 15 20.9999C15 20.4476 15.4477 19.9999 16 19.9999C16.5523 19.9999 17 20.4476 17 20.9999Z" fill="black"/>
<path d="M21 21.9999C21.5523 21.9999 22 21.5522 22 20.9999C22 20.4476 21.5523 19.9999 21 19.9999C20.4477 19.9999 20 20.4476 20 20.9999C20 21.5522 20.4477 21.9999 21 21.9999Z" fill="black"/>
<path d="M22 15.9999C22 16.5522 21.5523 16.9999 21 16.9999C20.4477 16.9999 20 16.5522 20 15.9999C20 15.4476 20.4477 14.9999 21 14.9999C21.5523 14.9999 22 15.4476 22 15.9999Z" fill="black"/>
<path d="M19.5 18.4999C19.5 19.0522 19.0523 19.4999 18.5 19.4999C17.9477 19.4999 17.5 19.0522 17.5 18.4999C17.5 17.9476 17.9477 17.4999 18.5 17.4999C19.0523 17.4999 19.5 17.9476 19.5 18.4999Z" fill="black"/>
<path d="M14.5 18.4999C14.5 19.0522 14.0523 19.4999 13.5 19.4999C12.9477 19.4999 12.5 19.0522 12.5 18.4999C12.5 17.9476 12.9477 17.4999 13.5 17.4999C14.0523 17.4999 14.5 17.9476 14.5 18.4999Z" fill="black"/>
</svg>
