<svg width="24" height="24" viewBox="0 0 24 24" fill="none" xmlns="http://www.w3.org/2000/svg">
<path opacity="0.3" fill-rule="evenodd" clip-rule="evenodd" d="M14.1262 2.62566C13.9193 2.11359 13.3365 1.86619 12.8244 2.07308L2.62539 6.19375C2.37937 6.29315 2.18295 6.48625 2.07936 6.73053C1.97577 6.97482 1.97351 7.25026 2.07308 7.4962L7.69218 21.3755C7.89898 21.8863 8.48004 22.1336 8.99148 21.9284L19.1905 17.8361C19.437 17.7372 19.6341 17.5442 19.7382 17.2999C19.8422 17.0555 19.8448 16.7797 19.7453 16.5334L14.1262 2.62566Z" fill="black"/>
<path d="M10.1719 21.4537L19.1886 17.8359C19.4351 17.7369 19.6322 17.544 19.7362 17.2996C19.8403 17.0552 19.8429 16.7795 19.7434 16.5332L15.0837 5H20.3981C21.2817 5 21.9981 5.44772 21.9981 6V21C21.9981 21.5523 21.2817 22 20.3981 22H11.5981C10.9758 22 10.4365 21.778 10.1719 21.4537Z" fill="black"/>
</svg>
