<svg width="24" height="24" viewBox="0 0 24 24" fill="none" xmlns="http://www.w3.org/2000/svg">
<g opacity="0.3">
<path d="M9.08879 2.13397C9.2408 2.04621 9.41325 2 9.58879 2H14.4119C14.5874 2 14.7599 2.04621 14.9119 2.13397L17.6589 3.72C18.05 3.94578 17.9651 4.53325 17.5261 4.63908L12.1168 5.94326C12.0398 5.96183 11.9594 5.96183 11.8824 5.94326L6.47409 4.63933C6.03512 4.53349 5.95023 3.94602 6.34129 3.72024L9.08879 2.13397Z" fill="black"/>
<path d="M3.05523 8.25198C2.88994 8.09254 2.85452 7.84101 2.96935 7.64212L3.68989 6.39409C3.80071 6.20216 4.02465 6.10608 4.2401 6.15802L10.6175 7.6956C10.8421 7.74975 11.0003 7.95068 11.0003 8.18168V11.1528C11.0003 11.3281 10.9086 11.4905 10.7585 11.581L8.47068 12.9603C8.27672 13.0773 8.02839 13.0492 7.86539 12.892L3.05523 8.25198Z" fill="black"/>
<path d="M19.7604 6.15772C19.9758 6.10577 20.1998 6.20186 20.3106 6.39379L21.0313 7.64212C21.1461 7.84101 21.1107 8.09254 20.9454 8.25198L16.1353 12.892C15.9723 13.0492 15.7239 13.0773 15.53 12.9603L13.2422 11.581C13.0921 11.4905 13.0003 11.3281 13.0003 11.1528V8.18132C13.0003 7.95033 13.1586 7.74939 13.3831 7.69525L19.7604 6.15772Z" fill="black"/>
</g>
<path d="M2.84713 10.8303C2.52964 10.5241 2 10.7491 2 11.1902V14.4115C2 14.587 2.04621 14.7595 2.13397 14.9115L4.54552 19.0884C4.63329 19.2404 4.75952 19.3666 4.91154 19.4544L7.70768 21.0688C8.08821 21.2885 8.54674 20.9457 8.44375 20.5186L7.13025 15.0706C7.10796 14.9781 7.05976 14.894 6.99131 14.8279L2.84713 10.8303Z" fill="black"/>
<path d="M13.2327 21.6171C13.1786 21.8417 12.9776 21.9999 12.7466 21.9999L11.252 21.9999C11.021 21.9999 10.8201 21.8417 10.7659 21.6171L9.22978 15.2457C9.17866 15.0337 9.2709 14.813 9.4577 14.7004L11.7418 13.3233C11.9006 13.2275 12.0994 13.2275 12.2582 13.3233L14.5411 14.6996C14.7279 14.8122 14.8201 15.033 14.769 15.245L13.2327 21.6171Z" fill="black"/>
<path d="M15.5546 20.5195C15.4517 20.9466 15.9102 21.2894 16.2907 21.0697L19.0885 19.4544C19.2405 19.3666 19.3667 19.2404 19.4545 19.0884L21.866 14.9115C21.9538 14.7595 22 14.587 22 14.4115V11.1902C22 10.7491 21.4704 10.5241 21.1529 10.8303L17.0069 14.8297C16.9384 14.8957 16.8902 14.9799 16.8679 15.0723L15.5546 20.5195Z" fill="black"/>
</svg>
