<svg width="24" height="24" viewBox="0 0 24 24" fill="none" xmlns="http://www.w3.org/2000/svg">
<g opacity="0.3">
<path d="M10.9118 2.95115C10.8762 2.85617 10.7543 2.82977 10.6826 2.9015L3.6209 9.96317C3.27695 10.3071 3.57685 10.8899 4.05665 10.8099L7.97984 10.1561C8.15598 10.1267 8.3031 10.0056 8.3658 9.83842L10.9118 3.0491C10.9236 3.01752 10.9236 2.98273 10.9118 2.95115Z" fill="black"/>
<path d="M19.9397 10.8099C20.4195 10.8899 20.7194 10.3071 20.3754 9.96317L13.3138 2.9015C13.242 2.82977 13.1201 2.85617 13.0845 2.95115C13.0727 2.98273 13.0727 3.01752 13.0845 3.0491L15.6305 9.83842C15.6932 10.0056 15.8403 10.1267 16.0165 10.1561L19.9397 10.8099Z" fill="black"/>
<path d="M10.2912 11.0575C10.1888 10.921 10.1631 10.7417 10.223 10.5819L11.53 7.09656C11.6922 6.66398 12.3041 6.66398 12.4663 7.09656L13.7733 10.5819C13.8332 10.7417 13.8075 10.921 13.7052 11.0575L12.3982 12.8001C12.1982 13.0668 11.7982 13.0668 11.5982 12.8001L10.2912 11.0575Z" fill="black"/>
</g>
<path d="M3.61361 12.9112C3.21246 12.978 3.05469 13.4704 3.34226 13.7579L10.1449 20.5606C10.4599 20.8755 10.9984 20.6525 10.9984 20.207V15.4999C10.9984 15.3917 10.9634 15.2865 10.8984 15.1999L8.74557 12.3294C8.63353 12.18 8.44757 12.1055 8.26337 12.1362L3.61361 12.9112Z" fill="black"/>
<path d="M12.9984 20.207C12.9984 20.6525 13.537 20.8755 13.852 20.5606L20.6546 13.7579C20.9422 13.4704 20.7844 12.978 20.3833 12.9112L15.7335 12.1362C15.5493 12.1055 15.3634 12.18 15.2513 12.3294L13.0984 15.1999C13.0335 15.2865 12.9984 15.3917 12.9984 15.4999V20.207Z" fill="black"/>
</svg>
