<svg width="24" height="24" viewBox="0 0 24 24" fill="none" xmlns="http://www.w3.org/2000/svg">
<g opacity="0.3">
<path d="M10.9984 3.91922C10.9984 3.46098 10.4333 3.24413 10.1267 3.58474L3.21859 11.2604C2.96251 11.545 3.10809 12 3.48177 12.083L10.3899 13.6181C10.7022 13.6875 10.9984 13.4499 10.9984 13.1301V3.91922Z" fill="black"/>
<path d="M20.515 12.083C20.8886 12 21.0342 11.545 20.7781 11.2604L13.87 3.58474C13.5635 3.24413 12.9984 3.46098 12.9984 3.91922V13.1301C12.9984 13.4499 13.2946 13.6875 13.6068 13.6181L20.515 12.083Z" fill="black"/>
</g>
<path d="M4.40756 14.3378C3.90413 14.2259 3.58147 14.857 3.96691 15.1996L10.1655 20.7095C10.4879 20.9961 10.9977 20.7672 10.9977 20.3358V16.2034C10.9977 15.969 10.8349 15.7661 10.6061 15.7153L4.40756 14.3378Z" fill="black"/>
<path d="M12.9977 20.3358C12.9977 20.7672 13.5074 20.9961 13.8299 20.7095L20.0284 15.1996C20.4139 14.857 20.0912 14.2259 19.5878 14.3378L13.3892 15.7153C13.1604 15.7661 12.9977 15.969 12.9977 16.2034V20.3358Z" fill="black"/>
</svg>
