<svg width="24" height="24" viewBox="0 0 24 24" fill="none" xmlns="http://www.w3.org/2000/svg">
<path d="M13.8399 6.31982C13.5198 6.61644 13 6.38946 13 5.9531V2.62366C13 2.32304 13.2637 2.08953 13.5592 2.14444C14.6184 2.3412 15.6767 2.72014 16.5524 3.23455C16.7512 3.35131 16.7509 3.6218 16.5818 3.7785L13.8399 6.31982Z" fill="black"/>
<path d="M20.7407 8.84282C20.6903 8.63806 20.4547 8.56329 20.2711 8.66693L17.0347 10.4936L17.0194 10.502L15.1339 11.523C15.052 11.5673 15.001 11.6529 15.001 11.746C15.001 11.8862 15.1146 11.9997 15.2547 11.9997L20.501 11.9998C20.7772 11.9998 21.001 11.7759 21.001 11.4998V10.9998C21.001 10.2575 20.9109 9.53487 20.7407 8.84282Z" fill="black"/>
<path d="M21 14.4998C21 14.2236 20.7761 13.9998 20.5 13.9998L15.5 13.9997C15.2239 13.9997 15 14.2236 15 14.4997V15.4997C15 15.7759 15.2239 15.9997 15.5 15.9997L20.5 15.9998C20.7761 15.9998 21 15.7759 21 15.4998V14.4998Z" fill="black"/>
<path d="M21 18.4998C21 18.2236 20.7761 17.9998 20.5 17.9998L15.5 17.9997C15.2239 17.9997 15 18.2236 15 18.4997V19.9998C15 21.1043 15.8954 21.9998 17 21.9998H19C20.1046 21.9998 21 21.1043 21 19.9998V18.4998Z" fill="black"/>
<path d="M14.3168 8.60475C14.19 8.72224 14.1655 8.91643 14.278 9.0476C14.3629 9.14654 14.4415 9.25101 14.513 9.36034C14.5759 9.45657 14.7031 9.48188 14.8042 9.42713L16.0595 8.74746L19.4215 6.84993C19.6615 6.71448 19.7478 6.40954 19.5999 6.17699C19.3615 5.80195 19.0961 5.44586 18.8066 5.11142C18.6284 4.90564 18.3163 4.8979 18.1167 5.08292L14.3168 8.60475Z" fill="black"/>
<g opacity="0.3">
<path d="M8.5 15.9997C8.77614 15.9997 9 15.7759 9 15.4997V14.4998C9 14.2236 8.77614 13.9998 8.5 13.9998L3.5 13.9997C3.22386 13.9997 3 14.2236 3 14.4997L3 15.4997C3 15.7759 3.22386 15.9997 3.5 15.9997H8.5Z" fill="black"/>
<path d="M3 18.4997C3 18.2236 3.22386 17.9997 3.5 17.9997H8.5C8.77614 17.9997 9 18.2236 9 18.4997V19.9998C9 21.1043 8.10457 21.9998 7 21.9998H5C3.89543 21.9998 3 21.1043 3 19.9998L3 18.4997Z" fill="black"/>
<path d="M3 11.4997C3 11.7759 3.22386 11.9997 3.5 11.9997H8.77375C8.8987 11.9997 9 11.8985 9 11.7735C9 11.6919 8.95603 11.6166 8.88495 11.5765L3.72961 8.66702C3.5461 8.56345 3.31071 8.6382 3.26036 8.84282C3.09007 9.53487 3 10.2575 3 10.9998V11.4997Z" fill="black"/>
<path d="M4.40072 6.17676C4.25286 6.40931 4.3392 6.71427 4.57919 6.84971L9.15545 9.43238C9.26977 9.4969 9.41568 9.4702 9.48754 9.36034C9.55906 9.25101 9.63757 9.14655 9.72247 9.0476C9.83519 8.91623 9.80937 8.72165 9.68241 8.60398L7.17079 6.27613L6.95318 6.07397L5.88386 5.0829C5.68423 4.89787 5.3721 4.90561 5.19394 5.1114C4.90445 5.44577 4.63912 5.80179 4.40072 6.17676Z" fill="black"/>
<path d="M7.44756 3.23455C7.24893 3.35122 7.24929 3.62152 7.41824 3.77812L10.1601 6.3197C10.4801 6.61635 11 6.38938 11 5.953V2.62366C11 2.32304 10.7363 2.08953 10.4408 2.14444C9.38163 2.3412 8.32332 2.72014 7.44756 3.23455Z" fill="black"/>
<path d="M10.9764 8.1515C10.9668 8.16187 10.9769 8.17819 10.9903 8.17356C10.9905 8.17348 10.9907 8.17341 10.9909 8.17334C10.9964 8.17145 11 8.16632 11 8.16058C11 8.14826 10.9848 8.14247 10.9764 8.1515Z" fill="black"/>
</g>
</svg>
