<svg width="24" height="24" viewBox="0 0 24 24" fill="none" xmlns="http://www.w3.org/2000/svg">
<path opacity="0.14" d="M11.0003 13.0018L7.50025 10L3.26568 14.17C3.4242 14.8127 3.65177 15.4208 3.94007 16.0008C4.56408 17.2561 3.00488 21 3.00488 21H12.0042C16.9179 21 20.9119 17.0622 21.0026 12.1701L16.0003 8L11.0003 13.0018Z" fill="black"/>
<path d="M3.00463 21L16 8L21.0023 12.1701M3.00463 21C3.00463 21 9.9675 21 12.0039 21C16.9176 21 20.9117 17.0622 21.0023 12.1701M3.00463 21C3.00463 21 4.56382 17.2561 3.93982 16.0008C3.34076 14.7956 3.00391 13.4372 3.00391 12C3.00391 7.02944 7.03334 3 12.0039 3C16.9745 3 21.0039 7.02944 21.0039 12C21.0039 12.0568 21.0034 12.1135 21.0023 12.1701M11 13.0018L7.5 10L3.26826 14.1741" stroke="black" stroke-width="2" stroke-linecap="round" stroke-linejoin="round"/>
</svg>
