<svg width="24" height="24" viewBox="0 0 24 24" fill="none" xmlns="http://www.w3.org/2000/svg">
<g opacity="0.14">
<path d="M20.8592 19.2086L21.4406 18.223C19.6151 16.4243 17.5576 15.2184 15.4222 14.6041C15.3361 14.5801 15.2536 14.6521 15.2657 14.7406L15.7126 18.0103C15.7785 18.5076 15.8114 18.7563 15.913 18.9696C16.0028 19.1584 16.1311 19.3263 16.2897 19.4626C16.4689 19.6166 16.7002 19.7137 17.1627 19.9079L17.863 20.2019C18.5476 20.4893 18.8898 20.633 19.2177 20.6222C19.5065 20.6126 19.7865 20.5198 20.0239 20.3549C20.2933 20.1677 20.4819 19.848 20.8592 19.2086Z" fill="black"/>
<path d="M3.14797 19.3396L2.55176 18.3626C4.20446 16.6853 6.06042 15.5055 8 14.8241C8.03346 14.8125 8.06849 14.8371 8.06891 14.8725L8.10392 17.8501V17.8501C8.10815 18.4224 8.11026 18.7085 8.02128 18.9582C7.94264 19.1788 7.81341 19.378 7.64396 19.5397C7.45223 19.7227 7.19004 19.8374 6.66568 20.0667L6.66567 20.0667L6.15845 20.2885L6.15844 20.2885C5.47824 20.586 5.13814 20.7348 4.81018 20.7288C4.52119 20.7235 4.23987 20.6348 4.00009 20.4734C3.72796 20.2903 3.53463 19.9734 3.14797 19.3396Z" fill="black"/>
</g>
<path d="M15.2675 14.5611L15.7126 18.0107C15.7785 18.508 15.8114 18.7567 15.913 18.97C16.0028 19.1588 16.1311 19.3267 16.2897 19.463C16.4689 19.617 16.7002 19.7141 17.1627 19.9083L17.863 20.2023C18.5476 20.4897 18.8898 20.6334 19.2177 20.6226C19.5065 20.613 19.7865 20.5202 20.0239 20.3553C20.2933 20.1681 20.4819 19.8484 20.8592 19.209L21.4406 18.2234C15.844 12.7089 8.06641 12.7662 2.55176 18.363L3.14797 19.34C3.53463 19.9738 3.72796 20.2907 4.00009 20.4738C4.23987 20.6352 4.52119 20.7239 4.81018 20.7292C5.13814 20.7352 5.47825 20.5864 6.15845 20.2889L6.66567 20.0671C7.19004 19.8378 7.45223 19.7231 7.64396 19.5401C7.81341 19.3784 7.94264 19.1792 8.02128 18.9586C8.11026 18.7089 8.10815 18.4228 8.10392 17.8505L8.07986 14.7968M4.85907 6C6.67399 4.14864 9.2031 3 12.0005 3C14.7979 3 17.327 4.14864 19.1419 6M16.4727 9C15.374 7.7725 13.7775 7 12.0005 7C10.2235 7 8.6269 7.7725 7.52825 9" stroke="black" stroke-width="2" stroke-linecap="round" stroke-linejoin="round"/>
</svg>
