<svg width="24" height="24" viewBox="0 0 24 24" fill="none" xmlns="http://www.w3.org/2000/svg">
<g opacity="0.14">
<path d="M20.8592 19.2088L21.4406 18.2232C19.6151 16.4245 17.5576 15.2186 15.4222 14.6044C15.3361 14.5803 15.2536 14.6523 15.2657 14.7409L15.7126 18.0105C15.7785 18.5079 15.8114 18.7565 15.913 18.9699C16.0028 19.1586 16.1311 19.3265 16.2897 19.4628C16.4689 19.6168 16.7002 19.7139 17.1627 19.9081L17.863 20.2022C18.5476 20.4896 18.8898 20.6333 19.2177 20.6224C19.5065 20.6129 19.7865 20.52 20.0239 20.3551C20.2933 20.168 20.4819 19.8483 20.8592 19.2088Z" fill="black"/>
<path d="M3.14797 19.3398L2.55176 18.3628C4.20446 16.6855 6.06042 15.5057 8 14.8244C8.03346 14.8127 8.06849 14.8373 8.06891 14.8727L8.10392 17.8503V17.8503C8.10815 18.4226 8.11026 18.7088 8.02128 18.9584C7.94264 19.1791 7.81341 19.3782 7.64396 19.54C7.45223 19.7229 7.19004 19.8376 6.66568 20.0669L6.66567 20.0669L6.15845 20.2888L6.15844 20.2888C5.47824 20.5863 5.13814 20.735 4.81018 20.729C4.52119 20.7237 4.23987 20.635 4.00009 20.4737C3.72796 20.2905 3.53463 19.9736 3.14797 19.3398Z" fill="black"/>
</g>
<path d="M20.0004 4L16.2149 7.31238C14.7216 8.61894 13.975 9.27223 13.1348 9.52071C12.3944 9.73967 11.6065 9.73967 10.8661 9.52071C10.0258 9.27223 9.27921 8.61894 7.78599 7.31237L4.00042 4M4.00042 4H8.00042M4.00042 4V8M15.2401 14.5536L15.7126 18.0107C15.7785 18.508 15.8114 18.7567 15.913 18.97C16.0028 19.1588 16.1311 19.3267 16.2897 19.463C16.4689 19.617 16.7002 19.7141 17.1627 19.9083L17.863 20.2023C18.5476 20.4897 18.8898 20.6334 19.2177 20.6226C19.5065 20.613 19.7865 20.5202 20.0239 20.3553C20.2933 20.1681 20.4819 19.8484 20.8592 19.209L21.4406 18.2234C15.844 12.7089 8.06641 12.7662 2.55176 18.363L3.14797 19.34C3.53463 19.9738 3.72796 20.2907 4.00009 20.4738C4.23987 20.6352 4.52119 20.7239 4.81018 20.7292C5.13814 20.7352 5.47825 20.5864 6.15845 20.2889L6.66567 20.0671C7.19004 19.8378 7.45223 19.7231 7.64396 19.5401C7.81341 19.3784 7.94264 19.1792 8.02128 18.9586C8.11026 18.7089 8.10815 18.4228 8.10392 17.8505L8.06806 14.8008" stroke="black" stroke-width="2" stroke-linecap="round" stroke-linejoin="round"/>
</svg>
