<svg width="24" height="24" viewBox="0 0 24 24" fill="none" xmlns="http://www.w3.org/2000/svg">
<g opacity="0.3">
<path d="M10.9831 4.18422C11.0848 3.6414 10.7273 3.11884 10.1845 3.01706C9.64164 2.91528 9.11909 3.27282 9.01731 3.81565L6.01731 19.8156C5.91553 20.3585 6.27307 20.881 6.81589 20.9828C7.35872 21.0846 7.88127 20.727 7.98305 20.1842L10.9831 4.18422Z" fill="black"/>
<path d="M17.9831 4.18422C18.0848 3.6414 17.7273 3.11884 17.1845 3.01706C16.6416 2.91528 16.1191 3.27282 16.0173 3.81565L13.0173 19.8156C12.9155 20.3585 13.2731 20.881 13.8159 20.9828C14.3587 21.0846 14.8813 20.727 14.9831 20.1842L17.9831 4.18422Z" fill="black"/>
</g>
<path d="M5 7H15.4203L15.0453 9H5C4.44772 9 4 8.55228 4 8C4 7.44772 4.44772 7 5 7Z" fill="black"/>
<path d="M20 9H17.0801L17.4551 7H20C20.5523 7 21 7.44772 21 8C21 8.55228 20.5523 9 20 9Z" fill="black"/>
<path d="M4 15H6.92025L6.54525 17H4C3.44772 17 3 16.5523 3 16C3 15.4477 3.44772 15 4 15Z" fill="black"/>
<path d="M19 17H8.58011L8.95511 15H19C19.5523 15 20 15.4477 20 16C20 16.5523 19.5523 17 19 17Z" fill="black"/>
</svg>
