<svg width="24" height="24" viewBox="0 0 24 24" fill="none" xmlns="http://www.w3.org/2000/svg">
<path opacity="0.3" fill-rule="evenodd" clip-rule="evenodd" d="M12.499 3.24975C12.6368 2.71494 12.315 2.16967 11.7802 2.03187C11.2453 1.89407 10.7001 2.21591 10.5623 2.75073L10.4892 3.03391C10.3379 3.61968 10.1863 4.20633 10.0455 4.80923C8.97799 4.92734 8.06302 5.00024 7.53125 5.00024C6.97897 5.00024 6.53125 5.44796 6.53125 6.00024C6.53125 6.55253 6.97897 7.00024 7.53125 7.00024C8.02521 7.00024 8.76919 6.949 9.6366 6.86299C9.51757 7.61184 9.42796 8.40373 9.38397 9.26153C9.34591 10.0038 9.34199 10.7918 9.38084 11.642C6.6945 12.8147 5.02081 13.9973 4.06553 15.1335C3.35376 15.98 3.0011 16.85 3 17.6929C2.9989 18.5372 3.35168 19.2359 3.82813 19.7225C4.45579 20.3635 5.28056 20.5122 5.81317 20.5402C6.09497 20.5551 6.34252 20.5389 6.51972 20.5194C6.60927 20.5095 6.68341 20.4985 6.73799 20.4894C6.76535 20.4848 6.78797 20.4807 6.80537 20.4773L6.8172 20.475C8.18913 20.2318 9.4227 19.7162 10.5109 19.0338C10.5264 19.0998 10.5421 19.1661 10.558 19.2326C10.6863 19.7698 11.2258 20.1012 11.763 19.9729C12.3002 19.8445 12.6316 19.305 12.5033 18.7679C12.4157 18.4013 12.3339 18.0446 12.2577 17.6972C12.643 17.3441 13.0018 16.9724 13.3337 16.5898C14.7012 15.0137 15.656 13.2051 16.1432 11.6306C16.8494 11.597 17.4997 11.677 18.0154 11.8583C18.676 12.0905 19.016 12.4433 19.1361 12.8556C19.2661 13.3018 19.2233 14.098 18.489 15.3761C17.7614 16.6426 16.4214 18.2597 14.2061 20.2576C13.796 20.6275 13.7633 21.2598 14.1332 21.67C14.5031 22.0801 15.1354 22.1127 15.5456 21.7428C17.8418 19.6719 19.3497 17.8929 20.2232 16.3724C21.0901 14.8636 21.4017 13.482 21.0563 12.2963C20.7011 11.0766 19.7359 10.3431 18.6786 9.9715C18.0118 9.73712 17.2698 9.62884 16.5155 9.6234C16.5246 9.35302 16.5123 9.09258 16.4745 8.84762C16.3902 8.3018 15.8794 7.92766 15.3336 8.01195C14.7878 8.09624 14.4136 8.60704 14.4979 9.15285C14.5241 9.3222 14.5273 9.5532 14.4954 9.84137C14.2345 9.89902 13.9757 9.96786 13.7216 10.0476C12.8733 10.3136 12.0862 10.5815 11.3568 10.8507C11.348 10.3273 11.3573 9.83366 11.3813 9.36396C11.4323 8.37135 11.5492 7.47766 11.7069 6.62251C13.1094 6.43897 14.5735 6.20917 15.7287 5.98134C16.2705 5.87448 16.6231 5.34859 16.5163 4.80674C16.4094 4.2649 15.8835 3.91227 15.3417 4.01914C14.4109 4.20272 13.2858 4.38497 12.1685 4.54167C12.2546 4.197 12.344 3.85036 12.4351 3.49749L12.499 3.24975ZM9.5545 13.758C7.43845 14.7459 6.232 15.6645 5.59632 16.4206C5.10699 17.0025 5.00034 17.4336 5 17.6955C4.99966 17.956 5.1033 18.1661 5.25719 18.3233C5.37128 18.4398 5.59143 18.5258 5.91831 18.543C6.06626 18.5508 6.20209 18.5422 6.30085 18.5314C6.34926 18.526 6.38624 18.5204 6.40828 18.5167L6.41658 18.5153L6.42901 18.5131C6.43884 18.511 6.44918 18.509 6.45907 18.5073C7.80383 18.2705 9.00817 17.699 10.055 16.9258C9.83104 15.7807 9.66724 14.7306 9.5545 13.758ZM11.7947 15.3117C11.6531 14.4612 11.5498 13.6749 11.4789 12.9426C12.1879 12.6683 12.9694 12.3909 13.8302 12.112C13.3766 13.1473 12.7035 14.2643 11.8231 15.2791C11.8136 15.29 11.8042 15.3008 11.7947 15.3117Z" fill="black"/>
</svg>
