<svg width="24" height="24" viewBox="0 0 24 24" fill="none" xmlns="http://www.w3.org/2000/svg">
<path opacity="0.3" fill-rule="evenodd" clip-rule="evenodd" d="M14 3C14 3.55228 14.4477 4 15 4H18.587L14.0498 8.53718C12.7879 7.57284 11.2108 7 9.5 7C5.35786 7 2 10.3579 2 14.5C2 18.6421 5.35786 22 9.5 22C13.6421 22 17 18.6421 17 14.5C17 12.7898 16.4276 11.2132 15.4639 9.95156L20 5.41541V9C20 9.55228 20.4477 10 21 10C21.5523 10 22 9.55228 22 9V3.04909V3C22 2.44791 21.552 2.00032 21 2H15C14.4477 2 14 2.44772 14 3ZM9.5 9C6.46243 9 4 11.4624 4 14.5C4 17.5376 6.46243 20 9.5 20C12.5376 20 15 17.5376 15 14.5C15 11.4624 12.5376 9 9.5 9Z" fill="black"/>
<path d="M13 14.5C13 16.433 11.433 18 9.5 18C7.567 18 6 16.433 6 14.5C6 12.567 7.567 11 9.5 11C11.433 11 13 12.567 13 14.5Z" fill="black"/>
</svg>
