<svg width="24" height="24" viewBox="0 0 24 24" fill="none" xmlns="http://www.w3.org/2000/svg">
<path opacity="0.3" fill-rule="evenodd" clip-rule="evenodd" d="M8 7C5.23858 7 3 9.23858 3 12C3 14.7614 5.23858 17 8 17C10.7614 17 13 14.7614 13 12C13 9.23858 10.7614 7 8 7ZM1 12C1 8.13401 4.13401 5 8 5C11.5265 5 14.4439 7.60771 14.9291 11H16V10.5C16 9.94772 16.4477 9.5 17 9.5C17.5523 9.5 18 9.94772 18 10.5V11H19.5858L18.2929 9.70711C17.9024 9.31658 17.9024 8.68342 18.2929 8.29289C18.6834 7.90237 19.3166 7.90237 19.7071 8.29289L22.7071 11.2929C23.0976 11.6834 23.0976 12.3166 22.7071 12.7071L19.7071 15.7071C19.3166 16.0976 18.6834 16.0976 18.2929 15.7071C17.9024 15.3166 17.9024 14.6834 18.2929 14.2929L19.5858 13H18V13.5C18 14.0523 17.5523 14.5 17 14.5C16.4477 14.5 16 14.0523 16 13.5V13H14.9291C14.4439 16.3923 11.5265 19 8 19C4.13401 19 1 15.866 1 12Z" fill="black"/>
<circle cx="8" cy="12" r="4" fill="black"/>
</svg>
