<svg width="24" height="24" viewBox="0 0 24 24" fill="none" xmlns="http://www.w3.org/2000/svg">
<path opacity="0.3" fill-rule="evenodd" clip-rule="evenodd" d="M7 16C7 18.7614 9.23858 21 12 21C14.7614 21 17 18.7614 17 16C17 13.2386 14.7614 11 12 11C9.23858 11 7 13.2386 7 16ZM12 23C8.13401 23 5 19.866 5 16C5 12.4735 7.60771 9.55612 11 9.07089V8H10.5C9.94772 8 9.5 7.55229 9.5 7C9.5 6.44772 9.94772 6 10.5 6H11V4.41422L9.70711 5.70711C9.31658 6.09763 8.68342 6.09763 8.29289 5.70711C7.90237 5.31658 7.90237 4.68342 8.29289 4.29289L11.2929 1.29289C11.6834 0.902369 12.3166 0.902369 12.7071 1.29289L15.7071 4.29289C16.0976 4.68342 16.0976 5.31658 15.7071 5.70711C15.3166 6.09763 14.6834 6.09763 14.2929 5.70711L13 4.41422V6H13.5C14.0523 6 14.5 6.44772 14.5 7C14.5 7.55229 14.0523 8 13.5 8H13V9.07089C16.3923 9.55612 19 12.4735 19 16C19 19.866 15.866 23 12 23Z" fill="black"/>
<circle cx="12" cy="16" r="4" fill="black"/>
</svg>
