<svg width="24" height="24" viewBox="0 0 24 24" fill="none" xmlns="http://www.w3.org/2000/svg">
<g opacity="0.3">
<path fill-rule="evenodd" clip-rule="evenodd" d="M10 5C10 5.55229 10.4477 6 11 6H12.5874L9.61848 8.96892C8.73225 8.35782 7.65791 8 6.5 8C3.46243 8 1 10.4624 1 13.5C1 16.5376 3.46243 19 6.5 19C9.53757 19 12 16.5376 12 13.5C12 12.3429 11.6427 11.2693 11.0324 10.3834L14 7.41583V9C14 9.55228 14.4477 10 15 10C15.5523 10 16 9.55228 16 9V5.05697V5C16 4.44798 15.5519 4.00043 15 4H11C10.4477 4 10 4.44772 10 5ZM6.5 10C4.567 10 3 11.567 3 13.5C3 15.433 4.567 17 6.5 17C8.433 17 10 15.433 10 13.5C10 11.567 8.433 10 6.5 10Z" fill="black"/>
<path d="M12.5742 11.1777C12.8504 11.8993 13.0017 12.6825 13.0017 13.5C13.0017 14.3183 12.8505 15.1012 12.5745 15.8224C12.8612 15.937 13.1741 16 13.5017 16C14.8824 16 16.0017 14.8807 16.0017 13.5C16.0017 12.1193 14.8824 11 13.5017 11C13.174 11 12.861 11.0631 12.5742 11.1777Z" fill="black"/>
</g>
<path d="M12.1425 16.7274C11.7995 17.3259 11.364 17.8647 10.8555 18.3242C11.64 18.755 12.5409 19 13.4991 19C16.5367 19 18.9991 16.5376 18.9991 13.5C18.9991 12.3429 18.6418 11.2693 18.0315 10.3834L20.9991 7.41583V9C20.9991 9.55229 21.4468 10 21.9991 10C22.5514 10 22.9991 9.55229 22.9991 9V5.05697V5C22.9991 4.44798 22.551 4.00043 21.9991 4H17.9991C17.4468 4 16.9991 4.44772 16.9991 5C16.9991 5.55229 17.4468 6 17.9991 6H19.5865L16.9991 8.5874V9C16.9991 9.82852 16.4953 10.5394 15.7773 10.8429C16.5253 11.4848 16.9991 12.4371 16.9991 13.5C16.9991 15.433 15.4321 17 13.4991 17C13.0181 17 12.5597 16.903 12.1425 16.7274Z" fill="black"/>
<path d="M9 13.5C9 14.8807 7.88071 16 6.5 16C5.11929 16 4 14.8807 4 13.5C4 12.1193 5.11929 11 6.5 11C7.88071 11 9 12.1193 9 13.5Z" fill="black"/>
</svg>
