<svg width="24" height="24" viewBox="0 0 24 24" fill="none" xmlns="http://www.w3.org/2000/svg">
<path opacity="0.3" fill-rule="evenodd" clip-rule="evenodd" d="M12 2C8.13401 2 5 5.13401 5 9C5 12.5265 7.60771 15.4439 11 15.9291V18V20V21C11 21.5523 11.4477 22 12 22C12.5523 22 13 21.5523 13 21V20V18V15.9291C16.3923 15.4439 19 12.5265 19 9C19 5.13401 15.866 2 12 2ZM12 4C9.23858 4 7 6.23858 7 9C7 11.7614 9.23858 14 12 14C14.7614 14 17 11.7614 17 9C17 6.23858 14.7614 4 12 4Z" fill="black"/>
<circle cx="12" cy="9" r="4" fill="black"/>
</svg>
