<svg width="24" height="24" viewBox="0 0 24 24" fill="none" xmlns="http://www.w3.org/2000/svg">
<g opacity="0.3">
<path fill-rule="evenodd" clip-rule="evenodd" d="M8 4C5.23858 4 3 6.23858 3 9C3 11.7614 5.23858 14 8 14C10.7614 14 13 11.7614 13 9C13 6.23858 10.7614 4 8 4ZM1 9C1 5.13401 4.13401 2 8 2C11.866 2 15 5.13401 15 9C15 12.5265 12.3923 15.4439 9 15.9291V18H10C10.5523 18 11 18.4477 11 19C11 19.5523 10.5523 20 10 20H9V21C9 21.5523 8.55228 22 8 22C7.44772 22 7 21.5523 7 21V20H6C5.44772 20 5 19.5523 5 19C5 18.4477 5.44772 18 6 18H7V15.9291C3.60771 15.4439 1 12.5265 1 9Z" fill="black"/>
<path d="M15 12.8742C15.6366 11.7264 15.999 10.4055 15.999 9C15.999 7.59447 15.6366 6.2736 15 5.12577C15.3193 5.04366 15.6541 5 15.999 5C18.2082 5 19.999 6.79086 19.999 9C19.999 11.2091 18.2082 13 15.999 13C15.6541 13 15.3193 12.9563 15 12.8742Z" fill="black"/>
</g>
<path d="M14.4382 4.2491C14.9299 4.08745 15.4553 4 16.001 4C18.7625 4 21.001 6.23858 21.001 9C21.001 11.7614 18.7625 14 16.001 14C15.4553 14 14.9299 13.9126 14.4382 13.7509C14.0095 14.3308 13.5043 14.8507 12.9375 15.2958C13.5769 15.6075 14.2708 15.8247 15.001 15.9291V18H14.001C13.4488 18 13.001 18.4477 13.001 19C13.001 19.5523 13.4488 20 14.001 20H15.001V21C15.001 21.5523 15.4488 22 16.001 22C16.5533 22 17.001 21.5523 17.001 21V20H18.001C18.5533 20 19.001 19.5523 19.001 19C19.001 18.4477 18.5533 18 18.001 18H17.001V15.9291C20.3933 15.4439 23.001 12.5265 23.001 9C23.001 5.13401 19.867 2 16.001 2C14.9024 2 13.8628 2.25312 12.9375 2.70421C13.5043 3.14925 14.0095 3.66918 14.4382 4.2491Z" fill="black"/>
<path d="M12 9C12 11.2091 10.2091 13 8 13C5.79086 13 4 11.2091 4 9C4 6.79086 5.79086 5 8 5C10.2091 5 12 6.79086 12 9Z" fill="black"/>
</svg>
