<svg width="24" height="24" viewBox="0 0 24 24" fill="none" xmlns="http://www.w3.org/2000/svg">
<path opacity="0.3" fill-rule="evenodd" clip-rule="evenodd" d="M12 4C9.23858 4 7 6.23858 7 9C7 11.7614 9.23858 14 12 14C14.7614 14 17 11.7614 17 9C17 6.23858 14.7614 4 12 4ZM5 9C5 5.13401 8.13401 2 12 2C15.866 2 19 5.13401 19 9C19 12.5265 16.3923 15.4439 13 15.9291V18H14C14.5523 18 15 18.4477 15 19C15 19.5523 14.5523 20 14 20H13V21C13 21.5523 12.5523 22 12 22C11.4477 22 11 21.5523 11 21V20H10C9.44772 20 9 19.5523 9 19C9 18.4477 9.44772 18 10 18H11V15.9291C7.60771 15.4439 5 12.5265 5 9Z" fill="black"/>
<circle cx="12" cy="9" r="4" fill="black"/>
</svg>
