<svg width="24" height="24" viewBox="0 0 24 24" fill="none" xmlns="http://www.w3.org/2000/svg">
<g opacity="0.3">
<path fill-rule="evenodd" clip-rule="evenodd" d="M8 4C5.23858 4 3 6.23858 3 9C3 11.7614 5.23858 14 8 14C10.7614 14 13 11.7614 13 9C13 6.23858 10.7614 4 8 4ZM1 9C1 5.13401 4.13401 2 8 2C11.866 2 15 5.13401 15 9C15 12.5265 12.3923 15.4439 9 15.9291V18H10C10.5523 18 11 18.4477 11 19C11 19.5523 10.5523 20 10 20H9V21C9 21.5523 8.55228 22 8 22C7.44772 22 7 21.5523 7 21V20H6C5.44772 20 5 19.5523 5 19C5 18.4477 5.44772 18 6 18H7V15.9291C3.60771 15.4439 1 12.5265 1 9Z" fill="black"/>
<path d="M15.839 10.6117C15.5941 11.8089 15.0818 12.9087 14.3672 13.846C15.3212 13.4938 16.0014 12.5764 16.0014 11.5C16.0014 11.1871 15.944 10.8877 15.839 10.6117Z" fill="black"/>
</g>
<path d="M12 9C12 11.2091 10.2091 13 8 13C5.79086 13 4 11.2091 4 9C4 6.79086 5.79086 5 8 5C10.2091 5 12 6.79086 12 9Z" fill="black"/>
<path d="M15.9995 9.05035C15.9996 9.03358 15.9996 9.0168 15.9996 9C15.9996 8.09071 15.8479 7.21686 15.5685 6.40236C15.9404 6.55344 16.292 6.74403 16.6181 6.96892L19.587 4H17.9996C17.4474 4 16.9996 3.55229 16.9996 3C16.9996 2.44772 17.4474 2 17.9996 2H21.9996C22.2558 1.99981 22.5129 2.09744 22.7084 2.29289C22.9181 2.50265 23.0152 2.7824 22.9996 3.05695V7C22.9996 7.55229 22.5519 8 21.9996 8C21.4474 8 20.9996 7.55229 20.9996 7V5.41583L18.032 8.38343C18.6423 9.26929 18.9996 10.3429 18.9996 11.5C18.9996 14.5376 16.5372 17 13.4996 17C12.6074 17 11.7647 16.7875 11.0195 16.4104C11.8598 16.0676 12.6287 15.5861 13.2978 14.9943C13.3646 14.9981 13.4319 15 13.4996 15C15.4326 15 16.9996 13.433 16.9996 11.5C16.9996 10.5463 16.6182 9.68163 15.9995 9.05035Z" fill="black"/>
</svg>
