<svg width="24" height="24" viewBox="0 0 24 24" fill="none" xmlns="http://www.w3.org/2000/svg">
<path opacity="0.14" d="M3 6.2C3 5.0799 3 4.51984 3.21799 4.09202C3.40973 3.71569 3.71569 3.40973 4.09202 3.21799C4.51984 3 5.0799 3 6.2 3H13V21H6.2C5.0799 21 4.51984 21 4.09202 20.782C3.71569 20.5903 3.40973 20.2843 3.21799 19.908C3 19.4802 3 18.9201 3 17.8V6.2Z" fill="black"/>
<path d="M16.9996 15.9995L20.9996 11.9995M20.9996 11.9995L16.9996 7.99951M20.9996 11.9995H8.99963M12.9996 20.9995H6.20041C5.08031 20.9995 4.52026 20.9995 4.09243 20.7815C3.71611 20.5898 3.41015 20.2838 3.2184 19.9075C3.00042 19.4797 3.00042 18.9196 3.00042 17.7995V6.19951C3.00042 5.07941 3.00042 4.51935 3.2184 4.09153C3.41015 3.71521 3.71611 3.40925 4.09243 3.2175C4.52026 2.99951 5.08031 2.99951 6.20041 2.99951L12.9996 2.99951" stroke="black" stroke-width="2" stroke-linecap="round" stroke-linejoin="round"/>
</svg>
