<svg width="24" height="24" viewBox="0 0 24 24" fill="none" xmlns="http://www.w3.org/2000/svg">
<path opacity="0.14" d="M21 5.50024C21 6.88096 19.8807 8.00024 18.5 8.00024C17.1193 8.00024 16 6.88096 16 5.50024C16 4.11953 17.1193 3.00024 18.5 3.00024C19.8807 3.00024 21 4.11953 21 5.50024Z" fill="black"/>
<path d="M7 3V21M7 21L3 17M7 21L11 17M16.5 16L18.5 14V21M16.5 21H20.5M20.5 7L18 10M21 5.5C21 6.88071 19.8807 8 18.5 8C17.1193 8 16 6.88071 16 5.5C16 4.11929 17.1193 3 18.5 3C19.8807 3 21 4.11929 21 5.5Z" stroke="black" stroke-width="2" stroke-linecap="round" stroke-linejoin="round"/>
</svg>
