<svg width="24" height="24" viewBox="0 0 24 24" fill="none" xmlns="http://www.w3.org/2000/svg">
<path opacity="0.14" d="M20.9999 16.5C20.9999 17.8807 19.8806 19 18.4999 19C17.1192 19 15.9999 17.8807 15.9999 16.5C15.9999 15.1193 17.1192 14 18.4999 14C19.8806 14 20.9999 15.1193 20.9999 16.5Z" fill="black"/>
<path d="M16.5 5L18.5 3V10M16.5 10H20.5M20.5 18L18 21M7 3V21M7 3L11 7M7 3L3 7M21 16.5C21 17.8807 19.8807 19 18.5 19C17.1193 19 16 17.8807 16 16.5C16 15.1193 17.1193 14 18.5 14C19.8807 14 21 15.1193 21 16.5Z" stroke="black" stroke-width="2" stroke-linecap="round" stroke-linejoin="round"/>
</svg>
