<svg width="24" height="24" viewBox="0 0 24 24" fill="none" xmlns="http://www.w3.org/2000/svg">
<path opacity="0.14" d="M15 16.0686V7.9313C15 7.32548 15 7.02257 14.8802 6.88231C14.7763 6.76061 14.6204 6.69602 14.4608 6.70858C14.2769 6.72305 14.0627 6.93724 13.6344 7.36561L9.56573 11.4342C9.36772 11.6322 9.26872 11.7313 9.23163 11.8454C9.199 11.9458 9.199 12.054 9.23163 12.1544C9.26872 12.2686 9.36772 12.3676 9.56573 12.5656L13.6344 16.6342C14.0627 17.0626 14.2769 17.2768 14.4608 17.2913C14.6204 17.3038 14.7763 17.2392 14.8802 17.1175C15 16.9773 15 16.6744 15 16.0686Z" fill="black"/>
<path d="M15 16.0686V7.9313C15 7.32548 15 7.02257 14.8802 6.88231C14.7763 6.76061 14.6204 6.69602 14.4608 6.70858C14.2769 6.72305 14.0627 6.93724 13.6344 7.36561L9.56573 11.4342C9.36772 11.6322 9.26872 11.7313 9.23163 11.8454C9.199 11.9458 9.199 12.054 9.23163 12.1544C9.26872 12.2686 9.36772 12.3676 9.56573 12.5656L13.6344 16.6342C14.0627 17.0626 14.2769 17.2768 14.4608 17.2913C14.6204 17.3038 14.7763 17.2392 14.8802 17.1175C15 16.9773 15 16.6744 15 16.0686Z" stroke="black" stroke-width="2" stroke-linecap="round" stroke-linejoin="round"/>
</svg>
