<svg width="24" height="24" viewBox="0 0 24 24" fill="none" xmlns="http://www.w3.org/2000/svg">
<path opacity="0.14" d="M16.0687 9H7.93142C7.3256 9 7.0227 9 6.88243 9.1198C6.76073 9.22374 6.69614 9.37967 6.7087 9.53923C6.72317 9.72312 6.93736 9.93731 7.36574 10.3657L11.4344 14.4343C11.6324 14.6323 11.7314 14.7313 11.8455 14.7684C11.946 14.8011 12.0541 14.8011 12.1546 14.7684C12.2687 14.7313 12.3677 14.6323 12.5657 14.4343L16.6344 10.3657C17.0627 9.93731 17.2769 9.72312 17.2914 9.53923C17.304 9.37967 17.2394 9.22374 17.1177 9.1198C16.9774 9 16.6745 9 16.0687 9Z" fill="black"/>
<path d="M16.0687 9H7.93142C7.3256 9 7.0227 9 6.88243 9.1198C6.76073 9.22374 6.69614 9.37967 6.7087 9.53923C6.72317 9.72312 6.93736 9.93731 7.36574 10.3657L11.4344 14.4343C11.6324 14.6323 11.7314 14.7313 11.8455 14.7684C11.946 14.8011 12.0541 14.8011 12.1546 14.7684C12.2687 14.7313 12.3677 14.6323 12.5657 14.4343L16.6344 10.3657C17.0627 9.93731 17.2769 9.72312 17.2914 9.53923C17.304 9.37967 17.2394 9.22374 17.1177 9.1198C16.9774 9 16.6745 9 16.0687 9Z" stroke="black" stroke-width="2" stroke-linecap="round" stroke-linejoin="round"/>
</svg>
