<svg width="24" height="24" viewBox="0 0 24 24" fill="none" xmlns="http://www.w3.org/2000/svg">
<path opacity="0.14" d="M7.93142 14.9999H16.0687C16.6745 14.9999 16.9774 14.9999 17.1177 14.8801C17.2394 14.7762 17.304 14.6203 17.2914 14.4607C17.2769 14.2768 17.0627 14.0626 16.6344 13.6342L12.5657 9.56561C12.3677 9.3676 12.2687 9.2686 12.1546 9.2315C12.0541 9.19887 11.946 9.19887 11.8455 9.2315C11.7314 9.2686 11.6324 9.3676 11.4344 9.56561L7.36573 13.6342C6.93736 14.0626 6.72317 14.2768 6.7087 14.4607C6.69614 14.6203 6.76073 14.7762 6.88243 14.8801C7.0227 14.9999 7.3256 14.9999 7.93142 14.9999Z" fill="black"/>
<path d="M7.93142 14.9999H16.0687C16.6745 14.9999 16.9774 14.9999 17.1177 14.8801C17.2394 14.7762 17.304 14.6203 17.2914 14.4607C17.2769 14.2768 17.0627 14.0626 16.6344 13.6342L12.5657 9.56561C12.3677 9.3676 12.2687 9.2686 12.1546 9.2315C12.0541 9.19887 11.946 9.19887 11.8455 9.2315C11.7314 9.2686 11.6324 9.3676 11.4344 9.56561L7.36573 13.6342C6.93736 14.0626 6.72317 14.2768 6.7087 14.4607C6.69614 14.6203 6.76073 14.7762 6.88243 14.8801C7.0227 14.9999 7.3256 14.9999 7.93142 14.9999Z" stroke="black" stroke-width="2" stroke-linecap="round" stroke-linejoin="round"/>
</svg>
