<svg width="24" height="24" viewBox="0 0 24 24" fill="none" xmlns="http://www.w3.org/2000/svg">
<path fill-rule="evenodd" clip-rule="evenodd" d="M9.94284 3.17899C10.1269 3.69971 9.85396 4.27103 9.33325 4.45508C6.22472 5.55378 4 8.51843 4 12.0001C4 16.4184 7.58172 20.0001 12 20.0001C16.4183 20.0001 20 16.4184 20 12.0001C20 8.51843 17.7753 5.55378 14.6668 4.45508C14.146 4.27103 13.8731 3.69971 14.0572 3.17899C14.2412 2.65827 14.8125 2.38535 15.3332 2.5694C19.2159 3.94171 22 7.64449 22 12.0001C22 17.523 17.5228 22.0001 12 22.0001C6.47715 22.0001 2 17.523 2 12.0001C2 7.64449 4.78413 3.94171 8.66675 2.5694C9.18747 2.38535 9.75879 2.65827 9.94284 3.17899Z" fill="black"/>
</svg>
