<svg width="24" height="24" viewBox="0 0 24 24" fill="none" xmlns="http://www.w3.org/2000/svg">
<path d="M10.9121 2.95115C10.8765 2.85617 10.7546 2.82977 10.6829 2.9015L3.62118 9.96317C3.27723 10.3071 3.57713 10.8899 4.05694 10.8099L7.98012 10.1561C8.15627 10.1267 8.30339 10.0056 8.36609 9.83842L10.9121 3.0491C10.9239 3.01752 10.9239 2.98273 10.9121 2.95115Z" fill="black"/>
<path d="M3.61361 12.9114C3.21246 12.9783 3.05469 13.4706 3.34226 13.7581L10.1449 20.5608C10.4599 20.8758 10.9984 20.6527 10.9984 20.2072V15.5001C10.9984 15.3919 10.9634 15.2867 10.8984 15.2001L8.74557 12.3296C8.63353 12.1802 8.44757 12.1057 8.26337 12.1364L3.61361 12.9114Z" fill="black"/>
<path d="M12.9984 20.2072C12.9984 20.6527 13.537 20.8758 13.852 20.5608L20.6546 13.7581C20.9422 13.4706 20.7844 12.9783 20.3833 12.9114L15.7335 12.1364C15.5493 12.1057 15.3634 12.1802 15.2513 12.3296L13.0984 15.2001C13.0335 15.2867 12.9984 15.3919 12.9984 15.5001V20.2072Z" fill="black"/>
<path d="M19.94 10.8099C20.4198 10.8899 20.7197 10.3071 20.3757 9.96317L13.314 2.9015C13.2423 2.82977 13.1204 2.85617 13.0848 2.95115C13.073 2.98273 13.073 3.01752 13.0848 3.0491L15.6308 9.83842C15.6935 10.0056 15.8406 10.1267 16.0168 10.1561L19.94 10.8099Z" fill="black"/>
<path d="M10.2914 11.0575C10.1891 10.921 10.1634 10.7417 10.2233 10.5819L11.5303 7.09656C11.6925 6.66398 12.3044 6.66398 12.4666 7.09656L13.7736 10.5819C13.8335 10.7417 13.8078 10.921 13.7054 11.0575L12.3984 12.8001C12.1984 13.0668 11.7984 13.0668 11.5984 12.8001L10.2914 11.0575Z" fill="black"/>
</svg>
