<svg width="24" height="24" viewBox="0 0 24 24" fill="none" xmlns="http://www.w3.org/2000/svg">
<path d="M11 4.16675C11 3.68625 10.3883 3.48235 10.1 3.86675L2.20001 14.4001C2.0351 14.62 1.96796 14.898 2.01436 15.1689C2.06076 15.4398 2.21662 15.6797 2.44531 15.8321L10.2226 21.017C10.5549 21.2385 11 21.0004 11 20.601V4.16675Z" fill="black"/>
<path d="M13 20.601C13 21.0004 13.4451 21.2386 13.7774 21.017L21.5547 15.8321C21.7834 15.6797 21.9392 15.4398 21.9857 15.1689C22.0321 14.898 21.9649 14.62 21.8 14.4001L13.9 3.86674C13.6117 3.48234 13 3.68624 13 4.16674V20.601Z" fill="black"/>
</svg>
