<svg width="24" height="24" viewBox="0 0 24 24" fill="none" xmlns="http://www.w3.org/2000/svg">
<path d="M13.8399 6.32014C13.5198 6.61676 13 6.38979 13 5.95343V2.62398C13 2.32336 13.2637 2.08985 13.5592 2.14476C14.6184 2.34152 15.6767 2.72047 16.5524 3.23488C16.7512 3.35163 16.7509 3.62212 16.5818 3.77882L13.8399 6.32014Z" fill="black"/>
<path d="M20.7407 8.84314C20.6903 8.63838 20.4547 8.56361 20.2711 8.66725L17.0347 10.4939L17.0194 10.5024L15.1339 11.5233C15.052 11.5676 15.001 11.6533 15.001 11.7464C15.001 11.8865 15.1146 12.0001 15.2547 12.0001L20.501 12.0001C20.7772 12.0001 21.001 11.7762 21.001 11.5001V11.0001C21.001 10.2578 20.9109 9.53519 20.7407 8.84314Z" fill="black"/>
<path d="M21 14.5001C21 14.2239 20.7761 14.0001 20.5 14.0001L15.5 14.0001C15.2239 14.0001 15 14.2239 15 14.5001V15.5001C15 15.7762 15.2239 16.0001 15.5 16.0001L20.5 16.0001C20.7761 16.0001 21 15.7762 21 15.5001V14.5001Z" fill="black"/>
<path d="M21 18.5001C21 18.2239 20.7761 18.0001 20.5 18.0001L15.5 18.0001C15.2239 18.0001 15 18.2239 15 18.5001V20.0001C15 21.1047 15.8954 22.0001 17 22.0001H19C20.1046 22.0001 21 21.1047 21 20.0001V18.5001Z" fill="black"/>
<path d="M8.5 16.0001C8.77614 16.0001 9 15.7762 9 15.5001V14.5001C9 14.2239 8.77614 14.0001 8.5 14.0001L3.5 14.0001C3.22386 14.0001 3 14.2239 3 14.5001L3 15.5001C3 15.7762 3.22386 16.0001 3.5 16.0001H8.5Z" fill="black"/>
<path d="M3 18.5001C3 18.2239 3.22386 18.0001 3.5 18.0001H8.5C8.77614 18.0001 9 18.2239 9 18.5001V20.0001C9 21.1047 8.10457 22.0001 7 22.0001H5C3.89543 22.0001 3 21.1047 3 20.0001L3 18.5001Z" fill="black"/>
<path d="M3 11.5001C3 11.7762 3.22386 12.0001 3.5 12.0001H8.77375C8.8987 12.0001 9 11.8988 9 11.7738C9 11.6922 8.95603 11.6169 8.88495 11.5768L3.72961 8.66734C3.5461 8.56377 3.31071 8.63852 3.26036 8.84314C3.09007 9.53519 3 10.2578 3 11.0001V11.5001Z" fill="black"/>
<path d="M4.40072 6.17708C4.25286 6.40964 4.3392 6.71459 4.57919 6.85003L9.15545 9.4327C9.26977 9.49722 9.41568 9.47052 9.48754 9.36066C9.55906 9.25133 9.63757 9.14687 9.72247 9.04793C9.83519 8.91655 9.80937 8.72198 9.68241 8.6043L7.17079 6.27645L6.95318 6.0743L5.88386 5.08322C5.68423 4.89819 5.3721 4.90594 5.19394 5.11172C4.90445 5.4461 4.63912 5.80212 4.40072 6.17708Z" fill="black"/>
<path d="M7.44756 3.23488C7.24893 3.35155 7.2493 3.62184 7.41824 3.77845L10.1601 6.32002C10.4801 6.61667 11 6.3897 11 5.95333V2.62398C11 2.32336 10.7363 2.08985 10.4408 2.14476C9.38163 2.34152 8.32332 2.72047 7.44756 3.23488Z" fill="black"/>
<path d="M10.9764 8.15183C10.9668 8.16219 10.9776 8.17828 10.9909 8.17366C10.9907 8.17373 10.9912 8.17358 10.9909 8.17366C10.9964 8.17177 11 8.16665 11 8.1609C11 8.14858 10.9848 8.14279 10.9764 8.15183Z" fill="black"/>
<path d="M14.3168 8.60507C14.19 8.72256 14.1655 8.91676 14.278 9.04793C14.3629 9.14687 14.4415 9.25133 14.513 9.36066C14.5759 9.45689 14.7031 9.4822 14.8042 9.42745L16.0595 8.74778L19.4215 6.85025C19.6615 6.7148 19.7478 6.40986 19.5999 6.17731C19.3615 5.80227 19.0961 5.44619 18.8066 5.11174C18.6284 4.90596 18.3163 4.89822 18.1167 5.08324L14.3168 8.60507Z" fill="black"/>
</svg>
