<svg width="24" height="24" viewBox="0 0 24 24" fill="none" xmlns="http://www.w3.org/2000/svg">
<g opacity="0.3">
<path d="M17.7809 2.37537C17.4682 1.98452 16.9147 1.88505 16.4855 2.14257L13.1492 4.14438C11.8874 4.90145 10.8963 6.03689 10.3166 7.3894L8.94664 10.586C8.48079 11.673 7.64473 12.5597 6.58698 13.0885L2.5528 15.1056C2.28269 15.2407 2.08807 15.4906 2.02329 15.7855C1.95851 16.0805 2.03049 16.3889 2.21914 16.6248L3.4462 18.1586L8.58573 15.5885C9.64348 15.0596 10.4795 14.173 10.9454 13.086L12.3154 9.88937C12.895 8.53687 13.8861 7.40142 15.1479 6.64435L19.2337 4.1929L19.5496 4.58782L17.7809 2.37537Z" fill="black"/>
<path d="M4.72394 19.7558L9.48015 17.3774C10.961 16.6369 12.1315 15.3956 12.7837 13.8738L14.1536 10.6772C14.5677 9.71114 15.2756 8.9001 16.1769 8.35934L20.4944 5.76884L20.18 5.37578L21.7809 7.37537C21.9611 7.6007 22.0353 7.89292 21.9842 8.17694C21.9332 8.46096 21.762 8.70909 21.5145 8.85755L18.1782 10.8594C17.2769 11.4001 16.5689 12.2112 16.1549 13.1772L14.7849 16.3738C14.1327 17.8956 12.9623 19.137 11.4814 19.8774L7.44722 21.8945C7.02547 22.1054 6.51371 21.993 6.21914 21.6248L4.72394 19.7558Z" fill="black"/>
</g>
<path d="M14.1536 10.6772C14.5677 9.7111 15.2756 8.90007 16.1769 8.35931L20.4944 5.7688L19.2337 4.19287L15.1479 6.64432C13.8861 7.40139 12.895 8.53684 12.3154 9.88934L10.9454 13.0859C10.4795 14.1729 9.64348 15.0596 8.58573 15.5885L3.44531 18.159L4.72305 19.7562L9.48015 17.3773C10.961 16.6369 12.1315 15.3956 12.7837 13.8738L14.1536 10.6772Z" fill="black"/>
</svg>
