<svg width="24" height="24" viewBox="0 0 24 24" fill="none" xmlns="http://www.w3.org/2000/svg">
<path opacity="0.3" fill-rule="evenodd" clip-rule="evenodd" d="M15.6569 8.34304C13.6666 6.35279 10.8886 5.6315 8.33022 6.17525C8.28789 6.18425 8.24562 6.19359 8.20342 6.20328C6.78817 6.52816 5.44384 7.24235 4.34315 8.34304C1.21895 11.4672 1.21895 16.5326 4.34315 19.6567C7.46734 22.7809 12.5327 22.7809 15.6569 19.6567C16.7575 18.5561 17.4717 17.2117 17.7966 15.7965C17.8063 15.7543 17.8156 15.712 17.8246 15.6697C18.3684 13.1113 17.6471 10.3333 15.6569 8.34304ZM10 11.9999C11.1046 11.9999 12 12.8953 12 13.9999C12 15.1045 11.1046 15.9999 10 15.9999C8.89543 15.9999 8 15.1045 8 13.9999C8 12.8953 8.89543 11.9999 10 11.9999ZM7.99219 8.99991C7.4399 8.99991 6.99219 9.44762 6.99219 9.99991C6.99219 10.5522 7.4399 10.9999 7.99219 10.9999H8.00219C8.55447 10.9999 9.00219 10.5522 9.00219 9.99991C9.00219 9.44762 8.55447 8.99991 8.00219 8.99991H7.99219ZM12 8.99991C11.4477 8.99991 11 9.44762 11 9.99991C11 10.5522 11.4477 10.9999 12 10.9999H12.01C12.5623 10.9999 13.01 10.5522 13.01 9.99991C13.01 9.44762 12.5623 8.99991 12.01 8.99991H12ZM5.75 11.9999C5.19772 11.9999 4.75 12.4476 4.75 12.9999C4.75 13.5522 5.19772 13.9999 5.75 13.9999H5.76C6.31229 13.9999 6.76 13.5522 6.76 12.9999C6.76 12.4476 6.31229 11.9999 5.76 11.9999H5.75ZM14.25 11.9999C13.6977 11.9999 13.25 12.4476 13.25 12.9999C13.25 13.5522 13.6977 13.9999 14.25 13.9999H14.26C14.8123 13.9999 15.26 13.5522 15.26 12.9999C15.26 12.4476 14.8123 11.9999 14.26 11.9999H14.25ZM6.25 15.4999C5.69772 15.4999 5.25 15.9476 5.25 16.4999C5.25 17.0522 5.69772 17.4999 6.25 17.4999H6.26C6.81228 17.4999 7.26 17.0522 7.26 16.4999C7.26 15.9476 6.81228 15.4999 6.26 15.4999H6.25ZM13.75 15.4999C13.1977 15.4999 12.75 15.9476 12.75 16.4999C12.75 17.0522 13.1977 17.4999 13.75 17.4999H13.76C14.3123 17.4999 14.76 17.0522 14.76 16.4999C14.76 15.9476 14.3123 15.4999 13.76 15.4999H13.75ZM10 17.4999C9.44772 17.4999 9 17.9476 9 18.4999C9 19.0522 9.44772 19.4999 10 19.4999H10.01C10.5623 19.4999 11.01 19.0522 11.01 18.4999C11.01 17.9476 10.5623 17.4999 10.01 17.4999H10Z" fill="black"/>
<path d="M8.39408 5.1438C9.75434 3.24058 11.9823 2 14.5 2C18.6421 2 22 5.35786 22 9.5C22 12.0177 20.7594 14.2457 18.8562 15.6059C19.3616 12.8067 18.5334 9.80545 16.364 7.63603C14.1945 5.46661 11.1933 4.63839 8.39408 5.1438Z" fill="black"/>
<path d="M9 18.5C9 17.9477 9.44772 17.5 10 17.5H10.01C10.5623 17.5 11.01 17.9477 11.01 18.5C11.01 19.0523 10.5623 19.5 10.01 19.5H10C9.44772 19.5 9 19.0523 9 18.5Z" fill="black"/>
<path d="M12.75 16.5C12.75 15.9477 13.1977 15.5 13.75 15.5H13.76C14.3123 15.5 14.76 15.9477 14.76 16.5C14.76 17.0523 14.3123 17.5 13.76 17.5H13.75C13.1977 17.5 12.75 17.0523 12.75 16.5Z" fill="black"/>
<path d="M13.25 13C13.25 12.4477 13.6977 12 14.25 12H14.26C14.8123 12 15.26 12.4477 15.26 13C15.26 13.5523 14.8123 14 14.26 14H14.25C13.6977 14 13.25 13.5523 13.25 13Z" fill="black"/>
<path d="M11 10C11 9.44772 11.4477 9 12 9H12.01C12.5623 9 13.01 9.44772 13.01 10C13.01 10.5523 12.5623 11 12.01 11H12C11.4477 11 11 10.5523 11 10Z" fill="black"/>
<path d="M6.99219 10C6.99219 9.44772 7.4399 9 7.99219 9H8.00219C8.55447 9 9.00219 9.44772 9.00219 10C9.00219 10.5523 8.55447 11 8.00219 11H7.99219C7.4399 11 6.99219 10.5523 6.99219 10Z" fill="black"/>
<path d="M4.75 13C4.75 12.4477 5.19772 12 5.75 12H5.76C6.31228 12 6.76 12.4477 6.76 13C6.76 13.5523 6.31228 14 5.76 14H5.75C5.19772 14 4.75 13.5523 4.75 13Z" fill="black"/>
<path d="M5.25 16.5C5.25 15.9477 5.69772 15.5 6.25 15.5H6.26C6.81228 15.5 7.26 15.9477 7.26 16.5C7.26 17.0523 6.81228 17.5 6.26 17.5H6.25C5.69772 17.5 5.25 17.0523 5.25 16.5Z" fill="black"/>
</svg>
