<svg width="24" height="24" viewBox="0 0 24 24" fill="none" xmlns="http://www.w3.org/2000/svg">
<path opacity="0.3" fill-rule="evenodd" clip-rule="evenodd" d="M2 4C2 2.89543 2.89543 2 4 2H15C16.1046 2 17 2.89543 17 4V5H20C21.1046 5 22 5.89543 22 7V11.4338C22 12.1363 21.6314 12.7873 21.029 13.1488L17 15.5662V19C17 20.6569 15.6569 22 14 22H5C3.34315 22 2 20.6569 2 19V4ZM17 13.2338L20 11.4338V7H17V13.2338ZM7.5 8C7.5 7.44772 7.05228 7 6.5 7C5.94772 7 5.5 7.44772 5.5 8V16C5.5 16.5523 5.94772 17 6.5 17C7.05228 17 7.5 16.5523 7.5 16V8ZM12.5 7C13.0523 7 13.5 7.44772 13.5 8V16C13.5 16.5523 13.0523 17 12.5 17C11.9477 17 11.5 16.5523 11.5 16V8C11.5 7.44772 11.9477 7 12.5 7ZM10.5 8C10.5 7.44772 10.0523 7 9.5 7C8.94772 7 8.5 7.44772 8.5 8V16C8.5 16.5523 8.94772 17 9.5 17C10.0523 17 10.5 16.5523 10.5 16V8Z" fill="black"/>
<path d="M7.5 8C7.5 7.44772 7.05228 7 6.5 7C5.94772 7 5.5 7.44772 5.5 8V16C5.5 16.5523 5.94772 17 6.5 17C7.05228 17 7.5 16.5523 7.5 16V8Z" fill="black"/>
<path d="M12.5 7C13.0523 7 13.5 7.44772 13.5 8V16C13.5 16.5523 13.0523 17 12.5 17C11.9477 17 11.5 16.5523 11.5 16V8C11.5 7.44772 11.9477 7 12.5 7Z" fill="black"/>
<path d="M10.5 8C10.5 7.44772 10.0523 7 9.5 7C8.94772 7 8.5 7.44772 8.5 8V16C8.5 16.5523 8.94772 17 9.5 17C10.0523 17 10.5 16.5523 10.5 16V8Z" fill="black"/>
</svg>
