<svg width="24" height="24" viewBox="0 0 24 24" fill="none" xmlns="http://www.w3.org/2000/svg">
<path opacity="0.3" fill-rule="evenodd" clip-rule="evenodd" d="M2 4C2 2.34315 3.34315 1 5 1H21C21.3107 1 21.6037 1.1444 21.793 1.39076C21.9823 1.63713 22.0463 1.95747 21.9662 2.25766L21.2349 5H15C14.4477 5 14 5.44772 14 6C14 6.55228 14.4477 7 15 7H20.7016L20.1683 9H15C14.4477 9 14 9.44772 14 10C14 10.5523 14.4477 11 15 11H19.6349L18.3016 16H7.85782L7.05782 10H5C3.34315 10 2 8.65685 2 7V4ZM5 3H6.12449L6.79116 8H5C4.44772 8 4 7.55228 4 7V4C4 3.44772 4.44772 3 5 3Z" fill="black"/>
<path fill-rule="evenodd" clip-rule="evenodd" d="M4 19C4 17.3431 5.34315 16 7 16H19C20.6569 16 22 17.3431 22 19V22C22 22.5523 21.5523 23 21 23H5C4.44772 23 4 22.5523 4 22V19ZM13 18.5C12.4477 18.5 12 18.9477 12 19.5C12 20.0523 12.4477 20.5 13 20.5H13.01C13.5623 20.5 14.01 20.0523 14.01 19.5C14.01 18.9477 13.5623 18.5 13.01 18.5H13Z" fill="black"/>
<path d="M21.2349 5H15C14.4477 5 14 5.44772 14 6C14 6.55228 14.4477 7 15 7H20.7016L21.2349 5Z" fill="black"/>
<path d="M20.1683 9H15C14.4477 9 14 9.44772 14 10C14 10.5523 14.4477 11 15 11H19.6349L20.1683 9Z" fill="black"/>
</svg>
