<svg width="24" height="24" viewBox="0 0 24 24" fill="none" xmlns="http://www.w3.org/2000/svg">
<path opacity="0.3" d="M6 5.5C3.79086 5.5 2 7.29086 2 9.5C2 10.4464 2.32904 11.3157 2.8775 12C2.32904 12.6843 2 13.5536 2 14.5C2 16.7091 3.79086 18.5 6 18.5C7.86384 18.5 9.42994 17.2252 9.87398 15.5H14.126C14.5701 17.2252 16.1362 18.5 18 18.5C20.2091 18.5 22 16.7091 22 14.5C22 13.5536 21.671 12.6843 21.1225 12C21.671 11.3157 22 10.4464 22 9.5C22 7.29086 20.2091 5.5 18 5.5C16.1362 5.5 14.5701 6.77477 14.126 8.5H9.87398C9.42994 6.77477 7.86384 5.5 6 5.5Z" fill="black"/>
</svg>
