<svg width="24" height="24" viewBox="0 0 24 24" fill="none" xmlns="http://www.w3.org/2000/svg">
<path opacity="0.3" fill-rule="evenodd" clip-rule="evenodd" d="M10 5C8.34315 5 7 6.34315 7 8V8.5C7 9.0628 7.18597 9.58217 7.49982 10C7.18597 10.4178 7 10.9372 7 11.5V12.5C7 13.0628 7.18597 13.5822 7.49982 14C7.18597 14.4178 7 14.9372 7 15.5V16.5C7 17.0628 7.18597 17.5822 7.49982 18C7.18597 18.4178 7 18.9372 7 19.5V20C7 21.6569 8.34315 23 10 23H14C15.6569 23 17 21.6569 17 20V19.5C17 18.9372 16.814 18.4178 16.5002 18C16.814 17.5822 17 17.0628 17 16.5V15.5C17 14.9372 16.814 14.4178 16.5002 14C16.814 13.5822 17 13.0628 17 12.5V11.5C17 10.9372 16.814 10.4178 16.5002 10C16.814 9.58217 17 9.0628 17 8.5V8C17 6.34315 15.6569 5 14 5H10ZM11.5 15C10.9477 15 10.5 15.4477 10.5 16C10.5 16.5523 10.9477 17 11.5 17H12.5C13.0523 17 13.5 16.5523 13.5 16C13.5 15.4477 13.0523 15 12.5 15H11.5ZM11.5 11C10.9477 11 10.5 11.4477 10.5 12C10.5 12.5523 10.9477 13 11.5 13H12.5C13.0523 13 13.5 12.5523 13.5 12C13.5 11.4477 13.0523 11 12.5 11H11.5Z" fill="black"/>
<path fill-rule="evenodd" clip-rule="evenodd" d="M9 2C9 1.44772 9.44772 1 10 1H14C14.5523 1 15 1.44772 15 2V5.17071C14.6872 5.06015 14.3506 5 14 5H10C9.64936 5 9.31278 5.06015 9 5.17071V2ZM11.5 11C10.9477 11 10.5 11.4477 10.5 12C10.5 12.5523 10.9477 13 11.5 13H12.5C13.0523 13 13.5 12.5523 13.5 12C13.5 11.4477 13.0523 11 12.5 11H11.5ZM10.5 16C10.5 15.4477 10.9477 15 11.5 15H12.5C13.0523 15 13.5 15.4477 13.5 16C13.5 16.5523 13.0523 17 12.5 17H11.5C10.9477 17 10.5 16.5523 10.5 16Z" fill="black"/>
</svg>
