<svg width="24" height="24" viewBox="0 0 24 24" fill="none" xmlns="http://www.w3.org/2000/svg">
<g opacity="0.3">
<path fill-rule="evenodd" clip-rule="evenodd" d="M10.5 8C7.73858 8 5.5 10.2386 5.5 13H10.5C11.0523 13 11.5 13.4477 11.5 14C11.5 14.5523 11.0523 15 10.5 15H5.5V17H10.5C11.0523 17 11.5 17.4477 11.5 18C11.5 18.5523 11.0523 19 10.5 19H5.5V20C5.5 21.6569 6.84315 23 8.5 23H15.5C17.1569 23 18.5 21.6569 18.5 20V13C18.5 10.2386 16.2614 8 13.5 8H10.5Z" fill="black"/>
<path d="M10.1719 2.94972C9.45369 3.30883 9 4.04291 9 4.84591V5.76389C9.53076 5.28885 10.2316 5 11 5H13C13.7684 5 14.4692 5.28885 15 5.76389V4.84591C15 4.04291 14.5463 3.30883 13.8281 2.94972C13.8018 2.93657 13.7812 2.91424 13.7703 2.88695L13.3927 1.94291C13.142 1.31619 12.5571 1 12 1C11.4429 1 10.858 1.31619 10.6073 1.94291L10.2297 2.88695C10.2188 2.91424 10.1982 2.93657 10.1719 2.94972Z" fill="black"/>
</g>
<path d="M8 8C8 6.34315 9.34315 5 11 5H13C14.6569 5 16 6.34315 16 8V8.66895C15.2646 8.24352 14.4107 8.00003 13.5 8.00003H10.5C9.58928 8.00003 8.73543 8.24352 8 8.66895V8Z" fill="black"/>
<path d="M5.5 13H10.5C11.0523 13 11.5 13.4477 11.5 14C11.5 14.5523 11.0523 15 10.5 15H5.5V13Z" fill="black"/>
<path d="M5.5 17H10.5C11.0523 17 11.5 17.4477 11.5 18C11.5 18.5523 11.0523 19 10.5 19H5.5V17Z" fill="black"/>
</svg>
