<svg width="24" height="24" viewBox="0 0 24 24" fill="none" xmlns="http://www.w3.org/2000/svg">
<path opacity="0.3" d="M3 12C2.44772 12 2 12.4477 2 13V15.4223C2 18.2266 4.27338 20.5 7.07774 20.5C7.08289 20.5 7.08783 20.502 7.09148 20.5057L7.70711 21.1213C8.26972 21.6839 9.03278 22 9.82843 22H14.1716C14.9672 22 15.7303 21.6839 16.2929 21.1213L16.9085 20.5057C16.9122 20.502 16.9171 20.5 16.9223 20.5C19.7266 20.5 22 18.2266 22 15.4223V13C22 12.4477 21.5523 12 21 12H3Z" fill="black"/>
<path d="M12 2C10.8936 2 9.89264 2.44965 9.16938 3.17392C8.79893 3.0608 8.40607 3 8 3C5.95364 3 4.26618 4.53667 4.02862 6.51903C2.81807 7.20601 2 8.50653 2 10C2 10.5523 2.44772 11 3 11H21C21.5523 11 22 10.5523 22 10C22 8.50653 21.1819 7.20601 19.9714 6.51903C19.7338 4.53667 18.0464 3 16 3C15.5939 3 15.2011 3.0608 14.8306 3.17392C14.1074 2.44965 13.1064 2 12 2Z" fill="black"/>
</svg>
