<svg width="24" height="24" viewBox="0 0 24 24" fill="none" xmlns="http://www.w3.org/2000/svg">
<path opacity="0.3" d="M16 18.5H13.9432L15.3137 20.4188C15.5315 20.7236 15.5606 21.1245 15.3892 21.4576C15.2178 21.7907 14.8746 22 14.5 22H9.5C9.12541 22 8.78224 21.7907 8.61083 21.4576C8.43943 21.1245 8.46854 20.7236 8.68627 20.4188L10.0568 18.5H8C4.68629 18.5 2 15.8137 2 12.5V12C2 11.4477 2.44772 11 3 11H21C21.5523 11 22 11.4477 22 12V12.5C22 15.8137 19.3137 18.5 16 18.5Z" fill="black"/>
<path d="M21 11C21 6.02944 16.9706 2 12 2C7.02944 2 3 6.02944 3 11H21Z" fill="black"/>
</svg>
