<svg width="24" height="24" viewBox="0 0 24 24" fill="none" xmlns="http://www.w3.org/2000/svg">
<path opacity="0.3" d="M3 11C2.44772 11 2 11.4477 2 12V12.5C2 15.8137 4.68629 18.5 8 18.5H10.0568L8.68627 20.4188C8.46854 20.7236 8.43943 21.1245 8.61083 21.4576C8.78224 21.7907 9.12541 22 9.5 22H14.5C14.8746 22 15.2178 21.7907 15.3892 21.4576C15.5606 21.1245 15.5315 20.7236 15.3137 20.4188L13.9432 18.5H16C19.3137 18.5 22 15.8137 22 12.5V12C22 11.4477 21.5523 11 21 11H3Z" fill="black"/>
<path d="M8.00179 4.5C7.68958 4.5 7.3825 4.52201 7.08203 4.56457C8.16678 3.01402 9.96587 2 12.0018 2C12.2443 2 12.484 2.01444 12.7197 2.04261C14.4572 2.25016 15.9665 3.1994 16.9217 4.56479C16.8743 4.55806 16.8268 4.55184 16.779 4.54614C16.5236 4.51563 16.2642 4.5 16.0018 4.5C14.4936 4.5 13.1045 5.0142 12.0017 5.87627C11.0915 5.16495 9.98621 4.69034 8.77904 4.54614C8.52362 4.51563 8.26421 4.5 8.00179 4.5Z" fill="black"/>
<path d="M11.2618 6.57125C10.5154 6.0207 9.6255 5.65458 8.65863 5.53908C8.44249 5.51326 8.22269 5.5 8 5.5C4.96243 5.5 2.5 7.96243 2.5 11V11.1338C2.64709 11.0487 2.81786 11 3 11H9.51953C9.51953 9.28877 10.1808 7.73199 11.2618 6.57125Z" fill="black"/>
<path d="M10.5195 11H21C21.1821 11 21.3529 11.0487 21.5 11.1338L21.5 11C21.5 8.1853 19.386 5.86488 16.6586 5.53908C16.4457 5.51364 16.2291 5.50039 16.0098 5.50001C12.9767 5.50528 10.5195 7.96569 10.5195 11Z" fill="black"/>
</svg>
