<svg width="24" height="24" viewBox="0 0 24 24" fill="none" xmlns="http://www.w3.org/2000/svg">
<path opacity="0.3" d="M2 11C2 10.4477 2.44772 10 3 10L4 10V3.5C4 2.94772 4.44772 2.5 5 2.5C5.55228 2.5 6 2.94772 6 3.5V10H7V3C7 2.44772 7.44772 2 8 2C8.55228 2 9 2.44772 9 3V10L21 10C21.5523 10 22 10.4477 22 11C22 14.973 19.6832 18.4028 16.3305 20.016L16.1703 20.5625C15.9206 21.4146 15.1389 22 14.251 22H8.79855C7.86446 22 7.05477 21.3534 6.84811 20.4425L6.61836 19.4297C3.84298 17.6544 2 14.543 2 11Z" fill="black"/>
<path d="M21.994 2.88966C22.055 3.43856 21.6594 3.93298 21.1105 3.99397L11.1105 5.10508C10.5616 5.16607 10.0672 4.77054 10.0062 4.22163C9.94521 3.67272 10.3407 3.17831 10.8897 3.11732L20.8897 2.0062C21.4386 1.94521 21.933 2.34075 21.994 2.88966Z" fill="black"/>
<path d="M21.9985 6.94462C22.0292 7.49605 21.607 7.96791 21.0556 7.99855L11.0556 8.5541C10.5041 8.58474 10.0323 8.16255 10.0016 7.61111C9.97099 7.05968 10.3932 6.58782 10.9446 6.55718L20.9446 6.00163C21.4961 5.97099 21.9679 6.39318 21.9985 6.94462Z" fill="black"/>
<path d="M4 8.94608V6.943L2.94462 7.00163C2.39318 7.03226 1.97099 7.50412 2.00163 8.05556C2.03226 8.60699 2.50412 9.02918 3.05556 8.99855L4 8.94608Z" fill="black"/>
<path d="M4 5.89514V3.88283L2.88966 4.0062C2.34075 4.06719 1.94521 4.56161 2.0062 5.11052C2.06719 5.65943 2.56161 6.05496 3.11052 5.99397L4 5.89514Z" fill="black"/>
</svg>
