<svg width="24" height="24" viewBox="0 0 24 24" fill="none" xmlns="http://www.w3.org/2000/svg">
<path opacity="0.3" d="M22 14V12C22 13.6569 20.6569 15 19 15H5C3.34315 15 2 13.6569 2 12V14C2 17.3137 4.6863 20 8 20H8.98358L8.68443 20.4188C8.4667 20.7236 8.43759 21.1246 8.60899 21.4576C8.7804 21.7907 9.12357 22.0001 9.49816 22.0001H14.4982C14.8727 22.0001 15.2159 21.7907 15.3873 21.4576C15.5587 21.1246 15.5296 20.7236 15.3119 20.4188L15.0127 20H16C19.3137 20 22 17.3137 22 14Z" fill="black"/>
<path d="M18 6.5C18 7.42507 17.7209 8.28495 17.2422 9H19C20.6569 9 22 10.3431 22 12C22 13.6569 20.6569 15 19 15H5C3.34315 15 2 13.6569 2 12C2 10.3431 3.34315 9 5 9H5.17071C5.06015 8.68722 5 8.35064 5 8C5 6.34315 6.34315 5 8 5H12.5C12.7761 5 13 4.77614 13 4.5C13 4.27072 12.8448 4.07512 12.632 4.01734C12.1798 3.89457 11.8734 3.47424 11.895 3.00615C11.9167 2.53806 12.2604 2.14775 12.722 2.06717C12.9754 2.02294 13.2354 2 13.5 2C15.9853 2 18 4.01472 18 6.5Z" fill="black"/>
</svg>
