<svg width="24" height="24" viewBox="0 0 24 24" fill="none" xmlns="http://www.w3.org/2000/svg">
<path opacity="0.3" d="M5.33333 4C2.9401 4 1 5.9401 1 8.33333C1 9.57589 1.84985 10.62 3 10.916V19C3 19.5523 3.44772 20 4 20H14C14.5523 20 15 19.5523 15 19V10.916C16.1502 10.62 17 9.57589 17 8.33333C17 5.9401 15.0599 4 12.6667 4H5.33333Z" fill="black"/>
<path d="M21.0011 10.9155C22.1504 10.6189 22.9994 9.57527 22.9994 8.33333C22.9994 5.9401 21.0593 4 18.666 4H12.668C15.0612 4 17.0013 5.9401 17.0013 8.33333C17.0013 9.57589 16.1515 10.62 15.0013 10.916V19C15.0013 19.5523 14.5536 20 14.0013 20H19.9994C20.5516 20 20.9993 19.5524 20.9994 19.0002L21.0011 10.9155Z" fill="black"/>
</svg>
