<svg width="24" height="24" viewBox="0 0 24 24" fill="none" xmlns="http://www.w3.org/2000/svg">
<g opacity="0.3">
<path fill-rule="evenodd" clip-rule="evenodd" d="M12 2C7.50536 2 3 5.2926 3 10C3 10.5523 3.44772 11 4 11H20C20.5523 11 21 10.5523 21 10C21 5.2926 16.4946 2 12 2ZM11.9922 4.5C11.4399 4.5 10.9922 4.94772 10.9922 5.5C10.9922 6.05228 11.4399 6.5 11.9922 6.5H12.0022C12.5545 6.5 13.0022 6.05228 13.0022 5.5C13.0022 4.94772 12.5545 4.5 12.0022 4.5H11.9922ZM7.48828 7C7.48828 6.44772 7.936 6 8.48828 6H8.49828C9.05057 6 9.49828 6.44772 9.49828 7C9.49828 7.55228 9.05057 8 8.49828 8H8.48828C7.936 8 7.48828 7.55228 7.48828 7ZM15.5 6C14.9477 6 14.5 6.44772 14.5 7C14.5 7.55228 14.9477 8 15.5 8H15.51C16.0623 8 16.51 7.55228 16.51 7C16.51 6.44772 16.0623 6 15.51 6H15.5Z" fill="black"/>
<path d="M3 17.6667C3 16.7462 3.74619 16 4.66667 16H19.3333C20.2538 16 21 16.7462 21 17.6667C21 20.0599 19.0599 22 16.6667 22H7.33333C4.9401 22 3 20.0599 3 17.6667Z" fill="black"/>
</g>
<path d="M3 12.5C2.44772 12.5 2 12.9477 2 13.5C2 14.0523 2.44772 14.5 3 14.5H21C21.5523 14.5 22 14.0523 22 13.5C22 12.9477 21.5523 12.5 21 12.5H3Z" fill="black"/>
<path d="M8.48828 6C7.936 6 7.48828 6.44772 7.48828 7C7.48828 7.55228 7.936 8 8.48828 8H8.49828C9.05057 8 9.49828 7.55228 9.49828 7C9.49828 6.44772 9.05057 6 8.49828 6H8.48828Z" fill="black"/>
<path d="M10.9922 5.5C10.9922 4.94772 11.4399 4.5 11.9922 4.5H12.0022C12.5545 4.5 13.0022 4.94772 13.0022 5.5C13.0022 6.05228 12.5545 6.5 12.0022 6.5H11.9922C11.4399 6.5 10.9922 6.05228 10.9922 5.5Z" fill="black"/>
<path d="M14.5 7C14.5 6.44772 14.9477 6 15.5 6H15.51C16.0623 6 16.51 6.44772 16.51 7C16.51 7.55228 16.0623 8 15.51 8H15.5C14.9477 8 14.5 7.55228 14.5 7Z" fill="black"/>
</svg>
