<svg width="24" height="24" viewBox="0 0 24 24" fill="none" xmlns="http://www.w3.org/2000/svg">
<path opacity="0.3" d="M22 10.9996C22 6.69271 18.5969 3.18111 14.3324 3.00644C13.918 2.98947 13.5321 3.11211 13.2174 3.31233L2.46312 10.156C2.17468 10.3395 2 10.6577 2 10.9996V11.9998L20 11.9996V20.8289C21.1652 20.4171 22 19.3059 22 17.9996V10.9996Z" fill="black"/>
<path d="M2 18C2 19.6569 3.34315 21 5 21H19C19.3506 21 19.6872 20.9398 20 20.8293V17.5H2V18Z" fill="black"/>
<path d="M2 12.0001L20 12V15.5H2V12.0001Z" fill="black"/>
</svg>
