<svg width="24" height="24" viewBox="0 0 24 24" fill="none" xmlns="http://www.w3.org/2000/svg">
<g opacity="0.3">
<path d="M7.97059 2.75746C7.8593 2.3123 7.45932 2 7.00045 2C6.54158 2 6.1416 2.3123 6.03031 2.75746L5.65157 4.27239C5.43219 5.14993 6.0959 6 7.00045 6C7.90499 6 8.56871 5.14993 8.34932 4.27239L7.97059 2.75746Z" fill="black"/>
<path d="M12.9706 2.75746C12.8593 2.3123 12.4593 2 12.0004 2C11.5416 2 11.1416 2.3123 11.0303 2.75746L10.6516 4.27239C10.4322 5.14994 11.0959 6 12.0004 6C12.905 6 13.5687 5.14993 13.3493 4.27239L12.9706 2.75746Z" fill="black"/>
<path d="M17.9706 2.75746C17.8593 2.3123 17.4593 2 17.0004 2C16.5416 2 16.1416 2.3123 16.0303 2.75746L15.6516 4.27239C15.4322 5.14994 16.0959 6 17.0004 6C17.905 6 18.5687 5.14993 18.3493 4.27239L17.9706 2.75746Z" fill="black"/>
<path d="M2 13C2 11.3431 3.34315 10 5 10H19C20.6569 10 22 11.3431 22 13V15.8146C21.6664 15.9444 21.3329 16 20.9994 16C19.9994 16 18.9994 15.5 17.9994 14C16.9994 15.5 15.9994 16 14.9994 16C13.9994 16 12.9994 15.5 11.9994 14C10.9994 15.5 9.99936 16 8.99936 16C7.99936 16 6.99937 15.5 5.99937 14C4.99937 15.5 3.99937 16 2.99937 16C2.66619 16 2.33308 15.9445 2 15.815V13Z" fill="black"/>
</g>
<path d="M3 22C2.44772 22 2 21.5523 2 21V15.815C2.33308 15.9445 2.66619 16 2.99937 16C3.99937 16 4.99937 15.5 5.99937 14C6.99937 15.5 7.99936 16 8.99936 16C9.99936 16 10.9994 15.5 11.9994 14C12.9994 15.5 13.9994 16 14.9994 16C15.9994 16 16.9994 15.5 17.9994 14C18.9994 15.5 19.9994 16 20.9994 16C21.3329 16 21.6664 15.9444 22 15.8146V21C22 21.5523 21.5523 22 21 22H3Z" fill="black"/>
<path d="M7 7C7.55228 7 8 7.44772 8 8V10H6V8C6 7.44772 6.44772 7 7 7Z" fill="black"/>
<path d="M13 8V10H11V8C11 7.44772 11.4477 7 12 7C12.5523 7 13 7.44772 13 8Z" fill="black"/>
<path d="M18 8V10H16V8C16 7.44772 16.4477 7 17 7C17.5523 7 18 7.44772 18 8Z" fill="black"/>
</svg>
