<svg width="24" height="24" viewBox="0 0 24 24" fill="none" xmlns="http://www.w3.org/2000/svg">
<path fill-rule="evenodd" clip-rule="evenodd" d="M4 5.5V18.5C4 19.2537 4.43048 19.8365 4.90494 20.2372C5.38405 20.6417 6.01803 20.961 6.71392 21.2095C8.1144 21.7097 9.98341 22 12 22C14.0166 22 15.8856 21.7097 17.2861 21.2095C17.982 20.961 18.616 20.6417 19.0951 20.2372C19.5695 19.8365 20 19.2537 20 18.5V5.5C20 6.25369 19.5695 6.83654 19.0951 7.23717C18.616 7.64171 17.982 7.96098 17.2861 8.20951C15.8856 8.70968 14.0166 9 12 9C9.98341 9 8.1144 8.70968 6.71392 8.20951C6.01803 7.96098 5.38405 7.64171 4.90494 7.23717C4.43048 6.83654 4 6.25369 4 5.5ZM6 18.486V13.4172C6.83966 13.8115 7.91131 14.1073 9.10487 14.2891C9.0365 14.0377 9 13.7731 9 13.5C9 11.8431 10.3431 10.5 12 10.5C13.6569 10.5 15 11.8431 15 13.5C15 13.7731 14.9635 14.0377 14.8951 14.2891C16.0887 14.1073 17.1603 13.8115 18 13.4172V18.486C17.9909 18.5096 17.9514 18.5852 17.8048 18.7091C17.5754 18.9027 17.1843 19.1221 16.6134 19.326C15.4804 19.7307 13.8494 20 12 20C10.1506 20 8.5196 19.7307 7.38659 19.326C6.81573 19.1221 6.42458 18.9027 6.19525 18.7091C6.04856 18.5852 6.00906 18.5096 6 18.486Z" fill="black"/>
<g opacity="0.3">
<path d="M12 2C9.98341 2 8.1144 2.29032 6.71392 2.79049C6.01803 3.03902 5.38405 3.35829 4.90494 3.76283C4.43048 4.16346 4 4.74631 4 5.5C4 6.25369 4.43048 6.83654 4.90494 7.23717C5.38405 7.64171 6.01803 7.96098 6.71392 8.20951C8.1144 8.70968 9.98341 9 12 9C14.0166 9 15.8856 8.70968 17.2861 8.20951C17.982 7.96098 18.616 7.64171 19.0951 7.23717C19.5695 6.83654 20 6.25369 20 5.5C20 4.74631 19.5695 4.16346 19.0951 3.76283C18.616 3.35829 17.982 3.03902 17.2861 2.79049C15.8856 2.29032 14.0166 2 12 2Z" fill="black"/>
<path d="M15 13.5C15 15.1569 13.6569 16.5 12 16.5C10.3431 16.5 9 15.1569 9 13.5C9 11.8431 10.3431 10.5 12 10.5C13.6569 10.5 15 11.8431 15 13.5Z" fill="black"/>
</g>
</svg>
