<svg width="24" height="24" viewBox="0 0 24 24" fill="none" xmlns="http://www.w3.org/2000/svg">
<path opacity="0.3" d="M13.5 20H19C20.6569 20 22 18.6569 22 17V7C22 5.34315 20.6569 4 19 4H13.5V20Z" fill="black"/>
<path d="M9 4H13.5V9.5H8.5V4.13378C8.64709 4.0487 8.81786 4 9 4Z" fill="black"/>
<path d="M8.5 10.5H13.5V14H8.5V10.5Z" fill="black"/>
<path d="M7.5 14V10.5H2.13378C2.0487 10.6471 2 10.8179 2 11V14H7.5Z" fill="black"/>
<path d="M2 15H7.5V20H5C3.34315 20 2 18.6569 2 17V15Z" fill="black"/>
<path d="M8.5 15H13.5V20H8.5V15Z" fill="black"/>
<path d="M6 7C6.59735 7 7.13353 6.73812 7.5 6.32291V9.5H4.32291C4.73812 9.13353 5 8.59735 5 8C5 7.44772 5.44772 7 6 7Z" fill="black"/>
</svg>
