<svg width="24" height="24" viewBox="0 0 24 24" fill="none" xmlns="http://www.w3.org/2000/svg">
<path opacity="0.3" fill-rule="evenodd" clip-rule="evenodd" d="M2 12H12C12 12.5523 12.4477 13 13 13H13.01C13.5623 13 14.01 12.5523 14.01 12H22V18C22 19.6569 20.6569 21 19 21H5C3.34315 21 2 19.6569 2 18V12ZM16 16C16 15.4477 16.4477 15 17 15H17.01C17.5623 15 18.01 15.4477 18.01 16C18.01 16.5523 17.5623 17 17.01 17H17C16.4477 17 16 16.5523 16 16ZM10 16C9.44772 16 9 16.4477 9 17C9 17.5523 9.44772 18 10 18H10.01C10.5623 18 11.01 17.5523 11.01 17C11.01 16.4477 10.5623 16 10.01 16H10ZM6 13C5.44772 13 5 13.4477 5 14C5 14.5523 5.44772 15 6 15H6.01C6.56228 15 7.01 14.5523 7.01 14C7.01 13.4477 6.56228 13 6.01 13H6Z" fill="black"/>
<path fill-rule="evenodd" clip-rule="evenodd" d="M13.2174 3.31281C13.5321 3.11259 13.918 2.98996 14.3324 3.00693C18.5969 3.1816 22 6.6932 22 11.0001V12.0001H14.01C14.01 11.4478 13.5623 11.0001 13.01 11.0001H13C12.4477 11.0001 12 11.4478 12 12.0001H2V11.0001C2 10.6582 2.17468 10.34 2.46312 10.1565L13.2174 3.31281ZM10 8.00012C10 7.44784 10.4477 7.00012 11 7.00012H11.01C11.5623 7.00012 12.01 7.44784 12.01 8.00012C12.01 8.55241 11.5623 9.00012 11.01 9.00012H11C10.4477 9.00012 10 8.55241 10 8.00012ZM17 6.00012C16.4477 6.00012 16 6.44784 16 7.00012C16 7.55241 16.4477 8.00012 17 8.00012H17.01C17.5623 8.00012 18.01 7.55241 18.01 7.00012C18.01 6.44784 17.5623 6.00012 17.01 6.00012H17Z" fill="black"/>
</svg>
