<svg width="24" height="24" viewBox="0 0 24 24" fill="none" xmlns="http://www.w3.org/2000/svg">
<path opacity="0.3" fill-rule="evenodd" clip-rule="evenodd" d="M8.34741 3.86194C8.80007 2.67055 10.1416 2.08172 11.3249 2.55504C12.5632 3.05033 13.1137 4.49818 12.5172 5.69102L4.79849 21.1284C4.48446 21.7564 3.7564 22.058 3.09025 21.8359C2.32926 21.5823 1.93254 20.7461 2.21744 19.9962L8.34741 3.86194Z" fill="black"/>
<path d="M20.8718 4.4572C19.822 3.4074 18.0701 3.59971 17.273 4.85225L7.81552 19.714C7.47121 20.255 7.54886 20.9626 8.0023 21.4161C8.57897 21.9929 9.52895 21.9403 10.0385 21.3035L21.043 7.54788C21.7817 6.6245 21.708 5.29335 20.8718 4.4572Z" fill="black"/>
</svg>
