<svg width="24" height="24" viewBox="0 0 24 24" fill="none" xmlns="http://www.w3.org/2000/svg">
<path opacity="0.3" d="M15 2C7.8203 2 2 7.8203 2 15C2 18.866 5.13401 22 9 22C16.1797 22 22 16.1797 22 9C22 5.13401 18.866 2 15 2Z" fill="black"/>
<path d="M3.52344 19.3591L5.98019 15.2612C7.16985 13.2766 8.95504 11.7177 11.0818 10.8062L12.5348 10.1835C14.0494 9.53439 15.3567 8.48192 16.3142 7.14083L19.0594 3.2959C19.6108 3.68898 20.1028 4.16002 20.5193 4.69295L17.9419 8.30296C16.7716 9.94207 15.1738 11.2284 13.3227 12.0218L11.8696 12.6445C10.1295 13.3903 8.66895 14.6657 7.69559 16.2895L5.01739 20.7568C4.45368 20.366 3.95013 19.8945 3.52344 19.3591Z" fill="black"/>
</svg>
