<svg width="24" height="24" viewBox="0 0 24 24" fill="none" xmlns="http://www.w3.org/2000/svg">
<g opacity="0.3">
<path d="M15.0839 2.0027C19 1.89545 22.1046 5.00002 21.9973 8.91611C21.937 11.1182 20.1182 12.937 17.9161 12.9973C14 13.1046 10.8954 10 11.0027 6.08391C11.0263 5.22132 11.3198 4.41755 11.8004 3.75524L14.125 5.38318C14.7824 5.84352 15.2911 6.48282 15.5956 7.23292L15.8896 7.95715C16.3222 9.02291 17.0888 9.90794 18.08 10.4844L20.5739 11.9349C20.8287 11.7086 21.0564 11.4523 21.2511 11.1719L18.5828 9.61999C17.784 9.1554 17.1659 8.44258 16.8162 7.58101L16.5222 6.85678C16.1456 5.9293 15.5149 5.1357 14.6986 4.56406L12.4848 3.01372C13.1929 2.40751 14.1002 2.02964 15.0839 2.0027Z" fill="black"/>
<path d="M6.68459 9.96305C7.83624 9.87322 9.01982 10.2475 9.9054 11.0859C12.7503 13.7791 12.7503 18.1696 9.9054 20.8629C9.23051 21.5018 8.38254 21.8712 7.50752 21.971C7.5694 21.964 7.63114 21.9555 7.69269 21.9458L7.19981 19.1497C7.06049 18.3594 7.15282 17.5476 7.4679 16.8019L7.77212 16.0819C8.2198 15.0223 8.30354 13.8545 8.01031 12.746L7.50145 10.8223C7.49794 10.8091 7.49393 10.7961 7.48945 10.7833L7.27096 9.95739C7.07566 9.94596 6.87967 9.94785 6.68459 9.96305Z" fill="black"/>
<path d="M6.25282 10.0189C5.47773 10.1594 4.73665 10.5151 4.1337 11.0859C1.28877 13.7791 1.28877 18.1696 4.1337 20.8629C4.8478 21.5389 5.75567 21.9132 6.68431 21.9857L6.21499 19.3233C6.04199 18.3419 6.15716 17.3347 6.54675 16.4127L6.85097 15.6927C7.21288 14.8361 7.27988 13.895 7.04356 13.0017L6.545 11.117C6.54052 11.1043 6.53651 11.0913 6.533 11.078L6.25282 10.0189Z" fill="black"/>
</g>
<path d="M21.2511 11.172L18.5828 9.62005C17.784 9.15546 17.1659 8.44264 16.8162 7.58107L16.5222 6.85684C16.1456 5.92936 15.5149 5.13576 14.6986 4.56412L12.4846 3.01367C12.2285 3.2329 11.9984 3.482 11.8002 3.75517L14.125 5.38324C14.7824 5.84358 15.2911 6.48288 15.5956 7.23298L15.8896 7.95721C16.3222 9.02297 17.0888 9.908 18.08 10.4845L20.5739 11.935C20.8287 11.7087 21.0564 11.4524 21.2511 11.172Z" fill="black"/>
<path d="M6.68432 21.9858L6.21499 19.3233C6.04199 18.3419 6.15716 17.3348 6.54675 16.4127L6.85097 15.6927C7.21288 14.8362 7.27988 13.8951 7.04356 13.0018L6.545 11.1171C6.54052 11.1043 6.53651 11.0913 6.533 11.0781L6.25281 10.0189C6.58864 9.95803 6.93084 9.93755 7.27096 9.95745L7.48945 10.7834C7.49393 10.7961 7.49794 10.8091 7.50145 10.8224L8.01031 12.746C8.30354 13.8545 8.2198 15.0224 7.77212 16.0819L7.4679 16.8019C7.15282 17.5476 7.06049 18.3594 7.19981 19.1497L7.69269 21.9458C7.35932 21.9987 7.02046 22.012 6.68432 21.9858Z" fill="black"/>
</svg>
