<svg width="24" height="24" viewBox="0 0 24 24" fill="none" xmlns="http://www.w3.org/2000/svg">
<path d="M19.7631 13C19.9181 13.4803 20 13.9839 20 14.5C20 16.3053 18.9982 17.9567 17.366 19H9.634C8.00175 17.9567 7 16.3053 7 14.5C7 13.9839 7.08187 13.4803 7.23695 13H19.7631Z" fill="black"/>
<path d="M8.84775 8.13689C9.00095 8.04725 9.17525 8 9.35276 8H17.6472C17.8247 8 17.999 8.04725 18.1523 8.13689C18.4177 8.29222 18.6736 8.46086 18.9185 8.6422L20.9046 4.42617C21.0506 4.1164 21.0279 3.75351 20.8444 3.46436C20.661 3.1752 20.3424 3 20 3H6C3.79086 3 2 4.79086 2 7V9C2 9.55228 2.44772 10 3 10C3.55228 10 4 9.55228 4 9V7C4 5.89543 4.89543 5 6 5H6.36506L8.07811 8.64471L8.0815 8.64238C8.32639 8.46104 8.58226 8.29222 8.84775 8.13689Z" fill="black"/>
<path opacity="0.3" fill-rule="evenodd" clip-rule="evenodd" d="M8.84775 8.13689C9.00095 8.04725 9.17525 8 9.35276 8H17.6472C17.8247 8 17.999 8.04725 18.1523 8.13689C20.43 9.4696 22 11.7951 22 14.5C22 17.2049 20.43 19.5304 18.1523 20.8631C17.999 20.9528 17.8247 21 17.6472 21H9.35276C9.17525 21 9.00095 20.9528 8.84775 20.8631C6.56999 19.5304 5 17.2049 5 14.5C5 11.7951 6.56999 9.4696 8.84775 8.13689ZM9.634 10C8.00175 11.0433 7 12.6947 7 14.5C7 16.3053 8.00175 17.9567 9.634 19H17.366C18.9982 17.9567 20 16.3053 20 14.5C20 12.6947 18.9982 11.0433 17.366 10H9.634Z" fill="black"/>
</svg>
