<svg width="24" height="24" viewBox="0 0 24 24" fill="none" xmlns="http://www.w3.org/2000/svg">
<path d="M2.09021 11.9678C2.03071 12.398 2 12.837 2 13.2827C2 15.5628 2.80301 17.6584 4.14112 19.3009C4.48119 19.7183 5.0907 19.7915 5.51998 19.4666L10.4523 15.7324C10.3804 15.7057 10.309 15.6765 10.2383 15.6448L2.34577 12.1054C2.25632 12.0652 2.17102 12.0192 2.09021 11.9678Z" fill="black"/>
<path d="M19.4657 5.5197C19.7904 5.09041 19.7171 4.4811 19.2998 4.14112C17.6573 2.803 15.5617 2 13.2816 2C12.8362 2 12.3976 2.03066 11.9677 2.09007C12.0191 2.17092 12.0652 2.25626 12.1054 2.34576L15.6448 10.2383C15.6764 10.3086 15.7054 10.3796 15.732 10.4512L19.4657 5.5197Z" fill="black"/>
<g opacity="0.3">
<path d="M14.9449 11.4917C14.9956 12.2015 14.7416 12.9155 14.2189 13.4382L13.4381 14.219C12.9157 14.7414 12.2022 14.9954 11.4928 14.945C11.2061 14.9246 10.92 14.8545 10.6475 14.7323L2.75496 11.1929C2.33132 11.0029 2.09416 10.5463 2.18235 10.0905C2.95476 6.09825 6.09827 2.95476 10.0905 2.18235C10.2329 2.15481 10.3753 2.159 10.5096 2.19068C10.5366 2.19705 10.5633 2.20452 10.5896 2.21307C10.6705 2.23942 10.7478 2.27599 10.8193 2.32177C10.9792 2.42397 11.1109 2.57209 11.1929 2.75495L14.7324 10.6475C14.8544 10.9196 14.9244 11.2054 14.9449 11.4917Z" fill="black"/>
<path d="M10.9551 22C11.2675 22 11.562 21.854 11.7511 21.6054C11.9402 21.3567 12.0022 21.0339 11.9188 20.7329C11.7139 19.9938 11.4115 18.8071 11.1735 17.6623C11.0966 17.2924 11.0274 16.9313 10.9705 16.5943L6.45841 20.01C7.56739 21.2323 9.17147 22 10.9551 22Z" fill="black"/>
<path d="M17.6611 11.172C18.8059 11.41 19.9926 11.7124 20.7317 11.9173C21.0327 12.0007 21.3555 11.9387 21.6041 11.7496C21.8528 11.5605 21.9988 11.266 21.9988 10.9536C21.9988 9.17028 21.2314 7.56647 20.0095 6.45751L16.5941 10.9692C16.9308 11.026 17.2915 11.0952 17.6611 11.172Z" fill="black"/>
</g>
</svg>
