<svg width="24" height="24" viewBox="0 0 24 24" fill="none" xmlns="http://www.w3.org/2000/svg">
<g opacity="0.3">
<path d="M10 2C9.44772 2 9 2.44772 9 3V7C9 7.55228 9.44772 8 10 8H14C14.5523 8 15 7.55228 15 7V3C15 2.44772 14.5523 2 14 2H10Z" fill="black"/>
<path d="M14 9C13.4477 9 13 9.44772 13 10V14C13 14.5523 13.4477 15 14 15H18C18.5523 15 19 14.5523 19 14V10C19 9.44772 18.5523 9 18 9H14Z" fill="black"/>
<path d="M10 16C9.44772 16 9 16.4477 9 17V21C9 21.5523 9.44772 22 10 22H14C14.5523 22 15 21.5523 15 21V17C15 16.4477 14.5523 16 14 16H10Z" fill="black"/>
</g>
<path d="M4.96492 11.293C4.57439 11.6835 4.57439 12.3166 4.96492 12.7072L7.79335 15.5356C8.18387 15.9261 8.81704 15.9261 9.20756 15.5356L12.036 12.7072C12.4265 12.3166 12.4265 11.6835 12.036 11.293L9.20756 8.46452C8.81704 8.074 8.18387 8.074 7.79335 8.46452L4.96492 11.293Z" fill="black"/>
<path d="M3 16.0001C2.44772 16.0001 2 16.4478 2 17.0001V21.0001C2 21.5523 2.44772 22.0001 3 22.0001H7C7.55228 22.0001 8 21.5523 8 21.0001V17.0001C8 16.4478 7.55228 16.0001 7 16.0001H3Z" fill="black"/>
<path d="M17 16.0001C16.4477 16.0001 16 16.4478 16 17.0001V21.0001C16 21.5523 16.4477 22.0001 17 22.0001H21C21.5523 22.0001 22 21.5523 22 21.0001V17.0001C22 16.4478 21.5523 16.0001 21 16.0001H17Z" fill="black"/>
</svg>
