<svg width="24" height="24" viewBox="0 0 24 24" fill="none" xmlns="http://www.w3.org/2000/svg">
<g opacity="0.3">
<path d="M6.14113 17.7026L5.10156 8H18.8987L18.4404 12.2772L15.1093 13.0915C13.8752 13.3932 12.7992 14.1472 12.0945 15.2043C11.5157 16.0725 10.6256 16.6852 9.60804 16.916L6.97859 17.5124L6.96262 17.5163L6.14113 17.7026Z" fill="black"/>
<path d="M6.24839 18.7037L6.31438 19.3196C6.47771 20.844 7.76416 22 9.2973 22H14.703C16.2361 22 17.5226 20.844 17.6859 19.3196L18.3272 13.3344L15.3468 14.0629C14.356 14.3051 13.4923 14.9104 12.9265 15.759C12.2056 16.8405 11.0968 17.6038 9.82923 17.8913L7.21695 18.4837L7.20098 18.4876L6.24839 18.7037Z" fill="black"/>
</g>
<path d="M11.8405 3.51493C12.0631 2.6246 12.863 2 13.7808 2H15C15.5523 2 16 2.44772 16 3C16 3.55228 15.5523 4 15 4L13.7808 4L13.2808 6H19C19.5523 6 20 6.44772 20 7C20 7.55228 19.5523 8 19 8H5C4.44772 8 4 7.55228 4 7C4 6.44772 4.44772 6 5 6H11.2192L11.8405 3.51493Z" fill="black"/>
</svg>
