<svg width="24" height="24" viewBox="0 0 24 24" fill="none" xmlns="http://www.w3.org/2000/svg">
<path opacity="0.3" d="M5.10156 8L6.31438 19.3196C6.47771 20.844 7.76416 22 9.2973 22H14.703C16.2361 22 17.5226 20.844 17.6859 19.3196L18.8987 8H5.10156Z" fill="black"/>
<path d="M11.8405 3.51493C12.0631 2.6246 12.863 2 13.7808 2H15C15.5523 2 16 2.44772 16 3C16 3.55228 15.5523 4 15 4L13.7808 4L13.2808 6H19C19.5523 6 20 6.44772 20 7C20 7.55228 19.5523 8 19 8H5C4.44772 8 4 7.55228 4 7C4 6.44772 4.44772 6 5 6H11.2192L11.8405 3.51493Z" fill="black"/>
</svg>
