<svg width="24" height="24" viewBox="0 0 24 24" fill="none" xmlns="http://www.w3.org/2000/svg">
<path opacity="0.3" d="M19.8413 7H4.15625L4.93105 11.5H19.0653L18.0323 17.5H5.96411L6.29077 19.3973C6.48946 20.886 7.75984 22 9.26435 22H14.7332C16.2377 22 17.5081 20.886 17.7068 19.3973L19.8413 7Z" fill="black"/>
<path d="M6 2C5.56957 2 5.18743 2.27543 5.05132 2.68377L4.27924 5H4C3.44772 5 3 5.44772 3 6C3 6.55228 3.44772 7 4 7H20C20.5523 7 21 6.55228 21 6C21 5.44772 20.5523 5 20 5H19.7208L18.9487 2.68377C18.8126 2.27543 18.4304 2 18 2H6Z" fill="black"/>
<path d="M18.0335 17.5H5.96411L4.93105 11.5H19.0665L18.0335 17.5Z" fill="black"/>
</svg>
