<svg width="24" height="24" viewBox="0 0 24 24" fill="none" xmlns="http://www.w3.org/2000/svg">
<path opacity="0.3" d="M12.5 2C11.9477 2 11.5 2.44772 11.5 3C11.5 3.55228 11.9477 4 12.5 4H9.5C7.90708 4 6.56447 5.06325 6.13982 6.51831C4.37604 6.69862 3 8.18861 3 10C3 10.6899 3.20062 11.336 3.54707 11.8795C4.16675 12.8516 5.25732 13.5 6.5 13.5H17.5C18.7427 13.5 19.8332 12.8516 20.4529 11.8795C20.7994 11.336 21 10.6899 21 10C21 8.20692 19.6516 6.72877 17.9135 6.52418C17.4525 3.95171 15.2048 2 12.5 2Z" fill="black"/>
<path d="M5.00001 13.5C4.70606 13.5 4.42699 13.6293 4.23699 13.8536C4.04698 14.0779 3.96529 14.3744 4.01361 14.6644L4.73508 19.4932C4.97617 20.9398 6.22774 22 7.69426 22H9.58161L8.95661 13.5H5.00001Z" fill="black"/>
<path d="M9.96007 13.5L10.5851 22H13.4149L14.0399 13.5H9.96007Z" fill="black"/>
<path d="M15.0434 13.5L14.4184 22H16.3058C17.7723 22 19.0238 20.9398 19.2649 19.4932L19.9864 14.6644C20.0347 14.3744 19.953 14.0779 19.763 13.8536C19.573 13.6293 19.294 13.5 19 13.5H15.0434Z" fill="black"/>
</svg>
