<svg width="24" height="24" viewBox="0 0 24 24" fill="none" xmlns="http://www.w3.org/2000/svg">
<path opacity="0.3" d="M4.9 10.846L5.69113 10.543C5.69888 10.5395 5.70676 10.5363 5.71477 10.5332L6.69234 10.1588C7.8663 9.70924 9.18007 9.8102 10.2715 10.4339L10.4947 10.5614C11.4077 11.0831 12.5372 11.0442 13.4122 10.4609C14.37 9.8224 15.5667 9.65559 16.6625 10.0078L19.0896 10.788L19.0795 10.7427C19.0884 10.7759 19.0956 10.8096 19.101 10.8438L20.2469 16.0001H3.75391L4.9 10.846Z" fill="black"/>
<path d="M21 17C21.5523 17 22 17.4477 22 18C22 18.5523 21.5523 19 21 19H3C2.44772 19 2 18.5523 2 18C2 17.4477 2.44772 17 3 17H21Z" fill="black"/>
<path d="M5.67421 7.34921C5.97923 5.9766 7.19668 5 8.60277 5H15.3941C16.8002 5 18.0176 5.9766 18.3226 7.34921L19.088 10.7878L16.661 10.0077C15.5651 9.65547 14.3684 9.82228 13.4106 10.4608C12.5356 11.0441 11.4062 11.083 10.4931 10.5613L10.27 10.4338C9.1785 9.81008 7.86474 9.70912 6.69077 10.1587L5.71321 10.5331C5.7052 10.5362 5.69732 10.5394 5.68956 10.5429L4.89844 10.8458L5.67421 7.34921Z" fill="black"/>
</svg>
