<svg width="24" height="24" viewBox="0 0 24 24" fill="none" xmlns="http://www.w3.org/2000/svg">
<path opacity="0.3" d="M15.1217 2C11.2076 2 8 5.11502 8 8.99976V12.9996C8 14.6752 9.38044 15.9994 11.0406 15.9995L15.1216 16C15.5023 16 15.85 15.7839 16.0185 15.4425C16.187 15.1012 16.147 14.6937 15.9154 14.3916C15.4028 13.723 15.1015 12.8962 15.1015 11.9996C15.1015 9.80949 16.9187 7.99984 19.2029 7.99984C19.7158 7.99984 20.2043 8.09121 20.6538 8.25706C21.009 8.3881 21.4077 8.30736 21.6839 8.04846C21.9601 7.78955 22.0664 7.39689 21.9586 7.03401C21.091 4.11472 18.3503 2 15.1217 2Z" fill="black"/>
<path d="M11.4502 15.9997L11.0406 15.9997C9.38044 15.9996 8 14.6754 8 12.9997V12.5859L6.29351 14.2924C5.17838 13.7597 3.80232 13.9552 2.87868 14.8788C1.70711 16.0504 1.70711 17.9499 2.87868 19.1215C3.24004 19.4828 3.67144 19.7328 4.12889 19.8713C4.26734 20.3287 4.51732 20.7601 4.87868 21.1215C6.05025 22.293 7.94975 22.293 9.12132 21.1215C10.0433 20.1995 10.2397 18.8268 9.71064 17.7128L11.4502 15.9997Z" fill="black"/>
</svg>
