<svg width="24" height="24" viewBox="0 0 24 24" fill="none" xmlns="http://www.w3.org/2000/svg">
<path opacity="0.3" d="M15 2C11.134 2 8 5.13401 8 9V13C8 14.6569 9.34315 16 11 16H15C18.866 16 22 12.866 22 9C22 5.13401 18.866 2 15 2Z" fill="black"/>
<path d="M8 12.5859V13.0002C8 14.657 9.34315 16.0002 11 16.0002H11.4142L9.70772 17.7066C10.2404 18.8218 10.045 20.1978 9.12132 21.1215C7.94975 22.293 6.05025 22.293 4.87868 21.1215C4.51732 20.7601 4.26734 20.3287 4.12888 19.8713C3.67144 19.7328 3.24004 19.4828 2.87868 19.1215C1.70711 17.9499 1.70711 16.0504 2.87868 14.8788C3.80232 13.9552 5.17838 13.7597 6.29351 14.2924L8 12.5859Z" fill="black"/>
</svg>
