<svg width="24" height="24" viewBox="0 0 24 24" fill="none" xmlns="http://www.w3.org/2000/svg">
<path opacity="0.3" fill-rule="evenodd" clip-rule="evenodd" d="M8 1C5.23858 1 3 3.23858 3 6C3 6.80633 3.13606 7.6388 3.25591 8.37203C3.28572 8.55442 3.31453 8.73068 3.33999 8.89886C3.4766 9.80129 3.53603 10.5524 3.37811 11.24L3.31795 11.5019C3.24101 11.8369 3.11471 12.1763 2.95411 12.554C2.90018 12.6808 2.83544 12.8271 2.76711 12.9814C2.6543 13.2363 2.5317 13.5132 2.4319 13.7612C2.153 14.4543 2 15.2105 2 16C2 19.3137 4.68629 22 8 22C9.96366 22 11.7067 21.0555 12.7995 19.6006C13.555 18.5934 14.741 18 16 18C19.3137 18 22 15.3137 22 12C22 9.06375 19.8918 6.62202 17.1069 6.10207C16.8364 6.05158 16.6041 6.01593 16.3915 5.98332C16.028 5.92755 15.7223 5.88063 15.3822 5.78346L15.1062 5.7046C13.8641 5.34973 12.8111 4.5212 12.1741 3.39747C11.9567 3.01409 11.6561 2.53779 11.1981 2.15638C10.3316 1.43485 9.21529 1 8 1ZM10.5 16C12.7091 16 14.5 14.2091 14.5 12C14.5 9.79086 12.7091 8 10.5 8C8.29086 8 6.5 9.79086 6.5 12C6.5 14.2091 8.29086 16 10.5 16Z" fill="black"/>
<path fill-rule="evenodd" clip-rule="evenodd" d="M14.5 12C14.5 14.2091 12.7091 16 10.5 16C8.29086 16 6.5 14.2091 6.5 12C6.5 9.79086 8.29086 8 10.5 8C12.7091 8 14.5 9.79086 14.5 12ZM11.4405 10.6595C11.6286 11.1788 11.3601 11.7522 10.8408 11.9403C10.6413 12.0125 10.5898 12.0605 10.5753 12.075C10.5607 12.0896 10.5127 12.1411 10.4405 12.3405C10.2525 12.8598 9.67906 13.1283 9.15978 12.9403C8.64049 12.7522 8.37198 12.1788 8.56003 11.6595C8.68781 11.3067 8.86367 10.9582 9.16106 10.6608C9.45845 10.3634 9.80691 10.1876 10.1598 10.0598C10.6791 9.87173 11.2525 10.1403 11.4405 10.6595Z" fill="black"/>
</svg>
