<svg width="24" height="24" viewBox="0 0 24 24" fill="none" xmlns="http://www.w3.org/2000/svg">
<path opacity="0.3" fill-rule="evenodd" clip-rule="evenodd" d="M6.62044 6.02775C7.90349 4.05248 9.78115 3 12.0025 3C14.2239 3 16.1016 4.05248 17.3846 6.02775C17.4719 6.16206 17.527 6.25768 17.5859 6.36002L17.6189 6.41713C18.6208 8.14727 18.9756 9.31073 19.3292 11.2213L19.3528 11.3484C19.428 11.7511 19.4867 12.0662 19.5193 12.5672C19.5997 13.8037 19.5651 14.9831 19.2367 16.0937C18.9018 17.2266 18.2779 18.2329 17.2679 19.1471C15.8415 20.4381 14.0944 21.0007 11.9997 21C9.90728 20.9993 8.16351 20.438 6.73716 19.1471C5.72715 18.2329 5.1033 17.2266 4.76836 16.0937C4.44002 14.9831 4.40541 13.8037 4.48578 12.5672C4.51835 12.0662 4.57712 11.7511 4.65227 11.3484L4.67591 11.2213C5.02948 9.31072 5.38423 8.14727 6.38621 6.41713L6.41917 6.36001C6.47813 6.25767 6.5332 6.16207 6.62044 6.02775ZM10.8944 8.44721C11.1414 7.95324 10.9412 7.35256 10.4472 7.10557C9.95324 6.85858 9.35256 7.05881 9.10557 7.55279L8.95016 7.86362C8.32531 9.11332 8 10.4913 8 11.8885V12.5C8 13.0523 8.44772 13.5 9 13.5C9.55228 13.5 10 13.0523 10 12.5V11.8885C10 10.8018 10.253 9.73004 10.739 8.75805L10.8944 8.44721Z" fill="black"/>
<path fill-rule="evenodd" clip-rule="evenodd" d="M10.4472 7.10579C10.9412 7.35278 11.1414 7.95345 10.8944 8.44743L10.739 8.75827C10.253 9.73026 10 10.802 10 11.8888V12.5002C10 13.0525 9.55228 13.5002 9 13.5002C8.44772 13.5002 8 13.0525 8 12.5002V11.8888C8 10.4916 8.32531 9.11354 8.95016 7.86384L9.10557 7.55301C9.35256 7.05903 9.95324 6.8588 10.4472 7.10579Z" fill="black"/>
</svg>
