<svg width="24" height="24" viewBox="0 0 24 24" fill="none" xmlns="http://www.w3.org/2000/svg">
<path opacity="0.3" fill-rule="evenodd" clip-rule="evenodd" d="M12 2C6.47715 2 2 6.47715 2 12C2 17.5228 6.47715 22 12 22C17.5228 22 22 17.5228 22 12C22 6.47715 17.5228 2 12 2ZM16.2071 7.79289C16.5976 8.18342 16.5976 8.81658 16.2071 9.20711L9.20711 16.2071C8.81658 16.5976 8.18342 16.5976 7.79289 16.2071C7.40237 15.8166 7.40237 15.1834 7.79289 14.7929L14.7929 7.79289C15.1834 7.40237 15.8166 7.40237 16.2071 7.79289ZM12.2071 8.20711C12.5976 7.81658 12.5976 7.18342 12.2071 6.79289C11.8166 6.40237 11.1834 6.40237 10.7929 6.79289L6.79289 10.7929C6.40237 11.1834 6.40237 11.8166 6.79289 12.2071C7.18342 12.5976 7.81658 12.5976 8.20711 12.2071L12.2071 8.20711ZM17.2071 13.2071C17.5976 12.8166 17.5976 12.1834 17.2071 11.7929C16.8166 11.4024 16.1834 11.4024 15.7929 11.7929L11.7929 15.7929C11.4024 16.1834 11.4024 16.8166 11.7929 17.2071C12.1834 17.5976 12.8166 17.5976 13.2071 17.2071L17.2071 13.2071Z" fill="black"/>
<path d="M17.2071 11.7929C17.5976 12.1834 17.5976 12.8166 17.2071 13.2071L13.2071 17.2071C12.8166 17.5976 12.1834 17.5976 11.7929 17.2071C11.4024 16.8166 11.4024 16.1834 11.7929 15.7929L15.7929 11.7929C16.1834 11.4024 16.8166 11.4024 17.2071 11.7929Z" fill="black"/>
<path d="M16.2071 9.20711C16.5976 8.81658 16.5976 8.18342 16.2071 7.79289C15.8166 7.40237 15.1834 7.40237 14.7929 7.79289L7.79289 14.7929C7.40237 15.1834 7.40237 15.8166 7.79289 16.2071C8.18342 16.5976 8.81658 16.5976 9.20711 16.2071L16.2071 9.20711Z" fill="black"/>
<path d="M12.2071 6.79289C12.5976 7.18342 12.5976 7.81658 12.2071 8.20711L8.20711 12.2071C7.81658 12.5976 7.18342 12.5976 6.79289 12.2071C6.40237 11.8166 6.40237 11.1834 6.79289 10.7929L10.7929 6.79289C11.1834 6.40237 11.8166 6.40237 12.2071 6.79289Z" fill="black"/>
</svg>
