<svg width="24" height="24" viewBox="0 0 24 24" fill="none" xmlns="http://www.w3.org/2000/svg">
<path opacity="0.3" d="M8 10V12C8 12.5523 8.44772 13 9 13C9.55228 13 10 12.5523 10 12V10.0002H12.5857H15.414H21C21.5523 10.0002 22 10.4479 22 11.0002C22 11.5525 21.5523 12.0002 21 12.0002H20V14.5002C20 16.2772 19.2275 17.8738 18 18.9724V21.0002C18 21.5525 17.5523 22.0002 17 22.0002C16.4477 22.0002 16 21.5525 16 21.0002V20.1588C15.3744 20.3799 14.7013 20.5002 14 20.5002H8C7.29873 20.5002 6.62556 20.3799 6 20.1588V21.0002C6 21.5525 5.55228 22.0002 5 22.0002C4.44772 22.0002 4 21.5525 4 21.0002V18.9724C2.7725 17.8738 2 16.2772 2 14.5002V11.0002C2 10.4479 2.44772 10.0002 3 10.0002H5V13.0001C5 13.5524 5.44772 14.0001 6 14.0001C6.55228 14.0001 7 13.5524 7 13.0001V10.0002L8 10Z" fill="black"/>
<path d="M10.9927 2.40249C9.76986 1.95743 8.69356 2.87157 8.34372 3.83276L7.48867 6.18199C7.24302 6.8569 7.28665 7.74427 7.75775 8.36705L7.16384 10.0002L8 9.99995V12C8 12.5522 8.44772 13 9 13C9.55228 13 10 12.5522 10 12V10.0002L9.29207 9.99995L9.63722 9.05086C10.3982 8.87645 11.0018 8.22486 11.2474 7.55007L12.1025 5.20084C12.4523 4.23965 12.2154 2.84755 10.9927 2.40249Z" fill="black"/>
<path d="M5 10.0002V13C5 13.5523 5.44772 14 6 14C6.55228 14 7 13.5523 7 13V10.0002H5Z" fill="black"/>
<path d="M15.5507 7.03485L12.5857 10.0002H15.414L16.962 8.45196C17.7265 8.61749 18.5509 8.28177 19.0595 7.77314L20.8273 6.00537C21.5506 5.28209 21.9242 3.9203 21.0041 3.00017C20.0839 2.08003 18.7221 2.45366 17.9989 3.17694L16.2311 4.94471C15.7241 5.4517 15.3889 6.27242 15.5507 7.03485Z" fill="black"/>
</svg>
