<svg width="24" height="24" viewBox="0 0 24 24" fill="none" xmlns="http://www.w3.org/2000/svg">
<path opacity="0.3" fill-rule="evenodd" clip-rule="evenodd" d="M4.25488 2.33308C4.44458 2.12113 4.71556 2 5 2H19C19.2844 2 19.5554 2.12113 19.7451 2.33308C19.9348 2.54503 20.0253 2.82773 19.9939 3.11043L18.1916 19.3313C18.0228 20.8506 16.7386 22 15.2099 22H8.79009C7.26144 22 5.97725 20.8506 5.80844 19.3313L4.00612 3.11043C3.97471 2.82773 4.06518 2.54503 4.25488 2.33308ZM6.11727 4L7.79621 19.1104C7.85248 19.6169 8.28054 20 8.79009 20H15.2099C15.7195 20 16.1475 19.6169 16.2038 19.1104L17.8827 4H6.11727Z" fill="black"/>
<path d="M17.4391 8H6.5625L7.79699 19.1104C7.85326 19.6169 8.28133 20 8.79088 20H15.2107C15.7203 20 16.1483 19.6169 16.2046 19.1104L17.4391 8Z" fill="black"/>
</svg>
