<svg width="24" height="24" viewBox="0 0 24 24" fill="none" xmlns="http://www.w3.org/2000/svg">
<path d="M12.037 7C12.2797 5.30385 13.7384 4 15.5016 4C17.4346 4 19.0016 5.567 19.0016 7.5C19.0016 9.38442 17.5124 10.921 15.6466 10.9971L15.4046 12.9992C15.4369 12.9997 15.4692 13 15.5016 13C18.5392 13 21.0016 10.5376 21.0016 7.5C21.0016 4.46243 18.5392 2 15.5016 2C12.6326 2 10.2766 4.19675 10.024 7H12.037Z" fill="black"/>
<path d="M13.3899 13H5.61328L6.35306 19.12C6.41377 19.6222 6.83996 20 7.34583 20H11.6574C12.1632 20 12.5894 19.6222 12.6502 19.12L13.3899 13Z" fill="black"/>
<path opacity="0.3" fill-rule="evenodd" clip-rule="evenodd" d="M3.25167 7.33668C3.44146 7.12256 3.71388 7 4.00001 7H15C15.2861 7 15.5585 7.12256 15.7483 7.33668C15.9381 7.55079 16.0271 7.83595 15.9928 8.12001L14.6341 19.36C14.452 20.8667 13.1734 22 11.6558 22H7.34423C5.82662 22 4.54804 20.8667 4.36591 19.36L3.00723 8.12001C2.9729 7.83595 3.06188 7.55079 3.25167 7.33668ZM5.12816 9L6.35146 19.12C6.41217 19.6222 6.83836 20 7.34423 20H11.6558C12.1616 20 12.5878 19.6222 12.6486 19.12L13.8718 9H5.12816Z" fill="black"/>
</svg>
