<svg width="24" height="24" viewBox="0 0 24 24" fill="none" xmlns="http://www.w3.org/2000/svg">
<path opacity="0.3" fill-rule="evenodd" clip-rule="evenodd" d="M4.25488 2.33308C4.44458 2.12113 4.71556 2 5 2H19C19.2844 2 19.5554 2.12113 19.7451 2.33308C19.9348 2.54503 20.0253 2.82773 19.9939 3.11043L18.1916 19.3313C18.0228 20.8506 16.7386 22 15.2099 22H8.79009C7.26144 22 5.97725 20.8506 5.80844 19.3313L4.00612 3.11043C3.97471 2.82773 4.06518 2.54503 4.25488 2.33308ZM6.11727 4L7.79621 19.1104C7.85248 19.6169 8.28054 20 8.79009 20H15.2099C15.7195 20 16.1475 19.6169 16.2038 19.1104L17.8827 4H6.11727Z" fill="black"/>
<path d="M7.375 15.3233L7.7958 19.1104C7.85207 19.6169 8.28013 20 8.78968 20H15.2095C15.7191 20 16.1471 19.6169 16.2034 19.1104L16.6243 15.3222L16.1102 15.515C15.4376 15.7672 14.6904 15.728 14.048 15.4068C12.7577 14.7617 11.2389 14.7617 9.94863 15.4068C9.30617 15.728 8.55895 15.7672 7.88639 15.515L7.375 15.3233Z" fill="black"/>
<path d="M11.2792 6.30643C11.4677 6.11063 11.7278 6 11.9996 6C12.2714 6 12.5315 6.11063 12.72 6.30643L12.725 6.31162L12.7365 6.32369L12.7777 6.36711C12.8126 6.40416 12.8621 6.45702 12.9218 6.52202C13.0409 6.6515 13.2031 6.83168 13.3738 7.03278C13.5432 7.23219 13.7291 7.46164 13.8918 7.68832C14.0418 7.89732 14.2213 8.17068 14.3255 8.4452C14.4385 8.74292 14.4996 9.06561 14.4996 9.4C14.4996 10.7742 13.4401 12 11.9996 12C10.5591 12 9.49959 10.7742 9.49959 9.4C9.49959 9.06561 9.56071 8.74292 9.67369 8.4452C9.77787 8.17068 9.95742 7.89732 10.1074 7.68832C10.2701 7.46164 10.456 7.23219 10.6253 7.03278C10.7961 6.83168 10.9583 6.6515 11.0774 6.52202C11.1371 6.45702 11.1866 6.40416 11.2215 6.36711L11.2627 6.32369L11.2742 6.31162L11.2792 6.30643Z" fill="black"/>
</svg>
