<svg width="24" height="24" viewBox="0 0 24 24" fill="none" xmlns="http://www.w3.org/2000/svg">
<g opacity="0.3">
<path d="M3.00219 5C3.00219 3.34315 4.34534 2 6.00219 2H18.0022C19.659 2 21.0022 3.34315 21.0022 5C21.0022 6.03917 20.4738 6.95494 19.6711 7.49331C20.7046 8.41293 21.3971 9.6912 21.5214 11.1383C21.5174 11.092 21.5128 11.0459 21.5077 11H2.49609C2.65132 9.60969 3.33238 8.38332 4.33295 7.49309C3.5304 6.95468 3.00219 6.03903 3.00219 5Z" fill="black"/>
<path d="M3.2288 16C3.62084 17.4114 4.1862 19.0093 4.58093 20.0767C5.01435 21.2487 6.13298 22 7.36098 22H16.6428C17.8708 22 18.9894 21.2487 19.4229 20.0767C19.8176 19.0093 20.383 17.4114 20.775 16H3.2288Z" fill="black"/>
</g>
<path d="M14.5 2H11V7C11 7.55228 11.4477 8 12 8C12.5523 8 13 7.55228 13 7V5.86622C13.1471 5.9513 13.3179 6 13.5 6C14.0523 6 14.5 5.55228 14.5 5V2Z" fill="black"/>
<path d="M2.51533 12.3894C2.65126 13.369 2.82006 14.3646 3.02796 15.2329C3.08688 15.4789 3.1541 15.7362 3.22738 16H5.30874H18.6922H20.7736C20.8468 15.7362 20.9141 15.4789 20.973 15.2329C21.1809 14.3646 21.3497 13.369 21.4856 12.3894C21.5517 11.9131 21.5563 11.448 21.5063 11H19.4815H4.51941H2.49467C2.44465 11.448 2.44923 11.9131 2.51533 12.3894Z" fill="black"/>
</svg>
