<svg width="24" height="24" viewBox="0 0 24 24" fill="none" xmlns="http://www.w3.org/2000/svg">
<path opacity="0.3" fill-rule="evenodd" clip-rule="evenodd" d="M20.7547 3.2453C19.0943 1.5849 16.4023 1.5849 14.7419 3.2453L3.2453 14.7419C1.5849 16.4023 1.5849 19.0943 3.2453 20.7547C4.9057 22.4151 7.59774 22.4151 9.25814 20.7547L20.7547 9.25814C22.4151 7.59774 22.4151 4.9057 20.7547 3.2453ZM17.5145 7.85749C17.9881 7.57334 18.1416 6.95908 17.8575 6.4855C17.5733 6.01192 16.9591 5.85836 16.4855 6.14251L15.4554 6.76057C14.3022 7.4525 13.4345 8.53413 13.0092 9.80999C12.8205 10.3762 12.3762 10.8205 11.81 11.0092L11.6838 11.0513C10.4409 11.4656 9.46561 12.4409 9.05132 13.6838L8.97655 13.9081C8.77764 14.5048 8.37181 15.0107 7.83242 15.3344L6.4855 16.1425C6.01192 16.4267 5.85836 17.0409 6.14251 17.5145C6.42666 17.9881 7.04092 18.1416 7.5145 17.8575L8.86141 17.0493C9.81019 16.4801 10.524 15.5902 10.8739 14.5405L10.9487 14.3162C11.1639 13.6706 11.6706 13.1639 12.3162 12.9487L12.4424 12.9066C13.6059 12.5188 14.5188 11.6059 14.9066 10.4424C15.1809 9.61951 15.7406 8.92185 16.4844 8.47555L17.5145 7.85749Z" fill="black"/>
<path d="M19.7136 10.2994L20.7073 11.293C21.6501 12.2359 21.6501 13.7644 20.7073 14.7073L14.7073 20.7073C13.7645 21.6501 12.2359 21.6501 11.293 20.7073L10.2994 19.7136L19.7136 10.2994Z" fill="black"/>
<path d="M4.2866 13.7008L3.29305 12.7073C2.35024 11.7644 2.35024 10.2359 3.29304 9.29305L9.29305 3.29304C10.2359 2.35024 11.7644 2.35023 12.7073 3.29304L13.7008 4.2866L4.2866 13.7008Z" fill="black"/>
<path d="M15.9052 6.49095L15.4554 6.76081C14.4859 7.34254 13.7181 8.19973 13.2455 9.21621C13.1559 9.40877 13.077 9.60704 13.0092 9.81024C12.8205 10.3764 12.3762 10.8208 11.81 11.0095L11.6838 11.0516C11.558 11.0935 11.435 11.1411 11.315 11.1942C10.3384 11.6265 9.56345 12.4192 9.15412 13.4084C9.11677 13.4987 9.08246 13.5906 9.05132 13.684L8.97655 13.9083C8.77764 14.5051 8.37181 15.011 7.83242 15.3346L6.48566 16.1427C6.47826 16.1471 6.47078 16.1517 6.46354 16.1563C6.00735 16.4461 5.86298 17.0485 6.14266 17.5146C6.42681 17.9882 7.04107 18.1418 7.51465 17.8576L8.86141 17.0496C9.81019 16.4803 10.524 15.5904 10.8739 14.5408L10.9487 14.3165C11.1639 13.6708 11.6706 13.1642 12.3162 12.9489L12.4424 12.9069C13.6059 12.519 14.5188 11.6061 14.9066 10.4427C15.1809 9.61976 15.7406 8.92209 16.4844 8.4758L17.5147 7.85764C17.522 7.85323 17.5293 7.84874 17.5365 7.84418C17.9928 7.55443 18.1372 6.95193 17.8575 6.48575C17.5733 6.01217 16.9591 5.8586 16.4855 6.14275L15.9052 6.49095Z" fill="black"/>
</svg>
