<svg width="24" height="24" viewBox="0 0 24 24" fill="none" xmlns="http://www.w3.org/2000/svg">
<path opacity="0.3" d="M6 13H18C19.6569 13 21 11.6569 21 10C21 8.34315 19.6569 7 18 7H17.917C17.441 4.16229 14.973 2 12 2C9.027 2 6.55904 4.16229 6.08296 7H6C4.34315 7 3 8.34315 3 10C3 11.6569 4.34315 13 6 13Z" fill="black"/>
<path d="M17.967 13H6.02734L7.54448 15.5162L11.1434 21.5144C11.3241 21.8156 11.6496 21.9999 12.0009 21.9999C12.3521 21.9999 12.6776 21.8156 12.8584 21.5144L17.967 13Z" fill="black"/>
</svg>
