<svg width="24" height="24" viewBox="0 0 24 24" fill="none" xmlns="http://www.w3.org/2000/svg">
<g opacity="0.3">
<path d="M20 12H2V19H20V12Z" fill="black"/>
<path fill-rule="evenodd" clip-rule="evenodd" d="M6 2C6 1.44772 6.44772 1 7 1H15C15.5523 1 16 1.44772 16 2C16 2.55228 15.5523 3 15 3H7C6.44772 3 6 2.55228 6 2Z" fill="black"/>
</g>
<path fill-rule="evenodd" clip-rule="evenodd" d="M7.12101 3C7.04232 3.25941 7 3.53464 7 3.81976C7 4.0403 6.92709 4.25466 6.79262 4.42947L3.03688 9.31193C2.43807 10.0904 2.08342 11.0257 2.01301 12H19.987C19.9334 11.2588 19.7153 10.5401 19.3504 9.89597C20.8724 9.51604 22 8.1397 22 6.5C22 4.567 20.433 3 18.5 3C17.2001 3 16.0658 3.70862 15.4621 4.76063L15.2074 4.42947C15.0729 4.25466 15 4.0403 15 3.81976C15 3.53464 14.9577 3.25941 14.879 3H7.12101ZM18.5 8C18.2597 8 18.0345 7.94419 17.8347 7.84503L17.0294 6.79814C17.0102 6.70238 17 6.60278 17 6.5C17 5.67157 17.6716 5 18.5 5C19.3284 5 20 5.67157 20 6.5C20 7.32843 19.3284 8 18.5 8Z" fill="black"/>
<path d="M2 20V19H20V20C20 21.6569 18.6569 23 17 23H5C3.34315 23 2 21.6569 2 20Z" fill="black"/>
</svg>
