<svg width="24" height="24" viewBox="0 0 24 24" fill="none" xmlns="http://www.w3.org/2000/svg">
<g opacity="0.3">
<path d="M17.472 6.52597C17.2132 6.26717 16.9093 6.03951 16.5975 5.8978C16.4453 5.82858 16.24 5.75634 16.0065 5.74231C15.7745 5.72836 15.3913 5.76966 15.0796 6.08133C14.768 6.39301 14.7267 6.77624 14.7406 7.00819C14.7546 7.24169 14.8269 7.44696 14.8961 7.59926C15.0378 7.91102 15.2655 8.21495 15.5243 8.47375C15.7831 8.73254 16.087 8.9602 16.3988 9.10192C16.551 9.17114 16.7563 9.24338 16.9898 9.25741C17.2218 9.27135 17.605 9.23006 17.9167 8.91838C18.2283 8.60671 18.2696 8.22347 18.2557 7.99152C18.2417 7.75802 18.1694 7.55275 18.1002 7.40046C17.9585 7.08869 17.7308 6.78476 17.472 6.52597Z" fill="black"/>
<path d="M9.70772 17.7064L11.4142 15.9999L11 15.9999C9.34315 15.9999 8 14.6567 8 12.9999V12.5857L6.29351 14.2922C5.17838 13.7595 3.80232 13.955 2.87868 14.8786C1.70711 16.0502 1.70711 17.9497 2.87868 19.1212C3.24004 19.4826 3.67144 19.7326 4.12889 19.871C4.26734 20.3285 4.51732 20.7599 4.87868 21.1212C6.05025 22.2928 7.94975 22.2928 9.12132 21.1212C10.045 20.1976 10.2404 18.8215 9.70772 17.7064Z" fill="black"/>
</g>
<path fill-rule="evenodd" clip-rule="evenodd" d="M21.9926 9.87606C21.9988 9.77086 22.001 9.66512 21.9996 9.55907C21.9765 7.88341 21.0345 5.99053 19.522 4.47803C17.9925 2.94851 16.0713 2.00026 14.3792 2C10.8562 2 8 4.85602 8 8.3791V12.5858V13C8 14.6569 9.34315 16 11 16H11.4142L15.5729 16C19.0208 16 21.8341 13.2853 21.9926 9.87606ZM14.3789 4C13.8801 3.99992 13.5528 4.14516 13.349 4.34896C13.0557 4.64224 12.8712 5.23038 13.1052 6.16621C13.3335 7.07952 13.933 8.1485 14.8922 9.10777C15.8515 10.067 16.9205 10.6665 17.8338 10.8948C18.7696 11.1288 19.3577 10.9443 19.651 10.651C19.8351 10.4669 19.969 10.1861 19.9954 9.77039C19.9981 9.70733 19.9996 9.64385 19.9997 9.58C19.9833 8.57549 19.3709 7.15537 18.1078 5.89224C16.8257 4.61013 15.384 4.00021 14.3789 4Z" fill="black"/>
</svg>
