<svg width="24" height="24" viewBox="0 0 24 24" fill="none" xmlns="http://www.w3.org/2000/svg">
<path opacity="0.3" d="M3.45758 9.29807L4.5 8.76037C3.96076 8.52943 3.47964 8.26147 3.08829 7.95305C2.91668 7.8178 2.74965 7.66447 2.60004 7.49233C2.58068 7.5008 2.56147 7.50993 2.54242 7.51973C2.16523 7.71384 1.80518 7.95184 1.52759 8.25024C1.24518 8.55381 1 8.97588 1 9.49993C1 10.1755 1.39694 10.6712 1.79524 10.9999C1.39694 11.3286 1 11.8243 1 12.4999C1 13.1755 1.39694 13.6712 1.79525 13.9999C1.39694 14.3286 1 14.8243 1 15.4999C1 16.1755 1.39694 16.6712 1.79525 16.9999C1.39694 17.3286 1 17.8243 1 18.4999C1 19.4169 1.71922 20.0042 2.27702 20.3339C2.90176 20.7031 3.73921 21.001 4.6864 21.2378C6.59614 21.7152 9.18144 21.9999 12 21.9999C14.8186 21.9999 17.4039 21.7152 19.3136 21.2378C20.2608 21.001 21.0982 20.7031 21.723 20.3339C22.2808 20.0042 23 19.4169 23 18.4999C23 17.8243 22.6031 17.3286 22.2048 16.9999C22.6031 16.6712 23 16.1755 23 15.4999C23 14.8243 22.6031 14.3286 22.2048 13.9999C22.6031 13.6712 23 13.1755 23 12.4999C23 11.8243 22.6031 11.3286 22.2048 10.9999C22.6031 10.6712 23 10.1755 23 9.49993C23 8.97588 22.7548 8.5538 22.4724 8.25024C22.1948 7.95184 21.8348 7.71384 21.4576 7.51973C21.4384 7.50987 21.4191 7.5007 21.3996 7.49219C21.2501 7.66421 21.0832 7.81788 20.9117 7.95305C20.5543 8.23475 20.1219 8.48263 19.6388 8.69943L20.5424 9.29807C20.69 9.37403 20.7989 9.44257 20.877 9.49992C20.6536 9.66401 20.2651 9.85802 19.6849 10.0511C18.9489 10.2961 17.9894 10.512 16.8569 10.6758C16.3103 10.7548 15.9312 11.262 16.0103 11.8086C16.0893 12.3552 16.5965 12.7342 17.1431 12.6552C18.2043 12.5017 19.1676 12.2996 19.9832 12.0542C20.4012 12.2116 20.6943 12.3657 20.877 12.4999C20.6536 12.664 20.265 12.858 19.6849 13.0511C18.001 13.6116 15.2144 13.9999 12 13.9999C11.6788 13.9999 11.3613 13.996 11.0482 13.9884C10.4961 13.9751 10.0377 14.4118 10.0243 14.9639C10.011 15.5161 10.4477 15.9745 10.9998 15.9879C11.329 15.9958 11.6627 15.9999 12 15.9999C15.1459 15.9999 18.0185 15.6452 19.9831 15.0542C20.4012 15.2115 20.6943 15.3657 20.877 15.4999C20.6536 15.664 20.265 15.858 19.6849 16.0511C18.001 16.6116 15.2144 16.9999 12 16.9999C11.3317 16.9999 10.6798 16.9831 10.0507 16.9512C9.49911 16.9232 9.02928 17.3476 9.00129 17.8992C8.97329 18.4508 9.39774 18.9206 9.94932 18.9486C10.6126 18.9823 11.2984 18.9999 12 18.9999C15.1459 18.9999 18.0185 18.6451 19.9831 18.0542C20.4016 18.2117 20.6949 18.366 20.8775 18.5003C20.8334 18.5324 20.777 18.5698 20.7053 18.6121C20.318 18.8411 19.691 19.0819 18.8285 19.2975C17.119 19.7249 14.7043 19.9999 12 19.9999C9.29571 19.9999 6.88101 19.7249 5.17147 19.2975C4.30901 19.0819 3.68199 18.8411 3.29468 18.6121C3.22303 18.5698 3.16665 18.5324 3.12251 18.5003C3.34581 18.3361 3.73452 18.142 4.31507 17.9487C4.35471 17.9355 4.3931 17.92 4.43011 17.9024C4.15863 17.5025 4 17.0197 4 16.5V15.9392C3.59094 15.7841 3.30322 15.6323 3.12301 15.4999C3.30322 15.3675 3.59094 15.2157 4 15.0606V12.9392C3.59094 12.7841 3.30323 12.6323 3.12302 12.4999C3.30323 12.3675 3.59094 12.2157 4 12.0606V9.93928C3.59093 9.78415 3.30321 9.6323 3.123 9.49992C3.20113 9.44257 3.30997 9.37403 3.45758 9.29807Z" fill="black"/>
<path fill-rule="evenodd" clip-rule="evenodd" d="M12 2C9.43715 2 7.07541 2.3448 5.31981 2.93C4.44724 3.22085 3.66896 3.58923 3.08829 4.04685C2.51889 4.49559 2 5.14805 2 6C2 6.49667 2.17811 6.9273 2.43678 7.28649C2.6226 7.54387 2.85106 7.76619 3.08829 7.95315C3.59701 8.35407 4.25741 8.68649 5 8.95829V16.5001C5 17.3285 5.67157 18.0001 6.5 18.0001C7.32843 18.0001 8 17.3285 8 16.5001V9.70115C8.32463 9.75237 8.65839 9.79738 9 9.83593C9.32987 9.87316 9.66734 9.9044 10.0113 9.92927C10.3395 9.95299 10.6734 9.97092 11.012 9.98278L11.024 11.0302C11.0335 11.8423 11.695 12.5001 12.5119 12.5001C13.3338 12.5001 14 11.8338 14 11.012V9.92842C14.1573 9.91699 14.3134 9.9042 14.468 9.89011C14.6561 9.87317 14.8163 9.85663 15 9.83592C16.0671 9.71549 17.0584 9.53168 17.9344 9.29433C18.127 9.24216 18.3156 9.18696 18.4995 9.12871C18.6083 9.09427 18.7155 9.05876 18.8209 9.02217L18.8255 9.02056C19.1105 8.92147 19.3826 8.81452 19.6388 8.69953C20.1219 8.48273 20.5543 8.23485 20.9117 7.95315C21.0832 7.81798 21.2501 7.66431 21.3996 7.49229C21.4104 7.47992 21.4211 7.46746 21.4317 7.45491C21.7621 7.06228 22 6.57687 22 6C22 5.14805 21.4811 4.49559 20.9117 4.04685C20.331 3.58923 19.5528 3.22085 18.6802 2.93C16.9246 2.3448 14.5629 2 12 2ZM12 4.5C11.5082 4.5 11.0215 4.56497 10.6231 4.69776C10.4292 4.76242 10.2001 4.86144 9.9989 5.01997C9.80903 5.16961 9.5 5.49323 9.5 6C9.5 6.50677 9.80903 6.83039 9.9989 6.98003C10.2001 7.13856 10.4292 7.23758 10.6231 7.30224C11.0215 7.43503 11.5082 7.5 12 7.5C12.4918 7.5 12.9785 7.43503 13.3769 7.30224C13.5708 7.23758 13.7999 7.13856 14.0011 6.98003C14.191 6.83039 14.5 6.50677 14.5 6C14.5 5.49323 14.191 5.16961 14.0011 5.01997C13.7999 4.86144 13.5708 4.76242 13.3769 4.69776C12.9785 4.56497 12.4918 4.5 12 4.5Z" fill="black"/>
</svg>
