<svg width="24" height="24" viewBox="0 0 24 24" fill="none" xmlns="http://www.w3.org/2000/svg">
<path fill-rule="evenodd" clip-rule="evenodd" d="M19.0711 19.0712H19.0724C22.9777 15.166 22.977 8.835 19.0717 4.92976C15.1665 1.02452 8.83418 1.02384 4.92893 4.92908C1.02369 8.83432 1.02369 15.166 4.92893 19.0712C8.83418 22.9765 15.1658 22.9765 19.0711 19.0712ZM6.23843 6.44994C6.30758 6.37818 6.37805 6.30771 6.44981 6.23857C7.18394 5.53085 8.01999 4.99096 8.90961 4.61888C9.86041 4.22032 10.9045 4.00012 12 4.00012C13.0955 4.00012 14.1396 4.22032 15.0904 4.61888C15.98 4.99096 16.8161 5.53085 17.5502 6.23857C17.5875 6.27447 17.6244 6.31073 17.6609 6.34734C17.6695 6.35584 17.6782 6.36415 17.687 6.37227C20.7728 9.48905 20.7728 14.5112 17.687 17.628C17.6768 17.6374 17.6668 17.6471 17.6569 17.657C16.8822 18.4316 15.9882 19.0142 15.0341 19.4047C14.1491 19.7677 13.1846 19.9767 12.1739 19.9983C12.058 20.0008 11.942 20.0008 11.8261 19.9983C9.83705 19.9553 7.861 19.1749 6.34315 17.657C5.57297 16.8868 4.99266 15.9987 4.60221 15.0507C4.21633 14.116 4.00245 13.0921 4.00002 12.0186C4.00001 12.0124 4 12.0063 4 12.0001L4 11.9941C4.00158 9.84113 4.85366 7.88712 6.23843 6.44994Z" fill="black"/>
<path d="M12 14.0001C11.4477 14.0001 11 14.4479 11 15.0001C11 15.5524 11.4477 16.0001 12 16.0001H12.01C12.5623 16.0001 13.01 15.5524 13.01 15.0001C13.01 14.4479 12.5623 14.0001 12.01 14.0001H12Z" fill="black"/>
<path d="M14 12.0001C14 11.4479 14.4477 11.0001 15 11.0001H15.01C15.5623 11.0001 16.01 11.4479 16.01 12.0001C16.01 12.5524 15.5623 13.0001 15.01 13.0001H15C14.4477 13.0001 14 12.5524 14 12.0001Z" fill="black"/>
<path d="M11 9.00015C11 8.44786 11.4477 8.00015 12 8.00015H12.01C12.5623 8.00015 13.01 8.44786 13.01 9.00015C13.01 9.55243 12.5623 10.0001 12.01 10.0001H12C11.4477 10.0001 11 9.55243 11 9.00015Z" fill="black"/>
<path d="M9 11.0001C8.44772 11.0001 8 11.4479 8 12.0001C8 12.5524 8.44772 13.0001 9 13.0001H9.01C9.56228 13.0001 10.01 12.5524 10.01 12.0001C10.01 11.4479 9.56228 11.0001 9.01 11.0001H9Z" fill="black"/>
<path opacity="0.3" fill-rule="evenodd" clip-rule="evenodd" d="M6.23843 6.44982C6.30758 6.37806 6.37805 6.30759 6.44981 6.23844C7.18394 5.53073 8.01999 4.99084 8.90961 4.61875C9.86041 4.2202 10.9045 4 12 4C13.0955 4 14.1396 4.2202 15.0904 4.61875C15.98 4.99083 16.8161 5.53073 17.5502 6.23844C17.5875 6.27435 17.6244 6.31061 17.6609 6.34722C17.6695 6.35572 17.6782 6.36403 17.687 6.37215C20.7728 9.48893 20.7728 14.5111 17.687 17.6279C17.6768 17.6373 17.6668 17.647 17.6569 17.6569C16.8822 18.4315 15.9882 19.0141 15.0341 19.4046C14.1491 19.7676 13.1846 19.9766 12.1739 19.9981C12.058 20.0007 11.942 20.0007 11.8261 19.9981C9.83705 19.9552 7.861 19.1747 6.34315 17.6569C5.57297 16.8867 4.99266 15.9986 4.60221 15.0506C4.21633 14.1159 4.00245 13.092 4.00002 12.0185L4 12L4 11.994C4.00158 9.841 4.85366 7.887 6.23843 6.44982ZM12 14C11.4477 14 11 14.4477 11 15C11 15.5523 11.4477 16 12 16H12.01C12.5623 16 13.01 15.5523 13.01 15C13.01 14.4477 12.5623 14 12.01 14H12ZM15 11C14.4477 11 14 11.4477 14 12C14 12.5523 14.4477 13 15 13H15.01C15.5623 13 16.01 12.5523 16.01 12C16.01 11.4477 15.5623 11 15.01 11H15ZM11 9.00003C11 8.44774 11.4477 8.00003 12 8.00003H12.01C12.5623 8.00003 13.01 8.44774 13.01 9.00003C13.01 9.55231 12.5623 10 12.01 10H12C11.4477 10 11 9.55231 11 9.00003ZM8 12C8 11.4477 8.44772 11 9 11H9.01C9.56228 11 10.01 11.4477 10.01 12C10.01 12.5523 9.56228 13 9.01 13H9C8.44772 13 8 12.5523 8 12Z" fill="black"/>
</svg>
