<svg width="24" height="24" viewBox="0 0 24 24" fill="none" xmlns="http://www.w3.org/2000/svg">
<path opacity="0.3" fill-rule="evenodd" clip-rule="evenodd" d="M2.29293 21.7071C2.01253 21.4267 1.9243 21.0071 2.06802 20.6376L7.95312 5.50562L8.84966 5.50591C14.0956 5.68579 18.3158 9.92279 18.4958 15.1687V16.0467L3.36248 21.932C2.99291 22.0757 2.57332 21.9875 2.29293 21.7071ZM11 9C10.4477 9 10 9.44772 10 10C10 10.5523 10.4477 11 11 11H11.01C11.5623 11 12.01 10.5523 12.01 10C12.01 9.44772 11.5623 9 11.01 9H11ZM13 13C12.4477 13 12 13.4477 12 14C12 14.5523 12.4477 15 13 15H13.01C13.5623 15 14.01 14.5523 14.01 14C14.01 13.4477 13.5623 13 13.01 13H13ZM8 15C7.44772 15 7 15.4477 7 16C7 16.5523 7.44772 17 8 17H8.01C8.56228 17 9.01 16.5523 9.01 16C9.01 15.4477 8.56228 15 8.01 15H8Z" fill="black"/>
<path d="M9.06852 2.63756C9.218 2.25317 9.58814 1.99998 10.0006 2C16.6277 2.00025 22.0003 7.3728 22.0005 14C22.0005 14.4124 21.7474 14.7825 21.363 14.932L18.4958 16.047V15.1688C18.3158 9.92291 14.0956 5.68591 8.84966 5.50603L7.95312 5.50574L9.06852 2.63756Z" fill="black"/>
<path d="M11 9.00012C10.4477 9.00012 10 9.44784 10 10.0001C10 10.5524 10.4477 11.0001 11 11.0001H11.01C11.5623 11.0001 12.01 10.5524 12.01 10.0001C12.01 9.44784 11.5623 9.00012 11.01 9.00012H11Z" fill="black"/>
<path d="M13 13.0001C12.4477 13.0001 12 13.4478 12 14.0001C12 14.5524 12.4477 15.0001 13 15.0001H13.01C13.5623 15.0001 14.01 14.5524 14.01 14.0001C14.01 13.4478 13.5623 13.0001 13.01 13.0001H13Z" fill="black"/>
<path d="M8 15.0001C7.44772 15.0001 7 15.4478 7 16.0001C7 16.5524 7.44772 17.0001 8 17.0001H8.01C8.56228 17.0001 9.01 16.5524 9.01 16.0001C9.01 15.4478 8.56228 15.0001 8.01 15.0001H8Z" fill="black"/>
</svg>
