<svg width="24" height="24" viewBox="0 0 24 24" fill="none" xmlns="http://www.w3.org/2000/svg">
<path opacity="0.3" fill-rule="evenodd" clip-rule="evenodd" d="M2.23226 9.35925C2.42225 9.1316 2.70348 9 3.00001 9H21C21.2965 9 21.5778 9.1316 21.7678 9.35925C21.9578 9.58691 22.0369 9.88715 21.9839 10.1789L20.2825 19.5367C20.0231 20.9631 18.7807 22 17.3309 22H6.66916C5.2193 22 3.97691 20.9631 3.71755 19.5367L2.01614 10.1789C1.96309 9.88715 2.04226 9.58691 2.23226 9.35925ZM8.77865 11.8561C8.69915 11.3095 8.19166 10.9309 7.64512 11.0104C7.09859 11.0899 6.71998 11.5974 6.79948 12.1439L7.50857 17.0189C7.58806 17.5655 8.09556 17.9441 8.64209 17.8646C9.18863 17.7851 9.56724 17.2776 9.48774 16.7311L8.77865 11.8561ZM17.1968 12.1439C17.2763 11.5974 16.8977 11.0899 16.3512 11.0104C15.8047 10.9309 15.2972 11.3095 15.2177 11.8561L14.5086 16.7311C14.4291 17.2776 14.8077 17.7851 15.3542 17.8646C15.9007 17.9441 16.4082 17.5655 16.4877 17.0189L17.1968 12.1439ZM12.9982 12C12.9982 11.4477 12.5504 11 11.9982 11C11.4459 11 10.9982 11.4477 10.9982 12V17C10.9982 17.5523 11.4459 18 11.9982 18C12.5504 18 12.9982 17.5523 12.9982 17V12Z" fill="black"/>
<path d="M9.69424 3.08096C10.2441 2.42084 11.0722 2 12 2C12.9278 2 13.7559 2.42084 14.3058 3.08096C14.5289 3.02802 14.7614 3 15 3C16.1117 3 17.081 3.60412 17.5993 4.50161C19.1772 4.55292 20.4471 5.82279 20.4984 7.40073C21.3937 7.91779 21.9971 8.88356 22 9.99188C21.9981 9.7624 21.9172 9.53836 21.7678 9.35925C21.5778 9.1316 21.2965 9 21 9H3.00001C2.70348 9 2.42225 9.1316 2.23226 9.35925C2.081 9.54049 1.99999 9.76772 2 10C2 8.88833 2.60411 7.91905 3.50161 7.40073C3.55291 5.82279 4.82279 4.55291 6.40073 4.50161C6.91905 3.60411 7.88828 3 9 3C9.23862 3 9.47114 3.02802 9.69424 3.08096Z" fill="black"/>
<path d="M2.01974 10.1987C2.0068 10.1345 2 10.0681 2 10C2 10.0596 2.00532 10.1194 2.01614 10.1789L2.01974 10.1987Z" fill="black"/>
<path d="M21.9804 10.1979C21.9907 10.1467 21.9971 10.094 21.9992 10.0402C21.9973 10.0865 21.9923 10.1328 21.9839 10.1789L21.9804 10.1979Z" fill="black"/>
</svg>
