<svg width="24" height="24" viewBox="0 0 24 24" fill="none" xmlns="http://www.w3.org/2000/svg">
<path opacity="0.3" fill-rule="evenodd" clip-rule="evenodd" d="M11.9995 2C9.20241 2 6.81532 4.02217 6.35548 6.78118L5.65234 11H7.67993H16.319H18.3466L17.6435 6.78118C17.1836 4.02217 14.7965 2 11.9995 2ZM11.9886 4C11.4363 4 10.9886 4.44772 10.9886 5C10.9886 5.55228 11.4363 6 11.9886 6H11.9986C12.5508 6 12.9986 5.55228 12.9986 5C12.9986 4.44772 12.5508 4 11.9986 4H11.9886ZM10.0003 5.5C9.44799 5.5 9.00027 5.94772 9.00027 6.5C9.00027 7.05228 9.44799 7.5 10.0003 7.5H10.0103C10.5626 7.5 11.0103 7.05228 11.0103 6.5C11.0103 5.94772 10.5626 5.5 10.0103 5.5H10.0003ZM14.0003 5.5C13.448 5.5 13.0003 5.94772 13.0003 6.5C13.0003 7.05228 13.448 7.5 14.0003 7.5H14.0103C14.5626 7.5 15.0103 7.05228 15.0103 6.5C15.0103 5.94772 14.5626 5.5 14.0103 5.5H14.0003Z" fill="black"/>
<path d="M16.6383 22C18.4921 22 19.9022 20.3354 19.5975 18.5068L18.3463 11H16.3187L17.6247 18.8356C17.7263 19.4451 17.2562 20 16.6383 20H7.36012C6.74218 20 6.27213 19.4451 6.37372 18.8356L7.67966 11H5.65207L4.40094 18.5068C4.09617 20.3354 5.5063 22 7.36012 22H16.6383Z" fill="black"/>
</svg>
