<svg width="24" height="24" viewBox="0 0 24 24" fill="none" xmlns="http://www.w3.org/2000/svg">
<path d="M5.67428 13.3621C6.49001 13.1582 7.34927 13.2165 8.12998 13.5288L9.77189 14.1855C11.2024 14.7577 12.7981 14.7577 14.2286 14.1855L15.8705 13.5288C16.6512 13.2165 17.5105 13.1582 18.3262 13.3621L20.7577 13.97C21.2935 14.1039 21.8364 13.7782 21.9704 13.2424C22.1043 12.7066 21.7786 12.1636 21.2428 12.0297L18.8113 11.4218C17.5877 11.1159 16.2988 11.2034 15.1277 11.6718L13.4858 12.3286C12.5322 12.71 11.4683 12.71 10.5147 12.3286L8.87276 11.6718C7.7017 11.2034 6.41281 11.1159 5.1892 11.4218L2.7577 12.0297C2.22191 12.1636 1.89615 12.7066 2.03009 13.2424C2.16404 13.7782 2.70698 14.1039 3.24277 13.97L5.67428 13.3621Z" fill="black"/>
<path d="M13 16.9999L8 14.9999H18L13 16.9999Z" fill="black"/>
<g opacity="0.3">
<path d="M2 5C2 4.44772 2.44772 4 3 4H21C21.5523 4 22 4.44772 22 5V9C22 9.55228 21.5523 10 21 10H3C2.44772 10 2 9.55228 2 9V5Z" fill="black"/>
<path fill-rule="evenodd" clip-rule="evenodd" d="M2 16C2 15.4477 2.44772 15 3 15H8L13 17L18 15H21C21.5523 15 22 15.4477 22 16V20C22 20.5523 21.5523 21 21 21H3C2.44772 21 2 20.5523 2 20V16Z" fill="black"/>
</g>
</svg>
