<svg width="24" height="24" viewBox="0 0 24 24" fill="none" xmlns="http://www.w3.org/2000/svg">
<path opacity="0.3" d="M18 5C15.7909 5 14 6.79086 14 9V9.46154C14 11.9681 11.9681 14 9.46154 14H9C6.79086 14 5 15.7909 5 18C5 20.2091 6.79086 22 9 22H9.75C16.5155 22 22 16.5155 22 9.75V9C22 6.79086 20.2091 5 18 5Z" fill="black"/>
<path fill-rule="evenodd" clip-rule="evenodd" d="M17.5 8.5C18.0523 8.5 18.5 8.94772 18.5 9.5C18.5 14.4706 14.4706 18.5 9.5 18.5C8.94772 18.5 8.5 18.0523 8.5 17.5C8.5 16.9477 8.94772 16.5 9.5 16.5C13.366 16.5 16.5 13.366 16.5 9.5C16.5 8.94772 16.9477 8.5 17.5 8.5Z" fill="black"/>
<path d="M17 2C16.4477 2 16 2.44772 16 3C16 3.55228 16.4477 4 17 4H20C20.5523 4 21 3.55228 21 3C21 2.44772 20.5523 2 20 2H17Z" fill="black"/>
<path d="M4 17C4 16.4477 3.55228 16 3 16C2.44772 16 2 16.4477 2 17V20C2 20.5523 2.44772 21 3 21C3.55228 21 4 20.5523 4 20V17Z" fill="black"/>
</svg>
