<svg width="24" height="24" viewBox="0 0 24 24" fill="none" xmlns="http://www.w3.org/2000/svg">
<g opacity="0.3">
<path d="M16.5858 4.58579C17.3668 3.80474 18.6332 3.80474 19.4142 4.58579C20.1953 5.36683 20.1953 6.63317 19.4142 7.41421C19.0237 7.80474 19.0237 8.4379 19.4142 8.82843C19.8047 9.21895 20.4379 9.21895 20.8284 8.82843C22.3905 7.26633 22.3905 4.73367 20.8284 3.17157C19.2663 1.60948 16.7337 1.60948 15.1716 3.17157C13.8537 4.48948 13.6476 6.49824 14.5535 8.03213L13.7927 8.79295L15.207 10.2072L16.5857 8.8285C16.7733 8.64097 16.8787 8.38661 16.8787 8.12137C16.8787 7.85614 16.7733 7.60176 16.5858 7.41421C15.8047 6.63316 15.8047 5.36683 16.5858 4.58579Z" fill="black"/>
<path d="M11.957 13.4572L10.5427 12.043L9.54273 13.043L10.957 14.4572L11.957 13.4572Z" fill="black"/>
<path d="M7.70698 17.7072L6.29274 16.293L2.29288 20.2929C1.90236 20.6834 1.90237 21.3166 2.2929 21.7071C2.68343 22.0976 3.3166 22.0976 3.70712 21.7071L7.70698 17.7072Z" fill="black"/>
</g>
<path d="M12.6891 18.3104L11.5604 19.4391C10.9746 20.0249 10.0249 20.0249 9.43911 19.4391L4.56043 14.5604C3.97465 13.9746 3.97465 13.0249 4.56043 12.4391L5.68911 11.3104C6.2749 10.7246 7.22465 10.7246 7.81043 11.3104L12.6891 16.1891C13.2749 16.7749 13.2749 17.7246 12.6891 18.3104Z" fill="black"/>
<path d="M16.9391 14.0604L15.8104 15.1891C15.2246 15.7749 14.2749 15.7749 13.6891 15.1891L8.81043 10.3104C8.22465 9.72465 8.22465 8.7749 8.81043 8.18911L9.93911 7.06043C10.5249 6.47465 11.4746 6.47465 12.0604 7.06043L16.9391 11.9391C17.5249 12.5249 17.5249 13.4746 16.9391 14.0604Z" fill="black"/>
</svg>
