<svg width="24" height="24" viewBox="0 0 24 24" fill="none" xmlns="http://www.w3.org/2000/svg">
<path fill-rule="evenodd" clip-rule="evenodd" d="M9.98407 5.7958C10.8408 4.08235 12.5921 3 14.5078 3H14.6C18.6869 3 22 6.31309 22 10.4C22 16.2542 17.2542 21 11.4 21H7.94204C4.66034 21 2 18.3397 2 15.058C2 14.0627 2.49743 13.1332 3.32557 12.5811L6.6776 10.3464C7.69119 9.67069 8.51089 8.74214 9.05568 7.65256L9.98407 5.7958ZM16.5722 5.72468L16.8925 5.86705C18.4315 6.55103 19.5104 7.9785 19.7486 9.64569C20.2769 13.344 18.1292 16.9031 14.611 18.1596L13.3699 18.6029C12.6342 18.8657 11.8587 19 11.0775 19H8.27084C7.0582 19 5.89523 18.5183 5.03776 17.6608C3.79133 16.4144 4.03595 14.3309 5.53717 13.4071L9.00721 11.2717C9.82312 10.7696 10.4453 10.0064 10.7727 9.10601L11.1668 8.02215C11.9623 5.83455 14.4451 4.7793 16.5722 5.72468Z" fill="black"/>
<path fill-rule="evenodd" clip-rule="evenodd" d="M14 11C14 10.4477 14.4477 10 15 10H15.01C15.5623 10 16.01 10.4477 16.01 11C16.01 11.5523 15.5623 12 15.01 12H15C14.4477 12 14 11.5523 14 11Z" fill="black"/>
<path opacity="0.3" fill-rule="evenodd" clip-rule="evenodd" d="M16.8925 5.8668L16.5722 5.72444C14.4451 4.77905 11.9623 5.83431 11.1668 8.02191L10.7727 9.10577C10.4453 10.0061 9.82312 10.7693 9.00721 11.2714L5.53717 13.4068C4.03595 14.3307 3.79133 16.4141 5.03776 17.6605C5.89523 18.518 7.0582 18.9997 8.27084 18.9997H11.0775C11.8587 18.9997 12.6342 18.8654 13.3699 18.6026L14.611 18.1594C18.1292 16.9029 20.2769 13.3437 19.7486 9.64544C19.5104 7.97826 18.4315 6.55079 16.8925 5.8668Z" fill="black"/>
</svg>
