<svg width="24" height="24" viewBox="0 0 24 24" fill="none" xmlns="http://www.w3.org/2000/svg">
<path opacity="0.3" fill-rule="evenodd" clip-rule="evenodd" d="M2 6V18C2 18.8519 2.51889 19.5044 3.08829 19.9531C3.66896 20.4108 4.44724 20.7791 5.31981 21.07C7.07541 21.6552 9.43715 22 12 22C14.5629 22 16.9246 21.6552 18.6802 21.07C19.5528 20.7791 20.331 20.4108 20.9117 19.9531C21.4811 19.5044 22 18.8519 22 18V6C22 5.14805 21.4811 4.49559 20.9117 4.04685C20.331 3.58923 19.5528 3.22085 18.6802 2.93C18.4607 2.85685 18.2318 2.78745 17.9942 2.72202C16.3315 2.26414 14.2416 2.00018 12 2C9.43715 2 7.07541 2.3448 5.31981 2.93C4.44724 3.22085 3.66896 3.58923 3.08829 4.04685C2.51889 4.49559 2 5.14805 2 6ZM4.00305 5.98471C3.99998 5.99479 4 5.99994 4 5.99994C4 5.99994 4.00018 6.00585 4.00305 6.01529C4.00645 6.02644 4.01483 6.04845 4.03507 6.08143C4.07752 6.15057 4.16408 6.25453 4.32624 6.38232C4.65642 6.64253 5.19616 6.9206 5.95227 7.17264C6.33187 7.29917 6.75214 7.4146 7.20715 7.51645C7.82299 7.65424 8.50399 7.76751 9.23235 7.84945C10.0945 7.94643 11.0252 8 12 8C13.3335 8 14.5843 7.89977 15.6901 7.72529C16.5805 7.58475 17.3763 7.3959 18.0461 7.17264C18.8022 6.9206 19.3419 6.64253 19.6721 6.38232C19.8343 6.25453 19.9208 6.15057 19.9633 6.08143C19.9835 6.04845 19.9919 6.02644 19.9953 6.01529C19.9982 6.00571 19.9983 6 19.9983 6C19.9983 6 19.9984 5.99506 19.9953 5.98471C19.9919 5.97356 19.9835 5.95155 19.9633 5.91857C19.9406 5.88164 19.9053 5.83479 19.8527 5.77968L19.8541 5.77934C19.8082 5.73134 19.7491 5.67708 19.6738 5.61768C19.3436 5.35747 18.8038 5.0794 18.0477 4.82736C16.828 4.42079 15.1884 4.12887 13.3256 4.03356C12.8949 4.01153 12.4505 4 11.9983 4C11.7084 4 11.4224 4.00474 11.1409 4.01395C9.08556 4.08133 7.27283 4.38717 5.95227 4.82736C5.22305 5.07043 4.69508 5.33772 4.36226 5.58985C4.34999 5.59914 4.33798 5.60842 4.32624 5.61768C4.16408 5.74547 4.07752 5.84943 4.03507 5.91857C4.01483 5.95155 4.00645 5.97356 4.00305 5.98471Z" fill="black"/>
<path d="M19.9953 5.98471C19.9919 5.97356 19.9835 5.95155 19.9633 5.91857C19.9405 5.88157 19.9052 5.8346 19.8524 5.77934C19.282 5.92091 18.6578 6.00001 18.0002 6.00001C15.8667 6.00001 14.1803 5.1788 13.4364 4.19437C13.396 4.14095 13.3585 4.08733 13.324 4.03356C12.8932 4.01153 12.4505 4 11.9983 4C11.7084 4 11.4224 4.00474 11.1409 4.01395C11.1504 4.04762 11.1603 4.08112 11.1707 4.11446C10.7275 4.25327 10.3056 4.4246 9.91209 4.62596C9.46685 4.85378 9.05796 5.12006 8.69569 5.42116C8.01572 5.98633 7.47685 6.698 7.20703 7.5168C7.82287 7.65459 8.50232 7.76751 9.23069 7.84945C9.38664 7.54537 9.63125 7.2442 9.97409 6.95924C10.5339 6.49397 11.3201 6.10822 12.2625 5.88841C13.1134 6.75622 14.319 7.38927 15.6884 7.72529C16.5793 7.58473 17.376 7.39598 18.0461 7.17264C18.8022 6.9206 19.3419 6.64253 19.6721 6.38232C19.8343 6.25453 19.9208 6.15057 19.9633 6.08143C19.9835 6.04845 19.9919 6.02644 19.9953 6.01529C19.9982 6.00571 19.9983 6 19.9983 6C19.9983 6 19.9984 5.99506 19.9953 5.98471Z" fill="black"/>
</svg>
