<svg width="24" height="24" viewBox="0 0 24 24" fill="none" xmlns="http://www.w3.org/2000/svg">
<path opacity="0.3" d="M2 14.8285V16.0001C2 18.2092 3.79086 20.0001 6 20.0001C6.72796 20.0001 7.41156 19.805 8 19.4647C8.58844 19.805 9.27204 20.0001 10 20.0001C10.728 20.0001 11.4116 19.805 12 19.4647C12.5884 19.805 13.272 20.0001 14 20.0001C14.728 20.0001 15.4116 19.805 16 19.4647C16.5884 19.805 17.272 20.0001 18 20.0001C20.2091 20.0001 22 18.2092 22 16.0001V14.8285C21.578 14.9777 21.1234 15.0323 20.6687 14.9817L12 14.0186L3.3313 14.9817C2.87663 15.0323 2.42196 14.9777 2 14.8285Z" fill="black"/>
<path d="M8.19557 4.04572C4.70845 4.4447 2 7.40605 2 11V12C2 12.2844 2.12113 12.5554 2.33308 12.7451C2.54503 12.9348 2.82773 13.0253 3.11043 12.9939L6.20841 12.6497L6.52561 11.2751C6.5299 11.2565 6.53469 11.2382 6.53996 11.2201L8.19557 4.04572Z" fill="black"/>
<path d="M8.31499 12.4156L10.7102 12.1495L12.5907 4H10.2587L8.47602 11.7249C8.47173 11.7435 8.46694 11.7618 8.46168 11.7799L8.31499 12.4156Z" fill="black"/>
<path d="M14.6433 4L12.7759 12.0924L15.276 12.3701L15.5167 11.327C15.5197 11.3097 15.5233 11.2924 15.5272 11.2752L17.13 4.32995C16.4584 4.11566 15.7427 4 15 4H14.6433Z" fill="black"/>
<path d="M18.9734 5.23623L17.488 11.673C17.4849 11.6903 17.4814 11.7076 17.4774 11.7249L17.2772 12.5925L20.8896 12.9939C21.1723 13.0253 21.455 12.9348 21.6669 12.7451C21.8789 12.5554 22 12.2844 22 12V11C22 8.60965 20.8019 6.49913 18.9734 5.23623Z" fill="black"/>
</svg>
