<svg width="24" height="24" viewBox="0 0 24 24" fill="none" xmlns="http://www.w3.org/2000/svg">
<path opacity="0.3" fill-rule="evenodd" clip-rule="evenodd" d="M12 10C6.47715 10 2 14.4772 2 20C2 20.5523 2.44772 21 3 21H21C21.5523 21 22 20.5523 22 20C22 14.4772 17.5228 10 12 10ZM8 16C7.44772 16 7 16.4477 7 17C7 17.5523 7.44772 18 8 18H8.01C8.56228 18 9.01 17.5523 9.01 17C9.01 16.4477 8.56228 16 8.01 16H8ZM10 14C10 13.4477 10.4477 13 11 13H11.01C11.5623 13 12.01 13.4477 12.01 14C12.01 14.5523 11.5623 15 11.01 15H11C10.4477 15 10 14.5523 10 14Z" fill="black"/>
<path d="M12 3C12.302 3 12.5878 3.13648 12.7777 3.37135L14.5619 5.57852L17.3027 4.8416C17.5943 4.76318 17.9058 4.82077 18.1501 4.99829C18.3944 5.1758 18.5454 5.45422 18.561 5.75583L18.7071 8.59018L21.3576 9.60499C21.6421 9.71393 21.8614 9.94664 21.9534 10.2371C22.0453 10.5276 21.9998 10.8441 21.8298 11.0969L19.9354 13.914C18.1074 11.5341 15.2329 10 12 10C8.76715 10 5.8926 11.5341 4.0646 13.914L2.17019 11.0969C2.00017 10.8441 1.95469 10.5276 2.04663 10.2371C2.13857 9.94664 2.35792 9.71393 2.64244 9.60499L5.29293 8.59018L5.43902 5.75583C5.45457 5.45422 5.60559 5.1758 5.84991 4.99829C6.09424 4.82077 6.4057 4.76318 6.69735 4.8416L9.43813 5.57852L11.2223 3.37135C11.4122 3.13648 11.698 3 12 3Z" fill="black"/>
</svg>
