<svg width="24" height="24" viewBox="0 0 24 24" fill="none" xmlns="http://www.w3.org/2000/svg">
<g opacity="0.3">
<path d="M15.2426 8.75736V11H13V8.75736H15.2426Z" fill="black"/>
<path d="M8.75736 11V8.75736H11V11H8.75736Z" fill="black"/>
<path d="M8.75736 15.2426V13H11V15.2426H8.75736Z" fill="black"/>
<path d="M15.2426 15.2426H13V13H15.2426V15.2426Z" fill="black"/>
<path fill-rule="evenodd" clip-rule="evenodd" d="M2 12C2 6.47715 6.47715 2 12 2C17.5228 2 22 6.47715 22 12C22 17.5228 17.5228 22 12 22C6.47715 22 2 17.5228 2 12ZM5.63604 6.75736C5.08375 6.75736 4.63604 7.20507 4.63604 7.75736C4.63604 8.30964 5.08375 8.75736 5.63604 8.75736H6.75736V11H4.22183C3.66954 11 3.22183 11.4477 3.22183 12C3.22183 12.5523 3.66954 13 4.22183 13H6.75736V15.2426H5.63604C5.08375 15.2426 4.63604 15.6904 4.63604 16.2426C4.63604 16.7949 5.08375 17.2426 5.63604 17.2426H6.75736V18.364C6.75736 18.9162 7.20507 19.364 7.75736 19.364C8.30964 19.364 8.75736 18.9162 8.75736 18.364V17.2426H11V19.7782C11 20.3305 11.4477 20.7782 12 20.7782C12.5523 20.7782 13 20.3305 13 19.7782V17.2426H15.2426V18.364C15.2426 18.9162 15.6904 19.364 16.2426 19.364C16.7949 19.364 17.2426 18.9162 17.2426 18.364V17.2426H18.364C18.9162 17.2426 19.364 16.7949 19.364 16.2426C19.364 15.6904 18.9162 15.2426 18.364 15.2426H17.2426V13H19.7782C20.3305 13 20.7782 12.5523 20.7782 12C20.7782 11.4477 20.3305 11 19.7782 11L17.2426 11V8.75736L18.364 8.75736C18.9162 8.75736 19.364 8.30964 19.364 7.75736C19.364 7.20507 18.9162 6.75736 18.364 6.75736L17.2426 6.75736V5.63604C17.2426 5.08375 16.7949 4.63604 16.2426 4.63604C15.6904 4.63604 15.2426 5.08375 15.2426 5.63604V6.75736H13V4.22182C13 3.66954 12.5523 3.22182 12 3.22182C11.4477 3.22183 11 3.66954 11 4.22183V6.75736H8.75736V5.63604C8.75736 5.08375 8.30964 4.63604 7.75736 4.63604C7.20507 4.63604 6.75736 5.08375 6.75736 5.63604V6.75736H5.63604Z" fill="black"/>
</g>
<path fill-rule="evenodd" clip-rule="evenodd" d="M4.63687 7.75721C4.63687 7.20493 5.08459 6.75721 5.63687 6.75721H6.75819V5.63589C6.75819 5.08361 7.20591 4.63589 7.75819 4.63589C8.31048 4.63589 8.75819 5.08361 8.75819 5.63589L8.75819 6.75721H11.0008L11.0008 4.22168C11.0008 3.66939 11.4485 3.22168 12.0008 3.22168C12.5531 3.22168 13.0008 3.66939 13.0008 4.22168V6.75721H15.2435V5.63589C15.2435 5.08361 15.6912 4.63589 16.2435 4.63589C16.7958 4.63589 17.2435 5.08361 17.2435 5.63589L17.2435 6.75721L18.3648 6.75721C18.9171 6.75721 19.3648 7.20493 19.3648 7.75721C19.3648 8.3095 18.9171 8.75721 18.3648 8.75721H17.2435V10.9999H19.779C20.3313 10.9999 20.779 11.4476 20.779 11.9999C20.779 12.5521 20.3313 12.9999 19.779 12.9999H17.2435V15.2425H18.3648C18.9171 15.2425 19.3648 15.6902 19.3648 16.2425C19.3648 16.7948 18.9171 17.2425 18.3648 17.2425H17.2435L17.2435 18.3638C17.2435 18.9161 16.7958 19.3638 16.2435 19.3638C15.6912 19.3638 15.2435 18.9161 15.2435 18.3638V17.2425H13.0008V19.778C13.0008 20.3303 12.5531 20.778 12.0008 20.778C11.4485 20.778 11.0008 20.3303 11.0008 19.778L11.0008 17.2425H8.75819L8.75819 18.3638C8.75819 18.9161 8.31048 19.3638 7.75819 19.3638C7.20591 19.3638 6.75819 18.9161 6.75819 18.3638V17.2425H5.63687C5.08459 17.2425 4.63687 16.7948 4.63687 16.2425C4.63687 15.6902 5.08459 15.2425 5.63687 15.2425H6.75819V12.9999H4.22266C3.67037 12.9999 3.22266 12.5521 3.22266 11.9999C3.22266 11.4476 3.67037 10.9999 4.22266 10.9999H6.75819V8.75721H5.63687C5.08459 8.75721 4.63687 8.3095 4.63687 7.75721ZM8.75819 8.75721V10.9999H11.0008L11.0008 8.75721H8.75819ZM13.0008 8.75721V10.9999H15.2435V8.75721H13.0008ZM15.2435 12.9999H13.0008V15.2425H15.2435V12.9999ZM11.0008 15.2425L11.0008 12.9999H8.75819V15.2425H11.0008Z" fill="black"/>
</svg>
