<svg width="24" height="24" viewBox="0 0 24 24" fill="none" xmlns="http://www.w3.org/2000/svg">
<g opacity="0.3">
<path fill-rule="evenodd" clip-rule="evenodd" d="M2.20739 4.3288C2.00422 3.10973 2.9443 2 4.18018 2H19.8193C21.0551 2 21.9952 3.10974 21.792 4.3288L19.2646 19.4932C19.0236 20.9398 17.772 22 16.3055 22H7.69398C6.22746 22 4.97589 20.9398 4.73479 19.4932L2.20739 4.3288ZM19.8193 4L4.18018 4L6.70758 19.1644C6.78795 19.6466 7.20514 20 7.69398 20H16.3055C16.7943 20 17.2115 19.6466 17.2919 19.1644L19.8193 4Z" fill="black"/>
<path d="M14.3536 10.6464C14.1583 10.4512 13.8417 10.4512 13.6464 10.6464L12.2678 12.0251V11.4644C12.2678 11.1882 12.0439 10.9644 11.7678 10.9644H8.23047C7.95433 10.9644 7.73047 11.1882 7.73047 11.4644V14.9999C7.73047 15.276 7.95433 15.4999 8.23047 15.4999H11.7678C12.0439 15.4999 12.2678 15.276 12.2678 14.9999V14.9749L13.6464 16.3536C13.8417 16.5488 14.1583 16.5488 14.3536 16.3536L16.8536 13.8536C17.0488 13.6583 17.0488 13.3417 16.8536 13.1464L14.3536 10.6464Z" fill="black"/>
</g>
<path fill-rule="evenodd" clip-rule="evenodd" d="M15.7071 12L16.8536 13.1464C17.0488 13.3417 17.0488 13.6583 16.8536 13.8536L14.3536 16.3536C14.1583 16.5488 13.8417 16.5488 13.6464 16.3536L12.2695 14.9766V14.9999C12.2695 15.276 12.0457 15.4999 11.7695 15.4999H10.0018L10 15.4999L9.99824 15.4999H8.23047C7.95433 15.4999 7.73047 15.276 7.73047 14.9999V12L5.51172 12.0001L6.70579 19.1645C6.78615 19.6467 7.20334 20.0001 7.69218 20.0001H16.3037C16.7925 20.0001 17.2097 19.6467 17.2901 19.1645L18.4841 12.0001L15.7071 12Z" fill="black"/>
</svg>
