<svg width="24" height="24" viewBox="0 0 24 24" fill="none" xmlns="http://www.w3.org/2000/svg">
<path opacity="0.3" fill-rule="evenodd" clip-rule="evenodd" d="M2.20739 4.3288C2.00422 3.10973 2.9443 2 4.18018 2H19.8193C21.0551 2 21.9952 3.10974 21.792 4.3288L19.2646 19.4932C19.0236 20.9398 17.772 22 16.3055 22H7.69398C6.22746 22 4.97589 20.9398 4.73479 19.4932L2.20739 4.3288ZM19.8193 4L4.18018 4L6.70758 19.1644C6.78795 19.6466 7.20514 20 7.69398 20H16.3055C16.7943 20 17.2115 19.6466 17.2919 19.1644L19.8193 4Z" fill="black"/>
<path d="M18.4841 12H5.51172L6.70579 19.1644C6.78615 19.6466 7.20334 20 7.69218 20H16.3037C16.7925 20 17.2097 19.6466 17.2901 19.1644L18.4841 12Z" fill="black"/>
</svg>
