<svg width="24" height="24" viewBox="0 0 24 24" fill="none" xmlns="http://www.w3.org/2000/svg">
<g opacity="0.3">
<path d="M18.7678 8.6465L20.5308 6.88345C20.4453 6.83798 20.365 6.77922 20.2929 6.70716L17.2929 3.70716C17.2208 3.6351 17.1621 3.55477 17.1166 3.46924L15.3536 5.23229C14.862 5.72388 14.1952 6.00005 13.5 6.00005C12.2744 6.00005 11.0989 6.48694 10.2322 7.3536L9.29289 8.29295L15.7071 14.7072L16.6464 13.7678C17.5131 12.9012 18 11.7257 18 10.5001C18 9.80483 18.2762 9.13809 18.7678 8.6465Z" fill="black"/>
<path d="M7.29289 21.7072C7.68342 22.0977 8.31658 22.0977 8.70711 21.7072L11.7071 18.7072L5.29289 12.2929L2.29289 15.2929C1.90237 15.6835 1.90237 16.3166 2.29289 16.7072L7.29289 21.7072Z" fill="black"/>
</g>
<path fill-rule="evenodd" clip-rule="evenodd" d="M17.2929 2.29289C17.6834 1.90237 18.3166 1.90237 18.7071 2.29289L21.7071 5.29289C22.0976 5.68342 22.0976 6.31658 21.7071 6.70711C21.3166 7.09763 20.6834 7.09763 20.2929 6.70711L17.2929 3.70711C16.9024 3.31658 16.9024 2.68342 17.2929 2.29289Z" fill="black"/>
<path d="M11.7072 18.7072L15.7072 14.7072L9.29297 8.29297L5.29297 12.293L11.7072 18.7072Z" fill="black"/>
</svg>
