<svg width="24" height="24" viewBox="0 0 24 24" fill="none" xmlns="http://www.w3.org/2000/svg">
<path fill-rule="evenodd" clip-rule="evenodd" d="M12.0001 4C9.5148 4 7.50008 6.01472 7.50008 8.5C7.50008 8.69342 7.51229 8.88399 7.53597 9.07099C7.85052 9.02422 8.17243 8.99999 8.5 8.99999C9.78864 8.99999 10.9897 9.37498 12 10.0218C13.0103 9.37498 14.2114 8.99999 15.5 8.99999C15.8276 8.99999 16.1496 9.02423 16.4642 9.07101C16.4879 8.88401 16.5001 8.69343 16.5001 8.5C16.5001 6.01472 14.4854 4 12.0001 4ZM18.3936 9.67799C18.4635 9.29595 18.5001 8.90224 18.5001 8.5C18.5001 4.91015 15.5899 2 12.0001 2C8.41023 2 5.50008 4.91015 5.50008 8.5C5.50008 8.90222 5.53662 9.2959 5.60654 9.67791C3.46876 10.7424 2 12.9497 2 15.5C2 19.0898 4.91015 22 8.5 22C9.78864 22 10.9897 21.625 12 20.9782C13.0103 21.625 14.2114 22 15.5 22C19.0899 22 22 19.0898 22 15.5C22 12.9497 20.5313 10.7425 18.3936 9.67799ZM15.7382 11.0062C15.6593 11.0021 15.5799 11 15.5 11C14.8096 11 14.1556 11.1554 13.571 11.4333C13.8163 11.7387 14.0345 12.0669 14.2221 12.414C14.83 12.0682 15.3495 11.5848 15.7382 11.0062ZM14.8935 14.3221C16.0951 13.7238 17.0853 12.7644 17.7222 11.5861C19.0826 12.3601 20 13.8229 20 15.5C20 17.9853 17.9853 20 15.5 20C14.8096 20 14.1556 19.8445 13.571 19.5667C14.4651 18.4533 15 17.0391 15 15.5C15 15.0978 14.9635 14.7041 14.8935 14.3221ZM12.2381 12.9938C12.1634 12.8827 12.084 12.7751 12 12.6713C11.916 12.7751 11.8366 12.8827 11.7619 12.9938C11.8408 12.9979 11.9202 13 12.0001 13C12.0799 13 12.1593 12.9979 12.2381 12.9938ZM11.0359 14.929C11.3505 14.9758 11.6725 15 12.0001 15C12.3277 15 12.6496 14.9758 12.9641 14.929C12.9878 15.116 13 15.3066 13 15.5C13 16.5716 12.6254 17.5558 12 18.3287C11.3746 17.5558 11 16.5716 11 15.5C11 15.3066 11.0122 15.116 11.0359 14.929ZM9.77789 12.4139C9.96548 12.0668 10.1837 11.7387 10.429 11.4333C9.84439 11.1554 9.19035 11 8.5 11C8.42016 11 8.34082 11.0021 8.262 11.0062C8.65065 11.5847 9.17005 12.0681 9.77789 12.4139ZM6.27794 11.586C6.91476 12.7643 7.90494 13.7237 9.10648 14.322C9.03654 14.704 9 15.0977 9 15.5C9 17.0391 9.53494 18.4533 10.429 19.5667C9.84439 19.8445 9.19035 20 8.5 20C6.01472 20 4 17.9853 4 15.5C4 13.8228 4.91749 12.36 6.27794 11.586Z" fill="black"/>
</svg>
