<svg width="24" height="24" viewBox="0 0 24 24" fill="none" xmlns="http://www.w3.org/2000/svg">
<path d="M15 3H16.587H15Z" fill="black"/>
<path fill-rule="evenodd" clip-rule="evenodd" d="M14 2C14 2.55228 14.4477 3 15 3H16.587L13.4772 6.10975C12.4963 5.41099 11.2961 5 10 5C6.68629 5 4 7.68629 4 11C4 13.973 6.16229 16.441 9 16.917V18.5H7.5C6.94772 18.5 6.5 18.9477 6.5 19.5C6.5 20.0523 6.94772 20.5 7.5 20.5H9V22C9 22.5523 9.44772 23 10 23C10.5523 23 11 22.5523 11 22V20.5H12.5C13.0523 20.5 13.5 20.0523 13.5 19.5C13.5 18.9477 13.0523 18.5 12.5 18.5H11V16.917C13.8377 16.441 16 13.973 16 11C16 9.70448 15.5894 8.50486 14.8912 7.52417L18 4.41541V6C18 6.55228 18.4477 7 19 7C19.5523 7 20 6.55228 20 6V2.04909V2C20 1.44791 19.552 1.00032 19 1H15C14.4477 1 14 1.44772 14 2ZM14 11C14 9.89567 13.5525 8.89587 12.8289 8.17205C12.105 7.44791 11.1048 7 10 7C7.79086 7 6 8.79086 6 11C6 13.2091 7.79086 15 10 15C12.2091 15 14 13.2091 14 11Z" fill="black"/>
</svg>
