<svg width="24" height="24" viewBox="0 0 24 24" fill="none" xmlns="http://www.w3.org/2000/svg">
<path fill-rule="evenodd" clip-rule="evenodd" d="M10 5C10 5.55229 10.4477 6 11 6H12.5874L9.61848 8.96892C8.73225 8.35782 7.65791 8 6.5 8C3.46243 8 1 10.4624 1 13.5C1 16.5376 3.46243 19 6.5 19C9.53757 19 12 16.5376 12 13.5C12 12.3429 11.6427 11.2693 11.0324 10.3834L14 7.41583V9C14 9.55228 14.4477 10 15 10C15.5523 10 16 9.55228 16 9V5.05697V5C16 4.44798 15.5519 4.00043 15 4H11C10.4477 4 10 4.44772 10 5ZM6.5 10C4.567 10 3 11.567 3 13.5C3 15.433 4.567 17 6.5 17C8.433 17 10 15.433 10 13.5C10 11.567 8.433 10 6.5 10Z" fill="black"/>
<path d="M12.1434 16.7274C11.8004 17.3259 11.3649 17.8647 10.8564 18.3242C11.6409 18.755 12.5418 19 13.5 19C16.5376 19 19 16.5376 19 13.5C19 12.3429 18.6427 11.2693 18.0324 10.3834L21 7.41583V9C21 9.55229 21.4477 10 22 10C22.5523 10 23 9.55229 23 9V5.05697V5C23 4.44798 22.5519 4.00043 22 4H18C17.4477 4 17 4.44772 17 5C17 5.55229 17.4477 6 18 6H19.5874L17 8.5874V9C17 9.82852 16.4962 10.5394 15.7783 10.8429C16.5262 11.4848 17 12.4371 17 13.5C17 15.433 15.433 17 13.5 17C13.019 17 12.5606 16.903 12.1434 16.7274Z" fill="black"/>
</svg>
