<svg width="24" height="24" viewBox="0 0 24 24" fill="none" xmlns="http://www.w3.org/2000/svg">
<path fill-rule="evenodd" clip-rule="evenodd" d="M15 4C14.4477 4 14 3.55228 14 3C14 2.44772 14.4477 2 15 2H21C21.552 2.00032 22 2.44791 22 3V9C22 9.55228 21.5523 10 21 10C20.4477 10 20 9.55228 20 9V5.41541L17.9148 7.5006L18.7071 8.29289C19.0976 8.68342 19.0976 9.31658 18.7071 9.70711C18.3166 10.0976 17.6834 10.0976 17.2929 9.70711L16.5006 8.91481L15.4639 9.95156C16.4276 11.2132 17 12.7898 17 14.5C17 18.6421 13.6421 22 9.5 22C5.35786 22 2 18.6421 2 14.5C2 10.3579 5.35786 7 9.5 7C11.2108 7 12.7879 7.57284 14.0498 8.53718L15.0864 7.5006L14.2929 6.70711C13.9024 6.31658 13.9024 5.68342 14.2929 5.29289C14.6834 4.90237 15.3166 4.90237 15.7071 5.29289L16.5006 6.08638L18.587 4H15ZM4 14.5C4 11.4624 6.46243 9 9.5 9C12.5376 9 15 11.4624 15 14.5C15 17.5376 12.5376 20 9.5 20C6.46243 20 4 17.5376 4 14.5Z" fill="black"/>
</svg>
