<svg width="24" height="24" viewBox="0 0 24 24" fill="none" xmlns="http://www.w3.org/2000/svg">
<path fill-rule="evenodd" clip-rule="evenodd" d="M8.24309 1.33081C7.8735 0.920415 7.2412 0.887338 6.83081 1.25693C6.42041 1.62652 6.38734 2.25882 6.75693 2.66921C7.22706 3.19125 7.7752 3.64276 8.38303 4.00566C6.3554 5.23176 5 7.45759 5 10C5 13.5265 7.60771 16.4439 11 16.9291V19H10C9.44772 19 9 19.4477 9 20C9 20.5523 9.44772 21 10 21H11V22C11 22.5523 11.4477 23 12 23C12.5523 23 13 22.5523 13 22V21H14C14.5523 21 15 20.5523 15 20C15 19.4477 14.5523 19 14 19H13V16.9291C16.3923 16.4439 19 13.5265 19 10C19 7.4576 17.6446 5.23177 15.617 4.00567C16.2248 3.64276 16.773 3.19125 17.2431 2.66921C17.6127 2.25882 17.5796 1.62652 17.1692 1.25693C16.7588 0.887338 16.1265 0.920415 15.7569 1.33081C14.8363 2.35303 13.5012 2.99654 12.0121 3.00001C12.0081 3 12.004 3 12 3C11.996 3 11.9919 3 11.9879 3.00001C10.4988 2.99654 9.16368 2.35303 8.24309 1.33081ZM11.9885 5.00001C11.9924 5.00002 11.9962 5.00002 12 5.00002C12.0038 5.00002 12.0076 5.00002 12.0115 5.00001C14.7676 5.0062 17 7.2424 17 10C17 12.7614 14.7614 15 12 15C9.23858 15 7 12.7614 7 10C7 7.24239 9.23239 5.00619 11.9885 5.00001Z" fill="black"/>
</svg>
