<svg width="24" height="24" viewBox="0 0 24 24" fill="none" xmlns="http://www.w3.org/2000/svg">
<path fill-rule="evenodd" clip-rule="evenodd" d="M2 2C2 1.44772 2.44772 1 3 1C3.0005 1 3.00101 1 3.00151 1C3.00165 1 3.00179 1 3.00192 1H7C7.55228 1 8 1.44772 8 2C8 2.55229 7.55228 3 7 3H5.41484L6.49996 4.08582L6.79289 3.79289C7.18342 3.40237 7.81658 3.40237 8.20711 3.79289C8.59763 4.18342 8.59763 4.81658 8.20711 5.20711L7.91373 5.50049L8.46032 6.04743C9.47879 5.38491 10.6944 5 12 5C13.3056 5 14.5213 5.38494 15.5398 6.04751L18.5863 3H17C16.4477 3 16 2.55229 16 2C16 1.44772 16.4477 1 17 1H21C21.5523 1 22 1.44772 22 2V6C22 6.55229 21.5523 7 21 7C20.4477 7 20 6.55229 20 6V4.41476L17.0313 7.38439C17.9492 8.50519 18.5 9.93827 18.5 11.5C18.5 14.7498 16.1151 17.4425 13 17.9236V19H14C14.5523 19 15 19.4477 15 20C15 20.5523 14.5523 21 14 21H13V22C13 22.5523 12.5523 23 12 23C11.4477 23 11 22.5523 11 22V21H10C9.44772 21 9 20.5523 9 20C9 19.4477 9.44772 19 10 19H11V17.9236C7.88491 17.4425 5.5 14.7498 5.5 11.5C5.5 9.93822 6.05081 8.50508 6.96877 7.38426L6.49951 6.9147L6.20711 7.20711C5.81658 7.59763 5.18342 7.59763 4.79289 7.20711C4.40237 6.81658 4.40237 6.18342 4.79289 5.79289L5.08575 5.50004L4 4.41359V6C4 6.55229 3.55228 7 3 7C2.44772 7 2 6.55229 2 6V2ZM12 7C9.51472 7 7.5 9.01472 7.5 11.5C7.5 13.9853 9.51472 16 12 16C14.4853 16 16.5 13.9853 16.5 11.5C16.5 9.01472 14.4853 7 12 7Z" fill="black"/>
</svg>
