<svg width="24" height="24" viewBox="0 0 24 24" fill="none" xmlns="http://www.w3.org/2000/svg">
<path fill-rule="evenodd" clip-rule="evenodd" d="M8 4C5.23858 4 3 6.23858 3 9C3 11.7614 5.23858 14 8 14C10.7614 14 13 11.7614 13 9C13 6.23858 10.7614 4 8 4ZM1 9C1 5.13401 4.13401 2 8 2C11.866 2 15 5.13401 15 9C15 12.5265 12.3923 15.4439 9 15.9291V18H10C10.5523 18 11 18.4477 11 19C11 19.5523 10.5523 20 10 20H9V21C9 21.5523 8.55228 22 8 22C7.44772 22 7 21.5523 7 21V20H6C5.44772 20 5 19.5523 5 19C5 18.4477 5.44772 18 6 18H7V15.9291C3.60771 15.4439 1 12.5265 1 9Z" fill="black"/>
<path d="M14.4372 4.2491C14.9289 4.08745 15.4542 4 16 4C18.7614 4 21 6.23858 21 9C21 11.7614 18.7614 14 16 14C15.4542 14 14.9289 13.9126 14.4372 13.7509C14.0085 14.3308 13.5033 14.8507 12.9365 15.2958C13.5758 15.6075 14.2697 15.8247 15 15.9291V18H14C13.4477 18 13 18.4477 13 19C13 19.5523 13.4477 20 14 20H15V21C15 21.5523 15.4477 22 16 22C16.5523 22 17 21.5523 17 21V20H18C18.5523 20 19 19.5523 19 19C19 18.4477 18.5523 18 18 18H17V15.9291C20.3923 15.4439 23 12.5265 23 9C23 5.13401 19.866 2 16 2C14.9013 2 13.8618 2.25312 12.9365 2.70421C13.5033 3.14925 14.0085 3.66918 14.4372 4.2491Z" fill="black"/>
</svg>
