<svg width="24" height="24" viewBox="0 0 24 24" fill="none" xmlns="http://www.w3.org/2000/svg">
<g opacity="0.3">
<path d="M12.9238 6.11765L13.8488 8.35312L9.63184 10.2994L11.0544 6.17401C11.1899 5.78112 11.5542 5.51298 11.9696 5.50046C12.385 5.48793 12.7649 5.73364 12.9238 6.11765Z" fill="black"/>
<path d="M18.6685 20L17.2821 16.6495C17.2741 16.6282 17.2655 16.6073 17.2561 16.5868L15.3788 12.0498L13.5614 12.8886L14.8489 16H9.78199L10.3426 14.3742L7.82663 15.5354L6.28711 20H8.40268L9.09233 18H15.6764L16.504 20H18.6685Z" fill="black"/>
</g>
<path fill-rule="evenodd" clip-rule="evenodd" d="M20.1891 4.46247C19.2629 2.37859 16.7847 1.48948 14.745 2.50932L14.553 2.60531C14.0748 2.8444 13.8693 3.41732 14.0864 3.90587L15.686 7.50496C12.5947 8.93169 10.7091 9.80197 5 12.4369V9.99976C5 9.44747 4.55228 8.99976 4 8.99976C3.44772 8.99976 3 9.44747 3 9.99976V19.9998C2.44772 19.9998 2 20.4475 2 20.9998C2 21.552 2.44772 21.9998 3 21.9998H6.97585C6.99188 22.0001 7.00788 22.0001 7.02384 21.9998H17.9766C17.9923 22.0001 18.008 22.0001 18.0237 21.9998H21C21.5523 21.9998 22 21.552 22 20.9998C22 20.4475 21.5523 19.9998 21 19.9998C15.3237 19.9998 9.88667 19.9998 5 19.9998V14.6396L16.4983 9.33277L18.0864 12.9059C18.1973 13.1554 18.4055 13.3488 18.6625 13.441C18.9196 13.5332 19.2032 13.5163 19.4474 13.3942L19.8833 13.1762C21.7961 12.2198 22.6183 9.92814 21.7497 7.97394L20.1891 4.46247Z" fill="black"/>
</svg>
