<svg width="24" height="24" viewBox="0 0 24 24" fill="none" xmlns="http://www.w3.org/2000/svg">
<g opacity="0.3">
<path d="M3 11L3 18.6361C2.99998 19.0252 2.99996 19.3753 3.02376 19.6666C3.04925 19.9786 3.10694 20.3101 3.27249 20.635C3.51217 21.1054 3.89462 21.4878 4.36503 21.7275C4.68993 21.8931 5.02141 21.9508 5.33337 21.9762C5.62469 22 5.97483 22 6.36392 22H11.6361C12.0252 22 12.3753 22 12.6666 21.9762C12.9786 21.9508 13.3101 21.8931 13.635 21.7275C14.1054 21.4878 14.4878 21.1054 14.7275 20.635C14.8931 20.3101 14.9508 19.9786 14.9762 19.6666C15 19.3753 15 19.0252 15 18.6361L15 11H13V16H5V11H3Z" fill="black"/>
<path d="M19 11V21C19 21.5523 19.4477 22 20 22C20.5523 22 21 21.5523 21 21V11H19Z" fill="black"/>
</g>
<path fill-rule="evenodd" clip-rule="evenodd" d="M6.85736 1.9997C6.88169 1.99979 6.90543 1.99987 6.92852 1.99987H17.0715C17.0946 1.99987 17.1183 1.99979 17.1426 1.9997C17.4032 1.99876 17.7308 1.99758 18.0403 2.09859C18.3078 2.18592 18.554 2.32876 18.7626 2.51776C19.0038 2.73633 19.1653 3.02136 19.2938 3.24804C19.3058 3.2692 19.3175 3.28986 19.3289 3.30991L22.8682 9.50373C23.0451 9.81324 23.0438 10.1935 22.8649 10.5018C22.686 10.8101 22.3565 10.9999 22 10.9999H2C1.64353 10.9999 1.31401 10.8101 1.13509 10.5018C0.956168 10.1935 0.954898 9.81324 1.13176 9.50373L4.67108 3.30991C4.68254 3.28986 4.69424 3.26921 4.70624 3.24804C4.83468 3.02137 4.99621 2.73633 5.23743 2.51776C5.44603 2.32876 5.69216 2.18592 5.95975 2.09859C6.2692 1.99758 6.59682 1.99876 6.85736 1.9997Z" fill="black"/>
</svg>
