<svg width="24" height="24" viewBox="0 0 24 24" fill="none" xmlns="http://www.w3.org/2000/svg">
<g opacity="0.3">
<path d="M6 10.6492L5.78087 10.3753C5.5911 10.1381 5.30378 10 5 10C4.69622 10 4.4089 10.1381 4.21913 10.3753L2.21913 12.8753C2.07728 13.0526 2 13.2729 2 13.5V21C2 21.5523 2.44772 22 3 22H6V10.6492Z" fill="black"/>
<path d="M18.2191 10.3753L18 10.6492V22H21C21.5523 22 22 21.5523 22 21V13.5C22 13.2729 21.9227 13.0526 21.7809 12.8753L19.7809 10.3753C19.5911 10.1381 19.3038 10 19 10C18.6962 10 18.4089 10.1381 18.2191 10.3753Z" fill="black"/>
</g>
<path d="M7 21.9998V8.66259C7 8.418 7 8.2957 7.02763 8.18062C7.05213 8.07858 7.09253 7.98104 7.14736 7.89156C7.2092 7.79065 7.29568 7.70417 7.46863 7.53122L10.8686 4.13122C11.2646 3.7352 11.4627 3.53719 11.691 3.46301C11.8918 3.39775 12.1082 3.39775 12.309 3.46301C12.5373 3.53719 12.7354 3.7352 13.1314 4.13121L16.5314 7.53122C16.7043 7.70417 16.7908 7.79065 16.8526 7.89156C16.9075 7.98104 16.9479 8.07858 16.9724 8.18062C17 8.2957 17 8.418 17 8.66259V21.9998H14V17.9998C14 16.8953 13.1046 15.9998 12 15.9998C10.8954 15.9998 10 16.8953 10 17.9998V21.9998H7Z" fill="black"/>
</svg>
