<svg width="24" height="24" viewBox="0 0 24 24" fill="none" xmlns="http://www.w3.org/2000/svg">
<path opacity="0.3" fill-rule="evenodd" clip-rule="evenodd" d="M8.66451 11.9719L6.2561 20H9.31675L12.0122 17.7603L14.7854 20H17.7441L15.3357 11.9719C15.2266 11.9904 15.1144 12 15.0001 12H9.00009C8.88574 12 8.77362 11.9904 8.66451 11.9719ZM13.2561 12.0001H10.7441L10.2212 13.7431L11.9942 15.175L13.7667 13.7022L13.2561 12.0001ZM14.3911 15.7836L13.5812 16.4567L14.9166 17.5351L14.3911 15.7836ZM9.06034 17.6127L10.4252 16.4787L9.60039 15.8125L9.06034 17.6127Z" fill="black"/>
<path fill-rule="evenodd" clip-rule="evenodd" d="M11.553 2.10557C11.8345 1.96481 12.1659 1.96481 12.4474 2.10557L18.4474 5.10557C18.9414 5.35256 19.1416 5.95324 18.8946 6.44721C18.6477 6.94119 18.047 7.14142 17.553 6.89443L17 6.61792V10C17 11.1046 16.1046 12 15 12H9C7.89543 12 7 11.1046 7 10V6.61814L6.44743 6.89443C5.95345 7.14142 5.35278 6.94119 5.10579 6.44721C4.8588 5.95324 5.05903 5.35256 5.55301 5.10557L11.553 2.10557ZM10 7C9.44772 7 9 7.44772 9 8C9 8.55228 9.44772 9 10 9H14C14.5523 9 15 8.55228 15 8C15 7.44772 14.5523 7 14 7H10Z" fill="black"/>
<path d="M5 20C4.44772 20 4 20.4477 4 21C4 21.5523 4.44772 22 5 22H19C19.5523 22 20 21.5523 20 21C20 20.4477 19.5523 20 19 20H5Z" fill="black"/>
</svg>
