<svg width="24" height="24" viewBox="0 0 24 24" fill="none" xmlns="http://www.w3.org/2000/svg">
<path opacity="0.3" fill-rule="evenodd" clip-rule="evenodd" d="M12.3827 2.07615C12.7564 2.23093 13 2.59557 13 3.00003V20H17C17.5523 20 18 20.4478 18 21C18 21.5523 17.5523 22 17 22H7C6.44772 22 6 21.5523 6 21C6 20.4478 6.44772 20 7 20H11V5.41425L7.70711 8.70714C7.31658 9.09767 6.68342 9.09767 6.29289 8.70714C5.90237 8.31662 5.90237 7.68345 6.29289 7.29293L11.2929 2.29292C11.5789 2.00692 12.009 1.92137 12.3827 2.07615Z" fill="black"/>
</svg>
