<svg width="24" height="24" viewBox="0 0 24 24" fill="none" xmlns="http://www.w3.org/2000/svg">
<path fill-rule="evenodd" clip-rule="evenodd" d="M5.38268 4.07615C5.75636 4.23093 6 4.59557 6 5.00003V13C6 13.5523 5.55228 14 5 14C4.44772 14 4 13.5523 4 13V7.41424L3.70711 7.70714C3.31658 8.09766 2.68342 8.09766 2.29289 7.70714C1.90237 7.31661 1.90237 6.68345 2.29289 6.29292L4.29289 4.29292C4.57889 4.00692 5.00901 3.92137 5.38268 4.07615ZM11 6.00003C10.8932 6.00003 10.5143 6.12549 10.2223 6.90595C10.0701 7.31283 10 7.69718 10 8.50003C10 9.30288 10.0701 9.68723 10.2223 10.0941C10.5143 10.8746 10.8932 11 11 11C11.1346 11 11.5009 10.9004 11.7683 10.1202C11.9109 9.70415 12 9.27814 12 8.50003C12 7.69718 11.9299 7.31283 11.7777 6.90595C11.4857 6.12549 11.1068 6.00003 11 6.00003ZM8.3491 6.20522C8.75891 5.1097 9.65229 4.00003 11 4.00003C12.3477 4.00003 13.2411 5.1097 13.6509 6.20522C13.9148 6.91064 14 7.55288 14 8.50003C14 9.47192 13.8827 10.12 13.6602 10.7688C13.2407 11.9926 12.3199 13 11 13C9.65229 13 8.75891 11.8904 8.3491 10.7948C8.08522 10.0894 8 9.44718 8 8.50003C8 7.55288 8.08522 6.91064 8.3491 6.20522ZM19 6.00003C18.8044 6.00003 18.4557 6.15266 18.2022 6.73335C18.0667 7.04393 18 7.33612 18 8.00003C18 8.66394 18.0667 8.95613 18.2022 9.26671C18.4557 9.84739 18.8044 10 19 10C19.2276 10 19.5574 9.86646 19.7858 9.29534C19.9165 8.96865 20 8.63588 20 8.00003C20 7.33612 19.9333 7.04393 19.7978 6.73335C19.5443 6.15266 19.1956 6.00003 19 6.00003ZM16.3692 5.93337C16.8175 4.90608 17.741 4.00003 19 4.00003C20.259 4.00003 21.1825 4.90608 21.6308 5.93337C21.9113 6.57619 22 7.16394 22 8.00003C22 8.86418 21.8772 9.45204 21.6428 10.038C21.1842 11.1847 20.2269 12 19 12C17.741 12 16.8175 11.094 16.3692 10.0667C16.0887 9.42387 16 8.83612 16 8.00003C16 7.16394 16.0887 6.57619 16.3692 5.93337Z" fill="black"/>
<path opacity="0.3" fill-rule="evenodd" clip-rule="evenodd" d="M20.9924 13.8761C21.0609 14.4241 20.6722 14.9239 20.1241 14.9924L4.12414 16.9924C3.57612 17.0609 3.07633 16.6722 3.00783 16.1241C2.93932 15.5761 3.32805 15.0763 3.87607 15.0078L19.8761 13.0078C20.4241 12.9393 20.9239 13.3281 20.9924 13.8761ZM19.9942 17.8761C20.0627 18.4241 19.674 18.9239 19.1259 18.9924L11.1259 19.9924C10.5779 20.0609 10.0781 19.6722 10.0096 19.1241C9.94112 18.5761 10.3298 18.0763 10.8779 18.0078L18.8779 17.0078C19.4259 16.9393 19.9257 17.328 19.9942 17.8761Z" fill="black"/>
</svg>
