<svg width="24" height="24" viewBox="0 0 24 24" fill="none" xmlns="http://www.w3.org/2000/svg">
<path opacity="0.3" fill-rule="evenodd" clip-rule="evenodd" d="M14.5693 2.17839C15.0231 2.49314 15.1358 3.11619 14.8211 3.57L11.0021 9.07622C11.3274 9.02609 11.6607 9.00009 12 9.00009C15.5899 9.00009 18.5 11.9102 18.5 15.5001C18.5 19.0899 15.5899 22.0001 12 22.0001C8.41015 22.0001 5.5 19.0899 5.5 15.5001C5.5 13.9441 6.04675 12.5158 6.95862 11.3968L13.1776 2.43018C13.4924 1.97636 14.1154 1.86363 14.5693 2.17839ZM8.52334 12.6428C7.88393 13.4199 7.5 14.4152 7.5 15.5001C7.5 17.9854 9.51472 20.0001 12 20.0001C14.4853 20.0001 16.5 17.9854 16.5 15.5001C16.5 13.0148 14.4853 11.0001 12 11.0001C10.6047 11.0001 9.35766 11.6352 8.53225 12.632C8.5293 12.6356 8.52633 12.6392 8.52334 12.6428Z" fill="black"/>
</svg>
