<svg width="24" height="24" viewBox="0 0 24 24" fill="none" xmlns="http://www.w3.org/2000/svg">
<circle opacity="0.3" cx="12" cy="12" r="10" fill="black"/>
<path fill-rule="evenodd" clip-rule="evenodd" d="M13.5433 6.16061C14.007 6.46069 14.1396 7.07982 13.8395 7.54347L12.2447 10.0075C14.3399 10.1339 16 11.8732 16 14.0001C16 16.2093 14.2091 18.0001 12 18.0001C9.79086 18.0001 8 16.2093 8 14.0001C8 13.0055 8.36302 12.0957 8.96378 11.3959L12.1605 6.45677C12.4606 5.99312 13.0797 5.86053 13.5433 6.16061ZM10.4997 12.6776C10.1887 13.0301 10 13.4931 10 14.0001C10 15.1047 10.8954 16.0001 12 16.0001C13.1046 16.0001 14 15.1047 14 14.0001C14 12.8955 13.1046 12.0001 12 12.0001C11.4121 12.0001 10.8834 12.2538 10.5175 12.6576C10.5116 12.6644 10.5057 12.671 10.4997 12.6776Z" fill="black"/>
</svg>
