<svg width="24" height="24" viewBox="0 0 24 24" fill="none" xmlns="http://www.w3.org/2000/svg">
<path d="M8.00039 12.0001H7.00039M17.0004 12.0001H16.0004M12.0004 8.50009L15.5843 7.42492C16.0858 7.27448 16.3365 7.19926 16.5913 7.16834C16.8616 7.13553 17.1351 7.13968 17.4042 7.18066C17.658 7.21928 17.9063 7.30206 18.403 7.46762C19.9307 7.97688 20.6946 8.2315 21.1851 8.70637C21.7027 9.20752 22.0227 9.87821 22.0865 10.5958C22.147 11.2758 21.8643 12.0298 21.2988 13.5376L20.779 14.9237C20.4983 15.6723 20.358 16.0466 20.1149 16.3224C19.9001 16.5661 19.6293 16.7538 19.3257 16.8693C18.9821 17.0001 18.5823 17.0001 17.7828 17.0001H16.7558C16.4741 17.0001 16.3332 17.0001 16.1952 16.9808C16.0727 16.9636 15.952 16.9351 15.8348 16.8957C15.7027 16.8513 15.5767 16.7883 15.3247 16.6623L14.8626 16.4312C13.8131 15.9064 13.2884 15.6441 12.738 15.5408C12.2505 15.4494 11.7503 15.4494 11.2628 15.5408C10.7124 15.6441 10.1877 15.9064 9.13823 16.4312L8.67606 16.6623C8.42407 16.7883 8.29807 16.8513 8.16603 16.8957C8.04876 16.9351 7.92808 16.9636 7.80555 16.9808C7.66758 17.0001 7.52671 17.0001 7.24498 17.0001H6.218C5.41848 17.0001 5.01873 17.0001 4.6751 16.8693C4.37153 16.7538 4.10067 16.5661 3.88592 16.3224C3.64283 16.0466 3.50247 15.6723 3.22174 14.9237L2.70198 13.5376C2.13652 12.0298 1.8538 11.2758 1.91429 10.5958C1.97813 9.87821 2.2981 9.20752 2.81571 8.70637C3.30616 8.2315 4.07005 7.97688 5.59782 7.46762C6.09449 7.30206 6.34283 7.21928 6.59654 7.18066C6.86572 7.13968 7.13923 7.13553 7.40953 7.16834C7.66429 7.19926 7.91502 7.27448 8.41649 7.42492L12.0004 8.50009Z" stroke="black" stroke-width="2" stroke-linecap="round" stroke-linejoin="round"/>
</svg>
