<svg width="24" height="24" viewBox="0 0 24 24" fill="none" xmlns="http://www.w3.org/2000/svg">
<path d="M6.00815 2.7532C6.34938 2.52688 6.75186 2.41074 7.16121 2.42049C7.45517 2.42749 7.70508 2.51074 7.90962 2.59746C8.09512 2.6761 8.30465 2.78545 8.51876 2.8972L16.4776 7.04966C16.8201 7.22831 17.1352 7.39268 17.3792 7.54977C17.6314 7.71212 17.9364 7.94449 18.1302 8.31249C18.3843 8.795 18.4304 9.36036 18.2578 9.87765C18.1261 10.2722 17.8627 10.5509 17.6402 10.7519C17.6402 10.7519 14.913 12.8251 13.5611 13.8443C13.3409 14.0108 13.0642 14.22 12.7376 14.3251C12.4554 14.4159 12.1565 14.4429 11.8626 14.404C11.5225 14.359 11.2128 14.2027 10.9664 14.0783L10.8988 14.0443L9.78682 13.4883L8.55325 16.8806L8.52424 16.9611C8.4198 17.2521 8.28872 17.6174 8.03973 17.9039C7.82492 18.1511 7.55269 18.3418 7.24694 18.4592C6.89255 18.5953 6.50451 18.5936 6.19534 18.5923L6.10979 18.5921H4.23047V19.5921C4.23047 20.1444 3.78275 20.5921 3.23047 20.5921C2.67818 20.5921 2.23047 20.1444 2.23047 19.5921V15.5921C2.23047 15.0398 2.67818 14.5921 3.23047 14.5921C3.78275 14.5921 4.23047 15.0398 4.23047 15.5921V16.5921H6.10979C6.32493 16.5921 6.43704 16.5916 6.51804 16.5861L6.52546 16.5856L6.52849 16.5788C6.56133 16.5045 6.60014 16.3993 6.67366 16.1971L7.9861 12.5879L4.27991 10.7349C4.04022 10.615 3.8084 10.4992 3.62123 10.3851C3.41693 10.2606 3.18463 10.0917 2.99995 9.83117C2.74553 9.4722 2.61658 9.03935 2.63308 8.59967C2.64506 8.28052 2.74704 8.01202 2.84991 7.79603C2.94416 7.59815 3.07477 7.3743 3.20982 7.14286L5.11324 3.87985C5.23491 3.67122 5.35397 3.46706 5.46906 3.30167C5.59597 3.11932 5.76311 2.91573 6.00815 2.7532Z" fill="black"/>
<path d="M17.546 15.8679L15.4658 14.8278C16.1199 14.3244 16.7931 13.8062 17.4575 13.2945C18.4822 12.5054 19.4883 11.7304 20.3747 11.0474C20.5219 11.1229 20.6598 11.1971 20.7797 11.2704C20.9917 11.4 21.2344 11.5774 21.4222 11.8529C21.6794 12.2299 21.7999 12.6836 21.7637 13.1386C21.7372 13.471 21.6145 13.7454 21.4948 13.9631C21.3844 14.1639 21.2334 14.3904 21.0762 14.6261L20.8297 14.9959C20.7051 15.1828 20.5823 15.3671 20.4652 15.5164C20.3353 15.682 20.1678 15.8645 19.9315 16.009C19.6001 16.2117 19.2169 16.3134 18.8286 16.3019C18.5517 16.2937 18.3157 16.2183 18.1208 16.139C17.945 16.0674 17.7469 15.9684 17.546 15.8679Z" fill="black"/>
</svg>
