<svg width="24" height="24" viewBox="0 0 24 24" fill="none" xmlns="http://www.w3.org/2000/svg">
<g opacity="0.3">
<path d="M6.16146 5.00009H9.56113L6.00386 10.336C5.39014 11.2566 5.33293 12.4402 5.85498 13.4157C6.37704 14.3912 7.39362 15.0001 8.50001 15.0001H8.89445L8.00386 16.336C7.45914 17.1531 7.36813 18.1402 7.67139 19.0001H6.16145C5.63431 19.0001 5.17955 19.0001 4.80498 18.9695C4.40963 18.9372 4.01641 18.8659 3.63803 18.6731C3.07355 18.3855 2.6146 17.9266 2.32698 17.3621C2.13419 16.9837 2.06287 16.5905 2.03057 16.1951C1.99997 15.8206 1.99999 15.3658 2 14.8387V9.16147C1.99999 8.63437 1.99997 8.17961 2.03057 7.80507C2.06287 7.40972 2.13419 7.0165 2.32698 6.63812C2.6146 6.07364 3.07355 5.6147 3.63803 5.32708C4.01641 5.13428 4.40963 5.06297 4.80498 5.03066C5.17953 5.00006 5.63434 5.00008 6.16146 5.00009Z" fill="black"/>
<path d="M16.8385 19.0001H13.4389L16.9962 13.6642C17.6099 12.7436 17.6671 11.56 17.145 10.5845C16.623 9.60906 15.6064 9.00011 14.5 9.00011H14.1056L14.9962 7.66421C15.5409 6.84712 15.6319 5.86001 15.3286 5.00009H16.8386C17.3657 5.00008 17.8205 5.00006 18.195 5.03066C18.5904 5.06297 18.9836 5.13428 19.362 5.32708C19.9265 5.6147 20.3854 6.07364 20.673 6.63812C20.8658 7.0165 20.9371 7.40972 20.9694 7.80507C21 8.17963 21 8.63439 21 9.16153L21 10.0001C21.5523 10.0001 22 10.4478 22 11.0001V13.0001C22 13.5524 21.5523 14.0001 21 14.0001L21 14.8387C21 15.3658 21 15.8206 20.9694 16.1951C20.9371 16.5905 20.8658 16.9837 20.673 17.3621C20.3854 17.9266 19.9265 18.3855 19.362 18.6731C18.9836 18.8659 18.5904 18.9372 18.195 18.9695C17.8205 19.0001 17.3657 19.0001 16.8385 19.0001Z" fill="black"/>
</g>
<path d="M13.3321 6.55481C13.6384 6.09528 13.5142 5.47441 13.0547 5.16806C12.5952 4.8617 11.9743 4.98588 11.668 5.44541L7.66795 11.4454C7.46338 11.7523 7.44431 12.1468 7.61833 12.472C7.79235 12.7971 8.13121 13.0001 8.5 13.0001H12.6315L9.66795 17.4454C9.3616 17.9049 9.48577 18.5258 9.9453 18.8322C10.4048 19.1385 11.0257 19.0143 11.3321 18.5548L15.3321 12.5548C15.5366 12.248 15.5557 11.8534 15.3817 11.5282C15.2077 11.2031 14.8688 11.0001 14.5 11.0001H10.3685L13.3321 6.55481Z" fill="black"/>
</svg>
