<svg width="24" height="24" viewBox="0 0 24 24" fill="none" xmlns="http://www.w3.org/2000/svg">
<path opacity="0.3" d="M14.2551 5.99747C15.9348 4.31776 18.6632 4.61269 20.3378 6.28724L20.6919 6.6414C22.5621 8.51154 22.8756 11.5386 21.0231 13.391L17.2699 17.1442C15.4175 18.9966 12.3904 18.6832 10.5203 16.813L10.1661 16.4589C8.4916 14.7843 8.19666 12.0559 9.87638 10.3762L10.1891 10.0634C10.5797 9.67289 11.2128 9.67289 11.6034 10.0634C11.9939 10.4539 11.9939 11.0871 11.6034 11.4776L11.2906 11.7904C10.552 12.529 10.5165 13.9808 11.5804 15.0447L11.9345 15.3988C13.1939 16.6582 14.9444 16.6413 15.8557 15.73L19.6089 11.9768C20.5202 11.0655 20.5371 9.31503 19.2777 8.05561L18.9236 7.70145C17.8598 6.63763 16.4079 6.6731 15.6693 7.41168L15.3565 7.72445C14.966 8.11497 14.3328 8.11497 13.9423 7.72445C13.5518 7.33392 13.5518 6.70076 13.9423 6.31023L14.2551 5.99747Z" fill="black"/>
<path fill-rule="evenodd" clip-rule="evenodd" d="M6.73032 7.85604C8.58276 6.00359 11.6098 6.31706 13.4799 8.1872L13.8341 8.54136C15.5086 10.2159 15.8036 12.9443 14.1239 14.6241L13.8111 14.9368C13.4206 15.3273 12.7874 15.3273 12.3969 14.9368C12.0064 14.5463 12.0064 13.9131 12.3969 13.5226L12.7097 13.2098C13.4482 12.4713 13.4837 11.0194 12.4199 9.95558L12.0657 9.60142C10.8063 8.342 9.05585 8.35893 8.14453 9.27025L4.39135 13.0234C3.48003 13.9348 3.46309 15.6852 4.72251 16.9446L5.07667 17.2988C6.14049 18.3626 7.59235 18.3271 8.33094 17.5886L8.6437 17.2758C9.03423 16.8853 9.66739 16.8853 10.0579 17.2758C10.4484 17.6663 10.4484 18.2995 10.0579 18.69L9.74515 19.0028C8.06544 20.6825 5.337 20.3875 3.66246 18.713L3.3083 18.3588C1.43815 16.4887 1.12469 13.4617 2.97713 11.6092L6.73032 7.85604Z" fill="black"/>
</svg>
