<svg width="24" height="24" viewBox="0 0 24 24" fill="none" xmlns="http://www.w3.org/2000/svg">
<g opacity="0.3">
<path d="M20.399 11.3765L16.0002 11.3765C16.0002 9.92016 15.2183 8.65005 14.0549 7.95052L16.3208 4.17367C16.6025 3.70414 16.7433 3.46937 16.9751 3.33942C17.1594 3.23608 17.4369 3.18997 17.6448 3.22814C17.9061 3.27614 18.086 3.42796 18.4457 3.73161C20.2344 5.24154 21.486 7.36784 21.8727 9.78295C21.9472 10.248 21.9844 10.4805 21.8909 10.7289C21.8165 10.9265 21.6343 11.1402 21.4509 11.2449C21.2205 11.3765 20.9466 11.3765 20.399 11.3765Z" fill="black"/>
<path d="M12.0002 21.3765C13.3133 21.3765 14.5673 21.1234 15.716 20.6634C16.1516 20.489 16.3694 20.4017 16.5344 20.1938C16.6656 20.0285 16.7554 19.762 16.7509 19.5511C16.7454 19.2857 16.6049 19.0513 16.3239 18.5825L14.0599 14.8056C13.4581 15.168 12.7531 15.3765 11.9993 15.3765C11.2468 15.3765 10.5428 15.1687 9.94161 14.8073L7.67766 18.5827C7.39653 19.0515 7.25596 19.2859 7.25036 19.5513C7.2459 19.7623 7.33569 20.0289 7.4669 20.1942C7.63197 20.4022 7.84982 20.4894 8.28551 20.6638C9.43397 21.1236 10.6876 21.3765 12.0002 21.3765Z" fill="black"/>
<path d="M7.67694 4.17468L9.94155 7.94822C8.77913 8.64797 8.00021 9.92088 8.00021 11.3765H3.60021C3.05257 11.3765 2.77875 11.3765 2.54827 11.2449C2.36488 11.1402 2.18272 10.9265 2.10831 10.7289C2.01478 10.4805 2.05202 10.248 2.12648 9.78296C2.51312 7.36858 3.76402 5.24282 5.55189 3.73297C5.91157 3.42924 6.0914 3.27737 6.35276 3.22932C6.5606 3.19111 6.83811 3.23717 7.02246 3.34049C7.25428 3.4704 7.39516 3.70516 7.67694 4.17468Z" fill="black"/>
</g>
<path d="M12 9.37598C10.8954 9.37598 10 10.2714 10 11.376C10 12.4805 10.8954 13.376 12 13.376C13.1046 13.376 14 12.4805 14 11.376C14 10.2714 13.1046 9.37598 12 9.37598Z" fill="black"/>
</svg>
