<svg width="24" height="24" viewBox="0 0 24 24" fill="none" xmlns="http://www.w3.org/2000/svg">
<path d="M12.5 7.49981L16 3.99981C17.1046 2.89525 18.8954 2.89524 20 3.99981C21.1046 5.10438 21.1046 6.89524 20 7.99981L16.5 11.4998M11 5.99981L18 12.9998M14 13.9998L10.4059 17.5939C9.88703 18.1128 9.6276 18.3722 9.32485 18.5577C9.05644 18.7222 8.7638 18.8434 8.4577 18.9169C8.11243 18.9998 7.74555 18.9998 7.01178 18.9998H6L3 20.9998L5 17.9998V16.988C5 16.2543 5 15.8874 5.08289 15.5421C5.15638 15.236 5.27759 14.9434 5.44208 14.675C5.6276 14.3722 5.88703 14.1128 6.40589 13.5939L10 9.99981L14 13.9998Z" stroke="black" stroke-width="2" stroke-linecap="round" stroke-linejoin="round"/>
</svg>
