<svg width="24" height="24" viewBox="0 0 24 24" fill="none" xmlns="http://www.w3.org/2000/svg">
<path d="M14.0002 7.00016L16.8286 9.82859M3.69763 19.5655L4.26331 20.1312C4.65933 20.5272 4.85734 20.7252 5.08567 20.7994C5.28651 20.8646 5.50286 20.8646 5.7037 20.7994C5.93203 20.7252 6.13004 20.5272 6.52606 20.1312L20.0828 6.57439C20.4788 6.17838 20.6768 5.98037 20.751 5.75204C20.8163 5.5512 20.8163 5.33485 20.751 5.13401C20.6768 4.90568 20.4788 4.70767 20.0828 4.31165L19.5171 3.74597C19.1211 3.34995 18.9231 3.15194 18.6948 3.07775C18.4939 3.01249 18.2776 3.01249 18.0767 3.07775C17.8484 3.15194 17.6504 3.34995 17.2544 3.74597L3.69763 17.3027C3.30161 17.6987 3.1036 17.8968 3.02941 18.1251C2.96415 18.3259 2.96415 18.5423 3.02941 18.7431C3.1036 18.9714 3.30161 19.1695 3.69763 19.5655Z" stroke="black" stroke-width="2" stroke-linecap="round" stroke-linejoin="round"/>
</svg>
