<svg width="24" height="24" viewBox="0 0 24 24" fill="none" xmlns="http://www.w3.org/2000/svg">
<g opacity="0.14">
<path d="M8.00851 5.49976C8.00851 6.88047 6.88923 7.99976 5.50851 7.99976C4.1278 7.99976 3.00851 6.88047 3.00851 5.49976C3.00851 4.11904 4.1278 2.99976 5.50851 2.99976C6.88923 2.99976 8.00851 4.11904 8.00851 5.49976Z" fill="black"/>
<path d="M8.0083 18.4998C8.0083 19.8805 6.88901 20.9998 5.5083 20.9998C4.12759 20.9998 3.0083 19.8805 3.0083 18.4998C3.0083 17.1191 4.12759 15.9998 5.5083 15.9998C6.88901 15.9998 8.0083 17.1191 8.0083 18.4998Z" fill="black"/>
<path d="M21 18.4996C21 19.8803 19.8807 20.9996 18.5 20.9996C17.1193 20.9996 16 19.8803 16 18.4996C16 17.1189 17.1193 15.9996 18.5 15.9996C19.8807 15.9996 21 17.1189 21 18.4996Z" fill="black"/>
</g>
<path d="M5.5 8C6.88071 8 8 6.88071 8 5.5C8 4.11929 6.88071 3 5.5 3C4.11929 3 3 4.11929 3 5.5C3 6.88071 4.11929 8 5.5 8ZM5.5 8V16M5.5 16C4.11929 16 3 17.1193 3 18.5C3 19.8807 4.11929 21 5.5 21C6.88071 21 8 19.8807 8 18.5C8 17.1193 6.88071 16 5.5 16ZM18.5 16V8.7C18.5 7.5799 18.5 7.01984 18.282 6.59202C18.0903 6.21569 17.7843 5.90973 17.408 5.71799C16.9802 5.5 16.4201 5.5 15.3 5.5H12M18.5 16C19.8807 16 21 17.1193 21 18.5C21 19.8807 19.8807 21 18.5 21C17.1193 21 16 19.8807 16 18.5C16 17.1193 17.1193 16 18.5 16ZM12 5.5L14.5 8M12 5.5L14.5 3" stroke="black" stroke-width="2" stroke-linecap="round" stroke-linejoin="round"/>
</svg>
