<svg width="24" height="24" viewBox="0 0 24 24" fill="none" xmlns="http://www.w3.org/2000/svg">
<path fill-rule="evenodd" clip-rule="evenodd" d="M2 12C2 6.47715 6.47715 2 12 2C17.5228 2 22 6.47715 22 12C22 17.5228 17.5228 22 12 22C6.47715 22 2 17.5228 2 12ZM8.78087 7.37536C8.51557 7.04374 8.06974 6.91585 7.66899 7.05643C7.26825 7.197 7 7.57537 7 8.00006V16.0001C7 16.5523 7.44772 17.0001 8 17.0001C8.55228 17.0001 9 16.5523 9 16.0001V10.8508L11.2191 13.6248C11.4089 13.862 11.6962 14.0001 12 14.0001C12.3038 14.0001 12.5911 13.862 12.7809 13.6248L15 10.8508V16.0001C15 16.5523 15.4477 17.0001 16 17.0001C16.5523 17.0001 17 16.5523 17 16.0001V8.00006C17 7.57537 16.7318 7.197 16.331 7.05643C15.9303 6.91585 15.4844 7.04374 15.2191 7.37536L12 11.3993L8.78087 7.37536Z" fill="black"/>
</svg>
