<svg width="24" height="24" viewBox="0 0 24 24" fill="none" xmlns="http://www.w3.org/2000/svg">
<path d="M11.5 16H10V8H11.5C13.7091 8 15.5 9.79086 15.5 12C15.5 14.2091 13.7091 16 11.5 16Z" fill="black"/>
<path fill-rule="evenodd" clip-rule="evenodd" d="M2 12C2 6.47715 6.47715 2 12 2C17.5228 2 22 6.47715 22 12C22 17.5228 17.5228 22 12 22C6.47715 22 2 17.5228 2 12ZM9 6C8.44772 6 8 6.44772 8 7V17C8 17.5523 8.44772 18 9 18H11.5C14.8137 18 17.5 15.3137 17.5 12C17.5 8.68629 14.8137 6 11.5 6H9Z" fill="black"/>
</svg>
