<svg width="24" height="24" viewBox="0 0 24 24" fill="none" xmlns="http://www.w3.org/2000/svg">
<path fill-rule="evenodd" clip-rule="evenodd" d="M2 12C2 6.47715 6.47715 2 12 2C17.5228 2 22 6.47715 22 12C22 17.5228 17.5228 22 12 22C6.47715 22 2 17.5228 2 12ZM8.70711 7.79289C8.31658 7.40237 7.68342 7.40237 7.29289 7.79289C6.90237 8.18342 6.90237 8.81658 7.29289 9.20711L11 12.9142V16.5C11 17.0523 11.4477 17.5 12 17.5C12.5523 17.5 13 17.0523 13 16.5V12.9142L16.7071 9.20711C17.0976 8.81658 17.0976 8.18342 16.7071 7.79289C16.3166 7.40237 15.6834 7.40237 15.2929 7.79289L12 11.0858L8.70711 7.79289Z" fill="black"/>
</svg>
