<svg width="24" height="24" viewBox="0 0 24 24" fill="none" xmlns="http://www.w3.org/2000/svg">
<path fill-rule="evenodd" clip-rule="evenodd" d="M2 12C2 6.47715 6.47715 2 12 2C17.5228 2 22 6.47715 22 12C22 17.5228 17.5228 22 12 22C6.47715 22 2 17.5228 2 12ZM9.5 6C8.94772 6 8.5 6.44772 8.5 7V17C8.5 17.5523 8.94772 18 9.5 18C10.0523 18 10.5 17.5523 10.5 17V14H12.5C14.7091 14 16.5 12.2091 16.5 10C16.5 7.79086 14.7091 6 12.5 6H9.5ZM12.5 12H10.5V8H12.5C13.6046 8 14.5 8.89543 14.5 10C14.5 11.1046 13.6046 12 12.5 12Z" fill="black"/>
</svg>
