<svg width="24" height="24" viewBox="0 0 24 24" fill="none" xmlns="http://www.w3.org/2000/svg">
<path d="M12.0002 9.46221L13.3504 12.5H10.6501L12.0002 9.46221Z" fill="black"/>
<path fill-rule="evenodd" clip-rule="evenodd" d="M2 12C2 6.47715 6.47715 2 12 2C17.5228 2 22 6.47715 22 12C22 17.5228 17.5228 22 12 22C6.47715 22 2 17.5228 2 12ZM12.0002 6C12.3954 6 12.7536 6.23273 12.9141 6.59386L16.9141 15.5939C17.1384 16.0985 16.9111 16.6895 16.4064 16.9138C15.9017 17.1381 15.3107 16.9108 15.0864 16.4061L14.2393 14.5H9.76123L8.91406 16.4061C8.68976 16.9108 8.0988 17.1381 7.59411 16.9138C7.08943 16.6895 6.86213 16.0985 7.08644 15.5939L8.171 13.1536C8.18588 13.1133 8.20328 13.0742 8.22302 13.0366L11.0864 6.59386C11.2469 6.23273 11.6051 6 12.0002 6Z" fill="black"/>
</svg>
