<svg width="24" height="24" viewBox="0 0 24 24" fill="none" xmlns="http://www.w3.org/2000/svg">
<path fill-rule="evenodd" clip-rule="evenodd" d="M2 12C2 6.47715 6.47715 2 12 2C17.5228 2 22 6.47715 22 12C22 17.5228 17.5228 22 12 22C6.47715 22 2 17.5228 2 12ZM15 9C15.5523 9 16 8.55228 16 8C16 7.44772 15.5523 7 15 7H9C8.44772 7 8 7.44772 8 8C8 8.55228 8.44772 9 9 9H11V15H9C8.44772 15 8 15.4477 8 16C8 16.5523 8.44772 17 9 17H15C15.5523 17 16 16.5523 16 16C16 15.4477 15.5523 15 15 15H13V9H15Z" fill="black"/>
</svg>
