<svg width="24" height="24" viewBox="0 0 24 24" fill="none" xmlns="http://www.w3.org/2000/svg">
<path fill-rule="evenodd" clip-rule="evenodd" d="M2 12C2 6.47715 6.47715 2 12 2C17.5228 2 22 6.47715 22 12C22 17.5228 17.5228 22 12 22C6.47715 22 2 17.5228 2 12ZM8 12C8 9.79086 9.79086 8 12 8C13.3078 8 14.469 8.6266 15.2005 9.60019C15.5323 10.0417 16.1591 10.1307 16.6007 9.79901C17.0422 9.46726 17.1312 8.84039 16.7995 8.39884C15.7065 6.94409 13.9634 6 12 6C8.68629 6 6 8.68629 6 12C6 15.3137 8.68629 18 12 18C13.9637 18 15.7067 17.0555 16.7995 15.6006C17.1312 15.159 17.0422 14.5322 16.6006 14.2005C16.159 13.8688 15.5322 13.9578 15.2005 14.3994C14.4689 15.3732 13.3078 16 12 16C9.79086 16 8 14.2091 8 12Z" fill="black"/>
</svg>
