<svg width="24" height="24" viewBox="0 0 24 24" fill="none" xmlns="http://www.w3.org/2000/svg">
<path fill-rule="evenodd" clip-rule="evenodd" d="M2 12C2 6.47715 6.47715 2 12 2C17.5228 2 22 6.47715 22 12C22 17.5228 17.5228 22 12 22C6.47715 22 2 17.5228 2 12ZM9.8 7.39994C9.54174 7.0556 9.09211 6.91514 8.68377 7.05126C8.27543 7.18737 8 7.56951 8 7.99994V15.9999C8 16.5522 8.44772 16.9999 9 16.9999C9.55228 16.9999 10 16.5522 10 15.9999V10.9999L14.2 16.5999C14.4583 16.9443 14.9079 17.0847 15.3162 16.9486C15.7246 16.8125 16 16.4304 16 15.9999V7.99994C16 7.44766 15.5523 6.99994 15 6.99994C14.4477 6.99994 14 7.44766 14 7.99994V12.9999L9.8 7.39994Z" fill="black"/>
</svg>
