<svg width="24" height="24" viewBox="0 0 24 24" fill="none" xmlns="http://www.w3.org/2000/svg">
<path d="M14 10C14 10.985 13.2879 11.8037 12.3505 11.9694C12.3395 11.9711 12.3285 11.9729 12.3174 11.9749C12.2141 11.9914 12.108 12 12 12H10V8H12C13.1046 8 14 8.89543 14 10Z" fill="black"/>
<path fill-rule="evenodd" clip-rule="evenodd" d="M2 12C2 6.47715 6.47715 2 12 2C17.5228 2 22 6.47715 22 12C22 17.5228 17.5228 22 12 22C6.47715 22 2 17.5228 2 12ZM8 7C8 6.44772 8.44772 6 9 6H12C14.2091 6 16 7.79086 16 10C16 11.4838 15.1921 12.7789 13.9921 13.4694L15.8506 16.4738C16.1411 16.9435 15.9959 17.5598 15.5262 17.8503C15.0565 18.1409 14.4402 17.9956 14.1497 17.526L11.9686 14H10V17C10 17.5523 9.55228 18 9 18C8.44772 18 8 17.5523 8 17V7Z" fill="black"/>
</svg>
