<svg width="24" height="24" viewBox="0 0 24 24" fill="none" xmlns="http://www.w3.org/2000/svg">
<path fill-rule="evenodd" clip-rule="evenodd" d="M2 12C2 6.47715 6.47715 2 12 2C17.5228 2 22 6.47715 22 12C22 17.5228 17.5228 22 12 22C6.47715 22 2 17.5228 2 12ZM7.92334 9.1154C7.71092 8.6056 7.12545 8.36452 6.61565 8.57694C6.10584 8.78936 5.86477 9.37483 6.07718 9.88463L8.57718 15.8846C8.73245 16.2573 9.09656 16.5 9.50026 16.5C9.90396 16.5 10.2681 16.2573 10.4233 15.8846L12.0003 12.1L13.5772 15.8846C13.7325 16.2573 14.0966 16.5 14.5003 16.5C14.904 16.5 15.2681 16.2573 15.4233 15.8846L17.9233 9.88463C18.1358 9.37483 17.8947 8.78936 17.3849 8.57694C16.8751 8.36452 16.2896 8.6056 16.0772 9.1154L14.5003 12.9L12.9233 9.1154C12.7681 8.74275 12.404 8.50002 12.0003 8.50002C11.5966 8.50002 11.2325 8.74275 11.0772 9.1154L9.50026 12.9L7.92334 9.1154Z" fill="black"/>
</svg>
