<svg width="24" height="24" viewBox="0 0 24 24" fill="none" xmlns="http://www.w3.org/2000/svg">
<path d="M14 9.5C14 10.3284 13.3284 11 12.5 11H10V8H12.5C13.3284 8 14 8.67157 14 9.5Z" fill="black"/>
<path d="M10 16V13H13.5C14.3284 13 15 13.6716 15 14.5C15 15.3284 14.3284 16 13.5 16H10Z" fill="black"/>
<path fill-rule="evenodd" clip-rule="evenodd" d="M2 12C2 6.47715 6.47715 2 12 2C17.5228 2 22 6.47715 22 12C22 17.5228 17.5228 22 12 22C6.47715 22 2 17.5228 2 12ZM8 7C8 6.44772 8.44772 6 9 6H12.5C14.433 6 16 7.567 16 9.5C16 10.2566 15.7599 10.9571 15.3519 11.5295C16.3416 12.1478 17 13.247 17 14.5C17 16.433 15.433 18 13.5 18H9C8.44772 18 8 17.5523 8 17V7Z" fill="black"/>
</svg>
