<svg width="24" height="24" viewBox="0 0 24 24" fill="none" xmlns="http://www.w3.org/2000/svg">
<path fill-rule="evenodd" clip-rule="evenodd" d="M2.70183 2.04556C3.11936 1.91513 3.5732 2.07122 3.82219 2.43086L12 14.2433L20.1778 2.43086C20.4268 2.07122 20.8806 1.91513 21.2982 2.04556C21.7157 2.17599 22 2.56265 22 3.00007V21.0001C22 21.5524 21.5523 22.0001 21 22.0001C20.4477 22.0001 20 21.5524 20 21.0001V6.20134L12.8222 16.5693C12.6354 16.8391 12.3281 17.0001 12 17.0001C11.6719 17.0001 11.3646 16.8391 11.1778 16.5693L4 6.20134V21.0001C4 21.5524 3.55228 22.0001 3 22.0001C2.44772 22.0001 2 21.5524 2 21.0001V3.00007C2 2.56265 2.2843 2.17599 2.70183 2.04556Z" fill="black"/>
</svg>
