<svg width="24" height="24" viewBox="0 0 24 24" fill="none" xmlns="http://www.w3.org/2000/svg">
<path fill-rule="evenodd" clip-rule="evenodd" d="M4.67546 2.05419C5.07954 1.91554 5.52707 2.0489 5.78935 2.38612L18 18.0855V3.00006C18 2.44778 18.4477 2.00006 19 2.00006C19.5523 2.00006 20 2.44778 20 3.00006V21.0001C20 21.4273 19.7286 21.8073 19.3245 21.9459C18.9205 22.0846 18.4729 21.9512 18.2106 21.614L6 5.9146V21.0001C6 21.5523 5.55228 22.0001 5 22.0001C4.44772 22.0001 4 21.5523 4 21.0001V3.00006C4 2.57286 4.27138 2.19283 4.67546 2.05419Z" fill="black"/>
</svg>
