<svg width="24" height="24" viewBox="0 0 24 24" fill="none" xmlns="http://www.w3.org/2000/svg">
<path fill-rule="evenodd" clip-rule="evenodd" d="M5 3C5 2.44772 5.44772 2 6 2H13C16.3137 2 19 4.68629 19 8C19 10.7382 17.1658 13.0479 14.659 13.7677L18.848 20.47C19.1407 20.9383 18.9983 21.5553 18.53 21.848C18.0617 22.1407 17.4447 21.9983 17.152 21.53L12.4458 14H7V21C7 21.5523 6.55228 22 6 22C5.44772 22 5 21.5523 5 21V3ZM7 4V12H13C15.2091 12 17 10.2091 17 8C17 5.79086 15.2091 4 13 4H7Z" fill="black"/>
</svg>
