<svg width="24" height="24" viewBox="0 0 24 24" fill="none" xmlns="http://www.w3.org/2000/svg">
<path fill-rule="evenodd" clip-rule="evenodd" d="M10.9274 4C8.91262 4 7.35374 5.76587 7.60364 7.76512C7.78247 9.19578 8.85671 10.3515 10.2705 10.6343L14.1222 11.4046C16.3801 11.8562 18.0957 13.7019 18.3814 15.9868C18.7805 19.1798 16.2908 22 13.073 22H12.7405C10.7832 22 8.85272 21.5443 7.10203 20.6689L5.55301 19.8944C5.05903 19.6474 4.8588 19.0468 5.10579 18.5528C5.35278 18.0588 5.95345 17.8586 6.44743 18.1056L7.99646 18.8801C9.46943 19.6166 11.0937 20 12.7405 20H13.073C15.0878 20 16.6467 18.2341 16.3968 16.2349C16.218 14.8042 15.1437 13.6485 13.7299 13.3657L9.87827 12.5954C7.62034 12.1438 5.90469 10.2981 5.61909 8.01319C5.21997 4.82024 7.70962 2 10.9274 2H11.2599C13.2173 2 15.1477 2.45572 16.8984 3.33106L18.4474 4.10557C18.9414 4.35256 19.1416 4.95324 18.8946 5.44721C18.6477 5.94119 18.047 6.14142 17.553 5.89443L16.004 5.11991C14.531 4.38343 12.9068 4 11.2599 4H10.9274Z" fill="black"/>
</svg>
