<svg width="24" height="24" viewBox="0 0 24 24" fill="none" xmlns="http://www.w3.org/2000/svg">
<path fill-rule="evenodd" clip-rule="evenodd" d="M3 6C3 4.34315 4.34315 3 6 3H18C19.6569 3 21 4.34315 21 6V18C21 19.6569 19.6569 21 18 21H6C4.34315 21 3 19.6569 3 18V6ZM7.92334 8.6154C7.71092 8.1056 7.12545 7.86452 6.61565 8.07694C6.10584 8.28936 5.86477 8.87483 6.07718 9.38463L8.57718 15.3846C8.73245 15.7573 9.09656 16 9.50026 16C9.90396 16 10.2681 15.7573 10.4233 15.3846L12.0003 11.6L13.5772 15.3846C13.7325 15.7573 14.0966 16 14.5003 16C14.904 16 15.2681 15.7573 15.4233 15.3846L17.9233 9.38463C18.1358 8.87483 17.8947 8.28936 17.3849 8.07694C16.8751 7.86452 16.2896 8.1056 16.0772 8.6154L14.5003 12.4L12.9233 8.6154C12.7681 8.24275 12.404 8.00002 12.0003 8.00002C11.5966 8.00002 11.2325 8.24275 11.0772 8.6154L9.50026 12.4L7.92334 8.6154Z" fill="black"/>
</svg>
