<svg width="24" height="24" viewBox="0 0 24 24" fill="none" xmlns="http://www.w3.org/2000/svg">
<path fill-rule="evenodd" clip-rule="evenodd" d="M3 6C3 4.34315 4.34315 3 6 3H18C19.6569 3 21 4.34315 21 6V18C21 19.6569 19.6569 21 18 21H6C4.34315 21 3 19.6569 3 18V6ZM10 8C10 7.44772 9.55228 7 9 7C8.44772 7 8 7.44772 8 8V13C8 15.2091 9.79086 17 12 17C14.2091 17 16 15.2091 16 13V8C16 7.44772 15.5523 7 15 7C14.4477 7 14 7.44772 14 8V13C14 14.1046 13.1046 15 12 15C10.8954 15 10 14.1046 10 13V8Z" fill="black"/>
</svg>
