<svg width="24" height="24" viewBox="0 0 24 24" fill="none" xmlns="http://www.w3.org/2000/svg">
<path fill-rule="evenodd" clip-rule="evenodd" d="M3 6C3 4.34315 4.34315 3 6 3H18C19.6569 3 21 4.34315 21 6V18C21 19.6569 19.6569 21 18 21H6C4.34315 21 3 19.6569 3 18V6ZM9.87868 9.87868C11.0503 8.70711 12.9497 8.70711 14.1213 9.87868C14.5118 10.2692 15.145 10.2692 15.5355 9.87868C15.9261 9.48816 15.9261 8.85499 15.5355 8.46447C13.5829 6.51184 10.4171 6.51184 8.46447 8.46447C6.51184 10.4171 6.51184 13.5829 8.46447 15.5355C10.4171 17.4882 13.5829 17.4882 15.5355 15.5355C15.9261 15.145 15.9261 14.5118 15.5355 14.1213C15.145 13.7308 14.5118 13.7308 14.1213 14.1213C12.9497 15.2929 11.0503 15.2929 9.87868 14.1213C8.70711 12.9497 8.70711 11.0503 9.87868 9.87868Z" fill="black"/>
</svg>
