<svg width="24" height="24" viewBox="0 0 24 24" fill="none" xmlns="http://www.w3.org/2000/svg">
<path fill-rule="evenodd" clip-rule="evenodd" d="M3 6C3 4.34315 4.34315 3 6 3H18C19.6569 3 21 4.34315 21 6V18C21 19.6569 19.6569 21 18 21H6C4.34315 21 3 19.6569 3 18V6ZM16 7C16 6.44772 15.5523 6 15 6C14.4477 6 14 6.44772 14 7V14C14 15.1046 13.1046 16 12 16C10.8954 16 10 15.1046 10 14C10 13.4477 9.55228 13 9 13C8.44772 13 8 13.4477 8 14C8 16.2091 9.79086 18 12 18C14.2091 18 16 16.2091 16 14V7Z" fill="black"/>
</svg>
