<svg width="24" height="24" viewBox="0 0 24 24" fill="none" xmlns="http://www.w3.org/2000/svg">
<path fill-rule="evenodd" clip-rule="evenodd" d="M3 6C3 4.34315 4.34315 3 6 3H18C19.6569 3 21 4.34315 21 6V18C21 19.6569 19.6569 21 18 21H6C4.34315 21 3 19.6569 3 18V6ZM9.00001 7C8.44772 7 8.00001 7.44772 8.00001 8C8.00001 8.55228 8.44772 9 9.00001 9H13L8.20001 15.4C7.97274 15.703 7.93619 16.1084 8.10558 16.4472C8.27497 16.786 8.62123 17 9.00001 17H15C15.5523 17 16 16.5523 16 16C16 15.4477 15.5523 15 15 15H11L15.8 8.6C16.0273 8.29698 16.0638 7.89157 15.8944 7.55279C15.725 7.214 15.3788 7 15 7H9.00001Z" fill="black"/>
</svg>
