<svg width="24" height="24" viewBox="0 0 24 24" fill="none" xmlns="http://www.w3.org/2000/svg">
<path fill-rule="evenodd" clip-rule="evenodd" d="M3 6C3 4.34315 4.34315 3 6 3H18C19.6569 3 21 4.34315 21 6V18C21 19.6569 19.6569 21 18 21H6C4.34315 21 3 19.6569 3 18V6ZM10 8C10 7.44772 9.55228 7 9 7C8.44772 7 8 7.44772 8 8V16C8 16.5523 8.44772 17 9 17C9.55228 17 10 16.5523 10 16V14.4142L11 13.4142L14.2929 16.7071C14.6834 17.0976 15.3166 17.0976 15.7071 16.7071C16.0976 16.3166 16.0976 15.6834 15.7071 15.2929L12.4142 12L15.7071 8.70711C16.0976 8.31658 16.0976 7.68342 15.7071 7.29289C15.3166 6.90237 14.6834 6.90237 14.2929 7.29289L10 11.5858V8Z" fill="black"/>
</svg>
