<svg width="24" height="24" viewBox="0 0 24 24" fill="none" xmlns="http://www.w3.org/2000/svg">
<path d="M12 12H10V8H12C13.1046 8 14 8.89543 14 10C14 10.9863 13.2861 11.8058 12.3468 11.97C12.3382 11.9714 12.3296 11.9728 12.3209 11.9744C12.2164 11.9912 12.1092 12 12 12Z" fill="black"/>
<path fill-rule="evenodd" clip-rule="evenodd" d="M3 6C3 4.34315 4.34315 3 6 3H18C19.6569 3 21 4.34315 21 6V18C21 19.6569 19.6569 21 18 21H6C4.34315 21 3 19.6569 3 18V6ZM9 6C8.44772 6 8 6.44772 8 7V17C8 17.5523 8.44772 18 9 18C9.55228 18 10 17.5523 10 17V14H11.9684L14.1496 17.5261C14.4401 17.9958 15.0564 18.141 15.5261 17.8504C15.9958 17.5599 16.141 16.9436 15.8504 16.4739L13.992 13.4695C15.192 12.779 16 11.4839 16 10C16 7.79086 14.2091 6 12 6H9Z" fill="black"/>
</svg>
