<svg width="24" height="24" viewBox="0 0 24 24" fill="none" xmlns="http://www.w3.org/2000/svg">
<path fill-rule="evenodd" clip-rule="evenodd" d="M3 6C3 4.34315 4.34315 3 6 3H18C19.6569 3 21 4.34315 21 6V18C21 19.6569 19.6569 21 18 21H6C4.34315 21 3 19.6569 3 18V6ZM9.25259 7.34151C8.88891 6.92587 8.25715 6.88375 7.84151 7.24744C7.42587 7.61112 7.38375 8.24288 7.74744 8.65852L10.6712 12L7.74744 15.3415C7.38375 15.7571 7.42587 16.3889 7.84151 16.7526C8.25715 17.1163 8.88891 17.0742 9.25259 16.6585L12 13.5186L14.7474 16.6585C15.1111 17.0742 15.7429 17.1163 16.1585 16.7526C16.5742 16.3889 16.6163 15.7571 16.2526 15.3415L13.3288 12L16.2526 8.65852C16.6163 8.24288 16.5742 7.61112 16.1585 7.24744C15.7429 6.88375 15.1111 6.92587 14.7474 7.34151L12 10.4814L9.25259 7.34151Z" fill="black"/>
</svg>
