<svg width="24" height="24" viewBox="0 0 24 24" fill="none" xmlns="http://www.w3.org/2000/svg">
<path fill-rule="evenodd" clip-rule="evenodd" d="M3 6C3 4.34315 4.34315 3 6 3H18C19.6569 3 21 4.34315 21 6V18C21 19.6569 19.6569 21 18 21H6C4.34315 21 3 19.6569 3 18V6ZM9.8 7.4C9.54174 7.05566 9.09211 6.91521 8.68377 7.05132C8.27543 7.18743 8 7.56957 8 8V16C8 16.5523 8.44772 17 9 17C9.55228 17 10 16.5523 10 16V11L14.2 16.6C14.4583 16.9443 14.9079 17.0848 15.3162 16.9487C15.7246 16.8126 16 16.4304 16 16V8C16 7.44772 15.5523 7 15 7C14.4477 7 14 7.44772 14 8V13L9.8 7.4Z" fill="black"/>
</svg>
