<svg width="24" height="24" viewBox="0 0 24 24" fill="none" xmlns="http://www.w3.org/2000/svg">
<path fill-rule="evenodd" clip-rule="evenodd" d="M3 6C3 4.34315 4.34315 3 6 3H18C19.6569 3 21 4.34315 21 6V18C21 19.6569 19.6569 21 18 21H6C4.34315 21 3 19.6569 3 18V6ZM10.0002 9.43622C10.0002 8.64302 10.6432 8 11.4364 8H11.5157C12.3367 8 13.1465 8.19116 13.8808 8.55834L14.553 8.89443C15.047 9.14142 15.6477 8.94119 15.8946 8.44721C16.1416 7.95324 15.9414 7.35256 15.4474 7.10557L14.7753 6.76948C13.7632 6.26345 12.6472 6 11.5157 6H11.4364C9.53866 6 8.00022 7.53845 8.00022 9.43622C8.00022 11.116 9.21462 12.5495 10.8715 12.8257L12.8001 13.1471C13.4926 13.2625 14.0002 13.8617 14.0002 14.5638C14.0002 15.357 13.3572 16 12.564 16H12.4848C11.6637 16 10.854 15.8088 10.1196 15.4417L9.44743 15.1056C8.95345 14.8586 8.35278 15.0588 8.10579 15.5528C7.8588 16.0468 8.05903 16.6474 8.55301 16.8944L9.22519 17.2305C10.2373 17.7366 11.3532 18 12.4848 18H12.564C14.4618 18 16.0002 16.4616 16.0002 14.5638C16.0002 12.884 14.7858 11.4505 13.1289 11.1743L11.2003 10.8529C10.5078 10.7375 10.0002 10.1383 10.0002 9.43622Z" fill="black"/>
</svg>
