<svg width="24" height="24" viewBox="0 0 24 24" fill="none" xmlns="http://www.w3.org/2000/svg">
<path d="M12 12H10V8H12C13.1046 8 14 8.89543 14 10C14 11.1046 13.1046 12 12 12Z" fill="black"/>
<path fill-rule="evenodd" clip-rule="evenodd" d="M3 6C3 4.34315 4.34315 3 6 3H18C19.6569 3 21 4.34315 21 6V18C21 19.6569 19.6569 21 18 21H6C4.34315 21 3 19.6569 3 18V6ZM9 6C8.44772 6 8 6.44772 8 7V17C8 17.5523 8.44772 18 9 18C9.55228 18 10 17.5523 10 17V14H12C14.2091 14 16 12.2091 16 10C16 7.79086 14.2091 6 12 6H9Z" fill="black"/>
</svg>
