<svg width="24" height="24" viewBox="0 0 24 24" fill="none" xmlns="http://www.w3.org/2000/svg">
<path fill-rule="evenodd" clip-rule="evenodd" d="M2.73261 2.03625C3.26475 1.88843 3.81596 2.19999 3.96377 2.73212L7.89242 16.8753L11.0241 2.78283C11.1236 2.33483 11.5153 2.0121 11.9741 2.00011C12.4329 1.98811 12.8409 2.28993 12.9638 2.73212L16.8924 16.8753L20.0241 2.78283C20.1439 2.2437 20.6781 1.90377 21.2172 2.02358C21.7563 2.14339 22.0962 2.67756 21.9764 3.2167L17.9764 21.2167C17.8769 21.6647 17.4852 21.9874 17.0264 21.9994C16.5676 22.0114 16.1596 21.7096 16.0367 21.2674L12.1081 7.12428L8.97644 21.2167C8.87688 21.6647 8.48516 21.9874 8.02639 21.9994C7.56762 22.0114 7.15957 21.7096 7.03674 21.2674L2.03674 3.26741C1.88892 2.73527 2.20047 2.18406 2.73261 2.03625Z" fill="black"/>
</svg>
