<svg width="24" height="24" viewBox="0 0 24 24" fill="none" xmlns="http://www.w3.org/2000/svg">
<path fill-rule="evenodd" clip-rule="evenodd" d="M3.00002 3C3.00002 2.44772 3.44773 2 4.00002 2H20C20.3938 2 20.7509 2.23111 20.9123 2.59034C21.0736 2.94958 21.009 3.37004 20.7474 3.66436L6.22686 20H20C20.5523 20 21 20.4477 21 21C21 21.5523 20.5523 22 20 22H4.00002C3.60623 22 3.2491 21.7689 3.08778 21.4097C2.92646 21.0504 2.99099 20.63 3.25261 20.3356L17.7732 4H4.00002C3.44773 4 3.00002 3.55228 3.00002 3Z" fill="black"/>
</svg>
