<svg width="24" height="24" viewBox="0 0 24 24" fill="none" xmlns="http://www.w3.org/2000/svg">
<g opacity="0.14">
<path d="M3 8V16.5C3 17.8807 4.11929 19 5.5 19C6.88071 19 8 17.8807 8 16.5V8H3Z" fill="black"/>
<path d="M9.49102 15H19.8294L21.6793 17.9185C22.5349 19.2495 21.5793 21 19.9969 21H9.32358C7.74125 21 6.78557 19.2495 7.64123 17.9185L9.49102 15Z" fill="black"/>
</g>
<path d="M11.1602 3H18.1602M9.51562 15H19.8014M17.1602 3V10.7888L21.6793 17.9185C22.5349 19.2495 21.5793 21 19.9969 21H9.32358C7.74125 21 6.78557 19.2495 7.64123 17.9185L12.1602 10.7888V3M3 3V8M3 3H2M3 3H8M3 8V16.5C3 17.3179 3.39278 18.0441 4 18.5002M3 8H8M8 12V8M8 8V3M8 3H9" stroke="black" stroke-width="2" stroke-linecap="round" stroke-linejoin="round"/>
</svg>
