<svg width="24" height="24" viewBox="0 0 24 24" fill="none" xmlns="http://www.w3.org/2000/svg">
<path opacity="0.14" d="M4 6C4 4.89543 4.89543 4 6 4H18C19.1046 4 20 4.89543 20 6V18C20 19.1046 19.1046 20 18 20H6C4.89543 20 4 19.1046 4 18V6Z" fill="black"/>
<path d="M12.75 18C13.3023 18 13.75 17.5523 13.75 17C13.75 16.4477 13.3023 16 12.75 16V18ZM11.25 16C10.6977 16 10.25 16.4477 10.25 17C10.25 17.5523 10.6977 18 11.25 18V16ZM6 12.75C6 13.3023 6.44772 13.75 7 13.75C7.55228 13.75 8 13.3023 8 12.75H6ZM8 11.25C8 10.6977 7.55228 10.25 7 10.25C6.44772 10.25 6 10.6977 6 11.25H8ZM11.25 6C10.6977 6 10.25 6.44772 10.25 7C10.25 7.55228 10.6977 8 11.25 8V6ZM12.75 8C13.3023 8 13.75 7.55228 13.75 7C13.75 6.44772 13.3023 6 12.75 6V8ZM18 11.25C18 10.6977 17.5523 10.25 17 10.25C16.4477 10.25 16 10.6977 16 11.25H18ZM16 12.75C16 13.3023 16.4477 13.75 17 13.75C17.5523 13.75 18 13.3023 18 12.75H16ZM14.8282 13.4142C14.4377 13.0237 13.8045 13.0237 13.414 13.4142C13.0235 13.8048 13.0235 14.4379 13.414 14.8284L14.8282 13.4142ZM16.7727 15.7123C17.1633 15.3218 17.1633 14.6886 16.7727 14.2981C16.3822 13.9076 15.7491 13.9076 15.3585 14.2981L16.7727 15.7123ZM14.2979 15.3588C13.9073 15.7493 13.9073 16.3825 14.2979 16.773C14.6884 17.1635 15.3216 17.1635 15.7121 16.773L14.2979 15.3588ZM10.5852 14.8284C10.9758 14.4379 10.9758 13.8048 10.5852 13.4142C10.1947 13.0237 9.56156 13.0237 9.17103 13.4142L10.5852 14.8284ZM8.28715 16.773C8.67767 17.1635 9.31084 17.1635 9.70136 16.773C10.0919 16.3825 10.0919 15.7493 9.70136 15.3588L8.28715 16.773ZM8.6407 14.2981C8.25018 13.9076 7.61701 13.9076 7.22649 14.2981C6.83596 14.6886 6.83596 15.3218 7.22649 15.7123L8.6407 14.2981ZM9.17103 10.5857C9.56155 10.9763 10.1947 10.9763 10.5852 10.5857C10.9758 10.1952 10.9758 9.56204 10.5852 9.17152L9.17103 10.5857ZM7.22649 8.28764C6.83596 8.67816 6.83596 9.31133 7.22649 9.70185C7.61701 10.0924 8.25018 10.0924 8.6407 9.70185L7.22649 8.28764ZM9.70136 8.64119C10.0919 8.25066 10.0919 7.6175 9.70136 7.22698C9.31084 6.83645 8.67767 6.83645 8.28715 7.22698L9.70136 8.64119ZM13.414 9.17152C13.0235 9.56204 13.0235 10.1952 13.414 10.5857C13.8045 10.9763 14.4377 10.9763 14.8282 10.5857L13.414 9.17152ZM15.7121 7.22698C15.3216 6.83645 14.6884 6.83645 14.2979 7.22697C13.9073 7.6175 13.9073 8.25066 14.2979 8.64119L15.7121 7.22698ZM15.3585 9.70185C15.7491 10.0924 16.3822 10.0924 16.7727 9.70185C17.1633 9.31132 17.1633 8.67816 16.7727 8.28764L15.3585 9.70185ZM12.5 11.5C11.9477 11.5 11.5 11.9477 11.5 12.5C11.5 13.0523 11.9477 13.5 12.5 13.5V11.5ZM12.51 13.5C13.0623 13.5 13.51 13.0523 13.51 12.5C13.51 11.9477 13.0623 11.5 12.51 11.5V13.5ZM6 5H18V3H6V5ZM19 6V18H21V6H19ZM18 19H6V21H18V19ZM5 18V6H3V18H5ZM6 19C5.44772 19 5 18.5523 5 18H3C3 19.6569 4.34315 21 6 21V19ZM19 18C19 18.5523 18.5523 19 18 19V21C19.6569 21 21 19.6569 21 18H19ZM18 5C18.5523 5 19 5.44772 19 6H21C21 4.34315 19.6569 3 18 3V5ZM6 3C4.34315 3 3 4.34315 3 6H5C5 5.44772 5.44772 5 6 5V3ZM14 12C14 13.1046 13.1046 14 12 14V16C14.2091 16 16 14.2091 16 12H14ZM12 14C10.8954 14 10 13.1046 10 12H8C8 14.2091 9.79086 16 12 16V14ZM10 12C10 10.8954 10.8954 10 12 10V8C9.79086 8 8 9.79086 8 12H10ZM12 10C13.1046 10 14 10.8954 14 12H16C16 9.79086 14.2091 8 12 8V10ZM11 15V17H13V15H11ZM12 18H12.75V16H12V18ZM12 16H11.25V18H12V16ZM9 11H7V13H9V11ZM6 12V12.75H8V12H6ZM8 12V11.25H6V12H8ZM13 9V7H11V9H13ZM12 6H11.25V8H12V6ZM12 8H12.75V6H12V8ZM15 13H17V11H15V13ZM18 12V11.25H16V12H18ZM16 12V12.75H18V12H16ZM13.414 14.8284L14.8282 16.2427L16.2424 14.8284L14.8282 13.4142L13.414 14.8284ZM16.2424 16.2427L16.7727 15.7123L15.3585 14.2981L14.8282 14.8284L16.2424 16.2427ZM14.8282 14.8284L14.2979 15.3588L15.7121 16.773L16.2424 16.2427L14.8282 14.8284ZM9.17103 13.4142L7.75682 14.8284L9.17103 16.2427L10.5852 14.8284L9.17103 13.4142ZM7.75682 16.2427L8.28715 16.773L9.70136 15.3588L9.17103 14.8284L7.75682 16.2427ZM9.17103 14.8284L8.6407 14.2981L7.22649 15.7123L7.75682 16.2427L9.17103 14.8284ZM10.5852 9.17152L9.17103 7.75731L7.75682 9.17152L9.17103 10.5857L10.5852 9.17152ZM7.75682 7.75731L7.22649 8.28764L8.6407 9.70185L9.17103 9.17152L7.75682 7.75731ZM9.17103 9.17152L9.70136 8.64119L8.28715 7.22698L7.75682 7.75731L9.17103 9.17152ZM14.8282 10.5857L16.2424 9.17152L14.8282 7.75731L13.414 9.17152L14.8282 10.5857ZM16.2424 7.75731L15.7121 7.22698L14.2979 8.64119L14.8282 9.17152L16.2424 7.75731ZM14.8282 9.17152L15.3585 9.70185L16.7727 8.28764L16.2424 7.75731L14.8282 9.17152ZM12.5 13.5H12.51V11.5H12.5V13.5Z" fill="black"/>
</svg>
