<svg width="24" height="24" viewBox="0 0 24 24" fill="none" xmlns="http://www.w3.org/2000/svg">
<g opacity="0.14">
<path d="M9.82843 13.1716C11.3905 14.7337 11.3905 17.2663 9.82843 18.8284C8.26633 20.3905 5.73367 20.3905 4.17157 18.8284C2.60948 17.2663 2.60948 14.7337 4.17157 13.1716C5.73367 11.6095 8.26633 11.6095 9.82843 13.1716Z" fill="black"/>
<path d="M19.8284 5.17157C21.3905 6.73367 21.3905 9.26633 19.8284 10.8284C18.2663 12.3905 15.7337 12.3905 14.1716 10.8284C12.6095 9.26633 12.6095 6.73367 14.1716 5.17157C15.7337 3.60948 18.2663 3.60948 19.8284 5.17157Z" fill="black"/>
</g>
<path d="M9.82843 18.8284C11.3905 17.2663 11.3905 14.7337 9.82843 13.1716C8.26633 11.6095 5.73367 11.6095 4.17157 13.1716M9.82843 18.8284C8.26633 20.3905 5.73367 20.3905 4.17157 18.8284C2.60948 17.2663 2.60948 14.7337 4.17157 13.1716M9.82843 18.8284L4.17157 13.1716M19.8284 10.8284C21.3905 9.26633 21.3905 6.73367 19.8284 5.17157C18.2663 3.60948 15.7337 3.60948 14.1716 5.17157M19.8284 10.8284C18.2663 12.3905 15.7337 12.3905 14.1716 10.8284C12.6095 9.26633 12.6095 6.73367 14.1716 5.17157M19.8284 10.8284L14.1716 5.17157" stroke="black" stroke-width="2"/>
</svg>
