<svg width="24" height="24" viewBox="0 0 24 24" fill="none" xmlns="http://www.w3.org/2000/svg">
<path d="M5 3C5 2.44772 4.55228 2 4 2C3.44772 2 3 2.44772 3 3H5ZM9 11C9 11.5523 9.44772 12 10 12C10.5523 12 11 11.5523 11 11H9ZM11 3C11 2.44772 10.5523 2 10 2C9.44772 2 9 2.44772 9 3H11ZM9.66691 20.9813C10.0784 20.6129 10.1135 19.9807 9.74513 19.5692C9.37681 19.1577 8.74461 19.1227 8.33309 19.491L9.66691 20.9813ZM4 8C3.44772 8 3 8.44772 3 9C3 9.55228 3.44772 10 4 10V8ZM10 10C10.5523 10 11 9.55228 11 9C11 8.44772 10.5523 8 10 8V10ZM3 2C2.44772 2 2 2.44772 2 3C2 3.55228 2.44772 4 3 4V2ZM11 4C11.5523 4 12 3.55228 12 3C12 2.44772 11.5523 2 11 2V4ZM16.75 22C17.3023 22 17.75 21.5523 17.75 21C17.75 20.4477 17.3023 20 16.75 20V22ZM15.25 20C14.6977 20 14.25 20.4477 14.25 21C14.25 21.5523 14.6977 22 15.25 22V20ZM10 16.75C10 17.3023 10.4477 17.75 11 17.75C11.5523 17.75 12 17.3023 12 16.75H10ZM12 15.25C12 14.6977 11.5523 14.25 11 14.25C10.4477 14.25 10 14.6977 10 15.25H12ZM15.25 10C14.6977 10 14.25 10.4477 14.25 11C14.25 11.5523 14.6977 12 15.25 12V10ZM16.75 12C17.3023 12 17.75 11.5523 17.75 11C17.75 10.4477 17.3023 10 16.75 10V12ZM22 15.25C22 14.6977 21.5523 14.25 21 14.25C20.4477 14.25 20 14.6977 20 15.25H22ZM20 16.75C20 17.3023 20.4477 17.75 21 17.75C21.5523 17.75 22 17.3023 22 16.75H20ZM18.8282 17.4142C18.4377 17.0237 17.8045 17.0237 17.414 17.4142C17.0235 17.8048 17.0235 18.4379 17.414 18.8284L18.8282 17.4142ZM20.7727 19.7123C21.1633 19.3218 21.1633 18.6886 20.7727 18.2981C20.3822 17.9076 19.7491 17.9076 19.3585 18.2981L20.7727 19.7123ZM18.2979 19.3588C17.9073 19.7493 17.9073 20.3825 18.2979 20.773C18.6884 21.1635 19.3216 21.1635 19.7121 20.773L18.2979 19.3588ZM14.5852 18.8284C14.9758 18.4379 14.9758 17.8048 14.5852 17.4142C14.1947 17.0237 13.5616 17.0237 13.171 17.4142L14.5852 18.8284ZM12.2871 20.773C12.6777 21.1635 13.3108 21.1635 13.7014 20.773C14.0919 20.3825 14.0919 19.7493 13.7014 19.3588L12.2871 20.773ZM12.6407 18.2981C12.2502 17.9076 11.617 17.9076 11.2265 18.2981C10.836 18.6886 10.836 19.3218 11.2265 19.7123L12.6407 18.2981ZM13.171 14.5857C13.5616 14.9763 14.1947 14.9763 14.5852 14.5857C14.9758 14.1952 14.9758 13.562 14.5852 13.1715L13.171 14.5857ZM12.4639 12.4644L11.7568 11.7573L11.7568 11.7573L12.4639 12.4644ZM11.2265 12.2876C10.836 12.6782 10.836 13.3113 11.2265 13.7018C11.617 14.0924 12.2502 14.0924 12.6407 13.7018L11.2265 12.2876ZM13.7014 12.6412C14.0919 12.2507 14.0919 11.6175 13.7014 11.227C13.3108 10.8365 12.6777 10.8365 12.2871 11.227L13.7014 12.6412ZM17.414 13.1715C17.0235 13.562 17.0235 14.1952 17.414 14.5857C17.8045 14.9763 18.4377 14.9763 18.8282 14.5857L17.414 13.1715ZM19.7121 11.227C19.3216 10.8365 18.6884 10.8365 18.2979 11.227C17.9073 11.6175 17.9073 12.2507 18.2979 12.6412L19.7121 11.227ZM19.3585 13.7018C19.7491 14.0924 20.3822 14.0924 20.7727 13.7018C21.1633 13.3113 21.1633 12.6782 20.7727 12.2876L19.3585 13.7018ZM16.5 15.5C15.9477 15.5 15.5 15.9477 15.5 16.5C15.5 17.0523 15.9477 17.5 16.5 17.5V15.5ZM16.51 17.5C17.0623 17.5 17.51 17.0523 17.51 16.5C17.51 15.9477 17.0623 15.5 16.51 15.5V17.5ZM3 3V18H5V3H3ZM11 11V3H9V11H11ZM3 18C3 20.2092 4.79086 22 7 22V20C5.89543 20 5 19.1046 5 18H3ZM8.33309 19.491C7.97858 19.8083 7.51288 20 7 20V22C8.02383 22 8.9599 21.6141 9.66691 20.9813L8.33309 19.491ZM4 10H10V8H4V10ZM3 4H11V2H3V4ZM18 16C18 17.1046 17.1046 18 16 18V20C18.2091 20 20 18.2091 20 16H18ZM16 18C14.8954 18 14 17.1046 14 16H12C12 18.2091 13.7909 20 16 20V18ZM14 16C14 14.8954 14.8954 14 16 14V12C13.7909 12 12 13.7909 12 16H14ZM16 14C17.1046 14 18 14.8954 18 16H20C20 13.7909 18.2091 12 16 12V14ZM15 19V21H17V19H15ZM16 22H16.75V20H16V22ZM16 20H15.25V22H16V20ZM13 15H11V17H13V15ZM10 16V16.75H12V16H10ZM12 16V15.25H10V16H12ZM17 13V11H15V13H17ZM16 10H15.25V12H16V10ZM16 12H16.75V10H16V12ZM19 17H21V15H19V17ZM22 16V15.25H20V16H22ZM20 16V16.75H22V16H20ZM17.414 18.8284L18.8282 20.2427L20.2424 18.8284L18.8282 17.4142L17.414 18.8284ZM20.2424 20.2427L20.7727 19.7123L19.3585 18.2981L18.8282 18.8284L20.2424 20.2427ZM18.8282 18.8284L18.2979 19.3588L19.7121 20.773L20.2424 20.2427L18.8282 18.8284ZM13.171 17.4142L11.7568 18.8284L13.171 20.2427L14.5852 18.8284L13.171 17.4142ZM11.7568 20.2427L12.2871 20.773L13.7014 19.3588L13.171 18.8284L11.7568 20.2427ZM13.171 18.8284L12.6407 18.2981L11.2265 19.7123L11.7568 20.2427L13.171 18.8284ZM14.5852 13.1715L13.171 11.7573L11.7568 13.1715L13.171 14.5857L14.5852 13.1715ZM11.7568 11.7573L11.2265 12.2876L12.6407 13.7018L13.171 13.1715L11.7568 11.7573ZM13.171 13.1715L13.7014 12.6412L12.2871 11.227L11.7568 11.7573L13.171 13.1715ZM18.8282 14.5857L20.2424 13.1715L18.8282 11.7573L17.414 13.1715L18.8282 14.5857ZM20.2424 11.7573L19.7121 11.227L18.2979 12.6412L18.8282 13.1715L20.2424 11.7573ZM18.8282 13.1715L19.3585 13.7018L20.7727 12.2876L20.2424 11.7573L18.8282 13.1715ZM16.5 17.5H16.51V15.5H16.5V17.5Z" fill="black"/>
<g opacity="0.14">
<path d="M4 9V18C4 19.6569 5.34315 21 7 21C8.65685 21 10 19.6569 10 18V9H4Z" fill="black"/>
<path d="M19 16C19 17.6569 17.6569 19 16 19C14.3431 19 13 17.6569 13 16C13 14.3431 14.3431 13 16 13C17.6569 13 19 14.3431 19 16Z" fill="black"/>
</g>
</svg>
