<svg width="24" height="24" viewBox="0 0 24 24" fill="none" xmlns="http://www.w3.org/2000/svg">
<g opacity="0.14">
<path fill-rule="evenodd" clip-rule="evenodd" d="M9 18V9H3V18C3 19.6569 4.34315 21 6 21C7.65685 21 9 19.6569 9 18Z" fill="black"/>
<path fill-rule="evenodd" clip-rule="evenodd" d="M21 18V9H15V18C15 19.6569 16.3431 21 18 21C19.6569 21 21 19.6569 21 18Z" fill="black"/>
</g>
<path d="M3 3V18C3 19.6569 4.34315 21 6 21C7.65685 21 9 19.6569 9 18V3M15 3V18C15 19.6569 16.3431 21 18 21C19.6569 21 21 19.6569 21 18V3M3 9H9M15 9H21M2 3H10M14 3H22" stroke="black" stroke-width="2" stroke-linecap="round" stroke-linejoin="round"/>
</svg>
