<svg width="24" height="24" viewBox="0 0 24 24" fill="none" xmlns="http://www.w3.org/2000/svg">
<path d="M7 9H6.2C5.0799 9 4.51984 9 4.09202 9.21799C3.71569 9.40973 3.40973 9.71569 3.21799 10.092C3 10.5198 3 11.0799 3 12.2V17M17 9H17.8C18.9201 9 19.4802 9 19.908 9.21799C20.2843 9.40973 20.5903 9.71569 20.782 10.092C21 10.5198 21 11.0799 21 12.2V17M12 15V3M12 3L15 6M12 3L9 6M2.5 19.5L3.11612 20.1161C3.68206 20.6821 4.44964 21 5.25 21C6.05036 21 6.81794 20.6821 7.38388 20.1161L7.61612 19.8839C8.18206 19.3179 8.94964 19 9.75 19C10.5504 19 11.3179 19.3179 11.8839 19.8839L12.1161 20.1161C12.6821 20.6821 13.4496 21 14.25 21C15.0504 21 15.8179 20.6821 16.3839 20.1161L16.6161 19.8839C17.1821 19.3179 17.9496 19 18.75 19C19.5504 19 20.3179 19.3179 20.8839 19.8839L21.5 20.5" stroke="black" stroke-width="2" stroke-linecap="round" stroke-linejoin="round"/>
</svg>
