<svg width="24" height="24" viewBox="0 0 24 24" fill="none" xmlns="http://www.w3.org/2000/svg">
<path d="M13.4998 11.5001L4.70696 20.293C4.31643 20.6835 3.68327 20.6835 3.29274 20.293L2.70696 19.7072C2.31643 19.3167 2.31643 18.6835 2.70696 18.293L11.4998 9.50009M17.4998 7.50009L19.2927 5.7072C19.6833 5.31668 19.6833 4.68351 19.2927 4.29299L18.707 3.7072C18.3164 3.31668 17.6833 3.31668 17.2927 3.7072L15.4998 5.50009M21.9998 10.0001C21.9998 13.3138 19.3136 16.0001 15.9998 16.0001L15.4998 13.5001L9.49985 7.50009L13.4998 3.50009L19.4998 9.50009L21.9998 10.0001Z" stroke="black" stroke-width="2" stroke-linecap="round" stroke-linejoin="round"/>
</svg>
