<svg width="24" height="24" viewBox="0 0 24 24" fill="none" xmlns="http://www.w3.org/2000/svg">
<path d="M12 11C10.8954 11 10 11.8954 10 13C10 14.1046 10.8954 15 12 15C13.1046 15 14 14.1046 14 13C14 11.8954 13.1046 11 12 11ZM12 11V3M5 21H19C20.1046 21 21 20.1046 21 19V11C21 9.89543 20.1046 9 19 9H18C17.4477 9 17 9.44772 17 10V13C17 15.7614 14.7614 18 12 18C9.23858 18 7 15.7614 7 13V10C7 9.44772 6.55228 9 6 9H5C3.89543 9 3 9.89543 3 11V19C3 20.1046 3.89543 21 5 21Z" stroke="black" stroke-width="2" stroke-linecap="round"/>
</svg>
