<svg width="24" height="24" viewBox="0 0 24 24" fill="none" xmlns="http://www.w3.org/2000/svg">
<path d="M3.5 21C3.5 21.5523 3.94772 22 4.5 22C5.05228 22 5.5 21.5523 5.5 21H3.5ZM4.49228 10.876C4.42378 10.3279 3.92399 9.93922 3.37597 10.0077C2.82795 10.0762 2.43922 10.576 2.50772 11.124L4.49228 10.876ZM12 20C12.5523 20 13 19.5523 13 19C13 18.4477 12.5523 18 12 18V20ZM2 14C1.44772 14 1 14.4477 1 15C1 15.5523 1.44772 16 2 16V14ZM4 16C4.55228 16 5 15.5523 5 15C5 14.4477 4.55228 14 4 14V16ZM2 11L1.04688 10.6974C0.950379 11.0014 1.00465 11.3331 1.19297 11.5905C1.3813 11.8479 1.68109 12 2 12V11ZM4.22222 4V3C3.7865 3 3.40094 3.28213 3.2691 3.69742L4.22222 4ZM19.7778 4L20.7309 3.69742C20.5991 3.28213 20.2135 3 19.7778 3V4ZM22 11V12C22.3189 12 22.6187 11.8479 22.807 11.5905C22.9953 11.3331 23.0496 11.0014 22.9531 10.6974L22 11ZM16.8783 3.84323C16.7917 3.29778 16.2793 2.92578 15.7339 3.01236C15.1884 3.09894 14.8164 3.61131 14.903 4.15677L16.8783 3.84323ZM16.0141 11.1568C16.1007 11.7022 16.613 12.0742 17.1585 11.9876C17.704 11.9011 18.076 11.3887 17.9894 10.8432L16.0141 11.1568ZM20.1213 20.0888L19.4015 19.3946L20.1213 20.0888ZM15.8787 20.0888L16.5985 19.3946L15.8787 20.0888ZM15.8787 15.689L16.8127 15.3319C16.6906 15.0124 16.4136 14.7774 16.0784 14.7091C15.7431 14.6408 15.3963 14.7486 15.1588 14.9949L15.8787 15.689ZM20.1213 15.689L19.4015 16.3831L20.1213 15.689ZM15 17.8889L14 17.8889L15 17.8889ZM21 17.8889L22 17.8889L21 17.8889ZM17.9947 14L18.7121 13.3033C18.3477 12.9281 17.7557 12.8971 17.3541 13.2322L17.9947 14ZM16.875 16.7222L16.4147 17.61C16.7247 17.7707 17.0961 17.7581 17.3945 17.5767C17.6929 17.3953 17.875 17.0714 17.875 16.7222H16.875ZM5.5 21V19H3.5V21H5.5ZM5.49228 18.876L4.49228 10.876L2.50772 11.124L3.50772 19.124L5.49228 18.876ZM4.5 20H12V18H4.5V20ZM2 16H4V14H2V16ZM2.95312 11.3026L5.17535 4.30258L3.2691 3.69742L1.04688 10.6974L2.95312 11.3026ZM18.8247 4.30258L21.0469 11.3026L22.9531 10.6974L20.7309 3.69742L18.8247 4.30258ZM12 10H7V12H12V10ZM7 10H2V12H7V10ZM4.22222 5H8.11111V3H4.22222V5ZM8.11111 5H12V3H8.11111V5ZM14.903 4.15677L16.0141 11.1568L17.9894 10.8432L16.8783 3.84323L14.903 4.15677ZM7.12348 3.84323L6.01236 10.8432L7.98764 11.1568L9.09875 4.15677L7.12348 3.84323ZM13 11V4H11V11H13ZM19.4015 19.3946C18.6232 20.2018 17.3768 20.2018 16.5985 19.3946L15.1588 20.7829C16.7237 22.4057 19.2763 22.4057 20.8412 20.7829L19.4015 19.3946ZM16.5985 19.3946C16.2032 18.9846 16 18.442 16 17.8889L14 17.8889C14 18.9282 14.3826 19.978 15.1588 20.7829L16.5985 19.3946ZM16 17.8889C16 17.3358 16.2032 16.7931 16.5985 16.3831L15.1588 14.9949C14.3826 15.7998 14 16.8496 14 17.8889L16 17.8889ZM19.4015 16.3831C19.7968 16.7931 20 17.3358 20 17.8889L22 17.8889C22 16.8496 21.6174 15.7998 20.8412 14.9949L19.4015 16.3831ZM20 17.8889C20 18.442 19.7968 18.9846 19.4015 19.3946L20.8412 20.7829C21.6174 19.978 22 18.9282 22 17.8889L20 17.8889ZM17.2773 14.6967C17.7302 15.163 18.1874 15.4807 18.5564 15.7332C18.9457 15.9995 19.1935 16.1674 19.4015 16.3831L20.8412 14.9949C20.462 14.6017 20.0242 14.314 19.6857 14.0825C19.327 13.8371 19.0145 13.6148 18.7121 13.3033L17.2773 14.6967ZM15.8787 15.689C14.9446 16.0461 14.9448 16.0465 14.9449 16.0469C14.945 16.047 14.9451 16.0474 14.9452 16.0476C14.9454 16.0481 14.9456 16.0487 14.9458 16.0492C14.9462 16.0503 14.9467 16.0514 14.9471 16.0526C14.948 16.0549 14.949 16.0574 14.95 16.06C14.9522 16.0653 14.9546 16.0713 14.9573 16.0779C14.9627 16.0911 14.9695 16.1069 14.9775 16.1249C14.9936 16.161 15.0152 16.2066 15.043 16.2596C15.0983 16.3653 15.1794 16.5029 15.2921 16.655C15.5171 16.9588 15.8765 17.3309 16.4147 17.61L17.3353 15.8345C17.1236 15.7247 16.9847 15.5801 16.8991 15.4645C16.8565 15.4069 16.8291 15.3591 16.8148 15.3319C16.8077 15.3184 16.8042 15.3106 16.8039 15.3099C16.8038 15.3096 16.8045 15.3112 16.806 15.3147C16.8067 15.3165 16.8076 15.3188 16.8088 15.3217C16.8093 15.3231 16.8099 15.3247 16.8106 15.3264C16.8109 15.3272 16.8113 15.3281 16.8116 15.329C16.8118 15.3295 16.812 15.3299 16.8122 15.3304C16.8123 15.3307 16.8124 15.331 16.8125 15.3311C16.8126 15.3315 16.8127 15.3319 15.8787 15.689ZM17.875 16.7222C17.875 16.0541 18.0433 15.2618 18.6353 14.7678L17.3541 13.2322C16.0817 14.2937 15.875 15.8348 15.875 16.7222H17.875ZM22 10H12V12H22V10ZM12 5H19.7778V3H12V5Z" fill="black"/>
</svg>
