<svg width="24" height="24" viewBox="0 0 24 24" fill="none" xmlns="http://www.w3.org/2000/svg">
<path d="M20.5 12.5L18.5 10.5L18.1188 8.59382C18.0413 8.20664 17.851 7.85104 17.5718 7.57184L15.4531 5.45311C14.0455 4.04554 11.8171 3.88718 10.2247 5.08154L9 6.00003L11.5547 7.70316C11.8329 7.88863 12 8.20086 12 8.53521V10M12 10L3.88455 16.8028C2.78768 17.6803 2.69706 19.3164 3.69032 20.3097C4.68358 21.3029 6.31969 21.2123 7.19719 20.1154L14 12M12 10L14 12M18.5 14.5L16.5 12.5L14 12M18 15L21 12" stroke="black" stroke-width="2" stroke-linecap="round" stroke-linejoin="round"/>
</svg>
