<svg width="24" height="24" viewBox="0 0 24 24" fill="none" xmlns="http://www.w3.org/2000/svg">
<path d="M15 7V2M15 6.5L21 5.5M21 3.5L15 2.5M21 6V3M19.5 19H4.5M19.5 19C20.3284 19 21 19.6716 21 20.5C21 21.3284 20.3284 22 19.5 22H4.5C3.67157 22 3 21.3284 3 20.5C3 19.6716 3.67157 19 4.5 19M19.5 19C20.3284 19 21 18.3284 21 17.5C21 16.6716 20.3284 16 19.5 16M4.5 19C3.67157 19 3 18.3284 3 17.5C3 16.6716 3.67157 16 4.5 16M19.5 16H4.5M19.5 16C20.3284 16 21 15.3284 21 14.5C21 13.6716 20.3284 13 19.5 13M4.5 16C3.67157 16 3 15.3284 3 14.5C3 13.6716 3.67157 13 4.5 13H19.5M19.5 13H8C5.23858 13 3 10.7614 3 8C3 5.23858 5.23858 3 8 3H12M19.5 13C20.3284 13 21 12.3284 21 11.5C21 10.6716 20.3284 10 19.5 10H8C6.89543 10 6 9.10457 6 8C6 6.89543 6.89543 6 8 6H12" stroke="black" stroke-width="2" stroke-linecap="round" stroke-linejoin="round"/>
</svg>
