<svg width="24" height="24" viewBox="0 0 24 24" fill="none" xmlns="http://www.w3.org/2000/svg">
<path d="M15 20.0645C13.795 20.6633 12.4368 21 11 21C6.02944 21 2 16.9706 2 12C2 7.02944 6.02944 3 11 3C14.4829 3 17.5038 4.97844 19 7.8728C19.6391 9.10904 20 10.5124 20 12V16.5M18 16.5H22M18.5 16.5L19 21M21 21L21.5 16.5M18.5 21H21.5M16.5 12C16.5 15.0376 14.0376 17.5 11 17.5C7.96243 17.5 5.5 15.0376 5.5 12C5.5 8.96243 7.96243 6.5 11 6.5C14.0376 6.5 16.5 8.96243 16.5 12ZM13 12C13 13.1046 12.1046 14 11 14C9.89543 14 9 13.1046 9 12C9 10.8954 9.89543 10 11 10C12.1046 10 13 10.8954 13 12Z" stroke="black" stroke-width="2" stroke-linecap="round"/>
</svg>
