<svg width="24" height="24" viewBox="0 0 24 24" fill="none" xmlns="http://www.w3.org/2000/svg">
<path d="M17.6699 13.25L18.5116 12.7101C18.3276 12.4234 18.0105 12.25 17.6699 12.25C17.3293 12.25 17.0121 12.4234 16.8282 12.7101L17.6699 13.25ZM22 20V21C22.3656 21 22.7021 20.8004 22.8775 20.4796C23.0528 20.1588 23.0391 19.7678 22.8417 19.4601L22 20ZM11 20L10.1583 19.4601C9.96088 19.7678 9.94716 20.1588 10.1225 20.4796C10.2979 20.8004 10.6344 21 11 21V20ZM13.1651 16.625V15.625C12.8245 15.625 12.5073 15.7984 12.3234 16.0851L13.1651 16.625ZM15.5048 16.625V17.625C15.8454 17.625 16.1626 17.4516 16.3465 17.1649L15.5048 16.625ZM15.7256 16.6883C16.2446 16.8769 16.8183 16.6091 17.007 16.09C17.1956 15.5709 16.9277 14.9972 16.4086 14.8086L15.7256 16.6883ZM3.34154 10.0601C2.82246 9.87151 2.24876 10.1394 2.06013 10.6585C1.87151 11.1775 2.13939 11.7512 2.65846 11.9399L3.34154 10.0601ZM4.34105 11.4535C4.13594 11.9663 4.38536 12.5483 4.89814 12.7534C5.41092 12.9585 5.99289 12.7091 6.19801 12.1963L4.34105 11.4535ZM6.16483 9.58665L5.23636 9.21526L6.16483 9.58665ZM11.0282 14.5033C11.1567 15.0404 11.6964 15.3716 12.2335 15.243C12.7706 15.1144 13.1018 14.5748 12.9732 14.0377L11.0282 14.5033ZM10.9631 9.9364L9.99056 10.1692V10.1692L10.9631 9.9364ZM1.07152 19.6286C0.86641 20.1414 1.11583 20.7234 1.62861 20.9285C2.14139 21.1336 2.72336 20.8842 2.92848 20.3714L1.07152 19.6286ZM4 15L4.24254 14.0299C3.7574 13.9086 3.25724 14.1643 3.07152 14.6286L4 15ZM7 20C7 20.5523 7.44772 21 8 21C8.55228 21 9 20.5523 9 20H7ZM8 16H9C9 15.5411 8.6877 15.1411 8.24254 15.0299L8 16ZM16.8282 13.7899L21.1583 20.5399L22.8417 19.4601L18.5116 12.7101L16.8282 13.7899ZM22 19H11V21H22V19ZM11.8417 20.5399L14.0068 17.1649L12.3234 16.0851L10.1583 19.4601L11.8417 20.5399ZM15.5048 15.625H13.1651V17.625H15.5048V15.625ZM16.4086 14.8086L3.34154 10.0601L2.65846 11.9399L15.7256 16.6883L16.4086 14.8086ZM6.19801 12.1963L7.09331 9.95804L5.23636 9.21526L4.34105 11.4535L6.19801 12.1963ZM12.9732 14.0377L11.9356 9.70358L9.99056 10.1692L11.0282 14.5033L12.9732 14.0377ZM8.50837 9C9.21341 9 9.82641 9.48357 9.99056 10.1692L11.9356 9.70358C11.556 8.11815 10.1386 7 8.50837 7V9ZM7.09331 9.95804C7.32476 9.37942 7.88517 9 8.50837 9V7C7.06737 7 5.77153 7.87732 5.23636 9.21526L7.09331 9.95804ZM2.92848 20.3714L4.92848 15.3714L3.07152 14.6286L1.07152 19.6286L2.92848 20.3714ZM9 20V16H7V20H9ZM8.24254 15.0299L4.24254 14.0299L3.75746 15.9701L7.75746 16.9701L8.24254 15.0299ZM13 5V7C14.1046 7 15 6.10457 15 5H13ZM13 5H11C11 6.10457 11.8954 7 13 7V5ZM13 5V3C11.8954 3 11 3.89543 11 5H13ZM13 5H15C15 3.89543 14.1046 3 13 3V5ZM16.3465 17.1649L18.5116 13.7899L16.8282 12.7101L14.6631 16.0851L16.3465 17.1649Z" fill="black"/>
</svg>
