<svg width="24" height="24" viewBox="0 0 24 24" fill="none" xmlns="http://www.w3.org/2000/svg">
<path d="M9 9H6L3 5L5 3L9 6V9ZM9 9L13.5 13.5M13.5 13.5C14.3284 12.6716 15.6716 12.6716 16.5 13.5L20.2929 17.2929C20.6834 17.6834 20.6834 18.3166 20.2929 18.7071L18.7071 20.2929C18.3166 20.6834 17.6834 20.6834 17.2929 20.2929L13.5 16.5C12.6716 15.6716 12.6716 14.3284 13.5 13.5ZM20.0014 12.3178C20.6332 11.3675 21.0014 10.2267 21.0014 9C21.0014 8.11959 20.8118 7.28347 20.4711 6.53026L16.8798 10.1216C16.6434 10.358 16.3045 10.4606 15.9766 10.395L14.6551 10.1307C14.2592 10.0516 13.9498 9.74214 13.8706 9.34628L13.6063 8.02479C13.5408 7.69693 13.6434 7.35799 13.8798 7.12157L17.4711 3.53026C16.7179 3.18962 15.8818 3 15.0014 3C13.7747 3 12.6339 3.36815 11.6836 4M8 13L4.5 16.5C3.67157 17.3284 3.67157 18.6716 4.5 19.5C5.32843 20.3284 6.67157 20.3284 7.5 19.5L10 17" stroke="black" stroke-width="2" stroke-linecap="round" stroke-linejoin="round"/>
</svg>
