<svg width="24" height="24" viewBox="0 0 24 24" fill="none" xmlns="http://www.w3.org/2000/svg">
<path d="M15 9C13.8954 7.89543 13.8954 6.10457 15 5L17 3L21 7L19 9C17.8954 10.1046 16.1046 10.1046 15 9ZM15 9L10 14M4 21H7.34315C8.40401 21 9.42143 20.5786 10.1716 19.8284L12.2929 17.7071C12.6834 17.3166 12.6834 16.6834 12.2929 16.2929L7.70711 11.7071C7.31658 11.3166 6.68342 11.3166 6.29289 11.7071L4.17157 13.8284C3.42143 14.5786 3 15.596 3 16.6569V20C3 20.5523 3.44772 21 4 21Z" stroke="black" stroke-width="2" stroke-linecap="round" stroke-linejoin="round"/>
</svg>
