<svg width="24" height="24" viewBox="0 0 24 24" fill="none" xmlns="http://www.w3.org/2000/svg">
<path d="M9.54241 17H3C2.44771 17 2 16.5523 2 16V6C2 5.44772 2.44772 5 3 5H19C19.5523 5 20 5.44772 20 6V6.5M4 5V3M18 5V3M4 17V21M19 21V18.584C20.7659 17.8124 22 16.0503 22 14C22 11.9497 20.7659 10.1876 19 9.41605V13C19 14.1046 18.1046 15 17 15C15.8954 15 15 14.1046 15 13V9.41605C13.2341 10.1876 12 11.9497 12 14C12 16.0503 13.2341 17.8124 15 18.584L15 21" stroke="black" stroke-width="2" stroke-linecap="round" stroke-linejoin="round"/>
</svg>
