<svg width="24" height="24" viewBox="0 0 24 24" fill="none" xmlns="http://www.w3.org/2000/svg">
<path fill-rule="evenodd" clip-rule="evenodd" d="M12 2C7.02944 2 3 6.02944 3 11C3 15.7028 6.05282 19.441 10.8527 21.5992C11.5819 21.9271 12.4181 21.9271 13.1473 21.5992C17.9472 19.441 21 15.7028 21 11C21 6.02944 16.9706 2 12 2ZM13.2881 10.7513C13.4144 9.89978 14.0714 9.22458 14.9192 9.07509L16.6714 8.76613C16.988 8.71031 17.3121 8.81007 17.5424 9.03424C17.7728 9.25841 17.8814 9.57966 17.8342 9.89762L17.708 10.7487C17.5817 11.6002 16.9247 12.2755 16.077 12.4249L14.3247 12.7339C14.0082 12.7897 13.6841 12.69 13.4537 12.4658C13.2233 12.2416 13.1148 11.9204 13.1619 11.6024L13.2881 10.7513ZM7.91919 12.4249C7.07141 12.2754 6.4144 11.6002 6.28812 10.7487L6.16191 9.89759C6.11476 9.57963 6.22334 9.25838 6.45371 9.03421C6.68409 8.81004 7.00819 8.71028 7.32475 8.7661L9.07696 9.07506C9.92474 9.22455 10.5817 9.89976 10.708 10.7513L10.8342 11.6024C10.8814 11.9203 10.7728 12.2416 10.5424 12.4658C10.3121 12.6899 9.98796 12.7897 9.6714 12.7339L7.91919 12.4249Z" fill="black"/>
</svg>
