<svg width="24" height="24" viewBox="0 0 24 24" fill="none" xmlns="http://www.w3.org/2000/svg">
<path fill-rule="evenodd" clip-rule="evenodd" d="M20.6593 2.07986C21.0361 1.91952 21.4726 2.00516 21.761 2.29601C22.0493 2.58687 22.1311 3.02412 21.9675 3.39956L19.5267 9.00002L21.0508 9.00001C21.4031 9.00001 21.7295 9.18543 21.9098 9.4881C22.0902 9.79077 22.098 10.166 21.9303 10.4759L21.9194 10.496L21.8894 10.5509C21.8632 10.5986 21.8249 10.6684 21.7753 10.7578C21.6761 10.9365 21.5318 11.1938 21.3504 11.5108C20.9878 12.1443 20.4753 13.0179 19.8758 13.979C18.6915 15.8775 17.1157 18.2019 15.6608 19.6569C12.5366 22.7811 7.47125 22.7811 4.34705 19.6569C1.22286 16.5327 1.22286 11.4674 4.34705 8.3432C5.8036 6.88665 8.12874 5.32209 10.0265 4.14935C10.9875 3.55554 11.8609 3.04887 12.4942 2.69059C12.8111 2.51132 13.0684 2.3689 13.2471 2.27095C13.3365 2.22197 13.4062 2.18409 13.454 2.15826L13.5089 2.12867L13.5234 2.12088L13.5285 2.11817L14 3.00002C13.529 2.11787 13.5285 2.11817 13.5285 2.11817C13.8384 1.9527 14.213 1.96172 14.5143 2.14242C14.8156 2.32311 15 2.64868 15 3.00002V4.48778L20.6593 2.07986ZM10.9996 8.00003C11.4328 8.00003 11.8168 8.27899 11.9507 8.69101L12.6242 10.764H14.8038C15.2371 10.764 15.621 11.0429 15.7549 11.4549C15.8888 11.867 15.7421 12.3183 15.3916 12.573L13.6283 13.8541L14.3018 15.9271C14.4357 16.3391 14.289 16.7905 13.9385 17.0451C13.588 17.2998 13.1135 17.2998 12.763 17.0451L10.9996 15.764L9.23625 17.0451C8.88576 17.2998 8.41117 17.2998 8.06068 17.0451C7.71019 16.7905 7.56354 16.3391 7.69741 15.9271L8.37095 13.8541L6.6076 12.573C6.25711 12.3183 6.11045 11.867 6.24432 11.4549C6.3782 11.0429 6.76215 10.764 7.19538 10.764H9.37501L10.0486 8.69101C10.1824 8.27899 10.5664 8.00003 10.9996 8.00003Z" fill="black"/>
</svg>
