<svg width="24" height="24" viewBox="0 0 24 24" fill="none" xmlns="http://www.w3.org/2000/svg">
<path fill-rule="evenodd" clip-rule="evenodd" d="M7 10C7 6.13401 10.134 3 14 3C14.4045 3 14.7691 3.24364 14.9239 3.61732C15.0787 3.99099 14.9931 4.42111 14.7071 4.70711C14.2438 5.17037 13.8469 5.87764 13.54 6.63925C13.4875 6.76961 13.4386 6.89901 13.3934 7.02598C13.5934 7.00877 13.7957 7 14 7C17.866 7 21 10.134 21 14C21 14.4045 20.7564 14.7691 20.3827 14.9239C20.009 15.0787 19.5789 14.9931 19.2929 14.7071C18.8296 14.2438 18.1224 13.8469 17.3608 13.54C17.2304 13.4875 17.101 13.4386 16.974 13.3934C16.9912 13.5934 17 13.7957 17 14C17 17.866 13.866 21 10 21C9.59554 21 9.2309 20.7564 9.07612 20.3827C8.92134 20.009 9.0069 19.5789 9.29289 19.2929C9.75616 18.8296 10.1531 18.1224 10.46 17.3607C10.5125 17.2304 10.5614 17.101 10.6066 16.974C10.4066 16.9912 10.2043 17 10 17C6.13401 17 3 13.866 3 10C3 9.59554 3.24364 9.2309 3.61732 9.07612C3.99099 8.92134 4.42111 9.0069 4.70711 9.29289C5.17037 9.75616 5.87764 10.1531 6.63925 10.46C6.76961 10.5125 6.89901 10.5614 7.02598 10.6066C7.00877 10.4066 7 10.2043 7 10ZM12 10C10.8954 10 10 10.8954 10 12C10 13.1046 10.8954 14 12 14C13.1046 14 14 13.1046 14 12C14 10.8954 13.1046 10 12 10Z" fill="black"/>
</svg>
