<svg width="24" height="24" viewBox="0 0 24 24" fill="none" xmlns="http://www.w3.org/2000/svg">
<path fill-rule="evenodd" clip-rule="evenodd" d="M20.6593 2.07986C21.0361 1.91952 21.4726 2.00516 21.761 2.29601C22.0493 2.58687 22.1311 3.02412 21.9675 3.39956L19.5267 9.00002L21.0508 9.00001C21.4031 9.00001 21.7295 9.18543 21.9098 9.4881C22.0902 9.79077 22.098 10.166 21.9303 10.4759L21.9194 10.496L21.8894 10.5509C21.8632 10.5986 21.8249 10.6684 21.7753 10.7578C21.6761 10.9365 21.5318 11.1938 21.3504 11.5108C20.9878 12.1443 20.4753 13.0179 19.8758 13.979C18.6915 15.8775 17.1157 18.2019 15.6608 19.6569C12.5366 22.7811 7.47125 22.7811 4.34705 19.6569C1.22286 16.5327 1.22286 11.4674 4.34705 8.3432C5.8036 6.88665 8.12874 5.32209 10.0265 4.14935C10.9875 3.55554 11.8609 3.04887 12.4942 2.69059C12.8111 2.51132 13.0684 2.3689 13.2471 2.27095C13.3365 2.22197 13.4062 2.18409 13.454 2.15826L13.5089 2.12867L13.5234 2.12088L13.5285 2.11817C13.8384 1.9527 14.213 1.96172 14.5143 2.14242C14.8156 2.32311 15 2.64868 15 3.00002V4.48778L20.6593 2.07986ZM6 13.5C6 11.0147 8.01472 9 10.5 9C12.9853 9 15 11.0147 15 13.5C15 15.9853 12.9853 18 10.5 18C8.01472 18 6 15.9853 6 13.5Z" fill="black"/>
<path fill-rule="evenodd" clip-rule="evenodd" d="M9 13C9 12.4477 9.44772 12 10 12H10.009C10.5613 12 11.009 12.4477 11.009 13C11.009 13.5523 10.5613 14 10.009 14H10C9.44772 14 9 13.5523 9 13Z" fill="black"/>
</svg>
