<svg width="24" height="24" viewBox="0 0 24 24" fill="none" xmlns="http://www.w3.org/2000/svg">
<path fill-rule="evenodd" clip-rule="evenodd" d="M8.18379 2.05133C8.51702 1.94025 8.88411 2.01216 9.15081 2.24076L12 4.68294L14.8492 2.24076C15.1159 2.01216 15.483 1.94025 15.8162 2.05133C16.1495 2.16241 16.4 2.44019 16.4762 2.78308L17.3382 6.66187L21.2169 7.52383C21.5598 7.60003 21.8376 7.85055 21.9487 8.18379C22.0598 8.51702 21.9879 8.88411 21.7593 9.15081L19.3171 12L21.7593 14.8492C21.9879 15.1159 22.0598 15.483 21.9487 15.8162C21.8376 16.1495 21.5598 16.4 21.2169 16.4762L17.3382 17.3382L16.4762 21.2169C16.4 21.5598 16.1495 21.8376 15.8162 21.9487C15.483 22.0598 15.1159 21.9879 14.8492 21.7593L12 19.3171L9.15081 21.7593C8.88411 21.9879 8.51702 22.0598 8.18379 21.9487C7.85055 21.8376 7.60003 21.5598 7.52383 21.2169L6.66187 17.3382L2.78308 16.4762C2.44019 16.4 2.16241 16.1495 2.05133 15.8162C1.94025 15.483 2.01216 15.1159 2.24076 14.8492L4.68294 12L2.24076 9.15081C2.01216 8.88411 1.94025 8.51702 2.05133 8.18379C2.16241 7.85055 2.44019 7.60003 2.78308 7.52383L6.66188 6.66188L7.52383 2.78308C7.60003 2.44019 7.85055 2.16241 8.18379 2.05133ZM10.1337 9.26368C11.2863 8.11104 12.978 7.84166 14.3859 8.44205C14.7542 8.59909 14.9933 8.96061 14.9937 9.36094C14.9941 9.76127 14.7557 10.1233 14.3877 10.281C14.1766 10.3715 13.9779 10.5032 13.8032 10.6778C13.0727 11.4083 13.0727 12.5927 13.8032 13.3232C13.9767 13.4967 14.1775 13.6289 14.3924 13.7206C14.7608 13.8778 14.9999 14.2396 15 14.6401C15.0001 15.0406 14.7613 15.4025 14.3931 15.5599C12.9836 16.1624 11.2864 15.8902 10.1337 14.7375C8.62211 13.2259 8.62211 10.7752 10.1337 9.26368Z" fill="black"/>
</svg>
