<svg width="24" height="24" viewBox="0 0 24 24" fill="none" xmlns="http://www.w3.org/2000/svg">
<path fill-rule="evenodd" clip-rule="evenodd" d="M17 14C17 9.58172 13.4183 6 9 6C8.94599 6 8.89187 6.00052 8.83774 6.0016L8.84284 6.00151C4.87149 6.07803 1.60886 9.04845 1.07617 12.8915C1.07739 12.8804 1.0788 12.8692 1.0804 12.858C1.02678 13.2327 1 13.6141 1 14C1 18.4183 4.58172 22 9 22C13.4183 22 17 18.4183 17 14ZM9.8576 8.06083V9.30706C9.8576 9.5615 9.80905 9.8136 9.71456 10.0498L8.95286 11.9541L8.97564 11.9996H9.8576C10.9622 11.9996 11.8576 12.8951 11.8576 13.9996V14.7636C11.8576 15.0741 11.7853 15.3803 11.6465 15.658L10.5937 17.7636C10.2149 18.5211 9.44063 18.9996 8.59367 18.9996H8.5035C7.41049 18.9996 6.50834 18.1825 6.37468 17.1257C5.75017 16.7969 5.3576 16.1486 5.3576 15.4406V14.9996L4.02427 13.9996H3C3.00019 10.6861 5.68641 8 9 8C9.29118 8 9.57751 8.02074 9.8576 8.06083Z" fill="black"/>
<path fill-rule="evenodd" clip-rule="evenodd" d="M20 2C18.3431 2 17 3.34315 17 5C17 6.65685 18.3431 8 20 8C21.6569 8 23 6.65685 23 5C23 3.34315 21.6569 2 20 2Z" fill="black"/>
</svg>
