<svg width="24" height="24" viewBox="0 0 24 24" fill="none" xmlns="http://www.w3.org/2000/svg">
<path d="M12 4C7.58172 4 4 7.58172 4 12C4 16.4183 7.58172 20 12 20C16.4183 20 20 16.4183 20 12C20 11.4477 20.4477 11 21 11C21.5523 11 22 11.4477 22 12C22 17.5228 17.5228 22 12 22C6.47715 22 2 17.5228 2 12C2 6.47715 6.47715 2 12 2C14.4009 2 16.6053 2.84708 18.3287 4.25709L20.2929 2.29289C20.6834 1.90237 21.3166 1.90237 21.7071 2.29289C22.0976 2.68342 22.0976 3.31658 21.7071 3.70711L12.7071 12.7071C12.3166 13.0976 11.6834 13.0976 11.2929 12.7071C10.9024 12.3166 10.9024 11.6834 11.2929 11.2929L14.0318 8.55396C13.4361 8.20167 12.7417 8 11.9992 8C10.5199 8 9.22687 8.80251 8.53374 10.0007C8.2572 10.4788 7.64547 10.6421 7.16741 10.3656C6.68935 10.0891 6.52599 9.47733 6.80253 8.99927C7.83845 7.20848 9.77712 6 11.9992 6C13.2948 6 14.4955 6.41145 15.4761 7.10966L16.9057 5.68009C15.5506 4.62644 13.8491 4 12 4Z" fill="black"/>
<path d="M13.9977 15.4659C15.1964 14.7729 15.9992 13.4796 15.9992 12C15.9992 11.4477 16.4469 11 16.9992 11C17.5515 11 17.9992 11.4477 17.9992 12C17.9992 14.2226 16.7902 16.1616 14.9988 17.1973C14.5207 17.4738 13.909 17.3103 13.6326 16.8322C13.3561 16.354 13.5196 15.7424 13.9977 15.4659Z" fill="black"/>
<path d="M7.16741 13.6344C7.64547 13.3579 8.2572 13.5212 8.53374 13.9993C8.88537 14.6071 9.39275 15.1144 10.0007 15.4659C10.4788 15.7424 10.6423 16.354 10.3659 16.8322C10.0894 17.3103 9.47775 17.4738 8.99963 17.1973C8.0886 16.6706 7.32946 15.9116 6.80253 15.0007C6.52599 14.5227 6.68935 13.9109 7.16741 13.6344Z" fill="black"/>
<path d="M12 16H12.009C12.5613 16 13.009 16.4477 13.009 17C13.009 17.5523 12.5613 18 12.009 18H12C11.4477 18 11 17.5523 11 17C11 16.4477 11.4477 16 12 16Z" fill="black"/>
<path d="M7 11C6.44772 11 6 11.4477 6 12C6 12.5523 6.44772 13 7 13H7.009C7.56128 13 8.009 12.5523 8.009 12C8.009 11.4477 7.56128 11 7.009 11H7Z" fill="black"/>
</svg>
