<svg width="24" height="24" viewBox="0 0 24 24" fill="none" xmlns="http://www.w3.org/2000/svg">
<path fill-rule="evenodd" clip-rule="evenodd" d="M19.8297 2.00188C20.3605 1.98318 20.9722 2.09952 21.4363 2.56363C22.1419 3.26928 22.0568 4.29404 21.8612 5.0551C21.6462 5.89147 21.1879 6.86034 20.5731 7.88508C20.5103 7.9897 20.4456 8.09543 20.3789 8.20219L20.3688 8.19611C20.2361 8.4173 20.0935 8.64459 19.9415 8.87727C19.8231 9.0537 19.7 9.23244 19.5725 9.41325C19.5735 9.41601 19.5744 9.41877 19.5753 9.42153C18.4178 11.0958 16.8171 13.005 14.9107 14.9115C13.0046 16.8175 11.0957 18.4179 9.42176 19.5754C9.41892 19.5745 9.41609 19.5735 9.41325 19.5725C9.22714 19.7038 9.04321 19.8303 8.86174 19.9519C8.6342 20.1003 8.41183 20.2397 8.19531 20.3696L8.20126 20.3795C8.09482 20.4459 7.9894 20.5105 7.88508 20.5731C6.86034 21.1879 5.89147 21.6462 5.0551 21.8612C4.29404 22.0568 3.26928 22.1419 2.56363 21.4363C2.09952 20.9722 1.98318 20.3605 2.00188 19.8297C2.02059 19.2985 2.17477 18.7247 2.39887 18.1498C2.80389 17.1106 3.50887 15.8891 4.42737 14.5866C4.15029 13.7753 3.99995 12.9052 3.99995 11.9999C3.99995 7.58167 7.58167 3.99995 11.9999 3.99995C12.9052 3.99995 13.7753 4.1503 14.5866 4.42737C15.8891 3.50888 17.1106 2.80389 18.1498 2.39887C18.7247 2.17477 19.2985 2.02059 19.8297 2.00188ZM16.6196 5.4678C17.3601 5.99244 18.0075 6.63981 18.5321 7.38029C18.6468 7.20187 18.7555 7.02702 18.8581 6.85609C19.428 5.90623 19.7778 5.12649 19.9241 4.55724C20.0021 4.25392 20.0055 4.08495 19.9981 4.00179C19.973 4 19.9407 3.9992 19.9001 4.00064C19.6817 4.00833 19.3435 4.08015 18.8761 4.26233C18.2472 4.50742 17.4829 4.91294 16.6196 5.4678ZM7.38029 18.5321C6.63981 18.0075 5.99244 17.3601 5.4678 16.6196C4.91294 17.4829 4.50742 18.2472 4.26233 18.8761C4.08015 19.3435 4.00833 19.6817 4.00064 19.9001C3.9992 19.9407 4.00001 19.973 4.0018 19.9981C4.08495 20.0055 4.25392 20.0021 4.55724 19.9241C5.12649 19.7778 5.90623 19.428 6.85609 18.8581C7.02702 18.7555 7.20187 18.6468 7.38029 18.5321Z" fill="black"/>
<path d="M10.6964 19.8943C11.1206 19.9638 11.5561 20 11.9999 20C16.4182 20 20 16.4182 20 11.9999C20 11.556 19.9638 11.1204 19.8942 10.6961C18.7541 12.2475 17.2967 13.9397 15.6178 15.6186C13.9392 17.2971 12.2475 18.7543 10.6964 19.8943Z" fill="black"/>
</svg>
