<svg width="24" height="24" viewBox="0 0 24 24" fill="none" xmlns="http://www.w3.org/2000/svg">
<path fill-rule="evenodd" clip-rule="evenodd" d="M16.7074 2.29289C16.5198 2.10536 16.2655 2 16.0003 2C15.7351 2 15.4807 2.10536 15.2932 2.29289L12.9585 4.62757L10.7202 2.30593C10.5339 2.11272 10.2778 2.00249 10.0094 2.00004C9.74103 1.99759 9.48294 2.10312 9.29316 2.29289L4.29316 7.29289C3.90768 7.67838 3.90198 8.3016 4.28036 8.69407L5.68891 10.1551C4.44482 10.4237 3.26017 11.0413 2.29289 12.0086C1.90237 12.3991 1.90237 13.0323 2.29289 13.4228L5.72794 16.8579L4.51806 18.0677C4.35283 18.0236 4.17917 18 4 18C2.89543 18 2 18.8954 2 20C2 21.1046 2.89543 22 4 22C5.10457 22 6 21.1046 6 20C6 19.8208 5.97644 19.6472 5.93226 19.482L7.14215 18.2721L10.5772 21.7071C10.9677 22.0976 11.6009 22.0976 11.9914 21.7071C12.9586 20.7399 13.5763 19.5553 13.8449 18.3113L15.3059 19.7199C15.6984 20.0983 16.3216 20.0926 16.7071 19.7071L21.7071 14.7071C21.8969 14.5173 22.0024 14.2592 22 13.9908C21.9975 13.7225 21.8873 13.4663 21.6941 13.2801L19.3726 11.0419L21.7074 8.70711C21.8949 8.51957 22.0003 8.26522 22.0003 8C22.0003 7.73479 21.8949 7.48043 21.7074 7.2929L16.7074 2.29289ZM7.95849 9.62757L11.544 6.04202L9.98723 4.42725L6.40168 8.0128L7.95849 9.62757ZM15.9872 17.5986L14.3726 16.0419L17.9581 12.4564L19.5727 14.013L15.9872 17.5986Z" fill="black"/>
</svg>
