<svg width="24" height="24" viewBox="0 0 24 24" fill="none" xmlns="http://www.w3.org/2000/svg">
<path d="M3.62776 5.63996C3.62776 5.88598 3.6724 6.1218 3.75379 6.3396C1.07379 10.2355 1.46517 15.6067 4.9289 19.0704C7.74428 21.8858 11.8194 22.6701 15.3353 21.429C15.8561 21.2451 16.1292 20.6739 15.9454 20.1531C15.7615 19.6323 15.1903 19.3592 14.6695 19.543C11.8524 20.5374 8.59351 19.9066 6.34311 17.6562C3.61457 14.9277 3.26881 10.7173 5.30675 7.61422C5.41133 7.63115 5.51857 7.63996 5.62776 7.63996C6.73233 7.63996 7.62776 6.74453 7.62776 5.63996C7.62776 4.53539 6.73233 3.63996 5.62776 3.63996C4.52319 3.63996 3.62776 4.53539 3.62776 5.63996Z" fill="black"/>
<path d="M8.05924 3.84331C7.8757 3.32242 8.14919 2.75136 8.67008 2.56783C12.1847 1.32944 16.2571 2.11435 19.071 4.92828C22.5359 8.39311 22.9264 13.7666 20.2436 17.6628C20.3252 17.8808 20.37 18.117 20.37 18.3633C20.37 19.4679 19.4745 20.3633 18.37 20.3633C17.2654 20.3633 16.37 19.4679 16.37 18.3633C16.37 17.2588 17.2654 16.3633 18.37 16.3633C18.4789 16.3633 18.5859 16.3721 18.6902 16.389C20.7314 13.2855 20.3867 9.07235 17.6568 6.34249C15.4076 4.09325 12.1509 3.4619 9.33473 4.45416C8.81383 4.63769 8.24278 4.36421 8.05924 3.84331Z" fill="black"/>
<path d="M8.99856 11.9999C8.99856 10.3431 10.3417 8.99994 11.9986 8.99994C13.6554 8.99994 14.9986 10.3431 14.9986 11.9999C14.9986 13.6568 13.6554 14.9999 11.9986 14.9999C10.3417 14.9999 8.99856 13.6568 8.99856 11.9999Z" fill="black"/>
<path fill-rule="evenodd" clip-rule="evenodd" d="M15.087 6.27834C12.624 4.94756 9.48325 5.32261 7.40236 7.40351C4.86395 9.94191 4.86396 14.0575 7.40236 16.5959C9.94077 19.1343 14.0563 19.1343 16.5947 16.5959C18.6749 14.5158 19.0504 11.3766 17.7214 8.91405C17.8293 8.66825 17.8892 8.3966 17.8892 8.11096C17.8892 7.00639 16.9938 6.11096 15.8892 6.11096C15.6039 6.11096 15.3325 6.1707 15.087 6.27834ZM13.8983 7.919C12.2329 7.14386 10.1909 7.44344 8.81657 8.81772C7.05922 10.5751 7.05922 13.4243 8.81658 15.1817C10.5739 16.939 13.4232 16.939 15.1805 15.1817C16.5543 13.8079 16.8542 11.767 16.0802 10.102C16.0173 10.1079 15.9536 10.111 15.8892 10.111C15.3775 10.111 14.9086 9.91749 14.5554 9.60128C14.1479 9.2365 13.8892 8.70329 13.8892 8.11096C13.8892 8.04621 13.8923 7.98217 13.8983 7.919Z" fill="black"/>
</svg>
