<svg width="24" height="24" viewBox="0 0 24 24" fill="none" xmlns="http://www.w3.org/2000/svg">
<path d="M17.9209 4.06034C18.4399 3.87144 19.0137 4.13903 19.2026 4.65801L21.9388 12.1755C22.0295 12.4248 22.0175 12.6998 21.9054 12.9402C21.7933 13.1806 21.5904 13.3666 21.3411 13.4573L17.5824 14.8253C17.0717 15.0112 16.508 14.7551 16.31 14.2525L13.5558 6.68517C13.3842 6.17288 13.6515 5.61429 14.1622 5.42842L17.9209 4.06034Z" fill="black"/>
<path d="M12.7096 7.28423L4.96581 11.2765C4.51837 11.5072 4.31215 12.0345 4.48441 12.5075L5.61924 15.6237C5.79146 16.0966 6.28829 16.3678 6.77921 16.257L10.3711 15.4456C10.42 15.5344 10.4733 15.6204 10.5306 15.7034L9.10584 18.5529C8.85886 19.0469 9.05909 19.6476 9.55307 19.8945C10.047 20.1415 10.6477 19.9413 10.8947 19.4473L12.1758 16.8851C12.438 16.9599 12.7146 17 13.0003 17C13.2868 17 13.5639 16.9599 13.8263 16.8849L15.1075 19.4473C15.3545 19.9413 15.9551 20.1415 16.4491 19.8945C16.9431 19.6476 17.1433 19.0469 16.8963 18.5529L15.471 15.7022C15.54 15.6022 15.6031 15.4978 15.6597 15.3896L12.7096 7.28423Z" fill="black"/>
<path d="M2.65808 13.0604C3.17702 12.8714 3.75091 13.1389 3.9399 13.6578L4.48617 15.1578C4.67516 15.6768 4.40768 16.2507 3.88874 16.4397C3.36979 16.6286 2.7959 16.3612 2.60691 15.8422L2.06064 14.3422C1.87165 13.8233 2.13913 13.2494 2.65808 13.0604Z" fill="black"/>
</svg>
