<svg width="24" height="24" viewBox="0 0 24 24" fill="none" xmlns="http://www.w3.org/2000/svg">
<path opacity="0.3" d="M17.9998 10H2.05469C2.55213 14.4999 6.3672 18 10.9998 18C15.9703 18 19.9998 13.9706 19.9998 9V7H20.9998C21.552 7 21.9998 6.55228 21.9998 6C21.9998 5.44772 21.552 5 20.9998 5H18.9998C18.4475 5 17.9998 5.44772 17.9998 6V10Z" fill="black"/>
<path d="M6.45805 2.33855C6.28258 2.13959 6.03525 2.01851 5.77048 2.00195C5.50572 1.98539 5.24522 2.07472 5.04633 2.25026C3.41426 3.69076 2.30726 5.71691 2.05469 8L11.4511 8L6.45805 2.33855Z" fill="black"/>
<path d="M4.99971 18C3.89514 18 2.99971 18.8954 2.99971 20C2.99971 21.1046 3.89514 22 4.99971 22C6.10428 22 6.99971 21.1046 6.99971 20C6.99971 18.8954 6.10428 18 4.99971 18Z" fill="black"/>
<path d="M14.9997 20C14.9997 18.8954 15.8951 18 16.9997 18C18.1043 18 18.9997 18.8954 18.9997 20C18.9997 21.1046 18.1043 22 16.9997 22C15.8951 22 14.9997 21.1046 14.9997 20Z" fill="black"/>
</svg>
