<svg width="24" height="24" viewBox="0 0 24 24" fill="none" xmlns="http://www.w3.org/2000/svg">
<path opacity="0.3" fill-rule="evenodd" clip-rule="evenodd" d="M2 4C2 3.44772 2.44772 3 3 3H6.55848C7.84977 3 8.99619 3.82629 9.40453 5.05132L10.7208 9H13C14.6569 9 16 10.3431 16 12L16.0001 13H19.0001V12.1056C19.0001 11.5133 19.1754 10.9343 19.5039 10.4415L21.168 7.94532C21.4744 7.48579 22.0953 7.36161 22.5548 7.66796C23.0143 7.97431 23.1385 8.59518 22.8321 9.05471L21.168 11.5509C21.0585 11.7151 21.0001 11.9082 21.0001 12.1056V15.8945C21.0001 16.0919 21.0585 16.2849 21.168 16.4492L22.8321 18.9453C23.1385 19.4048 23.0143 20.0257 22.5548 20.332C22.0953 20.6384 21.4744 20.5142 21.168 20.0547L19.504 17.5586C19.1754 17.0658 19.0001 16.4867 19.0001 15.8945V15H17.465C17.1001 14.3693 16.568 13.8475 15.9294 13.4952C15.3572 13.1796 14.6996 13 14 13H5C3.91163 13 2.92478 13.4347 2.2036 14.1399C2.13314 14.2088 2.06523 14.2803 2 14.3542V13.5351V4ZM7.50716 5.68377L8.61257 9H4V5H6.55848C6.98891 5 7.37105 5.27543 7.50716 5.68377Z" fill="black"/>
<path fill-rule="evenodd" clip-rule="evenodd" d="M1 17C1 14.7909 2.79086 13 5 13H14C16.2091 13 18 14.7909 18 17C18 19.2091 16.2091 21 14 21H5C2.79086 21 1 19.2091 1 17ZM5 15C3.89543 15 3 15.8954 3 17C3 18.1046 3.89543 19 5 19H14C15.1046 19 16 18.1046 16 17C16 15.8954 15.1046 15 14 15H5Z" fill="black"/>
<path fill-rule="evenodd" clip-rule="evenodd" d="M4.5 17C4.5 16.4477 4.94772 16 5.5 16H5.509C6.06128 16 6.509 16.4477 6.509 17C6.509 17.5523 6.06128 18 5.509 18H5.5C4.94772 18 4.5 17.5523 4.5 17Z" fill="black"/>
<path fill-rule="evenodd" clip-rule="evenodd" d="M8.5 17C8.5 16.4477 8.94772 16 9.5 16H9.509C10.0613 16 10.509 16.4477 10.509 17C10.509 17.5523 10.0613 18 9.509 18H9.5C8.94772 18 8.5 17.5523 8.5 17Z" fill="black"/>
<path fill-rule="evenodd" clip-rule="evenodd" d="M12.5 17C12.5 16.4477 12.9477 16 13.5 16H13.509C14.0613 16 14.509 16.4477 14.509 17C14.509 17.5523 14.0613 18 13.509 18H13.5C12.9477 18 12.5 17.5523 12.5 17Z" fill="black"/>
<path d="M14 9.17071C13.6872 9.06015 13.3506 9 13 9H12V7C12 6.44772 12.4477 6 13 6C13.5523 6 14 6.44772 14 7V9.17071Z" fill="black"/>
</svg>
