<svg width="24" height="24" viewBox="0 0 24 24" fill="none" xmlns="http://www.w3.org/2000/svg">
<g opacity="0.3">
<path fill-rule="evenodd" clip-rule="evenodd" d="M10 16V12.5H14V16H10ZM16 16V12.5H17C18.1046 12.5 19 13.3954 19 14.5V16H16ZM8 16H5V14.5C5 13.3954 5.89543 12.5 7 12.5H8V16Z" fill="black"/>
<path d="M13 1C12.4477 1 12 1.44772 12 2C12 2.55228 12.4477 3 13 3H13.009C13.5613 3 14.009 2.55228 14.009 2C14.009 1.44772 13.5613 1 13.009 1H13Z" fill="black"/>
<path d="M9 2.5C8.44772 2.5 8 2.94772 8 3.5C8 4.05228 8.44772 4.5 9 4.5H9.009C9.56128 4.5 10.009 4.05228 10.009 3.5C10.009 2.94772 9.56128 2.5 9.009 2.5H9Z" fill="black"/>
<path fill-rule="evenodd" clip-rule="evenodd" d="M7 10.5H17C19.2091 10.5 21 12.2909 21 14.5V19C21 21.2091 19.2091 23 17 23H7C4.79086 23 3 21.2091 3 19V14.5C3 12.2909 4.79086 10.5 7 10.5ZM10 16V12.5H14V16H10ZM16 16V12.5H17C18.1046 12.5 19 13.3954 19 14.5V16H16ZM8 16H5V14.5C5 13.3954 5.89543 12.5 7 12.5H8V16Z" fill="black"/>
</g>
<path d="M21.3627 2.93203C21.8774 2.73186 22.1324 2.15231 21.9323 1.63758C21.7321 1.12285 21.1526 0.867846 20.6378 1.06802L11.6596 4.55956C11.6451 4.56482 11.6307 4.5704 11.6165 4.57631L2.63782 8.06802C2.12309 8.26819 1.86809 8.84774 2.06826 9.36247C2.26844 9.8772 2.84798 10.1322 3.36271 9.93203L11.0003 6.96187V10.5H13.0003V6.18409L21.3627 2.93203Z" fill="black"/>
<path d="M10 12.5V16H14V12.5H10Z" fill="black"/>
<path d="M5 16H8V12.5H7C5.89543 12.5 5 13.3954 5 14.5V16Z" fill="black"/>
<path d="M16 12.5V16H19V14.5C19 13.3954 18.1046 12.5 17 12.5H16Z" fill="black"/>
</svg>
