<svg width="24" height="24" viewBox="0 0 24 24" fill="none" xmlns="http://www.w3.org/2000/svg">
<path opacity="0.3" fill-rule="evenodd" clip-rule="evenodd" d="M8.74029 3.49985H15.2598C15.8196 3.49915 16.3123 3.49853 16.7702 3.64802C17.1716 3.77903 17.5408 3.99329 17.8537 4.27678C18.2107 4.60026 18.4546 5.0283 18.7318 5.51473L19.9215 7.597L20.3598 7.23173C20.7841 6.87816 21.4147 6.93549 21.7682 7.35976C22.1218 7.78404 22.0645 8.41461 21.6402 8.76817L20.9293 9.3606L21.0612 9.59141C21.3407 10.0803 21.5344 10.4191 21.6735 10.7849C21.7966 11.1087 21.8858 11.4444 21.9395 11.7866C22.0002 12.1733 22.0001 12.5634 22 13.1267L22 18.0264C22 18.2364 22.0001 18.4411 21.9882 18.6152C21.9752 18.8055 21.9447 19.0313 21.8478 19.2653C21.6448 19.7554 21.2554 20.1447 20.7654 20.3477C20.5313 20.4447 20.3056 20.4751 20.1153 20.4881C19.9412 20.5 19.7367 20.5 19.5267 20.4999H19.4735C19.2636 20.5 19.0588 20.5 18.8848 20.4881C18.6944 20.4751 18.4687 20.4447 18.2347 20.3477C17.7446 20.1447 17.3553 19.7554 17.1523 19.2653C17.0553 19.0313 17.0248 18.8055 17.0119 18.6152C17.0093 18.5781 17.0073 18.5396 17.0058 18.4999H6.99428C6.99271 18.5396 6.99072 18.5781 6.98819 18.6152C6.9752 18.8055 6.94473 19.0313 6.84778 19.2653C6.6448 19.7554 6.25545 20.1447 5.76539 20.3477C5.53135 20.4447 5.30562 20.4751 5.11525 20.4881C4.94121 20.5 4.73665 20.5 4.52666 20.4999H4.47354C4.26356 20.5 4.05884 20.5 3.8848 20.4881C3.69443 20.4751 3.4687 20.4447 3.23466 20.3477C2.7446 20.1447 2.35525 19.7554 2.15227 19.2653C2.05532 19.0313 2.02485 18.8055 2.01186 18.6152C1.99998 18.4411 2 18.2365 2.00002 18.0264L2.00002 13.1267C1.99991 12.5635 1.99983 12.1733 2.06054 11.7866C2.11428 11.4444 2.20343 11.1087 2.32656 10.7849C2.46568 10.4191 2.65933 10.0804 2.93887 9.59139L3.07076 9.3606L2.35984 8.76817C1.93556 8.41461 1.87824 7.78404 2.2318 7.35976C2.58537 6.93549 3.21593 6.87816 3.64021 7.23173L4.07853 7.597L5.26828 5.51473C5.54544 5.0283 5.78932 4.60026 6.14634 4.27678C6.45923 3.99329 6.82843 3.77903 7.22981 3.64802C7.6878 3.49853 8.18044 3.49915 8.74029 3.49985ZM13.3321 8.55462C13.6384 8.09509 13.5142 7.47423 13.0547 7.16787C12.5952 6.86152 11.9743 6.98569 11.6679 7.44522L9.66795 10.4452C9.46338 10.7521 9.44431 11.1466 9.61833 11.4718C9.79234 11.7969 10.1312 11.9999 10.5 11.9999H11.6315L10.6679 13.4452C10.3616 13.9048 10.4858 14.5256 10.9453 14.832C11.4048 15.1383 12.0257 15.0142 12.3321 14.5546L14.3321 11.5546C14.5366 11.2478 14.5557 10.8532 14.3817 10.5281C14.2077 10.2029 13.8688 9.99992 13.5 9.99992H12.3685L13.3321 8.55462ZM6.5 12.4999C5.67157 12.4999 5 13.1715 5 13.9999C5 14.8283 5.67157 15.4999 6.5 15.4999C7.32843 15.4999 8 14.8284 8 13.9999C8 13.1715 7.32843 12.4999 6.5 12.4999ZM17.5 12.4999C16.6716 12.4999 16 13.1715 16 13.9999C16 14.8284 16.6716 15.4999 17.5 15.4999C18.3284 15.4999 19 14.8284 19 13.9999C19 13.1715 18.3284 12.4999 17.5 12.4999Z" fill="black"/>
<path fill-rule="evenodd" clip-rule="evenodd" d="M13.0547 7.16806C13.5142 7.47441 13.6384 8.09528 13.3321 8.55481L12.3685 10.0001H13.5C13.8688 10.0001 14.2077 10.2031 14.3817 10.5282C14.5557 10.8534 14.5366 11.248 14.3321 11.5548L12.3321 14.5548C12.0257 15.0143 11.4048 15.1385 10.9453 14.8322C10.4858 14.5258 10.3616 13.9049 10.6679 13.4454L11.6315 12.0001H10.5C10.1312 12.0001 9.79234 11.7971 9.61833 11.472C9.44431 11.1468 9.46338 10.7523 9.66795 10.4454L11.6679 7.44541C11.9743 6.98588 12.5952 6.8617 13.0547 7.16806ZM5 14.0001C5 13.1717 5.67157 12.5001 6.5 12.5001C7.32843 12.5001 8 13.1717 8 14.0001C8 14.8285 7.32843 15.5001 6.5 15.5001C5.67157 15.5001 5 14.8285 5 14.0001ZM16 14.0001C16 13.1717 16.6716 12.5001 17.5 12.5001C18.3284 12.5001 19 13.1717 19 14.0001C19 14.8285 18.3284 15.5001 17.5 15.5001C16.6716 15.5001 16 14.8285 16 14.0001Z" fill="black"/>
<path d="M21.9863 18.6153C21.9733 18.8057 21.9429 19.0314 21.8459 19.2655C21.6429 19.7555 21.2536 20.1449 20.7635 20.3479C20.5295 20.4448 20.3038 20.4753 20.1134 20.4883C19.9394 20.5002 19.7348 20.5001 19.5248 20.5001H19.4717C19.2617 20.5001 19.057 20.5002 18.8829 20.4883C18.6926 20.4753 18.4668 20.4448 18.2328 20.3479C17.7427 20.1449 17.3534 19.7555 17.1504 19.2655C17.0535 19.0314 17.023 18.8057 17.01 18.6153C17.0075 18.5782 17.0055 18.5398 17.0039 18.5001H6.99241C6.99085 18.5398 6.98886 18.5782 6.98633 18.6153C6.97334 18.8057 6.94286 19.0314 6.84592 19.2655C6.64293 19.7555 6.25358 20.1449 5.76353 20.3479C5.52948 20.4448 5.30376 20.4753 5.11339 20.4883C4.93936 20.5002 4.73478 20.5001 4.5248 20.5001H4.47168C4.2617 20.5001 4.05696 20.5002 3.88293 20.4883C3.69256 20.4753 3.46684 20.4448 3.23279 20.3479C2.74274 20.1449 2.35339 19.7555 2.1504 19.2655C2.05346 19.0314 2.02298 18.8057 2.00999 18.6153C2.00746 18.5782 2.00547 18.5398 2.00391 18.5001H6.99241H17.0039H21.9924C21.9908 18.5398 21.9889 18.5783 21.9863 18.6153Z" fill="black"/>
</svg>
