<svg width="24" height="24" viewBox="0 0 24 24" fill="none" xmlns="http://www.w3.org/2000/svg">
<path opacity="0.3" fill-rule="evenodd" clip-rule="evenodd" d="M18.9066 5.60831L19.5498 4.50294C19.8276 4.02558 19.6658 3.41344 19.1884 3.13568C18.7111 2.85791 18.0989 3.01971 17.8211 3.49706L17.2738 4.43776L15.446 3.13379L15.3885 3.08495C14.9617 2.72264 14.5861 2.40383 14.14 2.22196C13.7768 2.0739 13.3883 1.99861 12.9967 2.00002C12.9667 2.00013 12.9368 2.00068 12.9068 2.00169C12.4253 2.01786 11.9626 2.18693 11.4367 2.37907L11.327 2.4191L11.3116 2.42486L5.65056 4.59149L5.5485 4.62854C5.02216 4.81936 4.55903 4.98727 4.17978 5.28439C3.84742 5.54478 3.57376 5.87239 3.3767 6.2458C3.15185 6.67188 3.06908 7.15751 2.97501 7.70941L2.95742 7.81239L2.59574 9.64553L2.31998 9.55248C1.79668 9.37591 1.22933 9.65699 1.05276 10.1803C0.876185 10.7036 1.15726 11.2709 1.68056 11.4475L2.20528 11.6246L2.17697 11.7681C2.17537 11.7761 2.17388 11.7842 2.17248 11.7924L2.16014 11.8642C2.0647 12.4193 1.99858 12.8038 1.99297 13.1951C1.98801 13.5415 2.01905 13.8875 2.0856 14.2274C2.16079 14.6115 2.29431 14.9781 2.48706 15.5074L2.51045 15.5716L4.1508 20.2068L4.16288 20.2401C4.23469 20.4375 4.30466 20.6297 4.37535 20.7892C4.45267 20.9637 4.55851 21.1654 4.72965 21.3522C5.08801 21.7432 5.58704 21.9759 6.11697 21.9991C6.37006 22.0101 6.59259 21.9616 6.77592 21.9087C6.94344 21.8603 7.13566 21.7903 7.33287 21.7185L7.38304 21.7003C7.5804 21.6285 7.77267 21.5585 7.93217 21.4878C8.10662 21.4105 8.30831 21.3047 8.49508 21.1335C8.88616 20.7752 9.11886 20.2761 9.142 19.7462C9.15305 19.4931 9.10448 19.2706 9.05158 19.0872C9.04054 19.049 9.02837 19.0095 9.01532 18.9689L18.1908 15.5409C18.2047 15.5748 18.2187 15.6077 18.2327 15.6393C18.31 15.8137 18.4158 16.0154 18.587 16.2022C18.9453 16.5933 19.4444 16.826 19.9743 16.8491C20.2274 16.8601 20.4499 16.8116 20.6332 16.7587C20.8009 16.7103 20.9932 16.6403 21.1906 16.5684L21.2403 16.5503C21.4377 16.4785 21.63 16.4085 21.7895 16.3378C21.9639 16.2605 22.1656 16.1547 22.3524 15.9835C22.7435 15.6252 22.9762 15.1261 22.9993 14.5962C23.0104 14.3431 22.9618 14.1206 22.9089 13.9373C22.8605 13.7696 22.7905 13.5773 22.7187 13.38L22.7111 13.3593L21.0708 8.72417L21.0678 8.71577L21.0428 8.64721C20.8503 8.11804 20.7169 7.75125 20.5277 7.40875C20.3601 7.10554 20.1615 6.82057 19.9351 6.55843C19.6792 6.26226 19.3814 6.01017 18.9515 5.64631L18.9066 5.60831ZM13.385 4.07399C13.2639 4.02463 13.1344 3.99954 13.0039 4.00001C12.9939 4.00004 12.9839 4.00023 12.9739 4.00056C12.8531 4.00462 12.7114 4.04367 12.0188 4.29568L6.35771 6.46232L6.34229 6.46808C5.643 6.7226 5.50869 6.78396 5.41321 6.85876C5.30242 6.94556 5.2112 7.05476 5.14551 7.17923C5.08891 7.2865 5.05244 7.42959 4.92648 8.16303C4.92508 8.17115 4.92359 8.17925 4.922 8.18733L4.50705 10.2904L5.12488 10.4989L5.144 10.5056C5.25219 10.5445 5.3059 10.5637 5.34547 10.5761L5.34837 10.5771L5.35127 10.5761C5.3908 10.5635 5.44445 10.5442 5.55251 10.5049L15.7401 6.7969C15.8482 6.75757 15.9017 6.73789 15.9401 6.72212L15.9429 6.72096L15.9445 6.7184C15.9668 6.68342 15.9957 6.63423 16.0535 6.53484L16.2636 6.17385L14.2506 4.73771C14.2281 4.72166 14.2062 4.70468 14.1851 4.68683C13.6172 4.20595 13.4973 4.11977 13.385 4.07399ZM15.25 11.25C15.25 10.4216 15.9216 9.75 16.75 9.75C17.5784 9.75 18.25 10.4216 18.25 11.25C18.25 12.0784 17.5784 12.75 16.75 12.75C15.9216 12.75 15.25 12.0784 15.25 11.25ZM5.51562 14.761C5.51562 13.9326 6.1872 13.261 7.01562 13.261C7.84405 13.261 8.51562 13.9326 8.51562 14.761C8.51562 15.5895 7.84405 16.261 7.01562 16.261C6.1872 16.261 5.51562 15.5895 5.51562 14.761Z" fill="black"/>
<path d="M16.4227 19.3382C16.8066 17.9563 18.0648 17 19.499 17C20.9332 17 22.1914 17.9563 22.5753 19.3382L22.9625 20.7324C23.0462 21.0335 22.9842 21.3563 22.7951 21.6051C22.606 21.8539 22.3115 22 21.999 22H16.999C16.6865 22 16.392 21.8539 16.2029 21.6051C16.0138 21.3563 15.9519 21.0335 16.0355 20.7324L16.4227 19.3382Z" fill="black"/>
<path d="M16.749 9.75C15.9206 9.75 15.249 10.4216 15.249 11.25C15.249 12.0784 15.9206 12.75 16.749 12.75C17.5774 12.75 18.249 12.0784 18.249 11.25C18.249 10.4216 17.5774 9.75 16.749 9.75Z" fill="black"/>
<path d="M7.01462 13.261C6.1862 13.261 5.51462 13.9326 5.51462 14.761C5.51462 15.5895 6.1862 16.261 7.01462 16.261C7.84305 16.261 8.51462 15.5895 8.51462 14.761C8.51462 13.9326 7.84305 13.261 7.01462 13.261Z" fill="black"/>
<path d="M18.2323 15.6393C18.2183 15.6077 18.2044 15.5748 18.1904 15.5409L22.8644 13.7947C22.8805 13.8438 22.8953 13.8914 22.9085 13.9373C22.9614 14.1206 23.01 14.3431 22.999 14.5962C22.9758 15.1261 22.7431 15.6252 22.352 15.9835C22.1653 16.1547 21.9636 16.2605 21.7891 16.3378C21.6296 16.4085 21.4373 16.4785 21.2399 16.5503L21.1902 16.5684C20.9928 16.6403 20.8005 16.7103 20.6329 16.7587C20.4496 16.8116 20.227 16.8601 19.9739 16.8491C19.444 16.826 18.945 16.5932 18.5866 16.2022C18.4155 16.0154 18.3096 15.8137 18.2323 15.6393Z" fill="black"/>
<path d="M4.7302 21.3522C4.55905 21.1654 4.45321 20.9637 4.3759 20.7892C4.36517 20.765 4.35446 20.7401 4.34375 20.7144L9.01586 18.9689C9.02892 19.0095 9.04108 19.049 9.05212 19.0872C9.10503 19.2706 9.15359 19.4931 9.14254 19.7462C9.1194 20.2761 8.8867 20.7751 8.49563 21.1335C8.30886 21.3046 8.10717 21.4105 7.93272 21.4878C7.77321 21.5585 7.58095 21.6285 7.38358 21.7003L7.33342 21.7185C7.13621 21.7903 6.94398 21.8603 6.77647 21.9086C6.59313 21.9615 6.3706 22.0101 6.11752 21.9991C5.58759 21.9759 5.08855 21.7432 4.7302 21.3522Z" fill="black"/>
<path d="M13.0046 4.00001C13.1352 3.99954 13.2647 4.02463 13.3857 4.07399C13.4981 4.11977 13.618 4.20595 14.1859 4.68683C14.207 4.70468 14.2288 4.72166 14.2513 4.73771L16.2643 6.17385L16.0543 6.53484C15.9964 6.63423 15.9676 6.68342 15.9453 6.7184L15.9436 6.72096L15.9408 6.72212C15.9025 6.73789 15.8489 6.75757 15.7409 6.7969L5.55327 10.5049C5.44521 10.5442 5.39156 10.5635 5.35203 10.5761L5.34913 10.5771L5.34623 10.5761C5.30666 10.5637 5.25295 10.5445 5.14476 10.5056L5.12564 10.4989L4.50781 10.2904L4.92275 8.18733C4.92435 8.17925 4.92584 8.17115 4.92724 8.16303C5.0532 7.42959 5.08967 7.2865 5.14627 7.17923C5.21196 7.05476 5.30318 6.94556 5.41397 6.85876C5.50945 6.78396 5.64376 6.7226 6.34305 6.46808L6.35847 6.46232L12.0195 4.29568C12.7122 4.04367 12.8539 4.00462 12.9747 4.00056C12.9847 4.00023 12.9947 4.00004 13.0046 4.00001Z" fill="black"/>
</svg>
