<svg width="24" height="24" viewBox="0 0 24 24" fill="none" xmlns="http://www.w3.org/2000/svg">
<g opacity="0.3">
<path fill-rule="evenodd" clip-rule="evenodd" d="M19.7445 10.314L17.1839 6.4731C16.7346 5.79831 16.3956 5.28905 15.9343 4.90992C15.528 4.57603 15.06 4.32551 14.5568 4.17271C13.9855 3.9992 13.3737 3.99957 12.563 4.00005L9.02892 4.0001C8.33833 4.00009 7.7647 4.00008 7.29239 4.0358C6.79906 4.07311 6.3442 4.15311 5.90416 4.35052C5.21561 4.6594 4.62849 5.15677 4.21061 5.78516C3.94355 6.18676 3.78986 6.62228 3.67196 7.10277C3.55908 7.56278 3.46478 8.1286 3.35126 8.8098L3.12952 10.1403C2.96328 10.1848 2.7991 10.245 2.63803 10.3271C2.07355 10.6147 1.61461 11.0736 1.32699 11.6381C1.13419 12.0165 1.06288 12.4097 1.03057 12.8051C0.999971 13.1796 0.999986 13.6344 1 14.1616L1 15.432C0.999973 15.6844 0.999943 15.9302 1.01695 16.1383C1.03563 16.3669 1.07969 16.6367 1.21799 16.9081C1.40678 17.2786 1.70628 17.5809 2.07464 17.7732C2.02567 17.523 2 17.2646 2 17.0001C2 14.791 3.79086 13.0001 6 13.0001C8.20914 13.0001 10 14.791 10 17.0001C10 17.3454 9.95625 17.6805 9.87399 18.0001L14.126 18.0001C14.0438 17.6805 14 17.3454 14 17.0001C14 14.791 15.7909 13.0001 18 13.0001C20.2091 13.0001 22 14.791 22 17.0001C22 17.2646 21.9743 17.5232 21.9253 17.7733C22.4759 17.4859 22.8744 16.9507 22.9754 16.313C23.0006 16.1536 23.0003 15.9816 23.0001 15.8407L23 15.8001L23 15.7075C23.0001 15.0536 23.0002 14.608 22.9384 14.2179C22.6523 12.4114 21.4117 10.9343 19.7445 10.314ZM13.3321 8.55482C13.6384 8.09529 13.5142 7.47442 13.0547 7.16807C12.5952 6.86172 11.9743 6.98589 11.6679 7.44542L9.66795 10.4454C9.46338 10.7523 9.44431 11.1468 9.61833 11.472C9.79234 11.7971 10.1312 12.0001 10.5 12.0001H11.6315L10.6679 13.4454C10.3616 13.905 10.4858 14.5258 10.9453 14.8322C11.4048 15.1385 12.0257 15.0144 12.3321 14.5548L14.3321 11.5548C14.5366 11.248 14.5557 10.8534 14.3817 10.5283C14.2077 10.2031 13.8688 10.0001 13.5 10.0001H12.3685L13.3321 8.55482Z" fill="black"/>
<path fill-rule="evenodd" clip-rule="evenodd" d="M19.7445 10.314L17.1839 6.4731C16.7346 5.79831 16.3956 5.28905 15.9343 4.90992C15.528 4.57603 15.06 4.32551 14.5568 4.17271C13.9855 3.9992 13.3737 3.99957 12.563 4.00005L9.02892 4.0001C8.33833 4.00009 7.7647 4.00008 7.29239 4.0358C6.79906 4.07311 6.3442 4.15311 5.90416 4.35052C5.21561 4.6594 4.62849 5.15677 4.21061 5.78516C3.94355 6.18676 3.78986 6.62228 3.67196 7.10277C3.55908 7.56278 3.46478 8.1286 3.35126 8.8098L3.12952 10.1403C2.96328 10.1848 2.7991 10.245 2.63803 10.3271C2.07355 10.6147 1.61461 11.0736 1.32699 11.6381C1.13419 12.0165 1.06288 12.4097 1.03057 12.8051C0.999971 13.1796 0.999986 13.6344 1 14.1616L1 15.432C0.999973 15.6844 0.999943 15.9302 1.01695 16.1383C1.03563 16.3669 1.07969 16.6367 1.21799 16.9081C1.40678 17.2786 1.70628 17.5809 2.07464 17.7732C2.02567 17.523 2 17.2646 2 17.0001C2 14.791 3.79086 13.0001 6 13.0001C8.20914 13.0001 10 14.791 10 17.0001C10 17.3454 9.95625 17.6805 9.87399 18.0001L14.126 18.0001C14.0438 17.6805 14 17.3454 14 17.0001C14 14.791 15.7909 13.0001 18 13.0001C20.2091 13.0001 22 14.791 22 17.0001C22 17.2646 21.9743 17.5232 21.9253 17.7733C22.4759 17.4859 22.8744 16.9507 22.9754 16.313C23.0006 16.1536 23.0003 15.9816 23.0001 15.8407L23 15.8001L23 15.7075C23.0001 15.0536 23.0002 14.608 22.9384 14.2179C22.6523 12.4114 21.4117 10.9343 19.7445 10.314ZM13.3321 8.55482C13.6384 8.09529 13.5142 7.47442 13.0547 7.16807C12.5952 6.86172 11.9743 6.98589 11.6679 7.44542L9.66795 10.4454C9.46338 10.7523 9.44431 11.1468 9.61833 11.472C9.79234 11.7971 10.1312 12.0001 10.5 12.0001H11.6315L10.6679 13.4454C10.3616 13.905 10.4858 14.5258 10.9453 14.8322C11.4048 15.1385 12.0257 15.0144 12.3321 14.5548L14.3321 11.5548C14.5366 11.248 14.5557 10.8534 14.3817 10.5283C14.2077 10.2031 13.8688 10.0001 13.5 10.0001H12.3685L13.3321 8.55482Z" fill="black" fill-opacity="0.2"/>
</g>
<path d="M21 17.0001C21 18.657 19.6569 20.0001 18 20.0001C16.3431 20.0001 15 18.657 15 17.0001C15 15.3433 16.3431 14.0001 18 14.0001C19.6569 14.0001 21 15.3433 21 17.0001Z" fill="black"/>
<path d="M21 17.0001C21 18.657 19.6569 20.0001 18 20.0001C16.3431 20.0001 15 18.657 15 17.0001C15 15.3433 16.3431 14.0001 18 14.0001C19.6569 14.0001 21 15.3433 21 17.0001Z" fill="black" fill-opacity="0.2"/>
<path d="M9 17.0001C9 18.657 7.65685 20.0001 6 20.0001C4.34315 20.0001 3 18.657 3 17.0001C3 15.3433 4.34315 14.0001 6 14.0001C7.65685 14.0001 9 15.3433 9 17.0001Z" fill="black"/>
<path d="M9 17.0001C9 18.657 7.65685 20.0001 6 20.0001C4.34315 20.0001 3 18.657 3 17.0001C3 15.3433 4.34315 14.0001 6 14.0001C7.65685 14.0001 9 15.3433 9 17.0001Z" fill="black" fill-opacity="0.2"/>
<path d="M13.0547 7.16806C13.5142 7.47441 13.6384 8.09528 13.3321 8.55481L12.3685 10.0001H13.5C13.8688 10.0001 14.2077 10.2031 14.3817 10.5282C14.5557 10.8534 14.5366 11.248 14.3321 11.5548L12.3321 14.5548C12.0257 15.0143 11.4048 15.1385 10.9453 14.8322C10.4858 14.5258 10.3616 13.9049 10.668 13.4454L11.6315 12.0001H10.5C10.1312 12.0001 9.79235 11.7971 9.61833 11.472C9.44431 11.1468 9.46338 10.7523 9.66795 10.4454L11.668 7.44541C11.9743 6.98588 12.5952 6.8617 13.0547 7.16806Z" fill="black"/>
<path d="M13.0547 7.16806C13.5142 7.47441 13.6384 8.09528 13.3321 8.55481L12.3685 10.0001H13.5C13.8688 10.0001 14.2077 10.2031 14.3817 10.5282C14.5557 10.8534 14.5366 11.248 14.3321 11.5548L12.3321 14.5548C12.0257 15.0143 11.4048 15.1385 10.9453 14.8322C10.4858 14.5258 10.3616 13.9049 10.668 13.4454L11.6315 12.0001H10.5C10.1312 12.0001 9.79235 11.7971 9.61833 11.472C9.44431 11.1468 9.46338 10.7523 9.66795 10.4454L11.668 7.44541C11.9743 6.98588 12.5952 6.8617 13.0547 7.16806Z" fill="black" fill-opacity="0.2"/>
</svg>
