<svg width="24" height="24" viewBox="0 0 24 24" fill="none" xmlns="http://www.w3.org/2000/svg">
<path opacity="0.3" fill-rule="evenodd" clip-rule="evenodd" d="M7.22979 3.64802C7.68778 3.49853 8.18042 3.49915 8.74027 3.49985H15.2597C15.8196 3.49915 16.3122 3.49853 16.7702 3.64802C17.1716 3.77903 17.5408 3.99329 17.8537 4.27678C18.2107 4.60026 18.4546 5.0283 18.7317 5.51473L21.0612 9.59145C21.3407 10.0804 21.5344 10.4191 21.6735 10.7849C21.7966 11.1087 21.8858 11.4444 21.9395 11.7866C21.9749 12.012 21.9896 12.2386 21.9957 12.4999H19C18.4477 12.4999 18 12.9477 18 13.4999C18 14.0522 18.4477 14.4999 19 14.4999H22L22 18.0266C22 18.2365 22 18.4411 21.9882 18.6152C21.9752 18.8055 21.9447 19.0313 21.8478 19.2653C21.6448 19.7554 21.2554 20.1447 20.7654 20.3477C20.5313 20.4447 20.3056 20.4751 20.1152 20.4881C19.9412 20.5 19.7365 20.5 19.5265 20.4999H19.4734C19.2634 20.5 19.0588 20.5 18.8848 20.4881C18.6944 20.4751 18.4687 20.4447 18.2346 20.3477C17.7446 20.1447 17.3552 19.7554 17.1522 19.2653C17.0553 19.0313 17.0248 18.8055 17.0118 18.6152C17.0093 18.5781 17.0073 18.5396 17.0058 18.4999H6.99426C6.9927 18.5396 6.9907 18.5781 6.98817 18.6152C6.97518 18.8055 6.94471 19.0313 6.84777 19.2653C6.64478 19.7554 6.25543 20.1447 5.76537 20.3477C5.53133 20.4447 5.30561 20.4751 5.11523 20.4881C4.9412 20.5 4.7365 20.5 4.52652 20.4999H4.4734C4.26341 20.5 4.05882 20.5 3.88478 20.4881C3.69441 20.4751 3.46868 20.4447 3.23464 20.3477C2.74458 20.1447 2.35524 19.7554 2.15225 19.2653C2.0553 19.0313 2.02483 18.8055 2.01184 18.6152C1.99996 18.4411 1.99998 18.2365 2.00001 18.0264L2 14.4999H4.99999C5.55227 14.4999 5.99999 14.0522 5.99999 13.4999C5.99999 12.9477 5.55227 12.4999 4.99999 12.4999H2.00429C2.0104 12.2386 2.02514 12.012 2.06052 11.7866C2.11426 11.4444 2.20341 11.1087 2.32654 10.7849C2.46566 10.4191 2.65931 10.0804 2.93885 9.59139L5.26827 5.51473C5.54542 5.0283 5.7893 4.60026 6.14632 4.27678C6.45921 3.99329 6.82841 3.77903 7.22979 3.64802ZM9.99999 16.4999H14V14.4999H9.99999V16.4999ZM18.8173 9.69576C18.4007 9.56844 17.9584 9.49995 17.5 9.49995H6.50001C6.04162 9.49995 5.59931 9.56844 5.18272 9.69576L6.9469 6.60844C7.31612 5.96232 7.39933 5.84033 7.48921 5.75889C7.5935 5.66439 7.71657 5.59297 7.85036 5.5493C7.96567 5.51167 8.11287 5.49995 8.85704 5.49995H15.143C15.8871 5.49995 16.0343 5.51167 16.1496 5.5493C16.2834 5.59297 16.4065 5.66439 16.5108 5.75889C16.6007 5.84033 16.6839 5.96232 17.0531 6.60844L18.8173 9.69576Z" fill="black"/>
<path d="M17.5009 9.5C17.9593 9.5 18.4016 9.5685 18.8182 9.69582L17.054 6.60849C16.6848 5.96237 16.6016 5.84038 16.5117 5.75894C16.4074 5.66445 16.2843 5.59303 16.1505 5.54936C16.0352 5.51172 15.888 5.5 15.1438 5.5H8.85791C8.11374 5.5 7.96654 5.51172 7.85124 5.54936C7.71745 5.59303 7.59438 5.66445 7.49008 5.75894C7.4002 5.84038 7.31699 5.96237 6.94778 6.60849L5.18359 9.69582C5.60018 9.5685 6.0425 9.5 6.50088 9.5H17.5009Z" fill="black"/>
<path d="M14 16.5H10V14.5H14V16.5Z" fill="black"/>
<path d="M2 14.5H4.99999C5.55227 14.5 5.99999 14.0523 5.99999 13.5C5.99999 12.9477 5.55227 12.5 4.99999 12.5H2.00429L2 14.5Z" fill="black"/>
<path d="M21.9957 12.5H19C18.4477 12.5 18 12.9477 18 13.5C18 14.0523 18.4477 14.5 19 14.5H22L21.9957 12.5Z" fill="black"/>
<path d="M21.988 18.6152C21.9751 18.8056 21.9446 19.0313 21.8476 19.2654C21.6447 19.7554 21.2553 20.1448 20.7652 20.3478C20.5312 20.4447 20.3055 20.4752 20.1151 20.4882C19.9411 20.5 19.7364 20.5 19.5264 20.5H19.4733C19.2633 20.5 19.0587 20.5 18.8847 20.4882C18.6943 20.4752 18.4686 20.4447 18.2345 20.3478C17.7445 20.1448 17.3551 19.7554 17.1521 19.2654C17.0552 19.0313 17.0247 18.8056 17.0117 18.6152C17.0092 18.5781 17.0072 18.5396 17.0056 18.5H21.5H21.9942C21.9926 18.5396 21.9906 18.5781 21.988 18.6152Z" fill="black"/>
<path d="M6.98805 18.6152C6.99058 18.5781 6.99257 18.5396 6.99414 18.5H2.00564C2.0072 18.5396 2.00919 18.5781 2.01172 18.6152C2.02471 18.8056 2.05518 19.0313 2.15213 19.2654C2.35511 19.7554 2.74446 20.1448 3.23452 20.3478C3.46856 20.4447 3.69429 20.4752 3.88466 20.4882C4.05868 20.5 4.2633 20.5 4.47327 20.5H4.52639C4.73637 20.5 4.94108 20.5 5.11511 20.4882C5.30548 20.4752 5.53121 20.4447 5.76525 20.3478C6.25531 20.1448 6.64466 19.7554 6.84764 19.2654C6.94459 19.0313 6.97506 18.8056 6.98805 18.6152Z" fill="black"/>
</svg>
