<svg width="24" height="24" viewBox="0 0 24 24" fill="none" xmlns="http://www.w3.org/2000/svg">
<g opacity="0.3">
<path fill-rule="evenodd" clip-rule="evenodd" d="M16 17C16 14.7909 14.2091 13 12 13H5C2.79086 13 1 14.7909 1 17V17.0028C1 19.0728 2.48222 21.0028 4.6 21.0028H12.4C14.5178 21.0028 16 19.0728 16 17.0028V17ZM12.4 15.0028C13.1541 15.0028 14 15.7591 14 17.0028C14 18.2465 13.1541 19.0028 12.4 19.0028H4.6C3.8459 19.0028 3 18.2465 3 17.0028C3 15.7591 3.8459 15.0028 4.6 15.0028H12.4Z" fill="black"/>
<path d="M21.0013 7.25384L17.0283 10.7234C17.018 10.7333 17.0075 10.743 16.9967 10.7526L16.0013 11.631L16.0013 10.0233C16.0038 9.91443 15.9848 9.79224 15.9496 9.68282L14.8086 6.25973L18.9944 2.60332L18.9966 2.60134C19.4123 2.23545 19.9227 2.03695 20.4389 2.0047C21.1053 1.96305 21.7873 2.19852 22.2951 2.70631C22.7746 3.18576 23.0087 3.81656 23.0013 4.43993V18.0028C23.0013 19.6597 21.6581 21.0028 20.0013 21.0028H17.0013C16.5968 21.0028 16.2322 20.7592 16.0774 20.3855C15.9226 20.0118 16.0082 19.5817 16.2941 19.2957L21.0013 14.5886V7.25384Z" fill="black"/>
</g>
<path fill-rule="evenodd" clip-rule="evenodd" d="M5 4C5 3.44772 5.44772 3 6 3H11.5585C12.8498 3 13.9962 3.82629 14.4045 5.05132L15.9484 9.68282C15.9836 9.79224 16.0026 9.91443 16 10.0234L16 11.6032V12.5278C14.9385 11.5777 13.5367 11 12 11H5C3.46329 11 2.06151 11.5777 1 12.5278V12.0001C1 10.3432 2.34313 9.00007 3.99998 9.00006L5 9.00006V4ZM11.5585 5C11.9889 5 12.3711 5.27543 12.5072 5.68377L13.6126 9.00001L7 9.00005V5H11.5585Z" fill="black"/>
<path d="M4 17.0028C4 16.4505 4.44772 16.0028 5 16.0028H5.009C5.56128 16.0028 6.009 16.4505 6.009 17.0028C6.009 17.5551 5.56128 18.0028 5.009 18.0028H5C4.44772 18.0028 4 17.5551 4 17.0028Z" fill="black"/>
<path d="M8.5 16.0028C7.94772 16.0028 7.5 16.4505 7.5 17.0028C7.5 17.5551 7.94772 18.0028 8.5 18.0028H8.509C9.06129 18.0028 9.509 17.5551 9.509 17.0028C9.509 16.4505 9.06129 16.0028 8.509 16.0028H8.5Z" fill="black"/>
<path d="M11 17.0028C11 16.4505 11.4477 16.0028 12 16.0028H12.009C12.5613 16.0028 13.009 16.4505 13.009 17.0028C13.009 17.5551 12.5613 18.0028 12.009 18.0028H12C11.4477 18.0028 11 17.5551 11 17.0028Z" fill="black"/>
</svg>
