<svg width="24" height="24" viewBox="0 0 24 24" fill="none" xmlns="http://www.w3.org/2000/svg">
<path opacity="0.3" fill-rule="evenodd" clip-rule="evenodd" d="M2 5C2 3.34315 3.34315 2 5 2H19C20.6569 2 22 3.34315 22 5V19C22 20.6569 20.6569 22 19 22H5C3.34315 22 2 20.6569 2 19V5ZM16.289 7.7284C15.7032 7.14262 14.7535 7.14262 14.1677 7.7284C13.7771 8.11893 13.144 8.11893 12.7535 7.7284C12.3629 7.33788 12.3629 6.70471 12.7535 6.31419C14.1203 4.94735 16.3364 4.94735 17.7032 6.31419C19.07 7.68102 19.07 9.8971 17.7032 11.2639C17.3127 11.6545 16.6795 11.6545 16.289 11.2639C15.8985 10.8734 15.8985 10.2402 16.289 9.84972C16.8748 9.26394 16.8748 8.31419 16.289 7.7284ZM7.93934 7.93934C7.35355 8.52513 7.35355 9.47487 7.93934 10.0607C8.32986 10.4512 8.32986 11.0843 7.93934 11.4749C7.54882 11.8654 6.91565 11.8654 6.52513 11.4749C5.15829 10.108 5.15829 7.89196 6.52513 6.52513C7.89196 5.15829 10.108 5.15829 11.4749 6.52513C11.8654 6.91565 11.8654 7.54882 11.4749 7.93934C11.0843 8.32986 10.4512 8.32986 10.0607 7.93934C9.47487 7.35355 8.52513 7.35355 7.93934 7.93934ZM15.7067 9.70711L12.9996 12.4142V15C12.9996 15.5523 12.5519 16 11.9996 16C11.4473 16 10.9996 15.5523 10.9996 15V12.4142L8.29252 9.70711C7.90199 9.31658 7.90199 8.68342 8.29252 8.29289C8.68304 7.90237 9.31621 7.90237 9.70673 8.29289L11.9996 10.5858L14.2925 8.29289C14.683 7.90237 15.3162 7.90237 15.7067 8.29289C16.0973 8.68342 16.0973 9.31658 15.7067 9.70711ZM9.49962 14C10.0519 14 10.4996 14.4477 10.4996 15C10.4996 15.8284 11.1712 16.5 11.9996 16.5C12.828 16.5 13.4996 15.8284 13.4996 15C13.4996 14.4477 13.9473 14 14.4996 14C15.0519 14 15.4996 14.4477 15.4996 15C15.4996 16.933 13.9326 18.5 11.9996 18.5C10.0666 18.5 8.49962 16.933 8.49962 15C8.49962 14.4477 8.94734 14 9.49962 14Z" fill="black"/>
<path fill-rule="evenodd" clip-rule="evenodd" d="M16.289 7.7284C15.7032 7.14262 14.7535 7.14262 14.1677 7.7284C13.7771 8.11893 13.144 8.11893 12.7535 7.7284C12.3629 7.33788 12.3629 6.70471 12.7535 6.31419C14.1203 4.94735 16.3364 4.94735 17.7032 6.31419C19.07 7.68102 19.07 9.8971 17.7032 11.2639C17.3127 11.6545 16.6795 11.6545 16.289 11.2639C15.8985 10.8734 15.8985 10.2402 16.289 9.84972C16.8748 9.26394 16.8748 8.31419 16.289 7.7284ZM10.0607 7.93934C9.47487 7.35355 8.52513 7.35355 7.93934 7.93934C7.35355 8.52513 7.35355 9.47487 7.93934 10.0607C8.32986 10.4512 8.32986 11.0843 7.93934 11.4749C7.54882 11.8654 6.91565 11.8654 6.52513 11.4749C5.15829 10.108 5.15829 7.89196 6.52513 6.52513C7.89196 5.15829 10.108 5.15829 11.4749 6.52513C11.8654 6.91565 11.8654 7.54882 11.4749 7.93934C11.0843 8.32986 10.4512 8.32986 10.0607 7.93934ZM8.29252 8.29289C8.68304 7.90237 9.3162 7.90237 9.70673 8.29289L11.9996 10.5858L14.2925 8.29289C14.683 7.90237 15.3162 7.90237 15.7067 8.29289C16.0973 8.68342 16.0973 9.31658 15.7067 9.70711L12.9996 12.4142V15C12.9996 15.5523 12.5519 16 11.9996 16C11.4473 16 10.9996 15.5523 10.9996 15V12.4142L8.29252 9.70711C7.90199 9.31658 7.90199 8.68342 8.29252 8.29289ZM9.49962 14C10.0519 14 10.4996 14.4477 10.4996 15C10.4996 15.8284 11.1712 16.5 11.9996 16.5C12.828 16.5 13.4996 15.8284 13.4996 15C13.4996 14.4477 13.9473 14 14.4996 14C15.0519 14 15.4996 14.4477 15.4996 15C15.4996 16.933 13.9326 18.5 11.9996 18.5C10.0666 18.5 8.49962 16.933 8.49962 15C8.49962 14.4477 8.94734 14 9.49962 14Z" fill="black"/>
</svg>
