<svg width="24" height="24" viewBox="0 0 24 24" fill="none" xmlns="http://www.w3.org/2000/svg">
<path opacity="0.3" fill-rule="evenodd" clip-rule="evenodd" d="M7.00001 2C6.44772 2 6.00001 2.44772 6.00001 3C6.00001 3.55228 6.44772 4 7.00001 4H13V7H7.41422L5.70712 5.29289C5.51958 5.10536 5.26523 5 5.00001 5H2.00001C1.70042 5 1.41661 5.13432 1.22667 5.36601C1.03673 5.5977 0.960673 5.90234 1.01943 6.19612L2.01943 11.1961C2.07995 11.4987 2.27678 11.7564 2.5528 11.8944L7.43805 14.3371L11.3415 17.7526C11.5238 17.9121 11.7578 18 12 18H18C19.6569 18 21 16.6569 21 15V13C21 9.68629 18.3137 7 15 7V4H21C21.5523 4 22 3.55228 22 3C22 2.44772 21.5523 2 21 2H7.00001ZM18 16H15V9C17.2091 9 19 10.7909 19 13V15C19 15.5523 18.5523 16 18 16Z" fill="black"/>
<path fill-rule="evenodd" clip-rule="evenodd" d="M6 3C6 2.44772 6.44772 2 7 2H21C21.5523 2 22 2.44772 22 3C22 3.55228 21.5523 4 21 4H15V7H13V4H7C6.44772 4 6 3.55228 6 3Z" fill="black"/>
<path d="M22.8944 19.4472C23.1414 18.9532 22.9412 18.3525 22.4472 18.1055C21.9532 17.8586 21.3526 18.0588 21.1056 18.5528L20.9348 18.8944C20.596 19.572 19.9034 20 19.1459 20H9C8.44772 20 8 20.4477 8 21C8 21.5523 8.44772 22 9 22H19.1459C20.661 22 22.046 21.144 22.7236 19.7888L22.8944 19.4472Z" fill="black"/>
</svg>
