<svg width="24" height="24" viewBox="0 0 24 24" fill="none" xmlns="http://www.w3.org/2000/svg">
<path opacity="0.3" fill-rule="evenodd" clip-rule="evenodd" d="M4 17C3.44772 17 3 16.5523 3 16V12C3 11.4477 3.44772 11 4 11C4.35372 11 4.66454 11.1837 4.84233 11.4608L9 9.38197V6.5C9 6.36008 9.02936 6.22172 9.08619 6.09386L11.0862 1.59386C11.2467 1.23273 11.6048 1 12 1C12.3952 1 12.7533 1.23273 12.9138 1.59386L14.9138 6.09386C14.9706 6.22172 15 6.36008 15 6.5V9.38197L19.1577 11.4608C19.3355 11.1837 19.6463 11 20 11C20.5523 11 21 11.4477 21 12V16C21 16.5523 20.5523 17 20 17C19.6299 17 19.3067 16.7989 19.1338 16.5H15L16.4 17.55C16.7777 17.8333 17 18.2779 17 18.75V20.5C17 21.3284 16.3284 22 15.5 22H13C13 22.5523 12.5523 23 12 23C11.4477 23 11 22.5523 11 22H8.5C7.67157 22 7 21.3284 7 20.5V18.75C7 18.2779 7.22229 17.8333 7.6 17.55L9 16.5H4.86622C4.69331 16.7989 4.37014 17 4 17ZM12 21C11.4477 21 11 20.5523 11 20V18C11 17.4477 11.4477 17 12 17C12.5523 17 13 17.4477 13 18V20C13 20.5523 12.5523 21 12 21Z" fill="black"/>
<path d="M12.0015 20.9999C11.4492 20.9999 11.0015 20.5522 11.0015 19.9999V17.9999C11.0015 17.4476 11.4492 16.9999 12.0015 16.9999C12.5537 16.9999 13.0015 17.4476 13.0015 17.9999V19.9999C13.0015 20.5522 12.5537 20.9999 12.0015 20.9999Z" fill="black"/>
<path d="M19.0014 11.9999V15.9999C19.0014 16.182 19.0501 16.3528 19.1352 16.4999H15.0014V9.38186L19.1591 11.4607C19.0593 11.6163 19.0014 11.8013 19.0014 11.9999Z" fill="black"/>
<path d="M5.00142 15.9999V11.9999C5.00142 11.8013 4.94355 11.6163 4.84375 11.4607L9.00142 9.38186V16.4999H4.86764C4.95273 16.3528 5.00142 16.182 5.00142 15.9999Z" fill="black"/>
</svg>
