<svg width="24" height="24" viewBox="0 0 24 24" fill="none" xmlns="http://www.w3.org/2000/svg">
<path opacity="0.3" fill-rule="evenodd" clip-rule="evenodd" d="M7 4C7 3.44772 7.44772 3 8 3H12C12.5523 3 13 3.44772 13 4C13 4.35372 12.8163 4.66454 12.5392 4.84233L14.618 9H17.5C17.6399 9 17.7783 9.02936 17.9061 9.08619L22.4061 11.0862C22.7673 11.2467 23 11.6048 23 12C23 12.3952 22.7673 12.7533 22.4061 12.9138L17.9061 14.9138C17.7783 14.9706 17.6399 15 17.5 15H14.618L12.5392 19.1577C12.8163 19.3355 13 19.6463 13 20C13 20.5523 12.5523 21 12 21H8C7.44772 21 7 20.5523 7 20C7 19.6299 7.2011 19.3067 7.5 19.1338L7.5 15L6.45 16.4C6.16672 16.7777 5.72214 17 5.25 17H3.5C2.67157 17 2 16.3284 2 15.5V13C1.44772 13 1 12.5523 1 12C1 11.4477 1.44772 11 2 11V8.5C2 7.67157 2.67157 7 3.5 7H5.25C5.72214 7 6.16672 7.22229 6.45 7.6L7.5 9V4.86622C7.2011 4.69331 7 4.37014 7 4ZM3 12C3 11.4477 3.44772 11 4 11H6C6.55228 11 7 11.4477 7 12C7 12.5523 6.55228 13 6 13H4C3.44772 13 3 12.5523 3 12Z" fill="black"/>
<path d="M3 12C3 11.4477 3.44772 11 4 11H6C6.55228 11 7 11.4477 7 12C7 12.5523 6.55228 13 6 13H4C3.44772 13 3 12.5523 3 12Z" fill="black"/>
<path d="M12 19H8C7.81786 19 7.64709 19.0487 7.5 19.1337V15H14.618L12.5392 19.1576C12.3836 19.0578 12.1986 19 12 19Z" fill="black"/>
<path d="M8 4.99996H12C12.1986 4.99996 12.3836 4.94209 12.5392 4.84229L14.618 8.99996H7.5V4.86618C7.64709 4.95126 7.81786 4.99996 8 4.99996Z" fill="black"/>
</svg>
