<svg width="24" height="24" viewBox="0 0 24 24" fill="none" xmlns="http://www.w3.org/2000/svg">
<path fill-rule="evenodd" clip-rule="evenodd" d="M12.0002 2C12.5525 2 13.0002 2.44772 13.0002 3V8C13.0002 8.55228 12.5525 9 12.0002 9C11.448 9 11.0002 8.55228 11.0002 8V3C11.0002 2.44772 11.448 2 12.0002 2ZM2.57444 8.09518C3.07416 7.86002 3.66989 8.07449 3.90506 8.5742L6.50067 14.0899C7.06406 15.2871 8.4627 15.838 9.6912 15.3466L11.6288 14.5715C12.1416 14.3664 12.7236 14.6158 12.9287 15.1286C13.1338 15.6414 12.8844 16.2234 12.3716 16.4285L10.434 17.2035C8.22268 18.0881 5.70513 17.0964 4.69103 14.9415L2.09542 9.4258C1.86026 8.92608 2.07472 8.33034 2.57444 8.09518ZM21.0002 13C21.5525 13 22.0002 13.4477 22.0002 14C22.0002 15.6187 21.0033 17.0702 19.4925 17.6513L8.35922 21.9333C7.84374 22.1316 7.26515 21.8745 7.06689 21.359C6.86863 20.8435 7.12578 20.2649 7.64126 20.0667L18.7746 15.7846C19.513 15.5006 20.0002 14.7912 20.0002 14C20.0002 13.4477 20.448 13 21.0002 13Z" fill="black"/>
<g opacity="0.3">
<path d="M6 3C4.89543 3 4 3.89543 4 5C4 6.10457 4.89543 7 6 7C7.10457 7 8 6.10457 8 5C8 3.89543 7.10457 3 6 3Z" fill="black"/>
<path d="M7.91381 8.09386C7.68951 7.58918 7.09855 7.36188 6.59386 7.58619C6.08918 7.81049 5.86188 8.40145 6.08619 8.90614L8.08619 13.4061C8.30453 13.8974 8.87223 14.1281 9.37139 13.9285L13.3458 12.3387L14.7846 17.3191L16.6582 16.5985L14.9607 10.7225C14.8823 10.4511 14.6928 10.2255 14.439 10.1015C14.1853 9.97752 13.8909 9.96662 13.6286 10.0715L9.52271 11.7139L7.91381 8.09386Z" fill="black"/>
</g>
</svg>
