<svg width="24" height="24" viewBox="0 0 24 24" fill="none" xmlns="http://www.w3.org/2000/svg">
<g opacity="0.3">
<path d="M11.8293 18C11.4175 16.8348 10.3062 16 9 16H4C3.24921 16 2.56284 16.2758 2.03667 16.7316C1.40167 17.2817 1 18.0939 1 19C1 20.6569 2.34315 22 4 22H9C10.6569 22 12 20.6569 12 19C12 18.6494 11.9398 18.3128 11.8293 18Z" fill="black"/>
<path d="M8 2C6.89543 2 6 2.89543 6 4C6 5.10457 6.89543 6 8 6C9.10457 6 10 5.10457 10 4C10 2.89543 9.10457 2 8 2Z" fill="black"/>
<path d="M8.25 7C9.40835 7 10.4552 7.69032 10.9115 8.75501L11.4457 10H12.75L11.25 12H5.71485C5.3787 12 5.06505 11.8311 4.88001 11.5505C4.69496 11.2699 4.66329 10.915 4.7957 10.6061L5.58846 8.75501C6.04475 7.69032 7.09165 7 8.25 7Z" fill="black"/>
<path d="M15.5859 18.0001L17.5858 20H15C14.4477 20 14 20.4477 14 21C14 21.5523 14.4477 22 15 22H20C20.2652 22 20.5196 21.8946 20.7071 21.7071L22.7071 19.7071C23.0976 19.3166 23.0976 18.6834 22.7071 18.2929C22.3166 17.9024 21.6834 17.9024 21.2929 18.2929L20 19.5858L17.9697 17.5555L17.5547 17.8321C17.3904 17.9416 17.1974 18.0001 17 18.0001H15.5859Z" fill="black"/>
</g>
<path d="M12.6852 6.0511C13.2092 5.87645 13.7755 6.15961 13.9501 6.68356L14.8192 9.2906L20.4487 12.1054C20.7875 12.2747 21.0015 12.621 21.0015 12.9998V14.9998C21.0015 15.3341 20.8344 15.6464 20.5562 15.8318L17.9711 17.5552L17.5548 17.8318C17.3905 17.9413 17.1975 17.9998 17.0001 17.9998H15.5859H13.9014C13.4382 15.7175 11.4204 13.9998 9.00146 13.9998H4.00146C3.93294 13.9998 3.86473 14.0012 3.79688 14.0039L4.16941 13.4451C4.35488 13.1669 4.66711 12.9998 5.00146 12.9998H10.5015L12.8871 9.81895L12.0528 7.31601C11.8781 6.79207 12.1613 6.22575 12.6852 6.0511Z" fill="black"/>
</svg>
