<svg width="24" height="24" viewBox="0 0 24 24" fill="none" xmlns="http://www.w3.org/2000/svg">
<path opacity="0.3" d="M7.9987 5C7.9987 4.09614 8.59828 3.33231 9.42141 3.08458L9.43359 2.91695C9.47678 2.39866 9.91005 2 10.4301 2H12.9982C13.4871 2 13.9042 2.35341 13.9846 2.8356L14.1805 4H15V3.5C15 2.94772 15.4477 2.5 16 2.5C16.5523 2.5 17 2.94772 17 3.5V4C17.5517 4.0007 17.9987 4.44815 17.9987 5C17.9987 5.55185 17.5517 5.9993 17 6V6.5C17 7.05228 16.5523 7.5 16 7.5C15.4477 7.5 15 7.05228 15 6.5V6H14.5138L14.8471 7.99999L16.8439 7.99998C17.9888 7.99999 19.1233 8.21847 20.1863 8.64369L20.2145 8.65495C21.0659 8.99552 21.8073 9.5637 22.3575 10.2973L22.4291 10.3928C22.7731 10.8514 22.964 11.3904 22.9981 11.9379C23.0334 12.5057 22.9001 13.0843 22.5943 13.594C21.9065 14.7403 20.7671 15.5433 19.4563 15.8055L19.3574 15.8252C18.7762 15.9415 18.185 16 17.5924 16H14.8471L14.5138 18H15.5V17.5C15.5 16.9477 15.9477 16.5 16.5 16.5C17.0523 16.5 17.5 16.9477 17.5 17.5V20.5C17.5 21.0523 17.0523 21.5 16.5 21.5C15.9477 21.5 15.5 21.0523 15.5 20.5V20H14.1805L13.9864 21.1644C13.906 21.6466 13.4888 22 13 22L10.4301 22C9.91005 22 9.47678 21.6013 9.43359 21.083L9.42141 20.9154C8.59828 20.6677 7.9987 19.9039 7.9987 19C7.9987 18.2137 8.45243 17.5334 9.11235 17.2066L9 15.8471L7.99209 15.6791C7.90149 16.6998 7.04419 17.5 6 17.5H5C3.89543 17.5 3 16.6046 3 15.5V14.491C1.8787 14.39 1 13.4476 1 12.3V11.7C1 10.5524 1.8787 9.61001 3 9.50897V8.5C3 7.39543 3.89543 6.5 5 6.5H6C7.04415 6.5 7.90142 7.30015 7.99208 8.32074L9.00001 8.15275L9.11235 6.79337C8.45243 6.46658 7.9987 5.78628 7.9987 5Z" fill="black"/>
<path d="M10.4319 2C9.91184 2 9.47857 2.39866 9.43538 2.91695L9.00001 8.14139L9.68583 8.02709C9.7945 8.00898 9.90448 7.99988 10.0147 7.99988L14.8471 7.99999L13.9864 2.8356C13.906 2.35341 13.4888 2 13 2H10.4319Z" fill="black"/>
<path d="M9.43538 21.083C9.47857 21.6013 9.91184 22 10.4319 22H13C13.4888 22 13.906 21.6466 13.9864 21.1644L14.8471 16H10.0146C9.90447 16 9.7945 15.9909 9.68584 15.9728L9 15.8585L9.43538 21.083Z" fill="black"/>
</svg>
