<svg width="24" height="24" viewBox="0 0 24 24" fill="none" xmlns="http://www.w3.org/2000/svg">
<path opacity="0.3" d="M8 17.5L7.99909 5.6508C7.99457 5.44049 7.98049 4.78467 8.13131 4.22475C8.44589 3.0569 9.12211 2.36638 9.81962 1.80837L9.91653 1.73084C10.5255 1.24369 11.2635 1 12 1C12.7365 1 13.4745 1.2437 14.0835 1.73084L14.1804 1.80837C14.8779 2.36638 15.5541 3.0569 15.8687 4.22475C16.0195 4.78467 16.0054 5.44049 16.0009 5.6508L16 17.382L17.4472 18.1056C17.786 18.275 18 18.6212 18 19V22C18 22.3161 17.8505 22.6136 17.5969 22.8023C17.3433 22.991 17.0154 23.0487 16.7127 22.9578L12 21.544L7.28735 22.9578C6.98457 23.0487 6.65668 22.991 6.40307 22.8023C6.14946 22.6136 6 22.3161 6 22V19.5C6 19.1852 6.14819 18.8889 6.4 18.7L8 17.5Z" fill="black"/>
<path d="M2 16.9999C2 17.3214 2.15452 17.6232 2.41529 17.8111C2.67606 17.9991 3.01128 18.0502 3.31623 17.9486L8 16.3873V8.92554L2.49613 12.1361C2.18891 12.3153 2 12.6442 2 12.9999V16.9999Z" fill="black"/>
<path d="M20.6838 17.9486L16 16.3873V8.92554L21.5039 12.1361C21.8111 12.3153 22 12.6442 22 12.9999V16.9999C22 17.3214 21.8455 17.6232 21.5847 17.8111C21.3239 17.9991 20.9887 18.0502 20.6838 17.9486Z" fill="black"/>
</svg>
