<svg width="24" height="24" viewBox="0 0 24 24" fill="none" xmlns="http://www.w3.org/2000/svg">
<path d="M7.00001 2C6.67856 2 6.37672 2.15452 6.18877 2.41529C6.00081 2.67606 5.94967 3.01128 6.05132 3.31623L7.61258 8H15.0744L11.8638 2.49613C11.6846 2.18891 11.3557 2 11 2H7.00001Z" fill="black"/>
<path d="M6.05132 20.6838L7.61258 16H15.0744L11.8638 21.5039C11.6846 21.8111 11.3557 22 11 22H7.00001C6.67856 22 6.37672 21.8455 6.18877 21.5847C6.00081 21.3239 5.94967 20.9887 6.05132 20.6838Z" fill="black"/>
<g opacity="0.3">
<path d="M12.7383 4H13.9997C15.1043 4 15.9997 4.89543 15.9997 6C15.9997 6.76623 15.5688 7.43183 14.9361 7.76769L12.7383 4Z" fill="black"/>
<path d="M6.50001 8L18.3492 7.99909C18.5595 7.99457 19.2153 7.98049 19.7753 8.13131C20.9431 8.44589 21.6336 9.12211 22.1916 9.81962L22.2692 9.91653C22.7563 10.5255 23 11.2635 23 12C23 12.7365 22.7563 13.4745 22.2692 14.0835L22.1916 14.1804C21.6336 14.8779 20.9431 15.5541 19.7753 15.8687C19.2153 16.0195 18.5595 16.0054 18.3492 16.0009L6.61804 16L5.89444 17.4472C5.72504 17.786 5.37878 18 5.00001 18H2.00001C1.6839 18 1.38641 17.8505 1.19772 17.5969C1.00902 17.3433 0.95135 17.0154 1.04218 16.7127L2.15598 13H2C1.44772 13 1 12.5523 1 12C1 11.4477 1.44772 11 2 11H2.15598L1.04218 7.28735C0.95135 6.98457 1.00902 6.65668 1.19772 6.40307C1.38641 6.14946 1.6839 6 2.00001 6H4.50001C4.81477 6 5.11115 6.14819 5.30001 6.4L6.50001 8Z" fill="black"/>
<path d="M13.9997 20H12.7383L14.9361 16.2323C15.5688 16.5682 15.9997 17.2338 15.9997 18C15.9997 19.1046 15.1043 20 13.9997 20Z" fill="black"/>
</g>
</svg>
