<svg width="24" height="24" viewBox="0 0 24 24" fill="none" xmlns="http://www.w3.org/2000/svg">
<g opacity="0.3">
<path d="M17.9393 16H18.2951C18.3067 16 18.325 16.0004 18.3492 16.0009C18.5595 16.0054 19.2153 16.0195 19.7753 15.8687C20.9431 15.5541 21.6336 14.8779 22.1916 14.1804L22.2692 14.0835C22.7563 13.4745 23 12.7365 23 12C23 11.2635 22.7563 10.5255 22.2692 9.91653L22.1916 9.81962C21.6336 9.12211 20.9431 8.44589 19.7753 8.13131C19.2153 7.98049 18.5595 7.99457 18.3492 7.99909C18.325 7.99961 18.3067 8 18.2951 8H15.0744L11.8638 2.49613C11.6846 2.18891 11.3557 2 11 2H7.00001C6.67856 2 6.37672 2.15452 6.18877 2.41529C6.00081 2.67606 5.94968 3.01128 6.05132 3.31623L6.99637 6.15136L17.9393 16Z" fill="black"/>
<path d="M1.19772 6.40307C1.21003 6.38652 1.2228 6.37042 1.23602 6.35477L13.9998 17.8422L11.8638 21.5039C11.6846 21.8111 11.3557 22 11 22H7.00001C6.67856 22 6.37672 21.8455 6.18877 21.5847C6.00081 21.3239 5.94968 20.9887 6.05132 20.6838L7.61258 16H6.61804L5.89444 17.4472C5.72504 17.786 5.37878 18 5.00001 18H2.00001C1.6839 18 1.38641 17.8505 1.19772 17.5969C1.00902 17.3433 0.95135 17.0154 1.04218 16.7127L2.45598 12L1.04218 7.28735C0.95135 6.98457 1.00902 6.65668 1.19772 6.40307Z" fill="black"/>
</g>
<path fill-rule="evenodd" clip-rule="evenodd" d="M1.25671 2.33104C1.62617 1.92053 2.25846 1.88726 2.66897 2.25671L22.669 20.2567C23.0795 20.6262 23.1128 21.2585 22.7433 21.669C22.3738 22.0795 21.7416 22.1128 21.331 21.7433L1.33104 3.7433C0.920534 3.37384 0.887255 2.74155 1.25671 2.33104Z" fill="black"/>
</svg>
