<svg width="24" height="24" viewBox="0 0 24 24" fill="none" xmlns="http://www.w3.org/2000/svg">
<path opacity="0.3" fill-rule="evenodd" clip-rule="evenodd" d="M8.54448 2C9.1212 2 9.66986 2.24896 10.0496 2.68299L16.452 10H12.9983C12.9094 10 12.8209 10.0119 12.7351 10.0352L3.66641 12.509C2.09214 12.9383 1 14.3682 1 16C1 17.6318 2.09214 19.0617 3.66641 19.491L12.7369 21.9648C12.8226 21.9881 12.9111 22 13 22H22C22.5523 22 23 21.5523 23 21V11C23 10.4477 22.5523 10 22 10H16.4538L10.0514 2.68299C9.67161 2.24896 9.12296 2 8.54623 2H8.54448ZM9 16C9 15.4477 9.44771 15 10 15H16C16.5523 15 17 15.4477 17 16C17 16.5523 16.5523 17 16 17H10C9.44771 17 9 16.5523 9 16Z" fill="black"/>
<path d="M12.7351 10.0352C12.8209 10.0119 12.9094 10 12.9983 10H13.7945H16.452L10.0496 2.68299C9.66986 2.24896 9.1212 2 8.54448 2H5.6934C3.68065 2 2.23889 3.94289 2.8221 5.86929L4.74323 12.2148L6.6735 11.6884L12.7351 10.0352Z" fill="black"/>
</svg>
