<svg width="24" height="24" viewBox="0 0 24 24" fill="none" xmlns="http://www.w3.org/2000/svg">
<path opacity="0.3" fill-rule="evenodd" clip-rule="evenodd" d="M8.92231 7.1169C10.4177 3.9902 13.5756 2 17.0415 2H20.9997C21.552 2 21.9997 2.44771 21.9997 3V5.69778C21.9997 9.93388 19.5673 13.7936 15.7457 15.6213L11.4429 17.6791C11.1419 17.8231 10.7889 17.8074 10.5017 17.6373C10.2146 17.4672 10.0313 17.1651 10.013 16.8319C9.92883 15.3021 8.69726 14.078 7.16633 14.0036C6.83188 13.9874 6.52776 13.8048 6.35615 13.5173C6.18455 13.2297 6.16824 12.8754 6.31271 12.5733L8.92231 7.1169ZM16.5 5.5C15.3954 5.5 14.5 6.39543 14.5 7.5C14.5 8.60457 15.3954 9.5 16.5 9.5C17.6046 9.5 18.5 8.60457 18.5 7.5C18.5 6.39543 17.6046 5.5 16.5 5.5Z" fill="black"/>
<path d="M10.0133 16.8373C10.0161 16.8891 10.0176 16.9386 10.0179 16.9865L10.0352 21.0043C10.0366 21.3427 10.2091 21.6574 10.4936 21.8406C10.778 22.0239 11.1358 22.0509 11.4445 21.9124L14.1301 20.7074C15.5671 20.0626 16.4919 18.6345 16.4926 17.0596V17.0579L16.4982 15.2251C16.2539 15.366 16.003 15.4982 15.7457 15.6213L11.4429 17.6791C11.1419 17.8231 10.7889 17.8074 10.5017 17.6373C10.2162 17.4681 10.0333 17.1684 10.0133 16.8373Z" fill="black"/>
<path fill-rule="evenodd" clip-rule="evenodd" d="M5.6808 15.2821C7.44127 15.062 8.93796 16.5587 8.7179 18.3192C8.53019 19.8208 7.41873 21.0424 5.9414 21.3707L3.21695 21.9761C2.88319 22.0503 2.53467 21.9488 2.29291 21.7071C2.05115 21.4653 1.94966 21.1168 2.02383 20.783L2.62926 18.0586C2.95756 16.5812 4.17912 15.4698 5.6808 15.2821ZM6.73334 18.0711C6.79163 17.6048 6.39519 17.2083 5.92887 17.2666C5.26589 17.3495 4.72658 17.8402 4.58164 18.4924L4.3171 19.6829L5.50754 19.4183C6.15977 19.2734 6.65047 18.7341 6.73334 18.0711Z" fill="black"/>
<path d="M3.2926 9.9051C3.93634 8.47042 5.36077 7.54628 6.93267 7.54261L8.73381 7.51099L6.31271 12.5733C6.16824 12.8754 6.18455 13.2297 6.35615 13.5172C6.52776 13.8048 6.83195 13.9873 7.1664 14.0036L3 14C2.66087 14 2.34484 13.8281 2.16055 13.5434C1.97625 13.2587 1.9488 12.9 2.08764 12.5906L3.2926 9.9051Z" fill="black"/>
</svg>
