<svg width="24" height="24" viewBox="0 0 24 24" fill="none" xmlns="http://www.w3.org/2000/svg">
<path opacity="0.3" fill-rule="evenodd" clip-rule="evenodd" d="M8.9226 7.1169C10.418 3.9902 13.5759 2 17.0418 2H21C21.5523 2 22 2.44772 22 3V5.69778C22 9.93388 19.5676 13.7936 15.746 15.6213L9.93148 18.4021C9.54899 18.5851 9.09272 18.5069 8.79292 18.2071L5.79292 15.2071C5.49312 14.9073 5.41496 14.451 5.59789 14.0685L8.9226 7.1169ZM14.5 7.5C14.5 6.39543 15.3954 5.5 16.5 5.5C17.6046 5.5 18.5 6.39543 18.5 7.5C18.5 8.60457 17.6046 9.5 16.5 9.5C15.3954 9.5 14.5 8.60457 14.5 7.5Z" fill="black"/>
<path d="M14.1284 20.7074C15.566 20.0624 16.4909 18.6335 16.4909 17.0579V15.2271C16.2478 15.3673 15.9981 15.4988 15.7421 15.6212L10.0112 18.3621L10.0336 21.0084C10.0364 21.3461 10.2095 21.6595 10.4937 21.8417C10.7779 22.024 11.1349 22.0506 11.4429 21.9124L14.1284 20.7074Z" fill="black"/>
<path d="M6.93268 7.54259C5.36078 7.54626 3.93634 8.4704 3.2926 9.90509L2.08764 12.5906C1.9488 12.9 1.97625 13.2587 2.16055 13.5434C2.34484 13.8281 2.66087 14 3 14H5.63044L8.73386 7.51099L6.93268 7.54259Z" fill="black"/>
</svg>
