<svg width="24" height="24" viewBox="0 0 24 24" fill="none" xmlns="http://www.w3.org/2000/svg">
<path opacity="0.3" fill-rule="evenodd" clip-rule="evenodd" d="M8 3C7.44772 3 7 3.44772 7 4V4.5H2C1.44772 4.5 1 4.94772 1 5.5V13C1 13.2652 1.10536 13.5196 1.29289 13.7071L4.23413 16.6483L4.75988 17.1741C5.2824 15.8985 6.53627 15 8 15C9.76324 15 11.2219 16.3039 11.4646 18H11.75V16.6049V8.00004C11.75 7.58583 12.0858 7.25004 12.5 7.25004L21.3008 7.25C20.7759 5.65304 19.2726 4.5 17.5 4.5H15V4C15 3.44772 14.5523 3 14 3H8ZM4.5 11.5V8.5H9.5V11.5H4.5Z" fill="black"/>
<path d="M5.5 18.55C5.5 17.1693 6.61929 16.05 8 16.05C9.38071 16.05 10.5 17.1693 10.5 18.55C10.5 19.9308 9.38071 21.05 8 21.05C6.61929 21.05 5.5 19.9308 5.5 18.55Z" fill="black"/>
<path d="M14.4994 18.5501C14.4994 17.1694 15.6187 16.0501 16.9994 16.0501C18.3801 16.0501 19.4994 17.1694 19.4994 18.5501C19.4994 19.9308 18.3801 21.0501 16.9994 21.0501C15.6187 21.0501 14.4994 19.9308 14.4994 18.5501Z" fill="black"/>
<path fill-rule="evenodd" clip-rule="evenodd" d="M8 16.05C6.61929 16.05 5.5 17.1693 5.5 18.55C5.5 19.9308 6.61929 21.05 8 21.05C9.38071 21.05 10.5 19.9308 10.5 18.55C10.5 17.1693 9.38071 16.05 8 16.05Z" fill="black"/>
<path fill-rule="evenodd" clip-rule="evenodd" d="M16.9994 16.0501C15.6187 16.0501 14.4994 17.1694 14.4994 18.5501C14.4994 19.9308 15.6187 21.0501 16.9994 21.0501C18.3801 21.0501 19.4994 19.9308 19.4994 18.5501C19.4994 17.1694 18.3801 16.0501 16.9994 16.0501Z" fill="black"/>
<path fill-rule="evenodd" clip-rule="evenodd" d="M23 17C23 17.5523 22.5523 18 22 18H21H20.4589C20.2012 16.3212 18.7505 15.0355 16.9996 15.0355C15.2487 15.0355 13.7981 16.3212 13.5403 18H13.25V16.6049V8.75003L21.5 8.75V9.5C21.5 10.0017 21.1305 10.4171 20.6489 10.489L22.6585 12.2474C22.8755 12.4373 23 12.7116 23 13V17ZM17.6243 10.5H15V13H20.4814L19.3386 12L17.6243 10.5Z" fill="black"/>
</svg>
