<svg width="24" height="24" viewBox="0 0 24 24" fill="none" xmlns="http://www.w3.org/2000/svg">
<path opacity="0.3" d="M4 1C4.55228 1 5 1.44772 5 2V8.28779L6.64987 12H20C20.3385 12 20.654 12.1713 20.8385 12.4551C21.023 12.7389 21.0513 13.0968 20.9138 13.4061L19.4417 16.7184C18.9602 17.8018 17.8858 18.5 16.7003 18.5H9.29975C8.11418 18.5 7.03982 17.8018 6.55831 16.7184L5.08717 13.4083L5.08619 13.4061L3.08619 8.90614C3.02936 8.77828 3 8.63992 3 8.5V2C3 1.44772 3.44772 1 4 1Z" fill="black"/>
<path d="M12 18.5V21H8C7.44772 21 7 21.4477 7 22C7 22.5523 7.44772 23 8 23H18C18.5523 23 19 22.5523 19 22C19 21.4477 18.5523 21 18 21H14V18.5H12Z" fill="black"/>
<path d="M5.76098 10H16C16.5523 10 17 9.55228 17 9C17 8.44772 16.5523 8 16 8H5V8.28779L5.76098 10Z" fill="black"/>
</svg>
