<svg width="24" height="24" viewBox="0 0 24 24" fill="none" xmlns="http://www.w3.org/2000/svg">
<path opacity="0.3" d="M12 9C11.5865 9.00001 11.1729 9.06414 10.7745 9.19239L10.7563 9.19844L3.64911 11.6376C2.66211 11.9688 2.0234 12.8794 2.00063 13.8744C1.99576 14.0872 2.01904 14.303 2.07246 14.5167C2.24224 15.1958 2.6255 15.8025 3.16586 16.2475C3.16586 16.2475 3.1785 16.2582 3.21106 16.2869C3.24086 16.3132 3.27979 16.3479 3.32837 16.3913L3.71208 16.7348C4.02658 17.016 4.45006 17.3926 4.94157 17.8197C5.92179 18.6715 7.18351 19.7338 8.4 20.6462C8.82175 20.9625 9.35566 21.2556 9.83744 21.494C10.519 21.8312 11.2595 22 12 22C12.7405 22 13.481 21.8313 14.1626 21.4941C14.6444 21.2557 15.1783 20.9625 15.6001 20.6461C16.8165 19.7336 18.0784 18.6713 19.0589 17.8197C19.5505 17.3926 19.9741 17.0161 20.2887 16.7349L20.6726 16.3914C20.7212 16.348 20.7602 16.3134 20.79 16.2871L20.8251 16.2564C20.8327 16.2497 20.8354 16.2475 20.8354 16.2475C21.3757 15.8025 21.759 15.1958 21.9287 14.5167C21.9859 14.2881 22.0085 14.057 21.9991 13.8299C21.9587 12.8525 21.3245 11.9639 20.3521 11.6375L13.2437 9.19838L13.2255 9.19233C12.827 9.0641 12.4135 8.99999 12 9Z" fill="black"/>
<path d="M9 2C8.44772 2 8 2.44772 8 3V5H6C5.44772 5 5 5.44772 5 6V11.1739L7 10.4876V7H17V10.4873L19 11.1736V6C19 5.44772 18.5523 5 18 5H16V3C16 2.44772 15.5523 2 15 2H9Z" fill="black"/>
</svg>
