<svg width="24" height="24" viewBox="0 0 24 24" fill="none" xmlns="http://www.w3.org/2000/svg">
<path opacity="0.3" fill-rule="evenodd" clip-rule="evenodd" d="M3 7C2.82735 7 2.65981 7.02188 2.5 7.06301C1.63739 7.28503 1 8.06808 1 9V15C1 15.9319 1.63739 16.715 2.5 16.937C2.65981 16.9781 2.82735 17 3 17H6C6.15525 17 6.30836 16.9639 6.44721 16.8944L8.23607 16H15.6863C18.0732 16 20.3624 15.0518 22.0503 13.364L22.7071 12.7071C23.0976 12.3166 23.0976 11.6834 22.7071 11.2929L22.0503 10.636C20.3624 8.94821 18.0732 8 15.6863 8H8.23607L6.44721 7.10557C6.30836 7.03615 6.15525 7 6 7H3ZM16.5 10.75C17.0523 10.75 17.5 11.1977 17.5 11.75V12.25C17.5 12.8023 17.0523 13.25 16.5 13.25C15.9477 13.25 15.5 12.8023 15.5 12.25V11.75C15.5 11.1977 15.9477 10.75 16.5 10.75Z" fill="black"/>
<path d="M5.5 4V7H3C2.82735 7 2.65981 7.02188 2.5 7.06301V6C2.5 4.89543 3.39543 4 4.5 4H5.5Z" fill="black"/>
<path d="M2.5 16.937V18C2.5 19.1046 3.39543 20 4.5 20H5.5V17H3C2.82735 17 2.65981 16.9781 2.5 16.937Z" fill="black"/>
<path d="M7.5 16.368V20H8C8.22707 20 8.44738 19.9227 8.62469 19.7809L13.3508 16H8.23607L7.5 16.368Z" fill="black"/>
<path d="M13.3508 8L8.62469 4.21913C8.44738 4.07728 8.22707 4 8 4H7.5V7.63197L8.23607 8H13.3508Z" fill="black"/>
</svg>
