<svg width="24" height="24" viewBox="0 0 24 24" fill="none" xmlns="http://www.w3.org/2000/svg">
<path opacity="0.3" fill-rule="evenodd" clip-rule="evenodd" d="M5 3C5 2.44772 5.44772 2 6 2H11.4384C12.815 2 14.015 2.93689 14.3489 4.27239L15.9701 10.7575C15.99 10.8368 16 10.9182 16 11V14H19V13.1056C19 12.5133 19.1753 11.9343 19.5038 11.4415L21.1679 8.9453C21.4743 8.48577 22.0952 8.3616 22.5547 8.66795C23.0142 8.9743 23.1384 9.59517 22.8321 10.0547L21.1679 12.5509C21.0584 12.7151 21 12.9081 21 13.1056V16.8944C21 17.0919 21.0584 17.2849 21.168 17.4491L22.832 19.9453C23.1384 20.4048 23.0142 21.0257 22.5547 21.332C22.0952 21.6384 21.4743 21.5142 21.168 21.0547L19.5039 18.5586C19.1753 18.0658 19 17.4867 19 16.8944V16H17.4649C16.7733 14.8044 15.4806 14 14 14H5C3.80531 14 2.73294 14.5238 2 15.3542V8C2 7.44772 2.44772 7 3 7H5V3ZM13.7192 10H8.53518L7 7.69722V4H11.4384C11.8973 4 12.2973 4.3123 12.4086 4.75746L13.7192 10Z" fill="black"/>
<path fill-rule="evenodd" clip-rule="evenodd" d="M1 18C1 15.7909 2.79086 14 5 14H14C16.2091 14 18 15.7909 18 18C18 20.2091 16.2091 22 14 22H5C2.79086 22 1 20.2091 1 18ZM5 16C3.89543 16 3 16.8954 3 18C3 19.1046 3.89543 20 5 20H14C15.1046 20 16 19.1046 16 18C16 16.8954 15.1046 16 14 16H5Z" fill="black"/>
<path d="M4.5 18C4.5 17.4477 4.94772 17 5.5 17H5.509C6.06128 17 6.509 17.4477 6.509 18C6.509 18.5523 6.06128 19 5.509 19H5.5C4.94772 19 4.5 18.5523 4.5 18Z" fill="black"/>
<path d="M8.5 18C8.5 17.4477 8.94772 17 9.5 17H9.509C10.0613 17 10.509 17.4477 10.509 18C10.509 18.5523 10.0613 19 9.509 19H9.5C8.94772 19 8.5 18.5523 8.5 18Z" fill="black"/>
<path d="M13.5 17C12.9477 17 12.5 17.4477 12.5 18C12.5 18.5523 12.9477 19 13.5 19H13.509C14.0613 19 14.509 18.5523 14.509 18C14.509 17.4477 14.0613 17 13.509 17H13.5Z" fill="black"/>
</svg>
