<svg width="24" height="24" viewBox="0 0 24 24" fill="none" xmlns="http://www.w3.org/2000/svg">
<path d="M3 8.77021V15.2295L6.18082 15.8918C5.43501 14.7789 5 13.4402 5 11.9999C5 10.5595 5.43501 9.22082 6.18082 8.10791L3 8.77021Z" fill="black"/>
<path d="M17.8192 8.10791C18.565 9.22082 19 10.5595 19 11.9999C19 13.4402 18.565 14.7789 17.8192 15.8918L21 15.2295V8.77021L17.8192 8.10791Z" fill="black"/>
<path d="M12 13.9999C13.1046 13.9999 14 13.1044 14 11.9999C14 10.8953 13.1046 9.99987 12 9.99987C10.8954 9.99987 10 10.8953 10 11.9999C10 13.1044 10.8954 13.9999 12 13.9999Z" fill="black"/>
<g opacity="0.3">
<path d="M2 2C2.55228 2 3 2.44772 3 3V21C3 21.5523 2.55228 22 2 22C1.44772 22 1 21.5523 1 21V3C1 2.44772 1.44772 2 2 2Z" fill="black"/>
<path d="M22 2C22.5523 2 23 2.44772 23 3V21C23 21.5523 22.5523 22 22 22C21.4477 22 21 21.5523 21 21V3C21 2.44772 21.4477 2 22 2Z" fill="black"/>
<path fill-rule="evenodd" clip-rule="evenodd" d="M12 5C8.13401 5 5 8.13401 5 12C5 15.866 8.13401 19 12 19C15.866 19 19 15.866 19 12C19 8.13401 15.866 5 12 5ZM15 12C15 13.6569 13.6569 15 12 15C10.3431 15 9 13.6569 9 12C9 10.3431 10.3431 9 12 9C13.6569 9 15 10.3431 15 12Z" fill="black"/>
</g>
</svg>
