<svg width="24" height="24" viewBox="0 0 24 24" fill="none" xmlns="http://www.w3.org/2000/svg">
<g opacity="0.3">
<path fill-rule="evenodd" clip-rule="evenodd" d="M12 5C8.13401 5 5 8.13401 5 12C5 15.866 8.13401 19 12 19C15.866 19 19 15.866 19 12C19 8.13401 15.866 5 12 5ZM15 12C15 13.6569 13.6569 15 12 15C10.3431 15 9 13.6569 9 12C9 10.3431 10.3431 9 12 9C13.6569 9 15 10.3431 15 12Z" fill="black"/>
<path fill-rule="evenodd" clip-rule="evenodd" d="M6.8 2.40006C7.13137 2.84189 7.04183 3.46869 6.6 3.80006L3 6.50006V17.5001L6.6 20.2001C7.04183 20.5314 7.13137 21.1582 6.8 21.6001C6.46863 22.0419 5.84183 22.1314 5.4 21.8001L1.4 18.8001C1.14819 18.6112 1 18.3148 1 18.0001V6.00006C1 5.6853 1.14819 5.38891 1.4 5.20006L5.4 2.20006C5.84183 1.86869 6.46863 1.95823 6.8 2.40006Z" fill="black"/>
<path fill-rule="evenodd" clip-rule="evenodd" d="M17.2 2.40006C16.8686 2.84189 16.9582 3.46869 17.4 3.80006L21 6.50006V17.5001L17.4 20.2001C16.9582 20.5314 16.8686 21.1582 17.2 21.6001C17.5314 22.0419 18.1582 22.1314 18.6 21.8001L22.6 18.8001C22.8518 18.6112 23 18.3148 23 18.0001V6.00006C23 5.6853 22.8518 5.38891 22.6 5.20006L18.6 2.20006C18.1582 1.86869 17.5314 1.95823 17.2 2.40006Z" fill="black"/>
</g>
<path d="M3 8.77021V15.2295L6.18082 15.8918C5.43501 14.7789 5 13.4402 5 11.9999C5 10.5595 5.43501 9.22082 6.18082 8.10791L3 8.77021Z" fill="black"/>
<path d="M17.8192 8.10791C18.565 9.22082 19 10.5595 19 11.9999C19 13.4402 18.565 14.7789 17.8192 15.8918L21 15.2295V8.77021L17.8192 8.10791Z" fill="black"/>
<path d="M12 13.9999C13.1046 13.9999 14 13.1044 14 11.9999C14 10.8953 13.1046 9.99987 12 9.99987C10.8954 9.99987 10 10.8953 10 11.9999C10 13.1044 10.8954 13.9999 12 13.9999Z" fill="black"/>
</svg>
