<svg width="24" height="24" viewBox="0 0 24 24" fill="none" xmlns="http://www.w3.org/2000/svg">
<g opacity="0.3">
<path fill-rule="evenodd" clip-rule="evenodd" d="M11.3861 2C10.3746 2 9.52235 2.7552 9.40064 3.75934L8.5 11V21C8.5 21.5523 8.94772 22 9.5 22C10.0523 22 10.5 21.5523 10.5 21V20.5H13.5V21C13.5 21.5523 13.9477 22 14.5 22C15.0523 22 15.5 21.5523 15.5 21V11L14.6018 3.75193C14.4767 2.75107 13.6259 2 12.6172 2H11.3861ZM13 12C13 11.4477 12.5523 11 12 11C11.4477 11 11 11.4477 11 12V14C11 14.5523 11.4477 15 12 15C12.5523 15 13 14.5523 13 14V12Z" fill="black"/>
<path d="M6 20.0542V13H4V18.8042L6 20.0542Z" fill="black"/>
<path d="M18 20.0542L20 18.8042V13H18V20.0542Z" fill="black"/>
</g>
<path d="M3 5C3.55228 5 4 5.44772 4 6V7C4.55228 7 5 7.44772 5 8C5 8.55228 4.55228 9 4 9V19.5C4 20.0523 3.55228 20.5 3 20.5C2.44772 20.5 2 20.0523 2 19.5V9C1.44772 9 1 8.55228 1 8C1 7.44772 1.44772 7 2 7V6C2 5.44772 2.44772 5 3 5Z" fill="black"/>
<path d="M7 20.5C6.81258 20.5 6.62893 20.4473 6.47 20.348L6 20.0542V12C6 11.4477 6.44772 11 7 11V20.5Z" fill="black"/>
<path d="M17 20.5C17.1874 20.5 17.3711 20.4473 17.53 20.348L18 20.0542V12C18 11.4477 17.5523 11 17 11V20.5Z" fill="black"/>
<path d="M22 6C22 5.44772 21.5523 5 21 5C20.4477 5 20 5.44772 20 6V7C19.4477 7 19 7.44772 19 8C19 8.55228 19.4477 9 20 9V19.5C20 20.0523 20.4477 20.5 21 20.5C21.5523 20.5 22 20.0523 22 19.5V9C22.5523 9 23 8.55228 23 8C23 7.44772 22.5523 7 22 7V6Z" fill="black"/>
</svg>
