<svg width="24" height="24" viewBox="0 0 24 24" fill="none" xmlns="http://www.w3.org/2000/svg">
<g opacity="0.3">
<path fill-rule="evenodd" clip-rule="evenodd" d="M9 12C9 8.13401 12.134 5 16 5C19.866 5 23 8.13401 23 12C23 15.866 19.866 19 16 19C12.134 19 9 15.866 9 12ZM18.5 12C18.5 13.3807 17.3807 14.5 16 14.5C14.6193 14.5 13.5 13.3807 13.5 12C13.5 10.6193 14.6193 9.5 16 9.5C17.3807 9.5 18.5 10.6193 18.5 12Z" fill="black"/>
<path d="M4.54545 7.5H3.25C2.00736 7.5 1 6.49264 1 5.25C1 4.00736 2.00736 3 3.25 3H6.75C7.99264 3 9 4.00736 9 5.25C9 6.35036 8.21012 7.26623 7.16643 7.46154L4.54545 7.5Z" fill="black"/>
<path d="M7.16643 16.5385C8.21012 16.7338 9 17.6496 9 18.75C9 19.9926 7.99264 21 6.75 21H3.25C2.00736 21 1 19.9926 1 18.75C1 17.5074 2.00736 16.5 3.25 16.5H4.54545L7.16643 16.5385Z" fill="black"/>
</g>
<path d="M16 12.9999C16.5523 12.9999 17 12.5522 17 11.9999C17 11.4476 16.5523 10.9999 16 10.9999C15.4477 10.9999 15 11.4476 15 11.9999C15 12.5522 15.4477 12.9999 16 12.9999Z" fill="black"/>
<path d="M7.82937 8.22104L7.16643 7.46143L4.54545 7.49989L6.10138 9.28271C4.87203 9.60137 4 10.7138 4 11.9999C4 13.286 4.87199 14.3985 6.10129 14.7172L4.54545 16.4999L7.16643 16.5383L7.82937 15.7787C7.29706 14.6297 7 13.3495 7 11.9999C7 10.6503 7.29706 9.37006 7.82937 8.22104Z" fill="black"/>
</svg>
