<svg width="24" height="24" viewBox="0 0 24 24" fill="none" xmlns="http://www.w3.org/2000/svg">
<g opacity="0.3">
<path fill-rule="evenodd" clip-rule="evenodd" d="M6.57931 11.0002C6.46431 11.0002 6.40729 11.0001 6.36584 10.9984L6.3628 10.9982L6.36038 10.9964C6.32746 10.9712 6.28353 10.9348 6.1952 10.8612L5.63897 10.3977L6.94692 8.10874C7.31614 7.46262 7.39934 7.34063 7.48923 7.25919C7.59352 7.16469 7.71659 7.09327 7.85038 7.0496C7.92743 7.02445 8.04741 7.00399 8.50667 7.00094C8.61049 7.00025 8.72524 7.00024 8.85706 7.00024H15.1447C15.2765 7.00024 15.3912 7.00025 15.495 7.00094C15.9543 7.00399 16.0743 7.02445 16.1513 7.0496C16.2851 7.09327 16.4082 7.16469 16.5125 7.25919C16.6024 7.34063 16.6856 7.46261 17.0548 8.10874L18.3627 10.3977L17.8065 10.8612C17.7182 10.9348 17.6742 10.9712 17.6413 10.9964L17.6389 10.9982L17.6359 10.9984C17.5944 11.0001 17.5374 11.0002 17.4224 11.0002H6.57931ZM6.5 14.0002C5.67157 14.0002 5 14.6718 5 15.5002C5 16.3287 5.67157 17.0002 6.5 17.0002C6.50324 17.0002 6.50647 17.0002 6.5097 17.0002C7.33366 16.995 8 16.3254 8 15.5002C8 14.6718 7.32843 14.0002 6.5 14.0002ZM17.5 14.0002C16.6716 14.0002 16 14.6718 16 15.5002C16 16.3287 16.6716 17.0002 17.5 17.0002C18.3284 17.0002 19 16.3287 19 15.5002C19 14.6718 18.3284 14.0002 17.5 14.0002Z" fill="black"/>
<path fill-rule="evenodd" clip-rule="evenodd" d="M16.5 5.07689V5.00024C16.5 5.02588 16.4995 5.05141 16.4986 5.07681C16.118 4.99902 15.7109 4.99953 15.2603 5.00009H8.74079C8.28973 4.99953 7.88229 4.99902 7.50145 5.07703C7.50061 5.05491 7.50014 5.0327 7.50003 5.01041V5.07689C7.40964 5.09559 7.31964 5.119 7.22981 5.14832C6.82843 5.27932 6.45923 5.49358 6.14634 5.77708C5.78932 6.10056 5.54544 6.52859 5.26829 7.01503L4.07853 9.09729L3.64021 8.73202C3.21593 8.37846 2.58537 8.43578 2.23181 8.86006C1.87824 9.28434 1.93557 9.9149 2.35984 10.2685L3.07076 10.8609L2.93888 11.0917C2.65934 11.5807 2.46568 11.9194 2.32656 12.2852C2.20343 12.609 2.11428 12.9447 2.06054 13.2869C1.99984 13.6736 1.99991 14.0638 2.00002 14.627L2.00577 20.0002H6.99428H7H21.9924L22 14.627C22.0001 14.0637 22.0002 13.6736 21.9395 13.2869C21.8858 12.9447 21.7966 12.609 21.6735 12.2852C21.5344 11.9194 21.3407 11.5807 21.0612 11.0917L20.9293 10.8609L21.6402 10.2685C22.0645 9.9149 22.1218 9.28434 21.7682 8.86006C21.4147 8.43578 20.7841 8.37846 20.3598 8.73202L19.9215 9.09729L18.7318 7.01503C18.4546 6.52859 18.2107 6.10056 17.8537 5.77708C17.5408 5.49358 17.1716 5.27932 16.7702 5.14832C16.6804 5.119 16.5904 5.09559 16.5 5.07689ZM6.57931 11.0002C6.46431 11.0002 6.40729 11.0001 6.36584 10.9984L6.3628 10.9982L6.36038 10.9964C6.32746 10.9712 6.28353 10.9348 6.1952 10.8612L5.63897 10.3977L6.94692 8.10874C7.31614 7.46262 7.39934 7.34063 7.48923 7.25919C7.59352 7.16469 7.71659 7.09327 7.85038 7.0496C7.92743 7.02445 8.04741 7.00399 8.50667 7.00094C8.61049 7.00025 8.72524 7.00024 8.85706 7.00024H15.1447C15.2765 7.00024 15.3912 7.00025 15.495 7.00094C15.9543 7.00399 16.0743 7.02445 16.1513 7.0496C16.2851 7.09327 16.4082 7.16469 16.5125 7.25919C16.6024 7.34063 16.6856 7.46261 17.0548 8.10874L18.3627 10.3977L17.8065 10.8612C17.7182 10.9348 17.6742 10.9712 17.6413 10.9964L17.6389 10.9982L17.6359 10.9984C17.5944 11.0001 17.5374 11.0002 17.4224 11.0002H6.57931ZM6.5 14.0002C5.67157 14.0002 5 14.6718 5 15.5002C5 16.3287 5.67157 17.0002 6.5 17.0002L6.5097 17.0002C7.33366 16.995 8 16.3254 8 15.5002C8 14.6718 7.32843 14.0002 6.5 14.0002ZM17.5 14.0002C16.6716 14.0002 16 14.6718 16 15.5002C16 16.3287 16.6716 17.0002 17.5 17.0002C18.3284 17.0002 19 16.3287 19 15.5002C19 14.6718 18.3284 14.0002 17.5 14.0002Z" fill="black"/>
</g>
<path d="M18.3627 10.3974L17.0548 8.10849C16.6856 7.46237 16.6024 7.34038 16.5125 7.25895C16.4082 7.16445 16.2851 7.09303 16.1513 7.04936C16.0743 7.02421 15.9543 7.00375 15.495 7.00069C15.3912 7 15.2765 7 15.1446 7H8.85871C8.72689 7 8.61215 7 8.50833 7.00069C8.04907 7.00375 7.92909 7.02421 7.85204 7.04936C7.71825 7.09303 7.59518 7.16445 7.49088 7.25894C7.401 7.34038 7.31779 7.46237 6.94858 8.10849L5.64062 10.3974L6.19685 10.8609C6.28519 10.9345 6.32912 10.9709 6.36204 10.9961L6.36446 10.998L6.36749 10.9981C6.40895 10.9998 6.46597 11 6.58096 11H17.4224C17.5374 11 17.5944 10.9998 17.6359 10.9981L17.6389 10.998L17.6413 10.9961C17.6742 10.9709 17.7182 10.9345 17.8065 10.8609L18.3627 10.3974Z" fill="black"/>
<path d="M19 15.5C19 16.3284 18.3284 17 17.5 17C16.6716 17 16 16.3284 16 15.5C16 14.6716 16.6716 14 17.5 14C18.3284 14 19 14.6716 19 15.5Z" fill="black"/>
<path d="M8 15.5C8 16.3284 7.32843 17 6.5 17C5.67157 17 5 16.3284 5 15.5C5 14.6716 5.67157 14 6.5 14C7.32843 14 8 14.6716 8 15.5Z" fill="black"/>
<path d="M2.1504 20.7654C2.05346 20.5313 2.02298 20.3056 2.00999 20.1152C2.00746 20.0781 2.00547 20.0396 2.00391 20H6.99241C6.99085 20.0396 6.98886 20.0781 6.98633 20.1152C6.97334 20.3056 6.94286 20.5313 6.84592 20.7654C6.64293 21.2554 6.25359 21.6448 5.76353 21.8478C5.52948 21.9447 5.30376 21.9752 5.11339 21.9882C4.93935 22 4.73463 22 4.52464 22H4.47152C4.26154 22 4.05697 22 3.88293 21.9882C3.69256 21.9752 3.46684 21.9447 3.23279 21.8478C2.74273 21.6448 2.35339 21.2554 2.1504 20.7654Z" fill="black"/>
<path d="M17.01 20.1152C17.0075 20.0781 17.0055 20.0396 17.0039 20H21.9924C21.9908 20.0396 21.9889 20.0781 21.9863 20.1152C21.9733 20.3056 21.9429 20.5313 21.8459 20.7654C21.6429 21.2554 21.2536 21.6448 20.7635 21.8478C20.5295 21.9447 20.3038 21.9752 20.1134 21.9882C19.9393 22 19.7346 22 19.5246 22H19.4715C19.2615 22 19.057 22 18.8829 21.9882C18.6926 21.9752 18.4668 21.9447 18.2328 21.8478C17.7427 21.6448 17.3534 21.2554 17.1504 20.7654C17.0535 20.5313 17.023 20.3056 17.01 20.1152Z" fill="black"/>
<path d="M10.5 2C8.84315 2 7.5 3.34315 7.5 5C7.5 5.02571 7.50048 5.05131 7.50145 5.07678C7.88228 4.99878 8.28972 4.99929 8.74079 4.99985L8.85756 4.99995H15.1435L15.2603 4.99985C15.7109 4.99929 16.118 4.99878 16.4986 5.07657C16.4995 5.05116 16.5 5.02564 16.5 5C16.5 3.34315 15.1569 2 13.5 2H10.5Z" fill="black"/>
</svg>
