<svg width="24" height="24" viewBox="0 0 24 24" fill="none" xmlns="http://www.w3.org/2000/svg">
<path opacity="0.3" d="M4 4C4 3.44772 4.44772 3 5 3H11C11.3788 3 11.725 3.214 11.8944 3.55279L14.618 9H17.5V8.10555C17.5 6.76814 18.1684 5.51921 19.2812 4.77735L19.4453 4.66795C19.9048 4.3616 20.5257 4.48577 20.8321 4.9453C21.1384 5.40483 21.0142 6.0257 20.5547 6.33205L20.3906 6.44145C19.8342 6.81238 19.5 7.43684 19.5 8.10555V9H22C22.5523 9 23 9.44772 23 10V14.2857C23 14.6446 22.8077 14.9759 22.4961 15.154L22.2175 15.3132C21.3296 13.9223 19.7725 13 18 13C15.581 13 13.5633 14.7178 13.1 17H12.4196C12.7755 16.6859 13 16.2263 13 15.7143V14.2857C13 13.6794 12.6853 13.1466 12.2102 12.8418C12.3306 12.2904 12.1764 11.6912 11.7477 11.2624L10.7376 10.2523C10.3088 9.82357 9.70955 9.66939 9.15815 9.78976C8.85336 9.31475 8.32058 9 7.71429 9H12.382L10.382 5H6V9H6.28571C5.67942 9 5.14663 9.31475 4.84185 9.78976C4.56408 9.72913 4.27415 9.73816 4 9.81686V4Z" fill="black"/>
<path fill-rule="evenodd" clip-rule="evenodd" d="M15 18C15 17.6494 15.0602 17.3128 15.1707 17C15.5825 15.8348 16.6938 15 18 15C19.029 15 19.937 15.518 20.4774 16.3075C20.8071 16.7893 21 17.3721 21 18C21 19.6569 19.6569 21 18 21C16.3431 21 15 19.6569 15 18ZM17 18C17 17.4477 17.4477 17 18 17C18.5523 17 19 17.4477 19 18C19 18.5523 18.5523 19 18 19C17.4477 19 17 18.5523 17 18Z" fill="black"/>
<path fill-rule="evenodd" clip-rule="evenodd" d="M4.84185 9.78976C5.14663 9.31475 5.67942 9 6.28571 9H7.71429C8.32058 9 8.85336 9.31475 9.15815 9.78976C9.70955 9.6694 10.3088 9.82357 10.7376 10.2523L11.7477 11.2624C12.1764 11.6912 12.3306 12.2904 12.2102 12.8418C12.6853 13.1466 13 13.6794 13 14.2857V15.7143C13 16.3206 12.6852 16.8534 12.2102 17.1582C12.3306 17.7096 12.1764 18.3088 11.7477 18.7376L10.7376 19.7477C10.3088 20.1764 9.70955 20.3306 9.15815 20.2102C8.85336 20.6853 8.32058 21 7.71429 21H6.28571C5.67942 21 5.14664 20.6853 4.84185 20.2102C4.29044 20.3306 3.69115 20.1764 3.26243 19.7477L2.25228 18.7376C1.82356 18.3088 1.66939 17.7096 1.78975 17.1581C1.31474 16.8534 1 16.3206 1 15.7143V14.2857C1 13.6794 1.31474 13.1466 1.78975 12.8419C1.66938 12.2904 1.82356 11.6912 2.25228 11.2624L3.26243 10.2523C3.69115 9.82357 4.29044 9.66939 4.84185 9.78976ZM7 17C8.10457 17 9 16.1046 9 15C9 13.8954 8.10457 13 7 13C5.89543 13 5 13.8954 5 15C5 16.1046 5.89543 17 7 17Z" fill="black"/>
</svg>
