<svg width="24" height="24" viewBox="0 0 24 24" fill="none" xmlns="http://www.w3.org/2000/svg">
<g opacity="0.3">
<path d="M2.89465 6.55301C2.64766 6.05903 2.04698 5.8588 1.55301 6.10579C1.05903 6.35278 0.858803 6.95345 1.10579 7.44743L2.14755 9.53096C2.57912 10.3941 3.39955 10.9969 4.3522 11.1509L6.84067 11.5531C7.38588 11.6412 7.89929 11.2706 7.98741 10.7254C8.07552 10.1802 7.70498 9.6668 7.15976 9.57869L4.67129 9.17651C4.35374 9.12519 4.08026 8.92424 3.93641 8.63653L2.89465 6.55301Z" fill="black"/>
<path fill-rule="evenodd" clip-rule="evenodd" d="M19.5 13.0002C17.567 13.0002 16 14.5672 16 16.5002C16 18.4332 17.567 20.0002 19.5 20.0002C21.433 20.0002 23 18.4332 23 16.5002C23 14.5672 21.433 13.0002 19.5 13.0002ZM18 16.5002C18 15.6718 18.6716 15.0002 19.5 15.0002C20.3284 15.0002 21 15.6718 21 16.5002C21 17.3287 20.3284 18.0002 19.5 18.0002C18.6716 18.0002 18 17.3287 18 16.5002Z" fill="black"/>
<path fill-rule="evenodd" clip-rule="evenodd" d="M4.5 12.0002C2.567 12.0002 1 13.5672 1 15.5002C1 17.4332 2.567 19.0002 4.5 19.0002C5.04518 19.0002 5.56124 18.8756 6.02125 18.6532C6.65444 19.2883 7.53043 19.6819 8.49939 19.6819C10.4324 19.6819 11.9994 18.1149 11.9994 16.1819C11.9994 15.8827 11.9619 15.5925 11.8913 15.3154L9.10483 14.8088C9.63303 15.0421 9.99939 15.5703 9.99939 16.1819C9.99939 17.0103 9.32782 17.6819 8.49939 17.6819C8.11683 17.6819 7.76687 17.5385 7.50132 17.3018C7.81792 16.7756 8 16.1592 8 15.5002C8 15.2583 7.97545 15.0221 7.92871 14.794C8.08086 14.7313 8.2456 14.6931 8.4185 14.684L7.87939 14.586C7.72863 14.0274 7.44306 13.5241 7.05974 13.1132C7.03312 13.0847 7.00604 13.0566 6.97849 13.029C6.34483 12.3935 5.46834 12.0002 4.5 12.0002ZM4.5 14.0002C3.67157 14.0002 3 14.6718 3 15.5002C3 16.3287 3.67157 17.0002 4.5 17.0002C5.32843 17.0002 6 16.3287 6 15.5002C6 14.6718 5.32843 14.0002 4.5 14.0002Z" fill="black"/>
</g>
<path d="M11 4C10.4477 4 10 4.44772 10 5C10 5.55228 10.4477 6 11 6H12.7396C13.1247 6 13.4755 6.22113 13.6417 6.56854L15.0783 9.57243L12.532 13.3987L2.17906 11.5164C1.63568 11.4176 1.1151 11.778 1.0163 12.3213C0.927154 12.8117 1.21191 13.2834 1.66762 13.4435C2.30388 12.5687 3.33553 12 4.5 12C6.11662 12 7.47726 13.096 7.87934 14.5856L12.8213 15.4841C13.214 15.5555 13.6115 15.3865 13.8327 15.0542L16.0829 11.6729L17.1507 13.9056C17.6444 13.4583 18.2663 13.1499 18.9548 13.0422L17.1362 9.23971C17.1305 9.22722 17.1246 9.21485 17.1184 9.20259L15.446 5.70563C14.9475 4.6634 13.8949 4 12.7396 4H11Z" fill="black"/>
<path d="M19.9315 17.4021C20.4297 17.1638 20.6404 16.5668 20.4021 16.0685L19.9195 15.0595C19.7864 15.0208 19.6456 15 19.5 15C18.8763 15 18.3415 15.3807 18.1153 15.9224L18.5979 16.9315C18.8362 17.4297 19.4332 17.6404 19.9315 17.4021Z" fill="black"/>
</svg>
