<svg width="24" height="24" viewBox="0 0 24 24" fill="none" xmlns="http://www.w3.org/2000/svg">
<path opacity="0.3" fill-rule="evenodd" clip-rule="evenodd" d="M12 5C11.4477 5 11 5.44772 11 6V9H5C3.34314 9 2 10.3431 2 12V15C1.44772 15 1 15.4477 1 16C1 16.5523 1.44772 17 2 17H4.12602C4.04375 16.6804 4 16.3453 4 16C4 13.7909 5.79086 12 8 12C10.2091 12 12 13.7909 12 16C12 16.3453 11.9562 16.6804 11.874 17H13.126C13.0438 16.6804 13 16.3453 13 16C13 13.7909 14.7909 12 17 12C19.2091 12 21 13.7909 21 16C21 16.3453 20.9562 16.6804 20.874 17H21.9982C22.5505 17 22.9982 16.5523 22.9982 16C22.9982 15.4477 22.5505 15 21.9982 15V12C21.9982 10.5267 20.9362 9.30153 19.5361 9.04808L16.8 5.4C16.6111 5.14819 16.3148 5 16 5H12ZM17 9H13V7H15.5L17 9Z" fill="black"/>
<path d="M8 13C6.34315 13 5 14.3431 5 16C5 17.6569 6.34315 19 8 19C9.65685 19 11 17.6569 11 16C11 14.3431 9.65685 13 8 13Z" fill="black"/>
<path d="M17 13C15.3431 13 14 14.3431 14 16C14 17.6569 15.3431 19 17 19C18.6569 19 20 17.6569 20 16C20 14.3431 18.6569 13 17 13Z" fill="black"/>
<path d="M13 9H17L15.5 7H13V9Z" fill="black"/>
</svg>
