<svg width="24" height="24" viewBox="0 0 24 24" fill="none" xmlns="http://www.w3.org/2000/svg">
<g opacity="0.3">
<path fill-rule="evenodd" clip-rule="evenodd" d="M20.75 12H16V9H18.5L20.75 12Z" fill="black"/>
<path fill-rule="evenodd" clip-rule="evenodd" d="M2 12H8.30049H14V10.0855V8C14 7.44772 14.4477 7 15 7H19C19.3148 7 19.6111 7.14819 19.8 7.4L22.8 11.4C22.9298 11.5731 23 11.7836 23 12V18C23 18.5523 22.5523 19 22 19H21.874C21.9562 18.6804 22 18.3453 22 18C22 15.7909 20.2091 14 18 14C15.7909 14 14 15.7909 14 18C14 18.3453 14.0438 18.6804 14.126 19H10.874C10.9562 18.6804 11 18.3453 11 18C11 15.7909 9.20914 14 7 14C4.79086 14 3 15.7909 3 18C3 18.3453 3.04375 18.6804 3.12602 19H2C1.44772 19 1 18.5523 1 18V13C1 12.4477 1.44772 12 2 12ZM20.75 12H16V9H18.5L20.75 12Z" fill="black"/>
</g>
<path d="M7 15C5.34315 15 4 16.3431 4 18C4 19.6569 5.34315 21 7 21C8.65685 21 10 19.6569 10 18C10 16.3431 8.65685 15 7 15Z" fill="black"/>
<path d="M18 15C16.3431 15 15 16.3431 15 18C15 19.6569 16.3431 21 18 21C19.6569 21 21 19.6569 21 18C21 16.3431 19.6569 15 18 15Z" fill="black"/>
<path d="M20.75 12H16V9H18.5L20.75 12Z" fill="black"/>
<path d="M5 3C4.44772 3 4 3.44772 4 4V8.5C4 8.77614 3.77614 9 3.5 9C3.22386 9 3 8.77614 3 8.5V8C3 7.44772 2.55228 7 2 7C1.44772 7 1 7.44772 1 8V8.5C1 9.88071 2.11929 11 3.5 11C4.88071 11 6 9.88071 6 8.5V7.85913L8.30049 12H14V10.0855L8.78935 3.38606C8.5999 3.14247 8.30859 3 8 3H5Z" fill="black"/>
</svg>
