<svg width="24" height="24" viewBox="0 0 24 24" fill="none" xmlns="http://www.w3.org/2000/svg">
<path opacity="0.3" fill-rule="evenodd" clip-rule="evenodd" d="M7 4C6.44772 4 6 4.44772 6 5V9H3C1.89543 9 1 9.89543 1 11V16C1 13.7909 2.79086 12 5 12C7.20914 12 9 13.7909 9 16C9 16.3453 8.95625 16.6804 8.87398 17H10.126C10.0438 16.6804 10 16.3453 10 16C10 13.7909 11.7909 12 14 12C16.2091 12 18 13.7909 18 16C18 16.3453 17.9562 16.6804 17.874 17H19.4658C19.4782 17.0197 19.4909 17.0392 19.5039 17.0586L21.168 19.5547C21.4743 20.0142 22.0952 20.1384 22.5547 19.832C23.0142 19.5257 23.1384 18.9048 22.832 18.4453L21.168 15.9492C21.0584 15.7849 21 15.5919 21 15.3945V11.6056C21 11.4082 21.0584 11.2152 21.1679 11.0509L22.8321 8.55472C23.1384 8.09519 23.0142 7.47432 22.5547 7.16797C22.0952 6.86162 21.4743 6.9858 21.1679 7.44533L19.5038 9.94149C19.1753 10.4343 19 11.0133 19 11.6056V15H18V11C18 9.89543 17.1046 9 16 9H14.5662L11.8575 4.4855C11.6768 4.1843 11.3513 4 11 4H7ZM12.2338 9H8V6H10.4338L12.2338 9Z" fill="black"/>
<path d="M5 13C3.34315 13 2 14.3431 2 16C2 17.6569 3.34315 19 5 19C6.65685 19 8 17.6569 8 16C8 14.3431 6.65685 13 5 13Z" fill="black"/>
<path d="M14 13C12.3431 13 11 14.3431 11 16C11 17.6569 12.3431 19 14 19C15.6569 19 17 17.6569 17 16C17 14.3431 15.6569 13 14 13Z" fill="black"/>
<path d="M8 9H12.2338L10.4338 6H8V9Z" fill="black"/>
</svg>
