<svg width="24" height="24" viewBox="0 0 24 24" fill="none" xmlns="http://www.w3.org/2000/svg">
<g opacity="0.3">
<path fill-rule="evenodd" clip-rule="evenodd" d="M19.3293 12L14.5 12V9H17L19.3293 12ZM8 8C8.55229 8 9 8.44772 9 9V10H10C10.5523 10 11 10.4477 11 11C11 11.5523 10.5523 12 10 12H9V13C9 13.5523 8.55229 14 8 14C7.96548 14 7.93137 13.9983 7.89776 13.9948C7.3935 13.9436 7 13.5178 7 13V12H6C5.96548 12 5.93137 11.9983 5.89776 11.9948C5.3935 11.9436 5 11.5178 5 11C5 10.931 5.007 10.8636 5.02032 10.7985C5.11356 10.3428 5.51675 10 6 10L7 10L7 9C7 8.93097 7.007 8.86356 7.02032 8.79847C7.11356 8.34278 7.51675 8 8 8Z" fill="black"/>
<path fill-rule="evenodd" clip-rule="evenodd" d="M5.66146 3H10.3385C10.8656 2.99999 11.3205 2.99997 11.695 3.03057C12.0904 3.06287 12.4836 3.13419 12.862 3.32698C13.4265 3.6146 13.8854 4.07355 14.173 4.63803C14.3658 5.01641 14.4371 5.40963 14.4694 5.80498C14.4969 6.14075 14.4997 6.54097 14.5 7H17.5C17.8148 7 18.1111 7.1482 18.3 7.4L21.3 11.4C21.4298 11.5731 21.5 11.7836 21.5 12V17C22.0523 17 22.5 17.4477 22.5 18C22.5 18.5523 22.0523 19 21.5 19L20.374 19C20.4562 18.6804 20.5 18.3453 20.5 18C20.5 15.7909 18.7091 14 16.5 14C14.2909 14 12.5 15.7909 12.5 18C12.5 18.3453 12.5438 18.6804 12.626 19H10.374C10.4562 18.6804 10.5 18.3453 10.5 18C10.5 15.7909 8.70914 14 6.5 14C4.29086 14 2.5 15.7909 2.5 18V18.2361C1.88625 17.6868 1.5 16.8885 1.5 16V7.16138C1.49999 6.63428 1.49997 6.17952 1.53057 5.80498C1.56287 5.40963 1.63419 5.01641 1.82698 4.63803C2.1146 4.07355 2.57355 3.6146 3.13803 3.32698C3.51641 3.13419 3.90963 3.06287 4.30498 3.03057C4.67952 2.99997 5.13436 2.99999 5.66146 3ZM19.3293 12L14.5 12V9H17L19.3293 12ZM8 8C8.55229 8 9 8.44772 9 9V10H10C10.5523 10 11 10.4477 11 11C11 11.5523 10.5523 12 10 12H9V13C9 13.5523 8.55229 14 8 14C7.96548 14 7.93137 13.9983 7.89776 13.9948C7.3935 13.9436 7 13.5178 7 13V12H6C5.96548 12 5.93137 11.9983 5.89776 11.9948C5.3935 11.9436 5 11.5178 5 11C5 10.931 5.007 10.8636 5.02032 10.7985C5.11356 10.3428 5.51675 10 6 10L7 10L7 9C7 8.93097 7.007 8.86356 7.02032 8.79847C7.11356 8.34278 7.51675 8 8 8Z" fill="black"/>
</g>
<path d="M8 8C8.55228 8 9 8.44772 9 9V10H10C10.5523 10 11 10.4477 11 11C11 11.5523 10.5523 12 10 12H9V13C9 13.5523 8.55228 14 8 14C7.44772 14 7 13.5523 7 13V12H6C5.44772 12 5 11.5523 5 11C5 10.4477 5.44772 10 6 10H7V9C7 8.44772 7.44772 8 8 8Z" fill="black"/>
<path d="M3.5 18C3.5 16.3431 4.84315 15 6.5 15C8.15685 15 9.5 16.3431 9.5 18C9.5 19.6569 8.15685 21 6.5 21C4.84315 21 3.5 19.6569 3.5 18Z" fill="black"/>
<path d="M14.5 12L19.3293 12L17 9H14.5V12Z" fill="black"/>
<path d="M13.5 18C13.5 16.3431 14.8431 15 16.5 15C18.1569 15 19.5 16.3431 19.5 18C19.5 19.6569 18.1569 21 16.5 21C14.8431 21 13.5 19.6569 13.5 18Z" fill="black"/>
</svg>
