<svg width="24" height="24" viewBox="0 0 24 24" fill="none" xmlns="http://www.w3.org/2000/svg">
<path fill-rule="evenodd" clip-rule="evenodd" d="M3 4C2.44772 4 2 4.44772 2 5C2 5.55228 2.44772 6 3 6V8C2.44772 8 2 8.44772 2 9C2 9.55228 2.44772 10 3 10H11C11.5523 10 12 9.55228 12 9C12 8.44772 11.5523 8 11 8V6C11.5523 6 12 5.55228 12 5C12 4.44772 11.5523 4 11 4H3ZM5 8V6H6V8H5ZM8 8V6H9V8H8Z" fill="black"/>
<path fill-rule="evenodd" clip-rule="evenodd" d="M15 17C15 15.3431 16.3431 14 18 14C19.6569 14 21 15.3431 21 17C21 18.6569 19.6569 20 18 20C16.3431 20 15 18.6569 15 17Z" fill="black"/>
<path fill-rule="evenodd" clip-rule="evenodd" d="M4 17C4 15.3431 5.34315 14 7 14C8.65685 14 10 15.3431 10 17C10 18.6569 8.65685 20 7 20C5.34315 20 4 18.6569 4 17Z" fill="black"/>
<path d="M16 8V11H21L18.5 8H16Z" fill="black"/>
<path opacity="0.3" fill-rule="evenodd" clip-rule="evenodd" d="M14 7C14 6.44772 14.4477 6 15 6H19C19.3148 6 19.6111 6.14819 19.8 6.4L22.8 10.4C22.9298 10.5731 23 10.7836 23 11V17C23 17.5523 22.5523 18 22 18H21.874C21.9562 17.6804 22 17.3453 22 17C22 14.7909 20.2091 13 18 13C15.7909 13 14 14.7909 14 17C14 17.3453 14.0438 17.6804 14.126 18H10.874C10.9562 17.6804 11 17.3453 11 17C11 14.7909 9.20914 13 7 13C4.79086 13 3 14.7909 3 17C3 17.3453 3.04375 17.6804 3.12602 18H2C1.44772 18 1 17.5523 1 17V12C1 11.4477 1.44772 11 2 11H14V7ZM16 8V11H21L18.5 8H16Z" fill="black"/>
</svg>
