<svg width="24" height="24" viewBox="0 0 24 24" fill="none" xmlns="http://www.w3.org/2000/svg">
<path fill-rule="evenodd" clip-rule="evenodd" d="M1 16C1 14.3431 2.34315 13 4 13C5.04349 13 5.96254 13.5328 6.5 14.3411C7.03746 13.5328 7.95651 13 9 13C10.6569 13 12 14.3431 12 16C12 17.6569 10.6569 19 9 19C7.95651 19 7.03746 18.4672 6.5 17.6589C5.96254 18.4672 5.04349 19 4 19C2.34315 19 1 17.6569 1 16Z" fill="black"/>
<path fill-rule="evenodd" clip-rule="evenodd" d="M15 16C15 14.3431 16.3431 13 18 13C19.6569 13 21 14.3431 21 16C21 17.6569 19.6569 19 18 19C16.3431 19 15 17.6569 15 16Z" fill="black"/>
<path d="M16.0012 10H21.0012L18.5 7H16L16.0012 10Z" fill="black"/>
<path opacity="0.3" fill-rule="evenodd" clip-rule="evenodd" d="M14.9998 5C14.4476 5 13.9998 5.44772 13.9998 6V15H12.875C12.9573 15.3196 13.001 15.6547 13.001 16C13.001 16.3453 12.9573 16.6804 12.875 17H14.127C14.0448 16.6804 14.001 16.3453 14.001 16C14.001 13.7909 15.7919 12 18.001 12C20.2102 12 22.001 13.7909 22.001 16C22.001 16.3453 21.9573 16.6804 21.875 17H21.9998C22.5521 17 22.9998 16.5523 22.9998 16V10C22.9998 9.78363 22.9297 9.5731 22.7998 9.4L19.7998 5.4C19.611 5.14819 19.3146 5 18.9998 5H14.9998ZM16.001 10H21.001L18.4998 7H15.9998L16.001 10Z" fill="black"/>
</svg>
