<svg width="24" height="24" viewBox="0 0 24 24" fill="none" xmlns="http://www.w3.org/2000/svg">
<g opacity="0.3">
<path d="M1 8.5C1 7.11929 2.11929 6 3.5 6L12 6V12H1V8.5Z" fill="black"/>
<path fill-rule="evenodd" clip-rule="evenodd" d="M6.5 15C8.433 15 10 16.567 10 18.5H14C14 16.567 15.567 15 17.5 15C19.4163 15 20.9729 16.5401 20.9997 18.4501C22.1409 18.2186 23 17.2096 23 16V8.5C23 7.11929 21.8807 6 20.5 6L19.9152 6C19.7093 5.4174 19.1537 5 18.5006 5C17.8475 5 17.2919 5.4174 17.0859 6H14V13C14 13.5523 13.5523 14 13 14H1V16C1 17.2096 1.85906 18.2186 3.00035 18.4501C3.02706 16.5401 4.58368 15 6.5 15ZM16 10.1C16 9.49249 16.4925 9 17.1 9H18.9C19.5075 9 20 9.49249 20 10.1V11.9C20 12.5075 19.5075 13 18.9 13H17.1C16.4925 13 16 12.5075 16 11.9V10.1Z" fill="black"/>
</g>
<path d="M1 3C1 2.44772 1.44772 2 2 2H22C22.5523 2 23 2.44772 23 3C23 3.55228 22.5523 4 22 4H12V6L10 6V4H8V6H6V4H4V6L3.5 6C2.93716 6 2.41785 6.18612 2 6.5V4C1.44772 4 1 3.55228 1 3Z" fill="black"/>
<path d="M10 18.5C10 20.433 8.433 22 6.5 22C4.567 22 3 20.433 3 18.5C3 18.4833 3.00012 18.4667 3.00035 18.4501C3.02706 16.5401 4.58368 15 6.5 15C8.433 15 10 16.567 10 18.5Z" fill="black"/>
<path d="M21 18.5C21 20.433 19.433 22 17.5 22C15.567 22 14 20.433 14 18.5C14 16.567 15.567 15 17.5 15C19.4163 15 20.9729 16.5401 20.9997 18.4501C20.9999 18.4667 21 18.4833 21 18.5Z" fill="black"/>
</svg>
