<svg width="24" height="24" viewBox="0 0 24 24" fill="none" xmlns="http://www.w3.org/2000/svg">
<g opacity="0.3">
<path fill-rule="evenodd" clip-rule="evenodd" d="M15 5C14.4477 5 14 5.44772 14 6V15H10.874C10.9562 15.3196 11 15.6547 11 16C11 16.3453 10.9562 16.6804 10.874 17H14.126C14.0438 16.6804 14 16.3453 14 16C14 13.7909 15.7909 12 18 12C20.2091 12 22 13.7909 22 16C22 16.3453 21.9562 16.6804 21.874 17H22C22.5523 17 23 16.5523 23 16V10C23 9.78363 22.9298 9.5731 22.8 9.4L19.8 5.4C19.6111 5.14819 19.3148 5 19 5H15ZM21 10L18.5 7H16V10H21Z" fill="black"/>
<path d="M2 15H3.12602C3.04375 15.3196 3 15.6547 3 16C3 16.3453 3.04375 16.6804 3.12602 17H2C1.44772 17 1 16.5523 1 16C1 15.4477 1.44772 15 2 15Z" fill="black"/>
</g>
<path fill-rule="evenodd" clip-rule="evenodd" d="M4 16C4 14.3431 5.34315 13 7 13C8.65685 13 10 14.3431 10 16C10 17.6569 8.65685 19 7 19C5.34315 19 4 17.6569 4 16Z" fill="black"/>
<path fill-rule="evenodd" clip-rule="evenodd" d="M15 16C15 14.3431 16.3431 13 18 13C19.6569 13 21 14.3431 21 16C21 17.6569 19.6569 19 18 19C16.3431 19 15 17.6569 15 16Z" fill="black"/>
<path d="M21 10L18.5 7H16V10H21Z" fill="black"/>
</svg>
