<svg width="24" height="24" viewBox="0 0 24 24" fill="none" xmlns="http://www.w3.org/2000/svg">
<path opacity="0.3" d="M5.01938 10.3186C5.1725 11.564 6.20978 12.4656 7.31015 13.0157C8.56205 13.6417 10.2216 14 12 14C13.7784 14 15.4379 13.6417 16.6899 13.0157C17.7902 12.4656 18.8275 11.564 18.9806 10.3186C19.9736 10.7528 20.8418 11.2906 21.5162 11.9237C22.3958 12.7493 23 13.7949 23 15C23 16.9636 21.4342 18.472 19.5183 19.43C17.5425 20.4179 14.883 21 12 21C9.11699 21 6.45748 20.4179 4.48172 19.43C2.56577 18.472 1 16.9636 1 15C1 13.7949 1.60424 12.7493 2.48377 11.9237C3.15818 11.2906 4.02639 10.7528 5.01938 10.3186Z" fill="black"/>
<path d="M12 3C8.13401 3 5 6.13401 5 10C5 11.4113 6.11805 12.4197 7.31015 13.0157C8.56205 13.6417 10.2216 14 12 14C13.7784 14 15.4379 13.6417 16.6899 13.0157C17.8819 12.4197 19 11.4113 19 10C19 6.13401 15.866 3 12 3Z" fill="black"/>
<path fill-rule="evenodd" clip-rule="evenodd" d="M5 15C5 14.4477 5.44772 14 6 14H6.009C6.56128 14 7.009 14.4477 7.009 15C7.009 15.5523 6.56128 16 6.009 16H6C5.44772 16 5 15.5523 5 15Z" fill="black"/>
<path fill-rule="evenodd" clip-rule="evenodd" d="M11 17C11 16.4477 11.4477 16 12 16H12.009C12.5613 16 13.009 16.4477 13.009 17C13.009 17.5523 12.5613 18 12.009 18H12C11.4477 18 11 17.5523 11 17Z" fill="black"/>
<path fill-rule="evenodd" clip-rule="evenodd" d="M17 15C17 14.4477 17.4477 14 18 14H18.009C18.5613 14 19.009 14.4477 19.009 15C19.009 15.5523 18.5613 16 18.009 16H18C17.4477 16 17 15.5523 17 15Z" fill="black"/>
</svg>
