<svg width="24" height="24" viewBox="0 0 24 24" fill="none" xmlns="http://www.w3.org/2000/svg">
<path opacity="0.3" d="M18 13H22V15.6C22 17.8402 22 18.9603 21.564 19.816C21.1805 20.5686 20.5686 21.1805 19.816 21.564C18.9603 22 17.8402 22 15.6 22H8.4C6.15979 22 5.03969 22 4.18404 21.564C3.43139 21.1805 2.81947 20.5686 2.43597 19.816C2 18.9603 2 17.8402 2 15.6V13H6V14C6 14.5523 6.44772 15 7 15C7.55228 15 8 14.5523 8 14V13H16V14C16 14.5523 16.4477 15 17 15C17.5523 15 18 14.5523 18 14V13Z" fill="black"/>
<path fill-rule="evenodd" clip-rule="evenodd" d="M12.8383 2H11.1612C10.6341 1.99998 10.1793 1.99997 9.80475 2.03057C9.40941 2.06287 9.01619 2.13419 8.63781 2.32698C8.07332 2.6146 7.61438 3.07354 7.32676 3.63803C7.13397 4.01641 7.06265 4.40963 7.03035 4.80497C7.00281 5.14211 7.00007 5.54422 6.99981 6.00559C5.64969 6.02389 4.83918 6.10205 4.18382 6.43598C3.43117 6.81947 2.81925 7.43139 2.43575 8.18404C2.10183 8.8394 2.02367 9.6499 2.00537 11H21.9942C21.9759 9.6499 21.8977 8.8394 21.5638 8.18404C21.1803 7.43139 20.5684 6.81947 19.8157 6.43598C19.1604 6.10205 18.3499 6.02389 16.9998 6.00559C16.9995 5.54422 16.9968 5.14211 16.9692 4.80497C16.9369 4.40963 16.8656 4.01641 16.6728 3.63803C16.3852 3.07354 15.9262 2.6146 15.3618 2.32698C14.9834 2.13419 14.5902 2.06287 14.1948 2.03057C13.8202 1.99997 13.3655 1.99998 12.8383 2ZM14.9997 6C14.9993 5.5349 14.9962 5.21698 14.9759 4.96784C14.9537 4.69618 14.916 4.59546 14.8908 4.54601C14.7949 4.35785 14.6419 4.20487 14.4538 4.109C14.4043 4.0838 14.3036 4.04613 14.0319 4.02393C13.7486 4.00078 13.3763 4 12.7998 4H11.1998C10.6232 4 10.251 4.00078 9.96762 4.02393C9.69595 4.04613 9.59523 4.0838 9.54579 4.109C9.35763 4.20487 9.20465 4.35785 9.10878 4.54601C9.08358 4.59546 9.0459 4.69618 9.02371 4.96784C9.00335 5.21698 9.0003 5.5349 8.99985 6H14.9997Z" fill="black"/>
</svg>
