<svg width="24" height="24" viewBox="0 0 24 24" fill="none" xmlns="http://www.w3.org/2000/svg">
<path d="M17.4269 6.71443C17.3141 6.5849 17.151 6.50737 16.9771 6.5006C16.8032 6.49384 16.6343 6.55845 16.5113 6.6788L13.6823 9.44691C13.5045 9.62089 13.4512 9.8823 13.5471 10.1097C13.6429 10.337 13.8693 10.4857 14.1208 10.4867L17.5409 10.5001L17.5434 10.5001H17.8676C18.1952 10.5001 18.4669 10.2522 18.4895 9.93275C18.497 9.82579 18.5 9.72009 18.5 9.61643C18.5 8.53801 18.1151 7.54575 17.4722 6.76672L17.4616 6.75428L17.4269 6.71443Z" fill="black"/>
<path d="M13.548 11.9011C13.6453 11.6574 13.874 11.4991 14.127 11.5001L17.552 11.5144H17.8755C18.0486 11.5144 18.2139 11.5894 18.332 11.7214C18.4501 11.8534 18.5104 12.0306 18.4985 12.2107C18.4187 13.4194 17.9151 14.5063 17.1434 15.3098C17.0222 15.4359 16.8567 15.5047 16.6856 15.4999C16.5145 15.4951 16.3527 15.4173 16.2382 15.2845L16.1829 15.2205C15.2066 14.2019 14.6592 13.6308 13.6829 12.6123C13.504 12.4256 13.4507 12.1448 13.548 11.9011Z" fill="black"/>
<path d="M12.6143 13.683C12.4273 13.5041 12.1459 13.4509 11.9017 13.5482C11.6576 13.6454 11.499 13.8741 11.5 14.1271L11.5143 17.5741V17.8757C11.5143 18.0486 11.5893 18.2139 11.7214 18.3319C11.8536 18.45 12.0309 18.5104 12.2113 18.4987C13.4183 18.4202 14.5041 17.9196 15.3084 17.1517C15.5543 16.9169 15.5648 16.5389 15.3324 16.2919L15.2631 16.2183C15.2555 16.2102 15.2476 16.2023 15.2396 16.1946L12.6143 13.683Z" fill="black"/>
<path d="M10.1085 13.5471C10.3365 13.6429 10.4856 13.8693 10.4866 14.1209L10.5 17.5627L10.5 17.5652V17.8675C10.5 18.1953 10.2513 18.4671 9.931 18.4893C9.82787 18.4965 9.72337 18.5001 9.61873 18.5001C8.535 18.5001 7.5388 18.1115 6.75801 17.4639C6.74964 17.457 6.74144 17.4498 6.73344 17.4424L6.70099 17.4124C6.57701 17.298 6.50443 17.1366 6.5002 16.9659C6.49596 16.7953 6.56045 16.6304 6.67859 16.5096L9.44441 13.6829C9.61862 13.5048 9.88061 13.4513 10.1085 13.5471Z" fill="black"/>
<path d="M17.6366 4.89697C18.0249 4.50426 18.6581 4.50071 19.0508 4.88904C20.8824 6.70022 22.0191 9.21654 22.0191 11.9964C22.0191 17.5203 17.5366 21.9964 12.0093 21.9964C9.23489 21.9964 6.72236 20.8674 4.91029 19.0464C4.52073 18.6549 4.52229 18.0218 4.91378 17.6322C5.30526 17.2427 5.93843 17.2442 6.32799 17.6357C7.77984 19.0947 9.78812 19.9964 12.0093 19.9964C16.434 19.9964 20.0191 16.4137 20.0191 11.9964C20.0191 9.77273 19.1121 7.76231 17.6445 6.31116C17.2518 5.92283 17.2483 5.28968 17.6366 4.89697Z" fill="black"/>
</svg>
