<svg width="24" height="24" viewBox="0 0 24 24" fill="none" xmlns="http://www.w3.org/2000/svg">
<path d="M14.3582 5.71512C13.9058 5.26278 13.3144 5.13549 12.7949 5.14998C12.2783 5.1644 11.7385 5.3171 11.2216 5.53862C10.1824 5.98402 9.03746 6.7932 7.99422 7.83644C6.95098 8.87968 6.1418 10.0246 5.69639 11.0638C5.47487 11.5807 5.32217 12.1205 5.30776 12.6371C5.29326 13.1566 5.42056 13.7481 5.8729 14.2004C6.32524 14.6527 6.91673 14.78 7.43622 14.7655C7.9528 14.7511 8.49257 14.5984 9.00946 14.3769C10.0487 13.9315 11.1936 13.1223 12.2369 12.0791C13.2801 11.0358 14.0893 9.89095 14.5347 8.85168C14.7562 8.33479 14.9089 7.79502 14.9233 7.27844C14.9378 6.75895 14.8105 6.16747 14.3582 5.71512Z" fill="black"/>
<path fill-rule="evenodd" clip-rule="evenodd" d="M17.4177 3.65958C16.2035 2.30227 14.2845 1.988 12.3911 2.30601C10.4265 2.63598 8.27875 3.66471 6.36835 5.26773C4.45793 6.87076 3.07193 8.80727 2.4059 10.6847C1.75396 12.5223 1.73974 14.4993 2.91976 15.9366C3.80483 17.183 5.12557 18.5444 6.6485 19.6052C8.17292 20.667 10.0012 21.4974 11.8664 21.4974C17.4174 21.4974 21.9998 17.1956 21.9998 11.7897C21.9998 8.57134 19.7476 5.38354 17.4177 3.65958ZM12.7224 4.27839C11.167 4.53962 9.33965 5.38532 7.65392 6.79982C5.9682 8.2143 4.81809 9.86705 4.2908 11.3534C3.75455 12.8649 3.91328 14.0095 4.47997 14.6849C5.04665 15.3602 6.14621 15.7153 7.7279 15.4496C9.28316 15.1884 11.1105 14.3427 12.7962 12.9282C14.4819 11.5137 15.6321 9.86091 16.1595 8.37458C16.6958 6.86297 16.5371 5.71841 15.9704 5.04308C15.4037 4.36775 14.3041 4.01271 12.7224 4.27839ZM19.0557 10.166C18.5966 9.85909 17.9756 9.9825 17.6686 10.4416C17.3617 10.9008 17.4851 11.5218 17.9443 11.8287L19.4443 12.8314C19.9034 13.1383 20.5244 13.0149 20.8314 12.5558C21.1383 12.0966 21.0149 11.4756 20.5557 11.1687L19.0557 10.166ZM16.2077 14.7909C15.8176 14.4 15.1844 14.3995 14.7935 14.7896C14.4027 15.1798 14.4021 15.813 14.7923 16.2039L16.2923 17.7065C16.6824 18.0974 17.3156 18.098 17.7065 17.7078C18.0973 17.3176 18.0979 16.6845 17.7077 16.2936L16.2077 14.7909ZM11.7081 17.2912C11.3181 16.9002 10.6849 16.8993 10.2938 17.2893C9.90279 17.6793 9.90195 18.3125 10.2919 18.7035L11.2919 19.7062C11.6819 20.0973 12.3151 20.0981 12.7062 19.7081C13.0972 19.3181 13.0981 18.685 12.7081 18.2939L11.7081 17.2912Z" fill="black"/>
</svg>
