<svg width="24" height="24" viewBox="0 0 24 24" fill="none" xmlns="http://www.w3.org/2000/svg">
<path fill-rule="evenodd" clip-rule="evenodd" d="M19.7342 2.36765C20.9069 1.97678 22.0225 3.09238 21.6316 4.26502L21.01 6.12979L21.3887 11.811C21.751 17.2441 17.2432 21.7519 11.81 21.3897L6.12881 21.011L4.26405 21.6326C3.09141 22.0234 1.9758 20.9078 2.36668 19.7352L2.98827 17.8704L2.60952 12.1892C2.24731 6.75608 6.7551 2.24829 12.1883 2.6105L17.8695 2.98924L19.7342 2.36765ZM12.5904 6.50419C9.10615 6.18744 6.1872 9.10639 6.50394 12.5906C6.55395 13.1406 7.04036 13.546 7.59037 13.496C8.14039 13.446 8.54573 12.9596 8.49573 12.4095C8.29206 10.1692 10.1689 8.29231 12.4093 8.49598C12.9593 8.54598 13.4457 8.14063 13.4957 7.59062C13.5457 7.0406 13.1404 6.55419 12.5904 6.50419Z" fill="black"/>
</svg>
