<svg width="24" height="24" viewBox="0 0 24 24" fill="none" xmlns="http://www.w3.org/2000/svg">
<path d="M9.66997 5.66745C7.63863 4.49466 5.13986 4.47803 3.09309 5.62368L2.85142 5.75895C2.53135 5.9381 2.33505 6.2781 2.33993 6.64487L2.34362 6.9218C2.37484 9.26718 3.63863 11.4229 5.66997 12.5957C7.30283 13.5384 9.23772 13.7341 10.9971 13.1795L11 20.9966C11.0002 21.5489 11.4481 21.9965 12.0004 21.9963C12.5527 21.9961 13.0002 21.5482 13 20.9959L12.9965 11.7159C12.9993 11.6836 13.0004 11.651 13 11.6182L12.9963 11.3413C12.9651 8.99593 11.7013 6.84025 9.66997 5.66745Z" fill="#010101"/>
<path d="M13.303 3.62688C15.0998 2.11916 17.5578 1.66888 19.7724 2.4417L20.0339 2.53295C20.3802 2.65381 20.6326 2.95456 20.6914 3.3166L20.7359 3.58996C21.1124 5.90513 20.2421 8.24752 18.4453 9.75524C17.4479 10.5922 16.2468 11.1033 14.9967 11.2602L14.9965 10.7159C14.9992 10.6836 15.0004 10.651 14.9999 10.6182L14.9962 10.3413C14.9673 8.16844 13.8805 6.15839 12.1055 4.94188C12.4397 4.45807 12.8407 4.01484 13.303 3.62688Z" fill="#010101"/>
</svg>
