<svg width="24" height="24" viewBox="0 0 24 24" fill="none" xmlns="http://www.w3.org/2000/svg">
<path fill-rule="evenodd" clip-rule="evenodd" d="M9.5 8.00003C5.63401 8.00003 2.5 11.134 2.5 15V19C2.5 20.6569 3.84315 22 5.5 22H9.5C13.366 22 16.5 18.866 16.5 15C16.5 14.7348 16.3946 14.4805 16.2071 14.2929L10.2071 8.29293C10.0196 8.10539 9.76522 8.00003 9.5 8.00003ZM9.20718 11.2929C9.59771 11.6834 9.59771 12.3166 9.20718 12.7071L8.50008 13.4142C8.10955 13.8048 7.47639 13.8048 7.08586 13.4142C6.69534 13.0237 6.69534 12.3906 7.08586 12L7.79297 11.2929C8.18349 10.9024 8.81666 10.9024 9.20718 11.2929ZM11.2072 13.2929C11.5977 13.6834 11.5977 14.3166 11.2072 14.7071L10.5001 15.4142C10.1096 15.8048 9.47639 15.8048 9.08586 15.4142C8.69534 15.0237 8.69534 14.3906 9.08586 14L9.79297 13.2929C10.1835 12.9024 10.8167 12.9024 11.2072 13.2929ZM7.91421 15.7071L7.20711 16.4142C6.81658 16.8048 6.18342 16.8048 5.79289 16.4142C5.40237 16.0237 5.40237 15.3906 5.79289 15L6.5 14.2929C6.89052 13.9024 7.52369 13.9024 7.91421 14.2929C8.30474 14.6834 8.30474 15.3166 7.91421 15.7071ZM13.2072 15.2929C13.5977 15.6834 13.5977 16.3166 13.2072 16.7071L12.5001 17.4142C12.1096 17.8048 11.4764 17.8048 11.0859 17.4142C10.6953 17.0237 10.6953 16.3906 11.0859 16L11.793 15.2929C12.1835 14.9024 12.8167 14.9024 13.2072 15.2929ZM9.91421 16.2929C10.3047 16.6834 10.3047 17.3166 9.91421 17.7071L9.20711 18.4142C8.81658 18.8048 8.18342 18.8048 7.79289 18.4142C7.40237 18.0237 7.40237 17.3906 7.79289 17L8.5 16.2929C8.89052 15.9024 9.52369 15.9024 9.91421 16.2929Z" fill="black"/>
<path fill-rule="evenodd" clip-rule="evenodd" d="M18.8887 2.05015C19.4293 1.86996 20.0012 2.19646 20.1679 2.72776C20.1742 2.74884 20.182 2.7759 20.1907 2.80856C20.2081 2.87378 20.2293 2.96182 20.2498 3.06954C20.2907 3.28417 20.33 3.58192 20.33 3.93634C20.33 4.64718 20.1709 5.6027 19.537 6.55354C19.1488 7.13585 18.6535 7.67582 18.1455 8.1698C19.0033 8.22348 19.8459 8.44872 20.6219 8.83672C21.3693 9.21039 21.7283 10.0766 21.4644 10.8694L21.3218 11.2978C20.7764 12.9362 18.964 13.7771 17.3608 13.1356L16.8299 12.9232C16.7042 12.8729 16.59 12.7975 16.4943 12.7018L11.9952 8.20164C11.8993 8.10574 11.8239 7.99134 11.7736 7.86541L11.749 7.80378C11.0084 5.94872 11.9792 3.85248 13.873 3.21749C14.6379 2.96101 15.475 3.30672 15.836 4.02821L15.8605 4.07722C16.3061 4.96787 16.5382 5.94607 16.5432 6.93475C17.0843 6.42486 17.546 5.93456 17.8729 5.44414C18.239 4.89498 18.33 4.3505 18.33 3.93634C18.33 3.72825 18.3067 3.55725 18.2851 3.44376C18.2744 3.38742 18.2643 3.34655 18.2583 3.32388C18.2556 3.31408 18.2538 3.30779 18.2531 3.30524C18.0852 2.78406 18.3681 2.22371 18.8887 2.05015Z" fill="black"/>
</svg>
