<svg width="24" height="24" viewBox="0 0 24 24" fill="none" xmlns="http://www.w3.org/2000/svg">
<path d="M17.5001 8.5C17.5001 11.5376 15.0377 14 12.0001 14C8.96252 14 6.50008 11.5376 6.50008 8.5C6.50008 5.46243 8.96252 3 12.0001 3C15.0377 3 17.5001 5.46243 17.5001 8.5Z" stroke="black" stroke-width="2"/>
<path d="M14 15.5C14 18.5376 11.5376 21 8.5 21C5.46243 21 3 18.5376 3 15.5C3 12.4624 5.46243 9.99999 8.5 9.99999C11.5376 9.99999 14 12.4624 14 15.5Z" stroke="black" stroke-width="2"/>
<path d="M21 15.5C21 18.5376 18.5376 21 15.5 21C12.4624 21 10 18.5376 10 15.5C10 12.4624 12.4624 9.99999 15.5 9.99999C18.5376 9.99999 21 12.4624 21 15.5Z" stroke="black" stroke-width="2"/>
</svg>
