<svg width="24" height="24" viewBox="0 0 24 24" fill="none" xmlns="http://www.w3.org/2000/svg">
<path d="M18 6C18 6.55228 18.4477 7 19 7C19.5523 7 20 6.55228 20 6H18ZM19 2H20C20 1.44772 19.5523 1 19 1V2ZM15 1C14.4477 1 14 1.44772 14 2C14 2.55228 14.4477 3 15 3V1ZM13.5361 7.46507L12.8289 8.17205L13.5361 7.46507ZM19.7083 2.70711C20.0988 2.31658 20.0988 1.68342 19.7083 1.29289C19.3178 0.902369 18.6846 0.902369 18.2941 1.29289L19.7083 2.70711ZM9 22C9 22.5523 9.44772 23 10 23C10.5523 23 11 22.5523 11 22H9ZM7.5 18.5C6.94772 18.5 6.5 18.9477 6.5 19.5C6.5 20.0523 6.94772 20.5 7.5 20.5V18.5ZM12.5 20.5C13.0523 20.5 13.5 20.0523 13.5 19.5C13.5 18.9477 13.0523 18.5 12.5 18.5V20.5ZM20 6V2H18V6H20ZM15 3H19V1H15V3ZM10 7C11.1051 7 12.1039 7.44682 12.8289 8.17205L14.2434 6.75808C13.1586 5.67296 11.6569 5 10 5V7ZM12.8289 8.17205C13.5536 8.89697 14 9.8954 14 11H16C16 9.34379 15.3276 7.84271 14.2434 6.75808L12.8289 8.17205ZM14.2432 8.17217L19.7083 2.70711L18.2941 1.29289L12.829 6.75796L14.2432 8.17217ZM14 11C14 13.2091 12.2091 15 10 15V17C13.3137 17 16 14.3137 16 11H14ZM10 15C7.79086 15 6 13.2091 6 11H4C4 14.3137 6.68629 17 10 17V15ZM6 11C6 8.79086 7.79086 7 10 7V5C6.68629 5 4 7.68629 4 11H6ZM10 7C12.2091 7 14 8.79086 14 11H16C16 7.68629 13.3137 5 10 5V7ZM11 22V16H9V22H11ZM7.5 20.5H12.5V18.5H7.5V20.5Z" fill="black"/>
</svg>
