<svg width="24" height="24" viewBox="0 0 24 24" fill="none" xmlns="http://www.w3.org/2000/svg">
<path d="M14 9C14 9.55228 14.4477 10 15 10C15.5523 10 16 9.55228 16 9H14ZM15 5H16C16 4.44772 15.5523 4 15 4V5ZM11 4C10.4477 4 10 4.44772 10 5C10 5.55228 10.4477 6 11 6V4ZM21 9C21 9.55228 21.4477 10 22 10C22.5523 10 23 9.55228 23 9H21ZM22 5H23C23 4.44772 22.5523 4 22 4V5ZM18 4C17.4477 4 17 4.44772 17 5C17 5.55228 17.4477 6 18 6V4ZM8.97649 9.61091C8.58596 10.0014 8.58596 10.6346 8.97649 11.0251C9.36701 11.4157 10.0002 11.4157 10.3907 11.0251L8.97649 9.61091ZM15.7087 5.70711C16.0992 5.31658 16.0992 4.68342 15.7087 4.29289C15.3182 3.90237 14.685 3.90237 14.2945 4.29289L15.7087 5.70711ZM16.6836 10.318L15.9765 9.61091C15.789 9.79845 15.6836 10.0528 15.6836 10.318C15.6836 10.5832 15.789 10.8376 15.9765 11.0251L16.6836 10.318ZM22.7087 5.70711C23.0992 5.31658 23.0992 4.68342 22.7087 4.29289C22.3182 3.90237 21.685 3.90237 21.2945 4.29289L22.7087 5.70711ZM13.1128 16.9785C12.5639 16.9177 12.0696 17.3134 12.0088 17.8623C11.9479 18.4113 12.3436 18.9056 12.8926 18.9664L13.1128 16.9785ZM16 9V5H14V9H16ZM11 6H15V4H11V6ZM23 9V5H21V9H23ZM18 6H22V4H18V6ZM10.3907 11.0251L15.7087 5.70711L14.2945 4.29289L8.97649 9.61091L10.3907 11.0251ZM17.3907 11.0251L22.7087 5.70711L21.2945 4.29289L15.9765 9.61091L17.3907 11.0251ZM10 13.5C10 15.433 8.433 17 6.5 17V19C9.53757 19 12 16.5376 12 13.5H10ZM6.5 17C4.567 17 3 15.433 3 13.5H1C1 16.5376 3.46243 19 6.5 19V17ZM3 13.5C3 11.567 4.567 10 6.5 10V8C3.46243 8 1 10.4624 1 13.5H3ZM6.5 10C8.433 10 10 11.567 10 13.5H12C12 10.4624 9.53757 8 6.5 8V10ZM15.9765 11.0251C17.3432 12.3918 17.3429 14.6079 15.9759 15.9749L17.3901 17.3891C19.5379 15.2413 19.5387 11.759 17.3907 9.61091L15.9765 11.0251ZM15.9759 15.9749C15.1941 16.7567 14.1355 17.0918 13.1128 16.9785L12.8926 18.9664C14.4929 19.1437 16.1607 18.6185 17.3901 17.3891L15.9759 15.9749Z" fill="black"/>
</svg>
