<svg width="24" height="24" viewBox="0 0 24 24" fill="none" xmlns="http://www.w3.org/2000/svg">
<path d="M12 2L12.7071 1.29289C12.3166 0.902369 11.6834 0.902369 11.2929 1.29289L12 2ZM14.2929 5.70711C14.6834 6.09763 15.3166 6.09763 15.7071 5.70711C16.0976 5.31658 16.0976 4.68342 15.7071 4.29289L14.2929 5.70711ZM8.29289 4.29289C7.90237 4.68342 7.90237 5.31658 8.29289 5.70711C8.68342 6.09763 9.31658 6.09763 9.70711 5.70711L8.29289 4.29289ZM13.5 8C14.0523 8 14.5 7.55228 14.5 7C14.5 6.44772 14.0523 6 13.5 6V8ZM10.5 6C9.94772 6 9.5 6.44772 9.5 7C9.5 7.55228 9.94772 8 10.5 8V6ZM12 11C14.7614 11 17 13.2386 17 16H19C19 12.134 15.866 9 12 9V11ZM17 16C17 18.7614 14.7614 21 12 21V23C15.866 23 19 19.866 19 16H17ZM12 21C9.23858 21 7 18.7614 7 16H5C5 19.866 8.13401 23 12 23V21ZM7 16C7 13.2386 9.23858 11 12 11V9C8.13401 9 5 12.134 5 16H7ZM11.2929 2.70711L14.2929 5.70711L15.7071 4.29289L12.7071 1.29289L11.2929 2.70711ZM11.2929 1.29289L8.29289 4.29289L9.70711 5.70711L12.7071 2.70711L11.2929 1.29289ZM11 2V10H13V2H11ZM13.5 6H10.5V8H13.5V6Z" fill="black"/>
</svg>
