<svg width="24" height="24" viewBox="0 0 24 24" fill="none" xmlns="http://www.w3.org/2000/svg">
<path d="M22 12L22.7071 12.7071C23.0976 12.3166 23.0976 11.6834 22.7071 11.2929L22 12ZM18.2929 14.2929C17.9024 14.6834 17.9024 15.3166 18.2929 15.7071C18.6834 16.0976 19.3166 16.0976 19.7071 15.7071L18.2929 14.2929ZM19.7071 8.29289C19.3166 7.90237 18.6834 7.90237 18.2929 8.29289C17.9024 8.68342 17.9024 9.31658 18.2929 9.70711L19.7071 8.29289ZM16 13.5C16 14.0523 16.4477 14.5 17 14.5C17.5523 14.5 18 14.0523 18 13.5H16ZM18 10.5C18 9.94772 17.5523 9.5 17 9.5C16.4477 9.5 16 9.94772 16 10.5H18ZM13 12C13 14.7614 10.7614 17 8 17V19C11.866 19 15 15.866 15 12H13ZM8 17C5.23858 17 3 14.7614 3 12H1C1 15.866 4.13401 19 8 19V17ZM3 12C3 9.23858 5.23858 7 8 7V5C4.13401 5 1 8.13401 1 12H3ZM8 7C10.7614 7 13 9.23858 13 12H15C15 8.13401 11.866 5 8 5V7ZM21.2929 11.2929L18.2929 14.2929L19.7071 15.7071L22.7071 12.7071L21.2929 11.2929ZM22.7071 11.2929L19.7071 8.29289L18.2929 9.70711L21.2929 12.7071L22.7071 11.2929ZM22 11H14V13H22V11ZM18 13.5V10.5H16V13.5H18Z" fill="black"/>
</svg>
