<svg width="24" height="24" viewBox="0 0 24 24" fill="none" xmlns="http://www.w3.org/2000/svg">
<path d="M21.7105 2.70711C22.1011 2.31658 22.1011 1.68342 21.7105 1.29289C21.32 0.902369 20.6869 0.902369 20.2963 1.29289L21.7105 2.70711ZM14.9274 6.6618C14.5369 7.05232 14.5369 7.68549 14.9274 8.07601C15.3179 8.46654 15.9511 8.46654 16.3416 8.07601L14.9274 6.6618ZM7.6618 8.07601C8.05232 8.46654 8.68549 8.46654 9.07601 8.07601C9.46654 7.68549 9.46654 7.05232 9.07601 6.6618L7.6618 8.07601ZM3.70711 1.29289C3.31658 0.902369 2.68342 0.902369 2.29289 1.29289C1.90237 1.68342 1.90237 2.31658 2.29289 2.70711L3.70711 1.29289ZM14.0017 21C14.554 21 15.0017 20.5523 15.0017 20C15.0017 19.4477 14.554 19 14.0017 19V21ZM10.0017 19C9.44943 19 9.00172 19.4477 9.00172 20C9.00172 20.5523 9.44943 21 10.0017 21V19ZM11.0017 22C11.0017 22.5523 11.4494 23 12.0017 23C12.554 23 13.0017 22.5523 13.0017 22H11.0017ZM17.0017 1C16.4494 1 16.0017 1.44772 16.0017 2C16.0017 2.55228 16.4494 3 17.0017 3V1ZM21.0017 2H22.0017C22.0017 1.44772 21.554 1 21.0017 1V2ZM20.0017 6C20.0017 6.55228 20.4494 7 21.0017 7C21.554 7 22.0017 6.55228 22.0017 6H20.0017ZM2.00172 6C2.00172 6.55228 2.44943 7 3.00172 7C3.554 7 4.00172 6.55228 4.00172 6H2.00172ZM3.00172 2V1C2.44943 1 2.00172 1.44772 2.00172 2H3.00172ZM7.00172 3C7.554 3 8.00172 2.55228 8.00172 2C8.00172 1.44772 7.554 1 7.00172 1V3ZM4.79461 5.79289C4.40409 6.18342 4.40409 6.81658 4.79461 7.20711C5.18514 7.59763 5.8183 7.59763 6.20883 7.20711L4.79461 5.79289ZM8.20883 5.20711C8.59935 4.81658 8.59935 4.18342 8.20883 3.79289C7.8183 3.40237 7.18514 3.40237 6.79461 3.79289L8.20883 5.20711ZM16.5017 11.5C16.5017 13.9853 14.487 16 12.0017 16V18C15.5916 18 18.5017 15.0899 18.5017 11.5H16.5017ZM12.0017 16C9.51644 16 7.50172 13.9853 7.50172 11.5H5.50172C5.50172 15.0899 8.41187 18 12.0017 18V16ZM7.50172 11.5C7.50172 9.01472 9.51644 7 12.0017 7V5C8.41187 5 5.50172 7.91015 5.50172 11.5H7.50172ZM12.0017 7C14.487 7 16.5017 9.01472 16.5017 11.5H18.5017C18.5017 7.91015 15.5916 5 12.0017 5V7ZM20.2963 1.29289L14.9274 6.6618L16.3416 8.07601L21.7105 2.70711L20.2963 1.29289ZM9.07601 6.6618L3.70711 1.29289L2.29289 2.70711L7.6618 8.07601L9.07601 6.6618ZM14.0017 19H10.0017V21H14.0017V19ZM13.0017 22V17H11.0017V22H13.0017ZM17.0017 3H21.0017V1H17.0017V3ZM20.0017 2V6H22.0017V2H20.0017ZM4.00172 6V2H2.00172V6H4.00172ZM3.00172 3H7.00172V1H3.00172V3ZM6.20883 7.20711L8.20883 5.20711L6.79461 3.79289L4.79461 5.79289L6.20883 7.20711Z" fill="black"/>
</svg>
