<svg width="24" height="24" viewBox="0 0 24 24" fill="none" xmlns="http://www.w3.org/2000/svg">
<path d="M10 20C10.5523 20 11 19.5523 11 19C11 18.4477 10.5523 18 10 18V20ZM6 18C5.44772 18 5 18.4477 5 19C5 19.5523 5.44772 20 6 20V18ZM7 21C7 21.5523 7.44772 22 8 22C8.55228 22 9 21.5523 9 21H7ZM21 7C21 7.55228 21.4477 8 22 8C22.5523 8 23 7.55228 23 7H21ZM22 3H23C23 2.44772 22.5523 2 22 2V3ZM18 2C17.4477 2 17 2.44772 17 3C17 3.55228 17.4477 4 18 4V2ZM16.6836 8.31802L15.9765 7.61091C15.789 7.79845 15.6836 8.0528 15.6836 8.31802C15.6836 8.58324 15.789 8.83759 15.9765 9.02513L16.6836 8.31802ZM22.7087 3.70711C23.0992 3.31658 23.0992 2.68342 22.7087 2.29289C22.3182 1.90237 21.685 1.90237 21.2945 2.29289L22.7087 3.70711ZM13.1128 14.9786C12.5639 14.9178 12.0696 15.3135 12.0088 15.8624C11.9479 16.4113 12.3436 16.9056 12.8926 16.9664L13.1128 14.9786ZM13 9C13 11.7614 10.7614 14 8 14V16C11.866 16 15 12.866 15 9H13ZM8 14C5.23858 14 3 11.7614 3 9H1C1 12.866 4.13401 16 8 16V14ZM3 9C3 6.23858 5.23858 4 8 4V2C4.13401 2 1 5.13401 1 9H3ZM8 4C10.7614 4 13 6.23858 13 9H15C15 5.13401 11.866 2 8 2V4ZM10 18H6V20H10V18ZM9 21V15H7V21H9ZM23 7V3H21V7H23ZM18 4H22V2H18V4ZM17.3907 9.02513L22.7087 3.70711L21.2945 2.29289L15.9765 7.61091L17.3907 9.02513ZM15.9765 9.02513C17.3432 10.3918 17.3429 12.6079 15.9759 13.9749L17.3901 15.3891C19.5379 13.2414 19.5387 9.75896 17.3907 7.61091L15.9765 9.02513ZM15.9759 13.9749C15.1941 14.7568 14.1355 15.0919 13.1128 14.9786L12.8926 16.9664C14.4929 17.1437 16.1607 16.6186 17.3901 15.3891L15.9759 13.9749Z" fill="black"/>
</svg>
