<svg width="24" height="24" viewBox="0 0 24 24" fill="none" xmlns="http://www.w3.org/2000/svg">
<path d="M10 20C10.5523 20 11 19.5523 11 19C11 18.4477 10.5523 18 10 18V20ZM6 18C5.44772 18 5 18.4477 5 19C5 19.5523 5.44772 20 6 20V18ZM7 21C7 21.5523 7.44772 22 8 22C8.55228 22 9 21.5523 9 21H7ZM15.1655 13.9308C14.6208 13.8394 14.1052 14.2069 14.0138 14.7516C13.9224 15.2963 14.2899 15.8119 14.8345 15.9033L15.1655 13.9308ZM14.8345 2.09674C14.2899 2.18812 13.9224 2.70374 14.0138 3.24841C14.1052 3.79309 14.6208 4.16055 15.1655 4.06918L14.8345 2.09674ZM15 21C15 21.5523 15.4477 22 16 22C16.5523 22 17 21.5523 17 21H15ZM13.5 18C12.9477 18 12.5 18.4477 12.5 19C12.5 19.5523 12.9477 20 13.5 20V18ZM18.5 20C19.0523 20 19.5 19.5523 19.5 19C19.5 18.4477 19.0523 18 18.5 18V20ZM13 9C13 11.7614 10.7614 14 8 14V16C11.866 16 15 12.866 15 9H13ZM8 14C5.23858 14 3 11.7614 3 9H1C1 12.866 4.13401 16 8 16V14ZM3 9C3 6.23858 5.23858 4 8 4V2C4.13401 2 1 5.13401 1 9H3ZM8 4C10.7614 4 13 6.23858 13 9H15C15 5.13401 11.866 2 8 2V4ZM10 18H6V20H10V18ZM9 21V15H7V21H9ZM21 9C21 11.7614 18.7614 14 16 14V16C19.866 16 23 12.866 23 9H21ZM16 4C18.7614 4 21 6.23858 21 9H23C23 5.13401 19.866 2 16 2V4ZM16 14C15.715 14 15.4362 13.9762 15.1655 13.9308L14.8345 15.9033C15.2142 15.967 15.6036 16 16 16V14ZM15.1655 4.06918C15.4362 4.02375 15.715 4 16 4V2C15.6036 2 15.2142 2.03305 14.8345 2.09674L15.1655 4.06918ZM17 21V15H15V21H17ZM13.5 20H18.5V18H13.5V20Z" fill="black"/>
</svg>
