<svg width="24" height="24" viewBox="0 0 24 24" fill="none" xmlns="http://www.w3.org/2000/svg">
<path d="M9 16L9.67218 16.3361C10.5454 16.7727 11.5083 17 12.4845 17H12.5638C13.9093 17 15 15.9093 15 14.5638C15 13.3729 14.139 12.3565 12.9643 12.1607L11.0357 11.8393C9.86099 11.6435 9 10.6271 9 9.43622C9 8.09073 10.0907 7 11.4362 7H11.5155C12.4917 7 13.4546 7.2273 14.3278 7.66391L15 8M6 20H18C19.1046 20 20 19.1046 20 18V6C20 4.89543 19.1046 4 18 4H6C4.89543 4 4 4.89543 4 6V18C4 19.1046 4.89543 20 6 20Z" stroke="black" stroke-width="2" stroke-linecap="round" stroke-linejoin="round"/>
</svg>
