<svg width="24" height="24" viewBox="0 0 24 24" fill="none" xmlns="http://www.w3.org/2000/svg">
<path opacity="0.3" d="M4 13.9377V11H20V13.9377C20 16.8086 18.4617 19.4593 15.9691 20.8837L12.4961 22.8682C12.1887 23.0439 11.8113 23.0439 11.5039 22.8682L8.03089 20.8837C5.53829 19.4593 4 16.8086 4 13.9377Z" fill="black"/>
<path d="M13 4C13 3.44772 13.4477 3 14 3C14.5523 3 15 2.55228 15 2C15 1.44772 14.5523 1 14 1C12.3431 1 11 2.34315 11 4H6C3.79086 4 2 5.79086 2 8V9C2 10.1046 2.89543 11 4 11H20C21.1046 11 22 10.1046 22 9V8C22 5.79086 20.2091 4 18 4H13Z" fill="black"/>
</svg>
