<svg width="24" height="24" viewBox="0 0 24 24" fill="none" xmlns="http://www.w3.org/2000/svg">
<path opacity="0.3" fill-rule="evenodd" clip-rule="evenodd" d="M2.51493 7.81725L2.95923 6.04004H21.0408L21.4851 7.81725C21.8271 9.18523 22 10.59 22 12.0001C22 13.4102 21.8271 14.8149 21.4851 16.1829L21.0408 17.9601H2.95923L2.51493 16.1829C2.17293 14.8149 2 13.4102 2 12.0001C2 10.59 2.17293 9.18523 2.51493 7.81725ZM8 8.00007C7.44771 8.00007 7 8.44778 7 9.00007V10.0001C7 12.2092 8.79086 14.0001 11 14.0001V15.0001C11 15.5524 11.4477 16.0001 12 16.0001C12.5523 16.0001 13 15.5524 13 15.0001V14.0001C15.2091 14.0001 17 12.2092 17 10.0001V9.00007C17 8.44778 16.5523 8.00007 16 8.00007H15C13.8053 8.00007 12.7329 8.52382 12 9.35425C11.2671 8.52382 10.1947 8.00007 9 8.00007H8Z" fill="black"/>
<path d="M8.00001 8C7.44772 8 7.00001 8.44772 7.00001 9V10C7.00001 12.2091 8.79087 14 11 14V15C11 15.5523 11.4477 16 12 16C12.5523 16 13 15.5523 13 15V14C15.2091 14 17 12.2091 17 10V9C17 8.44772 16.5523 8 16 8H15C13.8053 8 12.733 8.52376 12 9.35418C11.2671 8.52376 10.1947 8 9.00001 8H8.00001Z" fill="black"/>
<path d="M2.05132 20.6838L2.95924 17.96H21.0408L21.9487 20.6838C22.0503 20.9887 21.9992 21.3239 21.8113 21.5847C21.6233 21.8455 21.3215 22 21 22H3.00001C2.67856 22 2.37672 21.8455 2.18877 21.5847C2.00081 21.3239 1.94967 20.9887 2.05132 20.6838Z" fill="black"/>
<path d="M2.18877 2.41529C2.37672 2.15452 2.67856 2 3.00001 2H21C21.3215 2 21.6233 2.15452 21.8113 2.41529C21.9992 2.67606 22.0503 3.01128 21.9487 3.31623L21.0408 6.03997L2.95924 6.03997L2.05132 3.31623C1.94967 3.01128 2.00081 2.67606 2.18877 2.41529Z" fill="black"/>
</svg>
