<svg width="24" height="24" viewBox="0 0 24 24" fill="none" xmlns="http://www.w3.org/2000/svg">
<g opacity="0.3">
<path d="M3 7C3 5.89543 3.89543 5 5 5H8.5C9.60457 5 10.5 5.89543 10.5 7V8V10V12V14V20C10.5 21.1046 9.60457 22 8.5 22H3C1.89543 22 1 21.1046 1 20V16.7733C1 15.7939 1.20554 14.8253 1.60332 13.9303L2.56906 11.7574C2.85319 11.1181 3 10.4263 3 9.72671V7Z" fill="black"/>
<path d="M13.5 20V14V12V10V8V7C13.5 5.89543 14.3954 5 15.5 5H19C20.1046 5 21 5.89543 21 7V9.72671C21 10.4263 21.1468 11.1181 21.4309 11.7574L22.3967 13.9303C22.7945 14.8253 23 15.7939 23 16.7733V20C23 21.1046 22.1046 22 21 22H15.5C14.3954 22 13.5 21.1046 13.5 20Z" fill="black"/>
</g>
<path d="M5.25 2C4.69772 2 4.25 2.44772 4.25 3C4.25 3.55228 4.69772 4 5.25 4H8.25C8.80228 4 9.25 3.55228 9.25 3C9.25 2.44772 8.80228 2 8.25 2H5.25Z" fill="black"/>
<path d="M15.75 2C15.1977 2 14.75 2.44772 14.75 3C14.75 3.55228 15.1977 4 15.75 4H18.75C19.3023 4 19.75 3.55228 19.75 3C19.75 2.44772 19.3023 2 18.75 2H15.75Z" fill="black"/>
<path d="M10.5 14H13.5V12H10.5V14Z" fill="black"/>
<path d="M13.5 8H10.5V10H13.5V8Z" fill="black"/>
</svg>
