<svg width="24" height="24" viewBox="0 0 24 24" fill="none" xmlns="http://www.w3.org/2000/svg">
<path opacity="0.3" d="M5.39466 2.55276C5.14767 2.05878 4.547 1.85856 4.05302 2.10555C3.55904 2.35254 3.35882 2.95321 3.60581 3.44719L4.5974 5.43037C4.20876 5.69431 3.89837 6.06485 3.70826 6.49997H3.28101L2.97038 5.25744C2.83643 4.72164 2.2935 4.39588 1.7577 4.52983C1.22191 4.66378 0.896145 5.20672 1.03009 5.74251L1.53009 7.74251C1.64139 8.18768 2.04137 8.49997 2.50024 8.49997H3.50024V9.38193L2.05302 10.1055C1.79192 10.2361 1.6009 10.4742 1.53009 10.7574L1.03009 12.7574C0.896145 13.2932 1.22191 13.8362 1.7577 13.9701C2.2935 14.1041 2.83643 13.7783 2.97038 13.2425L3.35883 11.6887L4.22194 11.2571C4.67516 11.7158 5.30451 12 6.00024 12C6.69596 12 7.32531 11.7158 7.77853 11.2571L8.64164 11.6887L9.03009 13.2425C9.16404 13.7783 9.70698 14.1041 10.2428 13.9701C10.7786 13.8362 11.1043 13.2932 10.9704 12.7574L10.4704 10.7574C10.3996 10.4742 10.2086 10.2361 9.94745 10.1055L8.50024 9.38193V8.49997H9.50024C9.9591 8.49997 10.3591 8.18768 10.4704 7.74251L10.9704 5.74251C11.1043 5.20672 10.7786 4.66378 10.2428 4.52983C9.70698 4.39588 9.16404 4.72164 9.03009 5.25744L8.71946 6.49997H8.29221C8.1021 6.06485 7.79171 5.69431 7.40307 5.43037L8.39466 3.44719C8.64165 2.95321 8.44143 2.35254 7.94745 2.10555C7.45347 1.85856 6.8528 2.05878 6.60581 2.55276L6.00024 3.76391L5.39466 2.55276Z" fill="black"/>
<path d="M19.07 9.58524C19.0549 9.03317 18.5951 8.59785 18.043 8.61293C17.491 8.62801 17.0556 9.08779 17.0707 9.63987L17.1313 11.8565C16.6683 11.9316 16.2311 12.1359 15.8754 12.4492L15.4896 12.2694L15.7332 11.012C15.8383 10.4698 15.4839 9.94507 14.9417 9.84004C14.3995 9.735 13.8748 10.0894 13.7697 10.6316L13.3777 12.6555C13.2904 13.106 13.5209 13.5581 13.9368 13.752L14.8412 14.1738L14.4681 14.974L12.8531 15.0181C12.5613 15.0261 12.2876 15.1612 12.1037 15.388L10.8053 16.9893C10.4575 17.4183 10.5233 18.048 10.9523 18.3958C11.3812 18.7437 12.011 18.6779 12.3588 18.2489L13.3675 17.0048L14.3297 16.9786C14.5466 17.5857 14.9969 18.1093 15.6274 18.4033C16.259 18.6978 16.9507 18.7057 17.556 18.4805L18.1567 19.2375L17.8521 20.8099C17.747 21.3521 18.1014 21.8767 18.6436 21.9818C19.1858 22.0868 19.7105 21.7324 19.8156 21.1902L20.2077 19.1663C20.2632 18.8797 20.1907 18.5832 20.0092 18.3545L19.001 17.0841L19.372 16.2885L20.2767 16.7104C20.6926 16.9043 21.1871 16.7903 21.4761 16.4339L22.7745 14.8326C23.1223 14.4036 23.0566 13.7739 22.6276 13.426C22.1986 13.0782 21.5688 13.144 21.221 13.573L20.4144 14.5678L20.0291 14.3881C20.0408 13.9132 19.9161 13.4459 19.6754 13.0422L21.4129 11.6638C21.8456 11.3206 21.9181 10.6915 21.5748 10.2589C21.2316 9.82621 20.6026 9.75372 20.1699 10.097L19.107 10.9402L19.07 9.58524Z" fill="black"/>
</svg>
