<svg width="24" height="24" viewBox="0 0 24 24" fill="none" xmlns="http://www.w3.org/2000/svg">
<path opacity="0.3" fill-rule="evenodd" clip-rule="evenodd" d="M16.5 6.5V21C16.5 21.5523 16.0523 22 15.5 22H8.5C7.94772 22 7.5 21.5523 7.5 21V6.5C7.5 4.01472 9.51472 2 12 2C14.4853 2 16.5 4.01472 16.5 6.5ZM11 9C10.4477 9 10 9.44772 10 10C10 10.5523 10.4477 11 11 11H11.009C11.5613 11 12.009 10.5523 12.009 10C12.009 9.44772 11.5613 9 11.009 9H11ZM13 16C12.4477 16 12 16.4477 12 17C12 17.5523 12.4477 18 13 18H13.009C13.5613 18 14.009 17.5523 14.009 17C14.009 16.4477 13.5613 16 13.009 16H13Z" fill="black"/>
<path d="M17 20H18C20.2091 20 22 18.2091 22 16V12.5C22 11.1193 20.8807 10 19.5 10C18.1193 10 17 11.1193 17 12.5V20Z" fill="black"/>
<path d="M6 15H7V7.5C7 6.11929 5.88071 5 4.5 5C3.11929 5 2 6.11929 2 7.5V11C2 13.2091 3.79086 15 6 15Z" fill="black"/>
<path d="M11 9C10.4477 9 10 9.44772 10 10C10 10.5523 10.4477 11 11 11H11.009C11.5613 11 12.009 10.5523 12.009 10C12.009 9.44772 11.5613 9 11.009 9H11Z" fill="black"/>
<path d="M13 16C12.4477 16 12 16.4477 12 17C12 17.5523 12.4477 18 13 18H13.009C13.5613 18 14.009 17.5523 14.009 17C14.009 16.4477 13.5613 16 13.009 16H13Z" fill="black"/>
</svg>
