<svg width="24" height="24" viewBox="0 0 24 24" fill="none" xmlns="http://www.w3.org/2000/svg">
<path opacity="0.3" d="M8.9139 15.0861L7.32562 17.6523C7.30271 17.6893 7.28225 17.7278 7.26436 17.7674C7.0942 18.1447 7 18.5627 7 19C7 20.6569 8.34315 22 10 22C10.7684 22 11.4692 21.7111 12 21.2361C12.5308 21.7111 13.2316 22 14 22C15.6569 22 17 20.6569 17 19C17 18.5627 16.9058 18.1447 16.7356 17.7674C16.7178 17.7278 16.6973 17.6893 16.6744 17.6523L15.0861 15.0861L17.6523 16.6744C17.6893 16.6973 17.7278 16.7178 17.7674 16.7356C18.1447 16.9058 18.5627 17 19 17C20.6569 17 22 15.6569 22 14C22 13.2316 21.7112 12.5308 21.2361 12C21.7112 11.4692 22 10.7684 22 10C22 8.34314 20.6569 7 19 7C18.5627 7 18.1447 7.09419 17.7674 7.26436C17.7278 7.28225 17.6893 7.30271 17.6523 7.32561L15.0861 8.91391L12.8503 12.5263C12.7688 12.6579 12.6579 12.7688 12.5263 12.8503L8.9139 15.0861Z" fill="black"/>
<path d="M10 2C10.7684 2 11.4692 2.28886 12 2.7639C12.5308 2.28886 13.2316 2 14 2C15.6569 2 17 3.34315 17 5C17 5.4373 16.9058 5.85529 16.7356 6.23256C16.7178 6.27223 16.6973 6.3107 16.6744 6.3477L12.8503 12.5263C12.7688 12.6579 12.6579 12.7689 12.5263 12.8503L6.3477 16.6744C6.31069 16.6973 6.27223 16.7178 6.23256 16.7357C5.85529 16.9058 5.4373 17 5 17C3.34315 17 2 15.6569 2 14C2 13.2317 2.28886 12.5308 2.7639 12C2.28886 11.4693 2 10.7684 2 10C2 8.34316 3.34315 7.00001 5 7.00001C5.4373 7.00001 5.85529 7.09421 6.23256 7.26437C6.27223 7.28226 6.3107 7.30272 6.3477 7.32563L8.91391 8.91391L7.32562 6.3477C7.30272 6.31069 7.28225 6.27223 7.26436 6.23256C7.0942 5.85529 7 5.4373 7 5C7 3.34315 8.34315 2 10 2Z" fill="black"/>
</svg>
