<svg width="24" height="24" viewBox="0 0 24 24" fill="none" xmlns="http://www.w3.org/2000/svg">
<path opacity="0.3" d="M18.0023 22C20.2114 22 22.0023 20.2091 22.0023 18C22.0023 15.7909 20.2114 14 18.0023 14C17.3819 14 16.7938 14.1416 16.2693 14.394C15.391 12.9585 13.809 12 12.0016 12C10.194 12 8.61186 12.9587 7.73363 14.3945C7.20912 14.1418 6.62085 14 6 14C3.79086 14 2 15.7909 2 18C2 20.2091 3.79086 22 6 22H18.0023Z" fill="black"/>
<path d="M11.3794 2.20623C11.7692 1.90761 12.318 1.93609 12.6748 2.27345C13.4784 3.0335 14.303 3.56782 15.1478 4.09862L15.3132 4.20232C16.0891 4.68863 16.918 5.20808 17.6394 5.89515C19.2069 7.38799 20 9.35693 20 11.3333C20 11.9814 19.9147 12.6294 19.7443 13.2607C19.74 13.2765 19.7354 13.2921 19.7304 13.3075C19.1912 13.1086 18.6083 13 18 13C17.5265 13 17.0684 13.0658 16.6343 13.1888C15.5339 11.8522 13.8665 11 12 11C10.1335 11 8.46614 11.8522 7.3657 13.1888C6.9316 13.0658 6.47349 13 6 13C5.39171 13 4.8088 13.1086 4.26959 13.3075C4.26461 13.2921 4.25998 13.2765 4.25571 13.2607C4.08526 12.6294 4 11.9814 4 11.3333C4 9.35693 4.79312 7.38799 6.3606 5.89515C6.59909 5.66801 6.93414 5.57287 7.25641 5.64077C7.57543 5.70798 7.84144 5.92642 7.96957 6.22576C7.97974 6.2467 8.00709 6.3018 8.03611 6.35271C8.09433 6.45481 8.19131 6.60814 8.33474 6.78596C8.39415 6.85961 8.46138 6.9373 8.53703 7.01723C8.82908 5.41944 9.58913 3.57802 11.3794 2.20623Z" fill="black"/>
</svg>
