<svg width="24" height="24" viewBox="0 0 24 24" fill="none" xmlns="http://www.w3.org/2000/svg">
<path opacity="0.3" d="M11 13V17.101C9.72948 15.8044 7.95869 15 6 15H4.75C3.7835 15 3 15.7835 3 16.75C3 20.2017 5.79822 23 9.25 23H14.75C18.2018 23 21 20.2017 21 16.75C21 15.7835 20.2165 15 19.25 15H18C16.0413 15 14.2705 15.8044 13 17.101V13H11Z" fill="black"/>
<path d="M7.5547 1.16795C7.24784 0.96338 6.8533 0.944308 6.52814 1.11833C6.20298 1.29235 6 1.63121 6 2V8C6 10.7614 8.23858 13 11 13H13C15.7614 13 18 10.7614 18 8V2C18 1.63121 17.797 1.29235 17.4719 1.11833C17.1467 0.944308 16.7522 0.96338 16.4453 1.16795L14.1274 2.71321L12.7071 1.29289C12.3166 0.90237 11.6834 0.90237 11.2929 1.29289L9.87258 2.71321L7.5547 1.16795Z" fill="black"/>
</svg>
