<svg width="24" height="24" viewBox="0 0 24 24" fill="none" xmlns="http://www.w3.org/2000/svg">
<path opacity="0.3" d="M11 12.9067V17.1009C9.72948 15.8043 7.95869 14.9998 6 14.9998H4.75C3.7835 14.9998 3 15.7833 3 16.7498C3 20.2016 5.79822 22.9998 9.25 22.9998H14.75C18.2018 22.9998 21 20.2016 21 16.7498C21 15.7833 20.2165 14.9998 19.25 14.9998H18C16.0413 14.9998 14.2705 15.8043 13 17.1009V12.9067C12.648 12.8305 12.3125 12.7095 12 12.5498C11.6875 12.7095 11.352 12.8305 11 12.9067Z" fill="black"/>
<path fill-rule="evenodd" clip-rule="evenodd" d="M6 5.125C6 2.84683 7.84683 1 10.125 1C10.7992 1 11.4371 1.16239 12 1.45004C12.5629 1.16239 13.2008 1 13.875 1C16.1532 1 18 2.84683 18 5.125C18 5.79923 17.8376 6.43707 17.55 7C17.8376 7.56294 18 8.20077 18 8.875C18 11.1532 16.1532 13 13.875 13C13.2008 13 12.5629 12.8376 12 12.55C11.4371 12.8376 10.7992 13 10.125 13C7.84683 13 6 11.1532 6 8.875C6 8.20077 6.16239 7.56294 6.45004 7C6.16239 6.43706 6 5.79923 6 5.125ZM12.0012 8.50001C12.8296 8.50001 13.5012 7.82843 13.5012 7.00001C13.5012 6.17158 12.8296 5.50001 12.0012 5.50001C11.1728 5.50001 10.5012 6.17158 10.5012 7.00001C10.5012 7.82843 11.1728 8.50001 12.0012 8.50001Z" fill="black"/>
</svg>
