<svg width="24" height="24" viewBox="0 0 24 24" fill="none" xmlns="http://www.w3.org/2000/svg">
<path opacity="0.3" d="M13 2C11.7465 2 10.6289 2.57638 9.89595 3.47726C9.33174 3.17305 8.6858 3 8 3C5.95364 3 4.26619 4.53667 4.02862 6.51903C2.81808 7.206 2 8.50652 2 10C2 10.8285 2.24938 11.5742 2.56501 12.2406C2.82303 12.7853 3.15401 13.3319 3.46385 13.8436C3.52444 13.9436 3.58423 14.0424 3.64251 14.1395C4.38585 15.3784 5 16.5468 5 18C5 18.5523 5.44772 19 6 19C7.45317 19 8.6216 19.6141 9.8605 20.3575C9.95747 20.4157 10.056 20.4754 10.1559 20.5358C10.6676 20.8457 11.2147 21.177 11.7594 21.435C12.4258 21.7506 13.1715 22 14 22C15.4935 22 16.794 21.1819 17.481 19.9714C19.4633 19.7338 21 18.0464 21 16C21 15.3142 20.8269 14.6683 20.5227 14.1041C21.4236 13.3711 22 12.2535 22 11C22 10.0536 21.671 9.1843 21.1225 8.5C21.671 7.8157 22 6.94638 22 6C22 3.79086 20.2091 2 18 2C17.0536 2 16.1843 2.32904 15.5 2.8775C14.8157 2.32904 13.9464 2 13 2Z" fill="black"/>
<path fill-rule="evenodd" clip-rule="evenodd" d="M13.7071 10.2929C14.0976 10.6834 14.0976 11.3166 13.7071 11.7071L3.70711 21.7071C3.31658 22.0976 2.68342 22.0976 2.29289 21.7071C1.90237 21.3166 1.90237 20.6834 2.29289 20.2929L12.2929 10.2929C12.6834 9.90237 13.3166 9.90237 13.7071 10.2929Z" fill="black"/>
</svg>
