<svg width="24" height="24" viewBox="0 0 24 24" fill="none" xmlns="http://www.w3.org/2000/svg">
<path d="M3 21L13 11" stroke="black" stroke-width="2" stroke-linecap="round" stroke-linejoin="round"/>
<path opacity="0.3" d="M15.0145 2.14264C14.547 1.86214 13.941 2.00781 13.652 2.47014L12.097 4.95811L11.8944 4.55292C11.6475 4.05894 11.0468 3.85872 10.5528 4.10571L9.19747 4.78337L7.70713 3.29303C7.3166 2.9025 6.68344 2.9025 6.29291 3.29303L4.69327 4.89267L3.24256 4.52999C2.90178 4.4448 2.54129 4.54465 2.29291 4.79303C2.04453 5.04141 1.94468 5.4019 2.02988 5.74267L3.86884 13.0985L2.40002 14.2001C2.12276 14.4081 1.97294 14.7448 2.00406 15.0899C2.03519 15.4351 2.24282 15.7396 2.55281 15.8946L6.25467 17.7455L8.10559 21.4473C8.26059 21.7573 8.56504 21.965 8.91022 21.9961C9.25539 22.0272 9.59207 21.8774 9.80002 21.6001L10.9016 20.1313L18.2575 21.9703C18.5983 22.0555 18.9587 21.9556 19.2071 21.7072C19.4555 21.4589 19.5554 21.0984 19.4702 20.7576L19.1075 19.3069L20.7071 17.7072C21.0977 17.3167 21.0977 16.6836 20.7071 16.293L19.2168 14.8027L19.8944 13.4473C20.1414 12.9534 19.9412 12.3527 19.4472 12.1057L19.042 11.9031L21.53 10.3481C21.9923 10.0592 22.138 9.45314 21.8575 8.98564L20.6058 6.89943L21.9363 3.35126C22.074 2.98408 21.9844 2.57032 21.7071 2.29303C21.4298 2.01574 21.0161 1.92612 20.6489 2.06381L17.1007 3.39437L15.0145 2.14264Z" fill="black"/>
</svg>
