<svg width="24" height="24" viewBox="0 0 24 24" fill="none" xmlns="http://www.w3.org/2000/svg">
<path opacity="0.3" d="M2.93564 18.1291C3.06031 17.8506 3.24492 17.5225 3.44766 17.1621L7.44922 10.0488L9.04596 11.6178C9.06093 11.6334 9.07912 11.6513 9.10121 11.673L9.10121 11.673L9.81019 12.3697C9.88945 12.4476 9.92908 12.4866 9.97457 12.5011C9.98169 12.5033 9.9889 12.5052 9.99617 12.5066C10.0302 12.5137 10.0657 12.5117 10.099 12.5008L10.1042 12.499C10.1471 12.483 10.1861 12.4442 10.2606 12.3697C10.2611 12.3692 10.2616 12.3686 10.2622 12.3681L11.8371 10.7931C12.0247 10.6056 12.279 10.5002 12.5442 10.5002H16.8022L20.5496 17.1622C20.7523 17.5225 20.9369 17.8506 21.0615 18.1291C21.1886 18.4129 21.3249 18.7929 21.2761 19.2248C21.2128 19.785 20.916 20.2924 20.4589 20.6222C20.1063 20.8765 19.7083 20.944 19.3987 20.9724C19.0948 21.0002 18.7183 21.0002 18.3049 21.0002H18.3048H5.69227H5.69224C5.2788 21.0002 4.90234 21.0002 4.59853 20.9724C4.28887 20.944 3.89083 20.8765 3.53832 20.6222C3.08117 20.2924 2.78441 19.785 2.7211 19.2248C2.67227 18.7929 2.80858 18.4129 2.93564 18.1291Z" fill="black"/>
<path d="M12.8211 4.21613C12.2987 3.98069 11.7003 3.98069 11.1778 4.21613C10.7725 4.39876 10.5122 4.72147 10.3323 4.98217C10.1545 5.23996 9.96428 5.57815 9.75425 5.9516L7.44922 10.0485C7.46085 10.0599 10.0379 12.592 9.10209 11.6726L9.81163 12.3697C9.8909 12.4476 9.93053 12.4865 9.97602 12.501C10.016 12.5137 10.059 12.5135 10.099 12.5005C10.1443 12.4856 10.1836 12.4463 10.2622 12.3677L11.8371 10.7928C12.0247 10.6052 12.279 10.4999 12.5442 10.4999H16.8031L14.2447 5.95158C14.0347 5.57815 13.8445 5.23995 13.6666 4.98217C13.4868 4.72147 13.2264 4.39876 12.8211 4.21613Z" fill="black"/>
</svg>
