<svg width="24" height="24" viewBox="0 0 24 24" fill="none" xmlns="http://www.w3.org/2000/svg">
<rect width="24" height="24" fill="white"/>
<path opacity="0.3" d="M10.3145 5.17399C9.79653 4.94331 9.20501 4.94331 8.68706 5.17399C8.28683 5.35225 8.02719 5.66635 7.84668 5.92202C7.66908 6.17355 7.47897 6.50314 7.26979 6.86579L2.49785 15.1371C2.28883 15.4994 2.09882 15.8287 1.97006 16.1081C1.83915 16.3922 1.69732 16.7739 1.74318 17.2094C1.80255 17.773 2.09824 18.2849 2.55677 18.618C2.91102 18.8753 3.31253 18.9432 3.62403 18.9718C3.93043 18.9999 4.3106 18.9999 4.72885 18.9999H14.2727C14.6909 18.9999 15.0711 18.9999 15.3775 18.9718C15.689 18.9432 16.0905 18.8753 16.4448 18.618C16.9033 18.2849 17.199 17.773 17.2584 17.2094C17.3042 16.7739 17.1624 16.3922 17.0315 16.1081C16.9027 15.8287 16.7127 15.4994 16.5037 15.1371L11.7317 6.86575C11.5226 6.50312 11.3324 6.17354 11.1549 5.92202C10.9743 5.66635 10.7147 5.35225 10.3145 5.17399Z" fill="black"/>
<path d="M14.4875 19C14.8211 18.9993 15.1245 18.9953 15.3776 18.9721C15.6891 18.9435 16.0906 18.8756 16.4448 18.6183C16.9034 18.2852 17.199 17.7732 17.2584 17.2096C17.3043 16.7742 17.1624 16.3925 17.0315 16.1084C16.9028 15.8289 16.7128 15.4996 16.5037 15.1374L14.4375 11.5559L14.7495 10.9943L15.3282 10.0122C15.5076 9.74909 15.7683 9.42213 16.1761 9.23736C16.7008 8.99964 17.3025 8.99966 17.8271 9.23742C18.2349 9.42221 18.4955 9.74918 18.675 10.0123L19.2536 10.9945L21.5756 15.174C21.7753 15.5335 21.9573 15.861 22.08 16.139C22.2052 16.4227 22.3388 16.8019 22.2886 17.2321C22.2234 17.7905 21.9261 18.2957 21.4696 18.6239C21.118 18.8768 20.7216 18.9441 20.4128 18.9724C20.1102 19.0001 19.7355 19.0001 19.3243 19.0001H14.6784C14.6138 19.0001 14.5501 19.0001 14.4875 19Z" fill="black"/>
</svg>
