<svg width="24" height="24" viewBox="0 0 24 24" fill="none" xmlns="http://www.w3.org/2000/svg">
<path opacity="0.3" d="M10.3145 7.17399C9.79653 6.94331 9.20501 6.94331 8.68706 7.17399C8.28683 7.35225 8.02719 7.66635 7.84668 7.92202C7.66909 8.17355 7.47898 8.50312 7.2698 8.86576L2.49785 17.1371C2.28883 17.4994 2.09882 17.8287 1.97006 18.1081C1.83915 18.3922 1.69732 18.7739 1.74318 19.2094C1.80255 19.773 2.09824 20.2849 2.55677 20.618C2.91102 20.8753 3.31253 20.9432 3.62403 20.9718C3.93042 20.9999 4.31056 20.9999 4.72877 20.9999H19.3242C19.7354 20.9999 20.1101 20.9999 20.4127 20.9722C20.7215 20.9439 21.1178 20.8766 21.4695 20.6237C21.926 20.2955 22.2233 19.7903 22.2885 19.2319C22.3387 18.8017 22.2051 18.4225 22.0799 18.1388C21.9572 17.8608 21.7752 17.5333 21.5755 17.1739L19.2535 12.9944C19.0431 12.6156 18.8529 12.2731 18.675 12.0122C18.4955 11.7491 18.2348 11.4221 17.827 11.2373C17.3023 10.9996 16.7006 10.9996 16.176 11.2373C15.7682 11.4221 15.5075 11.7491 15.328 12.0122C15.1501 12.2731 14.9599 12.6156 14.7494 12.9945L14.4375 13.5557L11.7318 8.8658C11.5226 8.50315 11.3325 8.17356 11.1549 7.92202C10.9743 7.66635 10.7147 7.35225 10.3145 7.17399Z" fill="black"/>
<path d="M19 3C17.3431 3 16 4.34315 16 6C16 7.65685 17.3431 9 19 9C20.6569 9 22 7.65685 22 6C22 4.34315 20.6569 3 19 3Z" fill="black"/>
</svg>
