<svg width="24" height="24" viewBox="0 0 24 24" fill="none" xmlns="http://www.w3.org/2000/svg">
<g opacity="0.3">
<path d="M16.0003 2C14.8957 2 14.0003 2.89543 14.0003 4C14.0003 5.10457 14.8957 6 16.0003 6C17.1048 6 18.0003 5.10457 18.0003 4C18.0003 2.89543 17.1048 2 16.0003 2Z" fill="black"/>
<path d="M9.64326 16.4346C9.80574 15.9067 9.50954 15.3471 8.9817 15.1846C8.45385 15.0222 7.89424 15.3184 7.73176 15.8462L6.23592 20.7059C6.07345 21.2338 6.36964 21.7934 6.89749 21.9559C7.42534 22.1183 7.98495 21.8222 8.14742 21.2943L9.64326 16.4346Z" fill="black"/>
<path d="M9.92163 8.73532C10.4301 7.08426 12.2245 6.20277 13.8421 6.80937L14.09 6.90235C14.4418 7.03426 14.7548 7.22562 15.0216 7.46102L18.339 10L21.0003 10C21.5525 10 22.0003 10.4477 22.0003 11C22.0003 11.5523 21.5525 12 21.0003 12L18.0002 12C17.7805 12 17.5669 11.9277 17.3925 11.7941L15.8887 10.6432L14.7097 14.4712L15.1825 14.6485C15.9597 14.94 16.4761 15.6812 16.4802 16.5113L16.5024 20.9951C16.5052 21.5474 16.0597 21.9973 15.5074 22C14.9551 22.0028 14.5052 21.5573 14.5025 21.005L14.4803 16.5212L10.4484 15.0092C9.21007 14.5448 8.54765 13.1964 8.93692 11.9325L9.92163 8.73532Z" fill="black"/>
</g>
<path d="M8.08062 5.71019C6.0012 5.15035 3.85179 6.33722 3.21793 8.39528L2.0443 12.2059C1.96441 12.4653 1.99339 12.746 2.1246 12.9836C2.2558 13.2212 2.47795 13.3953 2.74004 13.4658L5.74004 14.2735C6.26133 14.4138 6.79991 14.1151 6.95683 13.5985L8.95683 7.01476C9.03553 6.7557 9.00581 6.4758 8.87448 6.23903C8.74314 6.00226 8.52142 5.82887 8.25997 5.75848L8.08062 5.71019Z" fill="black"/>
<path d="M22 8C22 7.44772 21.5523 7 21 7C20.4477 7 20 7.44772 20 8V10H21C21.5523 10 22 10.4477 22 11C22 11.5523 21.5523 12 21 12H20V21C20 21.5523 20.4477 22 21 22C21.5523 22 22 21.5523 22 21V11V8Z" fill="black"/>
</svg>
