<svg width="24" height="24" viewBox="0 0 24 24" fill="none" xmlns="http://www.w3.org/2000/svg">
<path opacity="0.3" d="M15.501 4C14.1203 4 13.001 5.11929 13.001 6.5V21C13.001 21.5523 12.5533 22 12.001 22C11.4487 22 11.001 21.5523 11.001 21V11.5C11.001 10.1193 9.88169 9 8.50097 9C7.24059 9 6.19805 9.9327 6.02591 11.1455C5.70152 11.0509 5.35774 11 5.00097 11C4.65869 11 4.32835 11.0469 4.01562 11.1342C4.20178 8.82001 6.13883 7 8.50097 7C9.42605 7 10.2859 7.27914 11.001 7.75777V6.5C11.001 4.01472 13.0157 2 15.501 2C17.8631 2 19.8002 3.82001 19.9863 6.13423C19.6736 6.04686 19.3433 6 19.001 6C18.6442 6 18.3004 6.05091 17.976 6.14554C17.8039 4.9327 16.7614 4 15.501 4Z" fill="black"/>
<path d="M19.0008 6C16.8095 6 15.108 7.92033 15.3802 10.0978C15.4877 10.9578 15.8398 11.7689 16.3946 12.4347L18.2326 14.6402C18.4226 14.8682 18.704 15 19.0008 15C19.2976 15 19.579 14.8682 19.769 14.6402L21.6069 12.4347C22.1618 11.7689 22.5138 10.9578 22.6213 10.0978C22.8935 7.92033 21.192 6 19.0008 6Z" fill="black"/>
<path d="M5.00078 11C2.80953 11 1.10804 12.9203 1.38022 15.0978C1.48772 15.9578 1.8398 16.7689 2.39464 17.4347L4.23256 19.6402C4.42255 19.8682 4.704 20 5.00078 20C5.29756 20 5.579 19.8682 5.769 19.6402L7.60691 17.4347C8.16175 16.7689 8.51383 15.9578 8.62133 15.0978C8.89352 12.9203 7.19202 11 5.00078 11Z" fill="black"/>
</svg>
