<svg width="24" height="24" viewBox="0 0 24 24" fill="none" xmlns="http://www.w3.org/2000/svg">
<g opacity="0.3">
<path d="M5 4C4.44772 4 4 4.44772 4 5V9C4 9.55228 4.44772 10 5 10H18C18.2652 10 18.5196 9.89464 18.7071 9.70711L20.7071 7.70711C21.0976 7.31658 21.0976 6.68342 20.7071 6.29289L18.7071 4.29289C18.5196 4.10536 18.2652 4 18 4H5Z" fill="black"/>
<path d="M19 11C19.5523 11 20 11.4477 20 12V16C20 16.5523 19.5523 17 19 17H6C5.73478 17 5.48043 16.8946 5.29289 16.7071L3.29289 14.7071C2.90237 14.3166 2.90237 13.6834 3.29289 13.2929L5.29289 11.2929C5.48043 11.1054 5.73478 11 6 11H19Z" fill="black"/>
</g>
<path fill-rule="evenodd" clip-rule="evenodd" d="M11.5 2C12.0523 2 12.5 2.44772 12.5 3V4H10.5V3C10.5 2.44772 10.9477 2 11.5 2ZM12.5 10V11H10.5V10H12.5ZM12.5 17V21C12.5 21.5523 12.0523 22 11.5 22C10.9477 22 10.5 21.5523 10.5 21V17H12.5Z" fill="black"/>
</svg>
