<svg width="24" height="24" viewBox="0 0 24 24" fill="none" xmlns="http://www.w3.org/2000/svg">
<path opacity="0.3" d="M12 2C10.0375 2 8.3695 3.25555 7.75369 5.00746C5.81959 5.12495 4.25658 6.6168 4.02862 8.51903C2.81807 9.20601 2 10.5065 2 12C2 14.2091 3.79086 16 6 16H18C20.2091 16 22 14.2091 22 12C22 10.5065 21.1819 9.20601 19.9714 8.51903C19.7434 6.6168 18.1804 5.12495 16.2463 5.00746C15.6305 3.25555 13.9625 2 12 2Z" fill="black"/>
<path fill-rule="evenodd" clip-rule="evenodd" d="M12 9C12.5523 9 13 9.44772 13 10V22C13 22.5523 12.5523 23 12 23C11.4477 23 11 22.5523 11 22V10C11 9.44772 11.4477 9 12 9Z" fill="black"/>
</svg>
