<svg width="24" height="24" viewBox="0 0 24 24" fill="none" xmlns="http://www.w3.org/2000/svg">
<path opacity="0.3" d="M2.00001 9H4.56163C3.56774 11.2079 3.97761 13.8935 5.79122 15.7071C6.18172 16.0976 6.81485 16.0976 7.20538 15.7072L11.1788 11.7343C11.198 11.7166 11.2165 11.6981 11.2342 11.6789L11.9132 11H22C22.5523 11 23 10.5523 23 10C23 6.68629 20.3137 4 17 4C15.7923 4 14.6664 4.35768 13.7247 4.97219C12.4585 3.17553 10.3668 2 7.99908 2C4.54628 2 1.5721 4.50666 1.01379 7.83454C0.965123 8.12463 1.04664 8.42143 1.23664 8.64597C1.42665 8.8705 1.70587 9 2.00001 9Z" fill="black"/>
<path d="M9.76891 13.144L11.1788 11.7343C11.198 11.7166 11.2165 11.6981 11.2342 11.6789L11.9132 11H14.7205C14.8638 11.3516 14.9852 11.7174 15.0884 12.0881C15.3714 13.1045 15.5354 14.2223 15.6219 15.3215C15.7948 17.5176 15.6657 19.7365 15.4923 21.124C15.4297 21.6245 15.0043 22 14.5 22H9.50001C9.17856 22 8.87672 21.8455 8.68877 21.5847C8.50081 21.3239 8.44967 20.9887 8.55132 20.6838C8.86715 19.7363 9.30265 18.0943 9.56024 16.3073C9.71497 15.2339 9.79968 14.1462 9.76891 13.144Z" fill="black"/>
<path d="M19 8.5V11H17V8.5C17 7.94772 17.4477 7.5 18 7.5C18.5523 7.5 19 7.94772 19 8.5Z" fill="black"/>
</svg>
