<svg width="24" height="24" viewBox="0 0 24 24" fill="none" xmlns="http://www.w3.org/2000/svg">
<path opacity="0.3" fill-rule="evenodd" clip-rule="evenodd" d="M11.61 3.0528C11.743 2.88671 11.8726 2.7249 11.997 2.56738C12.1217 2.72508 12.2514 2.88708 12.3845 3.05337C13.0882 3.93217 13.8877 4.93062 14.536 6.04538C15.4371 7.59466 15.958 9.23429 15.4804 10.8641C15.4425 10.9933 15.4584 11.1323 15.5244 11.2497C15.5904 11.3671 15.7009 11.4529 15.831 11.4877C17.6931 11.9857 18.768 13.4435 19.4637 15.2087C19.9785 16.5148 20.2568 17.9046 20.4989 19.1138C20.5409 19.3232 20.5817 19.5273 20.6225 19.7245C20.4223 19.7186 20.2156 19.7139 20.0035 19.709C18.9688 19.6853 17.8044 19.6586 16.6269 19.4821C14.9498 19.2306 13.3968 18.689 12.376 17.5159C12.281 17.4068 12.1435 17.3441 11.9988 17.3441C11.8541 17.3441 11.7165 17.4068 11.6216 17.5159C10.6008 18.6891 9.04778 19.2307 7.37065 19.4821C6.1932 19.6587 5.02931 19.6853 3.99461 19.709C3.78251 19.7139 3.57524 19.7187 3.375 19.7245C3.4158 19.5274 3.45664 19.3234 3.49857 19.114C3.74063 17.9052 4.01886 16.5157 4.53335 15.2099C5.22872 13.445 6.30311 11.9871 8.16397 11.4884C8.29402 11.4536 8.40452 11.3677 8.47046 11.2504C8.53641 11.133 8.55222 10.994 8.51433 10.8648C8.03634 9.23486 8.55711 7.5951 9.45806 6.0457C10.1064 4.93068 10.9062 3.93177 11.61 3.0528ZM11.9988 11C10.8942 11 9.99877 11.8954 9.99877 13C9.99877 14.1045 10.8942 15 11.9988 15C13.1033 15 13.9988 14.1045 13.9988 13C13.9988 11.8954 13.1033 11 11.9988 11Z" fill="black"/>
<path fill-rule="evenodd" clip-rule="evenodd" d="M10 13C10 11.8954 10.8954 11 12 11C13.1046 11 14 11.8954 14 13C14 14.1046 13.1046 15 12 15C10.8954 15 10 14.1046 10 13Z" fill="black"/>
<path d="M8.54537 8.1239C8.52299 8.12163 8.50046 8.1201 8.47782 8.11933L4.96346 8.00057C4.5968 7.98818 4.25278 8.17757 4.06715 8.49401C3.88151 8.81045 3.88406 9.20314 4.07379 9.51715L5.88733 12.5186C5.93361 12.5952 5.98941 12.6644 6.05282 12.7249C6.61615 12.1517 7.30658 11.7183 8.16397 11.4885C8.29402 11.4536 8.40452 11.3678 8.47046 11.2504C8.53641 11.133 8.55222 10.994 8.51433 10.8648C8.24556 9.94836 8.29257 9.02878 8.54537 8.1239Z" fill="black"/>
<path d="M9.71094 18.8582L11.1195 21.4741C11.2939 21.798 11.6321 22 12 22C12.3679 22 12.7061 21.798 12.8805 21.4741L14.2886 18.859C13.5495 18.5443 12.8942 18.1115 12.376 17.516C12.281 17.4068 12.1435 17.3442 11.9988 17.3442C11.8541 17.3442 11.7165 17.4068 11.6216 17.516C11.1039 18.111 10.4492 18.5435 9.71094 18.8582Z" fill="black"/>
<path d="M17.9305 12.7105C17.9965 12.6475 18.0542 12.5752 18.1014 12.495L19.8623 9.50783C20.0475 9.19365 20.047 8.80356 19.861 8.48988C19.6749 8.1762 19.3328 7.98868 18.9683 8.00054L15.5188 8.1128C15.4948 8.11358 15.471 8.11522 15.4473 8.1177C15.7016 9.02435 15.7495 9.9458 15.4804 10.8641C15.4425 10.9934 15.4584 11.1324 15.5244 11.2498C15.5904 11.3672 15.7009 11.453 15.831 11.4878C16.6824 11.7155 17.3693 12.1438 17.9305 12.7105Z" fill="black"/>
</svg>
