<svg width="24" height="24" viewBox="0 0 24 24" fill="none" xmlns="http://www.w3.org/2000/svg">
<g opacity="0.3">
<path d="M12 1C11.1045 1 10.3018 1.39231 9.75283 2.0127C9.66958 2.0043 9.58523 2 9.5 2C8.11929 2 7 3.11929 7 4.5C7 5.88071 8.11929 7 9.5 7C9.80267 7 10.0929 6.94602 10.3614 6.84739L11.1685 8.05548C11.354 8.33323 11.666 8.5 12 8.5C12.334 8.5 12.646 8.33323 12.8315 8.05548L13.6386 6.84739C13.9071 6.94602 14.1973 7 14.5 7C15.8807 7 17 5.88071 17 4.5C17 3.11929 15.8807 2 14.5 2C14.4148 2 14.3304 2.0043 14.2472 2.0127C13.6982 1.39232 12.8955 1 12 1Z" fill="black"/>
<path d="M10.7738 9.99993C9.93599 9.99942 9.30382 9.99903 8.71673 10.183C8.19982 10.345 7.7212 10.6102 7.30989 10.9627C6.84272 11.3631 6.50801 11.8994 6.06439 12.6101L4.90206 14.47C4.63311 14.9003 4.72911 15.4638 5.12536 15.7808C5.51666 16.0939 5.9504 16.334 6.43643 16.3977C6.95221 16.4654 7.39187 16.3176 7.7429 16.1016C8.06606 15.9027 8.33753 15.6312 8.55056 15.4061C8.64471 15.3066 8.72725 15.2166 8.80674 15.13C8.93599 14.9891 9.05719 14.857 9.20715 14.7071C9.34088 14.5733 9.77779 14.3613 10.4407 14.3901C11.0592 14.4168 11.7399 14.654 12.2929 15.2071L14.0265 16.9406C14.065 16.9792 14.1286 17.043 14.1922 17.097C14.2704 17.1636 14.4096 17.2701 14.6093 17.3366C14.8558 17.4187 15.1218 17.422 15.3702 17.3459C15.5715 17.2843 15.7133 17.1811 15.7931 17.1165C15.858 17.064 15.9231 17.0019 15.9626 16.9642L18.3147 14.7241C18.6585 14.3966 18.7247 13.8726 18.473 13.47L17.9357 12.6101C17.4921 11.8994 17.1574 11.3631 16.6902 10.9627C16.2789 10.6102 15.8003 10.345 15.2834 10.183C14.6963 9.99903 14.0641 9.99942 13.2263 9.99993H10.7738Z" fill="black"/>
</g>
<path d="M8.7158 10.1831C8.1989 10.3451 7.72028 10.6104 7.30896 10.9628C6.8418 11.3632 6.50708 11.8995 6.06347 12.6102L2.65844 18.0584C2.42825 18.4266 2.22022 18.7594 2.07779 19.0418C1.93419 19.3266 1.77387 19.7135 1.8098 20.1604C1.856 20.7351 2.14799 21.2619 2.61087 21.6057C2.97076 21.873 3.38388 21.9421 3.70142 21.9713C4.01638 22.0002 4.40883 22.0001 4.8431 22.0001H19.1551C19.5894 22.0001 19.9818 22.0002 20.2968 21.9713C20.6144 21.9421 21.0275 21.873 21.3874 21.6057C21.8502 21.2619 22.1422 20.7351 22.1884 20.1604C22.2244 19.7135 22.064 19.3265 21.9204 19.0418C21.778 18.7594 21.57 18.4266 21.3398 18.0583L18.4928 13.5032C18.7209 13.901 18.6492 14.4057 18.3147 14.7242L15.9626 16.9643C15.9231 17.002 15.858 17.0642 15.7931 17.1167C15.7133 17.1813 15.5715 17.2844 15.3702 17.346C15.1218 17.4221 14.8558 17.4188 14.6093 17.3367C14.4096 17.2702 14.2704 17.1637 14.1922 17.0971C14.1286 17.0431 14.065 16.9793 14.0265 16.9407L12.2929 15.2072C11.7399 14.6542 11.0592 14.417 10.4407 14.3902C9.77779 14.3615 9.34088 14.5735 9.20715 14.7072C9.05719 14.8571 8.93599 14.9892 8.80674 15.1301C8.72725 15.2168 8.64471 15.3067 8.55056 15.4062C8.33753 15.6313 8.06606 15.9029 7.7429 16.1017C7.39187 16.3178 6.95221 16.4655 6.43643 16.3978C5.9504 16.3341 5.51666 16.094 5.12536 15.7809C4.72911 15.4639 4.63311 14.9004 4.90206 14.4701L6.06347 12.6102C6.50708 11.8995 6.8418 11.3632 7.30896 10.9628C7.72028 10.6104 8.1989 10.3451 8.7158 10.1831Z" fill="black"/>
</svg>
