<svg width="24" height="24" viewBox="0 0 24 24" fill="none" xmlns="http://www.w3.org/2000/svg">
<path d="M13.9985 5.5C14.5508 5.5 14.9985 5.94772 14.9985 6.5C14.9985 6.77614 15.2223 7 15.4985 7H15.9985C17.1031 7 17.9985 7.89543 17.9985 9C17.9985 9.55228 17.5508 10 16.9985 10C16.4462 10 15.9985 9.55228 15.9985 9H15.4985C14.1178 9 12.9985 7.88071 12.9985 6.5C12.9985 5.94772 13.4462 5.5 13.9985 5.5Z" fill="black"/>
<path d="M7.42189 10.25H6.99849C6.4462 10.25 5.99849 10.6977 5.99849 11.25V12.75C5.99849 13.3023 6.4462 13.75 6.99849 13.75H10.9219L7.42189 10.25Z" fill="black"/>
<path fill-rule="evenodd" clip-rule="evenodd" d="M4.92893 19.0711C1.03155 15.1737 1.02371 8.85964 4.90541 4.95253C4.91287 4.94458 4.92048 4.93671 4.92825 4.92894C4.936 4.9212 4.94384 4.91361 4.95177 4.90617C8.85882 1.0237 15.1734 1.03129 19.0711 4.92893C22.9763 8.83418 22.9763 15.1658 19.0711 19.0711C15.1658 22.9763 8.83418 22.9763 4.92893 19.0711ZM11.6635 10.25L7.09363 5.68011C10.2321 3.23729 14.772 3.4583 17.6569 6.34315C20.5417 9.22799 20.7627 13.7679 18.3199 16.9064L15.1635 13.75H16.9985C17.5508 13.75 17.9985 13.3023 17.9985 12.75V11.25C17.9985 10.6977 17.5508 10.25 16.9985 10.25H11.6635ZM5.6795 7.0944C3.23732 10.2328 3.45854 14.7722 6.34315 17.6569C9.22775 20.5415 13.7672 20.7627 16.9056 18.3205L5.6795 7.0944Z" fill="black"/>
</svg>
