<svg width="24" height="24" viewBox="0 0 24 24" fill="none" xmlns="http://www.w3.org/2000/svg">
<path d="M5.48062 4C5.21518 4 5 4.21518 5 4.48062V11H21C21.5523 11 22 11.4477 22 12C22 12.5523 21.5523 13 21 13H3C2.44772 13 2 12.5523 2 12C2 11.4477 2.44772 11 3 11V4.48062C3 3.11061 4.11061 2 5.48062 2C6.0439 2 6.59041 2.1917 7.03026 2.54358L8.56191 3.76891C9.18616 3.49656 9.89892 3.49136 10.5265 3.75331C10.9015 3.56417 11.3708 3.62619 11.684 3.93938C12.0745 4.3299 12.0745 4.96307 11.684 5.35359L8.85554 8.18202C8.46502 8.57254 7.83186 8.57254 7.44133 8.18202C7.1282 7.86888 7.06614 7.39975 7.25517 7.02478C7.01815 6.45694 6.99981 5.81939 7.20017 5.24076L5.78087 4.10532C5.69565 4.03714 5.58976 4 5.48062 4Z" fill="black"/>
<path d="M3 14V15.5C3 17.1369 3.78702 18.5891 5 19.5002V21C5 21.5523 5.44772 22 6 22C6.55228 22 7 21.5523 7 21V20.3998C7.3234 20.4655 7.65789 20.5 8 20.5H16C16.3425 20.5 16.6769 20.4656 17 20.4V21C17 21.5523 17.4477 22 18 22C18.5523 22 19 21.5523 19 21V19.5004C20.2144 18.5882 21 17.1358 21 15.5V14H3Z" fill="black"/>
</svg>
