<svg width="24" height="24" viewBox="0 0 24 24" fill="none" xmlns="http://www.w3.org/2000/svg">
<path d="M7 13C5.89543 13 5 13.8954 5 15C5 16.1046 5.89543 17 7 17C8.10457 17 9 16.1046 9 15C9 13.8954 8.10457 13 7 13Z" fill="black"/>
<path fill-rule="evenodd" clip-rule="evenodd" d="M4 2C4 1.44772 3.55228 1 3 1C2.44772 1 2 1.44772 2 2V22C2 22.5523 2.44772 23 3 23C3.55228 23 4 22.5523 4 22V20H20V22C20 22.5523 20.4477 23 21 23C21.5523 23 22 22.5523 22 22V5C22 3.34315 20.6569 2 19 2H11C10.4477 2 10 2.44772 10 3V8H4V2ZM4 18V10H20V12H11C10.4477 12 10 12.4477 10 13V18H4Z" fill="black"/>
<path d="M7 3C5.89543 3 5 3.89543 5 5C5 6.10457 5.89543 7 7 7C8.10457 7 9 6.10457 9 5C9 3.89543 8.10457 3 7 3Z" fill="black"/>
</svg>
