<svg width="24" height="24" viewBox="0 0 24 24" fill="none" xmlns="http://www.w3.org/2000/svg">
<path d="M9 4C8.44772 4 8 4.44772 8 5C8 5.55228 8.44772 6 9 6H11V7.05493C6.50005 7.55237 3 11.3674 3 16C3 16.5523 3.44772 17 4 17H20C20.5523 17 21 16.5523 21 16C21 11.3674 17.4999 7.55237 13 7.05493V6H15C15.5523 6 16 5.55228 16 5C16 4.44772 15.5523 4 15 4H9Z" fill="black"/>
<path d="M3 18C2.44772 18 2 18.4477 2 19C2 19.5523 2.44772 20 3 20H21C21.5523 20 22 19.5523 22 19C22 18.4477 21.5523 18 21 18H3Z" fill="black"/>
</svg>
