<svg width="24" height="24" viewBox="0 0 24 24" fill="none" xmlns="http://www.w3.org/2000/svg">
<path d="M9.54305 9H9.17071C9.28367 8.6804 9.44925 8.38566 9.65704 8.12618C9.60763 8.40641 9.56941 8.69888 9.54305 9Z" fill="black"/>
<path d="M11.8757 7.5227C11.9182 7.40925 11.9603 7.31426 12 7.23584C12.0397 7.31426 12.0818 7.40925 12.1243 7.5227C12.2677 7.90509 12.3841 8.41143 12.4476 9H11.5524C11.6159 8.41143 11.7323 7.90509 11.8757 7.5227Z" fill="black"/>
<path d="M14.343 8.12618C14.3924 8.40641 14.4306 8.69888 14.4569 9H14.8293C14.7163 8.6804 14.5508 8.38566 14.343 8.12618Z" fill="black"/>
<path d="M11.8757 12.4773C11.7323 12.0949 11.6159 11.5886 11.5524 11H12.4476C12.3841 11.5886 12.2677 12.0949 12.1243 12.4773C12.0818 12.5908 12.0397 12.6857 12 12.7642C11.9603 12.6857 11.9182 12.5908 11.8757 12.4773Z" fill="black"/>
<path d="M9.54305 11C9.56941 11.3011 9.60763 11.5936 9.65704 11.8738C9.44925 11.6143 9.28367 11.3196 9.17071 11H9.54305Z" fill="black"/>
<path d="M14.4569 11C14.4306 11.3011 14.3924 11.5936 14.343 11.8738C14.5508 11.6143 14.7163 11.3196 14.8293 11H14.4569Z" fill="black"/>
<path fill-rule="evenodd" clip-rule="evenodd" d="M8.16146 2H15.8385C16.3657 1.99998 16.8205 1.99997 17.195 2.03057C17.5904 2.06287 17.9836 2.13419 18.362 2.32698C18.9265 2.6146 19.3854 3.07355 19.673 3.63803C19.8658 4.01641 19.9371 4.40963 19.9694 4.80498C20 5.17952 20 5.63436 20 6.16146V17C20 17.5523 19.5523 18 19 18V20C19.5523 20 20 20.4477 20 21C20 21.5523 19.5523 22 19 22H7C5.34315 22 4 20.6569 4 19V6.16142C3.99998 5.6343 3.99997 5.17953 4.03057 4.80498C4.06287 4.40963 4.13419 4.01641 4.32698 3.63803C4.6146 3.07355 5.07355 2.6146 5.63803 2.32698C6.01641 2.13419 6.40963 2.06287 6.80498 2.03057C7.17953 1.99997 7.63434 1.99998 8.16146 2ZM6 19C6 19.5523 6.44772 20 7 20H17V18H7C6.44772 18 6 18.4477 6 19ZM7 10C7 7.23858 9.23858 5 12 5C14.7614 5 17 7.23858 17 10C17 12.7614 14.7614 15 12 15C9.23858 15 7 12.7614 7 10Z" fill="black"/>
</svg>
