<svg width="24" height="24" viewBox="0 0 24 24" fill="none" xmlns="http://www.w3.org/2000/svg">
<path d="M11.188 4.26661C11.7051 4.03678 12.2954 4.03678 12.8125 4.26662L21.4064 8.08611C21.9111 8.31041 22.1384 8.90137 21.9141 9.40606C21.6898 9.91074 21.0988 10.138 20.5941 9.91373L12.0002 6.09424L3.40639 9.91373C2.9017 10.138 2.31074 9.91074 2.08644 9.40606C1.86213 8.90137 2.08943 8.31041 2.59411 8.08611L11.188 4.26661Z" fill="black"/>
<path fill-rule="evenodd" clip-rule="evenodd" d="M8.34375 9.20808C8.87826 8.99786 9.47814 8.99876 10.1616 8.99978H13.8389C14.5224 8.99876 15.1222 8.99786 15.6567 9.20808C16.1241 9.3919 16.5379 9.69012 16.8601 10.0754C17.2285 10.516 17.4174 11.0854 17.6326 11.7341L17.9489 12.6837C17.9542 12.6996 17.9591 12.7156 17.9636 12.7316C18.2547 12.9836 18.4964 13.2908 18.6733 13.6379C18.8661 14.0163 18.9374 14.4095 18.9697 14.8049C19.0003 15.1795 19.0003 15.6342 19.0002 16.1614V18.9999C19.0002 19.5522 18.5525 19.9999 18.0002 19.9999C17.448 19.9999 17.0002 19.5522 17.0002 18.9999H7.00025C7.00025 19.5522 6.55253 19.9999 6.00025 19.9999C5.44796 19.9999 5.00025 19.5522 5.00025 18.9999L5.00025 16.1614C5.00023 15.6342 5.00022 15.1795 5.03082 14.8049C5.06312 14.4095 5.13444 14.0163 5.32723 13.6379C5.5041 13.2908 5.74575 12.9836 6.03689 12.7316C6.04137 12.7156 6.04625 12.6996 6.05157 12.6837L6.36795 11.7341C6.58311 11.0854 6.77196 10.516 7.14042 10.0754C7.46261 9.69012 7.87637 9.3919 8.34375 9.20808ZM8.38931 12.0044C8.62589 11.9999 8.88373 11.9999 9.16171 11.9999H14.8388C15.1168 11.9999 15.3746 11.9999 15.6112 12.0044C15.4564 11.5615 15.3966 11.443 15.3258 11.3584C15.2184 11.23 15.0805 11.1306 14.9247 11.0693C14.791 11.0167 14.6085 10.9999 13.6938 10.9999H10.3067C9.39198 10.9999 9.20945 11.0167 9.07576 11.0693C8.91997 11.1306 8.78205 11.23 8.67465 11.3584C8.60392 11.443 8.54408 11.5615 8.38931 12.0044ZM9 14.4999C8.44772 14.4999 8 14.9476 8 15.4999C8 16.0522 8.44772 16.4999 9 16.4999H9.01C9.56228 16.4999 10.01 16.0522 10.01 15.4999C10.01 14.9476 9.56228 14.4999 9.01 14.4999H9ZM15 14.4999C14.4477 14.4999 14 14.9476 14 15.4999C14 16.0522 14.4477 16.4999 15 16.4999H15.01C15.5623 16.4999 16.01 16.0522 16.01 15.4999C16.01 14.9476 15.5623 14.4999 15.01 14.4999H15Z" fill="black"/>
</svg>
