<svg width="24" height="24" viewBox="0 0 24 24" fill="none" xmlns="http://www.w3.org/2000/svg">
<path fill-rule="evenodd" clip-rule="evenodd" d="M4 3C2.34315 3 1 4.34315 1 6V14C1 15.6569 2.34314 17 4 17C4 19.2091 5.79086 21 8 21C10.2091 21 12 19.2091 12 17H22C22.5523 17 23 16.5523 23 16C23 15.4477 22.5523 15 22 15H20V8C20 5.23858 17.7614 3 15 3H4ZM16 15H12V8C12 7.44772 12.4477 7 13 7H15C15.5523 7 16 7.44772 16 8V10.5C15.4477 10.5 15 10.9477 15 11.5C15 12.0523 15.4477 12.5 16 12.5V15ZM6 17C6 15.8954 6.89543 15 8 15C8.30307 15 8.59068 15.0675 8.84844 15.1884C9.52883 15.5076 10 16.1988 10 17C10 18.1046 9.10457 19 8 19C6.89543 19 6 18.1046 6 17ZM5.5 10C5.22386 10 5 9.77614 5 9.5V7.5C5 7.22386 5.22386 7 5.5 7H8.5C8.77614 7 9 7.22386 9 7.5V9.5C9 9.77614 8.77614 10 8.5 10H5.5Z" fill="black"/>
</svg>
