<svg width="24" height="24" viewBox="0 0 24 24" fill="none" xmlns="http://www.w3.org/2000/svg">
<path fill-rule="evenodd" clip-rule="evenodd" d="M1 6C1 4.34315 2.34315 3 4 3H15C17.7614 3 20 5.23858 20 8V15H22C22.5523 15 23 15.4477 23 16C23 16.5523 22.5523 17 22 17H12C12 19.2091 10.2091 21 8 21C5.79086 21 4 19.2091 4 17C2.34314 17 1 15.6569 1 14V6ZM8 15C6.89543 15 6 15.8954 6 17C6 18.1046 6.89543 19 8 19C9.10457 19 10 18.1046 10 17C10 16.1988 9.52883 15.5076 8.84844 15.1884C8.59068 15.0675 8.30307 15 8 15ZM5 9.5C5 9.77614 5.22386 10 5.5 10H8.5C8.77614 10 9 9.77614 9 9.5V7.5C9 7.22386 8.77614 7 8.5 7H5.5C5.22386 7 5 7.22386 5 7.5V9.5ZM16 7.5C16 7.22386 15.7761 7 15.5 7H13.5C13.2239 7 13 7.22386 13 7.5V9.5C13 9.77614 13.2239 10 13.5 10H15.5C15.7761 10 16 9.77614 16 9.5V7.5Z" fill="black"/>
</svg>
