<svg width="24" height="24" viewBox="0 0 24 24" fill="none" xmlns="http://www.w3.org/2000/svg">
<path fill-rule="evenodd" clip-rule="evenodd" d="M7.16137 1.9999C6.4779 1.99888 5.87802 1.99798 5.3435 2.2082C4.87612 2.39202 4.46236 2.69024 4.14018 3.07551C3.77171 3.51612 3.58286 4.0855 3.3677 4.73422L3.05132 5.68381C3.04601 5.69975 3.04112 5.71572 3.03665 5.73173C2.74551 5.98373 2.50385 6.29095 2.32698 6.63807C2.13419 7.01645 2.06287 7.40967 2.03057 7.80501C1.99997 8.17956 1.99999 8.63432 2 9.16142V12C2 12.5523 2.44772 13 3 13C3.55229 13 4 12.5523 4 12H8.98899C9.09779 11.8036 9.22392 11.6123 9.37306 11.434C9.80265 10.9203 10.3543 10.5227 10.9775 10.2776C11.6922 9.99648 12.4614 9.99827 13.0842 9.99972H16V9.16152C16 8.63437 16 8.17958 15.9694 7.80501C15.9371 7.40967 15.8658 7.01645 15.673 6.63807C15.4962 6.29095 15.2545 5.98373 14.9634 5.73173C14.9589 5.71572 14.954 5.69975 14.9487 5.68381L14.6323 4.7342C14.4171 4.08549 14.2283 3.51612 13.8598 3.07551C13.5376 2.69024 13.1239 2.39202 12.6565 2.2082C12.122 1.99798 11.5221 1.99888 10.8386 1.9999H7.16137ZM6.16146 5.00004C5.88349 5.00003 5.62564 5.00002 5.38907 5.0045C5.54384 4.56164 5.60367 4.44311 5.67441 4.35853C5.7818 4.23011 5.91972 4.1307 6.07552 4.06943C6.20921 4.01685 6.39173 4.00004 7.30643 4.00004H10.6936C11.6083 4.00004 11.7908 4.01685 11.9245 4.06943C12.0803 4.1307 12.2182 4.23011 12.3256 4.35853C12.3963 4.44311 12.4562 4.56164 12.6109 5.0045C12.3744 5.00002 12.1165 5.00003 11.8385 5.00004H6.16146ZM5 8.5C5 7.94772 5.44772 7.5 6 7.5H6.01C6.56229 7.5 7.01 7.94772 7.01 8.5C7.01 9.05228 6.56229 9.5 6.01 9.5H6C5.44772 9.5 5 9.05228 5 8.5ZM11 8.5C11 7.94772 11.4477 7.5 12 7.5H12.01C12.5623 7.5 13.01 7.94772 13.01 8.5C13.01 9.05228 12.5623 9.5 12.01 9.5H12C11.4477 9.5 11 9.05228 11 8.5Z" fill="black"/>
<path d="M16 10.9999H13.1614C12.4779 10.9989 11.878 10.998 11.3435 11.2082C10.9071 11.3798 10.5175 11.6512 10.2055 12" fill="black"/>
<path fill-rule="evenodd" clip-rule="evenodd" d="M16 10.9999H13.1614C12.4779 10.9989 11.878 10.998 11.3435 11.2082C10.9071 11.3798 10.5175 11.6512 10.2055 12L10.1402 12.0755C9.77171 12.5161 9.58286 13.0855 9.3677 13.7342L9.05132 14.6838C9.04601 14.6997 9.04112 14.7157 9.03665 14.7317C9.00026 14.7632 8.96464 14.7956 8.92982 14.8288C8.68611 15.0612 8.48175 15.3343 8.32699 15.6381C8.1342 16.0164 8.06288 16.4097 8.03058 16.805C7.99997 17.1795 7.99999 17.6343 8 18.1614L8 21C8 21.5523 8.44772 22 9 22C9.03452 22 9.06863 21.9983 9.10225 21.9949C9.6065 21.9437 10 21.5178 10 21H20C20 21.5523 20.4477 22 21 22C21.069 22 21.1364 21.993 21.2015 21.9797C21.6572 21.8865 22 21.4833 22 21V18.1615C22 17.6343 22 17.1796 21.9694 16.805C21.9674 16.7803 21.9652 16.7556 21.9629 16.7309C21.9277 16.3606 21.8538 15.9928 21.673 15.6381C21.662 15.6164 21.6507 15.5948 21.6391 15.5735C21.4658 15.2528 21.2363 14.968 20.9634 14.7317C20.9589 14.7157 20.954 14.6997 20.9487 14.6838L20.6774 13.8699L20.6323 13.7342C20.4171 13.0855 20.2283 12.5161 19.8598 12.0755C19.8196 12.0274 19.7779 11.9806 19.7348 11.9352C19.4334 11.6175 19.0655 11.369 18.6565 11.2082C18.448 11.1262 18.2295 11.0763 18 11.046C17.6412 10.9987 17.2555 10.9993 16.8386 10.9999L16 10.9999ZM12.1615 14C11.8835 14 11.6256 14 11.3891 14.0045C11.5438 13.5616 11.6037 13.4431 11.6744 13.3585C11.7818 13.2301 11.9197 13.1307 12.0755 13.0694C12.2092 13.0168 12.3917 13 13.3064 13H16.6936C17.6083 13 17.7908 13.0168 17.9245 13.0694C18.0803 13.1307 18.2182 13.2301 18.3256 13.3585C18.3963 13.4431 18.4562 13.5616 18.6109 14.0045C18.3744 14 18.1165 14 17.8385 14H12.1615ZM11 17.5C11 16.9477 11.4477 16.5 12 16.5H12.01C12.5623 16.5 13.01 16.9477 13.01 17.5C13.01 18.0523 12.5623 18.5 12.01 18.5H12C11.4477 18.5 11 18.0523 11 17.5ZM17 17.5C17 16.9477 17.4477 16.5 18 16.5H18.01C18.5623 16.5 19.01 16.9477 19.01 17.5C19.01 18.0523 18.5623 18.5 18.01 18.5H18C17.4477 18.5 17 18.0523 17 17.5Z" fill="black"/>
</svg>
