<svg width="24" height="24" viewBox="0 0 24 24" fill="none" xmlns="http://www.w3.org/2000/svg">
<path fill-rule="evenodd" clip-rule="evenodd" d="M13.3639 2H14.6361C15.0251 1.99998 15.3753 1.99996 15.6666 2.02376C15.9786 2.04925 16.3101 2.10694 16.635 2.27249C17.1054 2.51217 17.4878 2.89462 17.7275 3.36503C17.8931 3.68993 17.9508 4.02141 17.9762 4.33338C17.9924 4.53067 17.9976 4.75495 17.9992 5.00003C17.999 5.00003 17.9995 5.00003 17.9992 5.00003L18 15C17.947 15 17.8931 15 17.8385 15H10.1614C10.1069 15 10.053 15 10 15V5.00003C9.99974 5.00003 10.0003 5.00003 10 5.00003C10.0017 4.75495 10.0076 4.53067 10.0238 4.33338C10.0492 4.02141 10.1069 3.68993 10.2725 3.36503C10.5122 2.89462 10.8946 2.51217 11.365 2.27249C11.6899 2.10694 12.0214 2.04925 12.3334 2.02376C12.6247 1.99996 12.9749 1.99998 13.3639 2ZM15.9991 5.00001H12.0009C12.0024 4.78489 12.0065 4.62632 12.0171 4.49624C12.0247 4.40309 12.0343 4.34673 12.0423 4.3125C12.0462 4.29622 12.0494 4.28621 12.0513 4.28079C12.0532 4.27559 12.0543 4.27341 12.0545 4.27301C12.1024 4.17893 12.1789 4.10244 12.273 4.0545L12.2746 4.05377L12.2808 4.05133C12.2862 4.0494 12.2962 4.04618 12.3125 4.04235C12.3467 4.03429 12.4031 4.02473 12.4962 4.01712C12.6962 4.00078 12.9635 4.00001 13.4 4.00001H14.6C15.0365 4.00001 15.3038 4.00078 15.5038 4.01712C15.5969 4.02473 15.6533 4.03429 15.6875 4.04235C15.7038 4.04618 15.7138 4.0494 15.7192 4.05133C15.7244 4.05319 15.7266 4.0543 15.727 4.0545C15.8211 4.10244 15.8976 4.17893 15.9455 4.27301C15.9457 4.27341 15.9468 4.27559 15.9487 4.28079C15.9506 4.28621 15.9538 4.29622 15.9577 4.3125C15.9657 4.34673 15.9753 4.40309 15.9829 4.49624C15.9935 4.62632 15.9976 4.78489 15.9991 5.00001Z" fill="black"/>
<path d="M9 5.01762C8.93276 5.02118 8.86774 5.02545 8.80497 5.03057C8.40963 5.06288 8.01641 5.13419 7.63803 5.32699C7.07354 5.61461 6.6146 6.07355 6.32698 6.63803C6.13419 7.01641 6.06287 7.40963 6.03057 7.80498C5.99997 8.17955 5.99998 8.63431 6 9.16146V10.8385C5.99998 11.3657 5.99997 11.8205 6.03057 12.195C6.06287 12.5904 6.13419 12.9836 6.32698 13.362C6.6146 13.9265 7.07354 14.3854 7.63803 14.673C8.01641 14.8658 8.40963 14.9371 8.80497 14.9694C8.86774 14.9746 8.93276 14.9788 9 14.9824V5.01762Z" fill="black"/>
<path d="M19 14.9824C19.0672 14.9788 19.1323 14.9746 19.195 14.9694C19.5904 14.9371 19.9836 14.8658 20.362 14.673C20.9265 14.3854 21.3854 13.9265 21.673 13.362C21.8658 12.9836 21.9371 12.5904 21.9694 12.195C22 11.8205 22 11.3657 22 10.8386V9.16144C22 8.6343 22 8.17954 21.9694 7.80498C21.9371 7.40963 21.8658 7.01641 21.673 6.63803C21.3854 6.07355 20.9265 5.61461 20.362 5.32699C19.9836 5.13419 19.5904 5.06288 19.195 5.03057C19.1323 5.02545 19.0672 5.02118 19 5.01762V14.9824Z" fill="black"/>
<path d="M1 3.00001C1 2.44772 1.44772 2.00001 2 2.00001C3.65685 2.00001 5 3.34315 5 5.00001V15C5 15.5523 5.44771 16 6 16H22C22.5523 16 23 16.4477 23 17C23 17.5523 22.5523 18 22 18H20.8293C20.9398 18.3128 21 18.6494 21 19C21 20.6569 19.6569 22 18 22C16.3431 22 15 20.6569 15 19C15 18.6494 15.0602 18.3128 15.1707 18H10.8293C10.9398 18.3128 11 18.6494 11 19C11 20.6569 9.65685 22 8 22C6.34315 22 5 20.6569 5 19C5 18.6098 5.07452 18.2369 5.21009 17.8949C3.93647 17.5482 3 16.3835 3 15V5.00001C3 4.44772 2.55228 4.00001 2 4.00001C1.44772 4.00001 1 3.55229 1 3.00001Z" fill="black"/>
</svg>
