<svg width="24" height="24" viewBox="0 0 24 24" fill="none" xmlns="http://www.w3.org/2000/svg">
<path fill-rule="evenodd" clip-rule="evenodd" d="M12 2C6.47715 2 2 6.47715 2 12C2 17.5228 6.47715 22 12 22C17.5228 22 22 17.5228 22 12C22 6.47715 17.5228 2 12 2ZM6 10C6 8.34315 7.34315 7 9 7C10.6569 7 12 8.34315 12 10C12 10.5523 11.5523 11 11 11C10.4477 11 10 10.5523 10 10C10 9.44772 9.55228 9 9 9C8.44772 9 8 9.44772 8 10V14C8 14.5523 8.44772 15 9 15C9.55228 15 10 14.5523 10 14C9.44772 14 9 13.5523 9 13C9 12.4477 9.44772 12 10 12H11C11.5523 12 12 12.4477 12 13V14C12 15.6569 10.6569 17 9 17C7.34315 17 6 15.6569 6 14V10ZM14 7C13.4477 7 13 7.44772 13 8V16C13 16.5523 13.4477 17 14 17C14.5523 17 15 16.5523 15 16V13H16C16.5523 13 17 12.5523 17 12C17 11.4477 16.5523 11 16 11H15V9H17C17.5523 9 18 8.55228 18 8C18 7.44772 17.5523 7 17 7H14Z" fill="black"/>
</svg>
