<svg width="24" height="24" viewBox="0 0 24 24" fill="none" xmlns="http://www.w3.org/2000/svg">
<path d="M12 11C10.6938 11 9.58254 11.8348 9.17071 13H12C12.5523 13 13 13.4477 13 14C13 14.5523 12.5523 15 12 15H9.17071C9.58254 16.1652 10.6938 17 12 17C13.6569 17 15 15.6569 15 14C15 12.3431 13.6569 11 12 11Z" fill="black"/>
<path fill-rule="evenodd" clip-rule="evenodd" d="M3 5C3 3.34315 4.34315 2 6 2H18C19.6569 2 21 3.34315 21 5V19C21 20.6569 19.6569 22 18 22H6C4.34315 22 3 20.6569 3 19V5ZM7 5C6.44772 5 6 5.44772 6 6C6 6.55228 6.44772 7 7 7H7.01C7.56228 7 8.01 6.55228 8.01 6C8.01 5.44772 7.56228 5 7.01 5H7ZM12 9C9.23858 9 7 11.2386 7 14C7 16.7614 9.23858 19 12 19C14.7614 19 17 16.7614 17 14C17 11.2386 14.7614 9 12 9ZM9 6C9 5.44772 9.44772 5 10 5H10.01C10.5623 5 11.01 5.44772 11.01 6C11.01 6.55228 10.5623 7 10.01 7H10C9.44772 7 9 6.55228 9 6Z" fill="black"/>
</svg>
