<svg width="24" height="24" viewBox="0 0 24 24" fill="none" xmlns="http://www.w3.org/2000/svg">
<path fill-rule="evenodd" clip-rule="evenodd" d="M8.43759 2.65317C4.67374 4.08854 2 7.73203 2 12C2 17.5228 6.47715 22 12 22C17.5228 22 22 17.5228 22 12C22 10.6457 21.7308 9.35421 21.2429 8.17624C19.7413 4.55057 16.1685 2 12 2C10.7451 2 9.54424 2.23114 8.43759 2.65317ZM9.68463 8.20739C8.86855 7.79935 8.52202 6.82596 8.88237 5.99924L8.32805 4.89061C9.42774 4.32148 10.6763 4 12 4C15.9754 4 19.2735 6.8996 19.8948 10.6992C19.6458 10.754 19.3808 10.7614 19.1122 10.7131L18.4673 10.597L18.0214 11.2658C17.8427 11.5339 17.603 11.7532 17.324 11.9073L17.4991 12.0824C17.8192 12.4025 17.9991 12.8367 17.9991 13.2895C17.9991 14.1622 17.3442 14.8819 16.4991 14.9841V15.2196C16.4991 15.5821 16.4005 15.9377 16.214 16.2486L15.1479 18.0256C14.7864 18.628 14.1354 18.9966 13.4329 18.9966H12.9991C11.8945 18.9966 10.9991 18.1011 10.9991 16.9966V14.9966H9.99906C8.89449 14.9966 7.99906 14.1011 7.99906 12.9966V11.4966C7.99906 10.8671 8.29545 10.2743 8.79906 9.89657L9.86573 9.09657C10.385 8.7071 11.0166 8.49657 11.6657 8.49657L12.8065 8.49657L14.3001 7.89912L13.9272 7.65052C13.3642 7.93205 12.634 7.93205 12.0709 7.65053L11.3954 8.10088C10.8855 8.44076 10.2327 8.48141 9.68463 8.20739Z" fill="black"/>
</svg>
