<svg width="24" height="24" viewBox="0 0 24 24" fill="none" xmlns="http://www.w3.org/2000/svg">
<path d="M14.9294 6.25218C14.0124 5.87189 12.9899 5.75 12 5.75C9.61369 5.75 7.31979 6.76513 6.39944 9.09886C6.34341 9.24091 6.2931 9.38673 6.24863 9.53618C6.22879 9.60282 6.21009 9.66993 6.19253 9.73749C7.39598 10.6851 10.0268 11.1406 11.1939 11.25C11.0681 10.872 11 10.4681 11 10.05C11 7.95132 12.7013 6.25 14.8 6.25C14.8433 6.25 14.8864 6.25073 14.9294 6.25218Z" fill="black"/>
<path d="M2.87066 13.1032L6.00033 11.1892C7.00959 11.9892 9.03593 12.4396 10.3505 12.6279C10.5608 12.6604 10.7807 12.6871 11.0086 12.7072C11.068 13.5912 11.4311 14.395 11.9913 15.0096C12.6834 15.7687 13.6867 16.25 14.8 16.25C15.2181 16.25 15.622 16.1819 16 16.0561C16.378 16.1819 16.7819 16.25 17.2 16.25C18.9305 16.25 20.3848 15.0952 20.8467 13.5201C20.8966 13.3498 20.9349 13.175 20.9607 12.9968L21.1376 13.1082C21.418 13.2825 21.6915 13.5499 21.8548 13.9036C22.0294 14.2818 22.0786 14.7789 21.8211 15.2556C21.5037 15.8432 20.945 16.2889 20.3456 16.6285C19.7294 16.9777 18.9729 17.2695 18.1309 17.5047C16.4447 17.9758 14.306 18.2499 12 18.2499C9.69408 18.2499 7.55539 17.9758 5.86912 17.5047C5.0271 17.2695 4.2706 16.9777 3.6544 16.6285C3.05502 16.2889 2.49632 15.8432 2.17895 15.2556C1.92146 14.7789 1.97062 14.2818 2.14521 13.9036C2.30932 13.5481 2.58479 13.2799 2.86667 13.1057L2.87066 13.1032Z" fill="black"/>
<path fill-rule="evenodd" clip-rule="evenodd" d="M16 7.51973C16.1657 7.44106 16.3403 7.37816 16.5218 7.33295L17.1563 7.25034C17.1709 7.25011 17.1854 7.25 17.2 7.25C17.7799 7.25 18.3186 7.42629 18.7655 7.7282C19.5103 8.23138 20 9.08351 20 10.05C20 10.479 19.9031 10.8861 19.7303 11.25C19.9031 11.6139 20 12.021 20 12.45C20 12.7224 19.9608 12.9874 19.8871 13.2388C19.5465 14.4002 18.4738 15.25 17.2 15.25C16.771 15.25 16.3639 15.1531 16 14.9803C15.6361 15.1531 15.229 15.25 14.8 15.25C13.9799 15.25 13.2411 14.8962 12.7304 14.3359C12.3407 13.9084 12.0809 13.3577 12.016 12.75C12.0054 12.6514 12 12.5513 12 12.45C12 12.2084 12.0307 11.9737 12.0885 11.7498C12.1333 11.5761 12.1943 11.4089 12.2697 11.25C12.0969 10.8861 12 10.479 12 10.05C12 8.5036 13.2536 7.25 14.8 7.25C15.2289 7.25 15.6361 7.34692 16 7.51973ZM16 10.25C15.4477 10.25 15 10.6977 15 11.25C15 11.8023 15.4477 12.25 16 12.25H16.01C16.5623 12.25 17.01 11.8023 17.01 11.25C17.01 10.6977 16.5623 10.25 16.01 10.25H16Z" fill="black"/>
</svg>
