<svg width="24" height="24" viewBox="0 0 24 24" fill="none" xmlns="http://www.w3.org/2000/svg">
<path d="M5.73575 7.88889H4.00001C3.70505 7.88889 3.42514 7.75868 3.23514 7.53307C3.04513 7.30747 2.96442 7.0095 3.01457 6.71884C3.48302 4.0042 5.96312 2 8.79927 2C10.6832 2 12.366 2.87937 13.4279 4.25132C14.1809 3.80902 15.0618 3.55556 16 3.55556C18.7347 3.55556 21 5.71802 21 8.44444C21 8.99673 20.5523 9.44444 20 9.44444H17.8008V7.27783C17.8008 6.72555 17.3531 6.27783 16.8008 6.27783C16.2485 6.27783 15.8008 6.72555 15.8008 7.27783V9.44444H14.4808C14.8395 10.4283 15.014 11.5417 15.0967 12.5637C15.1952 13.7788 15.1728 15.0014 15.1019 16H16C18.7614 16 21 18.2386 21 21C21 21.5523 20.5523 22 20 22H4.00001C3.44772 22 3.00001 21.5523 3.00001 21C3.00001 18.2386 5.23858 16 8.00001 16H9.2657C9.47396 15.2792 9.70067 14.3269 9.85082 13.314C9.94831 12.6563 10.0097 11.9978 10.0189 11.3753L8.29569 13.0504C7.90756 13.4277 7.28968 13.4276 6.90158 13.0503C5.46905 11.6576 5.08013 9.62766 5.73575 7.88889Z" fill="black"/>
</svg>
