<svg width="24" height="24" viewBox="0 0 24 24" fill="none" xmlns="http://www.w3.org/2000/svg">
<path d="M6.5 14.5C5.39543 14.5 4.5 15.3954 4.5 16.5C4.5 17.6046 5.39543 18.5 6.5 18.5C7.60457 18.5 8.5 17.6046 8.5 16.5C8.5 15.3954 7.60457 14.5 6.5 14.5Z" fill="black"/>
<path fill-rule="evenodd" clip-rule="evenodd" d="M6.5 2C5.39543 2 4.5 2.89543 4.5 4V7C4.5 7.74028 4.9022 8.38663 5.5 8.73244V11.0907C2.93988 11.5609 1 13.8039 1 16.5C1 19.5376 3.46243 22 6.5 22C9.53757 22 12 19.5376 12 16.5C12 13.8039 10.0601 11.5609 7.5 11.0907V8.73244C8.0978 8.38663 8.5 7.74028 8.5 7V4C8.5 2.89543 7.60457 2 6.5 2ZM3 16.5C3 14.567 4.567 13 6.5 13C8.433 13 10 14.567 10 16.5C10 18.433 8.433 20 6.5 20C4.567 20 3 18.433 3 16.5Z" fill="black"/>
<path fill-rule="evenodd" clip-rule="evenodd" d="M14 4C14 2.89543 14.8954 2 16 2H18C19.1046 2 20 2.89543 20 4V4.5H22C22.5523 4.5 23 4.94772 23 5.5C23 6.05228 22.5523 6.5 22 6.5H12C11.4477 6.5 11 6.05228 11 5.5C11 4.94772 11.4477 4.5 12 4.5H14V4ZM12 7.5V10.5C12 12.1569 13.3431 13.5 15 13.5H19C20.6569 13.5 22 12.1569 22 10.5V7.5H12ZM18 4.5H16V4H18V4.5Z" fill="black"/>
</svg>
