<svg width="24" height="24" viewBox="0 0 24 24" fill="none" xmlns="http://www.w3.org/2000/svg">
<path fill-rule="evenodd" clip-rule="evenodd" d="M3.61498 7.5347C3.78787 7.20603 4.12864 7.00024 4.5 7.00024L15.5 7.00025C15.8714 7.00025 16.2121 7.20604 16.385 7.5347C16.5579 7.86336 16.5344 8.26076 16.324 8.56677L11 16.3108V21.0002H13.5C14.0523 21.0002 14.5 21.448 14.5 22.0002C14.5 22.5525 14.0523 23.0002 13.5 23.0002H6.5C5.94772 23.0002 5.5 22.5525 5.5 22.0002C5.5 21.448 5.94772 21.0002 6.5 21.0002H9V16.3108L3.67596 8.56677C3.46557 8.26076 3.44209 7.86336 3.61498 7.5347Z" fill="black"/>
<path d="M13.2637 6.00025C13.813 5.38635 14.6114 5 15.5 5C17.1569 5 18.5 6.34315 18.5 8C18.5 9.52771 17.3581 10.7887 15.8812 10.976L14.5515 12.9102C14.8586 12.9691 15.1757 13 15.5 13C18.2614 13 20.5 10.7614 20.5 8C20.5 5.23858 18.2614 3 15.5 3C13.4496 3 11.6874 4.23421 10.9159 6.00025L13.2637 6.00025Z" fill="black"/>
</svg>
