<svg width="24" height="24" viewBox="0 0 24 24" fill="none" xmlns="http://www.w3.org/2000/svg">
<path d="M8.5 4C8.5 2.89543 9.39543 2 10.5 2C11.6046 2 12.5 2.89543 12.5 4C12.5 5.10457 11.6046 6 10.5 6C9.39543 6 8.5 5.10457 8.5 4Z" fill="black"/>
<path d="M10 7C8.34315 7 7 8.34315 7 10V14C7 15.6569 8.34315 17 10 17H13.5C13.8788 17 14.225 17.214 14.3944 17.5528L16.3416 21.4472C16.511 21.786 16.8573 22 17.2361 22H19C19.5523 22 20 21.5523 20 21C20 20.4477 19.5523 20 19 20H17.8541L16.1833 16.6584C15.6751 15.642 14.6363 15 13.5 15H13V11H16C16.5523 11 17 10.5523 17 10C17 9.44772 16.5523 9 16 9H12.8293C12.4175 7.83481 11.3062 7 10 7Z" fill="black"/>
<path d="M5 8C5.55228 8 6 8.44772 6 9V15C6 16.6569 7.34315 18 9 18H12.5C13.0523 18 13.5 18.4477 13.5 19C13.5 19.5523 13.0523 20 12.5 20H9C6.23858 20 4 17.7614 4 15V9C4 8.44772 4.44772 8 5 8Z" fill="black"/>
</svg>
