<svg width="24" height="24" viewBox="0 0 24 24" fill="none" xmlns="http://www.w3.org/2000/svg">
<path d="M17 2C15.8954 2 15 2.89543 15 4C15 5.10457 15.8954 6 17 6C18.1046 6 19 5.10457 19 4C19 2.89543 18.1046 2 17 2Z" fill="black"/>
<path d="M14.2846 5.87411C12.3961 5.24462 10.3322 6.09954 9.44198 7.87998L9.10557 8.55279C8.85859 9.04677 9.05881 9.64744 9.55279 9.89443C10.0468 10.1414 10.6474 9.94119 10.8944 9.44721L11.2308 8.77441C11.6206 7.99485 12.4604 7.57016 13.2972 7.68797L12.0299 12.7575C11.9031 13.2644 12.1881 13.7834 12.6838 13.9487L15.5411 14.9011L18.3895 16.9357C18.5615 17.0586 18.6902 17.2327 18.757 17.4332L20.0513 21.3162C20.226 21.8402 20.7923 22.1233 21.3162 21.9487C21.8402 21.774 22.1233 21.2077 21.9487 20.6838L20.6544 16.8008C20.4539 16.1993 20.0679 15.6768 19.552 15.3082L17.1353 13.582L17.9219 10.4356L18.3234 11.0378C18.66 11.5428 19.1419 11.9338 19.7054 12.1592L21.6286 12.9285C22.1414 13.1336 22.7234 12.8842 22.9285 12.3714C23.1336 11.8586 22.8842 11.2766 22.3714 11.0715L20.4481 10.3022C20.2603 10.2271 20.0997 10.0968 19.9875 9.92845L18.3321 7.4453C18.2087 7.26027 18.0272 7.12164 17.8162 7.05132L14.2846 5.87411Z" fill="black"/>
<path d="M9.90943 11.797C10.0734 11.2696 9.77889 10.7091 9.25152 10.5451C8.72415 10.3811 8.16368 10.6757 7.99966 11.203L7.50279 12.8007L4.41957 12.0299C3.90507 11.9012 3.37964 12.1966 3.22215 12.703L1.04512 19.703C0.963441 19.9656 0.993531 20.2503 1.12831 20.49C1.26309 20.7298 1.49065 20.9034 1.75747 20.9701L5.75747 21.9701C6.27196 22.0988 6.79739 21.8034 6.95489 21.297L9.90943 11.797Z" fill="black"/>
<path d="M12.9806 16.1961C13.0889 15.6546 12.7377 15.1277 12.1961 15.0194C11.6546 14.9111 11.1277 15.2623 11.0194 15.8039L10.5534 18.134L9.14251 20.4855C8.85836 20.9591 9.01193 21.5733 9.48551 21.8575C9.95909 22.1416 10.5733 21.9881 10.8575 21.5145L12.3575 19.0145C12.4165 18.9162 12.4581 18.8085 12.4806 18.6961L12.9806 16.1961Z" fill="black"/>
</svg>
