<svg width="24" height="24" viewBox="0 0 24 24" fill="none" xmlns="http://www.w3.org/2000/svg">
<path d="M8.79096 4.23095C8.23965 4.02108 7.62381 4.0653 7.10814 4.35178L4.81477 5.62587C4.4812 5.81119 4.28216 6.1702 4.30173 6.5513C4.3213 6.9324 4.55605 7.26914 4.90685 7.41932L9.13121 9.22783L6.6104 10.6283L5.02555 9.64926C4.6928 9.44371 4.27074 9.45102 3.94531 9.66798L2.44531 10.668C2.20719 10.8267 2.0485 11.0799 2.00939 11.3634C1.97028 11.6469 2.05451 11.9335 2.24075 12.1508L5.24075 15.6508C5.43073 15.8725 5.70808 16 6.00001 16H10.0004C10.1704 16 10.3375 15.9567 10.4861 15.8742L19.4861 10.8742C19.5673 10.8291 19.6418 10.7728 19.7075 10.7071L21.2342 9.18046C21.7248 8.68986 22.0004 8.02446 22.0004 7.33064C22.0004 5.7571 20.6213 4.53963 19.0599 4.73481L17.2609 4.95969C16.8799 5.00731 16.5117 5.1276 16.1761 5.31404L14.3301 6.33956L8.79096 4.23095Z" fill="black"/>
<path d="M3.00001 18C2.44772 18 2.00001 18.4477 2.00001 19C2.00001 19.5523 2.44772 20 3.00001 20H21C21.5523 20 22 19.5523 22 19C22 18.4477 21.5523 18 21 18H3.00001Z" fill="black"/>
</svg>
