<svg width="24" height="24" viewBox="0 0 24 24" fill="none" xmlns="http://www.w3.org/2000/svg">
<path d="M2 12.0001C2.00001 13.5647 2.35935 15.0454 3 16.3641V12.5836C2.64302 12.4276 2.30775 12.2312 2 12.0001Z" fill="black"/>
<path d="M7 20.6622C8.47087 21.513 10.1786 22 12 22C13.4248 22 14.78 21.702 16.0067 21.165C16.0023 21.1106 16 21.0556 16 21V16.4722C14.9385 17.4223 13.5367 18 12 18C9.91303 18 8.07492 16.9345 7 15.3178V20.6622Z" fill="black"/>
<path d="M8 12.0001C8.00005 14.2092 9.79089 16 12 16C14.2091 16 16 14.2091 16 12C16 9.79086 14.2091 8 12 8C11.2589 8 10.5649 8.20153 9.9698 8.55278C9.81499 9.96094 9.07563 11.1923 8 12.0001Z" fill="black"/>
<path d="M10 6.34141C10.6256 6.12031 11.2987 6 12 6C13.5367 6 14.9385 6.57771 16 7.52779V3C16 2.94445 16.0023 2.88943 16.0067 2.83502C14.78 2.29798 13.4248 2 12 2C11.261 2 10.5407 2.08016 9.84735 2.23227C9.9457 2.46867 10 2.72799 10 3V6.34141Z" fill="black"/>
<path d="M20 18.001V14.6583C20.6924 14.4135 21.3266 14.0453 21.8759 13.5801C21.6154 15.2208 20.9559 16.7286 20 18.001Z" fill="black"/>
<path d="M3 3C3 2.44772 2.55228 2 2 2C1.44772 2 1 2.44772 1 3V8C1 9.86384 2.27477 11.4299 4 11.874V21C4 21.5523 4.44772 22 5 22C5.55228 22 6 21.5523 6 21V11.874C7.72523 11.4299 9 9.86384 9 8V3C9 2.44772 8.55228 2 8 2C7.44772 2 7 2.44772 7 3V8C7 8.74028 6.5978 9.38663 6 9.73244V3C6 2.44772 5.55228 2 5 2C4.44772 2 4 2.44772 4 3V9.73244C3.4022 9.38663 3 8.74028 3 8V3Z" fill="black"/>
<path d="M18 2C17.4477 2 17 2.44772 17 3V21C17 21.5523 17.4477 22 18 22C18.5523 22 19 21.5523 19 21V13.9C21.2822 13.4367 23 11.419 23 9V7C23 4.23858 20.7614 2 18 2Z" fill="black"/>
</svg>
