<svg width="24" height="24" viewBox="0 0 24 24" fill="none" xmlns="http://www.w3.org/2000/svg">
<path d="M12.9986 3C12.9986 2.44772 12.5509 2 11.9986 2C11.4463 2 10.9986 2.44772 10.9986 3V21C10.9986 21.5523 11.4463 22 11.9986 22C12.5509 22 12.9986 21.5523 12.9986 21V3Z" fill="black"/>
<path d="M17.9986 2C16.6179 2 15.4986 3.11929 15.4986 4.5C15.4986 5.88071 16.6179 7 17.9986 7C19.3793 7 20.4986 5.88071 20.4986 4.5C20.4986 3.11929 19.3793 2 17.9986 2Z" fill="black"/>
<path d="M5.99857 2.5C4.61785 2.5 3.49857 3.61929 3.49857 5C3.49857 6.38071 4.61785 7.5 5.99857 7.5C7.37928 7.5 8.49857 6.38071 8.49857 5C8.49857 3.61929 7.37928 2.5 5.99857 2.5Z" fill="black"/>
<path d="M17.7496 8.5C16.246 8.5 14.9746 9.61309 14.7759 11.1035L14.1583 15.7357C14.0282 16.7112 14.6214 17.5982 15.4986 17.895V21C15.4986 21.5523 15.9463 22 16.4986 22C17.0509 22 17.4986 21.5523 17.4986 21V18H18.4986V21C18.4986 21.5523 18.9463 22 19.4986 22C20.0508 22 20.4986 21.5523 20.4986 21V17.895C21.3757 17.5982 21.9689 16.7112 21.8388 15.7357L21.2212 11.1035C21.0225 9.61309 19.7511 8.5 18.2475 8.5H17.7496Z" fill="black"/>
<path d="M5 9C3.34231 9 1.99881 10.3445 2 12.0022L2.00176 14.4509C2.00242 15.3811 2.63806 16.1626 3.49857 16.3856V21C3.49857 21.5523 3.94628 22 4.49857 22C5.05085 22 5.49857 21.5523 5.49857 21V16.4495H6.49857V21C6.49857 21.5523 6.94628 22 7.49857 22C8.05085 22 8.49857 21.5523 8.49857 21V16.3875C9.36316 16.1668 10.0025 15.3828 10.0025 14.4495V12C10.0025 10.3431 8.65933 9 7.00247 9H5Z" fill="black"/>
</svg>
