<svg width="24" height="24" viewBox="0 0 24 24" fill="none" xmlns="http://www.w3.org/2000/svg">
<path fill-rule="evenodd" clip-rule="evenodd" d="M7.49984 2C7.19604 2 6.90872 2.1381 6.71895 2.37534L4.71911 4.87534C4.46796 5.18929 4.42926 5.62313 4.62087 5.97658L6.06625 8.64283C3.66586 9.75229 2 12.1807 2 15C2 18.866 5.13401 22 9 22C12.866 22 16 18.866 16 15C16 12.1806 14.3339 9.75232 11.9335 8.64286L13.3791 5.97664C13.5708 5.62315 13.532 5.18925 13.2808 4.87527L11.2807 2.37527C11.0909 2.13808 10.8036 2 10.4998 2H7.49984ZM7.74907 10.1575C8.14774 10.0549 8.56691 10 9 10C9.43303 10 9.85188 10.0549 10.2506 10.1575C12.4074 10.7126 14 12.6715 14 15C14 17.7614 11.7614 20 9 20C6.23858 20 4 17.7614 4 15C4 12.6715 5.59232 10.7125 7.74907 10.1575Z" fill="black"/>
<path d="M22 15C22 11.134 18.866 8 15 8C14.3955 8 13.8089 8.07662 13.2494 8.22068C14.0127 8.70012 14.6893 9.3049 15.2503 10.0062C17.8954 10.1366 20 12.3225 20 15C20 17.6775 17.8954 19.8634 15.2503 19.9938C14.6893 20.6951 14.0127 21.2999 13.2494 21.7793C13.8089 21.9234 14.3955 22 15 22C18.866 22 22 18.866 22 15Z" fill="black"/>
</svg>
