<svg width="24" height="24" viewBox="0 0 24 24" fill="none" xmlns="http://www.w3.org/2000/svg">
<path fill-rule="evenodd" clip-rule="evenodd" d="M10.4998 2C10.196 2 9.90872 2.1381 9.71895 2.37534L7.71911 4.87534C7.46796 5.18929 7.42926 5.62313 7.62087 5.97658L9.06625 8.64283C6.66586 9.75229 5 12.1807 5 15C5 18.866 8.13401 22 12 22C15.866 22 19 18.866 19 15C19 12.1806 17.3339 9.75232 14.9335 8.64286L16.3791 5.97664C16.5708 5.62315 16.532 5.18925 16.2808 4.87527L14.2807 2.37527C14.0909 2.13808 13.8036 2 13.4998 2H10.4998ZM10.7491 10.1575C11.1477 10.0549 11.5669 10 12 10C12.433 10 12.8519 10.0549 13.2506 10.1575C15.4074 10.7126 17 12.6715 17 15C17 17.7614 14.7614 20 12 20C9.23858 20 7 17.7614 7 15C7 12.6715 8.59232 10.7125 10.7491 10.1575Z" fill="black"/>
</svg>
