<svg width="24" height="24" viewBox="0 0 24 24" fill="none" xmlns="http://www.w3.org/2000/svg">
<path d="M4 5.12132C4 4.50203 4.50203 4 5.12132 4C5.41871 4 5.70393 4.11814 5.91421 4.32843L8.65652 7.07073C7.55245 8.73724 7.55268 10.9195 8.65671 12.5859L8.58586 12.6568C8.19534 13.0473 8.19534 13.6805 8.58586 14.071C8.97639 14.4615 9.60955 14.4615 10.0001 14.071L10.6942 13.3768L10.7032 13.3681L10.7205 13.3506L16.3509 7.72014L16.3685 7.7028L16.3772 7.69388L17.0711 6.99993C17.4617 6.60941 17.4617 5.97624 17.0711 5.58572C16.6806 5.19519 16.0475 5.19519 15.6569 5.58572L15.5863 5.65636C13.9197 4.55234 11.7372 4.55243 10.0707 5.65651L7.32843 2.91421C6.74307 2.32885 5.94915 2 5.12132 2C3.39746 2 2 3.39746 2 5.12132V21C2 21.5523 2.44772 22 3 22C3.55228 22 4 21.5523 4 21V5.12132Z" fill="black"/>
<path d="M18 9C17.4477 9 17 9.44772 17 10C17 10.5523 17.4477 11 18 11H18.01C18.5623 11 19.01 10.5523 19.01 10C19.01 9.44772 18.5623 9 18.01 9H18Z" fill="black"/>
<path d="M20.9883 10C20.436 10 19.9883 10.4477 19.9883 11C19.9883 11.5523 20.436 12 20.9883 12H20.9983C21.5506 12 21.9983 11.5523 21.9983 11C21.9983 10.4477 21.5506 10 20.9983 10H20.9883Z" fill="black"/>
<path d="M15.4922 11.5C14.9399 11.5 14.4922 11.9477 14.4922 12.5C14.4922 13.0523 14.9399 13.5 15.4922 13.5H15.5022C16.0545 13.5 16.5022 13.0523 16.5022 12.5C16.5022 11.9477 16.0545 11.5 15.5022 11.5H15.4922Z" fill="black"/>
<path d="M18.75 12.25C18.1977 12.25 17.75 12.6977 17.75 13.25C17.75 13.8023 18.1977 14.25 18.75 14.25H18.76C19.3123 14.25 19.76 13.8023 19.76 13.25C19.76 12.6977 19.3123 12.25 18.76 12.25H18.75Z" fill="black"/>
<path d="M13 14C12.4477 14 12 14.4477 12 15C12 15.5523 12.4477 16 13 16H13.01C13.5623 16 14.01 15.5523 14.01 15C14.01 14.4477 13.5623 14 13.01 14H13Z" fill="black"/>
<path d="M16.5 14.5C15.9477 14.5 15.5 14.9477 15.5 15.5C15.5 16.0523 15.9477 16.5 16.5 16.5H16.51C17.0623 16.5 17.51 16.0523 17.51 15.5C17.51 14.9477 17.0623 14.5 16.51 14.5H16.5Z" fill="black"/>
<path d="M13.9883 17C13.436 17 12.9883 17.4477 12.9883 18C12.9883 18.5523 13.436 19 13.9883 19H13.9983C14.5506 19 14.9983 18.5523 14.9983 18C14.9983 17.4477 14.5506 17 13.9983 17H13.9883Z" fill="black"/>
</svg>
