<svg width="24" height="24" viewBox="0 0 24 24" fill="none" xmlns="http://www.w3.org/2000/svg">
<path d="M16.1819 8.75534C15.8158 7.49056 15.1335 6.29724 14.1352 5.30071L13.4208 4.58763C13.0286 4.19606 12.5129 4.00019 12.0008 4C11.4882 3.99981 10.9718 4.19567 10.5792 4.58763L9.86481 5.30071C8.86648 6.29724 8.18423 7.49056 7.81808 8.75534C8.46196 9.02151 9.07211 9.35291 9.63994 9.74128C10.5443 10.3599 11.3422 11.1236 12 11.9994C12.6578 11.1236 13.4557 10.3599 14.3601 9.74128C14.9279 9.35291 15.538 9.02151 16.1819 8.75534Z" fill="black"/>
<path d="M16.4025 9.7481C15.8824 9.97511 15.3879 10.2498 14.9246 10.5667C14.0136 11.1898 13.2226 11.9766 12.5941 12.8849C12.3759 13.2003 12.1773 13.5303 12 13.8732C11.8227 13.5303 11.6241 13.2003 11.4059 12.8849C10.7774 11.9766 9.98639 11.1898 9.07539 10.5667C8.61211 10.2498 8.11761 9.97511 7.59754 9.7481C6.49524 9.26693 5.2781 9 4 9C2.89543 9 2 9.89543 2 11C2 15.9706 6.02944 20 11 20H13C17.9706 20 22 15.9706 22 11C22 9.89543 21.1046 9 20 9C18.7219 9 17.5048 9.26693 16.4025 9.7481Z" fill="black"/>
</svg>
