<svg width="24" height="24" viewBox="0 0 24 24" fill="none" xmlns="http://www.w3.org/2000/svg">
<path fill-rule="evenodd" clip-rule="evenodd" d="M16 4.5C16 3.94772 16.4477 3.5 17 3.5H21C21.5523 3.5 22 3.94772 22 4.5C22 5.05228 21.5523 5.5 21 5.5H18V9.5C18 10.0523 17.5523 10.5 17 10.5H13V14.5C13 15.0523 12.5523 15.5 12 15.5H8V19.5C8 20.0523 7.55228 20.5 7 20.5H3C2.44772 20.5 2 20.0523 2 19.5C2 18.9477 2.44772 18.5 3 18.5H6V14.5C6 13.9477 6.44772 13.5 7 13.5H11V9.5C11 8.94772 11.4477 8.5 12 8.5H16V4.5Z" fill="black"/>
</svg>
