<svg width="24" height="24" viewBox="0 0 24 24" fill="none" xmlns="http://www.w3.org/2000/svg">
<path fill-rule="evenodd" clip-rule="evenodd" d="M11 1C9.34315 1 8 2.34315 8 4V6H7C5.34315 6 4 7.34315 4 9V19C4 20.6569 5.34315 22 7 22C7 22.5523 7.44772 23 8 23C8.55228 23 9 22.5523 9 22H15C15 22.5523 15.4477 23 16 23C16.5523 23 17 22.5523 17 22C18.6569 22 20 20.6569 20 19V9C20 7.34315 18.6569 6 17 6H16V4C16 2.34315 14.6569 1 13 1H11ZM10 6H14V4C14 3.44772 13.5523 3 13 3H11C10.4477 3 10 3.44772 10 4V6ZM8 12C8 11.4477 8.44772 11 9 11H15C15.5523 11 16 11.4477 16 12C16 12.5523 15.5523 13 15 13H9C8.44772 13 8 12.5523 8 12ZM9 15C8.44772 15 8 15.4477 8 16C8 16.5523 8.44772 17 9 17H15C15.5523 17 16 16.5523 16 16C16 15.4477 15.5523 15 15 15H9Z" fill="black"/>
</svg>
