<svg width="24" height="24" viewBox="0 0 24 24" fill="none" xmlns="http://www.w3.org/2000/svg">
<path d="M17.1477 3.73821C13.0068 1.90155 8.05922 3.60174 6.10102 7.62096C5.98231 7.86462 5.96759 8.14603 6.06023 8.40075C6.15287 8.65547 6.34494 8.86167 6.59244 8.97213L9.48043 10.2611C9.61035 9.94744 9.75195 9.63276 9.90498 9.31865L9.90406 9.31821C10.8074 7.46404 11.9795 5.89486 13.1826 4.86526C13.7831 4.35138 14.4266 3.94164 15.0815 3.71817C15.7344 3.49538 16.4627 3.43921 17.1477 3.73821Z" fill="black"/>
<path d="M14.1311 12.3367L15.1242 12.7799C15.2922 12.4878 15.4546 12.1822 15.6094 11.8645L15.6085 11.8641C16.4195 10.1994 16.8272 8.60289 16.867 7.3924C16.8869 6.78555 16.8127 6.32678 16.6926 6.01736C16.5762 5.71724 16.4423 5.61342 16.351 5.57269C16.2538 5.52929 16.0653 5.49572 15.7274 5.611C15.3858 5.72758 14.9603 5.97635 14.483 6.38479C13.5307 7.19976 12.5128 8.53027 11.7022 10.1937L11.7032 10.1942C11.5585 10.4911 11.4267 10.7858 11.3075 11.0765L12.3037 11.5211L12.3032 11.5221L14.1306 12.3377L14.1311 12.3367Z" fill="black"/>
<path d="M13.6924 13.2372L11.865 12.4216L8.65992 19H3C2.44772 19 2 19.4477 2 20C2 20.5523 2.44772 21 3 21H21C21.5523 21 22 20.5523 22 20C22 19.4477 21.5523 19 21 19H10.8847L13.6924 13.2372Z" fill="black"/>
<path d="M16.959 13.5988L19.9027 14.9126C20.3951 15.1323 20.9731 14.9221 21.2092 14.4374C23.18 10.3923 21.3377 5.6199 17.1845 3.75464C17.8703 4.06751 18.3075 4.65038 18.5572 5.29376C18.8055 5.93357 18.8914 6.6819 18.8659 7.45809C18.8148 9.01355 18.3094 10.8867 17.4066 12.7396L17.4075 12.7401C17.2644 13.0338 17.1146 13.3204 16.959 13.5988Z" fill="black"/>
</svg>
