<svg width="24" height="24" viewBox="0 0 24 24" fill="none" xmlns="http://www.w3.org/2000/svg">
<path fill-rule="evenodd" clip-rule="evenodd" d="M14 10V3.50002C14 2.67159 13.3293 2.00002 12.5009 2.00002H11.5009C10.6725 2.00002 10 2.67159 10 3.50002V10H14Z" fill="black"/>
<path d="M4.77574 2.00002C2.72807 2.00002 1.28216 4.0061 1.92969 5.9487L3.28012 10H9V3.5C9 2.67157 8.32842 2 7.49999 2L4.77574 2.00002Z" fill="black"/>
<path d="M22.0721 5.9487C22.7196 4.0061 21.2737 2.00002 19.226 2.00002H16.5C15.6716 2.00002 15 2.67159 15 3.50002V10H20.7216L22.0721 5.9487Z" fill="black"/>
<path fill-rule="evenodd" clip-rule="evenodd" d="M3 18C3 15.7909 4.79086 14 7 14C8.86384 14 10.4299 15.2748 10.874 17H13.126C13.5701 15.2748 15.1362 14 17 14C19.2091 14 21 15.7909 21 18C21 20.2092 19.2091 22 17 22C15.1362 22 13.5701 20.7252 13.126 19H10.874C10.4299 20.7252 8.86384 22 7 22C4.79086 22 3 20.2092 3 18ZM8.73244 19C8.38663 19.5978 7.74028 20 7 20C6.25972 20 5.61337 19.5978 5.26756 19H8.73244ZM8.73244 17C8.38663 16.4022 7.74028 16 7 16C6.25972 16 5.61337 16.4022 5.26756 17H8.73244ZM15.2676 19C15.6134 19.5978 16.2597 20 17 20C17.7403 20 18.3866 19.5978 18.7324 19H15.2676ZM18.7324 17C18.3866 16.4022 17.7403 16 17 16C16.2597 16 15.6134 16.4022 15.2676 17H18.7324Z" fill="black"/>
<path fill-rule="evenodd" clip-rule="evenodd" d="M5 13C5 13.5523 4.55228 14 4 14C3.44772 14 3 13.5523 3 13V12.5C3 11.6716 3.67157 11 4.5 11H19.5C20.3284 11 21 11.6716 21 12.5V13C21 13.5523 20.5523 14 20 14C19.4477 14 19 13.5523 19 13H5Z" fill="black"/>
</svg>
