<svg width="24" height="24" viewBox="0 0 24 24" fill="none" xmlns="http://www.w3.org/2000/svg">
<path fill-rule="evenodd" clip-rule="evenodd" d="M6 2C4.34315 2 3 3.34315 3 5V19C3 20.6569 4.34315 22 6 22H18C19.6569 22 21 20.6569 21 19V5C21 3.34315 19.6569 2 18 2H6ZM6 6C6 5.44772 6.44772 5 7 5H7.01C7.56228 5 8.01 5.44772 8.01 6C8.01 6.55228 7.56228 7 7.01 7H7C6.44772 7 6 6.55228 6 6ZM9 6C9 5.44772 9.44772 5 10 5H10.01C10.5623 5 11.01 5.44772 11.01 6C11.01 6.55228 10.5623 7 10.01 7H10C9.44772 7 9 6.55228 9 6ZM12 20C15.3137 20 18 17.3137 18 14C18 10.6863 15.3137 8 12 8C8.68629 8 6 10.6863 6 14C6 17.3137 8.68629 20 12 20Z" fill="black"/>
<path d="M8 13C7.44772 13 7 13.4477 7 14C7 16.7614 9.23858 19 12 19C13.5498 19 14.9355 18.2937 15.851 17.1892C16.4376 16.4815 16.4047 15.6069 15.9792 14.9657C15.5835 14.3695 14.8796 14 14.118 14C13.538 14 12.966 13.865 12.4472 13.6056C11.6507 13.2073 10.7725 13 9.88197 13H8Z" fill="black"/>
</svg>
