<svg width="24" height="24" viewBox="0 0 24 24" fill="none" xmlns="http://www.w3.org/2000/svg">
<path d="M10 2C8.89543 2 8 2.89543 8 4C8 5.10457 8.89543 6 10 6C11.1046 6 12 5.10457 12 4C12 2.89543 11.1046 2 10 2Z" fill="black"/>
<path d="M11.4704 7.75746C11.3364 7.22166 10.7935 6.8959 10.2577 7.02985C9.72191 7.1638 9.39614 7.70673 9.53009 8.24253L10.0229 10.2136C10.0272 10.2336 10.0321 10.2533 10.0377 10.2728L10.8407 13.4851C11.0633 14.3754 11.8633 15 12.781 15H17.2795L19.0516 20.3162C19.2168 20.8119 19.7358 21.0969 20.2428 20.9701L22.2428 20.4701C22.7786 20.3362 23.1043 19.7933 22.9704 19.2575C22.8364 18.7217 22.2935 18.3959 21.7577 18.5299L20.6561 18.8053L19.1768 14.3675C18.9046 13.5509 18.1403 13 17.2795 13H12.781L12.281 11H17C17.5523 11 18 10.5523 18 10C18 9.44772 17.5523 9 17 9H11.781L11.4704 7.75746Z" fill="black"/>
<path d="M7.58222 10.0171C8.13263 9.97171 8.54202 9.4887 8.49661 8.93828C8.45121 8.38787 7.9682 7.97848 7.41778 8.02389C3.82368 8.32039 1 11.3299 1 15C1 18.866 4.13401 22 8 22C11.0494 22 13.641 20.0506 14.6014 17.3332C14.7855 16.8125 14.5126 16.2412 13.9918 16.0571C13.4711 15.8731 12.8998 16.146 12.7157 16.6667C12.0289 18.6101 10.1755 20 8 20C5.23858 20 3 17.7614 3 15C3 12.3794 5.01679 10.2288 7.58222 10.0171Z" fill="black"/>
</svg>
