<svg width="24" height="24" viewBox="0 0 24 24" fill="none" xmlns="http://www.w3.org/2000/svg">
<path fill-rule="evenodd" clip-rule="evenodd" d="M6 7.5C6 6.67157 6.67157 6 7.5 6C8.32843 6 9 6.67157 9 7.5V9C9 9.55228 9.44772 10 10 10C10.5523 10 11 9.55228 11 9V7.5C11 5.567 9.433 4 7.5 4C5.567 4 4 5.567 4 7.5V17.5662C3.93836 17.5175 3.87931 17.4651 3.82322 17.409L3.20711 16.7929C2.81658 16.4024 2.18342 16.4024 1.79289 16.7929C1.40237 17.1834 1.40237 17.8166 1.79289 18.2071L2.40901 18.8232C3.16249 19.5767 4.18442 20 5.25 20C6.31558 20 7.33751 19.5767 8.09099 18.8232L8.32322 18.591C8.70163 18.2126 9.21485 18 9.75 18C10.2851 18 10.7984 18.2126 11.1768 18.591L11.409 18.8232C12.1625 19.5767 13.1844 20 14.25 20C15.3156 20 16.3375 19.5767 17.091 18.8232L17.3232 18.591C17.7016 18.2126 18.2149 18 18.75 18C19.2851 18 19.7984 18.2126 20.1768 18.591L20.7929 19.2071C21.1834 19.5976 21.8166 19.5976 22.2071 19.2071C22.5976 18.8166 22.5976 18.1834 22.2071 17.7929L21.591 17.1768C20.8375 16.4233 19.8156 16 18.75 16C17.6844 16 16.6625 16.4233 15.909 17.1768L15.6768 17.409C15.4818 17.604 15.2511 17.7549 15 17.8554V7.5C15 6.67157 15.6716 6 16.5 6C17.3284 6 18 6.67157 18 7.5V9C18 9.55228 18.4477 10 19 10C19.5523 10 20 9.55228 20 9V7.5C20 5.567 18.433 4 16.5 4C14.567 4 13 5.567 13 7.5V12H6V7.5ZM6 14V17.8554C6.25108 17.7549 6.48182 17.604 6.67678 17.409L6.90901 17.1768C7.66249 16.4233 8.68442 16 9.75 16C10.8156 16 11.8375 16.4233 12.591 17.1768L12.8232 17.409C12.8793 17.4651 12.9384 17.5175 13 17.5662V14H6Z" fill="black"/>
</svg>
