<svg width="24" height="24" viewBox="0 0 24 24" fill="none" xmlns="http://www.w3.org/2000/svg">
<path fill-rule="evenodd" clip-rule="evenodd" d="M14 4C14 2.89543 14.8954 2 16 2C17.1046 2 18 2.89543 18 4C18 5.10457 17.1046 6 16 6C14.8954 6 14 5.10457 14 4ZM8.26393 8.23607C9.25189 6.26015 11.6546 5.45926 13.6305 6.44721L14.9184 7.09116C15.4059 7.31455 15.6322 7.88591 15.4242 8.38475L13.7682 12.3575C13.9245 12.5618 14.0679 12.7763 14.1973 13H18.6122C19.9773 13 20.9412 14.3374 20.5095 15.6325L18.9483 20.3162C18.7736 20.8402 18.2073 21.1233 17.6834 20.9487C17.1594 20.774 16.8763 20.2077 17.0509 19.6838L18.6122 15H14.917C14.9716 15.3252 15 15.6593 15 16C15 19.3137 12.3137 22 9 22C5.68629 22 3 19.3137 3 16C3 12.693 5.67547 10.0108 8.97996 10C8.83592 9.99724 8.69022 9.96315 8.55279 9.89443C8.05881 9.64744 7.85858 9.04676 8.10557 8.55279L8.26393 8.23607ZM9.01871 10C10.1878 10.0036 11.2782 10.3415 12.1993 10.9232L13.2188 8.47744L12.7361 8.23607C11.7481 7.74209 10.5468 8.14254 10.0528 9.13049L9.89443 9.44721C9.72233 9.79141 9.37851 9.99299 9.01871 10ZM12.6454 14.3511C12.0173 12.9646 10.6213 12 9 12C6.79086 12 5 13.7909 5 16C5 18.2091 6.79086 20 9 20C11.2091 20 13 18.2091 13 16C13 15.4497 12.8889 14.9253 12.6878 14.4481C12.672 14.4167 12.6579 14.3843 12.6454 14.3511Z" fill="black"/>
</svg>
