<svg width="24" height="24" viewBox="0 0 24 24" fill="none" xmlns="http://www.w3.org/2000/svg">
<path d="M19 5.5L21 8L17.6636 10.0018C16.5821 10.6507 15.7326 11.624 15.2357 12.7833L13.8658 15.9799C13.3068 17.2842 12.3035 18.3483 11.0342 18.9829L7 21L5 18.5M19 5.5L17 3L13.6636 5.00181C12.5821 5.65073 11.7326 6.62397 11.2357 7.78326L9.86578 10.9799C9.30675 12.2842 8.30349 13.3483 7.03419 13.9829L3 16L5 18.5M19 5.5L15.6636 7.50181C14.5821 8.15073 13.7326 9.12397 13.2357 10.2833L11.8658 13.4799C11.3068 14.7842 10.3035 15.8483 9.03419 16.4829L5 18.5" stroke="black" stroke-width="2" stroke-linecap="round" stroke-linejoin="round"/>
</svg>
