<svg width="24" height="24" viewBox="0 0 24 24" fill="none" xmlns="http://www.w3.org/2000/svg">
<path d="M16.8465 15.4619L15.8683 15.254L16.8465 15.4619ZM8.53812 7.15351L8.33022 6.17536L8.53812 7.15351ZM16.822 15.5728L17.7966 15.7966L16.822 15.5728ZM8.42715 7.17804L8.65089 8.15268L8.42715 7.17804ZM9.90243 4.90381L9.19533 4.1967V4.1967L9.90243 4.90381ZM16.464 14.6386C15.948 14.8355 15.6894 15.4135 15.8863 15.9295C16.0833 16.4454 16.6612 16.704 17.1772 16.5071L16.464 14.6386ZM7.49153 6.82143C7.29458 7.3374 7.5532 7.91534 8.06917 8.11229C8.58515 8.30924 9.16309 8.05062 9.36004 7.53464L7.49153 6.82143ZM10 17.5C9.44772 17.5 9 17.9477 9 18.5C9 19.0523 9.44772 19.5 10 19.5V17.5ZM10.01 19.5C10.5623 19.5 11.01 19.0523 11.01 18.5C11.01 17.9477 10.5623 17.5 10.01 17.5V19.5ZM13.75 15.5C13.1977 15.5 12.75 15.9477 12.75 16.5C12.75 17.0523 13.1977 17.5 13.75 17.5V15.5ZM13.76 17.5C14.3123 17.5 14.76 17.0523 14.76 16.5C14.76 15.9477 14.3123 15.5 13.76 15.5V17.5ZM7.99219 9C7.4399 9 6.99219 9.44772 6.99219 10C6.99219 10.5523 7.4399 11 7.99219 11V9ZM8.00219 11C8.55447 11 9.00219 10.5523 9.00219 10C9.00219 9.44772 8.55447 9 8.00219 9V11ZM12 9C11.4477 9 11 9.44772 11 10C11 10.5523 11.4477 11 12 11V9ZM12.01 11C12.5623 11 13.01 10.5523 13.01 10C13.01 9.44772 12.5623 9 12.01 9V11ZM14.25 12C13.6977 12 13.25 12.4477 13.25 13C13.25 13.5523 13.6977 14 14.25 14V12ZM14.26 14C14.8123 14 15.26 13.5523 15.26 13C15.26 12.4477 14.8123 12 14.26 12V14ZM6.25 15.5C5.69772 15.5 5.25 15.9477 5.25 16.5C5.25 17.0523 5.69772 17.5 6.25 17.5V15.5ZM6.26 17.5C6.81228 17.5 7.26 17.0523 7.26 16.5C7.26 15.9477 6.81228 15.5 6.26 15.5V17.5ZM5.75 12C5.19772 12 4.75 12.4477 4.75 13C4.75 13.5523 5.19772 14 5.75 14V12ZM5.76 14C6.31228 14 6.76 13.5523 6.76 13C6.76 12.4477 6.31228 12 5.76 12V14ZM10 13C10.5523 13 11 13.4477 11 14H13C13 12.3431 11.6569 11 10 11V13ZM11 14C11 14.5523 10.5523 15 10 15V17C11.6569 17 13 15.6569 13 14H11ZM10 15C9.44772 15 9 14.5523 9 14H7C7 15.6569 8.34315 17 10 17V15ZM9 14C9 13.4477 9.44772 13 10 13V11C8.34315 11 7 12.3431 7 14H9ZM14.2426 18.2426C11.8995 20.5858 8.10051 20.5858 5.75736 18.2426L4.34315 19.6569C7.46734 22.781 12.5327 22.781 15.6569 19.6569L14.2426 18.2426ZM5.75736 18.2426C3.41421 15.8995 3.41421 12.1005 5.75736 9.75736L4.34315 8.34315C1.21895 11.4673 1.21895 16.5327 4.34315 19.6569L5.75736 18.2426ZM14.2426 9.75736C15.7341 11.2488 16.2773 13.33 15.8683 15.254L17.8246 15.6698C18.3684 13.1114 17.6471 10.3334 15.6569 8.34315L14.2426 9.75736ZM8.74602 8.13166C10.67 7.72273 12.7512 8.26594 14.2426 9.75736L15.6569 8.34315C13.6666 6.35289 10.8886 5.6316 8.33022 6.17536L8.74602 8.13166ZM15.8683 15.254C15.8616 15.2857 15.8546 15.3174 15.8473 15.3491L17.7966 15.7966C17.8063 15.7544 17.8156 15.7121 17.8246 15.6698L15.8683 15.254ZM15.8473 15.3491C15.604 16.409 15.0701 17.4152 14.2426 18.2426L15.6569 19.6569C16.7575 18.5562 17.4717 17.2118 17.7966 15.7966L15.8473 15.3491ZM5.75736 9.75736C6.58478 8.92993 7.59104 8.39598 8.65089 8.15268L8.20342 6.20339C6.78817 6.52826 5.44384 7.24246 4.34315 8.34315L5.75736 9.75736ZM8.65089 8.15268C8.68255 8.14542 8.71427 8.13841 8.74602 8.13166L8.33022 6.17536C8.28789 6.18435 8.24562 6.1937 8.20342 6.20339L8.65089 8.15268ZM18.3877 5.61091C20.5356 7.7588 20.5356 11.2412 18.3877 13.3891L19.8019 14.8033C22.7309 11.8744 22.7309 7.12563 19.8019 4.1967L18.3877 5.61091ZM10.6095 5.61091C12.7574 3.46303 16.2398 3.46303 18.3877 5.61091L19.8019 4.1967C16.873 1.26777 12.1243 1.26777 9.19533 4.1967L10.6095 5.61091ZM18.3877 13.3891C17.8212 13.9556 17.164 14.3714 16.464 14.6386L17.1772 16.5071C18.1351 16.1415 19.0324 15.5728 19.8019 14.8033L18.3877 13.3891ZM9.36004 7.53464C9.62724 6.83462 10.043 6.17746 10.6095 5.61091L9.19533 4.1967C8.42584 4.96618 7.85717 5.8635 7.49153 6.82143L9.36004 7.53464ZM10 19.5H10.01V17.5H10V19.5ZM13.75 17.5H13.76V15.5H13.75V17.5ZM7.99219 11H8.00219V9H7.99219V11ZM12 11H12.01V9H12V11ZM14.25 14H14.26V12H14.25V14ZM6.25 17.5H6.26V15.5H6.25V17.5ZM5.75 14H5.76V12H5.75V14Z" fill="black"/>
</svg>
