<svg width="24" height="24" viewBox="0 0 24 24" fill="none" xmlns="http://www.w3.org/2000/svg">
<path d="M21 22V23C21.5523 23 22 22.5523 22 22H21ZM5 22H4C4 22.5523 4.44772 23 5 23V22ZM13 18.5C12.4477 18.5 12 18.9477 12 19.5C12 20.0523 12.4477 20.5 13 20.5V18.5ZM13.01 20.5C13.5623 20.5 14.01 20.0523 14.01 19.5C14.01 18.9477 13.5623 18.5 13.01 18.5V20.5ZM16.0338 16.7423C15.8915 17.276 16.2087 17.8239 16.7423 17.9662C17.276 18.1085 17.8239 17.7913 17.9662 17.2577L16.0338 16.7423ZM21 2L21.9662 2.25766C22.0463 1.95747 21.9823 1.63713 21.793 1.39076C21.6037 1.1444 21.3107 1 21 1V2ZM8.00877 17.1322C8.08176 17.6796 8.58472 18.0642 9.13216 17.9912C9.6796 17.9182 10.0642 17.4153 9.99123 16.8678L8.00877 17.1322ZM7.93333 10C8.48562 10 8.93333 9.55228 8.93333 9C8.93333 8.44772 8.48562 8 7.93333 8V10ZM14 5C13.4477 5 13 5.44772 13 6C13 6.55228 13.4477 7 14 7V5ZM19.9333 7C20.4856 7 20.9333 6.55228 20.9333 6C20.9333 5.44772 20.4856 5 19.9333 5V7ZM14 9C13.4477 9 13 9.44772 13 10C13 10.5523 13.4477 11 14 11V9ZM18.8667 11C19.419 11 19.8667 10.5523 19.8667 10C19.8667 9.44772 19.419 9 18.8667 9V11ZM7 18H19V16H7V18ZM20 19V22H22V19H20ZM21 21H5V23H21V21ZM6 22V19H4V22H6ZM19 18C19.5523 18 20 18.4477 20 19H22C22 17.3431 20.6569 16 19 16V18ZM7 16C5.34315 16 4 17.3431 4 19H6C6 18.4477 6.44772 18 7 18V16ZM13 20.5H13.01V18.5H13V20.5ZM17.9662 17.2577L21.9662 2.25766L20.0338 1.74234L16.0338 16.7423L17.9662 17.2577ZM9.99123 16.8678L7.99123 1.86784L6.00877 2.13216L8.00877 17.1322L9.99123 16.8678ZM7 3H21V1H7V3ZM7 1H5V3H7V1ZM2 4V7H4V4H2ZM5 10H7.93333V8H5V10ZM2 7C2 8.65685 3.34315 10 5 10V8C4.44772 8 4 7.55228 4 7H2ZM5 1C3.34315 1 2 2.34315 2 4H4C4 3.44772 4.44772 3 5 3V1ZM14 7H19.9333V5H14V7ZM14 11H18.8667V9H14V11Z" fill="black"/>
</svg>
