<svg width="24" height="24" viewBox="0 0 24 24" fill="none" xmlns="http://www.w3.org/2000/svg">
<path d="M11.5 12H12.5M11.5 16H12.5M14 6H10M14 6C15.1046 6 16 6.89543 16 8V8.5C16 9.32843 15.3284 10 14.5 10C15.3284 10 16 10.6716 16 11.5V12.5C16 13.3284 15.3284 14 14.5 14C15.3284 14 16 14.6716 16 15.5V16.5C16 17.3284 15.3284 18 14.5 18C15.3284 18 16 18.6716 16 19.5V20C16 21.1046 15.1046 22 14 22H10C8.89543 22 8 21.1046 8 20V19.5C8 18.6716 8.67157 18 9.5 18C8.67157 18 8 17.3284 8 16.5V15.5C8 14.6716 8.67157 14 9.5 14C8.67157 14 8 13.3284 8 12.5V11.5C8 10.6716 8.67157 10 9.5 10C8.67157 10 8 9.32843 8 8.5V8C8 6.89543 8.89543 6 10 6M14 6V2H10V6" stroke="black" stroke-width="2" stroke-linecap="round" stroke-linejoin="round"/>
</svg>
