<svg width="24" height="24" viewBox="0 0 24 24" fill="none" xmlns="http://www.w3.org/2000/svg">
<path d="M6.5 14H11.5M6.5 18H11.5M9 9V8C9 6.89543 9.89543 6 11 6H13C14.1046 6 15 6.89543 15 8V9M10 6.15371V4.84591C10 4.42168 10.2397 4.03387 10.6191 3.84414C10.8645 3.72147 11.0563 3.51302 11.1581 3.25834L11.5358 2.3143C11.6196 2.10477 11.8098 2 12 2C12.1902 2 12.3804 2.10477 12.4642 2.3143L12.8419 3.25834C12.9437 3.51302 13.1355 3.72147 13.3809 3.84414C13.7603 4.03387 14 4.42168 14 4.84591V6.15371M8.5 22H15.5C16.6046 22 17.5 21.1046 17.5 20V13C17.5 10.7909 15.7091 9 13.5 9H10.5C8.29086 9 6.5 10.7909 6.5 13V20C6.5 21.1046 7.39543 22 8.5 22Z" stroke="black" stroke-width="2" stroke-linecap="round" stroke-linejoin="round"/>
</svg>
