<svg width="24" height="24" viewBox="0 0 24 24" fill="none" xmlns="http://www.w3.org/2000/svg">
<path d="M9.5 21L8.68627 20.4188C8.46854 20.7236 8.43943 21.1245 8.61083 21.4576C8.78224 21.7907 9.12541 22 9.5 22V21ZM14.5 21V22C14.8746 22 15.2178 21.7907 15.3892 21.4576C15.5606 21.1245 15.5315 20.7236 15.3137 20.4188L14.5 21ZM12 17.5L12.8137 16.9188C12.626 16.656 12.323 16.5 12 16.5C11.677 16.5 11.374 16.656 11.1863 16.9188L12 17.5ZM21 12H22V12L21 12ZM16.5993 6.03555L16.4807 7.02849L16.5993 6.03555ZM21 11H20V11L21 11ZM10 12C10 12.5523 10.4477 13 11 13C11.5523 13 12 12.5523 12 12H10ZM8.39939 3.20046C7.95781 3.53217 7.86875 4.15904 8.20046 4.60061C8.53217 5.04219 9.15904 5.13125 9.60061 4.79954L8.39939 3.20046ZM14.3998 4.79949C14.8414 5.13124 15.4682 5.04222 15.8 4.60067C16.1317 4.15913 16.0427 3.53225 15.6012 3.20051L14.3998 4.79949ZM9.59949 7.3324C10.1056 7.55352 10.6951 7.3225 10.9162 6.81642C11.1373 6.31033 10.9063 5.72081 10.4002 5.49969L9.59949 7.3324ZM9.5 22H14.5V20H9.5V22ZM15.3137 20.4188L12.8137 16.9188L11.1863 18.0812L13.6863 21.5812L15.3137 20.4188ZM11.1863 16.9188L8.68627 20.4188L10.3137 21.5812L12.8137 18.0812L11.1863 16.9188ZM8 18.5H16V16.5H8V18.5ZM4 12.5V12H2V12.5H4ZM3 13H21V11H3V13ZM20 12V12.5H22V12H20ZM8 16.5C5.79086 16.5 4 14.7091 4 12.5H2C2 15.8137 4.68629 18.5 8 18.5V16.5ZM16 18.5C19.3137 18.5 22 15.8137 22 12.5H20C20 14.7091 18.2091 16.5 16 16.5V18.5ZM16.4807 7.02849C18.4628 7.26525 20 8.95384 20 11H22C22 7.92896 19.6936 5.39807 16.7179 5.04261L16.4807 7.02849ZM22 12L22 11L20 11L20 12L22 12ZM12 11C12 8.79086 13.7909 7 16 7V5C12.6863 5 10 7.68629 10 11H12ZM16 7C16.1631 7 16.3235 7.00971 16.4807 7.02849L16.7179 5.04261C16.4822 5.01444 16.2426 5 16 5V7ZM12 12V11H10V12H12ZM9.60061 4.79954C10.2692 4.29728 11.0985 4 12 4V2C10.6501 2 9.40216 2.44718 8.39939 3.20046L9.60061 4.79954ZM12 4C12.9018 4 13.7313 4.29724 14.3998 4.79949L15.6012 3.20051C14.5982 2.44694 13.3498 2 12 2V4ZM4 12V11H2V12H4ZM4 11C4 8.79082 5.79076 7 7.99986 7V5C4.68611 5 2 7.68633 2 11H4ZM7.99986 7C8.57059 7 9.11091 7.11893 9.59949 7.3324L10.4002 5.49969C9.66389 5.17797 8.85134 5 7.99986 5V7Z" fill="black"/>
</svg>
