<svg width="24" height="24" viewBox="0 0 24 24" fill="none" xmlns="http://www.w3.org/2000/svg">
<path d="M3 10C3 8.69203 3.83704 7.57957 5.00468 7.16905C5.00157 7.1131 5 7.05673 5 7C5 5.34315 6.34315 4 8 4C8.53465 4 9.03664 4.13986 9.47137 4.38499C10.0044 3.55209 10.9377 3 12 3C13.0623 3 13.9956 3.55209 14.5286 4.38499C14.9634 4.13986 15.4653 4 16 4C17.6569 4 19 5.34315 19 7C19 7.05673 18.9984 7.1131 18.9953 7.16905C20.163 7.57957 21 8.69203 21 10M9.82843 21H14.1716C14.702 21 15.2107 20.7893 15.5858 20.4142L16.2014 19.7986C16.3926 19.6074 16.6519 19.5 16.9223 19.5C19.1743 19.5 21 17.6743 21 15.4223V13H3V15.4223C3 17.6743 4.82566 19.5 7.07774 19.5C7.34811 19.5 7.6074 19.6074 7.79859 19.7986L8.41421 20.4142C8.78929 20.7893 9.29799 21 9.82843 21Z" stroke="black" stroke-width="2" stroke-linecap="round" stroke-linejoin="round"/>
</svg>
