<svg width="24" height="24" viewBox="0 0 24 24" fill="none" xmlns="http://www.w3.org/2000/svg">
<path d="M3 12V14C3 16.7614 5.23858 19 8 19H10.9268L9.49816 21.0001H14.4982L13.0696 19H16C18.7614 19 21 16.7614 21 14V12M3 12C3 13.1046 3.89543 14 5 14H19C20.1046 14 21 13.1046 21 12M3 12C3 10.8954 3.89543 10 5 10H8C6.89543 10 6 9.10457 6 8C6 6.89543 6.89543 6 8 6H12.5C13.3284 6 14 5.32843 14 4.5C14 3.80791 13.5313 3.2253 12.894 3.05228C13.0908 3.01791 13.2933 3 13.5 3C15.433 3 17 4.567 17 6.5C17 8.433 15.433 10 13.5 10H19C20.1046 10 21 10.8954 21 12" stroke="black" stroke-width="2" stroke-linecap="round" stroke-linejoin="round"/>
</svg>
