<svg width="24" height="24" viewBox="0 0 24 24" fill="none" xmlns="http://www.w3.org/2000/svg">
<path d="M11 5.5C11 6.88071 9.20914 8 7 8C4.79086 8 3 6.88071 3 5.5C3 4.11929 4.79086 3 7 3C9.20914 3 11 4.11929 11 5.5ZM11 5.5H21M3 11H21C21 14.7292 18.7319 17.9286 15.5 19.2941L15.2107 20.2813C15.0858 20.7073 14.695 21 14.251 21H8.79855C8.33151 21 7.92666 20.6767 7.82333 20.2212L7.5 18.796C4.80989 17.2398 3 14.3313 3 11Z" stroke="black" stroke-width="2" stroke-linecap="round" stroke-linejoin="round"/>
</svg>
