<svg width="24" height="24" viewBox="0 0 24 24" fill="none" xmlns="http://www.w3.org/2000/svg">
<path d="M4 10H3C3 10.5523 3.44772 11 4 11V10ZM20 10V11C20.5523 11 21 10.5523 21 10H20ZM3 12.5C2.44772 12.5 2 12.9477 2 13.5C2 14.0523 2.44772 14.5 3 14.5V12.5ZM10 13.5L10.6585 12.7474C10.4762 12.5879 10.2422 12.5 10 12.5V13.5ZM14 17L13.3415 17.7526C13.7185 18.0825 14.2815 18.0825 14.6585 17.7526L14 17ZM18 13.5V12.5C17.7578 12.5 17.5238 12.5879 17.3415 12.7474L18 13.5ZM21 14.5C21.5523 14.5 22 14.0523 22 13.5C22 12.9477 21.5523 12.5 21 12.5V14.5ZM10 18C10.5523 18 11 17.5523 11 17C11 16.4477 10.5523 16 10 16V18ZM18 16C17.4477 16 17 16.4477 17 17C17 17.5523 17.4477 18 18 18V16ZM11.9922 4.5C11.4399 4.5 10.9922 4.94772 10.9922 5.5C10.9922 6.05228 11.4399 6.5 11.9922 6.5V4.5ZM12.0022 6.5C12.5545 6.5 13.0022 6.05228 13.0022 5.5C13.0022 4.94772 12.5545 4.5 12.0022 4.5V6.5ZM8.48828 6C7.936 6 7.48828 6.44772 7.48828 7C7.48828 7.55228 7.936 8 8.48828 8V6ZM8.49828 8C9.05057 8 9.49828 7.55228 9.49828 7C9.49828 6.44772 9.05057 6 8.49828 6V8ZM15.5 6C14.9477 6 14.5 6.44772 14.5 7C14.5 7.55228 14.9477 8 15.5 8V6ZM15.51 8C16.0623 8 16.51 7.55228 16.51 7C16.51 6.44772 16.0623 6 15.51 6V8ZM5 10C5 6.7074 8.27179 4 12 4V2C7.50536 2 3 5.2926 3 10H5ZM12 4C15.7282 4 19 6.7074 19 10H21C21 5.2926 16.4946 2 12 2V4ZM4 11H20V9H4V11ZM3 14.5H10V12.5H3V14.5ZM9.3415 14.2526L13.3415 17.7526L14.6585 16.2474L10.6585 12.7474L9.3415 14.2526ZM18 14.5H21V12.5H18V14.5ZM14.6585 17.7526L18.6585 14.2526L17.3415 12.7474L13.3415 16.2474L14.6585 17.7526ZM7.33333 22H16.6667V20H7.33333V22ZM10 16H4.66667V18H10V16ZM19.3333 16H18V18H19.3333V16ZM21 17.6667C21 16.7462 20.2538 16 19.3333 16V18C19.1492 18 19 17.8508 19 17.6667H21ZM16.6667 22C19.0599 22 21 20.0599 21 17.6667H19C19 18.9553 17.9553 20 16.6667 20V22ZM3 17.6667C3 20.0599 4.9401 22 7.33333 22V20C6.04467 20 5 18.9553 5 17.6667H3ZM5 17.6667C5 17.8508 4.85076 18 4.66667 18V16C3.74619 16 3 16.7462 3 17.6667H5ZM11.9922 6.5H12.0022V4.5H11.9922V6.5ZM8.48828 8H8.49828V6H8.48828V8ZM15.5 8H15.51V6H15.5V8Z" fill="black"/>
</svg>
