<svg width="24" height="24" viewBox="0 0 24 24" fill="none" xmlns="http://www.w3.org/2000/svg">
<path d="M19 5.5C19 6.88071 15.866 8 12 8C8.13401 8 5 6.88071 5 5.5M19 5.5C19 4.11929 15.866 3 12 3C8.13401 3 5 4.11929 5 5.5M19 5.5V18.5C19 19.8807 15.866 21 12 21C8.13401 21 5 19.8807 5 18.5V5.5M19 11C19 12.1328 16.8902 13.0897 13.9974 13.3968M5 11C5 12.1328 7.10978 13.0897 10.0026 13.3968M13.9974 13.3968C13.9436 12.3402 13.0699 11.5 12 11.5C10.9301 11.5 10.0564 12.3402 10.0026 13.3968M13.9974 13.3968C13.9991 13.4309 14 13.4654 14 13.5C14 14.6046 13.1046 15.5 12 15.5C10.8954 15.5 10 14.6046 10 13.5C10 13.4654 10.0009 13.4309 10.0026 13.3968" stroke="black" stroke-width="2"/>
</svg>
