<svg width="24" height="24" viewBox="0 0 24 24" fill="none" xmlns="http://www.w3.org/2000/svg">
<path d="M3 10.9999L2.46312 10.1562C2.17468 10.3398 2 10.658 2 10.9999H3ZM13.7543 4.15622L14.2912 4.99988V4.99988L13.7543 4.15622ZM14.2915 4.00584L14.3324 3.00668L14.2915 4.00584ZM17 14.9999C16.4477 14.9999 16 15.4476 16 15.9999C16 16.5522 16.4477 16.9999 17 16.9999V14.9999ZM17.01 16.9999C17.5623 16.9999 18.01 16.5522 18.01 15.9999C18.01 15.4476 17.5623 14.9999 17.01 14.9999V16.9999ZM10 15.9999C9.44772 15.9999 9 16.4476 9 16.9999C9 17.5522 9.44772 17.9999 10 17.9999V15.9999ZM10.01 17.9999C10.5623 17.9999 11.01 17.5522 11.01 16.9999C11.01 16.4476 10.5623 15.9999 10.01 15.9999V17.9999ZM13 10.9999C12.4477 10.9999 12 11.4476 12 11.9999C12 12.5522 12.4477 12.9999 13 12.9999V10.9999ZM13.01 12.9999C13.5623 12.9999 14.01 12.5522 14.01 11.9999C14.01 11.4476 13.5623 10.9999 13.01 10.9999V12.9999ZM6 12.9999C5.44772 12.9999 5 13.4476 5 13.9999C5 14.5522 5.44772 14.9999 6 14.9999V12.9999ZM6.01 14.9999C6.56228 14.9999 7.01 14.5522 7.01 13.9999C7.01 13.4476 6.56228 12.9999 6.01 12.9999V14.9999ZM11 6.99989C10.4477 6.99989 10 7.4476 10 7.99989C10 8.55217 10.4477 8.99989 11 8.99989V6.99989ZM11.01 8.99989C11.5623 8.99989 12.01 8.55217 12.01 7.99989C12.01 7.4476 11.5623 6.99989 11.01 6.99989V8.99989ZM17 5.99989C16.4477 5.99989 16 6.4476 16 6.99989C16 7.55217 16.4477 7.99989 17 7.99989V5.99989ZM17.01 7.99989C17.5623 7.99989 18.01 7.55217 18.01 6.99989C18.01 6.4476 17.5623 5.99989 17.01 5.99989V7.99989ZM3 11.9999H21V9.99989H3V11.9999ZM20 10.9999V17.9999H22V10.9999H20ZM19 18.9999H5V20.9999H19V18.9999ZM4 17.9999V10.9999H2V17.9999H4ZM5 18.9999C4.44772 18.9999 4 18.5522 4 17.9999H2C2 19.6567 3.34315 20.9999 5 20.9999V18.9999ZM20 17.9999C20 18.5522 19.5523 18.9999 19 18.9999V20.9999C20.6569 20.9999 22 19.6567 22 17.9999H20ZM13.2174 3.31256L2.46312 10.1562L3.53688 11.8435L14.2912 4.99988L13.2174 3.31256ZM14.2505 5.005C17.4477 5.13595 20 7.7701 20 10.9999H22C22 6.69295 18.5969 3.18134 14.3324 3.00668L14.2505 5.005ZM14.2912 4.99988C14.2975 4.99589 14.2848 5.00641 14.2505 5.005L14.3324 3.00668C13.918 2.98971 13.5321 3.11234 13.2174 3.31256L14.2912 4.99988ZM17 16.9999H17.01V14.9999H17V16.9999ZM10 17.9999H10.01V15.9999H10V17.9999ZM13 12.9999H13.01V10.9999H13V12.9999ZM6 14.9999H6.01V12.9999H6V14.9999ZM11 8.99989H11.01V6.99989H11V8.99989ZM17 7.99989H17.01V5.99989H17V7.99989Z" fill="black"/>
</svg>
