<svg width="24" height="24" viewBox="0 0 24 24" fill="none" xmlns="http://www.w3.org/2000/svg">
<path d="M11.6225 5.24376L3.90375 20.6811C3.81228 20.864 3.6002 20.9519 3.40616 20.8872C3.1845 20.8133 3.06894 20.5697 3.15193 20.3513L9.2819 4.21707C9.53598 3.54832 10.289 3.2178 10.9532 3.48348C11.6483 3.76149 11.9573 4.57419 11.6225 5.24376Z" stroke="black" stroke-width="2" stroke-linecap="round" stroke-linejoin="round"/>
<path d="M20.2614 6.92297L9.25683 20.6785C9.11967 20.85 8.86394 20.8641 8.7087 20.7089C8.58663 20.5868 8.56573 20.3963 8.65842 20.2507L18.1159 5.38891C18.5695 4.67611 19.5665 4.56666 20.1639 5.16409C20.6398 5.63994 20.6817 6.39748 20.2614 6.92297Z" stroke="black" stroke-width="2" stroke-linecap="round" stroke-linejoin="round"/>
</svg>
