<svg width="24" height="24" viewBox="0 0 24 24" fill="none" xmlns="http://www.w3.org/2000/svg">
<path d="M9.35276 20L8.84775 20.8631C9.00095 20.9528 9.17525 21 9.35276 21V20ZM17.6472 20V21C17.8247 21 17.999 20.9528 18.1523 20.8631L17.6472 20ZM17.6472 9L18.1523 8.13689C17.999 8.04725 17.8247 8 17.6472 8V9ZM9.35276 9V8C9.17525 8 9.00095 8.04725 8.84775 8.13689L9.35276 9ZM9.35004 9L8.44502 9.42537C8.60987 9.77609 8.96251 10 9.35004 10V9ZM7.90502 3.57463C7.6701 3.0748 7.07446 2.86006 6.57463 3.09498C6.0748 3.3299 5.86006 3.92554 6.09498 4.42537L7.90502 3.57463ZM17.6445 9V10C18.0317 10 18.3842 9.77646 18.5492 9.42617L17.6445 9ZM20 4L20.9046 4.42617C21.0506 4.1164 21.0279 3.75351 20.8444 3.46436C20.661 3.1752 20.3424 3 20 3V4ZM2 9C2 9.55228 2.44772 10 3 10C3.55228 10 4 9.55228 4 9H2ZM9.85777 19.1369C8.09378 18.1048 7 16.3864 7 14.5H5C5 17.2049 6.56999 19.5304 8.84775 20.8631L9.85777 19.1369ZM20 14.5C20 16.3864 18.9062 18.1048 17.1422 19.1369L18.1523 20.8631C20.43 19.5304 22 17.2049 22 14.5H20ZM9.35276 21H17.6472V19H9.35276V21ZM17.1422 9.86311C18.9062 10.8952 20 12.6136 20 14.5H22C22 11.7951 20.43 9.4696 18.1523 8.13689L17.1422 9.86311ZM7 14.5C7 12.6136 8.09378 10.8952 9.85777 9.86311L8.84775 8.13689C6.56999 9.4696 5 11.7951 5 14.5H7ZM17.6472 8H9.35276V10H17.6472V8ZM6.19531 14H20.8062V12H6.19531V14ZM10.2551 8.57463L7.90502 3.57463L6.09498 4.42537L8.44502 9.42537L10.2551 8.57463ZM17.6445 8H9.35004V10H17.6445V8ZM18.5492 9.42617L20.9046 4.42617L19.0954 3.57383L16.7399 8.57383L18.5492 9.42617ZM20 3H6V5H20V3ZM2 7V9H4V7H2ZM6 3C3.79086 3 2 4.79086 2 7H4C4 5.89543 4.89543 5 6 5V3Z" fill="black"/>
</svg>
