<svg width="24" height="24" viewBox="0 0 24 24" fill="none" xmlns="http://www.w3.org/2000/svg">
<path d="M20.0508 11.0525L18.3308 10.0521C17.4358 9.53161 16.7435 8.73269 16.3523 7.76903L16.0583 7.0448C15.7178 6.206 15.1481 5.48956 14.4112 4.97357L12.9453 3.94702M7.01807 10.9501L7.52693 12.8738C7.79171 13.8747 7.71634 14.9292 7.31154 15.8872L7.00733 16.6072C6.65498 17.4411 6.55124 18.3506 6.7074 19.2364L7.01807 20.9989M20.9977 8.88873C20.9519 10.56 19.56 11.9519 17.8887 11.9977C14.5462 12.0892 11.9108 9.45379 12.0023 6.11127C12.0481 4.44001 13.44 3.04809 15.1113 3.00231C18.4538 2.91077 21.0892 5.54621 20.9977 8.88873ZM4.82119 11.8121C6.03531 10.6627 8.00379 10.6627 9.21792 11.8121C11.6462 14.1108 11.6462 17.8379 9.21792 20.1367C8.00379 21.2861 6.03531 21.2861 4.82119 20.1367C2.39294 17.8379 2.39294 14.1108 4.82119 11.8121Z" stroke="black" stroke-width="2" stroke-linecap="round" stroke-linejoin="round"/>
</svg>
