<svg width="24" height="24" viewBox="0 0 24 24" fill="none" xmlns="http://www.w3.org/2000/svg">
<path d="M6.20312 17.6971C6.91265 19.6246 8.77248 21 10.9551 21C10.5364 19.4896 9.72339 16.1666 9.82111 14.9583M17.6959 6.2016C19.6233 6.91113 20.9988 8.77096 20.9988 10.9536C19.4884 10.5349 16.1654 9.72186 14.957 9.81959M10.4258 3.49077C10.524 3.45586 10.623 3.42231 10.7228 3.39094C11.5308 3.13691 12.3903 3 13.2816 3C15.3229 3 17.1972 3.71801 18.6681 4.9164L13.8936 11.2235L10.4258 3.49077ZM3.49077 10.4269C3.45586 10.5251 3.42231 10.6241 3.39094 10.7239C3.13691 11.5319 3 12.3914 3 13.2827C3 15.324 3.71801 17.1983 4.9164 18.6692L11.2235 13.8947L3.49077 10.4269ZM13.8198 11.0566L10.2804 3.16412C6.68898 3.85897 3.85891 6.68903 3.16406 10.2804L11.0566 13.8199C11.6246 14.0746 12.2909 13.952 12.731 13.5119L13.5118 12.7311C13.952 12.2909 14.0746 11.6246 13.8198 11.0566Z" stroke="black" stroke-width="2" stroke-linecap="round" stroke-linejoin="round"/>
</svg>
