<svg width="24" height="24" viewBox="0 0 24 24" fill="none" xmlns="http://www.w3.org/2000/svg">
<path d="M5 15L5.72147 19.3288C5.8822 20.2932 6.71658 21 7.69425 21H16.3057C17.2834 21 18.1178 20.2932 18.2785 19.3288L19 15M10 21L9.5 15M14 21L14.5 15M17.5 12.5H6.5C5.11929 12.5 4 11.3807 4 10C4 8.61929 5.11929 7.5 6.5 7.5V7.5C6.77614 7.5 6.99478 7.27389 7.04936 7.00319C7.27976 5.86048 8.28939 5 9.5 5H12.5C13.0523 5 13.5 4.55228 13.5 4C13.5 3.44772 13.0523 3 12.5 3C14.8166 3 16.7243 4.75044 16.9726 7.0008C17.0029 7.27528 17.2239 7.5 17.5 7.5V7.5C18.8807 7.5 20 8.61929 20 10C20 11.3807 18.8807 12.5 17.5 12.5Z" stroke="black" stroke-width="2" stroke-linecap="round" stroke-linejoin="round"/>
</svg>
