<svg width="24" height="24" viewBox="0 0 24 24" fill="none" xmlns="http://www.w3.org/2000/svg">
<path d="M11 15L8.41421 17.5858C9.19526 18.3668 9.19526 19.6332 8.41421 20.4142C7.63316 21.1953 6.36683 21.1953 5.58579 20.4142C5.19526 20.0237 5 19.5118 5 19C4.48816 19 3.97631 18.8047 3.58579 18.4142C2.80474 17.6332 2.80474 16.3668 3.58579 15.5858C4.36684 14.8047 5.63316 14.8047 6.41421 15.5858L9 13M11 15H15C18.3137 15 21 12.3137 21 9C21 5.68629 18.3137 3 15 3C11.6863 3 9 5.68629 9 9V13M11 15C9.89543 15 9 14.1046 9 13" stroke="black" stroke-width="2" stroke-linecap="round" stroke-linejoin="round"/>
</svg>
