<svg width="24" height="24" viewBox="0 0 24 24" fill="none" xmlns="http://www.w3.org/2000/svg">
<path d="M11 15L8.41421 17.5858C9.19526 18.3668 9.19526 19.6332 8.41421 20.4142C7.63316 21.1953 6.36683 21.1953 5.58579 20.4142C5.19526 20.0237 5 19.5118 5 19C4.48816 19 3.97631 18.8047 3.58579 18.4142C2.80474 17.6332 2.80474 16.3668 3.58579 15.5858C4.36684 14.8047 5.63316 14.8047 6.41421 15.5858L9 13M9 13V8.99976C9 5.68618 11.7408 3 15.1217 3C17.9073 3 20.2584 4.82345 21 7.31889C20.4411 7.11266 19.8354 6.99984 19.2029 6.99984C16.3855 6.99984 14.1015 9.23832 14.1015 11.9996C14.1015 13.1254 14.4811 14.1643 15.1217 15L11.0406 14.9995C9.9136 14.9995 9 14.1045 9 13Z" stroke="black" stroke-width="2" stroke-linecap="round" stroke-linejoin="round"/>
</svg>
