<svg width="24" height="24" viewBox="0 0 24 24" fill="none" xmlns="http://www.w3.org/2000/svg">
<path d="M9 12.5V11.8885C9 10.6466 9.28916 9.42168 9.84458 8.31084L10 8M16.7535 6.91829C16.6745 6.782 16.6318 6.70455 16.546 6.57248C15.4353 4.86254 13.8637 4 12.0025 4C10.1413 4 8.5697 4.86254 7.459 6.57248C7.37321 6.70455 7.33045 6.782 7.25152 6.91829C6.32007 8.52665 5.99738 9.57569 5.65917 11.4033C5.57096 11.8799 5.51507 12.1483 5.48363 12.6321C5.32947 15.0038 5.64604 16.8108 7.40816 18.4057C8.61444 19.4975 10.1018 19.9994 12 20C13.9001 20.0006 15.3905 19.4975 16.5968 18.4057C18.3589 16.8108 18.6755 15.0038 18.5214 12.6321C18.4899 12.1483 18.434 11.8799 18.3458 11.4033C18.0076 9.57569 17.6849 8.52665 16.7535 6.91829Z" stroke="black" stroke-width="2" stroke-linecap="round"/>
</svg>
