<svg width="24" height="24" viewBox="0 0 24 24" fill="none" xmlns="http://www.w3.org/2000/svg">
<path d="M3 11V10C2.44772 10 2 10.4478 2 11H3ZM20 11C20 10.4478 19.5523 10 19 10C18.4477 10 18 10.4478 18 11H20ZM21 12C21.5523 12 22 11.5523 22 11C22 10.4478 21.5523 10 21 10V12ZM4 21C4 21.5523 4.44772 22 5 22C5.55228 22 6 21.5523 6 21H4ZM6 18.5C6 17.9478 5.55228 17.5 5 17.5C4.44772 17.5 4 17.9478 4 18.5H6ZM16 21C16 21.5523 16.4477 22 17 22C17.5523 22 18 21.5523 18 21H16ZM18 18.5C18 17.9478 17.5523 17.5 17 17.5C16.4477 17.5 16 17.9478 16 18.5H18ZM5 14C5 14.5523 5.44772 15 6 15C6.55228 15 7 14.5523 7 14H5ZM7 11C7 10.4478 6.55228 10 6 10C5.44772 10 5 10.4478 5 11H7ZM8 13C8 13.5523 8.44772 14 9 14C9.55228 14 10 13.5523 10 13H8ZM10 11C10 10.4478 9.55228 10 9 10C8.44772 10 8 10.4478 8 11H10ZM8.42836 6.5239L7.48867 6.18187L8.42836 6.5239ZM10.3077 7.20794L9.36805 6.86592L10.3077 7.20794ZM11.1628 4.8587L12.1025 5.20072L11.1628 4.8587ZM9.28341 4.17466L10.2231 4.51668L9.28341 4.17466ZM18.3524 7.06591L17.6453 6.3588L18.3524 7.06591ZM20.1202 5.29814L20.8273 6.00525L20.1202 5.29814ZM2 11V14.5H4V11H2ZM8 20.5H14V18.5H8V20.5ZM20 14.5V11H18V14.5H20ZM14 20.5C17.3137 20.5 20 17.8138 20 14.5H18C18 16.7092 16.2091 18.5 14 18.5V20.5ZM2 14.5C2 17.8138 4.68629 20.5 8 20.5V18.5C5.79086 18.5 4 16.7092 4 14.5H2ZM3 12H21V10H3V12ZM6 21V18.5H4V21H6ZM18 21V18.5H16V21H18ZM7 14V11H5V14H7ZM10 13V11H8V13H10ZM10.2231 4.51668L9.36805 6.86592L11.2474 7.54996L12.1025 5.20072L10.2231 4.51668ZM9.36805 6.86592L10.2231 4.51668L8.34372 3.83264L7.48867 6.18187L9.36805 6.86592ZM7.48867 6.18187C7.13882 7.14306 7.37572 8.53516 8.59851 8.98022L9.28255 7.10084C9.35966 7.1289 9.36307 7.17718 9.34872 7.1347C9.33362 7.08999 9.32221 6.99186 9.36805 6.86592L7.48867 6.18187ZM9.36805 6.86592C9.32221 6.99186 9.2504 7.0597 9.21009 7.08424C9.1718 7.10756 9.20544 7.07277 9.28255 7.10084L8.59851 8.98022C9.8213 9.42528 10.8976 8.51115 11.2474 7.54996L9.36805 6.86592ZM10.3086 4.28176C10.2315 4.2537 10.2281 4.20542 10.2424 4.2479C10.2575 4.29261 10.2689 4.39074 10.2231 4.51668L12.1025 5.20072C12.4523 4.23953 12.2154 2.84743 10.9927 2.40238L10.3086 4.28176ZM10.9927 2.40238C9.76986 1.95732 8.69356 2.87145 8.34372 3.83264L10.2231 4.51668C10.2689 4.39074 10.3408 4.3229 10.3811 4.29835C10.4194 4.27504 10.3857 4.30983 10.3086 4.28176L10.9927 2.40238ZM8.00075 7.69876L6.92445 10.6583L8.80401 11.3419L9.88031 8.3823L8.00075 7.69876ZM19.4131 4.59104L17.6453 6.3588L19.0595 7.77302L20.8273 6.00525L19.4131 4.59104ZM17.6453 6.3588L19.4131 4.59104L17.9989 3.17682L16.2311 4.94459L17.6453 6.3588ZM16.2311 4.94459C15.5078 5.66787 15.1342 7.02966 16.0543 7.9498L17.4685 6.53558C17.5265 6.5936 17.5092 6.6388 17.5142 6.59424C17.5194 6.54734 17.5505 6.45358 17.6453 6.3588L16.2311 4.94459ZM17.6453 6.3588C17.5505 6.45358 17.4568 6.48471 17.4099 6.48992C17.3653 6.49487 17.4105 6.47756 17.4685 6.53558L16.0543 7.9498C16.9744 8.86993 18.3362 8.4963 19.0595 7.77302L17.6453 6.3588ZM19.5898 4.41426C19.5318 4.35624 19.5491 4.31105 19.5442 4.35561C19.539 4.40251 19.5078 4.49627 19.4131 4.59104L20.8273 6.00525C21.5506 5.28197 21.9242 3.92018 21.0041 3.00005L19.5898 4.41426ZM21.0041 3.00005C20.0839 2.07991 18.7221 2.45354 17.9989 3.17682L19.4131 4.59104C19.5078 4.49627 19.6016 4.46513 19.6485 4.45992C19.6931 4.45497 19.6479 4.47228 19.5898 4.41426L21.0041 3.00005ZM16.0507 6.53468L12.2929 10.2929L13.7071 11.7071L17.465 7.94881L16.0507 6.53468Z" fill="black"/>
</svg>
