<svg width="24" height="24" viewBox="0 0 24 24" fill="none" xmlns="http://www.w3.org/2000/svg">
<path d="M4 8V7C3.71388 7 3.44146 7.12256 3.25167 7.33668C3.06187 7.55079 2.97289 7.83595 3.00723 8.12001L4 8ZM15 8L15.9928 8.12001C16.0271 7.83595 15.9381 7.55079 15.7483 7.33668C15.5585 7.12256 15.2861 7 15 7V8ZM5.35868 19.24L6.35146 19.12L5.35868 19.24ZM13.6413 19.24L12.6485 19.12L13.6413 19.24ZM16.6967 10.7904C16.1777 10.9792 15.91 11.553 16.0988 12.072C16.2876 12.591 16.8614 12.8587 17.3804 12.6699L16.6967 10.7904ZM10.9268 4.44374C10.6196 4.90269 10.7426 5.52379 11.2016 5.83101C11.6605 6.13822 12.2816 6.01521 12.5888 5.55626L10.9268 4.44374ZM4 9H15V7H4V9ZM14.0072 7.87999L12.6485 19.12L14.6341 19.36L15.9928 8.12001L14.0072 7.87999ZM11.6558 20H7.34423V22H11.6558V20ZM6.35146 19.12L4.99277 7.87999L3.00723 8.12001L4.36591 19.36L6.35146 19.12ZM7.34423 20C6.83836 20 6.41216 19.6222 6.35146 19.12L4.36591 19.36C4.54803 20.8667 5.82662 22 7.34423 22V20ZM12.6485 19.12C12.5878 19.6222 12.1616 20 11.6558 20V22C13.1734 22 14.452 20.8667 14.6341 19.36L12.6485 19.12ZM4.60547 14H14.3967V12H4.60547V14ZM15.5 4C17.433 4 19 5.567 19 7.5H21C21 4.46243 18.5376 2 15.5 2V4ZM19 7.5C19 9.01113 18.0419 10.301 16.6967 10.7904L17.3804 12.6699C19.4905 11.9022 21 9.87868 21 7.5H19ZM12.5888 5.55626C13.2184 4.61575 14.2875 4 15.5 4V2C13.5922 2 11.9118 2.97228 10.9268 4.44374L12.5888 5.55626Z" fill="black"/>
</svg>
