<svg width="24" height="24" viewBox="0 0 24 24" fill="none" xmlns="http://www.w3.org/2000/svg">
<path d="M17 7L15.9699 7.61806C15.0214 8.18717 14.3077 9.07682 13.9579 10.1262C13.6697 10.991 12.991 11.6697 12.1262 11.9579L12 12C11.0557 12.3148 10.3148 13.0557 10 14L9.92524 14.2243C9.65083 15.0475 9.091 15.7454 8.34691 16.1919L7 17M20 12C20.5523 12.5523 20.5523 13.4477 20 14L14 20C13.4477 20.5523 12.5523 20.5523 12 20M4 12C3.44771 11.4477 3.44771 10.5523 4 10L10 4C10.5523 3.44772 11.4477 3.44771 12 4M8.55103 20.0476L20.0476 8.55103C21.3175 7.28115 21.3175 5.22228 20.0476 3.95241C18.7777 2.68253 16.7188 2.68253 15.449 3.95241L3.95241 15.449C2.68253 16.7188 2.68253 18.7777 3.95241 20.0476C5.22228 21.3175 7.28116 21.3175 8.55103 20.0476Z" stroke="black" stroke-width="2" stroke-linecap="round"/>
</svg>
