<svg width="24" height="24" viewBox="0 0 24 24" fill="none" xmlns="http://www.w3.org/2000/svg">
<path d="M7 1C6.44772 1 6 1.44772 6 2C6 2.55228 6.44772 3 7 3V1ZM15 3C15.5523 3 16 2.55228 16 2C16 1.44772 15.5523 1 15 1V3ZM3 17C2.44772 17 2 17.4477 2 18C2 18.5523 2.44772 19 3 19V17ZM19 19C19.5523 19 20 18.5523 20 18C20 17.4477 19.5523 17 19 17V19ZM3 12C2.44772 12 2 12.4477 2 13C2 13.5523 2.44772 14 3 14V12ZM19 14C19.5523 14 20 13.5523 20 13C20 12.4477 19.5523 12 19 12V14ZM3.8295 9.92164L3.03688 9.31193H3.03688L3.8295 9.92164ZM7.58525 5.03918L8.37787 5.64889V5.64889L7.58525 5.03918ZM14.4148 5.03918L13.6221 5.64889L13.6221 5.64889L14.4148 5.03918ZM18.1705 9.92164L18.9631 9.31193V9.31193L18.1705 9.92164ZM17.1644 8.61371L16.3718 9.22342V9.22342L17.1644 8.61371ZM16.1138 7.24795L15.3212 7.85766L16.1138 7.24795ZM7 3H15V1H7V3ZM3 19H19V17H3V19ZM3 14H19V12H3V14ZM18 12.3605V20H20V12.3605H18ZM17 21H5V23H17V21ZM4 20V12.3605H2V20H4ZM4.62213 10.5314L8.37787 5.64889L6.79262 4.42947L3.03688 9.31193L4.62213 10.5314ZM9 3.81976V2H7V3.81976H9ZM13 2V3.81976H15V2H13ZM13 3.81976C13 4.48139 13.2187 5.12446 13.6221 5.64889L15.2074 4.42947C15.0729 4.25466 15 4.0403 15 3.81976H13ZM8.37787 5.64889C8.78128 5.12446 9 4.48139 9 3.81976H7C7 4.0403 6.92709 4.25466 6.79262 4.42947L8.37787 5.64889ZM5 21C4.44772 21 4 20.5523 4 20H2C2 21.6569 3.34315 23 5 23V21ZM18 20C18 20.5523 17.5523 21 17 21V23C18.6569 23 20 21.6569 20 20H18ZM20 12.3605C20 11.2578 19.6355 10.186 18.9631 9.31193L17.3779 10.5314C17.7813 11.0558 18 11.6989 18 12.3605H20ZM4 12.3605C4 11.6989 4.21872 11.0558 4.62213 10.5314L3.03688 9.31193C2.36454 10.186 2 11.2578 2 12.3605H4ZM16.3718 9.22342L17.3779 10.5314L18.9631 9.31193L17.957 8.004L16.3718 9.22342ZM13.6221 5.64889L15.3212 7.85766L16.9064 6.63824L15.2074 4.42947L13.6221 5.64889ZM15.3212 7.85766L16.3718 9.22342L17.957 8.004L16.9064 6.63824L15.3212 7.85766ZM20 6.5C20 7.32843 19.3284 8 18.5 8V10C20.433 10 22 8.433 22 6.5H20ZM17 6.5C17 5.67157 17.6716 5 18.5 5V3C16.567 3 15 4.567 15 6.5H17ZM18.5 5C19.3284 5 20 5.67157 20 6.5H22C22 4.567 20.433 3 18.5 3V5ZM18.5 8C18.2038 8 17.9304 7.91516 17.6994 7.76884L16.6294 9.45857C17.1711 9.80157 17.8139 10 18.5 10V8ZM17.0681 6.94913C17.0241 6.80856 17 6.65804 17 6.5H15C15 6.86306 15.0556 7.21501 15.1595 7.54677L17.0681 6.94913Z" fill="black"/>
</svg>
