<svg width="24" height="24" viewBox="0 0 24 24" fill="none" xmlns="http://www.w3.org/2000/svg">
<path d="M20.0007 11C21.2561 10.5822 22 10.0628 22 9.50003C22 9.10887 21.6407 8.73869 21 8.409M20.0007 11C19.192 11.2692 18.1711 11.4962 17 11.6656M20.0007 11C21.2561 11.4179 22 11.9372 22 12.5C22 13.0628 21.2561 13.5822 20.0007 14M3 8.409C2.35934 8.73869 2 9.10887 2 9.50003C2 10.0628 2.74389 10.5822 3.99927 11C2.74389 11.4179 2 11.9372 2 12.5C2 13.0628 2.74389 13.5822 3.99927 14C2.74389 14.4178 2 14.9372 2 15.5C2 16.0628 2.74389 16.5822 3.99927 17C2.74389 17.4178 2 17.9372 2 18.5C2 19.8807 6.47715 21 12 21C17.5228 21 22 19.8807 22 18.5C22 17.9372 21.2561 17.4178 20.0007 17M20.0007 14C18.1763 14.6072 15.2716 15 12 15C11.6707 15 11.3452 14.996 11.024 14.9882M20.0007 14C21.2561 14.4178 22 14.9372 22 15.5C22 16.0628 21.2561 16.5822 20.0007 17M20.0007 17C18.1763 17.6072 15.2716 18 12 18C11.3151 18 10.6462 17.9828 10 17.95M3 6C3 4.34315 7.02944 3 12 3C16.9706 3 21 4.34315 21 6C21 6.94002 19.703 7.77907 17.6729 8.32913C16.6196 8.61451 15.3691 8.82211 14 8.92566V11.0119C14 11.8338 13.3338 12.5 12.5119 12.5C11.6808 12.5 11.0108 11.8193 11.024 10.9883L11 8.98169C9.93262 8.94236 8.9215 8.84081 8 8.68816V16.5C8 17.3284 7.32843 18 6.5 18C5.67157 18 5 17.3284 5 16.5V7.88578C3.7492 7.37054 3 6.71443 3 6ZM13.5 6C13.5 6.27614 12.8284 6.5 12 6.5C11.1716 6.5 10.5 6.27614 10.5 6C10.5 5.72386 11.1716 5.5 12 5.5C12.8284 5.5 13.5 5.72386 13.5 6Z" stroke="black" stroke-width="2" stroke-linecap="round" stroke-linejoin="round"/>
</svg>
