<svg width="24" height="24" viewBox="0 0 24 24" fill="none" xmlns="http://www.w3.org/2000/svg">
<path d="M19.0711 19.0711C19.4616 18.6805 19.4616 18.0474 19.0711 17.6569C18.6805 17.2663 18.0474 17.2663 17.6569 17.6569L19.0711 19.0711ZM5.63604 18.364L4.92893 19.0711H4.92893L5.63604 18.364ZM17.6569 6.34315C18.0474 6.73367 18.6805 6.73367 19.0711 6.34315C19.4616 5.95262 19.4616 5.31946 19.0711 4.92893L17.6569 6.34315ZM19.0724 4.92893C18.6819 4.53841 18.0487 4.53841 17.6582 4.92893C17.2677 5.31946 17.2677 5.95262 17.6582 6.34315L19.0724 4.92893ZM17.6582 17.6569C17.2677 18.0474 17.2677 18.6805 17.6582 19.0711C18.0487 19.4616 18.6819 19.4616 19.0724 19.0711L17.6582 17.6569ZM12 8C11.4477 8 11 8.44772 11 9C11 9.55228 11.4477 10 12 10V8ZM12.01 10C12.5623 10 13.01 9.55228 13.01 9C13.01 8.44772 12.5623 8 12.01 8V10ZM9 11C8.44772 11 8 11.4477 8 12C8 12.5523 8.44772 13 9 13V11ZM9.01 13C9.56228 13 10.01 12.5523 10.01 12C10.01 11.4477 9.56228 11 9.01 11V13ZM15 11C14.4477 11 14 11.4477 14 12C14 12.5523 14.4477 13 15 13V11ZM15.01 13C15.5623 13 16.01 12.5523 16.01 12C16.01 11.4477 15.5623 11 15.01 11V13ZM12 14C11.4477 14 11 14.4477 11 15C11 15.5523 11.4477 16 12 16V14ZM12.01 16C12.5623 16 13.01 15.5523 13.01 15C13.01 14.4477 12.5623 14 12.01 14V16ZM17.6569 17.6569C14.5327 20.781 9.46734 20.781 6.34315 17.6569L4.92893 19.0711C8.83418 22.9763 15.1658 22.9763 19.0711 19.0711L17.6569 17.6569ZM6.34315 17.6569C3.21895 14.5327 3.21895 9.46734 6.34315 6.34315L4.92893 4.92893C1.02369 8.83418 1.02369 15.1658 4.92893 19.0711L6.34315 17.6569ZM6.34315 6.34315C9.46734 3.21895 14.5327 3.21895 17.6569 6.34315L19.0711 4.92893C15.1658 1.02369 8.83418 1.02369 4.92893 4.92893L6.34315 6.34315ZM17.6582 6.34315C20.7824 9.46734 20.7824 14.5327 17.6582 17.6569L19.0724 19.0711C22.9777 15.1658 22.9777 8.83418 19.0724 4.92893L17.6582 6.34315ZM17.5 12C17.5 15.0376 15.0376 17.5 12 17.5V19.5C16.1421 19.5 19.5 16.1421 19.5 12H17.5ZM12 17.5C8.96243 17.5 6.5 15.0376 6.5 12H4.5C4.5 16.1421 7.85786 19.5 12 19.5V17.5ZM6.5 12C6.5 8.96243 8.96243 6.5 12 6.5V4.5C7.85786 4.5 4.5 7.85786 4.5 12H6.5ZM12 6.5C15.0376 6.5 17.5 8.96243 17.5 12H19.5C19.5 7.85786 16.1421 4.5 12 4.5V6.5ZM12 10H12.01V8H12V10ZM9 13H9.01V11H9V13ZM15 13H15.01V11H15V13ZM12 16H12.01V14H12V16Z" fill="black"/>
</svg>
