<svg width="24" height="24" viewBox="0 0 24 24" fill="none" xmlns="http://www.w3.org/2000/svg">
<path d="M10 3L10 2C9.58761 1.99998 9.21748 2.25317 9.06799 2.63756L10 3ZM21 14L21.3625 14.932C21.7468 14.7825 22 14.4124 22 14L21 14ZM8 15.0001C7.44772 15.0001 7 15.4478 7 16.0001C7 16.5524 7.44772 17.0001 8 17.0001V15.0001ZM8.01 17.0001C8.56228 17.0001 9.01 16.5524 9.01 16.0001C9.01 15.4478 8.56228 15.0001 8.01 15.0001V17.0001ZM13 13.0001C12.4477 13.0001 12 13.4478 12 14.0001C12 14.5524 12.4477 15.0001 13 15.0001V13.0001ZM13.01 15.0001C13.5623 15.0001 14.01 14.5524 14.01 14.0001C14.01 13.4478 13.5623 13.0001 13.01 13.0001V15.0001ZM11 9.00012C10.4477 9.00012 10 9.44784 10 10.0001C10 10.5524 10.4477 11.0001 11 11.0001V9.00012ZM11.01 11.0001C11.5623 11.0001 12.01 10.5524 12.01 10.0001C12.01 9.44784 11.5623 9.00012 11.01 9.00012V11.0001ZM8.8663 5.00632C8.31434 4.9874 7.85154 5.41951 7.83262 5.97147C7.81369 6.52343 8.2458 6.98622 8.79776 7.00515L8.8663 5.00632ZM16.9959 15.2031C17.0148 15.7551 17.4776 16.1872 18.0295 16.1682C18.5815 16.1493 19.0136 15.6865 18.9947 15.1346L16.9959 15.2031ZM3 21.0001L2.06799 20.6377C1.92427 21.0073 2.0125 21.4268 2.2929 21.7072C2.57329 21.9876 2.99288 22.0758 3.36245 21.9321L3 21.0001ZM9.99996 4C15.5226 4.00021 19.9998 8.47739 20 14L22 14C21.9997 7.3728 16.6272 2.00025 10 2L9.99996 4ZM8 17.0001H8.01V15.0001H8V17.0001ZM13 15.0001H13.01V13.0001H13V15.0001ZM11 11.0001H11.01V9.00012H11V11.0001ZM8.79776 7.00515C13.2556 7.15801 16.8429 10.7453 16.9959 15.2031L18.9947 15.1346C18.8057 9.62593 14.3749 5.19521 8.8663 5.00632L8.79776 7.00515ZM3.36245 21.9321L21.3625 14.932L20.6375 13.068L2.63755 20.0681L3.36245 21.9321ZM9.06799 2.63756L2.06799 20.6377L3.93201 21.3626L10.932 3.36244L9.06799 2.63756Z" fill="black"/>
</svg>
