<svg width="24" height="24" viewBox="0 0 24 24" fill="none" xmlns="http://www.w3.org/2000/svg">
<path d="M3 10H2C2 10.06 2.0054 10.1199 2.01613 10.1789L3 10ZM4.57521 8.0452L4.78661 9.0226C5.05643 8.96424 5.29013 8.79694 5.43233 8.56032C5.57454 8.3237 5.6126 8.03882 5.5375 7.77317L4.57521 8.0452ZM10.1123 4.33759L9.55545 5.1682C9.81241 5.34047 10.1346 5.38411 10.4282 5.28639C10.7217 5.18868 10.9535 4.96061 11.0559 4.66869L10.1123 4.33759ZM13.8877 4.33759L12.9441 4.66869C13.0465 4.96061 13.2783 5.18868 13.5718 5.28639C13.8654 5.38411 14.1876 5.34047 14.4445 5.1682L13.8877 4.33759ZM16.9548 5.57521L15.9774 5.78661C16.0358 6.05643 16.2031 6.29013 16.4397 6.43233C16.6763 6.57454 16.9612 6.6126 17.2268 6.5375L16.9548 5.57521ZM19.4248 8.0452L18.4625 7.77317C18.3874 8.03882 18.4255 8.3237 18.5677 8.56032C18.7099 8.79694 18.9436 8.96424 19.2134 9.0226L19.4248 8.0452ZM21 10L21.9839 10.1789C21.9946 10.1199 22 10.06 22 10H21ZM7.0452 5.57521L6.77317 6.5375C7.03882 6.6126 7.3237 6.57454 7.56032 6.43233C7.79694 6.29013 7.96424 6.05643 8.0226 5.78661L7.0452 5.57521ZM4.70141 19.3578L5.68528 19.1789L4.70141 19.3578ZM19.2986 19.3578L20.2825 19.5367V19.5367L19.2986 19.3578ZM14.5104 16.7311C14.4309 17.2776 14.8095 17.7851 15.3561 17.8646C15.9026 17.9441 16.4101 17.5655 16.4896 17.0189L14.5104 16.7311ZM7.51041 17.0189C7.58991 17.5655 8.09741 17.9441 8.64394 17.8646C9.19047 17.7851 9.56908 17.2776 9.48959 16.7311L7.51041 17.0189ZM11 17C11 17.5523 11.4477 18 12 18C12.5523 18 13 17.5523 13 17H11ZM13 10C13 9.44772 12.5523 9 12 9C11.4477 9 11 9.44772 11 10H13ZM5.5 7.5C5.5 6.94772 5.94772 6.5 6.5 6.5V4.5C4.84315 4.5 3.5 5.84315 3.5 7.5H5.5ZM17.5 6.5C18.0523 6.5 18.5 6.94772 18.5 7.5H20.5C20.5 5.84315 19.1569 4.5 17.5 4.5V6.5ZM4 10C4 9.52182 4.33662 9.11993 4.78661 9.0226L4.36382 7.0678C3.01277 7.36001 2 8.56057 2 10H4ZM5.5375 7.77317C5.51328 7.6875 5.5 7.59613 5.5 7.5H3.5C3.5 7.78188 3.53915 8.05627 3.61293 8.31724L5.5375 7.77317ZM9 5C9.20724 5 9.39698 5.06196 9.55545 5.1682L10.6692 3.50698C10.1916 3.18678 9.61607 3 9 3V5ZM11.0559 4.66869C11.193 4.27786 11.5654 4 12 4V2C10.6898 2 9.57828 2.83928 9.16871 4.00649L11.0559 4.66869ZM14.4445 5.1682C14.603 5.06196 14.7928 5 15 5V3C14.3839 3 13.8084 3.18678 13.3308 3.50698L14.4445 5.1682ZM12 4C12.4346 4 12.807 4.27786 12.9441 4.66869L14.8313 4.00649C14.4217 2.83928 13.3102 2 12 2V4ZM17.2268 6.5375C17.3125 6.51328 17.4039 6.5 17.5 6.5V4.5C17.2181 4.5 16.9437 4.53915 16.6828 4.61293L17.2268 6.5375ZM15 5C15.4782 5 15.8801 5.33662 15.9774 5.78661L17.9322 5.36382C17.64 4.01277 16.4394 3 15 3V5ZM18.5 7.5C18.5 7.59612 18.4867 7.68749 18.4625 7.77317L20.3871 8.31723C20.4608 8.05628 20.5 7.78189 20.5 7.5H18.5ZM19.2134 9.0226C19.6634 9.11993 20 9.52182 20 10H22C22 8.56057 20.9872 7.36001 19.6362 7.0678L19.2134 9.0226ZM6.5 6.5C6.59613 6.5 6.6875 6.51328 6.77317 6.5375L7.31724 4.61293C7.05627 4.53915 6.78188 4.5 6.5 4.5V6.5ZM8.0226 5.78661C8.11993 5.33662 8.52182 5 9 5V3C7.56057 3 6.36001 4.01277 6.0678 5.36382L8.0226 5.78661ZM2.01613 10.1789L3.71754 19.5367L5.68528 19.1789L3.98387 9.82111L2.01613 10.1789ZM20.0161 9.82111L18.3147 19.1789L20.2825 19.5367L21.9839 10.1789L20.0161 9.82111ZM6.66915 22H17.3308V20H6.66915V22ZM7.5 9H3V11H7.5V9ZM21 9H16.5V11H21V9ZM16.5 9H7.5V11H16.5V9ZM18.3147 19.1789C18.2283 19.6544 17.8141 20 17.3308 20V22C18.7807 22 20.0231 20.9631 20.2825 19.5367L18.3147 19.1789ZM3.71754 19.5367C3.9769 20.9631 5.21929 22 6.66915 22V20C6.18587 20 5.77174 19.6544 5.68528 19.1789L3.71754 19.5367ZM15.5104 9.85606L14.5104 16.7311L16.4896 17.0189L17.4896 10.1439L15.5104 9.85606ZM6.51041 10.1439L7.51041 17.0189L9.48959 16.7311L8.48959 9.85606L6.51041 10.1439ZM13 17V10H11V17H13Z" fill="black"/>
</svg>
