<svg width="24" height="24" viewBox="0 0 24 24" fill="none" xmlns="http://www.w3.org/2000/svg">
<path d="M20.1213 8.12132C21.2929 6.94975 21.2929 5.05025 20.1213 3.87868C18.9497 2.70711 17.0503 2.70711 15.8787 3.87868C14.7071 5.05025 14.7071 6.94975 15.8787 8.12132L14.2781 9.72231M8.58908 11.1445L12.8555 15.4109M8.58908 11.1445C7.80364 10.359 7.80364 9.08559 8.58908 8.30015L9.30015 7.58908C10.0856 6.80364 11.359 6.80364 12.1445 7.58908L14.2781 9.72231M8.58908 11.1445C7.80364 10.359 6.5309 10.3591 5.74547 11.1445L5.03439 11.8556C4.24895 12.641 4.24895 13.9144 5.03439 14.6999L7.16762 16.8308L9.30085 18.9663C10.0863 19.7518 11.3597 19.7518 12.1452 18.9663L12.8562 18.2553C13.6417 17.4698 13.641 16.1964 12.8555 15.4109M12.8555 15.4109C13.641 16.1964 14.9144 16.1964 15.6998 15.4109L16.4109 14.6998C17.1964 13.9144 17.1964 12.641 16.4109 11.8555L14.2781 9.72231M12.858 15.4109L8.59158 11.1445M3 21L7.16943 16.8307" stroke="black" stroke-width="2" stroke-linecap="round" stroke-linejoin="round"/>
</svg>
