<svg width="24" height="24" viewBox="0 0 24 24" fill="none" xmlns="http://www.w3.org/2000/svg">
<path d="M9 5H15C18.3137 5 21 7.68629 21 11V12L12 11M9 5C5.68629 5 3 7.68629 3 11V12L12 11M9 5L7.5 11.5M12 11L13.3846 5M16.5 11.5L17.8359 5.71118M3 16C3 17.6569 4.34315 19 6 19C6.76835 19 7.46924 18.7111 8 18.2361C8.53076 18.7111 9.23165 19 10 19C10.7684 19 11.4692 18.7111 12 18.2361C12.5308 18.7111 13.2316 19 14 19C14.7684 19 15.4692 18.7111 16 18.2361C16.5308 18.7111 17.2316 19 18 19C19.6569 19 21 17.6569 21 16" stroke="black" stroke-width="2" stroke-linecap="round" stroke-linejoin="round"/>
</svg>
