<svg width="24" height="24" viewBox="0 0 24 24" fill="none" xmlns="http://www.w3.org/2000/svg">
<path d="M21 6C21 4.34315 16.9706 3 12 3C7.02944 3 3 4.34315 3 6M21 6C21 6.17532 20.9549 6.34713 20.8683 6.5142C20.1367 7.92607 16.4446 9 12 9C7.02944 9 3 7.65685 3 6M21 6V18C21 19.6569 16.9706 21 12 21C7.02944 21 3 19.6569 3 18V6M8.01953 8.69107C8.01953 6.79838 9.99136 5.21271 12.6402 4.79727M12.6402 4.79727C13.6275 6.10379 15.6577 7.00001 18.0019 7.00001C19.0408 7.00001 20.0181 6.82398 20.8702 6.5142M12.6402 4.79727C12.2319 4.25691 12.0019 3.64636 12.0019 3" stroke="black" stroke-width="2" stroke-linecap="round" stroke-linejoin="round"/>
</svg>
