<svg width="24" height="24" viewBox="0 0 24 24" fill="none" xmlns="http://www.w3.org/2000/svg">
<path d="M3 20H2C2 20.5523 2.44772 21 3 21V20ZM21 20V21C21.5523 21 22 20.5523 22 20H21ZM8 16C7.44772 16 7 16.4477 7 17C7 17.5523 7.44772 18 8 18V16ZM8.01 18C8.56228 18 9.01 17.5523 9.01 17C9.01 16.4477 8.56228 16 8.01 16V18ZM11 13C10.4477 13 10 13.4477 10 14C10 14.5523 10.4477 15 11 15V13ZM11.01 15C11.5623 15 12.01 14.5523 12.01 14C12.01 13.4477 11.5623 13 11.01 13V15ZM12 4L12.7777 3.37135C12.5878 3.13648 12.302 3 12 3C11.698 3 11.4122 3.13648 11.2223 3.37135L12 4ZM14.1932 6.71316L13.4155 7.34181C13.6642 7.64945 14.0708 7.78157 14.4529 7.67886L14.1932 6.71316ZM17.5623 5.8073L18.561 5.75583C18.5454 5.45422 18.3944 5.1758 18.1501 4.99829C17.9058 4.82077 17.5943 4.76318 17.3027 4.8416L17.5623 5.8073ZM17.7419 9.29143L16.7432 9.34291C16.7636 9.73796 17.0149 10.0839 17.3843 10.2253L17.7419 9.29143ZM21 10.5389L21.8382 11.0842C22.0029 10.8311 22.0444 10.5171 21.9511 10.2299C21.8577 9.94264 21.6396 9.71298 21.3576 9.60499L21 10.5389ZM3 10.5389L2.64244 9.60499C2.3604 9.71298 2.14227 9.94264 2.04894 10.2299C1.95562 10.5171 1.9971 10.8311 2.1618 11.0842L3 10.5389ZM6.25811 9.29143L6.61567 10.2253C6.98509 10.0839 7.23642 9.73796 7.25678 9.34291L6.25811 9.29143ZM6.43769 5.8073L6.69734 4.8416C6.4057 4.76318 6.09423 4.82077 5.84991 4.99829C5.60558 5.1758 5.45457 5.45422 5.43902 5.75583L6.43769 5.8073ZM9.80679 6.71316L9.54714 7.67886C9.92915 7.78157 10.3358 7.64945 10.5845 7.34181L9.80679 6.71316ZM19.6861 10.7246C19.3849 11.1875 19.5161 11.807 19.979 12.1082C20.4419 12.4093 21.0613 12.2782 21.3625 11.8153L19.6861 10.7246ZM2.63746 11.8153C2.93865 12.2782 3.55809 12.4093 4.02102 12.1082C4.48394 11.807 4.61505 11.1875 4.31386 10.7246L2.63746 11.8153ZM4 20C4 15.5817 7.58172 12 12 12V10C6.47715 10 2 14.4772 2 20H4ZM12 12C16.4183 12 20 15.5817 20 20H22C22 14.4772 17.5228 10 12 10V12ZM3 21H21V19H3V21ZM8 18H8.01V16H8V18ZM11 15H11.01V13H11V15ZM11.2223 4.62865L13.4155 7.34181L14.9709 6.08451L12.7777 3.37135L11.2223 4.62865ZM14.4529 7.67886L17.822 6.77301L17.3027 4.8416L13.9336 5.74746L14.4529 7.67886ZM16.5636 5.85878L16.7432 9.34291L18.7406 9.23995L18.561 5.75583L16.5636 5.85878ZM17.3843 10.2253L20.6424 11.4728L21.3576 9.60499L18.0995 8.35754L17.3843 10.2253ZM3.35756 11.4728L6.61567 10.2253L5.90054 8.35754L2.64244 9.60499L3.35756 11.4728ZM7.25678 9.34291L7.43637 5.85878L5.43902 5.75583L5.25943 9.23995L7.25678 9.34291ZM6.17804 6.77301L9.54714 7.67886L10.0664 5.74746L6.69734 4.8416L6.17804 6.77301ZM10.5845 7.34181L12.7777 4.62865L11.2223 3.37135L9.0291 6.08451L10.5845 7.34181ZM20.1618 9.99352L19.6861 10.7246L21.3625 11.8153L21.8382 11.0842L20.1618 9.99352ZM4.31386 10.7246L3.8382 9.99352L2.1618 11.0842L2.63746 11.8153L4.31386 10.7246Z" fill="black"/>
</svg>
