<svg width="24" height="24" viewBox="0 0 24 24" fill="none" xmlns="http://www.w3.org/2000/svg">
<path d="M16.9939 9.00613L17.926 9.78296C19.8565 11.3919 21 13.9728 21 16.7209C21 19.0842 19.3398 21 17.2919 21H6.70806C4.66015 21 3 19.0842 3 16.7209C3 13.9728 4.14354 11.3919 6.07405 9.78296L7.31608 8.7478C9.40501 7.0068 12.0409 6.56647 14.4064 7.42681M14.4064 7.42681C13.7887 7.79874 13.0763 8 12.3431 8H12C9.79086 8 8 9.79086 8 12C8 14.2091 9.79086 16 12 16C14.2091 16 16 14.2091 16 12V11.6569C16 10.596 16.4214 9.57857 17.1716 8.82843L17.5858 8.41421C17.9477 8.77614 18.4477 9 19 9C20.1046 9 21 8.10457 21 7C21 5.89543 20.1046 5 19 5C19 3.89543 18.1046 3 17 3C15.8954 3 15 3.89543 15 5C15 5.55228 15.2239 6.05228 15.5858 6.41421L15.1716 6.82843C14.9398 7.06017 14.6826 7.26055 14.4064 7.42681Z" stroke="black" stroke-width="2" stroke-linecap="round" stroke-linejoin="round"/>
</svg>
