<svg width="24" height="24" viewBox="0 0 24 24" fill="none" xmlns="http://www.w3.org/2000/svg">
<path opacity="0.3" d="M19.5202 6.27424L21.6467 10.9999H17.0812C16.7393 11.0009 16.4297 11.0103 16.1279 11.0828C15.8218 11.1563 15.5291 11.2775 15.2607 11.442C14.9552 11.6292 14.7017 11.8831 14.4143 12.1711L14.23 12.3555C13.8504 12.7351 13.7713 12.8051 13.6939 12.8525C13.6044 12.9074 13.5069 12.9478 13.4048 12.9723C13.3165 12.9935 13.2111 12.9999 12.6743 12.9999H11.3253C10.7885 12.9999 10.6831 12.9935 10.5948 12.9723C10.4927 12.9478 10.3952 12.9074 10.3057 12.8525C10.2283 12.8051 10.1492 12.7351 9.76965 12.3555L9.58532 12.1711C9.29786 11.8831 9.04441 11.6292 8.73887 11.442C8.47046 11.2775 8.17782 11.1563 7.87171 11.0828C7.56988 11.0103 7.26032 11.0009 6.91843 10.9999H2.35352L4.47999 6.27423C4.87636 5.39176 5.17505 4.72675 5.66053 4.22331C6.08739 3.78065 6.61057 3.44238 7.1894 3.23477C7.84773 2.99864 8.57673 2.99915 9.54414 2.99983H14.4561C15.4235 2.99915 16.1525 2.99864 16.8108 3.23477C17.3896 3.44238 17.9128 3.78065 18.3397 4.22331C18.8252 4.72675 19.1238 5.39176 19.5202 6.27424Z" fill="black"/>
<path d="M2.35341 11L2.08808 11.5896C2.03002 11.7186 2 11.8585 2 12V15.8385C1.99998 16.3657 1.99997 16.8205 2.03057 17.195C2.06287 17.5904 2.13419 17.9836 2.32698 18.362C2.6146 18.9265 3.07355 19.3854 3.63803 19.673C4.01641 19.8658 4.40963 19.9371 4.80497 19.9694C5.17954 20 5.6343 20 6.16144 20H17.8386C18.3657 20 18.8205 20 19.195 19.9694C19.5904 19.9371 19.9836 19.8658 20.362 19.673C20.9265 19.3854 21.3854 18.9265 21.673 18.362C21.8658 17.9836 21.9371 17.5904 21.9694 17.195C22 16.8205 22 16.3657 22 15.8386V12C22 11.8585 21.97 11.7186 21.9119 11.5896L21.6466 11H17.0788C16.7379 11.001 16.4292 11.0106 16.1281 11.0829C15.822 11.1564 15.5293 11.2776 15.2609 11.4421C14.9554 11.6293 14.7019 11.8832 14.4145 12.1712L14.2302 12.3556C13.8506 12.7352 13.7715 12.8052 13.6941 12.8526C13.6046 12.9075 13.5071 12.9479 13.405 12.9724C13.3167 12.9936 13.2113 13 12.6745 13H11.3255C10.7887 13 10.6833 12.9936 10.595 12.9724C10.493 12.9479 10.3954 12.9075 10.3059 12.8526C10.2285 12.8052 10.1494 12.7352 9.76985 12.3556L9.58552 12.1712C9.29807 11.8832 9.04462 11.6293 8.73907 11.4421C8.47066 11.2776 8.17802 11.1564 7.87191 11.0829C7.57085 11.0106 7.26209 11.001 6.92124 11H2.35341Z" fill="black"/>
</svg>
