<svg width="24" height="24" viewBox="0 0 24 24" fill="none" xmlns="http://www.w3.org/2000/svg">
<path opacity="0.3" d="M20 7.16144V11C17.3175 11 17.1433 10.9999 17.2422 11C16.8353 10.9996 16.4765 10.9992 16.1281 11.0829C15.822 11.1564 15.5293 11.2776 15.2609 11.4421C14.9554 11.6293 14.7019 11.8832 14.4145 12.1712L14.2302 12.3556C13.8506 12.7352 13.7715 12.8052 13.6941 12.8526C13.6046 12.9075 13.5071 12.9479 13.405 12.9724C13.3167 12.9936 13.2113 13 12.6745 13H11.3255C10.7887 13 10.6833 12.9936 10.595 12.9724C10.4929 12.9479 10.3954 12.9075 10.3059 12.8526C10.2285 12.8052 10.1494 12.7352 9.76985 12.3556L9.5855 12.1712C9.29805 11.8832 9.04461 11.6293 8.73907 11.4421C8.47065 11.2776 8.17802 11.1564 7.87191 11.0829C7.52347 10.9992 7.16473 10.9996 6.75784 11L6.6776 11L4 11L4 7.16146C3.99998 6.63432 3.99997 6.17954 4.03057 5.80497C4.06287 5.40963 4.13419 5.01641 4.32698 4.63803C4.6146 4.07354 5.07354 3.6146 5.63803 3.32698C6.01641 3.13419 6.40963 3.06287 6.80497 3.03057C7.17955 2.99997 7.63431 2.99998 8.16146 3H15.8385C16.3657 2.99998 16.8205 2.99997 17.195 3.03057C17.5904 3.06287 17.9836 3.13419 18.362 3.32698C18.9265 3.6146 19.3854 4.07354 19.673 4.63803C19.8658 5.01641 19.9371 5.40963 19.9694 5.80497C20 6.17954 20 6.6343 20 7.16144Z" fill="black"/>
<path d="M21 10.9999L17.082 10.9999C16.7399 11.0009 16.4301 11.0103 16.1281 11.0828C16.0756 11.0954 16.0235 11.1094 15.9718 11.1248C15.7223 11.1992 15.4833 11.3057 15.2609 11.442C14.9554 11.6292 14.702 11.8831 14.4145 12.1711L14.2302 12.3556C13.8506 12.7351 13.7715 12.8051 13.6941 12.8526C13.6046 12.9074 13.5071 12.9478 13.405 12.9723C13.3167 12.9935 13.2113 12.9999 12.6745 12.9999H11.3255C10.7887 12.9999 10.6833 12.9935 10.595 12.9723C10.4929 12.9478 10.3954 12.9074 10.3059 12.8526C10.2285 12.8051 10.1494 12.7351 9.76985 12.3556L9.5855 12.1711C9.29805 11.8831 9.04461 11.6292 8.73907 11.442C8.47066 11.2775 8.17802 11.1563 7.87191 11.0828C7.5699 11.0103 7.26014 11.0009 6.918 10.9999L3 10.9999C2.44772 10.9999 2 11.4476 2 11.9999V16.8385C1.99998 17.3656 1.99997 17.8204 2.03057 18.1949C2.06287 18.5903 2.13419 18.9835 2.32698 19.3619C2.6146 19.9264 3.07354 20.3853 3.63803 20.6729C4.01641 20.8657 4.40963 20.937 4.80497 20.9693C5.17954 21 5.6343 20.9999 6.16144 20.9999H17.8386C18.3657 20.9999 18.8205 21 19.195 20.9693C19.5904 20.937 19.9836 20.8657 20.362 20.6729C20.9265 20.3853 21.3854 19.9264 21.673 19.3619C21.8658 18.9835 21.9371 18.5903 21.9694 18.1949C22 17.8204 22 17.3656 22 16.8385V11.9999C22 11.4476 21.5523 10.9999 21 10.9999Z" fill="black"/>
</svg>
