<svg width="24" height="24" viewBox="0 0 24 24" fill="none" xmlns="http://www.w3.org/2000/svg">
<path opacity="0.3" d="M22 8.56641L21.5147 8.85761C21.5051 8.86332 21.4955 8.86888 21.4858 8.87427L17.7678 10.9399C15.9333 11.9594 14.8147 12.581 13.6118 12.8284C12.5485 13.0471 11.4518 13.0471 10.3886 12.8284C9.18563 12.581 8.06706 11.9594 6.23251 10.9398L2.504 8.86842L2 8.58041V15.8387C1.99998 16.3659 1.99997 16.8207 2.03057 17.1952C2.06287 17.5906 2.13419 17.9838 2.32698 18.3622C2.6146 18.9266 3.07354 19.3856 3.63803 19.6732C4.01641 19.866 4.40963 19.9373 4.80497 19.9696C5.17952 20.0002 5.63425 20.0002 6.16136 20.0002H17.8385C18.3656 20.0002 18.8205 20.0002 19.195 19.9696C19.5904 19.9373 19.9836 19.866 20.362 19.6732C20.9265 19.3856 21.3854 18.9266 21.673 18.3622C21.8658 17.9838 21.9371 17.5906 21.9694 17.1952C22 16.8207 22 16.3659 22 15.8388V8.56641Z" fill="black"/>
<path d="M17.8385 4H6.16145C5.63431 3.99998 5.17952 3.99997 4.80496 4.03057C4.40962 4.06287 4.0164 4.13419 3.63802 4.32698C3.07353 4.6146 2.61459 5.07354 2.32697 5.63803C2.21165 5.86436 2.13979 6.096 2.09375 6.33023L3.49107 7.1287L7.0466 9.10399C9.08845 10.2384 9.92597 10.6912 10.7915 10.8692C11.5889 11.0332 12.4114 11.0332 13.2089 10.8692C14.0743 10.6912 14.9119 10.2383 16.9537 9.10399L20.5 7.13386L21.899 6.29444C21.8528 6.07241 21.7825 5.85283 21.673 5.63803C21.3854 5.07355 20.9264 4.6146 20.362 4.32698C19.9836 4.13419 19.5904 4.06287 19.195 4.03057C18.8205 3.99997 18.3657 3.99998 17.8385 4Z" fill="black"/>
</svg>
