<svg width="24" height="24" viewBox="0 0 24 24" fill="none" xmlns="http://www.w3.org/2000/svg">
<path opacity="0.3" d="M22 9.96191C21.6888 10.2059 21.3596 10.4359 21.0153 10.6511C18.6611 12.1224 15.4711 12.9998 12 12.9998C8.52886 12.9998 5.33887 12.1224 2.98472 10.6511C2.64042 10.4359 2.31117 10.2059 2 9.96192V15.8383C1.99998 16.3655 1.99997 16.8203 2.03057 17.1948C2.06287 17.5902 2.13419 17.9834 2.32698 18.3618C2.6146 18.9263 3.07354 19.3852 3.63803 19.6728C4.01641 19.8656 4.40963 19.9369 4.80497 19.9692C5.17952 19.9998 5.63425 19.9998 6.16136 19.9998H17.8385C18.3656 19.9998 18.8205 19.9998 19.195 19.9692C19.5904 19.9369 19.9836 19.8656 20.362 19.6728C20.9265 19.3852 21.3854 18.9263 21.673 18.3618C21.8658 17.9834 21.9371 17.5902 21.9694 17.1948C22 16.8203 22 16.3655 22 15.8384V9.96191Z" fill="black"/>
<path d="M21.9904 7.186C21.9859 7.05107 21.9792 6.92397 21.9695 6.80497C21.9372 6.40963 21.8659 6.01641 21.6731 5.63803C21.3855 5.07355 20.9265 4.6146 20.362 4.32698C19.9837 4.13419 19.5904 4.06287 19.1951 4.03057C18.8205 3.99997 18.3658 3.99998 17.8387 4H6.16153C5.6344 3.99998 5.17961 3.99997 4.80505 4.03057C4.4097 4.06287 4.01648 4.13419 3.6381 4.32698C3.07362 4.6146 2.61468 5.07354 2.32706 5.63803C2.13426 6.01641 2.06295 6.40963 2.03064 6.80497C2.02092 6.92397 2.01429 7.05107 2.00977 7.18601C2.50835 7.82144 3.18877 8.42029 4.04479 8.9553C6.03379 10.1984 8.8438 11 12.0001 11C15.1563 11 17.9664 10.1984 19.9554 8.9553C20.8114 8.42029 21.4918 7.82144 21.9904 7.186Z" fill="black"/>
</svg>
