<svg width="24" height="24" viewBox="0 0 24 24" fill="none" xmlns="http://www.w3.org/2000/svg">
<path opacity="0.3" d="M22 8.32002L21.7506 8.62743L21.7488 8.62966L21.7451 8.63423L21.7333 8.64872C21.7234 8.66072 21.7097 8.67735 21.6921 8.69831C21.6571 8.74021 21.6067 8.79944 21.5419 8.87353C21.4123 9.02164 21.2244 9.22958 20.9842 9.47743C20.5048 9.972 19.8114 10.6314 18.9523 11.2927C17.2584 12.5964 14.7996 14.0002 12.0005 14.0002C9.20148 14.0002 6.74265 12.5964 5.04875 11.2927C4.18968 10.6314 3.49628 9.972 3.01693 9.47743C2.7767 9.22958 2.58877 9.02163 2.45919 8.87353C2.39437 8.79944 2.34403 8.74021 2.30895 8.69831C2.29141 8.67735 2.27767 8.66072 2.26783 8.64872L2.256 8.63423L2.25292 8.63043L2 8.31885V15.8387C1.99998 16.3659 1.99997 16.8206 2.03057 17.1952C2.06287 17.5905 2.13419 17.9838 2.32698 18.3621C2.6146 18.9266 3.07354 19.3856 3.63803 19.6732C4.01641 19.866 4.40963 19.9373 4.80497 19.9696C5.17952 20.0002 5.63425 20.0002 6.16136 20.0002H17.8385C18.3656 20.0002 18.8205 20.0002 19.195 19.9696C19.5904 19.9373 19.9836 19.866 20.362 19.6732C20.9265 19.3856 21.3854 18.9266 21.673 18.3621C21.8658 17.9838 21.9371 17.5905 21.9694 17.1952C22 16.8206 22 16.3659 22 15.8387V8.32002Z" fill="black"/>
<path d="M17.8384 4H6.16134C5.6342 3.99998 5.17942 3.99997 4.80485 4.03057C4.40951 4.06287 4.01629 4.13419 3.63791 4.32698C3.09178 4.60525 2.64445 5.04387 2.35547 5.58329L3.80847 7.37332L3.81408 7.3802L3.84232 7.41423C3.86856 7.44558 3.90946 7.49376 3.96426 7.55639C4.07392 7.68173 4.23882 7.8644 4.45293 8.08531C4.88224 8.52824 5.50352 9.11879 6.2685 9.70758C7.82271 10.9038 9.84949 12 12.0004 12C14.1514 12 16.1781 10.9038 17.7323 9.70758C18.4973 9.11879 19.1186 8.52824 19.5479 8.08531C19.762 7.8644 19.9269 7.68173 20.0366 7.55639C20.0914 7.49376 20.1323 7.44558 20.1585 7.41423L20.1868 7.3802L20.1924 7.37332L20.1931 7.3724L20.1951 7.37L21.6444 5.58355C21.3555 5.04401 20.9081 4.60529 20.3619 4.32698C19.9835 4.13419 19.5903 4.06287 19.1949 4.03057C18.8203 3.99997 18.3656 3.99998 17.8384 4Z" fill="black"/>
</svg>
