<svg width="24" height="24" viewBox="0 0 24 24" fill="none" xmlns="http://www.w3.org/2000/svg">
<path opacity="0.3" fill-rule="evenodd" clip-rule="evenodd" d="M2.48854 19.5616C2.42003 19.7356 2.35537 19.8997 2.30007 20.05C2.23023 20.2397 2.15877 20.4291 2.08136 20.6158C1.95297 20.9244 1.98721 21.2767 2.17263 21.5548C2.3581 21.8329 2.67039 22 3.00471 22H12.0039C17.5267 22 22.0039 17.5228 22.0039 12C22.0039 6.47715 17.5267 2 12.0039 2C6.48105 2 2.00391 6.47715 2.00391 12C2.00391 13.595 2.37798 15.1053 3.04425 16.4457C3.37301 17.3161 2.87068 18.5914 2.48854 19.5616Z" fill="black"/>
<path d="M10.999 9.99926C11.11 9.56774 11.5029 9.25 11.9675 9.25C12.5198 9.25 12.9675 9.69772 12.9675 10.25C12.9675 10.4232 12.922 10.5553 12.6481 10.8197C12.5137 10.9494 12.3585 11.0782 12.1539 11.248L12.0624 11.324C11.8241 11.5223 11.5446 11.7587 11.2604 12.0429C10.8699 12.4334 10.8699 13.0666 11.2604 13.4571C11.6509 13.8476 12.2841 13.8476 12.6746 13.4571C12.8905 13.2413 13.111 13.0533 13.3414 12.8616L13.4271 12.7905C13.6245 12.6269 13.8441 12.4449 14.037 12.2587C14.513 11.7993 14.9675 11.1814 14.9675 10.25C14.9675 8.59315 13.6244 7.25 11.9675 7.25C10.5683 7.25 9.39505 8.20704 9.06208 9.50074C8.92442 10.0356 9.2464 10.5808 9.78126 10.7184C10.3161 10.8561 10.8613 10.5341 10.999 9.99926Z" fill="black"/>
<path d="M11.9702 16.75C12.5225 16.75 12.9702 16.3023 12.9702 15.75C12.9702 15.1977 12.5225 14.75 11.9702 14.75C11.4179 14.75 10.9702 15.1977 10.9702 15.75C10.9702 16.3023 11.4179 16.75 11.9702 16.75Z" fill="black"/>
</svg>
