<svg width="24" height="24" viewBox="0 0 24 24" fill="none" xmlns="http://www.w3.org/2000/svg">
<g opacity="0.3">
<path d="M7.77463 14.8109C7.26544 14.2248 6.8014 13.5943 6.3865 12.9226L8.93785 9.70839L8.94391 9.70059L9.00317 9.6246C9.25127 9.3069 9.50072 8.98746 9.63712 8.61215C9.75613 8.28467 9.80537 7.93591 9.78168 7.58828C9.75453 7.18988 9.60328 6.81387 9.45284 6.43989L9.41694 6.35046L8.69397 4.54303C8.56665 4.2247 8.45097 3.93544 8.33516 3.70001C8.21012 3.4458 8.05382 3.187 7.81506 2.9602C7.46578 2.62842 7.02809 2.40462 6.55463 2.31572C6.23097 2.25495 5.92965 2.27978 5.65037 2.32724C5.39169 2.3712 5.08947 2.44678 4.75684 2.52996L2.75743 3.02988C2.31228 3.14118 2 3.54116 2 4.00001C2 7.48064 2.81104 10.6405 4.29511 13.3093C4.30073 13.3198 4.30654 13.3302 4.31254 13.3406C4.89428 14.3815 5.57861 15.3474 6.35732 16.2282L7.77463 14.8109Z" fill="black"/>
<path d="M16.4378 14.2612C16.0476 14.2493 15.66 14.3288 15.306 14.4936C14.8998 14.6826 14.5751 15.0087 14.2517 15.3335L14.176 15.4096L11.6188 17.9323C11.555 17.8966 11.4916 17.8604 11.4285 17.8238C10.9507 17.5467 10.3388 17.7093 10.0617 18.1871C9.78459 18.6648 9.94722 19.2767 10.425 19.5538C10.7208 19.7254 11.0229 19.8886 11.3309 20.0431C11.3448 20.0505 11.3588 20.0575 11.3729 20.0642C13.8951 21.321 16.8141 22 20 22C20.4589 22 20.8589 21.6876 20.9702 21.2424L21.4697 19.243C21.5529 18.9103 21.6285 18.6081 21.6725 18.3494C21.72 18.0701 21.7448 17.7688 21.684 17.4451C21.5951 16.9716 21.3713 16.534 21.0395 16.1847C20.8127 15.9459 20.5539 15.7896 20.2997 15.6646C20.0643 15.5488 19.7751 15.4331 19.4569 15.3058L17.8405 14.6593L17.7378 14.618C17.3125 14.4469 16.8857 14.275 16.4378 14.2612Z" fill="black"/>
</g>
<path d="M3.70711 21.7071L21.7071 3.70711C22.0976 3.31658 22.0976 2.68342 21.7071 2.29289C21.3166 1.90237 20.6834 1.90237 20.2929 2.29289L2.29289 20.2929C1.90237 20.6834 1.90237 21.3166 2.29289 21.7071C2.68342 22.0976 3.31658 22.0976 3.70711 21.7071Z" fill="black"/>
</svg>
