<svg width="24" height="24" viewBox="0 0 24 24" fill="none" xmlns="http://www.w3.org/2000/svg">
<path opacity="0.3" fill-rule="evenodd" clip-rule="evenodd" d="M6.35008 12.8633L8.92773 9.72085C8.93321 9.71417 8.9386 9.70741 8.94391 9.70059C8.96362 9.67525 8.98339 9.64993 9.00317 9.6246C9.25127 9.3069 9.50072 8.98746 9.63712 8.61215C9.75613 8.28467 9.80537 7.93591 9.78168 7.58828C9.75453 7.18987 9.60328 6.81387 9.45284 6.43989C9.44085 6.41007 9.42886 6.38027 9.41694 6.35046L8.69397 4.54303C8.56665 4.22469 8.45097 3.93544 8.33516 3.70001C8.21012 3.4458 8.05382 3.187 7.81506 2.9602C7.46578 2.62842 7.02809 2.40462 6.55463 2.31572C6.23097 2.25495 5.92965 2.27978 5.65037 2.32724C5.39169 2.3712 5.08947 2.44678 4.75684 2.52996C4.74619 2.53262 4.73551 2.53529 4.7248 2.53797L2.75743 3.02988C2.31228 3.14118 2 3.54116 2 4.00001C2 7.44709 2.79548 10.5795 4.25238 13.232C4.25804 13.2427 4.26391 13.2534 4.26998 13.2639C5.02444 14.6305 5.95484 15.8692 7.04277 16.9571C8.29214 18.2065 9.74022 19.2481 11.3526 20.0541C11.3644 20.0603 11.3763 20.0662 11.3883 20.0719C13.904 21.3222 16.8179 22 20 22C20.4589 22 20.8589 21.6876 20.9702 21.2424L21.4697 19.243C21.5529 18.9103 21.6285 18.6081 21.6725 18.3494C21.72 18.0701 21.7448 17.7688 21.684 17.4451C21.5951 16.9716 21.3713 16.534 21.0395 16.1847C20.8127 15.9459 20.5539 15.7896 20.2997 15.6646C20.0643 15.5488 19.775 15.4331 19.4567 15.3058L17.8405 14.6593C17.8062 14.6456 17.772 14.6318 17.7378 14.618C17.3125 14.4469 16.8857 14.275 16.4378 14.2612C16.0476 14.2493 15.66 14.3288 15.306 14.4936C14.8998 14.6826 14.5751 15.0087 14.2517 15.3336C14.226 15.3594 14.2002 15.3853 14.1744 15.4111L14.1736 15.4119L11.6328 17.94C10.4521 17.2799 9.38836 16.4743 8.457 15.5429C7.65798 14.7439 6.95155 13.8474 6.35008 12.8633Z" fill="black"/>
<path d="M18 2C18.5523 2 19 2.44772 19 3V5H21C21.5523 5 22 5.44772 22 6C22 6.55228 21.5523 7 21 7H19V9C19 9.55228 18.5523 10 18 10C17.4477 10 17 9.55228 17 9V7H15C14.4477 7 14 6.55228 14 6C14 5.44772 14.4477 5 15 5H17V3C17 2.44772 17.4477 2 18 2Z" fill="black"/>
</svg>
