<svg width="24" height="24" viewBox="0 0 24 24" fill="none" xmlns="http://www.w3.org/2000/svg">
<path opacity="0.3" fill-rule="evenodd" clip-rule="evenodd" d="M4.56201 1.99998C4.52956 1.99998 4.49612 1.99981 4.46181 1.99964C4.0926 1.99777 3.62284 1.99538 3.20164 2.19849C2.84993 2.36808 2.53191 2.66367 2.33708 3.00205C2.10433 3.4063 2.07407 3.849 2.05068 4.19112L2.04456 4.27868C2.01502 4.68209 2 5.08937 2 5.49998C2 14.6127 9.3873 22 18.5 22C18.9106 22 19.3179 21.985 19.7213 21.9554L19.8089 21.9493C20.151 21.9259 20.5937 21.8957 20.9979 21.6629C21.3363 21.4681 21.6319 21.15 21.8015 20.7983C22.0046 20.3771 22.0022 19.9074 22.0003 19.5382C22.0002 19.5165 22.0001 19.4951 22.0001 19.4742C22 19.462 22 19.4499 22 19.438V16.6207L22.0002 16.5351C22.0015 16.2259 22.0032 15.8379 21.8671 15.4835C21.7497 15.1778 21.559 14.9055 21.3118 14.6907C21.0253 14.4417 20.66 14.3106 20.369 14.2062L20.2885 14.1772L17.0555 13.0016C16.8575 12.9295 16.6611 12.8581 16.488 12.8094C16.2952 12.7551 16.0654 12.7088 15.8034 12.7258C15.434 12.7498 15.0786 12.8759 14.7766 13.0899C14.5624 13.2418 14.4132 13.4225 14.2976 13.5862C14.1939 13.7331 14.0864 13.9123 13.978 14.093L13.9702 14.1061L12.8766 15.8285C10.8708 14.784 9.21773 13.1295 8.17169 11.1232L9.89392 10.0298L9.90701 10.022C10.0877 9.91358 10.2669 9.80609 10.4138 9.70236C10.5775 9.5868 10.7582 9.43757 10.9101 9.22333C11.1241 8.92138 11.2501 8.56595 11.2742 8.19661C11.2912 7.93457 11.2449 7.7048 11.1906 7.51195C11.1419 7.33888 11.0705 7.1425 10.9984 6.9445L9.82278 3.71145L9.79377 3.63097C9.68933 3.33997 9.55826 2.97473 9.30926 2.68818C9.09445 2.44096 8.82222 2.25028 8.51647 2.13289C8.16208 1.99681 7.77404 1.99844 7.46487 1.99974L7.37932 1.99998H4.56201Z" fill="black"/>
<path fill-rule="evenodd" clip-rule="evenodd" d="M18 2C16.3431 2 15 3.34315 15 5V5.26794C14.6208 5.48685 14.3216 5.82568 14.1522 6.23463C14.0553 6.46868 14.0248 6.6944 14.0118 6.88477C14 7.05885 14 7.26346 14 7.4735V7.52647C14 7.73651 14 7.94115 14.0118 8.11523C14.0248 8.3056 14.0553 8.53132 14.1522 8.76537C14.3552 9.25542 14.7446 9.64477 15.2346 9.84776C15.4687 9.9447 15.6944 9.97518 15.8848 9.98817C16.0589 10 16.2635 10 16.4735 10H19.5265C19.7365 10 19.9411 10 20.1152 9.98817C20.3056 9.97518 20.5313 9.9447 20.7654 9.84776C21.2554 9.64477 21.6448 9.25542 21.8478 8.76537C21.9447 8.53132 21.9752 8.3056 21.9882 8.11523C22 7.94114 22 7.73652 22 7.52648V7.47352C22 7.26348 22 7.05886 21.9882 6.88477C21.9752 6.6944 21.9447 6.46868 21.8478 6.23463C21.6784 5.82568 21.3792 5.48685 21 5.26794V5C21 3.34315 19.6569 2 18 2ZM18 4C18.5523 4 19 4.44772 19 5L17 5C17 4.44772 17.4477 4 18 4Z" fill="black"/>
</svg>
