<svg width="24" height="24" viewBox="0 0 24 24" fill="none" xmlns="http://www.w3.org/2000/svg">
<path opacity="0.3" fill-rule="evenodd" clip-rule="evenodd" d="M6.35323 12.8684L8.92861 9.71977C8.93379 9.71344 8.93889 9.70705 8.94391 9.70059C8.96362 9.67525 8.98339 9.64993 9.00317 9.6246C9.25127 9.3069 9.50072 8.98746 9.63712 8.61215C9.75613 8.28467 9.80537 7.93591 9.78168 7.58828C9.75453 7.18987 9.60328 6.81387 9.45284 6.43989C9.44085 6.41007 9.42886 6.38027 9.41694 6.35046L8.69397 4.54303C8.56665 4.22469 8.45097 3.93544 8.33516 3.70001C8.21012 3.4458 8.05382 3.187 7.81506 2.9602C7.46578 2.62842 7.02809 2.40462 6.55463 2.31572C6.23097 2.25495 5.92965 2.27978 5.65037 2.32724C5.39169 2.3712 5.08947 2.44678 4.75684 2.52996C4.74619 2.53262 4.73551 2.53529 4.7248 2.53797L2.75743 3.02988C2.31228 3.14118 2 3.54116 2 4.00001C2 7.44999 2.79682 10.5848 4.25607 13.2387C4.26173 13.2494 4.2676 13.2601 4.27368 13.2706C5.02748 14.6346 5.95662 15.8709 7.04277 16.9571C8.28521 18.1996 9.72418 19.2366 11.3259 20.0407C11.3376 20.0469 11.3494 20.0528 11.3614 20.0585C13.8832 21.3173 16.8066 22 20 22C20.4589 22 20.8589 21.6876 20.9702 21.2424L21.4697 19.243C21.5529 18.9103 21.6285 18.6081 21.6725 18.3494C21.72 18.0701 21.7448 17.7688 21.684 17.4451C21.5951 16.9716 21.3713 16.534 21.0395 16.1847C20.8127 15.9459 20.5539 15.7896 20.2997 15.6646C20.0643 15.5488 19.775 15.4331 19.4567 15.3058L17.8405 14.6593C17.8062 14.6456 17.772 14.6318 17.7378 14.618C17.3125 14.4469 16.8857 14.275 16.4378 14.2612C16.0476 14.2493 15.66 14.3288 15.306 14.4936C14.8998 14.6826 14.5751 15.0087 14.2517 15.3336C14.2267 15.3587 14.2017 15.3838 14.1766 15.4089L11.6126 17.9287C10.44 17.2707 9.38305 16.469 8.457 15.5429C7.65937 14.7453 6.95402 13.8505 6.35323 12.8684Z" fill="black"/>
<path fill-rule="evenodd" clip-rule="evenodd" d="M15 5C15 3.34315 16.3431 2 18 2C19.6569 2 21 3.34315 21 5V5.26794C21.3792 5.48685 21.6784 5.82568 21.8478 6.23463C21.9447 6.46868 21.9752 6.6944 21.9882 6.88477C22 7.05886 22 7.26348 22 7.47352V7.52648C22 7.73652 22 7.94114 21.9882 8.11523C21.9752 8.3056 21.9447 8.53132 21.8478 8.76537C21.6448 9.25542 21.2554 9.64477 20.7654 9.84776C20.5313 9.9447 20.3056 9.97518 20.1152 9.98817C19.9411 10 19.7365 10 19.5265 10H16.4735C16.2635 10 16.0589 10 15.8848 9.98817C15.6944 9.97518 15.4687 9.9447 15.2346 9.84776C14.7446 9.64477 14.3552 9.25542 14.1522 8.76537C14.0553 8.53132 14.0248 8.3056 14.0118 8.11523C14 7.94115 14 7.73651 14 7.52647V7.4735C14 7.26346 14 7.05885 14.0118 6.88477C14.0248 6.6944 14.0553 6.46868 14.1522 6.23463C14.3216 5.82568 14.6208 5.48685 15 5.26794V5ZM19 5C19 4.44772 18.5523 4 18 4C17.4477 4 17 4.44772 17 5L19 5Z" fill="black"/>
</svg>
