<svg width="24" height="24" viewBox="0 0 24 24" fill="none" xmlns="http://www.w3.org/2000/svg">
<path opacity="0.3" fill-rule="evenodd" clip-rule="evenodd" d="M6.36427 12.8865L8.9317 9.71597L8.94391 9.70059C8.96362 9.67525 8.98339 9.64993 9.00317 9.6246C9.25127 9.3069 9.50072 8.98746 9.63712 8.61215C9.75613 8.28467 9.80537 7.93591 9.78168 7.58828C9.75453 7.18987 9.60328 6.81387 9.45284 6.43989C9.44085 6.41007 9.42886 6.38027 9.41694 6.35046L8.69397 4.54303C8.56665 4.22469 8.45097 3.93544 8.33516 3.70001C8.21012 3.4458 8.05382 3.187 7.81506 2.9602C7.46578 2.62842 7.02809 2.40462 6.55463 2.31572C6.23097 2.25495 5.92965 2.27978 5.65037 2.32724C5.39169 2.3712 5.08947 2.44678 4.75684 2.52996C4.74619 2.53262 4.73551 2.53529 4.7248 2.53797L2.75743 3.02988C2.31228 3.14118 2 3.54116 2 4.00001C2 7.46019 2.80154 10.6033 4.26902 13.2622C4.27467 13.2729 4.28052 13.2835 4.28657 13.2939C5.03807 14.6487 5.96281 15.8771 7.04277 16.9571C8.28436 18.1987 9.72221 19.2352 11.3226 20.0391C11.3343 20.0452 11.3462 20.0512 11.3581 20.0569C13.8807 21.3167 16.8052 22 20 22C20.4589 22 20.8589 21.6876 20.9702 21.2424L21.4697 19.243C21.5529 18.9103 21.6285 18.6081 21.6725 18.3494C21.72 18.0701 21.7448 17.7688 21.684 17.4451C21.5951 16.9716 21.3713 16.534 21.0395 16.1847C20.8127 15.9459 20.5539 15.7896 20.2997 15.6646C20.0643 15.5488 19.775 15.4331 19.4567 15.3058L17.8405 14.6593C17.8062 14.6456 17.772 14.6318 17.7378 14.618C17.3125 14.4469 16.8857 14.275 16.4378 14.2612C16.0476 14.2493 15.66 14.3288 15.306 14.4936C14.8998 14.6826 14.5751 15.0087 14.2517 15.3336C14.2268 15.3586 14.2019 15.3837 14.1769 15.4086L11.6101 17.9274C10.4385 17.2696 9.38241 16.4683 8.457 15.5429C7.66425 14.7502 6.96265 13.8615 6.36427 12.8865Z" fill="black"/>
<path d="M17 2C17.5523 2 18 2.44772 18 3L18 9C18 9.55228 17.5523 10 17 10C16.4477 10 16 9.55228 16 9V3C16 2.44772 16.4477 2 17 2Z" fill="black"/>
<path d="M21 2C21.5523 2 22 2.44772 22 3V9C22 9.55228 21.5523 10 21 10C20.4477 10 20 9.55228 20 9V3C20 2.44772 20.4477 2 21 2Z" fill="black"/>
</svg>
