<svg width="24" height="24" viewBox="0 0 24 24" fill="none" xmlns="http://www.w3.org/2000/svg">
<path opacity="0.3" d="M15.5475 13.601C17.9055 14.25 20.1621 15.5605 22.1415 17.5109C22.4684 17.833 22.5341 18.3361 22.3009 18.7313L21.7027 19.7454C21.5285 20.0407 21.3702 20.309 21.22 20.5242C21.0577 20.7564 20.8639 20.9885 20.5935 21.1764C20.1979 21.4512 19.7312 21.6059 19.2498 21.6219C18.9206 21.6327 18.6266 21.5624 18.3578 21.4731C18.1088 21.3903 17.8216 21.2697 17.5054 21.137L16.7746 20.8302L16.6857 20.793C16.3138 20.6376 15.9398 20.4815 15.6369 20.2212C15.3727 19.9941 15.1588 19.7142 15.0091 19.3996C14.8375 19.039 14.785 18.6371 14.7328 18.2374L14.7203 18.1419L14.7199 18.1385L14.3627 15.37C13.5684 15.2012 12.7684 15.1204 11.9719 15.1263C11.0073 15.1334 10.0394 15.2677 9.08472 15.5314L9.10293 17.8424L9.10391 17.9536C9.1083 18.4119 9.11271 18.8721 8.96228 19.2942C8.83121 19.6619 8.61584 19.9938 8.33341 20.2634C8.00927 20.5727 7.58726 20.7562 7.16691 20.9389L7.06541 20.9831L6.52791 21.2182L6.52782 21.2183C6.21374 21.3557 5.92836 21.4805 5.68064 21.5669C5.41316 21.6602 5.12018 21.7349 4.79092 21.7288C4.30927 21.72 3.84042 21.5722 3.44077 21.3033C3.16757 21.1194 2.97037 20.8902 2.80474 20.6604C2.65133 20.4475 2.4891 20.1816 2.31054 19.8888L1.69719 18.8837C1.45814 18.492 1.5164 17.9879 1.83849 17.661C3.61103 15.862 5.62022 14.5881 7.73448 13.8575C7.74706 13.8529 7.75975 13.8485 7.77256 13.8444C9.13584 13.3778 10.5424 13.1368 11.9571 13.1263C13.1529 13.1175 14.3453 13.2734 15.513 13.5915C15.5246 13.5945 15.5361 13.5976 15.5475 13.601Z" fill="black"/>
<path fill-rule="evenodd" clip-rule="evenodd" d="M11.9998 4C9.48197 4 7.20709 5.03263 5.5725 6.70004C5.18587 7.09443 4.55274 7.10072 4.15835 6.7141C3.76397 6.32748 3.75768 5.69434 4.1443 5.29996C6.13955 3.26464 8.92291 2 11.9998 2C15.0768 2 17.8601 3.26464 19.8554 5.29996C20.242 5.69434 20.2357 6.32748 19.8413 6.7141C19.4469 7.10072 18.8138 7.09443 18.4272 6.70004C16.7926 5.03263 14.5177 4 11.9998 4ZM11.9998 8C10.5191 8 9.18969 8.6424 8.27272 9.66691C7.9044 10.0784 7.2722 10.1135 6.86067 9.74513C6.44915 9.37681 6.41413 8.74461 6.78245 8.33309C8.06277 6.9026 9.92654 6 11.9998 6C14.0731 6 15.9368 6.9026 17.2171 8.33309C17.5855 8.74461 17.5505 9.37681 17.1389 9.74513C16.7274 10.1135 16.0952 10.0784 15.7269 9.66691C14.8099 8.6424 13.4805 8 11.9998 8Z" fill="black"/>
</svg>
