<svg width="24" height="24" viewBox="0 0 24 24" fill="none" xmlns="http://www.w3.org/2000/svg">
<path opacity="0.3" d="M12.0511 5.73656C12.5381 5.49304 12.963 5.28057 13.3101 5.14414C13.6404 5.01433 14.1111 4.86168 14.6083 4.98008C15.2225 5.12632 15.7316 5.55398 15.9816 6.13371C16.184 6.60306 16.1148 7.09304 16.0439 7.44077C15.9694 7.80621 15.8334 8.26139 15.6775 8.78308L15.0154 10.9998H9.76465C9.21236 10.9998 8.76465 11.4475 8.76465 11.9998C8.76465 12.552 9.21236 12.9998 9.76465 12.9998H15.0018L15.6651 15.2014C15.8227 15.7243 15.9601 16.1803 16.0357 16.5463C16.1075 16.8944 16.1781 17.3852 15.9762 17.8556C15.7269 18.4364 15.2177 18.8652 14.603 19.012C14.1051 19.1309 13.6334 18.9778 13.3027 18.8478C12.9548 18.7111 12.5289 18.4981 12.0404 18.2538L4.14017 14.3037C3.71338 14.0903 3.3333 13.9003 3.0453 13.7219C2.76143 13.5461 2.39692 13.2836 2.19359 12.8549C1.93634 12.3125 1.93634 11.6832 2.19359 11.1408C2.39692 10.7121 2.76143 10.4497 3.04531 10.2738C3.33329 10.0954 3.71335 9.90541 4.14012 9.69206L12.0511 5.73656Z" fill="black"/>
<path d="M20.7637 6.99805C21.316 6.99805 21.7637 7.44576 21.7637 7.99805C21.7637 8.55033 21.316 8.99805 20.7637 8.99805H18.2637C17.7114 8.99805 17.2637 8.55033 17.2637 7.99805C17.2637 7.44576 17.7114 6.99805 18.2637 6.99805H20.7637Z" fill="black"/>
<path d="M19.7637 10.998C20.316 10.998 20.7637 11.4458 20.7637 11.998C20.7637 12.5503 20.316 12.998 19.7637 12.998H18.2637C17.7114 12.998 17.2637 12.5503 17.2637 11.998C17.2637 11.4458 17.7114 10.998 18.2637 10.998H19.7637Z" fill="black"/>
<path d="M19.2637 14.998C19.816 14.998 20.2637 15.4458 20.2637 15.998C20.2637 16.5503 19.816 16.998 19.2637 16.998H18.2637C17.7114 16.998 17.2637 16.5503 17.2637 15.998C17.2637 15.4458 17.7114 14.998 18.2637 14.998H19.2637Z" fill="black"/>
<path d="M14.7593 12.1993L15.0006 13H9.76344C9.21115 13 8.76344 12.5523 8.76344 12C8.76344 11.4477 9.21115 11 9.76344 11H15.0142L14.7589 11.8544C14.7315 11.9462 14.7182 11.9914 14.7095 12.0246L14.7089 12.0269L14.7095 12.0293C14.7182 12.0624 14.7317 12.1076 14.7593 12.1993Z" fill="black"/>
</svg>
