<svg width="24" height="24" viewBox="0 0 24 24" fill="none" xmlns="http://www.w3.org/2000/svg">
<path opacity="0.3" d="M7.85047 4.31131L18.0915 8.91974C18.8251 9.24983 19.4377 9.52549 19.8927 9.78158C20.3356 10.0308 20.8241 10.3625 21.086 10.8922C21.4312 11.5905 21.4312 12.4099 21.086 13.1083C20.8241 13.638 20.3356 13.9697 19.8927 14.2189C19.4377 14.475 18.8251 14.7507 18.0915 15.0808L7.86801 19.6813C7.11559 20.0199 6.48899 20.3019 5.98576 20.4763C5.4984 20.6451 4.91575 20.7945 4.33889 20.6335C3.58148 20.4221 2.96767 19.8667 2.68187 19.1342C2.4642 18.5762 2.55481 17.9816 2.67425 17.4798C2.79759 16.9617 3.01572 16.3102 3.27766 15.5278L4.12393 12.9999L11.5005 13.0002C12.0528 13.0003 12.5005 12.5526 12.5005 12.0003C12.5006 11.448 12.0529 11.0003 11.5006 11.0002L4.10172 10.9999L3.25754 8.45652C2.99844 7.67594 2.78259 7.02566 2.66092 6.50853C2.54301 6.00739 2.45428 5.41388 2.67259 4.85725C2.95937 4.12603 3.57313 3.57211 4.32982 3.36156C4.90585 3.20128 5.48719 3.3502 5.97366 3.51871C6.47564 3.6926 7.10046 3.97378 7.85047 4.31131Z" fill="black"/>
<path d="M4.12377 13L11.5003 13.0003C12.0526 13.0004 12.5004 12.5527 12.5004 12.0004C12.5004 11.4481 12.0527 11.0004 11.5004 11.0003L4.10156 11L4.29895 11.5947C4.40442 11.9125 4.41154 11.9475 4.41485 11.9734C4.42031 12.016 4.42026 12.0591 4.41469 12.1017C4.41131 12.1276 4.4041 12.1626 4.29781 12.4801L4.12377 13Z" fill="black"/>
</svg>
