<svg width="24" height="24" viewBox="0 0 24 24" fill="none" xmlns="http://www.w3.org/2000/svg">
<path d="M19.5 21L15.5625 17.0625M15.5625 17.0625L9.54688 11.0469M15.5625 17.0625L13.4008 19.8418C12.8324 20.5726 11.9585 21 11.0327 21H8.5C6.29086 21 4.5 19.2091 4.5 17V16.6098C4.5 15.2895 5.15157 14.0542 6.24126 13.3086L9.54688 11.0469M15.5625 17.0625L19.5 12M9.54688 11.0469L7.53553 9.03553C6.87249 8.37249 6.5 7.47322 6.5 6.53553C6.5 4.58291 8.08291 3 10.0355 3H10.7266C12.5344 3 14 4.46556 14 6.27341C14 7.35392 13.4668 8.36483 12.575 8.97498L9.54688 11.0469Z" stroke="black" stroke-width="2" stroke-linecap="round" stroke-linejoin="round"/>
</svg>
