<svg width="24" height="24" viewBox="0 0 24 24" fill="none" xmlns="http://www.w3.org/2000/svg">
<path d="M16 17L13.9 14.8125M13.9 14.8125L10.6917 11.4705M13.9 14.8125L12.9642 16.0658C12.5252 16.6537 11.8345 17 11.1008 17H10.3831C9.06697 17 8 15.933 8 14.6169C8 13.8463 8.37253 13.1234 8.99998 12.6762L10.6917 11.4705M13.9 14.8125L16 12M10.6917 11.4705L9.61856 10.3527C9.26442 9.98377 9.06667 9.49222 9.06667 8.98086C9.06667 7.88686 9.95353 7 11.0475 7H11.2335C12.2459 7 13.0667 7.82074 13.0667 8.83318C13.0667 9.42589 12.7801 9.98201 12.2975 10.326L10.6917 11.4705ZM21 12C21 16.9706 16.9706 21 12 21C7.02944 21 3 16.9706 3 12C3 7.02944 7.02944 3 12 3C16.9706 3 21 7.02944 21 12Z" stroke="black" stroke-width="2" stroke-linecap="round"/>
</svg>
