<svg width="24" height="24" viewBox="0 0 24 24" fill="none" xmlns="http://www.w3.org/2000/svg">
<path d="M8 20L9.40265 20.526C9.80025 20.6751 10.2086 20.7944 10.627 20.8667C11.0042 20.9318 11.4566 21 11.6981 21H13.1922C14.7429 21 16 19.7429 16 18.1922C16 16.9038 15.1231 15.7808 13.8732 15.4683L10.6667 14.6667M16 4L14.5973 3.474C14.1997 3.3249 13.7914 3.20563 13.373 3.13334C12.9958 3.06819 12.5434 3 12.3019 3H10.8078C9.25708 3 8 4.25708 8 5.80776C8 7.09616 8.87686 8.21921 10.1268 8.5317L13.3333 9.33333M10.6667 14.6667L13.8938 14.2633C15.097 14.1129 16 13.09 16 11.8774C16 10.774 15.2491 9.81227 14.1787 9.54467L13.3333 9.33333M10.6667 14.6667L9.82131 14.4553C8.75091 14.1877 8 13.226 8 12.1226C8 10.91 8.90297 9.88713 10.1062 9.73672L13.3333 9.33333" stroke="black" stroke-width="2" stroke-linecap="round" stroke-linejoin="round"/>
</svg>
