<svg width="24" height="24" viewBox="0 0 24 24" fill="none" xmlns="http://www.w3.org/2000/svg">
<path d="M16.5 11.6429V10.2143C16.5 9.8198 16.1642 9.5 15.75 9.5H14.25C13.8358 9.5 13.5 9.8198 13.5 10.2143V11.6429C13.5 12.0373 13.8358 12.3571 14.25 12.3571H15.75C16.1642 12.3571 16.5 12.0373 16.5 11.6429ZM16.5 11.6429V13.0714C16.5 13.8604 15.8284 14.5 15 14.5H14.625M10.5 11.6429V10.2143C10.5 9.8198 10.1642 9.5 9.75 9.5H8.25C7.83579 9.5 7.5 9.8198 7.5 10.2143V11.6429C7.5 12.0373 7.83579 12.3571 8.25 12.3571H9.75C10.1642 12.3571 10.5 12.0373 10.5 11.6429ZM10.5 11.6429V13.0714C10.5 13.8604 9.82843 14.5 9 14.5H8.625M6 20H18C19.1046 20 20 19.1046 20 18V6C20 4.89543 19.1046 4 18 4H6C4.89543 4 4 4.89543 4 6V18C4 19.1046 4.89543 20 6 20Z" stroke="black" stroke-width="2" stroke-linecap="round" stroke-linejoin="round"/>
</svg>
