<svg width="24" height="24" viewBox="0 0 24 24" fill="none" xmlns="http://www.w3.org/2000/svg">
<path d="M16 17L13.9 14.8125M13.9 14.8125L10.6917 11.4705M13.9 14.8125L12.9642 16.0658C12.5252 16.6537 11.8345 17 11.1008 17H10.3831C9.06697 17 8 15.933 8 14.6169C8 13.8463 8.37253 13.1234 8.99998 12.6762L10.6917 11.4705M13.9 14.8125L16 12M10.6917 11.4705L9.61856 10.3527C9.26442 9.98377 9.06667 9.49222 9.06667 8.98086C9.06667 7.88686 9.95353 7 11.0475 7H11.2335C12.2459 7 13.0667 7.82074 13.0667 8.83318C13.0667 9.42589 12.7801 9.98201 12.2975 10.326L10.6917 11.4705ZM6 20H18C19.1046 20 20 19.1046 20 18V6C20 4.89543 19.1046 4 18 4H6C4.89543 4 4 4.89543 4 6V18C4 19.1046 4.89543 20 6 20Z" stroke="black" stroke-width="2" stroke-linecap="round" stroke-linejoin="round"/>
</svg>
