<svg width="24" height="24" viewBox="0 0 24 24" fill="none" xmlns="http://www.w3.org/2000/svg">
<path d="M2 3C2 2.44772 2.44772 2 3 2C3.62676 2 4.24672 2.03038 4.85845 2.0898C5.40814 2.1432 5.81047 2.63211 5.75708 3.1818C5.70368 3.7315 5.21478 4.13383 4.66508 4.08044C4.44463 4.05902 4.22292 4.04181 4 4.02889V20H19.9711C19.9581 19.776 19.9408 19.5531 19.9192 19.3316C19.8657 18.7819 20.268 18.2929 20.8177 18.2394C21.3673 18.1859 21.8563 18.5881 21.9098 19.1378C21.9695 19.7508 22 20.372 22 21C22 21.5523 21.5523 22 21 22H3C2.44772 22 2 21.5523 2 21V3Z" fill="black"/>
<path d="M7.27532 3.48201C7.43562 2.9535 7.99402 2.65501 8.52252 2.81532C9.72123 3.1789 10.8697 3.65767 11.955 4.23864C12.4419 4.49929 12.6253 5.10531 12.3646 5.59222C12.104 6.07913 11.498 6.26254 11.0111 6.00189C10.0403 5.48225 9.0135 5.05421 7.94201 4.72922C7.4135 4.56891 7.11501 4.01052 7.27532 3.48201Z" fill="black"/>
<path d="M13.6481 6.45158C13.9988 6.02489 14.6289 5.96325 15.0556 6.3139C16.0168 7.10379 16.899 7.98619 17.6887 8.94753C18.0393 9.37429 17.9775 10.0044 17.5507 10.355C17.124 10.7056 16.4938 10.6438 16.1433 10.217C15.4362 9.35632 14.6464 8.56626 13.7858 7.85908C13.3591 7.50842 13.2975 6.87827 13.6481 6.45158Z" fill="black"/>
<path d="M18.408 11.6358C18.895 11.3752 19.501 11.5586 19.7616 12.0455C20.3439 13.1333 20.8235 14.2847 21.1874 15.4864C21.3474 16.015 21.0487 16.5733 20.5201 16.7333C19.9915 16.8933 19.4333 16.5946 19.2732 16.066C18.948 14.9918 18.5192 13.9624 17.9983 12.9894C17.7377 12.5024 17.9211 11.8964 18.408 11.6358Z" fill="black"/>
</svg>
