<svg width="24" height="24" viewBox="0 0 24 24" fill="none" xmlns="http://www.w3.org/2000/svg">
<path d="M16.4741 4.83414C16.4592 4.81752 16.4437 4.80128 16.4275 4.78546C16.2327 4.59476 15.9799 4.49981 15.7272 4.5C15.4746 4.49981 15.2217 4.59476 15.027 4.78546C15.0111 4.80097 14.9959 4.81689 14.9813 4.83317L2.28546 17.8004C2.09749 17.9924 2.00255 18.2408 2.00005 18.4898C2.00002 18.4932 2 18.4966 2 18.5C2 18.6396 2.02861 18.7726 2.08029 18.8933C2.1258 18.9998 2.19063 19.1 2.27472 19.1885C2.29396 19.2087 2.31405 19.2282 2.33493 19.2468C2.41757 19.3205 2.50943 19.3781 2.60647 19.4196C2.72725 19.4713 2.86028 19.5 3 19.5H21C21.5523 19.5 22 19.0523 22 18.5C22 18.4819 21.9995 18.4639 21.9986 18.446C21.9969 17.8278 21.9669 17.2161 21.9096 16.6123C21.8575 16.0625 21.3696 15.659 20.8197 15.7111C20.2699 15.7632 19.8664 16.2512 19.9186 16.801C19.9405 17.0327 19.958 17.2657 19.971 17.5H5.37855L15.7061 6.9517C15.8556 7.12358 16.0018 7.29852 16.1446 7.47642C16.4904 7.90708 17.1198 7.97591 17.5504 7.63015C17.9811 7.28439 18.0499 6.65498 17.7042 6.22432C17.3161 5.74092 16.9055 5.27697 16.4741 4.83414Z" fill="black"/>
<path d="M18.418 8.95638C18.9073 8.70019 19.5116 8.88915 19.7678 9.37842C20.3507 10.4919 20.8304 11.6702 21.1935 12.8999C21.3499 13.4296 21.0473 13.9858 20.5177 14.1422C19.988 14.2986 19.4318 13.996 19.2754 13.4663C18.9494 12.3626 18.519 11.3052 17.9959 10.3061C17.7398 9.81687 17.9287 9.21256 18.418 8.95638Z" fill="black"/>
</svg>
