<svg width="24" height="24" viewBox="0 0 24 24" fill="none" xmlns="http://www.w3.org/2000/svg">
<path d="M12.7071 2.29289C12.3166 1.90237 11.6834 1.90237 11.2929 2.29289L8.2929 5.29289C7.90237 5.68342 7.90237 6.31658 8.2929 6.70711C8.68342 7.09763 9.31659 7.09763 9.70711 6.70711L11 5.41421V15C11 15.5523 11.4477 16 12 16C12.5523 16 13 15.5523 13 15V5.41421L14.2929 6.70711C14.6834 7.09763 15.3166 7.09763 15.7071 6.70711C16.0976 6.31658 16.0976 5.68342 15.7071 5.29289L12.7071 2.29289Z" fill="black"/>
<path d="M6.2 8L6.16146 8C5.63431 7.99998 5.17955 7.99997 4.80497 8.03057C4.40963 8.06287 4.01641 8.13419 3.63803 8.32698C3.07354 8.6146 2.6146 9.07354 2.32698 9.63803C2.13419 10.0164 2.06287 10.4096 2.03057 10.805C1.99997 11.1795 1.99998 11.6343 2 12.1614L2.01874 16.6045L3.82322 18.409C4.20163 18.7874 4.71486 19 5.25 19C5.78515 19 6.29837 18.7874 6.67678 18.409L6.90901 18.1768C7.23623 17.8496 7.61408 17.5846 8.02415 17.3896L8 9.8C8 8.80589 7.19411 8 6.2 8Z" fill="black"/>
<path d="M22 12.1614V18.5858L21.591 18.1768C20.8375 17.4233 19.8156 17 18.75 17C17.7267 17 16.7437 17.3904 16 18.0886V9.8C16 8.80589 16.8059 8 17.8 8L17.8385 8C18.3657 7.99998 18.8205 7.99997 19.195 8.03057C19.5904 8.06287 19.9836 8.13419 20.362 8.32698C20.9265 8.6146 21.3854 9.07354 21.673 9.63803C21.8658 10.0164 21.9371 10.4096 21.9694 10.805C22 11.1795 22 11.6343 22 12.1614Z" fill="black"/>
<path d="M8.32322 20.591C8.70163 20.2126 9.21485 20 9.75 20C10.2851 20 10.7984 20.2126 11.1768 20.591L11.409 20.8232C12.1625 21.5767 13.1844 22 14.25 22C15.3156 22 16.3375 21.5767 17.091 20.8232L17.3232 20.591C17.7016 20.2126 18.2149 20 18.75 20C19.2851 20 19.7984 20.2126 20.1768 20.591L20.7929 21.2071C21.1834 21.5976 21.8166 21.5976 22.2071 21.2071C22.5976 20.8166 22.5976 20.1834 22.2071 19.7929L21.591 19.1768C20.8375 18.4233 19.8156 18 18.75 18C17.6844 18 16.6625 18.4233 15.909 19.1768L15.6768 19.409C15.2984 19.7874 14.7851 20 14.25 20C13.7149 20 13.2016 19.7874 12.8232 19.409L12.591 19.1768C11.8375 18.4233 10.8156 18 9.75 18C8.68442 18 7.66249 18.4233 6.90901 19.1768L6.67678 19.409C6.29837 19.7874 5.78515 20 5.25 20C4.71486 20 4.20163 19.7874 3.82322 19.409L3.20711 18.7929C2.81658 18.4024 2.18342 18.4024 1.79289 18.7929C1.40237 19.1834 1.40237 19.8166 1.79289 20.2071L2.40901 20.8232C3.16249 21.5767 4.18442 22 5.25 22C6.31558 22 7.33751 21.5767 8.09099 20.8232L8.32322 20.591Z" fill="black"/>
</svg>
