<svg width="24" height="24" viewBox="0 0 24 24" fill="none" xmlns="http://www.w3.org/2000/svg">
<path d="M9.3795 10.206L1.99985 17.5856C1.2188 18.3667 1.2188 19.633 1.99985 20.4141L2.58564 20.9999C3.36669 21.7809 4.63301 21.7809 5.41406 20.9999L12.7937 13.6202L9.3795 10.206Z" fill="black"/>
<path fill-rule="evenodd" clip-rule="evenodd" d="M19.4141 2.99985C18.633 2.2188 17.3667 2.2188 16.5856 2.99985L15.4998 4.08564L14.207 2.79274C13.8164 2.40222 13.1833 2.40222 12.7927 2.79274L8.79274 6.79274C8.60521 6.98028 8.49985 7.23463 8.49985 7.49985C8.49985 7.76507 8.60521 8.01942 8.79274 8.20696L9.93661 9.35082L9.93758 9.34985L13.9376 13.3499L13.9366 13.3508L14.5786 13.9929L15.0193 16.196C15.1128 16.6634 15.5232 16.9998 15.9998 16.9998C19.8658 16.9998 22.9998 13.8658 22.9998 9.99985C22.9998 9.52317 22.6634 9.11275 22.196 9.01927L19.9929 8.57865L18.9141 7.49985L19.9999 6.41406C20.7809 5.63301 20.7809 4.36668 19.9998 3.58564L19.4141 2.99985ZM19.8287 10.5854C19.8287 10.5854 19.1435 11.8564 18.5 12.4999C17.8565 13.1434 16.5855 13.8286 16.5855 13.8286L16.8069 14.9351C18.922 14.592 20.5921 12.9219 20.9352 10.8067L19.8287 10.5854Z" fill="black"/>
</svg>
