<svg width="24" height="24" viewBox="0 0 24 24" fill="none" xmlns="http://www.w3.org/2000/svg">
<path d="M13 3C13 2.44772 12.5523 2 12 2C11.4477 2 11 2.44772 11 3V10.1707C9.83481 10.5825 9 11.6938 9 13C9 14.6569 10.3431 16 12 16C13.6569 16 15 14.6569 15 13C15 11.6938 14.1652 10.5825 13 10.1707V3Z" fill="black"/>
<path d="M5 8C3.34315 8 2 9.34315 2 11V19C2 20.6569 3.34315 22 5 22H19C20.6569 22 22 20.6569 22 19V11C22 9.34315 20.6569 8 19 8H18C16.8954 8 16 8.89543 16 10V13C16 15.2091 14.2091 17 12 17C9.79086 17 8 15.2091 8 13V10C8 8.89543 7.10457 8 6 8H5Z" fill="black"/>
</svg>
