<svg width="24" height="24" viewBox="0 0 24 24" fill="none" xmlns="http://www.w3.org/2000/svg">
<path fill-rule="evenodd" clip-rule="evenodd" d="M21 8H19C19 4.68629 16.3137 2 13 2H11C7.68629 2 5 4.68629 5 8H3C2.44772 8 2 8.44772 2 9C2 9.55228 2.44772 10 3 10H3.18686L5.18933 19.6119C5.47916 21.003 6.70525 22 8.12628 22H15.8737C17.2948 22 18.5208 21.003 18.8107 19.6119L20.8131 10H21C21.5523 10 22 9.55228 22 9C22 8.44772 21.5523 8 21 8ZM7 8C7 5.79086 8.79086 4 11 4H13C15.2091 4 17 5.79086 17 8H7Z" fill="black"/>
</svg>
