<svg width="24" height="24" viewBox="0 0 24 24" fill="none" xmlns="http://www.w3.org/2000/svg">
<path d="M15.73 3H12.5004V12H17.15L15.73 3Z" fill="black"/>
<path d="M11.5004 3H8.28L6.85 12H11.5004V3Z" fill="black"/>
<path d="M7.27 3H4.22223C3.78651 3 3.40095 3.28213 3.26911 3.69742L1.04688 10.6974C0.950387 11.0014 1.00466 11.3331 1.19298 11.5905C1.37992 11.846 1.67668 11.9978 1.99296 12H5.84L7.27 3Z" fill="black"/>
<path d="M2.74222 13L2.86723 14H2.00001C1.44772 14 1.00001 14.4477 1.00001 15C1.00001 15.5523 1.44772 16 2.00001 16H3.11723L3.50001 19.0623V21C3.50001 21.5523 3.94772 22 4.50001 22C5.05229 22 5.50001 21.5523 5.50001 21V20H18.5V21C18.5 21.5523 18.9477 22 19.5 22C20.0523 22 20.5 21.5523 20.5 21V19.0623L20.8828 16H22C22.5523 16 23 15.5523 23 15C23 14.4477 22.5523 14 22 14H21.1328L21.2578 13H2.74222Z" fill="black"/>
<path d="M22.0071 12C22.3233 11.9978 22.6201 11.846 22.807 11.5905C22.9954 11.3331 23.0496 11.0014 22.9531 10.6974L20.7309 3.69742C20.5991 3.28213 20.2135 3 19.7778 3H16.74L18.17 12H22.0071Z" fill="black"/>
</svg>
