<svg width="24" height="24" viewBox="0 0 24 24" fill="none" xmlns="http://www.w3.org/2000/svg">
<path d="M18.7121 13.3035C18.3477 12.9282 17.7557 12.8972 17.3541 13.2323C16.8135 13.6833 16.4653 14.2208 16.2436 14.7581C16.1905 14.7373 16.1353 14.7209 16.0784 14.7093C15.7431 14.641 15.3963 14.7487 15.1588 14.995C14.3826 15.7999 14 16.8497 14 17.889C14 18.9283 14.3826 19.9781 15.1588 20.783C16.7237 22.4058 19.2763 22.4058 20.8412 20.783C21.6174 19.9781 22 18.9283 22 17.889C22 16.8497 21.6174 15.7999 20.8412 14.995C20.4901 14.631 20.0887 14.3574 19.7625 14.135L19.6857 14.0826C19.327 13.8372 19.0145 13.6149 18.7121 13.3035Z" fill="black"/>
<path d="M4.22223 3H7.27L5.84 12H1.99296C1.67668 11.9978 1.37992 11.846 1.19298 11.5905C1.00466 11.3331 0.950387 11.0014 1.04688 10.6974L3.26911 3.69742C3.40095 3.28213 3.78651 3 4.22223 3Z" fill="black"/>
<path d="M11.5004 3H8.28L6.85 12H11.5004V3Z" fill="black"/>
<path d="M15.73 3H12.5004V12H17.15L15.73 3Z" fill="black"/>
<path d="M2.74222 13L2.86723 14H2.00001C1.44772 14 1.00001 14.4477 1.00001 15C1.00001 15.5523 1.44772 16 2.00001 16H3.11723L3.50001 19.0623V21C3.50001 21.5523 3.94772 22 4.50001 22C5.05229 22 5.50001 21.5523 5.50001 21V20H13.4226C13.1401 19.3544 13 18.663 13 17.9754C13 16.7052 13.4783 15.4221 14.4485 14.4383C14.7454 14.1373 15.1789 14.0056 15.5979 14.0891C15.6691 14.1032 15.7381 14.1233 15.8045 14.1487C15.9692 13.7585 16.1897 13.3682 16.4834 13H2.74222Z" fill="black"/>
<path d="M22.807 11.5905C22.6201 11.846 22.3233 11.9978 22.0071 12H18.17L16.74 3H19.7778C20.2135 3 20.5991 3.28213 20.7309 3.69742L22.9531 10.6974C23.0496 11.0014 22.9954 11.3331 22.807 11.5905Z" fill="black"/>
</svg>
