<svg width="24" height="24" viewBox="0 0 24 24" fill="none" xmlns="http://www.w3.org/2000/svg">
<path d="M20 3C20 2.44772 19.5523 2 19 2C18.4477 2 18 2.44772 18 3V16C18 16.5523 18.4477 17 19 17H22C22.5523 17 23 16.5523 23 16C23 15.4477 22.5523 15 22 15H20V3Z" fill="black"/>
<path fill-rule="evenodd" clip-rule="evenodd" d="M7 2C6.44772 2 6 2.44772 6 3V8H2C1.44772 8 1 8.44772 1 9V18.5C1 20.433 2.567 22 4.5 22C6.26324 22 7.72194 20.6961 7.96456 19H11.0354C11.2781 20.6961 12.7368 22 14.5 22C16.433 22 18 20.433 18 18.5C18 17.5463 17.6186 16.6817 17 16.0505V12C17 11.8601 16.9706 11.7217 16.9138 11.5939L12.9138 2.59386C12.7533 2.23273 12.3952 2 12 2H7ZM11.3333 11H14.4612L11.3501 4H8V8.5L11.3333 11ZM6 18.5C6 19.3284 5.32843 20 4.5 20C3.67157 20 3 19.3284 3 18.5C3 17.6716 3.67157 17 4.5 17C5.32843 17 6 17.6716 6 18.5ZM14.5 20C15.3284 20 16 19.3284 16 18.5C16 17.6716 15.3284 17 14.5 17C13.6716 17 13 17.6716 13 18.5C13 19.3284 13.6716 20 14.5 20Z" fill="black"/>
</svg>
