<svg width="24" height="24" viewBox="0 0 24 24" fill="none" xmlns="http://www.w3.org/2000/svg">
<path fill-rule="evenodd" clip-rule="evenodd" d="M9.62467 4.28155C11.6153 2.7886 14.4007 2.98655 16.1602 4.74601L18.2789 6.86474C18.6977 7.28354 18.9832 7.81694 19.0994 8.39772L19.4212 10.007L20.5308 11.1166C20.9088 10.9157 21.3887 10.9744 21.7071 11.2929C22.0976 11.6834 22.0976 12.3166 21.7071 12.7071L21.2116 13.2026L21.2071 13.2072L19.2071 15.2071L19.2064 15.2079L18.7071 15.7071C18.3166 16.0976 17.6834 16.0976 17.2929 15.7071C16.9744 15.3887 16.9157 14.9088 17.1166 14.5308L16.007 13.4212L14.3854 13.0969L11 9.53343V8.53522L8.44531 6.83209C8.17528 6.65207 8.0094 6.3522 8.0004 6.02778C7.99139 5.70337 8.14038 5.39476 8.40001 5.20004L9.62467 4.28155Z" fill="black"/>
<path d="M2.98323 21.0168C4.39501 22.4286 6.71862 22.303 7.9703 20.7498L13.629 14L10.1016 10.2871L3.25017 16.0297C1.69706 17.2814 1.57146 19.605 2.98323 21.0168Z" fill="black"/>
</svg>
