<svg width="24" height="24" viewBox="0 0 24 24" fill="none" xmlns="http://www.w3.org/2000/svg">
<path d="M4.00027 2C3.57977 2 3.20418 2.26307 3.06048 2.65825L1.06048 8.15822C0.871778 8.67714 1.13938 9.2508 1.65825 9.43965L5.05251 10.6751L2.15145 18.6456C1.67922 19.9431 2.34819 21.3777 3.64563 21.8499C4.94307 22.3222 6.37768 21.6532 6.84991 20.3557L9.75097 12.3852L13.8743 13.8859C14.1235 13.9766 14.3985 13.9646 14.6389 13.8525C14.8793 13.7404 15.0653 13.5375 15.156 13.2882L17.5501 6.71039C17.7383 6.19328 17.4734 5.62127 16.9572 5.43043L7.84707 2.06206C7.73605 2.02101 7.61863 2 7.50027 2H4.00027Z" fill="black"/>
<path d="M13.3147 16.6731L12.918 14.5992L13.5371 14.8246C14.5752 15.2024 15.723 14.6671 16.1007 13.6289L18.4928 7.05359C18.8132 6.17272 18.4762 5.21228 17.7314 4.71107L18.8348 4.02086C19.1829 3.80314 19.6286 3.82027 19.959 4.06406C20.2893 4.30785 20.437 4.72876 20.3316 5.12553L19.5825 7.94367L22.3329 8.91228C22.7202 9.04865 22.9847 9.40785 23.0001 9.81811C23.0154 10.2284 22.7784 10.6063 22.4025 10.7713L19.7321 11.9427L20.6897 14.697C20.8245 15.0847 20.7086 15.5155 20.3975 15.7833C20.0863 16.0511 19.643 16.1015 19.2797 15.9104L16.6989 14.553L15.1425 17.019C14.9234 17.3661 14.5144 17.5441 14.111 17.4678C13.7076 17.3915 13.3918 17.0763 13.3147 16.6731Z" fill="black"/>
</svg>
