<svg width="24" height="24" viewBox="0 0 24 24" fill="none" xmlns="http://www.w3.org/2000/svg">
<path d="M15.9993 5.93543C18.7938 7.32387 20.7646 10.1215 20.9803 13.4H3.01967C3.23537 10.1215 5.20621 7.32387 8.00068 5.93543C8.00023 5.9569 8 5.97842 8 6V10.5C8 10.7761 8.22386 11 8.5 11C8.77614 11 9 10.7761 9 10.5V6C9 5.82352 9.02286 5.65238 9.06577 5.48938C9.29147 4.63216 10.0719 4 11 4H13C13.8975 4 14.6569 4.59112 14.9101 5.40526C14.9187 5.43304 14.9268 5.46109 14.9342 5.48938C14.9771 5.65238 15 5.82352 15 6V10.5C15 10.7761 15.2239 11 15.5 11C15.7761 11 16 10.7761 16 10.5V6C16 5.97842 15.9998 5.9569 15.9993 5.93543Z" fill="black"/>
<path d="M2 16.277C2 15.4973 2.39132 14.8103 2.98795 14.4H21.0125C21.6089 14.8106 22 15.4981 22 16.277C22 17.1476 21.4796 17.7963 20.8865 18.234C20.2949 18.6705 19.5077 18.9978 18.6387 19.2461C16.8885 19.7462 14.5375 20 12 20C9.46254 20 7.11148 19.7462 5.3613 19.2461C4.49233 18.9978 3.70507 18.6705 3.11352 18.234C2.52037 17.7963 2 17.1476 2 16.277Z" fill="black"/>
</svg>
