<svg width="24" height="24" viewBox="0 0 24 24" fill="none" xmlns="http://www.w3.org/2000/svg">
<path d="M15.934 1.64187L20.233 2.35837C20.4164 2.13931 20.6919 2 21 2C21.5523 2 22 2.44772 22 3V6C22 6.55228 21.5523 7 21 7C20.6919 7 20.4164 6.86069 20.233 6.64163L15.934 7.35813C15.7899 7.73352 15.4261 8 15 8C14.4477 8 14 7.55228 14 7V2C14 1.44772 14.4477 1 15 1C15.4261 1 15.7899 1.26648 15.934 1.64187Z" fill="black"/>
<path d="M2 21.5C2 20.6716 2.67157 20 3.5 20H20.5C21.3284 20 22 20.6716 22 21.5C22 22.3284 21.3284 23 20.5 23H3.5C2.67157 23 2 22.3284 2 21.5Z" fill="black"/>
<path d="M2 16.5C2 15.6716 2.67157 15 3.5 15H20.5C21.3284 15 22 15.6716 22 16.5C22 17.3284 21.3284 18 20.5 18H3.5C2.67157 18 2 17.3284 2 16.5Z" fill="black"/>
<path d="M13 4.5C13 5.32843 12.3284 6 11.5 6H7C5.89543 6 5 6.89543 5 8C5 9.10457 5.89543 10 7 10H20.5C21.3284 10 22 10.6716 22 11.5C22 12.3284 21.3284 13 20.5 13H7C4.23858 13 2 10.7614 2 8C2 5.23858 4.23858 3 7 3H11.5C12.3284 3 13 3.67157 13 4.5Z" fill="black"/>
</svg>
