<svg width="24" height="24" viewBox="0 0 24 24" fill="none" xmlns="http://www.w3.org/2000/svg">
<path d="M13.0003 3C11.8957 3 11.0003 3.89543 11.0003 5C11.0003 6.10457 11.8957 7 13.0003 7C14.1048 7 15.0003 6.10457 15.0003 5C15.0003 3.89543 14.1048 3 13.0003 3Z" fill="black"/>
<path d="M11.9359 9.70359L12.8482 13.5147L15.6574 14.5355L16.8284 12.7101C17.0123 12.4234 17.3295 12.25 17.6701 12.25C18.0107 12.25 18.3279 12.4234 18.5118 12.7101L22.842 19.4601C23.0394 19.7678 23.0531 20.1588 22.8777 20.4796C22.7024 20.8004 22.3659 21 22.0003 21H11.0003C10.6346 21 10.2981 20.8004 10.1228 20.4796C9.94742 20.1588 9.96114 19.7678 10.1586 19.4601L12.3236 16.0851C12.4583 15.8751 12.6645 15.7259 12.899 15.6611L2.65873 11.9399C2.13965 11.7512 1.87177 11.1775 2.0604 10.6585C2.24902 10.1394 2.82273 9.87151 3.3418 10.0601L4.70106 10.5541L5.23663 9.21524C5.77182 7.87731 7.06764 7 8.50864 7C10.1389 7 11.5563 8.11816 11.9359 9.70359Z" fill="black"/>
<path d="M4.2428 14.0299C3.75766 13.9086 3.25751 14.1643 3.07179 14.6286L1.07179 19.6286C0.866676 20.1414 1.11609 20.7234 1.62888 20.9285C2.14166 21.1336 2.72363 20.8842 2.92874 20.3714L4.60456 16.1818L7.00027 16.7808V20C7.00027 20.5523 7.44798 21 8.00027 21C8.55255 21 9.00027 20.5523 9.00027 20V16C9.00027 15.5411 8.68797 15.1411 8.2428 15.0299L4.2428 14.0299Z" fill="black"/>
</svg>
