<svg width="24" height="24" viewBox="0 0 24 24" fill="none" xmlns="http://www.w3.org/2000/svg">
<path d="M3 1C2.44772 1 2 1.44772 2 2C2 2.55228 2.44772 3 3 3H4V6C4 6.55228 4.44772 7 5 7H19C19.5523 7 20 6.55228 20 6V3H21C21.5523 3 22 2.55228 22 2C22 1.44772 21.5523 1 21 1H3Z" fill="black"/>
<path d="M5 8C4.44772 8 4 8.44772 4 9C4 9.55228 4.44772 10 5 10H19C19.5523 10 20 9.55228 20 9C20 8.44772 19.5523 8 19 8H5Z" fill="black"/>
<path d="M5 11C4.44772 11 4 11.4477 4 12C4 12.5523 4.44772 13 5 13H21C21.5523 13 22 12.5523 22 12C22 11.4477 21.5523 11 21 11H5Z" fill="black"/>
<path d="M5 14C4.44772 14 4 14.4477 4 15C4 15.5523 4.44772 16 5 16H19C19.5523 16 20 15.5523 20 15C20 14.4477 19.5523 14 19 14H5Z" fill="black"/>
<path d="M5 17C4.44772 17 4 17.4477 4 18V21H3C2.44772 21 2 21.4477 2 22C2 22.5523 2.44772 23 3 23H21C21.5523 23 22 22.5523 22 22C22 21.4477 21.5523 21 21 21H20V18C20 17.4477 19.5523 17 19 17H5Z" fill="black"/>
</svg>
