<svg width="24" height="24" viewBox="0 0 24 24" fill="none" xmlns="http://www.w3.org/2000/svg">
<path d="M19.707 2.2929C19.3551 1.94101 18.798 1.90142 18.3998 2.20001L14.3998 5.20001C14.148 5.38886 13.9998 5.68525 13.9998 6.00001V8.5858L10.3841 12.2015C9.21724 11.6241 7.76438 11.8213 6.79274 12.7929L2.99985 16.5858C2.2188 17.3668 2.2188 18.6332 2.99985 19.4142L4.58564 21C5.36668 21.7811 6.63301 21.7811 7.41406 21L11.207 17.2071C12.1786 16.2355 12.3757 14.7826 11.7984 13.6157L15.4141 10H17.9998C18.3146 10 18.611 9.85182 18.7999 9.60001L21.7998 5.60001C22.0984 5.20189 22.0588 4.6448 21.707 4.2929L19.707 2.2929Z" fill="black"/>
</svg>
