<svg width="24" height="24" viewBox="0 0 24 24" fill="none" xmlns="http://www.w3.org/2000/svg">
<path fill-rule="evenodd" clip-rule="evenodd" d="M5 2C4.44772 2 4 2.44772 4 3V21C4 21.5523 4.44772 22 5 22H12V14.5C12 14.2239 12.2239 14 12.5 14H20V3C20 2.44772 19.5523 2 19 2H5ZM11.7071 6.70711C12.0976 6.31658 12.0976 5.68342 11.7071 5.29289C11.3166 4.90237 10.6834 4.90237 10.2929 5.29289L7.29289 8.29289C6.90237 8.68342 6.90237 9.31658 7.29289 9.70711C7.68342 10.0976 8.31658 10.0976 8.70711 9.70711L11.7071 6.70711ZM15.7071 6.70711C16.0976 6.31658 16.0976 5.68342 15.7071 5.29289C15.3166 4.90237 14.6834 4.90237 14.2929 5.29289L7.29289 12.2929C6.90237 12.6834 6.90237 13.3166 7.29289 13.7071C7.68342 14.0976 8.31658 14.0976 8.70711 13.7071L15.7071 6.70711Z" fill="black"/>
<path d="M19.4142 16L14 21.4142V16H19.4142Z" fill="black"/>
</svg>
