<svg width="24" height="24" viewBox="0 0 24 24" fill="none" xmlns="http://www.w3.org/2000/svg">
<path fill-rule="evenodd" clip-rule="evenodd" d="M17.2931 2.29289C17.6836 1.90237 18.3168 1.90237 18.7073 2.29289L21.7073 5.29289C22.0979 5.68342 22.0979 6.31658 21.7073 6.70711L20.2073 8.20711C19.2357 9.17879 17.7827 9.3759 16.6158 8.79844L13.9133 11.5009L15.0504 12.638C15.7893 13.377 15.8348 14.5603 15.1547 15.3538L10.4601 20.8308C9.70191 21.7154 8.35116 21.7672 7.52737 20.9434L3.05455 16.4706C2.23075 15.6468 2.28263 14.2961 3.16718 13.5379L8.64418 8.84331C9.43766 8.16319 10.621 8.20863 11.36 8.94761L12.4991 10.0867L15.2016 7.38415C14.6244 6.21726 14.8215 4.76449 15.7931 3.79289L17.2931 2.29289ZM18.0002 4.41421L17.2073 5.20711C16.7694 5.64501 16.7694 6.35499 17.2073 6.79289C17.6452 7.2308 18.3552 7.2308 18.7931 6.79289L19.586 6L18.0002 4.41421Z" fill="black"/>
</svg>
