<svg width="24" height="24" viewBox="0 0 24 24" fill="none" xmlns="http://www.w3.org/2000/svg">
<path fill-rule="evenodd" clip-rule="evenodd" d="M17.7071 2.29289C17.5196 2.10536 17.2652 2 17 2C16.7348 2 16.4804 2.10536 16.2929 2.29289L14.2929 4.29289C13.0424 5.54335 12.8378 7.44361 13.6791 8.90672L10 12.5858L8.41421 11C7.63317 10.219 6.36684 10.2189 5.58579 11L3.46447 13.1213C2.52678 14.059 2 15.3308 2 16.6569V20C2 21.1046 2.89543 22 4 22H7.34315C8.66923 22 9.941 21.4732 10.8787 20.5355L13 18.4142C13.7811 17.6332 13.781 16.3668 13 15.5858L11.4142 14L15.0933 10.3209C16.5564 11.1622 18.4566 10.9576 19.7071 9.70711L21.7071 7.70711C22.0976 7.31658 22.0976 6.68342 21.7071 6.29289L17.7071 2.29289ZM15.7071 5.70711L17 4.41421L19.5858 7L18.2929 8.29289C17.5788 9.00694 16.4212 9.00694 15.7071 8.29289C14.9931 7.57885 14.9931 6.42115 15.7071 5.70711Z" fill="black"/>
</svg>
