<svg width="24" height="24" viewBox="0 0 24 24" fill="none" xmlns="http://www.w3.org/2000/svg">
<path d="M12.7371 2.32417C12.5477 2.11761 12.2803 2 12 2C11.7197 2 11.4523 2.11761 11.2629 2.32417L11.2616 2.32568C11.2448 2.34412 11.1992 2.3944 11.1717 2.42496C11.1152 2.48782 11.0349 2.578 10.9375 2.68916C10.7433 2.91097 10.4795 3.21881 10.2024 3.56132C9.92675 3.90216 9.63039 4.28673 9.37483 4.66062C9.13088 5.01754 8.87905 5.42887 8.74126 5.8101C8.58476 6.24312 8.5 6.71256 8.5 7.2C8.5 9.18911 9.96345 11 12 11C14.0365 11 15.5 9.18911 15.5 7.2C15.5 6.71256 15.4152 6.24312 15.2587 5.8101C15.121 5.42887 14.8691 5.01754 14.6252 4.66062C14.3696 4.28673 14.0733 3.90216 13.7976 3.56132C13.5205 3.21881 13.2567 2.91097 13.0625 2.68916C12.9651 2.578 12.8848 2.48782 12.8283 2.42496C12.8008 2.39436 12.7551 2.34399 12.7384 2.32561L12.7371 2.32417Z" fill="black"/>
<path fill-rule="evenodd" clip-rule="evenodd" d="M7.54417 8C7.8418 10.1642 9.61533 12 12 12C14.3847 12 16.1582 10.1642 16.4558 8H20C21.1046 8 22 8.89543 22 10V15H16C15.4477 15 15 15.4477 15 16V22H4C2.89543 22 2 21.1046 2 20V10C2 8.89543 2.89543 8 4 8H7.54417ZM5.5 12.5C5.5 11.9477 5.94772 11.5 6.5 11.5H6.509C7.06128 11.5 7.509 11.9477 7.509 12.5C7.509 13.0523 7.06128 13.5 6.509 13.5H6.5C5.94772 13.5 5.5 13.0523 5.5 12.5Z" fill="black"/>
<path d="M21.4142 17H17V21.4142L21.4142 17Z" fill="black"/>
</svg>
