<svg width="24" height="24" viewBox="0 0 24 24" fill="none" xmlns="http://www.w3.org/2000/svg">
<path fill-rule="evenodd" clip-rule="evenodd" d="M2 7C2 5.89543 2.89543 5 4 5H20C21.1046 5 22 5.89543 22 7V12H16C15.4477 12 15 12.4477 15 13V19H4C2.89543 19 2 18.1046 2 17V7ZM6.5 8.5C5.94772 8.5 5.5 8.94772 5.5 9.5C5.5 10.0523 5.94772 10.5 6.5 10.5H6.509C7.06128 10.5 7.509 10.0523 7.509 9.5C7.509 8.94772 7.06128 8.5 6.509 8.5H6.5Z" fill="black"/>
<path d="M17 14H21.4142L17 18.4142V14Z" fill="black"/>
</svg>
