<svg width="24" height="24" viewBox="0 0 24 24" fill="none" xmlns="http://www.w3.org/2000/svg">
<path fill-rule="evenodd" clip-rule="evenodd" d="M17 7V5C17 3.34315 15.6569 2 14 2H10C8.34315 2 7 3.34315 7 5V7H6C5.73478 7 5.48043 7.10536 5.29289 7.29289L2.29289 10.2929C2.10536 10.4804 2 10.7348 2 11V14L8 14V13C8 12.4477 8.44772 12 9 12C9.55228 12 10 12.4477 10 13V14H14V13C14 12.4477 14.4477 12 15 12C15.5523 12 16 12.4477 16 13V14H22V11C22 10.7348 21.8946 10.4804 21.7071 10.2929L18.7071 7.29289C18.5196 7.10536 18.2652 7 18 7H17ZM10 4C9.44772 4 9 4.44772 9 5V7H15V5C15 4.44772 14.5523 4 14 4H10Z" fill="black"/>
<path d="M14 17V16H10V17C10 17.5523 9.55228 18 9 18C8.44772 18 8 17.5523 8 17V16L2 16V21C2 21.5523 2.44772 22 3 22H21C21.5523 22 22 21.5523 22 21V16H16V17C16 17.5523 15.5523 18 15 18C14.4477 18 14 17.5523 14 17Z" fill="black"/>
</svg>
