<svg width="24" height="24" viewBox="0 0 24 24" fill="none" xmlns="http://www.w3.org/2000/svg">
<path d="M12.5 3C12.5 2.65766 12.3249 2.3391 12.0358 2.15567C11.7468 1.97223 11.384 1.94941 11.0742 2.09518L2.5742 6.09518C2.22371 6.26012 2 6.61264 2 7C2 7.38736 2.22371 7.73988 2.5742 7.90482L11.0742 11.9048C11.384 12.0506 11.7468 12.0278 12.0358 11.8443C12.3249 11.6609 12.5 11.3423 12.5 11V8H15.5V8.5C15.5 9.05229 15.9477 9.5 16.5 9.5H19.5C20.8807 9.5 22 8.38071 22 7C22 5.61929 20.8807 4.5 19.5 4.5H16.5C15.9477 4.5 15.5 4.94772 15.5 5.5V6H12.5V3Z" fill="black"/>
<path d="M2 18C2 17.7239 2.22386 17.5 2.5 17.5H9.5C9.77614 17.5 10 17.7239 10 18V21.5C10 21.7761 9.77614 22 9.5 22H2.5C2.22386 22 2 21.7761 2 21.5V18Z" fill="black"/>
<path d="M11.0016 18C11.0016 17.7239 11.2255 17.5 11.5016 17.5H21.5C21.7761 17.5 22 17.7239 22 18V21.5C22 21.7761 21.7761 22 21.5 22H11.5016C11.2255 22 11.0016 21.7761 11.0016 21.5V18Z" fill="black"/>
<path d="M13 12.5C13 12.2239 13.2239 12 13.5 12H21.5C21.7761 12 22 12.2239 22 12.5V16C22 16.2761 21.7761 16.5 21.5 16.5H13.5C13.2239 16.5 13 16.2761 13 16V12.5Z" fill="black"/>
</svg>
