<svg width="24" height="24" viewBox="0 0 24 24" fill="none" xmlns="http://www.w3.org/2000/svg">
<path d="M12 10.5859L15.5858 7.00015L15.2929 6.70726C14.9024 6.31673 14.9024 5.68357 15.2929 5.29305L18.2929 2.29304C19.2357 1.35023 20.7643 1.35024 21.7071 2.29304C22.6499 3.23585 22.6499 4.76445 21.7071 5.70726L18.7071 8.70726C18.3166 9.09778 17.6834 9.09778 17.2929 8.70726L17 8.41436L13.4142 12.0002L16.7071 15.293C16.9465 15.5324 17.0485 15.8766 16.9782 16.2077C16.908 16.5389 16.675 16.812 16.359 16.9335L3.35901 21.9335C2.99016 22.0754 2.57236 21.9867 2.29292 21.7073C2.01348 21.4278 1.92482 21.01 2.06668 20.6412L7.06668 7.64117C7.1882 7.32523 7.4613 7.09221 7.79244 7.02194C8.12357 6.95166 8.46777 7.05368 8.70714 7.29305L12 10.5859Z" fill="black"/>
</svg>
