<svg width="24" height="24" viewBox="0 0 24 24" fill="none" xmlns="http://www.w3.org/2000/svg">
<path fill-rule="evenodd" clip-rule="evenodd" d="M13 15V8C13 6.34315 11.6569 5 10 5H4C2.34315 5 1 6.34315 1 8V16C1 17.6569 2.34315 19 4 19C5.04349 19 5.96254 18.4672 6.5 17.6589C7.03746 18.4672 7.95651 19 9 19C10.3062 19 11.4175 18.1652 11.8293 17H15.1707C15.5825 18.1652 16.6938 19 18 19C19.3062 19 20.4175 18.1652 20.8293 17H22C22.5523 17 23 16.5523 23 16V10C23 9.78363 22.9298 9.5731 22.8 9.4L19.8 5.4C19.6111 5.14819 19.3148 5 19 5H15C14.4477 5 14 5.44772 14 6V15H13ZM16 10H21L18.5 7H16V10ZM3 16C3 16.5523 3.44772 17 4 17C4.55228 17 5 16.5523 5 16C5 15.4477 4.55228 15 4 15C3.44772 15 3 15.4477 3 16ZM9 15C8.44772 15 8 15.4477 8 16C8 16.5523 8.44772 17 9 17C9.55228 17 10 16.5523 10 16C10 15.4477 9.55228 15 9 15ZM18 15C17.4477 15 17 15.4477 17 16C17 16.5523 17.4477 17 18 17C18.5523 17 19 16.5523 19 16C19 15.4477 18.5523 15 18 15ZM6.25 9C6.25 8.44772 5.80228 8 5.25 8C4.69772 8 4.25 8.44772 4.25 9V11C4.25 11.5523 4.69772 12 5.25 12C5.80228 12 6.25 11.5523 6.25 11V9ZM9.75 9C9.75 8.44772 9.30228 8 8.75 8C8.19772 8 7.75 8.44772 7.75 9V11C7.75 11.5523 8.19772 12 8.75 12C9.30228 12 9.75 11.5523 9.75 11V9Z" fill="black"/>
</svg>
