<svg width="24" height="24" viewBox="0 0 24 24" fill="none" xmlns="http://www.w3.org/2000/svg">
<path d="M15.7684 2.4413C15.1681 2.12016 14.5 2.59883 14.5 3.27962V8.71684C14.5 8.89247 14.4079 9.05522 14.2572 9.14558L12.2572 10.3456C12.0989 10.4406 11.9011 10.4406 11.7428 10.3456L9.74275 9.14558C9.59215 9.05522 9.5 8.89247 9.5 8.71684V3.27962C9.5 2.59883 8.83187 2.12015 8.23158 2.4413C5.71325 3.78859 4 6.44419 4 9.49993C4 12.8573 6.06817 15.7316 9 16.9184V20.9999C9 21.5522 9.44771 21.9999 10 21.9999H14C14.5523 21.9999 15 21.5522 15 20.9999V16.9184C17.9318 15.7316 20 12.8573 20 9.49993C20 6.44419 18.2868 3.78859 15.7684 2.4413Z" fill="black"/>
</svg>
