<svg width="24" height="24" viewBox="0 0 24 24" fill="none" xmlns="http://www.w3.org/2000/svg">
<path d="M8.00023 9C8.00023 5.13401 11.1342 2 15.0002 2C15.6775 2 16.3323 2.09619 16.9518 2.27565C17.6014 2.46386 17.7305 3.26957 17.2523 3.74784L13.8788 7.12152C13.6424 7.35795 13.5398 7.69689 13.6054 8.02475L13.8697 9.34624C13.9488 9.7421 14.2583 10.0515 14.6541 10.1307L15.9756 10.395C16.3035 10.4606 16.6424 10.3579 16.8788 10.1215L20.2524 6.74793C20.7306 6.26966 21.5363 6.39874 21.7246 7.04839C21.904 7.66785 22.0002 8.32269 22.0002 9C22.0002 12.866 18.8662 16 15.0002 16C14.2238 16 13.4754 15.8732 12.7756 15.6388L8.20733 20.2071C6.98838 21.4261 5.01207 21.4261 3.79312 20.2071C2.57417 18.9882 2.57417 17.0118 3.79312 15.7929L8.36141 11.2246C8.12701 10.5248 8.00023 9.77645 8.00023 9Z" fill="black"/>
</svg>
