<svg width="24" height="24" viewBox="0 0 24 24" fill="none" xmlns="http://www.w3.org/2000/svg">
<path opacity="0.3" d="M17.6573 2.10042C17.2668 1.70989 16.6336 1.70989 16.2431 2.10042L14.1218 4.22174L16.2431 6.34306C16.6336 6.73358 16.6336 7.36675 16.2431 7.75727C15.8526 8.1478 15.2194 8.1478 14.8289 7.75727L12.7076 5.63595L11.2933 7.05016L13.4147 9.17149C13.8052 9.56201 13.8052 10.1952 13.4147 10.5857C13.0241 10.9762 12.391 10.9762 12.0004 10.5857L9.87913 8.46438L8.46491 9.87859L10.5862 11.9999C10.9768 12.3904 10.9768 13.0236 10.5862 13.4141C10.1957 13.8047 9.56255 13.8046 9.17202 13.4141L7.0507 11.2928L5.63649 12.707L7.75781 14.8283C8.14833 15.2189 8.14833 15.852 7.75781 16.2426C7.36728 16.6331 6.73412 16.6331 6.34359 16.2426L4.22227 14.1212L2.10095 16.2426C1.71043 16.6331 1.71043 17.2662 2.10095 17.6568L6.34359 21.8994C6.73412 22.2899 7.36728 22.2899 7.75781 21.8994L21.8999 7.75727C22.2905 7.36675 22.2905 6.73358 21.8999 6.34306L17.6573 2.10042Z" fill="black"/>
<path d="M12.7069 5.63614L14.1211 4.22192L16.2424 6.34324C16.6329 6.73377 16.6329 7.36693 16.2424 7.75746C15.8519 8.14798 15.2187 8.14798 14.8282 7.75746L12.7069 5.63614Z" fill="black"/>
<path d="M9.87845 8.46456L11.2927 7.05035L13.414 9.17167C13.8045 9.5622 13.8045 10.1954 13.414 10.5859C13.0235 10.9764 12.3903 10.9764 11.9998 10.5859L9.87845 8.46456Z" fill="black"/>
<path d="M7.05003 11.293L8.46424 9.87878L10.5856 12.0001C10.9761 12.3906 10.9761 13.0238 10.5856 13.4143C10.195 13.8048 9.56187 13.8048 9.17135 13.4143L7.05003 11.293Z" fill="black"/>
<path d="M4.2216 14.1214L5.63581 12.7072L7.75713 14.8285C8.14766 15.219 8.14766 15.8522 7.75713 16.2427C7.36661 16.6333 6.73344 16.6333 6.34292 16.2427L4.2216 14.1214Z" fill="black"/>
</svg>
