<svg width="24" height="24" viewBox="0 0 24 24" fill="none" xmlns="http://www.w3.org/2000/svg">
<path d="M3 21.0001L4 16.0862V11.1723C4 9.76871 4.4921 8.40951 5.39067 7.33122L8.52 3.70554C8.87812 3.27579 9.39825 3.02604 9.94 3.00006C10.1292 2.99098 10.3204 3.0092 10.51 3.0566C11.4784 3.2987 12.0548 4.18807 12 5.08837C11.9786 5.43905 11.856 5.79138 11.63 6.10777L8.89555 9.74625C8.31311 10.5617 8 11.5387 8 12.5408V14V13C8 11.8954 8.89543 11 10 11C11.1046 11 12 11.8954 12 13M16.0039 14.0022V12.543C16.0039 11.5409 15.6908 10.5639 15.1084 9.74845L12.3739 6.10997C12.1479 5.79358 12.0253 5.44125 12.0039 5.09057C11.9491 4.19027 12.5255 3.30089 13.4939 3.05879C13.6835 3.0114 13.8747 2.99318 14.0639 3.00225C14.6057 3.02824 15.1258 3.27799 15.4839 3.70774L18.6132 7.33342C19.5118 8.41171 20.0039 9.77091 20.0039 11.1745V15L21 21M12 13V17M12 13C12 11.8954 12.8954 11 14 11C15.1046 11 16 11.8954 16 13V14M12 17L14 21M12 17L10 21" stroke="black" stroke-width="2" stroke-linecap="round" stroke-linejoin="round"/>
</svg>
