<svg width="24" height="24" viewBox="0 0 24 24" fill="none" xmlns="http://www.w3.org/2000/svg">
<path d="M13.0013 3.00013C13.0013 2.44784 12.5537 2.00007 12.0014 2C11.4491 1.99993 11.0013 2.44759 11.0013 2.99987L13.0013 3.00013ZM19.3859 17.4123C19.8897 17.6385 20.4815 17.4134 20.7078 16.9096C20.934 16.4058 20.7089 15.8139 20.2051 15.5877L19.3859 17.4123ZM3.79733 15.5878C3.29353 15.814 3.06854 16.4059 3.29481 16.9097C3.52108 17.4135 4.11292 17.6385 4.61673 17.4122L3.79733 15.5878ZM20 12C20 16.4183 16.4183 20 12 20V22C17.5228 22 22 17.5228 22 12H20ZM12 20C7.58172 20 4 16.4183 4 12H2C2 17.5228 6.47715 22 12 22V20ZM4 12C4 7.58172 7.58172 4 12 4V2C6.47715 2 2 6.47715 2 12H4ZM12 4C16.4183 4 20 7.58172 20 12H22C22 6.47715 17.5228 2 12 2V4ZM13 13.0001L13.0013 3.00013L11.0013 2.99987L11 12.9999L13 13.0001ZM11.5904 13.9123L19.3859 17.4123L20.2051 15.5877L12.4096 12.0877L11.5904 13.9123ZM4.61673 17.4122L12.4097 13.9122L11.5903 12.0878L3.79733 15.5878L4.61673 17.4122ZM13 21V13H11V21H13Z" fill="black"/>
</svg>
