<svg width="24" height="24" viewBox="0 0 24 24" fill="none" xmlns="http://www.w3.org/2000/svg">
<path d="M5 21.9999H15L9 18.6666M9 18.6666L7.59945 17.8885C6.69402 17.3855 6.32245 16.2744 6.74311 15.3279L9.24123 9.70715C9.64893 8.78984 10.7556 8.41973 11.6331 8.90723C12.4069 9.3371 12.7244 10.2866 12.3649 11.0955L9 18.6666ZM19 10.0001L15.9997 14L12.1484 9.34753M16 4C16 5.10457 15.1046 6 14 6C12.8954 6 12 5.10457 12 4C12 2.89543 12.8954 2 14 2C15.1046 2 16 2.89543 16 4Z" stroke="black" stroke-width="2" stroke-linecap="round" stroke-linejoin="round"/>
</svg>
