<svg width="24" height="24" viewBox="0 0 24 24" fill="none" xmlns="http://www.w3.org/2000/svg">
<path d="M18 19V5M18 19C18 20.1046 18.8954 21 20 21C21.1046 21 22 20.1046 22 19V5C22 3.89543 21.1046 3 20 3C18.8954 3 18 3.89543 18 5M18 19H6M18 5L6 5M6 19V5M6 19C6 20.1046 5.10457 21 4 21C2.89543 21 2 20.1046 2 19V5C2 3.89543 2.89543 3 4 3C5.10457 3 6 3.89543 6 5M8.5 14L12 8L15.5 14H8.5ZM12 16L15.5 10H8.5L12 16Z" stroke="black" stroke-width="2" stroke-linecap="round" stroke-linejoin="round"/>
</svg>
