<svg width="24" height="24" viewBox="0 0 24 24" fill="none" xmlns="http://www.w3.org/2000/svg">
<g opacity="0.3">
<path d="M12 4.04688C8.04872 4.48231 5 7.89364 5 11.9999C5 16.1063 8.04872 19.5176 12 19.953V17.9359C9.18528 17.5119 7 15.0316 7 11.9999C7 8.96828 9.18528 6.48796 12 6.06396V4.04688Z" fill="black"/>
<path d="M14 17.8859V19.9159C15.8889 19.6355 17.5575 18.6709 18.7565 17.2842C19.1177 16.8664 19.0718 16.2349 18.654 15.8737C18.2363 15.5125 17.6048 15.5583 17.2435 15.9761C16.4081 16.9424 15.2778 17.6272 14 17.8859Z" fill="black"/>
<path d="M14 6.11402V4.08402C15.8889 4.36443 17.5575 5.329 18.7565 6.71572C19.1177 7.1335 19.0718 7.765 18.654 8.12622C18.2363 8.48743 17.6048 8.44158 17.2435 8.0238C16.4081 7.05752 15.2778 6.37274 14 6.11402Z" fill="black"/>
</g>
<path fill-rule="evenodd" clip-rule="evenodd" d="M13 2C13.5523 2 14 2.44772 14 3V21C14 21.5523 13.5523 22 13 22C12.4477 22 12 21.5523 12 21V3C12 2.44772 12.4477 2 13 2Z" fill="black"/>
</svg>
