<svg width="24" height="24" viewBox="0 0 24 24" fill="none" xmlns="http://www.w3.org/2000/svg">
<g opacity="0.3">
<path d="M11.7353 4.08061C7.91336 4.63577 5 7.98577 5 11.9999C5 14.767 6.38443 17.2185 8.49656 18.6565L8.97701 16.4942C7.7668 15.3981 7 13.7957 7 11.9999C7 9.24033 8.81059 6.93759 11.2584 6.22667L11.7353 4.08061Z" fill="black"/>
<path d="M10.7778 17.6101L10.3399 19.5811C10.9323 19.7848 11.5567 19.9186 12.2041 19.9727L12.6433 17.9959C11.9895 17.9718 11.3617 17.8374 10.7778 17.6101Z" fill="black"/>
<path d="M15.1981 6.49807C14.6245 6.24161 14.0036 6.07686 13.3529 6.02105L13.7896 4.05566C14.4332 4.1332 15.0527 4.28995 15.6386 4.5158L15.1981 6.49807Z" fill="black"/>
<path d="M14.7634 17.6751L14.2758 19.8697C16.0511 19.54 17.6162 18.603 18.7565 17.2841C19.1177 16.8663 19.0718 16.2348 18.654 15.8736C18.2363 15.5124 17.6048 15.5583 17.2435 15.976C16.5788 16.7449 15.7273 17.3355 14.7634 17.6751Z" fill="black"/>
<path d="M16.9729 7.731L17.4644 5.51903C17.938 5.86859 18.3715 6.27035 18.7565 6.71565C19.1177 7.13343 19.0718 7.76493 18.654 8.12615C18.2363 8.48737 17.6048 8.44151 17.2435 8.02373C17.1565 7.92304 17.0662 7.82541 16.9729 7.731Z" fill="black"/>
</g>
<path fill-rule="evenodd" clip-rule="evenodd" d="M13.2166 2.02378C13.7558 2.14357 14.0957 2.67774 13.9759 3.21688L9.97641 21.2169C9.85661 21.756 9.32245 22.096 8.78331 21.9762C8.24417 21.8564 7.90423 21.3222 8.02402 20.7831L12.0235 2.78306C12.1433 2.24393 12.6775 1.90398 13.2166 2.02378ZM17.2166 2.02378C17.7558 2.14357 18.0957 2.67774 17.9759 3.21688L13.9764 21.2169C13.8566 21.756 13.3224 22.096 12.7833 21.9762C12.2442 21.8564 11.9042 21.3222 12.024 20.7831L16.0235 2.78306C16.1433 2.24393 16.6775 1.90398 17.2166 2.02378Z" fill="black"/>
</svg>
