<svg width="24" height="24" viewBox="0 0 24 24" fill="none" xmlns="http://www.w3.org/2000/svg">
<path opacity="0.3" fill-rule="evenodd" clip-rule="evenodd" d="M15.9808 5.80408C16.0891 6.34564 15.7379 6.87246 15.1963 6.98077L5.19631 8.98077C4.65475 9.08909 4.12792 8.73787 4.01961 8.19631C3.9113 7.65475 4.26252 7.12792 4.80408 7.01961L14.8041 5.01961C15.3456 4.9113 15.8725 5.26252 15.9808 5.80408ZM15.9808 9.80408C16.0891 10.3456 15.7379 10.8725 15.1963 10.9808L5.19631 12.9808C4.65475 13.0891 4.12792 12.7379 4.01961 12.1963C3.9113 11.6547 4.26252 11.1279 4.80408 11.0196L14.8041 9.01961C15.3456 8.9113 15.8725 9.26252 15.9808 9.80408Z" fill="black"/>
<path fill-rule="evenodd" clip-rule="evenodd" d="M9 2C9.55228 2 10 2.44772 10 3V19.9581C14.6724 19.5629 18 16.4293 18 13C18 12.4477 18.4477 12 19 12C19.5523 12 20 12.4477 20 13C20 18.1673 14.8554 22 9 22C8.44772 22 8 21.5523 8 21V3C8 2.44772 8.44772 2 9 2Z" fill="black"/>
</svg>
