<svg width="24" height="24" viewBox="0 0 24 24" fill="none" xmlns="http://www.w3.org/2000/svg">
<g opacity="0.3">
<path d="M17.9992 8C18.3605 8 18.6937 8.19486 18.8708 8.50974L21.6653 13.4778C21.7512 13.6301 21.8324 13.7839 21.8868 13.9508C21.9352 14.0993 21.9744 14.3109 21.9825 14.4669C21.9927 14.6645 21.975 14.7859 21.9587 14.8965C21.6606 16.9284 19.8595 18 17.9992 18C16.0451 18 14.4289 16.5221 14.0733 14.9722C14.0447 14.8474 14.0281 14.7444 14.0274 14.5536C14.0266 14.3605 14.0561 14.1564 14.1114 13.9714C14.1757 13.7571 14.2578 13.6114 14.323 13.4958L17.1277 8.50974C17.3048 8.19486 17.638 8 17.9992 8Z" fill="black"/>
<path d="M5.99923 12C6.3605 12 6.69369 12.1949 6.87081 12.5097L9.66533 17.4778C9.75123 17.6301 9.83242 17.7839 9.8868 17.9508C9.93521 18.0993 9.97443 18.3109 9.98251 18.4669C9.99275 18.6645 9.97498 18.7859 9.95875 18.8965C9.6606 20.9284 7.85945 22 5.99923 22C4.04507 22 2.42886 20.5221 2.07331 18.9722C2.04469 18.8474 2.02815 18.7444 2.02736 18.5536C2.02656 18.3605 2.05605 18.1564 2.11144 17.9714C2.17565 17.7571 2.25778 17.6114 2.32297 17.4958L5.12765 12.5097C5.30477 12.1949 5.63796 12 5.99923 12Z" fill="black"/>
</g>
<path fill-rule="evenodd" clip-rule="evenodd" d="M20.4575 2.92168C20.6464 3.44066 20.3788 4.0145 19.8598 4.20339L15.1613 5.91349C15.1078 5.93297 15.0537 5.9476 14.9995 5.95759C14.9997 5.97168 14.9998 5.9858 14.9998 5.99994C14.9998 7.30616 14.165 8.4174 12.9998 8.82923V19.9999H19.9998C20.5521 19.9999 20.9998 20.4477 20.9998 20.9999C20.9998 21.5522 20.5521 21.9999 19.9998 21.9999H11.9998C11.4475 21.9999 10.9998 21.5522 10.9998 20.9999V8.82923C10.4807 8.64578 10.0273 8.32354 9.68392 7.90711L4.82471 9.67571C4.30574 9.86461 3.73189 9.59702 3.543 9.07804C3.35411 8.55906 3.6217 7.98522 4.14067 7.79633L8.99991 6.02771C8.99983 6.01846 8.99978 6.00921 8.99978 5.99994C8.99978 4.34308 10.3429 2.99994 11.9998 2.99994C12.9376 2.99994 13.775 3.43029 14.3251 4.10429C14.373 4.07713 14.4238 4.05357 14.4773 4.03411L19.1758 2.32401C19.6947 2.13511 20.2686 2.4027 20.4575 2.92168Z" fill="black"/>
</svg>
