<svg width="24" height="24" viewBox="0 0 24 24" fill="none" xmlns="http://www.w3.org/2000/svg">
<g opacity="0.3">
<path d="M5 3C4.44772 3 4 3.44772 4 4C4 4.55228 4.44772 5 5 5H11V10.0963L13 9.22135V5H19C19.5523 5 20 4.55228 20 4C20 3.44772 19.5523 3 19 3H5Z" fill="black"/>
<path d="M13 11.4044L11 12.2794V14.0963L13 13.2213V11.4044Z" fill="black"/>
<path d="M13 15.4044L11 16.2794V20C11 20.5523 11.4477 21 12 21C12.5523 21 13 20.5523 13 20V15.4044Z" fill="black"/>
</g>
<path fill-rule="evenodd" clip-rule="evenodd" d="M16.9164 8.59895C17.1378 9.10493 16.9071 9.69456 16.4011 9.91592L8.40107 13.4159C7.89509 13.6373 7.30546 13.4066 7.0841 12.9006C6.86273 12.3946 7.09345 11.805 7.59943 11.5836L15.5994 8.08361C16.1054 7.86224 16.695 8.09297 16.9164 8.59895ZM16.9164 12.5989C17.1378 13.1049 16.9071 13.6946 16.4011 13.9159L8.40107 17.4159C7.89509 17.6373 7.30546 17.4066 7.0841 16.9006C6.86273 16.3946 7.09345 15.805 7.59943 15.5836L15.5994 12.0836C16.1054 11.8622 16.695 12.093 16.9164 12.5989Z" fill="black"/>
</svg>
