<svg width="24" height="24" viewBox="0 0 24 24" fill="none" xmlns="http://www.w3.org/2000/svg">
<g opacity="0.3">
<path d="M8 4C8 3.44772 7.55228 3 7 3C6.44772 3 6 3.44772 6 4V7.48383L8 6.62668V4Z" fill="black"/>
<path d="M8 8.80262L6 9.65976V11.4838L8 10.6267V8.80262Z" fill="black"/>
<path d="M8 12.8026L6 13.6598V20C6 20.5523 6.44772 21 7 21H11.8889C16.3685 21 20 17.3685 20 12.8889V12C20 11.4477 19.5523 11 19 11C18.4477 11 18 11.4477 18 12V12.8889C18 16.264 15.264 19 11.8889 19H8V12.8026Z" fill="black"/>
</g>
<path fill-rule="evenodd" clip-rule="evenodd" d="M12.9194 5.60585C13.137 6.11348 12.9018 6.70136 12.3942 6.91891L5.39418 9.91891C4.88655 10.1365 4.29867 9.90132 4.08111 9.39369C3.86356 8.88606 4.09871 8.29818 4.60634 8.08062L11.6063 5.08062C12.114 4.86307 12.7018 5.09822 12.9194 5.60585ZM12.9194 9.60585C13.137 10.1135 12.9018 10.7014 12.3942 10.9189L5.39418 13.9189C4.88655 14.1365 4.29867 13.9013 4.08111 13.3937C3.86356 12.8861 4.09871 12.2982 4.60634 12.0806L11.6063 9.08062C12.114 8.86307 12.7018 9.09822 12.9194 9.60585Z" fill="black"/>
</svg>
