<svg width="24" height="24" viewBox="0 0 24 24" fill="none" xmlns="http://www.w3.org/2000/svg">
<path opacity="0.3" fill-rule="evenodd" clip-rule="evenodd" d="M12 2C6.47715 2 2 6.47715 2 12C2 17.5228 6.47715 22 12 22C17.5228 22 22 17.5228 22 12C22 6.47715 17.5228 2 12 2Z" fill="black"/>
<path fill-rule="evenodd" clip-rule="evenodd" d="M11.3576 8.98566C11.0735 8.51207 10.4592 8.35851 9.98566 8.64266C9.51207 8.92681 9.35851 9.54107 9.64266 10.0146L11.0002 12.2771V17.0002C11.0002 17.5524 11.4479 18.0002 12.0002 18.0002C12.5524 18.0002 13.0002 17.5524 13.0002 17.0002V12.0002C13.0002 11.8189 12.9509 11.6411 12.8576 11.4857L11.3576 8.98566Z" fill="black"/>
</svg>
