<svg width="24" height="24" viewBox="0 0 24 24" fill="none" xmlns="http://www.w3.org/2000/svg">
<g opacity="0.14">
<path d="M15 11C16.1046 11 17 10.1046 17 9C17 7.89543 16.1046 7 15 7C13.8954 7 13 7.89543 13 9C13 10.1046 13.8954 11 15 11Z" fill="black"/>
<path d="M12.5967 14.2833L14.2647 15.9375L14.6061 15.5989C15.412 14.7997 15.8149 14.4001 16.2773 14.2543C16.6839 14.126 17.1208 14.131 17.5244 14.2686C17.9833 14.4251 18.3769 14.8338 19.1642 15.6513L20.0008 16.4934V16.8C20.0008 17.9201 20.0008 18.4801 19.7828 18.9079C19.5911 19.2843 19.2851 19.5902 18.9088 19.782C18.481 20 17.9209 20 16.8008 20H7.20083C6.08072 20 5.52067 20 5.09285 19.782C4.71652 19.5902 4.41056 19.2843 4.21881 18.9079C4.12879 18.7312 4.07594 18.532 4.04492 18.2801L8.04151 14.3326C8.82897 13.5171 9.2227 13.1094 9.68131 12.9536C10.0846 12.8165 10.5212 12.8117 10.9274 12.9401C11.3893 13.086 11.7917 13.4851 12.5967 14.2833Z" fill="black"/>
</g>
<path d="M14.2639 15.9375L12.5958 14.2834C11.7909 13.4851 11.3884 13.086 10.9266 12.9401C10.5204 12.8118 10.0838 12.8165 9.68048 12.9536C9.22188 13.1095 8.82814 13.5172 8.04068 14.3326L4.04409 18.2801M14.2639 15.9375L14.6053 15.599C15.4112 14.7998 15.8141 14.4002 16.2765 14.2543C16.6831 14.126 17.12 14.1311 17.5236 14.2687C17.9824 14.4251 18.3761 14.8339 19.1634 15.6514L20 16.4934M14.2639 15.9375L18.275 19.9565M18.275 19.9565C17.9176 20 17.4543 20 16.8 20H7.2C6.07989 20 5.51984 20 5.09202 19.782C4.71569 19.5903 4.40973 19.2843 4.21799 18.908C4.12796 18.7313 4.07512 18.5321 4.04409 18.2801M18.275 19.9565C18.5293 19.9256 18.7301 19.8727 18.908 19.782C19.2843 19.5903 19.5903 19.2843 19.782 18.908C20 18.4802 20 17.9201 20 16.8V16.4934M4.04409 18.2801C4 17.9221 4 17.4575 4 16.8V7.2C4 6.0799 4 5.51984 4.21799 5.09202C4.40973 4.71569 4.71569 4.40973 5.09202 4.21799C5.51984 4 6.07989 4 7.2 4H16.8C17.9201 4 18.4802 4 18.908 4.21799C19.2843 4.40973 19.5903 4.71569 19.782 5.09202C20 5.51984 20 6.0799 20 7.2V16.4934M17 8.99989C17 10.1045 16.1046 10.9999 15 10.9999C13.8954 10.9999 13 10.1045 13 8.99989C13 7.89532 13.8954 6.99989 15 6.99989C16.1046 6.99989 17 7.89532 17 8.99989Z" stroke="black" stroke-width="2" stroke-linecap="round" stroke-linejoin="round"/>
</svg>
