<svg width="24" height="24" viewBox="0 0 24 24" fill="none" xmlns="http://www.w3.org/2000/svg">
<path opacity="0.14" d="M12 12.9999C14.7614 12.9999 17 10.7613 17 7.99988C17 7.6578 16.9656 7.32375 16.9002 7.00098C18.1272 7.00721 18.8163 7.04883 19.362 7.32686C19.9265 7.61448 20.3854 8.07342 20.673 8.63791C21 9.27964 21 10.1197 21 11.7999V16.1999C21 17.88 21 18.7201 20.673 19.3619C20.3854 19.9263 19.9265 20.3853 19.362 20.6729C18.7202 20.9999 17.8802 20.9999 16.2 20.9999H7.8C6.11984 20.9999 5.27976 20.9999 4.63803 20.6729C4.07354 20.3853 3.6146 19.9263 3.32698 19.3619C3 18.7201 3 17.88 3 16.1999V11.7999C3 10.1197 3 9.27964 3.32698 8.63791C3.6146 8.07342 4.07354 7.61448 4.63803 7.32686C5.1837 7.04883 5.87278 7.00721 7.0998 7.00098C7.03435 7.32375 7 7.6578 7 7.99988C7 10.7613 9.23858 12.9999 12 12.9999Z" fill="black"/>
<path d="M12 8L13 6M7.0998 7.0011C7.03435 7.32387 7 7.65792 7 8C7 10.7614 9.23858 13 12 13C14.7614 13 17 10.7614 17 8C17 7.65792 16.9656 7.32387 16.9002 7.0011M7.0998 7.0011C7.56264 4.71831 9.58065 3 12 3C14.4193 3 16.4374 4.71831 16.9002 7.0011M7.0998 7.0011C5.87278 7.00733 5.1837 7.04895 4.63803 7.32698C4.07354 7.6146 3.6146 8.07354 3.32698 8.63803C3 9.27976 3 10.1198 3 11.8V16.2C3 17.8802 3 18.7202 3.32698 19.362C3.6146 19.9265 4.07354 20.3854 4.63803 20.673C5.27976 21 6.11984 21 7.8 21H16.2C17.8802 21 18.7202 21 19.362 20.673C19.9265 20.3854 20.3854 19.9265 20.673 19.362C21 18.7202 21 17.8802 21 16.2V11.8C21 10.1198 21 9.27976 20.673 8.63803C20.3854 8.07354 19.9265 7.6146 19.362 7.32698C18.8163 7.04895 18.1272 7.00733 16.9002 7.0011" stroke="black" stroke-width="2" stroke-linecap="round" stroke-linejoin="round"/>
</svg>
