<svg width="24" height="24" viewBox="0 0 24 24" fill="none" xmlns="http://www.w3.org/2000/svg">
<path d="M17.9213 6.11236L17.0531 6.60849V6.60849L17.9213 6.11236ZM20.1568 10.0243L21.025 9.52818L21.025 9.52818L20.1568 10.0243ZM18 17.5H19C19 16.9477 18.5523 16.5 18 16.5V17.5ZM6 17.5V16.5C5.44772 16.5 5 16.9477 5 17.5H6ZM3.84324 10.0243L4.71149 10.5205H4.71149L3.84324 10.0243ZM6.07865 6.11236L6.9469 6.60849V6.60849L6.07865 6.11236ZM3.04841 11.9418L4.03631 12.0969H4.03631L3.04841 11.9418ZM3.26123 11.1404L4.19592 11.4959L3.26123 11.1404ZM3.61732 19.4239L3.23463 20.3478H3.23463L3.61732 19.4239ZM3.07612 18.8827L2.15224 19.2654H2.15224L3.07612 18.8827ZM5.92388 18.8827L6.84776 19.2654L6.84776 19.2654L5.92388 18.8827ZM5.38268 19.4239L5.76537 20.3478L5.38268 19.4239ZM18.6173 19.4239L18.2346 20.3478H18.2346L18.6173 19.4239ZM18.0761 18.8827L17.1522 19.2654V19.2654L18.0761 18.8827ZM20.9239 18.8827L21.8478 19.2654V19.2654L20.9239 18.8827ZM20.3827 19.4239L20 18.5L20 18.5L20.3827 19.4239ZM20.7388 11.1404L19.8041 11.4959L19.8041 11.4959L20.7388 11.1404ZM20.9516 11.9418L19.9637 12.0969V12.0969L20.9516 11.9418ZM16.4599 4.59871L16.1496 5.54936L16.1496 5.54936L16.4599 4.59871ZM17.1822 5.01789L17.8537 4.27683L17.8537 4.27683L17.1822 5.01789ZM7.54007 4.59871L7.22978 3.64807L7.22978 3.64807L7.54007 4.59871ZM6.81776 5.01789L7.4892 5.75894V5.75894L6.81776 5.01789ZM20 14C20 14.5523 20.4477 15 21 15C21.5523 15 22 14.5523 22 14H20ZM2 14C2 14.5523 2.44772 15 3 15C3.55228 15 4 14.5523 4 14H2ZM8.5 17.5C8.5 18.0523 8.94772 18.5 9.5 18.5C10.0523 18.5 10.5 18.0523 10.5 17.5H8.5ZM9.5 14.5V13.5C8.94772 13.5 8.5 13.9477 8.5 14.5H9.5ZM14.5 14.5H15.5C15.5 13.9477 15.0523 13.5 14.5 13.5V14.5ZM13.5 17.5C13.5 18.0523 13.9477 18.5 14.5 18.5C15.0523 18.5 15.5 18.0523 15.5 17.5H13.5ZM3 12.5C2.44772 12.5 2 12.9477 2 13.5C2 14.0523 2.44772 14.5 3 14.5V12.5ZM5 14.5C5.55228 14.5 6 14.0523 6 13.5C6 12.9477 5.55228 12.5 5 12.5V14.5ZM19 12.5C18.4477 12.5 18 12.9477 18 13.5C18 14.0523 18.4477 14.5 19 14.5V12.5ZM21 14.5C21.5523 14.5 22 14.0523 22 13.5C22 12.9477 21.5523 12.5 21 12.5V14.5ZM8.85703 5.5H15.143V3.5H8.85703V5.5ZM17.0531 6.60849L19.2885 10.5205L21.025 9.52818L18.7896 5.61622L17.0531 6.60849ZM20 13.1996V18H22V13.1996H20ZM19 18V17.5H17V18H19ZM18 16.5H6V18.5H18V16.5ZM5 17.5V18H7V17.5H5ZM4 18V13.1996H2V18H4ZM4.71149 10.5205L6.9469 6.60849L5.21041 5.61622L2.975 9.52818L4.71149 10.5205ZM4 13.1996C4 12.5365 4.00277 12.3105 4.03631 12.0969L2.06052 11.7867C1.99723 12.1898 2 12.5967 2 13.1996H4ZM2.975 9.52818C2.67589 10.0516 2.47157 10.4036 2.32654 10.785L4.19592 11.4959C4.27277 11.2938 4.38251 11.0962 4.71149 10.5205L2.975 9.52818ZM4.03631 12.0969C4.06855 11.8916 4.12204 11.6902 4.19592 11.4959L2.32654 10.785C2.2034 11.1088 2.11425 11.4445 2.06052 11.7867L4.03631 12.0969ZM4.5 18.5C4.25335 18.5 4.11844 18.4995 4.02092 18.4928C3.93237 18.4868 3.94973 18.4792 4 18.5L3.23463 20.3478C3.46868 20.4447 3.6944 20.4752 3.88477 20.4882C4.06616 20.5005 4.28071 20.5 4.5 20.5V18.5ZM2 18C2 18.2193 1.99946 18.4338 2.01183 18.6152C2.02482 18.8056 2.0553 19.0313 2.15224 19.2654L4 18.5C4.02082 18.5503 4.01324 18.5676 4.0072 18.4791C4.00054 18.3816 4 18.2467 4 18H2ZM4 18.5H4L2.15224 19.2654C2.35523 19.7554 2.74458 20.1448 3.23463 20.3478L4 18.5ZM5 18C5 18.2467 4.99946 18.3816 4.9928 18.4791C4.98676 18.5676 4.97918 18.5503 5 18.5L6.84776 19.2654C6.9447 19.0313 6.97518 18.8056 6.98817 18.6152C7.00054 18.4338 7 18.2193 7 18H5ZM4.5 20.5C4.71929 20.5 4.93384 20.5005 5.11523 20.4882C5.3056 20.4752 5.53132 20.4447 5.76537 20.3478L5 18.5C5.05027 18.4792 5.06763 18.4868 4.97908 18.4928C4.88156 18.4995 4.74665 18.5 4.5 18.5V20.5ZM5 18.5V18.5L5.76537 20.3478C6.25542 20.1448 6.64477 19.7554 6.84776 19.2654L5 18.5ZM19.5 18.5C19.2533 18.5 19.1184 18.4995 19.0209 18.4928C18.9324 18.4868 18.9497 18.4792 19 18.5L18.2346 20.3478C18.4687 20.4447 18.6944 20.4752 18.8848 20.4882C19.0662 20.5005 19.2807 20.5 19.5 20.5V18.5ZM17 18C17 18.2193 16.9995 18.4338 17.0118 18.6152C17.0248 18.8056 17.0553 19.0313 17.1522 19.2654L19 18.5C19.0208 18.5503 19.0132 18.5676 19.0072 18.4791C19.0005 18.3816 19 18.2467 19 18H17ZM19 18.5L17.1522 19.2654C17.3552 19.7554 17.7446 20.1448 18.2346 20.3478L19 18.5ZM20 18C20 18.2467 19.9995 18.3816 19.9928 18.4791C19.9868 18.5676 19.9792 18.5503 20 18.5L21.8478 19.2654C21.9447 19.0313 21.9752 18.8056 21.9882 18.6152C22.0005 18.4338 22 18.2193 22 18H20ZM19.5 20.5C19.7193 20.5 19.9338 20.5005 20.1152 20.4882C20.3056 20.4752 20.5313 20.4447 20.7654 20.3478L20 18.5C20.0503 18.4792 20.0676 18.4868 19.9791 18.4928C19.8816 18.4995 19.7467 18.5 19.5 18.5V20.5ZM20 18.5L20 18.5L20.7654 20.3478C21.2554 20.1448 21.6448 19.7554 21.8478 19.2654L20 18.5ZM19.2885 10.5205C19.6175 11.0962 19.7272 11.2938 19.8041 11.4959L21.6735 10.785C21.5284 10.4036 21.3241 10.0516 21.025 9.52818L19.2885 10.5205ZM22 13.1996C22 12.5967 22.0028 12.1898 21.9395 11.7867L19.9637 12.0969C19.9972 12.3105 20 12.5365 20 13.1996H22ZM19.8041 11.4959C19.878 11.6902 19.9314 11.8916 19.9637 12.0969L21.9395 11.7867C21.8857 11.4445 21.7966 11.1088 21.6735 10.785L19.8041 11.4959ZM15.143 5.5C15.8871 5.5 16.0343 5.51172 16.1496 5.54936L16.7702 3.64807C16.2806 3.48828 15.7515 3.5 15.143 3.5V5.5ZM18.7896 5.61622C18.4877 5.08787 18.2353 4.62262 17.8537 4.27683L16.5108 5.75894C16.6007 5.84038 16.6839 5.96237 17.0531 6.60849L18.7896 5.61622ZM16.1496 5.54936C16.2834 5.59303 16.4065 5.66445 16.5108 5.75894L17.8537 4.27683C17.5408 3.99334 17.1716 3.77908 16.7702 3.64807L16.1496 5.54936ZM8.85703 3.5C8.2485 3.5 7.71935 3.48828 7.22978 3.64807L7.85036 5.54936C7.96566 5.51172 8.11286 5.5 8.85703 5.5V3.5ZM6.9469 6.60849C7.31611 5.96237 7.39932 5.84038 7.4892 5.75894L6.14631 4.27683C5.76468 4.62262 5.51232 5.08787 5.21041 5.61622L6.9469 6.60849ZM7.22978 3.64807C6.82841 3.77908 6.4592 3.99334 6.14631 4.27683L7.4892 5.75894C7.5935 5.66445 7.71657 5.59303 7.85036 5.54936L7.22978 3.64807ZM17.5 11.5C18.8807 11.5 20 12.6193 20 14H22C22 11.5147 19.9853 9.5 17.5 9.5V11.5ZM4 14C4 12.6193 5.11929 11.5 6.5 11.5V9.5C4.01472 9.5 2 11.5147 2 14H4ZM6.5 11.5H17.5V9.5H6.5V11.5ZM10.5 17.5V14.5H8.5V17.5H10.5ZM9.5 15.5H14.5V13.5H9.5V15.5ZM13.5 14.5V17.5H15.5V14.5H13.5ZM3 14.5H5V12.5H3V14.5ZM19 14.5H21V12.5H19V14.5Z" fill="black"/>
</svg>
