<svg width="24" height="24" viewBox="0 0 24 24" fill="none" xmlns="http://www.w3.org/2000/svg">
<path d="M18.5 10C20.433 10 22 8.433 22 6.5C22 4.567 20.433 3 18.5 3C16.567 3 15 4.567 15 6.5M15 17.5C15 19.433 16.567 21 18.5 21C20.433 21 22 19.433 22 17.5C22 15.567 20.433 14 18.5 14M5.5 10C3.567 10 2 8.433 2 6.5C2 4.567 3.567 3 5.5 3C7.433 3 9 4.567 9 6.5M9 17.5C9 19.433 7.433 21 5.5 21C3.567 21 2 19.433 2 17.5C2 15.567 3.567 14 5.5 14M18.5013 6.5L15.1836 9.30733M18.5014 17.5L15.1836 14.6926M5.5 6.5L8.81775 9.30733M5.5 17.5L8.81777 14.6926M9.5 14.9615H14.5C15.0523 14.9615 15.5 14.5138 15.5 13.9615V10.0385C15.5 9.48617 15.0523 9.03845 14.5 9.03845H9.5C8.94772 9.03845 8.5 9.48617 8.5 10.0385V13.9615C8.5 14.5138 8.94772 14.9615 9.5 14.9615Z" stroke="black" stroke-width="2" stroke-linecap="round"/>
</svg>
