<svg width="24" height="24" viewBox="0 0 24 24" fill="none" xmlns="http://www.w3.org/2000/svg">
<path d="M3.99999 10.0029L3.99998 9.00288L3.99999 10.0029ZM15 10.0028H16C16 9.89534 15.9827 9.78856 15.9487 9.68659L15 10.0028ZM5 10.0028C5 10.5551 5.44772 11.0028 6 11.0028C6.55228 11.0028 7 10.5551 7 10.0028H5ZM6 4.00282V3.00282C5.44772 3.00282 5 3.45054 5 4.00282H6ZM13.4558 5.37037L12.5072 5.68659V5.68659L13.4558 5.37037ZM5 16.0028C4.44772 16.0028 4 16.4505 4 17.0028C4 17.5551 4.44772 18.0028 5 18.0028V16.0028ZM5.009 18.0028C5.56128 18.0028 6.009 17.5551 6.009 17.0028C6.009 16.4505 5.56128 16.0028 5.009 16.0028V18.0028ZM8.5 16.0028C7.94772 16.0028 7.5 16.4505 7.5 17.0028C7.5 17.5551 7.94772 18.0028 8.5 18.0028V16.0028ZM8.509 18.0028C9.06128 18.0028 9.509 17.5551 9.509 17.0028C9.509 16.4505 9.06128 16.0028 8.509 16.0028V18.0028ZM12 16.0028C11.4477 16.0028 11 16.4505 11 17.0028C11 17.5551 11.4477 18.0028 12 18.0028V16.0028ZM12.009 18.0028C12.5613 18.0028 13.009 17.5551 13.009 17.0028C13.009 16.4505 12.5613 16.0028 12.009 16.0028V18.0028ZM13.6742 7.24961C13.2582 7.61295 13.2156 8.24468 13.5789 8.66062C13.9422 9.07656 14.574 9.1192 14.9899 8.75586L13.6742 7.24961ZM19.6548 3.35314L20.3127 4.10627L20.3164 4.10295L19.6548 3.35314ZM15.6742 9.24956C15.2583 9.61284 15.2155 10.2446 15.5788 10.6605C15.9421 11.0765 16.5738 11.1193 16.9898 10.756L15.6742 9.24956ZM21.5226 5.46981L22.1804 6.22303L22.1843 6.21962L21.5226 5.46981ZM14.4026 10.3733C13.9885 10.7387 13.949 11.3706 14.3144 11.7847C14.6798 12.1988 15.3118 12.2383 15.7259 11.8729L14.4026 10.3733ZM16.9954 10.7526C17.4095 10.3872 17.449 9.75522 17.0836 9.34111C16.7182 8.92701 16.0862 8.88754 15.6721 9.25296L16.9954 10.7526ZM21.5868 3.41342L20.8796 4.12052L20.8797 4.12052L21.5868 3.41342ZM22 4.43321L21.0001 4.4177V4.4177L22 4.43321ZM20.5 3.00276L20.4376 2.00471L20.5 3.00276ZM17 20.0028L16.2929 19.2957C16.0069 19.5817 15.9213 20.0118 16.0761 20.3855C16.2309 20.7592 16.5955 21.0028 17 21.0028V20.0028ZM4.6 15.0028H12.4V13.0028H4.6V15.0028ZM12.4 19.0028H4.6V21.0028H12.4V19.0028ZM4.6 19.0028C3.8459 19.0028 3 18.2465 3 17.0028H1C1 19.0728 2.48222 21.0028 4.6 21.0028V19.0028ZM14 17.0028C14 18.2465 13.1541 19.0028 12.4 19.0028V21.0028C14.5178 21.0028 16 19.0728 16 17.0028H14ZM12.4 15.0028C13.1541 15.0028 14 15.7591 14 17.0028H16C16 14.9328 14.5178 13.0028 12.4 13.0028V15.0028ZM4.6 13.0028C2.48222 13.0028 1 14.9328 1 17.0028H3C3 15.7591 3.8459 15.0028 4.6 15.0028V13.0028ZM3 17.0028V12.0029H1V17.0028H3ZM3.99999 11.0029L15 11.0028L15 9.00282L3.99998 9.00288L3.99999 11.0029ZM14 10.0028V17.0028H16V10.0028H14ZM3 12.0029C3 11.4506 3.44771 11.0029 3.99999 11.0029L3.99998 9.00288C2.34313 9.00289 1 10.346 1 12.0029H3ZM7 10.0028V4.00282H5V10.0028H7ZM6 5.00282H11.5585V3.00282H6V5.00282ZM12.5072 5.68659L14.0513 10.319L15.9487 9.68659L14.4045 5.05414L12.5072 5.68659ZM11.5585 5.00282C11.9889 5.00282 12.3711 5.27825 12.5072 5.68659L14.4045 5.05414C13.9962 3.82911 12.8498 3.00282 11.5585 3.00282V5.00282ZM5 18.0028H5.009V16.0028H5V18.0028ZM8.5 18.0028H8.509V16.0028H8.5V18.0028ZM12 18.0028H12.009V16.0028H12V18.0028ZM14.9899 8.75586L20.3127 4.10627L18.9969 2.60002L13.6742 7.24961L14.9899 8.75586ZM16.9898 10.756L22.1804 6.22302L20.8648 4.71661L15.6742 9.24956L16.9898 10.756ZM15.7259 11.8729L16.9954 10.7526L15.6721 9.25296L14.4026 10.3733L15.7259 11.8729ZM20.8797 4.12052C20.9622 4.2031 21.0018 4.30888 21.0001 4.4177L22.9999 4.44872C23.0096 3.8225 22.7756 3.18803 22.2939 2.70632L20.8797 4.12052ZM21.0001 4.4177C20.9984 4.53127 20.9518 4.63979 20.8609 4.72L22.1843 6.21962C22.7159 5.75048 22.9898 5.0999 22.9999 4.44872L21.0001 4.4177ZM20.3164 4.10295C20.3881 4.03973 20.4738 4.00635 20.5624 4.00081L20.4376 2.00471C19.9205 2.03702 19.4092 2.23618 18.9931 2.60333L20.3164 4.10295ZM20.5624 4.00081C20.6785 3.99356 20.7933 4.03412 20.8796 4.12052L22.2939 2.70632C21.7861 2.19853 21.104 1.96307 20.4376 2.00471L20.5624 4.00081ZM20 19.0028H17V21.0028H20V19.0028ZM21 4.43321V15.0029H23V4.43321H21ZM21 15.0029V18.0028H23V15.0029H21ZM17.7071 20.7099L22.7071 15.71L21.2929 14.2957L16.2929 19.2957L17.7071 20.7099ZM20 21.0028C21.6569 21.0028 23 19.6597 23 18.0028H21C21 18.5551 20.5523 19.0028 20 19.0028V21.0028Z" fill="black"/>
</svg>
