<svg width="24" height="24" viewBox="0 0 24 24" fill="none" xmlns="http://www.w3.org/2000/svg">
<path d="M12 15V12M12 12L15 9M12 12L9 9M7.23261 10.7678C6.2563 9.79146 6.2563 8.20854 7.23261 7.23223C8.20892 6.25592 9.79183 6.25592 10.7681 7.23223M16.9965 10.5568C17.9728 9.58052 17.9728 7.99761 16.9965 7.0213C16.0202 6.04498 14.4372 6.04498 13.4609 7.0213M14.5 15C14.5 16.3807 13.3807 17.5 12 17.5C10.6193 17.5 9.5 16.3807 9.5 15M5 21H19C20.1046 21 21 20.1046 21 19V5C21 3.89543 20.1046 3 19 3H5C3.89543 3 3 3.89543 3 5V19C3 20.1046 3.89543 21 5 21Z" stroke="black" stroke-width="2" stroke-linecap="round" stroke-linejoin="round"/>
</svg>
