<svg width="24" height="24" viewBox="0 0 24 24" fill="none" xmlns="http://www.w3.org/2000/svg">
<path d="M19.5152 14.9031C20.3921 14.6669 20.917 14.1729 21.4108 13.5557L21.4883 13.4588C21.8294 13.0323 22 12.5162 22 12C22 11.4838 21.8294 10.9677 21.4883 10.5412L21.4108 10.4443C20.917 9.8271 20.3921 9.33312 19.5152 9.0969C19.0536 8.97258 18.4875 9 18.2951 9H14.5L11 3H7L7.33333 4M2.5 7H2L3.5 12L2 17H5L6 15H9L7 21H11L13.3333 17M22 21L2 3" stroke="black" stroke-width="2" stroke-linecap="round" stroke-linejoin="round"/>
</svg>
