<svg width="24" height="24" viewBox="0 0 24 24" fill="none" xmlns="http://www.w3.org/2000/svg">
<path d="M21 13V17L15 15V18L17 19V22L12 20.5L7 22V19.5L9 18V15L3 17V13L9 9.5V5.7049C9 5.51251 8.97258 4.94636 9.0969 4.48484C9.33312 3.60786 9.8271 3.08301 10.4443 2.58924L10.5412 2.51171C10.9677 2.17057 11.4838 2 12 2C12.5162 2 13.0323 2.17057 13.4588 2.51171L13.5557 2.58924C14.1729 3.08301 14.6669 3.60786 14.9031 4.48484C15.0274 4.94636 15 5.51252 15 5.7049V9.5L21 13Z" stroke="black" stroke-width="2" stroke-linecap="round" stroke-linejoin="round"/>
</svg>
