<svg width="24" height="24" viewBox="0 0 24 24" fill="none" xmlns="http://www.w3.org/2000/svg">
<path d="M2 17.5H22M4 13.5H20L16.1868 6.82692C16.1359 6.73789 16 6.77399 16 6.87653V13.1234C16 13.226 15.8641 13.2621 15.8132 13.173L12.1868 6.82692C12.1359 6.73789 12 6.77399 12 6.87653V13.1234C12 13.226 11.8641 13.2621 11.8132 13.173L8.18682 6.82692C8.13595 6.73789 8 6.77399 8 6.87653V13.1234C8 13.226 7.86405 13.2621 7.81318 13.173L4.18682 6.82692C4.13595 6.73789 4 6.77399 4 6.87653V13.5Z" stroke="black" stroke-width="2" stroke-linecap="round" stroke-linejoin="round"/>
</svg>
