<svg width="24" height="24" viewBox="0 0 24 24" fill="none" xmlns="http://www.w3.org/2000/svg">
<path d="M3 21L2.05132 20.6838C1.94967 20.9887 2.00081 21.3239 2.18876 21.5847C2.37671 21.8455 2.67856 22 3 22V21ZM7 21V22C7.55228 22 8 21.5523 8 21H7ZM17 21H16C16 21.5523 16.4477 22 17 22V21ZM21 21V22C21.3214 22 21.6233 21.8455 21.8112 21.5847C21.9992 21.3239 22.0503 20.9887 21.9487 20.6838L21 21ZM20 18H19C19 18.1075 19.0173 18.2143 19.0513 18.3162L20 18ZM4 18L4.94868 18.3162C4.98267 18.2143 5 18.1075 5 18H4ZM10.5 11.5C9.94772 11.5 9.5 11.9477 9.5 12.5C9.5 13.0523 9.94772 13.5 10.5 13.5V11.5ZM13.5 13.5C14.0523 13.5 14.5 13.0523 14.5 12.5C14.5 11.9477 14.0523 11.5 13.5 11.5V13.5ZM10.5 14C9.94772 14 9.5 14.4477 9.5 15C9.5 15.5523 9.94772 16 10.5 16V14ZM13.5 16C14.0523 16 14.5 15.5523 14.5 15C14.5 14.4477 14.0523 14 13.5 14V16ZM7.78087 15.3753C7.43586 14.944 6.80657 14.8741 6.3753 15.2191C5.94404 15.5641 5.87412 16.1934 6.21913 16.6247L7.78087 15.3753ZM9 18.5L8.21913 19.1247C8.4089 19.3619 8.69622 19.5 9 19.5V18.5ZM15 18.5V19.5C15.3038 19.5 15.5911 19.3619 15.7809 19.1247L15 18.5ZM17.7809 16.6247C18.1259 16.1934 18.056 15.5641 17.6247 15.2191C17.1934 14.8741 16.5641 14.944 16.2191 15.3753L17.7809 16.6247ZM10.4883 5C9.936 5 9.48828 5.44772 9.48828 6C9.48828 6.55228 9.936 7 10.4883 7V5ZM10.4973 7C11.0496 7 11.4973 6.55228 11.4973 6C11.4973 5.44772 11.0496 5 10.4973 5V7ZM14 6C13.4477 6 13 6.44772 13 7C13 7.55228 13.4477 8 14 8V6ZM14.009 8C14.5613 8 15.009 7.55228 15.009 7C15.009 6.44772 14.5613 6 14.009 6V8ZM3 22H7V20H3V22ZM17 22H21V20H17V22ZM21.9487 20.6838L20.9487 17.6838L19.0513 18.3162L20.0513 21.3162L21.9487 20.6838ZM21 18V12.5H19V18H21ZM17 8.5H7V10.5H17V8.5ZM3 12.5V18H5V12.5H3ZM3.05132 17.6838L2.05132 20.6838L3.94868 21.3162L4.94868 18.3162L3.05132 17.6838ZM7 8.5C4.79086 8.5 3 10.2909 3 12.5H5C5 11.3954 5.89543 10.5 7 10.5V8.5ZM21 12.5C21 10.2909 19.2091 8.5 17 8.5V10.5C18.1046 10.5 19 11.3954 19 12.5H21ZM10.5 13.5H13.5V11.5H10.5V13.5ZM10.5 16H13.5V14H10.5V16ZM6.21913 16.6247L8.21913 19.1247L9.78087 17.8753L7.78087 15.3753L6.21913 16.6247ZM9 19.5H15V17.5H9V19.5ZM15.7809 19.1247L17.7809 16.6247L16.2191 15.3753L14.2191 17.8753L15.7809 19.1247ZM10.4883 7H10.4973V5H10.4883V7ZM14 8H14.009V6H14V8ZM9.75 6C9.75 5.58579 10.0858 5.25 10.5 5.25V7.25C11.1904 7.25 11.75 6.69036 11.75 6H9.75ZM10.5 5.25C10.9142 5.25 11.25 5.58579 11.25 6H9.25C9.25 6.69036 9.80964 7.25 10.5 7.25V5.25ZM11.25 6C11.25 6.41421 10.9142 6.75 10.5 6.75V4.75C9.80964 4.75 9.25 5.30964 9.25 6H11.25ZM10.5 6.75C10.0858 6.75 9.75 6.41421 9.75 6H11.75C11.75 5.30964 11.1904 4.75 10.5 4.75V6.75ZM8 21V8H6V21H8ZM16 8V21H18V8H16ZM12 4C14.2091 4 16 5.79086 16 8H18C18 4.68629 15.3137 2 12 2V4ZM8 8C8 5.79086 9.79086 4 12 4V2C8.68629 2 6 4.68629 6 8H8Z" fill="black"/>
</svg>
