<svg width="24" height="24" viewBox="0 0 24 24" fill="none" xmlns="http://www.w3.org/2000/svg">
<path d="M15.4925 14.6338V17.058C15.4925 18.2397 14.7988 19.3113 13.7207 19.7951L11.0352 21L11.0178 16.9821C11.008 14.78 9.22002 13 7.01787 13H3L4.20497 10.3145C4.68873 9.23634 5.76036 8.54261 6.94207 8.54261L9.37109 8.49999M17.0415 3H20.9997V5.69778C20.9997 9.54878 18.7884 13.0576 15.3143 14.7191L11.0115 16.777C10.8992 14.7358 9.25756 13.104 7.21484 13.0048L9.82444 7.54835C11.1537 4.76906 13.9607 3 17.0415 3ZM3 21L3.60543 18.2755C3.84205 17.2107 4.72249 16.4097 5.80482 16.2744C6.91821 16.1352 7.86478 17.0818 7.7256 18.1952C7.59031 19.2775 6.78923 20.1579 5.72445 20.3945L3 21ZM17.5 7.5C17.5 8.05228 17.0523 8.5 16.5 8.5C15.9477 8.5 15.5 8.05228 15.5 7.5C15.5 6.94772 15.9477 6.5 16.5 6.5C17.0523 6.5 17.5 6.94772 17.5 7.5Z" stroke="black" stroke-width="2" stroke-linecap="round" stroke-linejoin="round"/>
</svg>
