<svg width="24" height="24" viewBox="0 0 24 24" fill="none" xmlns="http://www.w3.org/2000/svg">
<path d="M11 16.7826L11.0356 21L13.7212 19.7951C14.7993 19.3113 15.493 18.2397 15.493 17.058V14.6338M7.21891 13H3L4.20497 10.3145C4.68873 9.23634 5.76036 8.54261 6.94207 8.54261L9.37109 8.49999M9.5 17.5L6.5 14.5L9.8247 7.54835C11.1539 4.76906 13.961 3 17.0418 3H21V5.69778C21 9.54878 18.7887 13.0576 15.3146 14.7191L9.5 17.5ZM17.5 7.5C17.5 8.05228 17.0523 8.5 16.5 8.5C15.9477 8.5 15.5 8.05228 15.5 7.5C15.5 6.94772 15.9477 6.5 16.5 6.5C17.0523 6.5 17.5 6.94772 17.5 7.5Z" stroke="black" stroke-width="2" stroke-linejoin="round"/>
</svg>
