<svg width="24" height="24" viewBox="0 0 24 24" fill="none" xmlns="http://www.w3.org/2000/svg">
<path d="M6.5 8.25V5M3.5 8V6C3.5 5.44772 3.94772 5 4.5 5H8L13 9M16.5 11.75V12.25M2 12H7M13 15L8 19H4.5C3.94772 19 3.5 18.5523 3.5 18V16M6.5 19V15.75M22 12L21.3431 12.6569C19.8429 14.1571 17.808 15 15.6863 15H8L6 16H3C2.44772 16 2 15.5523 2 15V9C2 8.44772 2.44772 8 3 8H6L8 9H15.6863C17.808 9 19.8429 9.84286 21.3431 11.3431L22 12Z" stroke="black" stroke-width="2" stroke-linecap="round" stroke-linejoin="round"/>
</svg>
