<svg width="24" height="24" viewBox="0 0 24 24" fill="none" xmlns="http://www.w3.org/2000/svg">
<path d="M10.5641 14.5433L6.47431 13.7765C5.61946 13.6162 5 12.8698 5 12.0001C5 11.1303 5.61946 10.3839 6.47431 10.2236L10.5641 9.45679M5 17.5L8 14.0625M5 6.5L8 9.9375M22 12C22 15.3137 19.3137 18 16 18C12.6863 18 10 15.3137 10 12C10 8.68629 12.6863 6 16 6C19.3137 6 22 8.68629 22 12ZM3.25 17.5H6.75C7.44036 17.5 8 18.0596 8 18.75C8 19.4404 7.44036 20 6.75 20H3.25C2.55964 20 2 19.4404 2 18.75C2 18.0596 2.55964 17.5 3.25 17.5ZM3.25 4H6.75C7.44036 4 8 4.55964 8 5.25C8 5.94036 7.44036 6.5 6.75 6.5H3.25C2.55964 6.5 2 5.94036 2 5.25C2 4.55964 2.55964 4 3.25 4ZM17 12C17 12.5523 16.5523 13 16 13C15.4477 13 15 12.5523 15 12C15 11.4477 15.4477 11 16 11C16.5523 11 17 11.4477 17 12Z" stroke="black" stroke-width="2" stroke-linecap="round"/>
</svg>
