<svg width="24" height="24" viewBox="0 0 24 24" fill="none" xmlns="http://www.w3.org/2000/svg">
<path d="M11.4313 18.749L11.6882 19.7154L12.8311 19.4117L12.3417 18.3352L11.4313 18.749ZM22 15.6105L23 15.6106V15.6106L22 15.6105ZM22.0001 14.0012L23.0001 14.0013V14.0013L22.0001 14.0012ZM16.7306 13.5012L15.7666 13.2351C15.6835 13.5361 15.7458 13.8586 15.9349 14.107C16.1241 14.3554 16.4184 14.5012 16.7306 14.5012V13.5012ZM16.7306 9.5012L16.7306 8.5012C16.4184 8.5012 16.1241 8.64701 15.9349 8.89541C15.7458 9.14381 15.6835 9.46629 15.7666 9.76725L16.7306 9.5012ZM22 7.38974L23 7.38967V7.38967L22 7.38974ZM22.0001 9.00117L23.0001 9.0011V9.0011L22.0001 9.00117ZM21.5001 9.50121L21.5001 10.5012L21.5001 9.50121ZM12.6388 3.61038C12.1033 3.47545 11.5598 3.80022 11.4248 4.33577C11.2899 4.87132 11.6147 5.41485 12.1502 5.54978L12.6388 3.61038ZM21.6222 6.90493L21.8665 5.93524V5.93524L21.6222 6.90493ZM17.5596 16.0876C17.0241 16.2225 16.6993 16.7661 16.8343 17.3016C16.9692 17.8372 17.5127 18.1619 18.0483 18.027L17.5596 16.0876ZM21.6222 16.0953L21.8665 17.065L21.6222 16.0953ZM12 20L11.0896 20.4138C11.2519 20.7708 11.6079 21 12 21V20ZM14.5833 16.5L13.6603 16.8846C13.8155 17.2573 14.1796 17.5 14.5833 17.5V16.5ZM16.5226 20V21H16.5226L16.5226 20ZM16.5225 16.5L16.5225 15.5H16.5225V16.5ZM9.5 18C5.91015 18 3 15.0899 3 11.5H1C1 16.1944 4.80558 20 9.5 20V18ZM3 11.5C3 7.91015 5.91015 5 9.5 5V3C4.80558 3 1 6.80558 1 11.5H3ZM9.5 5C13.0899 5 16 7.91015 16 11.5H18C18 6.80558 14.1944 3 9.5 3V5ZM16 11.5C16 13.1654 15.375 14.6825 14.3451 15.8331L15.8354 17.1669C17.1808 15.6638 18 13.6764 18 11.5H16ZM8.58963 14.9138L10.521 19.1628L12.3417 18.3352L10.4104 14.0862L8.58963 14.9138ZM11.1745 17.7825C10.6414 17.9242 10.0803 18 9.5 18V20C10.2552 20 10.9889 19.9013 11.6882 19.7154L11.1745 17.7825ZM23 15.6106L23.0001 14.0013L21.0001 14.0012L21 15.6104L23 15.6106ZM16.0002 11.5012C16.0002 12.1031 15.9186 12.6843 15.7666 13.2351L17.6945 13.7672C17.8939 13.0447 18.0002 12.2845 18.0002 11.5012H16.0002ZM21.5001 12.5012H16.7306V14.5012H21.5001V12.5012ZM15.7666 9.76725C15.9186 10.3181 16.0002 10.8993 16.0002 11.5012H18.0002C18.0002 10.7178 17.8939 9.95771 17.6945 9.23515L15.7666 9.76725ZM21 7.38982L21.0001 9.00124L23.0001 9.0011L23 7.38967L21 7.38982ZM21.5001 8.50121L16.7306 8.5012L16.7306 10.5012L21.5001 10.5012L21.5001 8.50121ZM12.1502 5.54978L21.3779 7.87463L21.8665 5.93524L12.6388 3.61038L12.1502 5.54978ZM18.0483 18.027L21.8665 17.065L21.3779 15.1256L17.5596 16.0876L18.0483 18.027ZM23 7.38967C23 6.70243 22.5329 6.10313 21.8665 5.93524L21.3779 7.87463C21.1557 7.81867 21 7.6189 21 7.38982L23 7.38967ZM23.0001 14.0013C23.0002 13.1728 22.3286 12.5012 21.5001 12.5012V14.5012C21.224 14.5012 21.0001 14.2773 21.0001 14.0012L23.0001 14.0013ZM21.0001 9.00124C21.0001 8.72509 21.224 8.50121 21.5001 8.50121L21.5001 10.5012C22.3286 10.5012 23.0002 9.82956 23.0001 9.0011L21.0001 9.00124ZM21 15.6104C21 15.3813 21.1557 15.1816 21.3779 15.1256L21.8665 17.065C22.5329 16.8971 23 16.2978 23 15.6106L21 15.6104ZM11.5 11.5C11.5 12.6046 10.6046 13.5 9.5 13.5V15.5C11.7091 15.5 13.5 13.7091 13.5 11.5H11.5ZM9.5 13.5C8.39543 13.5 7.5 12.6046 7.5 11.5H5.5C5.5 13.7091 7.29086 15.5 9.5 15.5V13.5ZM7.5 11.5C7.5 10.3954 8.39543 9.5 9.5 9.5V7.5C7.29086 7.5 5.5 9.29086 5.5 11.5H7.5ZM9.5 9.5C10.6046 9.5 11.5 10.3954 11.5 11.5H13.5C13.5 9.29086 11.7091 7.5 9.5 7.5V9.5ZM8.58963 14.9138L11.0896 20.4138L12.9104 19.5862L10.4104 14.0862L8.58963 14.9138ZM11.5769 11.8846L13.6603 16.8846L15.5064 16.1154L13.4231 11.1154L11.5769 11.8846ZM17.2726 18.25C17.2726 18.6642 16.9368 19 16.5226 19L16.5226 21C18.0414 21 19.2726 19.7688 19.2726 18.25H17.2726ZM16.5225 17.5C16.9368 17.5 17.2726 17.8358 17.2726 18.25H19.2726C19.2726 16.7312 18.0413 15.5 16.5225 15.5L16.5225 17.5ZM14.5833 17.5H16.5225V15.5H14.5833V17.5ZM16.5226 19H12V21H16.5226V19Z" fill="black"/>
</svg>
