<svg width="24" height="24" viewBox="0 0 24 24" fill="none" xmlns="http://www.w3.org/2000/svg">
<path d="M5.4 21.8C5.84183 22.1314 6.46863 22.0418 6.8 21.6C7.13137 21.1582 7.04183 20.5314 6.6 20.2L5.4 21.8ZM2 18H1C1 18.3148 1.14819 18.6111 1.4 18.8L2 18ZM2 6L1.4 5.2C1.14819 5.38885 1 5.68524 1 6H2ZM6.6 3.8C7.04183 3.46863 7.13137 2.84183 6.8 2.4C6.46863 1.95817 5.84183 1.86863 5.4 2.2L6.6 3.8ZM17.4 20.2C16.9582 20.5314 16.8686 21.1582 17.2 21.6C17.5314 22.0418 18.1582 22.1314 18.6 21.8L17.4 20.2ZM22 18L22.6 18.8C22.8518 18.6111 23 18.3148 23 18H22ZM22 6H23C23 5.68524 22.8518 5.38885 22.6 5.2L22 6ZM18.6 2.2C18.1582 1.86863 17.5314 1.95817 17.2 2.4C16.8686 2.84183 16.9582 3.46863 17.4 3.8L18.6 2.2ZM7.00654 9.979C7.54723 9.86642 7.89428 9.33684 7.7817 8.79616C7.66912 8.25547 7.13954 7.90842 6.59885 8.021L7.00654 9.979ZM1.79616 9.021C1.25547 9.13358 0.908417 9.66316 1.021 10.2038C1.13358 10.7445 1.66316 11.0916 2.20384 10.979L1.79616 9.021ZM6.59885 15.979C7.13954 16.0916 7.66912 15.7445 7.7817 15.2038C7.89428 14.6632 7.54723 14.1336 7.00654 14.021L6.59885 15.979ZM2.20384 13.021C1.66316 12.9084 1.13358 13.2555 1.021 13.7962C0.908417 14.3368 1.25547 14.8664 1.79616 14.979L2.20384 13.021ZM17.4012 8.021C16.8605 7.90842 16.3309 8.25547 16.2183 8.79616C16.1057 9.33684 16.4528 9.86642 16.9935 9.979L17.4012 8.021ZM21.7962 10.979C22.3368 11.0916 22.8664 10.7445 22.979 10.2038C23.0916 9.66316 22.7445 9.13358 22.2038 9.021L21.7962 10.979ZM16.9935 14.021C16.4528 14.1336 16.1057 14.6632 16.2183 15.2038C16.3309 15.7445 16.8605 16.0916 17.4012 15.979L16.9935 14.021ZM22.2038 14.979C22.7445 14.8664 23.0916 14.3368 22.979 13.7962C22.8664 13.2555 22.3368 12.9084 21.7962 13.021L22.2038 14.979ZM17 12C17 14.7614 14.7614 17 12 17V19C15.866 19 19 15.866 19 12H17ZM12 17C9.23858 17 7 14.7614 7 12H5C5 15.866 8.13401 19 12 19V17ZM7 12C7 9.23858 9.23858 7 12 7V5C8.13401 5 5 8.13401 5 12H7ZM12 7C14.7614 7 17 9.23858 17 12H19C19 8.13401 15.866 5 12 5V7ZM6.6 20.2L2.6 17.2L1.4 18.8L5.4 21.8L6.6 20.2ZM3 18V6H1V18H3ZM2.6 6.8L6.6 3.8L5.4 2.2L1.4 5.2L2.6 6.8ZM18.6 21.8L22.6 18.8L21.4 17.2L17.4 20.2L18.6 21.8ZM23 18V6H21V18H23ZM22.6 5.2L18.6 2.2L17.4 3.8L21.4 6.8L22.6 5.2ZM6.59885 8.021L1.79616 9.021L2.20384 10.979L7.00654 9.979L6.59885 8.021ZM7.00654 14.021L2.20384 13.021L1.79616 14.979L6.59885 15.979L7.00654 14.021ZM16.9935 9.979L21.7962 10.979L22.2038 9.021L17.4012 8.021L16.9935 9.979ZM17.4012 15.979L22.2038 14.979L21.7962 13.021L16.9935 14.021L17.4012 15.979ZM13 12C13 12.5523 12.5523 13 12 13V15C13.6569 15 15 13.6569 15 12H13ZM12 13C11.4477 13 11 12.5523 11 12H9C9 13.6569 10.3431 15 12 15V13ZM11 12C11 11.4477 11.4477 11 12 11V9C10.3431 9 9 10.3431 9 12H11ZM12 11C12.5523 11 13 11.4477 13 12H15C15 10.3431 13.6569 9 12 9V11Z" fill="black"/>
</svg>
