<svg width="24" height="24" viewBox="0 0 24 24" fill="none" xmlns="http://www.w3.org/2000/svg">
<path d="M15 7V6C14.4477 6 14 6.44772 14 7H15ZM19 7L19.8 6.4C19.6111 6.14819 19.3148 6 19 6V7ZM14 12C14 12.5523 14.4477 13 15 13C15.5523 13 16 12.5523 16 12H14ZM22 11H23C23 10.7836 22.9298 10.5731 22.8 10.4L22 11ZM20.5 16C19.9477 16 19.5 16.4477 19.5 17C19.5 17.5523 19.9477 18 20.5 18V16ZM22 17V18C22.5523 18 23 17.5523 23 17H22ZM2 17H1C1 17.5523 1.44772 18 2 18V17ZM2 12V11C1.44772 11 1 11.4477 1 12H2ZM3 8C2.44772 8 2 8.44772 2 9C2 9.55228 2.44772 10 3 10V8ZM11 10C11.5523 10 12 9.55228 12 9C12 8.44772 11.5523 8 11 8V10ZM3 4C2.44772 4 2 4.44772 2 5C2 5.55228 2.44772 6 3 6V4ZM11 6C11.5523 6 12 5.55228 12 5C12 4.44772 11.5523 4 11 4V6ZM3 9C3 9.55228 3.44772 10 4 10C4.55228 10 5 9.55228 5 9H3ZM5 5C5 4.44772 4.55228 4 4 4C3.44772 4 3 4.44772 3 5H5ZM6 9C6 9.55228 6.44772 10 7 10C7.55228 10 8 9.55228 8 9H6ZM8 5C8 4.44772 7.55228 4 7 4C6.44772 4 6 4.44772 6 5H8ZM9 9C9 9.55228 9.44772 10 10 10C10.5523 10 11 9.55228 11 9H9ZM11 5C11 4.44772 10.5523 4 10 4C9.44772 4 9 4.44772 9 5H11ZM19 17C19 17.5523 18.5523 18 18 18V20C19.6569 20 21 18.6569 21 17H19ZM18 18C17.4477 18 17 17.5523 17 17H15C15 18.6569 16.3431 20 18 20V18ZM17 17C17 16.4477 17.4477 16 18 16V14C16.3431 14 15 15.3431 15 17H17ZM18 16C18.5523 16 19 16.4477 19 17H21C21 15.3431 19.6569 14 18 14V16ZM8 17C8 17.5523 7.55228 18 7 18V20C8.65685 20 10 18.6569 10 17H8ZM7 18C6.44772 18 6 17.5523 6 17H4C4 18.6569 5.34315 20 7 20V18ZM6 17C6 16.4477 6.44772 16 7 16V14C5.34315 14 4 15.3431 4 17H6ZM7 16C7.55228 16 8 16.4477 8 17H10C10 15.3431 8.65685 14 7 14V16ZM15 8H19V6H15V8ZM16 12V7H14V12H16ZM18.2 7.6L21.2 11.6L22.8 10.4L19.8 6.4L18.2 7.6ZM23 12V11H21V12H23ZM20.5 18H22V16H20.5V18ZM16 16H9V18H16V16ZM5 16H2V18H5V16ZM23 17V12H21V17H23ZM22 11H2V13H22V11ZM1 12V17H3V12H1ZM3 10H11V8H3V10ZM3 6H11V4H3V6ZM5 9V5H3V9H5ZM8 9V5H6V9H8ZM11 9V5H9V9H11Z" fill="black"/>
</svg>
