<svg width="24" height="24" viewBox="0 0 24 24" fill="none" xmlns="http://www.w3.org/2000/svg">
<path d="M12.408 4.21799L11.954 5.10899L11.954 5.10899L12.408 4.21799ZM13.282 5.09202L12.391 5.54601V5.54601L13.282 5.09202ZM3.59202 4.21799L3.13803 3.32698L3.13803 3.32698L3.59202 4.21799ZM2.71799 5.09202L1.82698 4.63803L1.82698 4.63803L2.71799 5.09202ZM13.5 8V7C12.9477 7 12.5 7.44772 12.5 8H13.5ZM17.5 8L18.3 7.4C18.1111 7.14819 17.8148 7 17.5 7V8ZM20.5 12H21.5C21.5 11.7836 21.4298 11.5731 21.3 11.4L20.5 12ZM19.5 18C19.5 18.5523 19.9477 19 20.5 19C21.0523 19 21.5 18.5523 21.5 18H19.5ZM21.5 19C22.0523 19 22.5 18.5523 22.5 18C22.5 17.4477 22.0523 17 21.5 17V19ZM19.5 13C20.0523 13 20.5 12.5523 20.5 12C20.5 11.4477 20.0523 11 19.5 11V13ZM13.5 11C12.9477 11 12.5 11.4477 12.5 12C12.5 12.5523 12.9477 13 13.5 13V11ZM6 10C5.44772 10 5 10.4477 5 11C5 11.5523 5.44772 12 6 12V10ZM10 12C10.5523 12 11 11.5523 11 11C11 10.4477 10.5523 10 10 10V12ZM7 13C7 13.5523 7.44772 14 8 14C8.55228 14 9 13.5523 9 13H7ZM9 9C9 8.44772 8.55228 8 8 8C7.44772 8 7 8.44772 7 9H9ZM17.5 18C17.5 18.5523 17.0523 19 16.5 19V21C18.1569 21 19.5 19.6569 19.5 18H17.5ZM16.5 19C15.9477 19 15.5 18.5523 15.5 18H13.5C13.5 19.6569 14.8431 21 16.5 21V19ZM15.5 18C15.5 17.4477 15.9477 17 16.5 17V15C14.8431 15 13.5 16.3431 13.5 18H15.5ZM16.5 17C17.0523 17 17.5 17.4477 17.5 18H19.5C19.5 16.3431 18.1569 15 16.5 15V17ZM7.5 18C7.5 18.5523 7.05228 19 6.5 19V21C8.15685 21 9.5 19.6569 9.5 18H7.5ZM6.5 19C5.94772 19 5.5 18.5523 5.5 18H3.5C3.5 19.6569 4.84315 21 6.5 21V19ZM5.5 18C5.5 17.4477 5.94772 17 6.5 17V15C4.84315 15 3.5 16.3431 3.5 18H5.5ZM6.5 17C7.05228 17 7.5 17.4477 7.5 18H9.5C9.5 16.3431 8.15685 15 6.5 15V17ZM5.7 5H10.3V3H5.7V5ZM12.5 7.2V18H14.5V7.2H12.5ZM3.5 16V7.2H1.5V16H3.5ZM13.5 17H8.5V19H13.5V17ZM1.5 16C1.5 17.6569 2.84315 19 4.5 19V17C3.94772 17 3.5 16.5523 3.5 16H1.5ZM10.3 5C10.8766 5 11.2488 5.00078 11.5322 5.02393C11.8038 5.04612 11.9045 5.0838 11.954 5.10899L12.862 3.32698C12.4836 3.13419 12.0904 3.06287 11.695 3.03057C11.3114 2.99922 10.8436 3 10.3 3V5ZM14.5 7.2C14.5 6.65645 14.5008 6.18864 14.4694 5.80497C14.4371 5.40963 14.3658 5.01641 14.173 4.63803L12.391 5.54601C12.4162 5.59545 12.4539 5.69617 12.4761 5.96784C12.4992 6.25117 12.5 6.62345 12.5 7.2H14.5ZM11.954 5.10899C12.1422 5.20487 12.2951 5.35785 12.391 5.54601L14.173 4.63803C13.8854 4.07354 13.4265 3.6146 12.862 3.32698L11.954 5.10899ZM5.7 3C5.15645 3 4.68864 2.99922 4.30497 3.03057C3.90963 3.06287 3.51641 3.13419 3.13803 3.32698L4.04601 5.10899C4.09545 5.0838 4.19617 5.04612 4.46784 5.02393C4.75117 5.00078 5.12345 5 5.7 5V3ZM3.5 7.2C3.5 6.62345 3.50078 6.25117 3.52393 5.96784C3.54612 5.69617 3.5838 5.59545 3.60899 5.54601L1.82698 4.63803C1.63419 5.01641 1.56287 5.40963 1.53057 5.80497C1.49922 6.18864 1.5 6.65645 1.5 7.2H3.5ZM3.13803 3.32698C2.57354 3.6146 2.1146 4.07354 1.82698 4.63803L3.60899 5.54601C3.70487 5.35785 3.85785 5.20487 4.04601 5.10899L3.13803 3.32698ZM13.5 9H17.5V7H13.5V9ZM14.5 18V8H12.5V18H14.5ZM16.7 8.6L19.7 12.6L21.3 11.4L18.3 7.4L16.7 8.6ZM19.5 12V18H21.5V12H19.5ZM18.5 19H21.5V17H18.5V19ZM14.5 17H13.5V19H14.5V17ZM19.5 11H13.5V13H19.5V11ZM6 12H10V10H6V12ZM9 13V9H7V13H9Z" fill="black"/>
</svg>
