<svg width="24" height="24" viewBox="0 0 24 24" fill="none" xmlns="http://www.w3.org/2000/svg">
<path d="M4.20802 18.5C4.76031 18.5 5.20802 18.0523 5.20802 17.5C5.20802 16.9477 4.76031 16.5 4.20802 16.5V18.5ZM19.792 16.5C19.2397 16.5 18.792 16.9477 18.792 17.5C18.792 18.0523 19.2397 18.5 19.792 18.5V16.5ZM8.79198 16.5C8.23969 16.5 7.79198 16.9477 7.79198 17.5C7.79198 18.0523 8.23969 18.5 8.79198 18.5V16.5ZM15.208 18.5C15.7603 18.5 16.208 18.0523 16.208 17.5C16.208 16.9477 15.7603 16.5 15.208 16.5V18.5ZM2 2C1.44772 2 1 2.44772 1 3C1 3.55228 1.44772 4 2 4V2ZM22 4C22.5523 4 23 3.55228 23 3C23 2.44772 22.5523 2 22 2V4ZM2 12C1.44772 12 1 12.4477 1 13C1 13.5523 1.44772 14 2 14V12ZM13 13V14C13.5523 14 14 13.5523 14 13H13ZM4 3C4 2.44772 3.55228 2 3 2C2.44772 2 2 2.44772 2 3H4ZM2 7.08535C2 7.63764 2.44772 8.08535 3 8.08535C3.55228 8.08535 4 7.63764 4 7.08535H2ZM8 3C8 2.44772 7.55228 2 7 2C6.44772 2 6 2.44772 6 3H8ZM6 7C6 7.55228 6.44772 8 7 8C7.55228 8 8 7.55228 8 7H6ZM12 3C12 2.44772 11.5523 2 11 2C10.4477 2 10 2.44772 10 3H12ZM10 7C10 7.55228 10.4477 8 11 8C11.5523 8 12 7.55228 12 7H10ZM3 16V8.5H1V16H3ZM23 16V8.5H21V16H23ZM3.5 18.5H4.20802V16.5H3.5V18.5ZM19.792 18.5H20.5V16.5H19.792V18.5ZM8.79198 18.5H15.208V16.5H8.79198V18.5ZM23 8.5C23 7.11929 21.8807 6 20.5 6V8C20.7761 8 21 8.22386 21 8.5H23ZM3 8.5C3 8.22386 3.22386 8 3.5 8V6C2.11929 6 1 7.11929 1 8.5H3ZM21 16C21 16.2761 20.7761 16.5 20.5 16.5V18.5C21.8807 18.5 23 17.3807 23 16H21ZM1 16C1 17.3807 2.11929 18.5 3.5 18.5V16.5C3.22386 16.5 3 16.2761 3 16H1ZM2 4H22V2H2V4ZM8 18.5C8 19.3284 7.32843 20 6.5 20V22C8.433 22 10 20.433 10 18.5H8ZM6.5 20C5.67157 20 5 19.3284 5 18.5H3C3 20.433 4.567 22 6.5 22V20ZM5 18.5C5 17.6716 5.67157 17 6.5 17V15C4.567 15 3 16.567 3 18.5H5ZM6.5 17C7.32843 17 8 17.6716 8 18.5H10C10 16.567 8.433 15 6.5 15V17ZM19 18.5C19 19.3284 18.3284 20 17.5 20V22C19.433 22 21 20.433 21 18.5H19ZM17.5 20C16.6716 20 16 19.3284 16 18.5H14C14 20.433 15.567 22 17.5 22V20ZM16 18.5C16 17.6716 16.6716 17 17.5 17V15C15.567 15 14 16.567 14 18.5H16ZM17.5 17C18.3284 17 19 17.6716 19 18.5H21C21 16.567 19.433 15 17.5 15V17ZM17.1 11H18.9V9H17.1V11ZM18 10.1V11.9H20V10.1H18ZM18.9 11H17.1V13H18.9V11ZM18 11.9V10.1H16V11.9H18ZM17.1 11C17.5971 11 18 11.4029 18 11.9H16C16 12.5075 16.4925 13 17.1 13V11ZM18 11.9C18 11.4029 18.4029 11 18.9 11V13C19.5075 13 20 12.5075 20 11.9H18ZM18.9 11C18.403 11 18 10.5971 18 10.1H20C20 9.49248 19.5075 9 18.9 9V11ZM17.1 9C16.4925 9 16 9.49248 16 10.1H18C18 10.5971 17.5971 11 17.1 11V9ZM18 6.5C18 6.22386 18.2239 6 18.5 6V8C19.3284 8 20 7.32843 20 6.5H18ZM18.5 7C18.2239 7 18 6.77614 18 6.5H20C20 5.67157 19.3284 5 18.5 5V7ZM19 6.5C19 6.77614 18.7761 7 18.5 7V5C17.6716 5 17 5.67157 17 6.5H19ZM17 6.5C17 7.32843 17.6716 8 18.5 8V6C18.7761 6 19 6.22386 19 6.5H17ZM2 14H13V12H2V14ZM12 7V13H14V7H12ZM3.5 8H13V6H3.5V8ZM13 8H20.5V6H13V8ZM2 3V7.08535H4V3H2ZM6 3V7H8V3H6ZM10 3V7H12V3H10Z" fill="black"/>
</svg>
