<svg width="24" height="24" viewBox="0 0 24 24" fill="none" xmlns="http://www.w3.org/2000/svg">
<path d="M15 8V7C14.4477 7 14 7.44772 14 8H15ZM19 8L19.8 7.4C19.6111 7.14819 19.3148 7 19 7V8ZM15 13L14.2106 13.6139C14.4729 13.9512 14.9205 14.0845 15.3245 13.9459C15.7286 13.8072 16 13.4272 16 13H15ZM22 12H23C23 11.7836 22.9298 11.5731 22.8 11.4L22 12ZM20.5 17C19.9477 17 19.5 17.4477 19.5 18C19.5 18.5523 19.9477 19 20.5 19V17ZM22 18V19C22.5523 19 23 18.5523 23 18H22ZM2 18H1C1 18.5523 1.44772 19 2 19V18ZM2 13V12C1.44772 12 1 12.4477 1 13H2ZM5 4V3C4.44772 3 4 3.44772 4 4H5ZM9.12584 13.4856C9.39406 13.9684 10.0029 14.1424 10.4856 13.8742C10.9684 13.6059 11.1424 12.9971 10.8742 12.5144L9.12584 13.4856ZM8 4L8.78935 3.38606C8.5999 3.14247 8.30859 3 8 3V4ZM3 8C3 7.44772 2.55228 7 2 7C1.44772 7 1 7.44772 1 8H3ZM19 18C19 18.5523 18.5523 19 18 19V21C19.6569 21 21 19.6569 21 18H19ZM18 19C17.4477 19 17 18.5523 17 18H15C15 19.6569 16.3431 21 18 21V19ZM17 18C17 17.4477 17.4477 17 18 17V15C16.3431 15 15 16.3431 15 18H17ZM18 17C18.5523 17 19 17.4477 19 18H21C21 16.3431 19.6569 15 18 15V17ZM8 18C8 18.5523 7.55228 19 7 19V21C8.65685 21 10 19.6569 10 18H8ZM7 19C6.44772 19 6 18.5523 6 18H4C4 19.6569 5.34315 21 7 21V19ZM6 18C6 17.4477 6.44772 17 7 17V15C5.34315 15 4 16.3431 4 18H6ZM7 17C7.55228 17 8 17.4477 8 18H10C10 16.3431 8.65685 15 7 15V17ZM15 9H19V7H15V9ZM16 13V8H14V13H16ZM18.2 8.6L21.2 12.6L22.8 11.4L19.8 7.4L18.2 8.6ZM23 13V12H21V13H23ZM20.5 19H22V17H20.5V19ZM16 17H9V19H16V17ZM5 17H2V19H5V17ZM23 18V13H21V18H23ZM22 12H2V14H22V12ZM1 13V18H3V13H1ZM4.12584 4.48564L9.12584 13.4856L10.8742 12.5144L5.87416 3.51436L4.12584 4.48564ZM15.7894 12.3861L8.78935 3.38606L7.21065 4.61394L14.2106 13.6139L15.7894 12.3861ZM8 3H5V5H8V3ZM1 8V8.5H3V8H1ZM6 8.5V4H4V8.5H6ZM3.5 11C4.88071 11 6 9.88071 6 8.5H4C4 8.77614 3.77614 9 3.5 9V11ZM1 8.5C1 9.88071 2.11929 11 3.5 11V9C3.22386 9 3 8.77614 3 8.5H1Z" fill="black"/>
</svg>
