<svg width="24" height="24" viewBox="0 0 24 24" fill="none" xmlns="http://www.w3.org/2000/svg">
<path d="M12 6V5C11.4477 5 11 5.44772 11 6H12ZM16 6L16.8 5.4C16.6111 5.14819 16.3148 5 16 5V6ZM11 10C11 10.5523 11.4477 11 12 11C12.5523 11 13 10.5523 13 10H11ZM18.2 10.6C18.5314 11.0418 19.1582 11.1314 19.6 10.8C20.0418 10.4686 20.1314 9.84183 19.8 9.4L18.2 10.6ZM19.4982 15C18.9459 15 18.4982 15.4477 18.4982 16C18.4982 16.5523 18.9459 17 19.4982 17V15ZM21.9982 17C22.5505 17 22.9982 16.5523 22.9982 16C22.9982 15.4477 22.5505 15 21.9982 15V17ZM2 15C1.44772 15 1 15.4477 1 16C1 16.5523 1.44772 17 2 17V15ZM18 16C18 16.5523 17.5523 17 17 17V19C18.6569 19 20 17.6569 20 16H18ZM17 17C16.4477 17 16 16.5523 16 16H14C14 17.6569 15.3431 19 17 19V17ZM16 16C16 15.4477 16.4477 15 17 15V13C15.3431 13 14 14.3431 14 16H16ZM17 15C17.5523 15 18 15.4477 18 16H20C20 14.3431 18.6569 13 17 13V15ZM9 16C9 16.5523 8.55228 17 8 17V19C9.65685 19 11 17.6569 11 16H9ZM8 17C7.44772 17 7 16.5523 7 16H5C5 17.6569 6.34315 19 8 19V17ZM7 16C7 15.4477 7.44772 15 8 15V13C6.34315 13 5 14.3431 5 16H7ZM8 15C8.55228 15 9 15.4477 9 16H11C11 14.3431 9.65685 13 8 13V15ZM12 7H16V5H12V7ZM13 10V6H11V10H13ZM15.2 6.6L18.2 10.6L19.8 9.4L16.8 5.4L15.2 6.6ZM19.4982 17H20.9982V15H19.4982V17ZM15 15H10V17H15V15ZM6 15H3V17H6V15ZM21.9982 16V12H19.9982V16H21.9982ZM18.9982 9H5V11H18.9982V9ZM2 12V16H4V12H2ZM20.9982 17H21.9982V15H20.9982V17ZM3 15H2V17H3V15ZM5 9C3.34314 9 2 10.3431 2 12H4C4 11.4477 4.44771 11 5 11V9ZM21.9982 12C21.9982 10.3431 20.6551 9 18.9982 9V11C19.5505 11 19.9982 11.4477 19.9982 12H21.9982Z" fill="black"/>
</svg>
