<svg width="24" height="24" viewBox="0 0 24 24" fill="none" xmlns="http://www.w3.org/2000/svg">
<path d="M16 16C16 17.1046 16.8954 18 18 18C19.1046 18 20 17.1046 20 16C20 14.8954 19.1046 14 18 14C16.8954 14 16 14.8954 16 16ZM16 16H11M11 16C11 17.1046 10.1046 18 9 18C7.89543 18 7 17.1046 7 16C7 14.8954 7.89543 14 9 14C10.1046 14 11 14.8954 11 16ZM15 16V6H19L22 10M22 10V16H20.5M22 10H15M6 16C6 17.1046 5.10457 18 4 18C2.89543 18 2 17.1046 2 16C2 14.8954 2.89543 14 4 14C5.10457 14 6 14.8954 6 16Z" stroke="black" stroke-width="2" stroke-linecap="round" stroke-linejoin="round"/>
</svg>
