<svg width="24" height="24" viewBox="0 0 24 24" fill="none" xmlns="http://www.w3.org/2000/svg">
<path d="M7 5V4C6.44772 4 6 4.44772 6 5H7ZM11 5L11.8575 4.4855C11.6768 4.1843 11.3513 4 11 4V5ZM6 10C6 10.5523 6.44772 11 7 11C7.55228 11 8 10.5523 8 10H6ZM13.1425 10.5145C13.4267 10.9881 14.0409 11.1416 14.5145 10.8575C14.9881 10.5733 15.1416 9.95908 14.8575 9.4855L13.1425 10.5145ZM2 16H1C1 16.5523 1.44772 17 2 17V16ZM21.168 19.5547C21.4743 20.0142 22.0952 20.1384 22.5547 19.832C23.0142 19.5257 23.1384 18.9048 22.832 18.4453L21.168 19.5547ZM20.3359 16.5039L21.168 15.9492L20.3359 16.5039ZM20.3359 10.4962L21.1679 11.0509L20.3359 10.4962ZM22.8321 8.55472C23.1384 8.09519 23.0142 7.47432 22.5547 7.16797C22.0952 6.86162 21.4743 6.9858 21.1679 7.44533L22.8321 8.55472ZM20 17C20.5523 17 21 16.5523 21 16C21 15.4477 20.5523 15 20 15V17ZM15 16C15 16.5523 14.5523 17 14 17V19C15.6569 19 17 17.6569 17 16H15ZM14 17C13.4477 17 13 16.5523 13 16H11C11 17.6569 12.3431 19 14 19V17ZM13 16C13 15.4477 13.4477 15 14 15V13C12.3431 13 11 14.3431 11 16H13ZM14 15C14.5523 15 15 15.4477 15 16H17C17 14.3431 15.6569 13 14 13V15ZM6 16C6 16.5523 5.55228 17 5 17V19C6.65685 19 8 17.6569 8 16H6ZM5 17C4.44772 17 4 16.5523 4 16H2C2 17.6569 3.34315 19 5 19V17ZM4 16C4 15.4477 4.44772 15 5 15V13C3.34315 13 2 14.3431 2 16H4ZM5 15C5.55228 15 6 15.4477 6 16H8C8 14.3431 6.65685 13 5 13V15ZM7 6H11V4H7V6ZM8 10V5H6V10H8ZM10.1425 5.5145L13.1425 10.5145L14.8575 9.4855L11.8575 4.4855L10.1425 5.5145ZM16 17H17V15H16V17ZM12 15H7V17H12V15ZM3 15H2V17H3V15ZM18 16V11H16V16H18ZM16 9H3V11H16V9ZM1 11V16H3V11H1ZM3 9C1.89543 9 1 9.89543 1 11H3H3V9ZM18 11C18 9.89543 17.1046 9 16 9V11H18ZM22.832 18.4453L21.168 15.9492L19.5039 17.0586L21.168 19.5547L22.832 18.4453ZM21 15.3945V11.6056H19V15.3945H21ZM21.1679 11.0509L22.8321 8.55472L21.1679 7.44533L19.5038 9.94149L21.1679 11.0509ZM21 11.6056C21 11.4082 21.0584 11.2152 21.1679 11.0509L19.5038 9.94149C19.1753 10.4343 19 11.0133 19 11.6056H21ZM21.168 15.9492C21.0584 15.7849 21 15.5919 21 15.3945H19C19 15.9867 19.1753 16.5658 19.5039 17.0586L21.168 15.9492ZM20 15H17V17H20V15Z" fill="black"/>
</svg>
