<svg width="24" height="24" viewBox="0 0 24 24" fill="none" xmlns="http://www.w3.org/2000/svg">
<path fill-rule="evenodd" clip-rule="evenodd" d="M2 8.8V15.2C2 17.3625 3.85696 19 6 19C8.14304 19 10 17.3625 10 15.2V11.8446C10.1759 12.2361 10.4235 12.6026 10.7452 12.9243L15.2707 17.4497C16.0352 18.2143 17.0353 18.5578 18.0336 18.5207C19.0318 18.4836 20.0284 18.066 20.7861 17.3083C21.5588 16.5356 21.9721 15.5313 21.9994 14.5271C21.9994 14.5271 21.9994 14.5272 21.9994 14.5271C22.0262 13.5403 21.6786 12.544 20.9275 11.7929L16.402 7.26741C14.8729 5.73826 12.4019 5.89348 10.8866 7.40883C10.4994 7.79606 10.2024 8.24143 9.99906 8.71578C9.95158 6.59508 8.11513 5 6 5C3.85696 5 2 6.63746 2 8.8ZM6 7C4.82933 7 4 7.86975 4 8.8V12H8V8.8C8 7.86975 7.17067 7 6 7ZM17.2505 10.9443L14.9878 8.68162C14.33 8.02384 13.1286 7.99525 12.3008 8.82304C11.895 9.22888 11.6902 9.73972 11.673 10.2292C11.6559 10.7178 11.8241 11.1748 12.1594 11.5101L14.4221 13.7727L17.2505 10.9443Z" fill="black"/>
</svg>
