<svg width="24" height="24" viewBox="0 0 24 24" fill="none" xmlns="http://www.w3.org/2000/svg">
<path fill-rule="evenodd" clip-rule="evenodd" d="M15.5 2C16.0523 2 16.5 2.44772 16.5 3C16.5 3.55174 16.0532 3.99912 15.5016 4V10.4986L19.8638 17.3807C21.144 19.3768 19.7107 22 17.3384 22H6.66506C4.29273 22 2.85945 19.3768 4.13963 17.3807L5.9699 14.493C5.98088 14.4744 5.99244 14.4561 6.00456 14.4383L8.50164 10.4986V4H8.5C7.94772 4 7.5 3.55228 7.5 3C7.5 2.44772 7.94772 2 8.5 2H15.5ZM13.5016 4V10.7888C13.5016 10.9784 13.5555 11.1641 13.657 11.3242L15.3531 14H8.65027L10.3463 11.3242C10.4478 11.1641 10.5016 10.9784 10.5016 10.7888V4H13.5016Z" fill="black"/>
</svg>
