<svg width="24" height="24" viewBox="0 0 24 24" fill="none" xmlns="http://www.w3.org/2000/svg">
<path fill-rule="evenodd" clip-rule="evenodd" d="M18.1598 2C18.7121 2 19.1598 2.44772 19.1598 3C19.1598 3.55174 18.713 3.99912 18.1615 4V10.4986L22.5237 17.3807C23.8038 19.3768 22.3706 22 19.9982 22H9.32491C6.95258 22 5.5193 19.3768 6.79948 17.3807L8.62974 14.493C8.64072 14.4744 8.65228 14.4561 8.66441 14.4383L11.1615 10.4986V4H11.1598C10.6076 4 10.1598 3.55228 10.1598 3C10.1598 2.44772 10.6076 2 11.1598 2H18.1598ZM16.1615 4V10.7888C16.1615 10.9784 16.2154 11.1641 16.3169 11.3242L18.0129 14H11.3101L13.0061 11.3242C13.1076 11.1641 13.1615 10.9784 13.1615 10.7888V4H16.1615Z" fill="black"/>
<path fill-rule="evenodd" clip-rule="evenodd" d="M9 12.0439L7.82888 13.8916C7.81198 13.917 7.79564 13.9428 7.77986 13.969L5.95964 16.8408L5.95811 16.8432C5.31075 17.8541 5.18498 18.9854 5.45127 19.9997C3.54074 19.9736 2 18.4167 2 16.5V4C1.44772 4 1 3.55228 1 3C1 2.44772 1.44772 2 2 2H9C9.13711 2 9.26778 2.0276 9.38675 2.07754C9.24302 2.35354 9.16178 2.66728 9.16178 3C9.16178 3.33271 9.24302 3.64645 9.38675 3.92246C9.26778 3.9724 9.13711 4 9 4V12.0439ZM4 4V8H7V4H4Z" fill="black"/>
</svg>
