<svg width="24" height="24" viewBox="0 0 24 24" fill="none" xmlns="http://www.w3.org/2000/svg">
<path fill-rule="evenodd" clip-rule="evenodd" d="M11.0256 3.29224C11.1303 2.8285 11.5343 2.5 12 2.5H22C22.5523 2.5 23 2.95759 23 3.52207V13.7427C23 14.2187 22.6786 14.6316 22.2249 14.7386L9.50431 17.7389L6.41421 20.8972C5.15428 22.1849 3 21.2729 3 19.4518V11.6986C3 11.1341 2.55228 10.6765 2 10.6765C1.44772 10.6765 1 10.2189 1 9.65446C1 9.08999 1.44772 8.6324 2 8.6324C3.65685 8.6324 5 10.0052 5 11.6986V19.4518L8.0901 16.2935L11.0256 3.29224ZM15.7071 5.86555C15.3166 5.46641 14.6834 5.46641 14.2929 5.86555C13.9024 6.2647 13.9024 6.91183 14.2929 7.31097L15.5858 8.6324L12.2929 11.998C11.9024 12.3971 11.9024 13.0442 12.2929 13.4434C12.6834 13.8425 13.3166 13.8425 13.7071 13.4434L17 10.0778L18.2929 11.3992C18.6834 11.7984 19.3166 11.7984 19.7071 11.3992C20.0976 11.0001 20.0976 10.353 19.7071 9.95382L18.4142 8.6324L19.7071 7.31097C20.0976 6.91183 20.0976 6.2647 19.7071 5.86555C19.3166 5.46641 18.6834 5.46641 18.2929 5.86555L17 7.18698L15.7071 5.86555Z" fill="black"/>
</svg>
