<svg width="24" height="24" viewBox="0 0 24 24" fill="none" xmlns="http://www.w3.org/2000/svg">
<path d="M17.2071 2.5111C18.1561 1.44338 19.8082 1.39479 20.8183 2.4049C21.6764 3.26301 21.7884 4.61571 21.0831 5.60328L18.6572 9.00012H11.4397L17.2071 2.5111Z" fill="black"/>
<path d="M3 10.0001C2.44772 10.0001 2 10.4478 2 11.0001C2 11.5524 2.44772 12.0001 3 12.0001V14.5148C3 17.025 4.64656 19.2381 7.05092 19.9594L7.17938 19.9979C7.19831 20.0036 7.20749 20.0108 7.21342 20.0169C7.22087 20.0244 7.22842 20.036 7.23313 20.0511C7.23784 20.0662 7.23819 20.08 7.23637 20.0904C7.23492 20.0988 7.23148 20.1099 7.21913 20.1254L6.21913 21.3754C5.979 21.6755 5.93218 22.0868 6.0987 22.4333C6.26522 22.7797 6.61559 23.0001 7 23.0001H17C17.3844 23.0001 17.7348 22.7797 17.9013 22.4333C18.0678 22.0868 18.021 21.6755 17.7809 21.3754L16.7809 20.1254C16.7685 20.1099 16.7651 20.0988 16.7636 20.0904C16.7618 20.08 16.7622 20.0662 16.7669 20.0511C16.7716 20.036 16.7791 20.0244 16.7866 20.0169C16.7925 20.0108 16.8017 20.0036 16.8206 19.9979L16.9491 19.9594C19.3534 19.2381 21 17.025 21 14.5148V12.0001C21.5523 12.0001 22 11.5524 22 11.0001C22 10.4478 21.5523 10.0001 21 10.0001H3Z" fill="black"/>
</svg>
