<svg width="24" height="24" viewBox="0 0 24 24" fill="none" xmlns="http://www.w3.org/2000/svg">
<path fill-rule="evenodd" clip-rule="evenodd" d="M12.5 11.5C11.9477 11.5 11.5 11.9477 11.5 12.5C11.5 13.0523 11.9477 13.5 12.5 13.5H12.51C13.0623 13.5 13.51 13.0523 13.51 12.5C13.51 11.9477 13.0623 11.5 12.51 11.5H12.5Z" fill="black"/>
<path fill-rule="evenodd" clip-rule="evenodd" d="M3 6C3 4.34315 4.34315 3 6 3H18C19.6569 3 21 4.34315 21 6V18C21 19.6569 19.6569 21 18 21H6C4.34315 21 3 19.6569 3 18V6ZM11.25 6C10.6977 6 10.25 6.44772 10.25 7C10.25 7.46596 10.5687 7.85748 11 7.9685V8.12602C10.6329 8.22051 10.2861 8.36582 9.96773 8.554L9.85586 8.44213C10.0823 8.05866 10.0308 7.55646 9.70136 7.22698C9.31084 6.83645 8.67767 6.83645 8.28715 7.22698L7.22649 8.28764C6.83596 8.67816 6.83596 9.31132 7.22649 9.70185C7.55597 10.0313 8.05817 10.0828 8.44165 9.85635L8.55364 9.96834C8.36563 10.2866 8.22045 10.6331 8.12602 11H7.9685C7.85748 10.5687 7.46596 10.25 7 10.25C6.44772 10.25 6 10.6977 6 11.25V12.75C6 13.3023 6.44772 13.75 7 13.75C7.46596 13.75 7.85748 13.4313 7.9685 13H8.12602C8.22045 13.3669 8.36563 13.7134 8.55362 14.0316L8.44165 14.1436C8.05817 13.9171 7.55597 13.9686 7.22649 14.2981C6.83596 14.6886 6.83596 15.3218 7.22649 15.7123L8.28715 16.773C8.67767 17.1635 9.31084 17.1635 9.70136 16.773C10.0308 16.4435 10.0823 15.9413 9.85586 15.5578L9.9677 15.446C10.2861 15.6342 10.6329 15.7795 11 15.874V16.0315C10.5687 16.1425 10.25 16.534 10.25 17C10.25 17.5523 10.6977 18 11.25 18H12.75C13.3023 18 13.75 17.5523 13.75 17C13.75 16.534 13.4313 16.1425 13 16.0315V15.874C13.367 15.7795 13.7135 15.6343 14.0318 15.4463L14.1434 15.5578C13.9169 15.9413 13.9684 16.4435 14.2979 16.773C14.6884 17.1635 15.3216 17.1635 15.7121 16.773L16.7727 15.7123C17.1633 15.3218 17.1633 14.6886 16.7727 14.2981C16.4433 13.9686 15.9411 13.9171 15.5576 14.1436L15.4461 14.0321C15.6342 13.7138 15.7795 13.3671 15.874 13H16.0315C16.1425 13.4313 16.534 13.75 17 13.75C17.5523 13.75 18 13.3023 18 12.75V11.25C18 10.6977 17.5523 10.25 17 10.25C16.534 10.25 16.1425 10.5687 16.0315 11H15.874C15.7795 10.6329 15.6342 10.2862 15.4461 9.96786L15.5576 9.85635C15.9411 10.0828 16.4433 10.0313 16.7727 9.70185C17.1633 9.31132 17.1633 8.67816 16.7727 8.28763L15.7121 7.22698C15.3216 6.83645 14.6884 6.83645 14.2979 7.22697C13.9684 7.55646 13.9169 8.05866 14.1434 8.44213L14.0318 8.55371C13.7135 8.36567 13.367 8.22046 13 8.12602V7.9685C13.4313 7.85748 13.75 7.46596 13.75 7C13.75 6.44772 13.3023 6 12.75 6H11.25Z" fill="black"/>
<path d="M11.5 12.5C11.5 11.9477 11.9477 11.5 12.5 11.5H12.51C13.0623 11.5 13.51 11.9477 13.51 12.5C13.51 13.0523 13.0623 13.5 12.51 13.5H12.5C11.9477 13.5 11.5 13.0523 11.5 12.5Z" fill="black"/>
</svg>
