<svg width="24" height="24" viewBox="0 0 24 24" fill="none" xmlns="http://www.w3.org/2000/svg">
<path d="M15.2071 3.79289C14.8166 3.40237 14.1834 3.40237 13.7929 3.79289C13.4024 4.18342 13.4024 4.81658 13.7929 5.20711L18.7929 10.2071C19.1834 10.5976 19.8166 10.5976 20.2071 10.2071C20.5976 9.81658 20.5976 9.18342 20.2071 8.79289L18.4142 7L19.5 5.91421L20.2929 6.70711C20.6834 7.09763 21.3166 7.09763 21.7071 6.70711C22.0976 6.31658 22.0976 5.68342 21.7071 5.29289L18.7071 2.29289C18.3166 1.90237 17.6834 1.90237 17.2929 2.29289C16.9024 2.68342 16.9024 3.31658 17.2929 3.70711L18.0858 4.5L17 5.58579L15.2071 3.79289Z" fill="black"/>
<path d="M4.79289 12.7929C4.60536 12.9804 4.5 13.2347 4.5 13.5V18.0858L2.29289 20.2929C1.90237 20.6834 1.90237 21.3166 2.29289 21.7071C2.68342 22.0976 3.31658 22.0976 3.70711 21.7071L5.91422 19.5L10.5 19.5C10.7652 19.5 11.0196 19.3946 11.2071 19.2071L18.9142 11.5L12.5 5.08579L11 6.58578L13.2071 8.79289C13.5976 9.18342 13.5976 9.81658 13.2071 10.2071C12.8166 10.5976 12.1834 10.5976 11.7929 10.2071L9.58578 7.99999L8.49999 9.08578L10.7071 11.2929C11.0976 11.6834 11.0976 12.3166 10.7071 12.7071C10.3166 13.0976 9.68342 13.0976 9.29289 12.7071L7.08577 10.5L4.79289 12.7929Z" fill="black"/>
</svg>
