<svg width="24" height="24" viewBox="0 0 24 24" fill="none" xmlns="http://www.w3.org/2000/svg">
<path d="M4.22587 12.5188C4.0168 12.3097 4.03316 11.9636 4.28116 11.8026C6.21879 10.5448 8.83646 10.7654 10.5355 12.4645C12.2346 14.1635 12.4552 16.7812 11.1974 18.7188C11.0364 18.9668 10.6903 18.9832 10.4812 18.7741L4.22587 12.5188Z" fill="black"/>
<path d="M3.51876 13.2259C3.30969 13.0168 2.96359 13.0332 2.8026 13.2812C1.54477 15.2188 1.76539 17.8365 3.46447 19.5355C5.16354 21.2346 7.78121 21.4552 9.71884 20.1974C9.96684 20.0364 9.9832 19.6903 9.77413 19.4812L3.51876 13.2259Z" fill="black"/>
<path d="M14.2259 4.51876C14.0168 4.30969 14.0332 3.96359 14.2812 3.8026C16.2188 2.54477 18.8365 2.76539 20.5355 4.46447C22.2346 6.16354 22.4552 8.78121 21.1974 10.7188C21.0364 10.9668 20.6903 10.9832 20.4812 10.7741L14.2259 4.51876Z" fill="black"/>
<path d="M13.5188 5.22587C13.3097 5.0168 12.9636 5.03316 12.8026 5.28116C11.5448 7.21879 11.7654 9.83646 13.4645 11.5355C15.1635 13.2346 17.7812 13.4552 19.7188 12.1974C19.9668 12.0364 19.9832 11.6903 19.7741 11.4812L13.5188 5.22587Z" fill="black"/>
</svg>
