<svg width="24" height="24" viewBox="0 0 24 24" fill="none" xmlns="http://www.w3.org/2000/svg">
<path fill-rule="evenodd" clip-rule="evenodd" d="M2 2C1.44772 2 1 2.44772 1 3C1 3.55228 1.44772 4 2 4V18C2 20.2091 3.79086 22 6 22C8.20914 22 10 20.2091 10 18V4C10.5523 4 11 3.55228 11 3C11 2.44772 10.5523 2 10 2H2ZM8 9H4V4H8V9Z" fill="black"/>
<path fill-rule="evenodd" clip-rule="evenodd" d="M14 2C13.4477 2 13 2.44772 13 3C13 3.55228 13.4477 4 14 4V18C14 20.2091 15.7909 22 18 22C20.2091 22 22 20.2091 22 18V4C22.5523 4 23 3.55228 23 3C23 2.44772 22.5523 2 22 2H14ZM20 9H16V4H20V9Z" fill="black"/>
</svg>
