<svg width="24" height="24" viewBox="0 0 24 24" fill="none" xmlns="http://www.w3.org/2000/svg">
<path fill-rule="evenodd" clip-rule="evenodd" d="M3 2C2.44772 2 2 2.44772 2 3C2 3.55228 2.44772 4 3 4V18C3 20.2092 4.79086 22 7 22C8.41426 22 9.6571 21.2661 10.3684 20.1583C9.50845 18.9956 9 17.5572 9 16C9 14.0927 9.76281 12.3636 11 11.101V4C11.5523 4 12 3.55228 12 3C12 2.44772 11.5523 2 11 2H3ZM5 9V4H9V9H5Z" fill="black"/>
<path fill-rule="evenodd" clip-rule="evenodd" d="M15.25 10C14.6977 10 14.25 10.4477 14.25 11C14.25 11.466 14.5687 11.8575 15 11.9685V12.126C14.6329 12.2205 14.2861 12.3658 13.9677 12.554L13.8559 12.4421C14.0823 12.0587 14.0308 11.5565 13.7014 11.227C13.3108 10.8365 12.6777 10.8365 12.2871 11.227L11.2265 12.2876C10.836 12.6782 10.836 13.3113 11.2265 13.7018C11.556 14.0313 12.0582 14.0828 12.4416 13.8563L12.5536 13.9683C12.3656 14.2866 12.2205 14.6331 12.126 15H11.9685C11.8575 14.5687 11.466 14.25 11 14.25C10.4477 14.25 10 14.6977 10 15.25V16.75C10 17.3023 10.4477 17.75 11 17.75C11.466 17.75 11.8575 17.4313 11.9685 17H12.126C12.2204 17.3669 12.3656 17.7134 12.5536 18.0316L12.4416 18.1436C12.0582 17.9171 11.556 17.9686 11.2265 18.2981C10.836 18.6886 10.836 19.3218 11.2265 19.7123L12.2871 20.773C12.6777 21.1635 13.3108 21.1635 13.7014 20.773C14.0308 20.4435 14.0823 19.9413 13.8559 19.5578L13.9677 19.446C14.2861 19.6342 14.6329 19.7795 15 19.874V20.0315C14.5687 20.1425 14.25 20.534 14.25 21C14.25 21.5523 14.6977 22 15.25 22H16.75C17.3023 22 17.75 21.5523 17.75 21C17.75 20.534 17.4313 20.1425 17 20.0315V19.874C17.367 19.7795 17.7135 19.6343 18.0318 19.4463L18.1434 19.5578C17.9169 19.9413 17.9684 20.4435 18.2979 20.773C18.6884 21.1635 19.3216 21.1635 19.7121 20.773L20.7727 19.7123C21.1633 19.3218 21.1633 18.6886 20.7727 18.2981C20.4433 17.9686 19.9411 17.9171 19.5576 18.1436L19.4461 18.0321C19.6342 17.7138 19.7795 17.3671 19.874 17H20.0315C20.1425 17.4313 20.534 17.75 21 17.75C21.5523 17.75 22 17.3023 22 16.75V15.25C22 14.6977 21.5523 14.25 21 14.25C20.534 14.25 20.1425 14.5687 20.0315 15H19.874C19.7795 14.6329 19.6342 14.2862 19.4461 13.9679L19.5576 13.8563C19.9411 14.0828 20.4433 14.0313 20.7727 13.7018C21.1633 13.3113 21.1633 12.6782 20.7727 12.2876L19.7121 11.227C19.3216 10.8365 18.6884 10.8365 18.2979 11.227C17.9684 11.5565 17.9169 12.0587 18.1434 12.4421L18.0318 12.5537C17.7135 12.3657 17.367 12.2205 17 12.126V11.9685C17.4313 11.8575 17.75 11.466 17.75 11C17.75 10.4477 17.3023 10 16.75 10H15.25ZM15.5 16.5C15.5 15.9477 15.9477 15.5 16.5 15.5H16.51C17.0623 15.5 17.51 15.9477 17.51 16.5C17.51 17.0523 17.0623 17.5 16.51 17.5H16.5C15.9477 17.5 15.5 17.0523 15.5 16.5Z" fill="black"/>
</svg>
