<svg width="24" height="24" viewBox="0 0 24 24" fill="none" xmlns="http://www.w3.org/2000/svg">
<path fill-rule="evenodd" clip-rule="evenodd" d="M14.6137 3.37629C14.9217 3.71762 14.9638 4.149 14.9803 4.34096C15.0001 4.57233 15 4.86441 15 5.1713V18.8289C15 19.1358 15.0001 19.4279 14.9803 19.6592C14.9638 19.8512 14.9217 20.2826 14.6137 20.6239C14.2792 20.9947 13.7821 21.1747 13.2877 21.104C12.8326 21.0389 12.5241 20.7345 12.3885 20.5976C12.2252 20.4325 12.0382 20.2081 11.8418 19.9723L9.19129 16.7917C8.80395 16.3269 8.72156 16.2406 8.63878 16.1823C8.54301 16.1149 8.43614 16.0649 8.32306 16.0344C8.2253 16.0081 8.10625 16.0001 7.50121 16.0001L6.56812 16.0001C6.31574 16.0001 6.06994 16.0002 5.86178 15.9832C5.63318 15.9645 5.36345 15.9204 5.09202 15.7821C4.7157 15.5904 4.40974 15.2844 4.21799 14.9081C4.0797 14.6367 4.03563 14.3669 4.01695 14.1383C3.99994 13.9302 3.99997 13.6844 4 13.432L4.00001 10.6001C4.00001 10.5895 4 10.5788 4 10.5682C3.99997 10.3158 3.99994 10.07 4.01695 9.86187C4.03563 9.63328 4.07969 9.36354 4.21799 9.09212C4.40974 8.71579 4.7157 8.40983 5.09202 8.21809C5.36345 8.07979 5.63318 8.03572 5.86178 8.01704C6.06993 8.00004 6.31572 8.00007 6.56811 8.0001C6.57873 8.0001 6.58936 8.0001 6.60001 8.0001H7.50121C8.10625 8.0001 8.2253 7.99206 8.32306 7.96576C8.43614 7.93534 8.54301 7.88528 8.63878 7.81789C8.72156 7.75963 8.80395 7.67331 9.19129 7.2085L11.8418 4.02787C12.0383 3.79209 12.2252 3.56769 12.3886 3.40263C12.5241 3.26568 12.8326 2.96128 13.2877 2.89622C13.7821 2.82555 14.2792 3.00552 14.6137 3.37629ZM17.3994 8.20053C17.841 7.86884 18.4679 7.95793 18.7996 8.39952C19.5529 9.40241 19.9996 10.6505 19.9996 12.0001C19.9996 13.3497 19.5529 14.5978 18.7996 15.6007C18.4679 16.0423 17.841 16.1314 17.3994 15.7997C16.9578 15.468 16.8687 14.8411 17.2004 14.3995C17.7025 13.7311 17.9996 12.9017 17.9996 12.0001C17.9996 11.0985 17.7025 10.2691 17.2004 9.60068C16.8687 9.15909 16.9578 8.53222 17.3994 8.20053Z" fill="black"/>
</svg>
