<svg width="24" height="24" viewBox="0 0 24 24" fill="none" xmlns="http://www.w3.org/2000/svg">
<path opacity="0.14" fill-rule="evenodd" clip-rule="evenodd" d="M20.029 16.0222C19.8786 16.3163 19.7105 16.6051 19.5244 16.8873C19.3383 17.1695 19.1391 17.4378 18.9281 17.6919L16.4377 17.4142C15.7715 17.9608 15.0027 18.3869 14.1645 18.6592L13.0002 20.945C12.6719 20.9813 12.3382 21 12.0002 21C11.6622 21 11.3285 20.9813 11.0002 20.945L9.83293 18.6582C8.99428 18.3854 8.22514 17.9585 7.5589 17.4111L5.05407 17.6915C4.84303 17.4374 4.64381 17.1691 4.45774 16.8869C4.27168 16.6047 4.10356 16.3159 3.95312 16.0218L5.22637 13.7814C5.07803 13.2142 5.00021 12.6139 5.00021 12.0002C5.00021 11.3749 5.08219 10.7688 5.23599 10.192L3.95351 7.936C4.10394 7.64191 4.27206 7.3531 4.45812 7.07091C4.64419 6.78873 4.84341 6.52043 5.05445 6.2663L7.60942 6.55327C8.26776 6.02075 9.01239 5.60695 9.83614 5.33996L11 3.05493C11.3283 3.01863 11.662 3 12 3C12.338 3 12.6716 3.01863 13 3.05493L14.1638 5.33996C14.9882 5.60716 15.7389 6.01764 16.3976 6.55077L18.9275 6.26661C19.1385 6.52074 19.3377 6.78904 19.5238 7.07123C19.7098 7.35341 19.878 7.64223 20.0284 7.93632L18.7594 10.1732C18.9164 10.7556 19.0002 11.3681 19.0002 12.0002C19.0002 12.6215 18.9149 13.2209 18.763 13.7944L20.029 16.0222ZM12 15C13.6569 15 15 13.6569 15 12C15 10.3431 13.6569 9 12 9C10.3431 9 9 10.3431 9 12C9 13.6569 10.3431 15 12 15Z" fill="black"/>
<path d="M18.763 13.7942L20.029 16.022C19.8786 16.316 19.7105 16.6049 19.5244 16.887C19.3383 17.1692 19.1391 17.4375 18.9281 17.6917L16.4377 17.414C15.7715 17.9606 15.0027 18.3867 14.1645 18.6589L13.0002 20.9448C12.6719 20.9811 12.3382 20.9997 12.0002 20.9997C11.6622 20.9997 11.3285 20.9811 11.0002 20.9448L9.83293 18.658C8.99428 18.3852 8.22514 17.9583 7.5589 17.4108L5.05407 17.6913C4.84303 17.4371 4.64381 17.1688 4.45774 16.8867C4.27168 16.6045 4.10356 16.3157 3.95312 16.0216L5.22637 13.7811C5.07803 13.2139 5.00021 12.6136 5.00021 11.9999C5.00021 11.3747 5.08219 10.7685 5.23599 10.1917L3.95351 7.93576C4.10394 7.64167 4.27206 7.35286 4.45812 7.07067C4.64419 6.78848 4.84341 6.52019 5.05445 6.26605L7.60942 6.55303C8.26776 6.02051 9.01625 5.60658 9.84 5.3396M9.83614 5.33972L11 3.05468C11.3283 3.01839 11.662 2.99976 12 2.99976C12.338 2.99976 12.6716 3.01839 13 3.05468L14.1638 5.33972C14.9882 5.60692 15.7389 6.01739 16.3976 6.55053L18.9275 6.26637C19.1385 6.5205 19.3377 6.78879 19.5238 7.07098C19.7098 7.35317 19.878 7.64198 20.0284 7.93607L18.7592 10.1694M18.7594 10.1729C18.9164 10.7554 19.0002 11.3679 19.0002 11.9999C19.0002 12.6212 18.9193 13.2237 18.7673 13.7972M15.0002 11.9999C15.0002 13.6568 13.6571 14.9999 12.0002 14.9999C10.3433 14.9999 9.0002 13.6568 9.0002 11.9999C9.0002 10.3431 10.3433 8.99991 12.0002 8.99991C13.6571 8.99991 15.0002 10.3431 15.0002 11.9999Z" stroke="black" stroke-width="2" stroke-linecap="round" stroke-linejoin="round"/>
</svg>
