<svg width="24" height="24" viewBox="0 0 24 24" fill="none" xmlns="http://www.w3.org/2000/svg">
<path fill-rule="evenodd" clip-rule="evenodd" d="M15.2929 3.2932C16.788 1.7981 19.212 1.7981 20.7071 3.29319C22.2022 4.78829 22.2022 7.21231 20.7071 8.70741L17.9143 11.5003L18.7071 12.2931C19.0976 12.6837 19.0976 13.3168 18.7071 13.7074C18.3166 14.0979 17.6834 14.0979 17.2929 13.7074L10.2929 6.70735C9.90237 6.31683 9.90237 5.68366 10.2929 5.29314C10.6834 4.90261 11.3166 4.90261 11.7071 5.29314L12.5 6.08607L15.2929 3.2932Z" fill="black"/>
<path d="M13.6859 12.9002L15.1001 14.3144L11.041 18.3736C10.5922 18.8228 10.2531 19.1622 9.84737 19.4109C9.48948 19.6302 9.0993 19.7918 8.69116 19.8898C8.22846 20.0009 7.74866 20.0006 7.11366 20.0003L6.30279 20.0003L3.55472 21.8324C3.15809 22.0968 2.62997 22.0445 2.29291 21.7074C1.95585 21.3703 1.90355 20.8422 2.16797 20.4456L4.00002 17.6975L3.99998 16.8866C3.99968 16.2516 3.99945 15.7719 4.11054 15.3092C4.20852 14.901 4.37014 14.5108 4.58946 14.1529C4.83808 13.7472 5.17752 13.4081 5.62673 12.9593L9.68592 8.90018L11.1001 10.3144L7.11301 14.3015C6.5605 14.854 6.40404 15.0196 6.29474 15.1979C6.18508 15.3769 6.10427 15.572 6.05528 15.7761C6.00644 15.9795 6.00002 16.2072 6.00002 16.9885V18.0003H7.01179C7.79316 18.0003 8.02086 17.9939 8.22427 17.945C8.42834 17.896 8.62343 17.8152 8.80237 17.7056C8.98073 17.5963 9.14628 17.4398 9.6988 16.8873L13.6859 12.9002Z" fill="black"/>
</svg>
