<svg width="24" height="24" viewBox="0 0 24 24" fill="none" xmlns="http://www.w3.org/2000/svg">
<path fill-rule="evenodd" clip-rule="evenodd" d="M5.48051 5.01038C5.0374 5.08578 4.36704 5.62721 3.92415 6.69648C3.7128 7.20673 3.12784 7.44904 2.61759 7.2377C2.10734 7.02635 1.86503 6.44139 2.07638 5.93114C2.63349 4.5861 3.71314 3.28235 5.14504 3.03872C5.90755 2.90898 6.67413 3.10506 7.34406 3.63062C7.98874 4.13636 8.51282 4.91905 8.92666 5.93723C9.14103 6.46463 9.30431 6.99375 9.41994 7.5212L11.6209 6.61872C11.9515 6.48317 12.3293 6.5343 12.6119 6.75285C12.8946 6.9714 13.0392 7.32416 12.9912 7.67822L12.6449 10.2343H14.0003C14.5525 10.2343 15.0003 10.6821 15.0003 11.2343C15.0003 11.7866 14.5525 12.2343 14.0003 12.2343H11.5003C11.2116 12.2343 10.9371 12.1096 10.7472 11.8923C10.5573 11.6749 10.4706 11.3861 10.5093 11.1001L10.7767 9.12647L9.63673 9.59392C9.60447 13.7335 6.8191 17.3397 3.41913 18.9081C3.1095 19.0509 2.74843 19.0261 2.46122 18.8423C2.17401 18.6585 2.00026 18.341 2.00026 18.0001C2.00026 17.4822 2.00049 16.9643 2.00071 16.4464C2.00118 15.3795 2.00164 14.3127 2.00014 13.2458C1.99923 12.6057 1.99844 12.0434 2.1868 11.5345C2.35164 11.0892 2.61985 10.6893 2.96936 10.3678C3.36875 10.0005 3.88935 9.78788 4.48189 9.54588C5.17023 9.26477 5.85806 8.98239 6.54588 8.70002L7.53349 8.29473C7.44358 7.76572 7.29298 7.2294 7.07386 6.69031C6.73773 5.86332 6.38681 5.42165 6.10962 5.20419C5.85768 5.00655 5.65551 4.98061 5.48051 5.01038ZM7.57804 10.4381L5.36561 11.3453C4.57498 11.6695 4.42343 11.7478 4.32329 11.8399C4.20679 11.947 4.11739 12.0803 4.06244 12.2288C4.01522 12.3563 4.00026 12.5263 4.00026 13.3808V16.2609C5.87567 14.9087 7.28016 12.7864 7.57804 10.4381Z" fill="black"/>
<path fill-rule="evenodd" clip-rule="evenodd" d="M15.0002 16.0001C15.0002 14.3432 16.3434 13.0001 18.0002 13.0001C19.6571 13.0001 21.0002 14.3432 21.0002 16.0001V16.268C21.3794 16.4869 21.6786 16.8257 21.848 17.2347C21.945 17.4687 21.9754 17.6945 21.9884 17.8848C22.0003 18.0589 22.0003 18.2635 22.0002 18.4736V18.5265C22.0003 18.7366 22.0003 18.9412 21.9884 19.1153C21.9754 19.3057 21.945 19.5314 21.848 19.7654C21.645 20.2555 21.2557 20.6448 20.7656 20.8478C20.5316 20.9448 20.3058 20.9752 20.1155 20.9882C19.9414 21.0001 19.7368 21.0001 19.5267 21.0001H16.4738C16.2637 21.0001 16.0591 21.0001 15.885 20.9882C15.6946 20.9752 15.4689 20.9448 15.2349 20.8478C14.7448 20.6448 14.3555 20.2555 14.1525 19.7654C14.0555 19.5314 14.0251 19.3057 14.0121 19.1153C14.0002 18.9412 14.0002 18.7366 14.0002 18.5266V18.4736C14.0002 18.2636 14.0002 18.0589 14.0121 17.8848C14.0251 17.6945 14.0555 17.4687 14.1525 17.2347C14.3219 16.8257 14.6211 16.4869 15.0002 16.268V16.0001ZM19.0002 16.0001C19.0002 15.4478 18.5525 15.0001 18.0002 15.0001C17.448 15.0001 17.0002 15.4478 17.0002 16.0001L19.0002 16.0001Z" fill="black"/>
<path d="M10.5002 14.0001C9.94796 14.0001 9.50024 14.4478 9.50024 15.0001C9.50024 15.5523 9.94796 16.0001 10.5002 16.0001H12.5002C13.0525 16.0001 13.5002 15.5523 13.5002 15.0001C13.5002 14.4478 13.0525 14.0001 12.5002 14.0001H10.5002Z" fill="black"/>
</svg>
