<svg width="24" height="24" viewBox="0 0 24 24" fill="none" xmlns="http://www.w3.org/2000/svg">
<path d="M20 10.9995V7.19951C20 6.07941 20 5.51935 19.782 5.09153C19.5903 4.71521 19.2843 4.40925 18.908 4.2175C18.4802 3.99951 17.9201 3.99951 16.8 3.99951H7.2C6.0799 3.99951 5.51984 3.99951 5.09202 4.2175C4.71569 4.40925 4.40973 4.71521 4.21799 5.09153C4 5.51935 4 6.07941 4 7.19951V16.7995C4 17.9196 4 18.4797 4.21799 18.9075C4.40973 19.2838 4.71569 19.5898 5.09202 19.7815C5.51984 19.9995 6.0799 19.9995 7.2 19.9995H11M9.12109 13.0001H14.8823M8 16.0001L10.2708 9.7555C10.8037 8.29001 11.0701 7.55727 11.46 7.34992C11.7976 7.17036 12.2024 7.17036 12.54 7.34992C12.9299 7.55727 13.1963 8.29002 13.7292 9.7555L14.9091 13.0001M20 18.004V17.0001C20 15.8956 19.1046 15.0001 18 15.0001C16.8954 15.0001 16 15.8956 16 17.0002V18.004M16.5 21.0001H19.5C19.9659 21.0001 20.1989 21.0002 20.3827 20.924C20.6277 20.8225 20.8224 20.6279 20.9239 20.3828C21 20.1991 21 19.9661 21 19.5001C21 19.0342 21 18.8012 20.9239 18.6175C20.8224 18.3724 20.6277 18.1778 20.3827 18.0763C20.1989 18.0001 19.9659 18.0001 19.5 18.0001H16.5C16.0341 18.0001 15.8011 18.0001 15.6173 18.0763C15.3723 18.1778 15.1776 18.3724 15.0761 18.6175C15 18.8012 15 19.0342 15 19.5001C15 19.9661 15 20.1991 15.0761 20.3828C15.1776 20.6279 15.3723 20.8225 15.6173 20.924C15.8011 21.0002 16.0341 21.0001 16.5 21.0001Z" stroke="black" stroke-width="2" stroke-linecap="round" stroke-linejoin="round"/>
<path opacity="0.14" d="M4.21799 5.09202C4 5.51984 4 6.0799 4 7.2V16.8C4 17.9201 4 18.4802 4.21799 18.908C4.40973 19.2843 4.71569 19.5903 5.09202 19.782C5.51984 20 6.0799 20 7.2 20H15.0067C15 19.8687 15 19.7074 15 19.5C15 19.0341 15 18.8011 15.0761 18.6173C15.1776 18.3723 15.3723 18.1776 15.6173 18.0761C15.7193 18.0339 15.8364 18.0151 16 18.0067V17C16 15.8954 16.8954 15 18 15C19.1003 15 19.993 15.8884 20 16.9871C20 16.9265 20 16.8642 20 16.8V7.2C20 6.0799 20 5.51984 19.782 5.09202C19.5903 4.71569 19.2843 4.40973 18.908 4.21799C18.4802 4 17.9201 4 16.8 4H7.2C6.0799 4 5.51984 4 5.09202 4.21799C4.71569 4.40973 4.40973 4.71569 4.21799 5.09202Z" fill="black"/>
</svg>
