<svg width="24" height="24" viewBox="0 0 24 24" fill="none" xmlns="http://www.w3.org/2000/svg">
<path opacity="0.3" fill-rule="evenodd" clip-rule="evenodd" d="M1.198 12.4159C1.13973 12.1417 1.13973 11.8584 1.198 11.5842C1.26539 11.2672 1.42944 10.9854 1.5599 10.7613C1.57208 10.7403 1.58397 10.7199 1.59545 10.7L5.67169 3.63978C5.68318 3.61989 5.69491 3.59939 5.70694 3.57839C5.83579 3.35336 5.99782 3.07037 6.23869 2.85349C6.44697 2.66595 6.69235 2.52428 6.95891 2.43767C7.26716 2.33751 7.59325 2.33868 7.85256 2.33961C7.87676 2.33969 7.90038 2.33978 7.92336 2.33978H16.0758C16.0988 2.33978 16.1224 2.33969 16.1466 2.33961C16.4059 2.33868 16.732 2.33751 17.0403 2.43767C17.3068 2.52428 17.5522 2.66595 17.7605 2.85349C18.0014 3.07036 18.1634 3.35335 18.2922 3.57838C18.3043 3.59938 18.316 3.61988 18.3275 3.63978L22.4037 10.7C22.4152 10.7199 22.4271 10.7403 22.4393 10.7612C22.5697 10.9854 22.7338 11.2672 22.8012 11.5842C22.8595 11.8584 22.8595 12.1417 22.8012 12.4159C22.7338 12.7329 22.5697 13.0147 22.4393 13.2388C22.4271 13.2597 22.4152 13.2801 22.4037 13.3L18.3275 20.3603C18.316 20.3802 18.3043 20.4007 18.2922 20.4217C18.1634 20.6467 18.0014 20.9297 17.7605 21.1466C17.5522 21.3341 17.3068 21.4758 17.0403 21.5624C16.732 21.6626 16.4059 21.6614 16.1466 21.6605C16.1224 21.6604 16.0988 21.6603 16.0758 21.6603H7.92336C7.90038 21.6603 7.87676 21.6604 7.85256 21.6605C7.59325 21.6614 7.26716 21.6626 6.95891 21.5624C6.69235 21.4758 6.44697 21.3341 6.23869 21.1466C5.99782 20.9297 5.83579 20.6467 5.70694 20.4217C5.69492 20.4007 5.68318 20.3802 5.67169 20.3603L1.59545 13.3C1.58397 13.2801 1.57208 13.2597 1.5599 13.2388C1.42944 13.0147 1.26539 12.7329 1.198 12.4159Z" fill="black"/>
<path d="M12.9999 8.5C12.9999 7.67157 13.6715 7 14.4999 7C15.3283 7 15.9999 7.67158 15.9999 8.5C15.9999 9.32842 15.3283 10 14.4999 10C13.6715 10 12.9999 9.32843 12.9999 8.5Z" fill="black"/>
<path d="M4.51758 14.3592L7.40491 19.3602C7.49478 19.5159 7.54105 19.5952 7.57773 19.6509L7.58083 19.6555L7.58641 19.6559C7.65293 19.6598 7.74477 19.6602 7.92452 19.6602H16.077C16.2568 19.6602 16.3486 19.6598 16.4151 19.6559L16.4207 19.6555L16.4238 19.6509C16.4605 19.5952 16.5067 19.5159 16.5966 19.3602L18.6795 15.7526L17.8692 14.933L17.8421 14.9053C17.471 14.5248 17.151 14.1968 16.8655 13.9484C16.5643 13.6863 16.2363 13.4533 15.8312 13.3172C15.2271 13.1144 14.5742 13.1092 13.967 13.3023C13.5597 13.4319 13.2281 13.6597 12.9227 13.9169C12.716 14.091 12.4912 14.3053 12.2422 14.55L11.2332 13.5373C10.86 13.1627 10.5381 12.8396 10.2512 12.5952C9.94855 12.3374 9.61961 12.1086 9.21488 11.9768C8.61124 11.7801 7.96075 11.78 7.35703 11.9764C6.95226 12.1082 6.62323 12.3368 6.32045 12.5945C6.03353 12.8388 5.71153 13.1617 5.3382 13.5362L4.51758 14.3592Z" fill="black"/>
</svg>
