<svg width="24" height="24" viewBox="0 0 24 24" fill="none" xmlns="http://www.w3.org/2000/svg">
<path opacity="0.3" d="M9.93718 8.92075C9.44552 8.72986 8.89836 8.7409 8.4148 8.95148C8.04966 9.11048 7.80209 9.37863 7.62361 9.60632C7.453 9.82397 7.27028 10.1064 7.07358 10.4105L3.4178 16.0603C3.32321 16.2061 3.22847 16.3524 3.16024 16.5128C3.10027 16.6538 3.0567 16.8013 3.0304 16.9522C3.00048 17.124 3.0005 17.2983 3.00068 17.4721L3 19.9998C2.99993 20.2651 3.10525 20.5195 3.2928 20.7071C3.48034 20.8947 3.73474 21.0001 4 21.0001H18.8866L11.3362 10.3244C11.1274 10.0286 10.9334 9.75373 10.7541 9.54314C10.5666 9.32284 10.3084 9.0649 9.93718 8.92075Z" fill="black"/>
<path d="M18.0005 3C16.3436 3 15.0005 4.34315 15.0005 6C15.0005 7.65685 16.3436 9 18.0005 9C19.6573 9 21.0005 7.65685 21.0005 6C21.0005 4.34315 19.6573 3 18.0005 3Z" fill="black"/>
<path d="M18.8871 21H20.0012C20.5535 21 21.0012 20.5523 21.0012 20L21.0012 17.4604C21.0015 17.2908 21.0015 17.1208 20.973 16.9531C20.948 16.8056 20.9065 16.6614 20.8493 16.5232C20.7843 16.366 20.6939 16.222 20.6036 16.0785L19.6126 14.4991C19.2069 13.8525 18.8665 13.31 18.556 12.9024C18.2379 12.4849 17.8688 12.0943 17.3631 11.8682C16.6356 11.5429 15.8086 11.5204 15.0645 11.8057C14.5473 12.0041 14.1575 12.374 13.8172 12.7737C13.6914 12.9215 13.5602 13.0884 13.4219 13.2726L18.8871 21Z" fill="black"/>
</svg>
