<svg width="24" height="24" viewBox="0 0 24 24" fill="none" xmlns="http://www.w3.org/2000/svg">
<path fill-rule="evenodd" clip-rule="evenodd" d="M14.7324 2.03649C15.2645 1.88868 15.8157 2.20023 15.9635 2.73237L16.0379 3.00001H18C18.5523 3.00001 19 3.44772 19 4.00001C19 4.55229 18.5523 5.00001 18 5.00001H16.5934L17.9823 10H20C20.5523 10 21 10.4477 21 11C21 11.5523 20.5523 12 20 12H18.5379L19.9268 17H21C21.5523 17 22 17.4477 22 18C22 18.5523 21.5523 19 21 19H20.4823L20.9635 20.7324C21.1113 21.2645 20.7998 21.8157 20.2676 21.9635C19.7355 22.1113 19.1843 21.7998 19.0365 21.2677L18.4066 19L5.59353 19L4.9636 21.2677C4.81578 21.7998 4.26457 22.1114 3.73244 21.9635C3.2003 21.8157 2.88875 21.2645 3.03657 20.7324L3.5178 19H3C2.44772 19 2 18.5523 2 18C2 17.4477 2.44772 17 3 17H4.07336L5.46229 12H4C3.44772 12 3 11.5523 3 11C3 10.4477 3.44772 10 4 10H6.01786L7.40678 5.00001H6C5.44772 5.00001 5 4.55229 5 4.00001C5 3.44772 5.44772 3.00001 6 3.00001H7.96235L8.03668 2.73241C8.1845 2.20027 8.73571 1.88872 9.26785 2.03654C9.71062 2.15954 10.0007 2.56182 10.0005 3.00001H13.9997C13.9995 2.5618 14.2896 2.15949 14.7324 2.03649ZM14.5177 5.00001H9.48251L8.09359 10H15.9066L14.5177 5.00001ZM16.4621 12H7.53802L6.1491 17L17.851 17L16.4621 12Z" fill="black"/>
</svg>
