<svg width="24" height="24" viewBox="0 0 24 24" fill="none" xmlns="http://www.w3.org/2000/svg">
<path fill-rule="evenodd" clip-rule="evenodd" d="M17.1496 6.0493C17.0343 6.01167 16.8871 5.99995 16.143 5.99995H15V10.9999H20.2768L18.0531 7.10844C17.6839 6.46232 17.6007 6.34033 17.5108 6.25889C17.4065 6.1644 17.2834 6.09297 17.1496 6.0493ZM3 10.9999H7V5.99995H5.2C4.62345 5.99995 4.25117 6.00073 3.96784 6.02387C3.69617 6.04607 3.59546 6.08375 3.54601 6.10894C3.35785 6.20481 3.20487 6.3578 3.109 6.54596C3.0838 6.5954 3.04612 6.69612 3.02393 6.96778C3.00078 7.25112 3 7.62339 3 8.19995V10.9999ZM5.16146 3.99995C4.63431 3.99993 4.17955 3.99991 3.80497 4.03052C3.40963 4.06282 3.01641 4.13413 2.63803 4.32693C2.07354 4.61455 1.6146 5.07349 1.32698 5.63798C1.13419 6.01636 1.06287 6.40957 1.03057 6.80492C0.999967 7.17949 0.999983 7.63425 1 8.1614L1 14.9999C1 16.3537 1.89669 17.4981 3.12854 17.8714C3.5019 19.1033 4.64623 19.9999 6 19.9999C7.30622 19.9999 8.41746 19.1651 8.8293 17.9999H15.1707C15.5825 19.1651 16.6938 19.9999 18 19.9999C19.3538 19.9999 20.4981 19.1033 20.8715 17.8714C22.1033 17.4981 23 16.3537 23 14.9999V12.8498C23 12.8318 23 12.814 23 12.7964C23.0002 12.5322 23.0003 12.2991 22.9637 12.0657C22.9315 11.8604 22.878 11.659 22.8041 11.4647C22.7201 11.2439 22.6043 11.0416 22.4731 10.8123C22.4643 10.797 22.4555 10.7815 22.4466 10.766L19.7896 6.11616C19.7701 6.08209 19.7509 6.04827 19.7317 6.01474C19.4546 5.5283 19.2107 5.10026 18.8537 4.77678C18.5408 4.49329 18.1716 4.27903 17.7702 4.14802C17.3122 3.99853 16.8196 3.99915 16.2597 3.99985C16.2211 3.9999 16.1822 3.99995 16.143 3.99995L5.16146 3.99995ZM9 5.99995V10.9999H13V5.99995H9ZM6 15.9999C5.44772 15.9999 5 16.4477 5 16.9999C5 17.5522 5.44772 17.9999 6 17.9999C6.55229 17.9999 7 17.5522 7 16.9999C7 16.4477 6.55229 15.9999 6 15.9999ZM18 15.9999C17.4477 15.9999 17 16.4477 17 16.9999C17 17.5522 17.4477 17.9999 18 17.9999C18.5523 17.9999 19 17.5522 19 16.9999C19 16.4477 18.5523 15.9999 18 15.9999Z" fill="black"/>
</svg>
