<svg width="24" height="24" viewBox="0 0 24 24" fill="none" xmlns="http://www.w3.org/2000/svg">
<path opacity="0.3" fill-rule="evenodd" clip-rule="evenodd" d="M7.32159 5.1171C8.32966 3.29155 10.3194 2 12.6127 2C15.5626 2 18.0685 4.06975 18.5317 6.85019C20.0163 7.71575 21 9.36366 21 11.1402C21 13.8575 18.7275 16 16 16L8.8 16C5.64015 16 3 13.5413 3 10.4137C3 7.95928 4.74492 5.75122 7.32159 5.1171Z" fill="black"/>
<path d="M6.55481 17.1681C7.01434 17.4744 7.13851 18.0953 6.83216 18.5548L4.83216 21.5548C4.5258 22.0143 3.90493 22.1385 3.44541 21.8322C2.98588 21.5258 2.8617 20.9049 3.16806 20.4454L5.16806 17.4454C5.47441 16.9859 6.09528 16.8617 6.55481 17.1681Z" fill="black"/>
<path d="M15.0548 17.1681C15.5143 17.4744 15.6385 18.0953 15.3322 18.5548L13.3322 21.5548C13.0258 22.0143 12.4049 22.1385 11.9454 21.8322C11.4859 21.5258 11.3617 20.9049 11.6681 20.4454L13.6681 17.4454C13.9744 16.9859 14.5953 16.8617 15.0548 17.1681Z" fill="black"/>
<path d="M9.50011 17.0001C10.0524 17.0001 10.5001 17.4478 10.5001 18.0001C11.0524 18.0001 11.5001 18.4478 11.5001 19.0001C11.5001 19.5524 11.0524 20.0001 10.5001 20.0001C10.5001 20.5524 10.0524 21.0001 9.50011 21.0001C8.94782 21.0001 8.50011 20.5524 8.50011 20.0001C7.94782 20.0001 7.50011 19.5524 7.50011 19.0001C7.50011 18.4478 7.94782 18.0001 8.50011 18.0001C8.50011 17.4478 8.94782 17.0001 9.50011 17.0001Z" fill="black"/>
<path d="M18.0001 17.0001C18.5524 17.0001 19.0001 17.4478 19.0001 18.0001C19.5524 18.0001 20.0001 18.4478 20.0001 19.0001C20.0001 19.5524 19.5524 20.0001 19.0001 20.0001C19.0001 20.5524 18.5524 21.0001 18.0001 21.0001C17.4478 21.0001 17.0001 20.5524 17.0001 20.0001C16.4478 20.0001 16.0001 19.5524 16.0001 19.0001C16.0001 18.4478 16.4478 18.0001 17.0001 18.0001C17.0001 17.4478 17.4478 17.0001 18.0001 17.0001Z" fill="black"/>
</svg>
