<svg width="24" height="24" viewBox="0 0 24 24" fill="none" xmlns="http://www.w3.org/2000/svg">
<path opacity="0.3" d="M5.31981 2.93C7.07541 2.3448 9.43715 2 12 2C14.5629 2 16.9246 2.3448 18.6802 2.93C19.5528 3.22085 20.331 3.58923 20.9117 4.04685C21.4811 4.49559 22 5.14805 22 6C22 6.85195 21.4811 7.50441 20.9117 7.95315C20.331 8.41077 19.5528 8.77915 18.6802 9.07C16.9246 9.6552 14.5629 10 12 10C9.43715 10 7.07541 9.6552 5.31981 9.07C4.44724 8.77915 3.66896 8.41077 3.08829 7.95315C2.51889 7.50441 2 6.85195 2 6C2 5.14805 2.51889 4.49559 3.08829 4.04685C3.66896 3.58923 4.44724 3.22085 5.31981 2.93Z" fill="black"/>
<path fill-rule="evenodd" clip-rule="evenodd" d="M4.03963 11.7856C4.19308 11.2551 4.74757 10.9494 5.27811 11.1029C7.23993 11.6703 9.53659 12 12.0003 12C14.4639 12 16.7606 11.6703 18.7224 11.1029C19.253 10.9494 19.8074 11.2551 19.9609 11.7856C20.1143 12.3162 19.8086 12.8707 19.2781 13.0241C17.1215 13.6479 14.6366 14 12.0003 14C9.36391 14 6.87901 13.6479 4.72241 13.0241C4.19187 12.8707 3.88618 12.3162 4.03963 11.7856ZM5.0228 16.1629C5.1394 15.6231 5.67155 15.28 6.21139 15.3966C8.01712 15.7866 9.96581 16 12.0003 16C14.0347 16 15.9834 15.7866 17.7891 15.3966C18.329 15.28 18.8611 15.6231 18.9777 16.1629C19.0943 16.7028 18.7512 17.2349 18.2114 17.3515C16.2638 17.7722 14.1734 18 12.0003 18C9.82709 18 7.73675 17.7722 5.78913 17.3515C5.2493 17.2349 4.9062 16.7028 5.0228 16.1629ZM7.01427 20.5002C7.10639 19.9556 7.62251 19.5889 8.16706 19.681C9.40147 19.8898 10.6839 20 12.0003 20C13.3167 20 14.5991 19.8898 15.8335 19.681C16.378 19.5889 16.8941 19.9556 16.9863 20.5002C17.0784 21.0447 16.7116 21.5608 16.1671 21.653C14.8222 21.8805 13.4282 22 12.0003 22C10.5723 22 9.17834 21.8805 7.83347 21.653C7.28892 21.5608 6.92215 21.0447 7.01427 20.5002Z" fill="black"/>
</svg>
