<svg width="24" height="24" viewBox="0 0 24 24" fill="none" xmlns="http://www.w3.org/2000/svg">
<g opacity="0.3">
<path d="M13.4768 2.91934C13.3577 2.70518 13.1409 2.35221 12.7424 2.15427C11.8821 1.72693 10.9659 2.12189 10.5221 2.91934L10.1061 3.79821C10.1061 3.79821 9.69739 4.79785 9.44318 5.26851L9.43806 5.2779L9.4276 5.27567C9.32728 5.25382 9.19092 5.21363 8.93722 5.13752L7.22793 4.62473C6.94015 4.53836 6.66214 4.45492 6.42996 4.40779C6.19995 4.36111 5.83124 4.30666 5.44911 4.45213C4.98726 4.62795 4.62699 4.9993 4.46524 5.46627C4.33141 5.85262 4.397 6.21952 4.45063 6.448C4.50476 6.67864 4.59659 6.954 4.69164 7.23902L5.25981 8.94354L4.54824 9.2485C4.26126 9.37145 3.98624 9.48927 3.77246 9.6049C3.56344 9.71796 3.23591 9.91732 3.03503 10.2845C2.79406 10.7249 2.76401 11.2504 2.9532 11.7154C2.99631 11.8213 3.05026 11.9159 3.10987 12.0002H8.12547C8.0432 11.6806 7.99945 11.3455 7.99945 11.0002C7.99945 8.79111 9.79031 7.00024 11.9995 7.00024C14.2086 7.00024 15.9995 8.79111 15.9995 11.0002C15.9995 11.3455 15.9557 11.6806 15.8734 12.0002H20.8891C20.9487 11.9159 21.0026 11.8213 21.0457 11.7154C21.2349 11.2504 21.2049 10.7249 20.9639 10.2845C20.763 9.91732 20.4355 9.71795 20.2265 9.6049C20.0127 9.48928 19.7377 9.37147 19.4507 9.24852L18.7391 8.94354L19.3073 7.23903C19.4023 6.954 19.4942 6.67865 19.5483 6.44801C19.6019 6.21952 19.6675 5.85262 19.5337 5.46627C19.3719 4.9993 19.0117 4.62795 18.5498 4.45213C18.1677 4.30666 17.799 4.36111 17.569 4.40779C17.3368 4.45491 17.0588 4.53836 16.771 4.62473L15.0617 5.13752C14.808 5.21363 14.6717 5.25382 14.5713 5.27567L14.5609 5.2779L14.5558 5.26851C14.507 5.17818 14.4486 5.04855 14.341 4.80651L13.8765 3.76123C13.7356 3.44421 13.6036 3.14713 13.4768 2.91934Z" fill="black"/>
<path d="M9.99945 11.0002C9.99945 11.3645 10.0968 11.7061 10.267 12.0002H13.7319C13.9021 11.7061 13.9995 11.3645 13.9995 11.0002C13.9995 9.89567 13.104 9.00024 11.9995 9.00024C10.8949 9.00024 9.99945 9.89567 9.99945 11.0002Z" fill="black"/>
</g>
<path d="M5 14C4.44772 14 4 14.4477 4 15C4 15.5523 4.44772 16 5 16H13C13.5523 16 14 15.5523 14 15C14 14.4477 13.5523 14 13 14H5Z" fill="black"/>
<path d="M17 14C16.4477 14 16 14.4477 16 15C16 15.5523 16.4477 16 17 16H21C21.5523 16 22 15.5523 22 15C22 14.4477 21.5523 14 21 14H17Z" fill="black"/>
<path d="M3 17C2.44772 17 2 17.4477 2 18C2 18.5523 2.44772 19 3 19H19C19.5523 19 20 18.5523 20 18C20 17.4477 19.5523 17 19 17H3Z" fill="black"/>
<path d="M5 20C4.44772 20 4 20.4477 4 21C4 21.5523 4.44772 22 5 22H9C9.55228 22 10 21.5523 10 21C10 20.4477 9.55228 20 9 20H5Z" fill="black"/>
<path d="M13 20C12.4477 20 12 20.4477 12 21C12 21.5523 12.4477 22 13 22H21C21.5523 22 22 21.5523 22 21C22 20.4477 21.5523 20 21 20H13Z" fill="black"/>
</svg>
