<svg width="24" height="24" viewBox="0 0 24 24" fill="none" xmlns="http://www.w3.org/2000/svg">
<path d="M9.89306 3.69112C10.0417 3.3194 9.95431 2.89486 9.67095 2.61206C9.3876 2.32926 8.9629 2.2427 8.59147 2.39205C4.91719 3.86945 2.32031 7.46696 2.32031 11.6734C2.32031 17.1962 6.79746 21.6734 12.3203 21.6734C16.5298 21.6734 20.1295 19.0727 21.6049 15.3942C21.754 15.0225 21.6669 14.5977 21.3836 14.3146C21.1004 14.0315 20.6755 13.9447 20.3039 14.094C19.3811 14.4649 18.373 14.6733 17.3203 14.6733C12.902 14.6733 9.32031 11.0916 9.32031 6.67332C9.32031 5.62345 9.52626 4.60848 9.89306 3.69112Z" fill="black"/>
</svg>
