<svg width="24" height="24" viewBox="0 0 24 24" fill="none" xmlns="http://www.w3.org/2000/svg">
<path fill-rule="evenodd" clip-rule="evenodd" d="M2 4C2 3.44772 2.44772 3 3 3H21C21.5523 3 22 3.44772 22 4V20C22 20.5523 21.5523 21 21 21H3C2.44772 21 2 20.5523 2 20V4ZM17.5 19H20V11H17.5V16C18.0523 16 18.5 16.4477 18.5 17C18.5 17.5523 18.0523 18 17.5 18V19ZM13 11H15.5V16C14.9477 16 14.5 16.4477 14.5 17C14.5 17.5523 14.9477 18 15.5 18V19H13V17.5C13.5523 17.5 14 17.0523 14 16.5C14 15.9477 13.5523 15.5 13 15.5V14.5C13.5523 14.5 14 14.0523 14 13.5C14 12.9477 13.5523 12.5 13 12.5V11ZM11 12.5V11H8.5V12.5C9.05228 12.5 9.5 12.9477 9.5 13.5C9.5 14.0523 9.05228 14.5 8.5 14.5V15.5C9.05228 15.5 9.5 15.9477 9.5 16.5C9.5 17.0523 9.05228 17.5 8.5 17.5V19H11V17.5C10.4477 17.5 10 17.0523 10 16.5C10 15.9477 10.4477 15.5 11 15.5V14.5C10.4477 14.5 10 14.0523 10 13.5C10 12.9477 10.4477 12.5 11 12.5ZM6.5 11V12.5C5.94772 12.5 5.5 12.9477 5.5 13.5C5.5 14.0523 5.94772 14.5 6.5 14.5V15.5C5.94772 15.5 5.5 15.9477 5.5 16.5C5.5 17.0523 5.94772 17.5 6.5 17.5V19H4V11H6.5ZM17.5 9H20V5H17.5V6C18.0523 6 18.5 6.44772 18.5 7C18.5 7.55228 18.0523 8 17.5 8V9ZM15.5 6C14.9477 6 14.5 6.44772 14.5 7C14.5 7.55228 14.9477 8 15.5 8V9H13V8C13.5523 8 14 7.55228 14 7C14 6.44772 13.5523 6 13 6V5H15.5V6ZM10 7C10 6.44772 10.4477 6 11 6V5H8.5V6C9.05228 6 9.5 6.44772 9.5 7C9.5 7.55228 9.05228 8 8.5 8V9H11V8C10.4477 8 10 7.55228 10 7ZM6.5 8C5.94772 8 5.5 7.55228 5.5 7C5.5 6.44772 5.94772 6 6.5 6V5H4V9H6.5V8Z" fill="black"/>
</svg>
