<svg width="24" height="24" viewBox="0 0 24 24" fill="none" xmlns="http://www.w3.org/2000/svg">
<path fill-rule="evenodd" clip-rule="evenodd" d="M2 12C2 6.47715 6.47715 2 12 2C17.5228 2 22 6.47715 22 12C22 17.5228 17.5228 22 12 22C6.47715 22 2 17.5228 2 12ZM12 7C11.4477 7 11 7.44772 11 8C11 8.55228 11.4477 9 12 9H12.009C12.5613 9 13.009 8.55228 13.009 8C13.009 7.44772 12.5613 7 12.009 7H12ZM8 11C7.44772 11 7 11.4477 7 12C7 12.5523 7.44772 13 8 13H16C16.5523 13 17 12.5523 17 12C17 11.4477 16.5523 11 16 11H8ZM12 15C11.4477 15 11 15.4477 11 16C11 16.5523 11.4477 17 12 17H12.009C12.5613 17 13.009 16.5523 13.009 16C13.009 15.4477 12.5613 15 12.009 15H12Z" fill="black"/>
</svg>
