<svg width="24" height="24" viewBox="0 0 24 24" fill="none" xmlns="http://www.w3.org/2000/svg">
<path fill-rule="evenodd" clip-rule="evenodd" d="M20.2929 2.29289C20.6834 1.90237 21.3166 1.90237 21.7071 2.29289C22.0976 2.68342 22.0976 3.31658 21.7071 3.70711L19.0319 6.38231C20.2635 7.92199 21 9.87499 21 12C21 16.9706 16.9706 21 12 21C9.87499 21 7.92199 20.2635 6.38231 19.0319L3.70711 21.7071C3.31658 22.0976 2.68342 22.0976 2.29289 21.7071C1.90237 21.3166 1.90237 20.6834 2.29289 20.2929L4.9681 17.6177C3.73647 16.078 3 14.125 3 12C3 7.02944 7.02944 3 12 3C14.125 3 16.078 3.73647 17.6177 4.9681L20.2929 2.29289ZM16.1922 6.39362C15.0236 5.5184 13.5723 5 12 5C8.13401 5 5 8.13401 5 12C5 13.5723 5.5184 15.0236 6.39362 16.1922L16.1922 6.39362ZM7.80783 17.6064C8.97641 18.4816 10.4277 19 12 19C15.866 19 19 15.866 19 12C19 10.4277 18.4816 8.97641 17.6064 7.80783L7.80783 17.6064Z" fill="black"/>
</svg>
