<svg width="24" height="24" viewBox="0 0 24 24" fill="none" xmlns="http://www.w3.org/2000/svg">
<path d="M6 6C6 4.89543 6.89543 4 8 4H10C10.5523 4 11 3.55228 11 3C11 2.44772 10.5523 2 10 2H8C5.79086 2 4 3.79086 4 6V9H2C1.44772 9 1 9.44772 1 10C1 10.5523 1.44772 11 2 11H4V18C4 19.1046 3.10457 20 2 20C1.44772 20 1 20.4477 1 21C1 21.5523 1.44772 22 2 22C4.20914 22 6 20.2091 6 18V11H8C8.55228 11 9 10.5523 9 10C9 9.44772 8.55228 9 8 9H6V6Z" fill="black"/>
<path d="M12.6905 21.7233C13.09 21.342 13.1047 20.709 12.7233 20.3095C11.6556 19.1909 11 17.6739 11 16C11 14.3261 11.6556 12.8091 12.7233 11.6905C13.1047 11.291 13.09 10.658 12.6905 10.2767C12.291 9.89531 11.658 9.91002 11.2767 10.3095C9.86699 11.7863 9 13.7929 9 16C9 18.2071 9.86699 20.2137 11.2767 21.6905C11.658 22.09 12.291 22.1047 12.6905 21.7233Z" fill="black"/>
<path d="M19.3095 21.7233C18.91 21.342 18.8953 20.709 19.2767 20.3095C20.3444 19.1909 21 17.6739 21 16C21 14.3261 20.3444 12.8091 19.2767 11.6905C18.8953 11.291 18.91 10.658 19.3095 10.2767C19.709 9.89531 20.342 9.91002 20.7233 10.3095C22.133 11.7863 23 13.7929 23 16C23 18.2071 22.133 20.2137 20.7233 21.6905C20.342 22.09 19.709 22.1047 19.3095 21.7233Z" fill="black"/>
<path d="M18.7071 14.7071C19.0976 14.3166 19.0976 13.6834 18.7071 13.2929C18.3166 12.9024 17.6834 12.9024 17.2929 13.2929L16 14.5858L14.7071 13.2929C14.3166 12.9024 13.6834 12.9024 13.2929 13.2929C12.9024 13.6834 12.9024 14.3166 13.2929 14.7071L14.5858 16L13.2929 17.2929C12.9024 17.6834 12.9024 18.3166 13.2929 18.7071C13.6834 19.0976 14.3166 19.0976 14.7071 18.7071L16 17.4142L17.2929 18.7071C17.6834 19.0976 18.3166 19.0976 18.7071 18.7071C19.0976 18.3166 19.0976 17.6834 18.7071 17.2929L17.4142 16L18.7071 14.7071Z" fill="black"/>
</svg>
