<svg width="24" height="24" viewBox="0 0 24 24" fill="none" xmlns="http://www.w3.org/2000/svg">
<path fill-rule="evenodd" clip-rule="evenodd" d="M21.932 2.63733C21.7318 2.1226 21.1523 1.8676 20.6376 2.06778L2.63755 9.06778C2.25318 9.21725 2 9.58737 2 9.99978C2 10.4122 2.25318 10.7823 2.63755 10.9318L20.6376 17.9318C21.1523 18.132 21.7318 17.877 21.932 17.3622C22.1322 16.8475 21.8772 16.2679 21.3624 16.0678L5.75903 9.99978L21.3624 3.93179C21.8772 3.73161 22.1322 3.15207 21.932 2.63733Z" fill="black"/>
<path fill-rule="evenodd" clip-rule="evenodd" d="M22 20.9998C22 20.4475 21.5523 19.9998 21 19.9998H3C2.44772 19.9998 2 20.4475 2 20.9998C2 21.5521 2.44772 21.9998 3 21.9998H21C21.5523 21.9998 22 21.5521 22 20.9998Z" fill="black"/>
</svg>
