<svg width="24" height="24" viewBox="0 0 24 24" fill="none" xmlns="http://www.w3.org/2000/svg">
<path d="M19.7526 4.65852C20.1163 4.24288 20.0742 3.61112 19.6585 3.24744C19.2429 2.88375 18.6111 2.92587 18.2474 3.34151L15.0463 7H3C2.44772 7 2 7.44772 2 8C2 8.55228 2.44772 9 3 9H13.2963L8.04626 15H3C2.44772 15 2 15.4477 2 16C2 16.5523 2.44772 17 3 17H6.29626L4.24744 19.3415C3.88375 19.7571 3.92587 20.3889 4.34151 20.7526C4.75715 21.1163 5.38891 21.0742 5.75259 20.6585L8.95379 17H21C21.5523 17 22 16.5523 22 16C22 15.4477 21.5523 15 21 15H10.7038L15.9538 9H21C21.5523 9 22 8.55228 22 8C22 7.44772 21.5523 7 21 7H17.7038L19.7526 4.65852Z" fill="black"/>
</svg>
