<svg width="24" height="24" viewBox="0 0 24 24" fill="none" xmlns="http://www.w3.org/2000/svg">
<path fill-rule="evenodd" clip-rule="evenodd" d="M8 1C7.73478 1 7.48043 1.10536 7.29289 1.29289L1.29289 7.29289C1.10536 7.48043 1 7.73478 1 8V16C1 16.2652 1.10536 16.5196 1.29289 16.7071L7.29289 22.7071C7.48043 22.8946 7.73478 23 8 23H16C16.2652 23 16.5196 22.8946 16.7071 22.7071L22.7071 16.7071C22.8946 16.5196 23 16.2652 23 16V8C23 7.73478 22.8946 7.48043 22.7071 7.29289L16.7071 1.29289C16.5196 1.10536 16.2652 1 16 1H8ZM12 10.5858L14.2929 8.29289C14.6834 7.90237 15.3166 7.90237 15.7071 8.29289C16.0976 8.68342 16.0976 9.31658 15.7071 9.70711L13.4142 12L15.7071 14.2929C16.0976 14.6834 16.0976 15.3166 15.7071 15.7071C15.3166 16.0976 14.6834 16.0976 14.2929 15.7071L12 13.4142L9.70711 15.7071C9.31658 16.0976 8.68342 16.0976 8.29289 15.7071C7.90237 15.3166 7.90237 14.6834 8.29289 14.2929L10.5858 12L8.29289 9.70711C7.90237 9.31658 7.90237 8.68342 8.29289 8.29289C8.68342 7.90237 9.31658 7.90237 9.70711 8.29289L12 10.5858Z" fill="black"/>
</svg>
