<svg width="24" height="24" viewBox="0 0 24 24" fill="none" xmlns="http://www.w3.org/2000/svg">
<path fill-rule="evenodd" clip-rule="evenodd" d="M12 4C7.58172 4 4 7.58172 4 12C4 15.3132 6.01437 18.1583 8.88919 19.3729C9.2594 19.5293 9.5 19.8922 9.5 20.2941L9.5 21C9.5 21.2652 9.39464 21.5196 9.20711 21.7071C9.01957 21.8946 8.76522 22 8.5 22H3C2.44772 22 2 21.5523 2 21C2 20.4477 2.44772 20 3 20H5.99936C3.57166 18.1762 2 15.2724 2 12C2 6.47715 6.47715 2 12 2C17.5228 2 22 6.47715 22 12C22 15.2724 20.4283 18.1762 18.0006 20H21C21.5523 20 22 20.4477 22 21C22 21.5523 21.5523 22 21 22H15.5C14.9477 22 14.5 21.5523 14.5 21V20.2941C14.5 19.8922 14.7406 19.5293 15.1108 19.3729C17.9856 18.1583 20 15.3132 20 12C20 7.58172 16.4183 4 12 4Z" fill="black"/>
</svg>
