<svg width="24" height="24" viewBox="0 0 24 24" fill="none" xmlns="http://www.w3.org/2000/svg">
<path d="M2 5C2 4.44772 2.44772 4 3 4H21C21.5523 4 22 4.44772 22 5C22 5.55228 21.5523 6 21 6H17V17C17 17.5523 17.4477 18 18 18C18.3689 18 18.6924 17.8008 18.8668 17.4993C19.1434 17.0212 19.7551 16.8579 20.2332 17.1344C20.7112 17.4109 20.8746 18.0227 20.598 18.5007C20.0808 19.3948 19.1117 20 18 20C16.3431 20 15 18.6569 15 17V6H9.00015V10.6762C9.00015 13.0324 8.3598 15.3442 7.14756 17.3646L5.85764 19.5145C5.5735 19.9881 4.95924 20.1416 4.48566 19.8575C4.01208 19.5733 3.85851 18.9591 4.14266 18.4855L5.43257 16.3356C6.45831 14.6261 7.00015 12.6699 7.00015 10.6762V6H3C2.44772 6 2 5.55228 2 5Z" fill="black"/>
</svg>
