<svg width="24" height="24" viewBox="0 0 24 24" fill="none" xmlns="http://www.w3.org/2000/svg">
<path fill-rule="evenodd" clip-rule="evenodd" d="M14.8292 6.10557C15.168 5.42801 15.8605 5 16.618 5H21C21.5523 5 22 5.44772 22 6C22 6.55228 21.5523 7 21 7L16.618 7L10.8944 18.4472C10.735 18.7661 10.4179 18.9759 10.0621 18.9981C9.70636 19.0202 9.36568 18.8513 9.16795 18.5547L5.46482 13H3C2.44772 13 2 12.5523 2 12C2 11.4477 2.44772 11 3 11H5.46482C6.13352 11 6.75799 11.3342 7.12892 11.8906L9.8762 16.0115L14.8292 6.10557Z" fill="black"/>
</svg>
