<svg width="24" height="24" viewBox="0 0 24 24" fill="none" xmlns="http://www.w3.org/2000/svg">
<path fill-rule="evenodd" clip-rule="evenodd" d="M3 6C3 4.34315 4.34315 3 6 3H18C19.6569 3 21 4.34315 21 6V18C21 19.6569 19.6569 21 18 21H6C4.34315 21 3 19.6569 3 18V6ZM8 11C7.44772 11 7 11.4477 7 12C7 12.5523 7.44772 13 8 13H16C16.5523 13 17 12.5523 17 12C17 11.4477 16.5523 11 16 11H8ZM11 8C11 7.44772 11.4477 7 12 7H12.009C12.5613 7 13.009 7.44772 13.009 8C13.009 8.55228 12.5613 9 12.009 9H12C11.4477 9 11 8.55228 11 8ZM12 15C11.4477 15 11 15.4477 11 16C11 16.5523 11.4477 17 12 17H12.009C12.5613 17 13.009 16.5523 13.009 16C13.009 15.4477 12.5613 15 12.009 15H12Z" fill="black"/>
</svg>
