<svg width="24" height="24" viewBox="0 0 24 24" fill="none" xmlns="http://www.w3.org/2000/svg">
<path fill-rule="evenodd" clip-rule="evenodd" d="M6 3C6.55228 3 7 3.44772 7 4V20C7 20.5523 6.55228 21 6 21C5.44772 21 5 20.5523 5 20V4C5 3.44772 5.44772 3 6 3ZM10 3C10.5523 3 11 3.44772 11 4V20C11 20.5523 10.5523 21 10 21C9.44772 21 9 20.5523 9 20V4C9 3.44772 9.44772 3 10 3ZM14 3C14.5523 3 15 3.44772 15 4V20C15 20.5523 14.5523 21 14 21C13.4477 21 13 20.5523 13 20V4C13 3.44772 13.4477 3 14 3ZM18 3C18.5523 3 19 3.44772 19 4V20C19 20.5523 18.5523 21 18 21C17.4477 21 17 20.5523 17 20V4C17 3.44772 17.4477 3 18 3Z" fill="black"/>
</svg>
