<svg width="24" height="24" viewBox="0 0 24 24" fill="none" xmlns="http://www.w3.org/2000/svg">
<path fill-rule="evenodd" clip-rule="evenodd" d="M6.7082 7C5.2125 7 4 8.2125 4 9.7082V16C4 16.5523 3.55228 17 3 17C2.44772 17 2 16.5523 2 16V9.7082C2 7.10793 4.10793 5 6.7082 5C8.49154 5 10.1218 6.00757 10.9193 7.60263L14.8695 15.5029C15.3283 16.4204 16.266 17 17.2918 17C18.7875 17 20 15.7875 20 14.2918V8C20 7.44772 20.4477 7 21 7C21.5523 7 22 7.44772 22 8V14.2918C22 16.8921 19.8921 19 17.2918 19C15.5085 19 13.8782 17.9924 13.0807 16.3974L9.1305 8.49706C8.67175 7.57956 7.734 7 6.7082 7Z" fill="black"/>
</svg>
