<svg width="24" height="24" viewBox="0 0 24 24" fill="none" xmlns="http://www.w3.org/2000/svg">
<path fill-rule="evenodd" clip-rule="evenodd" d="M9.18911 4.01806C9.51494 4.08081 9.78843 4.3011 9.91915 4.6061L15.3373 17.2485L21.2929 11.2929C21.6834 10.9024 22.3166 10.9024 22.7071 11.2929C23.0976 11.6834 23.0976 12.3166 22.7071 12.7071L15.7071 19.7071C15.4725 19.9418 15.1367 20.0447 14.8109 19.982C14.4851 19.9192 14.2116 19.6989 14.0809 19.3939L8.66269 6.75154L2.70711 12.7071C2.31658 13.0976 1.68342 13.0976 1.29289 12.7071C0.902369 12.3166 0.902369 11.6834 1.29289 11.2929L8.29289 4.29291C8.52753 4.05827 8.86327 3.95531 9.18911 4.01806Z" fill="black"/>
</svg>
