<svg width="24" height="24" viewBox="0 0 24 24" fill="none" xmlns="http://www.w3.org/2000/svg">
<path fill-rule="evenodd" clip-rule="evenodd" d="M12 2C9.21492 2 7 4.30834 7 7.1023C7 9.28531 7.87881 10.8064 9.00294 12H7C6.44772 12 6 12.4477 6 13C6 13.5523 6.44772 14 7 14H11V21C11 21.5523 11.4477 22 12 22C12.5523 22 13 21.5523 13 21V14H17C17.5523 14 18 13.5523 18 13C18 12.4477 17.5523 12 17 12H14.9971C16.1212 10.8064 17 9.28531 17 7.1023C17 4.55695 14.8178 2 12 2ZM9 7.1023C9 5.36499 10.3668 4 12 4C13.6005 4 15 5.54535 15 7.1023C15 9.3631 13.7399 10.6235 12 11.9908C10.2601 10.6235 9 9.3631 9 7.1023Z" fill="black"/>
</svg>
