<svg width="24" height="24" viewBox="0 0 24 24" fill="none" xmlns="http://www.w3.org/2000/svg">
<path fill-rule="evenodd" clip-rule="evenodd" d="M8.16146 2H15.8385C16.3657 1.99998 16.8205 1.99997 17.195 2.03057C17.5904 2.06287 17.9836 2.13419 18.362 2.32698C18.9265 2.6146 19.3854 3.07355 19.673 3.63803C19.8658 4.01641 19.9371 4.40963 19.9694 4.80498C20 5.17952 20 5.63436 20 6.16146V17C20 17.5523 19.5523 18 19 18V20C19.5523 20 20 20.4477 20 21C20 21.5523 19.5523 22 19 22H7C5.34315 22 4 20.6569 4 19V6.16142C3.99998 5.6343 3.99997 5.17953 4.03057 4.80498C4.06287 4.40963 4.13419 4.01641 4.32698 3.63803C4.6146 3.07355 5.07355 2.6146 5.63803 2.32698C6.01641 2.13419 6.40963 2.06287 6.80498 2.03057C7.17953 1.99997 7.63434 1.99998 8.16146 2ZM6 19C6 19.5523 6.44772 20 7 20H17V18H7C6.44772 18 6 18.4477 6 19ZM12.8638 5.49613C12.6846 5.18891 12.3557 5 12 5C11.6443 5 11.3154 5.18891 11.1362 5.49613L10.259 7H8.5C8.14194 7 7.8112 7.19145 7.63286 7.50194C7.45452 7.81243 7.4558 8.19458 7.63622 8.50387L8.50896 10L7.63622 11.4961C7.4558 11.8054 7.45452 12.1876 7.63286 12.4981C7.8112 12.8086 8.14194 13 8.5 13H10.259L11.1362 14.5039C11.3154 14.8111 11.6443 15 12 15C12.3557 15 12.6846 14.8111 12.8638 14.5039L13.741 13H15.5C15.8581 13 16.1888 12.8086 16.3671 12.4981C16.5455 12.1876 16.5442 11.8054 16.3638 11.4961L15.491 10L16.3638 8.50387C16.5442 8.19458 16.5455 7.81243 16.3671 7.50194C16.1888 7.19145 15.8581 7 15.5 7H13.741L12.8638 5.49613Z" fill="black"/>
</svg>
