<svg width="24" height="24" viewBox="0 0 24 24" fill="none" xmlns="http://www.w3.org/2000/svg">
<path fill-rule="evenodd" clip-rule="evenodd" d="M15.8385 2H8.16146C7.63434 1.99998 7.17953 1.99997 6.80498 2.03057C6.40963 2.06287 6.01641 2.13419 5.63803 2.32698C5.07355 2.6146 4.6146 3.07355 4.32698 3.63803C4.13419 4.01641 4.06287 4.40963 4.03057 4.80498C3.99997 5.17953 3.99998 5.63427 4 6.16139V19C4 20.6569 5.34315 22 7 22H19C19.5523 22 20 21.5523 20 21C20 20.4477 19.5523 20 19 20V18C19.5523 18 20 17.5523 20 17V6.16148C20 5.63439 20 5.17951 19.9694 4.80498C19.9371 4.40963 19.8658 4.01641 19.673 3.63803C19.3854 3.07355 18.9265 2.6146 18.362 2.32698C17.9836 2.13419 17.5904 2.06287 17.195 2.03057C16.8205 1.99997 16.3657 1.99998 15.8385 2ZM7 20C6.44772 20 6 19.5523 6 19C6 18.4477 6.44772 18 7 18H17V20H7ZM12 6C12.5523 6 13 6.44772 13 7V8H14C14.5523 8 15 8.44772 15 9C15 9.55229 14.5523 10 14 10H13V13C13 13.5523 12.5523 14 12 14C11.4477 14 11 13.5523 11 13V10H10C9.44772 10 9 9.55229 9 9C9 8.44772 9.44772 8 10 8H11V7C11 6.44772 11.4477 6 12 6Z" fill="black"/>
</svg>
