<svg width="24" height="24" viewBox="0 0 24 24" fill="none" xmlns="http://www.w3.org/2000/svg">
<path fill-rule="evenodd" clip-rule="evenodd" d="M12 2C12.5523 2 13 2.44772 13 3V4.06189C14.4607 4.24403 15.799 4.81995 16.9055 5.68005L17.6566 4.92894C18.0472 4.53842 18.6803 4.53842 19.0708 4.92894C19.4614 5.31946 19.4614 5.95263 19.0708 6.34315L18.3198 7.09423C19.18 8.20078 19.756 9.53924 19.9381 11L20.9993 11C21.5516 11 21.9993 11.4477 21.9993 12C21.9993 12.5523 21.5516 13 20.9993 13L19.9381 13C19.756 14.4608 19.18 15.7992 18.3198 16.9058L19.0708 17.6569C19.4614 18.0474 19.4614 18.6806 19.0708 19.0711C18.6803 19.4616 18.0472 19.4616 17.6566 19.0711L16.9055 18.32C15.799 19.1801 14.4606 19.756 13 19.9381V21C13 21.5523 12.5523 22 12 22C11.4477 22 11 21.5523 11 21V19.9381C9.53946 19.756 8.2012 19.1801 7.09475 18.3202L6.34383 19.0711C5.9533 19.4616 5.32014 19.4616 4.92961 19.0711C4.53909 18.6806 4.53909 18.0474 4.92961 17.6569L5.68045 16.906C4.82013 15.7994 4.24406 14.4609 4.06189 13L3 13C2.44771 13 2 12.5523 2 12C2 11.4477 2.44772 11 3 11L4.06189 11C4.24406 9.53913 4.82012 8.20057 5.68044 7.09398L4.92961 6.34315C4.53909 5.95263 4.53909 5.31946 4.92961 4.92894C5.32014 4.53842 5.9533 4.53842 6.34383 4.92894L7.09473 5.67985C8.20118 4.81986 9.53946 4.24402 11 4.06189V3C11 2.44772 11.4477 2 12 2ZM11 8.12621V6.08296C10.0885 6.23588 9.2467 6.59431 8.52386 7.10897L9.9686 8.55372C10.2867 8.3659 10.6332 8.22071 11 8.12621ZM11.9964 10L12 10L12.0036 10C12.5493 10.001 13.0422 10.2192 13.4035 10.5752C13.407 10.5787 13.4105 10.5823 13.414 10.5858C13.4175 10.5893 13.4211 10.5929 13.4247 10.5963C13.7815 10.9584 14 11.4528 14 12C14 12.5475 13.7813 13.0421 13.4241 13.4042C13.4207 13.4075 13.4173 13.4109 13.414 13.4142C13.4107 13.4176 13.4074 13.4209 13.4041 13.4243C13.0419 13.7813 12.5474 14 12 14C11.4566 14 10.9653 13.7846 10.6039 13.4321C10.5982 13.4261 10.5924 13.4201 10.5865 13.4142C10.5805 13.4082 10.5744 13.4023 10.5683 13.3965C10.2222 13.0418 10.0081 12.562 10.0002 12.0304C10.0005 12.0203 10.0007 12.0102 10.0007 12C10.0007 11.9898 10.0005 11.9797 10.0002 11.9696C10.0081 11.4383 10.222 10.9586 10.5679 10.6039C10.5741 10.598 10.5803 10.5919 10.5865 10.5858C10.5925 10.5798 10.5984 10.5737 10.6043 10.5675C10.9648 10.2161 11.4546 10.001 11.9964 10ZM8.55422 9.96776L7.10953 8.52307C6.59457 9.2461 6.23593 10.0882 6.08296 11L8.12621 11C8.22079 10.6329 8.36615 10.2861 8.55422 9.96776ZM8.12621 13L6.08296 13C6.23594 13.9118 6.59457 14.7539 7.10954 15.4769L8.55423 14.0323C8.36616 13.7139 8.2208 13.3671 8.12621 13ZM9.96862 15.4463L8.52387 16.891C9.24671 17.4057 10.0885 17.7641 11 17.917V15.8738C10.6332 15.7793 10.2867 15.6341 9.96862 15.4463ZM13 15.8738V17.917C13.9116 17.7641 14.7535 17.4056 15.4764 16.8908L14.0317 15.4461C13.7135 15.634 13.3669 15.7793 13 15.8738ZM15.4459 14.032L16.8906 15.4767C17.4055 14.7537 17.7641 13.9117 17.917 13L15.8738 13C15.7792 13.367 15.6339 13.7137 15.4459 14.032ZM15.8738 11L17.917 11C17.7641 10.0883 17.4055 9.2463 16.8907 8.52334L15.446 9.96804C15.6339 10.2863 15.7792 10.633 15.8738 11ZM14.0317 8.55389L15.4764 7.10916C14.7535 6.59439 13.9116 6.2359 13 6.08296V8.12621C13.3669 8.22074 13.7135 8.36599 14.0317 8.55389Z" fill="black"/>
</svg>
