<svg width="24" height="24" viewBox="0 0 24 24" fill="none" xmlns="http://www.w3.org/2000/svg">
<path d="M9.50694 3.0566C9.31719 3.00921 9.12581 2.99098 8.93639 3.00006C8.3948 3.02601 7.8749 3.27516 7.51653 3.70374L7.51362 3.70717L4.38554 7.32782L4.37975 7.33477C3.48219 8.41249 2.9907 9.77025 2.9907 11.1723V16.0862L2.01006 20.9003C1.9801 21.0474 2.01786 21.2002 2.11291 21.3164C2.20796 21.4326 2.35025 21.5001 2.50049 21.5001L8.49586 21.5C8.62867 21.5 8.75603 21.4473 8.84989 21.3534C8.94368 21.2596 8.99646 21.1326 8.99645 21L10.4696 18.0564C10.8173 17.3617 10.9984 16.5955 10.9984 15.8186V13C10.9984 11.8954 10.1021 11 8.99645 11C7.89082 11 6.99453 11.8954 6.99453 13V12.5408C6.99453 11.5397 7.30732 10.5636 7.88923 9.74866L7.89276 9.74385L10.6243 6.11306L10.6323 6.10179C10.8558 5.78691 10.9771 5.43679 10.9984 5.08838L10.9985 5.08666L10.999 5.0768C10.9999 5.06212 11.0001 5.04742 10.9996 5.03272C10.9984 4.99173 10.9984 4.95074 10.9997 4.90982C11.0002 4.89572 11.0001 4.88161 10.9993 4.86753C10.9565 4.047 10.3961 3.27867 9.50694 3.0566Z" fill="black"/>
<path d="M14.495 3.05879C14.6848 3.0114 14.8761 2.99318 15.0655 3.00225C15.6063 3.02818 16.1253 3.27676 16.4835 3.70421L19.6213 7.3369C20.5187 8.41463 21.01 9.77244 21.01 11.1745V15L21.9932 20.9181C22.0173 21.063 21.9764 21.2112 21.8813 21.3233C21.7862 21.4354 21.6466 21.5 21.4996 21.5L15.502 21.5C15.3692 21.5 15.2419 21.4472 15.148 21.3534C15.0543 21.2596 15.0016 21.1325 15.0016 20.9999L13.5286 18.0563C13.181 17.3617 13 16.5956 13 15.8188V13C13 11.8954 13.8961 11 15.0015 11C16.1069 11 17.003 11.8954 17.003 13L17.007 12.543C17.007 11.5428 16.6949 10.5676 16.1143 9.75318L13.3698 6.1041C13.1463 5.78922 13.0251 5.43899 13.0039 5.09057L13.0038 5.08861L13.0031 5.07713C13.0023 5.06234 13.0021 5.04752 13.0026 5.03272C13.0039 4.9917 13.0039 4.9507 13.0026 4.90977C13.0022 4.89567 13.0023 4.88155 13.0031 4.86746C13.0468 4.04779 13.6069 3.28066 14.495 3.05879Z" fill="black"/>
</svg>
