<svg width="24" height="24" viewBox="0 0 24 24" fill="none" xmlns="http://www.w3.org/2000/svg">
<path fill-rule="evenodd" clip-rule="evenodd" d="M2 8.82068V10.1371C2.06515 10.1451 2.13046 10.1597 2.19513 10.1813L3.31896 10.5559C3.33001 10.5596 3.34096 10.5634 3.35179 10.5674L4.44084 10.9305C4.96478 11.1051 5.24794 11.6714 5.07329 12.1954C4.89865 12.7193 4.33233 13.0025 3.80838 12.8278L2.68455 12.4532C2.6735 12.4495 2.66256 12.4457 2.65173 12.4416L2 12.2244V17.9999C2 18.4304 2.27543 18.8125 2.68377 18.9486L11.6838 21.9486C11.889 22.017 12.111 22.017 12.3162 21.9486L21.3162 18.9486C21.7246 18.8125 22 18.4304 22 17.9999V12.2256L20.1955 12.827C19.6716 13.0017 19.1053 12.7185 18.9306 12.1946C18.756 11.6706 19.0391 11.1043 19.5631 10.9297L21.8061 10.182C21.8703 10.1606 21.9352 10.1461 22 10.138V8.82068L12.3162 12.0486C12.111 12.117 11.889 12.117 11.6838 12.0486L2 8.82068ZM17.9408 13.5786C18.4648 13.404 18.7479 12.8376 18.5733 12.3137C18.3986 11.7898 17.8323 11.5066 17.3084 11.6812L15.0642 12.4293C14.5403 12.6039 14.2571 13.1703 14.4318 13.6942C14.6064 14.2181 15.1728 14.5013 15.6967 14.3267L17.9408 13.5786ZM6.69318 11.6812C6.16924 11.5066 5.60292 11.7898 5.42827 12.3137C5.25362 12.8376 5.53678 13.404 6.06073 13.5786L8.30865 14.3279C8.8326 14.5026 9.39892 14.2194 9.57357 13.6955C9.74821 13.1715 9.46505 12.6052 8.94111 12.4306L6.69318 11.6812ZM13.4432 15.0778C13.9671 14.9032 14.2503 14.3369 14.0756 13.8129C13.901 13.289 13.3347 13.0058 12.8107 13.1805L12.0008 13.4504L11.1928 13.1811C10.6689 13.0065 10.1026 13.2896 9.92793 13.8136C9.75328 14.3375 10.0364 14.9038 10.5604 15.0785L11.6846 15.4532C11.8898 15.5216 12.1117 15.5216 12.317 15.4532L13.4432 15.0778Z" fill="black"/>
<path fill-rule="evenodd" clip-rule="evenodd" d="M11.6838 2.05132C11.889 1.98289 12.111 1.98289 12.3162 2.05132L21.3162 5.05132C21.7246 5.18743 22 5.56957 22 6C22 6.43043 21.7246 6.81257 21.3162 6.94868L12.3162 9.94868C12.111 10.0171 11.889 10.0171 11.6838 9.94868L2.68377 6.94868C2.27543 6.81257 2 6.43043 2 6C2 5.56957 2.27543 5.18743 2.68377 5.05132L11.6838 2.05132ZM6.16228 6L12 7.94591L17.8377 6L12 4.05409L6.16228 6Z" fill="black"/>
</svg>
