<svg width="24" height="24" viewBox="0 0 24 24" fill="none" xmlns="http://www.w3.org/2000/svg">
<path d="M16.7071 2.29289C16.3166 1.90237 15.6834 1.90237 15.2929 2.29289L14.2929 3.29289C13.9024 3.68342 13.9024 4.31658 14.2929 4.70711L15.2929 5.70711C15.6834 6.09763 16.3166 6.09763 16.7071 5.70711L17.7071 4.70711C18.0976 4.31658 18.0976 3.68342 17.7071 3.29289L16.7071 2.29289Z" fill="black"/>
<path d="M12.6057 5.83828C12.9712 5.42421 13.6031 5.38481 14.0172 5.75027C14.5467 6.21758 15.2398 6.50001 16.0013 6.50001C16.7628 6.50001 17.4559 6.21758 17.9854 5.75027C18.3995 5.38481 19.0314 5.42421 19.3969 5.83828C19.7623 6.25235 19.7229 6.88429 19.3089 7.24975C18.4281 8.02717 17.2687 8.50001 16.0013 8.50001C14.7339 8.50001 13.5746 8.02717 12.6937 7.24975C12.2797 6.88429 12.2403 6.25235 12.6057 5.83828Z" fill="black"/>
<path d="M7.5003 8C7.16141 8 6.85136 8.11119 6.60073 8.29949C6.15918 8.63124 5.53231 8.54222 5.20056 8.10067C4.86882 7.65913 4.95784 7.03225 5.39938 6.70051C5.9845 6.2609 6.71337 6 7.5003 6C9.4333 6 11.0003 7.567 11.0003 9.5C11.0003 10.0368 10.8795 10.5454 10.6635 11H13.2574C13.7878 11 14.2965 10.7893 14.6716 10.4142L14.9142 10.1716C15.6644 9.42143 16.6818 9 17.7426 9H18C20.2091 9 22 10.7909 22 13V16C22 18.2091 20.2091 20 18 20H17.5C15.567 20 14 18.433 14 16.5C14 15.9477 14.4477 15.5 15 15.5C15.5523 15.5 16 15.9477 16 16.5C16 17.3284 16.6716 18 17.5 18H18C19.1046 18 20 17.1046 20 16V13C20 11.8954 19.1046 11 18 11H17.7426C17.2122 11 16.7035 11.2107 16.3284 11.5858L16.0858 11.8284C15.3356 12.5786 14.3182 13 13.2574 13H11.7428C12.5282 13.9509 13 15.1704 13 16.5C13 19.5376 10.5376 22 7.5 22C4.46243 22 2 19.5376 2 16.5C2 15.9477 2.44772 15.5 3 15.5C3.55228 15.5 4 15.9477 4 16.5C4 18.433 5.567 20 7.5 20C9.433 20 11 18.433 11 16.5C11 14.567 9.433 13 7.5 13C6.94772 13 6.5 12.5523 6.5 12C6.5 11.4477 6.94772 11 7.5 11C8.32843 11 9.0003 10.3284 9.0003 9.5C9.0003 8.67157 8.32873 8 7.5003 8Z" fill="black"/>
</svg>
