<svg width="24" height="24" viewBox="0 0 24 24" fill="none" xmlns="http://www.w3.org/2000/svg">
<path fill-rule="evenodd" clip-rule="evenodd" d="M22 12C22 6.47777 17.5239 2.001 12.0019 2H12C6.47715 2 2 6.47715 2 12C2 17.5228 6.47715 22 12 22C17.5228 22 22 17.5228 22 12ZM13 19.9381C15.1489 19.6701 17.0331 18.5499 18.3037 16.9263L13 14.545V19.9381ZM11 14.5455V19.9381C8.85148 19.6702 6.96755 18.5503 5.69695 16.9272L11 14.5455ZM4 12C4 13.1371 4.23723 14.2188 4.6649 15.1982L11.0001 12.353L11.0011 4.06175C7.05427 4.55335 4 7.91999 4 12ZM19.3355 15.1972C19.7629 14.218 20 13.1367 20 12C20 7.92077 16.9469 4.55463 13.0011 4.06203L13.0001 12.3527L19.3355 15.1972Z" fill="black"/>
</svg>
