<svg width="24" height="24" viewBox="0 0 24 24" fill="none" xmlns="http://www.w3.org/2000/svg">
<path d="M14 1C12.3431 1 11 2.34315 11 4C11 5.65685 12.3431 7 14 7C15.6569 7 17 5.65685 17 4C17 2.34315 15.6569 1 14 1Z" fill="black"/>
<path d="M12.1188 8.03307C10.7279 7.26034 8.97365 7.847 8.32742 9.30101L5.8293 14.9218C5.1983 16.3415 5.75566 18.0081 7.11381 18.7627L11.1409 20.9999H5C4.44772 20.9999 4 21.4476 4 21.9999C4 22.5522 4.44772 22.9999 5 22.9999H15C15.4557 22.9999 15.8537 22.6919 15.968 22.2508C16.0823 21.8097 15.884 21.3471 15.4856 21.1258L10.2854 18.2367L13.0533 12.0089L15.2294 14.6377C15.4247 14.8737 15.7174 15.0071 16.0237 14.9998C16.3299 14.9924 16.6159 14.8451 16.7997 14.6001L19.8 10.6001C20.1314 10.1583 20.0419 9.53148 19.6 9.20009C19.1582 8.8687 18.5314 8.95821 18.2 9.40002L15.961 12.3851L12.9436 8.7399C12.7253 8.45841 12.4481 8.21604 12.1188 8.03307Z" fill="black"/>
</svg>
