<svg width="24" height="24" viewBox="0 0 24 24" fill="none" xmlns="http://www.w3.org/2000/svg">
<path d="M6.5 4H6.45852C6.22048 2.58114 4.9865 1.5 3.5 1.5C1.84315 1.5 0.5 2.84315 0.5 4.5V19.5C0.5 21.1569 1.84315 22.5 3.5 22.5C4.9865 22.5 6.22048 21.4189 6.45852 20H6.5V4Z" fill="black"/>
<path d="M23.5 4.5C23.5 2.84315 22.1569 1.5 20.5 1.5C19.0135 1.5 17.7795 2.58114 17.5415 4H17.5V20H17.5415C17.7795 21.4189 19.0135 22.5 20.5 22.5C22.1569 22.5 23.5 21.1569 23.5 19.5V4.5Z" fill="black"/>
<path fill-rule="evenodd" clip-rule="evenodd" d="M16.5 4H7.5V20H16.5V4ZM12 7.5C12.1778 7.5 12.3423 7.59446 12.4319 7.74806L13.4539 9.5H15.5C15.679 9.5 15.8444 9.59572 15.9336 9.75097C16.0227 9.90622 16.0221 10.0973 15.9319 10.2519L14.9122 12L15.9319 13.7481C16.0221 13.9027 16.0227 14.0938 15.9336 14.249C15.8444 14.4043 15.679 14.5 15.5 14.5H13.4539L12.4319 16.2519C12.3423 16.4055 12.1778 16.5 12 16.5C11.8222 16.5 11.6577 16.4055 11.5681 16.2519L10.5461 14.5H8.5C8.32097 14.5 8.1556 14.4043 8.06643 14.249C7.97726 14.0938 7.9779 13.9027 8.06811 13.7481L9.08781 12L8.06811 10.2519C7.9779 10.0973 7.97726 9.90622 8.06643 9.75097C8.1556 9.59572 8.32097 9.5 8.5 9.5H10.5461L11.5681 7.74806C11.6577 7.59446 11.8222 7.5 12 7.5Z" fill="black"/>
</svg>
