<svg width="24" height="24" viewBox="0 0 24 24" fill="none" xmlns="http://www.w3.org/2000/svg">
<path d="M13 2C7.47715 2 3 6.47715 3 12C3 17.5228 7.47715 22 13 22C13.7623 22 14.5059 21.9145 15.2213 21.7522C15.6767 21.6488 16 21.244 16 20.777C16 20.31 15.6767 19.9051 15.2213 19.8018C11.6588 18.9934 9 15.806 9 12C9 8.194 11.6588 5.0066 15.2213 4.19823C15.6767 4.09488 16 3.69004 16 3.22302C16 2.75599 15.6767 2.35115 15.2213 2.24781C14.5059 2.08549 13.7623 2 13 2Z" fill="black"/>
<path d="M16.9052 7.5751C16.7405 7.22412 16.3877 7 16 7C15.6123 7 15.2595 7.22412 15.0948 7.5751L14.0854 9.7255L11.849 10.0672C11.4785 10.1238 11.1707 10.3829 11.0517 10.7383C10.9327 11.0937 11.0225 11.4858 11.2842 11.7541L12.9318 13.4427L12.5409 15.839C12.4793 16.217 12.6389 16.5969 12.9519 16.8175C13.265 17.038 13.6765 17.0605 14.0117 16.8752L16 15.7761L17.9883 16.8752C18.3235 17.0605 18.735 17.038 19.0481 16.8175C19.3611 16.5969 19.5207 16.217 19.4591 15.839L19.0682 13.4427L20.7158 11.7541C20.9775 11.4858 21.0673 11.0937 20.9483 10.7383C20.8293 10.3829 20.5215 10.1238 20.151 10.0672L17.9146 9.7255L16.9052 7.5751Z" fill="black"/>
</svg>
