<svg width="24" height="24" viewBox="0 0 24 24" fill="none" xmlns="http://www.w3.org/2000/svg">
<path fill-rule="evenodd" clip-rule="evenodd" d="M12 2C12.3589 2 12.6902 2.19229 12.8682 2.50386L14.866 6H20C20.3565 6 20.686 6.18976 20.8649 6.49807C21.0438 6.80639 21.0451 7.18664 20.8682 7.49614L18.2946 12L20.8682 16.5039C21.0451 16.8134 21.0438 17.1936 20.8649 17.5019C20.686 17.8102 20.3565 18 20 18H14.866L12.8682 21.4961C12.6902 21.8077 12.3589 22 12 22C11.6411 22 11.3098 21.8077 11.1318 21.4961L9.13396 18H4C3.64353 18 3.31401 17.8102 3.13509 17.5019C2.95617 17.1936 2.9549 16.8134 3.13176 16.5039L5.70539 12L3.13176 7.49614C2.9549 7.18664 2.95617 6.80639 3.13509 6.49807C3.31401 6.18976 3.64353 6 4 6H9.13396L11.1318 2.50386C11.3098 2.19229 11.6411 2 12 2ZM7.99111 8H5.72318L6.85714 9.98444L7.99111 8ZM8.00889 12L10.2946 8H13.7054L15.9911 12L13.7054 16H10.2946L8.00889 12ZM6.85714 14.0156L5.72318 16H7.99111L6.85714 14.0156ZM11.4375 18L12 18.9844L12.5625 18H11.4375ZM16.0089 16H18.2768L17.1429 14.0156L16.0089 16ZM17.1429 9.98444L18.2768 8H16.0089L17.1429 9.98444ZM12.5625 6H11.4375L12 5.01556L12.5625 6Z" fill="black"/>
</svg>
