<svg width="24" height="24" viewBox="0 0 24 24" fill="none" xmlns="http://www.w3.org/2000/svg">
<path fill-rule="evenodd" clip-rule="evenodd" d="M12 22C6.47715 22 2 17.5228 2 12C2 6.47715 6.47715 2 12 2C17.5228 2 22 6.47715 22 12C22 17.5228 17.5228 22 12 22ZM17.2934 6.00155C17.428 6.47792 17.5 6.98055 17.5 7.5C17.5 10.5376 15.0376 13 12 13C10.067 13 8.5 14.567 8.5 16.5C8.5 18.433 10.067 20 12 20C16.4183 20 20 16.4183 20 12C20 9.61146 18.9532 7.4674 17.2934 6.00155ZM12 5.5C10.8954 5.5 10 6.39543 10 7.5C10 8.60457 10.8954 9.5 12 9.5C13.1046 9.5 14 8.60457 14 7.5C14 6.39543 13.1046 5.5 12 5.5Z" fill="black"/>
<path fill-rule="evenodd" clip-rule="evenodd" d="M10 16.5C10 15.3954 10.8954 14.5 12 14.5C13.1046 14.5 14 15.3954 14 16.5C14 17.6046 13.1046 18.5 12 18.5C10.8954 18.5 10 17.6046 10 16.5Z" fill="black"/>
</svg>
