<svg width="24" height="24" viewBox="0 0 24 24" fill="none" xmlns="http://www.w3.org/2000/svg">
<path opacity="0.3" fill-rule="evenodd" clip-rule="evenodd" d="M12.3699 2.15247C12.1262 2.10674 11.8761 2.10673 11.6323 2.15245C11.3509 2.20525 11.0959 2.33373 10.8933 2.43583L10.8384 2.46343L4.43773 5.66347L4.36994 5.69715C4.12257 5.81965 3.81167 5.97361 3.5716 6.21872C3.47532 6.31702 3.38973 6.42469 3.316 6.53987C3.23087 6.67285 3.16152 6.81585 3.10972 6.96603C2.99784 7.29036 2.99916 7.6373 3.00021 7.91333L3.0004 7.98902V16.0112L3.00021 16.0869C2.99916 16.363 2.99784 16.7099 3.10972 17.0342C3.20639 17.3145 3.36416 17.5698 3.5716 17.7815C3.81167 18.0266 4.12257 18.1806 4.36994 18.3031L4.43773 18.3368L10.8384 21.5368L10.8933 21.5644C11.0959 21.6665 11.3509 21.795 11.6323 21.8478C11.7538 21.8706 11.8768 21.882 11.9998 21.8821C12.1237 21.8822 12.2476 21.8707 12.3699 21.8478C12.6514 21.795 12.9064 21.6665 13.109 21.5643L13.1639 21.5367L13.9177 21.1598C13.9046 21.1471 13.8916 21.1344 13.8787 21.1215C13.1695 20.4122 12.8616 19.3954 13.0583 18.4118L13.4633 16.3868L13.4684 16.3605C13.4906 16.2439 13.5591 15.8854 13.6975 15.5326C13.8121 15.2403 13.9608 14.9625 14.1404 14.705C14.3572 14.3941 14.6175 14.1383 14.7022 14.0551L14.7213 14.0363L17.8787 10.8788C18.7408 10.0168 19.8706 9.58585 21.0004 9.58594V7.98895L21.0006 7.91326C21.0016 7.63725 21.003 7.29034 20.8911 6.96602C20.8393 6.81585 20.77 6.67286 20.6849 6.5399C20.6111 6.42471 20.5256 6.31704 20.4293 6.21874C20.1892 5.97364 19.8784 5.81966 19.631 5.69716L19.5632 5.66348L13.1639 2.46351L13.109 2.43591C12.9064 2.3338 12.6514 2.20529 12.3699 2.15247ZM11.9966 4.12404C11.9439 4.147 11.8728 4.18215 11.7325 4.2523L6.23633 7.00015L8.00019 7.88208L13.7644 4.99999L12.2692 4.25232C12.1288 4.18215 12.0578 4.14701 12.005 4.12404L12.0008 4.12222L11.9966 4.12404ZM16.0003 6.11807L10.2363 9.00011L12.0002 9.88208L17.7642 7.00008L16.0003 6.11807ZM7.94739 11.8557C7.45341 11.6087 6.85274 11.8089 6.60575 12.3029C6.35876 12.7969 6.55899 13.3976 7.05297 13.6445L8.05297 14.1445C8.54694 14.3915 9.14762 14.1913 9.39461 13.6973C9.6416 13.2034 9.44137 12.6027 8.94739 12.3557L7.94739 11.8557Z" fill="black"/>
<path d="M8 7.88209L13.7642 5L16.0001 6.11808L10.2361 9.00012L8 7.88209Z" fill="black"/>
<path d="M7.94743 11.8557C7.45345 11.6087 6.85278 11.8089 6.60579 12.3029C6.3588 12.7969 6.55903 13.3976 7.05301 13.6446L8.05301 14.1446C8.54698 14.3915 9.14766 14.1913 9.39465 13.6973C9.64164 13.2034 9.44141 12.6027 8.94743 12.3557L7.94743 11.8557Z" fill="black"/>
<path d="M22.7071 12.293C21.7643 11.3502 20.2357 11.3502 19.2929 12.293L16.1355 15.4505L16.109 15.4769C16.0095 15.576 15.8842 15.7008 15.7808 15.8491C15.691 15.9778 15.6166 16.1167 15.5593 16.2629C15.4933 16.4311 15.459 16.6046 15.4317 16.7424L15.4244 16.7791L15.0194 18.804C14.9539 19.1319 15.0565 19.4708 15.2929 19.7073C15.5293 19.9437 15.8683 20.0463 16.1961 19.9807L18.2211 19.5757L18.2578 19.5685C18.3955 19.5412 18.5691 19.5068 18.7373 19.4408C18.8834 19.3835 19.0223 19.3092 19.1511 19.2194C19.2993 19.116 19.4242 18.9907 19.5233 18.8912L19.5497 18.8647L22.7071 15.7073C23.6499 14.7644 23.6499 13.2359 22.7071 12.293Z" fill="black"/>
</svg>
