<svg width="24" height="24" viewBox="0 0 24 24" fill="none" xmlns="http://www.w3.org/2000/svg">
<path opacity="0.3" fill-rule="evenodd" clip-rule="evenodd" d="M12.3699 2.15247C12.1262 2.10674 11.8761 2.10673 11.6323 2.15245C11.3509 2.20525 11.0959 2.33373 10.8933 2.43583L10.8384 2.46343L4.43773 5.66347L4.36994 5.69715C4.12257 5.81965 3.81167 5.97361 3.5716 6.21872C3.47532 6.31702 3.38973 6.42469 3.316 6.53987C3.23087 6.67285 3.16152 6.81585 3.10972 6.96603C2.99784 7.29036 2.99916 7.6373 3.00021 7.91333L3.0004 7.98902V16.0112L3.00021 16.0869C2.99916 16.363 2.99784 16.7099 3.10972 17.0342C3.20639 17.3145 3.36416 17.5698 3.5716 17.7815C3.81167 18.0266 4.12257 18.1806 4.36994 18.3031L4.43773 18.3368L10.8384 21.5368L10.8933 21.5644C11.0959 21.6665 11.3509 21.795 11.6323 21.8478C11.7538 21.8706 11.8768 21.882 11.9998 21.8821C12.1237 21.8822 12.2476 21.8707 12.3699 21.8478C12.6514 21.795 12.9064 21.6665 13.109 21.5643L13.1639 21.5367L14.4354 20.9009C13.5415 19.8582 13 18.5039 13 17.0176C13 15.8062 13.5158 14.8301 13.8501 14.2915C14.2187 13.6975 14.6456 13.2024 14.905 12.9102C15.2384 12.5346 15.7511 12.0072 16.1384 11.6139C16.3408 11.4084 16.5249 11.2234 16.6584 11.0898C16.7252 11.0229 16.7796 10.9686 16.8176 10.9308L16.8785 10.8702C18.0114 9.74644 19.8218 9.70849 21.0004 10.7723V7.98895L21.0006 7.91326C21.0016 7.63725 21.003 7.29034 20.8911 6.96602C20.8393 6.81585 20.77 6.67286 20.6849 6.5399C20.6111 6.42471 20.5256 6.31704 20.4293 6.21874C20.1892 5.97364 19.8784 5.81966 19.631 5.69716L19.5632 5.66348L13.1639 2.46351L13.109 2.43591C12.9064 2.3338 12.6514 2.20529 12.3699 2.15247ZM11.9966 4.12404C11.9439 4.147 11.8728 4.18215 11.7325 4.2523L6.23633 7.00015L8.00019 7.88208L13.7644 4.99999L12.2692 4.25232C12.1288 4.18215 12.0578 4.14701 12.005 4.12404L12.0008 4.12222L11.9966 4.12404ZM16.0003 6.11807L10.2363 9.00011L12.0002 9.88208L17.7642 7.00008L16.0003 6.11807ZM7.94739 11.8557C7.45341 11.6087 6.85274 11.8089 6.60575 12.3029C6.35876 12.7969 6.55899 13.3976 7.05297 13.6445L8.05297 14.1445C8.54694 14.3915 9.14762 14.1913 9.39461 13.6973C9.6416 13.2034 9.44137 12.6027 8.94739 12.3557L7.94739 11.8557Z" fill="black"/>
<path d="M8 7.88209L13.7642 5L16.0001 6.11808L10.2361 9.00012L8 7.88209Z" fill="black"/>
<path d="M7.94743 11.8557C7.45345 11.6087 6.85278 11.8089 6.60579 12.3029C6.3588 12.7969 6.55903 13.3976 7.05301 13.6446L8.05301 14.1446C8.54698 14.3915 9.14766 14.1913 9.39465 13.6973C9.64164 13.2034 9.44141 12.6027 8.94743 12.3557L7.94743 11.8557Z" fill="black"/>
<path fill-rule="evenodd" clip-rule="evenodd" d="M18.287 12.2902C18.6701 11.9101 19.2857 11.9026 19.678 12.2733L19.6943 12.2887L19.7393 12.3314C19.7783 12.3684 19.8342 12.4217 19.9031 12.4875C20.0406 12.619 20.2299 12.8011 20.4369 13.003C20.8424 13.3985 21.3441 13.8977 21.6462 14.238C21.8996 14.5234 22.2223 14.9181 22.486 15.366C22.7403 15.7979 23 16.3792 23 17.0176C23 19.2226 21.2036 21.0001 19 21.0001C16.7964 21.0001 15 19.2226 15 17.0176C15 16.3617 15.2856 15.7714 15.5495 15.346C15.8248 14.9023 16.1586 14.5107 16.4006 14.238C16.695 13.9064 17.173 13.4137 17.5634 13.0172C17.7616 12.816 17.9421 12.6345 18.0732 12.5034C18.1387 12.4378 18.192 12.3847 18.2289 12.3479L18.287 12.2902ZM19.0068 14.4019L18.9885 14.4204C18.5949 14.8201 18.1516 15.2782 17.8962 15.5658C17.6715 15.8189 17.431 16.107 17.2489 16.4005C17.0553 16.7125 17 16.9171 17 17.0176C17 18.107 17.8899 19.0001 19 19.0001C20.1101 19.0001 21 18.107 21 17.0176C21 16.8996 20.9423 16.686 20.7625 16.3806C20.5921 16.0912 20.364 15.8062 20.1506 15.5658C19.9031 15.2869 19.4512 14.8353 19.0404 14.4346L19.0068 14.4019Z" fill="black"/>
</svg>
