<svg width="24" height="24" viewBox="0 0 24 24" fill="none" xmlns="http://www.w3.org/2000/svg">
<path opacity="0.3" fill-rule="evenodd" clip-rule="evenodd" d="M12.3699 2.15247C12.1262 2.10674 11.8761 2.10673 11.6323 2.15245C11.3509 2.20525 11.0959 2.33373 10.8933 2.43583L10.8384 2.46343L4.43773 5.66347L4.36994 5.69715C4.12257 5.81965 3.81167 5.97361 3.5716 6.21872C3.47532 6.31702 3.38973 6.42469 3.316 6.53987C3.23087 6.67285 3.16152 6.81585 3.10972 6.96603C2.99784 7.29036 2.99916 7.6373 3.00021 7.91333L3.0004 7.98902V16.0112L3.00021 16.0869C2.99916 16.363 2.99784 16.7099 3.10972 17.0342C3.20639 17.3145 3.36416 17.5698 3.5716 17.7815C3.81167 18.0266 4.12257 18.1806 4.36994 18.3031L4.43773 18.3368L10.8384 21.5368L10.8933 21.5644C11.0959 21.6665 11.3509 21.795 11.6323 21.8478C11.7538 21.8706 11.8768 21.882 11.9998 21.8821C12.1237 21.8822 12.2476 21.8707 12.3699 21.8478C12.6514 21.795 12.9064 21.6665 13.109 21.5643L13.1639 21.5367L14.4621 20.8876C13.4788 19.7315 13 18.2969 13 16.889C13 15.3635 13.5621 13.8066 14.7191 12.6067C15.0894 12.2227 15.5484 11.951 16.0451 11.8073C16.3199 11.419 16.6577 11.0429 17.0728 10.6966C18.2252 9.73508 19.9002 9.7784 21.0004 10.7691V7.98895L21.0006 7.91326C21.0016 7.63725 21.003 7.29034 20.8911 6.96602C20.8393 6.81585 20.77 6.67286 20.6849 6.5399C20.6111 6.42471 20.5256 6.31704 20.4293 6.21874C20.1892 5.97364 19.8784 5.81966 19.631 5.69716L19.5632 5.66348L13.1639 2.46351L13.109 2.43591C12.9064 2.3338 12.6514 2.20529 12.3699 2.15247ZM11.9966 4.12404C11.9439 4.147 11.8728 4.18215 11.7325 4.2523L6.23633 7.00015L8.00019 7.88208L13.7644 4.99999L12.2692 4.25232C12.1288 4.18215 12.0578 4.14701 12.005 4.12404L12.0008 4.12222L11.9966 4.12404ZM16.0003 6.11807L10.2363 9.00011L12.0002 9.88208L17.7642 7.00008L16.0003 6.11807ZM7.94739 11.8557C7.45341 11.6087 6.85274 11.8089 6.60575 12.3029C6.35876 12.7969 6.55899 13.3976 7.05297 13.6445L8.05297 14.1445C8.54694 14.3915 9.14762 14.1913 9.39461 13.6973C9.6416 13.2034 9.44137 12.6027 8.94739 12.3557L7.94739 11.8557Z" fill="black"/>
<path d="M8 7.88209L13.7642 5L16.0001 6.11808L10.2361 9.00012L8 7.88209Z" fill="black"/>
<path d="M7.94743 11.8557C7.45345 11.6087 6.85278 11.8089 6.60579 12.3029C6.3588 12.7969 6.55903 13.3976 7.05301 13.6446L8.05301 14.1446C8.54698 14.3915 9.14766 14.1913 9.39465 13.6973C9.64164 13.2034 9.44141 12.6027 8.94743 12.3557L7.94743 11.8557Z" fill="black"/>
<path fill-rule="evenodd" clip-rule="evenodd" d="M19.7121 12.3035C19.3477 11.9282 18.7557 11.8972 18.3541 12.2323C17.8135 12.6833 17.4653 13.2208 17.2436 13.7581C17.1905 13.7373 17.1353 13.7209 17.0784 13.7093C16.7431 13.641 16.3963 13.7487 16.1588 13.995C15.3826 14.7999 15 15.8497 15 16.889C15 17.9283 15.3826 18.9781 16.1588 19.783C17.7237 21.4058 20.2763 21.4058 21.8412 19.783C22.6174 18.9781 23 17.9283 23 16.889C23 15.8497 22.6174 14.7999 21.8412 13.995C21.4902 13.631 21.0887 13.3574 20.7625 13.1351L20.6857 13.0826C20.327 12.8372 20.0145 12.6149 19.7121 12.3035ZM17 16.889C17 16.7219 17.0185 16.5557 17.0553 16.3939C17.1651 16.4698 17.2847 16.5427 17.4147 16.6101C17.7247 16.7708 18.0961 16.7582 18.3945 16.5768C18.6929 16.3954 18.875 16.0715 18.875 15.7223C18.875 15.3071 18.94 14.8438 19.1314 14.434C19.2816 14.5446 19.4246 14.6431 19.5564 14.7333L19.5803 14.7496C19.9559 15.0065 20.1977 15.172 20.4015 15.3833C20.7968 15.7933 21 16.3359 21 16.889C21 17.4421 20.7968 17.9848 20.4015 18.3948C19.6232 19.2019 18.3768 19.2019 17.5985 18.3948C17.2032 17.9848 17 17.4421 17 16.889Z" fill="black"/>
</svg>
