<svg width="24" height="24" viewBox="0 0 24 24" fill="none" xmlns="http://www.w3.org/2000/svg">
<path opacity="0.3" fill-rule="evenodd" clip-rule="evenodd" d="M12.3699 2.15247C12.1262 2.10674 11.8761 2.10673 11.6323 2.15245C11.3509 2.20525 11.0959 2.33373 10.8933 2.43583L10.8384 2.46343L4.43773 5.66347L4.36994 5.69715C4.12257 5.81965 3.81167 5.97361 3.5716 6.21872C3.47532 6.31702 3.38973 6.42469 3.316 6.53987C3.23087 6.67285 3.16152 6.81585 3.10972 6.96603C2.99784 7.29036 2.99916 7.6373 3.00021 7.91333L3.0004 7.98902V16.0112L3.00021 16.0869C2.99916 16.363 2.99784 16.7099 3.10972 17.0342C3.20639 17.3145 3.36416 17.5698 3.5716 17.7815C3.81167 18.0266 4.12257 18.1806 4.36994 18.3031L4.43773 18.3368L10.8384 21.5368L10.8933 21.5644C11.0959 21.6665 11.3509 21.795 11.6323 21.8478C11.7538 21.8706 11.8768 21.882 11.9998 21.8821C12.1237 21.8822 12.2476 21.8707 12.3699 21.8478C12.6514 21.795 12.9064 21.6665 13.109 21.5643L13.1639 21.5367L15.7308 20.2532C14.0974 19.2995 13 17.528 13 15.5001C13 12.4626 15.4624 10.0001 18.5 10.0001C19.4004 10.0001 20.2502 10.2165 21.0004 10.6V7.98895L21.0006 7.91326C21.0016 7.63725 21.003 7.29034 20.8911 6.96602C20.8393 6.81585 20.77 6.67286 20.6849 6.5399C20.6111 6.42471 20.5256 6.31704 20.4293 6.21874C20.1892 5.97364 19.8784 5.81966 19.631 5.69716L19.5632 5.66348L13.1639 2.46351L13.109 2.43591C12.9064 2.3338 12.6514 2.20529 12.3699 2.15247ZM11.9966 4.12404C11.9439 4.147 11.8728 4.18215 11.7325 4.2523L6.23633 7.00015L8.00019 7.88208L13.7644 4.99999L12.2692 4.25232C12.1288 4.18215 12.0578 4.14701 12.005 4.12404L12.0008 4.12222L11.9966 4.12404ZM16.0003 6.11807L10.2363 9.00011L12.0002 9.88208L17.7642 7.00008L16.0003 6.11807ZM7.94739 11.8557C7.45341 11.6087 6.85274 11.8089 6.60575 12.3029C6.35876 12.7969 6.55899 13.3976 7.05297 13.6445L8.05297 14.1445C8.54694 14.3915 9.14762 14.1913 9.39461 13.6973C9.6416 13.2034 9.44137 12.6027 8.94739 12.3557L7.94739 11.8557Z" fill="black"/>
<path d="M8.00195 7.88209L13.7661 5L16.0021 6.11808L10.238 9.00012L8.00195 7.88209Z" fill="black"/>
<path d="M8.48282 14.2502C8.33792 14.2478 8.19128 14.2137 8.05301 14.1445L7.05301 13.6445C6.55903 13.3975 6.3588 12.7969 6.60579 12.3029C6.78379 11.9469 7.14548 11.7435 7.51854 11.75C7.66378 11.7523 7.81078 11.7864 7.94939 11.8557L8.94939 12.3557C9.44336 12.6027 9.64359 13.2034 9.3966 13.6973C9.21844 14.0537 8.85625 14.2571 8.48282 14.2502Z" fill="black"/>
<path fill-rule="evenodd" clip-rule="evenodd" d="M18.502 12.0001C16.569 12.0001 15.002 13.5671 15.002 15.5001C15.002 17.4331 16.569 19.0001 18.502 19.0001C19.1048 19.0001 19.6719 18.8478 20.1671 18.5794L21.2949 19.7072C21.6854 20.0978 22.3186 20.0978 22.7091 19.7072C23.0996 19.3167 23.0996 18.6836 22.7091 18.293L21.5813 17.1652C21.8496 16.6701 22.002 16.1029 22.002 15.5001C22.002 13.5671 20.435 12.0001 18.502 12.0001ZM17.002 15.5001C17.002 14.6717 17.6736 14.0001 18.502 14.0001C19.3304 14.0001 20.002 14.6717 20.002 15.5001C20.002 16.3286 19.3304 17.0001 18.502 17.0001C17.6736 17.0001 17.002 16.3286 17.002 15.5001Z" fill="black"/>
</svg>
