<svg width="24" height="24" viewBox="0 0 24 24" fill="none" xmlns="http://www.w3.org/2000/svg">
<path opacity="0.3" fill-rule="evenodd" clip-rule="evenodd" d="M12.3699 2.15247C12.1262 2.10674 11.8761 2.10673 11.6323 2.15245C11.3509 2.20525 11.0959 2.33373 10.8933 2.43583L10.8384 2.46343L4.43773 5.66347L4.36994 5.69715C4.12257 5.81965 3.81167 5.97361 3.5716 6.21872C3.47532 6.31702 3.38973 6.42469 3.316 6.53987C3.23087 6.67285 3.16152 6.81585 3.10972 6.96603C2.99784 7.29036 2.99916 7.6373 3.00021 7.91333L3.0004 7.98902V16.0112L3.00021 16.0869C2.99916 16.363 2.99784 16.7099 3.10972 17.0342C3.20639 17.3145 3.36416 17.5698 3.5716 17.7815C3.81167 18.0266 4.12257 18.1806 4.36994 18.3031L4.43773 18.3368L10.8384 21.5368L10.8933 21.5644C11.0959 21.6665 11.3509 21.795 11.6323 21.8478C11.7538 21.8706 11.8768 21.882 11.9998 21.8821C12.1237 21.8822 12.2476 21.8707 12.3699 21.8478C12.6514 21.795 12.9064 21.6665 13.109 21.5643L13.1639 21.5367L15.0255 20.6059C13.4342 19.2675 12.5 17.2091 12.5 15.0555C12.5 14.4722 12.5669 13.9008 12.695 13.3511C13.0259 11.9311 14.3298 10.9546 15.7855 11.0366C15.7919 11.037 15.7986 11.0372 15.8056 11.0372C15.8521 11.0372 15.8963 11.0284 15.9447 11.0075C15.9959 10.9853 16.0627 10.9444 16.1349 10.8726C17.305 9.70928 19.195 9.70929 20.3651 10.8727C20.4373 10.9444 20.5041 10.9854 20.5553 11.0075C20.6037 11.0285 20.6479 11.0372 20.6944 11.0372C20.6981 11.0372 20.7017 11.0372 20.7052 11.0371C20.7084 11.037 20.7115 11.0369 20.7145 11.0367C20.8105 11.0313 20.9059 11.0305 21.0004 11.0341V7.98895L21.0006 7.91326C21.0016 7.63725 21.003 7.29034 20.8911 6.96602C20.8393 6.81585 20.77 6.67286 20.6849 6.5399C20.6111 6.42471 20.5256 6.31704 20.4293 6.21874C20.1892 5.97364 19.8784 5.81966 19.631 5.69716L19.5632 5.66348L13.1639 2.46351L13.109 2.43591C12.9064 2.3338 12.6514 2.20529 12.3699 2.15247ZM11.9966 4.12404C11.9439 4.147 11.8728 4.18215 11.7325 4.2523L6.23633 7.00015L8.00019 7.88208L13.7644 4.99999L12.2692 4.25232C12.1288 4.18215 12.0578 4.14701 12.005 4.12404L12.0008 4.12222L11.9966 4.12404ZM16.0003 6.11807L10.2363 9.00011L12.0002 9.88208L17.7642 7.00008L16.0003 6.11807ZM7.94739 11.8557C7.45341 11.6087 6.85274 11.8089 6.60575 12.3029C6.35876 12.7969 6.55899 13.3976 7.05297 13.6445L8.05297 14.1445C8.54694 14.3915 9.14762 14.1913 9.39461 13.6973C9.6416 13.2034 9.44137 12.6027 8.94739 12.3557L7.94739 11.8557Z" fill="black"/>
<path d="M8 7.88209L13.7642 5L16.0001 6.11808L10.2361 9.00012L8 7.88209Z" fill="black"/>
<path d="M7.94743 11.8557C7.45345 11.6087 6.85278 11.8089 6.60579 12.3029C6.3588 12.7969 6.55903 13.3976 7.05301 13.6446L8.05301 14.1446C8.54698 14.3915 9.14766 14.1913 9.39465 13.6973C9.64164 13.2034 9.44141 12.6027 8.94743 12.3557L7.94743 11.8557Z" fill="black"/>
<path fill-rule="evenodd" clip-rule="evenodd" d="M18.955 12.291C18.565 11.9032 17.935 11.9032 17.5449 12.291C17.0655 12.7676 16.4559 13.0372 15.8056 13.0372C15.761 13.0372 15.7168 13.0359 15.673 13.0335C15.1878 13.0061 14.7531 13.3316 14.6429 13.805C14.5493 14.2062 14.5 14.6254 14.5 15.0555C14.5 17.3478 15.9165 19.373 17.9751 19.9616C18.1548 20.013 18.3452 20.013 18.5249 19.9616C20.5835 19.373 22 17.3478 22 15.0555C22 14.6254 21.9507 14.2063 21.8572 13.805C21.7469 13.3317 21.3122 13.0062 20.827 13.0335C20.7832 13.036 20.739 13.0372 20.6944 13.0372C20.0441 13.0372 19.4345 12.7677 18.955 12.291ZM16.5 15.0555C16.5 15.0307 16.5003 15.006 16.5008 14.9813C17.1382 14.8779 17.7299 14.635 18.25 14.2873C18.77 14.635 19.3617 14.878 19.9992 14.9814C19.9997 15.006 20 15.0307 20 15.0555C20 16.4321 19.2281 17.5243 18.25 17.941C17.2719 17.5243 16.5 16.4321 16.5 15.0555Z" fill="black"/>
</svg>
