<svg width="24" height="24" viewBox="0 0 24 24" fill="none" xmlns="http://www.w3.org/2000/svg">
<path opacity="0.3" fill-rule="evenodd" clip-rule="evenodd" d="M12.3699 2.15247C12.1262 2.10674 11.8761 2.10673 11.6323 2.15245C11.3509 2.20525 11.0959 2.33373 10.8933 2.43583L10.8384 2.46343L4.43773 5.66347L4.36994 5.69715C4.12257 5.81965 3.81167 5.97361 3.5716 6.21872C3.47532 6.31702 3.38973 6.42469 3.316 6.53987C3.23087 6.67285 3.16152 6.81585 3.10972 6.96603C2.99784 7.29036 2.99916 7.6373 3.00021 7.91333L3.0004 7.98902V16.0112L3.00021 16.0869C2.99916 16.363 2.99784 16.7099 3.10972 17.0342C3.20639 17.3145 3.36416 17.5698 3.5716 17.7815C3.81167 18.0266 4.12257 18.1806 4.36994 18.3031L4.43773 18.3368L10.8384 21.5368L10.8933 21.5644C11.0959 21.6665 11.3509 21.795 11.6323 21.8478C11.7538 21.8706 11.8768 21.882 11.9998 21.8821C12.1237 21.8822 12.2476 21.8707 12.3699 21.8478C12.6514 21.795 12.9064 21.6665 13.109 21.5643L13.1639 21.5367L15.0586 20.5893C15.0206 20.3988 15.0007 20.2018 15.0007 20.0001C15.0007 19.454 15.1467 18.9419 15.4017 18.5008C15.101 17.9809 14.9692 17.3901 15.0064 16.8081C13.5894 16.2767 12.7722 14.751 13.1579 13.2523C13.7128 11.0965 15.6663 9.50012 18.0002 9.50012C19.1259 9.50012 20.1647 9.87212 21.0004 10.4999V7.98895L21.0006 7.91326C21.0016 7.63725 21.003 7.29034 20.8911 6.96602C20.8393 6.81585 20.77 6.67286 20.6849 6.5399C20.6111 6.42471 20.5256 6.31704 20.4293 6.21874C20.1892 5.97364 19.8784 5.81966 19.631 5.69716L19.5632 5.66348L13.1639 2.46351L13.109 2.43591C12.9064 2.3338 12.6514 2.20529 12.3699 2.15247ZM11.9966 4.12404C11.9439 4.147 11.8728 4.18215 11.7325 4.2523L6.23633 7.00015L8.00019 7.88208L13.7644 4.99999L12.2692 4.25232C12.1288 4.18215 12.0578 4.14701 12.005 4.12404L12.0008 4.12222L11.9966 4.12404ZM16.0003 6.11807L10.2363 9.00011L12.0002 9.88208L17.7642 7.00008L16.0003 6.11807ZM7.94739 11.8557C7.45341 11.6087 6.85274 11.8089 6.60575 12.3029C6.35876 12.7969 6.55899 13.3976 7.05297 13.6445L8.05297 14.1445C8.54694 14.3915 9.14762 14.1913 9.39461 13.6973C9.6416 13.2034 9.44137 12.6027 8.94739 12.3557L7.94739 11.8557Z" fill="black"/>
<path d="M8 7.88209L13.7642 5L16.0001 6.11808L10.2361 9.00012L8 7.88209Z" fill="black"/>
<path d="M7.94743 11.8557C7.45345 11.6087 6.85278 11.8089 6.60579 12.3029C6.3588 12.7969 6.55903 13.3976 7.05301 13.6446L8.05301 14.1446C8.54698 14.3915 9.14766 14.1913 9.39465 13.6973C9.64164 13.2034 9.44141 12.6027 8.94743 12.3557L7.94743 11.8557Z" fill="black"/>
<path d="M17.0312 14.2494C17.1422 13.8179 17.5351 13.5001 17.9997 13.5001C18.552 13.5001 18.9997 13.9478 18.9997 14.5001C18.9997 14.6733 18.9542 14.8054 18.6803 15.0698C18.5459 15.1995 18.3907 15.3283 18.1861 15.4981L18.0946 15.5742C17.8563 15.7724 17.5768 16.0089 17.2926 16.293C16.9021 16.6835 16.9021 17.3167 17.2926 17.7072C17.6832 18.0978 18.3163 18.0978 18.7069 17.7072C18.9227 17.4914 19.1432 17.3034 19.3736 17.1117L19.4594 17.0406C19.6568 16.877 19.8764 16.695 20.0692 16.5089C20.5452 16.0494 20.9997 15.4315 20.9997 14.5001C20.9997 12.8433 19.6566 11.5001 17.9997 11.5001C16.6005 11.5001 15.4273 12.4572 15.0943 13.7509C14.9566 14.2857 15.2786 14.8309 15.8135 14.9686C16.3483 15.1062 16.8935 14.7842 17.0312 14.2494Z" fill="black"/>
<path d="M18.0002 19.0001C17.448 19.0001 17.0002 19.4478 17.0002 20.0001C17.0002 20.5524 17.448 21.0001 18.0002 21.0001H18.0102C18.5625 21.0001 19.0102 20.5524 19.0102 20.0001C19.0102 19.4478 18.5625 19.0001 18.0102 19.0001H18.0002Z" fill="black"/>
</svg>
