<svg width="24" height="24" viewBox="0 0 24 24" fill="none" xmlns="http://www.w3.org/2000/svg">
<path opacity="0.3" fill-rule="evenodd" clip-rule="evenodd" d="M7.02288 4.37078L4.43773 5.66324L4.36994 5.69692C4.12257 5.81942 3.81167 5.97338 3.5716 6.21849C3.47532 6.31679 3.38973 6.42446 3.316 6.53964C3.23087 6.67262 3.16152 6.81562 3.10972 6.9658C2.99784 7.29014 2.99916 7.63707 3.00021 7.9131L3.0004 7.98879V16.011L3.00021 16.0867C2.99916 16.3627 2.99784 16.7097 3.10972 17.034C3.20639 17.3143 3.36416 17.5695 3.5716 17.7813C3.81167 18.0264 4.12257 18.1804 4.36993 18.3029L4.43773 18.3366L10.8384 21.5366L10.8933 21.5642C11.0959 21.6663 11.3509 21.7948 11.6323 21.8476C11.7538 21.8704 11.8768 21.8818 11.9998 21.8819C12.1237 21.8819 12.2476 21.8705 12.3699 21.8476C12.6514 21.7947 12.9064 21.6662 13.109 21.5641L13.1639 21.5365L19.5632 18.3366L19.631 18.3029C19.8784 18.1804 20.1892 18.0264 20.4293 17.7813C20.6367 17.5695 20.7944 17.3143 20.8911 17.034C21.003 16.7097 21.0016 16.3628 21.0006 16.0868L21.0004 16.0111V7.98872L21.0006 7.91303C21.0016 7.63702 21.003 7.29011 20.8911 6.96579C20.8393 6.81562 20.77 6.67263 20.6849 6.53967C20.6111 6.42448 20.5256 6.31681 20.4293 6.21851C20.1892 5.97341 19.8784 5.81943 19.631 5.69693L19.5632 5.66325L16.9772 4.37012C16.8981 5.01026 16.6128 5.62978 16.1213 6.12121C16.1086 6.13397 16.0957 6.14659 16.0828 6.15907L17.7642 6.99985L14.5261 8.61892C13.9926 9.44958 13.0605 9.99989 12 9.99989C10.4687 9.99989 9.20531 8.85255 9.02268 7.3706L8.00019 7.88185L6.23633 6.99992L7.91754 6.15939C7.9045 6.14681 7.89155 6.13408 7.87868 6.12121C7.38741 5.62995 7.10215 5.01069 7.02288 4.37078ZM6.60575 12.3027C6.85274 11.8087 7.45341 11.6085 7.94739 11.8555L8.94739 12.3555C9.44137 12.6024 9.6416 13.2031 9.39461 13.6971C9.14762 14.1911 8.54694 14.3913 8.05297 14.1443L7.05297 13.6443C6.55899 13.3973 6.35876 12.7967 6.60575 12.3027Z" fill="black"/>
<path d="M12.7071 1.29289C12.3166 0.902369 11.6834 0.902369 11.2929 1.29289L9.29289 3.29289C8.90237 3.68342 8.90237 4.31658 9.29289 4.70711C9.68342 5.09763 10.3166 5.09763 10.7071 4.70711L11 4.41421V7C11 7.55228 11.4477 8 12 8C12.5523 8 13 7.55228 13 7V4.41421L13.2929 4.70711C13.6834 5.09763 14.3166 5.09763 14.7071 4.70711C15.0976 4.31658 15.0976 3.68342 14.7071 3.29289L12.7071 1.29289Z" fill="black"/>
<path d="M6.60189 12.3028C6.84887 11.8088 7.44955 11.6086 7.94353 11.8556L8.94353 12.3556C9.4375 12.6026 9.63773 13.2032 9.39074 13.6972C9.14375 14.1912 8.54308 14.3914 8.0491 14.1444L7.0491 13.6444C6.55512 13.3974 6.3549 12.7968 6.60189 12.3028Z" fill="black"/>
</svg>
