<svg width="24" height="24" viewBox="0 0 24 24" fill="none" xmlns="http://www.w3.org/2000/svg">
<path d="M16.4855 2.14257C16.9147 1.88505 17.4682 1.98452 17.7809 2.37537L19.5504 4.58732L15.4074 7.07313C14.2358 7.77612 13.3154 8.83047 12.7772 10.0864L11.4072 13.283C10.8948 14.4786 9.97512 15.454 8.81159 16.0358L4.77741 18.0529C4.76854 18.0573 4.75986 18.062 4.75137 18.0668L3.76668 18.5592L2.21914 16.6248C2.03049 16.3889 1.95851 16.0805 2.02329 15.7855C2.08807 15.4906 2.28269 15.2407 2.5528 15.1056L6.58698 13.0885C7.64473 12.5597 8.48079 11.673 8.94664 10.586L10.3166 7.3894C10.8963 6.03689 11.8874 4.90145 13.1492 4.14438L16.4855 2.14257Z" fill="black"/>
<path d="M4.40556 19.3578L6.21914 21.6248C6.51371 21.993 7.02547 22.1054 7.44722 21.8945L11.4814 19.8774C12.9623 19.137 14.1327 17.8956 14.7849 16.3738L16.1549 13.1772C16.5689 12.2112 17.2769 11.4001 18.1782 10.8594L21.5145 8.85755C21.762 8.70909 21.9332 8.46096 21.9842 8.17694C22.0353 7.89292 21.9611 7.6007 21.7809 7.37537L20.1808 5.37528L15.9219 7.93062C14.9305 8.52546 14.1518 9.4176 13.6963 10.4803L12.3264 13.6769C11.7208 15.09 10.6339 16.2426 9.25881 16.9302L5.25258 18.9333C5.24409 18.9382 5.23541 18.9428 5.22654 18.9473L4.40556 19.3578Z" fill="black"/>
</svg>
