<svg width="24" height="24" viewBox="0 0 24 24" fill="none" xmlns="http://www.w3.org/2000/svg">
<path d="M8.39408 5.1438C9.75434 3.24058 11.9823 2 14.5 2C18.6421 2 22 5.35786 22 9.5C22 12.0177 20.7594 14.2457 18.8562 15.6059C19.3616 12.8067 18.5334 9.80545 16.364 7.63603C14.1945 5.46661 11.1933 4.63839 8.39408 5.1438Z" fill="black"/>
<path fill-rule="evenodd" clip-rule="evenodd" d="M15.6569 8.34313C13.6666 6.35288 10.8886 5.63159 8.33022 6.17535C8.28789 6.18434 8.24562 6.19369 8.20342 6.20337C6.78817 6.52825 5.44384 7.24244 4.34315 8.34313C1.21895 11.4673 1.21895 16.5326 4.34315 19.6568C7.46734 22.781 12.5327 22.781 15.6569 19.6568C16.7575 18.5562 17.4717 17.2118 17.7966 15.7966C17.8063 15.7544 17.8156 15.7121 17.8246 15.6698C18.3684 13.1114 17.6471 10.3334 15.6569 8.34313ZM10 12C11.1046 12 12 12.8954 12 14C12 15.1046 11.1046 16 10 16C8.89543 16 8 15.1046 8 14C8 12.8954 8.89543 12 10 12ZM7.99219 9C7.4399 9 6.99219 9.44772 6.99219 10C6.99219 10.5523 7.4399 11 7.99219 11H8.00219C8.55447 11 9.00219 10.5523 9.00219 10C9.00219 9.44772 8.55447 9 8.00219 9H7.99219ZM12 9C11.4477 9 11 9.44772 11 10C11 10.5523 11.4477 11 12 11H12.01C12.5623 11 13.01 10.5523 13.01 10C13.01 9.44772 12.5623 9 12.01 9H12ZM5.75 12C5.19772 12 4.75 12.4477 4.75 13C4.75 13.5523 5.19772 14 5.75 14H5.76C6.31228 14 6.76 13.5523 6.76 13C6.76 12.4477 6.31228 12 5.76 12H5.75ZM14.25 12C13.6977 12 13.25 12.4477 13.25 13C13.25 13.5523 13.6977 14 14.25 14H14.26C14.8123 14 15.26 13.5523 15.26 13C15.26 12.4477 14.8123 12 14.26 12H14.25ZM6.25 15.5C5.69772 15.5 5.25 15.9477 5.25 16.5C5.25 17.0523 5.69772 17.5 6.25 17.5H6.26C6.81228 17.5 7.26 17.0523 7.26 16.5C7.26 15.9477 6.81228 15.5 6.26 15.5H6.25ZM13.75 15.5C13.1977 15.5 12.75 15.9477 12.75 16.5C12.75 17.0523 13.1977 17.5 13.75 17.5H13.76C14.3123 17.5 14.76 17.0523 14.76 16.5C14.76 15.9477 14.3123 15.5 13.76 15.5H13.75ZM10 17.5C9.44772 17.5 9 17.9477 9 18.5C9 19.0523 9.44772 19.5 10 19.5H10.01C10.5623 19.5 11.01 19.0523 11.01 18.5C11.01 17.9477 10.5623 17.5 10.01 17.5H10Z" fill="black"/>
</svg>
