<svg width="24" height="24" viewBox="0 0 24 24" fill="none" xmlns="http://www.w3.org/2000/svg">
<path d="M12.7933 4.79278C14.5645 3.02155 17.4362 3.02155 19.2075 4.79278C20.9787 6.56402 20.9787 9.43576 19.2075 11.207L11.2075 19.207C9.43625 20.9782 6.56451 20.9782 4.79327 19.207C3.02203 17.4358 3.02204 14.564 4.79327 12.7928L6.08598 11.5001L8.29289 13.707C8.68342 14.0975 9.31658 14.0975 9.70711 13.707C10.0976 13.3165 10.0976 12.6833 9.70711 12.2928L7.50019 10.0859L8.58598 9.00007L10.7929 11.207C11.1834 11.5975 11.8166 11.5975 12.2071 11.207C12.5976 10.8165 12.5976 10.1833 12.2071 9.79277L10.0002 7.58586L11.086 6.50007L13.2929 8.70698C13.6834 9.09751 14.3166 9.09751 14.7071 8.70698C15.0976 8.31646 15.0976 7.6833 14.7071 7.29277L12.5002 5.08586L12.7933 4.79278Z" fill="black"/>
</svg>
