<svg width="24" height="24" viewBox="0 0 24 24" fill="none" xmlns="http://www.w3.org/2000/svg">
<path d="M17 8.64575C17.6215 7.94132 18 7.01438 18 6C18 3.79086 16.2091 2 14 2C13.6999 2 13.4068 2.03321 13.1245 2.09633C12.269 1.411 11.1819 1 10 1C8.81809 1 7.73096 1.411 6.87551 2.09633C6.59317 2.03321 6.30007 2 6 2C3.79086 2 2 3.79086 2 6C2 7.01438 2.37852 7.94139 3 8.64582C3.73294 9.47624 4.80531 10 6 10C6.30007 10 6.59317 9.96679 6.87551 9.90367C7.73096 10.589 8.81809 11 10 11C11.1819 11 12.269 10.589 13.1245 9.90367C13.4068 9.96679 13.6999 10 14 10C15.1947 10 16.2671 9.47617 17 8.64575Z" fill="black"/>
<path fill-rule="evenodd" clip-rule="evenodd" d="M3 21V10.0004C3.83566 10.6281 4.87439 11 6 11C6.21108 11 6.41969 10.9868 6.62491 10.9611C7.58619 11.6159 8.74966 12 10 12C11.2503 12 12.4138 11.6159 13.3751 10.9611C13.5803 10.9868 13.7889 11 14 11C15.1258 11 16.1647 10.6279 17.0005 10H20C21.1046 10 22 10.8954 22 12V15.4338C22 16.1363 21.6314 16.7873 21.029 17.1488L17 19.5662V21C17 22.1046 16.1046 23 15 23H5C3.89543 23 3 22.1046 3 21ZM20 15.4338L17 17.2338V12H20V15.4338ZM9 14C9 13.4477 8.55228 13 8 13C7.44772 13 7 13.4477 7 14V19C7 19.5523 7.44772 20 8 20C8.55228 20 9 19.5523 9 19V14ZM13 14C13 13.4477 12.5523 13 12 13C11.4477 13 11 13.4477 11 14V19C11 19.5523 11.4477 20 12 20C12.5523 20 13 19.5523 13 19V14Z" fill="black"/>
</svg>
