<svg width="24" height="24" viewBox="0 0 24 24" fill="none" xmlns="http://www.w3.org/2000/svg">
<path fill-rule="evenodd" clip-rule="evenodd" d="M2 4C2 2.34315 3.34315 1 5 1H21C21.3107 1 21.6037 1.1444 21.793 1.39076C21.9823 1.63713 22.0463 1.95747 21.9662 2.25766L21.2349 5H15C14.4477 5 14 5.44772 14 6C14 6.55228 14.4477 7 15 7H20.7016L20.1683 9H15C14.4477 9 14 9.44772 14 10C14 10.5523 14.4477 11 15 11H19.6349L18.5683 15H7.72448L7.05782 10H5C3.34315 10 2 8.65685 2 7V4ZM6.79115 8L6.12448 3H5C4.44772 3 4 3.44772 4 4V7C4 7.55228 4.44772 8 5 8H6.79115Z" fill="black"/>
<path fill-rule="evenodd" clip-rule="evenodd" d="M4 22C4 22.5523 4.44772 23 5 23H21C21.5523 23 22 22.5523 22 22V19C22 17.3431 20.6569 16 19 16H7C5.34315 16 4 17.3431 4 19V22ZM13 18.5C12.4477 18.5 12 18.9477 12 19.5C12 20.0523 12.4477 20.5 13 20.5H13.01C13.5623 20.5 14.01 20.0523 14.01 19.5C14.01 18.9477 13.5623 18.5 13.01 18.5H13Z" fill="black"/>
</svg>
