<svg width="24" height="24" viewBox="0 0 24 24" fill="none" xmlns="http://www.w3.org/2000/svg">
<path fill-rule="evenodd" clip-rule="evenodd" d="M8.5 3C8.5 2.44772 8.94772 2 9.5 2H14.5C15.0523 2 15.5 2.44772 15.5 3C15.5 3.55228 15.0523 4 14.5 4V6.66919C15.9934 7.53305 17 9.14804 17 11V19C17 20.6569 15.6569 22 14 22H10C8.34315 22 7 20.6569 7 19V11C7 9.14804 8.00663 7.53305 9.5 6.66919V4C8.94772 4 8.5 3.55228 8.5 3ZM12 11C12.2922 11 12.5698 11.1278 12.7598 11.3498L12.7635 11.3542L12.7716 11.3638L12.8 11.3975C12.824 11.426 12.8577 11.4666 12.8984 11.5163C12.9793 11.6153 13.0897 11.7533 13.2061 11.9076C13.3214 12.0602 13.4496 12.2382 13.5629 12.4157C13.666 12.5773 13.7973 12.8006 13.8749 13.0304C13.9567 13.2729 14 13.5328 14 13.8C14 14.8366 13.2675 16 12 16C10.7325 16 10 14.8366 10 13.8C10 13.5328 10.0433 13.2729 10.1251 13.0304C10.2027 12.8006 10.334 12.5773 10.4371 12.4157C10.5504 12.2382 10.6786 12.0602 10.7939 11.9076C10.9103 11.7533 11.0207 11.6153 11.1016 11.5163C11.1423 11.4666 11.176 11.426 11.2 11.3975L11.2284 11.3638L11.2365 11.3542L11.2402 11.3498C11.4302 11.1278 11.7078 11 12 11Z" fill="black"/>
</svg>
