<svg width="24" height="24" viewBox="0 0 24 24" fill="none" xmlns="http://www.w3.org/2000/svg">
<path d="M9 4.84591L9 5.76389C8.49738 6.21375 8.14733 6.83058 8.03705 7.52719C8.7885 7.18849 9.62224 7 10.5 7H13.5C14.3778 7 15.2115 7.18848 15.9629 7.52718C15.879 6.99723 15.6563 6.51378 15.3338 6.115C15.232 5.98919 15.1204 5.8718 15 5.76406V4.84591C15 4.04291 14.5463 3.30883 13.8281 2.94972C13.8018 2.93657 13.7812 2.91424 13.7703 2.88695L13.3927 1.94291C13.142 1.31619 12.5571 1 12 1C11.4429 1 10.858 1.31619 10.6073 1.94291L10.2297 2.88695C10.2188 2.91424 10.1982 2.93657 10.1719 2.94972C9.45369 3.30883 9 4.04291 9 4.84591Z" fill="black"/>
<path d="M18.5 20V13C18.5 12.8141 18.4899 12.6306 18.4701 12.45C18.4375 12.1523 18.3788 11.8625 18.2963 11.5829C18.258 11.4529 18.2146 11.3252 18.1662 11.2C17.7528 10.1292 16.9815 9.23696 16 8.66918C15.2646 8.24375 14.4107 8 13.5 8H10.5C9.58928 8 8.73543 8.24349 8 8.66891C7.67521 8.85679 7.37344 9.08047 7.10005 9.33411C6.60823 9.79038 6.20826 10.3445 5.93122 10.9656C5.90699 11.02 5.88369 11.0748 5.86136 11.1302C5.62829 11.7078 5.5 12.3389 5.5 13H10.5C11.0523 13 11.5 13.4477 11.5 14C11.5 14.5523 11.0523 15 10.5 15H5.5V17H10.5C11.0523 17 11.5 17.4477 11.5 18C11.5 18.5523 11.0523 19 10.5 19H5.5V20C5.5 21.6569 6.84315 23 8.5 23H15.5C17.1569 23 18.5 21.6569 18.5 20Z" fill="black"/>
</svg>
