<svg width="24" height="24" viewBox="0 0 24 24" fill="none" xmlns="http://www.w3.org/2000/svg">
<path d="M7.07812 4.56457C7.37859 4.52201 7.68567 4.5 7.99789 4.5C8.2603 4.5 8.51972 4.51563 8.77513 4.54614C9.9823 4.69034 11.0876 5.16495 11.9978 5.87627C13.1006 5.0142 14.4897 4.5 15.9979 4.5C16.2603 4.5 16.5197 4.51563 16.7751 4.54614C16.8229 4.55184 16.8704 4.55806 16.9178 4.56479C15.9626 3.1994 14.4533 2.25016 12.7158 2.04261C12.48 2.01444 12.2404 2 11.9979 2C9.96196 2 8.16288 3.01402 7.07812 4.56457Z" fill="black"/>
<path d="M11.2498 6.56309C10.5058 6.01708 9.61988 5.654 8.65779 5.53908C8.44165 5.51326 8.22184 5.5 7.99916 5.5C5.30309 5.5 3.0601 7.43988 2.58984 10H9.57645C9.77999 8.68182 10.3796 7.49439 11.2498 6.56309Z" fill="black"/>
<path d="M15.9996 5.5C16.2221 5.50002 16.4418 5.51328 16.6578 5.53908C19.0543 5.82535 20.9771 7.6516 21.4085 10H10.5907C11.0609 7.44002 13.3037 5.5002 15.9996 5.5Z" fill="black"/>
<path d="M3 11C2.44772 11 2 11.4477 2 12V12.5C2 15.8137 4.68629 18.5 8 18.5H10.0568L8.68627 20.4188C8.46855 20.7236 8.43943 21.1245 8.61084 21.4576C8.78224 21.7907 9.12542 22 9.5 22H14.5C14.8746 22 15.2178 21.7907 15.3892 21.4576C15.5606 21.1245 15.5315 20.7236 15.3137 20.4188L13.9432 18.5H16C19.3137 18.5 22 15.8137 22 12.5V12C22 11.4477 21.5523 11 21 11H3Z" fill="black"/>
</svg>
