<svg width="24" height="24" viewBox="0 0 24 24" fill="none" xmlns="http://www.w3.org/2000/svg">
<path d="M17.2422 9C17.7209 8.28495 18 7.42507 18 6.5C18 4.01472 15.9853 2 13.5 2C13.2354 2 12.9754 2.02294 12.722 2.06717C12.2604 2.14775 11.9167 2.53806 11.895 3.00615C11.8734 3.47424 12.1798 3.89457 12.632 4.01734C12.8448 4.07512 13 4.27072 13 4.5C13 4.77614 12.7761 5 12.5 5H8C6.34315 5 5 6.34315 5 8C5 8.35064 5.06015 8.68722 5.17071 9H5C3.34315 9 2 10.3431 2 12C2 13.6569 3.34315 15 5 15H19C20.6569 15 22 13.6569 22 12C22 10.3431 20.6569 9 19 9H17.2422Z" fill="black"/>
<path d="M21.9608 14.6896C21.2291 15.4946 20.1736 16 19 16H5C3.82643 16 2.77091 15.4946 2.0392 14.6896C2.38121 17.6785 4.9195 20 8 20H8.98358L8.68443 20.4188C8.4667 20.7236 8.43759 21.1246 8.60899 21.4576C8.7804 21.7907 9.12357 22.0001 9.49816 22.0001H14.4982C14.8727 22.0001 15.2159 21.7907 15.3873 21.4576C15.5587 21.1246 15.5296 20.7236 15.3119 20.4188L15.0127 20H16C19.0805 20 21.6188 17.6785 21.9608 14.6896Z" fill="black"/>
</svg>
