<svg width="24" height="24" viewBox="0 0 24 24" fill="none" xmlns="http://www.w3.org/2000/svg">
<path d="M7 2C5.73799 2 4.548 2.31772 3.64157 2.88423C2.74924 3.44194 2 4.34044 2 5.5C2 6.65956 2.74924 7.55806 3.64157 8.11577C4.548 8.68228 5.73799 9 7 9C8.26201 9 9.452 8.68228 10.3584 8.11577C10.9744 7.7308 11.5221 7.18348 11.8024 6.5H21C21.5523 6.5 22 6.05228 22 5.5C22 4.94772 21.5523 4.5 21 4.5H11.8024C11.5221 3.81652 10.9744 3.2692 10.3584 2.88423C9.452 2.31772 8.26201 2 7 2Z" fill="black"/>
<path d="M3 10C2.44772 10 2 10.4477 2 11C2 14.543 3.84298 17.6544 6.61836 19.4297L6.84811 20.4425C7.05477 21.3534 7.86446 22 8.79855 22H14.251C15.1389 22 15.9206 21.4146 16.1703 20.5625L16.3305 20.016C19.6832 18.4028 22 14.973 22 11C22 10.4477 21.5523 10 21 10H3Z" fill="black"/>
</svg>
