<svg width="24" height="24" viewBox="0 0 24 24" fill="none" xmlns="http://www.w3.org/2000/svg">
<path d="M21.1105 3.99397C21.6594 3.93298 22.055 3.43856 21.994 2.88966C21.933 2.34075 21.4386 1.94521 20.8897 2.0062L2.88966 4.0062C2.34075 4.06719 1.94521 4.56161 2.0062 5.11052C2.06719 5.65943 2.56161 6.05496 3.11052 5.99397L21.1105 3.99397Z" fill="black"/>
<path d="M21.9985 6.94468C22.0291 7.49611 21.6069 7.96797 21.0555 7.99861L3.0555 8.99861C2.50406 9.02925 2.0322 8.60705 2.00157 8.05562C1.97093 7.50419 2.39312 7.03232 2.94456 7.00169L20.9446 6.00169C21.496 5.97105 21.9679 6.39325 21.9985 6.94468Z" fill="black"/>
<path d="M3 10.0001C2.44772 10.0001 2 10.4478 2 11.0001C2 14.5431 3.84298 17.6545 6.61836 19.4298L6.84811 20.4426C7.05477 21.3535 7.86446 22.0001 8.79855 22.0001H14.251C15.1389 22.0001 15.9206 21.4147 16.1703 20.5627L16.3305 20.0161C19.6832 18.4029 22 14.9731 22 11.0001C22 10.4478 21.5523 10.0001 21 10.0001H3Z" fill="black"/>
</svg>
