<svg width="24" height="24" viewBox="0 0 24 24" fill="none" xmlns="http://www.w3.org/2000/svg">
<path d="M21.1105 3.99397C21.6594 3.93298 22.055 3.43856 21.994 2.88966C21.933 2.34075 21.4386 1.94521 20.8897 2.0062L10.8897 3.11732C10.3407 3.17831 9.94521 3.67272 10.0062 4.22163C10.0672 4.77054 10.5616 5.16607 11.1105 5.10508L21.1105 3.99397Z" fill="black"/>
<path d="M9.00009 3.00009C9.00009 2.4478 8.55237 2.00009 8.00009 2.00009C7.4478 2.00009 7.00009 2.4478 7.00009 3.00009V10.0001H6.00009V4.7924C6.00021 4.78355 6.00021 4.77468 6.00009 4.76579V3.50009C6.00009 2.9478 5.55237 2.50009 5.00009 2.50009C4.4478 2.50009 4.00009 2.9478 4.00009 3.50009V3.88282L2.88966 4.0062C2.34075 4.06719 1.94521 4.56161 2.0062 5.11052C2.06719 5.65943 2.56161 6.05496 3.11052 5.99397L4.00009 5.89513V6.94299L2.94462 7.00163C2.39318 7.03226 1.97099 7.50412 2.00163 8.05556C2.03226 8.60699 2.50412 9.02918 3.05556 8.99855L4.00009 8.94607V10.0001H3.00009C2.4478 10.0001 2.00009 10.4478 2.00009 11.0001C2.00009 14.5431 3.84307 17.6545 6.61845 19.4298L6.8482 20.4426C7.05485 21.3535 7.86455 22.0001 8.79864 22.0001H14.2511C15.139 22.0001 15.9206 21.4147 16.1704 20.5626L16.3306 20.0161C19.6833 18.4029 22.0001 14.9731 22.0001 11.0001C22.0001 10.4478 21.5524 10.0001 21.0001 10.0001H9.00009V3.00009Z" fill="black"/>
<path d="M21.0556 7.99855C21.607 7.96791 22.0292 7.49605 21.9985 6.94462C21.9679 6.39318 21.4961 5.97099 20.9446 6.00163L10.9446 6.55718C10.3932 6.58782 9.97099 7.05968 10.0016 7.61111C10.0323 8.16255 10.5041 8.58474 11.0556 8.5541L21.0556 7.99855Z" fill="black"/>
</svg>
