<svg width="24" height="24" viewBox="0 0 24 24" fill="none" xmlns="http://www.w3.org/2000/svg">
<path d="M6.99823 2C7.55051 1.99903 7.99902 2.44595 8 2.99823L8.00076 3.43049C8.00135 3.76412 8.16829 4.07548 8.44584 4.26062L9.66446 5.0735C10.4997 5.63064 11.0009 6.56865 10.9997 7.57265L10.9992 8.00114C10.9986 8.55342 10.5504 9.00062 9.99807 8.99999C9.44578 8.99936 8.99858 8.55113 8.99922 7.99884L8.99971 7.57036C9.00009 7.23569 8.83304 6.92302 8.55463 6.73731L7.33601 5.92443C6.50335 5.36902 6.00254 4.43493 6.00077 3.43403L6 3.00177C5.99902 2.44949 6.44595 2.00098 6.99823 2Z" fill="black"/>
<path d="M3 10C2.44772 10 2 10.4477 2 11C2 14.543 3.84298 17.6544 6.61836 19.4297L6.84811 20.4425C7.05477 21.3534 7.86446 22 8.79855 22H14.251C15.1389 22 15.9206 21.4146 16.1703 20.5625L16.3305 20.016C19.6832 18.4028 22 14.973 22 11C22 10.4477 21.5523 10 21 10H3Z" fill="black"/>
<path d="M13 2.99823C12.999 2.44595 12.5505 1.99903 11.9982 2C11.4459 2.00098 10.999 2.44949 11 3.00177L11.0008 3.43403C11.0025 4.43493 11.5034 5.36902 12.336 5.92443L13.5546 6.73731C13.833 6.92302 14.0001 7.23569 13.9997 7.57036L13.9992 7.99884C13.9986 8.55113 14.4458 8.99936 14.9981 8.99999C15.5504 9.00062 15.9986 8.55342 15.9992 8.00114L15.9997 7.57265C16.0009 6.56865 15.4997 5.63064 14.6645 5.0735L13.4458 4.26062C13.1683 4.07548 13.0014 3.76412 13.0008 3.43049L13 2.99823Z" fill="black"/>
</svg>
