<svg width="24" height="24" viewBox="0 0 24 24" fill="none" xmlns="http://www.w3.org/2000/svg">
<path d="M10 3C10 2.44772 10.4477 2 11 2H13C13.5523 2 14 2.44772 14 3C14 3.55228 13.5523 4 13 4H11C10.4477 4 10 3.55228 10 3Z" fill="black"/>
<path d="M3 10C2.44772 10 2 10.4477 2 11C2 14.543 3.84298 17.6544 6.61836 19.4297L6.84811 20.4425C7.05477 21.3534 7.86446 22 8.79855 22H14.251C15.1389 22 15.9206 21.4146 16.1703 20.5625L16.3305 20.016C19.6832 18.4028 22 14.973 22 11C22 10.4477 21.5523 10 21 10H3Z" fill="black"/>
<path d="M7 4.5C6.44772 4.5 6 4.94772 6 5.5C6 6.05228 6.44772 6.5 7 6.5H9C9.55228 6.5 10 6.05228 10 5.5C10 4.94772 9.55228 4.5 9 4.5H7Z" fill="black"/>
<path d="M3 8C3 7.44772 3.44772 7 4 7H6C6.55228 7 7 7.44772 7 8C7 8.55228 6.55228 9 6 9H4C3.44772 9 3 8.55228 3 8Z" fill="black"/>
<path d="M11 7C10.4477 7 10 7.44772 10 8C10 8.55228 10.4477 9 11 9H13C13.5523 9 14 8.55228 14 8C14 7.44772 13.5523 7 13 7H11Z" fill="black"/>
<path d="M17 8C17 7.44772 17.4477 7 18 7H20C20.5523 7 21 7.44772 21 8C21 8.55228 20.5523 9 20 9H18C17.4477 9 17 8.55228 17 8Z" fill="black"/>
<path d="M15 4.5C14.4477 4.5 14 4.94772 14 5.5C14 6.05228 14.4477 6.5 15 6.5H17C17.5523 6.5 18 6.05228 18 5.5C18 4.94772 17.5523 4.5 17 4.5H15Z" fill="black"/>
</svg>
