<svg width="24" height="24" viewBox="0 0 24 24" fill="none" xmlns="http://www.w3.org/2000/svg">
<path d="M10.0568 18.5L8.68627 20.4188C8.46854 20.7236 8.43943 21.1245 8.61083 21.4576C8.78224 21.7907 9.12541 22 9.5 22H14.5C14.8746 22 15.2178 21.7907 15.3892 21.4576C15.5606 21.1245 15.5315 20.7236 15.3137 20.4188L13.9432 18.5H16C19.3137 18.5 22 15.8137 22 12.5V12C22 11.4477 21.5523 11 21 11H3C2.44772 11 2 11.4477 2 12V12.5C2 15.8137 4.68629 18.5 8 18.5H10.0568Z" fill="black"/>
<path d="M3.05493 10H20.9451C20.4476 5.50005 16.6326 2 12 2C7.36745 2 3.55237 5.50005 3.05493 10Z" fill="black"/>
</svg>
