<svg width="24" height="24" viewBox="0 0 24 24" fill="none" xmlns="http://www.w3.org/2000/svg">
<path d="M15.7324 20H19.9981C20.5504 20 20.9981 19.5523 20.9981 19V10.916C22.1482 10.62 22.9981 9.57589 22.9981 8.33333C22.9981 5.9401 21.058 4 18.6647 4H15.7765C17.1231 4.96808 18 6.54829 18 8.33333C18 9.75907 17.1869 10.9931 16 11.5999V19C16 19.3643 15.9026 19.7058 15.7324 20Z" fill="black"/>
<path d="M12.6667 4H5.33333C2.9401 4 1 5.9401 1 8.33333C1 9.57589 1.84985 10.62 3 10.916V19C3 19.5523 3.44772 20 4 20H14C14.5523 20 15 19.5523 15 19V10.916C16.1502 10.62 17 9.57589 17 8.33333C17 5.9401 15.0599 4 12.6667 4Z" fill="black"/>
</svg>
