<svg width="24" height="24" viewBox="0 0 24 24" fill="none" xmlns="http://www.w3.org/2000/svg">
<path fill-rule="evenodd" clip-rule="evenodd" d="M2 7.8C2 4.59675 4.59675 2 7.8 2H16.2C19.4033 2 22 4.59675 22 7.8V8.6C22 10.3424 20.6893 11.7787 19 11.9767V21C19 21.5523 18.5523 22 18 22H6C5.44772 22 5 21.5523 5 21V11.9767C3.31073 11.7787 2 10.3424 2 8.6V7.8ZM12.7071 8.29289C12.3166 7.90237 11.6834 7.90237 11.2929 8.29289L8.29289 11.2929C7.90237 11.6834 7.90237 12.3166 8.29289 12.7071L11.2929 15.7071C11.6834 16.0976 12.3166 16.0976 12.7071 15.7071L15.7071 12.7071C16.0976 12.3166 16.0976 11.6834 15.7071 11.2929L12.7071 8.29289Z" fill="black"/>
</svg>
