<svg width="24" height="24" viewBox="0 0 24 24" fill="none" xmlns="http://www.w3.org/2000/svg">
<path d="M7 2C7.45887 2 7.85885 2.3123 7.97014 2.75746L8.34887 4.27239C8.56826 5.14993 7.90455 6 7 6C6.09545 6 5.43174 5.14993 5.65113 4.27239L6.02986 2.75746C6.14115 2.3123 6.54113 2 7 2Z" fill="black"/>
<path d="M12 2C12.4589 2 12.8589 2.3123 12.9701 2.75746L13.3489 4.27239C13.5683 5.14993 12.9045 6 12 6C11.0955 6 10.4317 5.14994 10.6511 4.27239L11.0299 2.75746C11.1411 2.3123 11.5411 2 12 2Z" fill="black"/>
<path d="M17.9701 2.75746C17.8589 2.3123 17.4589 2 17 2C16.5411 2 16.1411 2.3123 16.0299 2.75746L15.6511 4.27239C15.4317 5.14994 16.0955 6 17 6C17.9045 6 18.5683 5.14993 18.3489 4.27239L17.9701 2.75746Z" fill="black"/>
<path d="M7 7C7.55228 7 8 7.44772 8 8V10H11V8C11 7.44772 11.4477 7 12 7C12.5523 7 13 7.44772 13 8V10H16V8C16 7.44772 16.4477 7 17 7C17.5523 7 18 7.44772 18 8V10H19C20.6569 10 22 11.3431 22 13V15.769C21.654 15.9381 21.3206 16 21 16C20.2148 16 19.3532 15.6285 18.416 14.2226C18.3233 14.0836 18.1672 14 18 14C17.8328 14 17.6767 14.0836 17.584 14.2226C16.6468 15.6285 15.7852 16 15 16C14.2148 16 13.3532 15.6285 12.416 14.2226C12.3233 14.0836 12.1672 14 12 14C11.8328 14 11.6767 14.0836 11.584 14.2226C10.6468 15.6285 9.78524 16 9 16C8.21476 16 7.35323 15.6285 6.41603 14.2226C6.32329 14.0836 6.16718 14 6 14C5.83282 14 5.67671 14.0836 5.58397 14.2226C4.64677 15.6285 3.78524 16 3 16C2.67937 16 2.34603 15.9381 2 15.769V13C2 11.3431 3.34315 10 5 10H6V8C6 7.44772 6.44772 7 7 7Z" fill="black"/>
<path d="M2 16.8456V21C2 21.5523 2.44772 22 3 22H21C21.5523 22 22 21.5523 22 21V16.8456C21.6726 16.951 21.3393 17 21 17C19.9423 17 18.9424 16.5235 18 15.348C17.0576 16.5235 16.0577 17 15 17C13.9423 17 12.9424 16.5235 12 15.348C11.0576 16.5235 10.0577 17 9 17C7.94229 17 6.94243 16.5235 6 15.348C5.05757 16.5235 4.05771 17 3 17C2.66072 17 2.32739 16.951 2 16.8456Z" fill="black"/>
</svg>
