<svg width="24" height="24" viewBox="0 0 24 24" fill="none" xmlns="http://www.w3.org/2000/svg">
<path fill-rule="evenodd" clip-rule="evenodd" d="M2 17.9996C2 19.6565 3.34315 20.9996 5 20.9996H19C20.6569 20.9996 22 19.6565 22 17.9996V10.9996C22 6.69271 18.5969 3.18111 14.3324 3.00644C13.918 2.98947 13.5321 3.11211 13.2174 3.31233L2.46312 10.156C2.17468 10.3395 2 10.6577 2 10.9996V17.9996ZM20 11.9996H4V14.4998H20V11.9996ZM20 16.4998H4V17.9996C4 18.5519 4.44772 18.9996 5 18.9996H19C19.5523 18.9996 20 18.5519 20 17.9996V16.4998Z" fill="black"/>
</svg>
