<svg width="24" height="24" viewBox="0 0 24 24" fill="none" xmlns="http://www.w3.org/2000/svg">
<path fill-rule="evenodd" clip-rule="evenodd" d="M20 18.5V5.5C20 4.74631 19.5695 4.16346 19.0951 3.76283C18.616 3.35829 17.982 3.03902 17.2861 2.79049C15.8856 2.29032 14.0166 2 12 2C9.98341 2 8.1144 2.29032 6.71392 2.79049C6.01803 3.03902 5.38405 3.35829 4.90494 3.76283C4.43048 4.16346 4 4.74631 4 5.5V18.5C4 19.2537 4.43048 19.8365 4.90494 20.2372C5.38405 20.6417 6.01803 20.961 6.71392 21.2095C8.1144 21.7097 9.98341 22 12 22C14.0166 22 15.8856 21.7097 17.2861 21.2095C17.982 20.961 18.616 20.6417 19.0951 20.2372C19.5695 19.8365 20 19.2537 20 18.5ZM6.19525 5.70906C6.07042 5.60366 6.02321 5.53319 6.00633 5.5C6.02321 5.46681 6.07042 5.39634 6.19525 5.29094C6.42458 5.0973 6.81573 4.87785 7.38659 4.67397C8.5196 4.26933 10.1506 4 12 4C13.8494 4 15.4804 4.26933 16.6134 4.67397C17.1843 4.87785 17.5754 5.0973 17.8048 5.29094C17.9296 5.39634 17.9768 5.46681 17.9937 5.5C17.9768 5.53319 17.9296 5.60366 17.8048 5.70906C17.5754 5.9027 17.1843 6.12215 16.6134 6.32603C15.4804 6.73067 13.8494 7 12 7C10.1506 7 8.5196 6.73067 7.38659 6.32603C6.81573 6.12215 6.42458 5.9027 6.19525 5.70906ZM14.8951 14.2891C16.0887 14.1073 17.1603 13.8115 18 13.4172V18.486C17.9909 18.5096 17.9514 18.5852 17.8048 18.7091C17.5754 18.9027 17.1843 19.1221 16.6134 19.326C15.4804 19.7307 13.8494 20 12 20C10.1506 20 8.5196 19.7307 7.38659 19.326C6.81573 19.1221 6.42458 18.9027 6.19525 18.7091C6.04856 18.5852 6.00906 18.5096 6 18.486V13.4172C6.83966 13.8115 7.91131 14.1073 9.10487 14.2891C9.45131 15.5631 10.6162 16.5 12 16.5C13.3838 16.5 14.5487 15.5631 14.8951 14.2891ZM11.0013 13.4475C11.0282 12.9201 11.4653 12.5 12 12.5C12.5347 12.5 12.9718 12.9201 12.9987 13.4475C12.9996 13.4648 13 13.4823 13 13.5C13 14.0523 12.5523 14.5 12 14.5C11.4477 14.5 11 14.0523 11 13.5C11 13.4823 11.0004 13.4648 11.0013 13.4475Z" fill="black"/>
</svg>
