<svg width="24" height="24" viewBox="0 0 24 24" fill="none" xmlns="http://www.w3.org/2000/svg">
<path fill-rule="evenodd" clip-rule="evenodd" d="M13.2174 3.31281C13.5321 3.11259 13.918 2.98996 14.3324 3.00693C18.5969 3.1816 22 6.6932 22 11.0001V12.0001H14.01C14.01 11.4478 13.5623 11.0001 13.01 11.0001H13C12.4477 11.0001 12 11.4478 12 12.0001H2V11.0001C2 10.6582 2.17468 10.34 2.46312 10.1565L13.2174 3.31281ZM10 8.00012C10 7.44784 10.4477 7.00012 11 7.00012H11.01C11.5623 7.00012 12.01 7.44784 12.01 8.00012C12.01 8.55241 11.5623 9.00012 11.01 9.00012H11C10.4477 9.00012 10 8.55241 10 8.00012ZM17 6.00012C16.4477 6.00012 16 6.44784 16 7.00012C16 7.55241 16.4477 8.00012 17 8.00012H17.01C17.5623 8.00012 18.01 7.55241 18.01 7.00012C18.01 6.44784 17.5623 6.00012 17.01 6.00012H17Z" fill="black"/>
<path fill-rule="evenodd" clip-rule="evenodd" d="M22 13.0001V18.0001C22 19.657 20.6569 21.0001 19 21.0001H5C3.34315 21.0001 2 19.657 2 18.0001V13.0001H6C5.44772 13.0001 5 13.4478 5 14.0001C5 14.5524 5.44772 15.0001 6 15.0001H6.01C6.56228 15.0001 7.01 14.5524 7.01 14.0001C7.01 13.4478 6.56228 13.0001 6.01 13.0001H22ZM16 16.0001C16 15.4478 16.4477 15.0001 17 15.0001H17.01C17.5623 15.0001 18.01 15.4478 18.01 16.0001C18.01 16.5524 17.5623 17.0001 17.01 17.0001H17C16.4477 17.0001 16 16.5524 16 16.0001ZM10 16.0001C9.44772 16.0001 9 16.4478 9 17.0001C9 17.5524 9.44772 18.0001 10 18.0001H10.01C10.5623 18.0001 11.01 17.5524 11.01 17.0001C11.01 16.4478 10.5623 16.0001 10.01 16.0001H10Z" fill="black"/>
</svg>
