<svg width="24" height="24" viewBox="0 0 24 24" fill="none" xmlns="http://www.w3.org/2000/svg">
<path fill-rule="evenodd" clip-rule="evenodd" d="M8.34741 3.86194C8.80007 2.67055 10.1416 2.08172 11.3249 2.55504C12.5632 3.05033 13.1137 4.49818 12.5172 5.69102L4.79849 21.1284C4.48446 21.7564 3.7564 22.058 3.09025 21.8359C2.32926 21.5823 1.93254 20.7461 2.21744 19.9962L8.34741 3.86194Z" fill="black"/>
<path d="M20.8718 4.45707C19.822 3.40727 18.0701 3.59959 17.273 4.85213L7.81552 19.7139C7.47121 20.2549 7.54886 20.9625 8.0023 21.416C8.57897 21.9928 9.52895 21.9402 10.0385 21.3033L21.043 7.54775C21.7817 6.62438 21.708 5.29323 20.8718 4.45707Z" fill="black"/>
</svg>
