<svg width="24" height="24" viewBox="0 0 24 24" fill="none" xmlns="http://www.w3.org/2000/svg">
<path d="M18.7667 3.70256C18.9273 3.47767 18.8758 3.1635 18.6399 3.0196C17.5793 2.3727 16.3332 2 15 2C7.8203 2 2 7.8203 2 15C2 16.3894 2.40479 17.6843 3.10288 18.7731C3.29123 19.0668 3.71376 19.0399 3.89312 18.7405L5.97786 15.2611C7.16752 13.2766 8.9527 11.7177 11.0794 10.8062L12.5325 10.1835C14.0471 9.53436 15.3544 8.48189 16.3119 7.1408L18.7667 3.70256Z" fill="black"/>
<path d="M5.25695 20.3554C5.12163 20.5813 5.18369 20.8751 5.40957 21.0103C6.45935 21.6388 7.68749 22 9 22C16.1797 22 22 16.1797 22 9C22 7.61524 21.5979 6.32439 20.9041 5.23784C20.7243 4.95631 20.3231 4.96461 20.129 5.23646L17.9396 8.30294C16.7693 9.94205 15.1715 11.2284 13.3203 12.0218L11.8673 12.6445C10.1272 13.3902 8.66662 14.6657 7.69326 16.2894L5.25695 20.3554Z" fill="black"/>
</svg>
