<svg width="24" height="24" viewBox="0 0 24 24" fill="none" xmlns="http://www.w3.org/2000/svg">
<path d="M21.9973 8.91611C22.1046 5.00002 19 1.89545 15.0839 2.0027C14.3269 2.02343 13.6151 2.25199 13.0046 2.63251C12.7273 2.80531 12.7457 3.19616 13.0133 3.38357L14.6989 4.56403C15.5152 5.13568 16.1459 5.92927 16.5225 6.85676L16.8165 7.58099C17.1662 8.44256 17.7843 9.15538 18.5831 9.61997L20.8524 10.9399C21.0777 11.0709 21.369 11.0082 21.4935 10.7793C21.7982 10.2194 21.979 9.58546 21.9973 8.91611Z" fill="black"/>
<path d="M12.2032 4.03711C11.9797 3.88059 11.669 3.9309 11.5353 4.16872C11.2132 4.74125 11.0216 5.39375 11.0027 6.08391C10.8954 10 14 13.1046 17.9161 12.9973C18.6846 12.9763 19.4064 12.7411 20.023 12.3502C20.3106 12.1679 20.2713 11.7587 19.977 11.5875L18.0803 10.4844C17.0891 9.90791 16.3225 9.02288 15.8899 7.95713L15.5959 7.23289C15.2914 6.48279 14.7827 5.84349 14.1253 5.38316L12.2032 4.03711Z" fill="black"/>
<path d="M6.37122 10.4653C6.30453 10.2132 6.05408 10.0516 5.80403 10.1256C5.19395 10.3063 4.61907 10.6264 4.1337 11.0859C1.28877 13.7791 1.28877 18.1696 4.1337 20.8629C4.68318 21.3831 5.34738 21.7246 6.0475 21.8874C6.3658 21.9615 6.62933 21.6721 6.5726 21.3502L6.21529 19.3233C6.04229 18.3418 6.15746 17.3347 6.54705 16.4126L6.85127 15.6926C7.21318 14.8361 7.28018 13.895 7.04386 13.0017L6.5453 11.117C6.54082 11.1043 6.53681 11.0913 6.5333 11.078L6.37122 10.4653Z" fill="black"/>
<path d="M7.95418 10.0528C7.62205 9.9787 7.36076 10.2957 7.44779 10.6247L7.48975 10.7833C7.49423 10.796 7.49824 10.809 7.50175 10.8223L8.01061 12.7459C8.30384 13.8544 8.2201 15.0223 7.77242 16.0818L7.4682 16.8018C7.15312 17.5476 7.06079 18.3593 7.20011 19.1497L7.60767 21.4618C7.65503 21.7304 7.91017 21.9145 8.17288 21.841C8.80606 21.664 9.40357 21.338 9.9054 20.8629C12.7503 18.1696 12.7503 13.7791 9.9054 11.0859C9.34614 10.5564 8.66804 10.2121 7.95418 10.0528Z" fill="black"/>
</svg>
