<svg width="24" height="24" viewBox="0 0 24 24" fill="none" xmlns="http://www.w3.org/2000/svg">
<path fill-rule="evenodd" clip-rule="evenodd" d="M18.1523 20.8631C20.43 19.5304 22 17.2049 22 14.5C22 12.1104 20.7747 10.0167 18.9185 8.6422L20.9046 4.42617C21.0506 4.1164 21.0279 3.75351 20.8444 3.46436C20.661 3.1752 20.3424 3 20 3H6C3.79086 3 2 4.79086 2 7V9C2 9.55228 2.44772 10 3 10C3.55228 10 4 9.55228 4 9V7C4 5.89543 4.89543 5 6 5H6.36506L8.07811 8.64471C6.22384 10.0192 5 12.1118 5 14.5C5 17.2049 6.56999 19.5304 8.84775 20.8631C9.00095 20.9528 9.17525 21 9.35276 21H17.6472C17.8247 21 17.999 20.9528 18.1523 20.8631ZM9.634 10C8.46839 10.745 7.62431 11.8002 7.23695 13H19.7631C19.3757 11.8002 18.5316 10.745 17.366 10H9.634Z" fill="black"/>
</svg>
