<svg width="24" height="24" viewBox="0 0 24 24" fill="none" xmlns="http://www.w3.org/2000/svg">
<path d="M13.7808 2C12.863 2 12.0631 2.6246 11.8405 3.51493L11.2192 6H5C4.44772 6 4 6.44772 4 7C4 7.55228 4.44772 8 5 8H19C19.5523 8 20 7.55228 20 7C20 6.44772 19.5523 6 19 6H13.2808L13.7808 4L15 4C15.5523 4 16 3.55228 16 3C16 2.44772 15.5523 2 15 2H13.7808Z" fill="black"/>
<path fill-rule="evenodd" clip-rule="evenodd" d="M5.20703 9L6.3127 19.3196C6.47334 20.8189 7.7205 21.9619 9.22024 21.999C9.24581 21.9997 9.27145 22 9.29716 22H14.7028C16.236 22 17.5224 20.844 17.6858 19.3196L18.327 13.3348L18.3254 13.3352L18.4387 12.278L18.4403 12.2777L18.7914 9H5.20703ZM9.61021 16.9159L8.10322 17.2576L8.21048 18.2587L9.83139 17.8911C11.099 17.6036 12.2077 16.8403 12.9287 15.7588C13.4945 14.9102 14.3582 14.3049 15.349 14.0627L16.2599 13.84L16.3731 12.7829L15.1115 13.0913C13.8773 13.393 12.8014 14.147 12.0967 15.2041C11.5179 16.0723 10.6278 16.6851 9.61021 16.9159Z" fill="black"/>
</svg>
