<svg width="24" height="24" viewBox="0 0 24 24" fill="none" xmlns="http://www.w3.org/2000/svg">
<path fill-rule="evenodd" clip-rule="evenodd" d="M14.7344 22C16.2389 22 17.5093 20.886 17.708 19.3973L19.0385 11.6697L19.6704 8H4.32964L5.82236 16.6697L6.29198 19.3973C6.49067 20.886 7.76106 22 9.26556 22H14.7344ZM17.1244 11H6.8756L7.73648 16H16.2635L17.1244 11Z" fill="black"/>
<path d="M6 2C5.56957 2 5.18743 2.27543 5.05132 2.68377L4.27924 5H4C3.44772 5 3 5.44772 3 6C3 6.55228 3.44772 7 4 7H4.15746H19.8425H20C20.5523 7 21 6.55228 21 6C21 5.44772 20.5523 5 20 5H19.7208L18.9487 2.68377C18.8126 2.27543 18.4304 2 18 2H6Z" fill="black"/>
</svg>
