<svg width="24" height="24" viewBox="0 0 24 24" fill="none" xmlns="http://www.w3.org/2000/svg">
<path d="M11.8405 3.51493C12.0631 2.6246 12.863 2 13.7808 2H15C15.5523 2 16 2.44772 16 3C16 3.55228 15.5523 4 15 4L13.7808 4L13.2808 6H19C19.5523 6 20 6.44772 20 7C20 7.55228 19.5523 8 19 8H5C4.44772 8 4 7.55228 4 7C4 6.44772 4.44772 6 5 6H11.2192L11.8405 3.51493Z" fill="black"/>
<path d="M5.20856 9L6.31423 19.3196C6.47756 20.844 7.76402 22 9.29716 22H14.7028C16.236 22 17.5224 20.844 17.6858 19.3196L18.7914 9H5.20856Z" fill="black"/>
</svg>
