<svg width="24" height="24" viewBox="0 0 24 24" fill="none" xmlns="http://www.w3.org/2000/svg">
<path d="M11.5 3C11.5 2.44772 11.9477 2 12.5 2C15.2048 2 17.4525 3.95171 17.9135 6.52418C19.6516 6.72877 21 8.20692 21 10C21 11.933 19.433 13.5 17.5 13.5H6.5C4.567 13.5 3 11.933 3 10C3 8.18861 4.37604 6.69862 6.13982 6.51831C6.56447 5.06325 7.90708 4 9.5 4H12.5C11.9477 4 11.5 3.55228 11.5 3Z" fill="black"/>
<path d="M5 14.5C4.70605 14.5 4.42698 14.6293 4.23698 14.8536C4.04698 15.0779 3.96528 15.3744 4.01361 15.6644L4.73507 19.4932C4.97617 20.9398 6.22774 22 7.69425 22H9.5816L8.9566 14.5H5Z" fill="black"/>
<path d="M9.96007 14.5L10.5851 22H13.4149L14.0399 14.5H9.96007Z" fill="black"/>
<path d="M15.0434 14.5L14.4184 22H16.3057C17.7723 22 19.0238 20.9398 19.2649 19.4932L19.9864 15.6644C20.0347 15.3744 19.953 15.0779 19.763 14.8536C19.573 14.6293 19.294 14.5 19 14.5H15.0434Z" fill="black"/>
</svg>
