<svg width="24" height="24" viewBox="0 0 24 24" fill="none" xmlns="http://www.w3.org/2000/svg">
<path d="M18.3242 7.34921L19.0884 10.7878L16.6613 10.0077C15.5654 9.65547 14.3687 9.82228 13.4109 10.4608C12.5359 11.0441 11.4065 11.083 10.4934 10.5613L10.2703 10.4338C9.17882 9.81008 7.86505 9.70912 6.69109 10.1587L5.71352 10.5331C5.70552 10.5362 5.69763 10.5394 5.68988 10.5428L4.89875 10.8458L5.67578 7.34921C5.98081 5.9766 7.19825 5 8.60434 5H15.3957C16.8018 5 18.0192 5.9766 18.3242 7.34921Z" fill="black"/>
<path d="M16.3553 10.9597L19.3397 11.919L20.2466 16H3.75338L4.6388 12.0156L5.0733 11.8492C5.08069 11.8468 5.08806 11.8442 5.0954 11.8413L6.07297 11.467C6.08097 11.4639 6.08886 11.4606 6.09661 11.4572L7.04874 11.0926C7.94266 10.7502 8.94304 10.8271 9.77416 11.302L9.99728 11.4295C11.2392 12.1392 12.7755 12.0863 13.9656 11.2928C14.6698 10.8234 15.5496 10.7008 16.3553 10.9597Z" fill="black"/>
<path d="M3 17C2.44772 17 2 17.4477 2 18C2 18.5523 2.44772 19 3 19H21C21.5523 19 22 18.5523 22 18C22 17.4477 21.5523 17 21 17H3Z" fill="black"/>
</svg>
