<svg width="24" height="24" viewBox="0 0 24 24" fill="none" xmlns="http://www.w3.org/2000/svg">
<path d="M15 2C11.134 2 8 5.13401 8 9V12.5858L6.29351 14.2923C5.17838 13.7596 3.80232 13.955 2.87868 14.8787C1.70711 16.0503 1.70711 17.9497 2.87868 19.1213C3.24004 19.4827 3.67144 19.7327 4.12889 19.8711C4.26734 20.3286 4.51732 20.76 4.87868 21.1213C6.05025 22.2929 7.94975 22.2929 9.12132 21.1213C10.045 20.1977 10.2404 18.8216 9.70772 17.7065L11.4142 16H15C18.866 16 22 12.866 22 9C22 5.13401 18.866 2 15 2Z" fill="black"/>
</svg>
