<svg width="24" height="24" viewBox="0 0 24 24" fill="none" xmlns="http://www.w3.org/2000/svg">
<path fill-rule="evenodd" clip-rule="evenodd" d="M21.9487 11.6838C22.0171 11.8891 22.0171 12.111 21.9487 12.3162C20.8457 15.6251 17.5267 19 13 19C11.1635 19 9.84115 18.7395 8.7539 18.1182C7.92451 17.6443 7.29893 16.9952 6.71095 16.2626L3.44725 17.8944C3.0759 18.0801 2.62845 18.017 2.32293 17.7359C2.01741 17.4548 1.91737 17.0141 2.07156 16.6286L3.92301 12L2.07156 7.37139C1.91737 6.9859 2.01741 6.54524 2.32293 6.26412C2.62845 5.983 3.0759 5.9199 3.44725 6.10557L6.71095 7.73742C7.29893 7.00481 7.92451 6.35569 8.7539 5.88176C9.84115 5.26047 11.1635 5 13 5C17.5267 5 20.8458 8.37486 21.9487 11.6838ZM13.2071 9.70711C13.5976 9.31658 13.5976 8.68342 13.2071 8.29289C12.8166 7.90237 12.1834 7.90237 11.7929 8.29289L9.79289 10.2929C9.40237 10.6834 9.40237 11.3166 9.79289 11.7071C10.1834 12.0976 10.8166 12.0976 11.2071 11.7071L13.2071 9.70711ZM17.2071 12.2929C17.5976 12.6834 17.5976 13.3166 17.2071 13.7071L15.2071 15.7071C14.8166 16.0976 14.1834 16.0976 13.7929 15.7071C13.4024 15.3166 13.4024 14.6834 13.7929 14.2929L15.7929 12.2929C16.1834 11.9024 16.8166 11.9024 17.2071 12.2929ZM16.2071 10.7071C16.5976 10.3166 16.5976 9.68342 16.2071 9.29289C15.8166 8.90237 15.1834 8.90237 14.7929 9.29289L10.7929 13.2929C10.4024 13.6834 10.4024 14.3166 10.7929 14.7071C11.1834 15.0976 11.8166 15.0976 12.2071 14.7071L16.2071 10.7071Z" fill="black"/>
</svg>
