<svg width="24" height="24" viewBox="0 0 24 24" fill="none" xmlns="http://www.w3.org/2000/svg">
<path d="M8.34372 3.83276C8.69356 2.87157 9.76986 1.95743 10.9927 2.40249C12.2154 2.84755 12.4523 4.23965 12.1025 5.20084L11.2474 7.55007C11.0018 8.22486 10.3982 8.87645 9.63722 9.05086L9.29207 9.99995H8V12C8 12.5522 8.44772 13 9 13C9.55228 13 10 12.5522 10 12V10.0002H12.5857L15.5507 7.03485C15.3889 6.27242 15.7241 5.4517 16.2311 4.94471L17.9989 3.17694C18.7221 2.45366 20.0839 2.08003 21.0041 3.00017C21.9242 3.9203 21.5506 5.28209 20.8273 6.00537L19.0595 7.77314C18.5509 8.28177 17.7265 8.61749 16.962 8.45196L15.414 10.0002H21C21.5523 10.0002 22 10.4479 22 11.0002C22 11.5525 21.5523 12.0002 21 12.0002H20V14.5002C20 16.2772 19.2275 17.8737 18 18.9724V21.0002C18 21.5525 17.5523 22.0002 17 22.0002C16.4477 22.0002 16 21.5525 16 21.0002V20.1588C15.3744 20.3799 14.7013 20.5002 14 20.5002H8C7.29873 20.5002 6.62556 20.3799 6 20.1588V21.0002C6 21.5525 5.55228 22.0002 5 22.0002C4.44772 22.0002 4 21.5525 4 21.0002V18.9724C2.7725 17.8737 2 16.2772 2 14.5002V11.0002C2 10.4479 2.44772 10.0002 3 10.0002H5V13C5 13.5523 5.44772 14 6 14C6.55228 14 7 13.5523 7 13V10.0002H7.16384L7.75775 8.36705C7.28665 7.74427 7.24302 6.8569 7.48867 6.18199L8.34372 3.83276Z" fill="black"/>
</svg>
