<svg width="24" height="24" viewBox="0 0 24 24" fill="none" xmlns="http://www.w3.org/2000/svg">
<path d="M12 6C11.7282 6 11.4681 6.11063 11.2796 6.30643L11.2746 6.31162L11.2631 6.32369L11.2219 6.36711C11.187 6.40416 11.1375 6.45702 11.0778 6.52202C10.9587 6.6515 10.7965 6.83168 10.6258 7.03278C10.4564 7.23219 10.2705 7.46164 10.1078 7.68832C9.95783 7.89732 9.77828 8.17068 9.6741 8.4452C9.56112 8.74292 9.5 9.06561 9.5 9.4C9.5 10.7742 10.5595 12 12 12C13.4405 12 14.5 10.7742 14.5 9.4C14.5 9.06561 14.4389 8.74292 14.3259 8.4452C14.2217 8.17068 14.0422 7.89732 13.8922 7.68832C13.7295 7.46164 13.5436 7.23219 13.3743 7.03278C13.2035 6.83168 13.0413 6.6515 12.9222 6.52202C12.8625 6.45702 12.813 6.40416 12.7781 6.36711L12.7369 6.32369L12.7254 6.31162L12.7204 6.30643C12.5319 6.11063 12.2718 6 12 6Z" fill="black"/>
<path fill-rule="evenodd" clip-rule="evenodd" d="M5 2C4.71556 2 4.44458 2.12113 4.25488 2.33308C4.06518 2.54503 3.97471 2.82773 4.00612 3.11043L5.80844 19.3313C5.97725 20.8506 7.26144 22 8.79009 22H15.2099C16.7386 22 18.0228 20.8506 18.1916 19.3313L19.9939 3.11043C20.0253 2.82773 19.9348 2.54503 19.7451 2.33308C19.5554 2.12113 19.2844 2 19 2H5ZM7.37541 15.3233L6.11727 4H17.8827L16.6247 15.3222L16.1106 15.515C15.438 15.7672 14.6908 15.728 14.0484 15.4068C12.7581 14.7617 11.2393 14.7617 9.94904 15.4068C9.30658 15.728 8.55936 15.7672 7.8868 15.515L7.37541 15.3233Z" fill="black"/>
</svg>
