<svg width="24" height="24" viewBox="0 0 24 24" fill="none" xmlns="http://www.w3.org/2000/svg">
<path fill-rule="evenodd" clip-rule="evenodd" d="M5 2C4.71556 2 4.44458 2.12113 4.25488 2.33308C4.06518 2.54503 3.97471 2.82773 4.00612 3.11043L5.80844 19.3313C5.97725 20.8506 7.26144 22 8.79009 22H15.2099C16.7386 22 18.0228 20.8506 18.1916 19.3313L19.9939 3.11043C20.0253 2.82773 19.9348 2.54503 19.7451 2.33308C19.5554 2.12113 19.2844 2 19 2H5ZM6.49009 7.35542L6.11727 4H17.8827L17.5098 7.35619L16.0936 7.95367C15.4226 8.23674 14.6614 8.21221 14.01 7.88653C12.7452 7.25414 11.2565 7.25414 9.99174 7.88653C9.34038 8.21221 8.57916 8.23674 7.90818 7.95367L6.49009 7.35542Z" fill="black"/>
</svg>
