<svg width="24" height="24" viewBox="0 0 24 24" fill="none" xmlns="http://www.w3.org/2000/svg">
<path fill-rule="evenodd" clip-rule="evenodd" d="M4.00001 7C3.71388 7 3.44146 7.12256 3.25167 7.33668C3.06188 7.55079 2.9729 7.83595 3.00723 8.12001L4.36591 19.36C4.54804 20.8667 5.82662 22 7.34423 22H11.6558C13.1734 22 14.452 20.8667 14.6341 19.36L15.9928 8.12001C16.0271 7.83595 15.9381 7.55079 15.7483 7.33668C15.5585 7.12256 15.2861 7 15 7H4.00001ZM5.61168 13H13.3883L13.8718 9H5.12816L5.61168 13Z" fill="black"/>
<path d="M12.3368 6C12.8985 4.81753 14.1038 4 15.5 4C17.433 4 19 5.567 19 7.5C19 9.02027 18.0307 10.3142 16.6764 10.7974L16.4194 12.9235C19.0193 12.486 21 10.2243 21 7.5C21 4.46243 18.5376 2 15.5 2C12.9824 2 10.86 3.6915 10.207 6H12.3368Z" fill="black"/>
</svg>
