<svg width="24" height="24" viewBox="0 0 24 24" fill="none" xmlns="http://www.w3.org/2000/svg">
<path fill-rule="evenodd" clip-rule="evenodd" d="M11 2V7C11 7.55228 11.4477 8 12 8C12.5523 8 13 7.55228 13 7V5.86622C13.1471 5.9513 13.3179 6 13.5 6C14.0523 6 14.5 5.55228 14.5 5V2H18.0008C19.6576 2 21.0008 3.34315 21.0008 5C21.0008 6.03917 20.4724 6.95494 19.6697 7.49331C20.9925 8.67043 21.7568 10.4352 21.4856 12.3894C21.3497 13.369 21.1809 14.3646 20.973 15.2329C20.5988 16.7955 19.89 18.8098 19.4214 20.0767C18.988 21.2487 17.8694 22 16.6414 22H7.35956C6.13156 22 5.01292 21.2487 4.57951 20.0767C4.11099 18.8098 3.40212 16.7955 3.02796 15.2329C2.82006 14.3646 2.65126 13.369 2.51533 12.3894C2.24413 10.435 3.00851 8.6702 4.33152 7.49309C3.52898 6.95468 3.00077 6.03903 3.00077 5C3.00077 3.34315 4.34391 2 6.00077 2H11ZM19.48 11H4.51788C4.45218 11.3578 4.44178 11.7324 4.49481 12.1145C4.62623 13.0616 4.78459 13.9867 4.97145 14.7671C5.06336 15.151 5.17866 15.5691 5.30721 16H18.6907C18.8192 15.5691 18.9345 15.151 19.0264 14.7671C19.2133 13.9867 19.3716 13.0616 19.5031 12.1145C19.5561 11.7324 19.5457 11.3578 19.48 11Z" fill="black"/>
</svg>
