<svg width="24" height="24" viewBox="0 0 24 24" fill="none" xmlns="http://www.w3.org/2000/svg">
<path d="M12.9936 3.57937L12.7071 3.29289C11.7643 2.35008 10.2357 2.35009 9.29289 3.29289L3.29289 9.29289C2.35008 10.2357 2.35008 11.7643 3.29289 12.7071L3.57937 12.9936L12.9936 3.57937Z" fill="black"/>
<path d="M11.0064 20.4206L11.2929 20.7071C12.2357 21.6499 13.7643 21.6499 14.7071 20.7071L20.7071 14.7071C21.6499 13.7643 21.6499 12.2357 20.7071 11.2929L20.4206 11.0064L11.0064 20.4206Z" fill="black"/>
<path fill-rule="evenodd" clip-rule="evenodd" d="M20.7547 3.2453C19.0943 1.5849 16.4023 1.5849 14.7419 3.2453L3.2453 14.7419C1.5849 16.4023 1.5849 19.0943 3.2453 20.7547C4.9057 22.4151 7.59774 22.4151 9.25814 20.7547L20.7547 9.25814C22.4151 7.59774 22.4151 4.9057 20.7547 3.2453ZM17.5145 7.85749C17.9881 7.57334 18.1416 6.95908 17.8575 6.4855C17.5733 6.01192 16.9591 5.85836 16.4855 6.14251L15.4554 6.76057C14.3022 7.4525 13.4345 8.53413 13.0092 9.80999C12.8205 10.3762 12.3762 10.8205 11.81 11.0092L11.6838 11.0513C10.4409 11.4656 9.46561 12.4409 9.05132 13.6838L8.97655 13.9081C8.77764 14.5048 8.37181 15.0107 7.83242 15.3344L6.4855 16.1425C6.01192 16.4267 5.85836 17.0409 6.14251 17.5145C6.42666 17.9881 7.04092 18.1416 7.5145 17.8575L8.86141 17.0493C9.81019 16.4801 10.524 15.5902 10.8739 14.5405L10.9487 14.3162C11.1639 13.6706 11.6706 13.1639 12.3162 12.9487L12.4424 12.9066C13.6059 12.5188 14.5188 11.6059 14.9066 10.4424C15.1809 9.61951 15.7406 8.92185 16.4844 8.47555L17.5145 7.85749Z" fill="black"/>
</svg>
