<svg width="24" height="24" viewBox="0 0 24 24" fill="none" xmlns="http://www.w3.org/2000/svg">
<path d="M6 2C6 1.44772 6.44772 1 7 1H15C15.5523 1 16 1.44772 16 2C16 2.55228 15.5523 3 15 3H7C6.44772 3 6 2.55228 6 2Z" fill="black"/>
<path fill-rule="evenodd" clip-rule="evenodd" d="M6.98362 4C6.95514 4.15545 6.89003 4.30284 6.79262 4.42947L3.03688 9.31193C2.36454 10.186 2 11.2578 2 12.3605V20C2 21.6569 3.34315 23 5 23H17C18.6569 23 20 21.6569 20 20V12.3605C20 11.4927 19.7743 10.6441 19.3504 9.89597C20.8724 9.51604 22 8.1397 22 6.5C22 4.567 20.433 3 18.5 3C17.2001 3 16.0658 3.70862 15.4621 4.76063L15.2074 4.42947C15.11 4.30284 15.0449 4.15545 15.0164 4H6.98362ZM17.8347 7.84503C18.0345 7.94419 18.2597 8 18.5 8C19.3284 8 20 7.32843 20 6.5C20 5.67157 19.3284 5 18.5 5C17.6716 5 17 5.67157 17 6.5C17 6.60278 17.0102 6.70238 17.0294 6.79814L17.8347 7.84503ZM18 12H4V19H18V12Z" fill="black"/>
</svg>
