<svg width="24" height="24" viewBox="0 0 24 24" fill="none" xmlns="http://www.w3.org/2000/svg">
<path d="M17.4722 6.5261C17.2134 6.26731 16.9094 6.03964 16.5977 5.89793C16.4454 5.82871 16.2401 5.75647 16.0066 5.74244C15.7747 5.7285 15.3914 5.76979 15.0798 6.08147C14.7681 6.39314 14.7268 6.77638 14.7407 7.00832C14.7548 7.24182 14.827 7.44709 14.8962 7.59939C15.0379 7.91115 15.2656 8.21508 15.5244 8.47388C15.7832 8.73267 16.0871 8.96034 16.3989 9.10205C16.5512 9.17127 16.7564 9.24351 16.9899 9.25754C17.2219 9.27148 17.6051 9.23019 17.9168 8.91851C18.2285 8.60684 18.2698 8.2236 18.2558 7.99166C18.2418 7.75816 18.1696 7.55289 18.1003 7.40059C17.9586 7.08883 17.731 6.7849 17.4722 6.5261Z" fill="black"/>
<path fill-rule="evenodd" clip-rule="evenodd" d="M21.9996 9.55907C22.001 9.66512 21.9988 9.77086 21.9926 9.87606C21.8341 13.2853 19.0208 16 15.5729 16L11.4142 16L9.70772 17.7065C10.2404 18.8216 10.045 20.1977 9.12132 21.1213C7.94975 22.2929 6.05025 22.2929 4.87868 21.1213C4.51732 20.76 4.26734 20.3286 4.12889 19.8711C3.67144 19.7327 3.24004 19.4827 2.87868 19.1213C1.70711 17.9497 1.70711 16.0503 2.87868 14.8787C3.80232 13.955 5.17838 13.7596 6.29351 14.2923L8 12.5858V8.3791C8 4.85602 10.8562 2 14.3792 2C16.0713 2.00026 17.9925 2.94851 19.522 4.47803C21.0345 5.99053 21.9765 7.88341 21.9996 9.55907ZM13.349 4.34896C13.5528 4.14516 13.8801 3.99992 14.3789 4C15.384 4.00021 16.8257 4.61013 18.1078 5.89224C19.3709 7.15537 19.9833 8.57549 19.9997 9.58C19.9996 9.64385 19.9981 9.70733 19.9954 9.77039C19.969 10.1861 19.8351 10.4669 19.651 10.651C19.3577 10.9443 18.7696 11.1288 17.8338 10.8948C16.9205 10.6665 15.8515 10.067 14.8922 9.10777C13.933 8.1485 13.3335 7.07952 13.1052 6.16621C12.8712 5.23038 13.0557 4.64224 13.349 4.34896Z" fill="black"/>
</svg>
