<svg width="24" height="24" viewBox="0 0 24 24" fill="none" xmlns="http://www.w3.org/2000/svg">
<path fill-rule="evenodd" clip-rule="evenodd" d="M12 2C9.43715 2 7.07541 2.3448 5.31981 2.93C4.44724 3.22085 3.66896 3.58923 3.08829 4.04685C2.51889 4.49559 2 5.14805 2 6C2 6.59556 2.256 7.09603 2.60004 7.49243C2.58068 7.5009 2.56147 7.51003 2.54242 7.51983C2.16523 7.71394 1.80518 7.95194 1.52759 8.25034C1.24518 8.5539 1 8.97598 1 9.50003C1 10.1756 1.39694 10.6713 1.79524 11C1.39694 11.3287 1 11.8244 1 12.5C1 13.1756 1.39694 13.6713 1.79525 14C1.39694 14.3287 1 14.8244 1 15.5C1 16.1756 1.39694 16.6713 1.79525 17C1.39694 17.3287 1 17.8244 1 18.5C1 19.417 1.71922 20.0043 2.27702 20.334C2.90176 20.7032 3.73921 21.0011 4.6864 21.2379C6.59614 21.7153 9.18144 22 12 22C14.8186 22 17.4039 21.7153 19.3136 21.2379C20.2608 21.0011 21.0982 20.7032 21.723 20.334C22.2808 20.0043 23 19.417 23 18.5C23 17.8244 22.6031 17.3287 22.2048 17C22.6031 16.6713 23 16.1756 23 15.5C23 14.8244 22.6031 14.3287 22.2048 14C22.6031 13.6713 23 13.1756 23 12.5C23 11.8244 22.6031 11.3287 22.2048 11C22.6031 10.6713 23 10.1756 23 9.50003C23 8.97598 22.7548 8.5539 22.4724 8.25034C22.1948 7.95194 21.8348 7.71394 21.4576 7.51983C21.4384 7.50997 21.4191 7.50079 21.3996 7.49229C21.7499 7.09038 22 6.59418 22 6C22 5.14805 21.4811 4.49559 20.9117 4.04685C20.331 3.58923 19.5528 3.22085 18.6802 2.93C16.9246 2.3448 14.5629 2 12 2ZM10.6231 4.69776C11.0215 4.56497 11.5082 4.5 12 4.5C12.4918 4.5 12.9785 4.56497 13.3769 4.69776C13.5708 4.76242 13.7999 4.86144 14.0011 5.01997C14.191 5.16961 14.5 5.49323 14.5 6C14.5 6.50677 14.191 6.83039 14.0011 6.98003C13.7999 7.13856 13.5708 7.23758 13.3769 7.30224C12.9785 7.43503 12.4918 7.5 12 7.5C11.5082 7.5 11.0215 7.43503 10.6231 7.30224C10.4292 7.23758 10.2001 7.13856 9.9989 6.98003C9.80903 6.83039 9.5 6.50677 9.5 6C9.5 5.49323 9.80903 5.16961 9.9989 5.01997C10.2001 4.86144 10.4292 4.76242 10.6231 4.69776ZM5 8.95831V16.5001C5 17.3285 5.67157 18.0001 6.5 18.0001C7.32843 18.0001 8 17.3285 8 16.5001V9.70115C8.32463 9.75237 8.65839 9.79738 9 9.83592C9.32987 9.87315 9.66734 9.9044 10.0113 9.92926C10.3395 9.95298 10.6734 9.97091 11.012 9.98278L11.024 11.0302C11.0335 11.8422 11.695 12.5001 12.5119 12.5001C13.3338 12.5001 14 11.8338 14 11.012V9.92841C14.3398 9.90372 14.6735 9.87274 15 9.83592C16.0671 9.71549 17.0584 9.53168 17.9344 9.29433C18.5505 9.12739 19.1264 8.92948 19.6388 8.69952L20.5424 9.29817C20.69 9.37413 20.7989 9.44267 20.877 9.50002C20.6536 9.66411 20.2651 9.85812 19.6849 10.0512C18.9489 10.2962 17.9894 10.5121 16.8569 10.6759C16.3103 10.7549 15.9312 11.2621 16.0103 11.8087C16.0893 12.3553 16.5965 12.7343 17.1431 12.6553C18.2043 12.5018 19.1676 12.2997 19.9832 12.0543C20.4012 12.2117 20.6943 12.3658 20.877 12.5C20.6536 12.6641 20.265 12.8581 19.6849 13.0512C18.001 13.6117 15.2144 14 12 14C11.6788 14 11.3613 13.9961 11.0482 13.9885C10.4961 13.9752 10.0377 14.4119 10.0243 14.964C10.011 15.5162 10.4477 15.9746 10.9998 15.988C11.329 15.9959 11.6627 16 12 16C15.1459 16 18.0185 15.6453 19.9831 15.0543C20.4012 15.2116 20.6943 15.3658 20.877 15.5C20.6536 15.6641 20.265 15.8581 19.6849 16.0512C18.001 16.6117 15.2144 17 12 17C11.3317 17 10.6798 16.9832 10.0507 16.9513C9.49911 16.9233 9.02928 17.3477 9.00129 17.8993C8.97329 18.4509 9.39774 18.9207 9.94932 18.9487C10.6126 18.9824 11.2984 19 12 19C15.1459 19 18.0185 18.6452 19.9831 18.0543C20.4016 18.2118 20.6949 18.3661 20.8775 18.5004C20.8334 18.5325 20.777 18.5699 20.7053 18.6122C20.318 18.8412 19.691 19.082 18.8285 19.2976C17.119 19.725 14.7043 20 12 20C9.29571 20 6.88101 19.725 5.17147 19.2976C4.30901 19.082 3.68199 18.8412 3.29468 18.6122C3.22303 18.5699 3.16665 18.5325 3.12251 18.5004C3.34581 18.3362 3.73452 18.142 4.31507 17.9488C4.35471 17.9356 4.3931 17.9201 4.43011 17.9025C4.15863 17.5026 4 17.0198 4 16.5001V15.9393C3.59094 15.7842 3.30322 15.6324 3.12301 15.5C3.30322 15.3676 3.59094 15.2158 4 15.0607V12.9393C3.59094 12.7842 3.30323 12.6324 3.12302 12.5C3.30323 12.3676 3.59094 12.2158 4 12.0607V9.93938C3.59093 9.78425 3.30321 9.6324 3.123 9.50002C3.20113 9.44267 3.30997 9.37413 3.45758 9.29817L4.5 8.76046C4.66172 8.82968 4.82867 8.89557 5 8.95831Z" fill="black"/>
</svg>
