<svg width="24" height="24" viewBox="0 0 24 24" fill="none" xmlns="http://www.w3.org/2000/svg">
<path d="M10.0001 2C9.58764 1.99998 9.21751 2.25317 9.06802 2.63756L7.95263 5.50574H8.83203L8.84917 5.50603C14.0951 5.68591 18.315 9.90577 18.495 15.1517L18.4953 15.1688V16.047L21.3625 14.932C21.7469 14.7825 22 14.4124 22 14C21.9998 7.3728 16.6272 2.00025 10.0001 2Z" fill="black"/>
<path fill-rule="evenodd" clip-rule="evenodd" d="M17.4953 16.4359V15.1775C17.3292 10.4637 13.5372 6.67174 8.82335 6.50574H7.56374L2.06802 20.6377C1.9243 21.0073 2.01253 21.4268 2.29293 21.7072C2.57332 21.9876 2.99291 22.0758 3.36248 21.9321L17.4953 16.4359ZM7 16.0001C7 15.4478 7.44772 15.0001 8 15.0001H8.01C8.56228 15.0001 9.01 15.4478 9.01 16.0001C9.01 16.5524 8.56228 17.0001 8.01 17.0001H8C7.44772 17.0001 7 16.5524 7 16.0001ZM13 13.0001C12.4477 13.0001 12 13.4478 12 14.0001C12 14.5524 12.4477 15.0001 13 15.0001H13.01C13.5623 15.0001 14.01 14.5524 14.01 14.0001C14.01 13.4478 13.5623 13.0001 13.01 13.0001H13ZM10 10.0001C10 9.44784 10.4477 9.00012 11 9.00012H11.01C11.5623 9.00012 12.01 9.44784 12.01 10.0001C12.01 10.5524 11.5623 11.0001 11.01 11.0001H11C10.4477 11.0001 10 10.5524 10 10.0001Z" fill="black"/>
</svg>
