<svg width="24" height="24" viewBox="0 0 24 24" fill="none" xmlns="http://www.w3.org/2000/svg">
<path fill-rule="evenodd" clip-rule="evenodd" d="M19 12.0001C19 15.8661 15.866 19.0001 12 19.0001C8.13401 19.0001 5 15.8661 5 12.0001C5 8.13413 8.13401 5.00012 12 5.00012C15.866 5.00012 19 8.13413 19 12.0001ZM12 8.00015C11.4477 8.00015 11 8.44786 11 9.00015C11 9.55243 11.4477 10.0001 12 10.0001H12.01C12.5623 10.0001 13.01 9.55243 13.01 9.00015C13.01 8.44786 12.5623 8.00015 12.01 8.00015H12ZM8 12.0001C8 11.4479 8.44772 11.0001 9 11.0001H9.01C9.56228 11.0001 10.01 11.4479 10.01 12.0001C10.01 12.5524 9.56228 13.0001 9.01 13.0001H9C8.44772 13.0001 8 12.5524 8 12.0001ZM15 11.0001C14.4477 11.0001 14 11.4479 14 12.0001C14 12.5524 14.4477 13.0001 15 13.0001H15.01C15.5623 13.0001 16.01 12.5524 16.01 12.0001C16.01 11.4479 15.5623 11.0001 15.01 11.0001H15ZM11 15.0001C11 14.4479 11.4477 14.0001 12 14.0001H12.01C12.5623 14.0001 13.01 14.4479 13.01 15.0001C13.01 15.5524 12.5623 16.0001 12.01 16.0001H12C11.4477 16.0001 11 15.5524 11 15.0001Z" fill="black"/>
<path fill-rule="evenodd" clip-rule="evenodd" d="M19.0711 19.0712H19.0724C22.9777 15.166 22.977 8.835 19.0717 4.92976C15.1665 1.02452 8.83418 1.02384 4.92893 4.92908C1.02369 8.83432 1.02369 15.166 4.92893 19.0712C8.83418 22.9765 15.1658 22.9765 19.0711 19.0712ZM6.23843 6.44994C6.30758 6.37818 6.37805 6.30771 6.44981 6.23857C7.18394 5.53085 8.01999 4.99096 8.90961 4.61888C9.86041 4.22032 10.9045 4.00012 12 4.00012C13.0955 4.00012 14.1396 4.22032 15.0904 4.61888C15.98 4.99096 16.8161 5.53085 17.5502 6.23857C17.5875 6.27447 17.6244 6.31073 17.6609 6.34734C17.6695 6.35584 17.6782 6.36415 17.687 6.37227C20.7728 9.48905 20.7728 14.5112 17.687 17.628C17.6768 17.6374 17.6668 17.6471 17.6569 17.657C16.8822 18.4316 15.9882 19.0142 15.0341 19.4047C14.1491 19.7677 13.1846 19.9767 12.1739 19.9983C12.058 20.0008 11.942 20.0008 11.8261 19.9983C9.83705 19.9553 7.861 19.1749 6.34315 17.657C5.57297 16.8868 4.99266 15.9987 4.60221 15.0507C4.21633 14.116 4.00245 13.0921 4.00002 12.0186C4.00001 12.0124 4 12.0063 4 12.0001L4 11.9941C4.00158 9.84113 4.85366 7.88712 6.23843 6.44994Z" fill="black"/>
</svg>
