<svg width="24" height="24" viewBox="0 0 24 24" fill="none" xmlns="http://www.w3.org/2000/svg">
<path d="M12 2C11.0722 2 10.2441 2.42084 9.69424 3.08096C9.47114 3.02802 9.23862 3 9 3C7.88828 3 6.91905 3.60411 6.40073 4.50161C4.82279 4.55291 3.55291 5.82279 3.50161 7.40073C2.60411 7.91905 2 8.88828 2 10H22C22 8.88828 21.3959 7.91905 20.4984 7.40073C20.4471 5.82279 19.1772 4.55292 17.5993 4.50161C17.081 3.60412 16.1117 3 15 3C14.7614 3 14.5289 3.02802 14.3058 3.08096C13.7559 2.42084 12.9278 2 12 2Z" fill="black"/>
<path d="M2.37977 12.1789C2.26816 11.565 2.73973 11 3.36364 11H6.63672L7.5122 17.0189C7.5917 17.5655 8.0992 17.9441 8.64573 17.8646C9.19226 17.7851 9.57087 17.2776 9.49137 16.7311L8.65776 11H11.0018V17C11.0018 17.5523 11.4495 18 12.0018 18C12.5541 18 13.0018 17.5523 13.0018 17V11H15.3458L14.5122 16.7311C14.4327 17.2776 14.8113 17.7851 15.3578 17.8646C15.9044 17.9441 16.4119 17.5655 16.4914 17.0189L17.3669 11H20.6364C21.2603 11 21.7318 11.565 21.6202 12.1789L20.2825 19.5367C20.0231 20.9631 18.7807 22 17.3308 22H6.66915C5.21929 22 3.9769 20.9631 3.71754 19.5367L2.37977 12.1789Z" fill="black"/>
</svg>
