<svg width="24" height="24" viewBox="0 0 24 24" fill="none" xmlns="http://www.w3.org/2000/svg">
<path fill-rule="evenodd" clip-rule="evenodd" d="M6.35521 6.78118C6.81504 4.02217 9.20214 2 11.9992 2C14.7963 2 17.1834 4.02217 17.6432 6.78118L19.5975 18.5068C19.9022 20.3354 18.4921 22 16.6383 22H7.36012C5.5063 22 4.09617 20.3354 4.40094 18.5068L6.35521 6.78118ZM7.67966 11L6.37372 18.8356C6.27213 19.4451 6.74218 20 7.36012 20H16.6383C17.2562 20 17.7263 19.4451 17.6247 18.8356L16.3187 11H7.67966ZM11.9883 4C11.436 4 10.9883 4.44772 10.9883 5C10.9883 5.55228 11.436 6 11.9883 6H11.9983C12.5506 6 12.9983 5.55228 12.9983 5C12.9983 4.44772 12.5506 4 11.9983 4H11.9883ZM10 5.5C9.44772 5.5 9 5.94772 9 6.5C9 7.05228 9.44772 7.5 10 7.5H10.01C10.5623 7.5 11.01 7.05228 11.01 6.5C11.01 5.94772 10.5623 5.5 10.01 5.5H10ZM14 5.5C13.4477 5.5 13 5.94772 13 6.5C13 7.05228 13.4477 7.5 14 7.5H14.01C14.5623 7.5 15.01 7.05228 15.01 6.5C15.01 5.94772 14.5623 5.5 14.01 5.5H14Z" fill="black"/>
</svg>
