<svg width="24" height="24" viewBox="0 0 24 24" fill="none" xmlns="http://www.w3.org/2000/svg">
<path d="M3.00024 4C2.44795 4 2.00024 4.44772 2.00024 5V9C2.00024 9.55228 2.44795 10 3.00024 10H21.0002C21.5525 10 22.0002 9.55228 22.0002 9V5C22.0002 4.44772 21.5525 4 21.0002 4H3.00024Z" fill="black"/>
<path d="M5.67428 13.3623C6.49001 13.1583 7.34927 13.2166 8.12998 13.5289L9.77189 14.1857C11.2024 14.7579 12.7981 14.7579 14.2286 14.1857L15.8705 13.5289C16.6512 13.2166 17.5105 13.1583 18.3262 13.3623L20.7577 13.9701C21.2935 14.1041 21.8364 13.7783 21.9704 13.2425C22.1043 12.7067 21.7786 12.1638 21.2428 12.0299L18.8113 11.422C17.5877 11.1161 16.2988 11.2036 15.1277 11.672L13.4858 12.3287C12.5322 12.7102 11.4683 12.7102 10.5147 12.3287L8.87276 11.672C7.7017 11.2036 6.41281 11.1161 5.1892 11.422L2.7577 12.0299C2.22191 12.1638 1.89615 12.7067 2.03009 13.2425C2.16404 13.7783 2.70698 14.1041 3.24277 13.9701L5.67428 13.3623Z" fill="black"/>
<path d="M3.00024 15C2.44795 15 2.00024 15.4477 2.00024 16V20C2.00024 20.5523 2.44795 21 3.00024 21H21.0002C21.5525 21 22.0002 20.5523 22.0002 20V16C22.0002 15.4477 21.5525 15 21.0002 15H17.3629C17.0032 15 16.6464 15.0647 16.3095 15.191L13.0002 16.432L9.69094 15.191C9.35411 15.0647 8.9973 15 8.63757 15H3.00024Z" fill="black"/>
</svg>
