<svg width="24" height="24" viewBox="0 0 24 24" fill="none" xmlns="http://www.w3.org/2000/svg">
<path d="M12.6893 18.3107L11.5607 19.4393C10.9749 20.0251 10.0251 20.0251 9.43934 19.4393L4.56066 14.5607C3.97487 13.9749 3.97487 13.0251 4.56066 12.4393L5.68934 11.3107C6.27513 10.7249 7.22487 10.7249 7.81066 11.3107L12.6893 16.1893C13.2751 16.7751 13.2751 17.7249 12.6893 18.3107Z" fill="black"/>
<path d="M16.9393 14.0607L15.8107 15.1893C15.2249 15.7751 14.2751 15.7751 13.6893 15.1893L8.81066 10.3107C8.22487 9.72488 8.22487 8.77513 8.81066 8.18934L9.93934 7.06066C10.5251 6.47488 11.4749 6.47488 12.0607 7.06066L16.9393 11.9393C17.5251 12.5251 17.5251 13.4749 16.9393 14.0607Z" fill="black"/>
<path d="M19.4142 4.58579C18.6332 3.80474 17.3668 3.80474 16.5858 4.58579C15.8047 5.36683 15.8047 6.63316 16.5858 7.41421C16.9763 7.80473 16.9763 8.43788 16.5858 8.82841L15.9678 9.44641L14.5536 8.03223C13.6476 6.49833 13.8536 4.48951 15.1716 3.17157C16.7337 1.60948 19.2663 1.60948 20.8284 3.17157C22.3905 4.73367 22.3905 7.26633 20.8284 8.82843C20.4379 9.21895 19.8047 9.21895 19.4142 8.82843C19.0237 8.4379 19.0237 7.80474 19.4142 7.41421C20.1953 6.63317 20.1953 5.36684 19.4142 4.58579Z" fill="black"/>
<path d="M7.00009 18.4142L3.70709 21.7071C3.31656 22.0976 2.6834 22.0976 2.29288 21.7071C1.90236 21.3165 1.90237 20.6834 2.29291 20.2929L5.58591 17L7.00009 18.4142Z" fill="black"/>
</svg>
