<svg width="24" height="24" viewBox="0 0 24 24" fill="none" xmlns="http://www.w3.org/2000/svg">
<path fill-rule="evenodd" clip-rule="evenodd" d="M9.98407 5.7958C10.8408 4.08235 12.5921 3 14.5078 3H14.6C18.6869 3 22 6.31309 22 10.4C22 16.2542 17.2542 21 11.4 21H7.94204C4.66034 21 2 18.3397 2 15.058C2 14.0627 2.49743 13.1332 3.32557 12.5811L6.6776 10.3464C7.69119 9.67069 8.51089 8.74214 9.05568 7.65256L9.98407 5.7958ZM14 11C14 10.4477 14.4477 10 15 10H15.01C15.5623 10 16.01 10.4477 16.01 11C16.01 11.5523 15.5623 12 15.01 12H15C14.4477 12 14 11.5523 14 11ZM16.5721 5.72467L16.8924 5.86703C18.4314 6.55102 19.5103 7.97849 19.7485 9.64567C20.2768 13.3439 18.1291 16.9031 14.6109 18.1596L13.3698 18.6029C12.6341 18.8656 11.8586 19 11.0774 19H8.27073C7.05809 19 5.89511 18.5182 5.03765 17.6608C3.79122 16.4143 4.03584 14.3309 5.53706 13.407L9.0071 11.2716C9.82301 10.7695 10.4452 10.0063 10.7726 9.106L11.1667 8.02214C11.9622 5.83454 14.445 4.77928 16.5721 5.72467ZM6.09831 16.6001C5.53701 16.0388 5.64716 15.1006 6.32321 14.6845L9.79324 12.5491C10.8973 11.8697 11.7393 10.8369 12.1823 9.61861L12.5764 8.53475C13.0748 7.16422 14.6302 6.5031 15.9629 7.09539L16.2832 7.23775C17.3503 7.71201 18.0984 8.7018 18.2636 9.85781C18.6911 12.8503 16.9532 15.7303 14.1064 16.747L12.8653 17.1903C12.2915 17.3952 11.6867 17.5 11.0774 17.5H8.27073C7.45591 17.5 6.67447 17.1763 6.09831 16.6001Z" fill="black"/>
</svg>
