<svg width="24" height="24" viewBox="0 0 24 24" fill="none" xmlns="http://www.w3.org/2000/svg">
<path d="M16.5858 12L15 13.5858L13.4142 12L15 10.4142L16.5858 12Z" fill="black"/>
<path d="M10.4142 9L12 7.41421L13.5858 9L12 10.5858L10.4142 9Z" fill="black"/>
<path d="M7.41421 12L9 10.4142L10.5858 12L9 13.5858L7.41421 12Z" fill="black"/>
<path d="M12 16.5858L10.4142 15L12 13.4142L13.5858 15L12 16.5858Z" fill="black"/>
<path fill-rule="evenodd" clip-rule="evenodd" d="M4.92893 4.92893C8.83418 1.02369 15.1658 1.02369 19.0711 4.92893C22.9763 8.83417 22.9763 15.1658 19.0711 19.0711C15.1658 22.9763 8.83417 22.9763 4.92893 19.0711C1.02369 15.1658 1.02369 8.83418 4.92893 4.92893ZM11.2071 3.79289C10.8166 3.40237 10.1834 3.40237 9.79289 3.79289C9.40237 4.18342 9.40237 4.81658 9.79289 5.20711L10.5858 6L9 7.58579L7.20711 5.79289C6.81658 5.40237 6.18342 5.40237 5.79289 5.79289C5.40237 6.18342 5.40237 6.81658 5.79289 7.20711L7.58579 9L6 10.5858L5.20711 9.79289C4.81658 9.40237 4.18342 9.40237 3.79289 9.79289C3.40237 10.1834 3.40237 10.8166 3.79289 11.2071L4.58579 12L3.79289 12.7929C3.40237 13.1834 3.40237 13.8166 3.79289 14.2071C4.18342 14.5976 4.81658 14.5976 5.20711 14.2071L6 13.4142L7.58579 15L5.79289 16.7929C5.40237 17.1834 5.40237 17.8166 5.79289 18.2071C6.18342 18.5976 6.81658 18.5976 7.20711 18.2071L9 16.4142L10.5858 18L9.79289 18.7929C9.40237 19.1834 9.40237 19.8166 9.79289 20.2071C10.1834 20.5976 10.8166 20.5976 11.2071 20.2071L12 19.4142L12.7929 20.2071C13.1834 20.5976 13.8166 20.5976 14.2071 20.2071C14.5976 19.8166 14.5976 19.1834 14.2071 18.7929L13.4142 18L15 16.4142L16.7929 18.2071C17.1834 18.5976 17.8166 18.5976 18.2071 18.2071C18.5976 17.8166 18.5976 17.1834 18.2071 16.7929L16.4142 15L18 13.4142L18.7929 14.2071C19.1834 14.5976 19.8166 14.5976 20.2071 14.2071C20.5976 13.8166 20.5976 13.1834 20.2071 12.7929L19.4142 12L20.2071 11.2071C20.5976 10.8166 20.5976 10.1834 20.2071 9.79289C19.8166 9.40237 19.1834 9.40237 18.7929 9.79289L18 10.5858L16.4142 9L18.2071 7.20711C18.5976 6.81658 18.5976 6.18342 18.2071 5.79289C17.8166 5.40237 17.1834 5.40237 16.7929 5.79289L15 7.58579L13.4142 6L14.2071 5.20711C14.5976 4.81658 14.5976 4.18342 14.2071 3.79289C13.8166 3.40237 13.1834 3.40237 12.7929 3.79289L12 4.58579L11.2071 3.79289Z" fill="black"/>
</svg>
