<svg width="24" height="24" viewBox="0 0 24 24" fill="none" xmlns="http://www.w3.org/2000/svg">
<path fill-rule="evenodd" clip-rule="evenodd" d="M2 6V18C2 18.8519 2.51889 19.5044 3.08829 19.9531C3.66896 20.4108 4.44724 20.7791 5.31981 21.07C7.07541 21.6552 9.43715 22 12 22C14.5629 22 16.9246 21.6552 18.6802 21.07C19.5528 20.7791 20.331 20.4108 20.9117 19.9531C21.4811 19.5044 22 18.8519 22 18V6C22 5.14805 21.4811 4.49559 20.9117 4.04685C20.331 3.58923 19.5528 3.22085 18.6802 2.93C18.4607 2.85685 18.2318 2.78745 17.9942 2.72202C16.3315 2.26414 14.2416 2.00018 12 2C9.43715 2 7.07541 2.3448 5.31981 2.93C4.44724 3.22085 3.66896 3.58923 3.08829 4.04685C2.51889 4.49559 2 5.14805 2 6ZM4 5.99994C4 5.99994 3.99998 5.99479 4.00305 5.98471C4.00645 5.97356 4.01483 5.95155 4.03507 5.91857C4.07752 5.84943 4.16408 5.74547 4.32624 5.61768C4.33798 5.60842 4.34999 5.59914 4.36226 5.58985C4.69508 5.33772 5.22305 5.07043 5.95227 4.82736C7.27318 4.38706 9.08655 4.08122 11.1426 4.01395C11.1521 4.04762 11.162 4.08112 11.1724 4.11446C10.7292 4.25327 10.3073 4.4246 9.91376 4.62596C9.46851 4.85378 9.05962 5.12006 8.69735 5.42116C8.01738 5.98633 7.47852 6.698 7.20869 7.5168C6.75309 7.41486 6.3323 7.29931 5.95227 7.17264C5.19616 6.9206 4.65642 6.64253 4.32624 6.38232C4.16408 6.25453 4.07752 6.15057 4.03507 6.08143C4.01483 6.04845 4.00645 6.02644 4.00305 6.01529C4.00018 6.00585 4 5.99994 4 5.99994ZM18.0477 4.82736C18.8038 5.0794 19.3436 5.35747 19.6738 5.61768C19.7491 5.67708 19.8082 5.73134 19.8541 5.77934C19.2836 5.92091 18.6595 6.00001 18.0019 6.00001C15.8684 6.00001 14.182 5.1788 13.438 4.19437C13.3977 4.14095 13.3602 4.08733 13.3256 4.03356C15.1884 4.12887 16.828 4.42079 18.0477 4.82736ZM12.2642 5.88841C11.3218 6.10822 10.5355 6.49397 9.97575 6.95924C9.63291 7.2442 9.38831 7.54537 9.23235 7.84945C10.0945 7.94643 11.0252 8 12 8C13.3335 8 14.5843 7.89977 15.6901 7.72529C14.3207 7.38927 13.1151 6.75622 12.2642 5.88841Z" fill="black"/>
</svg>
