<svg width="24" height="24" viewBox="0 0 24 24" fill="none" xmlns="http://www.w3.org/2000/svg">
<path d="M12 3C12.302 3 12.5878 3.13648 12.7777 3.37135L14.5619 5.57852L17.3027 4.8416C17.5943 4.76318 17.9058 4.82077 18.1501 4.99829C18.3944 5.1758 18.5454 5.45422 18.561 5.75583L18.7071 8.59018L21.3576 9.60499C21.6342 9.71092 21.8497 9.93405 21.9458 10.2142C22.042 10.4944 22.009 10.8028 21.8557 11.0563L20.5973 13.1374C18.5816 10.6155 15.4795 9 12 9C8.52052 9 5.41837 10.6155 3.4027 13.1374L2.14429 11.0563C1.991 10.8028 1.958 10.4944 2.05417 10.2142C2.15034 9.93405 2.36579 9.71092 2.64244 9.60499L5.29293 8.59018L5.43902 5.75583C5.45457 5.45422 5.60558 5.1758 5.84991 4.99829C6.09424 4.82077 6.4057 4.76318 6.69735 4.8416L9.43813 5.57852L11.2223 3.37135C11.4122 3.13648 11.698 3 12 3Z" fill="black"/>
<path fill-rule="evenodd" clip-rule="evenodd" d="M3.95789 14.0555C3.03514 15.3018 2.39521 16.7701 2.13291 18.3656C2.04548 18.8974 2 19.4434 2 20C2 20.5178 2.3935 20.9436 2.89776 20.9948C2.92927 20.998 2.96122 20.9998 2.99354 21L3 21H21C21.5523 21 22 20.5523 22 20C22 19.8609 21.9972 19.7225 21.9915 19.5848C21.907 17.5189 21.1951 15.6132 20.0421 14.0556C18.2204 11.5951 15.2965 10 12 10C8.70352 10 5.77958 11.5951 3.95789 14.0555ZM7 17C7 16.4477 7.44772 16 8 16H8.01C8.56228 16 9.01 16.4477 9.01 17C9.01 17.5523 8.56228 18 8.01 18H8C7.44772 18 7 17.5523 7 17ZM11 13C10.4477 13 10 13.4477 10 14C10 14.5523 10.4477 15 11 15H11.01C11.5623 15 12.01 14.5523 12.01 14C12.01 13.4477 11.5623 13 11.01 13H11Z" fill="black"/>
</svg>
