<svg width="24" height="24" viewBox="0 0 24 24" fill="none" xmlns="http://www.w3.org/2000/svg">
<path d="M17.0004 2.5C15.6197 2.5 14.5004 3.61929 14.5004 5C14.5004 5.24231 14.5349 5.47604 14.5989 5.69682C14.6757 5.96205 14.5231 6.2492 14.2578 6.32608C12.0814 5.68654 9.75211 5.99062 7.74692 7.2122C7.37793 7.437 7.01991 7.69286 6.67584 7.97962L5.43382 9.01478C3.25222 10.833 2 13.7076 2 16.7209C2 19.4972 3.9782 22 6.70806 22H17.2919C20.0218 22 22 19.4972 22 16.7209C22 14.3829 21.2462 12.1285 19.8893 10.3861C19.6054 10.4604 19.3075 10.5 19.0004 10.5C18.6123 10.5 18.2381 10.4364 17.8883 10.3192C17.6369 10.7162 17.5004 11.1795 17.5004 11.6569V12C17.5004 15.0376 15.0379 17.5 12.0004 17.5C10.4819 17.5 9.1049 16.8827 8.11129 15.8891C7.91603 15.6938 7.91603 15.3772 8.11129 15.182C8.30655 14.9867 8.62314 14.9867 8.8184 15.182C9.63224 15.9958 10.7579 16.5 12.0004 16.5C14.4857 16.5 16.5004 14.4853 16.5004 12V11.6569C16.5004 10.8223 16.7985 10.0184 17.3357 9.38763C17.4823 9.21546 17.7262 9.16314 17.9306 9.26004C18.2545 9.41367 18.6171 9.5 19.0004 9.5C20.3811 9.5 21.5004 8.38071 21.5004 7C21.5004 5.8726 20.7537 4.91829 19.7268 4.60704C19.5669 4.55858 19.4418 4.43346 19.3933 4.27357C19.0821 3.24664 18.1278 2.5 17.0004 2.5Z" fill="black"/>
</svg>
