<svg width="24" height="24" viewBox="0 0 24 24" fill="none" xmlns="http://www.w3.org/2000/svg">
<path d="M15.2426 8.75736V11H13V8.75736H15.2426Z" fill="black"/>
<path d="M8.75736 11V8.75736H11V11H8.75736Z" fill="black"/>
<path d="M8.75736 15.2426V13H11V15.2426H8.75736Z" fill="black"/>
<path d="M15.2426 15.2426H13V13H15.2426V15.2426Z" fill="black"/>
<path fill-rule="evenodd" clip-rule="evenodd" d="M2 12C2 6.47715 6.47715 2 12 2C17.5228 2 22 6.47715 22 12C22 17.5228 17.5228 22 12 22C6.47715 22 2 17.5228 2 12ZM5.63604 6.75736C5.08375 6.75736 4.63604 7.20507 4.63604 7.75736C4.63604 8.30964 5.08375 8.75736 5.63604 8.75736H6.75736V11H4.22183C3.66954 11 3.22183 11.4477 3.22183 12C3.22183 12.5523 3.66954 13 4.22183 13H6.75736V15.2426H5.63604C5.08375 15.2426 4.63604 15.6904 4.63604 16.2426C4.63604 16.7949 5.08375 17.2426 5.63604 17.2426H6.75736V18.364C6.75736 18.9162 7.20507 19.364 7.75736 19.364C8.30964 19.364 8.75736 18.9162 8.75736 18.364V17.2426H11V19.7782C11 20.3305 11.4477 20.7782 12 20.7782C12.5523 20.7782 13 20.3305 13 19.7782V17.2426H15.2426V18.364C15.2426 18.9162 15.6904 19.364 16.2426 19.364C16.7949 19.364 17.2426 18.9162 17.2426 18.364V17.2426H18.364C18.9162 17.2426 19.364 16.7949 19.364 16.2426C19.364 15.6904 18.9162 15.2426 18.364 15.2426H17.2426V13H19.7782C20.3305 13 20.7782 12.5523 20.7782 12C20.7782 11.4477 20.3305 11 19.7782 11L17.2426 11V8.75736L18.364 8.75736C18.9162 8.75736 19.364 8.30964 19.364 7.75736C19.364 7.20507 18.9162 6.75736 18.364 6.75736L17.2426 6.75736V5.63604C17.2426 5.08375 16.7949 4.63604 16.2426 4.63604C15.6904 4.63604 15.2426 5.08375 15.2426 5.63604V6.75736H13V4.22182C13 3.66954 12.5523 3.22182 12 3.22182C11.4477 3.22183 11 3.66954 11 4.22183V6.75736H8.75736V5.63604C8.75736 5.08375 8.30964 4.63604 7.75736 4.63604C7.20507 4.63604 6.75736 5.08375 6.75736 5.63604V6.75736H5.63604Z" fill="black"/>
</svg>
