<svg width="24" height="24" viewBox="0 0 24 24" fill="none" xmlns="http://www.w3.org/2000/svg">
<path d="M14 11.7071L12.2071 13.5L14 15.2929L15.7929 13.5L14 11.7071Z" fill="black"/>
<path d="M12.2695 12.0234L12.2929 12H12.2695V12.0234Z" fill="black"/>
<path d="M11.2695 13.0234L11.1464 13.1464C10.9512 13.3417 10.9512 13.6583 11.1464 13.8536L11.2695 13.9766V14.4999H10.0018L10 14.4999L9.99824 14.4999H8.73047V12H11.2695V13.0234Z" fill="black"/>
<path fill-rule="evenodd" clip-rule="evenodd" d="M4.18018 2C2.9443 2 2.00422 3.10973 2.20739 4.3288L4.73479 19.4932C4.97589 20.9398 6.22746 22 7.69398 22H16.3055C17.772 22 19.0236 20.9398 19.2647 19.4932L20.3195 13.1644L20.3196 13.1632L21.792 4.3288C21.9952 3.10974 21.0551 2 19.8193 2H4.18018ZM5.51352 12H7.73047V14.9999C7.73047 15.276 7.95433 15.4999 8.23047 15.4999H9.99824L10 15.4999L10.0018 15.4999H11.7695C12.0457 15.4999 12.2695 15.276 12.2695 14.9999V14.9766L13.6464 16.3536C13.8417 16.5488 14.1583 16.5488 14.3536 16.3536L16.8536 13.8536C17.0488 13.6583 17.0488 13.3417 16.8536 13.1464L15.7071 12H18.4859L19.8193 4L4.18018 4L5.51352 12Z" fill="black"/>
</svg>
