<svg width="24" height="24" viewBox="0 0 24 24" fill="none" xmlns="http://www.w3.org/2000/svg">
<path fill-rule="evenodd" clip-rule="evenodd" d="M18.7071 2.29289C18.3166 1.90237 17.6834 1.90237 17.2929 2.29289C16.9744 2.61136 16.9157 3.09118 17.1166 3.46919L15.3536 5.23223C14.862 5.72383 14.1952 6 13.5 6C12.2744 6 11.0989 6.48689 10.2322 7.35355L2.29289 15.2929C1.90237 15.6834 1.90237 16.3166 2.29289 16.7071L7.29289 21.7071C7.68342 22.0976 8.31658 22.0976 8.70711 21.7071L16.6464 13.7678C17.5131 12.9011 18 11.7257 18 10.5C18 9.80478 18.2762 9.13804 18.7678 8.64645L20.5308 6.8834C20.9088 7.08433 21.3886 7.02557 21.7071 6.70711C22.0976 6.31658 22.0976 5.68342 21.7071 5.29289L18.7071 2.29289ZM14.2929 13.2929L10.2929 17.2929L6.70711 13.7071L10.7071 9.70711L14.2929 13.2929Z" fill="black"/>
</svg>
