<svg width="24" height="24" viewBox="0 0 24 24" fill="none" xmlns="http://www.w3.org/2000/svg">
<path d="M16.5 21C16.5 21.5523 16.9477 22 17.5 22C18.0523 22 18.5 21.5523 18.5 21H16.5ZM18.5 11C18.5 10.4477 18.0523 10 17.5 10C16.9477 10 16.5 10.4477 16.5 11H18.5ZM20.2923 5.51473L19.2991 5.63151C19.3407 5.98515 19.5672 6.29001 19.8938 6.4319L20.2923 5.51473ZM14.7073 5.51473L15.1058 6.4319C15.4324 6.29001 15.6589 5.98515 15.7004 5.63151L14.7073 5.51473ZM2 17C1.44772 17 1 17.4477 1 18C1 18.5523 1.44772 19 2 19V17ZM12 19C12.5523 19 13 18.5523 13 18C13 17.4477 12.5523 17 12 17V19ZM2 21C2 21.5523 2.44772 22 3 22C3.55228 22 4 21.5523 4 21H2ZM10 21C10 21.5523 10.4477 22 11 22C11.5523 22 12 21.5523 12 21H10ZM3 18C3 18.5523 3.44772 19 4 19C4.55228 19 5 18.5523 5 18H3ZM5 15C5 14.4477 4.55228 14 4 14C3.44772 14 3 14.4477 3 15H5ZM9 18C9 18.5523 9.44772 19 10 19C10.5523 19 11 18.5523 11 18H9ZM11 15C11 14.4477 10.5523 14 10 14C9.44772 14 9 14.4477 9 15H11ZM2 15H1C1 15.5523 1.44772 16 2 16V15ZM2 13V12C1.44772 12 1 12.4477 1 13H2ZM12 13H13C13 12.4477 12.5523 12 12 12V13ZM12 15V16C12.5523 16 13 15.5523 13 15H12ZM18.5 21V11H16.5V21H18.5ZM21.2854 5.39795C21.0618 3.49617 19.4644 2 17.4998 2V4C18.4136 4 19.1896 4.70024 19.2991 5.63151L21.2854 5.39795ZM17.4998 2C15.5352 2 13.9377 3.49617 13.7141 5.39795L15.7004 5.63151C15.8099 4.70024 16.586 4 17.4998 4V2ZM21 8.1428C21 9.18343 20.1737 10 19.1875 10V12C21.3079 12 23 10.2581 23 8.1428H21ZM19.8938 6.4319C20.5393 6.71234 21 7.36881 21 8.1428H23C23 6.55782 22.0533 5.18952 20.6908 4.59755L19.8938 6.4319ZM14.3088 4.59755C12.946 5.18963 12 6.55809 12 8.1428H14C14 7.36854 14.4605 6.71223 15.1058 6.4319L14.3088 4.59755ZM12 8.1428C12 10.2581 13.6921 12 15.8125 12V10C14.8263 10 14 9.18343 14 8.1428H12ZM19.1875 10H15.8125V12H19.1875V10ZM2 19H3V17H2V19ZM3 19H11V17H3V19ZM11 19H12V17H11V19ZM4 21V18H2V21H4ZM10 18V21H12V18H10ZM5 18V15H3V18H5ZM11 18V15H9V18H11ZM3 15V13H1V15H3ZM2 14H12V12H2V14ZM11 13V15H13V13H11ZM12 14H2V16H12V14Z" fill="black"/>
</svg>
