<svg width="24" height="24" viewBox="0 0 24 24" fill="none" xmlns="http://www.w3.org/2000/svg">
<path d="M12 12L5.82142 8.17594C5.57082 8.06291 5.29276 8.00001 5 8.00001C3.89543 8.00001 3 8.89544 3 10C3 11.1046 3.89544 12 5.00001 12C3.89544 12 3 12.8954 3 14C3 15.1046 3.89543 16 5 16C5.29276 16 5.57082 15.9371 5.82142 15.8241L12 12ZM12 12L15.8241 5.82142C15.9371 5.57082 16 5.29276 16 5C16 3.89543 15.1046 3 14 3C12.8954 3 12 3.89544 12 5.00001C12 3.89544 11.1046 3 10 3C8.89543 3 8 3.89543 8 5C8 5.29276 8.06291 5.57082 8.17593 5.82142L12 12ZM12 12L18.1786 8.17594C18.4292 8.06291 18.7073 8.00001 19 8.00001C20.1046 8.00001 21 8.89544 21 10C21 11.1046 20.1046 12 19 12C20.1046 12 21 12.8954 21 14C21 15.1046 20.1046 16 19 16C18.7073 16 18.4292 15.9371 18.1786 15.8241L12 12ZM12 12L15.8241 18.1786C15.9371 18.4292 16 18.7073 16 19C16 20.1046 15.1046 21 14 21C12.8954 21 12 20.1046 12 19C12 20.1046 11.1046 21 10 21C8.89543 21 8 20.1046 8 19C8 18.7073 8.06291 18.4292 8.17593 18.1786L12 12Z" stroke="black" stroke-width="2" stroke-linejoin="round"/>
</svg>
