<svg width="24" height="24" viewBox="0 0 24 24" fill="none" xmlns="http://www.w3.org/2000/svg">
<path d="M5 11.3333H6V11.3333L5 11.3333ZM7.05025 6.61928L7.97345 6.23495C7.84687 5.93089 7.57869 5.70866 7.25641 5.64076C6.93414 5.57286 6.59909 5.668 6.3606 5.89514L7.05025 6.61928ZM16.9497 6.61928L17.6394 5.89514V5.89514L16.9497 6.61928ZM19 11.3333L20 11.3333L19 11.3333ZM11.9876 3L12.6748 2.27344C12.318 1.93609 11.7692 1.90761 11.3794 2.20623L11.9876 3ZM9.37504 8.8333L8.94511 9.73616C9.25493 9.8837 9.61876 9.86206 9.90892 9.67886C10.1991 9.49565 10.375 9.17646 10.375 8.8333H9.37504ZM17.8134 12.7393C17.6695 13.2725 17.985 13.8215 18.5182 13.9654C19.0514 14.1094 19.6003 13.7939 19.7443 13.2607L17.8134 12.7393ZM4.25571 13.2607C4.39968 13.7939 4.94862 14.1094 5.48181 13.9654C6.015 13.8215 6.33053 13.2725 6.18657 12.7393L4.25571 13.2607ZM18 22C18.5523 22 19 21.5523 19 21C19 20.4477 18.5523 20 18 20V22ZM7.19013 15.6362C7.03974 16.1676 7.34862 16.7203 7.88004 16.8707C8.41145 17.0211 8.96416 16.7122 9.11455 16.1808L7.19013 15.6362ZM15.8509 15.9085L14.8887 16.1808C14.9859 16.5246 15.2592 16.7903 15.6055 16.8779C15.9519 16.9656 16.3186 16.8618 16.5677 16.6057L15.8509 15.9085ZM18.0023 20C17.45 20 17.0023 20.4477 17.0023 21C17.0023 21.5523 17.45 22 18.0023 22V20ZM7.43388 16.6057C7.81895 17.0016 8.45206 17.0104 8.84796 16.6254C9.24387 16.2403 9.25265 15.6072 8.86759 15.2113L7.43388 16.6057ZM6 11.3333C6 9.89744 6.57371 8.45408 7.73991 7.34342L6.3606 5.89514C4.79312 7.38798 4 9.35693 4 11.3333L6 11.3333ZM16.2601 7.34342C17.4263 8.45408 18 9.89744 18 11.3333L20 11.3333C20 9.35693 19.2069 7.38798 17.6394 5.89514L16.2601 7.34342ZM11.3005 3.72656C12.2592 4.63317 13.2307 5.25612 14.0838 5.79211C14.9594 6.34221 15.663 6.7748 16.2601 7.34342L17.6394 5.89514C16.8665 5.15902 15.9702 4.6153 15.1478 4.09861C14.303 3.56782 13.4784 3.0335 12.6748 2.27344L11.3005 3.72656ZM7.05025 6.61928C6.12706 7.00361 6.12722 7.00401 6.12739 7.00441C6.12745 7.00455 6.12762 7.00496 6.12774 7.00524C6.12797 7.0058 6.12822 7.00639 6.12847 7.007C6.12898 7.00821 6.12953 7.00951 6.13012 7.0109C6.1313 7.01368 6.13264 7.0168 6.13413 7.02026C6.13712 7.02717 6.14075 7.03543 6.14505 7.04498C6.15363 7.06407 6.16487 7.08834 6.17892 7.11727C6.20702 7.17509 6.2465 7.25181 6.2987 7.34336C6.40295 7.52619 6.55904 7.7701 6.77805 8.04162C7.21676 8.58551 7.91137 9.2439 8.94511 9.73616L9.80497 7.93044C9.08871 7.58936 8.62093 7.14075 8.33474 6.78596C8.19131 6.60814 8.09433 6.4548 8.03611 6.3527C8.00709 6.3018 7.98799 6.26414 7.97781 6.2432C7.97274 6.23275 7.96992 6.22654 7.96922 6.225C7.96888 6.22423 7.96907 6.22464 7.96978 6.22627C7.97013 6.22709 7.97062 6.22822 7.97123 6.22966C7.97153 6.23039 7.97187 6.23119 7.97224 6.23207C7.97243 6.23251 7.97262 6.23297 7.97282 6.23345C7.97292 6.23369 7.97308 6.23406 7.97313 6.23418C7.97329 6.23456 7.97345 6.23495 7.05025 6.61928ZM10.375 8.8333C10.375 7.30062 10.7807 5.18463 12.5959 3.79377L11.3794 2.20623C8.84441 4.14863 8.37504 7.03265 8.37504 8.8333H10.375ZM18 11.3333C18 11.8059 17.9378 12.2786 17.8134 12.7393L19.7443 13.2607C19.9147 12.6294 20 11.9814 20 11.3333L18 11.3333ZM6.18657 12.7393C6.06217 12.2786 6 11.8059 6 11.3333H4C4 11.9814 4.08526 12.6294 4.25571 13.2607L6.18657 12.7393ZM6 22H18V20H6V22ZM9.11455 16.1808C9.47099 14.9213 10.63 14 12.0016 14V12C9.71174 12 7.7838 13.5385 7.19013 15.6362L9.11455 16.1808ZM12.0016 14C13.3732 14 14.5322 14.9213 14.8887 16.1808L16.8131 15.6362C16.2194 13.5385 14.2915 12 12.0016 12V14ZM20.0023 18C20.0023 19.1046 19.1069 20 18.0023 20V22C20.2114 22 22.0023 20.2091 22.0023 18H20.0023ZM18.0023 16C19.1069 16 20.0023 16.8954 20.0023 18H22.0023C22.0023 15.7909 20.2114 14 18.0023 14V16ZM16.5677 16.6057C16.9321 16.2311 17.4395 16 18.0023 16V14C16.8781 14 15.8597 14.4651 15.134 15.2113L16.5677 16.6057ZM6 20C4.89543 20 4 19.1046 4 18H2C2 20.2091 3.79086 22 6 22V20ZM4 18C4 16.8954 4.89543 16 6 16V14C3.79086 14 2 15.7909 2 18H4ZM6 16C6.56251 16 7.06933 16.2309 7.43388 16.6057L8.86759 15.2113C8.14204 14.4653 7.12448 14 6 14V16Z" fill="black"/>
</svg>
