<svg width="24" height="24" viewBox="0 0 24 24" fill="none" xmlns="http://www.w3.org/2000/svg">
<path d="M12 6C11.4477 6 11 6.44772 11 7C11 7.55228 11.4477 8 12 8V6ZM12.009 8C12.5613 8 13.009 7.55228 13.009 7C13.009 6.44772 12.5613 6 12.009 6V8ZM12 11.3752L12.6006 10.5757C12.2448 10.3084 11.7552 10.3084 11.3994 10.5757L12 11.3752ZM16.3752 7L15.5757 6.39942C15.3084 6.75521 15.3084 7.24479 15.5757 7.60058L16.3752 7ZM12 2.62477L11.3994 3.42434C11.7552 3.69158 12.2448 3.69158 12.6006 3.42434L12 2.62477ZM7.62477 7L8.42434 7.60058C8.69158 7.24479 8.69158 6.75521 8.42434 6.39942L7.62477 7ZM11 21C11 21.5523 11.4477 22 12 22C12.5523 22 13 21.5523 13 21H11ZM12 8H12.009V6H12V8ZM10.125 11C8.95139 11 8 10.0486 8 8.875H6C6 11.1532 7.84683 13 10.125 13V11ZM16 8.875C16 10.0486 15.0486 11 13.875 11V13C16.1532 13 18 11.1532 18 8.875H16ZM13.875 3C15.0486 3 16 3.95139 16 5.125H18C18 2.84683 16.1532 1 13.875 1V3ZM8 5.125C8 3.95139 8.9514 3 10.125 3V1C7.84683 1 6 2.84683 6 5.125H8ZM13.875 11C13.3955 11 12.9556 10.8424 12.6006 10.5757L11.3994 12.1748C12.0889 12.6927 12.9475 13 13.875 13V11ZM11.3994 10.5757C11.0444 10.8424 10.6045 11 10.125 11V13C11.0525 13 11.9111 12.6927 12.6006 12.1748L11.3994 10.5757ZM16 5.125C16 5.60453 15.8424 6.04436 15.5757 6.39942L17.1748 7.60058C17.6927 6.91106 18 6.05248 18 5.125H16ZM15.5757 7.60058C15.8424 7.95564 16 8.39547 16 8.875H18C18 7.94752 17.6927 7.08894 17.1748 6.39942L15.5757 7.60058ZM10.125 3C10.6045 3 11.0444 3.15764 11.3994 3.42434L12.6006 1.8252C11.9111 1.30729 11.0525 1 10.125 1V3ZM12.6006 3.42434C12.9556 3.15764 13.3955 3 13.875 3V1C12.9475 1 12.0889 1.30729 11.3994 1.8252L12.6006 3.42434ZM8.42434 6.39942C8.15764 6.04436 8 5.60453 8 5.125H6C6 6.05247 6.30729 6.91106 6.8252 7.60058L8.42434 6.39942ZM8 8.875C8 8.39547 8.15764 7.95564 8.42434 7.60058L6.8252 6.39942C6.30729 7.08894 6 7.94753 6 8.875H8ZM11 11.3752V21H13V11.3752H11ZM12 21H9.25V23H12V21ZM4.75 17H6V15H4.75V17ZM6 17C8.76142 17 11 19.2386 11 22H13C13 18.134 9.86599 15 6 15V17ZM5 16.75C5 16.8881 4.88807 17 4.75 17V15C3.7835 15 3 15.7835 3 16.75H5ZM9.25 21C6.90279 21 5 19.0972 5 16.75H3C3 20.2018 5.79822 23 9.25 23V21ZM12 23H14.75V21H12V23ZM19.25 15H18V17H19.25V15ZM18 15C14.134 15 11 18.134 11 22H13C13 19.2386 15.2386 17 18 17V15ZM21 16.75C21 15.7835 20.2165 15 19.25 15V17C19.1119 17 19 16.8881 19 16.75H21ZM14.75 23C18.2018 23 21 20.2018 21 16.75H19C19 19.0972 17.0972 21 14.75 21V23Z" fill="black"/>
</svg>
