<svg width="24" height="24" viewBox="0 0 24 24" fill="none" xmlns="http://www.w3.org/2000/svg">
<path d="M8.1149 7.40209L7.24872 6.90237V6.90237L8.1149 7.40209ZM3.38516 15.6003L2.51897 15.1006H2.51897L3.38516 15.6003ZM10.8867 7.40209L10.0205 7.90181V7.90181L10.8867 7.40209ZM15.6164 15.6003L14.7503 16.1L15.6164 15.6003ZM16.2639 17.1046L17.2584 17.2094V17.2094L16.2639 17.1046ZM15.8571 17.8089L16.4448 18.618L15.8571 17.8089ZM2.73771 17.1046L3.73221 16.9999L2.73771 17.1046ZM3.1445 17.8089L2.55679 18.618H2.55679L3.1445 17.8089ZM9.09394 6.08748L9.5008 7.00098L9.5008 7.00098L9.09394 6.08748ZM9.90765 6.08748L9.5008 7.00098L9.5008 7.00098L9.90765 6.08748ZM18.4002 11.5174L19.2743 11.0318L18.4002 11.5174ZM20.681 15.6228L19.8068 16.1085V16.1085L20.681 15.6228ZM15.6029 11.5174L14.7287 11.0318L15.6029 11.5174ZM13.5802 13.0991C13.312 13.5819 13.4859 14.1907 13.9687 14.4589C14.4515 14.7271 15.0603 14.5532 15.3285 14.0704L13.5802 13.0991ZM21.2953 17.1159L20.302 16.9999V16.9999L21.2953 17.1159ZM20.8858 17.8118L20.302 16.9999L20.302 16.9999L20.8858 17.8118ZM17.4143 10.1482L17.0015 11.059H17.0015L17.4143 10.1482ZM16.5888 10.1482L17.0015 11.059H17.0015L16.5888 10.1482ZM7.24872 6.90237L2.51897 15.1006L4.25134 16.1L8.98109 7.90181L7.24872 6.90237ZM10.0205 7.90181L14.7503 16.1L16.4826 15.1006L11.7529 6.90237L10.0205 7.90181ZM14.2305 16.9999H4.77105V18.9999H14.2305V16.9999ZM14.7503 16.1C14.9873 16.5108 15.1295 16.7594 15.2151 16.9451C15.3028 17.1355 15.2576 17.1122 15.2694 16.9999L17.2584 17.2094C17.3042 16.7739 17.1624 16.3922 17.0315 16.1081C16.8984 15.8193 16.6999 15.4773 16.4826 15.1006L14.7503 16.1ZM14.2305 18.9999C14.6654 18.9999 15.0609 19.0009 15.3775 18.9718C15.689 18.9432 16.0905 18.8753 16.4448 18.618L15.2694 16.9999C15.3608 16.9335 15.4036 16.961 15.1948 16.9802C14.9912 16.9989 14.7048 16.9999 14.2305 16.9999V18.9999ZM15.2694 16.9999V16.9999L16.4448 18.618C16.9033 18.2849 17.199 17.773 17.2584 17.2094L15.2694 16.9999ZM2.51897 15.1006C2.30166 15.4773 2.10317 15.8193 1.97009 16.1081C1.83918 16.3922 1.69735 16.7739 1.74321 17.2094L3.73221 16.9999C3.74404 17.1122 3.69878 17.1355 3.78652 16.9451C3.87209 16.7594 4.01433 16.5108 4.25134 16.1L2.51897 15.1006ZM4.77105 16.9999C4.29677 16.9999 4.01038 16.9989 3.80677 16.9802C3.59799 16.961 3.6408 16.9335 3.73221 16.9999L2.55679 18.618C2.91105 18.8753 3.31255 18.9432 3.62406 18.9718C3.94073 19.0009 4.3362 18.9999 4.77105 18.9999V16.9999ZM1.74321 17.2094C1.80258 17.773 2.09827 18.2849 2.55679 18.618L3.73221 16.9999H3.73221L1.74321 17.2094ZM8.98109 7.90181C9.21832 7.49061 9.36247 7.24276 9.48052 7.07555C9.60162 6.90404 9.60412 6.95496 9.5008 7.00098L8.68709 5.17399C8.28686 5.35225 8.02722 5.66635 7.84671 5.92202C7.66316 6.18199 7.46624 6.52532 7.24872 6.90237L8.98109 7.90181ZM11.7529 6.90237C11.5354 6.52532 11.3384 6.18199 11.1549 5.92202C10.9744 5.66635 10.7147 5.35225 10.3145 5.17399L9.5008 7.00098C9.39748 6.95496 9.39998 6.90404 9.52107 7.07555C9.63913 7.24276 9.78328 7.49061 10.0205 7.90181L11.7529 6.90237ZM9.5008 7.00098L10.3145 5.17399C9.79656 4.94331 9.20504 4.94331 8.68709 5.17399L9.5008 7.00098ZM17.526 12.0031L19.8068 16.1085L21.5551 15.1372L19.2743 11.0318L17.526 12.0031ZM14.7287 11.0318L13.5802 13.0991L15.3285 14.0704L16.477 12.0031L14.7287 11.0318ZM19.2823 16.9999H14.2305V18.9999H19.2823V16.9999ZM19.8068 16.1085C20.0336 16.5167 20.1692 16.7628 20.2502 16.9464C20.3329 17.1337 20.2891 17.1101 20.302 16.9999L22.2885 17.2319C22.3388 16.8017 22.2051 16.4225 22.0799 16.1388C21.953 15.8514 21.7628 15.511 21.5551 15.1372L19.8068 16.1085ZM19.2823 18.9999C19.7099 18.9999 20.0999 19.0009 20.4127 18.9722C20.7215 18.9439 21.1179 18.8766 21.4696 18.6237L20.302 16.9999C20.3921 16.9351 20.434 16.9618 20.2301 16.9805C20.0302 16.9989 19.7493 16.9999 19.2823 16.9999V18.9999ZM20.302 16.9999L20.302 16.9999L21.4696 18.6237C21.926 18.2955 22.2233 17.7903 22.2885 17.2319L20.302 16.9999ZM19.2743 11.0318C19.0556 10.6381 18.8588 10.2817 18.675 10.0122C18.4955 9.74909 18.2348 9.4221 17.827 9.23731L17.0015 11.059C16.8947 11.0106 16.8986 10.9573 17.0227 11.1392C17.1425 11.3148 17.2881 11.5748 17.526 12.0031L19.2743 11.0318ZM16.477 12.0031C16.715 11.5748 16.8606 11.3148 16.9803 11.1392C17.1044 10.9573 17.1084 11.0106 17.0015 11.059L16.176 9.23731C15.7682 9.4221 15.5075 9.74909 15.3281 10.0122C15.1443 10.2817 14.9474 10.6381 14.7287 11.0318L16.477 12.0031ZM17.827 9.23731C17.3024 8.99955 16.7007 8.99955 16.176 9.23731L17.0015 11.059H17.0015L17.827 9.23731Z" fill="black"/>
</svg>
