<svg width="24" height="24" viewBox="0 0 24 24" fill="none" xmlns="http://www.w3.org/2000/svg">
<path d="M20 21C20 21.5523 20.4477 22 21 22C21.5523 22 22 21.5523 22 21H20ZM22 8C22 7.44772 21.5523 7 21 7C20.4477 7 20 7.44772 20 8H22ZM15.48 16.5162L16.48 16.5113L15.48 16.5162ZM14.5022 21.005C14.5049 21.5573 14.9549 22.0028 15.5071 22C16.0594 21.9973 16.5049 21.5474 16.5022 20.9951L14.5022 21.005ZM13.4766 15.0769L13.1254 16.0132L13.1254 16.0132L13.4766 15.0769ZM14.8311 15.5849L15.1822 14.6485L14.8311 15.5849ZM9.643 16.4346C9.80547 15.9067 9.50928 15.3471 8.98143 15.1846C8.45358 15.0222 7.89397 15.3184 7.7315 15.8462L9.643 16.4346ZM6.23566 20.7059C6.07318 21.2338 6.36938 21.7934 6.89722 21.9559C7.42507 22.1183 7.98468 21.8222 8.14716 21.2943L6.23566 20.7059ZM21 12C21.5522 12 22 11.5523 22 11C22 10.4477 21.5522 10 21 10V12ZM18 11L17.3922 11.7941C17.5667 11.9277 17.7803 12 18 12V11ZM14.725 7.23421C14.2864 6.89855 13.6587 6.98197 13.3231 7.42055C12.9874 7.85912 13.0708 8.48677 13.5094 8.82243L14.725 7.23421ZM13.7386 7.83867L14.0898 6.90235L13.7386 7.83867ZM13.4907 7.7457L13.8418 6.80937L13.4907 7.7457ZM10.8771 9.02966L9.92137 8.73532L10.8771 9.02966ZM14.9478 10.3L13.9921 10.0057L13.9921 10.0057L14.9478 10.3ZM9.89236 12.2268L10.8481 12.5212L9.89236 12.2268ZM10.7992 14.0729L11.1504 13.1365L11.1503 13.1365L10.7992 14.0729ZM4.17363 8.68966L5.12932 8.984L4.17363 8.68966ZM3 12.5003L2.0443 12.2059C1.96441 12.4653 1.99339 12.746 2.12459 12.9837C2.2558 13.2213 2.47795 13.3953 2.74004 13.4659L3 12.5003ZM6 13.3079L5.74004 14.2735C6.26133 14.4139 6.79991 14.1151 6.95683 13.5986L6 13.3079ZM7.82064 6.67584L7.56067 7.64146L7.56067 7.64146L7.82064 6.67584ZM8 6.72413L8.95683 7.01479C9.03552 6.75573 9.00581 6.47583 8.87448 6.23906C8.74314 6.0023 8.52142 5.82891 8.25997 5.75852L8 6.72413ZM22 21V8H20V21H22ZM14.48 16.5212L14.5022 21.005L16.5022 20.9951L16.48 16.5113L14.48 16.5212ZM13.1254 16.0132L14.48 16.5212L15.1822 14.6485L13.8277 14.1406L13.1254 16.0132ZM16.48 16.5113C16.4759 15.6812 15.9594 14.94 15.1822 14.6485L14.48 16.5212L16.48 16.5113ZM7.7315 15.8462L6.23566 20.7059L8.14716 21.2943L9.643 16.4346L7.7315 15.8462ZM21 10H18V12H21V10ZM18.6077 10.2059L14.725 7.23421L13.5094 8.82243L17.3922 11.7941L18.6077 10.2059ZM14.0898 6.90235L13.8418 6.80937L13.1396 8.68203L13.3875 8.775L14.0898 6.90235ZM9.92137 8.73532L8.93666 11.9325L10.8481 12.5212L11.8328 9.32401L9.92137 8.73532ZM13.9921 10.0057L12.5209 14.7826L14.4323 15.3712L15.9035 10.5944L13.9921 10.0057ZM10.4481 15.0092L13.1254 16.0132L13.8277 14.1406L11.1504 13.1365L10.4481 15.0092ZM13.3875 8.775C13.8828 8.96075 14.1478 9.50012 13.9921 10.0057L15.9035 10.5944C16.3706 9.07769 15.5757 7.45958 14.0898 6.90235L13.3875 8.775ZM13.8418 6.80937C12.2242 6.20277 10.4299 7.08426 9.92137 8.73532L11.8328 9.32401C12.0023 8.77366 12.6004 8.47983 13.1396 8.68203L13.8418 6.80937ZM8.93666 11.9325C8.54739 13.1964 9.20981 14.5448 10.4481 15.0092L11.1503 13.1365C10.9027 13.0437 10.7702 12.774 10.8481 12.5212L8.93666 11.9325ZM3.21793 8.39531L2.0443 12.2059L3.9557 12.7946L5.12932 8.984L3.21793 8.39531ZM6.25996 12.3423L3.25996 11.5346L2.74004 13.4659L5.74004 14.2735L6.25996 12.3423ZM7.56067 7.64146L7.74003 7.68975L8.25997 5.75852L8.08062 5.71023L7.56067 7.64146ZM6.95683 13.5986L8.95683 7.01479L7.04317 6.43347L5.04317 13.0172L6.95683 13.5986ZM5.12932 8.984C5.44625 7.95497 6.52096 7.36154 7.56067 7.64146L8.08062 5.71023C6.0012 5.15039 3.85179 6.33725 3.21793 8.39531L5.12932 8.984ZM16 4V6C17.1046 6 18 5.10457 18 4H16ZM16 4H14C14 5.10457 14.8954 6 16 6V4ZM16 4V2C14.8954 2 14 2.89543 14 4H16ZM16 4H18C18 2.89543 17.1046 2 16 2V4Z" fill="black"/>
</svg>
