<svg width="24" height="24" viewBox="0 0 24 24" fill="none" xmlns="http://www.w3.org/2000/svg">
<path d="M12.0006 21V6.5C12.0006 4.567 13.5676 3 15.5006 3C17.4336 3 19.0006 4.567 19.0006 6.5V9M12.0006 12V11.5C12.0006 9.567 10.4336 8 8.50062 8C6.56762 8 5.00062 9.567 5.00062 11.5V14M20.8385 11.7945L19.0006 14L17.1627 11.7945C16.7304 11.2757 16.4561 10.6438 16.3723 9.97378C16.175 8.39473 17.4093 7 19.0006 7C20.592 7 21.8263 8.39473 21.6289 9.97378C21.5451 10.6438 21.2708 11.2758 20.8385 11.7945ZM6.83853 16.7945L5.00062 19L3.1627 16.7945C2.73041 16.2757 2.45609 15.6438 2.37234 14.9738C2.17496 13.3947 3.40928 12 5.00062 12C6.59196 12 7.82627 13.3947 7.62889 14.9738C7.54514 15.6438 7.27082 16.2758 6.83853 16.7945Z" stroke="black" stroke-width="2" stroke-linecap="round" stroke-linejoin="round"/>
</svg>
