<svg width="24" height="24" viewBox="0 0 24 24" fill="none" xmlns="http://www.w3.org/2000/svg">
<path d="M6.72439 16L6.83311 16.2473C7.40476 17.5479 6.43772 19 5 19C3.56228 19 2.59524 17.5479 3.16689 16.2473L3.27561 16L5 13L6.72439 16Z" stroke="black" stroke-width="2" stroke-linecap="round" stroke-linejoin="round"/>
<path d="M12.6555 8L12.7914 8.32978C13.5059 10.0638 12.2971 12 10.5 12C8.70285 12 7.49405 10.0638 8.20861 8.32978L8.34451 8L10.5 4L12.6555 8Z" stroke="black" stroke-width="2" stroke-linecap="round" stroke-linejoin="round"/>
<path d="M20.5177 15L20.7079 15.4122C21.7083 17.5798 20.016 20 17.5 20C14.984 20 13.2917 17.5798 14.2921 15.4122L14.4823 15L17.5 10L20.5177 15Z" stroke="black" stroke-width="2" stroke-linecap="round" stroke-linejoin="round"/>
</svg>
