<svg width="24" height="24" viewBox="0 0 24 24" fill="none" xmlns="http://www.w3.org/2000/svg">
<path d="M12 2L12.7071 1.29289C12.3166 0.902369 11.6834 0.902369 11.2929 1.29289L12 2ZM19 9V10C19.4045 10 19.7691 9.75636 19.9239 9.38268C20.0787 9.00901 19.9931 8.57889 19.7071 8.29289L19 9ZM16 9V8C15.6156 8 15.2652 8.22035 15.0987 8.56681C14.9322 8.91328 14.979 9.32452 15.2191 9.62469L16 9ZM20 14V15C20.3844 15 20.7348 14.7797 20.9013 14.4332C21.0678 14.0867 21.021 13.6755 20.7809 13.3753L20 14ZM17 14V13C16.6156 13 16.2652 13.2203 16.0987 13.5668C15.9322 13.9133 15.979 14.3245 16.2191 14.6247L17 14ZM21 19V20C21.3844 20 21.7348 19.7797 21.9013 19.4332C22.0678 19.0867 22.021 18.6755 21.7809 18.3753L21 19ZM5 9L4.29289 8.29289C4.0069 8.57889 3.92134 9.00901 4.07612 9.38268C4.2309 9.75636 4.59554 10 5 10V9ZM8 9L8.78087 9.62469C9.021 9.32452 9.06782 8.91328 8.9013 8.56681C8.73478 8.22035 8.38441 8 8 8V9ZM4 14L3.21913 13.3753C2.979 13.6755 2.93218 14.0867 3.0987 14.4332C3.26522 14.7797 3.61559 15 4 15V14ZM7 14L7.78087 14.6247C8.021 14.3245 8.06782 13.9133 7.9013 13.5668C7.73478 13.2203 7.38441 13 7 13V14ZM3 19L2.21913 18.3753C1.979 18.6755 1.93218 19.0867 2.0987 19.4332C2.26522 19.7797 2.61559 20 3 20V19ZM11 22C11 22.5523 11.4477 23 12 23C12.5523 23 13 22.5523 13 22H11ZM13 10C13 9.44772 12.5523 9 12 9C11.4477 9 11 9.44772 11 10H13ZM11.2929 2.70711L18.2929 9.70711L19.7071 8.29289L12.7071 1.29289L11.2929 2.70711ZM19 8H16V10H19V8ZM15.2191 9.62469L19.2191 14.6247L20.7809 13.3753L16.7809 8.37531L15.2191 9.62469ZM20 13H17V15H20V13ZM16.2191 14.6247L20.2191 19.6247L21.7809 18.3753L17.7809 13.3753L16.2191 14.6247ZM11.2929 1.29289L4.29289 8.29289L5.70711 9.70711L12.7071 2.70711L11.2929 1.29289ZM5 10H8V8H5V10ZM7.21913 8.37531L3.21913 13.3753L4.78087 14.6247L8.78087 9.62469L7.21913 8.37531ZM4 15H7V13H4V15ZM6.21913 13.3753L2.21913 18.3753L3.78087 19.6247L7.78087 14.6247L6.21913 13.3753ZM13 22V10H11V22H13ZM21 18H3V20H21V18Z" fill="black"/>
</svg>
