<svg width="24" height="24" viewBox="0 0 24 24" fill="none" xmlns="http://www.w3.org/2000/svg">
<path d="M8 3L8.78087 2.3753C8.5911 2.13809 8.30378 2 8 2C7.69622 2 7.4089 2.13809 7.21913 2.3753L8 3ZM4 8L3.21913 7.37531C2.979 7.67548 2.93218 8.08672 3.0987 8.43319C3.26522 8.77965 3.61559 9 4 9V8ZM6 8L6.85749 8.5145C7.04285 8.20556 7.04771 7.82081 6.8702 7.5073C6.69269 7.19379 6.36027 7 6 7V8ZM3 13L2.14251 12.4855C1.95715 12.7944 1.95229 13.1792 2.1298 13.4927C2.30731 13.8062 2.63973 14 3 14V13ZM5 13L5.89443 13.4472C6.04942 13.1372 6.03286 12.7691 5.85065 12.4743C5.66844 12.1795 5.34658 12 5 12V13ZM2 19L1.10557 18.5528C0.950579 18.8628 0.967143 19.2309 1.14935 19.5257C1.33156 19.8205 1.65342 20 2 20V19ZM12 8V9C12.3844 9 12.7348 8.77965 12.9013 8.43319C13.0678 8.08672 13.021 7.67548 12.7809 7.37531L12 8ZM10 8V7C9.63973 7 9.30731 7.19379 9.1298 7.5073C8.95229 7.82081 8.95715 8.20556 9.14251 8.5145L10 8ZM13 13V14C13.3603 14 13.6927 13.8062 13.8702 13.4927C14.0477 13.1792 14.0429 12.7944 13.8575 12.4855L13 13ZM11 13V12C10.6534 12 10.3316 12.1795 10.1493 12.4743C9.96714 12.7691 9.95058 13.1372 10.1056 13.4472L11 13ZM14 19V20C14.3466 20 14.6684 19.8205 14.8507 19.5257C15.0329 19.2309 15.0494 18.8628 14.8944 18.5528L14 19ZM16 3L16.7809 2.3753C16.5911 2.13809 16.3038 2 16 2C15.6962 2 15.4089 2.13809 15.2191 2.3753L16 3ZM20 8V9C20.3844 9 20.7348 8.77965 20.9013 8.43319C21.0678 8.08672 21.021 7.67548 20.7809 7.37531L20 8ZM18 8V7C17.6397 7 17.3073 7.19379 17.1298 7.5073C16.9523 7.82081 16.9571 8.20556 17.1425 8.5145L18 8ZM21 13V14C21.3603 14 21.6927 13.8062 21.8702 13.4927C22.0477 13.1792 22.0429 12.7944 21.8575 12.4855L21 13ZM19 13V12C18.6534 12 18.3316 12.1795 18.1493 12.4743C17.9671 12.7691 17.9506 13.1372 18.1056 13.4472L19 13ZM22 19V20C22.3466 20 22.6684 19.8205 22.8507 19.5257C23.0329 19.2309 23.0494 18.8628 22.8944 18.5528L22 19ZM16 18C15.4477 18 15 18.4477 15 19C15 19.5523 15.4477 20 16 20V18ZM13.2191 4.8753C12.8741 5.30657 12.944 5.93586 13.3753 6.28087C13.8066 6.62588 14.4359 6.55596 14.7809 6.1247L13.2191 4.8753ZM7 21C7 21.5523 7.44772 22 8 22C8.55228 22 9 21.5523 9 21H7ZM9 15C9 14.4477 8.55228 14 8 14C7.44772 14 7 14.4477 7 15H9ZM15 21C15 21.5523 15.4477 22 16 22C16.5523 22 17 21.5523 17 21H15ZM17 15C17 14.4477 16.5523 14 16 14C15.4477 14 15 14.4477 15 15H17ZM7.21913 2.3753L3.21913 7.37531L4.78087 8.62469L8.78087 3.6247L7.21913 2.3753ZM4 9H6V7H4V9ZM5.14251 7.4855L2.14251 12.4855L3.85749 13.5145L6.85749 8.5145L5.14251 7.4855ZM3 14H5V12H3V14ZM4.10557 12.5528L1.10557 18.5528L2.89443 19.4472L5.89443 13.4472L4.10557 12.5528ZM7.21913 3.6247L11.2191 8.62469L12.7809 7.37531L8.78087 2.3753L7.21913 3.6247ZM12 7H10V9H12V7ZM9.14251 8.5145L12.1425 13.5145L13.8575 12.4855L10.8575 7.4855L9.14251 8.5145ZM13 12H11V14H13V12ZM10.1056 13.4472L13.1056 19.4472L14.8944 18.5528L11.8944 12.5528L10.1056 13.4472ZM15.2191 3.6247L19.2191 8.62469L20.7809 7.37531L16.7809 2.3753L15.2191 3.6247ZM20 7H18V9H20V7ZM17.1425 8.5145L20.1425 13.5145L21.8575 12.4855L18.8575 7.4855L17.1425 8.5145ZM21 12H19V14H21V12ZM18.1056 13.4472L21.1056 19.4472L22.8944 18.5528L19.8944 12.5528L18.1056 13.4472ZM22 18H16V20H22V18ZM15.2191 2.3753L13.2191 4.8753L14.7809 6.1247L16.7809 3.6247L15.2191 2.3753ZM9 21V15H7V21H9ZM17 21V15H15V21H17ZM2 20H14V18H2V20Z" fill="black"/>
</svg>
