<svg width="24" height="24" viewBox="0 0 24 24" fill="none" xmlns="http://www.w3.org/2000/svg">
<path d="M10.5 11C11.3 14.2 10.1667 19 9.5 21H14.5C14.8333 18.3333 15 12.4 13 10M6.42862 8C4.54598 9.95763 4.56921 13.0709 6.49832 15L11.4991 10H22C22 7.23858 19.7614 5 17 5C15.75 5 14.6072 5.45868 13.7306 6.2169L13.4386 6.46459C12.4831 4.41809 10.4067 3 7.99907 3C5.02608 3 2.47608 5.16229 2 8H6.42862ZM6.42862 8C6.45157 7.97614 6.4748 7.95245 6.49832 7.92893C7.21016 7.21709 8.08324 6.76475 9 6.57193M18 10V8.5" stroke="black" stroke-width="2" stroke-linecap="round" stroke-linejoin="round"/>
</svg>
