<svg width="24" height="24" viewBox="0 0 24 24" fill="none" xmlns="http://www.w3.org/2000/svg">
<path d="M8.44405 9.11876L4.92969 9L6.74323 12.0015M11.9995 16.9193C12.4396 17.4251 12.9767 17.8029 13.5691 18.0859L12 21L10.4307 18.0856C11.0228 17.8026 11.5596 17.4249 11.9995 16.9193ZM11.9995 16.9193C13.9661 19.1796 17.8687 18.8835 19.999 19C19.4504 16.6481 19.0283 11.9677 15.4254 11.0041C16.3501 7.84873 13.3555 4.81006 11.998 3C10.6403 4.81019 7.64581 7.84917 8.57118 11.0048C4.9705 11.9698 4.54849 16.6486 4 19C6.13032 18.8835 10.0329 19.1796 11.9995 16.9193ZM17.24 11.9872L19.0009 9.00001L15.5513 9.11227M13 13C13 13.5523 12.5523 14 12 14C11.4477 14 11 13.5523 11 13C11 12.4477 11.4477 12 12 12C12.5523 12 13 12.4477 13 13Z" stroke="black" stroke-width="2" stroke-linecap="round" stroke-linejoin="round"/>
</svg>
