<svg width="24" height="24" viewBox="0 0 24 24" fill="none" xmlns="http://www.w3.org/2000/svg">
<path fill-rule="evenodd" clip-rule="evenodd" d="M16.4786 5.16486C15.5674 4.25364 14.09 4.25364 13.1788 5.16486L6.34345 12.0002C4.78135 13.5623 4.78135 16.095 6.34345 17.6571C7.90554 19.2192 10.4382 19.2192 12.0003 17.6571L19.1207 10.5367C19.5112 10.1462 20.1444 10.1462 20.5349 10.5367C20.9254 10.9272 20.9254 11.5604 20.5349 11.9509L13.4145 19.0713C11.0714 21.4144 7.27238 21.4144 4.92923 19.0713C2.58609 16.7282 2.58609 12.9292 4.92923 10.586L11.7646 3.75065C13.4569 2.05838 16.2006 2.05838 17.8929 3.75065C19.5851 5.44292 19.5851 8.18664 17.8929 9.87891L11.0685 16.7033C10.0271 17.7447 8.33862 17.7447 7.29722 16.7033C6.25582 15.6619 6.25582 13.9735 7.29722 12.9321L13.5187 6.71063C13.9092 6.32011 14.5424 6.32011 14.9329 6.71063C15.3234 7.10116 15.3234 7.73432 14.9329 8.12484L8.71143 14.3463C8.45108 14.6066 8.45108 15.0287 8.71143 15.2891C8.97178 15.5494 9.39389 15.5494 9.65424 15.2891L16.4786 8.46469C17.3899 7.55347 17.3899 6.07609 16.4786 5.16486Z" fill="black"/>
</svg>
