<svg width="24" height="24" viewBox="0 0 24 24" fill="none" xmlns="http://www.w3.org/2000/svg">
<path opacity="0.3" d="M13.024 2.16235C12.6864 2.27844 12.5 2.62117 12.5 2.97814V21.0219C12.5 21.3788 12.6864 21.7216 13.024 21.8377C13.3299 21.9429 13.6583 22 14 22C14.8938 22 15.6953 21.609 16.2441 20.9907C16.3287 20.9969 16.4141 21 16.5 21C18.157 21 19.5446 19.849 19.9075 18.3023C21.1638 17.5053 22 16.1011 22 14.5C22 13.2928 21.524 12.1968 20.7518 11.3895C20.9123 10.9562 21 10.4878 21 10C21 8.50213 20.1771 7.19835 18.9607 6.51298C18.7753 5.37745 17.9524 4.45617 16.8715 4.12854C16.4981 2.89669 15.3538 2 14 2C13.6583 2 13.3299 2.05713 13.024 2.16235Z" fill="black"/>
<path d="M11.5 2.97814C11.5 2.62117 11.3136 2.27843 10.976 2.16235C10.6701 2.05713 10.3417 2 10 2C8.64623 2 7.5019 2.89669 7.12854 4.12854C6.04759 4.45616 5.22471 5.37745 5.03933 6.51297C3.82289 7.19835 3 8.50213 3 10C3 10.4878 3.08769 10.9562 3.24823 11.3895C2.47596 12.1968 2 13.2928 2 14.5C2 16.1011 2.83617 17.5053 4.09253 18.3023C4.45544 19.849 5.84298 21 7.5 21C7.58595 21 7.67127 20.9969 7.75586 20.9907C8.30472 21.609 9.10618 22 10 22C10.3417 22 10.6701 21.9429 10.976 21.8377C11.3136 21.7216 11.5 21.3788 11.5 21.0219V2.97814Z" fill="black"/>
</svg>
