<svg width="24" height="24" viewBox="0 0 24 24" fill="none" xmlns="http://www.w3.org/2000/svg">
<g opacity="0.3">
<path d="M8.32322 20.591C8.70163 20.2126 9.21485 20 9.75 20C10.2851 20 10.7984 20.2126 11.1768 20.591L11.409 20.8232C12.1625 21.5767 13.1844 22 14.25 22C15.3156 22 16.3375 21.5767 17.091 20.8232L17.3232 20.591C17.7016 20.2126 18.2149 20 18.75 20C19.2851 20 19.7984 20.2126 20.1768 20.591L20.7929 21.2071C21.1834 21.5976 21.8166 21.5976 22.2071 21.2071C22.5976 20.8166 22.5976 20.1834 22.2071 19.7929L21.591 19.1768C20.8375 18.4233 19.8156 18 18.75 18C17.6844 18 16.6625 18.4233 15.909 19.1768L15.6768 19.409C15.2984 19.7874 14.7851 20 14.25 20C13.7149 20 13.2016 19.7874 12.8232 19.409L12.591 19.1768C11.8375 18.4233 10.8156 18 9.75 18C8.68442 18 7.66249 18.4233 6.90901 19.1768L6.67678 19.409C6.29837 19.7874 5.78515 20 5.25 20C4.71486 20 4.20163 19.7874 3.82322 19.409L3.20711 18.7929C2.81658 18.4024 2.18342 18.4024 1.79289 18.7929C1.40237 19.1834 1.40237 19.8166 1.79289 20.2071L2.40901 20.8232C3.16249 21.5767 4.18442 22 5.25 22C6.31558 22 7.33751 21.5767 8.09099 20.8232L8.32322 20.591Z" fill="black"/>
<path d="M12 2C12.5523 2 13 2.44772 13 3V3.61035C14.7697 4.00682 16.1772 5.43437 16.4989 7.28429L17.1445 11L6.85547 11L7.50043 7.28429C7.8222 5.43413 9.23004 4.00647 11 3.6102V3C11 2.44772 11.4477 2 12 2Z" fill="black"/>
</g>
<path d="M6.0148 15.8287L6.85547 11L17.1445 11L17.9852 15.8287C18.0358 16.1195 17.9553 16.4178 17.7653 16.6437C17.5753 16.8696 17.2952 17 17 17H7.00001C6.70482 17 6.42472 16.8696 6.23472 16.6437C6.04471 16.4178 5.96422 16.1195 6.0148 15.8287Z" fill="black"/>
</svg>
