<svg width="24" height="24" viewBox="0 0 24 24" fill="none" xmlns="http://www.w3.org/2000/svg">
<path opacity="0.3" d="M10 11.8446C10.1759 12.2361 10.4235 12.6026 10.7452 12.9243L13.0078 15.1869L14.4221 13.7727L17.2505 10.9443L18.6647 9.53009L16.402 7.26741C14.8729 5.73826 12.4019 5.89348 10.8866 7.40883C10.4994 7.79606 10.2024 8.24143 9.99906 8.71578C9.95158 6.59508 8.11513 5 6 5C3.85696 5 2 6.63746 2 8.8V12H10V11.8446Z" fill="black"/>
<path fill-rule="evenodd" clip-rule="evenodd" d="M2 15.1999V11.9999H10V15.1999C10 17.3625 8.14304 18.9999 6 18.9999C3.85696 18.9999 2 17.3625 2 15.1999ZM13.0078 15.1869L15.2707 17.4497C16.0352 18.2143 17.0353 18.5577 18.0336 18.5207C19.0318 18.4836 20.0284 18.0659 20.7861 17.3083C21.5588 16.5355 21.9721 15.5312 21.9994 14.5271C22.0262 13.5402 21.6786 12.5439 20.9275 11.7928L18.6647 9.53003L17.2505 10.9442L14.4221 13.7727L13.0078 15.1869Z" fill="black"/>
</svg>
