<svg width="24" height="24" viewBox="0 0 24 24" fill="none" xmlns="http://www.w3.org/2000/svg">
<path opacity="0.3" fill-rule="evenodd" clip-rule="evenodd" d="M10.8468 4.12709C11.9135 2.84003 13.7842 2.62068 15.1089 3.64818C15.6526 4.06992 16.0424 4.65939 16.2257 5.32278L16.4031 5.96499C16.7439 7.19822 17.7026 8.11755 18.8766 8.38736L19.8113 8.60218C21.1118 8.90106 21.9999 10.0794 21.9999 11.398C21.9999 12.572 21.2949 13.649 20.191 14.0771L19.8462 14.2108C18.5617 14.709 17.6844 15.9934 17.6844 17.4573V17.7117C17.6844 18.7154 17.2278 19.6716 16.4342 20.2871L16.3608 20.344C15.2855 21.1781 13.8095 21.2214 12.6888 20.4486L10.8602 19.1879C10.0115 18.6028 8.95573 18.4584 7.9952 18.7895L6.24834 19.3917C5.19688 19.7542 4.04399 19.467 3.27358 18.6703L3.19871 18.5928C2.12873 17.4863 2.12873 15.7057 3.19871 14.5991C4.21421 13.5489 4.21421 11.8327 3.19871 10.7825L2.85739 10.4295C2.02569 9.5694 1.77734 8.29277 2.20806 7.17918C2.72203 5.85032 4.09046 5.04505 5.50426 5.31089L7.41968 5.67105C8.56326 5.88609 9.74188 5.4602 10.5135 4.52916L10.8468 4.12709ZM13 13.0001C12.4477 13.0001 12 13.4478 12 14.0001C12 14.5524 12.4477 15.0001 13 15.0001H13.009C13.5613 15.0001 14.009 14.5524 14.009 14.0001C14.009 13.4478 13.5613 13.0001 13.009 13.0001H13ZM8 11.0001C8 10.4478 8.44772 10.0001 9 10.0001H9.009C9.56128 10.0001 10.009 10.4478 10.009 11.0001C10.009 11.5524 9.56128 12.0001 9.009 12.0001H9C8.44772 12.0001 8 11.5524 8 11.0001ZM14 9.00012C13.4477 9.00012 13 9.44784 13 10.0001C13 10.5524 13.4477 11.0001 14 11.0001H14.009C14.5613 11.0001 15.009 10.5524 15.009 10.0001C15.009 9.44784 14.5613 9.00012 14.009 9.00012H14Z" fill="black"/>
<path fill-rule="evenodd" clip-rule="evenodd" d="M12 14C12 13.4477 12.4477 13 13 13H13.009C13.5613 13 14.009 13.4477 14.009 14C14.009 14.5523 13.5613 15 13.009 15H13C12.4477 15 12 14.5523 12 14Z" fill="black"/>
<path fill-rule="evenodd" clip-rule="evenodd" d="M8 11C8 10.4477 8.44772 10 9 10H9.009C9.56128 10 10.009 10.4477 10.009 11C10.009 11.5523 9.56128 12 9.009 12H9C8.44772 12 8 11.5523 8 11Z" fill="black"/>
<path fill-rule="evenodd" clip-rule="evenodd" d="M13 10C13 9.44772 13.4477 9 14 9H14.009C14.5613 9 15.009 9.44772 15.009 10C15.009 10.5523 14.5613 11 14.009 11H14C13.4477 11 13 10.5523 13 10Z" fill="black"/>
</svg>
