<svg width="24" height="24" viewBox="0 0 24 24" fill="none" xmlns="http://www.w3.org/2000/svg">
<path opacity="0.3" fill-rule="evenodd" clip-rule="evenodd" d="M7.50164 3C7.50164 2.44772 7.94935 2 8.50164 2H15.5016C16.0539 2 16.5016 2.44772 16.5016 3C16.5016 3.55228 16.0539 4 15.5016 4V10.4986L19.8638 17.3807C21.144 19.3768 19.7107 22 17.3384 22H6.66506C4.29273 22 2.85945 19.3768 4.13963 17.3807L8.50164 10.4986V4C7.94935 4 7.50164 3.55228 7.50164 3ZM10.5016 4V10.7888C10.5016 10.9784 10.4478 11.1641 10.3463 11.3242L5.8239 18.4592C5.39607 19.1247 5.8739 20 6.66506 20H17.3384C18.1296 20 18.6074 19.1247 18.1796 18.4592L18.1761 18.4538L13.657 11.3242C13.5555 11.1641 13.5016 10.9784 13.5016 10.7888V4H10.5016Z" fill="black"/>
<path d="M8.65089 14H15.3537L18.1767 18.4538L18.1802 18.4592C18.608 19.1247 18.1302 20 17.339 20H6.66568C5.87452 20 5.39669 19.1247 5.82452 18.4592L8.65089 14Z" fill="black"/>
</svg>
