<svg width="24" height="24" viewBox="0 0 24 24" fill="none" xmlns="http://www.w3.org/2000/svg">
<path opacity="0.3" fill-rule="evenodd" clip-rule="evenodd" d="M9 12.0439L7.82888 13.8916C7.81198 13.917 7.79564 13.9428 7.77986 13.969L5.95964 16.8408L5.95811 16.8432C5.31075 17.8541 5.18498 18.9854 5.45127 19.9997C3.54074 19.9736 2 18.4167 2 16.5V4C1.44772 4 1 3.55228 1 3C1 2.44772 1.44772 2 2 2H9C9.13711 2 9.26778 2.0276 9.38675 2.07754C9.24302 2.35354 9.16178 2.66728 9.16178 3C9.16178 3.33271 9.24302 3.64645 9.38675 3.92246C9.26778 3.9724 9.13711 4 9 4V12.0439ZM4 4V8H7V4H4Z" fill="black"/>
<path fill-rule="evenodd" clip-rule="evenodd" d="M18.1602 2C18.7124 2 19.1602 2.44772 19.1602 3C19.1602 3.55174 18.7133 3.99912 18.1618 4V10.4986L22.524 17.3807C23.8042 19.3768 22.3709 22 19.9986 22H9.32522C6.95289 22 5.51961 19.3768 6.79979 17.3807L8.63006 14.493C8.64103 14.4744 8.6526 14.4561 8.66472 14.4383L11.1618 10.4986V4H11.1602C10.6079 4 10.1602 3.55228 10.1602 3C10.1602 2.44772 10.6079 2 11.1602 2H18.1602ZM16.1618 4V10.7888C16.1618 10.9784 16.2157 11.1641 16.3172 11.3242L18.0132 14H11.3104L13.0064 11.3242C13.1079 11.1641 13.1618 10.9784 13.1618 10.7888V4H16.1618Z" fill="black"/>
</svg>
