<svg width="24" height="24" viewBox="0 0 24 24" fill="none" xmlns="http://www.w3.org/2000/svg">
<path opacity="0.3" d="M13.8398 3C13.8398 2.44772 13.3921 2 12.8398 2H5.83984C5.28756 2 4.83984 2.44772 4.83984 3C4.83984 3.55228 5.28756 4 5.83984 4H5.84148V10.4986L3.34441 14.4383C3.33228 14.4561 3.32072 14.4744 3.30974 14.493L1.47948 17.3807C0.199298 19.3768 1.63258 22 4.00491 22H13.4411C13.3977 21.9514 13.3557 21.9013 13.3153 21.8498C13.2969 21.8263 13.279 21.8024 13.2616 21.7784C13.0892 21.8174 12.8964 21.8483 12.6987 21.8544C12.1706 21.8707 11.6475 21.7472 11.1824 21.4964C10.7763 21.2775 10.4543 20.9499 10.2984 20.7912C10.2822 20.7747 10.2677 20.76 10.2552 20.7475C10.2429 20.7351 10.2285 20.721 10.2123 20.7051L10.2115 20.7043C10.0528 20.5484 9.72521 20.2264 9.50625 19.8203C9.25548 19.3552 9.132 18.8321 9.1483 18.304C9.15445 18.1047 9.18578 17.9103 9.22521 17.7369C9.14262 17.678 9.06139 17.6136 8.98392 17.5432C8.62988 17.2215 8.3579 16.8198 8.19069 16.3716C7.99177 15.8384 7.9979 15.2647 8.00086 14.9878C8.00117 14.9587 8.00145 14.9329 8.00145 14.9108C8.00145 14.892 8.00125 14.8702 8.00102 14.8456C7.99939 14.6679 7.99644 14.3471 8.05874 14H5.99012L7.68611 11.3242C7.7876 11.1641 7.84148 10.9784 7.84148 10.7888V4H10.8415V8.71932C10.9247 8.65753 11.014 8.59746 11.1081 8.54334C11.6145 8.25216 12.1949 8.11516 12.778 8.14913C12.7993 8.15037 12.8204 8.15189 12.8415 8.15367V4C13.393 3.99912 13.8398 3.55174 13.8398 3Z" fill="black"/>
<path fill-rule="evenodd" clip-rule="evenodd" d="M15.9333 7.99991L15.9992 8.00006L16.0651 7.99991C16.3035 7.99913 16.6015 7.99816 16.8824 8.08012C17.284 8.19731 17.6387 8.43749 17.8967 8.76687C18.0571 8.9717 18.1617 9.21343 18.2446 9.42033L18.4868 9.3398L18.5438 9.32067C18.7514 9.25077 19.0112 9.16328 19.282 9.1475C19.6708 9.12486 20.0577 9.21619 20.3953 9.41031C20.6305 9.54554 20.8238 9.74 20.9782 9.89536L21.0206 9.93797L21.0661 9.98319C21.2309 10.147 21.4369 10.3517 21.576 10.6016C21.7756 10.9602 21.86 11.3715 21.8178 11.7797C21.7884 12.0641 21.6797 12.3335 21.5927 12.549L21.5797 12.5813L21.7382 12.6764L21.7978 12.712C22.0167 12.8423 22.2919 13.0061 22.5024 13.2455C22.6845 13.4526 22.8218 13.6951 22.9057 13.9578C23.0027 14.2615 23.0016 14.5838 23.0007 14.8405L23.0005 14.9109L23.0007 14.9947C23.002 15.297 23.0035 15.6758 22.8743 16.0221C22.7628 16.3209 22.5815 16.5887 22.3455 16.8032C22.1152 17.0124 21.8305 17.1436 21.5798 17.2456L21.6497 17.456L21.6708 17.5189C21.7481 17.748 21.8449 18.0352 21.8541 18.3349C21.865 18.687 21.7827 19.0357 21.6155 19.3458C21.4732 19.6097 21.2582 19.8232 21.0866 19.9936L21.0396 20.0404L20.9928 20.0875C20.8224 20.259 20.6088 20.474 20.3449 20.6163C20.0349 20.7835 19.6862 20.8658 19.3341 20.8549C19.0344 20.8457 18.7472 20.7489 18.5181 20.6717L18.4552 20.6506L18.2444 20.5803C18.1615 20.7871 18.057 21.0286 17.8967 21.2332C17.6387 21.5626 17.284 21.8028 16.8824 21.92C16.6015 22.002 16.3035 22.001 16.0651 22.0002L15.9992 22.0001L15.9333 22.0002C15.6948 22.001 15.3969 22.002 15.116 21.92C14.7144 21.8028 14.3596 21.5626 14.1017 21.2332C13.9415 21.0288 13.8371 20.7876 13.7542 20.5809L13.5464 20.6503L13.4829 20.6717C13.2538 20.7489 12.9666 20.8457 12.6669 20.8549C12.3148 20.8658 11.9661 20.7835 11.656 20.6163C11.3921 20.474 11.1785 20.259 11.0082 20.0875L10.9613 20.0404L10.9143 19.9936C10.7428 19.8232 10.5278 19.6097 10.3855 19.3458C10.2183 19.0357 10.136 18.687 10.1469 18.3349C10.1561 18.0352 10.2529 17.748 10.3301 17.5189L10.3511 17.4566L10.4211 17.2456C10.1704 17.1436 9.88575 17.0124 9.65546 16.8032C9.41944 16.5887 9.23812 16.3209 9.12664 16.0221C8.99746 15.6758 8.99901 15.297 9.00025 14.9947L9.00048 14.9109L9.00031 14.8405C8.99941 14.5838 8.99827 14.2615 9.09527 13.9578C9.17916 13.6951 9.31646 13.4526 9.49854 13.2455C9.70906 13.0061 9.9843 12.8423 10.2031 12.712L10.2622 12.6768L10.4213 12.5812L10.4083 12.549C10.3213 12.3335 10.2125 12.0641 10.1831 11.7797C10.141 11.3715 10.2254 10.9602 10.425 10.6016C10.564 10.3517 10.7701 10.147 10.9349 9.98319L10.9803 9.93797L11.0228 9.89536C11.1772 9.74 11.3705 9.54554 11.6057 9.41031C11.9432 9.2162 12.3302 9.12486 12.7189 9.1475C12.9898 9.16328 13.2496 9.25077 13.4572 9.32067L13.5142 9.3398L13.754 9.41973C13.8369 9.21296 13.9414 8.9715 14.1017 8.76687C14.3596 8.43749 14.7144 8.19731 15.116 8.08012C15.3969 7.99816 15.6948 7.99913 15.9333 7.99991ZM16 17.0001C17.1046 17.0001 18 16.1046 18 15.0001C18 13.8955 17.1046 13.0001 16 13.0001C14.8954 13.0001 14 13.8955 14 15.0001C14 16.1046 14.8954 17.0001 16 17.0001Z" fill="black"/>
</svg>
