<svg width="24" height="24" viewBox="0 0 24 24" fill="none" xmlns="http://www.w3.org/2000/svg">
<g opacity="0.3">
<path d="M8.09012 16.2935L5 19.4518V11.6986C5 10.0052 3.65685 8.6324 2 8.6324C1.44772 8.6324 1 9.08999 1 9.65446C1 10.2189 1.44772 10.6765 2 10.6765C2.55228 10.6765 3 11.1341 3 11.6986V19.4518C3 21.2729 5.15428 22.1849 6.41421 20.8972L9.50431 17.7389L9.22488 17.8048C8.88892 17.8841 8.53672 17.7808 8.29291 17.5316C8.04911 17.2825 7.9481 16.9225 8.02563 16.5791L8.09012 16.2935Z" fill="black"/>
<path d="M8.29291 17.5316C8.53672 17.7808 8.88892 17.8841 9.22488 17.8048L22.2249 14.7386C22.4191 14.6928 22.589 14.591 22.7199 14.4522L17.0129 8.6193L8.29291 17.5316Z" fill="black"/>
<path d="M22.0001 2.5H12.0001C11.7337 2.5 11.4874 2.60752 11.3059 2.78638L17.0129 8.6193L22.7072 2.79935C22.5262 2.61439 22.2762 2.5 22.0001 2.5Z" fill="black"/>
</g>
<path fill-rule="evenodd" clip-rule="evenodd" d="M11.3058 2.78638C11.17 2.92015 11.0704 3.09381 11.0256 3.29224L8.02563 16.5791C7.9481 16.9225 8.04911 17.2825 8.29291 17.5316L17.0128 8.6193L22.7198 14.4522C22.8948 14.2667 23 14.015 23 13.7427V3.52207C23 3.23983 22.8881 2.9843 22.7071 2.79935L17.0128 8.6193L11.3058 2.78638Z" fill="black"/>
</svg>
