<svg width="24" height="24" viewBox="0 0 24 24" fill="none" xmlns="http://www.w3.org/2000/svg">
<path opacity="0.3" d="M3 10C2.44772 10 2 10.4477 2 11C2 11.5523 2.44772 12 3 12V14.5147C3 17.025 4.64656 19.238 7.05092 19.9593L7.17938 19.9978C7.19831 20.0035 7.20749 20.0108 7.21342 20.0168C7.22087 20.0244 7.22842 20.0359 7.23313 20.051C7.23784 20.0661 7.23819 20.0799 7.23637 20.0904C7.23492 20.0987 7.23148 20.1099 7.21913 20.1253L6.21913 21.3753C5.979 21.6755 5.93218 22.0867 6.0987 22.4332C6.26522 22.7797 6.61559 23 7 23H17C17.3844 23 17.7348 22.7797 17.9013 22.4332C18.0678 22.0867 18.021 21.6755 17.7809 21.3753L16.7809 20.1253C16.7685 20.1099 16.7651 20.0987 16.7636 20.0904C16.7618 20.0799 16.7622 20.0661 16.7669 20.051C16.7716 20.0359 16.7791 20.0244 16.7866 20.0168C16.7925 20.0108 16.8017 20.0035 16.8206 19.9978L16.9491 19.9593C19.3534 19.238 21 17.025 21 14.5147V12C21.5523 12 22 11.5523 22 11C22 10.4477 21.5523 10 21 10H3Z" fill="black"/>
<path d="M20.8182 2.4049C19.8081 1.39479 18.156 1.44338 17.207 2.5111L10.5508 10.0001H17.9429L21.083 5.60328C21.7883 4.61571 21.6763 3.26301 20.8182 2.4049Z" fill="black"/>
</svg>
