<svg width="24" height="24" viewBox="0 0 24 24" fill="none" xmlns="http://www.w3.org/2000/svg">
<g opacity="0.3">
<path d="M14.2259 10.5188C14.0168 10.3097 14.0332 9.96359 14.2812 9.8026C16.2188 8.54477 18.8365 8.76539 20.5355 10.4645C22.2346 12.1635 22.4552 14.7812 21.1974 16.7188C21.0364 16.9668 20.6903 16.9832 20.4812 16.7741L14.2259 10.5188Z" fill="black"/>
<path d="M13.5188 11.2259C13.3097 11.0168 12.9636 11.0332 12.8026 11.2812C11.5448 13.2188 11.7654 15.8365 13.4645 17.5355C15.1635 19.2346 17.7812 19.4552 19.7188 18.1974C19.9668 18.0364 19.9832 17.6903 19.7741 17.4812L13.5188 11.2259Z" fill="black"/>
<path d="M6 5C8.14304 5 10 6.63746 10 8.8V12H2V8.8C2 6.63746 3.85696 5 6 5Z" fill="black"/>
</g>
<path d="M6 19C3.85696 19 2 17.3625 2 15.2V12H10V15.2C10 17.3625 8.14304 19 6 19Z" fill="black"/>
</svg>
