<svg width="24" height="24" viewBox="0 0 24 24" fill="none" xmlns="http://www.w3.org/2000/svg">
<path opacity="0.3" d="M13.7916 3.79443C13.4024 4.18506 13.4028 4.81725 13.7929 5.20734L18.7929 10.2073C19.1821 10.5966 19.8125 10.5979 20.2033 10.2111L11.2071 19.2073C11.0196 19.3948 10.7652 19.5002 10.5 19.5002L5.91422 19.5002L3.70711 21.7073C3.31658 22.0978 2.68342 22.0978 2.29289 21.7073C1.90237 21.3168 1.90237 20.6836 2.29289 20.2931L4.5 18.086V13.5002C4.5 13.235 4.60536 12.9806 4.79289 12.7931L7.08577 10.5002L9.29289 12.7073C9.68342 13.0978 10.3166 13.0978 10.7071 12.7073C11.0976 12.3168 11.0976 11.6836 10.7071 11.2931L8.49999 9.08598L9.58578 8.00019L11.7929 10.2073C12.1834 10.5978 12.8166 10.5978 13.2071 10.2073C13.5976 9.81678 13.5976 9.18362 13.2071 8.79309L11 6.58598L13.7916 3.79443Z" fill="black"/>
<path d="M15.2071 3.79289C14.8166 3.40237 14.1834 3.40237 13.7929 3.79289C13.4024 4.18342 13.4024 4.81658 13.7929 5.20711L18.7929 10.2071C19.1834 10.5976 19.8166 10.5976 20.2071 10.2071C20.5976 9.81658 20.5976 9.18342 20.2071 8.79289L18.4142 7L19.5 5.91421L20.2929 6.70711C20.6834 7.09763 21.3166 7.09763 21.7071 6.70711C22.0976 6.31658 22.0976 5.68342 21.7071 5.29289L18.7071 2.29289C18.3166 1.90237 17.6834 1.90237 17.2929 2.29289C16.9024 2.68342 16.9024 3.31658 17.2929 3.70711L18.0858 4.5L17 5.58579L15.2071 3.79289Z" fill="black"/>
<path d="M10.7073 12.7071C11.0978 12.3166 11.0978 11.6834 10.7073 11.2929L8.50015 9.08582L7.08594 10.5L9.29305 12.7071C9.68357 13.0977 10.3167 13.0977 10.7073 12.7071Z" fill="black"/>
<path d="M13.2073 10.2071C13.5978 9.81661 13.5978 9.18345 13.2073 8.79292L11.0002 6.58582L9.58594 8.00003L11.793 10.2071C12.1836 10.5977 12.8167 10.5977 13.2073 10.2071Z" fill="black"/>
</svg>
