<svg width="24" height="24" viewBox="0 0 24 24" fill="none" xmlns="http://www.w3.org/2000/svg">
<path opacity="0.3" fill-rule="evenodd" clip-rule="evenodd" d="M3 2C2.44772 2 2 2.44772 2 3C2 3.55228 2.44772 4 3 4V18C3 20.2092 4.79086 22 7 22C8.41426 22 9.6571 21.2661 10.3684 20.1583C9.50845 18.9956 9 17.5572 9 16C9 14.0927 9.76281 12.3636 11 11.101V4C11.5523 4 12 3.55228 12 3C12 2.44772 11.5523 2 11 2H3ZM5 9V4H9V9H5Z" fill="black"/>
<path fill-rule="evenodd" clip-rule="evenodd" d="M11 12.6822C10.3682 13.6325 10 14.7733 10 16C10 17.1273 10.3109 18.182 10.8516 19.0831C11.9004 20.8306 13.8136 22 16 22C19.3137 22 22 19.3137 22 16C22 12.6863 19.3137 10 16 10C13.913 10 12.0749 11.0655 11 12.6822ZM19.2203 13.6397C19.6034 14.0376 19.5915 14.6706 19.1936 15.0537L15.7321 18.387C15.3449 18.7599 14.7321 18.7599 14.3448 18.387L12.8064 16.9055C12.4085 16.5225 12.3966 15.8894 12.7797 15.4916C13.1628 15.0938 13.7958 15.0818 14.1936 15.4649L15.0385 16.2784L17.8064 13.6131C18.2042 13.23 18.8372 13.2419 19.2203 13.6397Z" fill="black"/>
</svg>
