<svg width="24" height="24" viewBox="0 0 24 24" fill="none" xmlns="http://www.w3.org/2000/svg">
<path opacity="0.3" d="M12.1281 3.08299C12.4765 2.99934 12.8353 2.99967 13.2422 3.00005L17.8385 3.0001C18.3657 3.00008 18.8205 3.00007 19.195 3.03067C19.5904 3.06297 19.9836 3.13429 20.362 3.32708C20.9265 3.6147 21.3854 4.07364 21.673 4.63813C21.8658 5.01651 21.9371 5.40973 21.9694 5.80507C22 6.17964 22 6.6344 22 7.16154V12.0001H14.8293C14.4175 10.8349 13.3062 10.0001 12 10.0001C10.6938 10.0001 9.58254 10.8349 9.1707 12.0001H2V10.1615C1.99998 9.6344 1.99997 9.17963 2.03057 8.80507C2.06287 8.40973 2.13419 8.01651 2.32698 7.63813C2.6146 7.07364 3.07355 6.6147 3.63803 6.32708C4.01641 6.13429 4.40963 6.06297 4.80498 6.03067C5.17955 6.00007 5.63431 6.00008 6.16146 6.0001L7.67452 6.0001C8.2113 6.0001 8.3167 5.99367 8.40502 5.97247C8.50706 5.94797 8.6046 5.90757 8.69408 5.85274C8.77114 5.80552 8.84982 5.73598 9.22463 5.36126L10.4145 4.17131C10.702 3.88332 10.9554 3.62942 11.2609 3.44218C11.5294 3.2777 11.822 3.15648 12.1281 3.08299Z" fill="black"/>
<path d="M3 3C2.44772 3 2 3.44772 2 4C2 4.55228 2.44772 5 3 5H8C8.55229 5 9 4.55228 9 4C9 3.44772 8.55229 3 8 3H3Z" fill="black"/>
<path d="M15 13C15 14.6569 13.6569 16 12 16C10.3431 16 9 14.6569 9 13C9 12.6494 9.06016 12.3128 9.17071 12H2V16.8385C1.99999 17.3656 1.99997 17.8205 2.03057 18.195C2.06288 18.5904 2.13419 18.9836 2.32699 19.362C2.61461 19.9265 3.07355 20.3854 3.63803 20.673C4.01641 20.8658 4.40963 20.9371 4.80498 20.9694C5.17955 21 5.63431 21 6.16145 21H17.8385C18.3657 21 18.8205 21 19.195 20.9694C19.5904 20.9371 19.9836 20.8658 20.362 20.673C20.9265 20.3854 21.3854 19.9265 21.673 19.362C21.8658 18.9836 21.9371 18.5904 21.9694 18.195C22 17.8205 22 17.3657 22 16.8386V12H14.8293C14.9398 12.3128 15 12.6494 15 13Z" fill="black"/>
</svg>
