<svg width="24" height="24" viewBox="0 0 24 24" fill="none" xmlns="http://www.w3.org/2000/svg">
<path opacity="0.3" d="M17.8385 3H6.16146C5.63432 2.99998 5.17954 2.99997 4.80497 3.03057C4.40963 3.06287 4.01641 3.13419 3.63803 3.32698C3.07354 3.6146 2.6146 4.07354 2.32698 4.63803C2.13419 5.01641 2.06287 5.40963 2.03057 5.80497C1.99997 6.17955 1.99998 6.63431 2 7.16145L2 15H4V7.2C4 6.62345 4.00078 6.25118 4.02393 5.96784C4.04612 5.69618 4.0838 5.59546 4.109 5.54601C4.20487 5.35785 4.35785 5.20487 4.54601 5.109C4.59546 5.0838 4.69617 5.04613 4.96784 5.02393C5.25117 5.00078 5.62345 5 6.2 5H17.8C18.3766 5 18.7488 5.00078 19.0322 5.02393C19.3038 5.04613 19.4045 5.0838 19.454 5.109C19.6422 5.20487 19.7951 5.35785 19.891 5.54601C19.9162 5.59546 19.9539 5.69618 19.9761 5.96784C19.9992 6.25118 20 6.62345 20 7.2V15H22V7.16144C22 6.6343 22 6.17954 21.9694 5.80497C21.9371 5.40963 21.8658 5.01641 21.673 4.63803C21.3854 4.07354 20.9265 3.6146 20.362 3.32698C19.9836 3.13419 19.5904 3.06287 19.195 3.03057C18.8205 2.99997 18.3657 2.99998 17.8385 3Z" fill="black"/>
<path d="M9.05268 16.0555C8.81735 15.999 8.57821 15.9996 8.3883 16.0001L8.33726 16.0002H2C1.44772 16.0002 1 16.4479 1 17.0002V17.0322C0.999989 17.4708 0.999979 17.8493 1.02135 18.1626C1.04386 18.4924 1.09336 18.8223 1.22836 19.1482C1.53285 19.8833 2.11687 20.4673 2.85195 20.7718C3.17788 20.9068 3.50779 20.9563 3.83762 20.9788C4.15085 21.0002 4.52931 21.0002 4.96791 21.0002H19.032C19.4706 21.0002 19.8491 21.0002 20.1624 20.9788C20.4922 20.9563 20.8221 20.9068 21.1481 20.7718C21.8831 20.4673 22.4672 19.8833 22.7716 19.1482C22.9066 18.8223 22.9561 18.4924 22.9787 18.1626C23 17.8493 23 17.4708 23 17.0322V17.0002C23 16.4479 22.5523 16.0002 22 16.0002H15.6627L15.6117 16.0001C15.4218 15.9996 15.1827 15.999 14.9473 16.0555C14.7433 16.1044 14.5482 16.1853 14.3692 16.2949C14.1629 16.4214 13.9942 16.5909 13.8603 16.7255L13.8243 16.7617L13.7615 16.8245C13.6689 16.9171 13.6225 16.9631 13.5874 16.9952L13.5847 16.9976L13.5811 16.9978C13.5336 17 13.4683 17.0002 13.3373 17.0002H10.6627C10.5317 17.0002 10.4664 17 10.4189 16.9978L10.4153 16.9976L10.4126 16.9952C10.3775 16.9631 10.3311 16.9171 10.2385 16.8245L10.1757 16.7617L10.1397 16.7256C10.0058 16.5909 9.83714 16.4214 9.63079 16.2949C9.45184 16.1853 9.25675 16.1044 9.05268 16.0555Z" fill="black"/>
</svg>
