<svg width="24" height="24" viewBox="0 0 24 24" fill="none" xmlns="http://www.w3.org/2000/svg">
<path opacity="0.3" d="M8.7587 2H15.2413C16.0463 1.99999 16.7106 1.99998 17.2518 2.0442C17.8139 2.09012 18.3306 2.18868 18.816 2.43598C19.5686 2.81947 20.1805 3.43139 20.564 4.18404C20.8113 4.66938 20.9099 5.18608 20.9558 5.74818C21 6.28937 21 6.95372 21 7.75868V18C21 15.7909 19.2091 14 17 14H7C4.79086 14 3 15.7909 3 18V7.75869C2.99999 6.95373 2.99998 6.28936 3.0442 5.74818C3.09012 5.18608 3.18868 4.66938 3.43598 4.18404C3.81947 3.43139 4.43139 2.81947 5.18404 2.43598C5.66938 2.18868 6.18608 2.09012 6.74818 2.0442C7.28936 1.99998 7.95375 1.99999 8.7587 2Z" fill="black"/>
<path d="M12.4285 6.87166C12.6336 6.35887 12.3842 5.7769 11.8714 5.57179C11.3586 5.36668 10.7766 5.61609 10.5715 6.12888L9.57153 8.62888C9.44829 8.93697 9.48591 9.28612 9.67194 9.56089C9.85797 9.83567 10.1682 10.0003 10.5 10.0003H12.023L11.5715 11.1289C11.3664 11.6417 11.6158 12.2236 12.1286 12.4287C12.6414 12.6339 13.2234 12.3844 13.4285 11.8717L14.4285 9.37166C14.5517 9.06357 14.5141 8.71441 14.3281 8.43964C14.142 8.16486 13.8318 8.00027 13.5 8.00027H11.977L12.4285 6.87166Z" fill="black"/>
<path fill-rule="evenodd" clip-rule="evenodd" d="M3 18.0002C3 15.7911 4.79086 14.0002 7 14.0002H17C19.2091 14.0002 21 15.7911 21 18.0002C21 20.2094 19.2091 22.0002 17 22.0002H7C4.79086 22.0002 3 20.2094 3 18.0002ZM6 18.0002C6 17.448 6.44772 17.0002 7 17.0002H9C9.55228 17.0002 10 17.448 10 18.0002C10 18.5525 9.55228 19.0002 9 19.0002H7C6.44772 19.0002 6 18.5525 6 18.0002Z" fill="black"/>
</svg>
