<svg width="24" height="24" viewBox="0 0 24 24" fill="none" xmlns="http://www.w3.org/2000/svg">
<path opacity="0.14" d="M7.50043 16.5614L7.44727 16.5133L5.61719 18.3447C7.24914 19.9848 9.50955 21.0001 12.0074 21.0001C16.9834 21.0001 21.0172 16.9706 21.0172 12.0001C21.0172 9.49829 19.9953 7.23493 18.3457 5.60376L16.5171 7.43463L16.5727 7.50005C17.4657 8.60711 18 10.0159 18 11.5496C18 15.1121 15.1152 18.0001 11.5567 18.0001C10.0193 18.0001 8.60803 17.461 7.50043 16.5614Z" fill="black"/>
<path d="M7.50043 16.5614L6.82971 17.3031L6.84938 17.3209L6.86996 17.3376L7.50043 16.5614ZM16.5727 7.50005L17.3511 6.87222L17.3428 6.86189L17.3342 6.85179L16.5727 7.50005ZM5.61719 18.3447L4.90982 17.6379C4.52022 18.0278 4.51956 18.6594 4.90834 19.0501L5.61719 18.3447ZM18.3457 5.60376L19.0488 4.8927C18.6575 4.50574 18.0271 4.5077 17.6382 4.89708L18.3457 5.60376ZM17.4653 12.0001L17.4613 13.0001H17.4653V12.0001ZM16.0005 16.0001L16.7437 15.331C16.732 15.318 16.7199 15.3053 16.7076 15.293L16.0005 16.0001ZM16.1066 16.1179L16.813 16.8257L16.1066 16.1179ZM12.0005 17.5001H13.0005L13.0005 17.4961L12.0005 17.5001ZM12.0005 17.985L12.0683 18.9827H12.0683L12.0005 17.985ZM6.77655 17.255L6.82971 17.3031L8.17115 15.8196L8.11799 15.7716L6.77655 17.255ZM15.7556 8.08288L15.8113 8.1483L17.3342 6.85179L17.2785 6.78638L15.7556 8.08288ZM20.0172 12.0001C20.0172 16.4173 16.4321 20.0001 12.0074 20.0001V22.0001C17.5346 22.0001 22.0172 17.5239 22.0172 12.0001H20.0172ZM12.0074 20.0001C9.78617 20.0001 7.77789 19.0984 6.32603 17.6394L4.90834 19.0501C6.7204 20.8711 9.23294 22.0001 12.0074 22.0001V20.0001ZM17.6426 6.31482C19.1101 7.76597 20.0172 9.77639 20.0172 12.0001H22.0172C22.0172 9.2202 20.8805 6.70389 19.0488 4.8927L17.6426 6.31482ZM17 11.5496C17 14.5609 14.5619 17.0001 11.5567 17.0001V19.0001C15.6686 19.0001 19 15.6633 19 11.5496H17ZM11.5567 17.0001C10.2573 17.0001 9.06692 16.5454 8.1309 15.7851L6.86996 17.3376C8.14913 18.3766 9.78121 19.0001 11.5567 19.0001V17.0001ZM15.7944 8.12788C16.549 9.06336 17 10.2522 17 11.5496H19C19 9.77953 18.3825 8.15087 17.3511 6.87222L15.7944 8.12788ZM6.32456 19.0516L8.15464 17.2201L6.73989 15.8064L4.90982 17.6379L6.32456 19.0516ZM17.2246 8.14131L19.0533 6.31044L17.6382 4.89708L15.8095 6.72795L17.2246 8.14131ZM11.9745 12.9781L17.4613 13.0001L17.4693 11.0001L11.9825 10.9781L11.9745 12.9781ZM17 11.5496C17 11.6823 16.9962 11.8092 16.9878 11.9313L18.9831 12.0688C18.9952 11.8932 19 11.7197 19 11.5496H17ZM17.4653 13.0001H17.9855V11.0001H17.4653V13.0001ZM12.686 12.6848L17.2245 8.14135L15.8096 6.72791L11.271 11.2714L12.686 12.6848ZM11.2714 12.6852L15.2934 16.7072L16.7076 15.293L12.6856 11.271L11.2714 12.6852ZM15.2573 16.6692L15.3634 16.787L16.8497 15.4488L16.7437 15.331L15.2573 16.6692ZM16.9878 11.9313C16.8944 13.2867 16.3062 14.5058 15.4002 15.4101L16.813 16.8257C18.0488 15.5924 18.8552 13.9241 18.9831 12.0688L16.9878 11.9313ZM10.9785 11.9821L11.0005 17.504L13.0005 17.4961L12.9785 11.9741L10.9785 11.9821ZM13.0005 17.985V17.5001H11.0005V17.985H13.0005ZM15.4002 15.4101C14.4968 16.3116 13.2821 16.8956 11.9327 16.9873L12.0683 18.9827C13.9174 18.8571 15.5808 18.0554 16.813 16.8257L15.4002 15.4101ZM11.9327 16.9873C11.809 16.9958 11.683 17.0001 11.5567 17.0001V19.0001C11.7281 19.0001 11.8993 18.9942 12.0683 18.9827L11.9327 16.9873ZM8.15468 17.2201L12.6859 12.6849L11.2711 11.2713L6.73985 15.8065L8.15468 17.2201Z" fill="black"/>
</svg>
