<svg width="24" height="24" viewBox="0 0 24 24" fill="none" xmlns="http://www.w3.org/2000/svg">
<g opacity="0.14">
<path d="M11.8676 20.4973C16.9118 20.4973 21.0009 16.5987 21.0009 11.7895C21.0009 8.95314 19.0772 6.16788 16.8753 4.578C18.4299 6.74198 16.9381 10.759 13.4402 13.6941C9.84402 16.7116 5.48985 17.4429 3.71484 15.3275C5.35465 17.6531 8.70746 20.4973 11.8676 20.4973Z" fill="black"/>
<path d="M13.6514 6.42212C14.4325 7.20317 13.4827 9.41925 11.5301 11.3719C9.57748 13.3245 7.3614 14.2742 6.58035 13.4932C5.7993 12.7121 6.74905 10.4961 8.70167 8.54345C10.6543 6.59082 12.8704 5.64108 13.6514 6.42212Z" fill="black"/>
</g>
<path d="M21.0004 11.7897H22.0004H21.0004ZM11.8671 20.4974V21.4974V20.4974ZM12.1802 21.0031C12.4962 21.456 13.1195 21.5671 13.5725 21.2511C14.0255 20.9351 14.1365 20.3118 13.8206 19.8588L12.1802 21.0031ZM12.8206 18.4252C12.5046 17.9723 11.8812 17.8612 11.4283 18.1772C10.9753 18.4932 10.8642 19.1165 11.1802 19.5695L12.8206 18.4252ZM17.4489 18.8254C17.8435 19.2118 18.4767 19.2051 18.863 18.8104C19.2494 18.4158 19.2427 17.7827 18.848 17.3963L17.4489 18.8254ZM17.2 15.7828C16.8053 15.3964 16.1722 15.4031 15.7858 15.7978C15.3995 16.1924 15.4062 16.8256 15.8008 17.2119L17.2 15.7828ZM20.2562 13.9127C20.6829 14.2633 21.313 14.2016 21.6636 13.7749C22.0143 13.3482 21.9526 12.7181 21.5259 12.3674L20.2562 13.9127ZM20.1353 11.2247C19.7085 10.8741 19.0784 10.9358 18.7278 11.3625C18.3771 11.7892 18.4388 12.4194 18.8655 12.77L20.1353 11.2247ZM20.0004 11.7897C20.0004 16.0021 16.4045 19.4974 11.8671 19.4974V21.4974C17.4181 21.4974 22.0004 17.1956 22.0004 11.7897H20.0004ZM16.1517 5.21105C18.1918 6.68417 20.0004 9.37935 20.0004 11.7897H22.0004C22.0004 8.52727 19.6861 5.29622 17.3225 3.58957L16.1517 5.21105ZM11.8671 19.4974C10.5721 19.4974 9.1441 18.9057 7.79225 17.9641C6.45221 17.0307 5.2865 15.8217 4.5318 14.7514L2.89729 15.9039C3.78239 17.1592 5.11288 18.5351 6.64912 19.6052C8.17355 20.667 10.0019 21.4974 11.8671 21.4974V19.4974ZM15.971 5.0431C16.5377 5.71843 16.6964 6.86299 16.1601 8.3746C15.6327 9.86093 14.4826 11.5137 12.7968 12.9282L14.0824 14.4603C15.9928 12.8573 17.3789 10.9208 18.045 9.04335C18.7021 7.19122 18.7115 5.19757 17.5031 3.75753L15.971 5.0431ZM12.7968 12.9282C11.1111 14.3427 9.28378 15.1884 7.72852 15.4496C6.14683 15.7153 5.04727 15.3602 4.48059 14.6849L2.9485 15.9705C4.15683 17.4105 6.12174 17.7475 8.05981 17.422C10.0243 17.092 12.172 16.0633 14.0824 14.4603L12.7968 12.9282ZM4.48059 14.6849C3.9139 14.0095 3.75517 12.865 4.29142 11.3534C4.81871 9.86707 5.96882 8.21432 7.65454 6.79984L6.36897 5.26775C4.45855 6.87078 3.07255 8.80729 2.40652 10.6847C1.74945 12.5368 1.74018 14.5304 2.9485 15.9705L4.48059 14.6849ZM7.65454 6.79984C9.34027 5.38534 11.1677 4.53964 12.723 4.27841C14.3048 4.01273 15.4044 4.36777 15.971 5.0431L17.5031 3.75753C16.2948 2.31748 14.3298 1.98051 12.3917 2.30603C10.4271 2.636 8.27938 3.66473 6.36897 5.26775L7.65454 6.79984ZM13.8206 19.8588L12.8206 18.4252L11.1802 19.5695L12.1802 21.0031L13.8206 19.8588ZM18.848 17.3963L17.2 15.7828L15.8008 17.2119L17.4489 18.8254L18.848 17.3963ZM21.5259 12.3674L20.1353 11.2247L18.8655 12.77L20.2562 13.9127L21.5259 12.3674ZM12.9446 7.12934C12.8828 7.06752 12.9296 7.04594 12.9247 7.22266C12.9197 7.40228 12.8594 7.68501 12.697 8.06385C12.3746 8.81604 11.7326 9.75549 10.8233 10.6649L12.2375 12.0791C13.2807 11.0358 14.0899 9.89096 14.5353 8.85169C14.7568 8.3348 14.9095 7.79503 14.9239 7.27844C14.9384 6.75896 14.8111 6.16747 14.3588 5.71513L12.9446 7.12934ZM10.8233 10.6649C9.91387 11.5743 8.97441 12.2163 8.22222 12.5386C7.84339 12.701 7.56065 12.7613 7.38103 12.7663C7.20432 12.7713 7.2259 12.7244 7.28772 12.7862L5.8735 14.2004C6.32585 14.6528 6.91733 14.78 7.43682 14.7655C7.9534 14.7511 8.49317 14.5984 9.01006 14.3769C10.0493 13.9315 11.1942 13.1223 12.2375 12.0791L10.8233 10.6649ZM7.28772 12.7862C7.34953 12.848 7.30265 12.8696 7.30758 12.6929C7.3126 12.5133 7.37293 12.2305 7.53529 11.8517C7.85765 11.0995 8.49965 10.16 9.40904 9.25066L7.99482 7.83645C6.95158 8.87969 6.1424 10.0246 5.697 11.0638C5.47548 11.5807 5.32278 12.1205 5.30836 12.6371C5.29387 13.1566 5.42116 13.7481 5.8735 14.2004L7.28772 12.7862ZM9.40904 9.25066C10.3184 8.34128 11.2579 7.69928 12.0101 7.37691C12.3889 7.21455 12.6716 7.15422 12.8513 7.14921C13.028 7.14428 13.0064 7.19116 12.9446 7.12934L14.3588 5.71513C13.9064 5.26278 13.315 5.13549 12.7955 5.14999C12.2789 5.1644 11.7391 5.3171 11.2222 5.53862C10.183 5.98402 9.03806 6.79321 7.99482 7.83645L9.40904 9.25066Z" fill="black"/>
</svg>
