<svg width="24" height="24" viewBox="0 0 24 24" fill="none" xmlns="http://www.w3.org/2000/svg">
<path opacity="0.14" d="M3.60817 12.1226C3.28621 7.29313 7.29313 3.28621 12.1226 3.60817L18 4L20.0513 3.31623C20.4422 3.18593 20.8141 3.5578 20.6838 3.94868L20 6L20.3918 11.8774C20.7138 16.7069 16.7069 20.7138 11.8774 20.3918L6 20L3.94868 20.6838C3.5578 20.8141 3.18593 20.4422 3.31623 20.0513L4 18L3.60817 12.1226Z" fill="black"/>
<path d="M12.4994 7.50009C9.63707 7.23988 7.23915 9.6378 7.49936 12.5001M17.9994 4.00009L12.122 3.60826C7.29249 3.2863 3.28557 7.29322 3.60753 12.1227L3.99936 18.0001L3.31559 20.0514C3.18529 20.4423 3.55716 20.8142 3.94804 20.6839L5.99936 20.0001L11.8767 20.3919C16.7062 20.7139 20.7131 16.707 20.3912 11.8775L19.9994 6.00009L20.6831 3.94877C20.8134 3.55789 20.4416 3.18602 20.0507 3.31632L17.9994 4.00009Z" stroke="black" stroke-width="2" stroke-linecap="round" stroke-linejoin="round"/>
</svg>
