<svg width="24" height="24" viewBox="0 0 24 24" fill="none" xmlns="http://www.w3.org/2000/svg">
<path opacity="0.14" d="M5.47852 15.3209C8.60271 18.4451 13.3514 18.7617 16.0851 16.028C18.8188 13.2943 18.5022 8.54558 15.378 5.42139L15.3468 5.45197L15.3271 5.57647C14.543 10.5483 10.6411 14.4408 5.67752 15.2199C5.60226 15.2317 5.53217 15.2668 5.47852 15.3209Z" fill="black"/>
<path d="M5.47897 15.3206C8.60316 18.4448 13.3519 18.7614 16.0856 16.0277C18.8192 13.2941 18.5027 8.54534 15.3785 5.42114M5.47897 15.3206L3.35742 17.4419C7.65319 21.7377 14.3014 22.0543 18.2067 18.149C22.1119 14.2438 21.7953 7.59557 17.4996 3.2998L15.3785 5.42114M5.47897 15.3206V15.3206C5.53159 15.2666 5.6009 15.2314 5.67544 15.2198C10.5855 14.4495 14.4569 10.6326 15.2994 5.73802C15.3178 5.63069 15.3436 5.52431 15.3785 5.42114V5.42114" stroke="black" stroke-width="2" stroke-linecap="round" stroke-linejoin="round"/>
</svg>
