<svg width="24" height="24" viewBox="0 0 24 24" fill="none" xmlns="http://www.w3.org/2000/svg">
<g clip-path="url(#clip0_3465_158356)">
<path opacity="0.14" d="M11.0241 4.03977C13.3829 2.53333 16.4655 2.76969 18.5803 4.60294C20.8557 6.57542 21.4552 9.88475 19.9963 12.5191L19.435 13.5325L19.1536 14.1516C18.1953 16.2599 16.5056 17.9496 14.3973 18.9079L14.2356 18.9814C13.931 19.1198 13.6367 19.2797 13.3547 19.4598L12.7859 19.8231C10.1715 21.4929 6.73017 21.007 4.68025 18.6788C2.57979 16.2932 2.5895 12.7153 4.70289 10.3411L5.93917 8.95228C6.29522 8.5523 6.60609 8.11429 6.86614 7.64618L7.41909 6.65088C7.94879 5.69742 8.81665 4.97716 9.85139 4.63225C10.1918 4.51878 10.5169 4.36372 10.8193 4.17058L11.0241 4.03977Z" fill="black"/>
<path d="M19.435 13.5327L18.5602 13.0482C18.5474 13.0713 18.5355 13.0948 18.5246 13.1189L19.435 13.5327ZM19.1536 14.1518L20.0639 14.5656V14.5656L19.1536 14.1518ZM14.3973 18.9081L14.8111 19.8185H14.8111L14.3973 18.9081ZM7.41907 6.65109L6.54491 6.16544H6.54491L7.41907 6.65109ZM9.85137 4.63246L9.53514 3.68377L9.85137 4.63246ZM13.3547 19.46L13.893 20.3027H13.893L13.3547 19.46ZM14.2355 18.9816L13.8217 18.0712L13.8217 18.0712L14.2355 18.9816ZM5.93915 8.95249L5.19221 8.2876V8.2876L5.93915 8.95249ZM6.86612 7.64639L7.74028 8.13203L6.86612 7.64639ZM10.8193 4.17079L10.281 3.32801V3.32801L10.8193 4.17079ZM4.68022 18.679L5.43077 18.0182L4.68022 18.679ZM4.70287 10.3413L5.44981 11.0062V11.0062L4.70287 10.3413ZM12.7858 19.8233L12.2476 18.9805H12.2476L12.7858 19.8233ZM18.5803 4.60315L17.9252 5.35876L18.5803 4.60315ZM19.9962 12.5193L19.1214 12.0348L19.9962 12.5193ZM11.0241 4.03998L11.5624 4.88276V4.88276L11.0241 4.03998ZM17.7301 8.99497C17.3396 8.60443 16.7064 8.60441 16.3159 8.99492C15.9253 9.38543 15.9253 10.0186 16.3158 10.4091L17.7301 8.99497ZM16.3222 10.4155C16.7127 10.806 17.3459 10.8061 17.7364 10.4155C18.1269 10.025 18.127 9.39187 17.7364 9.00133L16.3222 10.4155ZM12.0732 8.99497C11.6827 8.60443 11.0496 8.60441 10.659 8.99492C10.2685 9.38543 10.2684 10.0186 10.659 10.4091L12.0732 8.99497ZM10.6653 10.4155C11.0558 10.806 11.689 10.8061 12.0795 10.4155C12.4701 10.025 12.4701 9.39187 12.0796 9.00133L10.6653 10.4155ZM8.53764 13.9447C8.1471 13.5542 7.51394 13.5542 7.12343 13.9447C6.73292 14.3353 6.73294 14.9684 7.12348 15.3589L8.53764 13.9447ZM7.12984 15.3653C7.52038 15.7558 8.15355 15.7558 8.54406 15.3652C8.93457 14.9747 8.93454 14.3415 8.544 13.951L7.12984 15.3653ZM12.7803 12.5305C12.3898 12.14 11.7566 12.14 11.3661 12.5305C10.9756 12.921 10.9756 13.5542 11.3661 13.9447L12.7803 12.5305ZM11.3725 13.9511C11.763 14.3416 12.3961 14.3416 12.7867 13.9511C13.1772 13.5605 13.1772 12.9274 12.7867 12.5368L11.3725 13.9511ZM11.3575 5.01357L11.5624 4.88276L10.4859 3.19719L10.281 3.32801L11.3575 5.01357ZM5.44981 11.0062L6.68609 9.61738L5.19221 8.2876L3.95593 9.67644L5.44981 11.0062ZM19.1214 12.0348L18.5602 13.0482L20.3098 14.0172L20.871 13.0037L19.1214 12.0348ZM12.8164 18.6172L12.2476 18.9805L13.3241 20.6661L13.893 20.3027L12.8164 18.6172ZM7.74028 8.13203L8.29322 7.13673L6.54491 6.16544L5.99196 7.16075L7.74028 8.13203ZM18.5246 13.1189L18.2432 13.738L20.0639 14.5656L20.3454 13.9465L18.5246 13.1189ZM13.9835 17.9977L13.8217 18.0712L14.6493 19.892L14.8111 19.8185L13.9835 17.9977ZM18.2432 13.738C17.3849 15.6262 15.8716 17.1395 13.9835 17.9977L14.8111 19.8185C17.1395 18.7601 19.0056 16.894 20.0639 14.5656L18.2432 13.738ZM8.29322 7.13673C8.70142 6.40198 9.37021 5.84694 10.1676 5.58114L9.53514 3.68377C8.26304 4.1078 7.19611 4.99328 6.54491 6.16544L8.29322 7.13673ZM13.893 20.3027C14.1351 20.1481 14.3878 20.0108 14.6494 19.892L13.8217 18.0712C13.4742 18.2292 13.1382 18.4117 12.8164 18.6172L13.893 20.3027ZM6.68609 9.61738C7.091 9.16251 7.44453 8.66438 7.74028 8.13203L5.99196 7.16075C5.76759 7.56461 5.49939 7.94251 5.19221 8.2876L6.68609 9.61738ZM10.281 3.32801C10.048 3.47684 9.79746 3.59633 9.53514 3.68377L10.1676 5.58114C10.5861 5.44164 10.9858 5.25101 11.3575 5.01357L10.281 3.32801ZM5.43077 18.0182C3.66428 16.0119 3.67245 13.0029 5.44981 11.0062L3.95593 9.67644C1.5065 12.4281 1.49524 16.5749 3.92968 19.3398L5.43077 18.0182ZM3.92968 19.3398C6.30555 22.0383 10.2941 22.6013 13.3241 20.6661L12.2476 18.9805C10.0489 20.3848 7.15475 19.9762 5.43077 18.0182L3.92968 19.3398ZM17.9252 5.35876C19.8465 7.02426 20.3496 9.81722 19.1214 12.0348L20.871 13.0037C22.5608 9.9527 21.8648 6.12701 19.2353 3.84754L17.9252 5.35876ZM19.2353 3.84754C16.7886 1.72652 13.2207 1.45055 10.4859 3.19719L11.5624 4.88276C13.545 3.61653 16.1424 3.81328 17.9252 5.35876L19.2353 3.84754ZM16.3158 10.4091L16.3222 10.4155L17.7364 9.00133L17.7301 8.99497L16.3158 10.4091ZM10.659 10.4091L10.6653 10.4155L12.0796 9.00133L12.0732 8.99497L10.659 10.4091ZM7.12348 15.3589L7.12984 15.3653L8.544 13.951L8.53764 13.9447L7.12348 15.3589ZM11.3661 13.9447L11.3725 13.9511L12.7867 12.5368L12.7803 12.5305L11.3661 13.9447Z" fill="black"/>
</g>
<defs>
<clipPath id="clip0_3465_158356">
<rect width="24" height="24" fill="white"/>
</clipPath>
</defs>
</svg>
