<svg width="24" height="24" viewBox="0 0 24 24" fill="none" xmlns="http://www.w3.org/2000/svg">
<path fill-rule="evenodd" clip-rule="evenodd" d="M21 4C21 4.42434 20.7357 4.78694 20.3627 4.93217C20.3933 5.01695 20.4183 5.09229 20.4388 5.15412L20.4487 5.18377C20.4847 5.29185 20.5193 5.39716 20.5525 5.5H21.9987C22.5039 5.5 22.9298 5.87679 22.9913 6.37821C23.0528 6.87964 22.7307 7.3482 22.2405 7.47034L21.0466 7.76781C21.0728 8.19858 21.0536 8.63368 20.9923 9.12403C20.8276 10.4416 19.7384 11.1897 18.6497 11.3625C18.119 11.4468 17.5501 11.4089 16.9942 11.2393C16.9821 12.0286 16.9496 12.6436 16.8627 13.1648C16.7221 14.0083 16.4423 14.6053 16 15.2996V19C16 20.1046 15.1046 21 14 21H12.5C11.3954 21 10.5 20.1046 10.5 19V16.3471L9.24623 16.1382L9.04077 16.96L9.50994 18.3675C9.94163 19.6626 8.97769 21 7.61257 21H5.72076C4.8599 21 4.09562 20.4491 3.82339 19.6324L3.44427 18.4951C3.1088 17.4887 3.18687 16.3902 3.6613 15.4413L3.955 14.8539C4.22415 14.3156 4.23833 13.656 3.99078 13.0386C3.89036 12.7882 3.7908 12.5243 3.71476 12.2865C3.65229 12.0912 3.56 11.7811 3.56 11.5C3.56 11.4812 3.55917 11.4561 3.55816 11.4252C3.55565 11.3491 3.552 11.2382 3.55684 11.1033C3.22687 11.2667 3 11.6069 3 12V14C3 14.5523 2.55228 15 2 15C1.44772 15 1 14.5523 1 14V12C1 10.3431 2.34315 9 4 9H4.62694C4.6773 8.96149 4.72897 8.9243 4.78207 8.88841C5.43749 10.4662 6.43191 11.7716 7.47895 12.692C7.89375 13.0566 8.52561 13.0159 8.89024 12.6011C9.25487 12.1863 9.2142 11.5545 8.79939 11.1898C7.33992 9.90689 6 7.66741 6 5C6 4.65342 6.17945 4.33156 6.47427 4.14935C6.76909 3.96714 7.13723 3.95058 7.44721 4.10557L11.1389 5.95139C11.5996 4.25088 13.1537 3 15 3H20C20.5523 3 21 3.44772 21 4ZM15 7C15 6.44772 15.4477 6 16 6H16.009C16.5613 6 17.009 6.44772 17.009 7C17.009 7.55228 16.5613 8 16.009 8H16C15.4477 8 15 7.55228 15 7Z" fill="black"/>
</svg>
