<svg width="24" height="24" viewBox="0 0 24 24" fill="none" xmlns="http://www.w3.org/2000/svg">
<path fill-rule="evenodd" clip-rule="evenodd" d="M20 5C19.8476 5 19.7031 5.03411 19.5738 5.0951C21.5315 5.5121 23 7.25123 23 9.33333C23 10.8061 21.8061 12 20.3333 12H16.9646C16.9879 12.1633 17 12.3302 17 12.5L16.9997 12.546L20.2145 15.359C20.6493 15.7393 20.9649 16.2371 21.1236 16.7925L21.9615 19.7253C22.1133 20.2563 21.8058 20.8098 21.2747 20.9615C20.7437 21.1133 20.1902 20.8058 20.0385 20.2747L19.2006 17.342C19.1477 17.1568 19.0424 16.9909 18.8975 16.8641L16.3041 14.5949C16.2767 14.6315 16.2486 14.6676 16.2198 14.7031L17.2749 16.8132C17.3941 17.0517 17.481 17.3051 17.5333 17.5665L17.9808 19.8039C18.0891 20.3454 17.7379 20.8723 17.1963 20.9806C16.6548 21.0889 16.128 20.7377 16.0196 20.1961L15.5722 17.9588C15.5547 17.8716 15.5258 17.7872 15.486 17.7077L14.5518 15.8392C14.2198 15.9437 13.8665 16 13.5 16C13.2293 16 12.9659 15.9693 12.7128 15.9111L10.9287 20.3714C10.7236 20.8842 10.1417 21.1336 9.62888 20.9285C9.11609 20.7234 8.86668 20.1414 9.07179 19.6286L10.96 14.908C10.9257 14.8718 10.8921 14.8349 10.8593 14.7972C10.5685 15.0944 10.2318 15.3465 9.86055 15.5419L7.92874 20.3714C7.72363 20.8842 7.14166 21.1336 6.62888 20.9285C6.11609 20.7234 5.86668 20.1414 6.07179 19.6286L7.52323 16H6.6773L4.92874 20.3714C4.72363 20.8842 4.14166 21.1336 3.62888 20.9285C3.11609 20.7234 2.86668 20.1414 3.07179 19.6286L4.53397 15.9731C2.5444 15.7423 1 14.0515 1 12C1 9.23858 3.23858 7 6 7H8C9.67629 7 11.1117 8.03113 11.7067 9.49371C12.2312 9.18018 12.8445 9 13.5 9C14.0368 9 14.5454 9.12085 15 9.33682V8C15 6.64623 15.8967 5.5019 17.1285 5.12854C17.5019 3.89669 18.6462 3 20 3H22C22.5523 3 23 3.44772 23 4C23 4.55228 22.5523 5 22 5H20ZM18.9883 7.5C18.436 7.5 17.9883 7.94772 17.9883 8.5C17.9883 9.05228 18.436 9.5 18.9883 9.5H18.9973C19.5496 9.5 19.9973 9.05228 19.9973 8.5C19.9973 7.94772 19.5496 7.5 18.9973 7.5H18.9883Z" fill="black"/>
</svg>
