<svg width="24" height="24" viewBox="0 0 24 24" fill="none" xmlns="http://www.w3.org/2000/svg">
<path fill-rule="evenodd" clip-rule="evenodd" d="M8.33334 2.25465C8.74499 1.88646 9.37718 1.9217 9.74536 2.33335L10.635 3.32806C11.0444 3.11855 11.5086 3.00001 12 3.00001C12.4914 3.00001 12.9556 3.11855 13.365 3.32806L14.2546 2.33335C14.6228 1.9217 15.255 1.88646 15.6667 2.25465C16.0783 2.62283 16.1135 3.25502 15.7454 3.66667L14.744 4.78623C14.9085 5.15753 15 5.56847 15 6.00001C15.8354 5.37215 16.8742 5.00001 18.0007 5.00001C20.7621 5.00001 23.0007 7.23859 23.0007 10C23.0007 10.2095 22.9878 10.4159 22.9628 10.6187C22.658 13.0882 20.5526 15 18.0007 15C17.8439 15 17.6886 14.9928 17.5352 14.9786C17.4057 15.2881 17.2573 15.5925 17.1012 15.8854C16.5981 16.8292 15.9391 17.7895 15.2979 18.6383C14.654 19.4908 14.0124 20.2514 13.5329 20.7978C13.2928 21.0716 13.0922 21.2929 12.9508 21.4465C12.8802 21.5234 12.8242 21.5834 12.7855 21.6246L12.7406 21.6723L12.7284 21.6851L12.724 21.6898C12.5353 21.8875 12.2733 22 12 22C11.7267 22 11.4651 21.8879 11.2764 21.6902L11.2716 21.6851L11.2594 21.6723L11.2145 21.6246C11.1758 21.5834 11.1198 21.5234 11.0492 21.4465C10.9078 21.2929 10.7072 21.0716 10.4671 20.7978C9.98764 20.2514 9.34603 19.4908 8.70206 18.6383C8.06088 17.7895 7.40185 16.8292 6.89878 15.8854C6.74271 15.5925 6.59437 15.2882 6.46482 14.9786C6.31162 14.9928 6.15656 15 6 15C3.32538 15 1.14126 12.9 1.00659 10.2588C1.00221 10.1731 1 10.0868 1 10C1 7.23859 3.23858 5.00001 6 5.00001C7.12616 5.00001 8.16469 5.37221 9 5.99978C9.00003 5.56833 9.09156 5.15746 9.25598 4.78623L8.25464 3.66667C7.88645 3.25502 7.92169 2.62283 8.33334 2.25465ZM11.2497 5.33882C11.4344 5.12956 11.7015 5 12 5C12.2985 5 12.5656 5.12956 12.7503 5.33882C12.9064 5.51571 13 5.7457 13 6C13 6.55228 12.5523 7 12 7C11.4477 7 11 6.55228 11 6C11 5.7457 11.0936 5.51571 11.2497 5.33882ZM10.2979 17.9328C10.1903 17.7902 10.0831 17.6458 9.97732 17.5H14.0227C13.9169 17.6458 13.8097 17.7902 13.7021 17.9328C13.096 18.7351 12.4876 19.4567 12.0296 19.9788L12 20.0125L11.9704 19.9788C11.5124 19.4567 10.904 18.7351 10.2979 17.9328ZM8 13.5C8 13.9351 8.21319 14.5993 8.66372 15.4446L8.69344 15.5H15.3066L15.3363 15.4446C15.7868 14.5993 16 13.9351 16 13.5H8ZM8.53513 11.5C9.22675 10.3044 10.5194 9.5 12 9.5C13.4806 9.5 14.7733 10.3044 15.4649 11.5H8.53513Z" fill="black"/>
</svg>
