<svg width="24" height="24" viewBox="0 0 24 24" fill="none" xmlns="http://www.w3.org/2000/svg">
<path fill-rule="evenodd" clip-rule="evenodd" d="M10 7C10 4.23858 12.2386 2 15 2C17.1339 2 18.9556 3.3368 19.6734 5.21864L21.4472 6.10557C21.786 6.27496 22 6.62123 22 7C22 7.37877 21.786 7.72504 21.4472 7.89443L20 8.61803V10C20 13.645 17.8332 16.7838 14.7174 18.1988L15.8944 20.5528C16.1414 21.0468 15.9412 21.6474 15.4472 21.8944C14.9532 22.1414 14.3526 21.9412 14.1056 21.4472L12.7927 18.8214C12.2504 18.9311 11.6905 18.9919 11.1177 18.9992L11.8944 20.5528C12.1414 21.0468 11.9412 21.6474 11.4472 21.8944C10.9532 22.1414 10.3526 21.9412 10.1056 21.4472L8.73874 18.7136C4.8627 17.7105 2 14.1896 2 10C2 9.44772 2.44772 9 3 9H9.83333C9.92538 9 10 8.92538 10 8.83333V7ZM15 5.5C14.4477 5.5 14 5.94772 14 6.5C14 7.05228 14.4477 7.5 15 7.5H15.009C15.5613 7.5 16.009 7.05228 16.009 6.5C16.009 5.94772 15.5613 5.5 15.009 5.5H15Z" fill="black"/>
</svg>
