<svg width="24" height="24" viewBox="0 0 24 24" fill="none" xmlns="http://www.w3.org/2000/svg">
<path fill-rule="evenodd" clip-rule="evenodd" d="M3 9.38197V8H6.58579C7.11622 8 7.62493 7.78929 8 7.41421L8.70711 6.70711C9.059 6.35521 9.09859 5.79812 8.8 5.4L7.88154 4.17539L9.62469 2.78087C9.95632 2.51557 10.0842 2.06974 9.94363 1.66899C9.80305 1.26825 9.42469 1 9 1H4C2.34315 1 1 2.34315 1 4V10C1 10.3788 1.214 10.725 1.55279 10.8944L4.76393 12.5H4.23637L2.44752 11.6056C1.95354 11.3586 1.35287 11.5588 1.10588 12.0528C0.858887 12.5468 1.05911 13.1474 1.55309 13.3944L3.55309 14.3944C3.69195 14.4639 3.84506 14.5 4.0003 14.5H5C5 14.5928 5.01291 14.6846 5.03795 14.7729L3.80526 15.0194C3.57455 15.0656 3.36749 15.1916 3.22051 15.3753L1.22051 17.8753C0.875501 18.3066 0.945422 18.9359 1.37668 19.2809C1.80795 19.6259 2.43724 19.556 2.78225 19.1247L4.55469 16.9091L6.18665 16.5827L6.5396 17.1122L4.55279 18.1056C4.35926 18.2023 4.20234 18.3593 4.10557 18.5528L3.10557 20.5528C2.85858 21.0468 3.05881 21.6474 3.55279 21.8944C4.04676 22.1414 4.64744 21.9412 4.89443 21.4472L5.74536 19.7454L7.65763 18.7892L7.9132 19.1726L6.79289 20.2929C6.60536 20.4804 6.5 20.7348 6.5 21V22C6.5 22.5523 6.94772 23 7.5 23C8.05228 23 8.5 22.5523 8.5 22V21.4142L9.91421 20H14.0858L15.5 21.4142V22C15.5 22.5523 15.9477 23 16.5 23C17.0523 23 17.5 22.5523 17.5 22V21C17.5 20.7348 17.3946 20.4804 17.2071 20.2929L16.0868 19.1726L16.3424 18.7892L18.2546 19.7454L19.1056 21.4472C19.3526 21.9412 19.9532 22.1414 20.4472 21.8944C20.9412 21.6474 21.1414 21.0468 20.8944 20.5528L19.8944 18.5528C19.7977 18.3593 19.6407 18.2023 19.4472 18.1056L17.4604 17.1122L17.8134 16.5827L19.4453 16.9091L21.2178 19.1247C21.5628 19.556 22.1921 19.6259 22.6233 19.2809C23.0546 18.9359 23.1245 18.3066 22.7795 17.8753L20.7795 15.3753C20.6325 15.1916 20.4255 15.0656 20.1947 15.0194L18.962 14.7729C18.9871 14.6846 19 14.5928 19 14.5H19.9997C20.1549 14.5 20.3081 14.4639 20.4469 14.3944L22.4469 13.3944C22.9409 13.1474 23.1411 12.5468 22.8941 12.0528C22.6471 11.5588 22.0465 11.3586 21.5525 11.6056L19.7636 12.5H19.2361L22.4472 10.8944C22.786 10.725 23 10.3788 23 10V4C23 2.34315 21.6569 1 20 1H15C14.5753 1 14.1969 1.26825 14.0564 1.66899C13.9158 2.06974 14.0437 2.51557 14.3753 2.78087L16.1185 4.17539L15.2 5.4C14.9014 5.79812 14.941 6.35521 15.2929 6.70711L16 7.41421C16.3751 7.78929 16.8838 8 17.4142 8H21V9.38197L17.9348 10.9146C17.2157 9.99881 16.1838 9.34031 15 9.10002V7C15 6.44772 14.5523 6 14 6C13.4477 6 13 6.44772 13 7V9H11V7C11 6.44772 10.5523 6 10 6C9.44772 6 9 6.44772 9 7V9.10002C7.81624 9.34031 6.78434 9.99881 6.06524 10.9146L3 9.38197Z" fill="black"/>
</svg>
