<svg width="24" height="24" viewBox="0 0 24 24" fill="none" xmlns="http://www.w3.org/2000/svg">
<path fill-rule="evenodd" clip-rule="evenodd" d="M10.4991 19.9512C10.499 19.9512 10.4992 19.9512 10.4991 19.9512L10.5 20.0001C10.5 21.1047 9.60457 22.0001 8.5 22.0001L6.28932 22.0001C4.96722 22.0001 3.62366 21.6923 2.60018 20.8024C1.55094 19.8901 1 18.5088 1 16.7108C1 15.2101 1.73553 13.8812 2.86136 13.0652C3.96163 12.2678 5.39858 11.4004 6.70029 10.8654C8.00254 10.3302 9.71714 10.1474 11.3749 10.2746C13.0341 10.402 14.7739 10.8503 16.1036 11.7054C16.4205 11.9092 16.6951 12.0001 16.9229 12.0001H17.25C17.6642 12.0001 18 11.6643 18 11.2501V11.0001C18 10.4478 17.5523 10.0001 17 10.0001H15.5C14.8514 10.0001 14.0957 9.83989 13.4848 9.33081C12.8418 8.795 12.5 7.99057 12.5 7.00009C12.5 6.36424 12.6393 5.79385 12.9297 5.31506C13.2221 4.83301 13.6327 4.50175 14.0795 4.29468C14.0947 4.28763 14.1101 4.28096 14.1256 4.27468C14.4674 4.1367 14.7907 3.9528 15.1465 3.47351C15.4989 2.81001 15.9879 2.3958 16.5711 2.18476C17.0849 1.99886 17.6142 1.99959 17.9523 2.00005L18 2.00009C19.5878 2.00009 20.8762 2.65687 21.7464 3.74098C22.5974 4.80126 23 6.20494 23 7.66676V14.5001C23 16.8164 21.25 18.7239 19 18.9726V20.0001C19 21.1047 18.1046 22.0001 17 22.0001H16C14.8954 22.0001 14 21.1047 14 20.0001V19.8524C13.5621 19.9388 13.0531 20.0001 12.5 20.0001C12.5 17.791 10.7091 16.0001 8.5 16.0001H7.5C7.22386 16.0001 7 15.7763 7 15.5001C7 14.9478 6.55228 14.5001 6 14.5001C5.44772 14.5001 5 14.9478 5 15.5001C5 16.8808 6.11929 18.0001 7.5 18.0001H8.5C9.58823 18.0001 10.4732 18.8692 10.4991 19.9512ZM17 6.00012C17 5.44784 17.4477 5.00012 18 5.00012H18.009C18.5613 5.00012 19.009 5.44784 19.009 6.00012C19.009 6.55241 18.5613 7.00012 18.009 7.00012H18C17.4477 7.00012 17 6.55241 17 6.00012Z" fill="black"/>
</svg>
