<svg width="24" height="24" viewBox="0 0 24 24" fill="none" xmlns="http://www.w3.org/2000/svg">
<path fill-rule="evenodd" clip-rule="evenodd" d="M3.54739 10.1601C3.1892 10.6458 3 11.2436 3 11.8889V19.5C3 20.8807 4.11929 22 5.5 22C6.88071 22 8 20.8807 8 19.5V17.4637C8.67425 17.6275 9.36267 17.6795 10 17.6665V9.00005H11.1755L11.3826 7.92257L11.9682 8.22689L18.4651 11.6401L18.4326 11.7019C20.4758 11.2972 22 9.44162 22 7.36985C22 5.84053 20.7244 4.66307 19.2292 4.66307H18.3588C18.3299 4.66307 18.3098 4.65144 18.301 4.64265L18.0678 4.41092C17.869 4.2133 17.5321 3.95844 17.0613 3.9085C16.8754 3.88878 16.6805 3.88884 16.5239 3.8889L15.5732 3.8889L15.213 2.96219L15.2066 2.9462C14.6419 1.56455 12.5405 1.72326 12.2774 3.25669L11.3701 7.9786L3.58132 2.18634C3.1319 1.86534 2.50735 1.96943 2.18634 2.41884C1.86534 2.86825 1.96943 3.4928 2.41884 3.81381L9.39286 9.00001H6C4.89543 9.00001 4 8.10458 4 7.00001C4 6.44773 3.55228 6.00001 3 6.00001C2.44772 6.00001 2 6.44773 2 7.00001C2 8.28489 2.60582 9.42828 3.54739 10.1601ZM15.9988 6.5C15.4465 6.5 14.9988 6.94772 14.9988 7.5C14.9988 8.05228 15.4465 8.5 15.9988 8.5H16.0078C16.5601 8.5 17.0078 8.05228 17.0078 7.5C17.0078 6.94772 16.5601 6.5 16.0078 6.5H15.9988Z" fill="black"/>
<path d="M17 13.1296L12 10.5028V19.4859C12 20.8575 13.1051 21.973 14.4766 21.9858C15.8664 21.9988 17 20.8758 17 19.4859V13.1296Z" fill="black"/>
</svg>
