<svg width="24" height="24" viewBox="0 0 24 24" fill="none" xmlns="http://www.w3.org/2000/svg">
<path d="M3.54739 10.1601C3.1892 10.6458 3 11.2436 3 11.8889V19.2219C3 20.7562 4.24378 22 5.77807 22C7.27767 22 8.50662 20.8099 8.55471 19.311L8.56009 19.1432C8.56043 19.1325 8.56061 19.1218 8.56061 19.1111V17.4922C9.29771 17.6832 10.0112 17.7116 10.6455 17.6478C10.9434 17.6179 11.2302 17.5669 11.5 17.5004V19.25C11.5 20.7688 12.7312 22 14.25 22C15.7688 22 17 20.7688 17 19.25V13.1502L10.7453 9.90361C10.7346 9.8985 10.7238 9.89319 10.7132 9.88766L9.00312 9.00001H6C4.89543 9.00001 4 8.10458 4 7.00001C4 6.44773 3.55228 6.00001 3 6.00001C2.44772 6.00001 2 6.44773 2 7.00001C2 8.28489 2.60582 9.42828 3.54739 10.1601Z" fill="black"/>
<path fill-rule="evenodd" clip-rule="evenodd" d="M11.3707 7.97556L11.6038 8.09654C11.6145 8.10165 11.6252 8.10697 11.6359 8.1125L18.517 11.6843C20.5177 11.2459 22 9.41301 22 7.36985C22 5.84053 20.7244 4.66307 19.2292 4.66307H18.3588C18.3299 4.66307 18.3098 4.65144 18.301 4.64265L18.0678 4.41092C17.869 4.2133 17.5321 3.95844 17.0613 3.9085C16.8754 3.88878 16.6805 3.88884 16.5239 3.8889L15.5732 3.8889L15.213 2.96219L15.2066 2.9462C14.6419 1.56455 12.5405 1.72326 12.2774 3.25669L11.3707 7.97556ZM16 6.5C15.4477 6.5 15 6.94772 15 7.5C15 8.05228 15.4477 8.5 16 8.5H16.009C16.5613 8.5 17.009 8.05228 17.009 7.5C17.009 6.94772 16.5613 6.5 16.009 6.5H16Z" fill="black"/>
</svg>
