<svg width="24" height="24" viewBox="0 0 24 24" fill="none" xmlns="http://www.w3.org/2000/svg">
<path fill-rule="evenodd" clip-rule="evenodd" d="M15.1818 18.5C16.3613 17.5533 16.7049 15.4848 15.4866 13.8858L15.342 14.546C15.0151 16.0392 13.202 16.6286 12.0596 15.6131L9.1198 13H5.62847C4.17681 13 3 11.8232 3 10.3715C3 9.49269 3.43922 8.672 4.17046 8.18451L4.5 7.96482V7C4.5 3.68629 7.18629 1 10.5 1H12.1667C13.2485 1 14.3012 1.35089 15.1667 2L15.59 2.31753C16.0357 2.10051 16.5873 1.87472 17.1846 1.7019C18.0789 1.44312 19.195 1.26798 20.2425 1.52986C20.6877 1.64115 21 2.04113 21 2.5C21 3.26675 20.7157 4.90629 19.6952 6.52579C20.5534 8.06009 21 10.121 21 12L21 12.0378C21.0001 13.0307 21.0003 14.9237 20.3784 16.6512C20.0583 17.5404 19.5587 18.4314 18.771 19.1413C17.973 19.8605 16.93 20.3473 15.6104 20.4939C15.5738 20.498 15.5369 20.5 15.5 20.5H13.1149C12.8621 20.9269 12.5048 21.3943 12.041 21.8084C11.3188 22.4532 10.2993 23 9 23C8.66818 23 8.35796 22.8354 8.17193 22.5606C7.9859 22.2859 7.94829 21.9367 8.07152 21.6286L8.92297 19.5L8.07152 17.3714C7.94829 17.0633 7.9859 16.7141 8.17193 16.4394C8.35796 16.1646 8.66818 16 9 16C10.2993 16 11.3188 16.5468 12.041 17.1916C12.5048 17.6057 12.8621 18.0731 13.1149 18.5H15.1818ZM10 6C9.44772 6 9 6.44772 9 7C9 7.55228 9.44772 8 10 8H10.009C10.5613 8 11.009 7.55228 11.009 7C11.009 6.44772 10.5613 6 10.009 6H10Z" fill="black"/>
</svg>
