<svg width="24" height="24" viewBox="0 0 24 24" fill="none" xmlns="http://www.w3.org/2000/svg">
<path d="M10.5851 5.98746C10.0486 5.10864 9.68702 4.15393 9.59777 3.12638C9.56489 2.74782 9.3203 2.42061 8.96653 2.28191C8.61277 2.14321 8.21096 2.21699 7.92955 2.47233C7.46778 2.89132 7.03599 3.43411 6.67063 4.09111C7.90711 5.3329 9.28463 5.98875 10.52 6.50671C10.5343 6.33138 10.5561 6.1582 10.5851 5.98746Z" fill="black"/>
<path fill-rule="evenodd" clip-rule="evenodd" d="M3.91038 3.58634C4.0973 3.99755 4.32884 4.37839 4.59745 4.73132C4.63549 4.81083 4.68476 4.8866 4.7454 4.95634C6.59475 7.08314 8.87686 8.00756 10.3664 8.61095C10.6377 8.72081 10.8826 8.82003 11.0939 8.91393C11.4032 9.05141 11.7611 9.02307 12.0449 8.83861C12.2571 8.70073 12.4064 8.48961 12.4682 8.2504C12.5301 8.01119 12.5 7.00012 12.5 7.00012C12.5 4.81066 14.2591 3.03207 16.4411 3.00055C16.4602 3.00028 16.4793 3.00014 16.4984 3.00014H21.5C22.6981 3.00014 23.4126 4.33536 22.7481 5.33219L21.4382 7.29709L21.4445 7.80032C21.4506 8.30063 21.4589 8.98861 21.4671 9.73919C21.4835 11.2383 21.5 12.9938 21.5 14.0001C21.5 15.346 20.7022 16.8234 19.7526 17.9086C19.2607 18.4708 18.6841 18.9802 18.0652 19.3553C17.4537 19.726 16.7424 20.0001 16 20.0001H10.8036L8.05472 21.8322C7.81066 21.9949 7.50746 22.0422 7.22541 21.9617C4.24802 21.1114 2.06879 19.4844 1.29235 18.7067C1.05496 18.4689 0.95284 18.1278 1.02051 17.7987C1.08818 17.4696 1.31659 17.1965 1.62852 17.0717L5.26574 15.6164C0.867796 10.6259 0.775664 6.02182 2.11955 3.52604C2.2997 3.19148 2.6539 2.98792 3.03367 3.00071C3.41344 3.0135 3.75314 3.24041 3.91038 3.58634ZM16.4883 6.00012C15.936 6.00012 15.4883 6.44784 15.4883 7.00012C15.4883 7.55241 15.936 8.00012 16.4883 8.00012H16.4973C17.0496 8.00012 17.4973 7.55241 17.4973 7.00012C17.4973 6.44784 17.0496 6.00012 16.4973 6.00012H16.4883Z" fill="black"/>
</svg>
