<svg width="24" height="24" viewBox="0 0 24 24" fill="none" xmlns="http://www.w3.org/2000/svg">
<path fill-rule="evenodd" clip-rule="evenodd" d="M9.05639 2.66899C9.19696 2.26825 9.57533 2 10 2H16.6667C17.7485 2 18.8012 2.35089 19.6667 3L21.8 4.6C22.5554 5.16656 23 6.05573 23 7V7.80575C23 9.27226 21.9398 10.5238 20.4932 10.7649L19.9445 10.8564C19.1927 10.9817 18.4214 10.8161 17.7873 10.3933L17.2354 10.0254C17.2105 10.0088 17.1813 10 17.1514 10H17.04C17.0179 10 17 10.0179 17 10.04C17 10.0512 17.0048 10.0619 17.0131 10.0695L21.518 14.1649C22.1435 14.7335 22.5 15.5395 22.5 16.3847V17C22.5 19.7614 20.2614 22 17.5 22H3.55762C2.1451 22 1.00002 20.8549 1.00002 19.4424C1.00002 18.1059 2.02896 16.9948 3.36146 16.8923L13.3686 16.1225L12.745 15.0001H12.759L12.0911 13.8012C11.7039 12.9948 11.5013 12.1106 11.5 11.2131L11.5 11.2043L11.5 9.64681V9.06619L9.48552 7.85749C9.20475 7.68903 9.02424 7.3938 9.00227 7.06711C8.9803 6.74042 9.11965 6.42367 9.37532 6.21913L10.8992 5L9.37532 3.78087C9.0437 3.51557 8.91581 3.06974 9.05639 2.66899ZM16.6679 5.4453C16.9743 4.98577 17.5952 4.8616 18.0547 5.16795L18.8047 5.66795C19.2642 5.9743 19.3884 6.59517 19.0821 7.0547C18.7757 7.51423 18.1548 7.6384 17.6953 7.33205L16.9453 6.83205C16.4858 6.5257 16.3616 5.90483 16.6679 5.4453Z" fill="black"/>
<path d="M4.74744 7.3415C5.03871 7.00862 5.51406 6.90663 5.91625 7.09074L9.5 8.73127V12C9.5 13.0197 9.75986 14.0225 10.2551 14.9139L10.3008 15H6.00002C5.65344 15 5.33157 14.8205 5.14937 14.5257C4.96716 14.2309 4.95059 13.8628 5.10559 13.5528L5.38198 13H2.00002C1.60764 13 1.25152 12.7705 1.08938 12.4132C0.927247 12.0559 0.989057 11.6368 1.24744 11.3415L4.74744 7.3415Z" fill="black"/>
</svg>
