<svg width="24" height="24" viewBox="0 0 24 24" fill="none" xmlns="http://www.w3.org/2000/svg">
<path fill-rule="evenodd" clip-rule="evenodd" d="M10 7C10 8.26947 10.4731 9.42762 11.2515 10.3087L5.0729 12.4184L2.44721 11.1056C2.13723 10.9506 1.76909 10.9672 1.47427 11.1494C1.17945 11.3316 1 11.6534 1 12V13C1 17.9706 5.02944 22 10 22H14C17.3137 22 20 19.3137 20 16C20 14.2224 19.2261 12.6253 18 11.5279V11.2273C18.7957 11.1593 19.75 10.9401 20.6271 10.3647C21.8174 9.58394 22.728 8.23805 22.9922 6.12403C23.0321 5.80507 22.9162 5.48639 22.6808 5.26755C22.4453 5.0487 22.119 4.95638 21.8038 5.01942C21.3927 5.10165 20.751 5.22504 20.1652 5.32744C20.0163 5.35347 19.8726 5.37788 19.7382 5.39977C19.0707 3.42291 17.2021 2 15 2C12.2386 2 10 4.23858 10 7ZM14.8163 13.0513C15.3402 13.226 15.6234 13.7923 15.4487 14.3163C14.5897 16.8935 12.8194 18.2668 10.9209 18.7224C9.08741 19.1625 7.15319 18.7399 5.90006 17.8C5.45823 17.4687 5.36869 16.8419 5.70006 16.4C6.03143 15.9582 6.65823 15.8687 7.10006 16.2C7.84692 16.7602 9.16271 17.0876 10.4542 16.7776C11.6807 16.4833 12.9105 15.6065 13.5514 13.6838C13.726 13.1599 14.2923 12.8767 14.8163 13.0513ZM16 6C15.4477 6 15 6.44772 15 7C15 7.55228 15.4477 8 16 8H16.009C16.5613 8 17.009 7.55228 17.009 7C17.009 6.44772 16.5613 6 16.009 6H16Z" fill="black"/>
</svg>
