<svg width="24" height="24" viewBox="0 0 24 24" fill="none" xmlns="http://www.w3.org/2000/svg">
<path fill-rule="evenodd" clip-rule="evenodd" d="M6.57625 4.43099C3.90482 5.41701 2.00003 7.98606 2.00003 11C2.00003 12.3225 1.84241 13.2705 1.66309 13.9017C1.49178 14.5048 1.32019 14.753 1.29549 14.7887C1.29274 14.7927 1.29292 14.7929 1.29292 14.7929C1.00692 15.0789 0.921369 15.509 1.07615 15.8827C1.23093 16.2564 1.59557 16.5 2.00003 16.5C2.22071 16.5 2.57868 16.471 3.00003 16.385V20C3.00003 20.5523 3.44774 21 4.00003 21H7.50003C8.05231 21 8.50003 20.5523 8.50003 20V17.3483C9.09001 17.4521 9.77943 17.4866 10.5 17.3647V20C10.5 20.5523 10.9477 21 11.5 21H15C15.5523 21 16 20.5523 16 20V16.5C16 18.433 17.567 20 19.5 20C21.433 20 23 18.433 23 16.5C23 15.9477 22.5523 15.5 22 15.5C21.4477 15.5 21 15.9477 21 16.5C21 17.3284 20.3285 18 19.5 18C18.6716 18 18 17.3284 18 16.5V16.1465C18.3491 16.1849 18.7148 16.1908 19.0944 16.1548C19.8698 16.0813 20.6785 15.8355 21.4962 15.3682C21.9757 15.0942 22.1423 14.4834 21.8683 14.0039C21.6132 13.5574 21.0661 13.3822 20.6049 13.5813C20.5294 13.6233 20.4539 13.6633 20.3784 13.7011C20.2499 13.7697 20.1238 13.8296 20 13.8817V13.8739C18.9205 14.3195 17.8544 14.3635 16.9173 14.1917C16.3741 14.0921 16.0144 13.5709 16.1141 13.0277C16.2137 12.4845 16.7348 12.1249 17.278 12.2245C18.0741 12.3705 19.0237 12.287 20 11.6024V11C20 7.79918 17.8526 5.10217 14.9208 4.26709C14.192 3.4886 13.1529 3 12 3C10.9856 3 10.0586 3.37852 9.35418 4C8.52376 4.73294 8 5.80531 8 7C8 9.20914 9.79086 11 12 11C12.5523 11 13 11.4477 13 12C13 12.5523 12.5523 13 12 13C8.68629 13 6 10.3137 6 7C6 6.08073 6.20674 5.20974 6.57625 4.43099ZM15 10C15 9.44772 15.4477 9 16 9H16.009C16.5613 9 17.009 9.44772 17.009 10C17.009 10.5523 16.5613 11 16.009 11H16C15.4477 11 15 10.5523 15 10Z" fill="black"/>
</svg>
