<svg width="24" height="24" viewBox="0 0 24 24" fill="none" xmlns="http://www.w3.org/2000/svg">
<path fill-rule="evenodd" clip-rule="evenodd" d="M20.8384 2.01326C21.1595 1.96047 21.4861 2.0672 21.7141 2.29937C21.9421 2.53154 22.0429 2.86011 21.9842 3.18018L21.9746 3.23233L21.9473 3.37762C21.9235 3.50353 21.8886 3.68565 21.8442 3.91198C21.7553 4.36445 21.6278 4.99474 21.4734 5.7068C21.2543 6.71685 20.9767 7.91098 20.6742 9H18C17.4477 9 17 9.44772 17 10C17 10.5523 17.4477 11 18 11H20.0406C19.7903 11.7056 19.5268 12.3697 19.2328 13H16C15.4477 13 15 13.4477 15 14C15 14.5523 15.4477 15 16 15H18.1065C17.6775 15.63 17.1859 16.2289 16.6074 16.8074L15.7077 17.7071C13.3483 20.0666 9.65834 20.2846 7.05301 18.3612L3.70711 21.7071C3.31658 22.0976 2.68342 22.0976 2.29289 21.7071C1.90237 21.3166 1.90237 20.6834 2.29289 20.2929L5.63889 16.9469L12.207 10.3872C12.5976 9.99664 12.5976 9.36347 12.207 8.97295C11.8165 8.58242 11.1833 8.58242 10.7928 8.97295L4.67807 15.0877C3.91695 12.7765 4.45543 10.131 6.2935 8.2929L7.1932 7.3932C8.92368 5.66272 11.2927 4.70065 13.2279 3.91475C13.388 3.84973 13.5451 3.78592 13.6987 3.72297C14.8348 3.2573 16.6518 2.82966 18.1151 2.52563C18.8612 2.37063 19.5406 2.2428 20.0333 2.15372C20.2798 2.10916 20.4801 2.07421 20.6191 2.05032C20.6887 2.03838 20.743 2.0292 20.7801 2.02296L20.8228 2.01584L20.8384 2.01326Z" fill="black"/>
</svg>
