<svg width="24" height="24" viewBox="0 0 24 24" fill="none" xmlns="http://www.w3.org/2000/svg">
<path d="M10.2929 4.29301C12.8102 1.77565 17.3526 0.938463 20.2071 3.79297C21.6669 5.25276 22.1612 7.15396 21.9591 9H18C17.4477 9 17 9.44772 17 10C17 10.5523 17.4477 11 18 11H21.4628C21.1811 11.7193 20.7971 12.3978 20.3298 13H16C15.4477 13 15 13.4477 15 14C15 14.5523 15.4477 15 16 15H18.4143L16.4645 16.9498C15.1517 18.2626 13.3712 19.0001 11.5147 19.0001L7 19.0001C6.82082 19.0001 6.64714 18.9765 6.48189 18.9323L3.70711 21.7071C3.31658 22.0976 2.68342 22.0976 2.29289 21.7071C1.90237 21.3166 1.90237 20.6834 2.29289 20.2929L3.62498 18.9608C3.65336 18.938 3.68078 18.9135 3.70711 18.8872L12.2071 10.3872C12.5976 9.99664 12.5976 9.36347 12.2071 8.97295C11.8166 8.58242 11.1834 8.58242 10.7929 8.97295L5 14.7658V12.4854C5 10.6288 5.7375 8.84836 7.05026 7.53561L10.2929 4.29301Z" fill="black"/>
</svg>
