<svg width="24" height="24" viewBox="0 0 24 24" fill="none" xmlns="http://www.w3.org/2000/svg">
<path fill-rule="evenodd" clip-rule="evenodd" d="M14.7291 14.7309C15.25 15 15.7 15.35 16.0012 15.8186L18.0899 20.4138C18.2521 20.7708 18.6081 21 19.0003 21L21.0003 21C21.5525 21 22.0002 20.5523 22.0002 20C22.0002 19.4477 21.5525 19 21.0002 19L19.6442 19L17.8279 15.0041L19.7091 14.168C21.1022 13.5489 22 12.1674 22 10.6429C22 9.26972 21.27 8.00007 20.0834 7.30915L18.9866 6.67062C18.8191 4.61556 17.0982 3 15 3C13.1237 3 11.5492 4.29182 11.1173 6.03477C6.01129 6.46029 2 10.7393 2 15.9552V17.4C2 19.3882 3.61177 21 5.6 21H12.2655L12.2703 21C13.651 21 14.7703 19.8807 14.7703 18.5C14.7703 17.504 14.1879 16.6422 13.3407 16.2399L12.7695 15.9688V15.3366C12.7695 13.9559 11.6502 12.8366 10.2695 12.8366C9.71725 12.8366 9.26953 12.3889 9.26953 11.8366C9.26953 11.2843 9.71725 10.8366 10.2695 10.8366C12.5494 10.8366 14.4333 12.532 14.7291 14.7309ZM15 6C14.4477 6 14 6.44772 14 7C14 7.55228 14.4477 8 15 8H15.009C15.5613 8 16.009 7.55228 16.009 7C16.009 6.44772 15.5613 6 15.009 6H15Z" fill="black"/>
</svg>
