<svg width="24" height="24" viewBox="0 0 24 24" fill="none" xmlns="http://www.w3.org/2000/svg">
<path fill-rule="evenodd" clip-rule="evenodd" d="M12.0555 15.8116L13.9379 17.2034L15.2517 18.1888C16.8821 19.4115 19.1457 19.3262 20.6794 17.9843C22.1883 16.664 22.5883 14.4781 21.6448 12.709L19.143 8.01821C18.8872 7.53844 18.5057 7.13724 18.0395 6.85749L17.4436 6.5L17.6022 6.40487C18.5306 5.84784 18.9638 4.73278 18.655 3.69508C18.3558 2.68946 17.4313 2 16.3821 2H16.0116C7.72093 2 1 8.72093 1 17.0116V19C1 20.6569 2.34318 22 4.00003 22L13.8333 21.9999C14.2021 21.9999 14.541 21.7969 14.715 21.4718C14.889 21.1466 14.87 20.752 14.6654 20.4452L12.8268 17.6874C11.5126 18.0553 10.074 17.7303 9.03924 16.7773L6.82253 14.7355C6.4163 14.3614 6.3903 13.7288 6.76446 13.3225C7.13862 12.9163 7.77125 12.8903 8.17748 13.2645L10.3942 15.3062C10.8511 15.727 11.4655 15.9029 12.0555 15.8116ZM14 11C14 10.4477 14.4477 10 15 10H15.009C15.5613 10 16.009 10.4477 16.009 11C16.009 11.5523 15.5613 12 15.009 12H15C14.4477 12 14 11.5523 14 11Z" fill="black"/>
</svg>
