<svg width="24" height="24" viewBox="0 0 24 24" fill="none" xmlns="http://www.w3.org/2000/svg">
<path fill-rule="evenodd" clip-rule="evenodd" d="M17 15L21.2 20.6C21.4583 20.9443 21.9079 21.0848 22.3162 20.9487C22.7246 20.8126 23 20.4304 23 20V10C23 7.23858 20.7614 5 18 5H16.2842C15.5631 5 14.8486 4.8624 14.179 4.59458L11.5709 3.55131C10.6604 3.18712 9.68876 3 8.70813 3H8C4.13401 3 1 6.13401 1 10C1 12.7924 2.63505 15.2029 5 16.3264V20C5 20.5523 5.44772 21 6 21C6.55228 21 7 20.5523 7 20V16.9291C7.3266 16.9758 7.66048 17 8 17H8.70813C8.80553 17 8.90283 16.9982 9 16.9945V20C9 20.5523 9.44772 21 10 21C10.5523 21 11 20.5523 11 20V16.6514C11.1926 16.5914 11.383 16.5238 11.5709 16.4487L14.179 15.4054C14.8486 15.1376 15.5631 15 16.2842 15H17ZM18 9C17.4477 9 17 9.44772 17 10C17 10.5523 17.4477 11 18 11H18.009C18.5613 11 19.009 10.5523 19.009 10C19.009 9.44772 18.5613 9 18.009 9H18Z" fill="black"/>
</svg>
