<svg width="24" height="24" viewBox="0 0 24 24" fill="none" xmlns="http://www.w3.org/2000/svg">
<path fill-rule="evenodd" clip-rule="evenodd" d="M14.0002 3C13.4479 3 13.0002 3.44772 13.0002 4C13.0002 4.55228 13.4479 5 14.0002 5H16.0002C18.6791 5 20.8659 7.10674 20.9943 9.7538C20.2804 9.27759 19.4227 9 18.5002 9H15.8663L13.8685 5.50386C13.6855 5.18366 13.3411 4.99015 12.9725 5.00038C12.6038 5.01062 12.2707 5.22293 12.1058 5.55279L11.0748 7.61487L9.86846 5.50386C9.68549 5.18366 9.34113 4.99015 8.97247 5.00038C8.60382 5.01062 8.27072 5.22293 8.10579 5.55279L7.7047 6.35497C7.69286 6.38604 7.67936 6.41682 7.66418 6.44719L1.16418 19.4472C1.14899 19.4776 1.13247 19.5068 1.11472 19.5349L1.10579 19.5528C0.858803 20.0468 1.05903 20.6474 1.55301 20.8944C2.04698 21.1414 2.64766 20.9412 2.89465 20.4472L5.08949 16.0575L6.63368 16.497L5.10579 19.5528C4.8588 20.0468 5.05903 20.6474 5.55301 20.8944C6.04698 21.1414 6.64766 20.9412 6.89465 20.4472L8.59119 17.0541L10.1354 17.4936L9.10579 19.5529C8.8588 20.0469 9.05903 20.6476 9.55301 20.8945C10.047 21.1415 10.6477 20.9413 10.8946 20.4473L12.1188 17.999C12.1397 17.9997 12.1606 18 12.1816 18H18.5002C18.5682 18 18.6358 17.9985 18.703 17.9955L20.132 20.4961C20.406 20.9757 21.0168 21.1423 21.4964 20.8682C21.9759 20.5942 22.1425 19.9834 21.8685 19.5039L20.6859 17.4345C22.0664 16.6659 23.0002 15.192 23.0002 13.5V10C23.0002 6.13401 19.8662 3 16.0002 3H14.0002ZM9.56275 9H8.61825L9.05902 8.11847L9.56275 9ZM13.5628 9H12.6183L13.059 8.11847L13.5628 9ZM17.5 13.5C17.5 12.9477 17.9477 12.5 18.5 12.5H18.509C19.0613 12.5 19.509 12.9477 19.509 13.5C19.509 14.0523 19.0613 14.5 18.509 14.5H18.5C17.9477 14.5 17.5 14.0523 17.5 13.5Z" fill="black"/>
<path d="M1.54947 14.2045L4.14834 9.00673C2.39116 9.11738 1.00022 10.5776 1.00022 12.3627C1.00022 13.0326 1.19882 13.6689 1.54947 14.2045Z" fill="black"/>
</svg>
