<svg width="24" height="24" viewBox="0 0 24 24" fill="none" xmlns="http://www.w3.org/2000/svg">
<path d="M14.5 6C14.5 5.44772 14.9477 5 15.5 5H15.509C16.0291 5 16.4564 5.39702 16.5045 5.90452C16.5526 5.39702 16.9799 5 17.5 5H17.509C18.0613 5 18.509 5.44772 18.509 6C18.509 6.55228 18.0613 7 17.509 7H17.5C16.9799 7 16.5526 6.60298 16.5045 6.09548C16.4564 6.60298 16.0291 7 15.509 7H15.5C14.9477 7 14.5 6.55228 14.5 6Z" fill="black"/>
<path fill-rule="evenodd" clip-rule="evenodd" d="M12.6809 4.11889C13.4759 2.84647 14.8891 2 16.5 2C18.1109 2 19.5241 2.84647 20.3191 4.11889C20.5317 4.04195 20.7609 4 21 4C22.1046 4 23 4.89543 23 6C23 7.10457 22.1046 8 21 8L20.9726 7.99981C20.7239 10.2499 18.8163 12 16.5 12C14.1837 12 12.2761 10.2499 12.0274 7.99981C12.0183 7.99994 12.0092 8 12 8C10.8954 8 10 7.10457 10 6C10 4.89543 10.8954 4 12 4C12.2391 4 12.4684 4.04195 12.6809 4.11889ZM16.5 4C15.1193 4 14 5.11929 14 6.5V7.5C14 8.88071 15.1193 10 16.5 10C17.8807 10 19 8.88071 19 7.5V6.5C19 5.11929 17.8807 4 16.5 4Z" fill="black"/>
<path d="M3 6C3 4.89543 3.89543 4 5 4H5.5C6.32843 4 7 4.67157 7 5.5C7 6.32843 6.32843 7 5.5 7H5C4.44772 7 4 7.44772 4 8C4 8.55228 4.44772 9 5 9H5.5C7.433 9 9 7.433 9 5.5C9 3.567 7.433 2 5.5 2H5C2.79086 2 1 3.79086 1 6V15C1 18.866 4.13401 22 8 22H18C18.5523 22 19 21.5523 19 21C19 20.4477 18.5523 20 18 20V14.7662L18.5725 15.1097C20.0785 16.0133 21 17.6408 21 19.3971V21C21 21.5523 21.4477 22 22 22C22.5523 22 23 21.5523 23 21V19.3971C23 17.2914 22.0539 15.318 20.4579 14H16.5018C14.1589 14 12.1054 12.7603 10.9616 10.9012L10.3167 11.2236C8.28401 12.24 7 14.3175 7 16.5902V19.9C4.71776 19.4367 3 17.419 3 15V6Z" fill="black"/>
</svg>
