<svg width="24" height="24" viewBox="0 0 24 24" fill="none" xmlns="http://www.w3.org/2000/svg">
<path d="M6.62541 2.21917C6.19415 1.87416 5.56486 1.94408 5.21985 2.37534C4.87484 2.8066 4.94476 3.4359 5.37602 3.78091L7.24476 5.27589L6.10629 7.55282C5.88623 7.99295 6.01906 8.52776 6.41948 8.81377L8.09327 10.0093L4.4255 10.8221L4.41286 10.8251C2.29017 11.3246 1.31777 13.7888 2.52738 15.6032C3.54783 17.1338 5.66119 17.4559 7.09083 16.3035L9.50072 14.4985V15.5858L7.79361 17.2929C7.60607 17.4805 7.50072 17.7348 7.50072 18V19.4649L6.44602 20.168C5.98649 20.4743 5.86231 21.0952 6.16867 21.5547C6.47502 22.0143 7.09589 22.1384 7.55542 21.8321L9.05542 20.8321C9.33362 20.6466 9.50072 20.3344 9.50072 20V18.4142L9.96435 17.9506C10.4177 18.5859 11.1608 19 12.0007 19C12.8406 19 13.5838 18.5859 14.0371 17.9506L14.5007 18.4142V20C14.5007 20.3344 14.6678 20.6466 14.946 20.8321L16.446 21.8321C16.9055 22.1384 17.5264 22.0143 17.8328 21.5547C18.1391 21.0952 18.0149 20.4743 17.5554 20.168L16.5007 19.4649V18C16.5007 17.7348 16.3954 17.4805 16.2078 17.2929L14.5007 15.5858V14.4985L16.9106 16.3035C18.3402 17.4559 20.4536 17.1338 21.4741 15.6032C22.6837 13.7888 21.7113 11.3245 19.5886 10.825L15.9082 10.0093L17.582 8.81377C17.9824 8.52776 18.1152 7.99295 17.8951 7.55282L16.7567 5.27589L18.6254 3.78091C19.0567 3.4359 19.1266 2.8066 18.7816 2.37534C18.4366 1.94408 17.8073 1.87416 17.376 2.21917L14.876 4.21917C14.5078 4.51374 14.3954 5.02549 14.6063 5.44725L15.7241 7.68297L13.958 8.94452C13.7054 8.62713 13.3772 8.37256 13.0007 8.20806V6.00004C13.0007 5.44775 12.553 5.00004 12.0007 5.00004C11.4484 5.00004 11.0007 5.44775 11.0007 6.00004V8.20806C10.6242 8.37256 10.296 8.62713 10.0435 8.94452L8.27729 7.68297L9.39514 5.44725C9.60602 5.02549 9.49362 4.51374 9.12541 4.21917L6.62541 2.21917Z" fill="black"/>
</svg>
