<svg width="24" height="24" viewBox="0 0 24 24" fill="none" xmlns="http://www.w3.org/2000/svg">
<path fill-rule="evenodd" clip-rule="evenodd" d="M16.3186 14.62L16.6634 14.7678C17.4743 15.1153 18 15.9126 18 16.7947C18 18.0127 17.0127 19 15.7947 19H5C4.44772 19 4 19.4477 4 20C4 20.5523 4.44772 21 5 21H20C20.5523 21 21 21.4477 21 22C21 22.5523 20.5523 23 20 23H5C3.34315 23 2 21.6569 2 20C2 18.3431 3.34315 17 5 17H5.68121C5.25 16.3265 5 15.5258 5 14.6667C5 11.1137 7.41683 8.12526 10.6962 7.2556C10.2569 6.61346 10 5.83673 10 5C10 2.79086 11.7909 1 14 1C14.5293 1 15.0361 1.10328 15.5 1.29105C15.9639 1.10328 16.4707 1 17 1C19.2091 1 21 2.79086 21 5C21 5.68944 20.825 6.33883 20.5177 6.90534C21.4314 7.79931 22 9.04729 22 10.4286C22 11.8487 20.8487 13 19.4286 13H17.1207L16.3186 14.62ZM18.8245 5.82118C18.9374 5.57075 19 5.29298 19 5C19 4.06824 18.3628 3.2853 17.5004 3.06312C17.8186 3.63673 18 4.29704 18 5V5.58752C18.2841 5.64175 18.5597 5.72039 18.8245 5.82118ZM15.5 5C15.5 4.44772 15.0523 4 14.5 4C14.0944 4 13.7453 4.24142 13.5884 4.58838C13.2414 4.74529 13 5.09445 13 5.5C13 6.05228 13.4477 6.5 14 6.5H14.5C15.0523 6.5 15.5 6.05228 15.5 5.5V5ZM17.4922 8.5C16.9399 8.5 16.4922 8.94772 16.4922 9.5C16.4922 10.0523 16.9399 10.5 17.4922 10.5H17.5012C18.0535 10.5 18.5012 10.0523 18.5012 9.5C18.5012 8.94772 18.0535 8.5 17.5012 8.5H17.4922Z" fill="black"/>
</svg>
