<svg width="24" height="24" viewBox="0 0 24 24" fill="none" xmlns="http://www.w3.org/2000/svg">
<path fill-rule="evenodd" clip-rule="evenodd" d="M21.4856 3.12578C21.9684 3.39399 22.1424 4.0028 21.8742 4.48558L19.8403 8.14648C21.7435 9.39766 23 11.5521 23 13.9999C23 17.8659 19.866 20.9999 16 20.9999H10C6.68629 20.9999 4 18.3136 4 14.9999V10.5351L2.55855 9.57415C1.58485 8.92502 1 7.83221 1 6.66198V3.99994C1 3.63114 1.20298 3.29228 1.52814 3.11826C1.8533 2.94424 2.24784 2.96332 2.5547 3.16789L5 4.79809L7.4453 3.16789C7.75216 2.96332 8.1467 2.94424 8.47186 3.11826C8.79702 3.29228 9 3.63114 9 3.99994V6.66198C9 7.83221 8.41515 8.92502 7.44145 9.57415L6 10.5351V13.4925C6.4511 13.7599 7.04283 13.6329 7.34069 13.1861L9.38675 10.117C10.685 8.16965 12.8706 6.99994 15.2111 6.99994H16C16.7039 6.99994 17.3835 7.10382 18.0243 7.29709L20.1258 3.5143C20.3941 3.03151 21.0029 2.85757 21.4856 3.12578ZM18 12.9999C17.4477 12.9999 17 13.4477 17 13.9999C17 14.5522 17.4477 14.9999 18 14.9999H18.009C18.5613 14.9999 19.009 14.5522 19.009 13.9999C19.009 13.4477 18.5613 12.9999 18.009 12.9999H18Z" fill="black"/>
</svg>
