<svg width="24" height="24" viewBox="0 0 24 24" fill="none" xmlns="http://www.w3.org/2000/svg">
<path fill-rule="evenodd" clip-rule="evenodd" d="M20.3627 4.93217C20.7357 4.78694 21 4.42434 21 4C21 3.44772 20.5523 3 20 3H15C13.1537 3 11.5996 4.25088 11.1389 5.95139L7.44721 4.10557C7.13723 3.95058 6.76909 3.96714 6.47427 4.14935C6.17945 4.33156 6 4.65342 6 5C6 7.66741 7.33992 9.90689 8.79939 11.1898C9.2142 11.5545 9.25487 12.1863 8.89024 12.6011C8.52561 13.0159 7.89375 13.0566 7.47895 12.692C6.43191 11.7716 5.43749 10.4662 4.78207 8.88841C4.72897 8.9243 4.6773 8.96149 4.62694 9H4C2.34315 9 1 10.3431 1 12V14C1 14.5523 1.44772 15 2 15C2.55228 15 3 14.5523 3 14V12C3 11.6069 3.22687 11.2667 3.55684 11.1033C3.552 11.2382 3.55565 11.3491 3.55816 11.4252C3.55917 11.4561 3.56 11.4812 3.56 11.5C3.56 11.7811 3.65229 12.0912 3.71476 12.2865C3.7908 12.5243 3.89036 12.7882 3.99078 13.0386C4.23833 13.656 4.22415 14.3156 3.955 14.8539L3.6613 15.4413C3.18687 16.3902 3.1088 17.4887 3.44427 18.4951L3.82339 19.6324C4.09562 20.4491 4.8599 21 5.72076 21H7.61257C8.97769 21 9.94163 19.6626 9.50994 18.3675L9.04077 16.96L9.24623 16.1382L10.5 16.3471V19C10.5 20.1046 11.3954 21 12.5 21H14C15.1046 21 16 20.1046 16 19V15.2996C16.4423 14.6053 16.7221 14.0083 16.8627 13.1648C16.9496 12.6436 16.9821 12.0286 16.9942 11.2393C17.5501 11.4089 18.119 11.4468 18.6497 11.3625C19.7384 11.1897 20.8276 10.4416 20.9923 9.12403C20.9961 9.09339 20.9998 9.06296 21.0033 9.03273C21.1654 7.6305 20.9606 6.72213 20.4558 5.20503C20.4534 5.19796 20.451 5.19087 20.4487 5.18377L20.4388 5.15412C20.4183 5.09229 20.3933 5.01695 20.3627 4.93217ZM15 7C15 6.44772 15.4477 6 16 6H16.009C16.5613 6 17.009 6.44772 17.009 7C17.009 7.55228 16.5613 8 16.009 8H16C15.4477 8 15 7.55228 15 7Z" fill="black"/>
</svg>
