<svg width="24" height="24" viewBox="0 0 24 24" fill="none" xmlns="http://www.w3.org/2000/svg">
<path fill-rule="evenodd" clip-rule="evenodd" d="M17.2575 3.52996C17.7122 3.41629 18.1848 3.63368 18.3944 4.05289C18.4808 4.22569 18.5758 4.44229 18.6681 4.68932H20.9983C21.792 4.68932 22.569 5.3564 22.4656 6.29763C22.295 7.85191 21.4885 8.88625 20.6116 9.49403L20.6148 9.50011H21C22.1046 9.50011 23 10.3955 23 11.5001V13.5001C23 14.6047 22.1046 15.5001 21 15.5001H20.5901C20.3828 15.8387 20.1513 16.142 19.8718 16.4174C19.5605 16.7241 19.2139 16.9722 18.8225 17.1948L17.9487 19.8163C17.8126 20.2247 17.4304 20.5001 17 20.5001H14.5C13.9477 20.5001 13.5 20.0524 13.5 19.5001V18.0001H11.5V19.5001C11.5 20.0524 11.0523 20.5001 10.5 20.5001H8C7.59668 20.5001 7.23284 20.2578 7.07733 19.8857L5.15568 15.2873C4.412 14.5331 3.87439 13.5729 3.6364 12.5001H2.9996C2.6726 12.5001 2.39294 12.3643 2.22816 12.2666C2.02923 12.1487 1.83067 11.9861 1.65347 11.7836C1.292 11.3705 0.999693 10.7665 1 9.9997C1.00031 9.23341 1.2924 8.62992 1.65319 8.21707C1.83007 8.01467 2.02824 7.85213 2.22677 7.73417C2.39075 7.63673 2.67059 7.50011 2.99821 7.50011C3.55049 7.50011 3.99821 7.94782 3.99821 8.50011C3.99821 8.97704 3.66432 9.376 3.21754 9.47598C3.20148 9.48918 3.18113 9.50801 3.15916 9.53314C3.08301 9.62029 3.00009 9.7668 3 10.0005C2.99991 10.2337 3.0826 10.3797 3.15863 10.4666C3.1698 10.4794 3.18056 10.4905 3.19055 10.5001H3.54847C3.91598 7.67884 6.32855 5.50011 9.25 5.50011H13.6093C14.3332 4.87138 15.6926 3.92119 17.2575 3.52996ZM19.4715 7.85183C19.8223 7.61024 20.1573 7.2376 20.3445 6.68932H19.1238C19.1435 6.96412 19.1435 7.248 19.1141 7.53199C19.2411 7.63298 19.36 7.74013 19.4715 7.85183ZM17 10.5001C16.4477 10.5001 16 10.9478 16 11.5001C16 12.0524 16.4477 12.5001 17 12.5001H17.009C17.5613 12.5001 18.009 12.0524 18.009 11.5001C18.009 10.9478 17.5613 10.5001 17.009 10.5001H17Z" fill="black"/>
</svg>
