<svg width="24" height="24" viewBox="0 0 24 24" fill="none" xmlns="http://www.w3.org/2000/svg">
<path fill-rule="evenodd" clip-rule="evenodd" d="M16.8024 2.01959C17.3259 1.9149 17.8392 2.23978 17.9687 2.75763C18.2141 3.73934 18.1611 4.78835 18.0242 5.65598C17.9442 6.16327 17.831 6.63618 17.7132 7.03555L19.7993 8.60015C20.5547 9.16671 20.9993 10.0559 20.9993 11.0002C20.9993 12.5474 19.8281 13.821 18.3238 13.9828C18.6323 14.3729 18.9718 14.8028 19.3125 15.2349C19.88 15.9549 20.4517 16.6826 20.8878 17.2431C21.1056 17.523 21.2915 17.7638 21.4268 17.9419C21.4941 18.0304 21.5518 18.1074 21.5956 18.1676C21.6172 18.1972 21.6391 18.2278 21.6585 18.2562L21.6595 18.2576C21.6674 18.269 21.717 18.3405 21.7566 18.4235C21.913 18.7507 22 19.1167 22 19.5002C22 20.8809 20.8807 22.0002 19.5 22.0002C19.2526 22.0002 19.012 21.9639 18.7839 21.8958C18.6593 21.8586 18.5388 21.812 18.4233 21.7568C18.268 21.6826 18.1587 21.5777 18.1467 21.5662L18.1458 21.5653C18.109 21.5312 18.0755 21.4965 18.0496 21.4688C17.9961 21.4118 17.9349 21.3421 17.8719 21.2683C17.744 21.1184 17.5781 20.9161 17.3912 20.6842C17.0158 20.2187 16.5363 19.6099 16.066 19.0079L15.8994 18.7945C15.9652 19.0183 16.0005 19.2551 16.0005 19.5002C16.0005 20.8813 14.8801 22.0002 13.4999 22.0002H9C7.93775 22.0002 7.00444 21.4481 6.47137 20.6152C6.03664 20.8603 5.53466 21.0002 5 21.0002C3.34315 21.0002 2 19.657 2 18.0002C2 16.3433 3.34315 15.0002 5 15.0002C5.52292 15.0002 6.01459 15.134 6.44265 15.3692C7.20056 13.1919 8.87284 11.4435 10.9989 10.5824V9.33566C10.0013 7.94441 9.74473 6.47653 9.81397 5.25602C9.88543 3.99634 10.3092 2.92117 10.7 2.40017C10.99 2.01354 11.5149 1.88961 11.9472 2.10574C12.6479 2.45608 13.2693 2.97061 13.7786 3.54432C14.8333 2.60724 16.1186 2.15636 16.8024 2.01959ZM14.8973 5.24196C15.0207 5.51058 15.1229 5.7853 15.197 6.05971C15.334 6.07504 15.4746 6.09313 15.6127 6.11374C15.7005 6.12684 15.7905 6.14142 15.8806 6.15759C15.9436 5.91086 16.0027 5.63548 16.0487 5.34434C16.1006 5.01483 16.133 4.68155 16.1389 4.35829C15.7137 4.56751 15.2628 4.86005 14.8973 5.24196ZM15.5 9.00012C14.9477 9.00012 14.5 9.44784 14.5 10.0001C14.5 10.5524 14.9477 11.0001 15.5 11.0001H15.509C16.0613 11.0001 16.509 10.5524 16.509 10.0001C16.509 9.44784 16.0613 9.00012 15.509 9.00012H15.5Z" fill="black"/>
</svg>
