<svg width="24" height="24" viewBox="0 0 24 24" fill="none" xmlns="http://www.w3.org/2000/svg">
<path d="M14.2387 15.6484C13.9843 15.3503 13.5792 15.2283 13.2024 15.3363C12.4472 15.3363 12.0012 14.5757 12.0012 13.8356V13.5625C12.0012 13.2204 11.7997 12.9105 11.4872 12.7716L11.0589 12.5812C10.2335 12.2144 9.62313 11.4879 9.40407 10.6116C9.15411 9.61178 9.44707 8.55409 10.1758 7.82532L10.5928 7.40837C10.6418 7.35938 10.6663 7.33489 10.6864 7.31077C10.8504 7.11431 10.8942 6.84399 10.8005 6.60583C10.789 6.57659 10.7734 6.54562 10.7424 6.48369C10.7122 6.42334 10.697 6.39316 10.6831 6.36286C10.5719 6.12109 10.51 5.85955 10.5011 5.59356C10.5 5.56023 10.5 5.52648 10.5 5.45897V5C10.5 4.44772 10.0523 4 9.5 4C8.51527 4 7.64203 4.47403 7.09516 5.20642C6.7559 5.07327 6.38641 5 6 5C4.34315 5 3 6.34315 3 8C3 8.0567 3.00158 8.11306 3.00471 8.16905C1.83706 8.57955 1 9.69202 1 11C1 11.9278 1.42084 12.7559 2.08096 13.3058C2.02802 13.5289 2 13.7614 2 14C2 14.8191 2.32829 15.5616 2.86047 16.1029L4.02492 21.2218C4.12847 21.677 4.53319 22 5.00001 22H8.00001C8.26523 22 8.51958 21.8946 8.70712 21.7071C8.89466 21.5196 9.00001 21.2652 9.00001 21L9 18.8292C9.2699 18.7338 9.52198 18.6008 9.75 18.4368C9.97802 18.6008 10.2301 18.7338 10.5 18.8292L10.5 21C10.5 21.5523 10.9477 22 11.5 22H14.5C14.9037 22 15.2678 21.7573 15.4231 21.3846L17.3314 16.8047C17.5147 16.3647 17.362 15.8564 16.9665 15.5904C16.5709 15.3243 16.0426 15.3744 15.7041 15.7101C15.5223 15.8904 15.2749 16 15 16C14.6955 16 14.4236 15.8652 14.2387 15.6484Z" fill="black"/>
<path fill-rule="evenodd" clip-rule="evenodd" d="M13.5 2C12.1193 2 11 3.11929 11 4.5C11 5.05228 11.4477 5.5 12 5.5C12.5523 5.5 13 5.05228 13 4.5C13 4.22386 13.2239 4 13.5 4C13.7761 4 14 4.22386 14 4.5V6.35418C13.5121 6.90697 13.1746 7.59566 13.0515 8.3562L11.5528 9.10557C11.0588 9.35256 10.8586 9.95324 11.1056 10.4472C11.3526 10.9412 11.9532 11.1414 12.4472 10.8944L13 10.618V11C13 13.2091 14.7909 15 17 15C19.2091 15 21 13.2091 21 11V10.618L21.5528 10.8944C22.0468 11.1414 22.6474 10.9412 22.8944 10.4472C23.1414 9.95324 22.9412 9.35256 22.4472 9.10557L20.9485 8.3562C20.8254 7.59566 20.4879 6.90697 20 6.35418V4.5C20 4.22386 20.2239 4 20.5 4C20.7761 4 21 4.22386 21 4.5C21 5.05228 21.4477 5.5 22 5.5C22.5523 5.5 23 5.05228 23 4.5C23 3.11929 21.8807 2 20.5 2C19.1193 2 18 3.11929 18 4.5V5.12602C17.6804 5.04375 17.3453 5 17 5C16.6547 5 16.3196 5.04375 16 5.12602V4.5C16 3.11929 14.8807 2 13.5 2ZM15.5 8C14.9477 8 14.5 8.44772 14.5 9C14.5 9.55228 14.9477 10 15.5 10H15.509C16.0613 10 16.509 9.55228 16.509 9C16.509 8.44772 16.0613 8 15.509 8H15.5ZM17.5 9C17.5 8.44772 17.9477 8 18.5 8H18.509C19.0613 8 19.509 8.44772 19.509 9C19.509 9.55228 19.0613 10 18.509 10H18.5C17.9477 10 17.5 9.55228 17.5 9Z" fill="black"/>
</svg>
