<svg width="24" height="24" viewBox="0 0 24 24" fill="none" xmlns="http://www.w3.org/2000/svg">
<path d="M2.08096 13.3058C2.02802 13.5289 2 13.7614 2 14C2 14.8195 2.32937 15.5624 2.86044 16.1028L4.02492 21.2218C4.12847 21.677 4.53319 22 5.00001 22H8.00001C8.5523 22 9.00001 21.5523 9.00001 21V18.8292C9.26991 18.7338 9.52199 18.6008 9.75 18.4368C9.97803 18.6008 10.2301 18.7338 10.5 18.8292V21C10.5 21.5523 10.9477 22 11.5 22H14.5C14.9032 22 15.267 21.7579 15.4226 21.3859L17.2765 16.9539C17.7267 16.4296 18 15.7459 18 15C18 14.4432 17.8474 13.919 17.5811 13.4703C17.4262 13.2093 17.161 13.0328 16.8604 12.9905L16.5605 12.9483C13.1873 12.4737 10.6455 9.63989 10.5391 6.23517L10.4995 4.96877C10.4826 4.42891 10.0401 4 9.5 4C8.51527 4 7.64203 4.47403 7.09516 5.20642C6.7559 5.07327 6.38641 5 6 5C4.34315 5 3 6.34315 3 8C3 8.0567 3.00158 8.11306 3.00471 8.16905C1.83706 8.57955 1 9.69202 1 11C1 11.9278 1.42084 12.7559 2.08096 13.3058Z" fill="black"/>
<path fill-rule="evenodd" clip-rule="evenodd" d="M17 2C15.01 2 13.3595 3.45315 13.0515 5.3562L11.5528 6.10557C11.0588 6.35256 10.8586 6.95324 11.1056 7.44721C11.3526 7.94119 11.9532 8.14142 12.4472 7.89443L13 7.61803V8C13 10.2091 14.7909 12 17 12C19.2091 12 21 10.2091 21 8V7.61803L21.5528 7.89443C22.0468 8.14142 22.6474 7.94119 22.8944 7.44721C23.1414 6.95324 22.9412 6.35256 22.4472 6.10557L20.9485 5.3562C20.6405 3.45315 18.99 2 17 2ZM15.5 5C14.9477 5 14.5 5.44772 14.5 6C14.5 6.55228 14.9477 7 15.5 7H15.509C16.0613 7 16.509 6.55228 16.509 6C16.509 5.44772 16.0613 5 15.509 5H15.5ZM17.5 6C17.5 5.44772 17.9477 5 18.5 5H18.509C19.0613 5 19.509 5.44772 19.509 6C19.509 6.55228 19.0613 7 18.509 7H18.5C17.9477 7 17.5 6.55228 17.5 6Z" fill="black"/>
</svg>
