<svg width="24" height="24" viewBox="0 0 24 24" fill="none" xmlns="http://www.w3.org/2000/svg">
<path fill-rule="evenodd" clip-rule="evenodd" d="M5 1C3.34315 1 2 2.34315 2 4C2 5.65685 3.34315 7 5 7C5 10.866 8.13401 14 12 14H13V5H5C4.44772 5 4 4.55228 4 4C4 3.44772 4.44772 3 5 3H17C17.5523 3 18 2.55228 18 2C18 1.44772 17.5523 1 17 1H5ZM9.49219 9C9.49219 8.44772 9.9399 8 10.4922 8H10.5012C11.0535 8 11.5012 8.44772 11.5012 9C11.5012 9.55229 11.0535 10 10.5012 10H10.4922C9.9399 10 9.49219 9.55229 9.49219 9Z" fill="black"/>
<path d="M15 5.22299V13.1747L21.1236 10.1219C19.9531 7.67441 17.7091 5.83768 15 5.22299Z" fill="black"/>
<path d="M21.783 12.0279L15.5973 15.1118L20.8584 18.39C21.5854 17.0909 22 15.5929 22 14C22 13.3234 21.9252 12.6632 21.783 12.0279Z" fill="black"/>
<path d="M19.6911 20.0191L15 17.0961V22.7768C16.6005 22.4134 18.0384 21.6239 19.1876 20.5356C19.3622 20.3702 19.5302 20.1979 19.6911 20.0191Z" fill="black"/>
<path d="M13 23V16.5613L9.14142 16.0101C8.73539 15.952 8.33511 16.1479 8.13167 16.504C7.92824 16.8602 7.96291 17.3044 8.21913 17.6247L9.71938 19.5L8.21913 21.3753C7.979 21.6755 7.93218 22.0867 8.0987 22.4332C8.26522 22.7797 8.61559 23 9 23H13Z" fill="black"/>
</svg>
