<svg width="24" height="24" viewBox="0 0 24 24" fill="none" xmlns="http://www.w3.org/2000/svg">
<path d="M19.6518 3.04188C20.1194 2.90237 20.6194 3.12071 20.8349 3.5585C22.3763 6.68995 22.3244 8.94267 21.0737 10.4011C20.7584 10.7688 20.3903 11.0549 20 11.2767V11.0001C20 9.5214 19.5415 8.14978 18.7589 7.01966C18.8576 6.90621 18.9701 6.69583 19.0244 6.24813C19.0834 5.76199 19.0633 5.08195 18.9452 4.12228C18.8856 3.63798 19.1842 3.18138 19.6518 3.04188Z" fill="black"/>
<path fill-rule="evenodd" clip-rule="evenodd" d="M14.7321 6.30829C15.4298 6.56605 16.0539 6.97494 16.5648 7.49442C16.5647 7.49442 16.5649 7.49441 16.5648 7.49442C17.4522 8.39678 18 9.63452 18 11.0001V13.0001C18 13.0155 18.0003 13.0308 18.001 13.046L18.0011 13.1454C18.0011 14.6342 17.1745 15.9981 15.8599 16.6879L15.35 18.7277C15.0161 20.0632 13.8162 21.0001 12.4395 21.0001H11.5627C10.1861 21.0001 8.9861 20.0632 8.65223 18.7277L8.14251 16.6889L7.65946 16.4474C6.64311 15.9392 6.0011 14.9004 6.0011 13.7641L6.00185 11.9302C6.00123 11.9301 6.00062 11.93 6 11.9299V11.0001C6 9.6337 6.54812 8.39529 7.43649 7.49278C7.43722 7.4928 7.43796 7.49282 7.43869 7.49284C8.34428 6.57279 9.60551 6.00014 11.0011 6.00014H13.0011C13.0267 6.00014 13.0522 6.00033 13.0777 6.00071C13.6586 6.00956 14.2154 6.11747 14.7321 6.30829ZM10 10.5001C9.44772 10.5001 9 10.9478 9 11.5001C9 12.0524 9.44772 12.5001 10 12.5001H10.009C10.5613 12.5001 11.009 12.0524 11.009 11.5001C11.009 10.9478 10.5613 10.5001 10.009 10.5001H10ZM13 11.5001C13 10.9478 13.4477 10.5001 14 10.5001H14.009C14.5613 10.5001 15.009 10.9478 15.009 11.5001C15.009 12.0524 14.5613 12.5001 14.009 12.5001H14C13.4477 12.5001 13 12.0524 13 11.5001Z" fill="black"/>
<path d="M5.25201 7.00397C5.1535 6.88791 5.0437 6.67607 4.99083 6.23577C4.93271 5.7518 4.95365 5.07603 5.07263 4.12417C5.13305 3.6408 4.83637 3.18421 4.37013 3.04305C3.9039 2.90188 3.40378 3.11721 3.18592 3.55292C1.62214 6.6805 1.6546 8.9369 2.9064 10.4002C3.22636 10.7742 3.60169 11.0639 4 11.2873V11.0001C4 9.51456 4.46277 8.13708 5.25201 7.00397Z" fill="black"/>
</svg>
