<svg width="24" height="24" viewBox="0 0 24 24" fill="none" xmlns="http://www.w3.org/2000/svg">
<path fill-rule="evenodd" clip-rule="evenodd" d="M13.0952 2.00459C12.7884 1.97511 12.4851 2.08878 12.2733 2.31265C12.0614 2.53653 11.9646 2.8456 12.011 3.15033L12.2957 5.02308C10.9372 5.89072 9.8237 7.11574 9.08987 8.58341L8.72565 9.31184L8.62092 9.20711C8.2304 8.81659 8.2304 8.18342 8.62092 7.7929L9.9996 6.41422C10.7807 5.63317 10.7806 4.36684 9.9996 3.58579L8.70671 2.2929C8.31618 1.90237 7.68302 1.90237 7.2925 2.2929L6.70671 2.87869C5.5448 4.0406 5.53522 5.91848 6.67796 7.0922C6.075 8.22627 6.25125 9.66587 7.20671 10.6213L7.65961 11.0742L7.58335 11.1695L6.20671 9.7929C5.2639 8.85009 3.7353 8.85009 2.7925 9.7929C2.40197 10.1834 2.40197 10.8166 2.7925 11.2071C3.18302 11.5976 3.81619 11.5976 4.20671 11.2071C4.36847 11.0454 4.63074 11.0454 4.79249 11.2071L6.32627 12.7409L5.29277 14.0328C5.09214 14.2835 4.71808 14.3043 4.49099 14.0772C4.33173 13.9179 4.28728 13.6607 4.39403 13.4472C4.64102 12.9532 4.44079 12.3526 3.94682 12.1056C3.45284 11.8586 2.85216 12.0588 2.60518 12.5528C2.11948 13.5242 2.2993 14.7139 3.07677 15.4914C4.14675 16.5614 5.90923 16.4638 6.85451 15.2822L7.74919 14.1638L9.8358 16.2504L8.71745 17.1451C7.53586 18.0904 7.43824 19.8529 8.50822 20.9228C9.28569 21.7003 10.4754 21.8801 11.4468 21.3944C11.9408 21.1474 12.141 20.5468 11.894 20.0528C11.647 19.5588 11.0464 19.3586 10.5524 19.6056C10.3389 19.7123 10.0817 19.6679 9.92243 19.5086C9.69534 19.2815 9.71606 18.9075 9.96684 18.7068L11.2587 17.6733L12.7925 19.2071C12.9543 19.3689 12.9543 19.6311 12.7925 19.7929C12.402 20.1834 12.402 20.8166 12.7925 21.2071C13.183 21.5976 13.8162 21.5976 14.2067 21.2071C15.1495 20.2643 15.1495 18.7357 14.2067 17.7929L12.8301 16.4163L12.9254 16.34L13.3783 16.7929C14.3337 17.7484 15.7733 17.9246 16.9074 17.3216C18.0811 18.4644 19.959 18.4548 21.1209 17.2929L21.7067 16.7071C21.8942 16.5196 21.9996 16.2652 21.9996 16C21.9996 15.7348 21.8942 15.4804 21.7067 15.2929L20.4138 14C19.6328 13.219 18.3664 13.219 17.5854 14L16.2067 15.3787C15.8162 15.7692 15.183 15.7692 14.7925 15.3787L14.6878 15.274L16.041 14.5973C17.4221 13.9068 18.5839 12.8827 19.4367 11.6401L20.7571 11.9701C21.0728 12.0491 21.4073 11.9694 21.6535 11.7566C21.8998 11.5437 22.027 11.2244 21.9946 10.9005L21.4589 5.54299L21.9006 3.55547C22.1011 2.65323 21.2491 1.87257 20.3678 2.15086L19.0264 2.57437L13.0952 2.00459ZM10.5 10.5C10.5 9.94772 10.9477 9.5 11.5 9.5H11.509C12.0613 9.5 12.509 9.94772 12.509 10.5C12.509 11.0523 12.0613 11.5 11.509 11.5H11.5C10.9477 11.5 10.5 11.0523 10.5 10.5ZM13.5 11.5C12.9477 11.5 12.5 11.9477 12.5 12.5C12.5 13.0523 12.9477 13.5 13.5 13.5H13.509C14.0613 13.5 14.509 13.0523 14.509 12.5C14.509 11.9477 14.0613 11.5 13.509 11.5H13.5Z" fill="black"/>
</svg>
