<svg width="24" height="24" viewBox="0 0 24 24" fill="none" xmlns="http://www.w3.org/2000/svg">
<path d="M2 10H15V9.5C15 5.91015 12.0899 3 8.5 3C4.91015 3 2 5.91015 2 9.5V10Z" fill="black"/>
<path fill-rule="evenodd" clip-rule="evenodd" d="M15 10V12H1.76409C1.28959 12.5302 1 13.231 1 14C1 15.4865 2.08114 16.7205 3.5 16.9585V20C3.5 20.5523 3.94772 21 4.5 21H8C8.55228 21 9 20.5523 9 20V17H10V20C10 20.5523 10.4477 21 11 21H14.5C15.0523 21 15.5 20.5523 15.5 20V16.9753C17.5406 16.7728 19.2184 15.3438 19.7899 13.4378C19.8357 13.2849 19.9181 13.1586 20.0023 13.0815C20.0807 13.0097 20.1356 13 20.1667 13C21.7315 13 23 11.7315 23 10.1667V9.92857C23 7.48274 21.0173 5.5 18.5714 5.5C16.599 5.5 15 7.09898 15 9.07143V9.5V10ZM18 9C18 8.44772 18.4477 8 19 8H19.009C19.5613 8 20.009 8.44772 20.009 9C20.009 9.55228 19.5613 10 19.009 10H19C18.4477 10 18 9.55228 18 9Z" fill="black"/>
</svg>
