<svg width="24" height="24" viewBox="0 0 24 24" fill="none" xmlns="http://www.w3.org/2000/svg">
<path fill-rule="evenodd" clip-rule="evenodd" d="M20.3627 4.93217C20.7357 4.78694 21 4.42434 21 4C21 3.44772 20.5523 3 20 3H15C12.7909 3 11 4.79086 11 7V8.08051C10.1254 7.86067 9.17442 7.7703 8.26468 7.81361C6.98844 7.87438 5.61477 8.20847 4.62124 9H4C2.34315 9 1 10.3431 1 12V14C1 14.5523 1.44772 15 2 15C2.55228 15 3 14.5523 3 14V12C3 11.6069 3.22687 11.2667 3.55683 11.1033C3.552 11.2382 3.55565 11.3491 3.55816 11.4252C3.55917 11.4561 3.56 11.4812 3.56 11.5C3.56 11.7811 3.65229 12.0912 3.71476 12.2865C3.7908 12.5242 3.89036 12.7881 3.99078 13.0386C4.23833 13.656 4.22415 14.3156 3.955 14.8539L3.6613 15.4413C3.18686 16.3902 3.1088 17.4886 3.44427 18.4951L3.82339 19.6324C4.09562 20.4491 4.8599 21 5.72076 21H7.61257C8.97769 21 9.94163 19.6626 9.50994 18.3675L9.04077 16.96L9.24623 16.1381L10.5 16.3471V19C10.5 20.1045 11.3954 21 12.5 21H14C15.1046 21 16 20.1045 16 19V15.2974C16.4414 14.6043 16.7211 14.0077 16.862 13.1652C16.9491 12.6439 16.9818 12.0287 16.9941 11.2393C17.55 11.4089 18.119 11.4468 18.6497 11.3625C19.7384 11.1897 20.8276 10.4416 20.9923 9.12403C21.0536 8.63368 21.0728 8.19858 21.0466 7.76781L22.2405 7.47034C22.7307 7.3482 23.0528 6.87964 22.9913 6.37821C22.9298 5.87679 22.5039 5.5 21.9987 5.5H20.5525C20.5193 5.39716 20.4847 5.29185 20.4487 5.18377L20.4388 5.15412C20.4183 5.09229 20.3933 5.01695 20.3627 4.93217ZM16.5 6C15.9477 6 15.5 6.44772 15.5 7C15.5 7.55228 15.9477 8 16.5 8H16.509C17.0613 8 17.509 7.55228 17.509 7C17.509 6.44772 17.0613 6 16.509 6H16.5Z" fill="black"/>
</svg>
