<svg width="24" height="24" viewBox="0 0 24 24" fill="none" xmlns="http://www.w3.org/2000/svg">
<path fill-rule="evenodd" clip-rule="evenodd" d="M7.98995 2.85862C7.93355 2.46385 7.64799 2.14032 7.26328 2.03533C6.87857 1.93033 6.46825 2.06395 6.21913 2.37535L4.21913 4.87535C4.07728 5.05266 4 5.27297 4 5.50004V8.72289L2.36053 11.4288L2.35492 11.437C1.99295 11.9683 1.65991 12.5199 1.41628 13.2068C1.17236 13.8945 1.03447 14.6701 0.999632 15.648C0.877588 19.0741 3.93127 22.0001 7.34496 22.0001H18.0005C20.762 22.0001 23.0005 19.7615 23.0005 17.0001V15.6108C23.0005 11.9598 20.0408 9 16.3897 9C14.6275 9 12.9091 9.54893 11.4732 10.5705L5.67095 14.6985C5.44132 14.8412 5.16338 14.885 4.90059 14.8193L4.47731 14.7135C4.3534 14.6825 4.26251 14.6353 4.20583 14.591C4.16225 14.5569 4.14278 14.5284 4.13287 14.5061C4.13287 14.5061 4.13263 14.4992 4.131 14.4857C4.12666 14.4496 4.11626 14.3634 4.10903 14.2089C4.09879 13.9904 4.09757 13.719 4.10293 13.4346C4.1111 13.0012 4.13347 12.5846 4.1537 12.3288L5.56465 10H8.5C8.72707 10 8.94738 9.92276 9.12469 9.78091L11.6247 7.78091C11.9361 7.5318 12.0697 7.12148 11.9647 6.73676C11.8597 6.35205 11.5362 6.06649 11.1414 6.01009L8.38388 5.61616L7.98995 2.85862ZM16 14C15.4477 14 15 14.4477 15 15C15 15.5523 15.4477 16 16 16H16.009C16.5613 16 17.009 15.5523 17.009 15C17.009 14.4477 16.5613 14 16.009 14H16Z" fill="black"/>
</svg>
