<svg width="24" height="24" viewBox="0 0 24 24" fill="none" xmlns="http://www.w3.org/2000/svg">
<path fill-rule="evenodd" clip-rule="evenodd" d="M13 6C13 3.79086 14.7909 2 17 2H19C21.2091 2 23 3.79086 23 6V15C23 18.866 19.866 22 16 22H15.6C11.9549 22 9 19.0451 9 15.4C9 15.1791 8.82091 15 8.6 15H8C7.44772 15 7 15.4477 7 16V19C7 20.6569 5.65685 22 4 22C2.34315 22 1 20.6569 1 19V16C1 12.134 4.13401 9 8 9H8.4C12.0451 9 15 11.9549 15 15.6C15 15.8209 15.1791 16 15.4 16H16C16.5523 16 17 15.5523 17 15V10C14.7909 10 13 8.20914 13 6ZM17.5 5C16.9477 5 16.5 5.44772 16.5 6C16.5 6.55228 16.9477 7 17.5 7H17.509C18.0613 7 18.509 6.55228 18.509 6C18.509 5.44772 18.0613 5 17.509 5H17.5Z" fill="black"/>
</svg>
