<svg width="24" height="24" viewBox="0 0 24 24" fill="none" xmlns="http://www.w3.org/2000/svg">
<path fill-rule="evenodd" clip-rule="evenodd" d="M7.59635 2.34496L7.6359 2.35458C9.13397 2.71902 10.7176 3.00012 12 3.00012C13.2824 3.00012 14.866 2.71902 16.3641 2.35458L16.4036 2.34497C17.1925 2.15304 17.8394 1.99568 18.3539 1.91034C18.8624 1.82602 19.3975 1.78126 19.8986 1.93858C20.6273 2.16737 21.1742 2.59712 21.5688 3.25116C21.8353 3.69294 21.9215 4.19861 21.9609 4.69382C22 5.18555 22 5.80709 22 6.5559V14.4267C22 15.0618 22 15.6011 21.9778 16.0427C21.9478 16.6388 21.8747 17.2419 21.5688 17.7491C21.1742 18.4031 20.6273 18.8329 19.8986 19.0617C19.3975 19.219 18.8624 19.1742 18.3539 19.0899C17.8394 19.0046 17.1926 18.8472 16.4036 18.6553L16.3641 18.6457C16.2432 18.6162 16.1218 18.5874 16 18.5592L16 19.9997H17C17.5523 19.9997 18 20.4474 18 20.9997C18 21.552 17.5523 21.9997 17 21.9997H7C6.44772 21.9997 6 21.552 6 20.9997C6 20.4474 6.44772 19.9997 7 19.9997H8V18.5592C7.87821 18.5874 7.75678 18.6162 7.6359 18.6457L7.59641 18.6553C6.80747 18.8472 6.16065 19.0046 5.64608 19.0899C5.13763 19.1742 4.60254 19.219 4.10143 19.0617C3.37265 18.8329 2.82582 18.4031 2.43125 17.7491C2.12527 17.2419 2.05219 16.6388 2.0222 16.0427C1.99999 15.6011 2 15.0617 2 14.4267L2 6.55589C1.99999 5.80708 1.99998 5.18555 2.03909 4.69382C2.07847 4.19861 2.16473 3.69294 2.43125 3.25116C2.82582 2.59712 3.37265 2.16737 4.10143 1.93858C4.60254 1.78126 5.13763 1.82602 5.64608 1.91034C6.16064 1.99568 6.80744 2.15303 7.59635 2.34496ZM10 18.1707V19.9997H14L14 18.1707C13.2928 18.0641 12.6121 18.0001 12 18.0001C11.3879 18.0001 10.7072 18.0642 10 18.1707ZM20 14.6023C20 14.5375 20 14.4709 20 14.4024V6.59787C20 5.79639 19.9992 5.25517 19.9672 4.85239C19.9347 4.44393 19.8772 4.31906 19.8563 4.28428C19.7137 4.04796 19.5628 3.92942 19.2995 3.84675C19.2696 3.83737 19.128 3.8093 18.6811 3.8834C18.249 3.95506 17.675 4.094 16.8369 4.29791C15.2892 4.6744 13.5223 5.00012 12 5.00012C10.4777 5.00012 8.71078 4.6744 7.16314 4.29791C6.32497 4.094 5.75101 3.95506 5.31887 3.8834C4.87204 3.8093 4.73037 3.83737 4.70048 3.84675C4.43716 3.92942 4.28632 4.04796 4.14375 4.28428C4.12277 4.31906 4.06528 4.44393 4.03279 4.85239C4.00075 5.25517 4 5.79639 4 6.59787V14.4024C4 14.4709 4 14.5375 4.00003 14.6023C4.57123 14.4178 5.28919 14.1978 6.08424 13.981C7.86568 13.4953 10.1253 13.0001 12 13.0001C13.8747 13.0001 16.1343 13.4953 17.9158 13.981C18.7108 14.1978 19.4288 14.4178 20 14.6023Z" fill="black"/>
</svg>
