<svg width="24" height="24" viewBox="0 0 24 24" fill="none" xmlns="http://www.w3.org/2000/svg">
<path d="M11 2.07227C8.08238 2.5006 6.2802 4.7211 5.55858 5.79685L5.55467 5.80268C5.44999 5.95872 5.36016 6.09261 5.25299 6.33679C5.17156 6.52231 5.08275 6.8141 5.04703 7.01353C4.9998 7.27718 4.9999 7.48811 5.00001 7.72112L5.00002 14.9999C5.00002 18.8659 8.13403 21.9999 12 21.9999C15.866 21.9999 19 18.8659 19 14.9999L19 7.72112C19.0001 7.48812 19.0002 7.27718 18.953 7.01353C18.9173 6.8141 18.8285 6.52231 18.7471 6.33679C18.6399 6.09262 18.5501 5.95873 18.4454 5.80269L18.4415 5.79685C17.7198 4.7211 15.9176 2.50058 13 2.07227V8.99989C13 9.55217 12.5523 9.99989 12 9.99989C11.4477 9.99989 11 9.55217 11 8.99989V2.07227Z" fill="black"/>
</svg>
