<svg width="24" height="24" viewBox="0 0 24 24" fill="none" xmlns="http://www.w3.org/2000/svg">
<path d="M11 2.07227C8.08238 2.5006 6.2802 4.7211 5.55858 5.79685L5.55467 5.80268C5.44999 5.95872 5.36016 6.09261 5.25299 6.33679C5.17156 6.52231 5.08275 6.8141 5.04703 7.01353C4.9998 7.27718 4.9999 7.48811 5.00001 7.72112L5.00002 7.99989H11V2.07227Z" fill="black"/>
<path d="M5.00002 9.99989V14.9999C5.00002 18.8659 8.13403 21.9999 12 21.9999C15.866 21.9999 19 18.8659 19 14.9999V9.99989H5.00002Z" fill="black"/>
<path d="M19 7.99989H13V2.07227C15.9176 2.50058 17.7198 4.7211 18.4415 5.79685L18.4454 5.80269C18.5501 5.95872 18.6399 6.09262 18.7471 6.33679C18.8285 6.52231 18.9173 6.8141 18.953 7.01353C19.0002 7.27718 19.0001 7.48812 19 7.72112L19 7.99989Z" fill="black"/>
</svg>
