<svg width="24" height="24" viewBox="0 0 24 24" fill="none" xmlns="http://www.w3.org/2000/svg">
<path d="M20 12V15.5C20 17.7091 18.2091 19.5 16 19.5H8C5.79086 19.5 4 17.7091 4 15.5V4.48062C4 3.6629 4.6629 3 5.48062 3C5.81683 3 6.14303 3.11442 6.40556 3.32445L8.5 5M3 12H21M18 21V19M6 21V18.9648M8.50184 7.12133C7.91605 6.53554 7.91605 5.5858 8.50184 5.00001C9.08763 4.41422 10.0374 4.41422 10.6232 5.00001M8.14844 7.47491L10.9769 4.64648" stroke="black" stroke-width="2" stroke-linecap="round" stroke-linejoin="round"/>
</svg>
