<svg width="24" height="24" viewBox="0 0 24 24" fill="none" xmlns="http://www.w3.org/2000/svg">
<path d="M19 17V18C19.5523 18 20 17.5523 20 17H19ZM17.908 3.21799L17.454 4.10899L17.454 4.10899L17.908 3.21799ZM18.782 4.09202L17.891 4.54601V4.54601L18.782 4.09202ZM6.09202 3.21799L5.63803 2.32698L5.63803 2.32698L6.09202 3.21799ZM5.21799 4.09202L4.32698 3.63803L4.32698 3.63803L5.21799 4.09202ZM19 22C19.5523 22 20 21.5523 20 21C20 20.4477 19.5523 20 19 20V22ZM19 17C19 16.4477 18.5523 16 18 16C17.4477 16 17 16.4477 17 17H19ZM17 21C17 21.5523 17.4477 22 18 22C18.5523 22 19 21.5523 19 21H17ZM8.2 4H15.8V2H8.2V4ZM18 6.2V17H20V6.2H18ZM6 19V6.2H4V19H6ZM15.8 4C16.3766 4 16.7488 4.00078 17.0322 4.02393C17.3038 4.04612 17.4045 4.0838 17.454 4.10899L18.362 2.32698C17.9836 2.13419 17.5904 2.06287 17.195 2.03057C16.8114 1.99922 16.3436 2 15.8 2V4ZM20 6.2C20 5.65645 20.0008 5.18864 19.9694 4.80497C19.9371 4.40963 19.8658 4.01641 19.673 3.63803L17.891 4.54601C17.9162 4.59545 17.9539 4.69617 17.9761 4.96784C17.9992 5.25117 18 5.62345 18 6.2H20ZM17.454 4.10899C17.6422 4.20487 17.7951 4.35785 17.891 4.54601L19.673 3.63803C19.3854 3.07354 18.9265 2.6146 18.362 2.32698L17.454 4.10899ZM8.2 2C7.65645 2 7.18864 1.99922 6.80497 2.03057C6.40963 2.06287 6.01641 2.13419 5.63803 2.32698L6.54601 4.10899C6.59545 4.0838 6.69617 4.04612 6.96784 4.02393C7.25117 4.00078 7.62345 4 8.2 4V2ZM6 6.2C6 5.62345 6.00078 5.25117 6.02393 4.96784C6.04612 4.69617 6.0838 4.59545 6.10899 4.54601L4.32698 3.63803C4.13419 4.01641 4.06287 4.40963 4.03057 4.80497C3.99922 5.18864 4 5.65645 4 6.2H6ZM5.63803 2.32698C5.07354 2.6146 4.6146 3.07354 4.32698 3.63803L6.10899 4.54601C6.20487 4.35785 6.35785 4.20487 6.54601 4.10899L5.63803 2.32698ZM7 18H19V16H7V18ZM19 20H7V22H19V20ZM7 20C6.44772 20 6 19.5523 6 19H4C4 20.6569 5.34315 22 7 22V20ZM7 16C5.34315 16 4 17.3431 4 19H6C6 18.4477 6.44772 18 7 18V16ZM17 17V21H19V17H17ZM15 10C15 11.6569 13.6569 13 12 13V15C14.7614 15 17 12.7614 17 10H15ZM12 13C10.3431 13 9 11.6569 9 10H7C7 12.7614 9.23858 15 12 15V13ZM9 10C9 8.34315 10.3431 7 12 7V5C9.23858 5 7 7.23858 7 10H9ZM12 7C13.6569 7 15 8.34315 15 10H17C17 7.23858 14.7614 5 12 5V7ZM8 11H16V9H8V11ZM12.5 10C12.5 11.0164 12.3438 11.892 12.1243 12.4773C12.0132 12.7736 11.905 12.944 11.8356 13.0223C11.7652 13.1017 11.8184 13 12 13V15C12.5958 15 13.0437 14.6744 13.3321 14.3491C13.6216 14.0225 13.8367 13.6071 13.997 13.1796C14.3204 12.3171 14.5 11.1927 14.5 10H12.5ZM12 13C12.1816 13 12.2348 13.1017 12.1644 13.0223C12.095 12.944 11.9868 12.7736 11.8757 12.4773C11.6562 11.892 11.5 11.0164 11.5 10H9.5C9.5 11.1927 9.67959 12.3171 10.003 13.1796C10.1633 13.6071 10.3784 14.0225 10.6679 14.3491C10.9563 14.6744 11.4042 15 12 15V13ZM11.5 10C11.5 8.9836 11.6562 8.10796 11.8757 7.5227C11.9868 7.22637 12.095 7.05603 12.1644 6.97775C12.2348 6.89829 12.1816 7 12 7V5C11.4042 5 10.9563 5.32556 10.6679 5.65093C10.3784 5.97747 10.1633 6.39292 10.003 6.82045C9.67959 7.6829 9.5 8.80726 9.5 10H11.5ZM12 7C11.8184 7 11.7652 6.89829 11.8356 6.97775C11.905 7.05603 12.0132 7.22637 12.1243 7.5227C12.3438 8.10796 12.5 8.9836 12.5 10H14.5C14.5 8.80726 14.3204 7.6829 13.997 6.82045C13.8367 6.39292 13.6216 5.97747 13.3321 5.65093C13.0437 5.32556 12.5958 5 12 5V7Z" fill="black"/>
</svg>
