<svg width="24" height="24" viewBox="0 0 24 24" fill="none" xmlns="http://www.w3.org/2000/svg">
<path d="M6.09202 18.782L6.54601 17.891L6.09202 18.782ZM5.21799 17.908L6.10899 17.454L5.21799 17.908ZM18.782 17.908L17.891 17.454L18.782 17.908ZM17.908 18.782L17.454 17.891L17.908 18.782ZM5 12C4.44772 12 4 12.4477 4 13C4 13.5523 4.44772 14 5 14V12ZM19 14C19.5523 14 20 13.5523 20 13C20 12.4477 19.5523 12 19 12V14ZM5 6C4.44772 6 4 6.44772 4 7C4 7.55228 4.44772 8 5 8V6ZM19 8C19.5523 8 20 7.55228 20 7C20 6.44772 19.5523 6 19 6V8ZM16 21C16 21.5523 16.4477 22 17 22C17.5523 22 18 21.5523 18 21H16ZM18 19C18 18.4477 17.5523 18 17 18C16.4477 18 16 18.4477 16 19H18ZM6 21C6 21.5523 6.44772 22 7 22C7.55228 22 8 21.5523 8 21H6ZM8 19C8 18.4477 7.55228 18 7 18C6.44772 18 6 18.4477 6 19H8ZM8 15C7.44772 15 7 15.4477 7 16C7 16.5523 7.44772 17 8 17V15ZM8.01 17C8.56228 17 9.01 16.5523 9.01 16C9.01 15.4477 8.56228 15 8.01 15V17ZM16 15C15.4477 15 15 15.4477 15 16C15 16.5523 15.4477 17 16 17V15ZM16.01 17C16.5623 17 17.01 16.5523 17.01 16C17.01 15.4477 16.5623 15 16.01 15V17ZM21 10C21 10.5523 21.4477 11 22 11C22.5523 11 23 10.5523 23 10H21ZM23 7C23 6.44772 22.5523 6 22 6C21.4477 6 21 6.44772 21 7H23ZM1 10C1 10.5523 1.44772 11 2 11C2.55228 11 3 10.5523 3 10H1ZM3 7C3 6.44772 2.55228 6 2 6C1.44772 6 1 6.44772 1 7H3ZM18 6V15.8H20V6H18ZM15.8 18H8.2V20H15.8V18ZM6 15.8V6H4V15.8H6ZM5 6C6 6 6 6.00113 6 6.00225C6 6.00261 5.99999 6.00372 5.99999 6.00444C5.99998 6.00588 5.99997 6.00728 5.99996 6.00864C5.99994 6.01136 5.9999 6.01393 5.99986 6.01634C5.99977 6.02117 5.99964 6.02538 5.99951 6.029C5.99923 6.03624 5.99891 6.04114 5.9987 6.04385C5.99828 6.04925 5.9983 6.04607 6.00007 6.03549C6.00359 6.01436 6.01395 5.96422 6.04138 5.8937C6.09403 5.75832 6.21924 5.52201 6.52579 5.25926C7.14601 4.72765 8.61965 4 12 4V2C8.38035 2 6.35399 2.77236 5.22421 3.74074C4.65576 4.22799 4.34347 4.74168 4.17737 5.1688C4.09542 5.37953 4.0511 5.56376 4.02728 5.70669C4.01537 5.77815 4.00856 5.83942 4.00472 5.88877C4.0028 5.91345 4.00162 5.93519 4.00092 5.95379C4.00057 5.96308 4.00034 5.9716 4.0002 5.97931C4.00013 5.98317 4.00008 5.98682 4.00005 5.99027C4.00003 5.99199 4.00002 5.99367 4.00001 5.99529C4.00001 5.9961 4 5.99728 4 5.99768C4 5.99885 4 6 5 6ZM12 4C15.3803 4 16.854 4.72765 17.4742 5.25926C17.7808 5.52201 17.906 5.75832 17.9586 5.8937C17.986 5.96422 17.9964 6.01436 17.9999 6.03549C18.0017 6.04607 18.0017 6.04925 18.0013 6.04385C18.0011 6.04114 18.0008 6.03624 18.0005 6.029C18.0004 6.02538 18.0002 6.02117 18.0001 6.01634C18.0001 6.01393 18.0001 6.01136 18 6.00864C18 6.00728 18 6.00588 18 6.00444C18 6.00372 18 6.00261 18 6.00225C18 6.00113 18 6 19 6C20 6 20 5.99885 20 5.99768C20 5.99728 20 5.9961 20 5.99529C20 5.99367 20 5.99199 20 5.99027C19.9999 5.98682 19.9999 5.98317 19.9998 5.97931C19.9997 5.9716 19.9994 5.96308 19.9991 5.95379C19.9984 5.93519 19.9972 5.91345 19.9953 5.88877C19.9914 5.83942 19.9846 5.77815 19.9727 5.70669C19.9489 5.56376 19.9046 5.37953 19.8226 5.1688C19.6565 4.74168 19.3442 4.22799 18.7758 3.74074C17.646 2.77236 15.6197 2 12 2V4ZM8.2 18C7.62345 18 7.25117 17.9992 6.96784 17.9761C6.69617 17.9539 6.59545 17.9162 6.54601 17.891L5.63803 19.673C6.01641 19.8658 6.40963 19.9371 6.80497 19.9694C7.18864 20.0008 7.65645 20 8.2 20V18ZM4 15.8C4 16.3436 3.99922 16.8114 4.03057 17.195C4.06287 17.5904 4.13419 17.9836 4.32698 18.362L6.10899 17.454C6.0838 17.4045 6.04612 17.3038 6.02393 17.0322C6.00078 16.7488 6 16.3766 6 15.8H4ZM6.54601 17.891C6.35785 17.7951 6.20487 17.6422 6.10899 17.454L4.32698 18.362C4.6146 18.9265 5.07354 19.3854 5.63803 19.673L6.54601 17.891ZM18 15.8C18 16.3766 17.9992 16.7488 17.9761 17.0322C17.9539 17.3038 17.9162 17.4045 17.891 17.454L19.673 18.362C19.8658 17.9836 19.9371 17.5904 19.9694 17.195C20.0008 16.8114 20 16.3436 20 15.8H18ZM15.8 20C16.3436 20 16.8114 20.0008 17.195 19.9694C17.5904 19.9371 17.9836 19.8658 18.362 19.673L17.454 17.891C17.4045 17.9162 17.3038 17.9539 17.0322 17.9761C16.7488 17.9992 16.3766 18 15.8 18V20ZM17.891 17.454C17.7951 17.6422 17.6422 17.7951 17.454 17.891L18.362 19.673C18.9265 19.3854 19.3854 18.9265 19.673 18.362L17.891 17.454ZM5 14H19V12H5V14ZM5 8H19V6H5V8ZM18 21V19H16V21H18ZM8 21V19H6V21H8ZM8 17H8.01V15H8V17ZM16 17H16.01V15H16V17ZM23 10V7H21V10H23ZM3 10V7H1V10H3Z" fill="black"/>
</svg>
