<svg width="24" height="24" viewBox="0 0 24 24" fill="none" xmlns="http://www.w3.org/2000/svg">
<path d="M22 17C22.5523 17 23 16.5523 23 16C23 15.4477 22.5523 15 22 15V17ZM5 7V6C4.44772 6 4 6.44772 4 7H5ZM9 7H10C10 6.44772 9.55228 6 9 6V7ZM9 10V11C9.55228 11 10 10.5523 10 10H9ZM5 10H4C4 10.5523 4.44772 11 5 11V10ZM13 7V6C12.4477 6 12 6.44772 12 7H13ZM16 7H17C17 6.44772 16.5523 6 16 6V7ZM16 10V11C16.5523 11 17 10.5523 17 10H16ZM13 10H12C12 10.5523 12.4477 11 13 11V10ZM4 5H15V3H4V5ZM18 8V16H20V8H18ZM3 14V6H1V14H3ZM5.17071 15H4V17H5.17071V15ZM19 15H10.8293V17H19V15ZM1 14C1 15.6569 2.34314 17 4 17V15C3.44771 15 3 14.5523 3 14H1ZM15 5C16.6569 5 18 6.34315 18 8H20C20 5.23858 17.7614 3 15 3V5ZM4 3C2.34315 3 1 4.34315 1 6H3C3 5.44772 3.44772 5 4 5V3ZM19 17H22V15H19V17ZM10 17C10 18.1046 9.10457 19 8 19V21C10.2091 21 12 19.2091 12 17H10ZM8 19C6.89543 19 6 18.1046 6 17H4C4 19.2091 5.79086 21 8 21V19ZM6 17C6 15.8954 6.89543 15 8 15V13C5.79086 13 4 14.7909 4 17H6ZM8 15C9.10457 15 10 15.8954 10 17H12C12 14.7909 10.2091 13 8 13V15ZM5 8H9V6H5V8ZM8 7V10H10V7H8ZM9 9H5V11H9V9ZM6 10V7H4V10H6ZM13 8H16V6H13V8ZM15 7V10H17V7H15ZM16 9H13V11H16V9ZM14 10V7H12V10H14Z" fill="black"/>
</svg>
