<svg width="24" height="24" viewBox="0 0 24 24" fill="none" xmlns="http://www.w3.org/2000/svg">
<path d="M12 15C12.5523 15 13 14.5523 13 14C13 13.4477 12.5523 13 12 13V15ZM7 5C6.44772 5 6 5.44772 6 6C6 6.55228 6.44772 7 7 7V5ZM7.01 7C7.56228 7 8.01 6.55228 8.01 6C8.01 5.44772 7.56228 5 7.01 5V7ZM10 5C9.44772 5 9 5.44772 9 6C9 6.55228 9.44772 7 10 7V5ZM10.01 7C10.5623 7 11.01 6.55228 11.01 6C11.01 5.44772 10.5623 5 10.01 5V7ZM6 4H18V2H6V4ZM19 5V19H21V5H19ZM18 20H6V22H18V20ZM5 19V5H3V19H5ZM6 20C5.44772 20 5 19.5523 5 19H3C3 20.6569 4.34315 22 6 22V20ZM19 19C19 19.5523 18.5523 20 18 20V22C19.6569 22 21 20.6569 21 19H19ZM18 4C18.5523 4 19 4.44772 19 5H21C21 3.34315 19.6569 2 18 2V4ZM6 2C4.34315 2 3 3.34315 3 5H5C5 4.44772 5.44772 4 6 4V2ZM15 14C15 15.6569 13.6569 17 12 17V19C14.7614 19 17 16.7614 17 14H15ZM12 17C10.3431 17 9 15.6569 9 14H7C7 16.7614 9.23858 19 12 19V17ZM9 14C9 12.3431 10.3431 11 12 11V9C9.23858 9 7 11.2386 7 14H9ZM12 11C13.6569 11 15 12.3431 15 14H17C17 11.2386 14.7614 9 12 9V11ZM12 13H8V15H12V13ZM7 7H7.01V5H7V7ZM10 7H10.01V5H10V7Z" fill="black"/>
</svg>
