<svg width="24" height="24" viewBox="0 0 24 24" fill="none" xmlns="http://www.w3.org/2000/svg">
<path d="M3 13V10.8284C3 9.26633 4.26633 8 5.82843 8C6.57857 8 7.29799 8.29799 7.82843 8.82843L12 13M3 13H19C20.1046 13 21 13.8954 21 15V19C21 20.1046 20.1046 21 19 21H5C3.89543 21 3 20.1046 3 19V13ZM15 9V8.24264C15 7.44699 14.6839 6.68393 14.1213 6.12132L13.8787 5.87868C13.3161 5.31607 13 4.55301 13 3.75736V3M19 9V8.24264C19 7.44699 18.6839 6.68393 18.1213 6.12132L17.8787 5.87868C17.3161 5.31607 17 4.55301 17 3.75736V3M7 18V16M12 18V16M17 18V16M5 4C5 4.55228 4.55228 5 4 5C3.44772 5 3 4.55228 3 4C3 3.44772 3.44772 3 4 3C4.55228 3 5 3.44772 5 4Z" stroke="black" stroke-width="2" stroke-linecap="round"/>
</svg>
