<svg width="24" height="24" viewBox="0 0 24 24" fill="none" xmlns="http://www.w3.org/2000/svg">
<path d="M21 5.5V10.5C21 11.6046 20.1046 12.5 19 12.5H15C13.8954 12.5 13 11.6046 13 10.5V5.5M12 5.5H22M15 5.5V4C15 3.44772 15.4477 3 16 3H18C18.5523 3 19 3.44772 19 4V5.5M6.5 12C8.98528 12 11 14.0147 11 16.5C11 18.9853 8.98528 21 6.5 21C4.01472 21 2 18.9853 2 16.5C2 14.0147 4.01472 12 6.5 12ZM6.5 12V8M6.5 8C7.05228 8 7.5 7.55228 7.5 7V4C7.5 3.44772 7.05228 3 6.5 3C5.94772 3 5.5 3.44772 5.5 4V7C5.5 7.55228 5.94772 8 6.5 8ZM6.5 15.5C7.05228 15.5 7.5 15.9477 7.5 16.5C7.5 17.0523 7.05228 17.5 6.5 17.5C5.94772 17.5 5.5 17.0523 5.5 16.5C5.5 15.9477 5.94772 15.5 6.5 15.5Z" stroke="black" stroke-width="2" stroke-linecap="round"/>
</svg>
