<svg width="24" height="24" viewBox="0 0 24 24" fill="none" xmlns="http://www.w3.org/2000/svg">
<path d="M19 22C19.5523 22 20 21.5523 20 21C20 20.4477 19.5523 20 19 20V22ZM17.2361 21L16.3416 21.4472C16.511 21.786 16.8573 22 17.2361 22V21ZM15.2889 17.1056L14.3944 17.5528L15.2889 17.1056ZM12.5 20C13.0523 20 13.5 19.5523 13.5 19C13.5 18.4477 13.0523 18 12.5 18V20ZM6 9C6 8.44772 5.55228 8 5 8C4.44772 8 4 8.44772 4 9H6ZM16 11C16.5523 11 17 10.5523 17 10C17 9.44772 16.5523 9 16 9V11ZM19 20H17.2361V22H19V20ZM18.1305 20.5528L16.1833 16.6584L14.3944 17.5528L16.3416 21.4472L18.1305 20.5528ZM13.5 15H12V17H13.5V15ZM16.1833 16.6584C15.6751 15.642 14.6363 15 13.5 15V17C13.8788 17 14.225 17.214 14.3944 17.5528L16.1833 16.6584ZM9 14V10H7V14H9ZM11 10V16H13V10H11ZM12 15H10V17H12V15ZM10 9C10.5523 9 11 9.44772 11 10H13C13 8.34315 11.6569 7 10 7V9ZM9 10C9 9.44772 9.44772 9 10 9V7C8.34315 7 7 8.34315 7 10H9ZM7 14C7 15.6569 8.34315 17 10 17V15C9.44772 15 9 14.5523 9 14H7ZM12.5 18H9V20H12.5V18ZM6 15V9H4V15H6ZM9 18C7.34315 18 6 16.6569 6 15H4C4 17.7614 6.23858 20 9 20V18ZM10.5 4V6C11.6046 6 12.5 5.10457 12.5 4H10.5ZM10.5 4H8.5C8.5 5.10457 9.39543 6 10.5 6V4ZM10.5 4V2C9.39543 2 8.5 2.89543 8.5 4H10.5ZM10.5 4H12.5C12.5 2.89543 11.6046 2 10.5 2V4ZM12 11H16V9H12V11Z" fill="black"/>
</svg>
