<svg width="24" height="24" viewBox="0 0 24 24" fill="none" xmlns="http://www.w3.org/2000/svg">
<path d="M21.3714 20.9285C21.8842 20.7234 22.1336 20.1414 21.9285 19.6286C21.7234 19.1158 21.1414 18.8664 20.6286 19.0715L21.3714 20.9285ZM18.5 21L17.6056 21.4472C17.8382 21.9124 18.3885 22.1216 18.8714 21.9285L18.5 21ZM16.5528 17.1056L17.4472 16.6584V16.6584L16.5528 17.1056ZM12 15C11.4477 15 11 15.4477 11 16C11 16.5523 11.4477 17 12 17V15ZM8.51334 14.7022L9.44967 14.3511V14.3511L8.51334 14.7022ZM6.94882 10.5302L6.01249 10.8813L6.94882 10.5302ZM10.4557 9.21512L11.392 8.864V8.864L10.4557 9.21512ZM13 16V17C13.328 17 13.6351 16.8392 13.8219 16.5696C14.0087 16.3 14.0515 15.956 13.9363 15.6489L13 16ZM10.75 9C10.1977 9 9.75 9.44772 9.75 10C9.75 10.5523 10.1977 11 10.75 11V9ZM15 11C15.5523 11 16 10.5523 16 10C16 9.44772 15.5523 9 15 9V11ZM13 20C13.5523 20 14 19.5523 14 19C14 18.4477 13.5523 18 13 18V20ZM5.14482 16.1494L6.10264 15.862L5.14482 16.1494ZM3.95783 8.71265C3.79913 8.18366 3.24164 7.88348 2.71265 8.04217C2.18366 8.20087 1.88348 8.75836 2.04217 9.28735L3.95783 8.71265ZM20.6286 19.0715L18.1286 20.0715L18.8714 21.9285L21.3714 20.9285L20.6286 19.0715ZM19.3944 20.5528L17.4472 16.6584L15.6584 17.5528L17.6056 21.4472L19.3944 20.5528ZM14.7639 15H12V17H14.7639V15ZM17.4472 16.6584C16.939 15.642 15.9002 15 14.7639 15V17C15.1427 17 15.489 17.214 15.6584 17.5528L17.4472 16.6584ZM9.44967 14.3511L7.88515 10.1791L6.01249 10.8813L7.57701 15.0534L9.44967 14.3511ZM9.51934 9.56625L12.0637 16.3511L13.9363 15.6489L11.392 8.864L9.51934 9.56625ZM13 15H10.386V17H13V15ZM8.70225 9C9.06601 9 9.39162 9.22565 9.51934 9.56625L11.392 8.864C10.9715 7.74279 9.8997 7 8.70225 7V9ZM7.88515 10.1791C7.67121 9.60857 8.09295 9 8.70225 9V7C6.69654 7 5.30824 9.00331 6.01249 10.8813L7.88515 10.1791ZM7.57701 15.0534C8.01611 16.2243 9.13547 17 10.386 17V15C9.96916 15 9.59604 14.7414 9.44967 14.3511L7.57701 15.0534ZM10.75 11H15V9H10.75V11ZM13 18H8.97612V20H13V18ZM6.10264 15.862L3.95783 8.71265L2.04217 9.28735L4.18699 16.4367L6.10264 15.862ZM8.97612 18C7.6513 18 6.48333 17.131 6.10264 15.862L4.18699 16.4367C4.82147 18.5517 6.76808 20 8.97612 20V18ZM7 4V6C8.10457 6 9 5.10457 9 4H7ZM7 4H5C5 5.10457 5.89543 6 7 6V4ZM7 4V2C5.89543 2 5 2.89543 5 4H7ZM7 4H9C9 2.89543 8.10457 2 7 2V4Z" fill="black"/>
</svg>
