<svg width="24" height="24" viewBox="0 0 24 24" fill="none" xmlns="http://www.w3.org/2000/svg">
<path d="M3.20711 17.7929C2.81658 17.4024 2.18342 17.4024 1.79289 17.7929C1.40237 18.1834 1.40237 18.8166 1.79289 19.2071L3.20711 17.7929ZM3.11612 19.1161L3.82322 18.409H3.82322L3.11612 19.1161ZM7.38388 19.1161L8.09099 19.8232L8.09099 19.8232L7.38388 19.1161ZM7.61612 18.8839L6.90901 18.1768L6.90901 18.1768L7.61612 18.8839ZM11.8839 18.8839L11.1768 19.591L11.8839 18.8839ZM12.1161 19.1161L12.8232 18.409L12.1161 19.1161ZM16.3839 19.1161L15.6768 18.409L16.3839 19.1161ZM16.6161 18.8839L17.3232 19.591L16.6161 18.8839ZM20.8839 18.8839L21.591 18.1768L21.591 18.1768L20.8839 18.8839ZM20.7929 20.2071C21.1834 20.5976 21.8166 20.5976 22.2071 20.2071C22.5976 19.8166 22.5976 19.1834 22.2071 18.7929L20.7929 20.2071ZM20.9984 7C21.5507 7 21.9984 6.55228 21.9984 6C21.9984 5.44772 21.5507 5 20.9984 5V7ZM7.24642 12.88L6.31794 12.5087H6.31794L7.24642 12.88ZM9.26337 9.41884L8.4825 8.79414L9.26337 9.41884ZM19.3994 15.7996C19.841 16.1313 20.4679 16.0422 20.7996 15.6006C21.1313 15.159 21.0422 14.5321 20.6006 14.2004L19.3994 15.7996ZM5.46996 14.6286C5.26485 15.1414 5.51426 15.7234 6.02705 15.9285C6.53983 16.1336 7.1218 15.8842 7.32691 15.3714L5.46996 14.6286ZM1.79289 19.2071L2.40901 19.8232L3.82322 18.409L3.20711 17.7929L1.79289 19.2071ZM8.09099 19.8232L8.32322 19.591L6.90901 18.1768L6.67678 18.409L8.09099 19.8232ZM11.1768 19.591L11.409 19.8232L12.8232 18.409L12.591 18.1768L11.1768 19.591ZM17.091 19.8232L17.3232 19.591L15.909 18.1768L15.6768 18.409L17.091 19.8232ZM20.1768 19.591L20.7929 20.2071L22.2071 18.7929L21.591 18.1768L20.1768 19.591ZM18.75 19C19.2851 19 19.7984 19.2126 20.1768 19.591L21.591 18.1768C20.8375 17.4233 19.8156 17 18.75 17V19ZM17.3232 19.591C17.7016 19.2126 18.2149 19 18.75 19V17C17.6844 17 16.6625 17.4233 15.909 18.1768L17.3232 19.591ZM14.25 21C15.3156 21 16.3375 20.5767 17.091 19.8232L15.6768 18.409C15.2984 18.7874 14.7851 19 14.25 19V21ZM11.409 19.8232C12.1625 20.5767 13.1844 21 14.25 21V19C13.7149 19 13.2016 18.7874 12.8232 18.409L11.409 19.8232ZM9.75 19C10.2851 19 10.7984 19.2126 11.1768 19.591L12.591 18.1768C11.8375 17.4233 10.8156 17 9.75 17V19ZM8.32322 19.591C8.70163 19.2126 9.21485 19 9.75 19V17C8.68442 17 7.66249 17.4233 6.90901 18.1768L8.32322 19.591ZM5.25 21C6.31558 21 7.33751 20.5767 8.09099 19.8232L6.67678 18.409C6.29837 18.7874 5.78515 19 5.25 19V21ZM2.40901 19.8232C3.16249 20.5767 4.18442 21 5.25 21V19C4.71486 19 4.20163 18.7874 3.82322 18.409L2.40901 19.8232ZM6 7C6 7.55228 5.55228 8 5 8V10C6.65685 10 8 8.65685 8 7H6ZM5 8C4.44772 8 4 7.55228 4 7H2C2 8.65685 3.34315 10 5 10V8ZM4 7C4 6.44772 4.44772 6 5 6V4C3.34315 4 2 5.34315 2 7H4ZM5 6C5.55228 6 6 6.44772 6 7H8C8 5.34315 6.65685 4 5 4V6ZM16.3767 7H20.9984V5H16.3767V7ZM8.17489 13.2514C8.63703 12.0961 9.26691 11.0152 10.0442 10.0435L8.4825 8.79414C7.58241 9.91925 6.85306 11.1709 6.31794 12.5087L8.17489 13.2514ZM10.0442 10.0435C10.4209 9.57275 10.8448 9.15021 11.3063 8.78046L10.0559 7.21954C9.48034 7.68062 8.95186 8.20745 8.4825 8.79414L10.0442 10.0435ZM11.3063 8.78046C12.7315 7.63881 14.516 7 16.3767 7V5C14.057 5 11.8323 5.79649 10.0559 7.21954L11.3063 8.78046ZM10.0805 8.79955L19.3994 15.7996L20.6006 14.2004L11.2817 7.20045L10.0805 8.79955ZM7.32691 15.3714L8.17489 13.2514L6.31794 12.5087L5.46996 14.6286L7.32691 15.3714Z" fill="black"/>
</svg>
