<svg width="24" height="24" viewBox="0 0 24 24" fill="none" xmlns="http://www.w3.org/2000/svg">
<path d="M4 21C4 21.5523 4.44772 22 5 22C5.55228 22 6 21.5523 6 21H4ZM6 3C6 2.44772 5.55228 2 5 2C4.44772 2 4 2.44772 4 3H6ZM17 21C17 21.5523 17.4477 22 18 22C18.5523 22 19 21.5523 19 21H17ZM18 3V2C17.4477 2 17 2.44772 17 3H18ZM9 3C9 2.44772 8.55228 2 8 2C7.44772 2 7 2.44772 7 3H9ZM3 3C3 2.44772 2.55228 2 2 2C1.44772 2 1 2.44772 1 3H3ZM18 12C17.4477 12 17 12.4477 17 13C17 13.5523 17.4477 14 18 14V12ZM8.44503 19.169C7.95045 18.9232 7.35027 19.1249 7.10449 19.6194C6.8587 20.114 7.06039 20.7142 7.55497 20.96L8.44503 19.169ZM10.8901 2.06098C10.3412 2.12167 9.94537 2.61586 10.0061 3.1648C10.0667 3.71374 10.5609 4.10956 11.1099 4.04887L10.8901 2.06098ZM15.3332 21.4307C15.854 21.2467 16.1269 20.6754 15.9428 20.1546C15.7588 19.6339 15.1875 19.361 14.6668 19.545L15.3332 21.4307ZM14.6668 4.45496C15.1875 4.639 15.7588 4.36608 15.9428 3.84536C16.1269 3.32465 15.854 2.75332 15.3332 2.56928L14.6668 4.45496ZM16.7995 15.6012C17.1312 15.1596 17.0422 14.5327 16.6007 14.201C16.1591 13.8693 15.5322 13.9583 15.2005 14.3998L16.7995 15.6012ZM15.2005 9.60019C15.5323 10.0417 16.1591 10.1307 16.6007 9.79901C17.0422 9.46726 17.1312 8.84039 16.7995 8.39884L15.2005 9.60019ZM8.79949 14.3998C8.46775 13.9583 7.84087 13.8693 7.39933 14.201C6.95778 14.5327 6.86876 15.1596 7.20051 15.6012L8.79949 14.3998ZM10.8011 6.12C10.2598 6.22987 9.91012 6.7577 10.02 7.29895C10.1299 7.8402 10.6577 8.1899 11.1989 8.08003L10.8011 6.12ZM6 21V3H4V21H6ZM19 21V3H17V21H19ZM7 3V8H9V3H7ZM3 8V3H1V8H3ZM5 10C3.89543 10 3 9.10457 3 8H1C1 10.2091 2.79086 12 5 12V10ZM7 8C7 9.10457 6.10457 10 5 10V12C7.20914 12 9 10.2091 9 8H7ZM18 14C20.7614 14 23 11.7614 23 9H21C21 10.6569 19.6569 12 18 12V14ZM18 4C19.6569 4 21 5.34315 21 7H23C23 4.23858 20.7614 2 18 2V4ZM12 20C10.721 20 9.5148 19.7006 8.44503 19.169L7.55497 20.96C8.89511 21.626 10.4053 22 12 22V20ZM11.1099 4.04887C11.4018 4.0166 11.6988 4 12 4V2C11.6252 2 11.2549 2.02066 10.8901 2.06098L11.1099 4.04887ZM14.6668 19.545C13.834 19.8394 12.9368 20 12 20V22C13.167 22 14.2894 21.7997 15.3332 21.4307L14.6668 19.545ZM12 4C12.9368 4 13.834 4.16061 14.6668 4.45496L15.3332 2.56928C14.2894 2.20032 13.167 2 12 2V4ZM15.2005 14.3998C14.469 15.3734 13.3078 16 12 16V18C13.9634 18 15.7065 17.0559 16.7995 15.6012L15.2005 14.3998ZM12 8C13.3078 8 14.469 8.6266 15.2005 9.60019L16.7995 8.39884C15.7065 6.94409 13.9634 6 12 6V8ZM12 16C10.6922 16 9.53097 15.3734 8.79949 14.3998L7.20051 15.6012C8.29349 17.0559 10.0366 18 12 18V16ZM11.1989 8.08003C11.4569 8.02766 11.7247 8 12 8V6C11.5903 6 11.1893 6.0412 10.8011 6.12L11.1989 8.08003ZM21 7V9H23V7H21Z" fill="black"/>
</svg>
