<svg width="24" height="24" viewBox="0 0 24 24" fill="none" xmlns="http://www.w3.org/2000/svg">
<path d="M15.8345 19.9309C15.2899 20.0223 14.9224 20.5379 15.0138 21.0825C15.1052 21.6272 15.6208 21.9947 16.1655 21.9033L15.8345 19.9309ZM16.1655 8.09679C15.6208 8.00541 15.1052 8.37288 15.0138 8.91755C14.9224 9.46222 15.2899 9.97785 15.8345 10.0692L16.1655 8.09679ZM7.49984 3V2C7.19604 2 6.90872 2.1381 6.71895 2.37534L7.49984 3ZM10.4998 3L11.2807 2.37527C11.0909 2.13808 10.8036 2 10.4998 2V3ZM12.5 5.5L13.3791 5.97664C13.5708 5.62315 13.532 5.18925 13.2808 4.87527L12.5 5.5ZM9.62074 8.71241C9.3575 9.19792 9.53768 9.80491 10.0232 10.0681C10.5087 10.3314 11.1157 10.1512 11.3789 9.66569L9.62074 8.71241ZM5.5 5.5L4.71911 4.87534C4.46796 5.18929 4.42926 5.62313 4.62087 5.97658L5.5 5.5ZM6.62071 9.66563C6.88392 10.1512 7.49089 10.3314 7.97642 10.0682C8.46195 9.80497 8.64218 9.198 8.37897 8.71247L6.62071 9.66563ZM14 15C14 17.7614 11.7614 20 9 20V22C12.866 22 16 18.866 16 15H14ZM9 20C6.23858 20 4 17.7614 4 15H2C2 18.866 5.13401 22 9 22V20ZM4 15C4 12.2386 6.23858 10 9 10V8C5.13401 8 2 11.134 2 15H4ZM9 10C11.7614 10 14 12.2386 14 15H16C16 11.134 12.866 8 9 8V10ZM20 15C20 17.4766 18.1985 19.5343 15.8345 19.9309L16.1655 21.9033C19.4769 21.3478 22 18.4695 22 15H20ZM15.8345 10.0692C18.1985 10.4658 20 12.5235 20 15H22C22 11.5306 19.4769 8.65234 16.1655 8.09679L15.8345 10.0692ZM7.49984 4H10.4998V2H7.49984V4ZM9.71899 3.62473L11.7192 6.12473L13.2808 4.87527L11.2807 2.37527L9.71899 3.62473ZM11.6209 5.02336L9.62074 8.71241L11.3789 9.66569L13.3791 5.97664L11.6209 5.02336ZM6.71895 2.37534L4.71911 4.87534L6.28089 6.12466L8.28073 3.62466L6.71895 2.37534ZM4.62087 5.97658L6.62071 9.66563L8.37897 8.71247L6.37913 5.02342L4.62087 5.97658Z" fill="black"/>
</svg>
