<svg width="24" height="24" viewBox="0 0 24 24" fill="none" xmlns="http://www.w3.org/2000/svg">
<path d="M10.5713 6.00845L11.2778 6.71619V6.71619L10.5713 6.00845ZM11.2856 5.29537L10.5792 4.58763L10.5792 4.58763L11.2856 5.29537ZM12.7144 5.29537L13.4208 4.58763V4.58763L12.7144 5.29537ZM13.4287 6.00845L12.7222 6.71619V6.71619L13.4287 6.00845ZM12.0004 5L12.0008 4L12.0004 5ZM15.4892 11.3921L16.0537 12.2175L15.4892 11.3921ZM4 11V9C2.89543 9 2 9.89543 2 11H4ZM11 18C7.13401 18 4 14.866 4 11H2C2 15.9706 6.02944 20 11 20V18ZM11 20H12V18H11V20ZM11 18V19H13V18H11ZM4 11C5.46552 11 6.8231 11.4493 7.94631 12.2175L9.07539 10.5667C7.63018 9.57821 5.88111 9 4 9V11ZM7.94631 12.2175C9.79212 13.48 11 15.5991 11 18H13C13 14.911 11.4429 12.186 9.07539 10.5667L7.94631 12.2175ZM11.2778 6.71619L11.9921 6.00311L10.5792 4.58763L9.86481 5.30071L11.2778 6.71619ZM12.0079 6.00311L12.7222 6.71619L14.1352 5.30071L13.4208 4.58763L12.0079 6.00311ZM11.9921 6.00311C11.9935 6.00172 11.9943 6.00121 11.9944 6.00111C11.9946 6.00097 11.9948 6.00088 11.9951 6.00078C11.9957 6.00052 11.9974 6 12 6L12.0008 4C11.4882 3.99981 10.9718 4.19567 10.5792 4.58763L11.9921 6.00311ZM12 6C12.0026 6 12.0043 6.00052 12.0049 6.00078C12.0052 6.00088 12.0054 6.00097 12.0056 6.00111C12.0057 6.00121 12.0065 6.00172 12.0079 6.00311L13.4208 4.58763C13.0286 4.19606 12.5129 4.00019 12.0008 4L12 6ZM12.7222 6.71619C13.9933 7.985 14.5828 9.67444 14.4907 11.3368L16.4876 11.4474C16.6099 9.23987 15.8257 6.98817 14.1352 5.30071L12.7222 6.71619ZM9.86481 5.30071C8.17431 6.98817 7.39011 9.23987 7.51238 11.4474L9.50932 11.3368C9.41725 9.67444 10.0067 7.985 11.2778 6.71619L9.86481 5.30071ZM22 11C22 9.89543 21.1046 9 20 9V11H22ZM13 20C17.9706 20 22 15.9706 22 11H20C20 14.866 16.866 18 13 18V20ZM12 20H13V18H12V20ZM20 9C18.1189 9 16.3698 9.57821 14.9246 10.5667L16.0537 12.2175C17.1769 11.4493 18.5345 11 20 11V9ZM14.9246 10.5667C12.5571 12.186 11 14.911 11 18H13C13 15.5991 14.2079 13.48 16.0537 12.2175L14.9246 10.5667Z" fill="black"/>
</svg>
