<svg width="24" height="24" viewBox="0 0 24 24" fill="none" xmlns="http://www.w3.org/2000/svg">
<path d="M21 14H22C22 13.4477 21.5523 13 21 13V14ZM21 10V11C21.5523 11 22 10.5523 22 10H21ZM16 14C15.4477 14 15 14.4477 15 15C15 15.5523 15.4477 16 16 16V14ZM16.01 16C16.5623 16 17.01 15.5523 17.01 15C17.01 14.4477 16.5623 14 16.01 14V16ZM16 11C15.4477 11 15 11.4477 15 12C15 12.5523 15.4477 13 16 13V11ZM16.01 13C16.5623 13 17.01 12.5523 17.01 12C17.01 11.4477 16.5623 11 16.01 11V13ZM16 8C15.4477 8 15 8.44772 15 9C15 9.55228 15.4477 10 16 10V8ZM16.01 10C16.5623 10 17.01 9.55228 17.01 9C17.01 8.44772 16.5623 8 16.01 8V10ZM21 13C20.4477 13 20 12.5523 20 12H18C18 13.6569 19.3431 15 21 15V13ZM20 12C20 11.4477 20.4477 11 21 11V9C19.3431 9 18 10.3431 18 12H20ZM5 7H19V5H5V7ZM19 17H5V19H19V17ZM4 16V8H2V16H4ZM5 17C4.44772 17 4 16.5523 4 16H2C2 17.6569 3.34315 19 5 19V17ZM20 16C20 16.5523 19.5523 17 19 17V19C20.6569 19 22 17.6569 22 16H20ZM19 7C19.5523 7 20 7.44772 20 8H22C22 6.34315 20.6569 5 19 5V7ZM5 5C3.34315 5 2 6.34315 2 8H4C4 7.44772 4.44772 7 5 7V5ZM22 16V14H20V16H22ZM22 10V8H20V10H22ZM16 16H16.01V14H16V16ZM16 13H16.01V11H16V13ZM16 10H16.01V8H16V10Z" fill="black"/>
</svg>
