<svg width="24" height="24" viewBox="0 0 24 24" fill="none" xmlns="http://www.w3.org/2000/svg">
<path d="M3 19C2.44772 19 2 19.4477 2 20C2 20.5523 2.44772 21 3 21V19ZM21 21C21.5523 21 22 20.5523 22 20C22 19.4477 21.5523 19 21 19V21ZM7 8.05958L6.10102 7.62159C5.98231 7.86525 5.96759 8.14666 6.06023 8.40138C6.15287 8.6561 6.34494 8.8623 6.59244 8.97276L7 8.05958ZM16.7585 4.66016L17.166 3.74698L16.7585 4.66016ZM20.3103 14L19.9027 14.9132C20.3951 15.1329 20.9731 14.9227 21.2092 14.438L20.3103 14ZM16.7602 4.66016L17.1678 3.74698L16.7602 4.66016ZM8.38616 19.562C8.14428 20.0585 8.3507 20.6571 8.8472 20.899C9.3437 21.1409 9.94227 20.9345 10.1842 20.438L8.38616 19.562ZM3 21H21V19H3V21ZM7.89898 8.49757C9.36575 5.48701 13.1446 4.14233 16.3509 5.57334L17.166 3.74698C13.0213 1.89718 8.0621 3.59645 6.10102 7.62159L7.89898 8.49757ZM16.3509 5.57334C19.5358 6.99475 20.8654 10.5774 19.4113 13.562L21.2092 14.438C23.183 10.3869 21.3322 5.60636 17.166 3.74698L16.3509 5.57334ZM6.59244 8.97276L13.2476 11.943L14.0627 10.1166L7.40756 7.1464L6.59244 8.97276ZM13.2476 11.943L19.9027 14.9132L20.7178 13.0868L14.0627 10.1166L13.2476 11.943ZM11.7037 10.1948C12.5142 8.53115 13.5323 7.20048 14.4847 6.38544C14.9619 5.977 15.3875 5.72823 15.7291 5.61165C16.0669 5.49637 16.2554 5.52994 16.3527 5.57334L17.1678 3.74698C16.4774 3.43887 15.7419 3.49404 15.0832 3.71882C14.4283 3.94229 13.7847 4.35203 13.1843 4.86591C11.9812 5.89551 10.8091 7.46469 9.90571 9.31886L11.7037 10.1948ZM16.3527 5.57334C16.4439 5.61407 16.5778 5.71789 16.6943 6.01801C16.8144 6.32743 16.8886 6.7862 16.8686 7.39305C16.8288 8.60354 16.4212 10.2 15.6101 11.8648L17.4081 12.7407C18.3109 10.8876 18.8164 9.01432 18.8675 7.45874C18.893 6.68255 18.8071 5.93422 18.5588 5.29441C18.3069 4.64529 17.8641 4.05777 17.1678 3.74698L16.3527 5.57334ZM12.7561 10.5918L8.38616 19.562L10.1842 20.438L14.5541 11.4677L12.7561 10.5918Z" fill="black"/>
</svg>
