<svg width="24" height="24" viewBox="0 0 24 24" fill="none" xmlns="http://www.w3.org/2000/svg">
<path d="M3.20711 16.7929C2.81658 16.4024 2.18342 16.4024 1.79289 16.7929C1.40237 17.1834 1.40237 17.8166 1.79289 18.2071L3.20711 16.7929ZM3.11612 18.1161L3.82322 17.409H3.82322L3.11612 18.1161ZM7.38388 18.1161L8.09099 18.8232L8.09099 18.8232L7.38388 18.1161ZM7.61612 17.8839L6.90901 17.1768L6.90901 17.1768L7.61612 17.8839ZM11.8839 17.8839L11.1768 18.591L11.8839 17.8839ZM12.1161 18.1161L12.8232 17.409L12.1161 18.1161ZM16.3839 18.1161L15.6768 17.409L16.3839 18.1161ZM16.6161 17.8839L17.3232 18.591L16.6161 17.8839ZM20.8839 17.8839L21.591 17.1768L21.591 17.1768L20.8839 17.8839ZM20.7929 19.2071C21.1834 19.5976 21.8166 19.5976 22.2071 19.2071C22.5976 18.8166 22.5976 18.1834 22.2071 17.7929L20.7929 19.2071ZM4 18.9895C4 19.5418 4.44772 19.9895 5 19.9895C5.55228 19.9895 6 19.5418 6 18.9895H4ZM9 9C9 9.55228 9.44772 10 10 10C10.5523 10 11 9.55228 11 9H9ZM13 18.9895C13 19.5418 13.4477 19.9895 14 19.9895C14.5523 19.9895 15 19.5418 15 18.9895H13ZM18 9C18 9.55228 18.4477 10 19 10C19.5523 10 20 9.55228 20 9H18ZM5 12C4.44772 12 4 12.4477 4 13C4 13.5523 4.44772 14 5 14V12ZM14 14C14.5523 14 15 13.5523 15 13C15 12.4477 14.5523 12 14 12V14ZM1.79289 18.2071L2.40901 18.8232L3.82322 17.409L3.20711 16.7929L1.79289 18.2071ZM8.09099 18.8232L8.32322 18.591L6.90901 17.1768L6.67678 17.409L8.09099 18.8232ZM11.1768 18.591L11.409 18.8232L12.8232 17.409L12.591 17.1768L11.1768 18.591ZM17.091 18.8232L17.3232 18.591L15.909 17.1768L15.6768 17.409L17.091 18.8232ZM20.1768 18.591L20.7929 19.2071L22.2071 17.7929L21.591 17.1768L20.1768 18.591ZM18.75 18C19.2851 18 19.7984 18.2126 20.1768 18.591L21.591 17.1768C20.8375 16.4233 19.8156 16 18.75 16V18ZM17.3232 18.591C17.7016 18.2126 18.2149 18 18.75 18V16C17.6844 16 16.6625 16.4233 15.909 17.1768L17.3232 18.591ZM14.25 20C15.3156 20 16.3375 19.5767 17.091 18.8232L15.6768 17.409C15.2984 17.7874 14.7851 18 14.25 18V20ZM11.409 18.8232C12.1625 19.5767 13.1844 20 14.25 20V18C13.7149 18 13.2016 17.7874 12.8232 17.409L11.409 18.8232ZM9.75 18C10.2851 18 10.7984 18.2126 11.1768 18.591L12.591 17.1768C11.8375 16.4233 10.8156 16 9.75 16V18ZM8.32322 18.591C8.70163 18.2126 9.21485 18 9.75 18V16C8.68442 16 7.66249 16.4233 6.90901 17.1768L8.32322 18.591ZM5.25 20C6.31558 20 7.33751 19.5767 8.09099 18.8232L6.67678 17.409C6.29837 17.7874 5.78515 18 5.25 18V20ZM2.40901 18.8232C3.16249 19.5767 4.18442 20 5.25 20V18C4.71486 18 4.20163 17.7874 3.82322 17.409L2.40901 18.8232ZM6 18.9895V7.5H4V18.9895H6ZM9 7.5V9H11V7.5H9ZM7.5 6C8.32843 6 9 6.67157 9 7.5H11C11 5.567 9.433 4 7.5 4V6ZM6 7.5C6 6.67157 6.67157 6 7.5 6V4C5.567 4 4 5.567 4 7.5H6ZM15 18.9895V7.5H13V18.9895H15ZM18 7.5V9H20V7.5H18ZM16.5 6C17.3284 6 18 6.67157 18 7.5H20C20 5.567 18.433 4 16.5 4V6ZM15 7.5C15 6.67157 15.6716 6 16.5 6V4C14.567 4 13 5.567 13 7.5H15ZM5 14H14V12H5V14Z" fill="black"/>
</svg>
