<svg width="24" height="24" viewBox="0 0 24 24" fill="none" xmlns="http://www.w3.org/2000/svg">
<path d="M13.6586 17C12.8349 19.3304 10.6124 21 8 21C4.68629 21 2 18.3137 2 15C2 11.8546 4.42023 9.27458 7.5 9.02051M22 19.5L20 20L18.2279 14.6838C18.0918 14.2754 17.7097 14 17.2792 14H12.7808C12.3219 14 11.9219 13.6877 11.8106 13.2425L10.5 8M11 10H17M11 4C11 4.55228 10.5523 5 10 5C9.44772 5 9 4.55228 9 4C9 3.44772 9.44772 3 10 3C10.5523 3 11 3.44772 11 4Z" stroke="black" stroke-width="2" stroke-linecap="round" stroke-linejoin="round"/>
</svg>
