<svg width="24" height="24" viewBox="0 0 24 24" fill="none" xmlns="http://www.w3.org/2000/svg">
<path opacity="0.14" d="M10.935 20.6243L5.13498 18.5772C4.36629 18.3059 3.98195 18.1703 3.69824 17.927C3.44766 17.7122 3.25414 17.4387 3.13495 17.1309C3 16.7824 3 16.3748 3 15.5597V8.4407C3 7.62555 3 7.21797 3.13495 6.86947C3.25414 6.56167 3.44766 6.28816 3.69824 6.07332C3.98195 5.83008 4.36629 5.69443 5.13498 5.42313L10.935 3.37607C11.3297 3.23677 11.527 3.16712 11.7294 3.13948C11.909 3.11496 12.091 3.11496 12.2706 3.13948C12.473 3.16712 12.6703 3.23677 13.065 3.37607L18.865 5.42313C19.6337 5.69443 20.018 5.83008 20.3018 6.07332C20.5523 6.28816 20.7459 6.56167 20.8651 6.86947C21 7.21797 21 7.62555 21 8.4407V15.5597C21 16.3748 21 16.7824 20.8651 17.1309C20.7459 17.4387 20.5523 17.7122 20.3018 17.927C20.018 18.1703 19.6337 18.3059 18.865 18.5772L13.065 20.6243C12.6703 20.7636 12.473 20.8332 12.2706 20.8609C12.091 20.8854 11.909 20.8854 11.7294 20.8609C11.527 20.8332 11.3297 20.7636 10.935 20.6243Z" fill="black"/>
<path d="M12 10.2307L3.08495 7.02334M12 10.2307L20.9178 7.03394M12 10.2307V20.879M5.13498 18.577L10.935 20.624C11.3297 20.7633 11.527 20.833 11.7294 20.8606C11.909 20.8852 12.091 20.8852 12.2706 20.8606C12.473 20.833 12.6703 20.7633 13.065 20.624L18.865 18.577C19.6337 18.3057 20.018 18.17 20.3018 17.9268C20.5523 17.712 20.7459 17.4384 20.8651 17.1306C21 16.7821 21 16.3746 21 15.5594V8.44046C21 7.6253 21 7.21773 20.8651 6.86923C20.7459 6.56143 20.5523 6.28791 20.3018 6.07308C20.018 5.82984 19.6337 5.69419 18.865 5.42289L13.065 3.37583C12.6703 3.23653 12.473 3.16688 12.2706 3.13924C12.091 3.11472 11.909 3.11472 11.7294 3.13924C11.527 3.16688 11.3297 3.23653 10.935 3.37583L5.13498 5.42289C4.36629 5.69419 3.98195 5.82984 3.69824 6.07308C3.44766 6.28791 3.25414 6.56143 3.13495 6.86923C3 7.21773 3 7.6253 3 8.44046V15.5594C3 16.3746 3 16.7821 3.13495 17.1306C3.25414 17.4384 3.44766 17.712 3.69824 17.9268C3.98195 18.17 4.36629 18.3057 5.13498 18.577Z" stroke="black" stroke-width="2" stroke-linecap="round" stroke-linejoin="round"/>
</svg>
