<svg width="24" height="24" viewBox="0 0 24 24" fill="none" xmlns="http://www.w3.org/2000/svg">
<path d="M17.6573 2.10042C17.2668 1.70989 16.6336 1.70989 16.2431 2.10042L14.1218 4.22174L16.2431 6.34306C16.6336 6.73358 16.6336 7.36675 16.2431 7.75727C15.8526 8.1478 15.2194 8.1478 14.8289 7.75727L12.7076 5.63595L11.2933 7.05016L13.4147 9.17149C13.8052 9.56201 13.8052 10.1952 13.4147 10.5857C13.0241 10.9762 12.391 10.9762 12.0004 10.5857L9.87913 8.46438L8.46491 9.87859L10.5862 11.9999C10.9768 12.3904 10.9768 13.0236 10.5862 13.4141C10.1957 13.8047 9.56255 13.8046 9.17202 13.4141L7.0507 11.2928L5.63649 12.707L7.75781 14.8283C8.14833 15.2189 8.14833 15.852 7.75781 16.2426C7.36728 16.6331 6.73412 16.6331 6.34359 16.2426L4.22227 14.1212L2.10095 16.2426C1.71043 16.6331 1.71043 17.2662 2.10095 17.6568L6.34359 21.8994C6.73412 22.2899 7.36728 22.2899 7.75781 21.8994L21.8999 7.75727C22.2905 7.36675 22.2905 6.73358 21.8999 6.34306L17.6573 2.10042Z" fill="black"/>
</svg>
