<svg width="24" height="24" viewBox="0 0 24 24" fill="none" xmlns="http://www.w3.org/2000/svg">
<path opacity="0.3" d="M7.91523 7.14269C9.46828 6.79852 11.1058 7.08113 12.6436 7.93388C13.2449 7.57939 13.8305 7.31033 14.4384 7.15431C15.2464 6.94694 16.0349 6.95392 16.8865 7.14265C17.8756 7.36183 18.792 7.88848 19.4908 8.74237C19.6677 8.95863 19.7462 9.23907 19.707 9.51575C19.6679 9.79243 19.5148 10.0401 19.2848 10.1988C18.8159 10.5223 18.4382 10.8507 18.1627 11.3169C17.89 11.7782 17.6691 12.4585 17.6695 13.5532C17.6697 13.9741 17.8958 14.501 18.3238 15.0673C18.7371 15.6141 19.2499 16.0797 19.6069 16.3524C19.9595 16.6218 20.0925 17.0913 19.9335 17.5055C19.4503 18.7641 18.7806 19.9232 17.9916 20.7458C17.2305 21.5394 16.1596 22.2095 14.9472 21.9408C14.8693 21.9236 14.7939 21.8971 14.7224 21.862C14.4821 21.7439 14.2856 21.6337 14.1315 21.5473L14.0578 21.5061C13.8881 21.4115 13.785 21.3584 13.679 21.3178C13.4907 21.2456 13.1925 21.1741 12.401 21.1741C11.8592 21.1741 11.5754 21.2725 11.2991 21.3945C11.2448 21.4185 11.1833 21.4477 11.1146 21.4802C10.8204 21.6196 10.3952 21.8211 9.8546 21.9409C9.03966 22.1214 8.27638 21.8705 7.65281 21.4591C7.03498 21.0515 6.48915 20.4487 6.02827 19.7683C5.10515 18.4057 4.39931 16.5494 4.12915 14.6852C3.82183 12.5647 4.07267 10.8367 4.77834 9.53776C5.49358 8.22122 6.63519 7.42636 7.91523 7.14269Z" fill="black"/>
<path d="M16.8321 3.55475C17.0612 3.211 17.0554 2.76171 16.8174 2.42401C16.5794 2.0863 16.1583 1.92971 15.7575 2.02991L15.5997 2.06924C14.7555 2.27949 14.0931 2.44447 13.5703 2.793C13.0248 3.15666 12.668 3.6933 12.2471 4.32636L12.1679 4.44535C11.9388 4.78911 11.9446 5.2384 12.1826 5.5761C12.4206 5.91381 12.8417 6.0704 13.2425 5.9702L13.4003 5.93087C14.2445 5.72062 14.9069 5.55564 15.4297 5.2071C15.9752 4.84344 16.332 4.30681 16.7529 3.67375L16.8321 3.55475Z" fill="black"/>
</svg>
