<svg width="24" height="24" viewBox="0 0 24 24" fill="none" xmlns="http://www.w3.org/2000/svg">
<path opacity="0.3" fill-rule="evenodd" clip-rule="evenodd" d="M8.26385 4.02618C8.692 3.94664 9.12269 4.05144 9.46505 4.29824C9.80363 4.54233 10.0246 4.90035 10.1129 5.2841L10.3113 6.13634C10.8697 6.04268 11.4339 5.997 11.9997 6.00021C12.5653 5.997 13.1292 6.04264 13.6874 6.13621L13.8852 5.28449C13.9734 4.90055 14.1944 4.54236 14.5332 4.2982C14.8755 4.05142 15.3062 3.94665 15.7343 4.02618L18.4426 4.52006C18.7724 4.57968 19.067 4.74258 19.2919 4.97089C19.5158 5.19822 19.6644 5.48157 19.7328 5.78049L21.957 15.4786C22.037 15.8374 22.0012 16.2172 21.8501 16.5566C21.6989 16.8964 21.4333 17.1906 21.0776 17.3641L16.0386 19.8356C15.8323 19.9382 15.6045 19.9955 15.37 19.9998C15.1333 20.0041 14.9014 19.9544 14.6896 19.8573C14.4783 19.7603 14.2948 19.6199 14.1471 19.4507C14.0057 19.2888 13.899 19.103 13.8288 18.906L13.2529 17.4269C12.8372 17.4778 12.4189 17.5023 11.9997 17.4999C11.5805 17.5023 11.1621 17.4778 10.7462 17.4269L10.1693 18.9063C10.0991 19.1032 9.99244 19.2888 9.85112 19.4507C9.70342 19.6198 9.51994 19.7603 9.3086 19.8572C9.09682 19.9544 8.86483 20.0041 8.62821 19.9998C8.3936 19.9955 8.16577 19.9382 7.95949 19.8356L2.9207 17.3639C2.56493 17.1904 2.29925 16.8961 2.14804 16.5563C1.99697 16.2168 1.96161 15.831 2.04156 15.4722L4.26508 5.78198C4.33341 5.48291 4.48222 5.19846 4.70625 4.97102C4.93116 4.74269 5.22406 4.58004 5.55395 4.52042L8.26385 4.02618ZM13.9997 12.0001C13.9997 11.4478 14.4474 11.0001 14.9997 11.0001H15.0087C15.561 11.0001 16.0087 11.4478 16.0087 12.0001C16.0087 12.5523 15.561 13.0001 15.0087 13.0001H14.9997C14.4474 13.0001 13.9997 12.5523 13.9997 12.0001ZM8.99972 11.0001C8.44743 11.0001 7.99972 11.4478 7.99972 12.0001C7.99972 12.5523 8.44743 13.0001 8.99972 13.0001H9.00872C9.561 13.0001 10.0087 12.5523 10.0087 12.0001C10.0087 11.4478 9.561 11.0001 9.00872 11.0001H8.99972Z" fill="black"/>
<path fill-rule="evenodd" clip-rule="evenodd" d="M8 12C8 11.4477 8.44772 11 9 11H9.009C9.56128 11 10.009 11.4477 10.009 12C10.009 12.5523 9.56128 13 9.009 13H9C8.44772 13 8 12.5523 8 12ZM14 12C14 11.4477 14.4477 11 15 11H15.009C15.5613 11 16.009 11.4477 16.009 12C16.009 12.5523 15.5613 13 15.009 13H15C14.4477 13 14 12.5523 14 12Z" fill="black"/>
</svg>
