<svg width="24" height="24" viewBox="0 0 24 24" fill="none" xmlns="http://www.w3.org/2000/svg">
<path opacity="0.3" d="M10.5 17.9995C10.5 17.1312 10.7767 16.3276 11.2467 15.6719C11.8756 15.8845 12.5493 15.9998 13.25 15.9998H15.75C16.4507 15.9998 17.1244 15.8845 17.7533 15.6719C18.2232 16.3275 18.4994 17.1313 18.4994 17.9995V20.9997C18.4994 21.552 18.0517 21.9997 17.4994 21.9997H11.5C10.9478 21.9997 10.5001 21.5521 10.5 20.9999V18.9999V17.9995Z" fill="black"/>
<path d="M11.8334 2.72978C10.9925 2.25165 10.0465 1.99977 9.08309 2C8.7204 2.00009 8.38618 2.19655 8.2097 2.51341C7.78781 3.27089 7.53585 4.1148 7.47056 4.9832C7.41765 5.68699 7.4883 6.39395 7.67822 7.07021C7.24061 7.88799 7.00707 8.80649 7.00003 9.74248L7 9.75C7 13.2018 9.79822 16 13.25 16H15.75C19.2018 16 22 13.2018 22 9.75L22 9.74248C21.9929 8.80649 21.7594 7.888 21.3218 7.07021C21.5117 6.39395 21.5824 5.68699 21.5294 4.9832C21.4641 4.1148 21.2122 3.27089 20.7903 2.51341C20.6138 2.19655 20.2796 2.00009 19.9169 2C18.9535 1.99977 18.0075 2.25165 17.1666 2.72978C16.4924 3.11313 15.9043 3.63138 15.4342 4.25H13.5658C13.0957 3.63137 12.5076 3.11313 11.8334 2.72978Z" fill="black"/>
<path d="M10.5 19.0001H8.64869C7.55405 19.0001 6.66667 18.1127 6.66667 17.018V16.7027C6.66667 14.6776 5.02504 13.036 3 13.036C2.44772 13.036 2 13.4837 2 14.036C2 14.5883 2.44772 15.036 3 15.036C3.92048 15.036 4.66667 15.7822 4.66667 16.7027V17.018C4.66667 19.2172 6.44948 21.0001 8.64869 21.0001H10.5V19.0001Z" fill="black"/>
</svg>
