<svg width="24" height="24" viewBox="0 0 24 24" fill="none" xmlns="http://www.w3.org/2000/svg">
<path d="M9.06892 6.0249L10.8634 9.33333L8.71963 13.2857H4.75781L9.06892 6.0249Z" fill="black"/>
<path d="M7.89541 19H16.1067L14.0921 15.2857H9.91007L7.89541 19Z" fill="black"/>
<path d="M13.1387 9.33333L15.2825 13.2857H19.2443L14.9332 6.0249L13.1387 9.33333Z" fill="black"/>
<path d="M10.9949 13.2857H13.0073L12.0011 11.4307L10.9949 13.2857Z" fill="black"/>
<path opacity="0.3" fill-rule="evenodd" clip-rule="evenodd" d="M9.10714 3C8.75424 3 8.42746 3.18601 8.24729 3.48946L2.14015 13.7752C1.95756 14.0827 1.9531 14.4643 2.12842 14.776L5.34271 20.4903C5.51983 20.8051 5.85301 21 6.21429 21H17.7857C18.147 21 18.4802 20.8051 18.6573 20.4903L21.8716 14.776C22.0469 14.4643 22.0424 14.0827 21.8599 13.7752L15.7527 3.48946C15.5725 3.18601 15.2458 3 14.8929 3H9.10714ZM7.89433 19H16.1057L14.091 15.2857H9.909L7.89433 19ZM10.8624 9.33333L9.06784 6.02491L4.75674 13.2857H8.71855L10.8624 9.33333ZM13.1376 9.33333L15.2814 13.2857H19.2433L14.9322 6.02491L13.1376 9.33333ZM13.0062 13.2857H10.9938L12 11.4307L13.0062 13.2857Z" fill="black"/>
</svg>
