<svg width="24" height="24" viewBox="0 0 24 24" fill="none" xmlns="http://www.w3.org/2000/svg">
<path opacity="0.3" d="M3.75 2C2.7835 2 2 2.7835 2 3.75V20.25C2 21.2165 2.7835 22 3.75 22H20.25C21.2165 22 22 21.2165 22 20.25V3.75C22 2.7835 21.2165 2 20.25 2H3.75Z" fill="black"/>
<path fill-rule="evenodd" clip-rule="evenodd" d="M7.99219 6C7.4399 6 6.99219 6.44772 6.99219 7C6.99219 7.55228 7.4399 8 7.99219 8H8.00219C8.55447 8 9.00219 7.55228 9.00219 7C9.00219 6.44772 8.55447 6 8.00219 6H7.99219ZM9.00219 9.99833C9.00127 9.44605 8.55281 8.99908 8.00052 9C7.44824 9.00092 7.00127 9.44938 7.00219 10.0017L7.01219 16.0017C7.01311 16.554 7.46157 17.0009 8.01385 17C8.56614 16.9991 9.01311 16.5506 9.01219 15.9983L9.00219 9.99833Z" fill="black"/>
<path d="M13.0022 12C13.0022 11.4477 13.4499 11 14.0022 11C14.2274 11 14.4351 11.0744 14.6022 11.2C14.845 11.3825 15.002 11.6729 15.002 12V16C15.002 16.5523 15.4497 17 16.002 17C16.5542 17 17.002 16.5523 17.002 16L17.0022 12L16.9977 11.9985L17.0022 11.9985C17.0014 10.3423 15.6585 9 14.0022 9C13.5391 9 13.1007 9.10548 12.7091 9.29289C12.5281 9.11193 12.2781 9 12.002 9C11.4497 9 11.002 9.44772 11.002 10L11.0022 12V16C11.0022 16.5523 11.4499 17 12.0022 17C12.5545 17 13.0022 16.5523 13.0022 16V12Z" fill="black"/>
</svg>
