<svg width="24" height="24" viewBox="0 0 24 24" fill="none" xmlns="http://www.w3.org/2000/svg">
<g opacity="0.3">
<path d="M22 3.00001C22 2.70439 21.8692 2.42392 21.6427 2.23392C21.4163 2.04392 21.1173 1.96385 20.8262 2.01522L13.3262 3.33875C12.8484 3.42308 12.5 3.8383 12.5 4.32354V10C12.5 10.5523 12.9477 11 13.5 11H21C21.5523 11 22 10.5523 22 10V3.00001Z" fill="black"/>
<path d="M3 13C2.44772 13 2 13.4477 2 14V18C2 18.4888 2.35341 18.906 2.8356 18.9864L9.3356 20.0697C9.62555 20.1181 9.92208 20.0364 10.1464 19.8464C10.3707 19.6564 10.5 19.3773 10.5 19.0833V14C10.5 13.4477 10.0523 13 9.5 13H3Z" fill="black"/>
</g>
<path d="M10.5 4.91651C10.5 4.62256 10.3707 4.34349 10.1464 4.15349C9.92208 3.96349 9.62555 3.88179 9.3356 3.93012L2.8356 5.01345C2.35341 5.09382 2 5.51101 2 5.99985V9.99984C2 10.5521 2.44772 10.9998 3 10.9998H9.5C10.0523 10.9998 10.5 10.5521 10.5 9.99984V4.91651Z" fill="black"/>
<path d="M13.5 12.9998C12.9477 12.9998 12.5 13.4476 12.5 13.9998V19.6763C12.5 20.1616 12.8484 20.5768 13.3262 20.6611L20.8262 21.9846C21.1173 22.036 21.4163 21.9559 21.6427 21.7659C21.8692 21.5759 22 21.2955 22 20.9998V13.9998C22 13.4476 21.5523 12.9998 21 12.9998H13.5Z" fill="black"/>
</svg>
