<svg width="24" height="24" viewBox="0 0 24 24" fill="none" xmlns="http://www.w3.org/2000/svg">
<path opacity="0.14" d="M5.5012 8.99984H4.6C4.03995 8.99984 3.75992 8.99984 3.54601 9.10883C3.35785 9.20471 3.20487 9.35769 3.10899 9.54585C3 9.75976 3 10.0398 3 10.5998V13.3998C3 13.9599 3 14.2399 3.10899 14.4538C3.20487 14.642 3.35785 14.795 3.54601 14.8908C3.75992 14.9998 4.03995 14.9998 4.6 14.9998H5.5012C6.05213 14.9998 6.32759 14.9998 6.58285 15.0685C6.80903 15.1294 7.02275 15.2295 7.21429 15.3643C7.43047 15.5164 7.60681 15.728 7.95951 16.1512L10.5854 19.3023C11.0211 19.8252 11.239 20.0866 11.4292 20.1138C11.594 20.1373 11.7597 20.0774 11.8712 19.9538C12 19.811 12 19.4708 12 18.7902V5.20948C12 4.52892 12 4.18864 11.8712 4.04592C11.7597 3.92233 11.594 3.86234 11.4292 3.8859C11.2389 3.9131 11.0211 4.17451 10.5854 4.69733L7.95951 7.84843C7.60681 8.27166 7.43047 8.48328 7.21429 8.63542C7.02275 8.77021 6.80903 8.87032 6.58285 8.93116C6.32759 8.99984 6.05213 8.99984 5.5012 8.99984Z" fill="black"/>
<path d="M16 12.0001H22M4.6 9.00009H5.5012C6.05213 9.00009 6.32759 9.00009 6.58285 8.93141C6.80903 8.87056 7.02275 8.77046 7.21429 8.63566C7.43047 8.48353 7.60681 8.27191 7.95951 7.84868L10.5854 4.69758C11.0211 4.17476 11.2389 3.91335 11.4292 3.88614C11.594 3.86258 11.7597 3.92258 11.8712 4.04617C12 4.18889 12 4.52917 12 5.20973V18.7904C12 19.471 12 19.8113 11.8712 19.954C11.7597 20.0776 11.594 20.1376 11.4292 20.114C11.239 20.0868 11.0211 19.8254 10.5854 19.3026L7.95951 16.1515C7.60681 15.7283 7.43047 15.5166 7.21429 15.3645C7.02275 15.2297 6.80903 15.1296 6.58285 15.0688C6.32759 15.0001 6.05213 15.0001 5.5012 15.0001H4.6C4.03995 15.0001 3.75992 15.0001 3.54601 14.8911C3.35785 14.7952 3.20487 14.6422 3.10899 14.4541C3 14.2402 3 13.9601 3 13.4001V10.6001C3 10.04 3 9.76001 3.10899 9.54609C3.20487 9.35793 3.35785 9.20495 3.54601 9.10908C3.75992 9.00009 4.03995 9.00009 4.6 9.00009Z" stroke="black" stroke-width="2" stroke-linecap="round" stroke-linejoin="round"/>
</svg>
