<svg width="24" height="24" viewBox="0 0 24 24" fill="none" xmlns="http://www.w3.org/2000/svg">
<path opacity="0.14" d="M7.5012 8.99984H6.6C6.03995 8.99984 5.75992 8.99984 5.54601 9.10883C5.35785 9.20471 5.20487 9.35769 5.10899 9.54585C5 9.75976 5 10.0398 5 10.5998V13.3998C5 13.9599 5 14.2399 5.10899 14.4538C5.20487 14.642 5.35785 14.795 5.54601 14.8908C5.75992 14.9998 6.03995 14.9998 6.6 14.9998H7.5012C8.05213 14.9998 8.32759 14.9998 8.58285 15.0685C8.80903 15.1294 9.02275 15.2295 9.21429 15.3643C9.43047 15.5164 9.60681 15.728 9.95951 16.1512L12.5854 19.3023C13.0211 19.8252 13.239 20.0866 13.4292 20.1138C13.594 20.1373 13.7597 20.0774 13.8712 19.9538C14 19.811 14 19.4708 14 18.7902V5.20948C14 4.52892 14 4.18864 13.8712 4.04592C13.7597 3.92233 13.594 3.86234 13.4292 3.8859C13.2389 3.9131 13.0211 4.17451 12.5854 4.69733L9.95951 7.84843C9.60681 8.27166 9.43047 8.48328 9.21429 8.63542C9.02275 8.77021 8.80903 8.87032 8.58285 8.93116C8.32759 8.99984 8.05213 8.99984 7.5012 8.99984Z" fill="black"/>
<path d="M18 9.00009C18.6277 9.83575 18.9996 10.8745 18.9996 12.0001C18.9996 13.1257 18.6277 14.1644 18 15.0001M6.6 9.00009H7.5012C8.05213 9.00009 8.32759 9.00009 8.58285 8.93141C8.80903 8.87056 9.02275 8.77046 9.21429 8.63566C9.43047 8.48353 9.60681 8.27191 9.95951 7.84868L12.5854 4.69758C13.0211 4.17476 13.2389 3.91335 13.4292 3.88614C13.594 3.86258 13.7597 3.92258 13.8712 4.04617C14 4.18889 14 4.52917 14 5.20973V18.7904C14 19.471 14 19.8113 13.8712 19.954C13.7597 20.0776 13.594 20.1376 13.4292 20.114C13.239 20.0868 13.0211 19.8254 12.5854 19.3026L9.95951 16.1515C9.60681 15.7283 9.43047 15.5166 9.21429 15.3645C9.02275 15.2297 8.80903 15.1296 8.58285 15.0688C8.32759 15.0001 8.05213 15.0001 7.5012 15.0001H6.6C6.03995 15.0001 5.75992 15.0001 5.54601 14.8911C5.35785 14.7952 5.20487 14.6422 5.10899 14.4541C5 14.2402 5 13.9601 5 13.4001V10.6001C5 10.04 5 9.76001 5.10899 9.54609C5.20487 9.35793 5.35785 9.20495 5.54601 9.10908C5.75992 9.00009 6.03995 9.00009 6.6 9.00009Z" stroke="black" stroke-width="2" stroke-linecap="round" stroke-linejoin="round"/>
</svg>
