<svg width="24" height="24" viewBox="0 0 24 24" fill="none" xmlns="http://www.w3.org/2000/svg">
<path opacity="0.3" fill-rule="evenodd" clip-rule="evenodd" d="M8.16146 3H14C14.5523 3 15 3.44772 15 4C15 4.55229 14.5523 5 14 5H8.2C7.62345 5 7.25117 5.00078 6.96784 5.02393C6.69617 5.04613 6.59546 5.0838 6.54601 5.109C6.35785 5.20487 6.20487 5.35785 6.109 5.54601C6.0838 5.59546 6.04612 5.69618 6.02393 5.96784C6.00355 6.21729 6.00051 6.53567 6.00007 7.0017C6.24378 7 6.50932 7 6.8 7H12.2C13.8802 7 14.7202 7 15.362 7.32698C15.9265 7.6146 16.3854 8.07354 16.673 8.63803C17 9.27977 17 10.1198 17 11.8V16.2C17 17.8802 17 18.7202 16.673 19.362C16.3854 19.9265 15.9265 20.3854 15.362 20.673C14.7202 21 13.8802 21 12.2 21H6.8C5.11984 21 4.27976 21 3.63803 20.673C3.07354 20.3854 2.6146 19.9265 2.32698 19.362C2 18.7202 2 17.8802 2 16.2V11.8C2 10.1198 2 9.27977 2.32698 8.63803C2.6146 8.07354 3.07354 7.6146 3.63803 7.32698C3.75133 7.26925 3.87081 7.22172 4 7.18257V7.16146C3.99998 6.63431 3.99997 6.17955 4.03057 5.80498C4.06287 5.40963 4.13419 5.01641 4.32698 4.63803C4.6146 4.07355 5.07354 3.6146 5.63803 3.32698C6.01641 3.13419 6.40963 3.06287 6.80497 3.03057C7.17953 2.99997 7.63434 2.99998 8.16146 3Z" fill="black"/>
<path d="M18.752 9.03011L19.552 8.53011C20.351 8.03075 20.7505 7.78107 21.0801 7.80757C21.3675 7.83068 21.6309 7.97667 21.8028 8.20811C22 8.47362 22 8.94472 22 9.88691V18.1133C22 19.0555 22 19.5266 21.8028 19.7921C21.6309 20.0235 21.3675 20.1695 21.0801 20.1926C20.7505 20.2191 20.351 19.9695 19.552 19.4701L18.752 18.9701C18.4775 18.7985 18.3402 18.7128 18.2407 18.5966C18.1526 18.4938 18.0862 18.3741 18.0458 18.2449C18 18.0989 18 17.937 18 17.6133V10.3869C18 10.0632 18 9.90135 18.0458 9.75534C18.0862 9.62612 18.1526 9.50646 18.2407 9.40363C18.3403 9.28745 18.4775 9.20167 18.752 9.03011Z" fill="black"/>
<path d="M5 11.0001C5 10.4478 5.44772 10.0001 6 10.0001H13C13.5523 10.0001 14 10.4478 14 11.0001C14 11.5524 13.5523 12.0001 13 12.0001H6C5.44772 12.0001 5 11.5524 5 11.0001Z" fill="black"/>
</svg>
