<svg width="24" height="24" viewBox="0 0 24 24" fill="none" xmlns="http://www.w3.org/2000/svg">
<g opacity="0.3">
<path d="M15.4658 14.8278L17.546 15.8679C17.7469 15.9684 17.945 16.0674 18.1208 16.139C18.3157 16.2183 18.5517 16.2937 18.8286 16.3019C19.2169 16.3134 19.6001 16.2117 19.9315 16.009C20.1678 15.8645 20.3353 15.682 20.4652 15.5164C20.5823 15.3671 20.7051 15.1828 20.8296 14.996L21.0762 14.6261C21.2334 14.3904 21.3844 14.1638 21.4948 13.9631C21.6145 13.7454 21.7372 13.471 21.7637 13.1386C21.7999 12.6836 21.6794 12.2299 21.4222 11.8529C21.2344 11.5774 20.9917 11.4 20.7797 11.2704C20.6598 11.1971 20.5219 11.1229 20.3747 11.0474C19.4883 11.7304 18.4822 12.5054 17.4575 13.2945C16.7931 13.8062 16.1199 14.3244 15.4658 14.8278Z" fill="black"/>
<path d="M6.67366 16.2068L7.98906 12.5895L9.78978 13.4898L8.55325 16.8903L8.52424 16.9708C8.4198 17.2618 8.28872 17.627 8.03973 17.9136C7.82492 18.1608 7.55269 18.3515 7.24694 18.4689C6.89255 18.605 6.50451 18.6033 6.19534 18.602L6.10979 18.6018H4.23047V19.6018C4.23047 20.1541 3.78275 20.6018 3.23047 20.6018C2.67818 20.6018 2.23047 20.1541 2.23047 19.6018V15.6018C2.23047 15.0495 2.67818 14.6018 3.23047 14.6018C3.78275 14.6018 4.23047 15.0495 4.23047 15.6018V16.6018H6.10979C6.32493 16.6018 6.43704 16.6013 6.51804 16.5958L6.52546 16.5952L6.52849 16.5884C6.56133 16.5142 6.60014 16.409 6.67366 16.2068Z" fill="black"/>
</g>
<path d="M6.00831 2.7532C6.34954 2.52688 6.75202 2.41074 7.16138 2.42049C7.45533 2.42749 7.70524 2.51074 7.90978 2.59746C8.09529 2.6761 8.30481 2.78545 8.51893 2.8972L16.4778 7.04966C16.8203 7.22831 17.1354 7.39268 17.3794 7.54977C17.6315 7.71212 17.9366 7.94449 18.1304 8.31249C18.3845 8.795 18.4306 9.36036 18.2579 9.87765C18.1263 10.2722 17.8629 10.5509 17.6403 10.7519C17.6403 10.7519 14.9131 12.8251 13.5613 13.8443C13.3411 14.0108 13.0643 14.22 12.7378 14.3251C12.4556 14.4159 12.1567 14.4429 11.8628 14.404C11.5227 14.359 11.213 14.2027 10.9666 14.0783L10.899 14.0443C8.08246 12.636 11.902 14.5458 4.28007 10.7349C4.04038 10.615 3.80856 10.4992 3.62139 10.3851C3.41709 10.2606 3.1848 10.0917 3.00012 9.83117C2.74569 9.4722 2.61674 9.03935 2.63324 8.59967C2.64522 8.28052 2.7472 8.01202 2.85007 7.79603C2.94432 7.59815 3.07494 7.3743 3.20998 7.14286L5.1134 3.87985C5.23507 3.67122 5.35413 3.46706 5.46923 3.30167C5.59613 3.11932 5.76327 2.91573 6.00831 2.7532Z" fill="black"/>
</svg>
