<svg width="24" height="24" viewBox="0 0 24 24" fill="none" xmlns="http://www.w3.org/2000/svg">
<g opacity="0.3">
<path d="M20.6001 4.80006C21.0419 4.46869 21.1314 3.84189 20.8001 3.40006C20.4687 2.95823 19.8419 2.86869 19.4001 3.20006L11.4001 9.20006C10.9582 9.53143 10.8687 10.1582 11.2001 10.6001C11.5314 11.0419 12.1582 11.1314 12.6001 10.8001L20.6001 4.80006Z" fill="black"/>
<path d="M8 20.6069C7.28658 20.4591 6.61554 20.2723 6 20.0506V15.9376C6 15.3853 6.44772 14.9376 7 14.9376C7.55228 14.9376 8 15.3853 8 15.9376V20.6069Z" fill="black"/>
<path d="M13 20.9768C12.6706 20.9922 12.337 21.0001 12 21.0001C11.663 21.0001 11.3294 20.9922 11 20.9768V16.7131C11 16.1608 11.4477 15.7131 12 15.7131C12.5523 15.7131 13 16.1608 13 16.7131V20.9768Z" fill="black"/>
<path d="M16 20.6069C16.7134 20.4591 17.3845 20.2723 18 20.0506V15.9376C18 15.3853 17.5523 14.9376 17 14.9376C16.4477 14.9376 16 15.3853 16 15.9376V20.6069Z" fill="black"/>
</g>
<path d="M16.3683 5.47379C15.0432 5.16783 13.5572 5 12 5C9.40829 5 7.01386 5.46489 5.2299 6.25776C4.33918 6.65364 3.55645 7.15092 2.98287 7.75363C2.40438 8.3615 2 9.12233 2 10V16C2 16.8777 2.40438 17.6385 2.98287 18.2464C3.55645 18.8491 4.33918 19.3464 5.2299 19.7422C5.4754 19.8513 5.73246 19.9542 6 20.0506V15.9375C6 15.3852 6.44772 14.9375 7 14.9375C7.55228 14.9375 8 15.3852 8 15.9375V20.6068C8.93682 20.8008 9.94672 20.9274 11 20.9767V16.713C11 16.1607 11.4477 15.713 12 15.713C12.5523 15.713 13 16.1607 13 16.713V20.9767C14.0533 20.9274 15.0632 20.8008 16 20.6068V15.9375C16 15.3852 16.4477 14.9375 17 14.9375C17.5523 14.9375 18 15.3852 18 15.9375V20.0506C18.2675 19.9542 18.5246 19.8513 18.7701 19.7422C19.6608 19.3464 20.4435 18.8491 21.0171 18.2464C21.5956 17.6385 22 16.8777 22 16V10C22 9.12233 21.5956 8.3615 21.0171 7.75363C20.4435 7.15092 19.6608 6.65364 18.7701 6.25776C18.7463 6.24719 18.7224 6.23668 18.6984 6.22622L16.7927 7.65551C17.2142 7.78398 17.6042 7.92822 17.9578 8.08538C18.6958 8.41337 19.2311 8.77801 19.5683 9.1324C19.9007 9.48164 20 9.7731 20 10C20 10.2269 19.9007 10.5184 19.5683 10.8676C19.2311 11.222 18.6958 11.5866 17.9578 11.9146C16.4844 12.5695 14.3789 13 12 13C9.62114 13 7.51558 12.5695 6.04218 11.9146C5.30422 11.5866 4.76892 11.222 4.43166 10.8676C4.0993 10.5184 4 10.2269 4 10C4 9.7731 4.0993 9.48164 4.43166 9.1324C4.76892 8.77801 5.30422 8.41337 6.04218 8.08538C7.51558 7.43054 9.62114 7 12 7C12.7543 7 13.4811 7.04329 14.169 7.12329L16.3683 5.47379Z" fill="black"/>
</svg>
