<svg width="24" height="24" viewBox="0 0 24 24" fill="none" xmlns="http://www.w3.org/2000/svg">
<path d="M20 11C20 15.1966 17.2934 18.6386 12.7372 20.6872C12.2688 20.8978 11.7312 20.8978 11.2628 20.6872C6.70658 18.6386 4 15.1966 4 11C4 6.58172 7.58172 3 12 3C16.4183 3 20 6.58172 20 11Z" stroke="black" stroke-width="2" stroke-linecap="round" stroke-linejoin="round"/>
<path d="M14.2773 10.898L14.1511 11.7491L15.9033 11.4401C16.3272 11.3654 16.6557 11.0278 16.7188 10.602L16.845 9.75094L15.0928 10.0599C14.6689 10.1346 14.3404 10.4722 14.2773 10.898Z" stroke="black" stroke-width="2" stroke-linecap="round" stroke-linejoin="round"/>
<path d="M7.2773 10.602L7.1511 9.75091L8.90331 10.0599C9.3272 10.1346 9.6557 10.4722 9.71884 10.898L9.84505 11.7491L8.09284 11.4401C7.66895 11.3654 7.34044 11.0278 7.2773 10.602Z" stroke="black" stroke-width="2" stroke-linecap="round" stroke-linejoin="round"/>
</svg>
