<svg width="24" height="24" viewBox="0 0 24 24" fill="none" xmlns="http://www.w3.org/2000/svg">
<path d="M14.9537 18.9498L15.6608 19.6569L14.9537 18.9498ZM5.05416 18.9498L4.34705 19.6569H4.34705L5.05416 18.9498ZM5.05416 9.05028L5.76127 9.75739L5.05416 9.05028ZM14 3H15C15 2.64866 14.8156 2.32309 14.5143 2.1424C14.213 1.9617 13.839 1.95238 13.529 2.11785L14 3ZM14 6H13C13 6.33568 13.1684 6.64897 13.4484 6.83412C13.7284 7.01928 14.0826 7.0516 14.3915 6.92017L14 6ZM21.0508 3.00001L21.9675 3.39954C22.1311 3.0241 22.0493 2.58685 21.761 2.29599C21.4726 2.00514 21.0361 1.9195 20.6593 2.07984L21.0508 3.00001ZM21.0508 9.99999L21.9303 10.4759C22.098 10.166 22.0902 9.79074 21.9098 9.48808C21.7295 9.18541 21.4031 8.99999 21.0508 8.99999L21.0508 9.99999ZM18 10L17.0833 9.60047C16.9485 9.90961 16.9787 10.2658 17.1635 10.5479C17.3483 10.83 17.6628 11 18 11L18 10ZM10 12C9.44772 12 9 12.4477 9 13C9 13.5523 9.44772 14 10 14V12ZM10.009 14C10.5613 14 11.009 13.5523 11.009 13C11.009 12.4477 10.5613 12 10.009 12V14ZM14.2465 18.2427C11.9034 20.5858 8.10441 20.5858 5.76127 18.2427L4.34705 19.6569C7.47125 22.7811 12.5366 22.7811 15.6608 19.6569L14.2465 18.2427ZM5.76127 18.2427C3.41812 15.8995 3.41812 12.1005 5.76127 9.75739L4.34705 8.34318C1.22286 11.4674 1.22286 16.5327 4.34705 19.6569L5.76127 18.2427ZM5.76127 9.75739C7.03839 8.48027 9.18617 7.01968 11.0779 5.8507C12.0117 5.27365 12.8621 4.78031 13.479 4.4313C13.7873 4.25692 14.0367 4.11888 14.2084 4.02477C14.2942 3.97772 14.3606 3.94168 14.4051 3.91759C14.4274 3.90554 14.4442 3.89649 14.4553 3.89054C14.4609 3.88757 14.4649 3.88537 14.4676 3.88397C14.4689 3.88327 14.4698 3.88276 14.4704 3.88246C14.4707 3.88231 14.4709 3.88221 14.471 3.88215C14.471 3.88213 14.471 3.88213 14.471 3.88211C14.471 3.88213 14.471 3.88215 14 3C13.529 2.11785 13.5289 2.1179 13.5288 2.11796C13.5288 2.118 13.5286 2.11807 13.5285 2.11815C13.5282 2.1183 13.5278 2.1185 13.5273 2.11875C13.5264 2.11925 13.5251 2.11996 13.5234 2.12086C13.52 2.12267 13.5152 2.12527 13.5089 2.12865C13.4963 2.13542 13.4779 2.14533 13.454 2.15824C13.4062 2.18407 13.3365 2.22195 13.2471 2.27093C13.0684 2.36888 12.8111 2.5113 12.4942 2.69057C11.8609 3.04885 10.9875 3.55552 10.0265 4.14933C8.12874 5.32207 5.8036 6.88663 4.34705 8.34318L5.76127 9.75739ZM13 3V6H15V3H13ZM14.3915 6.92017L21.4423 3.92018L20.6593 2.07984L13.6085 5.07983L14.3915 6.92017ZM15.6608 19.6569C17.1157 18.2019 18.6915 15.8775 19.8758 13.979C20.4753 13.0179 20.9878 12.1442 21.3504 11.5108C21.5318 11.1938 21.6761 10.9365 21.7753 10.7577C21.8249 10.6684 21.8632 10.5986 21.8894 10.5508C21.9025 10.527 21.9125 10.5086 21.9194 10.496C21.9228 10.4897 21.9254 10.4848 21.9272 10.4815C21.9282 10.4798 21.9289 10.4785 21.9294 10.4776C21.9296 10.4771 21.9298 10.4767 21.93 10.4764C21.9301 10.4763 21.9301 10.4762 21.9302 10.4761C21.9302 10.476 21.9303 10.4759 21.0508 9.99999C20.1713 9.5241 20.1713 9.52406 20.1713 9.52404C20.1713 9.52406 20.1713 9.52407 20.1713 9.52412C20.1712 9.52422 20.1711 9.52441 20.171 9.5247C20.1706 9.52527 20.1701 9.52622 20.1694 9.52753C20.168 9.53017 20.1658 9.53427 20.1627 9.53982C20.1567 9.55092 20.1475 9.56777 20.1353 9.59009C20.1108 9.63472 20.0743 9.70118 20.0266 9.78711C19.9312 9.95901 19.7913 10.2087 19.6147 10.5172C19.2612 11.1347 18.7619 11.9859 18.1789 12.9205C16.998 14.8135 15.5252 16.964 14.2465 18.2427L15.6608 19.6569ZM21.0508 8.99999L18 9L18 11L21.0508 11L21.0508 8.99999ZM18.9167 10.3995L21.9675 3.39954L20.1341 2.60048L17.0833 9.60047L18.9167 10.3995ZM13 13.5C13 14.8807 11.8807 16 10.5 16V18C12.9853 18 15 15.9853 15 13.5H13ZM10.5 16C9.11929 16 8 14.8807 8 13.5H6C6 15.9853 8.01472 18 10.5 18V16ZM8 13.5C8 12.1193 9.11929 11 10.5 11V9C8.01472 9 6 11.0147 6 13.5H8ZM10.5 11C11.8807 11 13 12.1193 13 13.5H15C15 11.0147 12.9853 9 10.5 9V11ZM10 14H10.009V12H10V14Z" fill="black"/>
</svg>
