<svg width="24" height="24" viewBox="0 0 24 24" fill="none" xmlns="http://www.w3.org/2000/svg">
<path d="M15.5 21L14.8492 21.7593C15.1159 21.9879 15.483 22.0598 15.8162 21.9487C16.1495 21.8376 16.4 21.5598 16.4762 21.2169L15.5 21ZM12 18L12.6508 17.2407C12.2763 16.9198 11.7237 16.9198 11.3492 17.2407L12 18ZM8.5 21L7.52381 21.2169C7.60001 21.5598 7.85053 21.8376 8.18377 21.9487C8.51701 22.0598 8.88409 21.9879 9.15079 21.7593L8.5 21ZM7.5 16.5L8.47619 16.2831C8.39196 15.904 8.09595 15.608 7.71693 15.5238L7.5 16.5ZM3 15.5L2.24074 14.8492C2.01214 15.1159 1.94024 15.483 2.05132 15.8162C2.1624 16.1495 2.44017 16.4 2.78307 16.4762L3 15.5ZM6 12L6.75926 12.6508C7.08025 12.2763 7.08025 11.7237 6.75926 11.3492L6 12ZM3 8.5L2.78307 7.52381C2.44017 7.60001 2.1624 7.85053 2.05132 8.18377C1.94024 8.51701 2.01214 8.88409 2.24074 9.15079L3 8.5ZM7.5 7.5L7.71693 8.47619C8.09595 8.39196 8.39196 8.09595 8.47619 7.71693L7.5 7.5ZM8.5 3L9.15079 2.24074C8.88409 2.01214 8.51701 1.94024 8.18377 2.05132C7.85053 2.1624 7.60001 2.44017 7.52381 2.78307L8.5 3ZM12 6L11.3492 6.75926C11.7237 7.08025 12.2763 7.08025 12.6508 6.75926L12 6ZM15.5 3L16.4762 2.78307C16.4 2.44017 16.1495 2.1624 15.8162 2.05132C15.483 1.94024 15.1159 2.01214 14.8492 2.24074L15.5 3ZM16.5 7.5L15.5238 7.71693C15.608 8.09595 15.904 8.39196 16.2831 8.47619L16.5 7.5ZM21 8.5L21.7593 9.15079C21.9879 8.88409 22.0598 8.51701 21.9487 8.18377C21.8376 7.85053 21.5598 7.60001 21.2169 7.52381L21 8.5ZM18 12L17.2407 11.3492C16.9198 11.7237 16.9198 12.2763 17.2407 12.6508L18 12ZM21 15.5L21.2169 16.4762C21.5598 16.4 21.8376 16.1495 21.9487 15.8162C22.0598 15.483 21.9879 15.1159 21.7593 14.8492L21 15.5ZM16.5 16.5L16.2831 15.5238C15.904 15.608 15.608 15.904 15.5238 16.2831L16.5 16.5ZM10.8408 14.0303L10.1337 14.7374H10.1337L10.8408 14.0303ZM10.8408 9.97077L11.5479 10.6779L10.8408 9.97077ZM13.6054 10.2796C14.1135 10.4962 14.7009 10.26 14.9176 9.75199C15.1342 9.24397 14.898 8.65652 14.39 8.43988L13.6054 10.2796ZM14.3931 15.5599C14.9009 15.3428 15.1366 14.7552 14.9195 14.2473C14.7024 13.7395 14.1148 13.5038 13.6069 13.7209L14.3931 15.5599ZM13.0961 14.0303L12.389 14.7374V14.7374L13.0961 14.0303ZM13.0961 9.97072L13.8032 10.6778L13.0961 9.97072ZM14.3877 10.281C14.8953 10.0633 15.1304 9.47541 14.9128 8.96781C14.6951 8.46021 14.1072 8.22514 13.5996 8.44277L14.3877 10.281ZM13.6058 15.5609C14.1138 15.7776 14.7013 15.5415 14.918 15.0335C15.1348 14.5256 14.8987 13.9381 14.3907 13.7213L13.6058 15.5609ZM16.1508 20.2407L12.6508 17.2407L11.3492 18.7593L14.8492 21.7593L16.1508 20.2407ZM11.3492 17.2407L7.84921 20.2407L9.15079 21.7593L12.6508 18.7593L11.3492 17.2407ZM9.47619 20.7831L8.47619 16.2831L6.52381 16.7169L7.52381 21.2169L9.47619 20.7831ZM7.71693 15.5238L3.21693 14.5238L2.78307 16.4762L7.28307 17.4762L7.71693 15.5238ZM3.75926 16.1508L6.75926 12.6508L5.24074 11.3492L2.24074 14.8492L3.75926 16.1508ZM6.75926 11.3492L3.75926 7.84921L2.24074 9.15079L5.24074 12.6508L6.75926 11.3492ZM3.21693 9.47619L7.71693 8.47619L7.28307 6.52381L2.78307 7.52381L3.21693 9.47619ZM8.47619 7.71693L9.47619 3.21693L7.52381 2.78307L6.52381 7.28307L8.47619 7.71693ZM7.84921 3.75926L11.3492 6.75926L12.6508 5.24074L9.15079 2.24074L7.84921 3.75926ZM12.6508 6.75926L16.1508 3.75926L14.8492 2.24074L11.3492 5.24074L12.6508 6.75926ZM14.5238 3.21693L15.5238 7.71693L17.4762 7.28307L16.4762 2.78307L14.5238 3.21693ZM16.2831 8.47619L20.7831 9.47619L21.2169 7.52381L16.7169 6.52381L16.2831 8.47619ZM20.2407 7.84921L17.2407 11.3492L18.7593 12.6508L21.7593 9.15079L20.2407 7.84921ZM17.2407 12.6508L20.2407 16.1508L21.7593 14.8492L18.7593 11.3492L17.2407 12.6508ZM20.7831 14.5238L16.2831 15.5238L16.7169 17.4762L21.2169 16.4762L20.7831 14.5238ZM15.5238 16.2831L14.5238 20.7831L16.4762 21.2169L17.4762 16.7169L15.5238 16.2831ZM11.5479 13.3232C10.8174 12.5927 10.8174 11.4084 11.5479 10.6779L10.1337 9.26366C8.62211 10.7752 8.62211 13.2259 10.1337 14.7374L11.5479 13.3232ZM11.5479 10.6779C12.1029 10.1228 12.9219 9.9881 13.6054 10.2796L14.39 8.43988C12.9811 7.83909 11.2856 8.11172 10.1337 9.26366L11.5479 10.6779ZM13.6069 13.7209C12.9231 14.0132 12.1033 13.8787 11.5479 13.3232L10.1337 14.7374C11.2864 15.8902 12.9836 16.1624 14.3931 15.5599L13.6069 13.7209ZM13.8032 13.3232C13.0727 12.5927 13.0727 11.4083 13.8032 10.6778L12.389 9.26362C10.8775 10.7752 10.8775 13.2259 12.389 14.7374L13.8032 13.3232ZM13.8032 10.6778C13.978 10.5031 14.1766 10.3714 14.3877 10.281L13.5996 8.44277C13.1587 8.63182 12.7466 8.90607 12.389 9.26362L13.8032 10.6778ZM14.3907 13.7213C14.1785 13.6308 13.9788 13.4987 13.8032 13.3232L12.389 14.7374C12.7482 15.0966 13.1625 15.3718 13.6058 15.5609L14.3907 13.7213Z" fill="black"/>
</svg>
