<svg width="24" height="24" viewBox="0 0 24 24" fill="none" xmlns="http://www.w3.org/2000/svg">
<path d="M4.62426 13.1996L4.02426 13.9996H4.02426L4.62426 13.1996ZM5.9576 14.1996L6.5576 13.3996L6.5576 13.3996L5.9576 14.1996ZM6.8576 16.2496L6.41038 17.1441L6.41038 17.1441L6.8576 16.2496ZM7.04088 16.3413L7.48809 15.4469L7.48809 15.4469L7.04088 16.3413ZM9.69924 17.3164L10.5937 17.7636H10.5937L9.69924 17.3164ZM10.752 15.2108L11.6465 15.658V15.658L10.752 15.2108ZM8.0812 12.4469L8.97563 11.9996L8.97563 11.9996L8.0812 12.4469ZM8.05842 12.4013L8.95285 11.9541L8.95285 11.9541L8.05842 12.4013ZM8.02437 11.5827L8.95285 11.9541V11.9541L8.02437 11.5827ZM8.78607 9.67845L9.71455 10.0498L9.71455 10.0498L8.78607 9.67845ZM8.8576 7.0014H9.8576C9.8576 6.73274 9.74949 6.47538 9.55764 6.28731C9.3658 6.09923 9.10634 5.99626 8.83773 6.0016L8.8576 7.0014ZM2.07031 12.9996L1.0804 12.858C1.03933 13.145 1.12485 13.4357 1.31478 13.6548C1.50472 13.8738 1.78038 13.9996 2.07031 13.9996V12.9996ZM21 5C21 5.55228 20.5523 6 20 6V8C21.6569 8 23 6.65685 23 5H21ZM20 6C19.4477 6 19 5.55228 19 5H17C17 6.65685 18.3431 8 20 8V6ZM19 5C19 4.44772 19.4477 4 20 4V2C18.3431 2 17 3.34315 17 5H19ZM20 4C20.5523 4 21 4.44772 21 5H23C23 3.34315 21.6569 2 20 2V4ZM15 14C15 17.3137 12.3137 20 9 20V22C13.4183 22 17 18.4183 17 14H15ZM9 20C5.68629 20 3 17.3137 3 14H1C1 18.4183 4.58172 22 9 22V20ZM3 14C3 10.6863 5.68629 8 9 8V6C4.58172 6 1 9.58172 1 14H3ZM9 8C12.3137 8 15 10.6863 15 14H17C17 9.58172 13.4183 6 9 6V8ZM4.02426 13.9996L5.3576 14.9996L6.5576 13.3996L5.22426 12.3996L4.02426 13.9996ZM5.3576 14.9996V15.4406H7.3576V14.9996H5.3576ZM6.41038 17.1441L6.59367 17.2357L7.48809 15.4469L7.30481 15.3552L6.41038 17.1441ZM8.50349 18.9996H8.59366V16.9996H8.50349V18.9996ZM10.5937 17.7636L11.6465 15.658L9.8576 14.7636L8.80481 16.8691L10.5937 17.7636ZM11.8576 14.7636V13.9996H9.8576V14.7636H11.8576ZM9.8576 11.9996H8.97563V13.9996H9.8576V11.9996ZM8.97563 11.9996L8.95285 11.9541L7.164 12.8485L7.18678 12.8941L8.97563 11.9996ZM8.95285 11.9541L9.71455 10.0498L7.85759 9.30706L7.0959 11.2113L8.95285 11.9541ZM9.8576 9.30706V7.0014H7.8576V9.30706H9.8576ZM2.07031 13.9996H4.02426V11.9996H2.07031V13.9996ZM3.06023 13.1413C3.47053 10.2739 5.91088 8.06014 8.87746 8.00121L8.83773 6.0016C4.87929 6.08024 1.62782 9.03231 1.0804 12.858L3.06023 13.1413ZM9.71455 10.0498C9.80904 9.81361 9.8576 9.56151 9.8576 9.30706H7.8576L7.85759 9.30706L9.71455 10.0498ZM8.95285 11.9541V11.9541L7.0959 11.2113C6.88373 11.7417 6.90851 12.3376 7.164 12.8485L8.95285 11.9541ZM8.97563 11.9996L8.97563 11.9996L7.18677 12.8941C7.52556 13.5716 8.21809 13.9996 8.97563 13.9996V11.9996ZM11.8576 13.9996C11.8576 12.8951 10.9622 11.9996 9.8576 11.9996V13.9996H11.8576ZM11.6465 15.658C11.7853 15.3803 11.8576 15.0741 11.8576 14.7636H9.8576V14.7636L11.6465 15.658ZM8.59366 18.9996C9.44063 18.9996 10.2149 18.5211 10.5937 17.7636L8.80481 16.8691C8.76482 16.9491 8.68308 16.9996 8.59366 16.9996V18.9996ZM6.3576 16.8537C6.3576 18.0389 7.31835 18.9996 8.50349 18.9996V16.9996C8.42292 16.9996 8.3576 16.9343 8.3576 16.8537H6.3576ZM6.59366 17.2357C6.44899 17.1634 6.3576 17.0155 6.3576 16.8537H8.3576C8.3576 16.258 8.02098 15.7133 7.48809 15.4469L6.59366 17.2357ZM5.3576 15.4406C5.3576 16.162 5.76516 16.8215 6.41038 17.1441L7.30481 15.3552C7.33716 15.3714 7.3576 15.4045 7.3576 15.4406H5.3576ZM5.3576 14.9996L5.3576 14.9996H7.3576C7.3576 14.3701 7.06121 13.7774 6.5576 13.3996L5.3576 14.9996ZM5.22426 12.3996C4.87807 12.14 4.457 11.9996 4.02426 11.9996V13.9996V13.9996L5.22426 12.3996Z" fill="black"/>
</svg>
