<svg width="24" height="24" viewBox="0 0 24 24" fill="none" xmlns="http://www.w3.org/2000/svg">
<path d="M22 12C22 11.4477 21.5523 11 21 11C20.4477 11 20 11.4477 20 12H22ZM17.6569 6.34315C18.0474 6.73367 18.6805 6.73367 19.0711 6.34315C19.4616 5.95262 19.4616 5.31946 19.0711 4.92893L17.6569 6.34315ZM14.8275 9.17157C15.218 9.5621 15.8512 9.5621 16.2417 9.17157C16.6322 8.78105 16.6322 8.14788 16.2417 7.75736L14.8275 9.17157ZM6.80236 8.99927C6.52582 9.47733 6.68918 10.0891 7.16724 10.3656C7.6453 10.6421 8.25703 10.4788 8.53357 10.0007L6.80236 8.99927ZM8.99946 17.1973C9.47758 17.4738 10.0893 17.3103 10.3657 16.8322C10.6422 16.354 10.4787 15.7424 10.0005 15.4659L8.99946 17.1973ZM8.53357 13.9993C8.25703 13.5212 7.6453 13.3579 7.16724 13.6344C6.68918 13.9109 6.52582 14.5227 6.80236 15.0007L8.53357 13.9993ZM17.9991 12C17.9991 11.4477 17.5513 11 16.9991 11C16.4468 11 15.9991 11.4477 15.9991 12H17.9991ZM13.9976 15.4659C13.5195 15.7424 13.356 16.354 13.6324 16.8322C13.9088 17.3103 14.5205 17.4738 14.9987 17.1973L13.9976 15.4659ZM11.2929 11.2929C10.9024 11.6834 10.9024 12.3166 11.2929 12.7071C11.6834 13.0976 12.3166 13.0976 12.7071 12.7071L11.2929 11.2929ZM21.7071 3.70711C22.0976 3.31658 22.0976 2.68342 21.7071 2.29289C21.3166 1.90237 20.6834 1.90237 20.2929 2.29289L21.7071 3.70711ZM12 16C11.4477 16 11 16.4477 11 17C11 17.5523 11.4477 18 12 18V16ZM12.009 18C12.5613 18 13.009 17.5523 13.009 17C13.009 16.4477 12.5613 16 12.009 16V18ZM7 11C6.44772 11 6 11.4477 6 12C6 12.5523 6.44772 13 7 13V11ZM7.009 13C7.56128 13 8.009 12.5523 8.009 12C8.009 11.4477 7.56128 11 7.009 11V13ZM20 12C20 16.4183 16.4183 20 12 20V22C17.5228 22 22 17.5228 22 12H20ZM12 20C7.58172 20 4 16.4183 4 12H2C2 17.5228 6.47715 22 12 22V20ZM4 12C4 7.58172 7.58172 4 12 4V2C6.47715 2 2 6.47715 2 12H4ZM12 4C14.2094 4 16.208 4.89434 17.6569 6.34315L19.0711 4.92893C17.2625 3.12038 14.7611 2 12 2V4ZM11.9991 8C13.1039 8 14.1025 8.44662 14.8275 9.17157L16.2417 7.75736C15.157 6.67267 13.6556 6 11.9991 6V8ZM8.53357 10.0007C9.2267 8.80251 10.5198 8 11.9991 8V6C9.77695 6 7.83828 7.20848 6.80236 8.99927L8.53357 10.0007ZM10.0005 15.4659C9.39259 15.1144 8.88521 14.6071 8.53357 13.9993L6.80236 15.0007C7.32929 15.9116 8.08844 16.6706 8.99946 17.1973L10.0005 15.4659ZM15.9991 12C15.9991 13.4796 15.1962 14.7729 13.9976 15.4659L14.9987 17.1973C16.7901 16.1616 17.9991 14.2226 17.9991 12H15.9991ZM12.7071 12.7071L21.7071 3.70711L20.2929 2.29289L11.2929 11.2929L12.7071 12.7071ZM12 18H12.009V16H12V18ZM7 13H7.009V11H7V13Z" fill="black"/>
</svg>
