<svg width="24" height="24" viewBox="0 0 24 24" fill="none" xmlns="http://www.w3.org/2000/svg">
<path d="M4 20L7.14214 16.8579M17.9453 11.055L12.9453 16.055L16 19L21 14L17.9453 11.055ZM17.9453 11.055L21.0003 8L16.0003 3L7.94531 11.055L5.00027 8L10.0003 3L12.9453 6.05469M5 20C5 20.5523 4.55228 21 4 21C3.44772 21 3 20.5523 3 20C3 19.4477 3.44772 19 4 19C4.55228 19 5 19.4477 5 20ZM11.2843 12.7157C13.5719 15.0034 13.5719 18.7124 11.2843 21L3 12.7157C5.28764 10.4281 8.99663 10.4281 11.2843 12.7157Z" stroke="black" stroke-width="2" stroke-linecap="round" stroke-linejoin="round"/>
</svg>
