<svg width="24" height="24" viewBox="0 0 24 24" fill="none" xmlns="http://www.w3.org/2000/svg">
<path opacity="0.3" fill-rule="evenodd" clip-rule="evenodd" d="M12 6C8.68629 6 6 8.68629 6 12C6 15.3137 8.68629 18 12 18C15.3137 18 18 15.3137 18 12C18 8.68629 15.3137 6 12 6Z" fill="black"/>
<path d="M5.05367 6.19057C5.51358 6.49635 5.63852 7.11707 5.33273 7.57698C4.49066 8.84347 4 10.3629 4 12C4 13.6371 4.49066 15.1565 5.33273 16.423C5.63852 16.8829 5.51358 17.5036 5.05367 17.8094C4.59377 18.1152 3.97305 17.9903 3.66727 17.5304C2.6138 15.9459 2 14.0431 2 12C2 9.95686 2.6138 8.05405 3.66727 6.46963C3.97305 6.00972 4.59377 5.88478 5.05367 6.19057Z" fill="black"/>
<path d="M18.9463 6.19057C19.4062 5.88478 20.0269 6.00972 20.3327 6.46963C21.3862 8.05405 22 9.95686 22 12C22 13.5946 21.626 15.1048 20.96 16.4449C20.7143 16.9395 20.1141 17.1412 19.6195 16.8954C19.1249 16.6497 18.9232 16.0495 19.169 15.5549C19.7006 14.4851 20 13.279 20 12C20 10.3629 19.5093 8.84347 18.6673 7.57698C18.3615 7.11707 18.4864 6.49635 18.9463 6.19057Z" fill="black"/>
<path d="M13 10C13 9.44772 12.5523 9 12 9C11.4477 9 11 9.44772 11 10V11.5C11 12.0523 11.4477 12.5 12 12.5C12.5523 12.5 13 12.0523 13 11.5V10Z" fill="black"/>
<path d="M12 15C12.5523 15 13 14.5523 13 14C13 13.4477 12.5523 13 12 13C11.4477 13 11 13.4477 11 14C11 14.5523 11.4477 15 12 15Z" fill="black"/>
</svg>
