<svg width="24" height="24" viewBox="0 0 24 24" fill="none" xmlns="http://www.w3.org/2000/svg">
<g opacity="0.3">
<path d="M2 7C1.44772 7 1 7.44772 1 8C1 8.55228 1.44772 9 2 9H10C10.5523 9 11 8.55228 11 8C11 7.44772 10.5523 7 10 7H2Z" fill="black"/>
<path d="M14 7C13.4477 7 13 7.44772 13 8C13 8.55228 13.4477 9 14 9H22C22.5523 9 23 8.55228 23 8C23 7.44772 22.5523 7 22 7H14Z" fill="black"/>
</g>
<path d="M7.00009 6C7.00009 5.44772 6.55237 5 6.00009 5C5.4478 5 5.00009 5.44772 5.00009 6V7H7.00009V6Z" fill="black"/>
<path d="M19.0001 7V6C19.0001 5.44772 18.5524 5 18.0001 5C17.4478 5 17.0001 5.44772 17.0001 6V7H19.0001Z" fill="black"/>
<path d="M6.00009 10C6.55237 10 7.00009 10.4477 7.00009 11V11.6132C7.00461 11.9539 7.03958 11.9752 7.27902 12.121C7.30712 12.1381 7.33809 12.157 7.3721 12.1783C8.27232 10.8637 9.78453 10 11.5001 10H12.5001C14.2156 10 15.7279 10.8637 16.6281 12.1783L16.6602 12.1582C16.9273 11.9917 17.0001 11.9464 17.0001 11.6132V11C17.0001 10.4477 17.4478 10 18.0001 10C18.5524 10 19.0001 10.4477 19.0001 11L19.0002 11.6812C19.0011 11.9309 19.0022 12.245 18.9086 12.5438C18.8276 12.8022 18.695 13.0415 18.5187 13.2472C18.315 13.4849 18.0481 13.6505 17.8359 13.7821L16.444 14.6518L16.7889 15.3416C16.9278 15.6194 17.0001 15.9256 17.0001 16.2361V18C17.0001 18.5523 16.5524 19 16.0001 19C15.4478 19 15.0001 18.5523 15.0001 18V16.2361L14.7397 15.7152C14.6594 15.7623 14.5704 15.8099 14.4756 15.849C14.3377 15.9059 14.1939 15.9471 14.0469 15.972C13.8776 16.0006 13.7099 16.0003 13.5767 16H10.4235C10.2903 16.0003 10.1225 16.0006 9.95329 15.972C9.80626 15.9471 9.66247 15.9059 9.52462 15.849C9.42975 15.8099 9.34081 15.7623 9.2605 15.7152L9.00009 16.2361V18C9.00009 18.5523 8.55237 19 8.00009 19C7.4478 19 7.00009 18.5523 7.00009 18V16.2361C7.00009 15.9256 7.07238 15.6194 7.21123 15.3416L7.55616 14.6518L6.16433 13.7821C5.95212 13.6505 5.68518 13.4849 5.48146 13.2472C5.30521 13.0415 5.17258 12.8022 5.09159 12.5438C4.99798 12.245 4.99906 11.9309 4.99993 11.6812L5.00009 11C5.00009 10.4477 5.4478 10 6.00009 10Z" fill="black"/>
</svg>
