<svg width="24" height="24" viewBox="0 0 24 24" fill="none" xmlns="http://www.w3.org/2000/svg">
<g opacity="0.3">
<path d="M7.00138 12.6478C6.88989 12.7873 6.77844 12.9268 6.66699 13.0663C6.29273 13.5349 5.91846 14.0034 5.54278 14.4708C5.44134 14.597 5.31356 14.756 5.21911 14.9409C5.13712 15.1013 5.0772 15.2722 5.04097 15.4487C4.99542 15.6706 5.00014 15.8933 5.00014 16.0612V21C5.00014 21.4247 5.26838 21.803 5.66913 21.9436C6.06988 22.0842 6.51571 21.9563 6.78101 21.6247L10.4987 16.9775C10.4222 16.9734 10.3482 16.9684 10.2767 16.9626C9.79801 16.9235 9.34305 16.8385 8.9112 16.6185C8.74972 16.5362 8.59564 16.4419 8.4501 16.3367L7.00014 18.1492V16.0612C7.00014 15.9497 7.00032 15.8945 7.00191 15.8543C7.00191 15.8543 7.09364 15.7339 7.13162 15.6864L7.47398 15.2585C7.44171 15.2029 7.41092 15.1464 7.38164 15.0889C7.1616 14.6571 7.07666 14.2021 7.03754 13.7234C7.01212 13.4123 7.00398 13.0542 7.00138 12.6478Z" fill="black"/>
<path d="M15.5502 16.3368C15.4047 16.4419 15.2506 16.5362 15.0891 16.6185C14.6573 16.8385 14.2023 16.9235 13.7236 16.9626C13.6521 16.9684 13.5781 16.9734 13.5016 16.9775L17.2193 21.6247C17.4846 21.9563 17.9304 22.0842 18.3311 21.9436C18.7319 21.803 19.0001 21.4247 19.0001 21V16.0612C19.0001 15.8933 19.0049 15.6706 18.9593 15.4487C18.9231 15.2721 18.8632 15.1013 18.7812 14.9409C18.6781 14.7391 18.5353 14.5682 18.4304 14.437L16.9989 12.6477C16.9963 13.0542 16.9882 13.4123 16.9628 13.7234C16.9237 14.2021 16.8387 14.6571 16.6187 15.0889C16.5894 15.1464 16.5586 15.2029 16.5263 15.2585L16.8687 15.6864C16.9123 15.741 16.9569 15.7951 16.9983 15.8514C17.0011 15.9213 17.0001 15.9913 17.0001 16.0612V18.1492L15.5502 16.3368Z" fill="black"/>
<path d="M13.0001 16.9946C12.7089 17 12.3892 17 12.0403 17H11.96C11.6111 17 11.2913 17 11.0001 16.9946V20C11.0001 20.5523 11.4479 21 12.0001 21C12.5524 21 13.0001 20.5523 13.0001 20V16.9946Z" fill="black"/>
</g>
<path fill-rule="evenodd" clip-rule="evenodd" d="M11.9999 2C12.2856 2 12.5576 2.12215 12.7473 2.33564L16.3432 6.38097C16.4638 6.51661 16.6278 6.6929 16.7467 6.9062C16.8413 7.07574 16.9106 7.25814 16.9526 7.44766C17.0054 7.6861 16.9999 7.92683 16.9999 8.10832V12.0401C16.9999 12.706 16.9999 13.2655 16.9625 13.7234C16.9234 14.2021 16.8385 14.6571 16.6184 15.089C16.2829 15.7475 15.7475 16.283 15.0889 16.6185C14.657 16.8386 14.2021 16.9235 13.7233 16.9626C13.2655 17 12.7059 17 12.0401 17H11.9598C11.2939 17 10.7344 17 10.2765 16.9626C9.79777 16.9235 9.34281 16.8386 8.91095 16.6185C8.25238 16.283 7.71695 15.7475 7.3814 15.089C7.16135 14.6571 7.07641 14.2021 7.0373 13.7234C6.99989 13.2656 6.9999 12.706 6.99992 12.0402L6.99992 8.10832C6.99992 7.92683 6.99443 7.6861 7.04725 7.44766C7.08923 7.25814 7.15858 7.07574 7.25311 6.9062C7.37204 6.6929 7.53607 6.51663 7.65665 6.38097L11.2525 2.33564C11.4423 2.12215 11.7143 2 11.9999 2ZM14.2175 7L11.9999 4.5052L9.78232 7H14.2175Z" fill="black"/>
</svg>
