<svg width="24" height="24" viewBox="0 0 24 24" fill="none" xmlns="http://www.w3.org/2000/svg">
<path opacity="0.3" fill-rule="evenodd" clip-rule="evenodd" d="M5 4C5 3.44772 5.44772 3 6 3H18C18.5523 3 19 3.44772 19 4C19 4.55228 18.5523 5 18 5H6C5.44772 5 5 4.55228 5 4ZM3 11C3 10.4477 3.44772 10 4 10H20C20.5523 10 21 10.4477 21 11C21 11.5523 20.5523 12 20 12H4C3.44772 12 3 11.5523 3 11ZM2 18C2 17.4477 2.44772 17 3 17L21 17C21.5523 17 22 17.4477 22 18C22 18.5523 21.5523 19 21 19L3 19C2.44772 19 2 18.5523 2 18Z" fill="black"/>
<path fill-rule="evenodd" clip-rule="evenodd" d="M14.7323 2.03649C15.2644 1.88868 15.8156 2.20023 15.9634 2.73237L20.9634 20.7324C21.1113 21.2645 20.7997 21.8157 20.2676 21.9635C19.7354 22.1113 19.1842 21.7998 19.0364 21.2677L14.0364 3.26765C13.8886 2.73552 14.2001 2.18431 14.7323 2.03649ZM9.26777 2.03654C9.79991 2.18436 10.1115 2.73557 9.96364 3.26771L4.96353 21.2677C4.81571 21.7998 4.26449 22.1114 3.73236 21.9635C3.20022 21.8157 2.88867 21.2645 3.03649 20.7324L8.03661 2.73241C8.18443 2.20027 8.73564 1.88872 9.26777 2.03654Z" fill="black"/>
</svg>
