<svg width="24" height="24" viewBox="0 0 24 24" fill="none" xmlns="http://www.w3.org/2000/svg">
<path d="M16.143 6C16.8871 6 17.0343 6.01172 17.1496 6.04936C17.2834 6.09303 17.4065 6.16445 17.5108 6.25895C17.6007 6.34039 17.6839 6.46237 18.0531 7.10849L20.2768 11H15V6H16.143Z" fill="black"/>
<path d="M7 11H3V8.2C3 7.62345 3.00078 7.25117 3.02393 6.96784C3.04612 6.69617 3.0838 6.59545 3.10899 6.54601C3.20487 6.35785 3.35785 6.20487 3.54601 6.10899C3.59545 6.0838 3.69617 6.04612 3.96784 6.02393C4.25117 6.00078 4.62345 6 5.2 6H7V11Z" fill="black"/>
<path d="M9 11V6H13V11H9Z" fill="black"/>
<path d="M3 17C3 15.3431 4.34315 14 6 14C7.65685 14 9 15.3431 9 17C9 18.6569 7.65685 20 6 20C4.34315 20 3 18.6569 3 17Z" fill="black"/>
<path d="M15 17C15 15.3431 16.3431 14 18 14C19.6569 14 21 15.3431 21 17C21 18.6569 19.6569 20 18 20C16.3431 20 15 18.6569 15 17Z" fill="black"/>
<path opacity="0.3" fill-rule="evenodd" clip-rule="evenodd" d="M5.16145 3.99995C4.63431 3.99993 4.17955 3.99991 3.80497 4.03052C3.40963 4.06282 3.01641 4.13413 2.63803 4.32693C2.07354 4.61455 1.6146 5.07349 1.32698 5.63798C1.13419 6.01636 1.06287 6.40957 1.03057 6.80492C0.999969 7.17948 0.999984 7.63423 1 8.16136V14.9999C1 15.8919 1.38929 16.693 2.00724 17.2425C2.00244 17.1623 2 17.0814 2 16.9999C2 14.7908 3.79086 12.9999 6 12.9999C8.20914 12.9999 10 14.7908 10 16.9999C10 17.3452 9.95625 17.6803 9.87398 17.9999H14.126C14.0438 17.6803 14 17.3452 14 16.9999C14 14.7908 15.7909 12.9999 18 12.9999C20.2091 12.9999 22 14.7908 22 16.9999C22 17.0814 21.9976 17.1623 21.9928 17.2425C22.6107 16.693 23 15.8919 23 14.9999L23 12.7964C23.0002 12.5322 23.0003 12.299 22.9637 12.0657C22.9315 11.8604 22.878 11.659 22.8041 11.4647C22.7201 11.2439 22.6043 11.0416 22.4731 10.8123L19.7317 6.01474C19.4546 5.5283 19.2107 5.10026 18.8537 4.77678C18.5408 4.49329 18.1716 4.27903 17.7702 4.14802C17.3122 3.99853 16.8196 3.99915 16.2597 3.99985L5.16145 3.99995ZM17.1496 6.0493C17.0343 6.01167 16.8871 5.99995 16.143 5.99995H15V10.9999H20.2768L18.0531 7.10844C17.6839 6.46232 17.6007 6.34033 17.5108 6.25889C17.4065 6.1644 17.2834 6.09297 17.1496 6.0493ZM3 10.9999H7V5.99995H5.2C4.62345 5.99995 4.25118 6.00073 3.96784 6.02387C3.69618 6.04607 3.59546 6.08375 3.54601 6.10894C3.35785 6.20481 3.20487 6.3578 3.109 6.54596C3.0838 6.5954 3.04613 6.69612 3.02393 6.96778C3.00078 7.25112 3 7.62339 3 8.19995V10.9999ZM9 5.99995V10.9999H13V5.99995H9Z" fill="black"/>
</svg>
