<svg width="24" height="24" viewBox="0 0 24 24" fill="none" xmlns="http://www.w3.org/2000/svg">
<g opacity="0.3">
<path d="M11.5218 2C8.76042 2 6.52185 4.23858 6.52185 7C6.52185 9.76142 8.76042 12 11.5218 12C14.2833 12 16.5218 9.76142 16.5218 7C16.5218 4.23858 14.2833 2 11.5218 2Z" fill="black"/>
<path d="M11.5218 13C12.7753 13 13.9688 13.2562 15.0531 13.7192L12.3536 16.4185C11.9536 16.8181 11.6005 17.1706 11.3077 17.5817C11.05 17.9433 10.8333 18.3325 10.6615 18.742C10.4662 19.2074 10.3523 19.6931 10.2233 20.2436L10.1541 20.538C10.1156 20.7014 10.0602 20.9359 10.0303 21.1487C10.0064 21.3184 9.97218 21.6295 10.0391 22H6.52185C5.32763 22 4.73052 22 4.08897 21.5566C3.65466 21.2564 3.12614 20.4187 3.0422 19.8975C2.91822 19.1275 3.07688 18.7949 3.39421 18.1297C4.84134 15.0961 7.9368 13 11.5218 13Z" fill="black"/>
</g>
<path d="M18.0112 13.4998C18.6985 12.8126 19.8127 12.8126 20.5 13.4998C21.1873 14.1871 21.1873 15.3013 20.5 15.9886L16.4254 20.1525C15.9141 20.6638 15.6584 20.9195 15.367 21.1224C15.1083 21.3026 14.8293 21.4515 14.5357 21.5661C14.2049 21.6952 13.8501 21.7653 13.1408 21.9055L13.0439 21.9247C12.6385 22.0048 12.4357 22.0449 12.2937 21.9842C12.1697 21.9312 12.0723 21.8302 12.0238 21.7044C11.9682 21.5603 12.0155 21.3591 12.1101 20.9568L12.144 20.8125C12.2991 20.1529 12.3766 19.823 12.5056 19.5155C12.6201 19.2426 12.7646 18.9831 12.9364 18.742C13.1299 18.4704 13.3695 18.2309 13.8486 17.7517L18.0112 13.4998Z" fill="black"/>
</svg>
