<svg width="24" height="24" viewBox="0 0 24 24" fill="none" xmlns="http://www.w3.org/2000/svg">
<path opacity="0.3" d="M22 12C22 17.5228 17.5228 22 12 22C6.47715 22 2 17.5228 2 12C2 6.47715 6.47715 2 12 2C17.5228 2 22 6.47715 22 12Z" fill="black"/>
<path fill-rule="evenodd" clip-rule="evenodd" d="M4.0625 11H7.0318C7.05929 10.6196 7.10447 10.2454 7.16561 9.8783C7.52229 7.73614 8.41407 5.8752 9.43335 4.42086C6.57825 5.38763 4.44628 7.92238 4.0625 11ZM12.0006 4.40698C10.7955 5.7229 9.54601 7.75901 9.13845 10.2068C9.09532 10.4658 9.06145 10.7303 9.03808 11H14.9631C14.9398 10.7303 14.9059 10.4658 14.8628 10.2068C14.4552 7.75901 13.2057 5.7229 12.0006 4.40698ZM14.9358 13H9.06538C9.29218 14.9873 10.1401 17.1787 12.0006 19.4701C13.8611 17.1787 14.709 14.9873 14.9358 13ZM9.62622 19.6418C8.02688 17.3523 7.25436 15.1051 7.05438 13H4.0625C4.45487 16.1466 6.67461 18.7257 9.62622 19.6418ZM14.375 19.6418C15.9743 17.3523 16.7469 15.1051 16.9468 13H19.9387C19.5463 16.1466 17.3266 18.7257 14.375 19.6418ZM19.9387 11H16.9694C16.9419 10.6196 16.8967 10.2454 16.8356 9.8783C16.4789 7.73614 15.5871 5.8752 14.5679 4.42086C17.423 5.38763 19.5549 7.92238 19.9387 11Z" fill="black"/>
</svg>
