<svg width="24" height="24" viewBox="0 0 24 24" fill="none" xmlns="http://www.w3.org/2000/svg">
<g opacity="0.3">
<path d="M14.032 8.55382C13.4365 8.20193 12.7418 8 12 8C11.2582 8 10.5635 8.20193 9.96803 8.55382L5.67127 4.25705C7.39514 2.84636 9.59873 2 12 2C14.4013 2 16.6049 2.84637 18.3287 4.25705L14.032 8.55382Z" fill="black"/>
<path d="M15.4462 14.032C15.7981 13.4365 16 12.7418 16 12C16 11.2582 15.7981 10.5635 15.4462 9.96803L19.7429 5.67127C21.1536 7.39514 22 9.59873 22 12C22 14.4013 21.1536 16.6049 19.7429 18.3287L15.4462 14.032Z" fill="black"/>
<path d="M9.96803 15.4462C10.5635 15.7981 11.2582 16 12 16C12.7418 16 13.4365 15.7981 14.032 15.4462L18.3287 19.7429C16.6049 21.1536 14.4013 22 12 22C9.59873 22 7.39514 21.1536 5.67127 19.7429L9.96803 15.4462Z" fill="black"/>
<path d="M8.55382 9.96803C8.20193 10.5635 8 11.2582 8 12C8 12.7418 8.20193 13.4365 8.55382 14.032L4.25705 18.3287C2.84637 16.6049 2 14.4013 2 12C2 9.59873 2.84636 7.39514 4.25705 5.67127L8.55382 9.96803Z" fill="black"/>
</g>
<path fill-rule="evenodd" clip-rule="evenodd" d="M18.3295 4.25684C18.8466 4.68 19.3205 5.15394 19.7437 5.67105L15.4471 9.96767C15.799 10.5632 16.001 11.2579 16.001 11.9998C16.001 12.7416 15.799 13.4363 15.4471 14.0319L19.7437 18.3285C19.3205 18.8456 18.8466 19.3196 18.3295 19.7427L14.0328 15.446C13.4373 15.7979 12.7427 15.9998 12.001 15.9998C11.2591 15.9998 10.5644 15.7978 9.96889 15.4459L5.67203 19.7427C5.15492 19.3196 4.68098 18.8456 4.25781 18.3285L8.55472 14.0316C8.20288 13.4361 8.00098 12.7415 8.00098 11.9998C8.00098 11.258 8.20287 10.5634 8.5547 9.96794L4.25781 5.67105C4.68098 5.15394 5.15492 4.68 5.67203 4.25684L9.96886 8.55367C10.5644 8.20172 11.2591 7.99976 12.001 7.99976C12.7427 7.99976 13.4373 8.20166 14.0328 8.5535L18.3295 4.25684ZM10.001 11.9998C10.001 10.8952 10.8964 9.99976 12.001 9.99976C13.1055 9.99976 14.001 10.8952 14.001 11.9998C14.001 13.1043 13.1055 13.9998 12.001 13.9998C10.8964 13.9998 10.001 13.1043 10.001 11.9998Z" fill="black"/>
</svg>
