<svg width="24" height="24" viewBox="0 0 24 24" fill="none" xmlns="http://www.w3.org/2000/svg">
<path opacity="0.3" d="M2 16.9999C2 15.0157 4.3115 13.3015 7.66154 12.4937C8.07281 12.8189 8.52146 13.0989 9 13.3262V15.9999C9 17.6567 10.3431 18.9999 12 18.9999C13.6569 18.9999 15 17.6567 15 15.9999V13.3262C15.4785 13.0989 15.9272 12.8189 16.3385 12.4937C19.6885 13.3015 22 15.0157 22 16.9999C22 19.7613 17.5228 21.9999 12 21.9999C6.47715 21.9999 2 19.7613 2 16.9999Z" fill="black"/>
<path d="M12 2C9.23858 2 7 4.23858 7 7C7 9.41896 8.71776 11.4367 11 11.9V16C11 16.5523 11.4477 17 12 17C12.5523 17 13 16.5523 13 16V11.9C15.2822 11.4367 17 9.41896 17 7C17 4.23858 14.7614 2 12 2Z" fill="black"/>
</svg>
