<svg width="24" height="24" viewBox="0 0 24 24" fill="none" xmlns="http://www.w3.org/2000/svg">
<path d="M5.48242 16H18.5172L17.7395 14H6.2602L5.48242 16Z" fill="black"/>
<path d="M7.42687 11H16.5728L15.795 9H8.20465L7.42687 11Z" fill="black"/>
<g opacity="0.3">
<path d="M18.5174 16.0001L19.6841 19.0001H21C21.5523 19.0001 22 19.4478 22 20.0001C22 20.5524 21.5523 21.0001 21 21.0001H19.0234C19.0079 21.0004 18.9925 21.0004 18.9771 21.0001H5.02289C5.00751 21.0004 4.99208 21.0004 4.97663 21.0001H3C2.44772 21.0001 2 20.5524 2 20.0001C2 19.4478 2.44772 19.0001 3 19.0001H4.31593L5.4826 16.0001H18.5174Z" fill="black"/>
<path d="M17.7396 14.0001L16.573 11.0001H7.42704L6.26038 14.0001H17.7396Z" fill="black"/>
<path d="M8.20482 9.00008H15.7952L14.6149 5.96507C14.3652 5.32281 14.1538 4.77927 13.9546 4.37517C13.7687 3.998 13.4887 3.50776 12.9881 3.24716C12.3688 2.92477 11.6312 2.92477 11.0119 3.24716C10.5113 3.50776 10.2313 3.998 10.0454 4.37517C9.84621 4.77927 9.63484 5.32282 9.38509 5.96509L8.20482 9.00008Z" fill="black"/>
</g>
</svg>
