<svg width="24" height="24" viewBox="0 0 24 24" fill="none" xmlns="http://www.w3.org/2000/svg">
<path opacity="0.14" d="M13.4966 14.9687L16.473 13.1829C18.7727 11.8031 19.1633 8.62947 17.267 6.73312C15.3706 4.83677 12.1971 5.22746 10.8173 7.52712L9.03141 10.5035C8.83365 10.8331 8.59622 11.1372 8.32444 11.409L7.13366 12.5998C5.95545 13.778 5.95545 15.6882 7.13366 16.8665C8.31186 18.0447 10.2221 18.0447 11.4003 16.8665L12.5911 15.6757C12.8629 15.4039 13.167 15.1665 13.4966 14.9687Z" fill="black"/>
<path d="M7 16.9998L3 20.9998M16.4727 13.1829L13.4962 14.9687C13.1667 15.1665 12.8626 15.4039 12.5908 15.6757L11.4 16.8665C10.2218 18.0447 8.31154 18.0447 7.13333 16.8665C5.95513 15.6882 5.95513 13.778 7.13333 12.5998L8.32412 11.409C8.5959 11.1372 8.83333 10.8331 9.03108 10.5035L10.8169 7.52712C12.1967 5.22746 15.3703 4.83677 17.2667 6.73312C19.163 8.62947 18.7723 11.8031 16.4727 13.1829Z" stroke="black" stroke-width="2" stroke-linecap="round" stroke-linejoin="round"/>
</svg>
