<svg width="24" height="24" viewBox="0 0 24 24" fill="none" xmlns="http://www.w3.org/2000/svg">
<path fill-rule="evenodd" clip-rule="evenodd" d="M12.3052 5.04778C12.7192 5.18045 13 5.56536 13 6.00007V7.26941H19C19.3752 7.26941 19.7188 7.47943 19.8899 7.81332C20.0611 8.14722 20.0309 8.54881 19.8118 8.85338L12.8118 18.584C12.5583 18.9364 12.1064 19.085 11.6932 18.9519C11.2801 18.8187 11 18.4342 11 18.0001V16.7995H5C4.62541 16.7995 4.28223 16.5901 4.11083 16.2571C3.93943 15.924 3.96855 15.523 4.18629 15.2182L11.1863 5.41881C11.439 5.06508 11.8912 4.91511 12.3052 5.04778Z" fill="black"/>
</svg>
