<svg width="24" height="24" viewBox="0 0 24 24" fill="none" xmlns="http://www.w3.org/2000/svg">
<path fill-rule="evenodd" clip-rule="evenodd" d="M11.5846 1.19849C11.8588 1.14022 12.1421 1.14022 12.4163 1.19849C12.7333 1.26588 13.0151 1.42993 13.2392 1.56039C13.2601 1.57257 13.2806 1.58445 13.3005 1.59594L20.3607 5.67218C20.3806 5.68366 20.4011 5.6954 20.4221 5.70743C20.6471 5.83628 20.9301 5.99831 21.147 6.23917C21.3345 6.44746 21.4762 6.69284 21.5628 6.9594C21.663 7.26765 21.6618 7.59374 21.6609 7.85305C21.6608 7.87725 21.6607 7.90087 21.6607 7.92384V16.0763C21.6607 16.0993 21.6608 16.1229 21.6609 16.1471C21.6618 16.4064 21.663 16.7325 21.5628 17.0408C21.4762 17.3073 21.3345 17.5527 21.147 17.761C20.9301 18.0019 20.6471 18.1639 20.4221 18.2927C20.4011 18.3048 20.3806 18.3165 20.3607 18.328L13.3005 22.4042C13.2806 22.4157 13.2601 22.4276 13.2392 22.4398C13.0151 22.5702 12.7333 22.7343 12.4163 22.8017C12.1421 22.86 11.8588 22.86 11.5846 22.8017C11.2676 22.7343 10.9858 22.5702 10.7617 22.4398C10.7408 22.4276 10.7204 22.4157 10.7005 22.4042L3.6402 18.328C3.62031 18.3165 3.59981 18.3048 3.5788 18.2927C3.35377 18.1639 3.07079 18.0019 2.85391 17.761C2.66637 17.5527 2.5247 17.3073 2.43809 17.0408C2.33793 16.7325 2.3391 16.4064 2.34003 16.1471C2.34012 16.1229 2.3402 16.0993 2.3402 16.0763V7.92385C2.3402 7.90087 2.34012 7.87725 2.34003 7.85305C2.3391 7.59374 2.33793 7.26765 2.43809 6.9594C2.5247 6.69284 2.66637 6.44746 2.85391 6.23917C3.07079 5.99831 3.35377 5.83628 3.5788 5.70743C3.5998 5.6954 3.62031 5.68367 3.6402 5.67218L10.7005 1.59594C10.7203 1.58445 10.7408 1.57257 10.7617 1.56039C10.9858 1.42993 11.2676 1.26588 11.5846 1.19849Z" fill="black"/>
</svg>
