<svg width="24" height="24" viewBox="0 0 24 24" fill="none" xmlns="http://www.w3.org/2000/svg">
<path fill-rule="evenodd" clip-rule="evenodd" d="M11.3818 1.51219C11.7835 1.38168 12.2162 1.38168 12.6179 1.51219C12.9076 1.60633 13.1295 1.7659 13.3043 1.91433C13.4636 2.0495 13.6373 2.22333 13.8158 2.40181L15.2383 3.82436C15.331 3.91699 15.3774 3.96305 15.4125 3.9951L15.4151 3.99751L15.4187 3.99768C15.4662 3.99985 15.5316 4.00009 15.6626 4.00009L17.4317 4.00009C17.6841 4.00006 17.9299 4.00003 18.1381 4.01704C18.3667 4.03572 18.6364 4.07978 18.9078 4.21808C19.2842 4.40983 19.5901 4.71579 19.7819 5.09211C19.9202 5.36354 19.9642 5.63327 19.9829 5.86186C19.9999 6.07002 19.9999 6.3158 19.9999 6.56818L19.9998 8.33735C19.9998 8.46835 20.0001 8.53373 20.0023 8.58123L20.0024 8.58481L20.0048 8.58747C20.0369 8.62258 20.083 8.66899 20.1756 8.76162L21.5981 10.1841C21.7766 10.3626 21.9504 10.5364 22.0856 10.6956C22.234 10.8705 22.3936 11.0923 22.4877 11.3821C22.6183 11.7837 22.6183 12.2164 22.4877 12.6181C22.3936 12.9078 22.234 13.1297 22.0856 13.3046C21.9504 13.4638 21.7766 13.6376 21.5981 13.816L20.1756 15.2386C20.083 15.3312 20.0369 15.3776 20.0048 15.4127L20.0024 15.4154L20.0023 15.419C20.0001 15.4665 19.9998 15.5318 19.9998 15.6628L19.9999 17.432C19.9999 17.6844 19.9999 17.9302 19.9829 18.1383C19.9642 18.3669 19.9202 18.6367 19.7819 18.9081C19.5901 19.2844 19.2842 19.5904 18.9078 19.7821C18.6364 19.9204 18.3667 19.9645 18.1381 19.9831C17.9299 20.0002 17.6841 20.0001 17.4318 20.0001L15.6626 20.0001C15.5316 20.0001 15.4662 20.0003 15.4187 20.0025L15.4151 20.0027L15.4125 20.0051C15.3774 20.0371 15.331 20.0832 15.2383 20.1758L13.8157 21.5984C13.6373 21.7769 13.4635 21.9507 13.3043 22.0859C13.1295 22.2343 12.9076 22.3939 12.6179 22.488C12.2162 22.6185 11.7835 22.6185 11.3818 22.488C11.0921 22.3939 10.8702 22.2343 10.6954 22.0859C10.5361 21.9507 10.3624 21.7769 10.1839 21.5984L8.76137 20.1758C8.66874 20.0832 8.62234 20.0371 8.58722 20.0051L8.58456 20.0027L8.58098 20.0025C8.53349 20.0003 8.46811 20.0001 8.33711 20.0001L6.56793 20.0001C6.31556 20.0001 6.06977 20.0002 5.86162 19.9831C5.63303 19.9645 5.36329 19.9204 5.09187 19.7821C4.71554 19.5904 4.40958 19.2844 4.21784 18.9081C4.07954 18.6367 4.03547 18.3669 4.01679 18.1383C3.99979 17.9302 3.99982 17.6844 3.99985 17.432L3.99985 15.6628C3.99985 15.5318 3.99961 15.4665 3.99744 15.419L3.99727 15.4154L3.99485 15.4127C3.96281 15.3776 3.91674 15.3312 3.82411 15.2386L2.40156 13.816C2.22307 13.6376 2.04925 13.4638 1.91409 13.3046C1.76565 13.1297 1.60608 12.9078 1.51195 12.6181C1.38143 12.2164 1.38143 11.7837 1.51195 11.3821C1.60608 11.0923 1.76565 10.8705 1.91409 10.6956C2.04925 10.5364 2.22307 10.3626 2.40155 10.1842L2.42411 10.1616L3.82411 8.76162C3.91674 8.66898 3.96281 8.62258 3.99485 8.58747L3.99727 8.58481L3.99744 8.58122C3.99961 8.53373 3.99985 8.46835 3.99985 8.33735V6.60009C3.99985 6.58945 3.99985 6.57882 3.99985 6.5682C3.99982 6.31581 3.99979 6.07002 4.01679 5.86186C4.03547 5.63327 4.07954 5.36354 4.21784 5.09211C4.40958 4.71579 4.71554 4.40983 5.09187 4.21808C5.36329 4.07978 5.63303 4.03572 5.86162 4.01704C6.06978 4.00003 6.31557 4.00006 6.56795 4.00009C6.57857 4.00009 6.58921 4.00009 6.59985 4.00009H8.33711C8.46811 4.00009 8.53349 3.99985 8.58098 3.99768L8.58457 3.99751L8.58722 3.9951C8.62234 3.96305 8.66874 3.91699 8.76137 3.82436L10.1839 2.4018C10.3624 2.22332 10.5361 2.0495 10.6954 1.91433C10.8702 1.7659 11.0921 1.60633 11.3818 1.51219Z" fill="black"/>
</svg>
