<svg width="24" height="24" viewBox="0 0 24 24" fill="none" xmlns="http://www.w3.org/2000/svg">
<path fill-rule="evenodd" clip-rule="evenodd" d="M11.3685 2.21151C11.7687 2.02585 12.2305 2.02585 12.6307 2.21151C12.9724 2.36998 13.1672 2.64325 13.2685 2.79908C13.3705 2.95603 13.4754 3.15514 13.576 3.34613C13.5813 3.35623 13.5867 3.3663 13.5919 3.37634L14.93 5.91492L17.7825 5.37189C17.9946 5.33147 18.2157 5.28933 18.402 5.27124C18.587 5.25327 18.9221 5.23519 19.259 5.40351C19.6537 5.60071 19.9416 5.9617 20.046 6.39041C20.1352 6.75633 20.043 7.07901 19.9843 7.25537C19.9252 7.43298 19.8349 7.63914 19.7483 7.83689L18.5842 10.4971L20.7872 12.3887C20.951 12.5293 21.1218 12.6759 21.2521 12.8103C21.3815 12.9437 21.6046 13.1944 21.6831 13.5628C21.775 13.9943 21.6723 14.4445 21.4022 14.7934C21.1717 15.0912 20.8619 15.2203 20.6874 15.2844C20.5117 15.349 20.2943 15.4069 20.0857 15.4625L17.28 16.2109L17.1747 19.1128C17.1669 19.3285 17.1588 19.5534 17.1349 19.7391C17.1113 19.9234 17.0544 20.2542 16.8153 20.5452C16.5352 20.8861 16.1192 21.0865 15.678 21.0929C15.3014 21.0983 15.0073 20.9367 14.8485 20.8402C14.6885 20.7431 14.5076 20.6092 14.334 20.4807L11.9996 18.7538L9.66516 20.4808C9.49164 20.6092 9.31074 20.7431 9.15073 20.8402C8.99186 20.9367 8.69778 21.0983 8.3212 21.0929C7.88 21.0865 7.464 20.8861 7.18392 20.5452C6.94485 20.2542 6.8879 19.9234 6.86426 19.7391C6.84044 19.5534 6.83232 19.3285 6.82454 19.1128L6.71921 16.2109L3.91354 15.4625C3.70494 15.4069 3.48748 15.349 3.31177 15.2844C3.13731 15.2203 2.82754 15.0912 2.59702 14.7934C2.32694 14.4445 2.2242 13.9943 2.31613 13.5628C2.3946 13.1944 2.61767 12.9437 2.74706 12.8103C2.87737 12.6759 3.04815 12.5293 3.21197 12.3887C3.22063 12.3813 3.22926 12.3739 3.23788 12.3665L5.41506 10.4971L4.26458 7.86817C4.26003 7.85777 4.25546 7.84734 4.25089 7.83689C4.1643 7.63914 4.07402 7.43298 4.01492 7.25537C3.95625 7.07901 3.86405 6.75633 3.95318 6.39041C4.0576 5.9617 4.34547 5.60071 4.7402 5.40351C5.07712 5.23519 5.41223 5.25327 5.59721 5.27124C5.78353 5.28933 6.00461 5.33147 6.21667 5.37189C6.22787 5.37402 6.23905 5.37615 6.2502 5.37828L9.0692 5.91492L10.4073 3.37634C10.4126 3.3663 10.4179 3.35623 10.4232 3.34613C10.5238 3.15514 10.6287 2.95603 10.7307 2.79908C10.832 2.64325 11.0268 2.36998 11.3685 2.21151Z" fill="black"/>
</svg>
