<svg width="24" height="24" viewBox="0 0 24 24" fill="none" xmlns="http://www.w3.org/2000/svg">
<path opacity="0.3" d="M6.61395 8.81909C6.26404 8.93648 5.88945 9.00009 5.5 9.00009C5.15251 9.00009 4.81685 8.94945 4.5 8.85515V15.145C4.81685 15.0507 5.15251 15.0001 5.5 15.0001C5.84749 15.0001 6.18315 15.0507 6.5 15.145V12.0002C7.08697 12.4406 7.77484 12.7549 8.52459 12.904C9.00939 13.0004 9.56667 13.0003 10.3843 13.0001L15.1449 13.0001C15.0506 12.6832 15 12.3476 15 12.0001C15 11.6526 15.0506 11.3169 15.1449 11.0001H10.5C9.5228 11.0001 9.18021 10.9952 8.91477 10.9424C7.80379 10.7215 6.91922 9.89604 6.61395 8.81909Z" fill="black"/>
<path d="M9 5.5C9 7.433 7.433 9 5.5 9C3.567 9 2 7.433 2 5.5C2 3.567 3.567 2 5.5 2C7.433 2 9 3.567 9 5.5Z" fill="black"/>
<path d="M9 18.5C9 20.433 7.433 22 5.5 22C3.567 22 2 20.433 2 18.5C2 16.567 3.567 15 5.5 15C7.433 15 9 16.567 9 18.5Z" fill="black"/>
<path d="M18.5 15.5C20.433 15.5 22 13.933 22 12C22 10.067 20.433 8.5 18.5 8.5C16.567 8.5 15 10.067 15 12C15 13.933 16.567 15.5 18.5 15.5Z" fill="black"/>
</svg>
