<svg width="24" height="24" viewBox="0 0 24 24" fill="none" xmlns="http://www.w3.org/2000/svg">
<path opacity="0.3" d="M4.5 8.85499V15.1449C4.81685 15.0506 5.15251 14.9999 5.5 14.9999C5.84749 14.9999 6.18315 15.0506 6.5 15.1449V14.9999C6.5 13.8954 7.39543 12.9999 8.5 12.9999L14.6376 13C15.433 13.0004 16.0236 13.0007 16.5353 12.8636C17.9156 12.4938 18.9938 11.4156 19.3637 10.0352C19.456 9.69081 19.486 9.31061 19.4956 8.85628C19.1801 8.94975 18.8459 8.99993 18.5 8.99993C18.1504 8.99993 17.8128 8.94867 17.4943 8.85327C17.4866 9.20729 17.4693 9.37795 17.4319 9.51756C17.2469 10.2077 16.7078 10.7468 16.0176 10.9318C15.7954 10.9913 15.4944 10.9999 14.5 10.9999H8.5C7.77143 10.9999 7.08835 11.1947 6.5 11.5351V8.85499C6.18315 8.94929 5.84749 8.99993 5.5 8.99993C5.15251 8.99993 4.81685 8.94929 4.5 8.85499Z" fill="black"/>
<path fill-rule="evenodd" clip-rule="evenodd" d="M2 5.5C2 3.567 3.567 2 5.5 2C7.433 2 9 3.567 9 5.5C9 7.433 7.433 9 5.5 9C3.567 9 2 7.433 2 5.5ZM15 5.5C15 3.567 16.567 2 18.5 2C20.433 2 22 3.567 22 5.5C22 7.433 20.433 9 18.5 9C16.567 9 15 7.433 15 5.5ZM2 18.5C2 16.567 3.567 15 5.5 15C7.433 15 9 16.567 9 18.5C9 20.433 7.433 22 5.5 22C3.567 22 2 20.433 2 18.5Z" fill="black"/>
</svg>
