<svg width="24" height="24" viewBox="0 0 24 24" fill="none" xmlns="http://www.w3.org/2000/svg">
<g opacity="0.3">
<path d="M7.40479 10.9488L10.0291 14.7422C10.0534 14.5417 10.1032 14.3174 10.2181 14.092C10.4098 13.7157 10.7158 13.4097 11.0921 13.218C11.1741 13.1762 11.2559 13.1431 11.3364 13.1166L8.90328 9.59951C8.8741 9.70061 8.83499 9.80418 8.7821 9.90799C8.59035 10.2843 8.28439 10.5903 7.90806 10.782C7.73629 10.8695 7.5652 10.9193 7.40479 10.9488Z" fill="black"/>
<path d="M9.00008 8.5H15.0001C15.0001 8.47736 15.0001 8.45465 15.0001 8.43189V6.56812C15.0001 6.54535 15.0001 6.52264 15.0001 6.5H9.00008C9.00009 6.52263 9.00009 6.54534 9.00009 6.56811V8.4319C9.00009 8.45466 9.00009 8.47737 9.00008 8.5Z" fill="black"/>
</g>
<path fill-rule="evenodd" clip-rule="evenodd" d="M4.56811 4C4.57873 4 4.58936 4.00001 4.60001 4.00001H6.40001C6.41065 4.00001 6.42128 4 6.4319 4C6.68429 3.99997 6.93008 3.99994 7.13824 4.01695C7.36683 4.03563 7.63656 4.07969 7.90799 4.21799C8.28431 4.40974 8.59027 4.7157 8.78202 5.09202C8.92032 5.36345 8.96438 5.63318 8.98306 5.86178C9.00007 6.06993 9.00004 6.31572 9.00001 6.56811C9.00001 6.57873 9.00001 6.58936 9.00001 6.60001V8.40001C9.00001 8.41065 9.00001 8.42128 9.00001 8.4319C9.00004 8.68429 9.00007 8.93008 8.98306 9.13824C8.96438 9.36683 8.92032 9.63656 8.78202 9.90799C8.59027 10.2843 8.28431 10.5903 7.90799 10.782C7.63656 10.9203 7.36683 10.9644 7.13824 10.9831C6.93008 11.0001 6.68429 11 6.4319 11C6.42128 11 6.41065 11 6.40001 11H4.60001C4.58936 11 4.57873 11 4.56811 11C4.31572 11 4.06993 11.0001 3.86178 10.9831C3.63318 10.9644 3.36345 10.9203 3.09202 10.782C2.7157 10.5903 2.40974 10.2843 2.21799 9.90799C2.07969 9.63656 2.03563 9.36683 2.01695 9.13824C1.99994 8.93008 1.99997 8.68429 2 8.4319C2 8.42128 2.00001 8.41065 2.00001 8.40001V6.60001C2.00001 6.58936 2 6.57873 2 6.56811C1.99997 6.31572 1.99994 6.06993 2.01695 5.86178C2.03563 5.63318 2.07969 5.36345 2.21799 5.09202C2.40974 4.7157 2.7157 4.40974 3.09202 4.21799C3.36345 4.07969 3.63318 4.03563 3.86178 4.01695C4.06993 3.99994 4.31572 3.99997 4.56811 4ZM17.5681 4H19.4319C19.6843 3.99997 19.9301 3.99994 20.1382 4.01695C20.3668 4.03563 20.6366 4.07969 20.908 4.21799C21.2843 4.40974 21.5903 4.7157 21.782 5.09202C21.9203 5.36345 21.9644 5.63318 21.9831 5.86178C22.0001 6.06993 22 6.31571 22 6.56809V8.43192C22 8.6843 22.0001 8.93008 21.9831 9.13824C21.9644 9.36683 21.9203 9.63656 21.782 9.90799C21.5903 10.2843 21.2843 10.5903 20.908 10.782C20.6366 10.9203 20.3668 10.9644 20.1382 10.9831C19.9301 11.0001 19.6843 11 19.4319 11H17.5681C17.3157 11 17.0699 11.0001 16.8618 10.9831C16.6332 10.9644 16.3634 10.9203 16.092 10.782C15.7157 10.5903 15.4097 10.2843 15.218 9.90799C15.0797 9.63656 15.0356 9.36683 15.0169 9.13824C14.9999 8.93007 15 8.68428 15 8.43189V6.56812C15 6.31574 14.9999 6.06994 15.0169 5.86178C15.0356 5.63318 15.0797 5.36345 15.218 5.09202C15.4097 4.7157 15.7157 4.40974 16.092 4.21799C16.3634 4.07969 16.6332 4.03563 16.8618 4.01695C17.0699 3.99994 17.3157 3.99997 17.5681 4ZM12.5681 13H14.4319C14.6843 13 14.9301 12.9999 15.1382 13.0169C15.3668 13.0356 15.6366 13.0797 15.908 13.218C16.2843 13.4097 16.5903 13.7157 16.782 14.092C16.9203 14.3634 16.9644 14.6332 16.9831 14.8618C17.0001 15.0699 17 15.3157 17 15.5681V17.4319C17 17.6843 17.0001 17.9301 16.9831 18.1382C16.9644 18.3668 16.9203 18.6366 16.782 18.908C16.5903 19.2843 16.2843 19.5903 15.908 19.782C15.6366 19.9203 15.3668 19.9644 15.1382 19.9831C14.9301 20.0001 14.6843 20 14.4319 20H12.5681C12.3157 20 12.0699 20.0001 11.8618 19.9831C11.6332 19.9644 11.3634 19.9203 11.092 19.782C10.7157 19.5903 10.4097 19.2843 10.218 18.908C10.0797 18.6366 10.0356 18.3668 10.017 18.1382C9.99994 17.9301 9.99997 17.6843 10 17.4319V15.5681C9.99997 15.3157 9.99994 15.0699 10.017 14.8618C10.0356 14.6332 10.0797 14.3634 10.218 14.092C10.4097 13.7157 10.7157 13.4097 11.092 13.218C11.3634 13.0797 11.6332 13.0356 11.8618 13.0169C12.0699 12.9999 12.3157 13 12.5681 13Z" fill="black"/>
</svg>
