<svg width="24" height="24" viewBox="0 0 24 24" fill="none" xmlns="http://www.w3.org/2000/svg">
<path d="M20.9997 20.9998L21.0068 21.0069M20.9997 15.9998L21.0068 16.0069M20.9997 10.9998L21.0068 11.0069M18.4997 13.4998L18.5068 13.5069M13.4997 18.4998L13.5068 18.5069M18.4997 18.4998L18.5068 18.5069M15.9997 15.9998L16.0068 16.0069M10.9997 20.9998L11.0068 21.0069M15.9997 20.9998L16.0068 21.0069M16.4491 9.55078C16.4476 9.48599 16.4524 9.42074 16.4637 9.35594C16.4906 9.20183 16.5729 9.04492 16.7374 8.73109C17.2702 7.71514 17.5366 7.20716 17.528 6.85215C17.5131 6.23792 17.0911 5.70873 16.4956 5.55752C16.1514 5.47013 15.5969 5.6168 14.4878 5.91016C14.1452 6.00077 13.9739 6.04608 13.8177 6.03799C13.5499 6.02411 13.2988 5.9032 13.1209 5.70243C13.0172 5.58534 12.9458 5.42317 12.8031 5.09883C12.341 4.04885 12.1099 3.52385 11.827 3.30925C11.3375 2.93793 10.6606 2.93793 10.1711 3.30925C9.88815 3.52385 9.65709 4.04885 9.19497 5.09883C9.05222 5.42317 8.98084 5.58534 8.87711 5.70243C8.69925 5.9032 8.44819 6.02411 8.18032 6.03799C8.0241 6.04608 7.85281 6.00077 7.51023 5.91016C6.40119 5.6168 5.84667 5.47013 5.50248 5.55752C4.90697 5.70873 4.48496 6.23792 4.47005 6.85215C4.46144 7.20716 4.72783 7.71514 5.26061 8.73109C5.42519 9.04492 5.50747 9.20183 5.53435 9.35594C5.58042 9.62018 5.51841 9.89185 5.36225 10.1099C5.27118 10.2371 5.12896 10.3428 4.84451 10.5541C3.92369 11.2383 3.46327 11.5804 3.317 11.904C3.06393 12.4639 3.21454 13.1237 3.68547 13.5184C3.95766 13.7464 4.5209 13.8549 5.64739 14.0718C5.99537 14.1388 6.16935 14.1723 6.30659 14.2473C6.54191 14.3761 6.71565 14.5939 6.78878 14.852C6.83144 15.0025 6.82538 15.1796 6.81327 15.5337C6.77405 16.6802 6.75445 17.2535 6.91624 17.5696C7.09068 17.9104 7.39322 18.1529 7.74217 18.2577M12.9997 10.9998C12.9997 12.1044 12.1043 12.9998 10.9997 12.9998C9.89517 12.9998 8.99974 12.1044 8.99974 10.9998C8.99974 9.89528 9.89517 8.99985 10.9997 8.99985C12.1043 8.99985 12.9997 9.89528 12.9997 10.9998Z" stroke="black" stroke-width="2" stroke-linecap="round"/>
</svg>
