<svg width="24" height="24" viewBox="0 0 24 24" fill="none" xmlns="http://www.w3.org/2000/svg">
<path d="M3 10.9998L5.82341 9.78977C6.06208 9.68749 6.18142 9.63634 6.2562 9.55101C6.32206 9.47587 6.36389 9.38272 6.3763 9.28358C6.39039 9.17099 6.34934 9.04782 6.26722 8.80148L5.65307 6.95902C5.4418 6.32521 5.33617 6.00831 5.41069 5.79315C5.47559 5.6058 5.62012 5.45682 5.80542 5.38628C6.01822 5.30527 6.33818 5.40126 6.9781 5.59324L8.6504 6.09493C9.12832 6.2383 9.36728 6.30999 9.58513 6.2789C9.77707 6.25151 9.95691 6.16891 10.1028 6.04116C10.2683 5.89616 10.3696 5.66818 10.5723 5.21223L11.0204 4.20392C11.3306 3.50585 11.4858 3.15682 11.7019 3.04944C11.8897 2.95618 12.1103 2.95618 12.2981 3.04944C12.5142 3.15682 12.6694 3.50585 12.9796 4.20392L13.4277 5.21223C13.6304 5.66816 13.7317 5.89616 13.8972 6.04116C14.0431 6.16891 14.2229 6.25151 14.4149 6.2789C14.6327 6.30999 14.8717 6.2383 15.3496 6.09493L17.0219 5.59324C17.6618 5.40126 17.9818 5.30527 18.1946 5.38628C18.3799 5.45682 18.5244 5.6058 18.5893 5.79315C18.6638 6.00831 18.5582 6.32521 18.3469 6.95902L17.7328 8.80148C17.6507 9.04782 17.6096 9.17099 17.6237 9.28358C17.6361 9.38272 17.6779 9.47587 17.7438 9.55101C17.8186 9.63634 17.9379 9.68749 18.1766 9.78977L21 10.9998M10 10.9998C10 9.89524 10.8954 8.99981 12 8.99981C13.1046 8.99981 14 9.89524 14 10.9998M13 20.9998H21M17 14.9998H21M5 14.9998H13M3 17.9998H19M5 20.9998H9" stroke="black" stroke-width="2" stroke-linecap="round" stroke-linejoin="round"/>
</svg>
