<svg width="24" height="24" viewBox="0 0 24 24" fill="none" xmlns="http://www.w3.org/2000/svg">
<g opacity="0.3">
<path d="M4 14.8804L8.81069 18.729C9.19694 19.038 9.539 19.3117 9.82911 19.5035C10.1124 19.6908 10.5135 19.9188 10.998 19.9193C11.6071 19.92 12.1833 19.643 12.5632 19.167C12.8655 18.7883 12.938 18.3328 12.9687 17.9945C13.0002 17.6482 13.0002 17.2101 13.0002 16.7155V7.28446C13.0002 6.7898 13.0002 6.35172 12.9687 6.00536C12.938 5.6671 12.8655 5.21155 12.5632 4.83287C12.1833 4.35684 11.6071 4.07991 10.998 4.08057C10.5135 4.08109 10.1124 4.30905 9.82911 4.49638C9.53899 4.68818 9.19693 4.96186 8.81067 5.27091L4 9.11944V14.8804Z" fill="black"/>
<path d="M15 16.4809L17.8101 18.729C18.1964 19.038 18.5385 19.3117 18.8286 19.5035C19.1119 19.6908 19.5129 19.9188 19.9975 19.9193C20.6065 19.92 21.1827 19.643 21.5627 19.167C21.865 18.7883 21.9375 18.3328 21.9682 17.9945C21.9997 17.6482 21.9996 17.2101 21.9996 16.7154V7.28446C21.9996 6.78979 21.9997 6.35173 21.9682 6.00536C21.9375 5.6671 21.865 5.21155 21.5627 4.83287C21.1827 4.35684 20.6065 4.07991 19.9975 4.08057C19.5129 4.08109 19.1119 4.30905 18.8286 4.49638C18.5384 4.68818 18.1964 4.96186 17.8101 5.27091L15 7.51901V16.4809Z" fill="black"/>
</g>
<path d="M4 4.99976C4 4.44747 3.55228 3.99976 3 3.99976C2.44772 3.99976 2 4.44747 2 4.99976V18.9998C2 19.552 2.44772 19.9998 3 19.9998C3.55228 19.9998 4 19.552 4 18.9998V4.99976Z" fill="black"/>
</svg>
