<svg width="24" height="24" viewBox="0 0 24 24" fill="none" xmlns="http://www.w3.org/2000/svg">
<path fill-rule="evenodd" clip-rule="evenodd" d="M7 4C7.55228 4 8 4.44772 8 5V19C8 19.5523 7.55228 20 7 20C6.44772 20 6 19.5523 6 19V5C6 4.44772 6.44772 4 7 4Z" fill="black"/>
<path opacity="0.3" fill-rule="evenodd" clip-rule="evenodd" d="M8 13.9881C8.06704 14.0597 8.13637 14.1289 8.20706 14.1964C8.53018 14.5051 8.95954 14.8485 9.46448 15.2525L13.8101 18.729C14.1964 19.038 14.5384 19.3117 14.8286 19.5035C15.1119 19.6908 15.5129 19.9188 15.9975 19.9193C16.6065 19.92 17.1827 19.643 17.5627 19.167C17.865 18.7883 17.9375 18.3328 17.9682 17.9945C17.9997 17.6482 17.9996 17.2101 17.9996 16.7154V7.28448C17.9996 6.7898 17.9997 6.35173 17.9682 6.00536C17.9375 5.66709 17.865 5.21154 17.5627 4.83286C17.1827 4.35684 16.6065 4.07991 15.9975 4.08057C15.5129 4.08109 15.1119 4.30905 14.8286 4.49637C14.5384 4.68818 14.1964 4.96185 13.8101 5.2709L9.46448 8.74742C8.95954 9.15135 8.53018 9.49481 8.20706 9.80345C8.13637 9.87097 8.06704 9.9402 8 10.0117V13.9881Z" fill="black"/>
</svg>
