<svg width="24" height="24" viewBox="0 0 24 24" fill="none" xmlns="http://www.w3.org/2000/svg">
<path opacity="0.3" d="M17.8101 18.729L15 16.4809V7.51901L17.8101 5.27091C18.1964 4.96186 18.5384 4.68818 18.8286 4.49637C19.1119 4.30905 19.5129 4.08109 19.9975 4.08057C20.6065 4.07991 21.1827 4.35684 21.5627 4.83287C21.865 5.21154 21.9375 5.66709 21.9682 6.00536C21.9997 6.35173 21.9996 6.78978 21.9996 7.28446V16.7154C21.9996 17.2101 21.9997 17.6482 21.9682 17.9945C21.9375 18.3328 21.865 18.7883 21.5627 19.167C21.1827 19.643 20.6065 19.92 19.9975 19.9193C19.5129 19.9188 19.1119 19.6908 18.8286 19.5035C18.5385 19.3117 18.1964 19.038 17.8101 18.729Z" fill="black"/>
<path d="M2.19307 12.9471C1.96429 12.3364 1.96429 11.6635 2.19307 11.0528C2.3521 10.6283 2.63036 10.3039 2.92288 10.0245C3.20239 9.75748 3.57185 9.46193 3.99757 9.12139L8.81067 5.27091C9.19693 4.96186 9.53899 4.68818 9.82911 4.49637C10.1124 4.30905 10.5135 4.08109 10.998 4.08057C11.6071 4.07991 12.1833 4.35684 12.5632 4.83286C12.8655 5.21154 12.938 5.66709 12.9687 6.00536C13.0002 6.35173 13.0002 6.78978 13.0002 7.28446V16.7154C13.0002 17.2101 13.0002 17.6482 12.9687 17.9945C12.938 18.3328 12.8655 18.7883 12.5632 19.167C12.1833 19.643 11.6071 19.92 10.998 19.9193C10.5135 19.9188 10.1124 19.6908 9.82911 19.5035C9.53899 19.3117 9.19695 19.038 8.81069 18.729L3.99761 14.8785C3.57188 14.538 3.20239 14.2424 2.92288 13.9754C2.63036 13.696 2.3521 13.3716 2.19307 12.9471Z" fill="black"/>
</svg>
