<svg width="24" height="24" viewBox="0 0 24 24" fill="none" xmlns="http://www.w3.org/2000/svg">
<path opacity="0.3" d="M5.41421 20.0001H7.5C8.05228 20.0001 8.5 20.4478 8.5 21.0001C8.5 21.5524 8.05228 22.0001 7.5 22.0001H3C2.73478 22.0001 2.48043 21.8947 2.29289 21.7072C2.10536 21.5196 2 21.2653 2 21.0001V16.5001C2 15.9478 2.44772 15.5001 3 15.5001C3.55229 15.5001 4 15.9478 4 16.5001L4 18.5859L11.2929 11.293L12.7071 12.7072L5.41421 20.0001Z" fill="black"/>
<path d="M16.5001 4C15.9478 4 15.5001 3.55228 15.5001 3C15.5001 2.44772 15.9478 2 16.5001 2H21.0001C21.5524 2 22.0001 2.44772 22.0001 3V7.5C22.0001 8.05228 21.5524 8.5 21.0001 8.5C20.4478 8.5 20.0001 8.05228 20.0001 7.5V5.41421L12.7072 12.7071L11.293 11.2929L18.5859 4H16.5001Z" fill="black"/>
</svg>
