<svg width="24" height="24" viewBox="0 0 24 24" fill="none" xmlns="http://www.w3.org/2000/svg">
<path fill-rule="evenodd" clip-rule="evenodd" d="M17 4C16.4477 4 16 4.44772 16 5V19C16 19.5523 16.4477 20 17 20C17.5523 20 18 19.5523 18 19V5C18 4.44772 17.5523 4 17 4Z" fill="black"/>
<path opacity="0.3" fill-rule="evenodd" clip-rule="evenodd" d="M15.9996 13.9881C15.9326 14.0597 15.8632 14.1289 15.7926 14.1964C15.4694 14.5051 15.0401 14.8485 14.5351 15.2525L10.1895 18.729C9.80323 19.038 9.46117 19.3117 9.17105 19.5035C8.88771 19.6908 8.48669 19.9188 8.00216 19.9193C7.39308 19.92 6.81689 19.643 6.43692 19.167C6.13465 18.7883 6.06214 18.3328 6.03141 17.9945C5.99995 17.6482 5.99997 17.2101 6 16.7154V7.28448C5.99997 6.7898 5.99995 6.35173 6.03141 6.00536C6.06214 5.66709 6.13465 5.21154 6.43692 4.83286C6.81689 4.35684 7.39308 4.07991 8.00216 4.08057C8.48669 4.08109 8.88771 4.30905 9.17105 4.49637C9.46117 4.68818 9.80322 4.96185 10.1895 5.2709L14.5351 8.74742C15.0401 9.15135 15.4694 9.49481 15.7926 9.80345C15.8632 9.87097 15.9326 9.9402 15.9996 10.0117V13.9881Z" fill="black"/>
</svg>
