<svg width="24" height="24" viewBox="0 0 24 24" fill="none" xmlns="http://www.w3.org/2000/svg">
<path d="M19 8C19.5523 8 20 8.44772 20 9V11H22C22.5523 11 23 11.4477 23 12C23 12.5523 22.5523 13 22 13H20V15C20 15.5523 19.5523 16 19 16C18.4477 16 18 15.5523 18 15V13H16C15.4477 13 15 12.5523 15 12C15 11.4477 15.4477 11 16 11H18V9C18 8.44772 18.4477 8 19 8Z" fill="black"/>
<path opacity="0.3" fill-rule="evenodd" clip-rule="evenodd" d="M12.6137 3.37629C12.9217 3.71762 12.9638 4.149 12.9803 4.34096C13.0001 4.57233 13 4.86441 13 5.1713V18.8289C13 19.1358 13.0001 19.4279 12.9803 19.6592C12.9638 19.8512 12.9217 20.2826 12.6137 20.6239C12.2792 20.9947 11.7821 21.1747 11.2877 21.104C10.8326 21.0389 10.5241 20.7345 10.3885 20.5976C10.2252 20.4325 10.0382 20.2081 9.84179 19.9723L7.19129 16.7917C6.80395 16.3269 6.72156 16.2406 6.63878 16.1823C6.54301 16.1149 6.43614 16.0649 6.32306 16.0344C6.2253 16.0081 6.10625 16.0001 5.50121 16.0001L4.56812 16.0001C4.31574 16.0001 4.06994 16.0002 3.86178 15.9832C3.63318 15.9645 3.36345 15.9204 3.09202 15.7821C2.7157 15.5904 2.40974 15.2844 2.21799 14.9081C2.0797 14.6367 2.03563 14.3669 2.01695 14.1383C1.99994 13.9302 1.99997 13.6844 2 13.432L2.00001 10.6001C2.00001 10.5895 2 10.5788 2 10.5682C1.99997 10.3158 1.99994 10.07 2.01695 9.86187C2.03563 9.63328 2.07969 9.36354 2.21799 9.09212C2.40974 8.71579 2.7157 8.40983 3.09202 8.21809C3.36345 8.07979 3.63318 8.03572 3.86178 8.01704C4.06993 8.00004 4.31572 8.00007 4.56811 8.0001C4.57873 8.0001 4.58936 8.0001 4.60001 8.0001H5.50121C6.10625 8.0001 6.2253 7.99206 6.32306 7.96576C6.43614 7.93534 6.54301 7.88528 6.63878 7.81789C6.72156 7.75963 6.80395 7.67331 7.19129 7.2085L9.84182 4.02787C10.0383 3.79209 10.2252 3.56769 10.3886 3.40263C10.5241 3.26568 10.8326 2.96128 11.2877 2.89622C11.7821 2.82555 12.2792 3.00552 12.6137 3.37629Z" fill="black"/>
</svg>
