<svg width="24" height="24" viewBox="0 0 24 24" fill="none" xmlns="http://www.w3.org/2000/svg">
<path opacity="0.14" d="M18.364 5.63604C21.8787 9.15076 21.8787 14.8492 18.364 18.364C14.8492 21.8787 9.15076 21.8787 5.63604 18.364C2.12132 14.8492 2.12132 9.15076 5.63604 5.63604C9.15076 2.12132 14.8492 2.12132 18.364 5.63604Z" fill="black"/>
<path d="M6.99864 11.25V10.25C6.44636 10.25 5.99864 10.6977 5.99864 11.25H6.99864ZM16.9986 11.25H17.9986C17.9986 10.6977 17.5509 10.25 16.9986 10.25V11.25ZM16.9986 12.75V13.75C17.5509 13.75 17.9986 13.3023 17.9986 12.75H16.9986ZM6.99864 12.75H5.99864C5.99864 13.3023 6.44636 13.75 6.99864 13.75V12.75ZM14.9986 6.5C14.9986 5.94772 14.5509 5.5 13.9986 5.5C13.4464 5.5 12.9986 5.94772 12.9986 6.5H14.9986ZM15.9986 9C15.9986 9.55228 16.4464 10 16.9986 10C17.5509 10 17.9986 9.55228 17.9986 9H15.9986ZM17.6569 6.34315C20.781 9.46734 20.781 14.5327 17.6569 17.6569L19.0711 19.0711C22.9763 15.1658 22.9763 8.83418 19.0711 4.92893L17.6569 6.34315ZM17.6569 17.6569C14.5327 20.781 9.46734 20.781 6.34315 17.6569L4.92893 19.0711C8.83418 22.9763 15.1658 22.9763 19.0711 19.0711L17.6569 17.6569ZM6.34315 17.6569C3.21895 14.5327 3.21895 9.46734 6.34315 6.34315L4.92893 4.92893C1.02369 8.83418 1.02369 15.1658 4.92893 19.0711L6.34315 17.6569ZM6.34315 6.34315C9.46734 3.21895 14.5327 3.21895 17.6569 6.34315L19.0711 4.92893C15.1658 1.02369 8.83418 1.02369 4.92893 4.92893L6.34315 6.34315ZM19.0711 17.6569L6.34315 4.92893L4.92893 6.34315L17.6569 19.0711L19.0711 17.6569ZM6.99864 12.25H16.9986V10.25H6.99864V12.25ZM15.9986 11.25V12.75H17.9986V11.25H15.9986ZM7.99864 12.75V11.25H5.99864V12.75H7.99864ZM15.9986 7H15.4986V9H15.9986V7ZM15.4986 7C15.2225 7 14.9986 6.77614 14.9986 6.5H12.9986C12.9986 7.88071 14.1179 9 15.4986 9V7ZM17.9986 9C17.9986 7.89543 17.1032 7 15.9986 7V9H17.9986ZM16.9986 11.75H6.99864V13.75H16.9986V11.75Z" fill="black"/>
</svg>
