<svg width="24" height="24" viewBox="0 0 24 24" fill="none" xmlns="http://www.w3.org/2000/svg">
<path opacity="0.14" d="M9.2 13H14.8C15.9201 13 16.4802 13 16.908 13.218C17.2843 13.4097 17.5903 13.7157 17.782 14.092C18 14.5198 18 15.0799 18 16.2V18H6V16.2C6 15.0799 6 14.5198 6.21799 14.092C6.40973 13.7157 6.71569 13.4097 7.09202 13.218C7.51984 13 8.0799 13 9.2 13Z" fill="black"/>
<path d="M6.05132 12.6837C5.87667 13.2076 6.15983 13.774 6.68377 13.9486C7.20772 14.1233 7.77404 13.8401 7.94868 13.3161L6.05132 12.6837ZM7.27064 12.188L6.32196 11.8718V11.8718L7.27064 12.188ZM16.7294 12.188L15.7807 12.5042L15.7807 12.5042L16.7294 12.188ZM16.0513 13.3161C16.226 13.8401 16.7923 14.1233 17.3162 13.9486C17.8402 13.774 18.1233 13.2076 17.9487 12.6837L16.0513 13.3161ZM15.2905 10.1387L15.6565 9.20808L15.2905 10.1387ZM16.0927 10.7169L15.3256 11.3584L15.3256 11.3584L16.0927 10.7169ZM7.90729 10.7169L8.6744 11.3584L7.90729 10.7169ZM8.70951 10.1387L9.07551 11.0693L8.70951 10.1387ZM17 18.9999C17 19.5522 17.4477 19.9999 18 19.9999C18.5523 19.9999 19 19.5522 19 18.9999H17ZM5 18.9999C5 19.5522 5.44772 19.9999 6 19.9999C6.55228 19.9999 7 19.5522 7 18.9999H5ZM16.908 13.2179L16.454 14.1089H16.454L16.908 13.2179ZM17.782 14.0919L16.891 14.5459L17.782 14.0919ZM7.09202 13.2179L6.63803 12.3269L7.09202 13.2179ZM6.21799 14.0919L5.32698 13.6379L6.21799 14.0919ZM6 16.9999C5.44772 16.9999 5 17.4476 5 17.9999C5 18.5522 5.44772 18.9999 6 18.9999V16.9999ZM18 18.9999C18.5523 18.9999 19 18.5522 19 17.9999C19 17.4476 18.5523 16.9999 18 16.9999V18.9999ZM9 14.4999C8.44772 14.4999 8 14.9476 8 15.4999C8 16.0522 8.44772 16.4999 9 16.4999V14.4999ZM9.01 16.4999C9.56228 16.4999 10.01 16.0522 10.01 15.4999C10.01 14.9476 9.56228 14.4999 9.01 14.4999V16.4999ZM15 14.4999C14.4477 14.4999 14 14.9476 14 15.4999C14 16.0522 14.4477 16.4999 15 16.4999V14.4999ZM15.01 16.4999C15.5623 16.4999 16.01 16.0522 16.01 15.4999C16.01 14.9476 15.5623 14.4999 15.01 14.4999V16.4999ZM2.59386 8.08611C2.08918 8.31041 1.86188 8.90137 2.08619 9.40606C2.31049 9.91074 2.90145 10.138 3.40614 9.91373L2.59386 8.08611ZM11.5939 5.18043L11.1877 4.26661L11.1877 4.26662L11.5939 5.18043ZM12.4061 5.18043L12 6.09424L12 6.09424L12.4061 5.18043ZM20.5939 9.91373C21.0985 10.138 21.6895 9.91074 21.9138 9.40606C22.1381 8.90137 21.9108 8.31041 21.4061 8.08611L20.5939 9.91373ZM7.94868 13.3161L8.21933 12.5042L6.32196 11.8718L6.05132 12.6837L7.94868 13.3161ZM10.3064 10.9999H13.6936V8.99992H10.3064V10.9999ZM15.7807 12.5042L16.0513 13.3161L17.9487 12.6837L17.678 11.8718L15.7807 12.5042ZM13.6936 10.9999C14.6083 10.9999 14.7908 11.0167 14.9245 11.0693L15.6565 9.20808C15.0845 8.98311 14.4376 8.99992 13.6936 8.99992V10.9999ZM17.678 11.8718C17.4427 11.1659 17.2541 10.5469 16.8598 10.0754L15.3256 11.3584C15.4178 11.4686 15.4914 11.6365 15.7807 12.5042L17.678 11.8718ZM14.9245 11.0693C15.0803 11.1306 15.2182 11.23 15.3256 11.3584L16.8598 10.0754C16.5376 9.69012 16.1239 9.3919 15.6565 9.20808L14.9245 11.0693ZM8.21933 12.5042C8.50858 11.6365 8.58224 11.4686 8.6744 11.3584L7.14017 10.0754C6.74586 10.5469 6.55725 11.1659 6.32196 11.8718L8.21933 12.5042ZM10.3064 8.99992C9.56237 8.99992 8.91551 8.98311 8.3435 9.20808L9.07551 11.0693C9.20921 11.0167 9.39173 10.9999 10.3064 10.9999V8.99992ZM8.6744 11.3584C8.7818 11.23 8.91972 11.1306 9.07551 11.0693L8.3435 9.20808C7.87612 9.3919 7.46236 9.69012 7.14017 10.0754L8.6744 11.3584ZM9.2 13.9999H14.8V11.9999H9.2V13.9999ZM17 16.1999V18.9999H19V16.1999H17ZM7 18.9999V16.1999H5V18.9999H7ZM14.8 13.9999C15.3766 13.9999 15.7488 14.0007 16.0322 14.0238C16.3038 14.046 16.4045 14.0837 16.454 14.1089L17.362 12.3269C16.9836 12.1341 16.5904 12.0628 16.195 12.0305C15.8114 11.9991 15.3436 11.9999 14.8 11.9999V13.9999ZM19 16.1999C19 15.6564 19.0008 15.1886 18.9694 14.8049C18.9371 14.4095 18.8658 14.0163 18.673 13.6379L16.891 14.5459C16.9162 14.5954 16.9539 14.6961 16.9761 14.9678C16.9992 15.2511 17 15.6234 17 16.1999H19ZM16.454 14.1089C16.6422 14.2048 16.7951 14.3578 16.891 14.5459L18.673 13.6379C18.3854 13.0735 17.9265 12.6145 17.362 12.3269L16.454 14.1089ZM9.2 11.9999C8.65645 11.9999 8.18864 11.9991 7.80497 12.0305C7.40963 12.0628 7.01641 12.1341 6.63803 12.3269L7.54601 14.1089C7.59545 14.0837 7.69617 14.046 7.96784 14.0238C8.25117 14.0007 8.62345 13.9999 9.2 13.9999V11.9999ZM7 16.1999C7 15.6234 7.00078 15.2511 7.02393 14.9678C7.04612 14.6961 7.0838 14.5954 7.10899 14.5459L5.32698 13.6379C5.13419 14.0163 5.06287 14.4095 5.03057 14.8049C4.99922 15.1886 5 15.6564 5 16.1999H7ZM6.63803 12.3269C6.07354 12.6145 5.6146 13.0735 5.32698 13.6379L7.10899 14.5459C7.20487 14.3578 7.35785 14.2048 7.54601 14.1089L6.63803 12.3269ZM6 18.9999H18V16.9999H6V18.9999ZM9 16.4999H9.01V14.4999H9V16.4999ZM15 16.4999H15.01V14.4999H15V16.4999ZM3.40614 9.91373L12 6.09424L11.1877 4.26662L2.59386 8.08611L3.40614 9.91373ZM12 6.09424L20.5939 9.91373L21.4061 8.08611L12.8123 4.26662L12 6.09424ZM12 6.09424L12 6.09424L12.8123 4.26662C12.2951 4.03678 11.7049 4.03678 11.1877 4.26661L12 6.09424Z" fill="black"/>
</svg>
