<svg width="24" height="24" viewBox="0 0 24 24" fill="none" xmlns="http://www.w3.org/2000/svg">
<path d="M4 6L4.27064 5.18807C4.53292 4.40125 4.66405 4.00784 4.90729 3.71698C5.12208 3.46013 5.39792 3.26132 5.70951 3.13878C6.06236 3 6.47705 3 7.30643 3H10.6936C11.523 3 11.9376 3 12.2905 3.13878C12.6021 3.26132 12.8779 3.46013 13.0927 3.71698C13.3359 4.00784 13.4671 4.40125 13.7294 5.18807L14 6M3 12V9.2C3 8.07989 3 7.51984 3.21799 7.09202C3.40973 6.71569 3.71569 6.40973 4.09202 6.21799C4.51984 6 5.0799 6 6.2 6H11.8C12.9201 6 13.4802 6 13.908 6.21799C14.2843 6.40973 14.5903 6.71569 14.782 7.09202M3 11H8M6 8.5H6.01M12 8.5H12.01M10 15L10.2706 14.1881C10.5329 13.4013 10.6641 13.0078 10.9073 12.717C11.1221 12.4601 11.3979 12.2613 11.7095 12.1388C12.0624 12 12.477 12 13.3064 12H16.6936C17.523 12 17.9376 12 18.2905 12.1388C18.6021 12.2613 18.8779 12.4601 19.0927 12.717C19.3359 13.0078 19.4671 13.4013 19.7294 14.1881L20 15M21 21V18.2C21 17.0799 21 16.5198 20.782 16.092C20.5903 15.7157 20.2843 15.4097 19.908 15.218C19.4802 15 18.9201 15 17.8 15H12.2C11.0799 15 10.5198 15 10.092 15.218C9.71569 15.4097 9.40973 15.7157 9.21799 16.092C9 16.5198 9 17.0799 9 18.2V21M9 20H21M12 17.5H12.01M18 17.5H18.01" stroke="black" stroke-width="2" stroke-linecap="round" stroke-linejoin="round"/>
<g opacity="0.14">
<path d="M12.2 15H17.8C18.9201 15 19.4802 15 19.908 15.218C20.2843 15.4097 20.5903 15.7157 20.782 16.092C21 16.5198 21 17.0799 21 18.2V20H9V18.2C9 17.0799 9 16.5198 9.21799 16.092C9.40973 15.7157 9.71569 15.4097 10.092 15.218C10.5198 15 11.0799 15 12.2 15Z" fill="black"/>
<path d="M6.2 6H11.8C12.9201 6 13.4802 6 13.908 6.21799C14.2843 6.40973 14.5903 6.71569 14.782 7.09202C15 7.51984 15 8.0799 15 9.2V11H3V9.2C3 8.0799 3 7.51984 3.21799 7.09202C3.40973 6.71569 3.71569 6.40973 4.09202 6.21799C4.51984 6 5.0799 6 6.2 6Z" fill="black"/>
</g>
</svg>
