<svg width="24" height="24" viewBox="0 0 24 24" fill="none" xmlns="http://www.w3.org/2000/svg">
<g opacity="0.14">
<path d="M10 19C10 20.1046 9.10457 21 8 21C6.89543 21 6 20.1046 6 19C6 17.8954 6.89543 17 8 17C9.10457 17 10 17.8954 10 19Z" fill="black"/>
<path d="M20 19C20 20.1046 19.1046 21 18 21C16.8954 21 16 20.1046 16 19C16 17.8954 16.8954 17 18 17C19.1046 17 20 17.8954 20 19Z" fill="black"/>
<path d="M21 10.8V9.2C21 8.07989 21 7.51984 20.782 7.09202C20.5903 6.71569 20.2843 6.40973 19.908 6.21799C19.4802 6 18.9201 6 17.8 6H17H11H10.2C9.07989 6 8.51984 6 8.09202 6.21799C7.71569 6.40973 7.40973 6.71569 7.21799 7.09202C7 7.51984 7 8.0799 7 9.2V10.8C7 11.9201 7 12.4802 7.21799 12.908C7.40973 13.2843 7.71569 13.5903 8.09202 13.782C8.51984 14 9.0799 14 10.2 14H11H17H17.8C18.9201 14 19.4802 14 19.908 13.782C20.2843 13.5903 20.5903 13.2843 20.782 12.908C21 12.4802 21 11.9201 21 10.8Z" fill="black"/>
</g>
<path d="M22 18C22.5523 18 23 17.5523 23 17C23 16.4477 22.5523 16 22 16V18ZM4 15H3H4ZM2 2C1.44772 2 1 2.44772 1 3C1 3.55228 1.44772 4 2 4L2 2ZM8.09202 13.782L8.54601 12.891L8.09202 13.782ZM7.21799 12.908L8.10899 12.454L7.21799 12.908ZM20.782 12.908L19.891 12.454L20.782 12.908ZM19.908 13.782L19.454 12.891L19.908 13.782ZM19.908 6.21799L19.454 7.10899L19.908 6.21799ZM20.782 7.09202L19.891 7.54601L20.782 7.09202ZM8.09202 6.21799L8.54601 7.10899L8.09202 6.21799ZM7.21799 7.09202L8.10899 7.54601L7.21799 7.09202ZM16.181 3.16349L16.635 2.27248V2.27248L16.181 3.16349ZM16.8365 3.81901L15.9455 4.273V4.273L16.8365 3.81901ZM11.819 3.16349L12.273 4.0545L11.819 3.16349ZM11.1635 3.81901L12.0545 4.273L11.1635 3.81901ZM10 14C10 14.5523 10.4477 15 11 15C11.5523 15 12 14.5523 12 14H10ZM16 14C16 14.5523 16.4477 15 17 15C17.5523 15 18 14.5523 18 14H16ZM9 19C9 19.5523 8.55228 20 8 20V22C9.65685 22 11 20.6569 11 19H9ZM8 20C7.44772 20 7 19.5523 7 19H5C5 20.6569 6.34315 22 8 22V20ZM7 19C7 18.4477 7.44772 18 8 18V16C6.34315 16 5 17.3431 5 19H7ZM8 18C8.55228 18 9 18.4477 9 19H11C11 17.3431 9.65685 16 8 16V18ZM19 19C19 19.5523 18.5523 20 18 20V22C19.6569 22 21 20.6569 21 19H19ZM18 20C17.4477 20 17 19.5523 17 19H15C15 20.6569 16.3431 22 18 22V20ZM17 19C17 18.4477 17.4477 18 18 18V16C16.3431 16 15 17.3431 15 19H17ZM18 18C18.5523 18 19 18.4477 19 19H21C21 17.3431 19.6569 16 18 16V18ZM22 16H6V18H22V16ZM5 15V5H3V15H5ZM5 5C5 3.34315 3.65685 2 2 2L2 4C2.55228 4 3 4.44772 3 5H5ZM6 16C5.44772 16 5 15.5523 5 15H3C3 16.6569 4.34315 18 6 18V16ZM10.2 7H17.8V5H10.2V7ZM20 9.2V10.8H22V9.2H20ZM17.8 13H10.2V15H17.8V13ZM8 10.8V9.2H6V10.8H8ZM10.2 13C9.62345 13 9.25117 12.9992 8.96784 12.9761C8.69617 12.9539 8.59545 12.9162 8.54601 12.891L7.63803 14.673C8.01641 14.8658 8.40963 14.9371 8.80497 14.9694C9.18864 15.0008 9.65645 15 10.2 15V13ZM6 10.8C6 11.3436 5.99922 11.8114 6.03057 12.195C6.06287 12.5904 6.13419 12.9836 6.32698 13.362L8.10899 12.454C8.0838 12.4045 8.04612 12.3038 8.02393 12.0322C8.00078 11.7488 8 11.3766 8 10.8H6ZM8.54601 12.891C8.35785 12.7951 8.20487 12.6422 8.10899 12.454L6.32698 13.362C6.6146 13.9265 7.07354 14.3854 7.63803 14.673L8.54601 12.891ZM20 10.8C20 11.3766 19.9992 11.7488 19.9761 12.0322C19.9539 12.3038 19.9162 12.4045 19.891 12.454L21.673 13.362C21.8658 12.9836 21.9371 12.5904 21.9694 12.195C22.0008 11.8114 22 11.3436 22 10.8H20ZM17.8 15C18.3436 15 18.8114 15.0008 19.195 14.9694C19.5904 14.9371 19.9836 14.8658 20.362 14.673L19.454 12.891C19.4045 12.9162 19.3038 12.9539 19.0322 12.9761C18.7488 12.9992 18.3766 13 17.8 13V15ZM19.891 12.454C19.7951 12.6422 19.6422 12.7951 19.454 12.891L20.362 14.673C20.9265 14.3854 21.3854 13.9265 21.673 13.362L19.891 12.454ZM17.8 7C18.3766 7 18.7488 7.00078 19.0322 7.02393C19.3038 7.04612 19.4045 7.0838 19.454 7.10899L20.362 5.32698C19.9836 5.13419 19.5904 5.06287 19.195 5.03057C18.8114 4.99922 18.3436 5 17.8 5V7ZM22 9.2C22 8.65645 22.0008 8.18864 21.9694 7.80497C21.9371 7.40963 21.8658 7.01641 21.673 6.63803L19.891 7.54601C19.9162 7.59545 19.9539 7.69617 19.9761 7.96784C19.9992 8.25117 20 8.62345 20 9.2H22ZM19.454 7.10899C19.6422 7.20487 19.7951 7.35785 19.891 7.54601L21.673 6.63803C21.3854 6.07354 20.9265 5.6146 20.362 5.32698L19.454 7.10899ZM10.2 5C9.65645 5 9.18864 4.99922 8.80497 5.03057C8.40963 5.06287 8.01641 5.13419 7.63803 5.32698L8.54601 7.10899C8.59545 7.0838 8.69617 7.04612 8.96784 7.02393C9.25117 7.00078 9.62345 7 10.2 7V5ZM8 9.2C8 8.62345 8.00078 8.25117 8.02393 7.96784C8.04612 7.69617 8.0838 7.59545 8.10899 7.54601L6.32698 6.63803C6.13419 7.01641 6.06287 7.40963 6.03057 7.80497C5.99922 8.18864 6 8.65645 6 9.2H8ZM7.63803 5.32698C7.07354 5.6146 6.6146 6.07354 6.32698 6.63803L8.10899 7.54601C8.20487 7.35785 8.35785 7.20487 8.54601 7.10899L7.63803 5.32698ZM13.4 4H14.6V2H13.4V4ZM14.6 4C15.0365 4 15.3038 4.00078 15.5038 4.01712C15.5969 4.02473 15.6533 4.03429 15.6875 4.04235C15.7038 4.04618 15.7138 4.04939 15.7192 4.05133C15.7244 4.05318 15.7266 4.05429 15.727 4.0545L16.635 2.27248C16.3101 2.10694 15.9786 2.04925 15.6666 2.02376C15.3663 1.99922 15.0035 2 14.6 2V4ZM18 5.4C18 4.99646 18.0008 4.63367 17.9762 4.33337C17.9508 4.0214 17.8931 3.68993 17.7275 3.36502L15.9455 4.273C15.9457 4.27341 15.9468 4.27559 15.9487 4.28079C15.9506 4.2862 15.9538 4.29622 15.9577 4.3125C15.9657 4.34673 15.9753 4.40308 15.9829 4.49623C15.9992 4.6962 16 4.96346 16 5.4H18ZM15.727 4.0545C15.8211 4.10243 15.8976 4.17892 15.9455 4.273L17.7275 3.36502C17.4878 2.89462 17.1054 2.51217 16.635 2.27248L15.727 4.0545ZM13.4 2C12.9965 2 12.6337 1.99922 12.3334 2.02376C12.0214 2.04925 11.6899 2.10694 11.365 2.27248L12.273 4.0545C12.2734 4.05429 12.2756 4.05318 12.2808 4.05133C12.2862 4.04939 12.2962 4.04618 12.3125 4.04235C12.3467 4.03429 12.4031 4.02473 12.4962 4.01712C12.6962 4.00078 12.9635 4 13.4 4V2ZM12 5.4C12 4.96346 12.0008 4.6962 12.0171 4.49623C12.0247 4.40308 12.0343 4.34673 12.0423 4.3125C12.0462 4.29622 12.0494 4.2862 12.0513 4.28079C12.0532 4.27559 12.0543 4.27341 12.0545 4.273L10.2725 3.36502C10.1069 3.68993 10.0492 4.0214 10.0238 4.33337C9.99922 4.63367 10 4.99646 10 5.4H12ZM11.365 2.27248C10.8946 2.51217 10.5122 2.89462 10.2725 3.36502L12.0545 4.273C12.1024 4.17892 12.1789 4.10243 12.273 4.0545L11.365 2.27248ZM16 5.4V14H18V5.4H16ZM12 14V5.4H10V14H12Z" fill="black"/>
</svg>
