<svg width="24" height="24" viewBox="0 0 24 24" fill="none" xmlns="http://www.w3.org/2000/svg">
<path d="M9 4L9.89443 3.55279L9.89442 3.55278L9 4ZM9.83333 5.66667L10.7278 5.21945V5.21945L9.83333 5.66667ZM9.83333 6.33333L10.7278 6.78056L10.7278 6.78055L9.83333 6.33333ZM9.81639 6.36722L8.92197 5.91999L8.92196 5.92L9.81639 6.36722ZM10.8416 7.27226L11.3963 8.10431V8.10431L10.8416 7.27226ZM11.5171 6.8219L10.9624 5.98985L10.9624 5.98985L11.5171 6.8219ZM12.5191 6.75953L12.0718 7.65396L12.0719 7.65396L12.5191 6.75953ZM12.5528 6.77639L13 5.88197L13 5.88196L12.5528 6.77639ZM13.4472 6.77639L13 5.88196L13 5.88197L13.4472 6.77639ZM13.4809 6.75953L13.9281 7.65396L13.9282 7.65396L13.4809 6.75953ZM14.4829 6.82191L13.9282 7.65396L13.9282 7.65396L14.4829 6.82191ZM15.1327 7.2551L15.6874 6.42305L15.6874 6.42305L15.1327 7.2551ZM14.9814 8.70742L15.3528 9.6359L15.3528 9.6359L14.9814 8.70742ZM13.1788 9.42848L13.5502 10.357L13.5502 10.357L13.1788 9.42848ZM10.4667 9.9L11.0667 10.7L10.4667 9.9ZM9.4 10.7L8.8 9.9L8.8 9.9L9.4 10.7ZM12 14H13C13 13.4477 12.5523 13 12 13V14ZM14.2913 17.5145L13.4338 17V17L14.2913 17.5145ZM15.3575 15.7375L14.5 15.223L14.5 15.223L15.3575 15.7375ZM16.7929 12.7929L16.0858 13.5L16.7929 12.7929ZM15.5 11.5L15.1838 10.5513C14.855 10.6609 14.6064 10.9329 14.5268 11.2702C14.4471 11.6076 14.5478 11.962 14.7929 12.2071L15.5 11.5ZM16.6745 11.1085L16.9907 12.0572L16.9907 12.0572L16.6745 11.1085ZM17.1903 10.7145L18.0224 11.2692L17.1903 10.7145ZM17.6362 10.0457L16.8042 9.49099L17.6362 10.0457ZM18.6455 9.61622L18.8227 8.63204L18.8227 8.63204L18.6455 9.61622ZM20.777 10L21.7522 9.77871L20.777 10ZM20 12C20 16.4183 16.4183 20 12 20V22C17.5228 22 22 17.5228 22 12H20ZM12 20C7.58172 20 4 16.4183 4 12H2C2 17.5228 6.47715 22 12 22V20ZM8.10557 4.44721L8.93891 6.11388L10.7278 5.21945L9.89443 3.55279L8.10557 4.44721ZM8.93891 5.88611L8.92197 5.91999L10.7108 6.81444L10.7278 6.78056L8.93891 5.88611ZM11.3963 8.10431L12.0718 7.65395L10.9624 5.98985L10.2869 6.44021L11.3963 8.10431ZM12.0719 7.65396L12.1056 7.67083L13 5.88196L12.9663 5.8651L12.0719 7.65396ZM13.8944 7.67083L13.9281 7.65396L13.0337 5.8651L13 5.88196L13.8944 7.67083ZM13.9282 7.65396L14.578 8.08716L15.6874 6.42305L15.0376 5.98986L13.9282 7.65396ZM14.61 7.77895L12.8074 8.5L13.5502 10.357L15.3528 9.6359L14.61 7.77895ZM12.8074 8.5H11.6667V10.5H12.8074V8.5ZM9.86667 9.1L8.8 9.9L10 11.5L11.0667 10.7L9.86667 9.1ZM8 11.5V13H10V11.5H8ZM10 15H12V13H10V15ZM11 14V17H13V14H11ZM13 19H13.4338V17H13V19ZM15.1488 18.029L16.215 16.252L14.5 15.223L13.4338 17L15.1488 18.029ZM16.5 15.223V14.75H14.5V15.223H16.5ZM16.25 15H16.2929V13H16.25V15ZM17.5 12.0858L16.2071 10.7929L14.7929 12.2071L16.0858 13.5L17.5 12.0858ZM15.8162 12.4487L16.9907 12.0572L16.3583 10.1598L15.1838 10.5513L15.8162 12.4487ZM18.0224 11.2692L18.4683 10.6004L16.8042 9.49099L16.3583 10.1598L18.0224 11.2692ZM18.4683 10.6004L20.5998 10.9842L20.9542 9.01583L18.8227 8.63204L18.4683 10.6004ZM18.4683 10.6004L18.4683 10.6004L18.8227 8.63204C18.0388 8.49091 17.2459 8.8283 16.8042 9.49099L18.4683 10.6004ZM16.9907 12.0572C17.4127 11.9165 17.7757 11.6393 18.0224 11.2692L16.3583 10.1598L16.3583 10.1598L16.9907 12.0572ZM18 13.2929C18 12.8401 17.8201 12.4059 17.5 12.0858L16.0858 13.5C16.0309 13.4451 16 13.3706 16 13.2929H18ZM16.2929 15C17.2357 15 18 14.2357 18 13.2929H16C16 13.1311 16.1311 13 16.2929 13V15ZM16.5 14.75C16.5 14.8881 16.3881 15 16.25 15V13C15.2835 13 14.5 13.7835 14.5 14.75H16.5ZM16.215 16.252C16.4015 15.9412 16.5 15.5855 16.5 15.223H14.5L14.5 15.223L16.215 16.252ZM13.4338 19C14.1363 19 14.7873 18.6314 15.1488 18.029L13.4338 17V17V19ZM11 17C11 18.1046 11.8954 19 13 19V17H11ZM8 13C8 14.1046 8.89543 15 10 15V13H8ZM8.8 9.9C8.29639 10.2777 8 10.8705 8 11.5H10H10L8.8 9.9ZM11.6667 8.5C11.0176 8.5 10.386 8.71053 9.86667 9.1L11.0667 10.7C11.2398 10.5702 11.4503 10.5 11.6667 10.5V8.5ZM12.8074 8.5L12.8074 8.5V10.5C13.0619 10.5 13.314 10.4514 13.5502 10.357L12.8074 8.5ZM14.5 7.94149C14.5 7.86991 14.5436 7.80553 14.61 7.77895L15.3528 9.6359C16.0457 9.35876 16.5 8.68772 16.5 7.94149H14.5ZM14.578 8.08715C14.5293 8.05469 14.5 8.00003 14.5 7.94149H16.5C16.5 7.33132 16.1951 6.76152 15.6874 6.42305L14.578 8.08715ZM13.9282 7.65396L15.0376 5.98986C14.4404 5.59174 13.6757 5.54413 13.0337 5.8651L13.9282 7.65396ZM12.1056 7.67082C12.6686 7.95235 13.3314 7.95235 13.8944 7.67082L13 5.88197L12.1056 7.67082ZM12.0718 7.65395V7.65396L12.9663 5.8651C12.3243 5.54413 11.5596 5.59174 10.9624 5.98985L12.0718 7.65395ZM9.68557 8.21082C10.2336 8.48484 10.8865 8.4442 11.3963 8.10431L10.2869 6.44021C10.3743 6.38198 10.4861 6.37502 10.58 6.42196L9.68557 8.21082ZM8.92196 5.92C8.50024 6.76346 8.84211 7.78909 9.68557 8.21082L10.58 6.42196C10.7245 6.49422 10.7831 6.66993 10.7108 6.81443L8.92196 5.92ZM8.93891 6.11388C8.90306 6.04219 8.90306 5.95781 8.93891 5.88612L10.7278 6.78055C10.9734 6.28918 10.9734 5.71082 10.7278 5.21945L8.93891 6.11388ZM12 4C15.806 4 18.9934 6.65879 19.8018 10.2213L21.7522 9.77871C20.7416 5.32525 16.7603 2 12 2V4ZM19.8018 10.2213C19.9314 10.7924 20 11.3876 20 12H22C22 11.2377 21.9145 10.4941 21.7522 9.77871L19.8018 10.2213ZM7.89948 4.03505L8.10558 4.44722L9.89442 3.55278L9.68833 3.1406L7.89948 4.03505ZM4 12C4 8.58717 6.13748 5.67109 9.15022 4.52219L8.43759 2.65346C4.67533 4.08818 2 7.73042 2 12H4ZM9.15022 4.52219C10.0342 4.1851 10.9943 4 12 4V2C10.747 2 9.54557 2.23094 8.43759 2.65346L9.15022 4.52219Z" fill="black"/>
<path opacity="0.14" d="M21 12C21 16.9706 16.9706 21 12 21C7.02944 21 3 16.9706 3 12C3 7.02944 7.02944 3 12 3C16.9706 3 21 7.02944 21 12Z" fill="black"/>
</svg>
