<svg width="24" height="24" viewBox="0 0 24 24" fill="none" xmlns="http://www.w3.org/2000/svg">
<rect opacity="0.14" x="3" y="8" width="18" height="14" rx="2" fill="black"/>
<path d="M14 2L16.5 4.5L19 2M5 4.5L7.5 2L10 4.5M15 18.5C14.7164 17.3589 13.481 16.5 12 16.5C10.519 16.5 9.28364 17.3589 9 18.5M5 22H19C20.1046 22 21 21.1046 21 20V10C21 8.89543 20.1046 8 19 8H5C3.89543 8 3 8.89543 3 10V20C3 21.1046 3.89543 22 5 22ZM13 12.5C13 13.0523 12.5523 13.5 12 13.5C11.4477 13.5 11 13.0523 11 12.5C11 11.9477 11.4477 11.5 12 11.5C12.5523 11.5 13 11.9477 13 12.5Z" stroke="black" stroke-width="2" stroke-linecap="round" stroke-linejoin="round"/>
</svg>
