<svg width="24" height="24" viewBox="0 0 24 24" fill="none" xmlns="http://www.w3.org/2000/svg">
<g opacity="0.14">
<path d="M2 18C2 19.6569 3.34315 21 5 21H6.36956C6.7799 21 7.18031 20.8738 7.51648 20.6385L16.4835 14.3615C16.8197 14.1262 17.2201 14 17.6304 14H19C20.6569 14 22 12.6569 22 11C22 9.34315 20.6569 8 19 8H17.6304C17.2201 8 16.8197 8.12622 16.4835 8.36154L12 11.5L9 13.6L7.51648 14.6385C7.18031 14.8738 6.7799 15 6.36956 15H5C3.34315 15 2 16.3431 2 18Z" fill="black"/>
<path d="M9 13.6L12 11.5V9.30005C12 8.47162 11.3284 7.80005 10.5 7.80005C9.67157 7.80005 9 8.47162 9 9.30005V13.6Z" fill="black"/>
<path d="M11.5 4C11.5 4.55228 11.0523 5 10.5 5C9.94772 5 9.5 4.55228 9.5 4C9.5 3.44772 9.94772 3 10.5 3C11.0523 3 11.5 3.44772 11.5 4Z" fill="black"/>
</g>
<path d="M7.51648 14.6385L8.08994 15.4577H8.08994L7.51648 14.6385ZM16.4835 8.36154L17.057 9.18077L17.057 9.18077L16.4835 8.36154ZM16.4835 14.3615L15.9101 13.5423H15.9101L16.4835 14.3615ZM7.51648 20.6385L6.94302 19.8192L7.51648 20.6385ZM8 13.6C8 14.1523 8.44772 14.6 9 14.6C9.55228 14.6 10 14.1523 10 13.6H8ZM11 11.5C11 12.0523 11.4477 12.5 12 12.5C12.5523 12.5 13 12.0523 13 11.5H11ZM5 20C3.89543 20 3 19.1046 3 18H1C1 20.2091 2.79086 22 5 22V20ZM3 18C3 16.8954 3.89543 16 5 16V14C2.79086 14 1 15.7909 1 18H3ZM21 11C21 12.1046 20.1046 13 19 13V15C21.2091 15 23 13.2091 23 11H21ZM19 9C20.1046 9 21 9.89543 21 11H23C23 8.79086 21.2091 7 19 7V9ZM5 16H6.36956V14H5V16ZM8.08994 15.4577L17.057 9.18077L15.9101 7.5423L6.94302 13.8192L8.08994 15.4577ZM17.6304 9H19V7H17.6304V9ZM19 13H17.6304V15H19V13ZM15.9101 13.5423L6.94302 19.8192L8.08994 21.4577L17.057 15.1808L15.9101 13.5423ZM6.36956 20H5V22H6.36956V20ZM6.94302 19.8192C6.77493 19.9369 6.57473 20 6.36956 20V22C6.98507 22 7.58569 21.8107 8.08994 21.4577L6.94302 19.8192ZM17.6304 13C17.0149 13 16.4143 13.1893 15.9101 13.5423L17.057 15.1808C17.2251 15.0631 17.4253 15 17.6304 15V13ZM17.057 9.18077C17.2251 9.06311 17.4253 9 17.6304 9V7C17.0149 7 16.4143 7.18933 15.9101 7.5423L17.057 9.18077ZM6.36956 16C6.98507 16 7.58569 15.8107 8.08994 15.4577L6.94302 13.8192C6.77493 13.9369 6.57473 14 6.36956 14V16ZM10 13.6V9.30005H8V13.6H10ZM11 9.30005V11.5H13V9.30005H11ZM10.5 8.80005C10.7761 8.80005 11 9.02391 11 9.30005H13C13 7.91934 11.8807 6.80005 10.5 6.80005V8.80005ZM10 9.30005C10 9.02391 10.2239 8.80005 10.5 8.80005V6.80005C9.11929 6.80005 8 7.91933 8 9.30005H10ZM10.5 4V6C11.6046 6 12.5 5.10457 12.5 4H10.5ZM10.5 4H8.5C8.5 5.10457 9.39543 6 10.5 6V4ZM10.5 4V2C9.39543 2 8.5 2.89543 8.5 4H10.5ZM10.5 4H12.5C12.5 2.89543 11.6046 2 10.5 2V4Z" fill="black"/>
</svg>
