<svg width="24" height="24" viewBox="0 0 24 24" fill="none" xmlns="http://www.w3.org/2000/svg">
<path d="M17.2 8.25C18.1941 8.25 19 9.05589 19 10.05C19 10.511 18.8267 10.9315 18.5417 11.25C18.8267 11.5685 19 11.989 19 12.45C19 12.614 18.9781 12.7728 18.937 12.9238L20.6076 13.9563C20.9032 14.139 21.1056 14.4761 20.9412 14.7804C20.1829 16.1842 16.4683 17.2499 12 17.2499C7.53173 17.2499 3.81706 16.1842 3.05878 14.7804C2.89443 14.4761 3.09685 14.1389 3.39238 13.9563L7 11.75C7 12.8546 9.23857 13.75 12 13.75C12.5114 13.75 13.0048 13.7193 13.4694 13.6622C13.1778 13.3424 13 12.9169 13 12.45C13 11.989 13.1733 11.5685 13.4583 11.25C13.3149 11.0898 13.1998 10.9037 13.1208 10.6997H13.1192C12.7589 10.7327 12.3838 10.7501 11.9984 10.7501C9.86859 10.7501 8.04977 10.2174 7.32921 9.46695L7.32969 9.46573C8.04951 7.64048 9.86908 6.75 12 6.75C13.766 6.75 15.3182 7.16558 16.2077 8.54796C16.4922 8.35965 16.8333 8.25 17.2 8.25Z" fill="#D9D9D9"/>
<path d="M18.5417 11.25L17.7965 10.5831C17.4567 10.9628 17.4567 11.5372 17.7965 11.9169L18.5417 11.25ZM13.4583 11.25L14.2035 11.9169C14.5433 11.5372 14.5433 10.9628 14.2035 10.5831L13.4583 11.25ZM16.2077 8.54796L15.3668 9.08909C15.5115 9.31401 15.7403 9.47157 16.0021 9.52658C16.2638 9.58159 16.5367 9.52945 16.7597 9.38182L16.2077 8.54796ZM13.4694 13.6622L13.5913 14.6548C13.9625 14.6092 14.2772 14.3603 14.4071 14.0096C14.537 13.6589 14.4604 13.265 14.2084 12.9886L13.4694 13.6622ZM7 11.75H8C8 11.3882 7.80459 11.0546 7.48901 10.8777C7.17343 10.7008 6.78691 10.7081 6.47827 10.8969L7 11.75ZM7.32969 9.46573L6.39942 9.09886L6.39939 9.09893L7.32969 9.46573ZM8.04891 8.77267C7.6661 8.37459 7.03305 8.36221 6.63497 8.74503C6.23689 9.12785 6.22452 9.76089 6.60734 10.159L8.04891 8.77267ZM13.1192 10.6997V9.69965C13.0888 9.69965 13.0583 9.70104 13.028 9.70382L13.1192 10.6997ZM20.9412 14.7804L20.0614 14.3051V14.3051L20.9412 14.7804ZM3.05878 14.7804L2.17892 15.2556L2.17893 15.2556L3.05878 14.7804ZM3.39238 13.9563L2.87064 13.1032L2.86665 13.1057L3.39238 13.9563ZM20.6076 13.9563L21.1334 13.1057L21.1334 13.1057L20.6076 13.9563ZM18.937 12.9238L17.9721 12.6612C17.8558 13.0886 18.0345 13.5416 18.4113 13.7745L18.937 12.9238ZM13.1208 10.6997L14.0534 10.3386C13.9043 9.9535 13.5338 9.69965 13.1208 9.69965V10.6997ZM17.2 9.25C17.6418 9.25 18 9.60817 18 10.05H20C20 8.5036 18.7464 7.25 17.2 7.25V9.25ZM17.7965 11.9169C17.9238 12.0591 18 12.2445 18 12.45H20C20 11.7335 19.7296 11.0778 19.2868 10.5831L17.7965 11.9169ZM18 10.05C18 10.2555 17.9238 10.4409 17.7965 10.5831L19.2868 11.9169C19.7296 11.4222 20 10.7665 20 10.05H18ZM14 12.45C14 12.2445 14.0762 12.0591 14.2035 11.9169L12.7132 10.5831C12.2704 11.0778 12 11.7335 12 12.45H14ZM16.7597 9.38182C16.8855 9.29853 17.0356 9.25 17.2 9.25V7.25C16.631 7.25 16.0989 7.42077 15.6558 7.71409L16.7597 9.38182ZM14.2084 12.9886C14.0782 12.8457 14 12.6581 14 12.45H12C12 13.1758 12.2775 13.8391 12.7304 14.3359L14.2084 12.9886ZM12 7.75C13.6512 7.75 14.7567 8.14105 15.3668 9.08909L17.0487 8.00682C15.8796 6.19011 13.8809 5.75 12 5.75V7.75ZM8.25996 9.8326C8.77925 8.51583 10.1245 7.75 12 7.75V5.75C9.61367 5.75 7.31977 6.76513 6.39942 9.09886L8.25996 9.8326ZM12 12.75C10.7139 12.75 9.59568 12.5397 8.83586 12.2357C8.45317 12.0827 8.21059 11.9254 8.08003 11.8019C7.95159 11.6805 8 11.6626 8 11.75H6C6 12.3897 6.32823 12.898 6.70582 13.255C7.08129 13.6101 7.57094 13.8838 8.09307 14.0927C9.1429 14.5126 10.5246 14.75 12 14.75V12.75ZM12 14.75C12.551 14.75 13.0852 14.7169 13.5913 14.6548L13.3475 12.6697C12.9244 12.7217 12.4717 12.75 12 12.75V14.75ZM13.028 9.70382C12.6985 9.73401 12.3538 9.75009 11.9984 9.75009V11.7501C12.4138 11.7501 12.8194 11.7313 13.2104 11.6955L13.028 9.70382ZM20.0614 14.3051C19.9996 14.4195 19.8096 14.6335 19.3596 14.8885C18.9264 15.1339 18.3328 15.3718 17.5928 15.5785C16.1151 15.9913 14.1623 16.2499 12 16.2499V18.2499C14.3059 18.2499 16.4446 17.9758 18.1309 17.5047C18.9729 17.2695 19.7294 16.9777 20.3456 16.6285C20.945 16.2889 21.5037 15.8432 21.8211 15.2556L20.0614 14.3051ZM12 16.2499C9.83767 16.2499 7.88489 15.9913 6.40718 15.5785C5.66722 15.3718 5.07361 15.1339 4.6404 14.8885C4.19038 14.6335 4.0004 14.4195 3.93863 14.3051L2.17893 15.2556C2.4963 15.8432 3.055 16.2889 3.65438 16.6285C4.27058 16.9777 5.02708 17.2695 5.8691 17.5047C7.55536 17.9758 9.69406 18.2499 12 18.2499V16.2499ZM3.91411 14.8094L7.52173 12.6031L6.47827 10.8969L2.87064 13.1032L3.91411 14.8094ZM3.93863 14.3051C3.978 14.378 4.00055 14.4656 3.99999 14.5552C3.99946 14.6403 3.97844 14.7042 3.96106 14.7418C3.93095 14.8071 3.90446 14.8154 3.9181 14.807L2.86665 13.1057C2.58477 13.2799 2.3093 13.5481 2.14519 13.9036C1.9706 14.2818 1.92144 14.7789 2.17892 15.2556L3.93863 14.3051ZM21.8211 15.2556C22.0786 14.7789 22.0294 14.2818 21.8548 13.9036C21.6907 13.5481 21.4152 13.2799 21.1334 13.1057L20.0819 14.807C20.0955 14.8154 20.069 14.8071 20.0389 14.7418C20.0216 14.7042 20.0005 14.6403 20 14.5552C19.9995 14.4656 20.022 14.378 20.0614 14.3051L21.8211 15.2556ZM18.4113 13.7745L20.0819 14.807L21.1334 13.1057L19.4627 12.0732L18.4113 13.7745ZM18 12.45C18 12.5245 17.9901 12.5951 17.9721 12.6612L19.9019 13.1864C19.9661 12.9506 20 12.7035 20 12.45H18ZM14.2035 10.5831C14.1392 10.5112 14.0881 10.4285 14.0534 10.3386L12.1883 11.0607C12.3115 11.379 12.4907 11.6683 12.7132 11.9169L14.2035 10.5831ZM13.1192 11.6997H13.1208V9.69965H13.1192V11.6997ZM6.39939 9.09893L6.39891 9.10014L8.25951 9.83375L8.25999 9.83253L6.39939 9.09893ZM6.60787 10.1595C7.14887 10.723 7.98455 11.1063 8.86582 11.3529C9.77586 11.6076 10.8549 11.7501 11.9984 11.7501V9.75009C11.0121 9.75009 10.1168 9.62621 9.40486 9.42695C8.66411 9.21963 8.2301 8.96137 8.05054 8.77436L6.60787 10.1595ZM8.05 8.77379L8.04891 8.77267L6.60734 10.159L6.60842 10.1601L8.05 8.77379Z" fill="black"/>
<path d="M16 13.7917L16.6669 13.0465C16.2872 12.7067 15.7128 12.7067 15.3331 13.0465L16 13.7917ZM18.5417 11.25L17.7965 10.5831C17.4567 10.9628 17.4567 11.5372 17.7965 11.9169L18.5417 11.25ZM16 8.70833L15.3331 9.45347C15.7128 9.79329 16.2872 9.79329 16.6669 9.45347L16 8.70833ZM13.4583 11.25L14.2035 11.9169C14.5433 11.5372 14.5433 10.9628 14.2035 10.5831L13.4583 11.25ZM18.9275 12.9574L19.8871 13.2388V13.2388L18.9275 12.9574ZM6 11.7552C6 12.3075 6.44772 12.7552 7 12.7552C7.55228 12.7552 8 12.3075 8 11.7552H6ZM7.20706 9.82143L6.2486 9.53618V9.53618L7.20706 9.82143ZM7.32969 9.46573L8.25996 9.8326V9.8326L7.32969 9.46573ZM7 11.75H8C8 11.3882 7.80459 11.0546 7.48901 10.8777C7.17343 10.7008 6.78691 10.7081 6.47827 10.8969L7 11.75ZM8.05009 8.77389C7.66794 8.37516 7.03492 8.36171 6.63619 8.74386C6.23746 9.126 6.22402 9.75902 6.60616 10.1578L8.05009 8.77389ZM13.2104 11.6955C13.7604 11.6451 14.1654 11.1584 14.115 10.6084C14.0647 10.0584 13.578 9.65344 13.028 9.70382L13.2104 11.6955ZM20.9412 14.7804L20.0614 14.3051V14.3051L20.9412 14.7804ZM3.05878 14.7804L2.17892 15.2556L2.17893 15.2556L3.05878 14.7804ZM3.39238 13.9563L2.87064 13.1032L2.86665 13.1057L3.39238 13.9563ZM20.6076 13.9563L21.1334 13.1057L21.1334 13.1057L20.6076 13.9563ZM19.4627 12.0732C18.9929 11.7828 18.3767 11.9283 18.0863 12.3981C17.796 12.8679 17.9415 13.4841 18.4113 13.7745L19.4627 12.0732ZM16 10.25C15.4477 10.25 15 10.6977 15 11.25C15 11.8023 15.4477 12.25 16 12.25V10.25ZM16.01 12.25C16.5623 12.25 17.01 11.8023 17.01 11.25C17.01 10.6977 16.5623 10.25 16.01 10.25V12.25ZM17.2 9.25C17.6418 9.25 18 9.60817 18 10.05H20C20 8.5036 18.7464 7.25 17.2 7.25V9.25ZM14 10.05C14 9.60817 14.3582 9.25 14.8 9.25V7.25C13.2536 7.25 12 8.5036 12 10.05H14ZM17.2 13.25C16.9945 13.25 16.8091 13.1738 16.6669 13.0465L15.3331 14.5368C15.8278 14.9796 16.4835 15.25 17.2 15.25V13.25ZM15.3331 13.0465C15.1909 13.1738 15.0055 13.25 14.8 13.25V15.25C15.5165 15.25 16.1722 14.9796 16.6669 14.5368L15.3331 13.0465ZM17.7965 11.9169C17.9238 12.0591 18 12.2445 18 12.45H20C20 11.7335 19.7296 11.0778 19.2868 10.5831L17.7965 11.9169ZM18 10.05C18 10.2555 17.9238 10.4409 17.7965 10.5831L19.2868 11.9169C19.7296 11.4222 20 10.7665 20 10.05H18ZM14.8 9.25C15.0055 9.25 15.1909 9.3262 15.3331 9.45347L16.6669 7.9632C16.1722 7.52042 15.5165 7.25 14.8 7.25V9.25ZM14 12.45C14 12.2445 14.0762 12.0591 14.2035 11.9169L12.7132 10.5831C12.2704 11.0778 12 11.7335 12 12.45H14ZM14.2035 10.5831C14.0762 10.4409 14 10.2555 14 10.05H12C12 10.7665 12.2704 11.4222 12.7132 11.9169L14.2035 10.5831ZM16.6669 9.45347C16.6961 9.42735 16.7271 9.4034 16.7597 9.38182L15.6558 7.71409C15.542 7.78938 15.4342 7.87269 15.3331 7.9632L16.6669 9.45347ZM16.7597 9.38182C16.8855 9.29853 17.0356 9.25 17.2 9.25V7.25C16.631 7.25 16.0989 7.42077 15.6558 7.71409L16.7597 9.38182ZM18 12.45C18 12.53 17.9886 12.6055 17.9679 12.676L19.8871 13.2388C19.9608 12.9874 20 12.7224 20 12.45H18ZM17.9679 12.676C17.8704 13.0087 17.5621 13.25 17.2 13.25V15.25C18.4738 15.25 19.5465 14.4002 19.8871 13.2388L17.9679 12.676ZM14.8 13.25C14.5657 13.25 14.3561 13.1506 14.2084 12.9886L12.7304 14.3359C13.2411 14.8962 13.9799 15.25 14.8 15.25V13.25ZM14.2084 12.9886C14.0782 12.8457 14 12.6581 14 12.45H12C12 13.1758 12.2775 13.8391 12.7304 14.3359L14.2084 12.9886ZM6 11.25V11.7552H8V11.25H6ZM8 11.25C8 10.8512 8.05805 10.4677 8.16551 10.1067L6.2486 9.53618C6.08663 10.0804 6 10.656 6 11.25H8ZM12 7.75C13.6512 7.75 14.7567 8.14105 15.3668 9.08909L17.0487 8.00682C15.8796 6.19011 13.8809 5.75 12 5.75V7.75ZM8.16551 10.1067C8.19381 10.0116 8.22539 9.92026 8.25996 9.8326L6.39942 9.09886C6.34339 9.24091 6.29308 9.38673 6.2486 9.53618L8.16551 10.1067ZM8.25996 9.8326C8.77925 8.51583 10.1245 7.75 12 7.75V5.75C9.61367 5.75 7.31977 6.76513 6.39942 9.09886L8.25996 9.8326ZM12 12.75C10.7139 12.75 9.59568 12.5397 8.83586 12.2357C8.45317 12.0827 8.21059 11.9254 8.08003 11.8019C7.95159 11.6805 8 11.6626 8 11.75H6C6 12.3897 6.32823 12.898 6.70582 13.255C7.08129 13.6101 7.57094 13.8838 8.09307 14.0927C9.1429 14.5126 10.5246 14.75 12 14.75V12.75ZM12 14.75C12.551 14.75 13.0852 14.7169 13.5913 14.6548L13.3475 12.6697C12.9244 12.7217 12.4717 12.75 12 12.75V14.75ZM11.9984 9.75009C11.0116 9.75009 10.1159 9.62609 9.40379 9.42665C8.66279 9.21914 8.22914 8.96071 8.05009 8.77389L6.60616 10.1578C7.14693 10.722 7.98298 11.1057 8.86445 11.3526C9.77478 11.6075 10.8544 11.7501 11.9984 11.7501V9.75009ZM13.028 9.70382C12.6985 9.73401 12.3538 9.75009 11.9984 9.75009V11.7501C12.4138 11.7501 12.8194 11.7313 13.2104 11.6955L13.028 9.70382ZM20.0614 14.3051C19.9996 14.4195 19.8096 14.6335 19.3596 14.8885C18.9264 15.1339 18.3328 15.3718 17.5928 15.5785C16.1151 15.9913 14.1623 16.2499 12 16.2499V18.2499C14.3059 18.2499 16.4446 17.9758 18.1309 17.5047C18.9729 17.2695 19.7294 16.9777 20.3456 16.6285C20.945 16.2889 21.5037 15.8432 21.8211 15.2556L20.0614 14.3051ZM12 16.2499C9.83767 16.2499 7.88489 15.9913 6.40718 15.5785C5.66722 15.3718 5.07361 15.1339 4.6404 14.8885C4.19038 14.6335 4.0004 14.4195 3.93863 14.3051L2.17893 15.2556C2.4963 15.8432 3.055 16.2889 3.65438 16.6285C4.27058 16.9777 5.02708 17.2695 5.8691 17.5047C7.55536 17.9758 9.69406 18.2499 12 18.2499V16.2499ZM3.91411 14.8094L7.52173 12.6031L6.47827 10.8969L2.87064 13.1032L3.91411 14.8094ZM3.93863 14.3051C3.978 14.378 4.00055 14.4656 3.99999 14.5552C3.99946 14.6403 3.97844 14.7042 3.96106 14.7418C3.93095 14.8071 3.90446 14.8154 3.9181 14.807L2.86665 13.1057C2.58477 13.2799 2.3093 13.5481 2.14519 13.9036C1.9706 14.2818 1.92144 14.7789 2.17892 15.2556L3.93863 14.3051ZM21.8211 15.2556C22.0786 14.7789 22.0294 14.2818 21.8548 13.9036C21.6907 13.5481 21.4152 13.2799 21.1334 13.1057L20.0819 14.807C20.0955 14.8154 20.069 14.8071 20.0389 14.7418C20.0216 14.7042 20.0005 14.6403 20 14.5552C19.9995 14.4656 20.022 14.378 20.0614 14.3051L21.8211 15.2556ZM18.4113 13.7745L20.0819 14.807L21.1334 13.1057L19.4627 12.0732L18.4113 13.7745ZM16 12.25H16.01V10.25H16V12.25Z" fill="black"/>
</svg>
