<svg width="24" height="24" viewBox="0 0 24 24" fill="none" xmlns="http://www.w3.org/2000/svg">
<g opacity="0.14">
<path d="M7.5429 6.88889C6.03678 8.41149 6.05537 10.8329 7.59865 12.3333L11.5993 8.44444H20C20 6.29667 18.2091 4.55556 16 4.55556C15 4.55556 14.0857 4.9123 13.3845 5.50203L13.1509 5.69468C12.3865 4.10296 10.7254 3 8.79926 3C6.42086 3 4.38086 4.68178 4 6.88889H7.5429Z" fill="black"/>
<path d="M20 21C20 18.7909 18.2091 17 16 17H8C5.79086 17 4 18.7909 4 21H20Z" fill="black"/>
</g>
<path d="M10.8 9.22211C11.44 11.711 10.5333 15.4443 10 16.9999H14C14.2667 14.9258 14.4 10.311 12.8 8.44434M7.5429 6.88889C6.03678 8.41149 6.05537 10.8329 7.59865 12.3333L11.5993 8.44444H20C20 6.29667 18.2091 4.55556 16 4.55556C15 4.55556 14.0857 4.9123 13.3845 5.50203L13.1509 5.69468C12.3865 4.10296 10.7254 3 8.79926 3C6.42086 3 4.38086 4.68178 4 6.88889H7.5429ZM7.5429 6.88889C7.56126 6.87033 7.57984 6.8519 7.59865 6.83361C8.16813 6.27996 8.86659 5.92814 9.6 5.77816M16.8008 8.4445V7.27783M16 17C18.2091 17 20 18.7909 20 21H4C4 18.7909 5.79086 17 8 17H16Z" stroke="black" stroke-width="2" stroke-linecap="round" stroke-linejoin="round"/>
</svg>
