<svg width="24" height="24" viewBox="0 0 24 24" fill="none" xmlns="http://www.w3.org/2000/svg">
<path opacity="0.14" d="M10 16L4.5 8L15.5 8L10 16Z" fill="black"/>
<path d="M9 22C9 22.5523 9.44772 23 10 23C10.5523 23 11 22.5523 11 22H9ZM6.5 21C5.94772 21 5.5 21.4477 5.5 22C5.5 22.5523 5.94772 23 6.5 23V21ZM13.5 23C14.0523 23 14.5 22.5523 14.5 22C14.5 21.4477 14.0523 21 13.5 21V23ZM4.5 8L4.5 7C4.12864 7 3.78786 7.20579 3.61498 7.53445C3.44209 7.86311 3.46557 8.26051 3.67596 8.56653L4.5 8ZM15.5 8L16.324 8.56653C16.5344 8.26052 16.5579 7.86311 16.385 7.53445C16.2121 7.20579 15.8714 7 15.5 7V8ZM9 16V22H11V16H9ZM6.5 23H13.5V21H6.5V23ZM3.67596 8.56653L9.17596 16.5665L10.824 15.4335L5.32404 7.43347L3.67596 8.56653ZM4.5 9L15.5 9V7L4.5 7L4.5 9ZM10.824 16.5665L16.324 8.56653L14.676 7.43347L9.17596 15.4335L10.824 16.5665ZM18.5 8C18.5 9.65685 17.1569 11 15.5 11V13C18.2614 13 20.5 10.7614 20.5 8H18.5ZM12.5 8C12.5 6.34315 13.8431 5 15.5 5V3C12.7386 3 10.5 5.23858 10.5 8H12.5ZM15.5 5C17.1569 5 18.5 6.34315 18.5 8H20.5C20.5 5.23858 18.2614 3 15.5 3V5ZM15.5 11C14.8914 11 14.3279 10.8198 13.8563 10.5102L12.7586 12.182C13.5463 12.6992 14.4895 13 15.5 13V11Z" fill="black"/>
</svg>
