<svg width="24" height="24" viewBox="0 0 24 24" fill="none" xmlns="http://www.w3.org/2000/svg">
<path opacity="0.14" fill-rule="evenodd" clip-rule="evenodd" d="M5 5H19C20.1046 5 21 5.89543 21 7V15C21 16.1046 20.1046 17 19 17H18H6H5C3.89543 17 3 16.1046 3 15V7C3 5.89543 3.89543 5 5 5ZM14 8H7C6.44772 8 6 8.44772 6 9V13C6 13.5523 6.44772 14 7 14H14C14.5523 14 15 13.5523 15 13V9C15 8.44772 14.5523 8 14 8Z" fill="black"/>
<path d="M6 19V17M18 19V17M18 14V8M5 17H19C20.1046 17 21 16.1046 21 15V7C21 5.89543 20.1046 5 19 5H5C3.89543 5 3 5.89543 3 7V15C3 16.1046 3.89543 17 5 17ZM7 14H14C14.5523 14 15 13.5523 15 13V9C15 8.44772 14.5523 8 14 8H7C6.44772 8 6 8.44772 6 9V13C6 13.5523 6.44772 14 7 14Z" stroke="black" stroke-width="2" stroke-linecap="round" stroke-linejoin="round"/>
</svg>
