<svg width="24" height="24" viewBox="0 0 24 24" fill="none" xmlns="http://www.w3.org/2000/svg">
<path opacity="0.14" fill-rule="evenodd" clip-rule="evenodd" d="M6 3H18C19.1046 3 20 3.89543 20 5V19C20 20.1046 19.1046 21 18 21H6C4.89543 21 4 20.1046 4 19V5C4 3.89543 4.89543 3 6 3ZM15.5 8H8.5C7.67157 8 7 9.79086 7 12C7 14.2091 7.67157 16 8.5 16H15.5C16.3284 16 17 14.2091 17 12C17 9.79086 16.3284 8 15.5 8Z" fill="black"/>
<path d="M9 13C9 13.5523 9.44772 14 10 14C10.5523 14 11 13.5523 11 13H9ZM11 11C11 10.4477 10.5523 10 10 10C9.44772 10 9 10.4477 9 11H11ZM13 13C13 13.5523 13.4477 14 14 14C14.5523 14 15 13.5523 15 13H13ZM15 11C15 10.4477 14.5523 10 14 10C13.4477 10 13 10.4477 13 11H15ZM6 4H18V2H6V4ZM19 5V19H21V5H19ZM18 20H6V22H18V20ZM5 19V5H3V19H5ZM6 20C5.44772 20 5 19.5523 5 19H3C3 20.6569 4.34315 22 6 22V20ZM19 19C19 19.5523 18.5523 20 18 20V22C19.6569 22 21 20.6569 21 19H19ZM18 4C18.5523 4 19 4.44772 19 5H21C21 3.34315 19.6569 2 18 2V4ZM6 2C4.34315 2 3 3.34315 3 5H5C5 4.44772 5.44772 4 6 4V2ZM8.5 9H15.5V7H8.5V9ZM15.5 15H8.5V17H15.5V15ZM8.5 15C8.68157 15 8.73483 15.1017 8.66439 15.0223C8.59498 14.944 8.48679 14.7736 8.37567 14.4773C8.15619 13.892 8 13.0164 8 12H6C6 13.1927 6.17959 14.3171 6.50301 15.1795C6.66334 15.6071 6.87837 16.0225 7.16787 16.3491C7.45634 16.6744 7.90421 17 8.5 17V15ZM8 12C8 10.9836 8.15619 10.108 8.37567 9.52269C8.48679 9.22637 8.59498 9.05603 8.66439 8.97775C8.73483 8.89829 8.68157 9 8.5 9V7C7.90421 7 7.45635 7.32556 7.16787 7.65093C6.87837 7.97747 6.66334 8.39291 6.50301 8.82045C6.17959 9.68289 6 10.8073 6 12H8ZM16 12C16 13.0164 15.8438 13.892 15.6243 14.4773C15.5132 14.7736 15.405 14.944 15.3356 15.0223C15.2652 15.1017 15.3184 15 15.5 15V17C16.0958 17 16.5437 16.6744 16.8321 16.3491C17.1216 16.0225 17.3367 15.6071 17.497 15.1796C17.8204 14.3171 18 13.1927 18 12H16ZM15.5 9C15.3184 9 15.2652 8.89829 15.3356 8.97775C15.405 9.05603 15.5132 9.22637 15.6243 9.5227C15.8438 10.108 16 10.9836 16 12H18C18 10.8073 17.8204 9.6829 17.497 8.82045C17.3367 8.39292 17.1216 7.97747 16.8321 7.65093C16.5437 7.32556 16.0958 7 15.5 7V9ZM11 13V11H9V13H11ZM15 13V11H13V13H15Z" fill="black"/>
</svg>
