<svg width="24" height="24" viewBox="0 0 24 24" fill="none" xmlns="http://www.w3.org/2000/svg">
<path opacity="0.14" d="M4 7C4 4.79086 5.79086 3 8 3H16C18.2091 3 20 4.79086 20 7V19C20 20.1046 19.1046 21 18 21H6C4.89543 21 4 20.1046 4 19V7Z" fill="black"/>
<path d="M11 13.5C10.4477 13.5 10 13.9477 10 14.5C10 15.0523 10.4477 15.5 11 15.5V13.5ZM13 15.5C13.5523 15.5 14 15.0523 14 14.5C14 13.9477 13.5523 13.5 13 13.5V15.5ZM4 8C3.44772 8 3 8.44772 3 9C3 9.55228 3.44772 10 4 10V8ZM20 10C20.5523 10 21 9.55228 21 9C21 8.44772 20.5523 8 20 8V10ZM7.5 5C6.94772 5 6.5 5.44772 6.5 6C6.5 6.55228 6.94772 7 7.5 7V5ZM7.51 7C8.06228 7 8.51 6.55228 8.51 6C8.51 5.44772 8.06228 5 7.51 5V7ZM10.5 5C9.94772 5 9.5 5.44772 9.5 6C9.5 6.55228 9.94772 7 10.5 7V5ZM10.51 7C11.0623 7 11.51 6.55228 11.51 6C11.51 5.44772 11.0623 5 10.51 5V7ZM13.5 5C12.9477 5 12.5 5.44772 12.5 6C12.5 6.55228 12.9477 7 13.5 7V5ZM13.51 7C14.0623 7 14.51 6.55228 14.51 6C14.51 5.44772 14.0623 5 13.51 5V7ZM16.5 5C15.9477 5 15.5 5.44772 15.5 6C15.5 6.55228 15.9477 7 16.5 7V5ZM16.51 7C17.0623 7 17.51 6.55228 17.51 6C17.51 5.44772 17.0623 5 16.51 5V7ZM8 4H16V2H8V4ZM19 7V19H21V7H19ZM18 20H6V22H18V20ZM5 19V7H3V19H5ZM6 20C5.44772 20 5 19.5523 5 19H3C3 20.6569 4.34315 22 6 22V20ZM19 19C19 19.5523 18.5523 20 18 20V22C19.6569 22 21 20.6569 21 19H19ZM16 4C17.6569 4 19 5.34315 19 7H21C21 4.23858 18.7614 2 16 2V4ZM8 2C5.23858 2 3 4.23858 3 7H5C5 5.34315 6.34315 4 8 4V2ZM9 13H15V11H9V13ZM15 13V17H17V13H15ZM15 17H9V19H15V17ZM9 17V13H7V17H9ZM9 17H7C7 18.1046 7.89543 19 9 19V17ZM15 17V19C16.1046 19 17 18.1046 17 17H15ZM15 13H17C17 11.8954 16.1046 11 15 11V13ZM9 11C7.89543 11 7 11.8954 7 13H9V11ZM11 15.5H13V13.5H11V15.5ZM4 10H20V8H4V10ZM7.5 7H7.51V5H7.5V7ZM10.5 7H10.51V5H10.5V7ZM13.5 7H13.51V5H13.5V7ZM16.5 7H16.51V5H16.5V7Z" fill="black"/>
</svg>
