<svg width="24" height="24" viewBox="0 0 24 24" fill="none" xmlns="http://www.w3.org/2000/svg">
<rect opacity="0.14" x="4" y="2" width="16" height="20" rx="2" fill="black"/>
<path d="M8 18H16M16 10C16 12.2091 14.2091 14 12 14M16 10C16 7.79086 14.2091 6 12 6M16 10H8M12 14C9.79086 14 8 12.2091 8 10M12 14C12.8284 14 13.5 12.2091 13.5 10C13.5 7.79086 12.8284 6 12 6M12 14C11.1716 14 10.5 12.2091 10.5 10C10.5 7.79086 11.1716 6 12 6M8 10C8 7.79086 9.79086 6 12 6M6 22H18C19.1046 22 20 21.1046 20 20V4C20 2.89543 19.1046 2 18 2H6C4.89543 2 4 2.89543 4 4V20C4 21.1046 4.89543 22 6 22Z" stroke="black" stroke-width="2" stroke-linecap="round"/>
</svg>
