<svg width="24" height="24" viewBox="0 0 24 24" fill="none" xmlns="http://www.w3.org/2000/svg">
<g opacity="0.14">
<path d="M14.5 7L13 13L16 14L17.5 8L14.5 7Z" fill="black"/>
<path d="M2 20L6 21L8.17703 14L4.17703 13L2 20Z" fill="black"/>
<path d="M18 4C18 4.55228 17.5523 5 17 5C16.4477 5 16 4.55228 16 4C16 3.44772 16.4477 3 17 3C17.5523 3 18 3.44772 18 4Z" fill="black"/>
</g>
<path d="M9.14251 20.4855C8.85836 20.9591 9.01192 21.5733 9.4855 21.8575C9.95908 22.1416 10.5733 21.9881 10.8575 21.5145L9.14251 20.4855ZM11.5 18.5L12.3575 19.0145C12.4165 18.9162 12.4581 18.8085 12.4806 18.6961L11.5 18.5ZM12.9806 16.1961C13.0889 15.6546 12.7377 15.1277 12.1961 15.0194C11.6546 14.9111 11.1277 15.2623 11.0194 15.8039L12.9806 16.1961ZM13 13L12.0299 12.7575C11.9031 13.2644 12.1881 13.7834 12.6838 13.9487L13 13ZM19.1554 10.4831L19.9875 9.92845V9.92845L19.1554 10.4831ZM17.5 8L18.3321 7.4453C18.2087 7.26027 18.0272 7.12164 17.8162 7.05132L17.5 8ZM20.0768 11.2307L19.7054 12.1592L20.0768 11.2307ZM21.6286 12.9285C22.1414 13.1336 22.7234 12.8842 22.9285 12.3714C23.1336 11.8586 22.8842 11.2766 22.3714 11.0715L21.6286 12.9285ZM18.9708 16.122L18.3895 16.9357L18.9708 16.122ZM20.0513 21.3162C20.226 21.8402 20.7923 22.1233 21.3162 21.9487C21.8402 21.774 22.1233 21.2077 21.9487 20.6838L20.0513 21.3162ZM19.7057 17.117L18.757 17.4332L18.757 17.4332L19.7057 17.117ZM13.9684 6.82279L14.2846 5.87411L13.9684 6.82279ZM10.3364 8.3272L9.44197 7.87998V7.87998L10.3364 8.3272ZM9.10557 8.55279C8.85858 9.04677 9.05881 9.64744 9.55279 9.89443C10.0468 10.1414 10.6474 9.94119 10.8944 9.44721L9.10557 8.55279ZM6 21L5.75746 21.9701C6.27196 22.0988 6.79739 21.8034 6.95489 21.297L6 21ZM2 20L1.04511 19.703C0.963439 19.9656 0.993529 20.2503 1.12831 20.49C1.26308 20.7298 1.49065 20.9034 1.75746 20.9701L2 20ZM4.17703 13L4.41957 12.0299C3.90507 11.9012 3.37964 12.1966 3.22215 12.703L4.17703 13ZM9.90943 11.797C10.0734 11.2696 9.77889 10.7091 9.25152 10.5451C8.72415 10.3811 8.16367 10.6757 7.99966 11.203L9.90943 11.797ZM10.8575 21.5145L12.3575 19.0145L10.6425 17.9855L9.14251 20.4855L10.8575 21.5145ZM12.4806 18.6961L12.9806 16.1961L11.0194 15.8039L10.5194 18.3039L12.4806 18.6961ZM13.9701 13.2425L15.4701 7.24254L13.5299 6.75746L12.0299 12.7575L13.9701 13.2425ZM19.9875 9.92845L18.3321 7.4453L16.6679 8.5547L18.3234 11.0378L19.9875 9.92845ZM17.8162 7.05132L14.8162 6.05132L14.1838 7.94868L17.1838 8.94868L17.8162 7.05132ZM16.3162 13.0513L13.3162 12.0513L12.6838 13.9487L15.6838 14.9487L16.3162 13.0513ZM16.5299 7.75746L15.0299 13.7575L16.9701 14.2425L18.4701 8.24254L16.5299 7.75746ZM19.7054 12.1592L21.6286 12.9285L22.3714 11.0715L20.4481 10.3022L19.7054 12.1592ZM19.552 15.3082L16.5812 13.1863L15.4188 14.8137L18.3895 16.9357L19.552 15.3082ZM21.9487 20.6838L20.6543 16.8008L18.757 17.4332L20.0513 21.3162L21.9487 20.6838ZM14.8162 6.05132L14.2846 5.87411L13.6521 7.77147L14.1838 7.94868L14.8162 6.05132ZM9.44197 7.87998L9.10557 8.55279L10.8944 9.44721L11.2308 8.77441L9.44197 7.87998ZM18.3895 16.9357C18.5615 17.0586 18.6901 17.2327 18.757 17.4332L20.6543 16.8008C20.4538 16.1993 20.0679 15.6768 19.552 15.3082L18.3895 16.9357ZM14.2846 5.87411C12.3961 5.24462 10.3322 6.09954 9.44197 7.87998L11.2308 8.77441C11.6759 7.88419 12.7079 7.45673 13.6521 7.77147L14.2846 5.87411ZM18.3234 11.0378C18.66 11.5428 19.1419 11.9338 19.7054 12.1592L20.4481 10.3022C20.2603 10.2271 20.0997 10.0968 19.9875 9.92845L18.3234 11.0378ZM6.24254 20.0299L2.24254 19.0299L1.75746 20.9701L5.75746 21.9701L6.24254 20.0299ZM3.22215 12.703L1.04511 19.703L2.95489 20.297L5.13192 13.297L3.22215 12.703ZM6.95489 21.297L9.13192 14.297L7.22215 13.703L5.04511 20.703L6.95489 21.297ZM9.13192 14.297L9.90943 11.797L7.99966 11.203L7.22215 13.703L9.13192 14.297ZM8.41957 13.0299L4.41957 12.0299L3.9345 13.9701L7.9345 14.9701L8.41957 13.0299ZM17 4V6C18.1046 6 19 5.10457 19 4H17ZM17 4H15C15 5.10457 15.8954 6 17 6V4ZM17 4V2C15.8954 2 15 2.89543 15 4H17ZM17 4H19C19 2.89543 18.1046 2 17 2V4Z" fill="black"/>
</svg>
