<svg width="24" height="24" viewBox="0 0 24 24" fill="none" xmlns="http://www.w3.org/2000/svg">
<path opacity="0.14" d="M17.5405 16.3538L7 13L3 10.5V5L5.5 6L6.5 8.5L9.5 9.5L7.5 3H9.9C10.2693 3 10.6086 3.20355 10.7824 3.52941L14.291 10.1082C14.4241 10.3576 14.6565 10.5391 14.9308 10.6077L17.9626 11.3656C18.3142 11.4536 18.6354 11.6354 18.8917 11.8917L20.5356 13.5356C20.8329 13.8329 21 14.2363 21 14.6568C21 15.4319 20.4396 16.0934 19.6751 16.2208L18.4757 16.4207C18.163 16.4728 17.8425 16.4499 17.5405 16.3538Z" fill="black"/>
<path d="M21 22C21.5523 22 22 21.5523 22 21C22 20.4477 21.5523 20 21 20V22ZM3 20C2.44772 20 2 20.4477 2 21C2 21.5523 2.44772 22 3 22V20ZM7 13L6.47 13.848C6.54091 13.8923 6.61711 13.9276 6.6968 13.9529L7 13ZM17.5405 16.3538L17.8437 15.4009L17.5405 16.3538ZM18.4757 16.4207L18.6401 17.4071L18.4757 16.4207ZM19.6751 16.2208L19.5107 15.2344L19.6751 16.2208ZM20.5356 13.5356L19.8285 14.2427L19.8285 14.2427L20.5356 13.5356ZM18.8917 11.8917L19.5988 11.1846L18.8917 11.8917ZM17.9626 11.3656L17.72 12.3358L17.72 12.3358L17.9626 11.3656ZM14.9308 10.6077L15.1734 9.63757L14.9308 10.6077ZM14.291 10.1082L15.1734 9.63757L15.1734 9.63757L14.291 10.1082ZM10.7824 3.52941L9.9 4V4L10.7824 3.52941ZM7.5 3V2C7.18265 2 6.88415 2.15063 6.69561 2.4059C6.50707 2.66117 6.45089 2.99077 6.54422 3.29409L7.5 3ZM9.5 9.5L9.18377 10.4487C9.53914 10.5671 9.9309 10.4771 10.1988 10.2153C10.4668 9.9535 10.5659 9.56394 10.4558 9.20591L9.5 9.5ZM6.5 8.5L5.57152 8.87139C5.68077 9.1445 5.90472 9.35566 6.18377 9.44868L6.5 8.5ZM5.5 6L6.42848 5.62861C6.32684 5.37451 6.12549 5.17316 5.87139 5.07152L5.5 6ZM3 5L3.37139 4.07152C3.0633 3.94829 2.71414 3.9859 2.43937 4.17193C2.1646 4.35796 2 4.66818 2 5H3ZM3 10.5H2C2 10.8448 2.17762 11.1653 2.47 11.348L3 10.5ZM4.5 14.5C3.94772 14.5 3.5 14.9477 3.5 15.5C3.5 16.0523 3.94772 16.5 4.5 16.5V14.5ZM4.51 16.5C5.06228 16.5 5.51 16.0523 5.51 15.5C5.51 14.9477 5.06228 14.5 4.51 14.5V16.5ZM9.98828 16.5C9.436 16.5 8.98828 16.9477 8.98828 17.5C8.98828 18.0523 9.436 18.5 9.98828 18.5V16.5ZM9.99828 18.5C10.5506 18.5 10.9983 18.0523 10.9983 17.5C10.9983 16.9477 10.5506 16.5 9.99828 16.5V18.5ZM21 20H3V22H21V20ZM6.6968 13.9529L17.2373 17.3067L17.8437 15.4009L7.3032 12.0471L6.6968 13.9529ZM18.6401 17.4071L19.8395 17.2072L19.5107 15.2344L18.3113 15.4343L18.6401 17.4071ZM21.2427 12.8285L19.5988 11.1846L18.1846 12.5988L19.8285 14.2427L21.2427 12.8285ZM18.2051 10.3955L15.1734 9.63757L14.6883 11.5779L17.72 12.3358L18.2051 10.3955ZM15.1734 9.63757L11.6647 3.05882L9.9 4L13.4087 10.5787L15.1734 9.63757ZM9.9 2H7.5V4H9.9V2ZM6.54422 3.29409L8.54422 9.79409L10.4558 9.20591L8.45578 2.70591L6.54422 3.29409ZM9.81623 8.55132L6.81623 7.55132L6.18377 9.44868L9.18377 10.4487L9.81623 8.55132ZM7.42848 8.12861L6.42848 5.62861L4.57152 6.37139L5.57152 8.87139L7.42848 8.12861ZM5.87139 5.07152L3.37139 4.07152L2.62861 5.92848L5.12861 6.92848L5.87139 5.07152ZM2 5V10.5H4V5H2ZM2.47 11.348L6.47 13.848L7.53 12.152L3.53 9.652L2.47 11.348ZM11.6647 3.05882C11.3171 2.4071 10.6386 2 9.9 2V4V4L11.6647 3.05882ZM15.1734 9.63757L15.1734 9.63757L13.4087 10.5787C13.6748 11.0777 14.1397 11.4407 14.6883 11.5779L15.1734 9.63757ZM19.5988 11.1846C19.2143 10.8001 18.7326 10.5274 18.2051 10.3955L17.72 12.3358C17.8959 12.3797 18.0564 12.4707 18.1846 12.5988L19.5988 11.1846ZM22 14.6568C22 13.971 21.7276 13.3134 21.2427 12.8285L19.8285 14.2427C19.9383 14.3525 20 14.5015 20 14.6568H22ZM19.8395 17.2072C21.0862 16.9994 22 15.9207 22 14.6568H20C20 14.9431 19.793 15.1874 19.5107 15.2344L19.8395 17.2072ZM17.2373 17.3067C17.6903 17.4509 18.1711 17.4853 18.6401 17.4071L18.3113 15.4343C18.155 15.4604 17.9947 15.4489 17.8437 15.4009L17.2373 17.3067ZM4.5 16.5H4.51V14.5H4.5V16.5ZM9.98828 18.5H9.99828V16.5H9.98828V18.5Z" fill="black"/>
</svg>
