<svg width="24" height="24" viewBox="0 0 24 24" fill="none" xmlns="http://www.w3.org/2000/svg">
<path opacity="0.14" d="M10.0004 15H6L3 11.5L4.5 10.5L6.58358 11.7871L11.4 9.11132L5.30041 6.5L7.59377 5.22592C7.85161 5.08268 8.15953 5.06057 8.43518 5.1655L14.4091 7.43961L16.6617 6.18818C16.8854 6.06388 17.1309 5.98368 17.3849 5.95194L19.1839 5.72706C20.1485 5.60649 21.0004 6.35857 21.0004 7.33062C21.0004 7.75922 20.8302 8.17026 20.5271 8.47333L19.0004 10L10.0004 15Z" fill="black"/>
<path d="M21 19H3M6 15H10.0004L19.0004 10L20.5271 8.47335C20.8302 8.17028 21.0004 7.75924 21.0004 7.33064C21.0004 6.3586 20.1485 5.60652 19.1839 5.72708L17.3849 5.95196C17.1309 5.98371 16.8854 6.06391 16.6617 6.1882L14.4091 7.43964L8.43518 5.16552C8.15953 5.06059 7.85161 5.0827 7.59377 5.22594L5.30041 6.50002L11.4 9.11135L6.58358 11.7871L4.5 10.5L3 11.5L6 15Z" stroke="black" stroke-width="2" stroke-linecap="round" stroke-linejoin="round"/>
</svg>
