<svg width="24" height="24" viewBox="0 0 24 24" fill="none" xmlns="http://www.w3.org/2000/svg">
<g opacity="0.14">
<path d="M3 12.0014C2.99921 10.8963 3.89487 10 5 10H7.00247C8.10704 10 9.00247 10.8954 9.00247 12V14.4495C9.00247 15.0017 8.55476 15.4495 8.00247 15.4495H4.00176C3.44975 15.4495 3.00215 15.0022 3.00176 14.4502L3 12.0014Z" fill="black"/>
<path d="M15.7671 11.2357C15.8996 10.2421 16.7472 9.5 17.7496 9.5H18.2475C19.2499 9.5 20.0975 10.2421 20.23 11.2357L20.8476 15.8678C20.9275 16.4673 20.4612 17 19.8564 17H16.1407C15.536 17 15.0696 16.4673 15.1495 15.8678L15.7671 11.2357Z" fill="black"/>
<path d="M7.49857 5C7.49857 5.82843 6.82699 6.5 5.99857 6.5C5.17014 6.5 4.49857 5.82843 4.49857 5C4.49857 4.17157 5.17014 3.5 5.99857 3.5C6.82699 3.5 7.49857 4.17157 7.49857 5Z" fill="black"/>
<path d="M19.4986 4.5C19.4986 5.32843 18.827 6 17.9986 6C17.1701 6 16.4986 5.32843 16.4986 4.5C16.4986 3.67157 17.1701 3 17.9986 3C18.827 3 19.4986 3.67157 19.4986 4.5Z" fill="black"/>
</g>
<path d="M11.9986 21V3M4.49857 21V15.5M16.4986 21V17M7.49857 21V15.5M19.4986 21V17M4.00176 15.4495H8.00247C8.55476 15.4495 9.00247 15.0017 9.00247 14.4495V12C9.00247 10.8954 8.10704 10 7.00247 10H5C3.89487 10 2.99921 10.8963 3 12.0014L3.00176 14.4502C3.00215 15.0022 3.44975 15.4495 4.00176 15.4495ZM16.1407 17H19.8564C20.4612 17 20.9275 16.4673 20.8476 15.8678L20.23 11.2357C20.0975 10.2421 19.2499 9.5 18.2475 9.5H17.7496C16.7472 9.5 15.8996 10.2421 15.7671 11.2357L15.1495 15.8678C15.0696 16.4673 15.536 17 16.1407 17ZM7.49857 5C7.49857 5.82843 6.82699 6.5 5.99857 6.5C5.17014 6.5 4.49857 5.82843 4.49857 5C4.49857 4.17157 5.17014 3.5 5.99857 3.5C6.82699 3.5 7.49857 4.17157 7.49857 5ZM19.4986 4.5C19.4986 5.32843 18.827 6 17.9986 6C17.1701 6 16.4986 5.32843 16.4986 4.5C16.4986 3.67157 17.1701 3 17.9986 3C18.827 3 19.4986 3.67157 19.4986 4.5Z" stroke="black" stroke-width="2" stroke-linecap="round"/>
</svg>
