<svg width="24" height="24" viewBox="0 0 24 24" fill="none" xmlns="http://www.w3.org/2000/svg">
<path opacity="0.14" d="M10.4998 3H13.4998L15.5 5.5L13.4998 9.18905C13.0205 9.06568 12.5179 9 12 9C11.4821 9 10.9792 9.06568 10.4998 9.18905L8.5 5.5L10.4998 3Z" fill="black"/>
<path d="M10.4998 3V2C10.196 2 9.90872 2.1381 9.71895 2.37534L10.4998 3ZM13.4998 3L14.2807 2.37527C14.0909 2.13808 13.8036 2 13.4998 2V3ZM15.5 5.5L16.3791 5.97664C16.5708 5.62315 16.532 5.18925 16.2808 4.87527L15.5 5.5ZM12.6207 8.71241C12.3575 9.19792 12.5377 9.80491 13.0232 10.0681C13.5087 10.3314 14.1157 10.1512 14.3789 9.66569L12.6207 8.71241ZM8.5 5.5L7.71911 4.87534C7.46796 5.18929 7.42926 5.62313 7.62087 5.97658L8.5 5.5ZM9.62071 9.66563C9.88392 10.1512 10.4909 10.3314 10.9764 10.0682C11.4619 9.80497 11.6422 9.198 11.379 8.71247L9.62071 9.66563ZM17 15C17 17.7614 14.7614 20 12 20V22C15.866 22 19 18.866 19 15H17ZM12 20C9.23858 20 7 17.7614 7 15H5C5 18.866 8.13401 22 12 22V20ZM7 15C7 12.2386 9.23858 10 12 10V8C8.13401 8 5 11.134 5 15H7ZM12 10C14.7614 10 17 12.2386 17 15H19C19 11.134 15.866 8 12 8V10ZM10.4998 4H13.4998V2H10.4998V4ZM12.719 3.62473L14.7192 6.12473L16.2808 4.87527L14.2807 2.37527L12.719 3.62473ZM14.6209 5.02336L12.6207 8.71241L14.3789 9.66569L16.3791 5.97664L14.6209 5.02336ZM9.71895 2.37534L7.71911 4.87534L9.28089 6.12466L11.2807 3.62466L9.71895 2.37534ZM7.62087 5.97658L9.62071 9.66563L11.379 8.71247L9.37913 5.02342L7.62087 5.97658Z" fill="black"/>
</svg>
