<svg width="24" height="24" viewBox="0 0 24 24" fill="none" xmlns="http://www.w3.org/2000/svg">
<path opacity="0.14" d="M9.9997 6.9997C8.4376 8.56179 8.4376 11.0945 9.9997 12.6566L15.6566 6.9997C14.0945 5.4376 11.5618 5.4376 9.9997 6.9997Z" fill="black"/>
<path d="M2 21C2 21.5523 2.44772 22 3 22C3.55228 22 4 21.5523 4 21H2ZM6.62132 3.62132L7.32843 2.91421L6.62132 3.62132ZM9.2932 13.3639C9.68372 13.7544 10.3169 13.7544 10.7074 13.3639C11.0979 12.9734 11.0979 12.3402 10.7074 11.9497L9.2932 13.3639ZM14.95 7.70705C15.3406 8.09757 15.9737 8.09757 16.3643 7.70705C16.7548 7.31652 16.7548 6.68336 16.3643 6.29284L14.95 7.70705ZM8.58586 12.6568C8.19534 13.0473 8.19534 13.6805 8.58586 14.071C8.97639 14.4615 9.60955 14.4615 10.0001 14.071L8.58586 12.6568ZM17.0711 6.99993C17.4617 6.60941 17.4617 5.97624 17.0711 5.58572C16.6806 5.19519 16.0475 5.19519 15.6569 5.58572L17.0711 6.99993ZM13 14C12.4477 14 12 14.4477 12 15C12 15.5523 12.4477 16 13 16V14ZM13.01 16C13.5623 16 14.01 15.5523 14.01 15C14.01 14.4477 13.5623 14 13.01 14V16ZM15.4922 11.5C14.9399 11.5 14.4922 11.9477 14.4922 12.5C14.4922 13.0523 14.9399 13.5 15.4922 13.5V11.5ZM15.5022 13.5C16.0545 13.5 16.5022 13.0523 16.5022 12.5C16.5022 11.9477 16.0545 11.5 15.5022 11.5V13.5ZM18 9C17.4477 9 17 9.44772 17 10C17 10.5523 17.4477 11 18 11V9ZM18.01 11C18.5623 11 19.01 10.5523 19.01 10C19.01 9.44772 18.5623 9 18.01 9V11ZM20.9883 10C20.436 10 19.9883 10.4477 19.9883 11C19.9883 11.5523 20.436 12 20.9883 12V10ZM20.9983 12C21.5506 12 21.9983 11.5523 21.9983 11C21.9983 10.4477 21.5506 10 20.9983 10V12ZM18.75 12.25C18.1977 12.25 17.75 12.6977 17.75 13.25C17.75 13.8023 18.1977 14.25 18.75 14.25V12.25ZM18.76 14.25C19.3123 14.25 19.76 13.8023 19.76 13.25C19.76 12.6977 19.3123 12.25 18.76 12.25V14.25ZM16.5 14.5C15.9477 14.5 15.5 14.9477 15.5 15.5C15.5 16.0523 15.9477 16.5 16.5 16.5V14.5ZM16.51 16.5C17.0623 16.5 17.51 16.0523 17.51 15.5C17.51 14.9477 17.0623 14.5 16.51 14.5V16.5ZM13.9883 17C13.436 17 12.9883 17.4477 12.9883 18C12.9883 18.5523 13.436 19 13.9883 19V17ZM13.9983 19C14.5506 19 14.9983 18.5523 14.9983 18C14.9983 17.4477 14.5506 17 13.9983 17V19ZM4 21V5.12132H2V21H4ZM5.91421 4.32843L9.29289 7.70711L10.7071 6.29289L7.32843 2.91421L5.91421 4.32843ZM5.12132 4C5.41871 4 5.70393 4.11814 5.91421 4.32843L7.32843 2.91421C6.74307 2.32885 5.94915 2 5.12132 2V4ZM4 5.12132C4 4.50203 4.50203 4 5.12132 4V2C3.39746 2 2 3.39746 2 5.12132H4ZM10.7074 11.9497C9.53574 10.778 9.53563 8.87858 10.7071 7.70711L9.29289 6.29289C7.34017 8.24561 7.34067 11.4114 9.2932 13.3639L10.7074 11.9497ZM10.7071 7.70711C11.8787 6.53552 13.7785 6.53549 14.95 7.70705L16.3643 6.29284C14.4116 4.34019 11.2455 4.34029 9.29289 6.29289L10.7071 7.70711ZM10.0001 14.071L17.0711 6.99993L15.6569 5.58572L8.58586 12.6568L10.0001 14.071ZM13 16H13.01V14H13V16ZM15.4922 13.5H15.5022V11.5H15.4922V13.5ZM18 11H18.01V9H18V11ZM20.9883 12H20.9983V10H20.9883V12ZM18.75 14.25H18.76V12.25H18.75V14.25ZM16.5 16.5H16.51V14.5H16.5V16.5ZM13.9883 19H13.9983V17H13.9883V19Z" fill="black"/>
</svg>
