<svg width="24" height="24" viewBox="0 0 24 24" fill="none" xmlns="http://www.w3.org/2000/svg">
<g opacity="0.14">
<path d="M5.5 21H13.5C14.6046 21 15.5 20.1046 15.5 19V15.937C15.3402 15.9781 15.1726 16 15 16H4C3.82735 16 3.65981 15.9781 3.5 15.937V19C3.5 20.1046 4.39543 21 5.5 21Z" fill="black"/>
<path d="M15 7H4C3.82735 7 3.65981 7.02188 3.5 7.06301C2.63739 7.28503 2 8.06808 2 9V14C2 14.9319 2.63739 15.715 3.5 15.937C3.65981 15.9781 3.82735 16 4 16H15C15.1726 16 15.3402 15.9781 15.5 15.937C16.3626 15.715 17 14.9319 17 14V9C17 8.06808 16.3626 7.28503 15.5 7.06301C15.3402 7.02188 15.1726 7 15 7Z" fill="black"/>
</g>
<path d="M10 20C9.44772 20 9 20.4477 9 21C9 21.5523 9.44772 22 10 22V20ZM3.5 7.06301L3.74926 8.03145L3.5 7.06301ZM8.75 9.5C8.19772 9.5 7.75 9.94772 7.75 10.5C7.75 11.0523 8.19772 11.5 8.75 11.5V9.5ZM10.25 10.5L11.1863 10.8511C11.3015 10.544 11.2587 10.2 11.0719 9.93041C10.8851 9.66083 10.578 9.5 10.25 9.5V10.5ZM8.56367 12.1489C8.36975 12.666 8.63176 13.2424 9.14888 13.4363C9.666 13.6302 10.2424 13.3682 10.4363 12.8511L8.56367 12.1489ZM13 9.5C12.4477 9.5 12 9.94772 12 10.5C12 11.0523 12.4477 11.5 13 11.5V9.5ZM14.5 10.5L15.4363 10.8511C15.5515 10.544 15.5087 10.2 15.3219 9.93041C15.1351 9.66083 14.828 9.5 14.5 9.5V10.5ZM12.8137 12.1489C12.6198 12.666 12.8818 13.2424 13.3989 13.4363C13.916 13.6302 14.4924 13.3682 14.6863 12.8511L12.8137 12.1489ZM4.5 9.5C3.94772 9.5 3.5 9.94772 3.5 10.5C3.5 11.0523 3.94772 11.5 4.5 11.5V9.5ZM6 10.5L6.93633 10.8511C7.05149 10.544 7.00874 10.2 6.82193 9.93041C6.63511 9.66083 6.32798 9.5 6 9.5V10.5ZM4.31367 12.1489C4.11975 12.666 4.38176 13.2424 4.89888 13.4363C5.416 13.6302 5.99241 13.3682 6.18633 12.8511L4.31367 12.1489ZM20 11V18H22V11H20ZM18 20H10V22H18V20ZM20 18C20 19.1046 19.1046 20 18 20V22C20.2091 22 22 20.2091 22 18H20ZM5.5 6H13.5V4H5.5V6ZM13.5 20H5.5V22H13.5V20ZM5.5 20C4.94772 20 4.5 19.5523 4.5 19H2.5C2.5 20.6569 3.84315 22 5.5 22V20ZM14.5 19C14.5 19.5523 14.0523 20 13.5 20V22C15.1569 22 16.5 20.6569 16.5 19H14.5ZM13.5 6C14.0523 6 14.5 6.44772 14.5 7H16.5C16.5 5.34315 15.1569 4 13.5 4V6ZM5.5 4C3.84315 4 2.5 5.34315 2.5 7H4.5C4.5 6.44772 4.94772 6 5.5 6V4ZM14.5 15.937V19H16.5V15.937H14.5ZM4.5 19V15.937H2.5V19H4.5ZM4.5 7.06301V7H2.5V7.06301H4.5ZM14.5 7V7.06301H16.5V7H14.5ZM4 8H15V6H4V8ZM16 9V14H18V9H16ZM15 15H4V17H15V15ZM3 14V9H1V14H3ZM16 14C16 14.4646 15.6823 14.8575 15.2507 14.9686L15.7493 16.9054C17.043 16.5725 18 15.3993 18 14H16ZM15.2507 14.9686C15.1717 14.9889 15.0879 15 15 15V17C15.2574 17 15.5087 16.9673 15.7493 16.9054L15.2507 14.9686ZM4 15C3.91214 15 3.82832 14.9889 3.74926 14.9686L3.25074 16.9054C3.4913 16.9673 3.74256 17 4 17V15ZM3.74926 14.9686C3.31774 14.8575 3 14.4646 3 14H1C1 15.3993 1.95704 16.5725 3.25074 16.9054L3.74926 14.9686ZM4 6C3.74256 6 3.4913 6.03266 3.25074 6.09457L3.74926 8.03145C3.82832 8.0111 3.91214 8 4 8V6ZM3.25074 6.09457C1.95704 6.42755 1 7.60075 1 9H3C3 8.53541 3.31774 8.14251 3.74926 8.03145L3.25074 6.09457ZM15 8C15.0879 8 15.1717 8.0111 15.2507 8.03145L15.7493 6.09457C15.5087 6.03266 15.2574 6 15 6V8ZM15.2507 8.03145C15.6823 8.14251 16 8.53541 16 9H18C18 7.60075 17.043 6.42755 15.7493 6.09457L15.2507 8.03145ZM21 10V12C22.1046 12 23 11.1046 23 10H21ZM21 10H19C19 11.1046 19.8954 12 21 12V10ZM21 10V8C19.8954 8 19 8.89543 19 10H21ZM21 10H23C23 8.89543 22.1046 8 21 8V10ZM8.75 11.5H10.25V9.5H8.75V11.5ZM9.31367 10.1489L8.56367 12.1489L10.4363 12.8511L11.1863 10.8511L9.31367 10.1489ZM13 11.5H14.5V9.5H13V11.5ZM13.5637 10.1489L12.8137 12.1489L14.6863 12.8511L15.4363 10.8511L13.5637 10.1489ZM4.5 11.5H6V9.5H4.5V11.5ZM5.06367 10.1489L4.31367 12.1489L6.18633 12.8511L6.93633 10.8511L5.06367 10.1489Z" fill="black"/>
</svg>
