<svg width="24" height="24" viewBox="0 0 24 24" fill="none" xmlns="http://www.w3.org/2000/svg">
<g opacity="0.14">
<path d="M10.0001 18C10.0001 19.6569 8.65697 21 7.00012 21C5.34327 21 4.00012 19.6569 4.00012 18C4.00012 16.3431 5.34327 15 7.00012 15C8.65697 15 10.0001 16.3431 10.0001 18Z" fill="black"/>
<path d="M20.0001 18C20.0001 19.6569 18.657 21 17.0001 21C15.3433 21 14.0001 19.6569 14.0001 18C14.0001 16.3431 15.3433 15 17.0001 15C18.657 15 20.0001 16.3431 20.0001 18Z" fill="black"/>
<path d="M11.5001 3H12.5001C13.3285 3 14.0001 3.67157 14.0001 4.5V5C14.0001 3.89543 14.8956 3 16.0001 3H19.2253C20.5904 3 21.5543 4.33739 21.1226 5.63245L19.0001 12H5.00012L2.8776 5.63245C2.44592 4.33739 3.40986 3 4.77497 3H8.00012C9.10469 3 10.0001 3.89543 10.0001 5V4.5C10.0001 3.67157 10.6717 3 11.5001 3Z" fill="black"/>
</g>
<path d="M4.00012 18C4.00012 19.6569 5.34327 21 7.00012 21C8.65697 21 10.0001 19.6569 10.0001 18C10.0001 16.3431 8.65697 15 7.00012 15C5.34327 15 4.00012 16.3431 4.00012 18ZM4.00012 18H20.0001M20.0001 18C20.0001 19.6569 18.657 21 17.0001 21C15.3433 21 14.0001 19.6569 14.0001 18C14.0001 16.3431 15.3433 15 17.0001 15C18.657 15 20.0001 16.3431 20.0001 18ZM4.00012 13V12.5C4.00012 12.2239 4.22398 12 4.50012 12H19.5001C19.7763 12 20.0001 12.2239 20.0001 12.5V13M19.0001 12L21.1226 5.63245C21.5543 4.33739 20.5904 3 19.2253 3H16.0001C14.8956 3 14.0001 3.89543 14.0001 5V12V4.5C14.0001 3.67157 13.3285 3 12.5001 3H11.5001C10.6717 3 10.0001 3.67157 10.0001 4.5V12V5C10.0001 3.89543 9.10469 3 8.00012 3H4.77497C3.40986 3 2.44592 4.33739 2.8776 5.63245L5.00012 12" stroke="black" stroke-width="2" stroke-linecap="round"/>
</svg>
