<svg width="24" height="24" viewBox="0 0 24 24" fill="none" xmlns="http://www.w3.org/2000/svg">
<circle opacity="0.14" cx="9" cy="16" r="5" fill="black"/>
<path d="M17.0509 19.6838C16.8763 20.2077 17.1594 20.774 17.6834 20.9487C18.2073 21.1233 18.7736 20.8402 18.9483 20.3162L17.0509 19.6838ZM19.5609 15.3162L20.5095 15.6325L19.5609 15.3162ZM13.582 13C13.0297 13 12.582 13.4477 12.582 14C12.582 14.5523 13.0297 15 13.582 15V13ZM14.0528 8.89443C14.5468 9.14142 15.1474 8.94119 15.3944 8.44721C15.6414 7.95324 15.4412 7.35256 14.9472 7.10557L14.0528 8.89443ZM13.1833 7.34164L12.7361 8.23607L13.1833 7.34164ZM8.10557 8.55279C7.85858 9.04676 8.05881 9.64744 8.55279 9.89443C9.04676 10.1414 9.64744 9.94119 9.89443 9.44721L8.10557 8.55279ZM11.6864 12.1539C11.4739 12.6636 11.7149 13.2491 12.2246 13.4616C12.7344 13.6741 13.3199 13.4331 13.5324 12.9234L11.6864 12.1539ZM15.4242 8.38475C15.6367 7.87497 15.3957 7.28947 14.886 7.07698C14.3762 6.86449 13.7907 7.10548 13.5782 7.61525L15.4242 8.38475ZM18.9483 20.3162L20.5095 15.6325L18.6122 15L17.0509 19.6838L18.9483 20.3162ZM18.6122 13H13.582V15H18.6122V13ZM20.5095 15.6325C20.9412 14.3374 19.9773 13 18.6122 13V15L20.5095 15.6325ZM16 4V6C17.1046 6 18 5.10457 18 4H16ZM16 4H14C14 5.10457 14.8954 6 16 6V4ZM16 4V2C14.8954 2 14 2.89543 14 4H16ZM16 4H18C18 2.89543 17.1046 2 16 2V4ZM13 16C13 18.2091 11.2091 20 9 20V22C12.3137 22 15 19.3137 15 16H13ZM9 20C6.79086 20 5 18.2091 5 16H3C3 19.3137 5.68629 22 9 22V20ZM5 16C5 13.7909 6.79086 12 9 12V10C5.68629 10 3 12.6863 3 16H5ZM9 12C11.2091 12 13 13.7909 13 16H15C15 12.6863 12.3137 10 9 10V12ZM14.9472 7.10557L13.6305 6.44721L12.7361 8.23607L14.0528 8.89443L14.9472 7.10557ZM8.26393 8.23607L8.10557 8.55279L9.89443 9.44721L10.0528 9.13049L8.26393 8.23607ZM13.6305 6.44721C11.6546 5.45926 9.25189 6.26015 8.26393 8.23607L10.0528 9.13049C10.5468 8.14254 11.7481 7.74209 12.7361 8.23607L13.6305 6.44721ZM13.5324 12.9234L15.4242 8.38475L13.5782 7.61525L11.6864 12.1539L13.5324 12.9234Z" fill="black"/>
</svg>
