<svg width="24" height="24" viewBox="0 0 24 24" fill="none" xmlns="http://www.w3.org/2000/svg">
<path d="M16.6137 1.99976C16.6137 1.99976 10.5474 1.99998 7.51475 2.00004L12.0095 7.44108L16.6137 1.99976Z" fill="black"/>
<path d="M5.77535 3.03475L2.46484 8.00006H9.87713L5.77535 3.03475Z" fill="black"/>
<path d="M2.49962 10.0001C2.49962 10.0001 7.88516 17.18 10.5773 20.7693C10.6707 20.8939 10.7762 21.0347 10.8777 21.1476C10.9897 21.2721 11.1759 21.4555 11.4566 21.5647C11.8063 21.7007 12.1943 21.7007 12.544 21.5647C12.8248 21.4555 13.0109 21.2721 13.1229 21.1476C13.2245 21.0347 13.33 20.8939 13.4234 20.7693C16.1155 17.18 21.501 10.0001 21.501 10.0001H2.49962Z" fill="black"/>
<path d="M21.5358 8.00006H14.1564L18.2837 3.12235L21.5358 8.00006Z" fill="black"/>
</svg>
