<svg width="24" height="24" viewBox="0 0 24 24" fill="none" xmlns="http://www.w3.org/2000/svg">
<path d="M14 3C13.4477 3 13 3.44772 13 4H18C20.2091 4 22 5.79086 22 8V9C22 10.1046 21.1046 11 20 11H4C2.89543 11 2 10.1046 2 9V8C2 5.79086 3.79086 4 6 4H11C11 2.34315 12.3431 1 14 1C14.5523 1 15 1.44772 15 2C15 2.55228 14.5523 3 14 3Z" fill="black"/>
<path d="M4 13L4 13.9377C4 16.8086 5.53829 19.4593 8.03089 20.8837L11.5039 22.8682C11.8113 23.0439 12.1887 23.0439 12.4961 22.8682L15.9691 20.8837C18.4617 19.4593 20 16.8086 20 13.9377V13H4Z" fill="black"/>
</svg>
