<svg width="24" height="24" viewBox="0 0 24 24" fill="none" xmlns="http://www.w3.org/2000/svg">
<path d="M2.18877 2.41529C2.37672 2.15452 2.67856 2 3.00001 2H21C21.3215 2 21.6233 2.15452 21.8113 2.41529C21.9992 2.67606 22.0503 3.01128 21.9487 3.31623L21.3874 5H2.61258L2.05132 3.31623C1.94967 3.01128 2.00081 2.67606 2.18877 2.41529Z" fill="black"/>
<path fill-rule="evenodd" clip-rule="evenodd" d="M2.71923 7L2.51494 7.81718C2.17294 9.18516 2.00001 10.5899 2.00001 12C2.00001 13.4101 2.17294 14.8148 2.51494 16.1828L2.71923 17H21.2808L21.4851 16.1828C21.8271 14.8148 22 13.4101 22 12C22 10.5899 21.8271 9.18516 21.4851 7.81718L21.2808 7H2.71923ZM7 9C7 8.44772 7.44772 8 8 8H9C10.1947 8 11.2671 8.52376 12 9.35418C12.7329 8.52376 13.8053 8 15 8H16C16.5523 8 17 8.44772 17 9V10C17 12.2091 15.2091 14 13 14V15C13 15.5523 12.5523 16 12 16C11.4477 16 11 15.5523 11 15V14C8.79086 14 7 12.2091 7 10V9Z" fill="black"/>
<path d="M2.61258 19H21.3874L21.9487 20.6838C22.0503 20.9887 21.9992 21.3239 21.8113 21.5847C21.6233 21.8455 21.3215 22 21 22H3.00001C2.67856 22 2.37672 21.8455 2.18877 21.5847C2.00081 21.3239 1.94967 20.9887 2.05132 20.6838L2.61258 19Z" fill="black"/>
</svg>
