<svg width="24" height="24" viewBox="0 0 24 24" fill="none" xmlns="http://www.w3.org/2000/svg">
<path d="M17.4998 2C15.7263 2 14.252 3.21921 13.8175 4.85542C12.7239 5.53576 12 6.75654 12 8.1428C12 10.2581 13.6921 12 15.8125 12H16.5V21C16.5 21.5523 16.9477 22 17.5 22C18.0523 22 18.5 21.5523 18.5 21V12H19.1875C21.3079 12 23 10.2581 23 8.1428C23 6.75633 22.2756 5.53566 21.1821 4.8554C20.7475 3.21921 19.2733 2 17.4998 2Z" fill="black"/>
<path fill-rule="evenodd" clip-rule="evenodd" d="M2 12C1.44772 12 1 12.4477 1 13V15C1 15.5523 1.44772 16 2 16H3V17H2C1.44772 17 1 17.4477 1 18C1 18.5523 1.44772 19 2 19V21C2 21.5523 2.44772 22 3 22C3.55228 22 4 21.5523 4 21V19H10V21C10 21.5523 10.4477 22 11 22C11.5523 22 12 21.5523 12 21V19C12.5523 19 13 18.5523 13 18C13 17.4477 12.5523 17 12 17H11V16H12C12.5523 16 13 15.5523 13 15V13C13 12.4477 12.5523 12 12 12H2ZM5 17V16H9V17H5Z" fill="black"/>
</svg>
