<svg width="24" height="24" viewBox="0 0 24 24" fill="none" xmlns="http://www.w3.org/2000/svg">
<path d="M5.25 2C4.69772 2 4.25 2.44772 4.25 3C4.25 3.55228 4.69772 4 5.25 4H8.25C8.80228 4 9.25 3.55228 9.25 3C9.25 2.44772 8.80228 2 8.25 2H5.25Z" fill="black"/>
<path d="M15.75 2C15.1977 2 14.75 2.44772 14.75 3C14.75 3.55228 15.1977 4 15.75 4H18.75C19.3023 4 19.75 3.55228 19.75 3C19.75 2.44772 19.3023 2 18.75 2H15.75Z" fill="black"/>
<path fill-rule="evenodd" clip-rule="evenodd" d="M5 5C3.89543 5 3 5.89543 3 7V9.72671C3 10.4263 2.85319 11.1181 2.56906 11.7574L1.60332 13.9303C1.20554 14.8253 1 15.7939 1 16.7733V20C1 21.1046 1.89543 22 3 22H8.5C9.60457 22 10.5 21.1046 10.5 20V14H13.5V20C13.5 21.1046 14.3954 22 15.5 22H21C22.1046 22 23 21.1046 23 20V16.7733C23 15.7939 22.7945 14.8253 22.3967 13.9303L21.4309 11.7574C21.1468 11.1181 21 10.4263 21 9.72671V7C21 5.89543 20.1046 5 19 5H15.5C14.3954 5 13.5 5.89543 13.5 7V8H10.5V7C10.5 5.89543 9.60457 5 8.5 5H5ZM13.5 12H10.5V10H13.5V12Z" fill="black"/>
</svg>
