<svg width="24" height="24" viewBox="0 0 24 24" fill="none" xmlns="http://www.w3.org/2000/svg">
<path d="M5.39466 2.55276C5.14767 2.05878 4.547 1.85856 4.05302 2.10555C3.55904 2.35254 3.35882 2.95321 3.60581 3.44719L4.5974 5.43037C4.20876 5.69431 3.89837 6.06485 3.70826 6.49997H3.28101L2.97038 5.25744C2.83643 4.72164 2.2935 4.39588 1.7577 4.52983C1.22191 4.66378 0.896145 5.20672 1.03009 5.74251L1.53009 7.74251C1.64139 8.18768 2.04137 8.49997 2.50024 8.49997H3.50024V9.38193L2.05302 10.1055C1.79192 10.2361 1.6009 10.4742 1.53009 10.7574L1.03009 12.7574C0.896145 13.2932 1.22191 13.8362 1.7577 13.9701C2.2935 14.1041 2.83643 13.7783 2.97038 13.2425L3.35883 11.6887L4.22194 11.2571C4.67516 11.7158 5.30451 12 6.00024 12C6.69596 12 7.32531 11.7158 7.77853 11.2571L8.64164 11.6887L9.03009 13.2425C9.16404 13.7783 9.70698 14.1041 10.2428 13.9701C10.7786 13.8362 11.1043 13.2932 10.9704 12.7574L10.4704 10.7574C10.3996 10.4742 10.2086 10.2361 9.94745 10.1055L8.50024 9.38193V8.49997H9.50024C9.9591 8.49997 10.3591 8.18768 10.4704 7.74251L10.9704 5.74251C11.1043 5.20672 10.7786 4.66378 10.2428 4.52983C9.70698 4.39588 9.16404 4.72164 9.03009 5.25744L8.71946 6.49997H8.29221C8.1021 6.06485 7.79171 5.69431 7.40307 5.43037L8.39466 3.44719C8.64165 2.95321 8.44143 2.35254 7.94745 2.10555C7.45347 1.85856 6.8528 2.05878 6.60581 2.55276L6.00024 3.76391L5.39466 2.55276Z" fill="black"/>
<path d="M19.0702 9.58521C19.0551 9.03313 18.5953 8.59781 18.0432 8.6129C17.4912 8.62798 17.0558 9.08776 17.0709 9.63984L17.1315 11.8565C16.6685 11.9316 16.2313 12.1359 15.8756 12.4492L15.4899 12.2693L15.7334 11.0119C15.8385 10.4697 15.4841 9.94504 14.9419 9.84C14.3997 9.73497 13.875 10.0894 13.7699 10.6316L13.3779 12.6555C13.2906 13.106 13.5211 13.5581 13.937 13.752L14.8414 14.1737L14.4683 14.974L12.8533 15.0181C12.5615 15.0261 12.2878 15.1612 12.1039 15.3879L10.8055 16.9892C10.4577 17.4182 10.5235 18.048 10.9525 18.3958C11.3814 18.7436 12.0112 18.6778 12.359 18.2489L13.3677 17.0048L14.3299 16.9785C14.5468 17.5857 14.9971 18.1092 15.6276 18.4032C16.2592 18.6977 16.9509 18.7057 17.5562 18.4805L18.1569 19.2374L17.8523 20.8098C17.7472 21.352 18.1016 21.8767 18.6438 21.9818C19.186 22.0868 19.7107 21.7324 19.8158 21.1902L20.2079 19.1663C20.2634 18.8797 20.1909 18.5831 20.0094 18.3545L19.0012 17.084L19.3722 16.2885L20.277 16.7103C20.6928 16.9043 21.1873 16.7903 21.4763 16.4339L22.7747 14.8325C23.1225 14.4036 23.0568 13.7738 22.6278 13.426C22.1988 13.0782 21.569 13.1439 21.2212 13.5729L20.4146 14.5678L20.0293 14.3881C20.041 13.9131 19.9163 13.4459 19.6756 13.0422L21.4131 11.6638C21.8458 11.3205 21.9183 10.6915 21.575 10.2588C21.2318 9.82618 20.6028 9.75369 20.1701 10.0969L19.1072 10.9402L19.0702 9.58521Z" fill="black"/>
</svg>
