<svg width="24" height="24" viewBox="0 0 24 24" fill="none" xmlns="http://www.w3.org/2000/svg">
<path d="M12.7071 1.29289C12.3166 0.902369 11.6834 0.902369 11.2929 1.29289C10.6309 1.95487 9.94559 3.25317 9.43052 4.73398C9.11677 5.63602 8.84765 6.65867 8.68072 7.73495C7.00349 6.35988 5.35573 6 4.00002 6C3.44773 6 3.00002 6.44772 3.00002 7V7.02618C2.99993 8.3201 2.99979 10.6051 4.73149 12.67L2.6061 13.5809C2.3011 13.7116 2.08081 13.9851 2.01806 14.3109C1.95531 14.6367 2.05827 14.9725 2.29291 15.2071C3.50476 16.419 4.99667 16.8511 6.12598 16.9923C6.29061 17.0129 6.4492 17.0275 6.6001 17.0375L6.05133 18.6838C5.93328 19.0379 6.02233 19.4284 6.28228 19.6963C6.54223 19.9643 6.92979 20.0651 7.28736 19.9578L11 18.844V22C11 22.5523 11.4477 23 12 23C12.5523 23 13 22.5523 13 22V18.844L16.7127 19.9578C17.0702 20.0651 17.4578 19.9643 17.7178 19.6963C17.9777 19.4284 18.0668 19.0379 17.9487 18.6838L17.3999 17.0375C17.5508 17.0275 17.7094 17.0129 17.8741 16.9923C19.0034 16.8511 20.4953 16.419 21.7071 15.2071C21.9418 14.9725 22.0447 14.6367 21.982 14.3109C21.9192 13.9851 21.6989 13.7116 21.3939 13.5809L19.2685 12.67C21.0002 10.6051 21.0001 8.3201 21 7.02618V7C21 6.44772 20.5523 6 20 6C18.6443 6 16.9965 6.35988 15.3193 7.73496C15.1524 6.65867 14.8833 5.63602 14.5695 4.73398C14.0544 3.25317 13.3691 1.95487 12.7071 1.29289Z" fill="black"/>
</svg>
