<svg width="24" height="24" viewBox="0 0 24 24" fill="none" xmlns="http://www.w3.org/2000/svg">
<path d="M10 2C10.7684 2 11.4692 2.28886 12 2.7639C12.5308 2.28886 13.2316 2 14 2C15.6569 2 17 3.34315 17 5C17 5.4373 16.9058 5.85529 16.7356 6.23256C16.7178 6.27223 16.6973 6.3107 16.6744 6.3477L15.0861 8.91392L17.6523 7.32563C17.6893 7.30272 17.7278 7.28226 17.7675 7.26437C18.1447 7.09421 18.5627 7.00001 19 7.00001C20.6569 7.00001 22 8.34316 22 10C22 10.7684 21.7112 11.4693 21.2361 12C21.7112 12.5308 22 13.2317 22 14C22 15.6569 20.6569 17 19 17C18.5627 17 18.1447 16.9058 17.7675 16.7357C17.7278 16.7178 17.6893 16.6973 17.6523 16.6744L15.0861 15.0861L16.6744 17.6523C16.6973 17.6893 16.7178 17.7278 16.7356 17.7675C16.9058 18.1447 17 18.5627 17 19C17 20.6569 15.6569 22 14 22C13.2316 22 12.5308 21.7112 12 21.2361C11.4692 21.7112 10.7684 22 10 22C8.34315 22 7 20.6569 7 19C7 18.5627 7.0942 18.1447 7.26436 17.7675C7.28225 17.7278 7.30272 17.6893 7.32562 17.6523L8.9139 15.0861L6.3477 16.6744C6.31069 16.6973 6.27223 16.7178 6.23256 16.7357C5.85529 16.9058 5.4373 17 5 17C3.34315 17 2 15.6569 2 14C2 13.2317 2.28886 12.5308 2.7639 12C2.28886 11.4693 2 10.7684 2 10C2 8.34316 3.34315 7.00001 5 7.00001C5.4373 7.00001 5.85529 7.09421 6.23256 7.26437C6.27223 7.28226 6.3107 7.30272 6.3477 7.32563L8.91391 8.91391L7.32562 6.3477C7.30272 6.31069 7.28225 6.27223 7.26436 6.23256C7.0942 5.85529 7 5.4373 7 5C7 3.34315 8.34315 2 10 2Z" fill="black"/>
</svg>
