<svg width="24" height="24" viewBox="0 0 24 24" fill="none" xmlns="http://www.w3.org/2000/svg">
<path fill-rule="evenodd" clip-rule="evenodd" d="M2 8.5C2 4.91015 4.91015 2 8.5 2C9.78773 2 10.9896 2.37532 12 3.02199C13.0104 2.37532 14.2123 2 15.5 2C19.0899 2 22 4.91015 22 8.5C22 9.78774 21.6247 10.9896 20.978 12C21.6247 13.0104 22 14.2123 22 15.5C22 19.0899 19.0899 22 15.5 22C14.2123 22 13.0104 21.6247 12 20.978C10.9896 21.6247 9.78774 22 8.5 22C4.91015 22 2 19.0899 2 15.5C2 14.2123 2.37532 13.0104 3.02199 12C2.37532 10.9896 2 9.78773 2 8.5ZM12 15C13.6569 15 15 13.6569 15 12C15 10.3431 13.6569 9 12 9C10.3431 9 9 10.3431 9 12C9 13.6569 10.3431 15 12 15Z" fill="black"/>
</svg>
