<svg width="24" height="24" viewBox="0 0 24 24" fill="none" xmlns="http://www.w3.org/2000/svg">
<path fill-rule="evenodd" clip-rule="evenodd" d="M6 5.125C6 2.84683 7.84683 1 10.125 1C10.7992 1 11.4371 1.16239 12 1.45004C12.5629 1.16239 13.2008 1 13.875 1C16.1532 1 18 2.84683 18 5.125C18 5.79923 17.8376 6.43707 17.55 7C17.8376 7.56294 18 8.20077 18 8.875C18 11.1532 16.1532 13 13.875 13C13.575 13 13.2822 12.9678 13 12.9068V17.101C14.2705 15.8045 16.0413 15 18 15H19.25C20.2165 15 21 15.7835 21 16.75C21 20.2018 18.2018 23 14.75 23H9.25C5.79822 23 3 20.2018 3 16.75C3 15.7835 3.7835 15 4.75 15H6C7.95869 15 9.72948 15.8045 11 17.101V12.9068C10.7178 12.9678 10.425 13 10.125 13C7.84683 13 6 11.1532 6 8.875C6 8.20077 6.16239 7.56294 6.45004 7C6.16239 6.43706 6 5.79923 6 5.125ZM12 8.5C12.8284 8.5 13.5 7.82843 13.5 7C13.5 6.17157 12.8284 5.5 12 5.5C11.1716 5.5 10.5 6.17157 10.5 7C10.5 7.82843 11.1716 8.5 12 8.5Z" fill="black"/>
</svg>
