<svg width="24" height="24" viewBox="0 0 24 24" fill="none" xmlns="http://www.w3.org/2000/svg">
<path d="M13.652 2.47014C13.941 2.00781 14.547 1.86214 15.0145 2.14264L17.1007 3.39437L20.6489 2.06381C21.0161 1.92612 21.4298 2.01574 21.7071 2.29303C21.9844 2.57032 22.074 2.98408 21.9363 3.35126L20.6058 6.89943L21.8575 8.98564C22.138 9.45314 21.9923 10.0592 21.53 10.3481L19.042 11.9031L19.4472 12.1057C19.9412 12.3527 20.1414 12.9534 19.8944 13.4473L19.2168 14.8027L20.7071 16.293C21.0977 16.6836 21.0977 17.3167 20.7071 17.7072L19.1075 19.3069L19.4702 20.7576C19.5554 21.0984 19.4555 21.4589 19.2071 21.7072C18.9587 21.9556 18.5983 22.0555 18.2575 21.9703L10.9016 20.1313L9.80002 21.6001C9.59207 21.8774 9.25539 22.0272 8.91022 21.9961C8.56504 21.965 8.26059 21.7573 8.10559 21.4473L6.72607 18.6883L3.70713 21.7072C3.3166 22.0978 2.68344 22.0978 2.29291 21.7072C1.90239 21.3167 1.90239 20.6836 2.29291 20.293L5.31186 17.2741L5.31081 17.2736L10.7071 11.8773C11.0976 11.4867 11.0976 10.8536 10.7071 10.4631C10.3166 10.0725 9.68342 10.0725 9.29289 10.4631L3.4252 16.3308L2.55281 15.8946C2.24282 15.7396 2.03519 15.4351 2.00406 15.0899C1.97294 14.7448 2.12276 14.4081 2.40002 14.2001L3.86884 13.0985L2.02988 5.74267C1.94468 5.4019 2.04453 5.04141 2.29291 4.79303C2.54129 4.54465 2.90178 4.4448 3.24256 4.52999L4.69327 4.89267L6.29291 3.29303C6.68344 2.9025 7.3166 2.9025 7.70713 3.29303L9.19747 4.78337L10.5528 4.10571C11.0468 3.85872 11.6475 4.05894 11.8944 4.55292L12.097 4.95811L13.652 2.47014Z" fill="black"/>
</svg>
