<svg width="24" height="24" viewBox="0 0 24 24" fill="none" xmlns="http://www.w3.org/2000/svg">
<path fill-rule="evenodd" clip-rule="evenodd" d="M9.89595 3.47726C10.6289 2.57638 11.7465 2 13 2C13.9464 2 14.8157 2.32904 15.5 2.8775C16.1843 2.32904 17.0536 2 18 2C20.2091 2 22 3.79086 22 6C22 6.94638 21.671 7.8157 21.1225 8.5C21.671 9.1843 22 10.0536 22 11C22 12.2535 21.4236 13.3711 20.5227 14.1041C20.8269 14.6683 21 15.3142 21 16C21 18.0464 19.4633 19.7338 17.481 19.9714C16.794 21.1819 15.4935 22 14 22C13.1715 22 12.4258 21.7506 11.7594 21.435C11.2147 21.177 10.6681 20.846 10.1564 20.5362C10.0564 20.4756 9.95763 20.4158 9.8605 20.3575C8.73691 19.6833 7.67128 19.1154 6.39864 19.0156L3.70711 21.7071C3.31658 22.0976 2.68342 22.0976 2.29289 21.7071C1.90237 21.3166 1.90237 20.6834 2.29289 20.2929L4.98443 17.6014L10.7085 11.8772C11.099 11.4866 11.099 10.8535 10.7085 10.4629C10.318 10.0724 9.68479 10.0724 9.29426 10.4629L4.34589 15.4113C4.14009 14.986 3.89899 14.567 3.64251 14.1395C3.58423 14.0424 3.52444 13.9436 3.46385 13.8436C3.15401 13.3319 2.82303 12.7853 2.56501 12.2406C2.24938 11.5742 2 10.8285 2 10C2 8.50652 2.81808 7.206 4.02862 6.51903C4.26619 4.53667 5.95364 3 8 3C8.6858 3 9.33174 3.17305 9.89595 3.47726Z" fill="black"/>
</svg>
