<svg width="24" height="24" viewBox="0 0 24 24" fill="none" xmlns="http://www.w3.org/2000/svg">
<path d="M19.0008 3C17.3439 3 16.0008 4.34315 16.0008 6C16.0008 7.65685 17.3439 9 19.0008 9C20.6576 9 22.0008 7.65685 22.0008 6C22.0008 4.34315 20.6576 3 19.0008 3Z" fill="black"/>
<path d="M10.3145 7.17412C9.79653 6.94344 9.20501 6.94344 8.68706 7.17412C8.28683 7.35238 8.02719 7.66648 7.84668 7.92215C7.66909 8.17368 7.47898 8.50326 7.2698 8.86589L2.49785 17.1373C2.28883 17.4995 2.09882 17.8288 1.97006 18.1083C1.83915 18.3924 1.69732 18.7741 1.74318 19.2095C1.80255 19.7731 2.09824 20.2851 2.55677 20.6181C2.91102 20.8755 3.31253 20.9434 3.62403 20.972C3.93042 21.0001 4.31056 21 4.72877 21H19.3242C19.7354 21 20.1101 21.0001 20.4127 20.9723C20.7215 20.944 21.1178 20.8767 21.4695 20.6238C21.926 20.2956 22.2233 19.7904 22.2885 19.232C22.3387 18.8018 22.2051 18.4226 22.0799 18.139C21.9572 17.861 21.7752 17.5334 21.5755 17.174L19.2535 12.9945C19.0431 12.6157 18.8529 12.2732 18.675 12.0124C18.4955 11.7492 18.2348 11.4222 17.827 11.2374C17.3023 10.9997 16.7006 10.9997 16.176 11.2374C15.7682 11.4222 15.5075 11.7492 15.328 12.0124C15.1501 12.2733 14.9599 12.6158 14.7494 12.9946L14.4375 13.5558L11.7318 8.86594C11.5226 8.50328 11.3325 8.17369 11.1549 7.92215C10.9743 7.66648 10.7147 7.35238 10.3145 7.17412Z" fill="black"/>
</svg>
