<svg width="24" height="24" viewBox="0 0 24 24" fill="none" xmlns="http://www.w3.org/2000/svg">
<path d="M10.3145 5.17399C9.79653 4.94331 9.20501 4.94331 8.68706 5.17399C8.28683 5.35225 8.02719 5.66635 7.84668 5.92202C7.66909 6.17355 7.47898 6.50312 7.2698 6.86576L2.49785 15.1371C2.28883 15.4994 2.09882 15.8287 1.97006 16.1081C1.83915 16.3922 1.69732 16.7739 1.74318 17.2094C1.80255 17.773 2.09824 18.2849 2.55677 18.618C2.91102 18.8753 3.31253 18.9432 3.62403 18.9718C3.93042 18.9999 4.31056 18.9999 4.72877 18.9999H19.3242C19.7354 18.9999 20.1101 18.9999 20.4127 18.9722C20.7215 18.9439 21.1178 18.8766 21.4695 18.6237C21.926 18.2955 22.2233 17.7903 22.2885 17.2319C22.3387 16.8017 22.2051 16.4225 22.0799 16.1388C21.9572 15.8608 21.7752 15.5333 21.5755 15.1739L19.2535 10.9944C19.0431 10.6156 18.8529 10.2731 18.675 10.0122C18.4955 9.74909 18.2348 9.4221 17.827 9.23731C17.3023 8.99955 16.7006 8.99955 16.176 9.23731C15.7682 9.4221 15.5075 9.74909 15.328 10.0122C15.1501 10.2731 14.9599 10.6156 14.7494 10.9945L14.4375 11.5557L11.7318 6.8658C11.5226 6.50315 11.3325 6.17356 11.1549 5.92202C10.9743 5.66635 10.7147 5.35225 10.3145 5.17399Z" fill="black"/>
</svg>
