<svg width="24" height="24" viewBox="0 0 24 24" fill="none" xmlns="http://www.w3.org/2000/svg">
<path fill-rule="evenodd" clip-rule="evenodd" d="M12.8202 4.21613C12.2978 3.98069 11.6994 3.98069 11.1769 4.21613C10.7716 4.39876 10.5113 4.72147 10.3314 4.98217C10.1536 5.23996 9.9634 5.57815 9.75337 5.9516L3.44766 17.1617C3.24492 17.5221 3.06031 17.8502 2.93564 18.1287C2.80858 18.4125 2.67227 18.7926 2.7211 19.2245C2.78441 19.7846 3.08117 20.292 3.53832 20.6218C3.89083 20.8761 4.28887 20.9436 4.59853 20.972C4.90236 20.9999 5.27884 20.9999 5.69231 20.9998H18.3048C18.7183 20.9999 19.0948 20.9999 19.3987 20.972C19.7083 20.9436 20.1063 20.8761 20.4589 20.6218C20.916 20.292 21.2128 19.7846 21.2761 19.2245C21.3249 18.7926 21.1886 18.4125 21.0615 18.1287C20.9369 17.8503 20.7523 17.5222 20.5496 17.1618L14.2438 5.95161C14.0338 5.57817 13.8436 5.23996 13.6657 4.98217C13.4859 4.72147 13.2255 4.39876 12.8202 4.21613ZM11.4756 6.96923C11.582 6.78013 11.674 6.61845 11.7539 6.48204C11.8237 6.36282 11.8586 6.3032 11.9177 6.27709C11.9654 6.25596 12.0317 6.25596 12.0795 6.27708C12.1385 6.3032 12.1734 6.36281 12.2433 6.48203C12.3232 6.61845 12.4152 6.78013 12.5215 6.96923L14.2392 10.0229C14.3274 10.1797 14.3715 10.2581 14.3643 10.3223C14.3579 10.3783 14.3282 10.429 14.2825 10.462C14.2301 10.4998 14.1402 10.4998 13.9603 10.4998H12.5426C12.2773 10.4998 12.023 10.6052 11.8355 10.7927L10.2608 12.3674C10.1822 12.446 10.1429 12.4853 10.0975 12.5002C10.0576 12.5132 10.0146 12.5134 9.97457 12.5007C9.92908 12.4862 9.88945 12.4473 9.81019 12.3694L9.10121 11.6726C9.03867 11.6112 9.00739 11.5804 8.99185 11.5439C8.97814 11.5117 8.97314 11.4764 8.97735 11.4416C8.98212 11.4022 9.00361 11.364 9.04661 11.2875L11.4756 6.96923Z" fill="black"/>
</svg>
