<svg width="24" height="24" viewBox="0 0 24 24" fill="none" xmlns="http://www.w3.org/2000/svg">
<path d="M16 2C14.8954 2 14 2.89543 14 4C14 5.10457 14.8954 6 16 6C17.1046 6 18 5.10457 18 4C18 2.89543 17.1046 2 16 2Z" fill="black"/>
<path d="M8.08062 5.71023C6.0012 5.15039 3.85179 6.33725 3.21793 8.39531L2.0443 12.2059C1.96441 12.4653 1.99339 12.746 2.1246 12.9837C2.2558 13.2213 2.47795 13.3953 2.74004 13.4659L5.74004 14.2735C6.26133 14.4139 6.79991 14.1151 6.95683 13.5986L8.95683 7.01479C9.03553 6.75573 9.00581 6.47583 8.87448 6.23906C8.74314 6.0023 8.52142 5.82891 8.25997 5.75852L8.08062 5.71023Z" fill="black"/>
<path d="M13.8418 6.80937C12.2242 6.20277 10.4299 7.08426 9.92137 8.73532L8.93666 11.9325C8.54739 13.1964 9.20981 14.5448 10.4481 15.0092L14.48 16.5212L14.5022 21.005C14.5049 21.5573 14.9549 22.0028 15.5071 22C16.0594 21.9973 16.5049 21.5474 16.5022 20.9951L16.48 16.5113C16.4759 15.6812 15.9595 14.94 15.1822 14.6485L14.7095 14.4712L15.8884 10.6432L17.3922 11.7941C17.5667 11.9277 17.7803 12 18 12H20V21C20 21.5523 20.4477 22 21 22C21.5523 22 22 21.5523 22 21V8C22 7.44772 21.5523 7 21 7C20.4477 7 20 7.44772 20 8V10H18.3387L15.0213 7.46102C14.7546 7.22562 14.4415 7.03426 14.0898 6.90235L13.8418 6.80937Z" fill="black"/>
<path d="M9.643 16.4346C9.80547 15.9067 9.50928 15.3471 8.98143 15.1846C8.45359 15.0222 7.89397 15.3184 7.7315 15.8462L6.23566 20.7059C6.07319 21.2338 6.36938 21.7934 6.89723 21.9559C7.42507 22.1183 7.98469 21.8222 8.14716 21.2943L9.643 16.4346Z" fill="black"/>
</svg>
