<svg width="24" height="24" viewBox="0 0 24 24" fill="none" xmlns="http://www.w3.org/2000/svg">
<path d="M13.0008 6.5C13.0008 5.11929 14.1201 4 15.5008 4C16.7612 4 17.8037 4.9327 17.9758 6.14554C16.3078 6.63213 15.1524 8.27485 15.3802 10.0978C15.4877 10.9578 15.8398 11.7689 16.3946 12.4347L18.2326 14.6402C18.4226 14.8682 18.704 15 19.0008 15C19.2976 15 19.579 14.8682 19.769 14.6402L21.6069 12.4347C22.1618 11.7689 22.5138 10.9578 22.6213 10.0978C22.851 8.26046 21.6754 6.60621 19.9861 6.13423C19.8 3.82001 17.8629 2 15.5008 2C13.0155 2 11.0008 4.01472 11.0008 6.5V7.75777C10.2857 7.27914 9.42585 7 8.50078 7C6.13864 7 4.20158 8.82001 4.01543 11.1342C2.32612 11.6062 1.15055 13.2605 1.38022 15.0978C1.48772 15.9578 1.8398 16.7689 2.39464 17.4347L4.23256 19.6402C4.42255 19.8682 4.704 20 5.00078 20C5.29756 20 5.579 19.8682 5.769 19.6402L7.60691 17.4347C8.16175 16.7689 8.51383 15.9578 8.62133 15.0978C8.8492 13.2748 7.69375 11.6321 6.02571 11.1455C6.19785 9.9327 7.24039 9 8.50078 9C9.88149 9 11.0008 10.1193 11.0008 11.5V21C11.0008 21.5523 11.4485 22 12.0008 22C12.5531 22 13.0008 21.5523 13.0008 21V6.5Z" fill="black"/>
</svg>
