<svg width="24" height="24" viewBox="0 0 24 24" fill="none" xmlns="http://www.w3.org/2000/svg">
<path d="M11.3811 3.52562C11.2066 3.20187 10.8686 3 10.5008 3C10.133 3 9.79493 3.20187 9.62046 3.52562L7.46497 7.52562C7.44862 7.55596 7.43385 7.58713 7.42072 7.619L7.28482 7.94878C6.32842 10.2697 7.91623 13 10.5008 13C13.0853 13 14.6731 10.2697 13.7167 7.94878L13.5809 7.619C13.5677 7.58713 13.5529 7.55596 13.5366 7.52562L11.3811 3.52562Z" fill="black"/>
<path d="M5.86547 12.5017C5.68709 12.1913 5.35644 12 4.99849 12C4.64054 12 4.30989 12.1913 4.13151 12.5017L2.40712 15.5017C2.38925 15.5327 2.37306 15.5648 2.35863 15.5976L2.24992 15.8449C1.37881 17.8267 2.86131 20 4.99849 20C7.13568 20 8.61817 17.8267 7.74707 15.8449L7.63835 15.5976C7.62392 15.5648 7.60774 15.5328 7.58987 15.5017L5.86547 12.5017Z" fill="black"/>
<path d="M18.3556 9.48328C18.1746 9.18334 17.8498 9 17.4995 9C17.1491 9 16.8243 9.18334 16.6433 9.48328L13.6256 14.4833C13.6066 14.5149 13.5893 14.5475 13.5738 14.5809L13.3836 14.9932C12.0354 17.9142 14.3564 21 17.4995 21C20.6425 21 22.9635 17.9142 21.6154 14.9932L21.4251 14.5809C21.4097 14.5475 21.3924 14.5149 21.3733 14.4833L18.3556 9.48328Z" fill="black"/>
</svg>
