<svg width="24" height="24" viewBox="0 0 24 24" fill="none" xmlns="http://www.w3.org/2000/svg">
<path d="M12.5 3C12.5 2.44772 12.0523 2 11.5 2C10.9477 2 10.5 2.44772 10.5 3V4H5C4.44772 4 4 4.44772 4 5V9C4 9.55228 4.44772 10 5 10H10.5V11H6C5.73478 11 5.48043 11.1054 5.29289 11.2929L3.29289 13.2929C2.90237 13.6834 2.90237 14.3166 3.29289 14.7071L5.29289 16.7071C5.48043 16.8946 5.73478 17 6 17H10.5V21C10.5 21.5523 10.9477 22 11.5 22C12.0523 22 12.5 21.5523 12.5 21V17H19C19.5523 17 20 16.5523 20 16V12C20 11.4477 19.5523 11 19 11H12.5V10H18C18.2652 10 18.5196 9.89464 18.7071 9.70711L20.7071 7.70711C21.0976 7.31658 21.0976 6.68342 20.7071 6.29289L18.7071 4.29289C18.5196 4.10536 18.2652 4 18 4H12.5V3Z" fill="black"/>
</svg>
