<svg width="24" height="24" viewBox="0 0 24 24" fill="none" xmlns="http://www.w3.org/2000/svg">
<path d="M12.7071 1.29289C12.3166 0.902369 11.6834 0.902369 11.2929 1.29289L4.2929 8.29289C4.0069 8.57889 3.92135 9.00901 4.07613 9.38268C4.23091 9.75636 4.59555 10 5.00001 10H5.91938L3.21914 13.3753C2.979 13.6755 2.93219 14.0867 3.09871 14.4332C3.26523 14.7797 3.6156 15 4.00001 15H4.91938L2.21914 18.3753C1.979 18.6755 1.93219 19.0867 2.09871 19.4332C2.26523 19.7797 2.6156 20 3.00001 20H11V22C11 22.5523 11.4477 23 12 23C12.5523 23 13 22.5523 13 22V20H21C21.3844 20 21.7348 19.7797 21.9013 19.4332C22.0678 19.0867 22.021 18.6755 21.7809 18.3753L19.0806 15H20C20.3844 15 20.7348 14.7797 20.9013 14.4332C21.0678 14.0867 21.021 13.6755 20.7809 13.3753L18.0806 10H19C19.4045 10 19.7691 9.75636 19.9239 9.38268C20.0787 9.00901 19.9931 8.57889 19.7071 8.29289L12.7071 1.29289Z" fill="black"/>
</svg>
