<svg width="24" height="24" viewBox="0 0 24 24" fill="none" xmlns="http://www.w3.org/2000/svg">
<path d="M12.7593 2.34921C12.5693 2.12756 12.2919 2 12 2C11.7081 2 11.4307 2.12756 11.2407 2.34921L5.24075 9.34921C4.98659 9.64572 4.9283 10.0631 5.09149 10.4179C5.25467 10.7727 5.60947 11 6 11H6.91938L4.21913 14.3753C3.979 14.6755 3.93218 15.0867 4.0987 15.4332C4.26522 15.7797 4.6156 16 5 16H6.13148L3.16795 20.4453C2.96338 20.7522 2.94431 21.1467 3.11833 21.4719C3.29235 21.797 3.63121 22 4 22H20C20.3688 22 20.7077 21.797 20.8817 21.4719C21.0557 21.1467 21.0366 20.7522 20.8321 20.4453L17.8685 16H19C19.3844 16 19.7348 15.7797 19.9013 15.4332C20.0678 15.0867 20.021 14.6755 19.7809 14.3753L17.0806 11H18C18.3905 11 18.7453 10.7727 18.9085 10.4179C19.0717 10.0631 19.0134 9.64572 18.7593 9.34921L12.7593 2.34921Z" fill="black"/>
</svg>
