<svg width="24" height="24" viewBox="0 0 24 24" fill="none" xmlns="http://www.w3.org/2000/svg">
<path d="M4.56163 9H2.00001C1.70587 9 1.42665 8.8705 1.23664 8.64597C1.04664 8.42143 0.965123 8.12463 1.01379 7.83454C1.5721 4.50666 4.54628 2 7.99908 2C10.3668 2 12.4585 3.17553 13.7247 4.97219C14.6664 4.35768 15.7923 4 17 4C20.3137 4 23 6.68629 23 10C23 10.5523 22.5523 11 22 11H19V8.5C19 7.94772 18.5523 7.5 18 7.5C17.4477 7.5 17 7.94772 17 8.5V11H14.7205C14.8638 11.3516 14.9852 11.7174 15.0884 12.0881C15.3714 13.1045 15.5354 14.2223 15.6219 15.3215C15.7948 17.5176 15.6657 19.7365 15.4923 21.124C15.4297 21.6245 15.0043 22 14.5 22H9.50001C9.17856 22 8.87672 21.8455 8.68877 21.5847C8.50081 21.3239 8.44968 20.9887 8.55132 20.6838C8.86714 19.7363 9.30264 18.0941 9.56024 16.3068C9.71492 15.2335 9.79962 14.146 9.76894 13.144L7.20538 15.7072C6.81485 16.0976 6.18172 16.0976 5.79122 15.7071C3.97761 13.8935 3.56774 11.2079 4.56163 9Z" fill="black"/>
</svg>
