<svg width="24" height="24" viewBox="0 0 24 24" fill="none" xmlns="http://www.w3.org/2000/svg">
<path d="M15 19.0015V21C15 21.5523 15.4477 22 16 22C16.5523 22 17 21.5523 17 21V20H22C22.3466 20 22.6684 19.8205 22.8507 19.5257C23.0329 19.2309 23.0494 18.8628 22.8944 18.5528L20.618 14H21C21.3603 14 21.6927 13.8062 21.8702 13.4927C22.0477 13.1792 22.0429 12.7944 21.8575 12.4855L19.7662 9H20C20.3844 9 20.7348 8.77965 20.9013 8.43319C21.0678 8.08672 21.021 7.67548 20.7809 7.37531L16.7809 2.3753C16.5911 2.13809 16.3038 2 16 2C15.6962 2 15.4089 2.13809 15.2191 2.3753L13.2191 4.8753C12.8741 5.30657 12.944 5.93586 13.3753 6.28087C13.8066 6.62588 14.4359 6.55596 14.7809 6.12469L16 4.60078L17.9218 7.00305C17.5922 7.02885 17.2944 7.21661 17.1298 7.5073C16.9523 7.82081 16.9571 8.20556 17.1425 8.5145L19.2338 12H19C18.6534 12 18.3316 12.1795 18.1494 12.4743C17.9671 12.7691 17.9506 13.1372 18.1056 13.4472L20.382 18H17V15C17 14.4477 16.5523 14 16 14C15.4477 14 15 14.4477 15 15V16.9992V18.9984V19.0015Z" fill="black"/>
<path d="M8.78087 2.3753C8.5911 2.13809 8.30378 2 8 2C7.69622 2 7.4089 2.13809 7.21913 2.3753L3.21913 7.37531C2.979 7.67548 2.93218 8.08672 3.0987 8.43319C3.26522 8.77965 3.6156 9 4 9H4.23381L2.14251 12.4855C1.95715 12.7944 1.9523 13.1792 2.1298 13.4927C2.30731 13.8062 2.63973 14 3 14H3.38197L1.10557 18.5528C0.95058 18.8628 0.967144 19.2309 1.14935 19.5257C1.33156 19.8205 1.65342 20 2 20H7V21C7 21.5523 7.44772 22 8 22C8.55229 22 9 21.5523 9 21V20H14C14.3466 20 14.6684 19.8205 14.8507 19.5257C14.9496 19.3656 14.9997 19.1838 15 19.0015V18.9984C14.9998 18.8461 14.9648 18.6934 14.8944 18.5528L14.446 17.6558L12.618 14H12.9416H13C13.3603 14 13.6927 13.8062 13.8702 13.4927C14.0477 13.1792 14.0429 12.7944 13.8575 12.4855L11.7662 9H12C12.3844 9 12.7348 8.77965 12.9013 8.43319C13.0678 8.08672 13.021 7.67548 12.7809 7.37531L8.78087 2.3753Z" fill="black"/>
</svg>
