<svg width="24" height="24" viewBox="0 0 24 24" fill="none" xmlns="http://www.w3.org/2000/svg">
<path d="M7.52145 8.08702L4.96224 8.00054C4.59558 7.98815 4.25156 8.17753 4.06593 8.49398C3.88029 8.81042 3.88284 9.20311 4.07257 9.51711L5.49241 11.867C5.4844 11.8767 5.47642 11.8864 5.46847 11.8961C6.00978 11.3763 6.65754 10.95 7.43761 10.6689C7.26195 9.78345 7.31825 8.91647 7.52145 8.08702Z" fill="black"/>
<path d="M10.1858 19.7422L11.1183 21.4741C11.2927 21.798 11.6309 22 11.9988 22C12.3667 22 12.7048 21.798 12.8793 21.4741L13.8118 19.7422C13.1532 19.4525 12.5353 19.0706 11.9988 18.5648C11.4623 19.0706 10.8444 19.4525 10.1858 19.7422Z" fill="black"/>
<path d="M18.5243 11.8914C18.5111 11.8753 18.4978 11.8593 18.4844 11.8433L19.8611 9.50779C20.0463 9.19361 20.0458 8.80352 19.8597 8.48984C19.6737 8.17616 19.3316 7.98864 18.9671 8.00051L16.4717 8.08172C16.6759 8.91244 16.7329 9.78087 16.5571 10.6679C17.3362 10.9481 17.9833 11.3731 18.5243 11.8914Z" fill="black"/>
<path fill-rule="evenodd" clip-rule="evenodd" d="M11.61 3.0528C11.743 2.88671 11.8726 2.7249 11.997 2.56738C12.1217 2.72508 12.2514 2.88708 12.3845 3.05337C13.0882 3.93217 13.8877 4.93062 14.536 6.04538C15.4371 7.59466 15.958 9.23429 15.4804 10.8641C15.4425 10.9933 15.4584 11.1323 15.5244 11.2497C15.5904 11.3671 15.7009 11.4529 15.831 11.4877C17.6931 11.9857 18.768 13.4435 19.4637 15.2087C19.9785 16.5148 20.2568 17.9046 20.4989 19.1138C20.5409 19.3232 20.5817 19.5273 20.6225 19.7245C20.4223 19.7186 20.2156 19.7139 20.0035 19.709C18.9688 19.6853 17.8044 19.6586 16.6269 19.4821C14.9498 19.2306 13.3968 18.689 12.376 17.5159C12.281 17.4068 12.1435 17.3441 11.9988 17.3441C11.8541 17.3441 11.7165 17.4068 11.6216 17.5159C10.6008 18.6891 9.04778 19.2307 7.37065 19.4821C6.1932 19.6587 5.02931 19.6853 3.99461 19.709C3.78251 19.7139 3.57524 19.7187 3.375 19.7245C3.4158 19.5274 3.45664 19.3234 3.49857 19.114C3.74063 17.9052 4.01886 16.5157 4.53335 15.2099C5.22872 13.445 6.30311 11.9871 8.16397 11.4884C8.29402 11.4536 8.40452 11.3677 8.47046 11.2504C8.53641 11.133 8.55222 10.994 8.51433 10.8648C8.03634 9.23486 8.55711 7.5951 9.45806 6.0457C10.1064 4.93068 10.9062 3.93177 11.61 3.0528ZM11.9988 11C10.8942 11 9.99877 11.8954 9.99877 13C9.99877 14.1045 10.8942 15 11.9988 15C13.1033 15 13.9988 14.1045 13.9988 13C13.9988 11.8954 13.1033 11 11.9988 11Z" fill="black"/>
</svg>
