<svg width="24" height="24" viewBox="0 0 24 24" fill="none" xmlns="http://www.w3.org/2000/svg">
<path d="M11.9991 1C11.1036 1 10.301 1.39232 9.75194 2.0127C9.6687 2.0043 9.58435 2 9.49912 2C8.11841 2 6.99912 3.11929 6.99912 4.5C6.99912 5.88071 8.11841 7 9.49912 7C9.80179 7 10.092 6.94602 10.3606 6.84739L11.1676 8.05548C11.3531 8.33323 11.6651 8.5 11.9991 8.5C12.3331 8.5 12.6451 8.33323 12.8306 8.05548L13.6377 6.84739C13.9062 6.94602 14.1964 7 14.4991 7C15.8798 7 16.9991 5.88071 16.9991 4.5C16.9991 3.11929 15.8798 2 14.4991 2C14.4139 2 14.3295 2.0043 14.2463 2.0127C13.6973 1.39232 12.8946 1 11.9991 1Z" fill="black"/>
<path fill-rule="evenodd" clip-rule="evenodd" d="M10.7729 9.99994C9.93507 9.99943 9.3029 9.99904 8.7158 10.183C8.1989 10.345 7.72028 10.6103 7.30896 10.9627C6.8418 11.3631 6.50708 11.8994 6.06347 12.6101L2.65843 18.0583C2.42824 18.4265 2.22022 18.7593 2.07779 19.0417C1.93419 19.3264 1.77387 19.7134 1.8098 20.1603C1.856 20.735 2.14799 21.2618 2.61087 21.6056C2.97076 21.8729 3.38387 21.942 3.70142 21.9712C4.01637 22.0001 4.4088 22 4.84306 22H19.1551C19.5893 22 19.9819 22.0001 20.2968 21.9712C20.6144 21.942 21.0275 21.8729 21.3874 21.6056C21.8502 21.2618 22.1422 20.735 22.1884 20.1603C22.2244 19.7134 22.064 19.3264 21.9204 19.0417C21.778 18.7593 21.57 18.4265 21.3397 18.0582L17.9348 12.6101C17.4911 11.8994 17.1564 11.3631 16.6893 10.9627C16.278 10.6103 15.7993 10.345 15.2824 10.183C14.6953 9.99904 14.0632 9.99943 13.2253 9.99994H10.7729ZM9.31383 12.0915C9.57129 12.0108 9.87379 12 10.9095 12H13.0887C14.1244 12 14.4269 12.0108 14.6844 12.0915C14.9429 12.1725 15.1822 12.3051 15.3878 12.4814C15.5927 12.6569 15.7622 12.9077 16.3111 13.786C16.3302 13.8165 16.3252 13.8561 16.2991 13.8809L15.1575 14.9682C15.0789 15.0431 14.9549 15.0415 14.8781 14.9648L13.7062 13.7929C12.7592 12.8459 11.5852 12.4378 10.5263 12.3919C9.71209 12.3567 8.86647 12.5353 8.22477 12.9469C8.39126 12.7025 8.49525 12.5801 8.61041 12.4814C8.81607 12.3051 9.05538 12.1725 9.31383 12.0915Z" fill="black"/>
</svg>
