<svg width="24" height="24" viewBox="0 0 24 24" fill="none" xmlns="http://www.w3.org/2000/svg">
<path d="M18.6395 11C18.6581 11 18.6768 11.0001 18.6955 11.0004C18.7136 11.0001 18.7318 11 18.7499 11C19.8155 11 20.8374 11.4233 21.5909 12.1768L21.6481 12.2339L21.6643 12.2501L22.2071 12.7929C22.5976 13.1834 22.5976 13.8165 22.2071 14.2071C21.8166 14.5976 21.1834 14.5976 20.7929 14.2071L20.2382 13.6525C19.829 13.2494 19.2742 13.0152 18.6963 13.0007C18.1806 13.0144 17.6889 13.2252 17.3231 13.591L17.0909 13.8232C16.3374 14.5767 15.3155 15 14.2499 15C13.1843 15 12.1624 14.5767 11.4089 13.8232L11.1767 13.591C10.7983 13.2126 10.285 13 9.7499 13C9.21476 13 8.70153 13.2126 8.32313 13.591L8.09089 13.8232C7.33741 14.5767 6.31548 15 5.2499 15C5.1712 15 5.09273 14.9977 5.01458 14.9931C4.94746 14.9977 4.87988 15 4.81193 15C4.02684 15 3.27391 14.6881 2.71877 14.133L2.42566 13.8399L2.40885 13.8232L1.79284 13.207C1.40235 12.8165 1.40239 12.1834 1.79292 11.7929C2.18345 11.4024 2.81665 11.4024 3.20716 11.7929L3.835 12.4208C4.15024 12.7309 4.55691 12.9272 4.99109 12.9833C5.38523 12.9089 5.70005 12.5917 5.76147 12.1823L6.26106 8.85166C6.76558 5.48822 9.65487 3 13.0559 3H15.1196C16.5227 3 17.0921 4.8062 15.9426 5.61086L13.6968 7.18288C12.9004 7.74038 12.3824 8.61366 12.2751 9.57988C12.153 10.678 12.7425 11.7532 13.7414 12.2527C14.4296 12.5968 15.2612 12.5104 15.8536 12.0365L15.99 11.9273C16.7419 11.3259 17.6804 11 18.6395 11Z" fill="black"/>
<path d="M8.32322 19.591C8.70163 19.2126 9.21485 19 9.75 19C10.2851 19 10.7984 19.2126 11.1768 19.591L11.409 19.8232C12.1625 20.5767 13.1844 21 14.25 21C15.3156 21 16.3375 20.5767 17.091 19.8232L17.3232 19.591C17.7016 19.2126 18.2149 19 18.75 19C19.2851 19 19.7984 19.2126 20.1768 19.591L20.7929 20.2071C21.1834 20.5976 21.8166 20.5976 22.2071 20.2071C22.5976 19.8166 22.5976 19.1834 22.2071 18.7929L21.591 18.1768C20.8375 17.4233 19.8156 17 18.75 17C17.6844 17 16.6625 17.4233 15.909 18.1768L15.6768 18.409C15.2984 18.7874 14.7851 19 14.25 19C13.7149 19 13.2016 18.7874 12.8232 18.409L12.591 18.1768C11.8375 17.4233 10.8156 17 9.75 17C8.68442 17 7.66249 17.4233 6.90901 18.1768L6.67678 18.409C6.29837 18.7874 5.78515 19 5.25 19C4.71486 19 4.20163 18.7874 3.82322 18.409L3.20711 17.7929C2.81658 17.4024 2.18342 17.4024 1.79289 17.7929C1.40237 18.1834 1.40237 18.8166 1.79289 19.2071L2.40901 19.8232C3.16249 20.5767 4.18442 21 5.25 21C6.31558 21 7.33751 20.5767 8.09099 19.8232L8.32322 19.591Z" fill="black"/>
</svg>
