<svg width="24" height="24" viewBox="0 0 24 24" fill="none" xmlns="http://www.w3.org/2000/svg">
<path opacity="0.14" d="M16.6626 20.8973C16.0626 20.7477 15.4939 20.4348 15.0251 19.9586C14.3417 19.2643 14 18.3544 14 17.4444C14 16.5345 14.3417 15.6246 15.0251 14.9303C15.0251 14.9303 15.3125 15.6666 16.1875 16.1111C16.1875 15.2222 16.4063 13.8889 17.4938 13C17.9598 13.4701 18.4353 13.7882 18.8812 14.0866C18.921 14.1132 18.9606 14.1397 19 14.1662V9.77794L15.5668 5.96381C14.3311 4.59104 13.7133 3.90466 12.9856 3.65126C12.3466 3.4287 11.651 3.42875 11.0119 3.65141C10.2843 3.90491 9.66661 4.59139 8.43114 5.96433L5 9.77728V16.1998C5 17.88 5 18.7201 5.32698 19.3618C5.6146 19.9263 6.07354 20.3852 6.63803 20.6729C7.27976 20.9998 8.11984 20.9998 9.8 20.9998H14.2C15.3416 20.9998 16.0954 20.9998 16.6626 20.8973Z" fill="black"/>
<path d="M11 21.0001H9.8C8.11984 21.0001 7.27976 21.0001 6.63803 20.6731C6.07354 20.3855 5.6146 19.9265 5.32698 19.362C5 18.7203 5 17.8802 5 16.2001V9.77753M21 12.0001L15.5668 5.96405C14.3311 4.59129 13.7133 3.9049 12.9856 3.65151C12.3466 3.42894 11.651 3.42899 11.0119 3.65165C10.2843 3.90516 9.66661 4.59163 8.43114 5.96458L3 12.0001M19.9749 19.9587C18.608 21.3472 16.392 21.3472 15.0251 19.9587C14.3417 19.2644 14 18.3545 14 17.4445C14 16.5346 14.3417 15.6246 15.0251 14.9304C15.0251 14.9304 15.3125 15.6667 16.1875 16.1112C16.1875 15.2223 16.4063 13.8889 17.4938 13.0001C18.375 13.889 19.2899 14.2345 19.9749 14.9304C20.6583 15.6246 21 16.5346 21 17.4445C21 18.3545 20.6583 19.2644 19.9749 19.9587Z" stroke="black" stroke-width="2" stroke-linecap="round" stroke-linejoin="round"/>
</svg>
