<svg width="24" height="24" viewBox="0 0 24 24" fill="none" xmlns="http://www.w3.org/2000/svg">
<path d="M11 21.0001H9.8C8.11984 21.0001 7.27976 21.0001 6.63803 20.6731C6.07354 20.3855 5.6146 19.9265 5.32698 19.362C5 18.7203 5 17.8802 5 16.2001V9.77753M5 9.77753L3 12.0001M5 9.77753L8.43114 5.96458C9.66661 4.59163 10.2843 3.90516 11.0119 3.65165C11.651 3.42899 12.3466 3.42894 12.9856 3.65151C13.7133 3.9049 14.3311 4.59129 15.5668 5.96405L21 12.0001M16 18.0001V17.0001C16 15.8955 16.8954 15.0001 18 15.0001C19.1046 15.0001 20 15.8955 20 17.0001V18.0001M16.5 21.0001H19.5C19.9659 21.0001 20.1989 21.0001 20.3827 20.924C20.6277 20.8225 20.8224 20.6278 20.9239 20.3828C21 20.199 21 19.966 21 19.5001C21 19.0341 21 18.8012 20.9239 18.6174C20.8224 18.3724 20.6277 18.1777 20.3827 18.0762C20.1989 18.0001 19.9659 18.0001 19.5 18.0001H16.5C16.0341 18.0001 15.8011 18.0001 15.6173 18.0762C15.3723 18.1777 15.1776 18.3724 15.0761 18.6174C15 18.8012 15 19.0341 15 19.5001C15 19.966 15 20.199 15.0761 20.3828C15.1776 20.6278 15.3723 20.8225 15.6173 20.924C15.8011 21.0001 16.0341 21.0001 16.5 21.0001Z" stroke="black" stroke-width="2" stroke-linecap="round" stroke-linejoin="round"/>
<path opacity="0.14" d="M15.8398 20.9796C15.754 20.9683 15.6825 20.9509 15.6173 20.9239C15.3723 20.8224 15.1776 20.6277 15.0761 20.3827C15 20.1989 15 19.9659 15 19.5C15 19.0341 15 18.8011 15.0761 18.6173C15.1776 18.3723 15.3723 18.1776 15.6173 18.0761C15.7193 18.0339 15.8364 18.0151 16 18.0067V17C16 15.8954 16.8954 15 18 15C18.3643 15 18.7058 15.0974 19 15.2676V9.77794L15.5668 5.96381C14.3311 4.59104 13.7133 3.90466 12.9856 3.65126C12.3466 3.4287 11.651 3.42875 11.0119 3.65141C10.2843 3.90491 9.66661 4.59139 8.43114 5.96433L5 9.77728V16.1998C5 17.88 5 18.7201 5.32698 19.3618C5.6146 19.9263 6.07354 20.3852 6.63803 20.6729C7.27976 20.9998 8.11984 20.9998 9.8 20.9998H14.2C14.8649 20.9998 15.3983 20.9998 15.8398 20.9796Z" fill="black"/>
</svg>
