<svg width="24" height="24" viewBox="0 0 24 24" fill="none" xmlns="http://www.w3.org/2000/svg">
<g opacity="0.14">
<path d="M15 3.49995L19 12.5L19.4359 12.282C20.8705 11.5647 21.4871 9.84594 20.8357 8.38029L19.2751 4.86883C18.5804 3.30591 16.7217 2.63908 15.192 3.40396L15 3.49995Z" fill="black"/>
<path d="M12.0001 6.5L16.3449 17H8.37939L12.0001 6.5Z" fill="black"/>
</g>
<path d="M7 20.9995L8.6345 16.2594M18 20.9995L14.8513 13.3901M4 13.9994L10.4385 11.0278M17 7.99946L13.3229 9.69655M8.37939 16.9995H16.345M3 20.9995H21M4 20.9995V9.99946M13.3229 9.69655L12 6.49945L10.4385 11.0278M13.3229 9.69655L10.4385 11.0278M15 3.49946L19 12.4995L19.4359 12.2815C20.8705 11.5642 21.4871 9.84545 20.8357 8.37981L19.2751 4.86834C18.5804 3.30543 16.7217 2.63859 15.192 3.40347L15 3.49946Z" stroke="black" stroke-width="2" stroke-linecap="round" stroke-linejoin="round"/>
</svg>
