<svg width="24" height="24" viewBox="0 0 24 24" fill="none" xmlns="http://www.w3.org/2000/svg">
<path opacity="0.14" d="M17.7344 14.2501L18.6448 19.1051C18.7667 19.7556 18.8277 20.0808 18.7374 20.3349C18.6581 20.5578 18.5024 20.7454 18.2979 20.8644C18.0648 21 17.7339 21 17.0722 21H16L12 15V21H6.92793C6.26616 21 5.93528 21 5.70216 20.8644C5.49765 20.7454 5.34195 20.5578 5.26272 20.3349C5.1724 20.0808 5.23338 19.7556 5.35533 19.1051L6.26564 14.2501C6.35225 13.7882 6.39556 13.5573 6.48692 13.3484C6.56794 13.1632 6.67657 12.9913 6.80911 12.8387C6.95857 12.6665 7.14861 12.5283 7.52869 12.2519L12 9L16.4714 12.2519C16.8515 12.5283 17.0415 12.6665 17.191 12.8387C17.3235 12.9913 17.4321 13.1632 17.5132 13.3484C17.6045 13.5573 17.6478 13.7882 17.7344 14.2501Z" fill="black"/>
<path d="M9 5H3M3 5L5 7M3 5L5 3M21 5H15M21 5L19 7M21 5L19 3M12 9L16.4714 12.2519C16.8514 12.5283 17.0415 12.6665 17.1909 12.8387C17.3235 12.9913 17.4321 13.1632 17.5131 13.3484C17.6045 13.5573 17.6478 13.7882 17.7344 14.2501L18.6447 19.1051C18.7667 19.7556 18.8276 20.0808 18.7373 20.3349C18.6581 20.5578 18.5024 20.7454 18.2979 20.8644C18.0648 21 17.7339 21 17.0721 21H16M12 9L7.52864 12.2519C7.14857 12.5283 6.95853 12.6665 6.80906 12.8387C6.67652 12.9913 6.56789 13.1632 6.48688 13.3484C6.39551 13.5573 6.35221 13.7882 6.2656 14.2501L5.35529 19.1051C5.23333 19.7556 5.17235 20.0808 5.26267 20.3349C5.3419 20.5578 5.49761 20.7454 5.70212 20.8644C5.93524 21 6.26612 21 6.92788 21H12M12 9V15M12 21H16M12 21V15M16 21L12 15" stroke="black" stroke-width="2" stroke-linecap="round" stroke-linejoin="round"/>
</svg>
