<svg width="24" height="24" viewBox="0 0 24 24" fill="none" xmlns="http://www.w3.org/2000/svg">
<path opacity="0.14" d="M11.2845 3.3579L8.88446 4.5579C8.5634 4.71843 8.40287 4.7987 8.28558 4.91844C8.18187 5.02434 8.10299 5.15197 8.05465 5.29209C8 5.45055 8 5.63003 8 5.98898V9.40013C8 9.96018 8 10.2402 8.10899 10.4541C8.20487 10.6423 8.35785 10.7953 8.54601 10.8911C8.75992 11.0001 9.03995 11.0001 9.6 11.0001H14.4C14.9601 11.0001 15.2401 11.0001 15.454 10.8911C15.6422 10.7953 15.7951 10.6423 15.891 10.4541C16 10.2402 16 9.96018 16 9.40013V5.98898C16 5.63003 16 5.45055 15.9453 5.29209C15.897 5.15197 15.8181 5.02434 15.7144 4.91844C15.5971 4.7987 15.4366 4.71843 15.1155 4.5579L12.7155 3.3579C12.4532 3.22672 12.322 3.16113 12.1844 3.13531C12.0625 3.11245 11.9375 3.11245 11.8156 3.13531C11.678 3.16113 11.5468 3.22672 11.2845 3.3579Z" fill="black"/>
<path d="M5 20.9999H19M8 7.99989H16M7.15 20.4999L14.9145 14.0483M16.8001 20.3416L9.07029 14.0989M10 10.9999L7 20.9999M14 10.9999L17 20.9999M6 5.99989L11.2845 3.35766C11.5468 3.22647 11.678 3.16088 11.8156 3.13507C11.9375 3.1122 12.0625 3.1122 12.1844 3.13507C12.322 3.16088 12.4532 3.22647 12.7155 3.35766L18 5.99989M8 4.99989V9.39989C8 9.95994 8 10.24 8.10899 10.4539C8.20487 10.642 8.35785 10.795 8.54601 10.8909C8.75992 10.9999 9.03995 10.9999 9.6 10.9999H14.4C14.9601 10.9999 15.2401 10.9999 15.454 10.8909C15.6422 10.795 15.7951 10.642 15.891 10.4539C16 10.24 16 9.95994 16 9.39989V4.99989" stroke="black" stroke-width="2" stroke-linecap="round" stroke-linejoin="round"/>
</svg>
