<svg width="24" height="24" viewBox="0 0 24 24" fill="none" xmlns="http://www.w3.org/2000/svg">
<path opacity="0.3" d="M14.3582 5.71515C13.9058 5.26281 13.3143 5.13552 12.7948 5.15001C12.2783 5.16443 11.7385 5.31713 11.2216 5.53865C10.1823 5.98405 9.03743 6.79323 7.99419 7.83647C6.95095 8.87971 6.14177 10.0246 5.69636 11.0639C5.47484 11.5808 5.32214 12.1205 5.30773 12.6371C5.29323 13.1566 5.42053 13.7481 5.87287 14.2004C6.32521 14.6528 6.9167 14.7801 7.43618 14.7656C7.95277 14.7512 8.49254 14.5985 9.00943 14.3769C10.0487 13.9315 11.1936 13.1224 12.2368 12.0791C13.2801 11.0359 14.0893 9.89098 14.5347 8.85171C14.7562 8.33483 14.9089 7.79505 14.9233 7.27847C14.9378 6.75898 14.8105 6.1675 14.3582 5.71515Z" fill="black"/>
<path fill-rule="evenodd" clip-rule="evenodd" d="M17.4177 3.65958C16.2035 2.30227 14.2845 1.988 12.3911 2.30601C10.4265 2.63598 8.27875 3.66471 6.36835 5.26773C4.45793 6.87076 3.07193 8.80727 2.4059 10.6847C1.75396 12.5223 1.73974 14.4993 2.91976 15.9366C3.80483 17.183 5.12557 18.5444 6.6485 19.6052C8.17292 20.667 10.0012 21.4974 11.8664 21.4974C17.4174 21.4974 21.9998 17.1956 21.9998 11.7897C21.9998 8.57134 19.7476 5.38354 17.4177 3.65958ZM12.7224 4.27839C11.167 4.53962 9.33965 5.38532 7.65392 6.79982C5.9682 8.2143 4.81809 9.86705 4.2908 11.3534C3.75455 12.8649 3.91328 14.0095 4.47997 14.6849C5.04665 15.3602 6.14621 15.7153 7.7279 15.4496C9.28316 15.1884 11.1105 14.3427 12.7962 12.9282C14.4819 11.5137 15.6321 9.86091 16.1595 8.37458C16.6958 6.86297 16.5371 5.71841 15.9704 5.04308C15.4037 4.36775 14.3041 4.01271 12.7224 4.27839ZM19.0557 10.166C18.5966 9.85909 17.9756 9.9825 17.6686 10.4416C17.3617 10.9008 17.4851 11.5218 17.9443 11.8287L19.4443 12.8314C19.9034 13.1383 20.5244 13.0149 20.8314 12.5558C21.1383 12.0966 21.0149 11.4756 20.5557 11.1687L19.0557 10.166ZM16.2077 14.7909C15.8176 14.4 15.1844 14.3995 14.7935 14.7896C14.4027 15.1798 14.4021 15.813 14.7923 16.2039L16.2923 17.7065C16.6824 18.0974 17.3156 18.098 17.7065 17.7078C18.0973 17.3176 18.0979 16.6845 17.7077 16.2936L16.2077 14.7909ZM11.7081 17.2912C11.3181 16.9002 10.6849 16.8993 10.2938 17.2893C9.90279 17.6793 9.90195 18.3125 10.2919 18.7035L11.2919 19.7062C11.6819 20.0973 12.3151 20.0981 12.7062 19.7081C13.0972 19.3181 13.0981 18.685 12.7081 18.2939L11.7081 17.2912Z" fill="black"/>
</svg>
