<svg width="24" height="24" viewBox="0 0 24 24" fill="none" xmlns="http://www.w3.org/2000/svg">
<path opacity="0.3" d="M21 3.00006C21 2.56963 20.7246 2.1875 20.3162 2.05138C19.9079 1.91527 19.4583 2.05572 19.2 2.40006C17.5003 4.66632 14.8328 6.00007 12 6.00006C8.68629 6.00006 6 8.68636 6 12.0001C6 15.3138 8.68629 18.0001 12 18.0001C16.9706 18.0001 21 13.9706 21 9.00004V3.00006Z" fill="black"/>
<path fill-rule="evenodd" clip-rule="evenodd" d="M3 20C3 15.0294 7.02944 11 12 11H14C14.5523 11 15 11.4477 15 12C15 12.5523 14.5523 13 14 13H12C8.13401 13 5 16.134 5 20V21C5 21.5523 4.55228 22 4 22C3.44772 22 3 21.5523 3 21V20Z" fill="black"/>
</svg>
