<svg width="24" height="24" viewBox="0 0 24 24" fill="none" xmlns="http://www.w3.org/2000/svg">
<path opacity="0.3" d="M21.6316 4.26478C22.0225 3.09214 20.9069 1.97653 19.7342 2.36741L17.8695 2.989L12.1883 2.61025C6.7551 2.24804 2.24731 6.75583 2.60952 12.189L2.98827 17.8702L2.36668 19.735C1.9758 20.9076 3.09141 22.0232 4.26405 21.6323L6.12881 21.0107L11.81 21.3895C17.2432 21.7517 21.751 17.2439 21.3887 11.8107L21.01 6.12955L21.6316 4.26478Z" fill="black"/>
<path fill-rule="evenodd" clip-rule="evenodd" d="M6.50405 12.5905C6.1873 9.10625 9.10625 6.1873 12.5905 6.50405C13.1405 6.55405 13.5458 7.04046 13.4958 7.59048C13.4458 8.14049 12.9594 8.54584 12.4094 8.49583C10.169 8.29216 8.29216 10.169 8.49583 12.4094C8.54584 12.9594 8.14049 13.4458 7.59048 13.4958C7.04046 13.5458 6.55405 13.1405 6.50405 12.5905Z" fill="black"/>
</svg>
