<svg width="24" height="24" viewBox="0 0 24 24" fill="none" xmlns="http://www.w3.org/2000/svg">
<path d="M9.66997 5.67124C7.63863 4.49844 5.13986 4.48181 3.09309 5.62746L2.85142 5.76273C2.53135 5.94189 2.33505 6.28189 2.33993 6.64865L2.34362 6.92558C2.37484 9.27096 3.63863 11.4266 5.66997 12.5994C7.30283 13.5422 9.23772 13.7378 10.9971 13.1833L11 21.0004C11.0002 21.5527 11.4481 22.0003 12.0004 22.0001C12.5527 21.9999 13.0002 21.552 13 20.9997L12.9965 11.7197C12.9993 11.6874 13.0004 11.6548 13 11.622L12.9963 11.3451C12.9651 8.99972 11.7013 6.84403 9.66997 5.67124Z" fill="black"/>
<path opacity="0.3" d="M19.7721 2.44536C17.5575 1.67254 15.0996 2.12282 13.3028 3.63054C11.5059 5.13826 10.6357 7.48065 11.0122 9.79582L11.0567 10.0692C11.1155 10.4312 11.3679 10.732 11.7142 10.8528L11.9757 10.9441C14.1903 11.7169 16.6482 11.2666 18.4451 9.7589C20.2419 8.25118 21.1121 5.90879 20.7356 3.59363L20.6912 3.32026C20.6323 2.95822 20.3799 2.65747 20.0336 2.53662L19.7721 2.44536Z" fill="black"/>
</svg>
