<svg width="24" height="24" viewBox="0 0 24 24" fill="none" xmlns="http://www.w3.org/2000/svg">
<path opacity="0.3" d="M16.4211 5.31511C16.0305 4.92459 15.3974 4.92459 15.0068 5.31511L5.10735 15.2146C4.71682 15.6051 4.71682 16.2383 5.10735 16.6288C8.53042 20.0519 13.9182 20.5459 17.1282 17.3359C20.3381 14.126 19.8441 8.73818 16.4211 5.31511Z" fill="black"/>
<path fill-rule="evenodd" clip-rule="evenodd" d="M13.8866 9.85051C14.2772 9.45999 14.9103 9.45999 15.3009 9.85051L16.008 10.5576C16.3985 10.9481 16.3985 11.5813 16.008 11.9718C15.6174 12.3624 14.9843 12.3624 14.5938 11.9718L13.8866 11.2647C13.4961 10.8742 13.4961 10.241 13.8866 9.85051ZM11.7655 11.9718C12.1561 11.5813 12.7892 11.5813 13.1798 11.9718L13.8869 12.679C14.2774 13.0695 14.2774 13.7026 13.8869 14.0932C13.4963 14.4837 12.8632 14.4837 12.4727 14.0932L11.7655 13.3861C11.375 12.9955 11.375 12.3624 11.7655 11.9718ZM9.64446 14.0932C10.035 13.7027 10.6681 13.7027 11.0587 14.0932L11.7658 14.8003C12.1563 15.1908 12.1563 15.824 11.7658 16.2145C11.3753 16.605 10.7421 16.605 10.3516 16.2145L9.64446 15.5074C9.25393 15.1169 9.25393 14.4837 9.64446 14.0932Z" fill="black"/>
<path d="M18.5426 2.89372C18.1521 2.5032 17.5189 2.5032 17.1284 2.89372C16.7379 3.28425 16.7379 3.91741 17.1284 4.30794C21.0986 8.27811 21.2883 14.2902 17.8355 17.743C14.3827 21.1958 8.37064 21.006 4.40047 17.0359C4.00994 16.6453 3.37678 16.6453 2.98625 17.0359C2.59573 17.4264 2.59573 18.0595 2.98625 18.4501C7.60762 23.0714 14.892 23.5149 19.2497 19.1572C23.6074 14.7995 23.164 7.51509 18.5426 2.89372Z" fill="black"/>
</svg>
