<svg width="24" height="24" viewBox="0 0 24 24" fill="none" xmlns="http://www.w3.org/2000/svg">
<g opacity="0.14">
<path d="M2 12C2 9.79086 3.79086 8 6 8H8C9.65685 8 11 9.34315 11 11V12C11 13.6569 9.65685 15 8 15H5C3.34315 15 2 13.6569 2 12Z" fill="black"/>
<path d="M22 9.33333C22 7.49238 20.5076 6 18.6667 6H18C16.8954 6 16 6.89543 16 8V11H20.3333C21.2538 11 22 10.2538 22 9.33333Z" fill="black"/>
<path d="M16 12.5C16 13.8807 14.8807 15 13.5 15C12.1193 15 11 13.8807 11 12.5C11 11.1193 12.1193 10 13.5 10C14.8807 10 16 11.1193 16 12.5Z" fill="black"/>
</g>
<path d="M16 11H15C15 11.5523 15.4477 12 16 12V11ZM15.8944 14.0528C15.6474 13.5588 15.0468 13.3586 14.5528 13.6056C14.0588 13.8526 13.8586 14.4532 14.1056 14.9472L15.8944 14.0528ZM16.3802 17.2604L17.2746 16.8132V16.8132L16.3802 17.2604ZM16.5525 17.7626L15.5719 17.9588V17.9588L16.5525 17.7626ZM16.0194 20.1961C16.1277 20.7377 16.6546 21.0889 17.1961 20.9806C17.7377 20.8723 18.0889 20.3454 17.9806 19.8039L16.0194 20.1961ZM22 5C22.5523 5 23 4.55228 23 4C23 3.44772 22.5523 3 22 3V5ZM18.9883 7.5C18.436 7.5 17.9883 7.94772 17.9883 8.5C17.9883 9.05228 18.436 9.5 18.9883 9.5V7.5ZM18.9973 9.5C19.5496 9.5 19.9973 9.05228 19.9973 8.5C19.9973 7.94772 19.5496 7.5 18.9973 7.5V9.5ZM6.92848 15.3714C7.13359 14.8586 6.88417 14.2766 6.37139 14.0715C5.85861 13.8664 5.27664 14.1158 5.07152 14.6286L6.92848 15.3714ZM3.07152 19.6286C2.86641 20.1414 3.11583 20.7234 3.62861 20.9285C4.14139 21.1336 4.72336 20.8842 4.92848 20.3714L3.07152 19.6286ZM9.92848 15.3714C10.1336 14.8586 9.88417 14.2766 9.37139 14.0715C8.85861 13.8664 8.27664 14.1158 8.07152 14.6286L9.92848 15.3714ZM6.07152 19.6286C5.86641 20.1414 6.11583 20.7234 6.62861 20.9285C7.14139 21.1336 7.72336 20.8842 7.92848 20.3714L6.07152 19.6286ZM9.07152 19.6286C8.86641 20.1414 9.11583 20.7234 9.62861 20.9285C10.1414 21.1336 10.7234 20.8842 10.9285 20.3714L9.07152 19.6286ZM13.085 14.9801C13.2901 14.4673 13.0407 13.8853 12.5279 13.6802C12.0151 13.4751 11.4332 13.7245 11.228 14.2373L13.085 14.9801ZM20.0385 20.2747C20.1902 20.8058 20.7437 21.1132 21.2747 20.9615C21.8058 20.8098 22.1132 20.2563 21.9615 19.7253L20.0385 20.2747ZM20.1621 17.0672L19.2005 17.342L19.2005 17.342L20.1621 17.0672ZM19.556 16.1115L18.8975 16.8641L19.556 16.1115ZM16.6585 12.2474C16.2429 11.8837 15.6111 11.9259 15.2474 12.3415C14.8837 12.7571 14.9259 13.3889 15.3415 13.7526L16.6585 12.2474ZM6 9H8V7H6V9ZM10 11V12H12V11H10ZM8 14H5V16H8V14ZM5 14C3.89543 14 3 13.1046 3 12H1C1 14.2091 2.79086 16 5 16V14ZM10 12C10 13.1046 9.10457 14 8 14V16C10.2091 16 12 14.2091 12 12H10ZM8 9C9.10457 9 10 9.89543 10 11H12C12 8.79086 10.2091 7 8 7V9ZM6 7C3.23858 7 1 9.23858 1 12H3C3 10.3431 4.34315 9 6 9V7ZM18.6667 5H18V7H18.6667V5ZM15 8V11H17V8H15ZM16 12H20.3333V10H16V12ZM20.3333 12C21.8061 12 23 10.8061 23 9.33333H21C21 9.70152 20.7015 10 20.3333 10V12ZM18 5C16.3431 5 15 6.34315 15 8H17C17 7.44772 17.4477 7 18 7V5ZM18.6667 7C19.9553 7 21 8.04467 21 9.33333H23C23 6.9401 21.0599 5 18.6667 5V7ZM15 12.5C15 13.3284 14.3284 14 13.5 14V16C15.433 16 17 14.433 17 12.5H15ZM13.5 14C12.6716 14 12 13.3284 12 12.5H10C10 14.433 11.567 16 13.5 16V14ZM12 12.5C12 11.6716 12.6716 11 13.5 11V9C11.567 9 10 10.567 10 12.5H12ZM13.5 11C14.3284 11 15 11.6716 15 12.5H17C17 10.567 15.433 9 13.5 9V11ZM14.1056 14.9472L15.4858 17.7077L17.2746 16.8132L15.8944 14.0528L14.1056 14.9472ZM15.5719 17.9588L16.0194 20.1961L17.9806 19.8039L17.5331 17.5665L15.5719 17.9588ZM15.4858 17.7077C15.5255 17.7871 15.5545 17.8716 15.5719 17.9588L17.5331 17.5665C17.4808 17.3051 17.3939 17.0517 17.2746 16.8132L15.4858 17.7077ZM20 5H22V3H20V5ZM19 6C19 5.44772 19.4477 5 20 5V3C18.3431 3 17 4.34315 17 6H19ZM18.9883 9.5H18.9973V7.5H18.9883V9.5ZM5.07152 14.6286L3.07152 19.6286L4.92848 20.3714L6.92848 15.3714L5.07152 14.6286ZM8.07152 14.6286L6.07152 19.6286L7.92848 20.3714L9.92848 15.3714L8.07152 14.6286ZM21.9615 19.7253L21.1236 16.7925L19.2005 17.342L20.0385 20.2747L21.9615 19.7253ZM20.2145 15.3589L16.6585 12.2474L15.3415 13.7526L18.8975 16.8641L20.2145 15.3589ZM21.1236 16.7925C20.9649 16.2371 20.6492 15.7393 20.2145 15.3589L18.8975 16.8641C19.0424 16.9909 19.1476 17.1568 19.2005 17.342L21.1236 16.7925ZM11.228 14.2373L9.07152 19.6286L10.9285 20.3714L13.085 14.9801L11.228 14.2373Z" fill="black"/>
</svg>
