<svg width="24" height="24" viewBox="0 0 24 24" fill="none" xmlns="http://www.w3.org/2000/svg">
<g opacity="0.14">
<path d="M16.876 13.8373C16.9559 13.5406 17 13.2594 17 13C17 11.0572 15.892 9.37328 14.2734 8.54555C13.5914 8.19675 12.8187 8 12 8C11.1816 8 10.4091 8.19663 9.72722 8.54522C8.10831 9.37282 7 11.057 7 13C7 13.2601 7.04435 13.5421 7.1247 13.8397C7.89748 16.7017 12 21 12 21C12 21 16.1049 16.6993 16.876 13.8373Z" fill="black"/>
<path d="M18.0007 14C20.2098 14 22.0007 12.2091 22.0007 10C22.0007 7.79086 20.2098 6 18.0007 6C16.3048 6 14.8554 7.05573 14.2734 8.54555C15.892 9.37328 17 11.0572 17 13C17 13.2594 16.9559 13.5406 16.876 13.8373C17.2327 13.9416 17.6102 14 18.0007 14Z" fill="black"/>
<path d="M2 10C2 12.2091 3.79086 14 6 14C6.3905 14 6.76792 13.944 7.1247 13.8397C7.04435 13.5421 7 13.2601 7 13C7 11.057 8.10831 9.37282 9.72722 8.54522C9.14529 7.05539 7.6959 6 6 6C3.79086 6 2 7.79086 2 10Z" fill="black"/>
<path d="M12 8C13.1046 8 14 7.10457 14 6C14 5.49278 13.8112 5.02965 13.5 4.67709C13.1335 4.26188 12.5973 4 12 4C11.4027 4 10.8665 4.26188 10.5 4.67709C10.1888 5.02965 10 5.49278 10 6C10 7.10457 10.8954 8 12 8Z" fill="black"/>
</g>
<path d="M13.5 4.67709L12.7503 5.33882L13.5 4.67709ZM10.5 4.67709L11.2497 5.33882L10.5 4.67709ZM15.7454 3.66666C16.1135 3.25501 16.0783 2.62282 15.6667 2.25464C15.255 1.88645 14.6228 1.92169 14.2546 2.33334L15.7454 3.66666ZM9.74536 2.33334C9.37718 1.92169 8.74499 1.88645 8.33334 2.25464C7.92169 2.62282 7.88645 3.25501 8.25464 3.66666L9.74536 2.33334ZM12 21L11.2766 21.6904C11.4653 21.8881 11.7267 22 12 22C12.2733 22 12.5347 21.8881 12.7234 21.6904L12 21ZM13.342 8.18138C13.141 8.69582 13.3952 9.27574 13.9096 9.47668C14.424 9.67762 15.004 9.42348 15.2049 8.90905L13.342 8.18138ZM19.4535 12.6256C18.9705 12.8936 18.7963 13.5023 19.0643 13.9852C19.3322 14.4681 19.941 14.6424 20.4239 14.3744L19.4535 12.6256ZM3.49927 14.3305C3.97733 14.607 4.58906 14.4437 4.86561 13.9656C5.14215 13.4875 4.97879 12.8758 4.50073 12.5993L3.49927 14.3305ZM8.79576 8.90905C8.9967 9.42348 9.57662 9.67762 10.0911 9.47668C10.6055 9.27574 10.8596 8.69582 10.6587 8.18138L8.79576 8.90905ZM7.40538 14.7995C7.93546 14.6445 8.23952 14.0891 8.0845 13.559C7.92949 13.029 7.37411 12.7249 6.84403 12.8799L7.40538 14.7995ZM17.1566 12.8799C16.6266 12.7249 16.0712 13.029 15.9162 13.559C15.7611 14.0891 16.0652 14.6445 16.5953 14.7995L17.1566 12.8799ZM13 6C13 6.55228 12.5523 7 12 7V9C13.6569 9 15 7.65685 15 6H13ZM12 7C11.4477 7 11 6.55228 11 6H9C9 7.65685 10.3431 9 12 9V7ZM12 5C12.2985 5 12.5656 5.12956 12.7503 5.33882L14.2497 4.01535C13.7015 3.3942 12.8962 3 12 3V5ZM12.7503 5.33882C12.9064 5.51571 13 5.7457 13 6H15C15 5.23985 14.716 4.5436 14.2497 4.01535L12.7503 5.33882ZM11 6C11 5.7457 11.0936 5.51571 11.2497 5.33882L9.75026 4.01535C9.28402 4.5436 9 5.23985 9 6H11ZM11.2497 5.33882C11.4344 5.12956 11.7015 5 12 5V3C11.1038 3 10.2985 3.3942 9.75026 4.01535L11.2497 5.33882ZM14.2454 5.34375L15.7454 3.66666L14.2546 2.33334L12.7546 4.01043L14.2454 5.34375ZM11.2454 4.01043L9.74536 2.33334L8.25464 3.66666L9.75464 5.34375L11.2454 4.01043ZM8 13C8 10.7909 9.79086 9 12 9V7C8.68629 7 6 9.68629 6 13H8ZM12 9C14.2091 9 16 10.7909 16 13H18C18 9.68629 15.3137 7 12 7V9ZM16 13C16 13.4351 15.7868 14.0993 15.3363 14.9446C14.9019 15.7597 14.3109 16.6268 13.7021 17.4328C13.096 18.2351 12.4876 18.9567 12.0296 19.4788C11.801 19.7393 11.611 19.9489 11.4788 20.0925C11.4128 20.1643 11.3613 20.2196 11.3268 20.2564C11.3095 20.2748 11.2965 20.2886 11.288 20.2975C11.2838 20.302 11.2807 20.3052 11.2788 20.3073C11.2778 20.3083 11.2772 20.309 11.2768 20.3094C11.2766 20.3095 11.2765 20.3097 11.2765 20.3097C11.2765 20.3097 11.2765 20.3097 11.2765 20.3097C11.2765 20.3096 11.2766 20.3096 12 21C12.7234 21.6904 12.7235 21.6903 12.7236 21.6902C12.7237 21.6901 12.7238 21.69 12.724 21.6898C12.7242 21.6895 12.7246 21.6892 12.725 21.6887C12.7259 21.6879 12.727 21.6866 12.7284 21.6851C12.7313 21.6821 12.7354 21.6778 12.7406 21.6723C12.7511 21.6612 12.7662 21.6453 12.7855 21.6246C12.8242 21.5833 12.8802 21.5233 12.9508 21.4465C13.0922 21.2929 13.2928 21.0716 13.5329 20.7978C14.0124 20.2514 14.654 19.4908 15.2979 18.6383C15.9391 17.7894 16.5981 16.8292 17.1012 15.8853C17.5882 14.9717 18 13.9456 18 13H16ZM12 21C12.7234 20.3096 12.7235 20.3096 12.7235 20.3097C12.7235 20.3097 12.7235 20.3097 12.7235 20.3097C12.7235 20.3097 12.7234 20.3095 12.7232 20.3094C12.7228 20.309 12.7222 20.3083 12.7212 20.3073C12.7193 20.3052 12.7162 20.302 12.712 20.2975C12.7035 20.2886 12.6905 20.2748 12.6732 20.2564C12.6387 20.2196 12.5872 20.1643 12.5212 20.0925C12.389 19.9489 12.199 19.7393 11.9704 19.4788C11.5124 18.9567 10.904 18.2351 10.2979 17.4328C9.68912 16.6268 9.09815 15.7597 8.66372 14.9446C8.21319 14.0993 8 13.4351 8 13H6C6 13.9456 6.41181 14.9717 6.89878 15.8853C7.40185 16.8292 8.06088 17.7894 8.70206 18.6383C9.34603 19.4908 9.98764 20.2514 10.4671 20.7978C10.7072 21.0716 10.9078 21.2929 11.0492 21.4465C11.1198 21.5233 11.1758 21.5833 11.2145 21.6246C11.2338 21.6453 11.2489 21.6612 11.2594 21.6723C11.2646 21.6778 11.2687 21.6821 11.2716 21.6851C11.273 21.6866 11.2741 21.6879 11.275 21.6887C11.2754 21.6892 11.2758 21.6895 11.276 21.6898C11.2762 21.69 11.2763 21.6901 11.2764 21.6902C11.2765 21.6903 11.2766 21.6904 12 21ZM16.9015 11H7.10156V13H16.9015V11ZM8.11373 17H15.8894V15H8.11373V17ZM18.0007 7C19.6575 7 21.0007 8.34315 21.0007 10H23.0007C23.0007 7.23858 20.7621 5 18.0007 5V7ZM15.2049 8.90905C15.642 7.78997 16.7303 7 18.0007 7V5C15.8792 5 14.0687 6.32082 13.342 8.18138L15.2049 8.90905ZM21.0007 10C21.0007 11.1282 20.3783 12.1124 19.4535 12.6256L20.4239 14.3744C21.9584 13.5229 23.0007 11.8838 23.0007 10H21.0007ZM3 10C3 8.34315 4.34315 7 6 7V5C3.23858 5 1 7.23858 1 10H3ZM4.50073 12.5993C3.60141 12.079 3 11.1092 3 10H1C1 11.852 2.00738 13.4675 3.49927 14.3305L4.50073 12.5993ZM6 7C7.27035 7 8.35864 7.78997 8.79576 8.90905L10.6587 8.18138C9.93194 6.32082 8.12145 5 6 5V7ZM6 13C4.34315 13 3 11.6569 3 10H1C1 12.7614 3.23858 15 6 15V13ZM6.84403 12.8799C6.57748 12.9579 6.29453 13 6 13V15C6.48647 15 6.95837 14.9302 7.40538 14.7995L6.84403 12.8799ZM21.0007 10C21.0007 11.6569 19.6575 13 18.0007 13V15C20.7621 15 23.0007 12.7614 23.0007 10H21.0007ZM18.0007 13C17.7061 13 17.4232 12.9579 17.1566 12.8799L16.5953 14.7995C17.0423 14.9302 17.5142 15 18.0007 15V13Z" fill="black"/>
</svg>
