<svg width="24" height="24" viewBox="0 0 24 24" fill="none" xmlns="http://www.w3.org/2000/svg">
<path opacity="0.14" d="M19 10C19 14.4183 15.4183 18 11 18C6.58172 18 3 14.4183 3 10H9.83333C10.4777 10 11 9.47767 11 8.83333V7C11 4.79086 12.7909 3 15 3C17.2091 3 19 4.79086 19 7V10Z" fill="black"/>
<path d="M10.1056 21.4472C10.3526 21.9412 10.9532 22.1414 11.4472 21.8944C11.9412 21.6474 12.1414 21.0468 11.8944 20.5528L10.1056 21.4472ZM10.3944 17.5528C10.1474 17.0588 9.54676 16.8586 9.05279 17.1056C8.55881 17.3526 8.35858 17.9532 8.60557 18.4472L10.3944 17.5528ZM14.1056 21.4472C14.3526 21.9412 14.9532 22.1414 15.4472 21.8944C15.9412 21.6474 16.1414 21.0468 15.8944 20.5528L14.1056 21.4472ZM14.3944 17.5528C14.1474 17.0588 13.5468 16.8586 13.0528 17.1056C12.5588 17.3526 12.3586 17.9532 12.6056 18.4472L14.3944 17.5528ZM3 10V9C2.44772 9 2 9.44772 2 10H3ZM19.4472 5.10557C18.9532 4.85858 18.3526 5.05881 18.1056 5.55279C17.8586 6.04676 18.0588 6.64744 18.5528 6.89443L19.4472 5.10557ZM21 7L21.4472 7.89443C21.786 7.72504 22 7.37877 22 7C22 6.62123 21.786 6.27496 21.4472 6.10557L21 7ZM18.5528 7.10557C18.0588 7.35256 17.8586 7.95324 18.1056 8.44721C18.3526 8.94119 18.9532 9.14142 19.4472 8.89443L18.5528 7.10557ZM15 5.5C14.4477 5.5 14 5.94772 14 6.5C14 7.05228 14.4477 7.5 15 7.5V5.5ZM15.009 7.5C15.5613 7.5 16.009 7.05228 16.009 6.5C16.009 5.94772 15.5613 5.5 15.009 5.5V7.5ZM11.8944 20.5528L10.3944 17.5528L8.60557 18.4472L10.1056 21.4472L11.8944 20.5528ZM15.8944 20.5528L14.3944 17.5528L12.6056 18.4472L14.1056 21.4472L15.8944 20.5528ZM11 19C15.9706 19 20 14.9706 20 10H18C18 13.866 14.866 17 11 17V19ZM2 10C2 14.9706 6.02944 19 11 19V17C7.13401 17 4 13.866 4 10H2ZM3 11H9.83333V9H3V11ZM12 8.83333V7H10V8.83333H12ZM18 7V10H20V7H18ZM15 4C16.6569 4 18 5.34315 18 7H20C20 4.23858 17.7614 2 15 2V4ZM12 7C12 5.34315 13.3431 4 15 4V2C12.2386 2 10 4.23858 10 7H12ZM9.83333 11C11.03 11 12 10.03 12 8.83333H10C10 8.92538 9.92538 9 9.83333 9V11ZM18.5528 6.89443L20.5528 7.89443L21.4472 6.10557L19.4472 5.10557L18.5528 6.89443ZM20.5528 6.10557L18.5528 7.10557L19.4472 8.89443L21.4472 7.89443L20.5528 6.10557ZM15 7.5H15.009V5.5H15V7.5Z" fill="black"/>
</svg>
