<svg width="24" height="24" viewBox="0 0 24 24" fill="none" xmlns="http://www.w3.org/2000/svg">
<g opacity="0.14">
<path d="M15 19H9L6 14.5V14C6 11.7909 7.79086 10 10 10H14C16.2091 10 18 11.7909 18 14V14.5L15 19Z" fill="black"/>
<path d="M22 7H17.4142C17.149 7 16.8946 6.89464 16.7071 6.70711L16 6L17.5 4L15 2H20C21.1046 2 22 2.89543 22 4V7Z" fill="black"/>
<path d="M2 7H6.58579C6.851 7 7.10536 6.89464 7.29289 6.70711L8 6L6.5 4L9 2H4C2.89543 2 2 2.89543 2 4V7Z" fill="black"/>
</g>
<path d="M14 10H10M14 10C16.2091 10 18 11.7909 18 14V14.5L15 19H9L6 14.5V14C6 11.7909 7.79086 10 10 10M14 10V7M10 10V7M22 7V10L17.5785 12.2108M22 7H17.4142C17.149 7 16.8946 6.89464 16.7071 6.70711L16 6M22 7V4C22 2.89543 21.1046 2 20 2H15L17.5 4M2 7V10L6.42151 12.2108M2 7H6.58579C6.851 7 7.10536 6.89464 7.29289 6.70711L8 6M2 7V4C2 2.89543 2.89543 2 4 2H9L6.5 4M20 21L19 19L16 17.5M14.5 19L16.5 21V22M21.9986 18.5L19.9986 16L17.3516 15.4706M21.9997 12.5L19.9997 13.5H17.9688M4 21L5 19L8 17.5M9.5 19L7.5 21V22M2.00138 18.5L4.00138 16L6.64844 15.4706M2.0003 12.5L4.0003 13.5H6.03125" stroke="black" stroke-width="2" stroke-linecap="round" stroke-linejoin="round"/>
</svg>
