<svg width="24" height="24" viewBox="0 0 24 24" fill="none" xmlns="http://www.w3.org/2000/svg">
<path opacity="0.14" d="M6.96428 18.3254L8.63097 18.8069C9.13873 18.9197 9.5 19.3701 9.5 19.8902C9.5 20.5031 9.00314 21 8.39023 21H6.28932C3.9204 21 2 19.8902 2 16.7107C2 15.5441 2.57073 14.5108 3.44821 13.8748C4.5055 13.1085 5.87267 12.2866 7.08043 11.7902C9.31126 10.8734 13.27 11.072 15.5627 12.5464C15.9726 12.81 16.4356 13 16.9229 13H17.25C18.2165 13 19 12.2165 19 11.25V11C19 9.89543 18.1046 9 17 9H15.5C14.5 9 13.5 8.5 13.5 7C13.5 6.02094 13.926 5.46791 14.5 5.20187C15 5 15.5 4.7 16 4C16.5 3 17.2636 3 18 3C20.5773 3 22 5.08934 22 7.66667V14.5C22 16.433 20.433 18 18.5 18C18.2239 18 18 18.2239 18 18.5V20C18 20.5523 17.5523 21 17 21H16C15.4477 21 15 20.5523 15 20V18.5C14.8769 18.5684 14.6863 18.6442 14.4306 18.716C13.2525 19.0465 10.6911 19.2905 6.96428 18.3254Z" fill="black"/>
<path d="M6.96428 18.3254L7.21498 17.3573C7.20377 17.3544 7.19251 17.3517 7.18121 17.3492L6.96428 18.3254ZM8.63097 18.8069L8.35343 19.7676C8.37347 19.7734 8.39368 19.7785 8.41404 19.7831L8.63097 18.8069ZM15 18.5H16C16 18.1534 15.8205 17.8316 15.5257 17.6493C15.2309 17.4671 14.8628 17.4506 14.5528 17.6056L15 18.5ZM12.5 18C11.9477 18 11.5 18.4477 11.5 19C11.5 19.5523 11.9477 20 12.5 20V18ZM16 4L16.8137 4.58124C16.8441 4.53874 16.8711 4.49393 16.8944 4.44721L16 4ZM6.5 17C6.5 16.4477 6.05228 16 5.5 16C4.94772 16 4.5 16.4477 4.5 17H6.5ZM7.08043 11.7902L7.46057 12.7152V12.7152L7.08043 11.7902ZM15.5627 12.5464L16.1036 11.7053L16.1036 11.7053L15.5627 12.5464ZM3.44821 13.8748L2.86136 13.0652H2.86136L3.44821 13.8748ZM14.5 5.20187L14.1256 4.27459C14.1101 4.28087 14.0947 4.28754 14.0795 4.29459L14.5 5.20187ZM18 5C17.4477 5 17 5.44772 17 6C17 6.55228 17.4477 7 18 7V5ZM18.009 7C18.5613 7 19.009 6.55228 19.009 6C19.009 5.44772 18.5613 5 18.009 5V7ZM6.68674 19.2861L8.35343 19.7676L8.90851 17.8462L7.24182 17.3647L6.68674 19.2861ZM8.39023 20H6.28932V22H8.39023V20ZM16.9229 14H17.25V12H16.9229V14ZM20 11.25V11H18V11.25H20ZM17 8H15.5V10H17V8ZM21 7.66667V14.5H23V7.66667H21ZM17 18.5V20H19V18.5H17ZM17 20H16V22H17V20ZM16 20V18.5H14V20H16ZM14.5528 17.6056C14.4983 17.6328 14.3577 17.6929 14.1393 17.7593L14.7218 19.6726C15.0166 19.5829 15.2672 19.4844 15.4472 19.3944L14.5528 17.6056ZM14.1393 17.7593C13.743 17.88 13.1621 18 12.5 18V20C13.3937 20 14.1725 19.8399 14.7218 19.6726L14.1393 17.7593ZM18.5 17C17.6716 17 17 17.6716 17 18.5H19C19 18.7761 18.7761 19 18.5 19V17ZM21 14.5C21 15.8807 19.8807 17 18.5 17V19C20.9853 19 23 16.9853 23 14.5H21ZM18 4C18.9895 4 19.7011 4.38789 20.1866 4.99279C20.6913 5.6215 21 6.55115 21 7.66667H23C23 6.20485 22.5974 4.80117 21.7464 3.74088C20.8762 2.65678 19.5878 2 18 2V4ZM16.8944 4.44721C17.0394 4.15722 17.1669 4.096 17.2516 4.06533C17.4039 4.01022 17.5982 4 18 4V2C17.6654 2 17.1097 1.98978 16.5711 2.18467C15.9649 2.404 15.4606 2.84278 15.1056 3.55279L16.8944 4.44721ZM15.5 8C15.1486 8 14.9043 7.9102 14.7652 7.79428C14.6582 7.70509 14.5 7.50952 14.5 7H12.5C12.5 7.99048 12.8418 8.79491 13.4848 9.33072C14.0957 9.8398 14.8514 10 15.5 10V8ZM20 11C20 9.34315 18.6569 8 17 8V10C17.5523 10 18 10.4477 18 11H20ZM17.25 14C18.7688 14 20 12.7688 20 11.25H18C18 11.6642 17.6642 12 17.25 12V14ZM6.28932 20C5.2425 20 4.44139 19.7529 3.91245 19.293C3.40926 18.8555 3 18.0922 3 16.7107H1C1 18.5088 1.55094 19.89 2.60018 20.8023C3.62366 21.6922 4.96722 22 6.28932 22V20ZM8.5 19.8902C8.5 19.9509 8.45085 20 8.39023 20V22C9.55542 22 10.5 21.0554 10.5 19.8902H8.5ZM8.41404 19.7831C8.46427 19.7942 8.5 19.8388 8.5 19.8902H10.5C10.5 18.9014 9.8132 18.0452 8.8479 17.8307L8.41404 19.7831ZM4.5 17C4.5 17.7173 4.77272 18.3085 5.3041 18.7146C5.75349 19.058 6.31441 19.2054 6.74735 19.3016L7.18121 17.3492C6.98516 17.3056 6.83507 17.2649 6.7172 17.2219C6.59931 17.1789 6.54238 17.1438 6.51851 17.1255C6.50219 17.113 6.50899 17.1151 6.51418 17.1262C6.51742 17.1331 6.5 17.1026 6.5 17H4.5ZM7.46057 12.7152C8.38915 12.3335 9.76931 12.1572 11.2218 12.2687C12.6728 12.38 14.0588 12.7682 15.0218 13.3875L16.1036 11.7053C14.7739 10.8502 13.0341 10.4019 11.3749 10.2745C9.71714 10.1473 8.00254 10.3301 6.70029 10.8653L7.46057 12.7152ZM3 16.7107C3 15.8782 3.40594 15.1405 4.03506 14.6845L2.86136 13.0652C1.73553 13.8811 1 15.21 1 16.7107H3ZM14.5 7C14.5 6.6568 14.5737 6.46114 14.6398 6.35214C14.7039 6.2464 14.7933 6.16812 14.9205 6.10914L14.0795 4.29459C13.6327 4.50166 13.2221 4.83292 12.9297 5.31497C12.6393 5.79376 12.5 6.36415 12.5 7H14.5ZM14.8744 6.12914C15.5199 5.86851 16.1853 5.46102 16.8137 4.58124L15.1863 3.41876C14.8147 3.93898 14.4801 4.13149 14.1256 4.27459L14.8744 6.12914ZM14.5144 17.6258C14.4844 17.6425 14.3749 17.693 14.1605 17.7531L14.7007 19.6788C14.9977 19.5955 15.2694 19.4943 15.4856 19.3742L14.5144 17.6258ZM14.1605 17.7531C13.1837 18.0272 10.8052 18.2871 7.21498 17.3573L6.71358 19.2935C10.5769 20.2939 13.3212 20.0658 14.7007 19.6788L14.1605 17.7531ZM16 20H14C14 21.1046 14.8954 22 16 22V20ZM6.70029 10.8653C5.39858 11.4003 3.96163 12.2677 2.86136 13.0652L4.03506 14.6845C5.04937 13.9494 6.34676 13.1729 7.46057 12.7152L6.70029 10.8653ZM17 20V22C18.1046 22 19 21.1046 19 20H17ZM16.9229 12C16.6951 12 16.4205 11.9091 16.1036 11.7053L15.0218 13.3875C15.5247 13.7109 16.1761 14 16.9229 14V12ZM18 7H18.009V5H18V7Z" fill="black"/>
</svg>
