<svg width="24" height="24" viewBox="0 0 24 24" fill="none" xmlns="http://www.w3.org/2000/svg">
<path opacity="0.14" d="M16 12.4444C16 11.997 16.0292 11.6278 16.3524 11.3066L16.3777 11.2815C16.698 10.9631 17.1385 10.7834 17.5986 10.7834C19.4771 10.7834 21 9.18042 21 7.36983C21 6.42721 20.2072 5.66306 19.2292 5.66306H18.3588C18.0713 5.66306 17.7961 5.55079 17.596 5.35189L17.3629 5.12015C17.2505 5.00842 17.1134 4.91963 16.9558 4.90291C16.8236 4.88889 16.6758 4.88889 16.5 4.88889H14.8891L14.2809 3.32453C14.0823 2.83857 13.3449 2.9175 13.2617 3.43362L12 10H6C4.8264 10 4 10.7577 4 11.8889V19.2219C4 20.2039 4.79607 21 5.77807 21C6.73787 21 7.52444 20.2383 7.55522 19.279L7.56061 19.1111V16C9.62121 17.2289 11.8131 16.512 12.5 16V19.25C12.5 20.2165 13.2835 21 14.25 21C15.2165 21 16 20.2165 16 19.25V12.4444Z" fill="black"/>
<path d="M12.5 16H13.5C13.5 15.6218 13.2866 15.2759 12.9485 15.1062C12.6104 14.9366 12.2056 14.9722 11.9023 15.1983L12.5 16ZM7.56061 16L8.07281 15.1411C7.76379 14.9568 7.3796 14.9528 7.06674 15.1305C6.75389 15.3081 6.56061 15.6402 6.56061 16H7.56061ZM7.56061 19.1111L8.56009 19.1432C8.56043 19.1325 8.56061 19.1218 8.56061 19.1111H7.56061ZM13.2617 3.43362L14.2437 3.62231C14.2456 3.61247 14.2474 3.6026 14.249 3.5927L13.2617 3.43362ZM14.2809 3.32453L15.213 2.96218C15.2109 2.95683 15.2088 2.9515 15.2066 2.94619L14.2809 3.32453ZM14.8891 4.88889L13.9571 5.25124C14.1065 5.63566 14.4766 5.88889 14.8891 5.88889V4.88889ZM17.3629 5.12015L16.6579 5.8294L16.6579 5.8294L17.3629 5.12015ZM17.596 5.35189L18.301 4.64264L18.301 4.64264L17.596 5.35189ZM16.3777 11.2815L17.0826 11.9907L17.0826 11.9907L16.3777 11.2815ZM16.3524 11.3066L15.6475 10.5973L15.6475 10.5973L16.3524 11.3066ZM16.9558 4.90291L16.8503 5.89733L16.8503 5.89733L16.9558 4.90291ZM7.55522 19.279L6.55573 19.2469V19.2469L7.55522 19.279ZM6.5 11C7.05228 11 7.5 10.5523 7.5 10C7.5 9.44772 7.05228 9 6.5 9V11ZM4 7C4 6.44772 3.55228 6 3 6C2.44772 6 2 6.44772 2 7H4ZM16 6.5C15.4477 6.5 15 6.94772 15 7.5C15 8.05228 15.4477 8.5 16 8.5V6.5ZM16.009 8.5C16.5613 8.5 17.009 8.05228 17.009 7.5C17.009 6.94772 16.5613 6.5 16.009 6.5V8.5ZM3.61394 2.21065C3.17799 1.87158 2.54972 1.95011 2.21065 2.38606C1.87158 2.82201 1.95011 3.45028 2.38606 3.78935L3.61394 2.21065ZM10 16.587C10 17.1392 10.4477 17.587 11 17.587C11.5523 17.587 12 17.1392 12 16.587H10ZM12 10C12 9.44772 11.5523 9 11 9C10.4477 9 10 9.44772 10 10H12ZM11.9023 15.1983C11.7314 15.3257 11.1936 15.5827 10.4454 15.6579C9.7263 15.7301 8.88634 15.6263 8.07281 15.1411L7.04841 16.8589C8.29548 17.6026 9.58178 17.7548 10.6455 17.6478C11.6802 17.5438 12.5817 17.1864 13.0977 16.8017L11.9023 15.1983ZM6.56061 16V19.1111H8.56061V16H6.56061ZM6 11H12V9H6V11ZM12.982 10.1887L14.2437 3.62231L12.2797 3.24493L11.018 9.81131L12.982 10.1887ZM13.3489 3.68687L13.9571 5.25124L15.8211 4.52654L15.213 2.96218L13.3489 3.68687ZM14.8891 5.88889H16.5V3.88889H14.8891V5.88889ZM16.6579 5.8294L16.8911 6.06114L18.301 4.64264L18.0678 4.4109L16.6579 5.8294ZM18.3588 6.66306H19.2292V4.66306H18.3588V6.66306ZM15.6727 10.5722L15.6475 10.5973L17.0574 12.0158L17.0826 11.9907L15.6727 10.5722ZM17.5986 9.78339C16.8799 9.78339 16.1843 10.0637 15.6727 10.5722L17.0826 11.9907C17.2117 11.8625 17.3971 11.7834 17.5986 11.7834V9.78339ZM20 7.36983C20 8.64572 18.9074 9.78339 17.5986 9.78339V11.7834C20.0469 11.7834 22 9.71512 22 7.36983H20ZM14.249 3.5927C14.2315 3.70129 14.1717 3.80974 14.0812 3.88778C13.9987 3.95896 13.9096 3.98957 13.8344 3.99761C13.6878 4.01331 13.4519 3.93933 13.3553 3.70287L15.2066 2.94619C14.6397 1.55919 12.5242 1.7245 12.2744 3.27454L14.249 3.5927ZM5 11.8889C5 11.5784 5.10722 11.3777 5.24341 11.2502C5.38549 11.1172 5.62917 11 6 11V9C5.19722 9 4.4409 9.26171 3.87639 9.79032C3.30598 10.3244 3 11.0682 3 11.8889H5ZM19.2292 6.66306C19.6899 6.66306 20 7.0139 20 7.36983H22C22 5.84052 20.7244 4.66306 19.2292 4.66306V6.66306ZM16.8911 6.06114C17.2825 6.45016 17.8127 6.66306 18.3588 6.66306V4.66306C18.3299 4.66306 18.3098 4.65143 18.301 4.64264L16.8911 6.06114ZM16.5 5.88889C16.6912 5.88889 16.7815 5.89003 16.8503 5.89733L17.0613 3.90849C16.8658 3.88775 16.6605 3.88889 16.5 3.88889V5.88889ZM17 12.4444C17 12.2262 17.0098 12.1312 17.0244 12.0737C17.0298 12.0524 17.0341 12.0445 17.0352 12.0425C17.0361 12.0409 17.0407 12.0324 17.0574 12.0158L15.6475 10.5973C15.0125 11.2285 15 11.9781 15 12.4444H17ZM6.56112 19.079L6.55573 19.2469L8.55471 19.311L8.56009 19.1432L6.56112 19.079ZM5.77807 20C5.34835 20 5 19.6516 5 19.2219H3C3 20.7562 4.24378 22 5.77807 22V20ZM14.25 20C13.8358 20 13.5 19.6642 13.5 19.25H11.5C11.5 20.7688 12.7312 22 14.25 22V20ZM15 19.25C15 19.6642 14.6642 20 14.25 20V22C15.7688 22 17 20.7688 17 19.25H15ZM6.55573 19.2469C6.54227 19.6667 6.19807 20 5.77807 20V22C7.27767 22 8.50662 20.8099 8.55471 19.311L6.55573 19.2469ZM18.0678 4.4109C17.869 4.21328 17.5321 3.95843 17.0613 3.90849L16.8503 5.89733C16.7721 5.88903 16.7159 5.86428 16.6861 5.84749C16.6583 5.83187 16.6499 5.82145 16.6579 5.8294L18.0678 4.4109ZM16.6586 10.3217L12.2809 9.04027L11.7191 10.9597L16.0967 12.2412L16.6586 10.3217ZM6.5 9H6V11H6.5V9ZM6 9C4.89543 9 4 8.10457 4 7H2C2 9.20914 3.79086 11 6 11V9ZM16 8.5H16.009V6.5H16V8.5ZM15 12.4444V19.25H17V12.4444H15ZM13.5 19.25V16H11.5V19.25H13.5ZM5 19.2219V11.8889H3V19.2219H5ZM12.6139 9.21065L3.61394 2.21065L2.38606 3.78935L11.3861 10.7894L12.6139 9.21065ZM12 16.587V10H10V16.587H12Z" fill="black"/>
</svg>
