<svg width="24" height="24" viewBox="0 0 24 24" fill="none" xmlns="http://www.w3.org/2000/svg">
<g opacity="0.14">
<path d="M9.78416 12.2526C9.60111 12.0899 9.36471 12 9.1198 12H5.62847C4.72909 12 4 11.2709 4 10.3715C4 9.82705 4.27212 9.31859 4.72516 9.01656L5.0547 8.79687C5.3329 8.6114 5.5 8.29917 5.5 7.96482V7C5.5 4.23858 7.73858 2 10.5 2H12.1667C13.0321 2 13.8743 2.28071 14.5667 2.8L15.5 3.5C16.3333 3 18.4 2.1 20 2.5C20 3.16667 19.7 4.9 18.5 6.5C19.4516 7.84803 20 10 20 12C20 14 20 19 15.5 19.5C17.8657 18 18 14 14.8757 12L14.3651 14.3322C14.2017 15.0787 13.2951 15.3735 12.7239 14.8657L9.78416 12.2526Z" fill="black"/>
<path d="M12.5 19.5C12.1667 18.6667 11 17 9 17L10 19.5L9 22C11 22 12.1667 20.3333 12.5 19.5Z" fill="black"/>
</g>
<path d="M15.5 19.5C17.8657 18 18 14 14.8757 12L14.3651 14.3322C14.2017 15.0787 13.2951 15.3735 12.7239 14.8657L9.78416 12.2526C9.60111 12.0899 9.36471 12 9.1198 12H5.62847C4.72909 12 4 11.2709 4 10.3715C4 9.82705 4.27212 9.31859 4.72516 9.01656L5.0547 8.79687C5.3329 8.6114 5.5 8.29917 5.5 7.96482V7C5.5 4.23858 7.73858 2 10.5 2H12.1667C13.0321 2 13.8743 2.28071 14.5667 2.8L15.5 3.5C16.3333 3 18.4 2.1 20 2.5C20 3.16667 19.7 4.9 18.5 6.5C19.4516 7.84803 20 10 20 12C20 14 20 19 15.5 19.5ZM15.5 19.5H12.5M12.5 19.5C12.1667 18.6667 11 17 9 17L10 19.5L9 22C11 22 12.1667 20.3333 12.5 19.5ZM10 7H10.009" stroke="black" stroke-width="2" stroke-linecap="round" stroke-linejoin="round"/>
</svg>
