<svg width="24" height="24" viewBox="0 0 24 24" fill="none" xmlns="http://www.w3.org/2000/svg">
<path opacity="0.14" d="M10.5 19.0001H16C18 19.0001 20.5 16.0001 20.5 14.0001C20.5 12.0001 20.4343 7.00012 20.4343 7.00012L21.916 4.77747C22.1375 4.44519 21.8993 4.00012 21.5 4.00012H16.4984C14.8416 4.00012 13.4984 5.34327 13.4984 7.00012V10.0001C13.2879 9.95501 13.0461 9.90501 12.7791 9.84814C10.793 8.23617 8.8453 6.0164 8.60181 3.21289C7.68399 4.04568 6.82815 5.5642 6.60938 7.71408C5.09994 6.84866 3.75399 5.6589 3 4.00012C1.83333 6.16679 1.79841 10.8001 6.99841 16.0001L2 18.0001C2.66561 18.6668 4.69873 20.2001 7.5 21.0001L10.5 19.0001Z" fill="black"/>
<path d="M10.5 18.9999V17.9999C10.3026 17.9999 10.1096 18.0583 9.9453 18.1678L10.5 18.9999ZM20.4343 6.99988L19.6022 6.44518C19.4902 6.61317 19.4317 6.81114 19.4343 7.01303L20.4343 6.99988ZM21.916 4.77723L22.7481 5.33193V5.33193L21.916 4.77723ZM13.4984 9.99988L13.2889 10.9777C13.5842 11.041 13.8922 10.9674 14.1271 10.7775C14.3619 10.5877 14.4984 10.3019 14.4984 9.99988H13.4984ZM3 3.99988L3.91037 3.58608C3.75313 3.24015 3.41342 3.01323 3.03365 3.00044C2.65388 2.98766 2.29968 3.19121 2.11953 3.52578L3 3.99988ZM6.99841 15.9999L7.3699 16.9283C7.68197 16.8034 7.91044 16.5302 7.978 16.2009C8.04557 15.8716 7.94319 15.5304 7.70552 15.2928L6.99841 15.9999ZM2 17.9999L1.62851 17.0714C1.31657 17.1963 1.08816 17.4694 1.02049 17.7985C0.952824 18.1276 1.05494 18.4687 1.29233 18.7064L2 17.9999ZM7.5 20.9999L7.2254 21.9614C7.50745 22.042 7.81064 21.9946 8.0547 21.8319L7.5 20.9999ZM12.7788 9.84783L12.1486 10.6243C12.2713 10.7239 12.4159 10.793 12.5705 10.8259L12.7788 9.84783ZM8.6015 3.21265L9.59775 3.12612C9.56487 2.74756 9.32028 2.42034 8.96652 2.28164C8.61275 2.14295 8.21094 2.21673 7.92953 2.47207L8.6015 3.21265ZM5.61421 7.61242C5.5583 8.16187 5.95838 8.65261 6.50783 8.70852C7.05728 8.76444 7.54802 8.36435 7.60393 7.8149L5.61421 7.61242ZM16.4883 5.99988C15.936 5.99988 15.4883 6.44759 15.4883 6.99988C15.4883 7.55216 15.936 7.99988 16.4883 7.99988V5.99988ZM16.4973 7.99988C17.0496 7.99988 17.4973 7.55216 17.4973 6.99988C17.4973 6.44759 17.0496 5.99988 16.4973 5.99988V7.99988ZM10.5 18.9999C10.5 19.9999 10.5 19.9999 10.5 19.9999C10.5001 19.9999 10.5001 19.9999 10.5002 19.9999C10.5002 19.9999 10.5003 19.9999 10.5004 19.9999C10.5004 19.9999 10.5005 19.9999 10.5006 19.9999C10.5007 19.9999 10.5009 19.9999 10.501 19.9999C10.5011 19.9999 10.5013 19.9999 10.5014 19.9999C10.5016 19.9999 10.5018 19.9999 10.502 19.9999C10.5021 19.9999 10.5023 19.9999 10.5025 19.9999C10.5028 19.9999 10.503 19.9999 10.5032 19.9999C10.5035 19.9999 10.5037 19.9999 10.504 19.9999C10.5042 19.9999 10.5045 19.9999 10.5048 19.9999C10.5051 19.9999 10.5054 19.9999 10.5057 19.9999C10.506 19.9999 10.5063 19.9999 10.5067 19.9999C10.507 19.9999 10.5074 19.9999 10.5077 19.9999C10.5081 19.9999 10.5085 19.9999 10.5089 19.9999C10.5093 19.9999 10.5097 19.9999 10.5101 19.9999C10.5105 19.9999 10.5109 19.9999 10.5114 19.9999C10.5118 19.9999 10.5123 19.9999 10.5128 19.9999C10.5132 19.9999 10.5137 19.9999 10.5142 19.9999C10.5147 19.9999 10.5152 19.9999 10.5157 19.9999C10.5162 19.9999 10.5168 19.9999 10.5173 19.9999C10.5179 19.9999 10.5184 19.9999 10.519 19.9999C10.5196 19.9999 10.5201 19.9999 10.5207 19.9999C10.5213 19.9999 10.5219 19.9999 10.5226 19.9999C10.5232 19.9999 10.5238 19.9999 10.5245 19.9999C10.5251 19.9999 10.5258 19.9999 10.5264 19.9999C10.5271 19.9999 10.5278 19.9999 10.5285 19.9999C10.5292 19.9999 10.5299 19.9999 10.5306 19.9999C10.5313 19.9999 10.532 19.9999 10.5328 19.9999C10.5335 19.9999 10.5343 19.9999 10.535 19.9999C10.5358 19.9999 10.5366 19.9999 10.5374 19.9999C10.5382 19.9999 10.539 19.9999 10.5398 19.9999C10.5406 19.9999 10.5414 19.9999 10.5423 19.9999C10.5431 19.9999 10.544 19.9999 10.5448 19.9999C10.5457 19.9999 10.5466 19.9999 10.5475 19.9999C10.5484 19.9999 10.5493 19.9999 10.5502 19.9999C10.5511 19.9999 10.552 19.9999 10.5529 19.9999C10.5539 19.9999 10.5548 19.9999 10.5558 19.9999C10.5568 19.9999 10.5577 19.9999 10.5587 19.9999C10.5597 19.9999 10.5607 19.9999 10.5617 19.9999C10.5627 19.9999 10.5637 19.9999 10.5648 19.9999C10.5658 19.9999 10.5668 19.9999 10.5679 19.9999C10.569 19.9999 10.57 19.9999 10.5711 19.9999C10.5722 19.9999 10.5733 19.9999 10.5744 19.9999C10.5755 19.9999 10.5766 19.9999 10.5777 19.9999C10.5788 19.9999 10.58 19.9999 10.5811 19.9999C10.5823 19.9999 10.5834 19.9999 10.5846 19.9999C10.5858 19.9999 10.587 19.9999 10.5882 19.9999C10.5894 19.9999 10.5906 19.9999 10.5918 19.9999C10.593 19.9999 10.5942 19.9999 10.5955 19.9999C10.5967 19.9999 10.598 19.9999 10.5992 19.9999C10.6005 19.9999 10.6018 19.9999 10.6031 19.9999C10.6044 19.9999 10.6057 19.9999 10.607 19.9999C10.6083 19.9999 10.6096 19.9999 10.6109 19.9999C10.6123 19.9999 10.6136 19.9999 10.615 19.9999C10.6163 19.9999 10.6177 19.9999 10.6191 19.9999C10.6204 19.9999 10.6218 19.9999 10.6232 19.9999C10.6246 19.9999 10.6261 19.9999 10.6275 19.9999C10.6289 19.9999 10.6303 19.9999 10.6318 19.9999C10.6332 19.9999 10.6347 19.9999 10.6361 19.9999C10.6376 19.9999 10.6391 19.9999 10.6406 19.9999C10.6421 19.9999 10.6436 19.9999 10.6451 19.9999C10.6466 19.9999 10.6481 19.9999 10.6497 19.9999C10.6512 19.9999 10.6527 19.9999 10.6543 19.9999C10.6559 19.9999 10.6574 19.9999 10.659 19.9999C10.6606 19.9999 10.6622 19.9999 10.6638 19.9999C10.6654 19.9999 10.667 19.9999 10.6686 19.9999C10.6702 19.9999 10.6719 19.9999 10.6735 19.9999C10.6751 19.9999 10.6768 19.9999 10.6785 19.9999C10.6801 19.9999 10.6818 19.9999 10.6835 19.9999C10.6852 19.9999 10.6869 19.9999 10.6886 19.9999C10.6903 19.9999 10.692 19.9999 10.6937 19.9999C10.6955 19.9999 10.6972 19.9999 10.699 19.9999C10.7007 19.9999 10.7025 19.9999 10.7042 19.9999C10.706 19.9999 10.7078 19.9999 10.7096 19.9999C10.7114 19.9999 10.7132 19.9999 10.715 19.9999C10.7168 19.9999 10.7186 19.9999 10.7205 19.9999C10.7223 19.9999 10.7242 19.9999 10.726 19.9999C10.7279 19.9999 10.7297 19.9999 10.7316 19.9999C10.7335 19.9999 10.7354 19.9999 10.7373 19.9999C10.7392 19.9999 10.7411 19.9999 10.743 19.9999C10.7449 19.9999 10.7468 19.9999 10.7488 19.9999C10.7507 19.9999 10.7527 19.9999 10.7546 19.9999C10.7566 19.9999 10.7586 19.9999 10.7605 19.9999C10.7625 19.9999 10.7645 19.9999 10.7665 19.9999C10.7685 19.9999 10.7705 19.9999 10.7725 19.9999C10.7746 19.9999 10.7766 19.9999 10.7786 19.9999C10.7807 19.9999 10.7827 19.9999 10.7848 19.9999C10.7869 19.9999 10.7889 19.9999 10.791 19.9999C10.7931 19.9999 10.7952 19.9999 10.7973 19.9999C10.7994 19.9999 10.8015 19.9999 10.8036 19.9999C10.8057 19.9999 10.8079 19.9999 10.81 19.9999C10.8122 19.9999 10.8143 19.9999 10.8165 19.9999C10.8186 19.9999 10.8208 19.9999 10.823 19.9999C10.8252 19.9999 10.8273 19.9999 10.8296 19.9999C10.8318 19.9999 10.834 19.9999 10.8362 19.9999C10.8384 19.9999 10.8406 19.9999 10.8429 19.9999C10.8451 19.9999 10.8474 19.9999 10.8496 19.9999C10.8519 19.9999 10.8541 19.9999 10.8564 19.9999C10.8587 19.9999 10.861 19.9999 10.8633 19.9999C10.8656 19.9999 10.8679 19.9999 10.8702 19.9999C10.8725 19.9999 10.8749 19.9999 10.8772 19.9999C10.8795 19.9999 10.8819 19.9999 10.8842 19.9999C10.8866 19.9999 10.8889 19.9999 10.8913 19.9999C10.8937 19.9999 10.8961 19.9999 10.8985 19.9999C10.9009 19.9999 10.9033 19.9999 10.9057 19.9999C10.9081 19.9999 10.9105 19.9999 10.9129 19.9999C10.9154 19.9999 10.9178 19.9999 10.9203 19.9999C10.9227 19.9999 10.9252 19.9999 10.9276 19.9999C10.9301 19.9999 10.9326 19.9999 10.9351 19.9999C10.9376 19.9999 10.9401 19.9999 10.9426 19.9999C10.9451 19.9999 10.9476 19.9999 10.9501 19.9999C10.9526 19.9999 10.9552 19.9999 10.9577 19.9999C10.9602 19.9999 10.9628 19.9999 10.9654 19.9999C10.9679 19.9999 10.9705 19.9999 10.9731 19.9999C10.9756 19.9999 10.9782 19.9999 10.9808 19.9999C10.9834 19.9999 10.986 19.9999 10.9886 19.9999C10.9913 19.9999 10.9939 19.9999 10.9965 19.9999C10.9991 19.9999 11.0018 19.9999 11.0044 19.9999C11.0071 19.9999 11.0097 19.9999 11.0124 19.9999C11.0151 19.9999 11.0178 19.9999 11.0204 19.9999C11.0231 19.9999 11.0258 19.9999 11.0285 19.9999C11.0312 19.9999 11.0339 19.9999 11.0367 19.9999C11.0394 19.9999 11.0421 19.9999 11.0448 19.9999C11.0476 19.9999 11.0503 19.9999 11.0531 19.9999C11.0558 19.9999 11.0586 19.9999 11.0614 19.9999C11.0642 19.9999 11.0669 19.9999 11.0697 19.9999C11.0725 19.9999 11.0753 19.9999 11.0781 19.9999C11.0809 19.9999 11.0837 19.9999 11.0866 19.9999C11.0894 19.9999 11.0922 19.9999 11.0951 19.9999C11.0979 19.9999 11.1008 19.9999 11.1036 19.9999C11.1065 19.9999 11.1094 19.9999 11.1122 19.9999C11.1151 19.9999 11.118 19.9999 11.1209 19.9999C11.1238 19.9999 11.1267 19.9999 11.1296 19.9999C11.1325 19.9999 11.1354 19.9999 11.1383 19.9999C11.1413 19.9999 11.1442 19.9999 11.1471 19.9999C11.1501 19.9999 11.153 19.9999 11.156 19.9999C11.1589 19.9999 11.1619 19.9999 11.1649 19.9999C11.1679 19.9999 11.1709 19.9999 11.1738 19.9999C11.1768 19.9999 11.1798 19.9999 11.1828 19.9999C11.1859 19.9999 11.1889 19.9999 11.1919 19.9999C11.1949 19.9999 11.1979 19.9999 11.201 19.9999C11.204 19.9999 11.2071 19.9999 11.2101 19.9999C11.2132 19.9999 11.2163 19.9999 11.2193 19.9999C11.2224 19.9999 11.2255 19.9999 11.2286 19.9999C11.2317 19.9999 11.2348 19.9999 11.2379 19.9999C11.241 19.9999 11.2441 19.9999 11.2472 19.9999C11.2503 19.9999 11.2534 19.9999 11.2566 19.9999C11.2597 19.9999 11.2629 19.9999 11.266 19.9999C11.2692 19.9999 11.2723 19.9999 11.2755 19.9999C11.2787 19.9999 11.2818 19.9999 11.285 19.9999C11.2882 19.9999 11.2914 19.9999 11.2946 19.9999C11.2978 19.9999 11.301 19.9999 11.3042 19.9999C11.3074 19.9999 11.3106 19.9999 11.3139 19.9999C11.3171 19.9999 11.3203 19.9999 11.3236 19.9999C11.3268 19.9999 11.3301 19.9999 11.3333 19.9999C11.3366 19.9999 11.3399 19.9999 11.3431 19.9999C11.3464 19.9999 11.3497 19.9999 11.353 19.9999C11.3563 19.9999 11.3596 19.9999 11.3629 19.9999C11.3662 19.9999 11.3695 19.9999 11.3728 19.9999C11.3761 19.9999 11.3794 19.9999 11.3828 19.9999C11.3861 19.9999 11.3895 19.9999 11.3928 19.9999C11.3962 19.9999 11.3995 19.9999 11.4029 19.9999C11.4062 19.9999 11.4096 19.9999 11.413 19.9999C11.4164 19.9999 11.4197 19.9999 11.4231 19.9999C11.4265 19.9999 11.4299 19.9999 11.4333 19.9999C11.4367 19.9999 11.4402 19.9999 11.4436 19.9999C11.447 19.9999 11.4504 19.9999 11.4539 19.9999C11.4573 19.9999 11.4607 19.9999 11.4642 19.9999C11.4676 19.9999 11.4711 19.9999 11.4745 19.9999C11.478 19.9999 11.4815 19.9999 11.485 19.9999C11.4884 19.9999 11.4919 19.9999 11.4954 19.9999C11.4989 19.9999 11.5024 19.9999 11.5059 19.9999C11.5094 19.9999 11.5129 19.9999 11.5164 19.9999C11.52 19.9999 11.5235 19.9999 11.527 19.9999C11.5305 19.9999 11.5341 19.9999 11.5376 19.9999C11.5412 19.9999 11.5447 19.9999 11.5483 19.9999C11.5518 19.9999 11.5554 19.9999 11.559 19.9999C11.5626 19.9999 11.5661 19.9999 11.5697 19.9999C11.5733 19.9999 11.5769 19.9999 11.5805 19.9999C11.5841 19.9999 11.5877 19.9999 11.5913 19.9999C11.5949 19.9999 11.5986 19.9999 11.6022 19.9999C11.6058 19.9999 11.6094 19.9999 11.6131 19.9999C11.6167 19.9999 11.6204 19.9999 11.624 19.9999C11.6277 19.9999 11.6313 19.9999 11.635 19.9999C11.6387 19.9999 11.6423 19.9999 11.646 19.9999C11.6497 19.9999 11.6534 19.9999 11.6571 19.9999C11.6607 19.9999 11.6644 19.9999 11.6681 19.9999C11.6719 19.9999 11.6756 19.9999 11.6793 19.9999C11.683 19.9999 11.6867 19.9999 11.6904 19.9999C11.6942 19.9999 11.6979 19.9999 11.7016 19.9999C11.7054 19.9999 11.7091 19.9999 11.7129 19.9999C11.7166 19.9999 11.7204 19.9999 11.7242 19.9999C11.7279 19.9999 11.7317 19.9999 11.7355 19.9999C11.7393 19.9999 11.743 19.9999 11.7468 19.9999C11.7506 19.9999 11.7544 19.9999 11.7582 19.9999C11.762 19.9999 11.7658 19.9999 11.7697 19.9999C11.7735 19.9999 11.7773 19.9999 11.7811 19.9999C11.7849 19.9999 11.7888 19.9999 11.7926 19.9999C11.7965 19.9999 11.8003 19.9999 11.8041 19.9999C11.808 19.9999 11.8119 19.9999 11.8157 19.9999C11.8196 19.9999 11.8234 19.9999 11.8273 19.9999C11.8312 19.9999 11.8351 19.9999 11.839 19.9999C11.8428 19.9999 11.8467 19.9999 11.8506 19.9999C11.8545 19.9999 11.8584 19.9999 11.8623 19.9999C11.8663 19.9999 11.8702 19.9999 11.8741 19.9999C11.878 19.9999 11.8819 19.9999 11.8859 19.9999C11.8898 19.9999 11.8937 19.9999 11.8977 19.9999C11.9016 19.9999 11.9056 19.9999 11.9095 19.9999C11.9135 19.9999 11.9174 19.9999 11.9214 19.9999C11.9254 19.9999 11.9293 19.9999 11.9333 19.9999C11.9373 19.9999 11.9413 19.9999 11.9453 19.9999C11.9492 19.9999 11.9532 19.9999 11.9572 19.9999C11.9612 19.9999 11.9652 19.9999 11.9692 19.9999C11.9732 19.9999 11.9773 19.9999 11.9813 19.9999C11.9853 19.9999 11.9893 19.9999 11.9934 19.9999C11.9974 19.9999 12.0014 19.9999 12.0055 19.9999C12.0095 19.9999 12.0135 19.9999 12.0176 19.9999C12.0216 19.9999 12.0257 19.9999 12.0298 19.9999C12.0338 19.9999 12.0379 19.9999 12.042 19.9999C12.046 19.9999 12.0501 19.9999 12.0542 19.9999C12.0583 19.9999 12.0624 19.9999 12.0665 19.9999C12.0705 19.9999 12.0746 19.9999 12.0787 19.9999C12.0828 19.9999 12.087 19.9999 12.0911 19.9999C12.0952 19.9999 12.0993 19.9999 12.1034 19.9999C12.1075 19.9999 12.1117 19.9999 12.1158 19.9999C12.1199 19.9999 12.1241 19.9999 12.1282 19.9999C12.1324 19.9999 12.1365 19.9999 12.1406 19.9999C12.1448 19.9999 12.149 19.9999 12.1531 19.9999C12.1573 19.9999 12.1614 19.9999 12.1656 19.9999C12.1698 19.9999 12.174 19.9999 12.1781 19.9999C12.1823 19.9999 12.1865 19.9999 12.1907 19.9999C12.1949 19.9999 12.1991 19.9999 12.2033 19.9999C12.2075 19.9999 12.2117 19.9999 12.2159 19.9999C12.2201 19.9999 12.2243 19.9999 12.2285 19.9999C12.2328 19.9999 12.237 19.9999 12.2412 19.9999C12.2454 19.9999 12.2497 19.9999 12.2539 19.9999C12.2581 19.9999 12.2624 19.9999 12.2666 19.9999C12.2709 19.9999 12.2751 19.9999 12.2794 19.9999C12.2836 19.9999 12.2879 19.9999 12.2921 19.9999C12.2964 19.9999 12.3007 19.9999 12.3049 19.9999C12.3092 19.9999 12.3135 19.9999 12.3178 19.9999C12.3221 19.9999 12.3263 19.9999 12.3306 19.9999C12.3349 19.9999 12.3392 19.9999 12.3435 19.9999C12.3478 19.9999 12.3521 19.9999 12.3564 19.9999C12.3607 19.9999 12.365 19.9999 12.3693 19.9999C12.3737 19.9999 12.378 19.9999 12.3823 19.9999C12.3866 19.9999 12.391 19.9999 12.3953 19.9999C12.3996 19.9999 12.4039 19.9999 12.4083 19.9999C12.4126 19.9999 12.417 19.9999 12.4213 19.9999C12.4257 19.9999 12.43 19.9999 12.4344 19.9999C12.4387 19.9999 12.4431 19.9999 12.4475 19.9999C12.4518 19.9999 12.4562 19.9999 12.4606 19.9999C12.4649 19.9999 12.4693 19.9999 12.4737 19.9999C12.4781 19.9999 12.4824 19.9999 12.4868 19.9999C12.4912 19.9999 12.4956 19.9999 12.5 19.9999C12.5044 19.9999 12.5088 19.9999 12.5132 19.9999C12.5176 19.9999 12.522 19.9999 12.5264 19.9999C12.5308 19.9999 12.5352 19.9999 12.5397 19.9999C12.5441 19.9999 12.5485 19.9999 12.5529 19.9999C12.5573 19.9999 12.5618 19.9999 12.5662 19.9999C12.5706 19.9999 12.5751 19.9999 12.5795 19.9999C12.5839 19.9999 12.5884 19.9999 12.5928 19.9999C12.5973 19.9999 12.6017 19.9999 12.6062 19.9999C12.6106 19.9999 12.6151 19.9999 12.6196 19.9999C12.624 19.9999 12.6285 19.9999 12.6329 19.9999C12.6374 19.9999 12.6419 19.9999 12.6464 19.9999C12.6508 19.9999 12.6553 19.9999 12.6598 19.9999C12.6643 19.9999 12.6688 19.9999 12.6732 19.9999C12.6777 19.9999 12.6822 19.9999 12.6867 19.9999C12.6912 19.9999 12.6957 19.9999 12.7002 19.9999C12.7047 19.9999 12.7092 19.9999 12.7137 19.9999C12.7182 19.9999 12.7227 19.9999 12.7272 19.9999C12.7318 19.9999 12.7363 19.9999 12.7408 19.9999C12.7453 19.9999 12.7498 19.9999 12.7544 19.9999C12.7589 19.9999 12.7634 19.9999 12.768 19.9999C12.7725 19.9999 12.777 19.9999 12.7816 19.9999C12.7861 19.9999 12.7906 19.9999 12.7952 19.9999C12.7997 19.9999 12.8043 19.9999 12.8088 19.9999C12.8134 19.9999 12.8179 19.9999 12.8225 19.9999C12.827 19.9999 12.8316 19.9999 12.8362 19.9999C12.8407 19.9999 12.8453 19.9999 12.8499 19.9999C12.8544 19.9999 12.859 19.9999 12.8636 19.9999C12.8681 19.9999 12.8727 19.9999 12.8773 19.9999C12.8819 19.9999 12.8865 19.9999 12.891 19.9999C12.8956 19.9999 12.9002 19.9999 12.9048 19.9999C12.9094 19.9999 12.914 19.9999 12.9186 19.9999C12.9232 19.9999 12.9278 19.9999 12.9324 19.9999C12.937 19.9999 12.9416 19.9999 12.9462 19.9999C12.9508 19.9999 12.9554 19.9999 12.96 19.9999C12.9646 19.9999 12.9692 19.9999 12.9738 19.9999C12.9785 19.9999 12.9831 19.9999 12.9877 19.9999C12.9923 19.9999 12.9969 19.9999 13.0016 19.9999C13.0062 19.9999 13.0108 19.9999 13.0155 19.9999C13.0201 19.9999 13.0247 19.9999 13.0294 19.9999C13.034 19.9999 13.0386 19.9999 13.0433 19.9999C13.0479 19.9999 13.0526 19.9999 13.0572 19.9999C13.0618 19.9999 13.0665 19.9999 13.0711 19.9999C13.0758 19.9999 13.0804 19.9999 13.0851 19.9999C13.0897 19.9999 13.0944 19.9999 13.0991 19.9999C13.1037 19.9999 13.1084 19.9999 13.113 19.9999C13.1177 19.9999 13.1224 19.9999 13.127 19.9999C13.1317 19.9999 13.1364 19.9999 13.141 19.9999C13.1457 19.9999 13.1504 19.9999 13.1551 19.9999C13.1597 19.9999 13.1644 19.9999 13.1691 19.9999C13.1738 19.9999 13.1785 19.9999 13.1831 19.9999C13.1878 19.9999 13.1925 19.9999 13.1972 19.9999C13.2019 19.9999 13.2066 19.9999 13.2113 19.9999C13.2159 19.9999 13.2206 19.9999 13.2253 19.9999C13.23 19.9999 13.2347 19.9999 13.2394 19.9999C13.2441 19.9999 13.2488 19.9999 13.2535 19.9999C13.2582 19.9999 13.2629 19.9999 13.2676 19.9999C13.2723 19.9999 13.277 19.9999 13.2817 19.9999C13.2865 19.9999 13.2912 19.9999 13.2959 19.9999C13.3006 19.9999 13.3053 19.9999 13.31 19.9999C13.3147 19.9999 13.3194 19.9999 13.3242 19.9999C13.3289 19.9999 13.3336 19.9999 13.3383 19.9999C13.343 19.9999 13.3478 19.9999 13.3525 19.9999C13.3572 19.9999 13.3619 19.9999 13.3667 19.9999C13.3714 19.9999 13.3761 19.9999 13.3809 19.9999C13.3856 19.9999 13.3903 19.9999 13.3951 19.9999C13.3998 19.9999 13.4045 19.9999 13.4093 19.9999C13.414 19.9999 13.4187 19.9999 13.4235 19.9999C13.4282 19.9999 13.4329 19.9999 13.4377 19.9999C13.4424 19.9999 13.4472 19.9999 13.4519 19.9999C13.4567 19.9999 13.4614 19.9999 13.4662 19.9999C13.4709 19.9999 13.4756 19.9999 13.4804 19.9999C13.4851 19.9999 13.4899 19.9999 13.4946 19.9999C13.4994 19.9999 13.5041 19.9999 13.5089 19.9999C13.5136 19.9999 13.5184 19.9999 13.5232 19.9999C13.5279 19.9999 13.5327 19.9999 13.5374 19.9999C13.5422 19.9999 13.5469 19.9999 13.5517 19.9999C13.5565 19.9999 13.5612 19.9999 13.566 19.9999C13.5707 19.9999 13.5755 19.9999 13.5803 19.9999C13.585 19.9999 13.5898 19.9999 13.5946 19.9999C13.5993 19.9999 13.6041 19.9999 13.6089 19.9999C13.6136 19.9999 13.6184 19.9999 13.6232 19.9999C13.6279 19.9999 13.6327 19.9999 13.6375 19.9999C13.6422 19.9999 13.647 19.9999 13.6518 19.9999C13.6565 19.9999 13.6613 19.9999 13.6661 19.9999C13.6709 19.9999 13.6756 19.9999 13.6804 19.9999C13.6852 19.9999 13.69 19.9999 13.6947 19.9999C13.6995 19.9999 13.7043 19.9999 13.7091 19.9999C13.7138 19.9999 13.7186 19.9999 13.7234 19.9999C13.7282 19.9999 13.7329 19.9999 13.7377 19.9999C13.7425 19.9999 13.7473 19.9999 13.7521 19.9999C13.7568 19.9999 13.7616 19.9999 13.7664 19.9999C13.7712 19.9999 13.776 19.9999 13.7807 19.9999C13.7855 19.9999 13.7903 19.9999 13.7951 19.9999C13.7999 19.9999 13.8047 19.9999 13.8094 19.9999C13.8142 19.9999 13.819 19.9999 13.8238 19.9999C13.8286 19.9999 13.8334 19.9999 13.8381 19.9999C13.8429 19.9999 13.8477 19.9999 13.8525 19.9999C13.8573 19.9999 13.8621 19.9999 13.8668 19.9999C13.8716 19.9999 13.8764 19.9999 13.8812 19.9999C13.886 19.9999 13.8908 19.9999 13.8955 19.9999C13.9003 19.9999 13.9051 19.9999 13.9099 19.9999C13.9147 19.9999 13.9195 19.9999 13.9243 19.9999C13.929 19.9999 13.9338 19.9999 13.9386 19.9999C13.9434 19.9999 13.9482 19.9999 13.953 19.9999C13.9578 19.9999 13.9625 19.9999 13.9673 19.9999C13.9721 19.9999 13.9769 19.9999 13.9817 19.9999C13.9865 19.9999 13.9912 19.9999 13.996 19.9999C14.0008 19.9999 14.0056 19.9999 14.0104 19.9999C14.0152 19.9999 14.02 19.9999 14.0247 19.9999C14.0295 19.9999 14.0343 19.9999 14.0391 19.9999C14.0439 19.9999 14.0487 19.9999 14.0534 19.9999C14.0582 19.9999 14.063 19.9999 14.0678 19.9999C14.0726 19.9999 14.0773 19.9999 14.0821 19.9999C14.0869 19.9999 14.0917 19.9999 14.0965 19.9999C14.1012 19.9999 14.106 19.9999 14.1108 19.9999C14.1156 19.9999 14.1204 19.9999 14.1251 19.9999C14.1299 19.9999 14.1347 19.9999 14.1395 19.9999C14.1443 19.9999 14.149 19.9999 14.1538 19.9999C14.1586 19.9999 14.1634 19.9999 14.1681 19.9999C14.1729 19.9999 14.1777 19.9999 14.1825 19.9999C14.1872 19.9999 14.192 19.9999 14.1968 19.9999C14.2015 19.9999 14.2063 19.9999 14.2111 19.9999C14.2159 19.9999 14.2206 19.9999 14.2254 19.9999C14.2302 19.9999 14.2349 19.9999 14.2397 19.9999C14.2445 19.9999 14.2492 19.9999 14.254 19.9999C14.2588 19.9999 14.2635 19.9999 14.2683 19.9999C14.2731 19.9999 14.2778 19.9999 14.2826 19.9999C14.2874 19.9999 14.2921 19.9999 14.2969 19.9999C14.3016 19.9999 14.3064 19.9999 14.3112 19.9999C14.3159 19.9999 14.3207 19.9999 14.3254 19.9999C14.3302 19.9999 14.3349 19.9999 14.3397 19.9999C14.3444 19.9999 14.3492 19.9999 14.354 19.9999C14.3587 19.9999 14.3635 19.9999 14.3682 19.9999C14.373 19.9999 14.3777 19.9999 14.3825 19.9999C14.3872 19.9999 14.392 19.9999 14.3967 19.9999C14.4014 19.9999 14.4062 19.9999 14.4109 19.9999C14.4157 19.9999 14.4204 19.9999 14.4252 19.9999C14.4299 19.9999 14.4346 19.9999 14.4394 19.9999C14.4441 19.9999 14.4488 19.9999 14.4536 19.9999C14.4583 19.9999 14.4631 19.9999 14.4678 19.9999C14.4725 19.9999 14.4772 19.9999 14.482 19.9999C14.4867 19.9999 14.4914 19.9999 14.4962 19.9999C14.5009 19.9999 14.5056 19.9999 14.5103 19.9999C14.5151 19.9999 14.5198 19.9999 14.5245 19.9999C14.5292 19.9999 14.5339 19.9999 14.5387 19.9999C14.5434 19.9999 14.5481 19.9999 14.5528 19.9999C14.5575 19.9999 14.5622 19.9999 14.5669 19.9999C14.5717 19.9999 14.5764 19.9999 14.5811 19.9999C14.5858 19.9999 14.5905 19.9999 14.5952 19.9999C14.5999 19.9999 14.6046 19.9999 14.6093 19.9999C14.614 19.9999 14.6187 19.9999 14.6234 19.9999C14.6281 19.9999 14.6328 19.9999 14.6375 19.9999C14.6422 19.9999 14.6469 19.9999 14.6516 19.9999C14.6562 19.9999 14.6609 19.9999 14.6656 19.9999C14.6703 19.9999 14.675 19.9999 14.6797 19.9999C14.6844 19.9999 14.689 19.9999 14.6937 19.9999C14.6984 19.9999 14.7031 19.9999 14.7077 19.9999C14.7124 19.9999 14.7171 19.9999 14.7218 19.9999C14.7264 19.9999 14.7311 19.9999 14.7358 19.9999C14.7404 19.9999 14.7451 19.9999 14.7498 19.9999C14.7544 19.9999 14.7591 19.9999 14.7637 19.9999C14.7684 19.9999 14.773 19.9999 14.7777 19.9999C14.7824 19.9999 14.787 19.9999 14.7917 19.9999C14.7963 19.9999 14.8009 19.9999 14.8056 19.9999C14.8102 19.9999 14.8149 19.9999 14.8195 19.9999C14.8242 19.9999 14.8288 19.9999 14.8334 19.9999C14.8381 19.9999 14.8427 19.9999 14.8473 19.9999C14.8519 19.9999 14.8566 19.9999 14.8612 19.9999C14.8658 19.9999 14.8704 19.9999 14.8751 19.9999C14.8797 19.9999 14.8843 19.9999 14.8889 19.9999C14.8935 19.9999 14.8981 19.9999 14.9028 19.9999C14.9074 19.9999 14.912 19.9999 14.9166 19.9999C14.9212 19.9999 14.9258 19.9999 14.9304 19.9999C14.935 19.9999 14.9396 19.9999 14.9442 19.9999C14.9488 19.9999 14.9534 19.9999 14.958 19.9999C14.9625 19.9999 14.9671 19.9999 14.9717 19.9999C14.9763 19.9999 14.9809 19.9999 14.9855 19.9999C14.99 19.9999 14.9946 19.9999 14.9992 19.9999C15.0037 19.9999 15.0083 19.9999 15.0129 19.9999C15.0175 19.9999 15.022 19.9999 15.0266 19.9999C15.0311 19.9999 15.0357 19.9999 15.0402 19.9999C15.0448 19.9999 15.0494 19.9999 15.0539 19.9999C15.0585 19.9999 15.063 19.9999 15.0675 19.9999C15.0721 19.9999 15.0766 19.9999 15.0812 19.9999C15.0857 19.9999 15.0902 19.9999 15.0948 19.9999C15.0993 19.9999 15.1038 19.9999 15.1084 19.9999C15.1129 19.9999 15.1174 19.9999 15.1219 19.9999C15.1264 19.9999 15.1309 19.9999 15.1355 19.9999C15.14 19.9999 15.1445 19.9999 15.149 19.9999C15.1535 19.9999 15.158 19.9999 15.1625 19.9999C15.167 19.9999 15.1715 19.9999 15.176 19.9999C15.1805 19.9999 15.185 19.9999 15.1895 19.9999C15.1939 19.9999 15.1984 19.9999 15.2029 19.9999C15.2074 19.9999 15.2119 19.9999 15.2163 19.9999C15.2208 19.9999 15.2253 19.9999 15.2297 19.9999C15.2342 19.9999 15.2387 19.9999 15.2431 19.9999C15.2476 19.9999 15.252 19.9999 15.2565 19.9999C15.2609 19.9999 15.2654 19.9999 15.2698 19.9999C15.2743 19.9999 15.2787 19.9999 15.2832 19.9999C15.2876 19.9999 15.292 19.9999 15.2965 19.9999C15.3009 19.9999 15.3053 19.9999 15.3097 19.9999C15.3142 19.9999 15.3186 19.9999 15.323 19.9999C15.3274 19.9999 15.3318 19.9999 15.3362 19.9999C15.3406 19.9999 15.345 19.9999 15.3494 19.9999C15.3538 19.9999 15.3582 19.9999 15.3626 19.9999C15.367 19.9999 15.3714 19.9999 15.3758 19.9999C15.3802 19.9999 15.3846 19.9999 15.3889 19.9999C15.3933 19.9999 15.3977 19.9999 15.4021 19.9999C15.4064 19.9999 15.4108 19.9999 15.4152 19.9999C15.4195 19.9999 15.4239 19.9999 15.4282 19.9999C15.4326 19.9999 15.4369 19.9999 15.4413 19.9999C15.4456 19.9999 15.45 19.9999 15.4543 19.9999C15.4587 19.9999 15.463 19.9999 15.4673 19.9999C15.4716 19.9999 15.476 19.9999 15.4803 19.9999C15.4846 19.9999 15.4889 19.9999 15.4932 19.9999C15.4976 19.9999 15.5019 19.9999 15.5062 19.9999C15.5105 19.9999 15.5148 19.9999 15.5191 19.9999C15.5234 19.9999 15.5277 19.9999 15.5319 19.9999C15.5362 19.9999 15.5405 19.9999 15.5448 19.9999C15.5491 19.9999 15.5533 19.9999 15.5576 19.9999C15.5619 19.9999 15.5662 19.9999 15.5704 19.9999C15.5747 19.9999 15.5789 19.9999 15.5832 19.9999C15.5874 19.9999 15.5917 19.9999 15.5959 19.9999C15.6002 19.9999 15.6044 19.9999 15.6086 19.9999C15.6129 19.9999 15.6171 19.9999 15.6213 19.9999C15.6256 19.9999 15.6298 19.9999 15.634 19.9999C15.6382 19.9999 15.6424 19.9999 15.6466 19.9999C15.6508 19.9999 15.655 19.9999 15.6592 19.9999C15.6634 19.9999 15.6676 19.9999 15.6718 19.9999C15.676 19.9999 15.6802 19.9999 15.6844 19.9999C15.6885 19.9999 15.6927 19.9999 15.6969 19.9999C15.7011 19.9999 15.7052 19.9999 15.7094 19.9999C15.7135 19.9999 15.7177 19.9999 15.7218 19.9999C15.726 19.9999 15.7301 19.9999 15.7343 19.9999C15.7384 19.9999 15.7426 19.9999 15.7467 19.9999C15.7508 19.9999 15.7549 19.9999 15.7591 19.9999C15.7632 19.9999 15.7673 19.9999 15.7714 19.9999C15.7755 19.9999 15.7796 19.9999 15.7837 19.9999C15.7878 19.9999 15.7919 19.9999 15.796 19.9999C15.8001 19.9999 15.8042 19.9999 15.8083 19.9999C15.8123 19.9999 15.8164 19.9999 15.8205 19.9999C15.8246 19.9999 15.8286 19.9999 15.8327 19.9999C15.8367 19.9999 15.8408 19.9999 15.8448 19.9999C15.8489 19.9999 15.8529 19.9999 15.857 19.9999C15.861 19.9999 15.865 19.9999 15.8691 19.9999C15.8731 19.9999 15.8771 19.9999 15.8811 19.9999C15.8851 19.9999 15.8892 19.9999 15.8932 19.9999C15.8972 19.9999 15.9012 19.9999 15.9052 19.9999C15.9092 19.9999 15.9132 19.9999 15.9171 19.9999C15.9211 19.9999 15.9251 19.9999 15.9291 19.9999C15.9331 19.9999 15.937 19.9999 15.941 19.9999C15.9449 19.9999 15.9489 19.9999 15.9529 19.9999C15.9568 19.9999 15.9607 19.9999 15.9647 19.9999C15.9686 19.9999 15.9726 19.9999 15.9765 19.9999C15.9804 19.9999 15.9843 19.9999 15.9883 19.9999C15.9922 19.9999 15.9961 19.9999 16 19.9999V17.9999C15.9961 17.9999 15.9922 17.9999 15.9883 17.9999C15.9843 17.9999 15.9804 17.9999 15.9765 17.9999C15.9726 17.9999 15.9686 17.9999 15.9647 17.9999C15.9607 17.9999 15.9568 17.9999 15.9529 17.9999C15.9489 17.9999 15.9449 17.9999 15.941 17.9999C15.937 17.9999 15.9331 17.9999 15.9291 17.9999C15.9251 17.9999 15.9211 17.9999 15.9171 17.9999C15.9132 17.9999 15.9092 17.9999 15.9052 17.9999C15.9012 17.9999 15.8972 17.9999 15.8932 17.9999C15.8892 17.9999 15.8851 17.9999 15.8811 17.9999C15.8771 17.9999 15.8731 17.9999 15.8691 17.9999C15.865 17.9999 15.861 17.9999 15.857 17.9999C15.8529 17.9999 15.8489 17.9999 15.8448 17.9999C15.8408 17.9999 15.8367 17.9999 15.8327 17.9999C15.8286 17.9999 15.8246 17.9999 15.8205 17.9999C15.8164 17.9999 15.8123 17.9999 15.8083 17.9999C15.8042 17.9999 15.8001 17.9999 15.796 17.9999C15.7919 17.9999 15.7878 17.9999 15.7837 17.9999C15.7796 17.9999 15.7755 17.9999 15.7714 17.9999C15.7673 17.9999 15.7632 17.9999 15.7591 17.9999C15.7549 17.9999 15.7508 17.9999 15.7467 17.9999C15.7426 17.9999 15.7384 17.9999 15.7343 17.9999C15.7301 17.9999 15.726 17.9999 15.7218 17.9999C15.7177 17.9999 15.7135 17.9999 15.7094 17.9999C15.7052 17.9999 15.7011 17.9999 15.6969 17.9999C15.6927 17.9999 15.6885 17.9999 15.6844 17.9999C15.6802 17.9999 15.676 17.9999 15.6718 17.9999C15.6676 17.9999 15.6634 17.9999 15.6592 17.9999C15.655 17.9999 15.6508 17.9999 15.6466 17.9999C15.6424 17.9999 15.6382 17.9999 15.634 17.9999C15.6298 17.9999 15.6256 17.9999 15.6213 17.9999C15.6171 17.9999 15.6129 17.9999 15.6086 17.9999C15.6044 17.9999 15.6002 17.9999 15.5959 17.9999C15.5917 17.9999 15.5874 17.9999 15.5832 17.9999C15.5789 17.9999 15.5747 17.9999 15.5704 17.9999C15.5662 17.9999 15.5619 17.9999 15.5576 17.9999C15.5533 17.9999 15.5491 17.9999 15.5448 17.9999C15.5405 17.9999 15.5362 17.9999 15.5319 17.9999C15.5277 17.9999 15.5234 17.9999 15.5191 17.9999C15.5148 17.9999 15.5105 17.9999 15.5062 17.9999C15.5019 17.9999 15.4976 17.9999 15.4932 17.9999C15.4889 17.9999 15.4846 17.9999 15.4803 17.9999C15.476 17.9999 15.4716 17.9999 15.4673 17.9999C15.463 17.9999 15.4587 17.9999 15.4543 17.9999C15.45 17.9999 15.4456 17.9999 15.4413 17.9999C15.4369 17.9999 15.4326 17.9999 15.4282 17.9999C15.4239 17.9999 15.4195 17.9999 15.4152 17.9999C15.4108 17.9999 15.4064 17.9999 15.4021 17.9999C15.3977 17.9999 15.3933 17.9999 15.3889 17.9999C15.3846 17.9999 15.3802 17.9999 15.3758 17.9999C15.3714 17.9999 15.367 17.9999 15.3626 17.9999C15.3582 17.9999 15.3538 17.9999 15.3494 17.9999C15.345 17.9999 15.3406 17.9999 15.3362 17.9999C15.3318 17.9999 15.3274 17.9999 15.323 17.9999C15.3186 17.9999 15.3142 17.9999 15.3097 17.9999C15.3053 17.9999 15.3009 17.9999 15.2965 17.9999C15.292 17.9999 15.2876 17.9999 15.2832 17.9999C15.2787 17.9999 15.2743 17.9999 15.2698 17.9999C15.2654 17.9999 15.2609 17.9999 15.2565 17.9999C15.252 17.9999 15.2476 17.9999 15.2431 17.9999C15.2387 17.9999 15.2342 17.9999 15.2297 17.9999C15.2253 17.9999 15.2208 17.9999 15.2163 17.9999C15.2119 17.9999 15.2074 17.9999 15.2029 17.9999C15.1984 17.9999 15.1939 17.9999 15.1895 17.9999C15.185 17.9999 15.1805 17.9999 15.176 17.9999C15.1715 17.9999 15.167 17.9999 15.1625 17.9999C15.158 17.9999 15.1535 17.9999 15.149 17.9999C15.1445 17.9999 15.14 17.9999 15.1355 17.9999C15.1309 17.9999 15.1264 17.9999 15.1219 17.9999C15.1174 17.9999 15.1129 17.9999 15.1084 17.9999C15.1038 17.9999 15.0993 17.9999 15.0948 17.9999C15.0902 17.9999 15.0857 17.9999 15.0812 17.9999C15.0766 17.9999 15.0721 17.9999 15.0675 17.9999C15.063 17.9999 15.0585 17.9999 15.0539 17.9999C15.0494 17.9999 15.0448 17.9999 15.0402 17.9999C15.0357 17.9999 15.0311 17.9999 15.0266 17.9999C15.022 17.9999 15.0175 17.9999 15.0129 17.9999C15.0083 17.9999 15.0037 17.9999 14.9992 17.9999C14.9946 17.9999 14.99 17.9999 14.9855 17.9999C14.9809 17.9999 14.9763 17.9999 14.9717 17.9999C14.9671 17.9999 14.9625 17.9999 14.958 17.9999C14.9534 17.9999 14.9488 17.9999 14.9442 17.9999C14.9396 17.9999 14.935 17.9999 14.9304 17.9999C14.9258 17.9999 14.9212 17.9999 14.9166 17.9999C14.912 17.9999 14.9074 17.9999 14.9028 17.9999C14.8981 17.9999 14.8935 17.9999 14.8889 17.9999C14.8843 17.9999 14.8797 17.9999 14.8751 17.9999C14.8704 17.9999 14.8658 17.9999 14.8612 17.9999C14.8566 17.9999 14.8519 17.9999 14.8473 17.9999C14.8427 17.9999 14.8381 17.9999 14.8334 17.9999C14.8288 17.9999 14.8242 17.9999 14.8195 17.9999C14.8149 17.9999 14.8102 17.9999 14.8056 17.9999C14.8009 17.9999 14.7963 17.9999 14.7917 17.9999C14.787 17.9999 14.7824 17.9999 14.7777 17.9999C14.773 17.9999 14.7684 17.9999 14.7637 17.9999C14.7591 17.9999 14.7544 17.9999 14.7498 17.9999C14.7451 17.9999 14.7404 17.9999 14.7358 17.9999C14.7311 17.9999 14.7264 17.9999 14.7218 17.9999C14.7171 17.9999 14.7124 17.9999 14.7077 17.9999C14.7031 17.9999 14.6984 17.9999 14.6937 17.9999C14.689 17.9999 14.6844 17.9999 14.6797 17.9999C14.675 17.9999 14.6703 17.9999 14.6656 17.9999C14.6609 17.9999 14.6562 17.9999 14.6516 17.9999C14.6469 17.9999 14.6422 17.9999 14.6375 17.9999C14.6328 17.9999 14.6281 17.9999 14.6234 17.9999C14.6187 17.9999 14.614 17.9999 14.6093 17.9999C14.6046 17.9999 14.5999 17.9999 14.5952 17.9999C14.5905 17.9999 14.5858 17.9999 14.5811 17.9999C14.5764 17.9999 14.5717 17.9999 14.5669 17.9999C14.5622 17.9999 14.5575 17.9999 14.5528 17.9999C14.5481 17.9999 14.5434 17.9999 14.5387 17.9999C14.5339 17.9999 14.5292 17.9999 14.5245 17.9999C14.5198 17.9999 14.5151 17.9999 14.5103 17.9999C14.5056 17.9999 14.5009 17.9999 14.4962 17.9999C14.4914 17.9999 14.4867 17.9999 14.482 17.9999C14.4772 17.9999 14.4725 17.9999 14.4678 17.9999C14.4631 17.9999 14.4583 17.9999 14.4536 17.9999C14.4488 17.9999 14.4441 17.9999 14.4394 17.9999C14.4346 17.9999 14.4299 17.9999 14.4252 17.9999C14.4204 17.9999 14.4157 17.9999 14.4109 17.9999C14.4062 17.9999 14.4014 17.9999 14.3967 17.9999C14.392 17.9999 14.3872 17.9999 14.3825 17.9999C14.3777 17.9999 14.373 17.9999 14.3682 17.9999C14.3635 17.9999 14.3587 17.9999 14.354 17.9999C14.3492 17.9999 14.3444 17.9999 14.3397 17.9999C14.3349 17.9999 14.3302 17.9999 14.3254 17.9999C14.3207 17.9999 14.3159 17.9999 14.3112 17.9999C14.3064 17.9999 14.3016 17.9999 14.2969 17.9999C14.2921 17.9999 14.2874 17.9999 14.2826 17.9999C14.2778 17.9999 14.2731 17.9999 14.2683 17.9999C14.2635 17.9999 14.2588 17.9999 14.254 17.9999C14.2492 17.9999 14.2445 17.9999 14.2397 17.9999C14.2349 17.9999 14.2302 17.9999 14.2254 17.9999C14.2206 17.9999 14.2159 17.9999 14.2111 17.9999C14.2063 17.9999 14.2015 17.9999 14.1968 17.9999C14.192 17.9999 14.1872 17.9999 14.1825 17.9999C14.1777 17.9999 14.1729 17.9999 14.1681 17.9999C14.1634 17.9999 14.1586 17.9999 14.1538 17.9999C14.149 17.9999 14.1443 17.9999 14.1395 17.9999C14.1347 17.9999 14.1299 17.9999 14.1251 17.9999C14.1204 17.9999 14.1156 17.9999 14.1108 17.9999C14.106 17.9999 14.1012 17.9999 14.0965 17.9999C14.0917 17.9999 14.0869 17.9999 14.0821 17.9999C14.0773 17.9999 14.0726 17.9999 14.0678 17.9999C14.063 17.9999 14.0582 17.9999 14.0534 17.9999C14.0487 17.9999 14.0439 17.9999 14.0391 17.9999C14.0343 17.9999 14.0295 17.9999 14.0247 17.9999C14.02 17.9999 14.0152 17.9999 14.0104 17.9999C14.0056 17.9999 14.0008 17.9999 13.996 17.9999C13.9912 17.9999 13.9865 17.9999 13.9817 17.9999C13.9769 17.9999 13.9721 17.9999 13.9673 17.9999C13.9625 17.9999 13.9578 17.9999 13.953 17.9999C13.9482 17.9999 13.9434 17.9999 13.9386 17.9999C13.9338 17.9999 13.929 17.9999 13.9243 17.9999C13.9195 17.9999 13.9147 17.9999 13.9099 17.9999C13.9051 17.9999 13.9003 17.9999 13.8955 17.9999C13.8908 17.9999 13.886 17.9999 13.8812 17.9999C13.8764 17.9999 13.8716 17.9999 13.8668 17.9999C13.8621 17.9999 13.8573 17.9999 13.8525 17.9999C13.8477 17.9999 13.8429 17.9999 13.8381 17.9999C13.8334 17.9999 13.8286 17.9999 13.8238 17.9999C13.819 17.9999 13.8142 17.9999 13.8094 17.9999C13.8047 17.9999 13.7999 17.9999 13.7951 17.9999C13.7903 17.9999 13.7855 17.9999 13.7807 17.9999C13.776 17.9999 13.7712 17.9999 13.7664 17.9999C13.7616 17.9999 13.7568 17.9999 13.7521 17.9999C13.7473 17.9999 13.7425 17.9999 13.7377 17.9999C13.7329 17.9999 13.7282 17.9999 13.7234 17.9999C13.7186 17.9999 13.7138 17.9999 13.7091 17.9999C13.7043 17.9999 13.6995 17.9999 13.6947 17.9999C13.69 17.9999 13.6852 17.9999 13.6804 17.9999C13.6756 17.9999 13.6709 17.9999 13.6661 17.9999C13.6613 17.9999 13.6565 17.9999 13.6518 17.9999C13.647 17.9999 13.6422 17.9999 13.6375 17.9999C13.6327 17.9999 13.6279 17.9999 13.6232 17.9999C13.6184 17.9999 13.6136 17.9999 13.6089 17.9999C13.6041 17.9999 13.5993 17.9999 13.5946 17.9999C13.5898 17.9999 13.585 17.9999 13.5803 17.9999C13.5755 17.9999 13.5707 17.9999 13.566 17.9999C13.5612 17.9999 13.5565 17.9999 13.5517 17.9999C13.5469 17.9999 13.5422 17.9999 13.5374 17.9999C13.5327 17.9999 13.5279 17.9999 13.5232 17.9999C13.5184 17.9999 13.5136 17.9999 13.5089 17.9999C13.5041 17.9999 13.4994 17.9999 13.4946 17.9999C13.4899 17.9999 13.4851 17.9999 13.4804 17.9999C13.4756 17.9999 13.4709 17.9999 13.4662 17.9999C13.4614 17.9999 13.4567 17.9999 13.4519 17.9999C13.4472 17.9999 13.4424 17.9999 13.4377 17.9999C13.4329 17.9999 13.4282 17.9999 13.4235 17.9999C13.4187 17.9999 13.414 17.9999 13.4093 17.9999C13.4045 17.9999 13.3998 17.9999 13.3951 17.9999C13.3903 17.9999 13.3856 17.9999 13.3809 17.9999C13.3761 17.9999 13.3714 17.9999 13.3667 17.9999C13.3619 17.9999 13.3572 17.9999 13.3525 17.9999C13.3478 17.9999 13.343 17.9999 13.3383 17.9999C13.3336 17.9999 13.3289 17.9999 13.3242 17.9999C13.3194 17.9999 13.3147 17.9999 13.31 17.9999C13.3053 17.9999 13.3006 17.9999 13.2959 17.9999C13.2912 17.9999 13.2865 17.9999 13.2817 17.9999C13.277 17.9999 13.2723 17.9999 13.2676 17.9999C13.2629 17.9999 13.2582 17.9999 13.2535 17.9999C13.2488 17.9999 13.2441 17.9999 13.2394 17.9999C13.2347 17.9999 13.23 17.9999 13.2253 17.9999C13.2206 17.9999 13.2159 17.9999 13.2113 17.9999C13.2066 17.9999 13.2019 17.9999 13.1972 17.9999C13.1925 17.9999 13.1878 17.9999 13.1831 17.9999C13.1785 17.9999 13.1738 17.9999 13.1691 17.9999C13.1644 17.9999 13.1597 17.9999 13.1551 17.9999C13.1504 17.9999 13.1457 17.9999 13.141 17.9999C13.1364 17.9999 13.1317 17.9999 13.127 17.9999C13.1224 17.9999 13.1177 17.9999 13.113 17.9999C13.1084 17.9999 13.1037 17.9999 13.0991 17.9999C13.0944 17.9999 13.0897 17.9999 13.0851 17.9999C13.0804 17.9999 13.0758 17.9999 13.0711 17.9999C13.0665 17.9999 13.0618 17.9999 13.0572 17.9999C13.0526 17.9999 13.0479 17.9999 13.0433 17.9999C13.0386 17.9999 13.034 17.9999 13.0294 17.9999C13.0247 17.9999 13.0201 17.9999 13.0155 17.9999C13.0108 17.9999 13.0062 17.9999 13.0016 17.9999C12.9969 17.9999 12.9923 17.9999 12.9877 17.9999C12.9831 17.9999 12.9785 17.9999 12.9738 17.9999C12.9692 17.9999 12.9646 17.9999 12.96 17.9999C12.9554 17.9999 12.9508 17.9999 12.9462 17.9999C12.9416 17.9999 12.937 17.9999 12.9324 17.9999C12.9278 17.9999 12.9232 17.9999 12.9186 17.9999C12.914 17.9999 12.9094 17.9999 12.9048 17.9999C12.9002 17.9999 12.8956 17.9999 12.891 17.9999C12.8865 17.9999 12.8819 17.9999 12.8773 17.9999C12.8727 17.9999 12.8681 17.9999 12.8636 17.9999C12.859 17.9999 12.8544 17.9999 12.8499 17.9999C12.8453 17.9999 12.8407 17.9999 12.8362 17.9999C12.8316 17.9999 12.827 17.9999 12.8225 17.9999C12.8179 17.9999 12.8134 17.9999 12.8088 17.9999C12.8043 17.9999 12.7997 17.9999 12.7952 17.9999C12.7906 17.9999 12.7861 17.9999 12.7816 17.9999C12.777 17.9999 12.7725 17.9999 12.768 17.9999C12.7634 17.9999 12.7589 17.9999 12.7544 17.9999C12.7498 17.9999 12.7453 17.9999 12.7408 17.9999C12.7363 17.9999 12.7318 17.9999 12.7272 17.9999C12.7227 17.9999 12.7182 17.9999 12.7137 17.9999C12.7092 17.9999 12.7047 17.9999 12.7002 17.9999C12.6957 17.9999 12.6912 17.9999 12.6867 17.9999C12.6822 17.9999 12.6777 17.9999 12.6732 17.9999C12.6688 17.9999 12.6643 17.9999 12.6598 17.9999C12.6553 17.9999 12.6508 17.9999 12.6464 17.9999C12.6419 17.9999 12.6374 17.9999 12.6329 17.9999C12.6285 17.9999 12.624 17.9999 12.6196 17.9999C12.6151 17.9999 12.6106 17.9999 12.6062 17.9999C12.6017 17.9999 12.5973 17.9999 12.5928 17.9999C12.5884 17.9999 12.5839 17.9999 12.5795 17.9999C12.5751 17.9999 12.5706 17.9999 12.5662 17.9999C12.5618 17.9999 12.5573 17.9999 12.5529 17.9999C12.5485 17.9999 12.5441 17.9999 12.5397 17.9999C12.5352 17.9999 12.5308 17.9999 12.5264 17.9999C12.522 17.9999 12.5176 17.9999 12.5132 17.9999C12.5088 17.9999 12.5044 17.9999 12.5 17.9999C12.4956 17.9999 12.4912 17.9999 12.4868 17.9999C12.4824 17.9999 12.4781 17.9999 12.4737 17.9999C12.4693 17.9999 12.4649 17.9999 12.4606 17.9999C12.4562 17.9999 12.4518 17.9999 12.4475 17.9999C12.4431 17.9999 12.4387 17.9999 12.4344 17.9999C12.43 17.9999 12.4257 17.9999 12.4213 17.9999C12.417 17.9999 12.4126 17.9999 12.4083 17.9999C12.4039 17.9999 12.3996 17.9999 12.3953 17.9999C12.391 17.9999 12.3866 17.9999 12.3823 17.9999C12.378 17.9999 12.3737 17.9999 12.3693 17.9999C12.365 17.9999 12.3607 17.9999 12.3564 17.9999C12.3521 17.9999 12.3478 17.9999 12.3435 17.9999C12.3392 17.9999 12.3349 17.9999 12.3306 17.9999C12.3263 17.9999 12.3221 17.9999 12.3178 17.9999C12.3135 17.9999 12.3092 17.9999 12.3049 17.9999C12.3007 17.9999 12.2964 17.9999 12.2921 17.9999C12.2879 17.9999 12.2836 17.9999 12.2794 17.9999C12.2751 17.9999 12.2709 17.9999 12.2666 17.9999C12.2624 17.9999 12.2581 17.9999 12.2539 17.9999C12.2497 17.9999 12.2454 17.9999 12.2412 17.9999C12.237 17.9999 12.2328 17.9999 12.2285 17.9999C12.2243 17.9999 12.2201 17.9999 12.2159 17.9999C12.2117 17.9999 12.2075 17.9999 12.2033 17.9999C12.1991 17.9999 12.1949 17.9999 12.1907 17.9999C12.1865 17.9999 12.1823 17.9999 12.1781 17.9999C12.174 17.9999 12.1698 17.9999 12.1656 17.9999C12.1614 17.9999 12.1573 17.9999 12.1531 17.9999C12.149 17.9999 12.1448 17.9999 12.1406 17.9999C12.1365 17.9999 12.1324 17.9999 12.1282 17.9999C12.1241 17.9999 12.1199 17.9999 12.1158 17.9999C12.1117 17.9999 12.1075 17.9999 12.1034 17.9999C12.0993 17.9999 12.0952 17.9999 12.0911 17.9999C12.087 17.9999 12.0828 17.9999 12.0787 17.9999C12.0746 17.9999 12.0705 17.9999 12.0665 17.9999C12.0624 17.9999 12.0583 17.9999 12.0542 17.9999C12.0501 17.9999 12.046 17.9999 12.042 17.9999C12.0379 17.9999 12.0338 17.9999 12.0298 17.9999C12.0257 17.9999 12.0216 17.9999 12.0176 17.9999C12.0135 17.9999 12.0095 17.9999 12.0055 17.9999C12.0014 17.9999 11.9974 17.9999 11.9934 17.9999C11.9893 17.9999 11.9853 17.9999 11.9813 17.9999C11.9773 17.9999 11.9732 17.9999 11.9692 17.9999C11.9652 17.9999 11.9612 17.9999 11.9572 17.9999C11.9532 17.9999 11.9492 17.9999 11.9453 17.9999C11.9413 17.9999 11.9373 17.9999 11.9333 17.9999C11.9293 17.9999 11.9254 17.9999 11.9214 17.9999C11.9174 17.9999 11.9135 17.9999 11.9095 17.9999C11.9056 17.9999 11.9016 17.9999 11.8977 17.9999C11.8937 17.9999 11.8898 17.9999 11.8859 17.9999C11.8819 17.9999 11.878 17.9999 11.8741 17.9999C11.8702 17.9999 11.8663 17.9999 11.8623 17.9999C11.8584 17.9999 11.8545 17.9999 11.8506 17.9999C11.8467 17.9999 11.8428 17.9999 11.839 17.9999C11.8351 17.9999 11.8312 17.9999 11.8273 17.9999C11.8234 17.9999 11.8196 17.9999 11.8157 17.9999C11.8119 17.9999 11.808 17.9999 11.8041 17.9999C11.8003 17.9999 11.7965 17.9999 11.7926 17.9999C11.7888 17.9999 11.7849 17.9999 11.7811 17.9999C11.7773 17.9999 11.7735 17.9999 11.7697 17.9999C11.7658 17.9999 11.762 17.9999 11.7582 17.9999C11.7544 17.9999 11.7506 17.9999 11.7468 17.9999C11.743 17.9999 11.7393 17.9999 11.7355 17.9999C11.7317 17.9999 11.7279 17.9999 11.7242 17.9999C11.7204 17.9999 11.7166 17.9999 11.7129 17.9999C11.7091 17.9999 11.7054 17.9999 11.7016 17.9999C11.6979 17.9999 11.6942 17.9999 11.6904 17.9999C11.6867 17.9999 11.683 17.9999 11.6793 17.9999C11.6756 17.9999 11.6719 17.9999 11.6681 17.9999C11.6644 17.9999 11.6607 17.9999 11.6571 17.9999C11.6534 17.9999 11.6497 17.9999 11.646 17.9999C11.6423 17.9999 11.6387 17.9999 11.635 17.9999C11.6313 17.9999 11.6277 17.9999 11.624 17.9999C11.6204 17.9999 11.6167 17.9999 11.6131 17.9999C11.6094 17.9999 11.6058 17.9999 11.6022 17.9999C11.5986 17.9999 11.5949 17.9999 11.5913 17.9999C11.5877 17.9999 11.5841 17.9999 11.5805 17.9999C11.5769 17.9999 11.5733 17.9999 11.5697 17.9999C11.5661 17.9999 11.5626 17.9999 11.559 17.9999C11.5554 17.9999 11.5518 17.9999 11.5483 17.9999C11.5447 17.9999 11.5412 17.9999 11.5376 17.9999C11.5341 17.9999 11.5305 17.9999 11.527 17.9999C11.5235 17.9999 11.52 17.9999 11.5164 17.9999C11.5129 17.9999 11.5094 17.9999 11.5059 17.9999C11.5024 17.9999 11.4989 17.9999 11.4954 17.9999C11.4919 17.9999 11.4884 17.9999 11.485 17.9999C11.4815 17.9999 11.478 17.9999 11.4745 17.9999C11.4711 17.9999 11.4676 17.9999 11.4642 17.9999C11.4607 17.9999 11.4573 17.9999 11.4539 17.9999C11.4504 17.9999 11.447 17.9999 11.4436 17.9999C11.4402 17.9999 11.4367 17.9999 11.4333 17.9999C11.4299 17.9999 11.4265 17.9999 11.4231 17.9999C11.4197 17.9999 11.4164 17.9999 11.413 17.9999C11.4096 17.9999 11.4062 17.9999 11.4029 17.9999C11.3995 17.9999 11.3962 17.9999 11.3928 17.9999C11.3895 17.9999 11.3861 17.9999 11.3828 17.9999C11.3794 17.9999 11.3761 17.9999 11.3728 17.9999C11.3695 17.9999 11.3662 17.9999 11.3629 17.9999C11.3596 17.9999 11.3563 17.9999 11.353 17.9999C11.3497 17.9999 11.3464 17.9999 11.3431 17.9999C11.3399 17.9999 11.3366 17.9999 11.3333 17.9999C11.3301 17.9999 11.3268 17.9999 11.3236 17.9999C11.3203 17.9999 11.3171 17.9999 11.3139 17.9999C11.3106 17.9999 11.3074 17.9999 11.3042 17.9999C11.301 17.9999 11.2978 17.9999 11.2946 17.9999C11.2914 17.9999 11.2882 17.9999 11.285 17.9999C11.2818 17.9999 11.2787 17.9999 11.2755 17.9999C11.2723 17.9999 11.2692 17.9999 11.266 17.9999C11.2629 17.9999 11.2597 17.9999 11.2566 17.9999C11.2534 17.9999 11.2503 17.9999 11.2472 17.9999C11.2441 17.9999 11.241 17.9999 11.2379 17.9999C11.2348 17.9999 11.2317 17.9999 11.2286 17.9999C11.2255 17.9999 11.2224 17.9999 11.2193 17.9999C11.2163 17.9999 11.2132 17.9999 11.2101 17.9999C11.2071 17.9999 11.204 17.9999 11.201 17.9999C11.1979 17.9999 11.1949 17.9999 11.1919 17.9999C11.1889 17.9999 11.1859 17.9999 11.1828 17.9999C11.1798 17.9999 11.1768 17.9999 11.1738 17.9999C11.1709 17.9999 11.1679 17.9999 11.1649 17.9999C11.1619 17.9999 11.1589 17.9999 11.156 17.9999C11.153 17.9999 11.1501 17.9999 11.1471 17.9999C11.1442 17.9999 11.1413 17.9999 11.1383 17.9999C11.1354 17.9999 11.1325 17.9999 11.1296 17.9999C11.1267 17.9999 11.1238 17.9999 11.1209 17.9999C11.118 17.9999 11.1151 17.9999 11.1122 17.9999C11.1094 17.9999 11.1065 17.9999 11.1036 17.9999C11.1008 17.9999 11.0979 17.9999 11.0951 17.9999C11.0922 17.9999 11.0894 17.9999 11.0866 17.9999C11.0837 17.9999 11.0809 17.9999 11.0781 17.9999C11.0753 17.9999 11.0725 17.9999 11.0697 17.9999C11.0669 17.9999 11.0642 17.9999 11.0614 17.9999C11.0586 17.9999 11.0558 17.9999 11.0531 17.9999C11.0503 17.9999 11.0476 17.9999 11.0448 17.9999C11.0421 17.9999 11.0394 17.9999 11.0367 17.9999C11.0339 17.9999 11.0312 17.9999 11.0285 17.9999C11.0258 17.9999 11.0231 17.9999 11.0204 17.9999C11.0178 17.9999 11.0151 17.9999 11.0124 17.9999C11.0097 17.9999 11.0071 17.9999 11.0044 17.9999C11.0018 17.9999 10.9991 17.9999 10.9965 17.9999C10.9939 17.9999 10.9913 17.9999 10.9886 17.9999C10.986 17.9999 10.9834 17.9999 10.9808 17.9999C10.9782 17.9999 10.9756 17.9999 10.9731 17.9999C10.9705 17.9999 10.9679 17.9999 10.9654 17.9999C10.9628 17.9999 10.9602 17.9999 10.9577 17.9999C10.9552 17.9999 10.9526 17.9999 10.9501 17.9999C10.9476 17.9999 10.9451 17.9999 10.9426 17.9999C10.9401 17.9999 10.9376 17.9999 10.9351 17.9999C10.9326 17.9999 10.9301 17.9999 10.9276 17.9999C10.9252 17.9999 10.9227 17.9999 10.9203 17.9999C10.9178 17.9999 10.9154 17.9999 10.9129 17.9999C10.9105 17.9999 10.9081 17.9999 10.9057 17.9999C10.9033 17.9999 10.9009 17.9999 10.8985 17.9999C10.8961 17.9999 10.8937 17.9999 10.8913 17.9999C10.8889 17.9999 10.8866 17.9999 10.8842 17.9999C10.8819 17.9999 10.8795 17.9999 10.8772 17.9999C10.8749 17.9999 10.8725 17.9999 10.8702 17.9999C10.8679 17.9999 10.8656 17.9999 10.8633 17.9999C10.861 17.9999 10.8587 17.9999 10.8564 17.9999C10.8541 17.9999 10.8519 17.9999 10.8496 17.9999C10.8474 17.9999 10.8451 17.9999 10.8429 17.9999C10.8406 17.9999 10.8384 17.9999 10.8362 17.9999C10.834 17.9999 10.8318 17.9999 10.8296 17.9999C10.8273 17.9999 10.8252 17.9999 10.823 17.9999C10.8208 17.9999 10.8186 17.9999 10.8165 17.9999C10.8143 17.9999 10.8122 17.9999 10.81 17.9999C10.8079 17.9999 10.8057 17.9999 10.8036 17.9999C10.8015 17.9999 10.7994 17.9999 10.7973 17.9999C10.7952 17.9999 10.7931 17.9999 10.791 17.9999C10.7889 17.9999 10.7869 17.9999 10.7848 17.9999C10.7827 17.9999 10.7807 17.9999 10.7786 17.9999C10.7766 17.9999 10.7746 17.9999 10.7725 17.9999C10.7705 17.9999 10.7685 17.9999 10.7665 17.9999C10.7645 17.9999 10.7625 17.9999 10.7605 17.9999C10.7586 17.9999 10.7566 17.9999 10.7546 17.9999C10.7527 17.9999 10.7507 17.9999 10.7488 17.9999C10.7468 17.9999 10.7449 17.9999 10.743 17.9999C10.7411 17.9999 10.7392 17.9999 10.7373 17.9999C10.7354 17.9999 10.7335 17.9999 10.7316 17.9999C10.7297 17.9999 10.7279 17.9999 10.726 17.9999C10.7242 17.9999 10.7223 17.9999 10.7205 17.9999C10.7186 17.9999 10.7168 17.9999 10.715 17.9999C10.7132 17.9999 10.7114 17.9999 10.7096 17.9999C10.7078 17.9999 10.706 17.9999 10.7042 17.9999C10.7025 17.9999 10.7007 17.9999 10.699 17.9999C10.6972 17.9999 10.6955 17.9999 10.6937 17.9999C10.692 17.9999 10.6903 17.9999 10.6886 17.9999C10.6869 17.9999 10.6852 17.9999 10.6835 17.9999C10.6818 17.9999 10.6801 17.9999 10.6785 17.9999C10.6768 17.9999 10.6751 17.9999 10.6735 17.9999C10.6719 17.9999 10.6702 17.9999 10.6686 17.9999C10.667 17.9999 10.6654 17.9999 10.6638 17.9999C10.6622 17.9999 10.6606 17.9999 10.659 17.9999C10.6574 17.9999 10.6559 17.9999 10.6543 17.9999C10.6527 17.9999 10.6512 17.9999 10.6497 17.9999C10.6481 17.9999 10.6466 17.9999 10.6451 17.9999C10.6436 17.9999 10.6421 17.9999 10.6406 17.9999C10.6391 17.9999 10.6376 17.9999 10.6361 17.9999C10.6347 17.9999 10.6332 17.9999 10.6318 17.9999C10.6303 17.9999 10.6289 17.9999 10.6275 17.9999C10.6261 17.9999 10.6246 17.9999 10.6232 17.9999C10.6218 17.9999 10.6204 17.9999 10.6191 17.9999C10.6177 17.9999 10.6163 17.9999 10.615 17.9999C10.6136 17.9999 10.6123 17.9999 10.6109 17.9999C10.6096 17.9999 10.6083 17.9999 10.607 17.9999C10.6057 17.9999 10.6044 17.9999 10.6031 17.9999C10.6018 17.9999 10.6005 17.9999 10.5992 17.9999C10.598 17.9999 10.5967 17.9999 10.5955 17.9999C10.5942 17.9999 10.593 17.9999 10.5918 17.9999C10.5906 17.9999 10.5894 17.9999 10.5882 17.9999C10.587 17.9999 10.5858 17.9999 10.5846 17.9999C10.5834 17.9999 10.5823 17.9999 10.5811 17.9999C10.58 17.9999 10.5788 17.9999 10.5777 17.9999C10.5766 17.9999 10.5755 17.9999 10.5744 17.9999C10.5733 17.9999 10.5722 17.9999 10.5711 17.9999C10.57 17.9999 10.569 17.9999 10.5679 17.9999C10.5668 17.9999 10.5658 17.9999 10.5648 17.9999C10.5637 17.9999 10.5627 17.9999 10.5617 17.9999C10.5607 17.9999 10.5597 17.9999 10.5587 17.9999C10.5577 17.9999 10.5568 17.9999 10.5558 17.9999C10.5548 17.9999 10.5539 17.9999 10.5529 17.9999C10.552 17.9999 10.5511 17.9999 10.5502 17.9999C10.5493 17.9999 10.5484 17.9999 10.5475 17.9999C10.5466 17.9999 10.5457 17.9999 10.5448 17.9999C10.544 17.9999 10.5431 17.9999 10.5423 17.9999C10.5414 17.9999 10.5406 17.9999 10.5398 17.9999C10.539 17.9999 10.5382 17.9999 10.5374 17.9999C10.5366 17.9999 10.5358 17.9999 10.535 17.9999C10.5343 17.9999 10.5335 17.9999 10.5328 17.9999C10.532 17.9999 10.5313 17.9999 10.5306 17.9999C10.5299 17.9999 10.5292 17.9999 10.5285 17.9999C10.5278 17.9999 10.5271 17.9999 10.5264 17.9999C10.5258 17.9999 10.5251 17.9999 10.5245 17.9999C10.5238 17.9999 10.5232 17.9999 10.5226 17.9999C10.5219 17.9999 10.5213 17.9999 10.5207 17.9999C10.5201 17.9999 10.5196 17.9999 10.519 17.9999C10.5184 17.9999 10.5179 17.9999 10.5173 17.9999C10.5168 17.9999 10.5162 17.9999 10.5157 17.9999C10.5152 17.9999 10.5147 17.9999 10.5142 17.9999C10.5137 17.9999 10.5132 17.9999 10.5128 17.9999C10.5123 17.9999 10.5118 17.9999 10.5114 17.9999C10.5109 17.9999 10.5105 17.9999 10.5101 17.9999C10.5097 17.9999 10.5093 17.9999 10.5089 17.9999C10.5085 17.9999 10.5081 17.9999 10.5077 17.9999C10.5074 17.9999 10.507 17.9999 10.5067 17.9999C10.5063 17.9999 10.506 17.9999 10.5057 17.9999C10.5054 17.9999 10.5051 17.9999 10.5048 17.9999C10.5045 17.9999 10.5042 17.9999 10.504 17.9999C10.5037 17.9999 10.5035 17.9999 10.5032 17.9999C10.503 17.9999 10.5028 17.9999 10.5025 17.9999C10.5023 17.9999 10.5021 17.9999 10.502 17.9999C10.5018 17.9999 10.5016 17.9999 10.5014 17.9999C10.5013 17.9999 10.5011 17.9999 10.501 17.9999C10.5009 17.9999 10.5007 17.9999 10.5006 17.9999C10.5005 17.9999 10.5004 17.9999 10.5004 17.9999C10.5003 17.9999 10.5002 17.9999 10.5002 17.9999C10.5001 17.9999 10.5001 17.9999 10.5 17.9999C10.5 17.9999 10.5 17.9999 10.5 18.9999ZM21.5 13.9999C21.5 12.9935 21.4835 11.238 21.4671 9.73892C21.4588 8.98835 21.4506 8.30037 21.4445 7.80005C21.4414 7.54988 21.4388 7.34661 21.437 7.20585C21.4361 7.13547 21.4354 7.08072 21.4349 7.04355C21.4347 7.02496 21.4345 7.01077 21.4344 7.00122C21.4343 6.99645 21.4343 6.99283 21.4342 6.9904C21.4342 6.98919 21.4342 6.98828 21.4342 6.98766C21.4342 6.98736 21.4342 6.98713 21.4342 6.98697C21.4342 6.98689 21.4342 6.98683 21.4342 6.98679C21.4342 6.98675 21.4342 6.98673 20.4343 6.99988C19.4343 7.01303 19.4343 7.01304 19.4343 7.01308C19.4343 7.01311 19.4343 7.01317 19.4343 7.01324C19.4344 7.01339 19.4344 7.01362 19.4344 7.01392C19.4344 7.01452 19.4344 7.01542 19.4344 7.01662C19.4344 7.01901 19.4345 7.0226 19.4345 7.02735C19.4347 7.03684 19.4348 7.05097 19.4351 7.06949C19.4356 7.10654 19.4363 7.16117 19.4372 7.23141C19.439 7.3719 19.4415 7.57487 19.4446 7.8247C19.4508 8.32439 19.459 9.01141 19.4672 9.76083C19.4836 11.2617 19.5 13.0063 19.5 13.9999H21.5ZM21.2663 7.55458L22.7481 5.33193L21.084 4.22253L19.6022 6.44518L21.2663 7.55458ZM21.5 2.99988H16.4984V4.99988H21.5V2.99988ZM12.4984 6.99988V9.99988H14.4984V6.99988H12.4984ZM13.7079 9.02208C12.5131 8.76603 10.4924 8.38444 8.51619 7.54241C6.53149 6.69676 4.75994 5.45515 3.91037 3.58608L2.08963 4.41368C3.24006 6.94461 5.55105 8.45299 7.73222 9.38235C9.92187 10.3153 12.1504 10.7337 13.2889 10.9777L13.7079 9.02208ZM2.11953 3.52578C0.678212 6.20251 0.888688 11.3044 6.29131 16.707L7.70552 15.2928C2.70814 10.2954 2.98845 6.13058 3.88047 4.47398L2.11953 3.52578ZM6.62692 15.0714L1.62851 17.0714L2.37149 18.9283L7.3699 16.9283L6.62692 15.0714ZM1.29233 18.7064C2.06877 19.4841 4.248 21.1111 7.2254 21.9614L7.77461 20.0383C5.14946 19.2886 3.26245 17.849 2.70767 17.2933L1.29233 18.7064ZM8.0547 21.8319L11.0547 19.8319L9.9453 18.1678L6.9453 20.1678L8.0547 21.8319ZM16.4984 2.99988C14.2893 2.99988 12.4984 4.79074 12.4984 6.99988H14.4984C14.4984 5.89531 15.3938 4.99988 16.4984 4.99988V2.99988ZM22.7481 5.33193C23.4126 4.3351 22.698 2.99988 21.5 2.99988V4.99988C21.1007 4.99988 20.8625 4.55481 21.084 4.22253L22.7481 5.33193ZM16 19.9999C16.7424 19.9999 17.4537 19.7257 18.0652 19.3551C18.6841 18.98 19.2607 18.4705 19.7526 17.9084C20.7021 16.8232 21.5 15.3458 21.5 13.9999H19.5C19.5 14.654 19.0479 15.6766 18.2474 16.5914C17.8643 17.0292 17.4409 17.3948 17.0286 17.6447C16.6088 17.8991 16.2576 17.9999 16 17.9999V19.9999ZM13.7079 9.02208C13.5037 8.97832 13.2392 8.92346 12.9871 8.86976L12.5705 10.8259C12.8527 10.886 13.0718 10.9312 13.2889 10.9777L13.7079 9.02208ZM13.409 9.07138C11.4835 7.50864 9.80515 5.51404 9.59775 3.12612L7.60525 3.29917C7.88484 6.51827 10.1018 8.96308 12.1486 10.6243L13.409 9.07138ZM7.92953 2.47207C6.80256 3.49463 5.85415 5.25461 5.61421 7.61242L7.60393 7.8149C7.80155 5.87295 8.5648 4.59624 9.27347 3.95323L7.92953 2.47207ZM16.4883 7.99988H16.4973V5.99988H16.4883V7.99988Z" fill="black"/>
</svg>
