<svg width="24" height="24" viewBox="0 0 24 24" fill="none" xmlns="http://www.w3.org/2000/svg">
<path d="M21 12L21.9487 12.3162C22.0171 12.111 22.0171 11.8891 21.9487 11.6838L21 12ZM7 9L6.55279 9.89443C6.98505 10.1106 7.51003 9.98663 7.8 9.6L7 9ZM3 7L3.44721 6.10557C3.07587 5.9199 2.62841 5.983 2.32289 6.26412C2.01737 6.54524 1.91733 6.9859 2.07152 7.37139L3 7ZM7 15L7.8 14.4C7.51003 14.0134 6.98505 13.8894 6.55279 14.1056L7 15ZM3 17L2.07152 16.6286C1.91733 17.0141 2.01737 17.4548 2.32289 17.7359C2.62841 18.017 3.07587 18.0801 3.44721 17.8944L3 17ZM5 12L5.92848 12.3714C6.02384 12.133 6.02384 11.867 5.92848 11.6286L5 12ZM15.9922 11C15.4399 11 14.9922 11.4477 14.9922 12C14.9922 12.5523 15.4399 13 15.9922 13V11ZM16.0012 13C16.5535 13 17.0012 12.5523 17.0012 12C17.0012 11.4477 16.5535 11 16.0012 11V13ZM21.9487 11.6838C20.8457 8.37486 17.5267 5 13 5V7C16.4733 7 19.1543 9.62514 20.0513 12.3162L21.9487 11.6838ZM13 5C11.1634 5 9.84111 5.26047 8.75386 5.88176C7.68166 6.49444 6.95008 7.39989 6.2 8.4L7.8 9.6C8.54992 8.60011 9.06834 8.00556 9.74614 7.61824C10.4089 7.23953 11.3366 7 13 7V5ZM7.44721 8.10557L3.44721 6.10557L2.55279 7.89443L6.55279 9.89443L7.44721 8.10557ZM20.0513 11.6838C19.1543 14.3749 16.4733 17 13 17V19C17.5267 19 20.8457 15.6251 21.9487 12.3162L20.0513 11.6838ZM13 17C11.3366 17 10.4089 16.7605 9.74614 16.3818C9.06834 15.9944 8.54992 15.3999 7.8 14.4L6.2 15.6C6.95008 16.6001 7.68166 17.5056 8.75386 18.1182C9.84111 18.7395 11.1634 19 13 19V17ZM6.55279 14.1056L2.55279 16.1056L3.44721 17.8944L7.44721 15.8944L6.55279 14.1056ZM2.07152 7.37139L4.07152 12.3714L5.92848 11.6286L3.92848 6.62861L2.07152 7.37139ZM4.07152 11.6286L2.07152 16.6286L3.92848 17.3714L5.92848 12.3714L4.07152 11.6286ZM15.9922 13H16.0012V11H15.9922V13Z" fill="black"/>
<path opacity="0.14" d="M13 6C17 6 20 9 21 12C20 15 17 18 13 18C9.5 18 8.5 17 7 15L3 17L5 12L3 7L7 9C8.5 7 9.5 6 13 6Z" fill="black"/>
</svg>
