<svg width="24" height="24" viewBox="0 0 24 24" fill="none" xmlns="http://www.w3.org/2000/svg">
<path opacity="0.14" d="M12.5 17H10.9011C11.5467 17 12.1243 16.7222 12.5093 16.2852L16.5 14.5L19.303 13.2542C20.3349 12.7956 21 11.7722 21 10.6429C21 9.62569 20.4593 8.68516 19.5802 8.17335L18.204 7.37212C18.0732 7.29596 18 7.15138 18 7C18 5.34315 16.6569 4 15 4C13.3582 4 12.0244 5.31892 12.0003 6.95504C12 6.97977 11.98 7 11.9552 7C7.00939 6.99999 3 11.0094 3 15.9552V17.4C3 18.8359 4.16406 20 5.6 20H12.5C13.3284 20 14 19.3284 14 18.5C14 17.6716 13.3284 17 12.5 17Z" fill="black"/>
<path d="M10.9011 16C10.3488 16 9.90105 16.4477 9.90105 17C9.90105 17.5523 10.3488 18 10.9011 18V16ZM19.303 13.2542L19.7091 14.168L19.303 13.2542ZM16.5 14.5L16.0939 13.5862C15.8502 13.6945 15.6598 13.8956 15.5652 14.1449C15.4705 14.3942 15.4793 14.671 15.5896 14.9138L16.5 14.5ZM19 20L18.0896 20.4138C18.2519 20.7708 18.6079 21 19 21L19 20ZM21 21C21.5523 21 22 20.5523 22 20C22 19.4477 21.5523 19 21 19L21 21ZM12.0003 6.95504L13.0002 6.96973V6.96973L12.0003 6.95504ZM18.204 7.37212L17.7009 8.23632L17.7009 8.23632L18.204 7.37212ZM19.5802 8.17335L19.077 9.03755L19.5802 8.17335ZM11.9552 7L11.9552 8H11.9552V7ZM11.4142 13.0602L11.1813 14.0327L11.4142 13.0602ZM10.3934 12.9503L10.5172 13.9426L10.5172 13.9426L10.3934 12.9503ZM6.8753 13.7191C6.44404 14.0641 6.37412 14.6934 6.71913 15.1247C7.06414 15.5559 7.69343 15.6259 8.1247 15.2808L6.8753 13.7191ZM15 6C14.4477 6 14 6.44772 14 7C14 7.55228 14.4477 8 15 8V6ZM15.009 8C15.5613 8 16.009 7.55228 16.009 7C16.009 6.44772 15.5613 6 15.009 6V8ZM10.9011 18H12.5V16H10.9011V18ZM12.5 19H5.6V21H12.5V19ZM4 17.4V15.9552H2V17.4H4ZM18.8968 12.3404L16.0939 13.5862L16.9061 15.4138L19.7091 14.168L18.8968 12.3404ZM15.5896 14.9138L18.0896 20.4138L19.9104 19.5862L17.4104 14.0862L15.5896 14.9138ZM19 21L21 21L21 19L19 19L19 21ZM13.0002 6.96973C13.0162 5.87929 13.9055 5 15 5V3C12.8108 3 11.0325 4.75854 11.0004 6.94035L13.0002 6.96973ZM15 5C16.1046 5 17 5.89543 17 7H19C19 4.79086 17.2091 3 15 3V5ZM17.7009 8.23632L19.077 9.03755L20.0834 7.30915L18.7072 6.50792L17.7009 8.23632ZM20 10.6429C20 11.377 19.5677 12.0423 18.8968 12.3404L19.7091 14.168C21.1022 13.5489 22 12.1674 22 10.6429H20ZM17 7C17 7.46116 17.2245 7.95897 17.7009 8.23632L18.7072 6.50793C18.9219 6.63295 19 6.84159 19 7H17ZM22 10.6429C22 9.26972 21.27 8.00007 20.0834 7.30915L19.077 9.03755C19.6485 9.37025 20 9.98165 20 10.6429H22ZM4 15.9552C4 11.5617 7.56168 7.99999 11.9552 8L11.9552 6C6.45711 5.99999 2 10.4571 2 15.9552H4ZM11.0004 6.94035C11.0079 6.43343 11.4187 6 11.9552 6V8C12.5412 8 12.992 7.5261 13.0002 6.96973L11.0004 6.94035ZM5.6 19C4.71634 19 4 18.2836 4 17.4H2C2 19.3882 3.61177 21 5.6 21V19ZM13 18.5C13 18.7761 12.7761 19 12.5 19V21C13.8807 21 15 19.8807 15 18.5H13ZM12.5 18C12.7761 18 13 18.2238 13 18.5H15C15 17.1193 13.8807 16 12.5 16V18ZM12 15C12 15.5073 11.554 16 10.9011 16V18C12.5665 18 14 16.7018 14 15H12ZM11.1813 14.0327C11.6837 14.153 12 14.5676 12 15H14C14 13.5605 12.967 12.4037 11.647 12.0876L11.1813 14.0327ZM10.2695 11.958C9.45283 12.0599 8.32688 12.5578 6.8753 13.7191L8.1247 15.2808C9.44193 14.2271 10.223 13.9793 10.5172 13.9426L10.2695 11.958ZM11.647 12.0876C11.3224 12.0099 10.8069 11.8909 10.2695 11.958L10.5172 13.9426C10.6537 13.9256 10.8454 13.9523 11.1813 14.0327L11.647 12.0876ZM15 8H15.009V6H15V8Z" fill="black"/>
</svg>
