<svg width="24" height="24" viewBox="0 0 24 24" fill="none" xmlns="http://www.w3.org/2000/svg">
<g opacity="0.14">
<path d="M18 14H17.5L22 20V10C22 12.2091 20.2091 14 18 14Z" fill="black"/>
<path d="M8 16H8.70813C9.56154 16 10.4071 15.8372 11.1995 15.5202L13.8076 14.4769C14.5953 14.1619 15.4359 14 16.2842 14H17.5H18C20.2091 14 22 12.2091 22 10C22 7.79086 20.2091 6 18 6H16.2842C15.4359 6 14.5953 5.83812 13.8076 5.52305L11.1995 4.47979C10.4071 4.16284 9.56154 4 8.70813 4H8C4.68629 4 2 6.68629 2 10C2 13.3137 4.68629 16 8 16Z" fill="black"/>
<path d="M13.8076 14.4769L14.179 15.4054H14.179L13.8076 14.4769ZM11.1995 15.5202L11.5709 16.4487V16.4487L11.1995 15.5202ZM11.1995 4.47979L11.5709 3.55131V3.55131L11.1995 4.47979ZM13.8076 5.52305L13.4362 6.45153V6.45153L13.8076 5.52305ZM22 20L21.2 20.6C21.4583 20.9443 21.9079 21.0848 22.3162 20.9487C22.7246 20.8126 23 20.4304 23 20H22ZM18 9C17.4477 9 17 9.44772 17 10C17 10.5523 17.4477 11 18 11V9ZM18.009 11C18.5613 11 19.009 10.5523 19.009 10C19.009 9.44772 18.5613 9 18.009 9V11ZM8.70813 15H8V17H8.70813V15ZM18 13H16.2842V15H18V13ZM13.4362 13.5485L10.8281 14.5917L11.5709 16.4487L14.179 15.4054L13.4362 13.5485ZM8 5H8.70813V3H8V5ZM10.8281 5.40826L13.4362 6.45153L14.179 4.59458L11.5709 3.55131L10.8281 5.40826ZM16.2842 7H18V5H16.2842V7ZM13.4362 6.45153C14.342 6.81385 15.3086 7 16.2842 7V5C15.5631 5 14.8486 4.8624 14.179 4.59458L13.4362 6.45153ZM8.70813 5C9.43432 5 10.1538 5.13857 10.8281 5.40826L11.5709 3.55131C10.6604 3.18712 9.68876 3 8.70813 3V5ZM16.2842 13C15.3086 13 14.342 13.1862 13.4362 13.5485L14.179 15.4054C14.8486 15.1376 15.5631 15 16.2842 15V13ZM8.70813 17C9.68876 17 10.6604 16.8129 11.5709 16.4487L10.8281 14.5917C10.1538 14.8614 9.43432 15 8.70813 15V17ZM21 10C21 11.6569 19.6569 13 18 13V15C20.7614 15 23 12.7614 23 10H21ZM23 10C23 7.23858 20.7614 5 18 5V7C19.6569 7 21 8.34315 21 10H23ZM3 10C3 7.23858 5.23858 5 8 5V3C4.13401 3 1 6.13401 1 10H3ZM1 10C1 13.866 4.13401 17 8 17V15C5.23858 15 3 12.7614 3 10H1ZM21 10V20H23V10H21ZM22.8 19.4L18.3 13.4L16.7 14.6L21.2 20.6L22.8 19.4ZM18 11H18.009V9H18V11ZM18 13H17.5V15H18V13ZM16.2842 15H17.5V13H16.2842V15Z" fill="black"/>
</g>
<path d="M13.8076 14.4769L14.179 15.4054H14.179L13.8076 14.4769ZM11.1995 15.5202L11.5709 16.4487V16.4487L11.1995 15.5202ZM11.1995 4.47979L11.5709 3.55131V3.55131L11.1995 4.47979ZM13.8076 5.52305L13.4362 6.45153V6.45153L13.8076 5.52305ZM7 16C7 15.4477 6.55228 15 6 15C5.44772 15 5 15.4477 5 16H7ZM5 20C5 20.5523 5.44772 21 6 21C6.55228 21 7 20.5523 7 20H5ZM9 20C9 20.5523 9.44772 21 10 21C10.5523 21 11 20.5523 11 20H9ZM11 16C11 15.4477 10.5523 15 10 15C9.44772 15 9 15.4477 9 16H11ZM22 20L21.2 20.6C21.4583 20.9443 21.9079 21.0848 22.3162 20.9487C22.7246 20.8126 23 20.4304 23 20H22ZM18.3 13.4C17.9686 12.9582 17.3418 12.8686 16.9 13.2C16.4582 13.5314 16.3686 14.1582 16.7 14.6L18.3 13.4ZM18 9C17.4477 9 17 9.44772 17 10C17 10.5523 17.4477 11 18 11V9ZM18.009 11C18.5613 11 19.009 10.5523 19.009 10C19.009 9.44772 18.5613 9 18.009 9V11ZM8.70813 15H8V17H8.70813V15ZM18 13H16.2842V15H18V13ZM13.4362 13.5485L10.8281 14.5917L11.5709 16.4487L14.179 15.4054L13.4362 13.5485ZM8 5H8.70813V3H8V5ZM10.8281 5.40826L13.4362 6.45153L14.179 4.59458L11.5709 3.55131L10.8281 5.40826ZM16.2842 7H18V5H16.2842V7ZM13.4362 6.45153C14.342 6.81385 15.3086 7 16.2842 7V5C15.5631 5 14.8486 4.8624 14.179 4.59458L13.4362 6.45153ZM8.70813 5C9.43432 5 10.1538 5.13857 10.8281 5.40826L11.5709 3.55131C10.6604 3.18712 9.68876 3 8.70813 3V5ZM16.2842 13C15.3086 13 14.342 13.1862 13.4362 13.5485L14.179 15.4054C14.8486 15.1376 15.5631 15 16.2842 15V13ZM8.70813 17C9.68876 17 10.6604 16.8129 11.5709 16.4487L10.8281 14.5917C10.1538 14.8614 9.43432 15 8.70813 15V17ZM21 10C21 11.6569 19.6569 13 18 13V15C20.7614 15 23 12.7614 23 10H21ZM23 10C23 7.23858 20.7614 5 18 5V7C19.6569 7 21 8.34315 21 10H23ZM3 10C3 7.23858 5.23858 5 8 5V3C4.13401 3 1 6.13401 1 10H3ZM1 10C1 13.866 4.13401 17 8 17V15C5.23858 15 3 12.7614 3 10H1ZM5 16V20H7V16H5ZM11 20V16H9V20H11ZM21 10V20H23V10H21ZM22.8 19.4L18.3 13.4L16.7 14.6L21.2 20.6L22.8 19.4ZM18 11H18.009V9H18V11Z" fill="black"/>
</svg>
