<svg width="24" height="24" viewBox="0 0 24 24" fill="none" xmlns="http://www.w3.org/2000/svg">
<path opacity="0.14" d="M12.1813 17H18.5C20.433 17 22 15.433 22 13.5C22 11.567 20.433 10 18.5 10H6.36267H4.36267C3.0578 10 2 11.0578 2 12.3627C2 13.3475 2.61092 14.2291 3.53308 14.5749L11.8302 16.9363C11.9425 16.9784 12.0614 17 12.1813 17Z" fill="black"/>
<path d="M11.8302 16.9363L12.1813 16C12.1559 15.9905 12.1301 15.982 12.1039 15.9745L11.8302 16.9363ZM3.53308 14.5749L3.18196 15.5112C3.2074 15.5208 3.23321 15.5293 3.25934 15.5367L3.53308 14.5749ZM1.10557 19.5528C0.858584 20.0468 1.05881 20.6474 1.55279 20.8944C2.04676 21.1414 2.64744 20.9412 2.89443 20.4472L1.10557 19.5528ZM9 6L9.86824 5.50386C9.68527 5.18366 9.34091 4.99015 8.97225 5.00038C8.6036 5.01062 8.2705 5.22293 8.10557 5.55279L9 6ZM10.4175 10.4961C10.6915 10.9757 11.3023 11.1423 11.7819 10.8682C12.2614 10.5942 12.428 9.98338 12.154 9.50386L10.4175 10.4961ZM13 6L13.8682 5.50386C13.6853 5.18366 13.3409 4.99015 12.9723 5.00038C12.6036 5.01062 12.2705 5.22293 12.1056 5.55279L13 6ZM14.4175 10.4961C14.6915 10.9757 15.3023 11.1423 15.7819 10.8682C16.2614 10.5942 16.428 9.98338 16.154 9.50386L14.4175 10.4961ZM10.1056 9.55279C9.85858 10.0468 10.0588 10.6474 10.5528 10.8944C11.0468 11.1414 11.6474 10.9412 11.8944 10.4472L10.1056 9.55279ZM20.1091 16.4253C19.8351 15.9458 19.2242 15.7792 18.7447 16.0532C18.2652 16.3272 18.0986 16.9381 18.3726 17.4176L20.1091 16.4253ZM20.1318 20.4961C20.4058 20.9757 21.0166 21.1423 21.4961 20.8682C21.9757 20.5942 22.1423 19.9834 21.8682 19.5039L20.1318 20.4961ZM5.10557 19.5528C4.85858 20.0468 5.05881 20.6474 5.55279 20.8944C6.04676 21.1414 6.64744 20.9412 6.89443 20.4472L5.10557 19.5528ZM8.96149 16.3131C9.20848 15.8191 9.00825 15.2184 8.51428 14.9714C8.0203 14.7245 7.41962 14.9247 7.17263 15.4187L8.96149 16.3131ZM9.10557 19.5529C8.85858 20.0469 9.05881 20.6476 9.55279 20.8945C10.0468 21.1415 10.6474 20.9413 10.8944 20.4473L9.10557 19.5529ZM12.4632 17.3098C12.7102 16.8158 12.51 16.2151 12.016 15.9681C11.522 15.7211 10.9213 15.9214 10.6744 16.4153L12.4632 17.3098ZM14 3C13.4477 3 13 3.44772 13 4C13 4.55228 13.4477 5 14 5V3ZM18.5 12.5C17.9477 12.5 17.5 12.9477 17.5 13.5C17.5 14.0523 17.9477 14.5 18.5 14.5V12.5ZM18.509 14.5C19.0613 14.5 19.509 14.0523 19.509 13.5C19.509 12.9477 19.0613 12.5 18.509 12.5V14.5ZM12.1813 18H18.5V16H12.1813V18ZM12.1039 15.9745L3.80682 13.6131L3.25934 15.5367L11.5565 17.8981L12.1039 15.9745ZM4.36267 11H18.5V9H4.36267V11ZM18.5 11C19.8807 11 21 12.1193 21 13.5H23C23 11.0147 20.9853 9 18.5 9V11ZM3 12.3627C3 11.6101 3.61009 11 4.36267 11V9C2.50552 9 1 10.5055 1 12.3627H3ZM3.8842 13.6386C3.35235 13.4391 3 12.9307 3 12.3627H1C1 13.7644 1.86949 15.0191 3.18196 15.5112L3.8842 13.6386ZM18.5 18C20.9853 18 23 15.9853 23 13.5H21C21 14.8807 19.8807 16 18.5 16V18ZM12.1813 16V16L11.4791 17.8727C11.7036 17.9569 11.9415 18 12.1813 18V16ZM2.89443 20.4472L9.89443 6.44721L8.10557 5.55279L1.10557 19.5528L2.89443 20.4472ZM8.13176 6.49614L10.4175 10.4961L12.154 9.50386L9.86824 5.50386L8.13176 6.49614ZM12.1318 6.49614L14.4175 10.4961L16.154 9.50386L13.8682 5.50386L12.1318 6.49614ZM11.8944 10.4472L13.8944 6.44721L12.1056 5.55279L10.1056 9.55279L11.8944 10.4472ZM18.3726 17.4176L20.1318 20.4961L21.8682 19.5039L20.1091 16.4253L18.3726 17.4176ZM6.89443 20.4472L8.96149 16.3131L7.17263 15.4187L5.10557 19.5528L6.89443 20.4472ZM10.8944 20.4473L12.4632 17.3098L10.6744 16.4153L9.10557 19.5529L10.8944 20.4473ZM23 13.5V10H21V13.5H23ZM16 3H14V5H16V3ZM23 10C23 6.13401 19.866 3 16 3V5C18.7614 5 21 7.23858 21 10H23ZM18.5 14.5H18.509V12.5H18.5V14.5Z" fill="black"/>
</svg>
