<svg width="24" height="24" viewBox="0 0 24 24" fill="none" xmlns="http://www.w3.org/2000/svg">
<g opacity="0.14">
<path d="M13.5 10.5V16.5C13.5 17.3284 12.8284 18 12 18C11.1716 18 10.5 17.3284 10.5 16.5V10.5C10.5 9.67157 11.1716 9 12 9C12.8284 9 13.5 9.67157 13.5 10.5Z" fill="black"/>
<path d="M6.47505 15.5148L8.89925 13.699C9.90686 12.9443 10.5 11.7589 10.5 10.5L4.64118 11.7985C3.19737 12.1382 2.53596 13.8143 3.35872 15.0484C4.05575 16.094 5.5025 16.3105 6.47505 15.5148Z" fill="black"/>
<path d="M13.5 10.7015C13.5 11.8336 14.0334 12.8995 14.9395 13.5782L17.5249 15.5148C18.4975 16.3105 19.9442 16.094 20.6413 15.0484C21.464 13.8143 20.8026 12.1382 19.3588 11.7985L13.5 10.5V10.7015Z" fill="black"/>
</g>
<path d="M10.5 10.5V16.5C10.5 17.3284 11.1716 18 12 18C12.8284 18 13.5 17.3284 13.5 16.5V10.5M10.5 10.5C10.5 9.67157 11.1716 9 12 9M10.5 10.5L7 8L8.5 5L6 3M10.5 10.5L4.64118 11.7985C3.19737 12.1382 2.53596 13.8143 3.35872 15.0484C4.05575 16.094 5.5025 16.3105 6.47505 15.5148L10.5 12.5M13.5 10.5C13.5 9.67157 12.8284 9 12 9M13.5 10.5L17 8L15.5 5L18 3M13.5 10.5L19.3588 11.7985C20.8026 12.1382 21.464 13.8143 20.6413 15.0484C19.9442 16.094 18.4975 16.3105 17.5249 15.5148L13.5 12.5M12 9V6M10.5 16L8.5 18V20L7 21M13.5 16L15.5 18V20L17 21" stroke="black" stroke-width="2" stroke-linecap="round" stroke-linejoin="round"/>
</svg>
