<svg width="24" height="24" viewBox="0 0 24 24" fill="none" xmlns="http://www.w3.org/2000/svg">
<path opacity="0.14" d="M16.5 12L14.9537 15.123L16.2695 15.6869C16.7127 15.8769 17 16.3126 17 16.7947C17 17.4604 16.4604 18 15.7947 18H9.33333C7.49238 18 6 16.5076 6 14.6667C6 10.9848 8.98477 8 12.6667 8H14C12.3431 8 11 6.65685 11 5C11 3.34315 12.3431 2 14 2C14.5464 2 15.0587 2.14609 15.5 2.40135C15.9413 2.14609 16.4536 2 17 2C18.6569 2 20 3.34315 20 5C20 5.81438 19.6755 6.55297 19.1488 7.09352C20.2604 7.7874 21 9.02161 21 10.4286C21 11.2964 20.2964 12 19.4286 12H16.5Z" fill="black"/>
<path d="M14.0575 14.6793C13.8125 15.1742 14.015 15.7741 14.51 16.0192C15.0049 16.2642 15.6048 16.0617 15.8498 15.5667L14.0575 14.6793ZM16.5 12V11C16.1198 11 15.7725 11.2156 15.6038 11.5563L16.5 12ZM14 9C14.5523 9 15 8.55228 15 8C15 7.44772 14.5523 7 14 7V9ZM19.1488 7.09352L18.6192 7.94183V7.94183L19.1488 7.09352ZM15.5 2.40135L14.9993 3.26695V3.26695L15.5 2.40135ZM16.2695 15.6869L16.6634 14.7678H16.6634L16.2695 15.6869ZM13.8939 13.5809C13.3863 13.3633 12.7984 13.5985 12.5809 14.1061C12.3633 14.6137 12.5985 15.2016 13.1061 15.4191L13.8939 13.5809ZM20 23C20.5523 23 21 22.5523 21 22C21 21.4477 20.5523 21 20 21V23ZM17.4922 8.5C16.9399 8.5 16.4922 8.94772 16.4922 9.5C16.4922 10.0523 16.9399 10.5 17.4922 10.5V8.5ZM17.5012 10.5C18.0535 10.5 18.5012 10.0523 18.5012 9.5C18.5012 8.94772 18.0535 8.5 17.5012 8.5V10.5ZM14 4.5C13.4477 4.5 13 4.94772 13 5.5C13 6.05228 13.4477 6.5 14 6.5V4.5ZM14.5 5.5V6.5C15.0523 6.5 15.5 6.05228 15.5 5.5H14.5ZM15.5 5C15.5 4.44772 15.0523 4 14.5 4C13.9477 4 13.5 4.44772 13.5 5H15.5ZM15.8498 15.5667L17.3962 12.4437L15.6038 11.5563L14.0575 14.6793L15.8498 15.5667ZM16.5 13H19.4286V11H16.5V13ZM19.4286 13C20.8487 13 22 11.8487 22 10.4286H20C20 10.7442 19.7442 11 19.4286 11V13ZM14 7C12.8954 7 12 6.10457 12 5H10C10 7.20914 11.7909 9 14 9V7ZM12 5C12 3.89543 12.8954 3 14 3V1C11.7909 1 10 2.79086 10 5H12ZM18 6.42857V5H16V6.42857H18ZM22 10.4286C22 8.66237 21.0703 7.1141 19.6783 6.24522L18.6192 7.94183C19.4505 8.4607 20 9.38086 20 10.4286H22ZM19.6783 6.24522C18.9214 5.77281 18.0268 5.5 17.0714 5.5V7.5C17.6416 7.5 18.1708 7.66192 18.6192 7.94183L19.6783 6.24522ZM14 3C14.3659 3 14.7061 3.09737 14.9993 3.26695L16.0007 1.53574C15.4114 1.19481 14.7269 1 14 1V3ZM14.9993 3.26695C15.5997 3.61427 16 4.26098 16 5H18C18 3.51818 17.1937 2.22585 16.0007 1.53574L14.9993 3.26695ZM17.0714 5.5C17.5843 5.5 18 5.91574 18 6.42857H16C16 7.02031 16.4797 7.5 17.0714 7.5V5.5ZM16.6634 14.7678L13.8939 13.5809L13.1061 15.4191L15.8756 16.6061L16.6634 14.7678ZM18 16.7947C18 15.9126 17.4743 15.1153 16.6634 14.7678L15.8756 16.6061C15.9511 16.6384 16 16.7126 16 16.7947H18ZM15.7947 19C17.0127 19 18 18.0127 18 16.7947H16C16 16.9081 15.9081 17 15.7947 17V19ZM12.6667 9H14V7H12.6667V9ZM9.33333 19H15.7947V17H9.33333V19ZM7 14.6667C7 11.5371 9.53705 9 12.6667 9V7C8.43248 7 5 10.4325 5 14.6667H7ZM5 14.6667C5 17.0599 6.9401 19 9.33333 19V17C8.04467 17 7 15.9553 7 14.6667H5ZM20 21H5V23H20V21ZM4 20C4 19.4477 4.44772 19 5 19V17C3.34315 17 2 18.3431 2 20H4ZM5 21C4.44772 21 4 20.5523 4 20H2C2 21.6569 3.34315 23 5 23V21ZM17 3C18.1046 3 19 3.89543 19 5H21C21 2.79086 19.2091 1 17 1V3ZM19 5C19 5.54328 18.7847 6.03425 18.4326 6.39563L19.865 7.79142C20.5663 7.07168 21 6.08548 21 5H19ZM16.0007 3.26695C16.2939 3.09737 16.6341 3 17 3V1C16.2731 1 15.5886 1.19481 14.9993 1.53574L16.0007 3.26695ZM17.4922 10.5H17.5012V8.5H17.4922V10.5ZM14 6.5H14.5V4.5H14V6.5ZM15.5 5.5V5H13.5V5.5H15.5ZM15.7947 17H5V19H15.7947V17Z" fill="black"/>
</svg>
