<svg width="24" height="24" viewBox="0 0 24 24" fill="none" xmlns="http://www.w3.org/2000/svg">
<g opacity="0.14">
<path d="M16.9845 20.9101L13.6292 19.7881C12.5717 19.4345 11.4283 19.4345 10.3708 19.7881L7.01547 20.9101C6.29581 21.1508 5.50291 20.9159 5.02903 20.3216C4.29423 19.4002 4.32834 18.0816 5.1098 17.1997L8.53448 13.3346C10.3789 11.253 13.6211 11.253 15.4655 13.3346L18.8902 17.1997C19.6717 18.0816 19.7058 19.4002 18.971 20.3216C18.4971 20.9159 17.7042 21.1508 16.9845 20.9101Z" fill="black"/>
<path d="M4.93848 9.73206C5.49076 10.6886 5.35688 11.7999 4.63944 12.2141C3.922 12.6283 2.89269 12.1886 2.3404 11.2321C1.78812 10.2755 1.922 9.16422 2.63944 8.75C3.35688 8.33579 4.38619 8.77547 4.93848 9.73206Z" fill="black"/>
<path d="M19.0592 9.73206C18.5069 10.6886 18.6408 11.7999 19.3582 12.2141C20.0756 12.6283 21.1049 12.1886 21.6572 11.2321C22.2095 10.2755 22.0756 9.16422 21.3582 8.75C20.6408 8.33579 19.6114 8.77547 19.0592 9.73206Z" fill="black"/>
<path d="M10.0584 4.89207C10.5306 6.18952 10.2824 7.471 9.5039 7.75434C8.72543 8.03767 7.71154 7.21558 7.23931 5.91813C6.76708 4.62069 7.01533 3.33921 7.7938 3.05587C8.57227 2.77253 9.58616 3.59463 10.0584 4.89207Z" fill="black"/>
<path d="M13.7393 4.89207C13.2671 6.18952 13.5153 7.471 14.2938 7.75434C15.0723 8.03767 16.0862 7.21558 16.5584 5.91813C17.0306 4.62069 16.7824 3.33921 16.0039 3.05587C15.2254 2.77253 14.2115 3.59463 13.7393 4.89207Z" fill="black"/>
</g>
<path d="M16.9845 20.9101L13.6292 19.7881C12.5717 19.4345 11.4283 19.4345 10.3708 19.7881L7.01547 20.9101C6.29581 21.1508 5.50291 20.9159 5.02903 20.3216C4.29423 19.4002 4.32834 18.0816 5.1098 17.1997L8.53448 13.3346C10.3789 11.253 13.6211 11.253 15.4655 13.3346L18.8902 17.1997C19.6717 18.0816 19.7058 19.4002 18.971 20.3216C18.4971 20.9159 17.7042 21.1508 16.9845 20.9101Z" stroke="black" stroke-width="2"/>
<path d="M4.93848 9.73206C5.49076 10.6886 5.35688 11.7999 4.63944 12.2141C3.922 12.6283 2.89269 12.1886 2.3404 11.2321C1.78812 10.2755 1.922 9.16422 2.63944 8.75C3.35688 8.33579 4.38619 8.77547 4.93848 9.73206Z" stroke="black" stroke-width="2"/>
<path d="M19.0592 9.73206C18.5069 10.6886 18.6408 11.7999 19.3582 12.2141C20.0756 12.6283 21.1049 12.1886 21.6572 11.2321C22.2095 10.2755 22.0756 9.16422 21.3582 8.75C20.6408 8.33579 19.6114 8.77547 19.0592 9.73206Z" stroke="black" stroke-width="2"/>
<path d="M10.0584 4.89207C10.5306 6.18952 10.2824 7.471 9.5039 7.75434C8.72543 8.03767 7.71154 7.21558 7.23931 5.91813C6.76708 4.62069 7.01533 3.33921 7.7938 3.05587C8.57227 2.77253 9.58616 3.59463 10.0584 4.89207Z" stroke="black" stroke-width="2"/>
<path d="M13.7393 4.89207C13.2671 6.18952 13.5153 7.471 14.2938 7.75434C15.0723 8.03767 16.0862 7.21558 16.5584 5.91813C17.0306 4.62069 16.7824 3.33921 16.0039 3.05587C15.2254 2.77253 14.2115 3.59463 13.7393 4.89207Z" stroke="black" stroke-width="2"/>
</svg>
