<svg width="24" height="24" viewBox="0 0 24 24" fill="none" xmlns="http://www.w3.org/2000/svg">
<path opacity="0.14" d="M14.5 17H10.5V19.5H8L6 14.7141C5.07673 13.8476 4.5 12.6161 4.5 11.25C4.5 8.62665 6.62665 6.5 9.25 6.5H14C14.5 6 15.9 4.9 17.5 4.5C17.6347 4.76937 17.8075 5.19656 17.9392 5.68921C18.1334 6.41583 18.2384 7.28486 18 8C18.5327 8.26634 18.9235 8.67455 19.248 9.14905C19.5214 9.54893 19.7478 9.9959 19.9724 10.4447C19.9893 10.4786 20.0239 10.5 20.0618 10.5H21C21.5523 10.5 22 10.9477 22 11.5V13.5C22 14.0523 21.5523 14.5 21 14.5H20.0618C20.0239 14.5 19.9892 14.5217 19.972 14.5554C19.4812 15.5187 18.9813 16.0093 18 16.5L17 19.5H14.5V17Z" fill="black"/>
<path d="M10.5 17V16C9.94772 16 9.5 16.4477 9.5 17H10.5ZM14.5 17H15.5C15.5 16.4477 15.0523 16 14.5 16V17ZM14.5 19.5H13.5C13.5 20.0523 13.9477 20.5 14.5 20.5V19.5ZM17 19.5V20.5C17.4304 20.5 17.8126 20.2246 17.9487 19.8162L17 19.5ZM18 16.5L17.5528 15.6056C17.3156 15.7242 17.1352 15.9322 17.0513 16.1838L18 16.5ZM10.5 19.5V20.5C11.0523 20.5 11.5 20.0523 11.5 19.5H10.5ZM8 19.5L7.07733 19.8856C7.23284 20.2577 7.59668 20.5 8 20.5V19.5ZM6 14.7141L6.92267 14.3285C6.86833 14.1985 6.78712 14.0814 6.68435 13.985L6 14.7141ZM14 6.5V7.5C14.2652 7.5 14.5196 7.39464 14.7071 7.20711L14 6.5ZM17.5 4.5L18.3944 4.05279C18.1848 3.63357 17.7122 3.41618 17.2575 3.52986L17.5 4.5ZM18 8L17.0513 7.68377C16.8939 8.15588 17.1077 8.67187 17.5528 8.89443L18 8ZM19.9724 10.4447L20.8667 9.99733L20.8667 9.99732L19.9724 10.4447ZM19.972 14.5554L20.863 15.0095L20.863 15.0095L19.972 14.5554ZM19.1556 8.03469C18.6576 8.27349 18.4475 8.87077 18.6863 9.36876C18.9251 9.86675 19.5224 10.0769 20.0204 9.83808L19.1556 8.03469ZM21.4716 6.18841L20.4776 6.07929V6.07929L21.4716 6.18841ZM17.9375 4.68921C17.3852 4.68921 16.9375 5.13692 16.9375 5.68921C16.9375 6.24149 17.3852 6.68921 17.9375 6.68921V4.68921ZM4.4996 12.5C5.05188 12.5 5.4996 12.0523 5.4996 11.5C5.4996 10.9477 5.05188 10.5 4.4996 10.5V12.5ZM2 10L1 9.9996V9.9996L2 10ZM2.99821 9.5C3.55049 9.5 3.99821 9.05228 3.99821 8.5C3.99821 7.94772 3.55049 7.5 2.99821 7.5V9.5ZM17 10.5C16.4477 10.5 16 10.9477 16 11.5C16 12.0523 16.4477 12.5 17 12.5V10.5ZM17.009 12.5C17.5613 12.5 18.009 12.0523 18.009 11.5C18.009 10.9477 17.5613 10.5 17.009 10.5V12.5ZM10.5 18H14.5V16H10.5V18ZM13.5 17V19.5H15.5V17H13.5ZM14.5 20.5H17V18.5H14.5V20.5ZM17.9487 19.8162L18.9487 16.8162L17.0513 16.1838L16.0513 19.1838L17.9487 19.8162ZM20.0618 15.5H21V13.5H20.0618V15.5ZM23 13.5V11.5H21V13.5H23ZM21 9.5H20.0618V11.5H21V9.5ZM9.5 17V19.5H11.5V17H9.5ZM10.5 18.5H8V20.5H10.5V18.5ZM8.92267 19.1144L6.92267 14.3285L5.07733 15.0997L7.07733 19.8856L8.92267 19.1144ZM9.25 7.5H14V5.5H9.25V7.5ZM5.5 11.25C5.5 9.17893 7.17893 7.5 9.25 7.5V5.5C6.07436 5.5 3.5 8.07436 3.5 11.25H5.5ZM3.5 11.25C3.5 12.9037 4.19939 14.3956 5.31565 15.4433L6.68435 13.985C5.95407 13.2996 5.5 12.3286 5.5 11.25H3.5ZM14.7071 7.20711C15.131 6.78323 16.3782 5.81123 17.7425 5.47014L17.2575 3.52986C15.4218 3.98877 13.869 5.21677 13.2929 5.79289L14.7071 7.20711ZM16.6056 4.94721C16.7367 5.20946 16.9315 5.70284 17.0459 6.25345C17.1637 6.82016 17.1706 7.32582 17.0513 7.68377L18.9487 8.31623C19.2294 7.47418 19.153 6.56317 19.0041 5.84655C18.8518 5.11382 18.5966 4.45721 18.3944 4.05279L16.6056 4.94721ZM20.8667 9.99732C20.4025 9.06945 19.7738 7.76888 18.4472 7.10557L17.5528 8.89443C18.1893 9.21269 18.5603 9.85718 19.078 10.8921L20.8667 9.99732ZM18.4472 17.3944C18.9968 17.1196 19.4645 16.8185 19.8718 16.4173C20.2799 16.0152 20.5857 15.5537 20.863 15.0095L19.081 14.1014C18.8675 14.5204 18.678 14.7858 18.4681 14.9926C18.2575 15.2001 17.9845 15.3897 17.5528 15.6056L18.4472 17.3944ZM20.0618 9.5C20.4028 9.5 20.7143 9.69269 20.8667 9.99733L19.078 10.8921C19.2643 11.2645 19.645 11.5 20.0618 11.5V9.5ZM23 11.5C23 10.3954 22.1046 9.5 21 9.5V11.5H23ZM21 15.5C22.1046 15.5 23 14.6046 23 13.5H21V15.5ZM20.0618 13.5C19.6402 13.5 19.2654 13.7396 19.081 14.1014L20.863 15.0095C20.713 15.3038 20.4077 15.5 20.0618 15.5V13.5ZM20.0204 9.83808C21.097 9.32183 22.257 8.1986 22.4656 6.29752L20.4776 6.07929C20.3573 7.17472 19.7249 7.76173 19.1556 8.03469L20.0204 9.83808ZM20.9983 4.68921H17.9375V6.68921H20.9983V4.68921ZM22.4656 6.29752C22.569 5.35629 21.792 4.68921 20.9983 4.68921V6.68921C20.7568 6.68921 20.4345 6.47153 20.4776 6.07929L22.4656 6.29752ZM4.4996 10.5H2.9996V12.5H4.4996V10.5ZM2.9996 10.5C3.12009 10.5 3.1985 10.5268 3.21689 10.5333C3.24417 10.5429 3.25389 10.5495 3.24795 10.546C3.236 10.5389 3.20018 10.514 3.15863 10.4665C3.0826 10.3796 2.99991 10.2336 3 10.0004L1 9.9996C0.999692 10.7664 1.292 11.3704 1.65347 11.7835C1.83067 11.986 2.02923 12.1486 2.22816 12.2665C2.39294 12.3642 2.6726 12.5 2.9996 12.5V10.5ZM3 10.0004C3.00009 9.7667 3.08301 9.62018 3.15916 9.53304C3.20076 9.48544 3.23656 9.46047 3.2484 9.45344C3.2543 9.44993 3.24447 9.45669 3.21702 9.46638C3.19859 9.47289 3.11958 9.5 2.99821 9.5V7.5C2.67059 7.5 2.39075 7.63662 2.22676 7.73406C2.02824 7.85202 1.83007 8.01456 1.65319 8.21696C1.2924 8.62982 1.00031 9.2333 1 9.9996L3 10.0004ZM17 12.5H17.009V10.5H17V12.5Z" fill="black"/>
</svg>
