<svg width="24" height="24" viewBox="0 0 24 24" fill="none" xmlns="http://www.w3.org/2000/svg">
<g opacity="0.14">
<path d="M7 18C7 19.1046 6.10457 20 5 20C3.89543 20 3 19.1046 3 18C3 16.8954 3.89543 16 5 16C6.10457 16 7 16.8954 7 18Z" fill="black"/>
<path d="M16.27 13H17.9993C19.1039 13 19.9993 12.1046 19.9993 11C19.9993 10.3705 19.7029 9.77769 19.1993 9.39999L16.5327 7.39999C16.1865 7.14034 14.7654 6.99999 14.3327 6.99999L14.3309 7C14.3309 6.45626 14.1003 5.78378 13.7091 5.131C13.1963 4.27547 12.4075 3.45377 11.5 3C11 3.66667 10 6.5 11.9989 8.99999V11.2902C9.10797 12.1511 7 14.8294 7 18V19C7 20.1046 7.89543 21 9 21H13.4999C14.3283 21 15.0005 20.3284 15.0005 19.5C15.0005 18.6716 14.3283 18 13.4999 18L15.0005 16C15.0005 16 18.6587 20.7609 18.8543 20.8543C18.9235 20.8873 18.9955 20.9152 19.0701 20.9375C19.2063 20.9782 19.3506 21 19.5 21C20.3284 21 21 20.3284 21 19.5C21 19.2688 20.9477 19.0499 20.8543 18.8543C20.7609 18.6587 16.27 13 16.27 13Z" fill="black"/>
<path d="M14.3309 7L14.3327 6.99999C14.7654 6.99999 16.1865 7.14034 16.5327 7.39999C16.8549 6.59999 17.3986 4.6 16.9986 3C16.2322 3.15328 14.59 3.78583 13.7091 5.131C14.1003 5.78378 14.3309 6.45626 14.3309 7Z" fill="black"/>
</g>
<path d="M16.27 13V12C15.8863 12 15.5364 12.2195 15.3695 12.565C15.2026 12.9105 15.2482 13.3211 15.4867 13.6216L16.27 13ZM19.1993 9.39999L18.5993 10.2L18.5993 10.2L19.1993 9.39999ZM16.5327 7.39999L15.9327 8.19999L16.5327 7.39999ZM14.3327 6.99999V5.99995L14.3242 6.00002L14.3327 6.99999ZM14.3309 7H13.3309C13.3309 7.26668 13.4374 7.52231 13.6268 7.71008C13.8162 7.89786 14.0727 8.00221 14.3393 7.99996L14.3309 7ZM11.5 3L11.9472 2.10557C11.5149 1.88944 10.99 2.01337 10.7 2.4L11.5 3ZM11.9989 8.99999H12.9989C12.9989 8.77301 12.9217 8.55278 12.7799 8.3755L11.9989 8.99999ZM11.9989 11.2902L12.2843 12.2486C12.7082 12.1224 12.9989 11.7326 12.9989 11.2902H11.9989ZM13.4999 18L12.7 17.3998C12.4727 17.7028 12.436 18.1083 12.6054 18.4471C12.7748 18.7859 13.1211 19 13.4999 19V18ZM15.0005 16L15.7934 15.3907C15.6029 15.1428 15.3074 14.9982 14.9947 15C14.682 15.0018 14.3882 15.1497 14.2006 15.3998L15.0005 16ZM19.0701 20.9375L18.7839 21.8957L19.0701 20.9375ZM18.8543 20.8543L18.4233 21.7566L18.4233 21.7566L18.8543 20.8543ZM16.9986 3L17.9687 2.75746C17.8392 2.23961 17.3259 1.91473 16.8024 2.01942L16.9986 3ZM12.8744 4.58316C12.5718 5.04519 12.7011 5.66502 13.1631 5.96758C13.6251 6.27014 14.245 6.14087 14.5475 5.67883L12.8744 4.58316ZM15.5 9C14.9477 9 14.5 9.44772 14.5 10C14.5 10.5523 14.9477 11 15.5 11V9ZM15.509 11C16.0613 11 16.509 10.5523 16.509 10C16.509 9.44772 16.0613 9 15.509 9V11ZM16.27 14H17.9993V12H16.27V14ZM19.7993 8.59999L17.1327 6.59999L15.9327 8.19999L18.5993 10.2L19.7993 8.59999ZM14.3242 6.00002L14.3225 6.00004L14.3393 7.99996L14.3411 7.99995L14.3242 6.00002ZM15.3309 7C15.3309 6.09305 14.909 5.09572 14.3411 4.26465C13.7604 3.41498 12.9322 2.59806 11.9472 2.10557L11.0528 3.89443C11.6678 4.20194 12.255 4.75685 12.6898 5.39309C13.1373 6.04793 13.3309 6.6506 13.3309 7H15.3309ZM10.7 2.4C10.3092 2.921 9.88543 3.99617 9.81397 5.25586C9.73991 6.56123 10.0386 8.14955 11.2178 9.62447L12.7799 8.3755C11.9603 7.35044 11.7595 6.2721 11.8108 5.36914C11.8646 4.4205 12.1908 3.74566 12.3 3.6L10.7 2.4ZM10.9989 8.99999V11.2902H12.9989V8.99999H10.9989ZM14.2998 18.6001L15.8003 16.6001L14.2006 15.3998L12.7 17.3998L14.2998 18.6001ZM13.4999 20H9V22H13.4999V20ZM8 19V18H6V19H8ZM9 20C8.44772 20 8 19.5523 8 19H6C6 20.6568 7.34315 22 9 22V20ZM8 18C8 15.2838 9.80566 12.9867 12.2843 12.2486L11.7135 10.3318C8.41028 11.3155 6 14.375 6 18H8ZM17.9993 14C19.6562 14 20.9993 12.6568 20.9993 11H18.9993C18.9993 11.5523 18.5516 12 17.9993 12V14ZM17.1327 6.59999C16.8769 6.40813 16.554 6.31242 16.3583 6.2609C16.1214 6.19853 15.8587 6.15028 15.6127 6.11357C15.1284 6.0413 14.6132 5.99999 14.3327 5.99999V7.99999C14.4849 7.99999 14.8966 8.02885 15.3175 8.09167C15.5241 8.1225 15.7087 8.15803 15.8491 8.195C16.0308 8.24282 16.0154 8.26201 15.9327 8.19999L17.1327 6.59999ZM20.9993 11C20.9993 10.0557 20.5547 9.16655 19.7993 8.59999L18.5993 10.2C18.8511 10.3888 18.9993 10.6852 18.9993 11H20.9993ZM14.0005 19.5C14.0005 19.7756 13.7765 20 13.4999 20V22C14.8801 22 16.0005 20.8812 16.0005 19.5H14.0005ZM13.4999 19C13.7765 19 14.0005 19.2243 14.0005 19.5H16.0005C16.0005 18.1188 14.8801 17 13.4999 17V19ZM20 19.5C20 19.7761 19.7761 20 19.5 20V22C20.8807 22 22 20.8807 22 19.5H20ZM19.9519 19.2853C19.9824 19.3491 20 19.4211 20 19.5H22C22 19.1165 21.913 18.7506 21.7566 18.4233L19.9519 19.2853ZM19.5 20C19.4485 20 19.4006 19.9925 19.3562 19.9793L18.7839 21.8957C19.012 21.9638 19.2526 22 19.5 22V20ZM19.3562 19.9793C19.3318 19.972 19.3081 19.9628 19.2853 19.9519L18.4233 21.7566C18.5388 21.8118 18.6593 21.8584 18.7839 21.8957L19.3562 19.9793ZM21.7566 18.4233C21.7149 18.3358 21.662 18.2612 21.6585 18.2561C21.6391 18.2277 21.6172 18.1971 21.5956 18.1675C21.5518 18.1073 21.4941 18.0303 21.4268 17.9417C21.2915 17.7636 21.1056 17.5229 20.8878 17.243C20.4517 16.6824 19.88 15.9547 19.3125 15.2347C18.7446 14.5144 18.1799 13.8003 17.7571 13.2664C17.5457 12.9995 17.3698 12.7775 17.2467 12.6222C17.1852 12.5446 17.1368 12.4837 17.1039 12.4421C17.0874 12.4213 17.0748 12.4054 17.0662 12.3947C17.062 12.3893 17.0587 12.3852 17.0566 12.3825C17.0555 12.3811 17.0547 12.3801 17.0541 12.3794C17.0538 12.379 17.0536 12.3788 17.0535 12.3786C17.0534 12.3785 17.0534 12.3785 17.0533 12.3784C17.0533 12.3784 17.0533 12.3783 16.27 13C15.4867 13.6216 15.4867 13.6216 15.4867 13.6217C15.4868 13.6217 15.4868 13.6218 15.4869 13.6219C15.487 13.622 15.4872 13.6223 15.4875 13.6226C15.488 13.6233 15.4888 13.6243 15.4899 13.6257C15.4921 13.6284 15.4953 13.6324 15.4995 13.6378C15.508 13.6485 15.5206 13.6643 15.537 13.6851C15.5699 13.7265 15.6181 13.7873 15.6795 13.8648C15.8024 14.0198 15.9781 14.2414 16.1892 14.508C16.6114 15.0412 17.1752 15.7541 17.7418 16.4729C18.3086 17.192 18.8772 17.9157 19.3093 18.4711C19.5257 18.7493 19.706 18.9827 19.8341 19.1514C19.8986 19.2363 19.947 19.301 19.9792 19.3452C19.9956 19.3678 20.0042 19.38 20.0073 19.3845C20.0263 19.4123 19.9879 19.3606 19.9519 19.2853L21.7566 18.4233ZM19.2853 19.9519C19.381 19.9977 19.4449 20.048 19.4599 20.0598C19.4843 20.0789 19.5007 20.094 19.5063 20.0992C19.5177 20.1098 19.5196 20.1125 19.508 20.1001C19.4864 20.0771 19.4489 20.035 19.3932 19.9697C19.2836 19.8413 19.1316 19.6563 18.9481 19.4287C18.5826 18.9754 18.1107 18.3764 17.642 17.7765C17.174 17.1774 16.7118 16.5809 16.3664 16.1339C16.1938 15.9105 16.0504 15.7245 15.9503 15.5945C15.9002 15.5295 15.8609 15.4785 15.8342 15.4437C15.8208 15.4264 15.8106 15.4131 15.8037 15.4041C15.8003 15.3997 15.7977 15.3963 15.796 15.394C15.7951 15.3929 15.7944 15.3921 15.794 15.3915C15.7938 15.3912 15.7936 15.391 15.7935 15.3909C15.7935 15.3908 15.7935 15.3908 15.7934 15.3907C15.7934 15.3907 15.7934 15.3907 15.0005 16C14.2075 16.6093 14.2075 16.6093 14.2076 16.6093C14.2076 16.6094 14.2076 16.6094 14.2077 16.6095C14.2078 16.6097 14.208 16.6099 14.2082 16.6102C14.2087 16.6108 14.2093 16.6117 14.2102 16.6128C14.212 16.6152 14.2147 16.6186 14.2182 16.6232C14.2252 16.6322 14.2355 16.6457 14.249 16.6632C14.2759 16.6982 14.3155 16.7496 14.3658 16.815C14.4665 16.9457 14.6105 17.1324 14.7838 17.3568C15.1305 17.8054 15.595 18.4049 16.066 19.0078C16.5363 19.6098 17.0158 20.2185 17.3912 20.6841C17.5781 20.9159 17.744 21.1182 17.8719 21.2681C17.9349 21.3419 17.9961 21.4117 18.0496 21.4687C18.0755 21.4963 18.109 21.531 18.1458 21.5651C18.1498 21.5688 18.2615 21.6794 18.4233 21.7566L19.2853 19.9519ZM17.4602 7.7736C17.6493 7.30421 17.8861 6.5312 18.0242 5.65581C18.1611 4.78819 18.2141 3.73917 17.9687 2.75746L16.0284 3.24254C16.183 3.86083 16.1642 4.61181 16.0487 5.34417C15.9344 6.06878 15.7382 6.69576 15.6051 7.02637L17.4602 7.7736ZM16.8024 2.01942C15.9026 2.19939 13.9613 2.92328 12.8744 4.58316L14.5475 5.67883C15.2223 4.64837 16.5618 4.10716 17.1947 3.98058L16.8024 2.01942ZM15.5 11H15.509V9H15.5V11ZM6 18C6 18.5523 5.55228 19 5 19V21C6.65686 21 8 19.6568 8 18H6ZM5 19C4.44772 19 4 18.5523 4 18H2C2 19.6569 3.34315 21 5 21V19ZM4 18C4 17.4477 4.44772 17 5 17V15C3.34315 15 2 16.3431 2 18H4ZM5 17C5.55229 17 6 17.4477 6 18H8C8 16.3431 6.65685 15 5 15V17Z" fill="black"/>
</svg>
