<svg width="24" height="24" viewBox="0 0 24 24" fill="none" xmlns="http://www.w3.org/2000/svg">
<g opacity="0.14">
<path d="M14 9C14 7.34315 15.3431 6 17 6C18.6569 6 20 7.34315 20 9V11C20 12.6569 18.6569 14 17 14C15.3431 14 14 12.6569 14 11V9Z" fill="black"/>
<path d="M6 6C4.89543 6 4 6.89543 4 8C4 8.37228 4.10171 8.7208 4.27887 9.01929C4.18773 9.00657 4.09463 9 4 9C2.89543 9 2 9.89543 2 11C2 11.8724 2.55857 12.6143 3.33759 12.8877C3.12437 13.2057 3 13.5883 3 14C3 14.6388 3.29945 15.2076 3.76562 15.5737C3.92924 15.7022 4.11339 15.8058 4.31233 15.8786C4.52676 15.9572 4.75838 16 5 16C5.37228 16 5.7208 15.8983 6.01929 15.7211C6.00657 15.8123 6 15.9054 6 16C6 17.1046 6.89543 18 8 18C8.75301 18 9.40882 17.5839 9.75 16.969C10.0912 17.5839 10.747 18 11.5 18C12.5034 18 13.3286 17.2898 13.478 16.2976L12.875 15.7682C12.3188 15.2799 12 14.5757 12 13.8356V13.5625C12 13.2204 11.7986 12.9105 11.486 12.7716L11.0577 12.5812C10.2324 12.2144 9.62197 11.4879 9.40291 10.6116C9.15295 9.61178 9.44591 8.55409 10.1747 7.82532L11 7L9.5 5C8.49655 5 7.6657 5.73899 7.52199 6.70242C7.15515 6.27256 6.60941 6 6 6Z" fill="black"/>
<path d="M15 17C14.3906 17 13.8734 16.7613 13.478 16.2976C13.3286 17.2898 12.5034 18 11.5 18L11.5 21H14.5L16.4083 16.4201C16.0468 16.7786 15.5493 17 15 17Z" fill="black"/>
<path d="M5 16C4.75838 16 4.52676 15.9572 4.31233 15.8786C4.11339 15.8058 3.92924 15.7022 3.76562 15.5737L5.00001 21H8.00001L8 18C6.89543 18 6 17.1046 6 16C6 15.9054 6.00657 15.8123 6.01929 15.7211C5.7208 15.8983 5.37228 16 5 16Z" fill="black"/>
</g>
<path d="M6.01929 15.7211L7.00969 15.8593C7.0628 15.4787 6.89307 15.1013 6.57306 14.8885C6.25306 14.6756 5.8394 14.665 5.50891 14.8612L6.01929 15.7211ZM3.33759 12.8877L4.1682 13.4446C4.34047 13.1876 4.38411 12.8654 4.28639 12.5718C4.18868 12.2783 3.96061 12.0465 3.66869 11.9441L3.33759 12.8877ZM4.27887 9.01929L4.14069 10.0097C4.52132 10.0628 4.8987 9.89307 5.11153 9.57306C5.32435 9.25306 5.33496 8.8394 5.13882 8.50891L4.27887 9.01929ZM7.52199 6.70242L6.76132 7.35156C7.01572 7.64968 7.42082 7.7717 7.79756 7.6637C8.1743 7.5557 8.45322 7.23758 8.51104 6.84996L7.52199 6.70242ZM9.5 6C10.0523 6 10.5 5.55228 10.5 5C10.5 4.44772 10.0523 4 9.5 4V6ZM13.478 16.2976L14.2387 15.6484C13.9843 15.3503 13.5792 15.2283 13.2024 15.3363C12.8257 15.4443 12.5468 15.7624 12.489 16.15L13.478 16.2976ZM9.75 16.969L10.6244 16.4838C10.4481 16.1661 10.1133 15.969 9.75 15.969C9.38665 15.969 9.0519 16.1661 8.8756 16.4838L9.75 16.969ZM16.4083 16.4201L17.3314 16.8047C17.5147 16.3647 17.362 15.8564 16.9665 15.5904C16.5709 15.3243 16.0426 15.3744 15.7041 15.7101L16.4083 16.4201ZM4.74071 15.3519C4.61821 14.8134 4.08233 14.4761 3.54381 14.5986C3.00528 14.7211 2.66803 15.257 2.79054 15.7955L4.74071 15.3519ZM5.00001 21L4.02492 21.2218C4.12847 21.677 4.53319 22 5.00001 22V21ZM8.00001 21V22C8.26523 22 8.51958 21.8946 8.70712 21.7071C8.89466 21.5196 9.00001 21.2652 9.00001 21L8.00001 21ZM11.5 21L10.5 21C10.5 21.5523 10.9477 22 11.5 22V21ZM14.5 21V22C14.9037 22 15.2678 21.7573 15.4231 21.3846L14.5 21ZM11.5528 9.10557C11.0588 9.35256 10.8586 9.95324 11.1056 10.4472C11.3526 10.9412 11.9532 11.1414 12.4472 10.8944L11.5528 9.10557ZM21.5528 10.8944C22.0468 11.1414 22.6474 10.9412 22.8944 10.4472C23.1414 9.95324 22.9412 9.35256 22.4472 9.10557L21.5528 10.8944ZM21 4.5C21 5.05228 21.4477 5.5 22 5.5C22.5523 5.5 23 5.05228 23 4.5H21ZM18 6.76389C18 7.31618 18.4477 7.76389 19 7.76389C19.5523 7.76389 20 7.31618 20 6.76389H18ZM11 4.5C11 5.05228 11.4477 5.5 12 5.5C12.5523 5.5 13 5.05228 13 4.5H11ZM14 6.76389C14 7.31618 14.4477 7.76389 15 7.76389C15.5523 7.76389 16 7.31618 16 6.76389H14ZM18.5 8C17.9477 8 17.5 8.44772 17.5 9C17.5 9.55228 17.9477 10 18.5 10V8ZM18.509 10C19.0613 10 19.509 9.55228 19.509 9C19.509 8.44772 19.0613 8 18.509 8V10ZM15.5 8C14.9477 8 14.5 8.44772 14.5 9C14.5 9.55228 14.9477 10 15.5 10V8ZM15.509 10C16.0613 10 16.509 9.55228 16.509 9C16.509 8.44772 16.0613 8 15.509 8V10ZM5 8C5 7.44772 5.44772 7 6 7V5C4.34315 5 3 6.34315 3 8H5ZM3 11C3 10.4477 3.44772 10 4 10V8C2.34315 8 1 9.34315 1 11H3ZM5 15C4.44772 15 4 14.5523 4 14H2C2 15.6569 3.34315 17 5 17V15ZM8 17C7.44772 17 7 16.5523 7 16H5C5 17.6569 6.34315 19 8 19V17ZM7 16C7 15.9517 7.00335 15.9048 7.00969 15.8593L5.02888 15.583C5.0098 15.7197 5 15.859 5 16H7ZM5.50891 14.8612C5.36062 14.9492 5.18777 15 5 15V17C5.55679 17 6.08098 16.8474 6.52966 16.5811L5.50891 14.8612ZM4 14C4 13.7928 4.06196 13.603 4.1682 13.4446L2.50698 12.3308C2.18678 12.8084 2 13.3839 2 14H4ZM3.66869 11.9441C3.27786 11.807 3 11.4346 3 11H1C1 12.3102 1.83928 13.4217 3.00649 13.8313L3.66869 11.9441ZM4 10C4.04828 10 4.09521 10.0033 4.14069 10.0097L4.41704 8.02888C4.28026 8.0098 4.14099 8 4 8V10ZM5.13882 8.50891C5.0508 8.36061 5 8.18776 5 8H3C3 8.55679 3.15262 9.08098 3.41891 9.52966L5.13882 8.50891ZM8.51104 6.84996C8.58277 6.36914 8.99917 6 9.5 6V4C7.99393 4 6.74864 5.10883 6.53293 6.55489L8.51104 6.84996ZM6 7C6.30445 7 6.57636 7.13483 6.76132 7.35156L8.28266 6.05328C7.73394 5.41029 6.91436 5 6 5V7ZM15 16C14.6955 16 14.4236 15.8652 14.2387 15.6484L12.7173 16.9467C13.2661 17.5897 14.0856 18 15 18V16ZM12.489 16.15C12.4172 16.6309 12.0008 17 11.5 17V19C13.0061 19 14.2514 17.8912 14.4671 16.4451L12.489 16.15ZM11.5 17C11.1248 17 10.7964 16.7938 10.6244 16.4838L8.8756 17.4542C9.38594 18.3739 10.3692 19 11.5 19V17ZM8.8756 16.4838C8.70357 16.7938 8.37518 17 8 17V19C9.13084 19 10.1141 18.3739 10.6244 17.4542L8.8756 16.4838ZM15.7041 15.7101C15.5223 15.8904 15.2749 16 15 16V18C15.8236 18 16.5713 17.6668 17.1125 17.1301L15.7041 15.7101ZM2.79054 15.7955L4.02492 21.2218L5.9751 20.7782L4.74071 15.3519L2.79054 15.7955ZM5.00001 22H8.00001V20H5.00001V22ZM9.00001 21L9 18L7 18L7.00001 21L9.00001 21ZM10.5 18L10.5 21L12.5 21L12.5 18L10.5 18ZM11.5 22H14.5V20H11.5V22ZM15.4231 21.3846L17.3314 16.8047L15.4852 16.0355L13.5769 20.6154L15.4231 21.3846ZM19 9V11H21V9H19ZM15 11V9H13V11H15ZM17 13C15.8954 13 15 12.1046 15 11H13C13 13.2091 14.7909 15 17 15V13ZM19 11C19 12.1046 18.1046 13 17 13V15C19.2091 15 21 13.2091 21 11H19ZM17 7C18.1046 7 19 7.89543 19 9H21C21 6.79086 19.2091 5 17 5V7ZM17 5C14.7909 5 13 6.79086 13 9H15C15 7.89543 15.8954 7 17 7V5ZM13.5528 8.10557L11.5528 9.10557L12.4472 10.8944L14.4472 9.89443L13.5528 8.10557ZM19.5528 9.89443L21.5528 10.8944L22.4472 9.10557L20.4472 8.10557L19.5528 9.89443ZM20 4.5C20 4.22386 20.2239 4 20.5 4V2C19.1193 2 18 3.11929 18 4.5H20ZM20.5 4C20.7761 4 21 4.22386 21 4.5H23C23 3.11929 21.8807 2 20.5 2V4ZM18 4.5V6.76389H20V4.5H18ZM16 4.5C16 3.11929 14.8807 2 13.5 2V4C13.7761 4 14 4.22386 14 4.5H16ZM13.5 2C12.1193 2 11 3.11929 11 4.5H13C13 4.22386 13.2239 4 13.5 4V2ZM14 4.5V6.76389H16V4.5H14ZM18.5 10H18.509V8H18.5V10ZM15.5 10H15.509V8H15.5V10Z" fill="black"/>
</svg>
