<svg width="24" height="24" viewBox="0 0 24 24" fill="none" xmlns="http://www.w3.org/2000/svg">
<g opacity="0.14">
<path d="M6 6C4.89543 6 4 6.89543 4 8C4 8.37228 4.10171 8.7208 4.27887 9.01929C4.18773 9.00657 4.09463 9 4 9C2.89543 9 2 9.89543 2 11C2 11.8724 2.55857 12.6143 3.33759 12.8877C3.12437 13.2057 3 13.5883 3 14C3 14.6388 3.29945 15.2076 3.76562 15.5737C3.92924 15.7022 4.11339 15.8058 4.31233 15.8786C4.52676 15.9572 4.75838 16 5 16C5.37228 16 5.7208 15.8983 6.01929 15.7211C6.00657 15.8123 6 15.9054 6 16C6 17.1046 6.89544 18 8.00001 18C8.75302 18 9.40882 17.5839 9.75 16.969C10.0912 17.5839 10.747 18 11.5 18C12.5035 18 13.3343 17.261 13.478 16.2976C13.8448 16.7274 14.3906 17 15 17C15.5973 17 16.1335 16.7381 16.5 16.3229C16.8112 15.9703 17 15.5072 17 15C17 14.6277 16.8983 14.2792 16.7211 13.9807C12.5692 13.3523 9.5 9.78355 9.5 5.58431V5C8.49655 5 7.6657 5.73899 7.52199 6.70242C7.15515 6.27256 6.60941 6 6 6Z" fill="black"/>
<path d="M3.76562 15.5737L5.00001 21H8.00001V18C6.89544 18 6 17.1046 6 16C6 15.9054 6.00657 15.8123 6.01929 15.7211C5.7208 15.8983 5.37228 16 5 16C4.75838 16 4.52676 15.9572 4.31233 15.8786C4.11339 15.8058 3.92924 15.7022 3.76562 15.5737Z" fill="black"/>
<path d="M20 6V8C20 9.65685 18.6569 11 17 11C15.3431 11 14 9.65685 14 8V6C14 4.34315 15.3431 3 17 3C18.6569 3 20 4.34315 20 6Z" fill="black"/>
<path d="M11.5 18V21H14.5L16.5 16.3229C16.1335 16.7381 15.5973 17 15 17C14.3906 17 13.8448 16.7274 13.478 16.2976C13.3343 17.261 12.5035 18 11.5 18Z" fill="black"/>
</g>
<path d="M4.74071 15.3519C4.61821 14.8134 4.08233 14.4761 3.54381 14.5986C3.00528 14.7211 2.66803 15.257 2.79054 15.7955L4.74071 15.3519ZM5.00001 21L4.02492 21.2218C4.12847 21.677 4.53319 22 5.00001 22V21ZM8.00001 21V22C8.5523 22 9.00001 21.5523 9.00001 21H8.00001ZM11.5 21H10.5C10.5 21.5523 10.9477 22 11.5 22V21ZM14.5 21V22C14.9037 22 15.2678 21.7573 15.4231 21.3846L14.5 21ZM17.3314 16.8047C17.5438 16.2949 17.3027 15.7094 16.7929 15.497C16.2831 15.2846 15.6976 15.5257 15.4852 16.0355L17.3314 16.8047ZM11.5528 6.10557C11.0588 6.35256 10.8586 6.95324 11.1056 7.44721C11.3526 7.94119 11.9532 8.14142 12.4472 7.89443L11.5528 6.10557ZM21.5528 7.89443C22.0468 8.14142 22.6474 7.94119 22.8944 7.44721C23.1414 6.95324 22.9412 6.35256 22.4472 6.10557L21.5528 7.89443ZM18.5 5C17.9477 5 17.5 5.44772 17.5 6C17.5 6.55228 17.9477 7 18.5 7V5ZM18.509 7C19.0613 7 19.509 6.55228 19.509 6C19.509 5.44772 19.0613 5 18.509 5V7ZM15.5 5C14.9477 5 14.5 5.44772 14.5 6C14.5 6.55228 14.9477 7 15.5 7V5ZM15.509 7C16.0613 7 16.509 6.55228 16.509 6C16.509 5.44772 16.0613 5 15.509 5V7ZM6.01929 15.7211L7.00969 15.8593C7.0628 15.4787 6.89307 15.1013 6.57306 14.8885C6.25306 14.6756 5.8394 14.665 5.50891 14.8612L6.01929 15.7211ZM3.33759 12.8877L4.1682 13.4446C4.34047 13.1876 4.38411 12.8654 4.28639 12.5718C4.18868 12.2783 3.96061 12.0465 3.66869 11.9441L3.33759 12.8877ZM4.27887 9.01929L4.14069 10.0097C4.52132 10.0628 4.8987 9.89307 5.11153 9.57306C5.32435 9.25306 5.33496 8.8394 5.13882 8.50891L4.27887 9.01929ZM7.52199 6.70242L6.76132 7.35156C7.01572 7.64968 7.42082 7.7717 7.79756 7.6637C8.1743 7.5557 8.45322 7.23758 8.51104 6.84996L7.52199 6.70242ZM9.5 6C10.0523 6 10.5 5.55228 10.5 5C10.5 4.44772 10.0523 4 9.5 4V6ZM16.7211 13.9807L16.8593 12.9903C16.4787 12.9372 16.1013 13.1069 15.8885 13.4269C15.6756 13.7469 15.665 14.1606 15.8612 14.4911L16.7211 13.9807ZM13.478 16.2976L14.2387 15.6484C13.9843 15.3503 13.5792 15.2283 13.2024 15.3363C12.8257 15.4443 12.5468 15.7624 12.489 16.15L13.478 16.2976ZM9.75 16.969L10.6244 16.4838C10.4481 16.1661 10.1133 15.969 9.75 15.969C9.38665 15.969 9.0519 16.1661 8.8756 16.4838L9.75 16.969ZM19.598 13.5007C19.8746 13.0227 19.7112 12.4109 19.2332 12.1344C18.7551 11.8579 18.1434 12.0212 17.8668 12.4993L19.598 13.5007ZM2.79054 15.7955L4.02492 21.2218L5.9751 20.7782L4.74071 15.3519L2.79054 15.7955ZM5.00001 22H8.00001V20H5.00001V22ZM9.00001 21V18H7.00001V21H9.00001ZM10.5 18V21H12.5V18H10.5ZM11.5 22H14.5V20H11.5V22ZM15.4231 21.3846L17.3314 16.8047L15.4852 16.0355L13.5769 20.6154L15.4231 21.3846ZM19 6V8H21V6H19ZM15 8V6H13V8H15ZM17 10C15.8954 10 15 9.10457 15 8H13C13 10.2091 14.7909 12 17 12V10ZM19 8C19 9.10457 18.1046 10 17 10V12C19.2091 12 21 10.2091 21 8H19ZM17 4C18.1046 4 19 4.89543 19 6H21C21 3.79086 19.2091 2 17 2V4ZM17 2C14.7909 2 13 3.79086 13 6H15C15 4.89543 15.8954 4 17 4V2ZM13.5528 5.10557L11.5528 6.10557L12.4472 7.89443L14.4472 6.89443L13.5528 5.10557ZM19.5528 6.89443L21.5528 7.89443L22.4472 6.10557L20.4472 5.10557L19.5528 6.89443ZM18.5 7H18.509V5H18.5V7ZM15.5 7H15.509V5H15.5V7ZM5 8C5 7.44772 5.44772 7 6 7V5C4.34315 5 3 6.34315 3 8H5ZM3 11C3 10.4477 3.44772 10 4 10V8C2.34315 8 1 9.34315 1 11H3ZM5 15C4.44772 15 4 14.5523 4 14H2C2 15.6569 3.34315 17 5 17V15ZM8.00001 17C7.44772 17 7 16.5523 7 16H5C5 17.6569 6.34317 19 8.00001 19V17ZM16 15C16 15.5523 15.5523 16 15 16V18C16.6569 18 18 16.6569 18 15H16ZM7 16C7 15.9517 7.00335 15.9048 7.00969 15.8593L5.02888 15.583C5.0098 15.7197 5 15.859 5 16H7ZM5.50891 14.8612C5.36062 14.9492 5.18777 15 5 15V17C5.55679 17 6.08098 16.8474 6.52966 16.5811L5.50891 14.8612ZM4 14C4 13.7928 4.06196 13.603 4.1682 13.4446L2.50698 12.3308C2.18678 12.8084 2 13.3839 2 14H4ZM3.66869 11.9441C3.27786 11.807 3 11.4346 3 11H1C1 12.3102 1.83928 13.4217 3.00649 13.8313L3.66869 11.9441ZM4 10C4.04828 10 4.09521 10.0033 4.14069 10.0097L4.41704 8.02888C4.28026 8.0098 4.14099 8 4 8V10ZM5.13882 8.50891C5.0508 8.36061 5 8.18776 5 8H3C3 8.55679 3.15262 9.08098 3.41891 9.52966L5.13882 8.50891ZM8.51104 6.84996C8.58277 6.36914 8.99917 6 9.5 6V4C7.99393 4 6.74864 5.10883 6.53293 6.55489L8.51104 6.84996ZM6 7C6.30445 7 6.57636 7.13483 6.76132 7.35156L8.28266 6.05328C7.73394 5.41029 6.91436 5 6 5V7ZM15.8612 14.4911C15.9492 14.6394 16 14.8122 16 15H18C18 14.4432 17.8474 13.919 17.5811 13.4703L15.8612 14.4911ZM17 13C16.9517 13 16.9048 12.9967 16.8593 12.9903L16.583 14.9711C16.7197 14.9902 16.859 15 17 15V13ZM15 16C14.6955 16 14.4236 15.8652 14.2387 15.6484L12.7173 16.9467C13.2661 17.5897 14.0856 18 15 18V16ZM12.489 16.15C12.4172 16.6309 12.0008 17 11.5 17V19C13.0061 19 14.2514 17.8912 14.4671 16.4451L12.489 16.15ZM11.5 17C11.1248 17 10.7964 16.7938 10.6244 16.4838L8.8756 17.4542C9.38594 18.3739 10.3692 19 11.5 19V17ZM8.8756 16.4838C8.70357 16.7938 8.37518 17 8.00001 17V19C9.13086 19 10.1141 18.3739 10.6244 17.4542L8.8756 16.4838ZM17.8668 12.4993C17.6924 12.8008 17.3689 13 17 13V15C18.1117 15 19.0808 14.3948 19.598 13.5007L17.8668 12.4993Z" fill="black"/>
</svg>
