<svg width="24" height="24" viewBox="0 0 24 24" fill="none" xmlns="http://www.w3.org/2000/svg">
<path opacity="0.14" d="M13 22C13.117 22 13.2335 21.9975 13.3492 21.9925C13.573 21.9829 13.7943 21.9641 14.0129 21.9365C15.7409 21.7182 17.2972 20.9486 18.5 19.8095C18.8563 19.4721 19.1816 19.1022 19.4711 18.7047C20.4327 17.3843 21 15.7584 21 14C21 13.1269 20.8601 12.2865 20.6016 11.5C19.5518 8.30607 16.5452 6 13 6H6V7C6 10.3137 8.68629 13 12 13H13.6777C14.4689 13 15.1677 13.3957 15.587 14C15.8474 14.3753 16 14.831 16 15.3223C16 15.7064 15.9075 16.0664 15.7448 16.3828C15.6257 16.6143 15.4691 16.8225 15.2835 17C14.9405 17.328 14.4987 17.551 14.0129 17.6213C13.7987 17.6523 13.5759 17.6537 13.3492 17.6213L9 17L11 19.5L9 22H13Z" fill="black"/>
<path d="M17 3C17.5523 3 18 2.55228 18 2C18 1.44772 17.5523 1 17 1V3ZM9 22L8.21913 21.3753C7.979 21.6755 7.93218 22.0867 8.0987 22.4332C8.26522 22.7797 8.61559 23 9 23V22ZM11 19.5L11.7809 20.1247C12.073 19.7595 12.073 19.2405 11.7809 18.8753L11 19.5ZM9 17L9.14142 16.0101C8.73539 15.952 8.33511 16.1479 8.13167 16.504C7.92824 16.8602 7.96291 17.3044 8.21913 17.6247L9 17ZM13.3492 17.6213L13.4907 16.6314L13.3492 17.6213ZM13.3492 21.9925L13.3063 20.9934L13.3492 21.9925ZM15.2835 17L15.9747 17.7227L15.2835 17ZM18.5 19.8095L19.1876 20.5356L18.5 19.8095ZM15.587 14L14.7654 14.5701L15.587 14ZM20.6016 11.5L21.5516 11.1878L20.6016 11.5ZM15.7448 16.3828L14.8555 15.9255L15.7448 16.3828ZM19.4711 18.7047L18.6628 18.116L19.4711 18.7047ZM14.0129 17.6213L14.1562 18.611L14.0129 17.6213ZM14.0129 21.9365L13.8875 20.9444L14.0129 21.9365ZM15.0117 17.6213C15.0117 17.0691 14.564 16.6213 14.0117 16.6213C13.4594 16.6213 13.0117 17.0691 13.0117 17.6213H15.0117ZM13.0117 21.9365C13.0117 22.4888 13.4594 22.9365 14.0117 22.9365C14.564 22.9365 15.0117 22.4888 15.0117 21.9365H13.0117ZM16.2749 15.5341C15.8062 15.242 15.1894 15.3852 14.8974 15.854C14.6053 16.3227 14.7485 16.9395 15.2173 17.2315L16.2749 15.5341ZM18.9436 19.5534C19.4123 19.8454 20.0291 19.7022 20.3211 19.2335C20.6132 18.7647 20.47 18.148 20.0013 17.8559L18.9436 19.5534ZM15 6.06189C15 5.5096 14.5523 5.06189 14 5.06189C13.4477 5.06189 13 5.5096 13 6.06189H15ZM13 13C13 13.5523 13.4477 14 14 14C14.5523 14 15 13.5523 15 13H13ZM15.1398 13.1051C14.6455 13.3515 14.4446 13.9519 14.691 14.4462C14.9374 14.9404 15.5378 15.1414 16.0321 14.8949L15.1398 13.1051ZM21.0467 12.3949C21.541 12.1485 21.7419 11.5481 21.4955 11.0538C21.2491 10.5596 20.6486 10.3586 20.1544 10.6051L21.0467 12.3949ZM10.4922 8C9.9399 8 9.49219 8.44772 9.49219 9C9.49219 9.55228 9.9399 10 10.4922 10V8ZM10.5012 10C11.0535 10 11.5012 9.55228 11.5012 9C11.5012 8.44772 11.0535 8 10.5012 8V10ZM17 1H5V3H17V1ZM13 21H9V23H13V21ZM9.78087 22.6247L11.7809 20.1247L10.2191 18.8753L8.21913 21.3753L9.78087 22.6247ZM11.7809 18.8753L9.78087 16.3753L8.21913 17.6247L10.2191 20.1247L11.7809 18.8753ZM8.85858 17.9899L13.2078 18.6113L13.4907 16.6314L9.14142 16.0101L8.85858 17.9899ZM5 7H6V5H5V7ZM6 7H13V5H6V7ZM7 7V6H5V7H7ZM2 4C2 5.65685 3.34315 7 5 7V5C4.44772 5 4 4.55228 4 4H2ZM12 12C9.23858 12 7 9.76142 7 7H5C5 10.866 8.13401 14 12 14V12ZM5 1C3.34315 1 2 2.34315 2 4H4C4 3.44772 4.44772 3 5 3V1ZM13.3063 20.9934C13.2048 20.9978 13.1027 21 13 21V23C13.1313 23 13.2621 22.9972 13.3922 22.9916L13.3063 20.9934ZM17 15.3223C17 14.6207 16.7814 13.9672 16.4086 13.4299L14.7654 14.5701C14.9134 14.7833 15 15.0412 15 15.3223H17ZM16.4086 13.4299C15.8105 12.5679 14.8105 12 13.6777 12V14C14.1273 14 14.525 14.2235 14.7654 14.5701L16.4086 13.4299ZM13 7C16.1005 7 18.7327 9.01648 19.6516 11.8122L21.5516 11.1878C20.371 7.59565 16.9899 5 13 5V7ZM19.6516 11.8122C19.8774 12.4993 20 13.2343 20 14H22C22 13.0196 21.8429 12.0738 21.5516 11.1878L19.6516 11.8122ZM15.9747 17.7227C16.2394 17.4696 16.4634 17.172 16.6341 16.8402L14.8555 15.9255C14.7881 16.0566 14.6988 16.1755 14.5924 16.2773L15.9747 17.7227ZM16.6341 16.8402C16.868 16.3854 17 15.869 17 15.3223H15C15 15.5439 14.9471 15.7473 14.8555 15.9255L16.6341 16.8402ZM20 14C20 15.5398 19.504 16.9609 18.6628 18.116L20.2795 19.2934C21.3614 17.8077 22 15.977 22 14H20ZM18.6628 18.116C18.4093 18.464 18.1244 18.7879 17.8124 19.0834L19.1876 20.5356C19.5882 20.1562 19.9539 19.7404 20.2795 19.2934L18.6628 18.116ZM13.2078 18.6113C13.5297 18.6572 13.8483 18.6556 14.1562 18.611L13.8696 16.6316C13.749 16.6491 13.6221 16.6501 13.4907 16.6314L13.2078 18.6113ZM14.1562 18.611C14.8543 18.5099 15.486 18.1901 15.9747 17.7227L14.5924 16.2773C14.3951 16.466 14.1432 16.592 13.8696 16.6316L14.1562 18.611ZM17.8124 19.0834C16.7588 20.0812 15.3977 20.7536 13.8875 20.9444L14.1382 22.9286C16.0841 22.6827 17.8356 21.816 19.1876 20.5356L17.8124 19.0834ZM13.8875 20.9444C13.6963 20.9685 13.5024 20.985 13.3063 20.9934L13.3922 22.9916C13.6435 22.9808 13.8923 22.9597 14.1382 22.9286L13.8875 20.9444ZM13.0117 17.6213V21.9365H15.0117V17.6213H13.0117ZM15.2173 17.2315L18.9436 19.5534L20.0013 17.8559L16.2749 15.5341L15.2173 17.2315ZM13 6.06189V13H15V6.06189H13ZM16.0321 14.8949L21.0467 12.3949L20.1544 10.6051L15.1398 13.1051L16.0321 14.8949ZM10.4922 10H10.5012V8H10.4922V10ZM13.6777 12H12V14H13.6777V12Z" fill="black"/>
</svg>
