<svg width="24" height="24" viewBox="0 0 24 24" fill="none" xmlns="http://www.w3.org/2000/svg">
<g opacity="0.14">
<path d="M4 16H4.5V20H8V16H11V20H14.5V16H15C16.8092 16 18.3379 14.7989 18.8321 13.1506C19.0171 12.5334 19.5223 12 20.1667 12C21.1792 12 22 11.1792 22 10.1667V9.92857C22 8.03502 20.465 6.5 18.5714 6.5C17.1513 6.5 16 7.65127 16 9.07143V12H14H4C3.63571 12 3.29417 12.0974 3 12.2676C2.4022 12.6134 2 13.2597 2 14C2 15.1046 2.89543 16 4 16Z" fill="black"/>
<path d="M3 9.5V12V12.2676C3.29417 12.0974 3.63571 12 4 12H14V9.5C14 6.46243 11.5376 4 8.5 4C5.46243 4 3 6.46243 3 9.5Z" fill="black"/>
</g>
<path d="M4.5 16H5.5C5.5 15.4477 5.05228 15 4.5 15V16ZM4.5 20H3.5C3.5 20.5523 3.94772 21 4.5 21V20ZM8 20V21C8.55228 21 9 20.5523 9 20H8ZM8 16V15C7.44772 15 7 15.4477 7 16H8ZM11 16H12C12 15.4477 11.5523 15 11 15V16ZM11 20H10C10 20.5523 10.4477 21 11 21V20ZM14.5 20V21C15.0523 21 15.5 20.5523 15.5 20H14.5ZM14.5 16V15C13.9477 15 13.5 15.4477 13.5 16H14.5ZM16 12V13C16.5523 13 17 12.5523 17 12H16ZM19 8C18.4477 8 18 8.44772 18 9C18 9.55228 18.4477 10 19 10V8ZM19.009 10C19.5613 10 20.009 9.55228 20.009 9C20.009 8.44772 19.5613 8 19.009 8V10ZM3 12.2676L3.50073 13.1332L3 12.2676ZM18.8321 13.1506L19.7899 13.4378L18.8321 13.1506ZM4 17H4.5V15H4V17ZM3.5 16V20H5.5V16H3.5ZM4.5 21H8V19H4.5V21ZM9 20V16H7V20H9ZM8 17H11V15H8V17ZM10 16V20H12V16H10ZM11 21H14.5V19H11V21ZM15.5 20V16H13.5V20H15.5ZM14.5 17H15V15H14.5V17ZM1 14C1 15.6569 2.34315 17 4 17V15C3.44772 15 3 14.5523 3 14H1ZM15 17C17.263 17 19.1724 15.4974 19.7899 13.4378L17.8742 12.8634C17.5033 14.1003 16.3554 15 15 15V17ZM23 10.1667V9.92857H21V10.1667H23ZM15 9.07143V12H17V9.07143H15ZM18.5714 5.5C16.599 5.5 15 7.09898 15 9.07143H17C17 8.20355 17.7036 7.5 18.5714 7.5V5.5ZM23 9.92857C23 7.48274 21.0173 5.5 18.5714 5.5V7.5C19.9127 7.5 21 8.58731 21 9.92857H23ZM20.1667 13C21.7315 13 23 11.7315 23 10.1667H21C21 10.6269 20.6269 11 20.1667 11V13ZM4 12V9.5H2V12H4ZM13 9.5V12H15V9.5H13ZM8.5 5C10.9853 5 13 7.01472 13 9.5H15C15 5.91015 12.0899 3 8.5 3V5ZM4 9.5C4 7.01472 6.01472 5 8.5 5V3C4.91015 3 2 5.91015 2 9.5H4ZM19 10H19.009V8H19V10ZM3 14C3 13.6311 3.19922 13.3076 3.50073 13.1332L2.49927 11.402C1.60518 11.9192 1 12.8883 1 14H3ZM3.50073 13.1332C3.64679 13.0487 3.8162 13 4 13V11C3.45523 11 2.94155 11.1461 2.49927 11.402L3.50073 13.1332ZM4 12.2676V12H2V12.2676H4ZM16 11H14V13H16V11ZM14 11H4V13H14V11ZM19.7899 13.4378C19.8357 13.2849 19.9181 13.1586 20.0023 13.0815C20.0807 13.0097 20.1356 13 20.1667 13V11C18.9239 11 18.1344 11.9953 17.8742 12.8634L19.7899 13.4378Z" fill="black"/>
</svg>
