<svg width="24" height="24" viewBox="0 0 24 24" fill="none" xmlns="http://www.w3.org/2000/svg">
<path d="M12.0528 11.3853L11.4731 10.5705L12.0528 11.3853ZM6.22958 15.5283L6.77283 16.3679C6.78516 16.3599 6.79732 16.3516 6.80929 16.3431L6.22958 15.5283ZM3.1813 12L4.17293 12.1291C4.2327 11.6702 3.96968 11.2301 3.53711 11.0654C3.10455 10.9008 2.61549 11.0544 2.35488 11.437L3.1813 12ZM1.99895 15.6836L2.99832 15.7192L1.99895 15.6836ZM4.65801 15.7894L4.90054 14.8193H4.90054L4.65801 15.7894ZM4.23473 15.6836L3.99219 16.6538H3.99219L4.23473 15.6836ZM3.1813 14.8159L4.12799 14.4937L4.12799 14.4937L3.1813 14.8159ZM2.32833 11.4818C2.04214 11.9542 2.19305 12.5691 2.6654 12.8553C3.13775 13.1415 3.75267 12.9905 4.03886 12.5182L2.32833 11.4818ZM5.85651 9.51819C6.1427 9.04584 5.99179 8.43092 5.51944 8.14474C5.04709 7.85855 4.43217 8.00946 4.14598 8.48181L5.85651 9.51819ZM5 9H4C4 9.55228 4.44772 10 5 10V9ZM8.5 9V10C8.72707 10 8.94738 9.92272 9.12469 9.78087L8.5 9ZM11 7L11.6247 7.78087C11.9361 7.53175 12.0697 7.12143 11.9647 6.73672C11.8597 6.35201 11.5362 6.06645 11.1414 6.01005L11 7ZM7.5 6.5L6.51005 6.64142C6.5729 7.0814 6.9186 7.4271 7.35858 7.48995L7.5 6.5ZM7 3L7.98995 2.85858C7.93355 2.4638 7.64799 2.14027 7.26328 2.03528C6.87857 1.93029 6.46825 2.06391 6.21913 2.3753L7 3ZM5 5.5L4.21913 4.8753C4.07728 5.05262 4 5.27293 4 5.5H5ZM16 14C15.4477 14 15 14.4477 15 15C15 15.5523 15.4477 16 16 16V14ZM16.009 16C16.5613 16 17.009 15.5523 17.009 15C17.009 14.4477 16.5613 14 16.009 14V16ZM11.4731 10.5705L5.64987 14.7135L6.80929 16.3431L12.6325 12.2001L11.4731 10.5705ZM2.35488 11.437C1.9929 11.9683 1.65987 12.5199 1.41624 13.2068C1.17231 13.8945 1.03442 14.6701 0.999587 15.648L2.99832 15.7192C3.02767 14.8952 3.14031 14.3289 3.30119 13.8753C3.46235 13.4209 3.6884 13.0317 4.00773 12.563L2.35488 11.437ZM4.90054 14.8193L4.47726 14.7135L3.99219 16.6538L4.41547 16.7596L4.90054 14.8193ZM4.12799 14.4937C4.14277 14.5371 4.12129 14.4718 4.10898 14.2089C4.09875 13.9904 4.09753 13.719 4.10289 13.4346C4.11383 12.8537 4.1503 12.3029 4.17293 12.1291L2.18968 11.8709C2.1526 12.1555 2.11461 12.7939 2.10324 13.3969C2.09745 13.7045 2.09811 14.0237 2.11117 14.3025C2.12216 14.5371 2.14537 14.8758 2.23461 15.138L4.12799 14.4937ZM4.47727 14.7135C4.35336 14.6825 4.26246 14.6353 4.20579 14.591C4.15369 14.5502 4.13605 14.5174 4.12799 14.4937L2.23461 15.138C2.53732 16.0276 3.3157 16.4846 3.99219 16.6538L4.47727 14.7135ZM5.68633 14.6887C5.45378 14.8392 5.16925 14.8865 4.90054 14.8193L4.41547 16.7596C5.2216 16.9611 6.0752 16.8193 6.77283 16.3679L5.68633 14.6887ZM0.999587 15.648C0.877543 19.0741 3.93122 22.0001 7.34492 22.0001V20.0001C4.97397 20.0001 2.91972 17.9259 2.99832 15.7192L0.999587 15.648ZM23.0005 17.0001V15.6108H21.0005V17.0001H23.0005ZM18.0005 22.0001C20.7619 22.0001 23.0005 19.7615 23.0005 17.0001H21.0005C21.0005 18.6569 19.6574 20.0001 18.0005 20.0001V22.0001ZM23.0005 15.6108C23.0005 11.9598 20.0407 9 16.3897 9V11C18.9362 11 21.0005 13.0643 21.0005 15.6108H23.0005ZM12.6325 12.2001C13.7298 11.4195 15.043 11 16.3897 11V9C14.6275 9 12.909 9.54893 11.4731 10.5705L12.6325 12.2001ZM7.34492 22.0001H18.0005V20.0001H7.34492V22.0001ZM4.03886 12.5182L5.85651 9.51819L4.14598 8.48181L2.32833 11.4818L4.03886 12.5182ZM5 10H8.5V8H5V10ZM9.12469 9.78087L11.6247 7.78087L10.3753 6.21913L7.87531 8.21913L9.12469 9.78087ZM11.1414 6.01005L7.64142 5.51005L7.35858 7.48995L10.8586 7.98995L11.1414 6.01005ZM8.48995 6.35858L7.98995 2.85858L6.01005 3.14142L6.51005 6.64142L8.48995 6.35858ZM6.21913 2.3753L4.21913 4.8753L5.78087 6.1247L7.78087 3.6247L6.21913 2.3753ZM4 5.5V9H6V5.5H4ZM16 16H16.009V14H16V16Z" fill="black"/>
<g opacity="0.14">
<path d="M6.22958 15.5283L12.0528 11.3853C13.3194 10.4842 14.8352 10 16.3897 10C19.4884 10 22.0005 12.512 22.0005 15.6108V17.0001C22.0005 19.2092 20.2096 21.0001 18.0005 21.0001H7.34492C4.4526 21.0001 1.89863 18.5 1.99895 15.6836C2.06314 13.8816 2.5 13 3.1813 12C3.1216 12.4584 3.03237 14.3782 3.1813 14.8159C3.33841 15.2776 3.76161 15.5653 4.23473 15.6836L4.65801 15.7894C5.19542 15.9238 5.76449 15.8292 6.22958 15.5283Z" fill="black"/>
<path d="M8.5 9H5V5.5L7 3L7.5 6.5L11 7L8.5 9Z" fill="black"/>
</g>
</svg>
