<svg width="24" height="24" viewBox="0 0 24 24" fill="none" xmlns="http://www.w3.org/2000/svg">
<path opacity="0.14" d="M2 19V16C2 12.6863 4.68629 10 8 10H8.4C11.4928 10 14 12.5072 14 15.6C14 16.3732 14.6268 17 15.4 17H16C17.1046 17 18 16.1046 18 15V9H17C15.3431 9 14 7.65685 14 6C14 4.34315 15.3431 3 17 3H19C20.6569 3 22 4.34315 22 6V15C22 18.3137 19.3137 21 16 21H15.6C12.5072 21 10 18.4928 10 15.4C10 14.6268 9.3732 14 8.6 14H8C6.89543 14 6 14.8954 6 16V19C6 20.1046 5.10457 21 4 21C2.89543 21 2 20.1046 2 19Z" fill="black"/>
<path d="M18 9H19C19 8.44772 18.5523 8 18 8V9ZM17.5 5C16.9477 5 16.5 5.44772 16.5 6C16.5 6.55228 16.9477 7 17.5 7V5ZM17.509 7C18.0613 7 18.509 6.55228 18.509 6C18.509 5.44772 18.0613 5 17.509 5V7ZM3 19V16H1V19H3ZM8 11H8.4V9H8V11ZM7 19V16H5V19H7ZM8 15H8.6V13H8V15ZM15.6 22H16V20H15.6V22ZM15.4 18H16V16H15.4V18ZM19 15V9H17V15H19ZM16 18C17.6569 18 19 16.6569 19 15H17C17 15.5523 16.5523 16 16 16V18ZM13 15.6C13 16.9255 14.0745 18 15.4 18V16C15.1791 16 15 15.8209 15 15.6H13ZM16 22C19.866 22 23 18.866 23 15H21C21 17.7614 18.7614 20 16 20V22ZM9 15.4C9 19.0451 11.9549 22 15.6 22V20C13.0595 20 11 17.9405 11 15.4H9ZM8.6 15C8.82091 15 9 15.1791 9 15.4H11C11 14.0745 9.92548 13 8.6 13V15ZM7 16C7 15.4477 7.44772 15 8 15V13C6.34315 13 5 14.3431 5 16H7ZM8.4 11C10.9405 11 13 13.0595 13 15.6H15C15 11.9549 12.0451 9 8.4 9V11ZM3 16C3 13.2386 5.23858 11 8 11V9C4.13401 9 1 12.134 1 16H3ZM4 22C5.65685 22 7 20.6569 7 19H5C5 19.5523 4.55228 20 4 20V22ZM4 20C3.44772 20 3 19.5523 3 19H1C1 20.6569 2.34315 22 4 22V20ZM18 8H17V10H18V8ZM17 4H19V2H17V4ZM19 4C20.1046 4 21 4.89543 21 6H23C23 3.79086 21.2091 2 19 2V4ZM15 6C15 4.89543 15.8954 4 17 4V2C14.7909 2 13 3.79086 13 6H15ZM17 8C15.8954 8 15 7.10457 15 6H13C13 8.20914 14.7909 10 17 10V8ZM17.5 7H17.509V5H17.5V7ZM23 15V6H21V15H23Z" fill="black"/>
</svg>
