<svg width="24" height="24" viewBox="0 0 24 24" fill="none" xmlns="http://www.w3.org/2000/svg">
<path d="M2.04688 12.9549C2.23914 14.9842 3.03785 16.8369 4.2598 18.3297C4.27113 18.3172 4.28284 18.3049 4.29491 18.2928L10.5878 11.9999L9.33068 10.7428C7.6068 12.1535 5.40317 12.9999 3.00187 12.9999C2.67975 12.9999 2.36119 12.9847 2.04688 12.9549Z" fill="black"/>
<path d="M5.67223 19.7421C7.16501 20.964 9.01762 21.7626 11.0469 21.9549C11.0171 21.6406 11.0019 21.322 11.0019 20.9999C11.0019 18.5986 11.8483 16.395 13.259 14.6711L12.002 13.4142L5.70912 19.707C5.69705 19.7191 5.68475 19.7308 5.67223 19.7421Z" fill="black"/>
<path d="M13.0571 21.9449C15.0472 21.7362 16.8635 20.9438 18.3317 19.742C18.3192 19.7307 18.3069 19.719 18.2949 19.707L14.6821 16.0942C13.629 17.4489 13.0019 19.1512 13.0019 20.9999C13.0019 21.3196 13.0206 21.635 13.0571 21.9449Z" fill="black"/>
<path d="M19.7441 18.3295C20.9458 16.8614 21.7382 15.0451 21.9469 13.0551C21.6369 13.0187 21.3216 12.9999 21.0019 12.9999C19.1532 12.9999 17.451 13.627 16.0963 14.68L19.7091 18.2928C19.7211 18.3048 19.7328 18.3171 19.7441 18.3295Z" fill="black"/>
<path d="M21.9569 11.0449C21.7646 9.0157 20.966 7.16312 19.7441 5.67035C19.7377 5.67742 19.7312 5.68442 19.7246 5.69135L19.7091 5.70714L13.4163 11.9999L14.6732 13.2569C16.3971 11.8463 18.6006 10.9999 21.0019 10.9999C21.324 10.9999 21.6425 11.0151 21.9569 11.0449Z" fill="black"/>
<path d="M18.3317 4.2579C16.8389 3.03592 14.9862 2.23718 12.9569 2.04492C12.9866 2.35924 13.0019 2.6778 13.0019 2.99991C13.0019 5.39459 12.1601 7.59266 10.7564 9.31442L10.7449 9.32856L12.0021 10.5857L18.2949 4.29293C18.307 4.28088 18.3192 4.2692 18.3317 4.2579Z" fill="black"/>
<path d="M10.9466 2.05493C8.95663 2.26363 7.1404 3.05598 5.67223 4.25771C5.68475 4.26904 5.69705 4.28073 5.70912 4.29281L9.32179 7.90547C10.3748 6.5508 11.0019 4.84859 11.0019 2.99991C11.0019 2.68019 10.9831 2.36485 10.9466 2.05493Z" fill="black"/>
<path d="M4.2598 5.67011C3.0514 7.14636 2.2569 8.97455 2.0535 10.9775C2.05461 10.9665 2.05573 10.9556 2.05688 10.9447C2.3668 10.9812 2.68214 10.9999 3.00187 10.9999C4.65872 10.9999 6.19793 10.4962 7.47474 9.63364C7.62262 9.53373 7.76698 9.42902 7.90759 9.31971L4.29491 5.70702C4.28283 5.69494 4.27113 5.68263 4.2598 5.67011Z" fill="black"/>
</svg>
