<svg width="24" height="24" viewBox="0 0 24 24" fill="none" xmlns="http://www.w3.org/2000/svg">
<path d="M18.6394 2.03447C19.5559 1.92585 20.5401 2.05476 21.2425 2.75713C21.9449 3.45951 22.0738 4.44378 21.9652 5.36023C21.8549 6.29093 21.484 7.33876 20.9417 8.42345C19.8521 10.6027 17.9639 13.1405 15.552 15.5525C13.14 17.9644 10.6022 19.8525 8.42297 20.9422C7.33827 21.4845 6.29044 21.8554 5.35974 21.9657C4.44329 22.0743 3.45902 21.9454 2.75664 21.243C2.05427 20.5406 1.92537 19.5564 2.03398 18.6399C2.14428 17.7092 2.51515 16.6614 3.0575 15.5767C3.94855 13.7946 5.37359 11.7727 7.18242 9.77593C5.38177 11.9526 4.53473 14.0191 5.25787 14.7423C6.13087 15.6153 8.9617 14.1998 11.5807 11.5808C14.1997 8.96183 15.6151 6.13099 14.7421 5.25799C14.019 4.5349 11.9528 5.38178 9.77624 7.18218C11.7727 5.3737 13.7943 3.94892 15.5762 3.05798C16.6609 2.51564 17.7087 2.14477 18.6394 2.03447Z" fill="black"/>
</svg>
