<svg width="24" height="24" viewBox="0 0 24 24" fill="none" xmlns="http://www.w3.org/2000/svg">
<path d="M17.9738 6.0261C15.6174 3.66973 11.674 4.15518 9.95944 7.0127L8.17359 9.98913C8.0179 10.2486 7.83098 10.488 7.61701 10.702L6.42623 11.8928C5.10161 13.2174 4.89548 15.2369 5.80783 16.7778L2.29289 20.2928C1.90237 20.6833 1.90237 21.3165 2.29289 21.707C2.68342 22.0975 3.31658 22.0975 3.70711 21.707L7.22205 18.192C8.76295 19.1044 10.7825 18.8983 12.1071 17.5736L13.2979 16.3829C13.5119 16.1689 13.7513 15.982 14.0107 15.8263L16.9872 14.0404C19.8447 12.3259 20.3301 8.38247 17.9738 6.0261Z" fill="black"/>
</svg>
