<svg width="24" height="24" viewBox="0 0 24 24" fill="none" xmlns="http://www.w3.org/2000/svg">
<path fill-rule="evenodd" clip-rule="evenodd" d="M20.422 3.54428C19.18 2.30223 17.3874 1.86815 15.6616 2.03415C13.9274 2.20096 12.1437 2.97846 10.7997 4.32245C8.37652 6.74563 7.72336 10.4807 9.61616 12.9696L7 15.5858L6.70711 15.2929C6.31658 14.9024 5.68342 14.9024 5.29289 15.2929L2.29289 18.2929C2.10536 18.4804 2 18.7348 2 19C2 19.2652 2.10536 19.5196 2.29289 19.7071L4.29289 21.7071C4.68342 22.0976 5.31658 22.0976 5.70711 21.7071L8.70711 18.7071C8.89464 18.5196 9 18.2652 9 18C9 17.7348 8.89464 17.4804 8.70711 17.2929L8.41421 17L11.1167 14.2975C12.226 14.9363 13.5583 15.1495 14.8531 15.025C16.5873 14.8582 18.3709 14.0807 19.7149 12.7367C22.3224 10.1292 22.8804 6.00266 20.422 3.54428ZM12.2139 5.73667C13.2131 4.73752 14.5571 4.14961 15.853 4.02497C17.1573 3.89951 18.2972 4.24791 19.0078 4.95849C20.4547 6.40536 20.3795 9.24365 18.3007 11.3225C17.3016 12.3216 15.9575 12.9095 14.6616 13.0342C13.3573 13.1596 12.2174 12.8112 11.5068 12.1006C10.06 10.6538 10.1351 7.81547 12.2139 5.73667Z" fill="black"/>
</svg>
