<svg width="24" height="24" viewBox="0 0 24 24" fill="none" xmlns="http://www.w3.org/2000/svg">
<path d="M14.9806 3.19606C15.0889 2.65451 14.7377 2.12768 14.1961 2.01937C13.6546 1.91106 13.1277 2.26227 13.0194 2.80383L12.7802 3.99992L5.01172 3.99993C4.50928 3.99342 4.07152 4.3656 4.00773 4.87591L2.00773 20.8759C1.97215 21.1605 2.0605 21.4467 2.25033 21.6618C2.44015 21.8768 2.71317 21.9999 3.00001 21.9999H21C21.5523 21.9999 22 21.5522 22 20.9999C22 20.4477 21.5523 19.9999 21 19.9999V15.9999C21 15.5831 20.7414 15.21 20.3511 15.0636L17.5146 13.9999H9C8.44772 13.9999 8 13.5522 8 12.9999C8 12.4477 8.44772 11.9999 9 11.9999H13.2198L13.6198 9.99994H9C8.44772 9.99994 8 9.55222 8 8.99994C8 8.44765 8.44772 7.99994 9 7.99994H14.0198L14.5611 5.29357C14.5803 5.23095 14.5935 5.16571 14.6001 5.09852L14.9806 3.19606Z" fill="black"/>
</svg>
