<svg width="24" height="24" viewBox="0 0 24 24" fill="none" xmlns="http://www.w3.org/2000/svg">
<path d="M11.5011 2.01245C9.11154 2.13108 6.75404 3.10314 4.92818 4.92901C3.10279 6.7544 2.13075 9.11116 2.01172 11.5001H3.01489C3.03333 11.5001 3.05178 11.5006 3.0702 11.5016C5.26588 11.6232 7.49941 10.8467 9.17441 9.17169C10.8492 7.49689 11.6243 5.26518 11.5026 3.06919C11.5016 3.05077 11.5011 3.03233 11.5011 3.01388V2.01245Z" fill="black"/>
<path d="M2.11181 13.5001C2.41962 15.5386 3.35874 17.5017 4.92818 19.0711C6.49803 20.641 8.46177 21.5802 10.5009 21.8878L10.4993 21.0019L10.4994 20.9811C10.3652 18.2607 11.3398 15.4928 13.4183 13.4143C15.5053 11.3274 18.284 10.3566 21.0142 10.5001H21.8867C21.5789 8.46155 20.6397 6.49844 19.0703 4.92901C17.5013 3.36004 15.5389 2.42101 13.5011 2.11291V2.98692C13.6445 5.71635 12.6762 8.49835 10.5886 10.5859C8.50127 12.6733 5.71766 13.6435 2.98793 13.5001H2.11181Z" fill="black"/>
<path d="M21.9868 12.5001H20.9873C20.9688 12.5001 20.9504 12.4996 20.9319 12.4985C18.7368 12.3769 16.5079 13.1532 14.8325 14.8286C13.1568 16.5043 12.378 18.7363 12.4995 20.9309C12.5017 20.9699 12.5016 21.0085 12.4993 21.0465L12.5011 21.9875C14.8893 21.8681 17.2454 20.8961 19.0703 19.0711C20.8957 17.2457 21.8678 14.889 21.9868 12.5001Z" fill="black"/>
</svg>
