<svg width="24" height="24" viewBox="0 0 24 24" fill="none" xmlns="http://www.w3.org/2000/svg">
<path d="M9.82244 2.23804C8.72395 2.48211 7.69305 2.90687 6.76318 3.47945L10.3086 6.20757C10.437 6.3064 10.5395 6.43497 10.6073 6.5822L12.6654 11.0566L15.9188 11.3524L13.6554 6.07104L9.82244 2.23804Z" fill="black"/>
<path d="M5.12255 4.74059C3.20067 6.56208 2 9.14088 2 12.0001C2 13.736 2.44314 15.3711 3.22293 16.7956L4.01751 12.8048C4.04811 12.6511 4.11441 12.5068 4.21106 12.3834L8.28949 7.17746L5.12255 4.74059Z" fill="black"/>
<path d="M4.82927 18.9699C5.58685 19.7491 6.47058 20.4055 7.44759 20.9059L7.48559 20.2384L7.48597 20.2313L7.50029 19.9433L7.69953 16.4433C7.71052 16.2503 7.77722 16.0645 7.89158 15.9087L10.8442 11.8833L9.4752 8.907L5.93246 13.4292L4.82927 18.9699Z" fill="black"/>
<path d="M9.40784 21.6607C10.2345 21.882 11.1034 22.0001 12 22.0001C15.8027 22.0001 19.1097 19.8775 20.8007 16.7525L17.4375 18.3983C17.2641 18.4832 17.0699 18.516 16.8783 18.4929L9.63577 17.6203L9.49746 20.0499L9.49708 20.0569L9.48276 20.345L9.40784 21.6607Z" fill="black"/>
<path d="M21.7916 14.041C21.9282 13.3821 22 12.6995 22 12.0001C22 11.904 21.9986 11.8082 21.996 11.7127L21.3347 11.9878L17.8827 13.4234C17.7328 13.4858 17.5699 13.5107 17.4082 13.496L12.4709 13.0472L10.5162 15.7119L16.824 16.4719L21.7916 14.041Z" fill="black"/>
<path d="M21.7246 9.65951C20.7025 5.39733 16.951 2.19664 12.4216 2.00879L15.2058 4.793C15.2958 4.88296 15.3677 4.98926 15.4178 5.10619L18.0281 11.1969L21.7246 9.65951Z" fill="black"/>
</svg>
