<svg width="24" height="24" viewBox="0 0 24 24" fill="none" xmlns="http://www.w3.org/2000/svg">
<path opacity="0.14" d="M2.58029 8.63477C2.20461 9.68631 2 10.8192 2 11.9998C2 17.5227 6.47715 21.9998 12 21.9998C17.5228 21.9998 22 17.5227 22 11.9998C22 10.8192 21.7954 9.68631 21.4197 8.63477C20.9961 8.80181 20.5328 8.95186 20.0413 9.0859C17.9428 9.65821 15.1002 9.99982 12 9.99982C8.89982 9.99982 6.05717 9.65821 3.95871 9.0859C3.46724 8.95186 3.0039 8.80181 2.58029 8.63477Z" fill="black"/>
<path d="M6.5 13C6.95606 11.7856 7.68217 11 8.5 11C9.31783 11 10.0439 11.7856 10.5 13M13.5 13C13.9561 11.7856 14.6822 11 15.5 11C16.3178 11 17.0439 11.7856 17.5 13M3.51212 9C3.18046 9.93834 3 10.9481 3 12C3 16.9706 7.02944 21 12 21C16.9706 21 21 16.9706 21 12C21 10.9481 20.8195 9.93834 20.4879 9M8 16C8.91221 17.2144 10.3645 18 12.0004 18C13.6362 18 15.0885 17.2144 16.0007 16M21 5.5C21 6.88071 16.9706 8 12 8C7.02944 8 3 6.88071 3 5.5C3 4.11929 7.02944 3 12 3C16.9706 3 21 4.11929 21 5.5Z" stroke="black" stroke-width="2" stroke-linecap="round" stroke-linejoin="round"/>
</svg>
