<svg width="24" height="24" viewBox="0 0 24 24" fill="none" xmlns="http://www.w3.org/2000/svg">
<path d="M5 16.9999H7M5 16.9999C4.44772 16.9999 4 16.5522 4 15.9999V13.9999C4 13.4476 4.44772 12.9999 5 12.9999M5 16.9999C4.44772 16.9999 4 17.4476 4 17.9999V19.9999C4 20.5522 4.44772 20.9999 5 20.9999H7C7.55228 20.9999 8 20.5522 8 19.9999V17.9999C8 17.4476 7.55228 16.9999 7 16.9999M7 16.9999C7.55228 16.9999 8 16.5522 8 15.9999V13.9999C8 13.4476 7.55228 12.9999 7 12.9999M7 12.9999L5 12.9999M7 12.9999C7.55228 12.9999 8 12.5522 8 11.9999V10.9999C8 10.9183 8.00245 10.8372 8.00727 10.7568C8.03435 10.305 7.85192 9.84523 7.45774 9.62281L7 9.36453M5 12.9999C4.44772 12.9999 4 12.5522 4 11.9999V10.9999C4 10.3388 4.0802 9.69636 4.2314 9.08189C4.37557 8.49597 5.04729 8.26247 5.57281 8.55899M17 16.9999H19M17 16.9999C16.4477 16.9999 16 17.4476 16 17.9999V19.9999C16 20.5522 16.4477 20.9999 17 20.9999H19C19.5523 20.9999 20 20.5522 20 19.9999V17.9999C20 17.4476 19.5523 16.9999 19 16.9999M17 16.9999C16.4477 16.9999 16 16.5522 16 15.9999V13.9999C16 13.4476 16.4477 12.9999 17 12.9999M19 16.9999C19.5523 16.9999 20 16.5522 20 15.9999V13.9999C20 13.4476 19.5533 12.9999 19.001 12.9999M17 12.9999L19.001 12.9999M17 12.9999C16.4477 12.9999 16.001 12.5522 16.001 11.9999V10.9999C16.001 10.9183 15.9986 10.8372 15.9938 10.7568C15.9667 10.305 16.1491 9.84523 16.5433 9.62281L17.009 9.36003M19.001 12.9999C19.5533 12.9999 20.001 12.5522 20.001 11.9999V10.9999C20.001 10.3388 19.9208 9.69636 19.7696 9.08189C19.6254 8.49597 19.0255 8.22169 18.5 8.51821M18.5 8.51821L17.009 9.36003M18.5 8.51821L18.6533 8.43165C19.091 8.1847 19.2833 7.64754 19.0446 7.20533C18.6703 6.51194 18.1966 5.88009 17.6426 5.32887C17.2914 4.97939 16.731 5.00388 16.3676 5.34069L16.1494 5.54285M15 6.60819C14.5064 7.06566 14.5988 7.88583 15.037 8.39657C15.15 8.52824 15.2545 8.66734 15.3498 8.81304C15.7098 9.36329 16.4363 9.68315 17.009 9.36003M15 6.60819L14.5415 7.03318C14.2196 7.3315 13.7444 7.37242 13.3305 7.22649C13.2191 7.18722 13.1054 7.15273 12.9898 7.12329C12.4545 6.98705 12 6.55218 12 5.99989M15 6.60819L16.1494 5.54285M12 5.99989V3.99989M12 5.99989C12 6.55218 11.5455 6.98705 11.0102 7.12329C10.8946 7.15273 10.7809 7.18722 10.6695 7.22649C10.2556 7.37242 9.78041 7.3315 9.45854 7.03318L9.00688 6.61443M12 3.99989C12 3.44761 12.4495 2.99331 12.9976 3.06148C14.0988 3.19846 15.1306 3.55927 16.046 4.09694C16.5727 4.40633 16.5975 5.12761 16.1494 5.54285M12 3.99989C12 3.44761 11.5505 2.99331 11.0024 3.06148C9.9012 3.19846 8.86941 3.55927 7.95404 4.09694C7.42732 4.40633 7.40278 5.12736 7.8508 5.5426M7.8508 5.5426L7.63295 5.34069C7.26955 5.00388 6.7091 4.97939 6.35787 5.32887C5.8039 5.88009 5.33023 6.51194 4.95594 7.20533C4.71724 7.64754 4.90955 8.1847 5.3472 8.43165L5.57281 8.55899M7.8508 5.5426L9.00688 6.61443M7 9.36453C7.57266 9.68766 8.29074 9.36329 8.65069 8.81304C8.746 8.66734 8.85056 8.52824 8.96354 8.39657C9.40176 7.88583 9.50046 7.0719 9.00688 6.61443M7 9.36453L5.57281 8.55899" stroke="black" stroke-width="2" stroke-linejoin="round"/>
</svg>
