<svg width="24" height="24" viewBox="0 0 24 24" fill="none" xmlns="http://www.w3.org/2000/svg">
<path fill-rule="evenodd" clip-rule="evenodd" d="M21.8322 2.44541C22.1385 2.90493 22.0143 3.5258 21.5548 3.83216L20.8351 4.31197C21.5788 5.71084 22.0001 7.30731 22.0001 9.00011C22.0001 14.1855 18.0534 18.449 13.0001 18.9507V20.0001H17.0001C17.5524 20.0001 18.0001 20.4478 18.0001 21.0001C18.0001 21.5524 17.5524 22.0001 17.0001 22.0001H7.00011C6.44782 22.0001 6.00011 21.5524 6.00011 21.0001C6.00011 20.4478 6.44782 20.0001 7.00011 20.0001H11.0001V18.9507C8.29641 18.6822 5.90993 17.3365 4.27583 15.3515L3.55481 15.8322C3.09528 16.1385 2.47441 16.0143 2.16806 15.5548C1.8617 15.0953 1.98588 14.4744 2.44541 14.1681L3.94541 13.1681C4.1183 13.0528 4.31403 12.9985 4.50725 13C4.83233 12.9976 5.15231 13.1535 5.34666 13.4438C6.78348 15.5903 9.22736 17.0001 12.0001 17.0001C16.4184 17.0001 20.0001 13.4184 20.0001 9.00011C20.0001 7.36297 19.5094 5.84349 18.6673 4.57697C18.551 4.40208 18.497 4.20393 18.5 4.00869C18.4975 3.6829 18.6541 3.36227 18.9454 3.16806L20.4454 2.16806C20.9049 1.8617 21.5258 1.98588 21.8322 2.44541ZM6.00011 9.00011C6.00011 5.6864 8.6864 3.00011 12.0001 3.00011C15.3138 3.00011 18.0001 5.6864 18.0001 9.00011C18.0001 12.3138 15.3138 15.0001 12.0001 15.0001C8.6864 15.0001 6.00011 12.3138 6.00011 9.00011Z" fill="black"/>
</svg>
