<svg width="24" height="24" viewBox="0 0 24 24" fill="none" xmlns="http://www.w3.org/2000/svg">
<path opacity="0.14" d="M9.45176 11.2467L12.9189 16.024C13.2442 16.4722 13.8367 16.6256 14.3345 16.3906C14.8324 16.1555 15.0971 15.5974 14.9671 15.057L13.5814 9.29696C13.2344 7.85463 11.6709 7.09429 10.3421 7.72167C9.0133 8.34905 8.58357 10.0505 9.45176 11.2467Z" fill="black"/>
<path d="M9.45176 11.2467L12.9189 16.024C13.2442 16.4722 13.8367 16.6256 14.3345 16.3906C14.8324 16.1555 15.0971 15.5974 14.9671 15.057L13.5814 9.29696C13.2344 7.85463 11.6709 7.09429 10.3421 7.72167C9.0133 8.34905 8.58357 10.0505 9.45176 11.2467Z" stroke="black" stroke-width="2" stroke-linecap="round" stroke-linejoin="round"/>
</svg>
