<svg width="24" height="24" viewBox="0 0 24 24" fill="none" xmlns="http://www.w3.org/2000/svg">
<path opacity="0.14" d="M14 5H10C8.89543 5 8 5.89543 8 7V11C8 12.1046 8.89543 13 10 13H14C15.1046 13 16 12.1046 16 11V7C16 5.89543 15.1046 5 14 5Z" fill="black"/>
<path d="M16 11V7C16 5.89543 15.1046 5 14 5H10C8.89543 5 8 5.89543 8 7V11C8 12.1046 8.89543 13 10 13H14C15.1046 13 16 12.1046 16 11ZM16 11V15C16 17.2091 14.2091 19 12 19H11" stroke="black" stroke-width="2" stroke-linecap="round" stroke-linejoin="round"/>
</svg>
