<svg width="24" height="24" viewBox="0 0 24 24" fill="none" xmlns="http://www.w3.org/2000/svg">
<path opacity="0.14" d="M14.5482 11.2467L11.0811 16.024C10.7558 16.4722 10.1633 16.6256 9.66547 16.3906C9.16764 16.1555 8.90287 15.5974 9.03287 15.057L10.4186 9.29696C10.7656 7.85463 12.3291 7.09429 13.6579 7.72167C14.9867 8.34905 15.4164 10.0505 14.5482 11.2467Z" fill="black"/>
<path d="M14.5482 11.2467L11.0811 16.024C10.7558 16.4722 10.1633 16.6256 9.66547 16.3906C9.16764 16.1555 8.90287 15.5974 9.03287 15.057L10.4186 9.29696C10.7656 7.85463 12.3291 7.09429 13.6579 7.72167C14.9867 8.34905 15.4164 10.0505 14.5482 11.2467Z" stroke="black" stroke-width="2" stroke-linecap="round" stroke-linejoin="round"/>
</svg>
