<svg width="24" height="24" viewBox="0 0 24 24" fill="none" xmlns="http://www.w3.org/2000/svg">
<g opacity="0.14">
<path d="M9.61082 9.8288L8.66335 15.5136C8.56848 16.0828 8.076 16.5 7.49895 16.5C6.92189 16.5 6.42942 16.0828 6.33455 15.5136L5.38708 9.8288C5.1839 8.60973 6.12399 7.5 7.35987 7.5H7.63803C8.87391 7.5 9.81399 8.60973 9.61082 9.8288Z" fill="black"/>
<path d="M18.6108 9.8288L17.6633 15.5136C17.5685 16.0828 17.076 16.5 16.4989 16.5C15.9219 16.5 15.4294 16.0828 15.3345 15.5136L14.3871 9.8288C14.1839 8.60973 15.124 7.5 16.3599 7.5H16.638C17.8739 7.5 18.814 8.60973 18.6108 9.8288Z" fill="black"/>
</g>
<path d="M9.61082 9.8288L8.66335 15.5136C8.56848 16.0828 8.076 16.5 7.49895 16.5C6.92189 16.5 6.42942 16.0828 6.33455 15.5136L5.38708 9.8288C5.1839 8.60973 6.12399 7.5 7.35987 7.5H7.63803C8.87391 7.5 9.81399 8.60973 9.61082 9.8288Z" stroke="black" stroke-width="2" stroke-linecap="round" stroke-linejoin="round"/>
<path d="M18.6108 9.8288L17.6633 15.5136C17.5685 16.0828 17.076 16.5 16.4989 16.5C15.9219 16.5 15.4294 16.0828 15.3345 15.5136L14.3871 9.8288C14.1839 8.60973 15.124 7.5 16.3599 7.5H16.638C17.8739 7.5 18.814 8.60973 18.6108 9.8288Z" stroke="black" stroke-width="2" stroke-linecap="round" stroke-linejoin="round"/>
</svg>
