<svg width="24" height="24" viewBox="0 0 24 24" fill="none" xmlns="http://www.w3.org/2000/svg">
<g opacity="0.14">
<path d="M21 14H19C18.4477 14 18 14.4477 18 15V17C18 17.5523 18.4477 18 19 18H21C21.5523 18 22 17.5523 22 17V15C22 14.4477 21.5523 14 21 14Z" fill="black"/>
<path d="M14 14H12C11.4477 14 11 14.4477 11 15V17C11 17.5523 11.4477 18 12 18H14C14.5523 18 15 17.5523 15 17V15C15 14.4477 14.5523 14 14 14Z" fill="black"/>
<path d="M3 10H5C5.55228 10 6 9.55228 6 9V7C6 6.44772 5.55228 6 5 6H3C2.44772 6 2 6.44772 2 7V9C2 9.55228 2.44772 10 3 10Z" fill="black"/>
<path d="M10 10H12C12.5523 10 13 9.55228 13 9V7C13 6.44772 12.5523 6 12 6H10C9.44772 6 9 6.44772 9 7V9C9 9.55228 9.44772 10 10 10Z" fill="black"/>
</g>
<path d="M22 17V15C22 14.4477 21.5523 14 21 14H19C18.4477 14 18 14.4477 18 15V17C18 17.5523 18.4477 18 19 18H21C21.5523 18 22 17.5523 22 17ZM22 17V19C22 20.1046 21.1046 21 20 21H19.5M15 17V15C15 14.4477 14.5523 14 14 14H12C11.4477 14 11 14.4477 11 15V17C11 17.5523 11.4477 18 12 18H14C14.5523 18 15 17.5523 15 17ZM15 17V19C15 20.1046 14.1046 21 13 21H12.5M2 7V9C2 9.55228 2.44772 10 3 10H5C5.55228 10 6 9.55228 6 9V7C6 6.44772 5.55228 6 5 6H3C2.44772 6 2 6.44772 2 7ZM2 7V5C2 3.89543 2.89543 3 4 3H4.5M9 7V9C9 9.55228 9.44772 10 10 10H12C12.5523 10 13 9.55228 13 9V7C13 6.44772 12.5523 6 12 6H10C9.44772 6 9 6.44772 9 7ZM9 7V5C9 3.89543 9.89543 3 11 3H11.5" stroke="black" stroke-width="2" stroke-linecap="round" stroke-linejoin="round"/>
</svg>
