<svg width="24" height="24" viewBox="0 0 24 24" fill="none" xmlns="http://www.w3.org/2000/svg">
<g opacity="0.14">
<path d="M20 5H16C14.8954 5 14 5.89543 14 7V11C14 12.1046 14.8954 13 16 13H20C21.1046 13 22 12.1046 22 11V7C22 5.89543 21.1046 5 20 5Z" fill="black"/>
<path d="M8 5H4C2.89543 5 2 5.89543 2 7V11C2 12.1046 2.89543 13 4 13H8C9.10457 13 10 12.1046 10 11V7C10 5.89543 9.10457 5 8 5Z" fill="black"/>
</g>
<path d="M22 11V7C22 5.89543 21.1046 5 20 5H16C14.8954 5 14 5.89543 14 7V11C14 12.1046 14.8954 13 16 13H20C21.1046 13 22 12.1046 22 11ZM22 11V15C22 17.2091 20.2091 19 18 19H17M10 11V7C10 5.89543 9.10457 5 8 5H4C2.89543 5 2 5.89543 2 7V11C2 12.1046 2.89543 13 4 13H8C9.10457 13 10 12.1046 10 11ZM10 11V15C10 17.2091 8.20914 19 6 19H5" stroke="black" stroke-width="2" stroke-linecap="round" stroke-linejoin="round"/>
</svg>
