<svg width="24" height="24" viewBox="0 0 24 24" fill="none" xmlns="http://www.w3.org/2000/svg">
<g opacity="0.14">
<path d="M4 19H8C9.10457 19 10 18.1046 10 17V13C10 11.8954 9.10457 11 8 11H4C2.89543 11 2 11.8954 2 13V17C2 18.1046 2.89543 19 4 19Z" fill="black"/>
<path d="M16 19H20C21.1046 19 22 18.1046 22 17V13C22 11.8954 21.1046 11 20 11H16C14.8954 11 14 11.8954 14 13V17C14 18.1046 14.8954 19 16 19Z" fill="black"/>
</g>
<path d="M2 13V17C2 18.1046 2.89543 19 4 19H8C9.10457 19 10 18.1046 10 17V13C10 11.8954 9.10457 11 8 11H4C2.89543 11 2 11.8954 2 13ZM2 13V9C2 6.79086 3.79086 5 6 5H7M14 13V17C14 18.1046 14.8954 19 16 19H20C21.1046 19 22 18.1046 22 17V13C22 11.8954 21.1046 11 20 11H16C14.8954 11 14 11.8954 14 13ZM14 13V9C14 6.79086 15.7909 5 18 5H19" stroke="black" stroke-width="2" stroke-linecap="round" stroke-linejoin="round"/>
</svg>
