<svg width="24" height="24" viewBox="0 0 24 24" fill="none" xmlns="http://www.w3.org/2000/svg">
<path opacity="0.14" d="M14.1108 9.8288L13.1633 15.5136C13.0685 16.0828 12.576 16.5 11.9989 16.5C11.4219 16.5 10.9294 16.0828 10.8346 15.5136L9.88708 9.8288C9.6839 8.60973 10.624 7.5 11.8599 7.5H12.138C13.3739 7.5 14.314 8.60973 14.1108 9.8288Z" fill="black"/>
<path d="M14.1108 9.8288L13.1633 15.5136C13.0685 16.0828 12.576 16.5 11.9989 16.5C11.4219 16.5 10.9294 16.0828 10.8346 15.5136L9.88708 9.8288C9.6839 8.60973 10.624 7.5 11.8599 7.5H12.138C13.3739 7.5 14.314 8.60973 14.1108 9.8288Z" stroke="black" stroke-width="2" stroke-linecap="round" stroke-linejoin="round"/>
</svg>
