<svg width="24" height="24" viewBox="0 0 24 24" fill="none" xmlns="http://www.w3.org/2000/svg">
<path opacity="0.4" d="M6.66692 4.54656C7.18904 5.01387 7.66176 5.53528 8.07633 6.1021C8.40236 6.54787 8.3053 7.17355 7.85952 7.49959C7.41374 7.82563 6.78806 7.72856 6.46202 7.28279C6.13007 6.82893 5.7514 6.41122 5.3331 6.03683L4.55394 5.32482C2.96594 7.09503 2 9.43471 2 12C2 14.562 2.96344 16.8989 4.54777 18.6683L5.3331 17.9632C5.75035 17.5898 6.12817 17.1732 6.45952 16.7207C6.78579 16.2751 7.41152 16.1783 7.85713 16.5046C8.30273 16.8309 8.39947 17.4566 8.07319 17.9022C7.65938 18.4674 7.18772 18.9873 6.66692 19.4535L6.02972 20.023C7.69592 21.2649 9.76211 22 12 22C14.2371 22 16.3026 21.2654 17.9684 20.0243L17.3331 19.4535C16.8123 18.9873 16.3406 18.4674 15.9268 17.9022C15.6006 17.4566 15.6973 16.8309 16.1429 16.5046C16.5885 16.1783 17.2142 16.2751 17.5405 16.7207C17.8719 17.1732 18.2497 17.5898 18.6669 17.9632L19.4526 18.6679C21.0367 16.8986 22 14.5618 22 12C22 9.43989 21.038 7.10447 19.4557 5.33555L18.6669 6.03683C18.2486 6.41123 17.8699 6.82893 17.538 7.28279C17.212 7.72856 16.5863 7.82563 16.1405 7.49959C15.6947 7.17355 15.5977 6.54787 15.9237 6.1021C16.3383 5.53528 16.811 5.01387 17.3331 4.54656L17.9644 3.97268C16.2993 2.73339 14.2353 2 12 2C9.76493 2 7.70113 2.73326 6.03602 3.97234L6.66692 4.54656Z" fill="black"/>
<path d="M17.5396 16.7207C17.2133 16.2751 16.5876 16.1784 16.142 16.5047C15.6964 16.831 15.5997 17.4567 15.9259 17.9023C16.3397 18.4675 16.8114 18.9874 17.3322 19.4535L17.9675 20.0244C18.2047 19.8477 18.4557 19.6412 18.676 19.4446C18.676 19.4446 19.2074 18.9408 19.4517 18.668L18.666 17.9633C18.2488 17.5898 17.871 17.1733 17.5396 16.7207Z" fill="black"/>
<path d="M8.07229 17.9023C8.39857 17.4567 8.30183 16.831 7.85623 16.5047C7.41062 16.1784 6.78489 16.2751 6.45862 16.7207C6.12727 17.1733 5.74945 17.5898 5.3322 17.9633L4.54688 18.6684C4.79124 18.9413 5.05038 19.2007 5.32303 19.4453C5.543 19.6416 5.79204 19.8466 6.02882 20.023L6.66602 19.4535C7.18682 18.9874 7.65848 18.4675 8.07229 17.9023Z" fill="black"/>
<path d="M9.78287 9.92287C9.66866 9.38252 9.13803 9.03707 8.59769 9.15129C8.05734 9.2655 7.71189 9.79612 7.82611 10.3365C7.93936 10.8723 7.99911 11.4287 7.99911 12.0001C7.99911 12.5712 7.93943 13.1272 7.82632 13.6627C7.71218 14.2031 8.0577 14.7336 8.59806 14.8478C9.13842 14.9619 9.669 14.6164 9.78314 14.076C9.92479 13.4055 9.99911 12.7109 9.99911 12.0001C9.99911 11.2888 9.92469 10.5938 9.78287 9.92287Z" fill="black"/>
<path d="M16.1721 10.3365C16.2863 9.79612 15.9409 9.2655 15.4005 9.15129C14.8602 9.03707 14.3296 9.38252 14.2153 9.92287C14.0735 10.5938 13.9991 11.2888 13.9991 12.0001C13.9991 12.7109 14.0734 13.4055 14.2151 14.076C14.3292 14.6164 14.8598 14.9619 15.4002 14.8478C15.9405 14.7336 16.286 14.2031 16.1719 13.6627C16.0588 13.1272 15.9991 12.5712 15.9991 12.0001C15.9991 11.4287 16.0589 10.8723 16.1721 10.3365Z" fill="black"/>
<path d="M8.07543 6.10217C7.66086 5.53536 7.18814 5.01394 6.66602 4.54664L6.03512 3.97241C5.79554 4.1507 5.56421 4.33946 5.34181 4.53801C5.07089 4.781 4.79605 5.054 4.55304 5.3249L5.3322 6.03691C5.7505 6.4113 6.12918 6.829 6.46113 7.28286C6.78716 7.72864 7.41284 7.8257 7.85862 7.49967C8.3044 7.17363 8.40147 6.54795 8.07543 6.10217Z" fill="black"/>
<path d="M17.5371 7.28286C17.869 6.829 18.2477 6.4113 18.666 6.03691L19.4548 5.33562C19.2092 5.06109 18.9487 4.8002 18.6745 4.55423C18.6683 4.54848 18.6619 4.54282 18.6556 4.53726C18.4336 4.33911 18.2027 4.15071 17.9635 3.97275L17.3322 4.54664C16.8101 5.01394 16.3374 5.53536 15.9228 6.10217C15.5968 6.54795 15.6938 7.17363 16.1396 7.49967C16.5854 7.8257 17.2111 7.72864 17.5371 7.28286Z" fill="black"/>
</svg>
