<svg width="24" height="24" viewBox="0 0 24 24" fill="none" xmlns="http://www.w3.org/2000/svg">
<path opacity="0.4" fill-rule="evenodd" clip-rule="evenodd" d="M2 12C2 6.47715 6.47715 2 12 2C17.5228 2 22 6.47715 22 12C22 17.5228 17.5228 22 12 22C6.47715 22 2 17.5228 2 12Z" fill="black"/>
<path fill-rule="evenodd" clip-rule="evenodd" d="M12.955 2.04501C12.9848 2.35933 13 2.67789 13 3C13 5.39467 12.1583 7.59275 10.7546 9.31451L10.743 9.32865L12.0002 10.5858L18.293 4.29301C18.3051 4.28097 18.3174 4.26929 18.3299 4.25799C18.8463 4.68069 19.3196 5.15403 19.7423 5.67044C19.7359 5.67751 19.7293 5.68451 19.7227 5.69144L19.7073 5.70723L13.4144 12L14.6714 13.257C16.3952 11.8463 18.5988 11 21 11C21.3221 11 21.6407 11.0152 21.955 11.045C21.9848 11.3593 22 11.6779 22 12C22 12.3564 21.9814 12.7085 21.945 13.0552C21.6351 13.0188 21.3197 13 21 13C19.1513 13 17.4491 13.6271 16.0944 14.6801L19.7073 18.2929C19.7193 18.3049 19.7309 18.3172 19.7422 18.3296C19.3195 18.846 18.8462 19.3194 18.3298 19.7421C18.3173 19.7308 18.3051 19.7191 18.293 19.7071L14.6802 16.0943C13.6271 17.449 13 19.1513 13 21C13 21.3197 13.0188 21.6351 13.0552 21.945C12.7085 21.9814 12.3564 22 12 22C11.6779 22 11.3593 21.9848 11.045 21.955C11.0152 21.6407 11 21.3221 11 21C11 18.5987 11.8464 16.3951 13.2571 14.6712L12.0002 13.4142L5.70725 19.7071C5.69518 19.7192 5.68288 19.7309 5.67036 19.7422C5.15396 19.3195 4.68063 18.8462 4.25793 18.3298C4.26926 18.3173 4.28097 18.305 4.29305 18.2929L10.586 12L9.32882 10.7429C7.60493 12.1536 5.40131 13 3 13C2.67789 13 2.35933 12.9848 2.04501 12.955C2.01523 12.6407 2 12.3221 2 12C2 11.6436 2.01865 11.2915 2.05501 10.9448C2.36493 10.9812 2.68028 11 3 11C4.65685 11 6.19607 10.4963 7.47288 9.63373C7.62075 9.53382 7.76511 9.4291 7.90573 9.31979L4.29304 5.70711C4.28097 5.69503 4.26926 5.68272 4.25793 5.67019C4.68063 5.15381 5.15396 4.68048 5.67036 4.2578C5.68288 4.26912 5.69519 4.28082 5.70726 4.29289L9.31992 7.90556C10.3729 6.55089 11 4.84867 11 3C11 2.68028 10.9812 2.36493 10.9448 2.05501C11.2915 2.01864 11.6436 2 12 2C12.3221 2 12.6407 2.01523 12.955 2.04501Z" fill="black"/>
</svg>
