<svg width="24" height="24" viewBox="0 0 24 24" fill="none" xmlns="http://www.w3.org/2000/svg">
<path opacity="0.3" fill-rule="evenodd" clip-rule="evenodd" d="M2 4C2 3.44772 2.44772 3 3 3H21C21.5523 3 22 3.44772 22 4V20C22 20.5523 21.5523 21 21 21H3C2.44772 21 2 20.5523 2 20V4Z" fill="black"/>
<path fill-rule="evenodd" clip-rule="evenodd" d="M11 3H13V21H11V3ZM2 7H4C6.76142 7 9 9.23858 9 12C9 14.7614 6.76142 17 4 17H2V15H4C5.65685 15 7 13.6569 7 12C7 10.3431 5.65685 9 4 9H2V7ZM20 9C18.3431 9 17 10.3431 17 12C17 13.6569 18.3431 15 20 15H22V17H20C17.2386 17 15 14.7614 15 12C15 9.23858 17.2386 7 20 7H22V9H20Z" fill="black"/>
</svg>
