<svg width="24" height="24" viewBox="0 0 24 24" fill="none" xmlns="http://www.w3.org/2000/svg">
<path opacity="0.3" fill-rule="evenodd" clip-rule="evenodd" d="M3.5 6C3.5 5.44772 3.94772 5 4.5 5H7C7.38645 5 7.73831 5.22267 7.90374 5.57191L9.76441 9.5H14.5514L13.0963 6.42809C12.9495 6.11829 12.9717 5.75492 13.155 5.46525C13.3383 5.17559 13.6572 5 14 5H18C19.6569 5 21 6.34315 21 8C21 8.55228 20.5523 9 20 9C19.4477 9 19 8.55228 19 8C19 7.44772 18.5523 7 18 7H15.5802L19.4037 15.0719C19.6402 15.571 19.4272 16.1673 18.9281 16.4037C18.429 16.6402 17.8327 16.4272 17.5963 15.9281L15.4987 11.5H10.7118L12.4037 15.0719C12.6402 15.571 12.4272 16.1673 11.9281 16.4037C11.429 16.6402 10.8327 16.4272 10.5963 15.9281L8.74909 12.0285L6.35749 16.0145C6.07334 16.4881 5.45908 16.6416 4.9855 16.3575C4.51192 16.0733 4.35836 15.4591 4.64251 14.9855L7.64251 9.9855C7.66749 9.94387 7.69524 9.90446 7.72544 9.86747L6.36717 7H4.5C3.94772 7 3.5 6.55228 3.5 6Z" fill="black"/>
<path fill-rule="evenodd" clip-rule="evenodd" d="M5.5 14C4.67157 14 4 14.6716 4 15.5C4 16.3284 4.67157 17 5.5 17C6.32843 17 7 16.3284 7 15.5C7 14.6716 6.32843 14 5.5 14ZM2 15.5C2 13.567 3.567 12 5.5 12C7.433 12 9 13.567 9 15.5C9 17.433 7.433 19 5.5 19C3.567 19 2 17.433 2 15.5ZM18.5 14C17.6716 14 17 14.6716 17 15.5C17 16.3284 17.6716 17 18.5 17C19.3284 17 20 16.3284 20 15.5C20 14.6716 19.3284 14 18.5 14ZM15 15.5C15 13.567 16.567 12 18.5 12C20.433 12 22 13.567 22 15.5C22 17.433 20.433 19 18.5 19C16.567 19 15 17.433 15 15.5Z" fill="black"/>
</svg>
