<svg width="24" height="24" viewBox="0 0 24 24" fill="none" xmlns="http://www.w3.org/2000/svg">
<circle opacity="0.3" cx="12" cy="12" r="10" fill="black"/>
<path fill-rule="evenodd" clip-rule="evenodd" d="M9 7C9 6.44772 9.44772 6 10 6H10.009C10.5613 6 11.009 6.44772 11.009 7C11.009 7.55228 10.5613 8 10.009 8H10C9.44772 8 9 7.55228 9 7ZM6 9C6 8.44772 6.44772 8 7 8H7.009C7.56128 8 8.009 8.44772 8.009 9C8.009 9.55228 7.56128 10 7.009 10H7C6.44772 10 6 9.55228 6 9ZM10 10C10 9.44772 10.4477 9 11 9H11.009C11.5613 9 12.009 9.44772 12.009 10C12.009 10.5523 11.5613 11 11.009 11H11C10.4477 11 10 10.5523 10 10Z" fill="black"/>
</svg>
