<svg width="24" height="24" viewBox="0 0 24 24" fill="none" xmlns="http://www.w3.org/2000/svg">
<g opacity="0.3">
<path d="M6.4997 2C5.15083 2 3.98948 2.95208 3.72494 4.27476L3.61717 4.81359C3.52655 5.26671 3.52655 5.73329 3.61717 6.18641L3.85666 7.38384C3.95179 7.85946 3.9997 8.34332 3.9997 8.82836C3.9997 9.51274 3.90431 10.1938 3.7163 10.8518L3.67397 11L2.85351 13.8716C2.26514 15.9309 2.35346 18.1247 3.10546 20.13L3.56337 21.3511C3.70973 21.7414 4.08285 22 4.4997 22H8.4997C8.91654 22 9.28966 21.7414 9.43603 21.3511L9.89393 20.13C10.6459 18.1247 10.7343 15.9309 10.1459 13.8716L9.32543 11L9.2831 10.8518C9.11081 10.2488 9.0163 9.62651 9.0017 9C9.00036 8.94282 8.9997 8.8856 8.9997 8.82836C8.9997 8.34332 9.04761 7.85947 9.14273 7.38385L9.38222 6.18641C9.47284 5.73329 9.47284 5.26671 9.38222 4.81359L9.27445 4.27475C9.00992 2.95208 7.84856 2 6.4997 2Z" fill="black"/>
<path d="M14.7249 4.27476C14.9895 2.95208 16.1508 2 17.4997 2C18.8486 2 20.0099 2.95208 20.2745 4.27475L20.3822 4.81359C20.4728 5.26671 20.4728 5.73329 20.3822 6.18641L20.1427 7.38385C20.0476 7.85947 19.9997 8.34332 19.9997 8.82836C19.9997 8.8856 20.0004 8.94282 20.0017 9C20.0163 9.62651 20.1108 10.2488 20.2831 10.8518L20.3254 11L21.1459 13.8716C21.7343 15.9309 21.6459 18.1247 20.8939 20.13L20.436 21.3511C20.2897 21.7414 19.9165 22 19.4997 22H15.4997C15.0829 22 14.7097 21.7414 14.5634 21.3511L14.1055 20.13C13.3535 18.1247 13.2651 15.9309 13.8535 13.8716L14.674 11L14.7163 10.8518C14.8886 10.2488 14.9831 9.62651 14.9977 9C14.999 8.94282 14.9997 8.8856 14.9997 8.82836C14.9997 8.34332 14.9518 7.85946 14.8567 7.38384L14.6172 6.18641C14.5266 5.73329 14.5266 5.26671 14.6172 4.81359L14.7249 4.27476Z" fill="black"/>
</g>
<path d="M14.9995 9C14.9849 9.62651 14.8904 10.2488 14.7181 10.8518L14.6758 11H20.3272L20.2849 10.8518C20.1126 10.2488 20.0181 9.62651 20.0035 9H14.9995Z" fill="black"/>
<path d="M9.28491 10.8518L9.32724 11H3.67578L3.71484 10.8519C3.88713 10.2488 3.98164 9.62651 3.99624 9H9.00351C9.01812 9.62651 9.11262 10.2488 9.28491 10.8518Z" fill="black"/>
</svg>
