<svg width="24" height="24" viewBox="0 0 24 24" fill="none" xmlns="http://www.w3.org/2000/svg">
<path opacity="0.3" fill-rule="evenodd" clip-rule="evenodd" d="M21.7057 2.29289C22.0962 2.68342 22.0962 3.31658 21.7057 3.70711L17.9126 7.50012L18.3572 7.94468C19.4872 9.07476 19.5326 10.8917 18.4621 12.0768L10.5939 21.0424L10.5823 21.0555C10.042 21.6498 9.29528 21.9773 8.52912 21.9996C8.10619 22.0119 7.67678 21.9313 7.27302 21.7519L6.89061 21.582C4.79655 20.6515 2.96102 18.6323 2.16579 16.5109C2.03689 16.1671 1.9828 15.8077 1.99884 15.4546C2.03036 14.7607 2.33302 14.0897 2.86876 13.6026L2.87617 13.5959L11.9188 5.53924C13.1039 4.46581 14.9231 4.51039 16.0542 5.64151L16.4985 6.08585L20.2914 2.29289C20.682 1.90237 21.3151 1.90237 21.7057 2.29289Z" fill="black"/>
<path fill-rule="evenodd" clip-rule="evenodd" d="M21.7074 2.29289C22.0979 2.68342 22.0979 3.31658 21.7074 3.70711L17.2074 8.20711C16.8169 8.59763 16.1837 8.59763 15.7932 8.20711C15.4027 7.81658 15.4027 7.18342 15.7932 6.79289L20.2932 2.29289C20.6837 1.90237 21.3169 1.90237 21.7074 2.29289Z" fill="black"/>
<path d="M11.3058 8.01227C11.3001 7.99429 11.2938 7.97636 11.287 7.95851L10.7573 6.57291L9.16016 7.99593L9.3983 8.61892C9.40404 8.6369 9.41032 8.65483 9.41714 8.67268L10.8828 12.5068C10.9892 12.7853 11.2145 13.0018 11.497 13.0972L16.1785 14.6774L17.6076 13.0489L12.5828 11.3528L11.3058 8.01227Z" fill="black"/>
</svg>
