<svg width="24" height="24" viewBox="0 0 24 24" fill="none" xmlns="http://www.w3.org/2000/svg">
<path d="M6 6C5.44772 6 5 6.44772 5 7V8H4C3.44772 8 3 8.44772 3 9V11V13V15C3 15.5523 3.44772 16 4 16H5V17C5 17.5523 5.44772 18 6 18H9C9.55228 18 10 17.5523 10 17V13V11V7C10 6.44772 9.55228 6 9 6H6Z" fill="black"/>
<path d="M14 13V17C14 17.5523 14.4477 18 15 18H18C18.5523 18 19 17.5523 19 17V16H20C20.5523 16 21 15.5523 21 15V13V11V9C21 8.44772 20.5523 8 20 8H19V7C19 6.44772 18.5523 6 18 6H15C14.4477 6 14 6.44772 14 7V11V13Z" fill="black"/>
<path opacity="0.3" fill-rule="evenodd" clip-rule="evenodd" d="M2 12C2 11.4477 2.44772 11 3 11L21 11C21.5523 11 22 11.4477 22 12C22 12.5523 21.5523 13 21 13L3 13C2.44772 13 2 12.5523 2 12Z" fill="black"/>
</svg>
