<svg width="24" height="24" viewBox="0 0 24 24" fill="none" xmlns="http://www.w3.org/2000/svg">
<path opacity="0.3" d="M17.5892 6.19199C17.2381 5.936 16.7619 5.936 16.4108 6.19199C15.8286 6.61652 14.7452 7.42544 13.8056 8.54447C12.8691 9.65978 12 11.173 12 13C12 14.9688 12.4722 16.2964 13.1009 17.2237C13.3584 17.6036 13.6491 17.915 13.9087 18.1572L12.2046 20.394C11.9742 20.6963 11.9352 21.1032 12.1039 21.4438C12.2726 21.7845 12.6199 22 13 22H21C21.3801 22 21.7274 21.7845 21.8961 21.4438C22.0648 21.1032 22.0258 20.6963 21.7954 20.394L20.0913 18.1572C20.3509 17.915 20.6416 17.6036 20.8991 17.2237C21.5278 16.2964 22 14.9688 22 13C22 11.173 21.1309 9.65978 20.1944 8.54447C19.2548 7.42544 18.1714 6.61652 17.5892 6.19199Z" fill="black"/>
<path fill-rule="evenodd" clip-rule="evenodd" d="M16 11C16 10.4477 16.4477 10 17 10H17.009C17.5613 10 18.009 10.4477 18.009 11C18.009 11.5523 17.5613 12 17.009 12H17C16.4477 12 16 11.5523 16 11Z" fill="black"/>
<path d="M11 4C8.23858 4 6 6.23858 6 9V11H7C7.55228 11 8 11.4477 8 12V21C8 21.5523 7.55228 22 7 22H3C2.44772 22 2 21.5523 2 21V12C2 11.4477 2.44772 11 3 11H4V9C4 5.13401 7.13401 2 11 2H17C17.5523 2 18 2.44772 18 3C18 3.55228 17.5523 4 17 4H11Z" fill="black"/>
</svg>
