<svg width="24" height="24" viewBox="0 0 24 24" fill="none" xmlns="http://www.w3.org/2000/svg">
<path fill-rule="evenodd" clip-rule="evenodd" d="M5 2C5.55228 2 6 2.44772 6 3V21C6 21.5523 5.55228 22 5 22C4.44772 22 4 21.5523 4 21V3C4 2.44772 4.44772 2 5 2Z" fill="black"/>
<path opacity="0.3" d="M5.33634 3.05826C5.03008 2.94889 4.68977 2.99526 4.42395 3.18259C4.15813 3.36992 4 3.67481 4 4.00001V14C4 14.3252 4.15813 14.6301 4.42395 14.8174C4.68977 15.0048 5.03008 15.0511 5.33634 14.9417L19.3363 9.94175C19.7343 9.79961 20 9.42262 20 9.00001C20 8.57739 19.7343 8.20041 19.3363 8.05826L5.33634 3.05826Z" fill="black"/>
</svg>
