<svg width="24" height="24" viewBox="0 0 24 24" fill="none" xmlns="http://www.w3.org/2000/svg">
<path opacity="0.3" d="M21.2425 2.75713C20.5401 2.05476 19.5559 1.92585 18.6394 2.03447C17.7087 2.14477 16.6609 2.51564 15.5762 3.05798C13.397 4.1476 10.8592 6.03573 8.4472 8.44769C6.03524 10.8596 4.14712 13.3974 3.0575 15.5767C2.51515 16.6614 2.14428 17.7092 2.03398 18.6399C1.92537 19.5564 2.05427 20.5406 2.75664 21.243C3.45902 21.9454 4.44329 22.0743 5.35974 21.9657C6.29044 21.8554 7.33827 21.4845 8.42297 20.9422C10.6022 19.8525 13.14 17.9644 15.552 15.5525C17.9639 13.1405 19.8521 10.6027 20.9417 8.42345C21.484 7.33876 21.8549 6.29093 21.9652 5.36023C22.0738 4.44378 21.9449 3.45951 21.2425 2.75713Z" fill="black"/>
<path d="M11.5807 11.5807C8.9617 14.1997 6.13087 15.6151 5.25787 14.7421C4.38487 13.8691 5.80028 11.0383 8.41929 8.41929C11.0383 5.80028 13.8691 4.38487 14.7421 5.25787C15.6151 6.13087 14.1997 8.9617 11.5807 11.5807Z" fill="black"/>
</svg>
