<svg width="24" height="24" viewBox="0 0 24 24" fill="none" xmlns="http://www.w3.org/2000/svg">
<path opacity="0.3" d="M3 2C2.44772 2 2 2.44772 2 3V10C2 16.6274 7.37258 22 14 22H21C21.5523 22 22 21.5523 22 21V14C22 7.37258 16.6274 2 10 2H3Z" fill="black"/>
<path fill-rule="evenodd" clip-rule="evenodd" d="M12.7088 9.70733C13.0993 9.31681 13.0993 8.68364 12.7088 8.29312C12.3183 7.90259 11.6851 7.90259 11.2946 8.29312L8.29458 11.2931C7.90406 11.6836 7.90406 12.3168 8.29458 12.7073C8.68511 13.0979 9.31827 13.0979 9.7088 12.7073L12.7088 9.70733ZM15.7088 11.2931C16.0993 11.6836 16.0993 12.3168 15.7088 12.7073L12.7088 15.7073C12.3183 16.0979 11.6851 16.0979 11.2946 15.7073C10.9041 15.3168 10.9041 14.6836 11.2946 14.2931L14.2946 11.2931C14.6851 10.9026 15.3183 10.9026 15.7088 11.2931Z" fill="black"/>
<path d="M2.09375 11.494C2.19253 12.2895 2.36918 13.0609 2.61584 13.8003L13.8018 2.61437C13.0624 2.36772 12.291 2.19106 11.4954 2.09229L2.09375 11.494Z" fill="black"/>
<path d="M21.9096 12.5065C21.8109 11.7109 21.6342 10.9395 21.3875 10.2002L10.2016 21.3861C10.941 21.6327 11.7124 21.8094 12.508 21.9082L21.9096 12.5065Z" fill="black"/>
</svg>
