<svg width="24" height="24" viewBox="0 0 24 24" fill="none" xmlns="http://www.w3.org/2000/svg">
<path opacity="0.3" fill-rule="evenodd" clip-rule="evenodd" d="M16 8C16.5523 8 17 8.44772 17 9H18C18.5523 9 19 9.44772 19 10C19 10.5523 18.5523 11 18 11H17V12.5H18C18.5523 12.5 19 12.9477 19 13.5C19 14.0523 18.5523 14.5 18 14.5H17V16H18C18.5523 16 19 16.4477 19 17C19 17.5523 18.5523 18 18 18H17C17 18.5523 16.5523 19 16 19C15.4477 19 15 18.5523 15 18H13C13 18.5523 12.5523 19 12 19C11.4477 19 11 18.5523 11 18H9C9 18.5523 8.55228 19 8 19C7.44772 19 7 18.5523 7 18H6C5.44772 18 5 17.5523 5 17C5 16.4477 5.44772 16 6 16H7V14.5H6C5.44772 14.5 5 14.0523 5 13.5C5 12.9477 5.44772 12.5 6 12.5H7V11H6C5.44772 11 5 10.5523 5 10C5 9.44772 5.44772 9 6 9H7C7 8.44772 7.44772 8 8 8C8.55228 8 9 8.44772 9 9H11C11 8.44772 11.4477 8 12 8C12.5523 8 13 8.44772 13 9H15C15 8.44772 15.4477 8 16 8ZM9 16H11V14.5H9V16ZM13 16H15V14.5H13V16ZM15 11V12.5H13V11H15ZM11 11V12.5H9V11H11Z" fill="black"/>
<path d="M2.29289 4.29289C2.48043 4.10536 2.73478 4 3 4H21C21.5523 4 22 4.44772 22 5V19C22 19.5523 21.5523 20 21 20C20.4477 20 20 19.5523 20 19V6H4V19C4 19.5523 3.55228 20 3 20C2.44772 20 2 19.5523 2 19V5C2 4.73478 2.10536 4.48043 2.29289 4.29289Z" fill="black"/>
</svg>
