<svg width="24" height="24" viewBox="0 0 24 24" fill="none" xmlns="http://www.w3.org/2000/svg">
<path opacity="0.3" d="M12 2C8.41015 2 5.5 4.91015 5.5 8.5C5.5 12.0899 8.41015 15 12 15C15.5899 15 18.5 12.0899 18.5 8.5C18.5 4.91015 15.5899 2 12 2Z" fill="black"/>
<path fill-rule="evenodd" clip-rule="evenodd" d="M13 9C13 8.44772 13.4477 8 14 8H14.009C14.5613 8 15.009 8.44772 15.009 9C15.009 9.55228 14.5613 10 14.009 10H14C13.4477 10 13 9.55228 13 9ZM11 11C11 10.4477 11.4477 10 12 10H12.009C12.5613 10 13.009 10.4477 13.009 11C13.009 11.5523 12.5613 12 12.009 12H12C11.4477 12 11 11.5523 11 11Z" fill="black"/>
<path d="M8 17C8 16.4477 8.44772 16 9 16H15C15.5523 16 16 16.4477 16 17C16 17.5523 15.5523 18 15 18H13V21C13 21.5523 12.5523 22 12 22C11.4477 22 11 21.5523 11 21V18H9C8.44772 18 8 17.5523 8 17Z" fill="black"/>
</svg>
