<svg width="24" height="24" viewBox="0 0 24 24" fill="none" xmlns="http://www.w3.org/2000/svg">
<path opacity="0.3" d="M5.73372 12.658C3.83876 12.1801 2 13.6126 2 15.5669V18.9998C2 20.6567 3.34315 21.9998 5 21.9998H11.7003C12.8858 21.9998 13.9602 21.3016 14.4417 20.2182L16.1029 16.4805C16.2227 16.2109 16.2174 15.9022 16.0884 15.6369C15.9593 15.3716 15.7197 15.1769 15.4337 15.1047L5.73372 12.658Z" fill="black"/>
<path fill-rule="evenodd" clip-rule="evenodd" d="M2 16.0002H6C6.55228 16.0002 7 16.448 7 17.0002C7 17.5525 6.55228 18.0002 6 18.0002H2V16.0002Z" fill="black"/>
<path d="M21.9141 3.40639C22.1384 2.9017 21.9111 2.31074 21.4064 2.08644C20.9017 1.86213 20.3107 2.08943 20.0864 2.59411L12.0864 20.5941L11.5 22.0002L11.6992 22.0003C12.8848 22.0003 13.9591 21.3021 14.4407 20.2188L21.9141 3.40639Z" fill="black"/>
</svg>
