<svg width="24" height="24" viewBox="0 0 24 24" fill="none" xmlns="http://www.w3.org/2000/svg">
<path opacity="0.3" d="M22.9138 2.40639C23.1381 1.9017 22.9108 1.31074 22.4061 1.08644C21.9015 0.862134 21.3105 1.08943 21.0862 1.59411L16.0168 13.0002L10 13.0002V21.0002H8V13.0002L6 13.0002C4.34315 13.0002 3 14.3434 3 16.0002V18.0002C3 19.6571 4.34315 21.0002 6 21.0002H12.7003C13.8858 21.0002 14.9602 20.302 15.4417 19.2187L22.9138 2.40639Z" fill="black"/>
<path d="M10 21.0002V13.0002H8V21.0002H10Z" fill="black"/>
<path d="M22.9141 2.40639C23.1384 1.9017 22.9111 1.31074 22.4064 1.08644C21.9017 0.862134 21.3107 1.08943 21.0864 1.59411L13.0864 19.5941L12.5 21.0002L12.6992 21.0003C13.8848 21.0003 14.9591 20.3021 15.4407 19.2188L22.9141 2.40639Z" fill="black"/>
</svg>
