<svg width="24" height="24" viewBox="0 0 24 24" fill="none" xmlns="http://www.w3.org/2000/svg">
<path opacity="0.3" d="M12 5C9.43715 5 7.07541 5.3448 5.31981 5.93C4.44724 6.22085 3.66896 6.58923 3.08829 7.04685C2.51889 7.49559 2 8.14805 2 9C2 9.85195 2.51889 10.5044 3.08829 10.9531C3.66896 11.4108 4.44724 11.7791 5.31981 12.07C7.07541 12.6552 9.43715 13 12 13C14.5629 13 16.9246 12.6552 18.6802 12.07C19.5528 11.7791 20.331 11.4108 20.9117 10.9531C21.4811 10.5044 22 9.85195 22 9C22 8.14805 21.4811 7.49559 20.9117 7.04685C20.331 6.58923 19.5528 6.22085 18.6802 5.93C16.9246 5.3448 14.5629 5 12 5Z" fill="black"/>
<path d="M2 15V9C2 9.85195 2.51889 10.5044 3.08829 10.9531C3.66896 11.4108 4.44724 11.7791 5.31981 12.07C7.07541 12.6552 9.43715 13 12 13C14.5629 13 16.9246 12.6552 18.6802 12.07C19.5528 11.7791 20.331 11.4108 20.9117 10.9531C21.4811 10.5044 22 9.85195 22 9V15C22 15.8519 21.4811 16.5044 20.9117 16.9531C20.331 17.4108 19.5528 17.7791 18.6802 18.07C16.9246 18.6552 14.5629 19 12 19C9.43715 19 7.07541 18.6552 5.31981 18.07C4.44724 17.7791 3.66896 17.4108 3.08829 16.9531C2.51889 16.5044 2 15.8519 2 15Z" fill="black"/>
</svg>
