<svg width="24" height="24" viewBox="0 0 24 24" fill="none" xmlns="http://www.w3.org/2000/svg">
<path opacity="0.3" d="M17.9741 6.0261C15.6177 3.66973 11.6743 4.15518 9.95977 7.0127L8.17391 9.98913C8.01823 10.2486 7.8313 10.488 7.61733 10.702L6.42655 11.8928C4.85782 13.4615 4.85782 16.0049 6.42655 17.5736C7.99528 19.1424 10.5387 19.1424 12.1074 17.5736L13.2982 16.3829C13.5122 16.1689 13.7516 15.982 14.0111 15.8263L16.9875 14.0404C19.845 12.3259 20.3305 8.38247 17.9741 6.0261Z" fill="black"/>
<path fill-rule="evenodd" clip-rule="evenodd" d="M7.70711 16.2929C8.09763 16.6834 8.09763 17.3166 7.70711 17.7071L3.70711 21.7071C3.31658 22.0976 2.68342 22.0976 2.29289 21.7071C1.90237 21.3166 1.90237 20.6834 2.29289 20.2929L6.29289 16.2929C6.68342 15.9024 7.31658 15.9024 7.70711 16.2929Z" fill="black"/>
</svg>
