<svg width="24" height="24" viewBox="0 0 24 24" fill="none" xmlns="http://www.w3.org/2000/svg">
<path opacity="0.3" fill-rule="evenodd" clip-rule="evenodd" d="M11.7071 12.2929C12.0976 12.6834 12.0976 13.3166 11.7071 13.7071L8.41421 17L8.70711 17.2929C9.09763 17.6834 9.09763 18.3166 8.70711 18.7071L5.70711 21.7071C5.31658 22.0976 4.68342 22.0976 4.29289 21.7071L2.29289 19.7071C1.90237 19.3166 1.90237 18.6834 2.29289 18.2929L5.29289 15.2929C5.68342 14.9024 6.31658 14.9024 6.70711 15.2929L7 15.5858L10.2929 12.2929C10.6834 11.9024 11.3166 11.9024 11.7071 12.2929Z" fill="black"/>
<path fill-rule="evenodd" clip-rule="evenodd" d="M15.8516 4.02497C14.5557 4.14961 13.2116 4.73752 12.2125 5.73667C10.1337 7.81547 10.0585 10.6538 11.5054 12.1006C12.216 12.8112 13.3558 13.1596 14.6601 13.0342C15.956 12.9095 17.3001 12.3216 18.2993 11.3225C20.3781 9.24365 20.4532 6.40536 19.0063 4.95849C18.2958 4.24791 17.1559 3.89951 15.8516 4.02497ZM15.6601 2.03415C17.3859 1.86815 19.1785 2.30223 20.4206 3.54428C22.8789 6.00266 22.321 10.1292 19.7135 12.7367C18.3695 14.0807 16.5858 14.8582 14.8516 15.025C13.1258 15.191 11.3332 14.7569 10.0912 13.5148C7.63279 11.0565 8.19077 6.92994 10.7983 4.32245C12.1422 2.97846 13.9259 2.20096 15.6601 2.03415Z" fill="black"/>
</svg>
