<svg width="24" height="24" viewBox="0 0 24 24" fill="none" xmlns="http://www.w3.org/2000/svg">
<path opacity="0.3" d="M20.194 3.80522C18.5056 2.1168 16.037 1.70131 13.568 2.19511C11.0907 2.69057 8.48816 4.11332 6.30037 6.30111C4.11258 8.48889 2.68984 11.0915 2.19438 13.5687C1.70058 16.0378 2.11606 18.5063 3.80449 20.1947C5.49291 21.8832 7.96148 22.2987 10.4305 21.8049C12.9078 21.3094 15.5103 19.8866 17.6981 17.6989C19.8859 15.5111 21.3087 12.9085 21.8041 10.4312C22.2979 7.96221 21.8824 5.49364 20.194 3.80522Z" fill="black"/>
<path d="M20.1941 3.80518C19.5361 3.14725 18.6206 3.03663 17.7947 3.13549C16.9536 3.23617 16.0139 3.57052 15.05 4.05214C13.1123 5.02032 10.8667 6.68995 8.75098 8.80569C6.63529 10.9214 4.97826 13.1543 4.02313 15.0804C3.54795 16.0386 3.22038 16.9728 3.12565 17.8103C3.03236 18.6349 3.15122 19.5414 3.80454 20.1947C4.45787 20.848 5.36434 20.9669 6.18898 20.8736C7.02642 20.7789 7.96065 20.4513 8.91887 19.9761C10.845 19.021 13.0779 17.364 15.1936 15.2483C17.3093 13.1325 18.9789 10.887 19.9471 8.94924C20.4287 7.98531 20.7631 7.0456 20.8638 6.20452C20.9626 5.37865 20.852 4.46311 20.1941 3.80518Z" fill="black"/>
</svg>
