<svg width="24" height="24" viewBox="0 0 24 24" fill="none" xmlns="http://www.w3.org/2000/svg">
<path opacity="0.3" fill-rule="evenodd" clip-rule="evenodd" d="M10.0047 2C9.58414 2 9.20856 2.26307 9.06486 2.65826L5.14067 13.4498L3.30145 15.289C1.74768 16.8107 1.45867 19.2517 3.12884 20.9069C4.78258 22.558 7.20873 22.2103 8.71182 20.707L10.5549 18.864L21.3464 14.9398C21.7416 14.7961 22.0047 14.4205 22.0047 14V10C22.0047 9.44772 21.5569 9 21.0047 9H18.2854L18.9748 6.24254C19.06 5.90176 18.9601 5.54127 18.7118 5.29289C18.4634 5.04451 18.1029 4.94466 17.7621 5.02986L15.0047 5.71922V3C15.0047 2.44772 14.5569 2 14.0047 2H10.0047ZM15.1174 15.0768L10.2614 16.8426L9.41886 16L12.5666 12.8522L15.7163 11.5924L15.1174 15.0768ZM11.1524 11.438L8.00465 14.5858L7.16209 13.7432L8.92789 8.88726L12.4122 8.28858L11.1524 11.438Z" fill="black"/>
<path d="M15.1127 15.0768L10.2567 16.8426L9.41411 16L12.5619 12.8522L15.7115 11.5924L15.1127 15.0768Z" fill="black"/>
<path d="M11.1477 11.438L7.9999 14.5858L7.15734 13.7432L8.92314 8.88725L12.4074 8.28857L11.1477 11.438Z" fill="black"/>
<path d="M2.66016 16.0715C2.83965 15.7923 3.05339 15.5292 3.29863 15.289L4.00233 14.5853L9.41656 19.9995L8.70906 20.707C8.46881 20.9473 8.20497 21.1581 7.92448 21.3359L2.66016 16.0715Z" fill="black"/>
</svg>
