<svg width="24" height="24" viewBox="0 0 24 24" fill="none" xmlns="http://www.w3.org/2000/svg">
<path opacity="0.3" d="M14.1961 2.01937C14.7377 2.12768 15.0889 2.65451 14.9806 3.19606L14.6001 5.09852C14.5935 5.16571 14.5803 5.23095 14.5611 5.29357L13.1474 12.3622L20.3511 15.0636C20.7414 15.21 21 15.5831 21 15.9999V19.9999C21.5523 19.9999 22 20.4477 22 20.9999C22 21.5522 21.5523 21.9999 21 21.9999H3.00001C2.71317 21.9999 2.44015 21.8768 2.25033 21.6618C2.0605 21.4467 1.97215 21.1605 2.00773 20.8759L4.00773 4.87591C4.07152 4.3656 4.50928 3.99342 5.01172 3.99993L12.7802 3.99992L13.0194 2.80383C13.1277 2.26227 13.6546 1.91106 14.1961 2.01937Z" fill="black"/>
<path d="M8 9C8 8.44772 8.44772 8 9 8H14.0209L13.6209 10H9C8.44772 10 8 9.55228 8 9Z" fill="black"/>
<path d="M8 13C8 12.4477 8.44772 12 9 12H13.2209L13.1484 12.3623L17.5 14H9C8.44772 14 8 13.5523 8 13Z" fill="black"/>
<path d="M3 20C2.44772 20 2 20.4477 2 21C2 21.5523 2.44772 22 3 22H21C21.5523 22 22 21.5523 22 21C22 20.4477 21.5523 20 21 20H3Z" fill="black"/>
</svg>
