<svg width="24" height="24" viewBox="0 0 24 24" fill="none" xmlns="http://www.w3.org/2000/svg">
<path fill-rule="evenodd" clip-rule="evenodd" d="M12 22C10.9115 22 9.862 21.826 8.87816 21.5029C6.7952 20.8193 5.01555 19.4718 3.78898 17.7119C2.65974 16.0918 2 14.1213 2 12C2 11.9676 2.00015 11.9352 2.00046 11.9028C2.02309 9.53064 2.87279 7.35394 4.27394 5.65074C5.42552 4.25091 6.95118 3.16872 8.70011 2.55756C9.73455 2.19607 10.8454 2 12 2C13.0593 2 14.082 2.16505 15.0426 2.47157C17.1811 3.15391 19.0048 4.53455 20.2477 6.34376C21.353 7.95277 22 9.90233 22 12C22 12.154 21.9965 12.3073 21.9896 12.4597C21.9133 14.1443 21.4196 15.722 20.6095 17.0896C19.5241 18.9221 17.8704 20.3782 15.8892 21.2153C14.6924 21.7209 13.3775 22 12 22ZM13.9232 5.2704L14.9061 4.54393C16.2559 5.07049 17.429 5.95395 18.3081 7.07924L17.9095 8.2412L17.2881 9.87392C17.1324 10.283 17.2608 10.7458 17.605 11.0161L18.975 12.0919L18.9788 12.0949L19.9535 12.8681C19.8462 13.8645 19.556 14.8053 19.1173 15.6572L17.8791 15.8267L16.1414 16.0061C15.7188 16.0497 15.3699 16.3556 15.2713 16.7688L14.8972 18.3377L14.8921 18.36L14.6356 19.556C13.8113 19.8435 12.9249 20 12 20C11.2981 20 10.6189 19.91 9.97235 19.7412L9.58163 18.5776L9.07659 16.904C8.95014 16.485 8.56586 16.1969 8.12818 16.193L6.38756 16.1774L5.15811 16.1515C4.49452 15.0603 4.08562 13.7977 4.01202 12.4434L5.03738 11.7678L6.52604 10.8512C6.9046 10.6182 7.08383 10.1631 6.96593 9.7345L6.50231 8.04888L6.14002 6.55379C6.90757 5.72833 7.84676 5.06574 8.89975 4.62262L9.92472 5.32036L11.3507 6.33876C11.7069 6.59314 12.1871 6.58632 12.536 6.32191L13.9232 5.2704Z" fill="black"/>
<path d="M11.3999 8.20009C11.7555 7.9333 12.2445 7.9333 12.6001 8.20009L13.9985 9.24925L15.4285 10.255C15.7921 10.5108 15.9432 10.9759 15.7994 11.3965L15.2337 13.0507L14.719 14.7214C14.5882 15.1463 14.1925 15.4338 13.748 15.4269L12 15.4001L10.252 15.4269C9.80748 15.4338 9.41183 15.1463 9.28096 14.7214L8.76629 13.0507L8.20063 11.3965C8.05678 10.9759 8.2079 10.5108 8.57152 10.255L10.0015 9.24925L11.3999 8.20009Z" fill="black"/>
<path opacity="0.3" fill-rule="evenodd" clip-rule="evenodd" d="M14.9058 4.54395L13.9229 5.27042L12.5357 6.32193C12.1868 6.58633 11.7066 6.59316 11.3504 6.33878L9.92442 5.32038L8.89945 4.62264C7.84646 5.06575 6.90728 5.72835 6.13972 6.5538L6.50201 8.0489L6.96564 9.73452C7.08354 10.1632 6.9043 10.6182 6.52575 10.8513L5.03708 11.7678L4.01172 12.4434C4.08533 13.7978 4.49422 15.0604 5.15781 16.1515L6.38726 16.1774L8.12788 16.193C8.56557 16.1969 8.94984 16.485 9.07629 16.904L9.58133 18.5776L9.97205 19.7412C10.6186 19.91 11.2978 20 11.9997 20C12.9246 20 13.811 19.8435 14.6353 19.556L14.8918 18.36L14.8969 18.3377L15.271 16.7688C15.3696 16.3556 15.7185 16.0497 16.1411 16.0061L17.8788 15.8267L19.117 15.6572C19.5557 14.8053 19.8459 13.8645 19.9532 12.8682L18.9785 12.095L18.9747 12.0919L17.6047 11.0161C17.2605 10.7458 17.1321 10.283 17.2878 9.87394L17.9092 8.24122L18.3078 7.07925C17.4287 5.95397 16.2556 5.07051 14.9058 4.54395ZM12.5998 8.20011C12.2442 7.93332 11.7552 7.93332 11.3996 8.20011L10.0012 9.24927L8.57123 10.255C8.2076 10.5108 8.05648 10.9759 8.20033 11.3965L8.766 13.0507L9.28066 14.7215C9.41154 15.1463 9.80718 15.4338 10.2517 15.427L11.9997 15.4001L13.7477 15.427C14.1922 15.4338 14.5879 15.1463 14.7187 14.7215L15.2334 13.0507L15.7991 11.3965C15.9429 10.9759 15.7918 10.5108 15.4282 10.255L13.9982 9.24927L12.5998 8.20011Z" fill="black"/>
</svg>
