<svg width="24" height="24" viewBox="0 0 24 24" fill="none" xmlns="http://www.w3.org/2000/svg">
<g opacity="0.3">
<path d="M20.9829 22C20.7332 21.9955 20.4849 21.8978 20.2942 21.7071L16.1105 17.5234C15.4116 18.5044 15.0013 19.7037 15.0013 21V22H20.9829Z" fill="black"/>
<path d="M13.0013 21C13.0013 19.1518 13.629 17.4487 14.6815 16.0944L12.0012 13.4141L6.25249 19.163C8.10428 20.7304 10.4391 21.7474 13.0013 21.9589V21Z" fill="black"/>
<path d="M18.4866 6.92893L13.4155 11.9999L16.0957 14.6802C17.45 13.6277 19.153 13 21.0013 13H21.9602C21.7487 10.4377 20.7317 8.10297 19.1643 6.25118L18.4866 6.92893Z" fill="black"/>
<path d="M21.0013 15C19.7051 15 18.5058 15.4102 17.5247 16.1092L21.7084 20.2929C21.8931 20.4776 21.9902 20.7166 22 20.9586L22.0013 15H21.0013Z" fill="black"/>
<path d="M11.0013 3C11.0013 4.84829 10.3736 6.55131 9.32113 7.90559L12.0012 10.5857L17.0724 5.51471L17.7501 4.83697C15.8984 3.26963 13.5636 2.25265 11.0013 2.04111V3Z" fill="black"/>
<path d="M5.51579 17.0709L10.587 11.9999L7.90691 9.3198C6.55263 10.3723 4.84962 11 3.00133 11H2.04243C2.25396 13.5622 3.2709 15.8969 4.83818 17.7487L5.51579 17.0709Z" fill="black"/>
<path d="M2.00133 3V9L3.00133 9C4.29759 9 5.49687 8.58974 6.47795 7.89083L2.29422 3.70711C2.09904 3.51193 2.00141 3.25581 2.00133 3Z" fill="black"/>
<path d="M3.00133 2C3.25725 2 3.51317 2.09763 3.70843 2.29289L7.89216 6.47662C8.59107 5.49554 9.00133 4.29626 9.00133 3V2H3.00133Z" fill="black"/>
</g>
<path d="M2 9V10C2 10.3367 2.01388 10.6703 2.04111 11H3C4.84829 11 6.55131 10.3723 7.90559 9.3198L10.5857 11.9999L5.51447 17.0709L4.83685 17.7487C5.05254 18.0035 5.27864 18.2492 5.51451 18.4851C5.75046 18.721 5.99624 18.9472 6.25116 19.163L11.9999 13.4141L14.6802 16.0944C13.6277 17.4487 13 19.1518 13 21V21.9589C13.3297 21.9861 13.6633 22 14 22H15V21C15 19.7037 15.4103 18.5044 16.1092 17.5234L20.2929 21.7071C20.4836 21.8978 20.7319 21.9955 20.9816 22H20.9987C21.2746 22 21.5248 21.8882 21.7061 21.7074C21.7564 21.6572 21.8001 21.6029 21.8375 21.5457C21.9397 21.3888 21.9987 21.2013 21.9987 21L21.9987 20.9586C21.9889 20.7166 21.8918 20.4776 21.7071 20.2929L17.5234 16.1092C18.5045 15.4102 19.7038 15 21 15H22V14C22 13.6633 21.9861 13.3297 21.9589 13H21C19.1516 13 17.4487 13.6277 16.0944 14.6802L13.4141 11.9999L18.4853 6.92893L19.163 6.25118C18.9473 5.99632 18.7212 5.75061 18.4853 5.51471C18.2494 5.27882 18.0037 5.05268 17.7488 4.83697L17.0711 5.51471L11.9999 10.5857L9.3198 7.90559C10.3723 6.55131 11 4.84829 11 3V2.04111C10.6703 2.01388 10.3367 2 10 2H9V3C9 4.29626 8.58974 5.49554 7.89083 6.47662L3.70711 2.29289C3.31658 1.90237 2.68276 1.90303 2.29223 2.29356C2.11166 2.47447 2 2.72419 2 3C2.00008 3.25581 2.09771 3.51193 2.29289 3.70711L6.47662 7.89083C5.49554 8.58974 4.29626 9 3 9L2 9Z" fill="black"/>
</svg>
