<svg width="24" height="24" viewBox="0 0 24 24" fill="none" xmlns="http://www.w3.org/2000/svg">
<path opacity="0.3" d="M6.25508 4.23405C7.80548 2.73347 9.89197 1.96959 12.0155 2.00015C14.5488 2.0366 17.0415 2.62615 19.2082 4.79289C21.3808 6.96538 22.0011 9.83741 22.0011 12.0001C22.0011 14.2212 21.2962 16.1976 19.699 17.7164L17.7082 19.7071C17.8958 19.5196 18.0011 19.2652 18.0011 19C18.0011 18.7348 17.8958 18.4804 17.7082 18.2929L5.70824 6.29289C5.52064 6.10529 5.26618 5.99993 5.00087 6C4.73556 6.00007 4.48115 6.10557 4.29365 6.29327L4.28516 6.30178L6.22632 4.26304C6.23571 4.25318 6.2453 4.24352 6.25508 4.23405Z" fill="black"/>
<path d="M5.70711 6.29289C5.5195 6.10529 5.26504 5.99993 4.99973 6C4.73442 6.00007 4.48001 6.10557 4.29251 6.29327L2.79419 7.79321C2.169 8.41866 2.02907 9.19445 2.00384 9.78574C1.98903 10.1329 2.01495 10.547 2.11874 10.9573C2.22081 11.3608 2.41628 11.8304 2.79289 12.207L4.37868 13.7928C4.7692 14.1834 4.7692 14.8165 4.37868 15.207L2.29289 17.2928C2.10533 17.4804 1.99997 17.7348 2 18C2.00003 18.2653 2.10544 18.5197 2.29304 18.7072L5.29304 21.7059C5.68354 22.0963 6.31649 22.0963 6.70698 21.7059L8.79277 19.6209C9.18331 19.2305 9.81638 19.2305 10.2069 19.621L11.7929 21.207C12.1689 21.5831 12.6379 21.7791 13.0414 21.8817C13.4516 21.9861 13.866 22.0126 14.2142 21.9978C14.8056 21.9725 15.5816 21.8326 16.2071 21.207L17.7071 19.7071C17.8946 19.5196 18 19.2652 18 19C18 18.7348 17.8946 18.4804 17.7071 18.2929L5.70711 6.29289Z" fill="black"/>
</svg>
