<svg width="24" height="24" viewBox="0 0 24 24" fill="none" xmlns="http://www.w3.org/2000/svg">
<g opacity="0.3">
<path d="M11.5011 2.01221C9.11154 2.13083 6.75404 3.1029 4.92818 4.92876C3.10279 6.75416 2.13075 9.11091 2.01172 11.4998H3.01489C3.03333 11.4998 3.05178 11.5003 3.0702 11.5014C5.26588 11.623 7.49941 10.8465 9.17441 9.17145C10.8492 7.49665 11.6243 5.26493 11.5026 3.06894C11.5016 3.05053 11.5011 3.03208 11.5011 3.01363V2.01221Z" fill="black"/>
<path d="M2.11181 13.4998C2.41962 15.5383 3.35874 17.5015 4.92818 19.0709C6.49803 20.6407 8.46177 21.5799 10.5009 21.8875L10.4993 21.0016L10.4994 20.9809C10.3652 18.2604 11.3398 15.4926 13.4183 13.4141C15.5053 11.3271 18.284 10.3563 21.0142 10.4998H21.8867C21.5789 8.46131 20.6397 6.49819 19.0703 4.92876C17.5013 3.35979 15.5389 2.42077 13.5011 2.11267V2.98668C13.6445 5.7161 12.6762 8.49811 10.5886 10.5857C8.50127 12.673 5.71766 13.6433 2.98793 13.4998H2.11181Z" fill="black"/>
<path d="M21.9868 12.4998H20.9873C20.9688 12.4998 20.9504 12.4993 20.9319 12.4983C18.7368 12.3767 16.5079 13.153 14.8325 14.8283C13.1568 16.504 12.378 18.736 12.4995 20.9307C12.5017 20.9697 12.5016 21.0083 12.4993 21.0463L12.5011 21.9873C14.8893 21.8678 17.2454 20.8958 19.0703 19.0709C20.8957 17.2455 21.8678 14.8887 21.9868 12.4998Z" fill="black"/>
</g>
<path d="M2.01246 11.5H3.01562C3.03407 11.5 3.05252 11.5005 3.07094 11.5015C5.26662 11.6231 7.50014 10.8466 9.17515 9.17161C10.8499 7.49681 11.625 5.26509 11.5033 3.0691C11.5023 3.05069 11.5018 3.03224 11.5018 3.01379V2.01237C11.8528 1.99494 12.2044 1.99593 12.5552 2.01533C12.8718 2.03283 13.1877 2.06533 13.5018 2.11283V2.98684C13.6453 5.71626 12.6769 8.49827 10.5894 10.5858C8.50201 12.6732 5.7184 13.6435 2.98867 13.5H2.11255C2.06521 13.1865 2.0328 12.8711 2.01533 12.5552C1.9959 12.2038 1.99494 11.8516 2.01246 11.5Z" fill="black"/>
<path d="M12.5018 21.9874C12.1496 22.005 11.7967 22.0041 11.4448 21.9846C11.1294 21.9672 10.8146 21.9349 10.5016 21.8877L10.5 21.0018L10.5002 20.981C10.3659 18.2606 11.3406 15.4927 13.419 13.4143C15.506 11.3273 18.2847 10.3565 21.015 10.5H21.8874C21.9348 10.8135 21.9672 11.1288 21.9846 11.4448C22.0041 11.7961 22.005 12.1484 21.9875 12.5H20.988C20.9696 12.5 20.9511 12.4995 20.9327 12.4984C18.7375 12.3768 16.5086 13.1531 14.8332 14.8285C13.1575 16.5042 12.3787 18.7362 12.5003 20.9309C12.5024 20.9698 12.5023 21.0084 12.5001 21.0465L12.5018 21.9874Z" fill="black"/>
</svg>
