<svg width="24" height="24" viewBox="0 0 24 24" fill="none" xmlns="http://www.w3.org/2000/svg">
<path opacity="0.3" d="M12 2C9.81078 2 7.7832 2.70465 6.13557 3.89929C3.63173 5.71476 2 8.66686 2 12C2 13.8775 2.51837 15.637 3.42037 17.1398C5.16676 20.0493 8.35508 22 12 22C17.5228 22 22 17.5228 22 12C22 6.47715 17.5228 2 12 2Z" fill="black"/>
<path d="M6.76291 3.47939L10.3083 6.2075C10.4368 6.30633 10.5393 6.4349 10.607 6.58214L12.6651 11.0565L15.9186 11.3523L13.6551 6.07098L9.82216 2.23797C10.5234 2.08217 11.2521 2 11.9997 2C12.141 2 12.2815 2.00293 12.4213 2.00873L15.2055 4.79294C15.2955 4.8829 15.3675 4.98919 15.4176 5.10613L18.0279 11.1968L21.7243 9.65945C21.8829 10.3207 21.9758 11.0076 21.9957 11.7127L21.3344 11.9877L17.8824 13.4234C17.7325 13.4857 17.5696 13.5106 17.4079 13.4959L12.4706 13.0471L10.5159 15.7119L16.8237 16.4719L21.7913 14.0409C21.5919 15.0026 21.2544 15.9136 20.8005 16.7524L17.4372 18.3983C17.2638 18.4831 17.0696 18.516 16.878 18.4929L9.6355 17.6203L9.49718 20.0498L9.49681 20.0569L9.48249 20.3449L9.40757 21.6607C8.7223 21.4772 8.0661 21.2228 7.44731 20.9059L7.48531 20.2383L7.48569 20.2312L7.50001 19.9432L7.69926 16.4432C7.71024 16.2502 7.77695 16.0645 7.8913 15.9086L10.844 11.8832L9.47492 8.90694L5.93219 13.4291L4.829 18.9698C4.2921 18.4176 3.81857 17.8036 3.4201 17.1398C3.35208 17.0265 3.28625 16.9117 3.22266 16.7955L4.01724 12.8048C4.04784 12.6511 4.11414 12.5067 4.21079 12.3833L8.28921 7.1774L5.12227 4.74052C5.44086 4.43858 5.77926 4.15744 6.1353 3.89929C6.33884 3.75171 6.54818 3.61161 6.76291 3.47939Z" fill="black"/>
</svg>
