<svg width="24" height="24" viewBox="0 0 24 24" fill="none" xmlns="http://www.w3.org/2000/svg">
<path fill-rule="evenodd" clip-rule="evenodd" d="M12 5C11.4477 5 11 5.44772 11 6C11 6.55228 11.4477 7 12 7C12.5523 7 13 6.55228 13 6C13 5.44772 12.5523 5 12 5ZM9 6C9 4.34315 10.3431 3 12 3C13.6569 3 15 4.34315 15 6C15 7.65685 13.6569 9 12 9C10.3431 9 9 7.65685 9 6Z" fill="black"/>
<path opacity="0.3" d="M18 7H14.8293H9.17071H6.00001C5.54114 7 5.14116 7.3123 5.02987 7.75746L2.02987 19.7575C1.95518 20.0562 2.0223 20.3727 2.2118 20.6154C2.40131 20.8581 2.69207 21 3.00001 21H21C21.3079 21 21.5987 20.8581 21.7882 20.6154C21.9777 20.3727 22.0448 20.0562 21.9702 19.7575L18.9702 7.75746C18.8589 7.3123 18.4589 7 18 7Z" fill="black"/>
</svg>
