<svg width="24" height="24" viewBox="0 0 24 24" fill="none" xmlns="http://www.w3.org/2000/svg">
<path opacity="0.3" d="M16.4425 6.19959C16.8288 5.80496 16.8221 5.17183 16.4275 4.78546C16.0329 4.39908 15.3998 4.40578 15.0134 4.80041L2.28546 17.8004C2.09749 17.9924 2.00255 18.2408 2.00005 18.4898C2.00002 18.4932 2 18.4966 2 18.5C2 18.6396 2.02861 18.7726 2.08029 18.8933C2.1258 18.9998 2.19063 19.1 2.27472 19.1885C2.29396 19.2087 2.31405 19.2282 2.33493 19.2468C2.41756 19.3205 2.50942 19.3781 2.60646 19.4196C2.72724 19.4713 2.86027 19.5 3 19.5H21C21.5523 19.5 22 19.0523 22 18.5C22 17.9477 21.5523 17.5 21 17.5H5.37855L16.4425 6.19959Z" fill="black"/>
<path fill-rule="evenodd" clip-rule="evenodd" d="M15.027 4.78546C15.4216 4.39908 16.0547 4.40578 16.4411 4.80041C16.8846 5.2534 17.3062 5.72863 17.7042 6.22432C18.0499 6.65498 17.9811 7.28439 17.5504 7.63015C17.1198 7.97591 16.4904 7.90708 16.1446 7.47642C15.7877 7.03181 15.4096 6.60567 15.012 6.19959C14.6256 5.80496 14.6323 5.17183 15.027 4.78546ZM18.418 8.95638C18.9073 8.70019 19.5116 8.88915 19.7678 9.37842C20.3507 10.4919 20.8304 11.6702 21.1935 12.8999C21.3499 13.4296 21.0473 13.9858 20.5177 14.1422C19.988 14.2986 19.4318 13.996 19.2754 13.4663C18.9494 12.3626 18.519 11.3052 17.9959 10.3061C17.7398 9.81687 17.9287 9.21256 18.418 8.95638ZM20.8197 15.7111C21.3696 15.659 21.8575 16.0625 21.9096 16.6123C21.9685 17.2337 21.9986 17.8634 21.9986 18.5C21.9986 19.0523 21.5509 19.5 20.9986 19.5C20.4464 19.5 19.9986 19.0523 19.9986 18.5C19.9986 17.9265 19.9715 17.3598 19.9186 16.801C19.8664 16.2512 20.2699 15.7632 20.8197 15.7111Z" fill="black"/>
</svg>
