<svg width="24" height="24" viewBox="0 0 24 24" fill="none" xmlns="http://www.w3.org/2000/svg">
<path opacity="0.3" d="M4 3C4 2.44772 3.55228 2 3 2C2.44772 2 2 2.44772 2 3V21C2 21.5523 2.44772 22 3 22H21C21.5523 22 22 21.5523 22 21C22 20.4477 21.5523 20 21 20H4V3Z" fill="black"/>
<path d="M21 21C21 20.4044 20.9711 19.8155 20.9145 19.2347M3 3C3.59442 3 4.18212 3.02881 4.76176 3.08512M20.2303 15.7762C19.8857 14.6382 19.4315 13.5479 18.88 12.5174M16.916 9.58227C16.1676 8.67125 15.3316 7.83502 14.4207 7.08649M11.483 5.12027C10.455 4.56996 9.36736 4.11656 8.23227 3.77227" stroke="black" stroke-width="2" stroke-linecap="round"/>
</svg>
