<svg width="24" height="24" viewBox="0 0 24 24" fill="none" xmlns="http://www.w3.org/2000/svg">
<g opacity="0.3">
<path d="M14.576 13.9791C14.954 14.2565 15.6759 14.2164 16.0337 14.1754C16.0814 14.1699 16.1283 14.1613 16.1746 14.1488C16.4801 14.0661 17.7324 13.6815 18.707 12.707C19.8308 11.5831 20.1272 10.2967 20.1628 10.1246L20.1707 10.0852C20.2879 9.51196 20.283 8.94818 19.9831 8.57666L22.1961 9.01925C22.6635 9.11273 23 9.52315 23 9.99983C23 13.8658 19.8659 16.9998 15.9999 16.9998C15.5233 16.9998 15.1129 16.6634 15.0194 16.1959L14.576 13.9791Z" fill="black"/>
<path d="M3.29274 20.2927L2.70696 19.707C2.31643 19.3164 2.31643 18.6833 2.70696 18.2927L17.2927 3.70696C17.6833 3.31643 18.3164 3.31643 18.707 3.70696L19.2927 4.29274C19.6833 4.68327 19.6833 5.31643 19.2927 5.70696L4.70696 20.2927C4.31643 20.6833 3.68327 20.6833 3.29274 20.2927Z" fill="black"/>
</g>
<path d="M14.2071 2.79289C13.8166 2.40237 13.1834 2.40237 12.7929 2.79289L8.79289 6.79289C8.40237 7.18342 8.40237 7.81658 8.79289 8.20711L14.5 13.9142C14.8482 14.2624 15.6503 14.2195 16.0339 14.1755C16.0816 14.1701 16.1284 14.1615 16.1748 14.1489C16.4802 14.0663 17.7326 13.6816 18.7071 12.7071C19.831 11.5833 20.1274 10.2968 20.1629 10.1247L20.1709 10.0854C20.2965 9.47105 20.2818 8.86761 19.9142 8.5L14.2071 2.79289Z" fill="black"/>
</svg>
