<svg width="24" height="24" viewBox="0 0 24 24" fill="none" xmlns="http://www.w3.org/2000/svg">
<path opacity="0.3" d="M4.00001 8C3.69901 8 3.41403 8.13558 3.22414 8.36911C3.03424 8.60264 2.95964 8.90929 3.02103 9.20395L5.18934 19.6119C5.47917 21.003 6.70526 22 8.12628 22H15.8737C17.2948 22 18.5209 21.003 18.8107 19.6119L20.979 9.20395C21.0404 8.90929 20.9658 8.60264 20.7759 8.36911C20.586 8.13558 20.301 8 20 8H4.00001Z" fill="black"/>
<path fill-rule="evenodd" clip-rule="evenodd" d="M19 8H21C21.5523 8 22 8.44772 22 9C22 9.55228 21.5523 10 21 10H3C2.44772 10 2 9.55228 2 9C2 8.44772 2.44772 8 3 8H5C5 4.68629 7.68629 2 11 2H13C16.3137 2 19 4.68629 19 8ZM11 4C8.79086 4 7 5.79086 7 8H17C17 5.79086 15.2091 4 13 4H11Z" fill="black"/>
</svg>
