<svg width="24" height="24" viewBox="0 0 24 24" fill="none" xmlns="http://www.w3.org/2000/svg">
<path opacity="0.3" fill-rule="evenodd" clip-rule="evenodd" d="M6 3C6 2.44772 6.44772 2 7 2H12C12.3952 2 12.7533 2.23273 12.9138 2.59386L16.9138 11.5939C16.9706 11.7217 17 11.8601 17 12V14.7578C16.285 14.2791 15.4251 14 14.5 14C12.0147 14 10 16.0147 10 18.5C10 18.669 10.0093 18.8358 10.0275 19H8.99601L9 18.5C9 16.0147 6.98528 14 4.5 14C3.08637 14 1.82498 14.6518 1 15.6713V9C1 8.44772 1.44772 8 2 8H6V3ZM11.3333 11H14.4612L11.3501 4H8V8.5L11.3333 11Z" fill="black"/>
<path fill-rule="evenodd" clip-rule="evenodd" d="M11.4689 16.7493C12.0725 15.7057 13.2032 15 14.5 15C16.433 15 18 16.567 18 18.5C18 20.433 16.433 22 14.5 22C12.567 22 11 20.433 11 18.5C11 17.8642 11.1705 17.2651 11.4689 16.7493Z" fill="black"/>
<path d="M20 3C20 2.44772 19.5523 2 19 2C18.4477 2 18 2.44772 18 3V16C18 16.5523 18.4477 17 19 17H22C22.5523 17 23 16.5523 23 16C23 15.4477 22.5523 15 22 15H20V3Z" fill="black"/>
<path fill-rule="evenodd" clip-rule="evenodd" d="M1 18.5C1 16.567 2.567 15 4.5 15C5.79675 15 6.92749 15.7057 7.53115 16.7493C7.82954 17.2651 8 17.8642 8 18.5C8 20.433 6.433 22 4.5 22C2.567 22 1 20.433 1 18.5Z" fill="black"/>
</svg>
