<svg width="24" height="24" viewBox="0 0 24 24" fill="none" xmlns="http://www.w3.org/2000/svg">
<path opacity="0.3" fill-rule="evenodd" clip-rule="evenodd" d="M3 2C2.44772 2 2 2.44772 2 3V21C2 21.5523 2.44772 22 3 22H14C14.5523 22 15 21.5523 15 21V13H21C21.5523 13 22 12.5523 22 12V3C22 2.44772 21.5523 2 21 2H3ZM17 11H15V7H17V11ZM13 11V7H11V11H13ZM7 7H9V11H7V7ZM7 13H9V17H7V13ZM13 17H11V13H13V17Z" fill="black"/>
<path fill-rule="evenodd" clip-rule="evenodd" d="M6 5C5.44772 5 5 5.44772 5 6V18C5 18.5523 5.44772 19 6 19H15V13H19V6C19 5.44772 18.5523 5 18 5H6ZM7 17V13H9V17H7ZM7 11H9V7H7V11ZM11 17V13H13V17H11ZM11 11H13V7H11V11ZM17 11H15V7H17V11Z" fill="black"/>
<path d="M19.7598 14.3498C19.5698 14.1278 19.2922 14 19 14C18.7078 14 18.4302 14.1278 18.2402 14.3498L18.2396 14.3506L18.2343 14.3568L18.2196 14.3741L18.1662 14.4374C18.1207 14.4918 18.0559 14.5696 17.9776 14.6654C17.8214 14.8566 17.609 15.1221 17.3858 15.4177C17.1639 15.7116 16.9244 16.0445 16.7173 16.3692C16.5203 16.678 16.3124 17.0406 16.1978 17.3804C16.0691 17.7619 16 18.1737 16 18.6C16 20.2993 17.1802 22 19 22C20.8198 22 22 20.2993 22 18.6C22 18.1737 21.9308 17.7619 21.8022 17.3804C21.6876 17.0406 21.4797 16.678 21.2827 16.3692C21.0756 16.0445 20.8361 15.7116 20.6142 15.4177C20.391 15.1221 20.1786 14.8566 20.0224 14.6654C19.9441 14.5696 19.8793 14.4918 19.8338 14.4374L19.7604 14.3506L19.7598 14.3498Z" fill="black"/>
</svg>
