<svg width="24" height="24" viewBox="0 0 24 24" fill="none" xmlns="http://www.w3.org/2000/svg">
<path opacity="0.3" fill-rule="evenodd" clip-rule="evenodd" d="M3 2C2.44772 2 2 2.44772 2 3V21C2 21.5523 2.44772 22 3 22H21C21.5523 22 22 21.5523 22 21V3C22 2.44772 21.5523 2 21 2H3ZM15 7H17V11H15V7ZM15 13H17V17H15V13ZM13 13V17H11V13H13ZM9 13V17H7V13H9ZM9 11H7V7H9V11ZM11 11V7H13V11H11Z" fill="black"/>
<path fill-rule="evenodd" clip-rule="evenodd" d="M6 5C5.44772 5 5 5.44772 5 6V18C5 18.5523 5.44772 19 6 19H18C18.5523 19 19 18.5523 19 18V6C19 5.44772 18.5523 5 18 5H6ZM13 7H11V11H13V7ZM15 11V7H17V11H15ZM13 13H11V17H13V13ZM15 17V13H17V17H15ZM9 17V13H7V17H9ZM9 11V7H7V11H9Z" fill="black"/>
</svg>
