<svg width="24" height="24" viewBox="0 0 24 24" fill="none" xmlns="http://www.w3.org/2000/svg">
<path opacity="0.3" d="M16.1602 4.74577C14.4007 2.98631 11.6153 2.78835 9.62466 4.2813L8.4 5.19979C8.14037 5.39452 7.99138 5.70313 8.00039 6.02754C8.00939 6.35195 8.17527 6.65182 8.4453 6.83184L11 8.53498V9.58558C11 10.116 11.2107 10.6247 11.5858 10.9998L13.2929 12.7069C13.4325 12.8465 13.6103 12.9416 13.8039 12.9803L16.007 13.421L17.1166 14.5306C16.9157 14.9086 16.9744 15.3884 17.2929 15.7069C17.6834 16.0974 18.3166 16.0974 18.7071 15.7069L21.2025 13.2114L21.2071 13.2069L21.2116 13.2023L21.7071 12.7069C22.0976 12.3163 22.0976 11.6832 21.7071 11.2927C21.3886 10.9742 20.9088 10.9154 20.5308 11.1164L19.4212 10.0068L19.0993 8.39747C18.9832 7.8167 18.6977 7.2833 18.2789 6.8645L16.1602 4.74577Z" fill="black"/>
<path d="M11 9.5332V9.58562C11 10.1161 11.2107 10.6248 11.5858 10.9998L13.2929 12.7069C13.4325 12.8465 13.6103 12.9417 13.8039 12.9804L14.3854 13.0967L7.97028 20.7496C6.71859 22.3027 4.395 22.4284 2.98323 21.0166C1.57145 19.6048 1.69706 17.2812 3.25019 16.0295L11 9.5332Z" fill="black"/>
</svg>
