<svg width="24" height="24" viewBox="0 0 24 24" fill="none" xmlns="http://www.w3.org/2000/svg">
<path opacity="0.3" d="M9.06577 5.48938C9.29147 4.63216 10.0719 4 11 4H13C13.9281 4 14.7085 4.63216 14.9342 5.48938C14.9771 5.65238 15 5.82353 15 6.00001V10.5C15 10.7762 15.2239 11 15.5 11C15.7761 11 16 10.7762 16 10.5V5.93577C18.9631 7.40831 21 10.4653 21 13.9999V15C21 15.5523 20.5523 16 20 16H4.27698H4C3.44772 16 3 15.5523 3 15V13.9999C3 10.4653 5.03689 7.40831 8 5.93577V10.5C8 10.7762 8.22386 11 8.5 11C8.77614 11 9 10.7762 9 10.5V6.00001C9 5.82353 9.02286 5.65238 9.06577 5.48938Z" fill="black"/>
<path d="M3 14.3916C2.39651 14.8011 2 15.4928 2 16.2771C2 17.1477 2.52037 17.7964 3.11352 18.2341C3.70507 18.6706 4.49233 18.9979 5.3613 19.2462C7.11148 19.7463 9.46254 20.0001 12 20.0001C14.5375 20.0001 16.8885 19.7463 18.6387 19.2462C19.5077 18.9979 20.2949 18.6706 20.8865 18.2341C21.4796 17.7964 22 17.1477 22 16.2771C22 15.4928 21.6035 14.8011 21 14.3916V15.0001C21 15.5524 20.5523 16.0001 20 16.0001H4C3.44772 16.0001 3 15.5524 3 15.0001V14.3916Z" fill="black"/>
</svg>
