<svg width="24" height="24" viewBox="0 0 24 24" fill="none" xmlns="http://www.w3.org/2000/svg">
<g opacity="0.3">
<path fill-rule="evenodd" clip-rule="evenodd" d="M11 4C6.58172 4 3 7.58172 3 12C3 16.4183 6.58172 20 11 20C12.279 20 13.4852 19.7006 14.555 19.169C15.0495 18.9232 15.6497 19.1249 15.8955 19.6194C16.1413 20.114 15.9396 20.7142 15.445 20.96C14.1049 21.626 12.5947 22 11 22C5.47715 22 1 17.5228 1 12C1 6.47715 5.47715 2 11 2C14.8713 2 18.2271 4.20013 19.8883 7.41358C20.599 8.78843 21 10.3489 21 12V16.5C21 17.0523 20.5523 17.5 20 17.5C19.4477 17.5 19 17.0523 19 16.5V12C19 10.6759 18.6791 9.42964 18.1117 8.33201C16.7804 5.75676 14.0945 4 11 4Z" fill="black"/>
<path fill-rule="evenodd" clip-rule="evenodd" d="M11 7.5C8.51472 7.5 6.5 9.51472 6.5 12C6.5 14.4853 8.51472 16.5 11 16.5C13.4853 16.5 15.5 14.4853 15.5 12C15.5 9.51472 13.4853 7.5 11 7.5ZM4.5 12C4.5 8.41015 7.41015 5.5 11 5.5C14.5899 5.5 17.5 8.41015 17.5 12C17.5 15.5899 14.5899 18.5 11 18.5C7.41015 18.5 4.5 15.5899 4.5 12Z" fill="black"/>
<path fill-rule="evenodd" clip-rule="evenodd" d="M11 11C10.4477 11 10 11.4477 10 12C10 12.5523 10.4477 13 11 13C11.5523 13 12 12.5523 12 12C12 11.4477 11.5523 11 11 11ZM8 12C8 10.3431 9.34315 9 11 9C12.6569 9 14 10.3431 14 12C14 13.6569 12.6569 15 11 15C9.34315 15 8 13.6569 8 12Z" fill="black"/>
</g>
<path d="M18 15.5C17.4477 15.5 17 15.9477 17 16.5C17 16.9083 17.2447 17.2595 17.5955 17.4148L17.9046 20.1965C17.6591 20.3787 17.5 20.6708 17.5 21C17.5 21.5523 17.9477 22 18.5 22H21.5C22.0523 22 22.5 21.5523 22.5 21C22.5 20.6708 22.3409 20.3787 22.0954 20.1965L22.4045 17.4148C22.7553 17.2595 23 16.9083 23 16.5C23 15.9477 22.5523 15.5 22 15.5H18Z" fill="black"/>
</svg>
