<svg width="24" height="24" viewBox="0 0 24 24" fill="none" xmlns="http://www.w3.org/2000/svg">
<g opacity="0.3">
<path d="M13.0003 3C11.8957 3 11.0003 3.89543 11.0003 5C11.0003 6.10457 11.8957 7 13.0003 7C14.1048 7 15.0003 6.10457 15.0003 5C15.0003 3.89543 14.1048 3 13.0003 3Z" fill="black"/>
<path d="M11.9359 9.70359L12.8482 13.5147L15.6574 14.5355L3.34181 10.0602L4.70106 10.5541L5.23663 9.21524C5.77182 7.87731 7.06764 7 8.50864 7C10.1389 7 11.5563 8.11816 11.9359 9.70359Z" fill="black"/>
<path d="M3.07179 14.6286C3.25751 14.1643 3.75766 13.9086 4.2428 14.0299L8.2428 15.0299C8.68797 15.1411 9.00027 15.5411 9.00027 16V20C9.00027 20.5523 8.55255 21 8.00027 21C7.44798 21 7.00027 20.5523 7.00027 20V16.7808L4.60456 16.1818L2.92874 20.3714C2.72363 20.8842 2.14166 21.1336 1.62888 20.9285C1.11609 20.7234 0.866676 20.1414 1.07179 19.6286L3.07179 14.6286Z" fill="black"/>
</g>
<path d="M3.34181 10.0604C2.82274 9.87178 2.24903 10.1397 2.0604 10.6587C1.87178 11.1778 2.13966 11.7515 2.65873 11.9401L12.899 15.6614C12.6645 15.7262 12.4583 15.8754 12.3236 16.0853L10.1586 19.4603C9.96115 19.7681 9.94743 20.159 10.1228 20.4799C10.2982 20.8007 10.6346 21.0003 11.0003 21.0003H22.0003C22.3659 21.0003 22.7024 20.8007 22.8777 20.4799C23.0531 20.159 23.0394 19.7681 22.842 19.4603L18.5118 12.7103C18.3279 12.4236 18.0107 12.2503 17.6701 12.2503C17.3295 12.2503 17.0123 12.4236 16.8284 12.7103L15.6574 14.5358L3.34181 10.0604Z" fill="black"/>
</svg>
