<svg width="24" height="24" viewBox="0 0 24 24" fill="none" xmlns="http://www.w3.org/2000/svg">
<g opacity="0.3">
<path d="M20 3H4V6C4 6.55228 4.44772 7 5 7H19C19.5523 7 20 6.55228 20 6V3Z" fill="black"/>
<path d="M4 9C4 8.44772 4.44772 8 5 8H19C19.5523 8 20 8.44772 20 9C20 9.55228 19.5523 10 19 10H5C4.44772 10 4 9.55228 4 9Z" fill="black"/>
<path d="M5 11C4.44772 11 4 11.4477 4 12C4 12.5523 4.44772 13 5 13H21C21.5523 13 22 12.5523 22 12C22 11.4477 21.5523 11 21 11H5Z" fill="black"/>
<path d="M4 15C4 14.4477 4.44772 14 5 14H19C19.5523 14 20 14.4477 20 15C20 15.5523 19.5523 16 19 16H5C4.44772 16 4 15.5523 4 15Z" fill="black"/>
<path d="M5 17C4.44772 17 4 17.4477 4 18V21H20V18C20 17.4477 19.5523 17 19 17H5Z" fill="black"/>
</g>
<path fill-rule="evenodd" clip-rule="evenodd" d="M2 22C2 21.4477 2.44772 21 3 21H21C21.5523 21 22 21.4477 22 22C22 22.5523 21.5523 23 21 23H3C2.44772 23 2 22.5523 2 22Z" fill="black"/>
<path fill-rule="evenodd" clip-rule="evenodd" d="M2 2C2 1.44772 2.44772 1 3 1H21C21.5523 1 22 1.44772 22 2C22 2.55228 21.5523 3 21 3H3C2.44772 3 2 2.55228 2 2Z" fill="black"/>
</svg>
