<svg width="24" height="24" viewBox="0 0 24 24" fill="none" xmlns="http://www.w3.org/2000/svg">
<g opacity="0.3">
<path d="M8.34424 11.1727C8.34989 11.19 8.35562 11.2073 8.36141 11.2246L3.79312 15.7929C2.57417 17.0118 2.57417 18.9882 3.79312 20.2071C5.01207 21.4261 6.98838 21.4261 8.20733 20.2071L11.4021 17.0123C10.8612 16.0463 10.7395 14.9087 11.0371 13.8656L8.34424 11.1727Z" fill="black"/>
<path d="M19.8633 14.0349L17.9142 12.0858C16.818 10.9895 15.2577 10.64 13.8656 11.0371L11 8.17159V6.00002C11 5.37051 10.7036 4.77773 10.2 4.40002L9.91681 4.18761C11.1926 2.84038 12.9983 2 15.0002 2C16.0255 2 17.0019 2.22107 17.882 2.6191C18.1812 2.75439 18.3949 3.0279 18.4538 3.35089C18.5126 3.67388 18.4092 4.00521 18.1771 4.23736L14.5858 7.82867L14.8501 9.15016L16.1716 9.41446L19.7629 5.82315C19.995 5.59099 20.3263 5.48759 20.6493 5.54647C20.9723 5.60536 21.2458 5.81905 21.3811 6.1182C21.7792 6.99833 22.0002 7.9747 22.0002 9C22.0002 10.9767 21.1809 12.762 19.8633 14.0349Z" fill="black"/>
</g>
<path d="M5.60001 2.20001C5.20189 1.90142 4.6448 1.94101 4.2929 2.2929L2.2929 4.2929C1.94101 4.6448 1.90142 5.20189 2.20001 5.60001L5.20001 9.60001C5.38886 9.85182 5.68525 10 6.00001 10H8.5858L12.2015 13.6157C11.6241 14.7826 11.8213 16.2355 12.7929 17.2071L16.5858 21C17.3668 21.7811 18.6332 21.7811 19.4142 21L21 19.4142C21.7811 18.6332 21.7811 17.3668 21 16.5858L17.2071 12.7929C16.2355 11.8213 14.7826 11.6241 13.6157 12.2015L10 8.5858V6.00001C10 5.68525 9.85182 5.38886 9.60001 5.20001L5.60001 2.20001Z" fill="black"/>
</svg>
