<svg width="24" height="24" viewBox="0 0 24 24" fill="none" xmlns="http://www.w3.org/2000/svg">
<path d="M11.207 12.7931C9.98801 11.5742 8.01169 11.5742 6.79274 12.7931L2.99985 16.586C2.2188 17.3671 2.2188 18.6334 2.99985 19.4144L4.58564 21.0002C5.36668 21.7813 6.63301 21.7813 7.41406 21.0002L11.207 17.2073C12.4259 15.9884 12.4259 14.0121 11.207 12.7931Z" fill="black"/>
<path opacity="0.3" d="M19.7057 2.2929C19.3538 1.94101 18.7967 1.90142 18.3986 2.20001L14.3986 5.20001C14.1467 5.38886 13.9986 5.68525 13.9986 6.00001V8.58579L10.3828 12.2015C10.6798 12.3485 10.9582 12.5456 11.2055 12.7929C11.4529 13.0402 11.65 13.3187 11.797 13.6158L15.4128 10H17.9986C18.3133 10 18.6097 9.85182 18.7986 9.60001L21.7986 5.60001C22.0971 5.20189 22.0576 4.6448 21.7057 4.2929L19.7057 2.2929Z" fill="black"/>
</svg>
