<svg width="24" height="24" viewBox="0 0 24 24" fill="none" xmlns="http://www.w3.org/2000/svg">
<path opacity="0.3" fill-rule="evenodd" clip-rule="evenodd" d="M4 3C4 2.44772 4.44772 2 5 2H19C19.5523 2 20 2.44772 20 3V14H13.1C12.4925 14 12 14.4925 12 15.1V22H5C4.44772 22 4 21.5523 4 21V3ZM11.7071 6.70711C12.0976 6.31658 12.0976 5.68342 11.7071 5.29289C11.3166 4.90237 10.6834 4.90237 10.2929 5.29289L7.29289 8.29289C6.90237 8.68342 6.90237 9.31658 7.29289 9.70711C7.68342 10.0976 8.31658 10.0976 8.70711 9.70711L11.7071 6.70711ZM15.7071 6.70711C16.0976 6.31658 16.0976 5.68342 15.7071 5.29289C15.3166 4.90237 14.6834 4.90237 14.2929 5.29289L7.29289 12.2929C6.90237 12.6834 6.90237 13.3166 7.29289 13.7071C7.68342 14.0976 8.31658 14.0976 8.70711 13.7071L15.7071 6.70711Z" fill="black"/>
<path fill-rule="evenodd" clip-rule="evenodd" d="M11.7071 6.70711C12.0976 6.31658 12.0976 5.68342 11.7071 5.29289C11.3166 4.90237 10.6834 4.90237 10.2929 5.29289L7.29289 8.29289C6.90237 8.68342 6.90237 9.31658 7.29289 9.70711C7.68342 10.0976 8.31658 10.0976 8.70711 9.70711L11.7071 6.70711ZM15.7071 6.70711C16.0976 6.31658 16.0976 5.68342 15.7071 5.29289C15.3166 4.90237 14.6834 4.90237 14.2929 5.29289L7.29289 12.2929C6.90237 12.6834 6.90237 13.3166 7.29289 13.7071C7.68342 14.0976 8.31658 14.0976 8.70711 13.7071L15.7071 6.70711Z" fill="black"/>
<path d="M13.1 14H18H20V15C20 15.2652 19.8946 15.5196 19.7071 15.7071L13.7071 21.7071C13.5196 21.8946 13.2652 22 13 22H12V20.1338V15.1C12 14.4925 12.4925 14 13.1 14Z" fill="black"/>
</svg>
