<svg width="24" height="24" viewBox="0 0 24 24" fill="none" xmlns="http://www.w3.org/2000/svg">
<path opacity="0.3" d="M11.36 8.94761C10.621 8.20863 9.43766 8.16319 8.64418 8.84331L3.16718 13.5379C2.28263 14.2961 2.23075 15.6468 3.05455 16.4706L7.52737 20.9434C8.35116 21.7672 9.70191 21.7154 10.4601 20.8308L15.1547 15.3538C15.8348 14.5603 15.7893 13.377 15.0504 12.638L11.36 8.94761Z" fill="black"/>
<path fill-rule="evenodd" clip-rule="evenodd" d="M17.294 2.29289C17.6846 1.90237 18.3177 1.90237 18.7083 2.29289L21.7083 5.29289C22.0988 5.68342 22.0988 6.31658 21.7083 6.70711L20.2083 8.20711C19.2366 9.17879 17.7836 9.3759 16.6167 8.79843L13.9142 11.5009L12.5 10.0867L15.2026 7.38415C14.6253 6.21726 14.8224 4.76449 15.794 3.79289L17.294 2.29289ZM18.0012 4.41421L17.2083 5.20711C16.7704 5.64501 16.7704 6.35499 17.2083 6.79289C17.6462 7.2308 18.3561 7.2308 18.794 6.79289L19.5869 6L18.0012 4.41421Z" fill="black"/>
</svg>
