<svg width="24" height="24" viewBox="0 0 24 24" fill="none" xmlns="http://www.w3.org/2000/svg">
<path opacity="0.3" d="M8.41421 10.9998C7.63317 10.2188 6.36684 10.2188 5.58579 10.9998L3.46447 13.1212C2.52678 14.0589 2 15.3306 2 16.6567V19.9998C2 21.1044 2.89543 21.9998 4 21.9998H7.34315C8.66923 21.9998 9.941 21.4731 10.8787 20.5354L13 18.4141C13.7811 17.633 13.781 16.3667 13 15.5856L8.41421 10.9998Z" fill="black"/>
<path fill-rule="evenodd" clip-rule="evenodd" d="M17.0003 2C17.2656 2 17.5199 2.10536 17.7075 2.29289L21.7075 6.29289C22.098 6.68342 22.098 7.31658 21.7075 7.70711L19.7075 9.70711C18.4569 10.9576 16.5566 11.1622 15.0934 10.3208L11.4142 14L10 12.5858L13.6793 8.90653C12.8382 7.44345 13.0428 5.54329 14.2932 4.29289L16.2932 2.29289C16.4808 2.10536 16.7351 2 17.0003 2ZM17.0003 4.41421L15.7075 5.70711C14.9934 6.42115 14.9934 7.57885 15.7075 8.29289C16.4215 9.00694 17.5792 9.00694 18.2932 8.29289L19.5861 7L17.0003 4.41421Z" fill="black"/>
</svg>
