<svg width="24" height="24" viewBox="0 0 24 24" fill="none" xmlns="http://www.w3.org/2000/svg">
<path opacity="0.3" d="M5 3C5 2.44772 4.55228 2 4 2C3.44772 2 3 2.44772 3 3V4C1.89543 4 1 4.89543 1 6V16C1 17.1046 1.89543 18 3 18L3 21C3 21.5523 3.44772 22 4 22C4.55228 22 5 21.5523 5 21V18H11.2547C10.4638 16.8662 10 15.4872 10 14C10 10.134 13.134 7 17 7C18.4872 7 19.8662 7.46381 21 8.25469V6C21 4.89543 20.1046 4 19 4V3C19 2.44772 18.5523 2 18 2C17.4477 2 17 2.44772 17 3V4H5V3Z" fill="black"/>
<path d="M16 9.41602C16 9.07863 15.8299 8.76399 15.5476 8.57925C15.2652 8.39451 14.9088 8.36458 14.5996 8.49967C12.4826 9.42462 11 11.538 11 14C11 16.2222 12.2079 18.1604 14 19.197L14 22H20V19.197C21.7921 18.1604 23 16.2222 23 14C23 11.538 21.5174 9.42462 19.4004 8.49967C19.0912 8.36458 18.7348 8.39451 18.4524 8.57925C18.1701 8.76399 18 9.07863 18 9.41602V13C18 13.5523 17.5523 14 17 14C16.4477 14 16 13.5523 16 13V9.41602Z" fill="black"/>
</svg>
