<svg width="24" height="24" viewBox="0 0 24 24" fill="none" xmlns="http://www.w3.org/2000/svg">
<g opacity="0.3">
<path fill-rule="evenodd" clip-rule="evenodd" d="M5.5 12.5C5.5 11.9477 5.94772 11.5 6.5 11.5H6.509C7.06128 11.5 7.509 11.9477 7.509 12.5C7.509 13.0523 7.06128 13.5 6.509 13.5H6.5C5.94772 13.5 5.5 13.0523 5.5 12.5Z" fill="black"/>
<path fill-rule="evenodd" clip-rule="evenodd" d="M4 8C2.89543 8 2 8.89543 2 10V20C2 21.1046 2.89543 22 4 22H15H16C15.8644 22 15.7351 21.973 15.6172 21.9241C15.5001 21.8757 15.3904 21.804 15.295 21.7092L15.2908 21.705C15.196 21.6096 15.1243 21.4999 15.0759 21.3828C15.027 21.2649 15 21.1356 15 21V16C15 15.4477 15.4477 15 16 15H21C21.2751 15 21.5242 15.1111 21.705 15.2908L21.7092 15.295C21.8041 15.3904 21.8757 15.5001 21.9241 15.6172C21.973 15.7351 22 15.8644 22 16V15V10C22 8.89543 21.1046 8 20 8H16.5C16.2024 10.1642 14.3835 12 11.9988 12C9.61414 12 7.84062 10.1642 7.54298 8H4ZM6.5 11.5C5.94772 11.5 5.5 11.9477 5.5 12.5C5.5 13.0523 5.94772 13.5 6.5 13.5H6.509C7.06128 13.5 7.509 13.0523 7.509 12.5C7.509 11.9477 7.06128 11.5 6.509 11.5H6.5Z" fill="black"/>
</g>
<path d="M21.7092 16.705L16.705 21.7092L21.7092 16.705Z" fill="black"/>
<path d="M21.7092 15.295C21.8041 15.3904 21.8757 15.5001 21.9241 15.6172C21.973 15.7351 22 15.8644 22 16C22 16.1356 21.973 16.2649 21.9241 16.3828C21.8757 16.4999 21.8041 16.6096 21.7092 16.705L16.705 21.7092C16.6096 21.8041 16.4999 21.8757 16.3828 21.9241C16.2649 21.973 16.1356 22 16 22C15.8644 22 15.7351 21.973 15.6172 21.9241C15.5001 21.8757 15.3904 21.8041 15.295 21.7092L15.2908 21.705C15.196 21.6096 15.1243 21.4999 15.0759 21.3828C15.027 21.2649 15 21.1354 15 20.9998V16C15 15.4477 15.4477 15 16 15H21C21.2751 15 21.5242 15.1111 21.705 15.2908L21.7092 15.295Z" fill="black"/>
<path fill-rule="evenodd" clip-rule="evenodd" d="M5.5 12.5C5.5 11.9477 5.94772 11.5 6.5 11.5H6.509C7.06128 11.5 7.509 11.9477 7.509 12.5C7.509 13.0523 7.06128 13.5 6.509 13.5H6.5C5.94772 13.5 5.5 13.0523 5.5 12.5Z" fill="black"/>
<path d="M12.7371 2.32417C12.5477 2.11761 12.2803 2 12 2C11.7197 2 11.4523 2.11761 11.2629 2.32417L11.2616 2.32568C11.2448 2.34412 11.1992 2.3944 11.1717 2.42496C11.1152 2.48782 11.0349 2.578 10.9375 2.68916C10.7433 2.91097 10.4795 3.21881 10.2024 3.56132C9.92675 3.90216 9.63039 4.28673 9.37483 4.66062C9.13088 5.01754 8.87905 5.42887 8.74126 5.8101C8.58476 6.24312 8.5 6.71256 8.5 7.2C8.5 9.18911 9.96345 11 12 11C14.0365 11 15.5 9.18911 15.5 7.2C15.5 6.71256 15.4152 6.24312 15.2587 5.8101C15.121 5.42887 14.8691 5.01754 14.6252 4.66062C14.3696 4.28673 14.0733 3.90216 13.7976 3.56132C13.5205 3.21881 13.2567 2.91097 13.0625 2.68916C12.9651 2.578 12.8848 2.48782 12.8283 2.42496C12.8008 2.39436 12.7551 2.34399 12.7384 2.32561L12.7371 2.32417Z" fill="black"/>
</svg>
