<svg width="24" height="24" viewBox="0 0 24 24" fill="none" xmlns="http://www.w3.org/2000/svg">
<g opacity="0.3">
<path fill-rule="evenodd" clip-rule="evenodd" d="M5.5 9.5C5.5 8.94772 5.94772 8.5 6.5 8.5H6.509C7.06128 8.5 7.509 8.94772 7.509 9.5C7.509 10.0523 7.06128 10.5 6.509 10.5H6.5C5.94772 10.5 5.5 10.0523 5.5 9.5Z" fill="black"/>
<path fill-rule="evenodd" clip-rule="evenodd" d="M2 7C2 5.89543 2.89543 5 4 5H20C21.1046 5 22 5.89543 22 7V12V13C22 12.8644 21.973 12.7351 21.9241 12.6172C21.8757 12.5001 21.8041 12.3904 21.7092 12.295L21.705 12.2908C21.5242 12.1111 21.2751 12 21 12H16C15.4477 12 15 12.4477 15 13V18C15 18.1356 15.027 18.2649 15.0759 18.3828C15.1243 18.4999 15.196 18.6096 15.2908 18.705L15.295 18.7092C15.3904 18.804 15.5001 18.8757 15.6172 18.9241C15.7351 18.973 15.8644 19 16 19H15H4C2.89543 19 2 18.1046 2 17V7ZM5.5 9.5C5.5 8.94772 5.94772 8.5 6.5 8.5H6.509C7.06128 8.5 7.509 8.94772 7.509 9.5C7.509 10.0523 7.06128 10.5 6.509 10.5H6.5C5.94772 10.5 5.5 10.0523 5.5 9.5Z" fill="black"/>
</g>
<path d="M21.7092 13.705L16.705 18.7092L21.7092 13.705Z" fill="black"/>
<path d="M21.7092 12.295C21.8041 12.3904 21.8757 12.5001 21.9241 12.6172C21.973 12.7351 22 12.8644 22 13C22 13.1356 21.973 13.2649 21.9241 13.3828C21.8757 13.4999 21.8041 13.6096 21.7092 13.705L16.705 18.7092C16.6096 18.804 16.4999 18.8757 16.3828 18.9241C16.2649 18.973 16.1356 19 16 19C15.8644 19 15.7351 18.973 15.6172 18.9241C15.5001 18.8757 15.3904 18.804 15.295 18.7092L15.2908 18.705C15.196 18.6096 15.1243 18.4999 15.0759 18.3828C15.027 18.2649 15 18.1354 15 17.9998V13C15 12.4477 15.4477 12 16 12H21C21.2751 12 21.5242 12.1111 21.705 12.2908L21.7092 12.295Z" fill="black"/>
<path fill-rule="evenodd" clip-rule="evenodd" d="M5.5 9.5C5.5 8.94772 5.94772 8.5 6.5 8.5H6.509C7.06128 8.5 7.509 8.94772 7.509 9.5C7.509 10.0523 7.06128 10.5 6.509 10.5H6.5C5.94772 10.5 5.5 10.0523 5.5 9.5Z" fill="black"/>
</svg>
