<svg width="24" height="24" viewBox="0 0 24 24" fill="none" xmlns="http://www.w3.org/2000/svg">
<path opacity="0.3" d="M17.7071 7.70711C18.0977 7.31658 18.0977 6.68342 17.7071 6.29289C17.3166 5.90237 16.6834 5.90237 16.2929 6.29289L12 10.5858L8.70714 7.29289C8.46777 7.05353 8.12357 6.95151 7.79244 7.02178C7.4613 7.09206 7.1882 7.32508 7.06668 7.64102L2.06668 20.641C1.92482 21.0099 2.01348 21.4277 2.29292 21.7071C2.57236 21.9865 2.99016 22.0752 3.35901 21.9333L16.359 16.9333C16.675 16.8118 16.908 16.5387 16.9782 16.2076C17.0485 15.8765 16.9465 15.5323 16.7071 15.2929L13.4142 12L17.7071 7.70711Z" fill="black"/>
<path d="M21.7071 2.29304C20.7643 1.35024 19.2357 1.35023 18.2929 2.29304L15.2929 5.29304C14.9024 5.68357 14.9024 6.31673 15.2929 6.70726L17.2929 8.70726C17.4804 8.89479 17.7348 9.00015 18 9.00015C18.2652 9.00015 18.5196 8.89479 18.7071 8.70726L21.7071 5.70726C22.6499 4.76445 22.6499 3.23585 21.7071 2.29304Z" fill="black"/>
</svg>
