<svg width="24" height="24" viewBox="0 0 24 24" fill="none" xmlns="http://www.w3.org/2000/svg">
<path opacity="0.3" fill-rule="evenodd" clip-rule="evenodd" d="M13 15V8C13 6.34315 11.6569 5 10 5H4C2.34315 5 1 6.34315 1 8V13.3542C1.73294 12.5238 2.80531 12 4 12C4.94595 12 5.8152 12.3284 6.5 12.8773C7.1848 12.3284 8.05405 12 9 12C11.2091 12 13 13.7909 13 16C13 16.3453 12.9562 16.6804 12.874 17H14.126C14.0438 16.6804 14 16.3453 14 16C14 13.7909 15.7909 12 18 12C20.2091 12 22 13.7909 22 16C22 16.3453 21.9562 16.6804 21.874 17H22C22.5523 17 23 16.5523 23 16V10C23 9.78363 22.9298 9.5731 22.8 9.4L19.8 5.4C19.6111 5.14819 19.3148 5 19 5H15C14.4477 5 14 5.44772 14 6V15H13ZM16 10V7H18.5L21 10H16Z" fill="black"/>
<path d="M16 7V10H21L18.5 7H16Z" fill="black"/>
<path d="M4 13C2.34315 13 1 14.3431 1 16C1 17.6569 2.34315 19 4 19C5.04349 19 5.96254 18.4672 6.5 17.6589C7.03746 18.4672 7.95651 19 9 19C10.6569 19 12 17.6569 12 16C12 14.3431 10.6569 13 9 13C7.95651 13 7.03746 13.5328 6.5 14.3411C5.96254 13.5328 5.04349 13 4 13Z" fill="black"/>
<path d="M18 13C16.3431 13 15 14.3431 15 16C15 17.6569 16.3431 19 18 19C19.6569 19 21 17.6569 21 16C21 14.3431 19.6569 13 18 13Z" fill="black"/>
<path d="M6.25 9C6.25 8.44772 5.80228 8 5.25 8C4.69772 8 4.25 8.44772 4.25 9V11C4.25 11.5523 4.69772 12 5.25 12C5.80228 12 6.25 11.5523 6.25 11V9Z" fill="black"/>
<path d="M9.75 9C9.75 8.44772 9.30228 8 8.75 8C8.19772 8 7.75 8.44772 7.75 9V11C7.75 11.5523 8.19772 12 8.75 12C9.30228 12 9.75 11.5523 9.75 11V9Z" fill="black"/>
</svg>
