<svg width="24" height="24" viewBox="0 0 24 24" fill="none" xmlns="http://www.w3.org/2000/svg">
<path opacity="0.3" d="M15 2C11.134 2 8 5.13401 8 9C8 12.0882 10.0001 14.7092 12.7754 15.6388C13.4178 15.854 14.1012 15.9785 14.8096 15.9975C14.8729 15.9991 14.9364 16 15 16C18.866 16 22 12.866 22 9C22 8.32269 21.9038 7.66785 21.7243 7.04839C21.5361 6.39874 20.7304 6.26966 20.2521 6.74793L16.8786 10.1215C16.6422 10.3579 16.3033 10.4606 15.9754 10.395L14.6539 10.1307C14.258 10.0515 13.9486 9.7421 13.8694 9.34624L13.6051 8.02475C13.5396 7.69689 13.6422 7.35795 13.8786 7.12152L17.2521 3.74784C17.7303 3.26957 17.6012 2.46386 16.9516 2.27565C16.3321 2.09619 15.6773 2 15 2Z" fill="black"/>
<path d="M8.36141 11.2246L3.79312 15.7929C2.57417 17.0118 2.57417 18.9882 3.79312 20.2071C5.01207 21.4261 6.98838 21.4261 8.20733 20.2071L12.7756 15.6388C10.6992 14.9433 9.05693 13.301 8.36141 11.2246Z" fill="black"/>
</svg>
