<svg width="24" height="24" viewBox="0 0 24 24" fill="none" xmlns="http://www.w3.org/2000/svg">
<path opacity="0.3" d="M15.7684 2.44155C15.1681 2.1204 14.5 2.59907 14.5 3.27987V8.71708C14.5 8.89271 14.4079 9.05547 14.2572 9.14583L12.2572 10.3458C12.0989 10.4408 11.9011 10.4408 11.7428 10.3458L9.74275 9.14583C9.59215 9.05546 9.5 8.89271 9.5 8.71708V3.27987C9.5 2.59907 8.83187 2.1204 8.23158 2.44155C5.71325 3.78884 4 6.44443 4 9.50017C4 12.8576 6.06817 15.7319 9 16.9187C9.92643 17.2937 10.9391 17.5002 12 17.5002C13.0609 17.5002 14.0736 17.2937 15 16.9187C17.9318 15.7319 20 12.8576 20 9.50017C20 6.44443 18.2868 3.78884 15.7684 2.44155Z" fill="black"/>
<path d="M9 20.9999V16.9185C9.92643 17.2935 10.9391 17.5 12 17.5C13.0609 17.5 14.0736 17.2935 15 16.9185V20.9999C15 21.5522 14.5523 21.9999 14 21.9999H10C9.44772 21.9999 9 21.5522 9 20.9999Z" fill="black"/>
</svg>
