<svg width="24" height="24" viewBox="0 0 24 24" fill="none" xmlns="http://www.w3.org/2000/svg">
<path fill-rule="evenodd" clip-rule="evenodd" d="M12.4696 2.20173C12.1586 2.15248 11.8419 2.15248 11.531 2.20173C11.177 2.25779 10.8457 2.39538 10.4699 2.55144L6.40121 4.23676C6.02515 4.39212 5.69358 4.5291 5.40367 4.73973C5.14899 4.92477 4.92501 5.14874 4.73998 5.40343C4.52935 5.69333 4.39237 6.0249 4.23701 6.40096L2.55169 10.4697C2.39563 10.8455 2.25803 11.1768 2.20197 11.5307C2.15273 11.8416 2.15273 12.1584 2.20197 12.4693C2.25803 12.8232 2.39563 13.1546 2.55169 13.5303L4.237 17.5991C4.39237 17.9751 4.52935 18.3067 4.73998 18.5966C4.92501 18.8513 5.14899 19.0753 5.40367 19.2603C5.69357 19.4709 6.02512 19.6079 6.40117 19.7632L10.4699 21.4486C10.8457 21.6046 11.177 21.7422 11.531 21.7983C11.8419 21.8475 12.1586 21.8475 12.4696 21.7983C12.8235 21.7422 13.1548 21.6046 13.5306 21.4486L17.5993 19.7633C17.9753 19.6079 18.3069 19.4709 18.5968 19.2603C18.8515 19.0753 19.0755 18.8513 19.2605 18.5966C19.4712 18.3067 19.6081 17.9751 19.7635 17.5991L21.4488 13.5303C21.6049 13.1546 21.7425 12.8232 21.7985 12.4693C21.8478 12.1584 21.8478 11.8416 21.7985 11.5307C21.7425 11.1768 21.6049 10.8455 21.4488 10.4697L19.7635 6.40097C19.6081 6.02491 19.4712 5.69333 19.2605 5.40343C19.0755 5.14874 18.8515 4.92477 18.5968 4.73973C18.3069 4.5291 17.9754 4.39212 17.5993 4.23676L13.5306 2.55144C13.1548 2.39538 12.8235 2.25779 12.4696 2.20173ZM12 7C12.5523 7 13 7.44772 13 8V13C13 13.5523 12.5523 14 12 14C11.4477 14 11 13.5523 11 13V8C11 7.44772 11.4477 7 12 7ZM13 16C13 16.5523 12.5523 17 12 17C11.4477 17 11 16.5523 11 16C11 15.4477 11.4477 15 12 15C12.5523 15 13 15.4477 13 16Z" fill="black"/>
</svg>
