<svg width="24" height="24" viewBox="0 0 24 24" fill="none" xmlns="http://www.w3.org/2000/svg">
<path d="M11.9632 3.23062C11.7993 2.70321 11.2389 2.40852 10.7115 2.57241C10.1841 2.7363 9.88939 3.2967 10.0533 3.82411C10.2484 4.45193 10.2324 4.90272 10.1284 5.28385C10.0171 5.69238 9.78553 6.09539 9.42119 6.61062C9.10233 7.06156 9.20939 7.68561 9.66032 8.00447C10.1113 8.32334 10.7353 8.21628 11.0542 7.76534C11.4522 7.20253 11.8518 6.5665 12.058 5.80988C12.2718 5.02586 12.2599 4.18537 11.9632 3.23062Z" fill="black"/>
<path d="M17.3746 5.38659C17.4319 5.21047 17.5464 5.03215 17.7581 4.8913C17.9724 4.74873 18.3489 4.60382 18.9904 4.60973C19.5427 4.61482 19.9945 4.17125 19.9996 3.61899C20.0047 3.06673 19.5611 2.6149 19.0088 2.60981C18.0552 2.60102 17.2647 2.8174 16.6504 3.22608C16.0334 3.63647 15.6575 4.19935 15.4726 4.76832C15.3812 5.04931 15.3468 5.3544 15.3263 5.59841C15.3168 5.71132 15.3059 5.88253 15.2956 6.04426C15.2876 6.16932 15.28 6.2891 15.2737 6.3714C15.2333 6.89729 15.1632 7.30934 15.0057 7.61728C14.769 8.07999 13.958 8.56627 12.6262 8.60747C12.0741 8.62454 11.6405 9.08589 11.6576 9.63791C11.6746 10.1899 12.136 10.6236 12.688 10.6065C14.2827 10.5572 16.0492 9.96891 16.7862 8.52816C17.1379 7.84076 17.2249 7.08323 17.2678 6.52434C17.2811 6.35114 17.2883 6.22982 17.2949 6.1197C17.3017 6.00504 17.3078 5.90251 17.3193 5.76617C17.3381 5.54259 17.3593 5.43366 17.3746 5.38659Z" fill="black"/>
<path d="M7.00922 2.94933C6.45696 2.94424 6.00513 3.38781 6.00004 3.94007C5.99495 4.49233 6.43852 4.94415 6.99078 4.94924L7.00078 4.94934C7.55304 4.95443 8.00487 4.51086 8.00996 3.9586C8.01505 3.40634 7.57148 2.95451 7.01922 2.94942L7.00922 2.94933Z" fill="black"/>
<path d="M20.0092 6.61046C19.4569 6.60538 19.0051 7.04896 19 7.60122C18.995 8.15348 19.4385 8.60529 19.9908 8.61038L20.0008 8.61047C20.5531 8.61555 21.0049 8.17198 21.01 7.61971C21.015 7.06745 20.5715 6.61564 20.0192 6.61055L20.0092 6.61046Z" fill="black"/>
<path d="M19 10.1095C17.2105 10.1095 15.9564 10.7331 14.8763 11.8493C14.4922 12.2462 14.5026 12.8793 14.8995 13.2634C15.2964 13.6474 15.9294 13.637 16.3135 13.2401C17.0435 12.4858 17.7895 12.1095 19 12.1095C19.5523 12.1095 20 11.6617 20 11.1095C20 10.5572 19.5523 10.1095 19 10.1095Z" fill="black"/>
<path d="M19.0093 14.9601C18.457 14.955 18.0052 15.3985 18 15.9508C17.9949 16.503 18.4385 16.9549 18.9907 16.96L19.0007 16.9601C19.553 16.9652 20.0048 16.5216 20.01 15.9694C20.0151 15.4171 19.5715 14.9653 19.0193 14.9602L19.0093 14.9601Z" fill="black"/>
<path d="M6.84096 8.88474C7.17827 8.80512 7.53276 8.90582 7.77782 9.15088L14.8489 16.222C15.094 16.467 15.1947 16.8215 15.115 17.1588C15.0354 17.4961 14.7868 17.7681 14.458 17.8777L11.3331 18.9194L5.08038 12.6667L6.12203 9.54176C6.23163 9.21297 6.50366 8.96437 6.84096 8.88474Z" fill="black"/>
<path d="M4.37328 14.788L2.5865 20.1484C2.46672 20.5077 2.56024 20.9039 2.82808 21.1717C3.09591 21.4395 3.49208 21.5331 3.85141 21.4133L9.21174 19.6265L4.37328 14.788Z" fill="black"/>
</svg>
