<svg width="24" height="24" viewBox="0 0 24 24" fill="none" xmlns="http://www.w3.org/2000/svg">
<path fill-rule="evenodd" clip-rule="evenodd" d="M11.3818 1.51219C11.7835 1.38168 12.2162 1.38168 12.6179 1.51219C12.9076 1.60633 13.1295 1.7659 13.3043 1.91433C13.4636 2.0495 13.6373 2.22333 13.8158 2.40181L15.2383 3.82436C15.331 3.91699 15.3774 3.96305 15.4125 3.9951L15.4151 3.99751L15.4187 3.99768C15.4662 3.99985 15.5316 4.00009 15.6626 4.00009L17.4317 4.00009C17.6841 4.00006 17.9299 4.00003 18.1381 4.01704C18.3667 4.03571 18.6364 4.07978 18.9078 4.21808C19.2842 4.40983 19.5901 4.71579 19.7819 5.09211C19.9202 5.36354 19.9642 5.63327 19.9829 5.86186C19.9999 6.06997 19.9999 6.31582 19.9999 6.56814L19.9998 8.33735C19.9998 8.46835 20.0001 8.53373 20.0023 8.58123L20.0024 8.58481L20.0048 8.58747C20.0369 8.62258 20.083 8.66899 20.1756 8.76162L21.5982 10.1842C21.7766 10.3626 21.9505 10.5364 22.0856 10.6956C22.234 10.8705 22.3936 11.0923 22.4877 11.3821C22.6183 11.7837 22.6183 12.2164 22.4877 12.6181C22.3936 12.9078 22.234 13.1297 22.0856 13.3046C21.9504 13.4638 21.7766 13.6376 21.5981 13.816L20.1756 15.2386C20.083 15.3312 20.0369 15.3776 20.0048 15.4127L20.0024 15.4154L20.0023 15.419C20.0001 15.4665 19.9998 15.5318 19.9998 15.6628L19.9999 17.4321C19.9999 17.6845 19.9999 17.9302 19.9829 18.1383C19.9642 18.3669 19.9202 18.6367 19.7819 18.9081C19.5901 19.2844 19.2842 19.5904 18.9078 19.7821C18.6364 19.9204 18.3667 19.9645 18.1381 19.9831C17.93 20.0002 17.6841 20.0001 17.4318 20.0001L15.6626 20.0001C15.5316 20.0001 15.4662 20.0003 15.4187 20.0025L15.4151 20.0027L15.4125 20.0051C15.3774 20.0371 15.331 20.0832 15.2383 20.1758L13.8157 21.5984C13.6373 21.7769 13.4635 21.9507 13.3043 22.0859C13.1295 22.2343 12.9076 22.3939 12.6179 22.488C12.2162 22.6185 11.7835 22.6185 11.3818 22.488C11.0921 22.3939 10.8702 22.2343 10.6954 22.0859C10.5361 21.9507 10.3624 21.7769 10.1839 21.5984L8.76137 20.1758C8.66874 20.0832 8.62234 20.0371 8.58722 20.0051L8.58456 20.0027L8.58098 20.0025C8.53349 20.0003 8.46811 20.0001 8.33711 20.0001L6.56782 20.0001C6.31549 20.0001 6.06973 20.0002 5.86162 19.9831C5.63303 19.9645 5.36329 19.9204 5.09187 19.7821C4.71554 19.5904 4.40958 19.2844 4.21784 18.9081C4.07954 18.6367 4.03547 18.3669 4.01679 18.1383C3.99979 17.9302 3.99982 17.6844 3.99985 17.432L3.99985 15.6628C3.99985 15.5318 3.99961 15.4665 3.99744 15.419L3.99727 15.4154L3.99485 15.4127C3.96281 15.3776 3.91674 15.3312 3.82411 15.2386L2.40155 13.816C2.22307 13.6376 2.04925 13.4638 1.91409 13.3046C1.76565 13.1297 1.60608 12.9078 1.51195 12.6181C1.38143 12.2164 1.38143 11.7837 1.51195 11.3821C1.60608 11.0923 1.76565 10.8705 1.91409 10.6956C2.04925 10.5364 2.22307 10.3626 2.40155 10.1842L3.82411 8.76162C3.91674 8.66898 3.96281 8.62258 3.99485 8.58747L3.99727 8.58481L3.99744 8.58122C3.99961 8.53373 3.99985 8.46835 3.99985 8.33735L3.99985 6.56817C3.99982 6.3158 3.99979 6.07001 4.01679 5.86186C4.03547 5.63327 4.07954 5.36354 4.21784 5.09211C4.40958 4.71579 4.71554 4.40983 5.09187 4.21808C5.36329 4.07978 5.63303 4.03572 5.86162 4.01704C6.06978 4.00003 6.31557 4.00006 6.56795 4.00009L8.33711 4.00009C8.46811 4.00009 8.53349 3.99985 8.58098 3.99768L8.58457 3.99751L8.58722 3.9951C8.62234 3.96305 8.66874 3.91699 8.76137 3.82436L10.1839 2.40178C10.3624 2.22332 10.5362 2.04949 10.6954 1.91433C10.8702 1.7659 11.0921 1.60633 11.3818 1.51219ZM11.9997 9.30008C11.5351 9.30008 11.1422 9.61782 11.0312 10.0493C10.8935 10.5842 10.3483 10.9062 9.81348 10.7685C9.27863 10.6309 8.95664 10.0857 9.0943 9.55082C9.42728 8.25712 10.6005 7.30008 11.9997 7.30008C13.6566 7.30008 14.9997 8.64322 14.9997 10.3001C14.9997 11.2315 14.5452 11.8494 14.0692 12.3088C13.8764 12.4949 13.6568 12.677 13.4594 12.8406L13.3736 12.9117C13.1432 13.1034 12.9227 13.2913 12.7069 13.5072C12.3163 13.8977 11.6832 13.8977 11.2926 13.5072C10.9021 13.1167 10.9021 12.4835 11.2926 12.093C11.5768 11.8088 11.8563 11.5724 12.0946 11.3741L12.1861 11.2981C12.3907 11.1283 12.5459 10.9994 12.6803 10.8698C12.9542 10.6054 12.9997 10.4733 12.9997 10.3001C12.9997 9.7478 12.552 9.30008 11.9997 9.30008ZM13 15.8001C13 16.3524 12.5523 16.8001 12 16.8001C11.4477 16.8001 11 16.3524 11 15.8001C11 15.2478 11.4477 14.8001 12 14.8001C12.5523 14.8001 13 15.2478 13 15.8001Z" fill="black"/>
</svg>
