<svg width="24" height="24" viewBox="0 0 24 24" fill="none" xmlns="http://www.w3.org/2000/svg">
<path fill-rule="evenodd" clip-rule="evenodd" d="M5.00002 8.5C5.00002 4.83002 8.21772 2 12 2C15.7823 2 19 4.83002 19 8.5C19 9.16187 18.6011 9.65452 18.3105 9.94536C17.995 10.2611 17.5973 10.5434 17.2493 10.7773C17.0984 10.8787 16.9601 10.969 16.8302 11.054C16.6273 11.1865 16.4441 11.3063 16.2645 11.4343C16.1273 11.532 16.0217 11.6146 15.9438 11.6845C15.8769 11.7447 15.8505 11.7776 15.8457 11.7837C15.6747 12.0546 15.6534 12.3869 15.6171 12.9525L15.6066 13.113L15.6065 13.115C15.5902 13.3614 15.5611 13.7999 15.3723 14.1766C15.2626 14.3954 15.0873 14.6223 14.8157 14.7853C14.5478 14.9461 14.2611 15 14 15H10.0007C9.7397 15 9.45221 14.9461 9.18435 14.7853C8.91276 14.6223 8.73741 14.3954 8.62772 14.1766C8.43896 13.7999 8.40988 13.3614 8.39354 13.115L8.39341 13.113L8.38298 12.9525C8.34665 12.3869 8.32513 12.0547 8.15415 11.7837C8.14932 11.7776 8.12316 11.7447 8.0562 11.6845C7.97838 11.6146 7.87276 11.532 7.73558 11.4343C7.55592 11.3063 7.37313 11.1868 7.17026 11.0542C7.04018 10.9692 6.90185 10.8788 6.75079 10.7773C6.40275 10.5434 6.00502 10.2611 5.68958 9.94536C5.39898 9.65452 5.00002 9.16187 5.00002 8.5ZM11 7C11 7.55228 10.5523 8 10 8C9.44771 8 9 7.55228 9 7C9 6.44772 9.44771 6 10 6C10.5523 6 11 6.44772 11 7ZM15 7C15 7.55228 14.5523 8 14 8C13.4477 8 13 7.55228 13 7C13 6.44772 13.4477 6 14 6C14.5523 6 15 6.44772 15 7Z" fill="black"/>
<path d="M2.06802 13.6376C2.26819 13.1228 2.84774 12.8678 3.36247 13.068L12 16.427L20.6376 13.068C21.1523 12.8678 21.7319 13.1228 21.932 13.6376C22.1322 14.1523 21.8772 14.7318 21.3625 14.932L14.7591 17.5L21.3625 20.068C21.8772 20.2682 22.1322 20.8477 21.932 21.3624C21.7319 21.8772 21.1523 22.1322 20.6376 21.932L12 18.573L3.36247 21.932C2.84774 22.1322 2.26819 21.8772 2.06802 21.3624C1.86785 20.8477 2.12285 20.2682 2.63758 20.068L9.24099 17.5L2.63758 14.932C2.12285 14.7318 1.86785 14.1523 2.06802 13.6376Z" fill="black"/>
</svg>
