<svg width="24" height="24" viewBox="0 0 24 24" fill="none" xmlns="http://www.w3.org/2000/svg">
<path fill-rule="evenodd" clip-rule="evenodd" d="M13.243 2.41973C12.4533 2.06028 11.5468 2.06028 10.7571 2.41973C10.1963 2.67501 9.80278 3.14374 9.47158 3.63383C9.14171 4.12195 8.78057 4.7786 8.34374 5.57287L2.70864 15.8185C2.29922 16.5629 1.95883 17.1817 1.73529 17.6941C1.50904 18.2127 1.33339 18.7685 1.4039 19.357C1.50402 20.1925 1.95049 20.9477 2.63438 21.4381C3.11601 21.7834 3.68771 21.8974 4.25112 21.9491C4.80778 22.0001 5.51407 22.0001 6.36358 22.0001H17.6365C18.486 22.0001 19.1923 22.0001 19.749 21.9491C20.3124 21.8974 20.8841 21.7834 21.3657 21.4381C22.0496 20.9477 22.4961 20.1925 22.5962 19.357C22.6667 18.7685 22.4911 18.2127 22.2648 17.6941C22.0413 17.1818 21.7009 16.5629 21.2915 15.8186L15.6564 5.57285C15.2195 4.77859 14.8584 4.12194 14.5285 3.63383C14.1973 3.14374 13.8038 2.67501 13.243 2.41973ZM13.0001 10.0001C13.0001 9.44778 12.5523 9.00006 12.0001 9.00006C11.4478 9.00006 11.0001 9.44778 11.0001 10.0001V14.0001C11.0001 14.5523 11.4478 15.0001 12.0001 15.0001C12.5523 15.0001 13.0001 14.5523 13.0001 14.0001V10.0001ZM12.0001 16.0001C11.4478 16.0001 11.0001 16.4478 11.0001 17.0001C11.0001 17.5523 11.4478 18.0001 12.0001 18.0001H12.0101C12.5623 18.0001 13.0101 17.5523 13.0101 17.0001C13.0101 16.4478 12.5623 16.0001 12.0101 16.0001H12.0001Z" fill="black"/>
</svg>
