<svg width="24" height="24" viewBox="0 0 24 24" fill="none" xmlns="http://www.w3.org/2000/svg">
<path fill-rule="evenodd" clip-rule="evenodd" d="M11.566 2.96805C14.6103 1.06572 18.6204 1.99152 20.5227 5.03589C22.2787 7.84607 21.6251 11.478 19.1198 13.5173L19.0022 13.6063C18.9571 13.6475 18.9087 13.684 18.8578 13.7157L18.7543 13.7941C18.6568 13.8626 18.557 13.9289 18.4549 13.9927L14.6416 16.366C14.6341 16.3708 14.6265 16.3756 14.6188 16.3802L10.3928 19.0104C10.3853 19.0152 10.3777 19.02 10.37 19.0246L6.72366 21.294C5.3227 22.166 3.48534 21.7994 2.52626 20.4566C1.46515 18.9709 1.89693 16.896 3.4626 15.9569L15.2644 8.87857C15.4933 8.74125 15.5681 8.44573 15.4346 8.21687C15.4308 8.21084 15.4271 8.20476 15.4234 8.19865C15.4098 8.17754 15.3949 8.15783 15.3788 8.13955C15.2243 7.96422 14.9612 7.9212 14.7566 8.0491L13.4729 8.85124C13.2479 8.99179 12.9764 9.03723 12.7179 8.97755C12.4595 8.91787 12.2354 8.75796 12.0948 8.53301L9.9757 5.1408C9.68311 4.67244 9.82556 4.05557 10.2939 3.76293L11.566 2.96805ZM17.4455 8.98051C17.3154 9.5894 16.9584 10.1487 16.4074 10.5208L18.2245 11.6314C18.8289 11.016 19.2312 10.2496 19.4081 9.43361L17.4455 8.98051ZM19.373 7.37289C19.2611 6.93248 19.08 6.50168 18.8264 6.09573C18.3658 5.35859 17.7266 4.80087 17.0001 4.44356L16.9999 6.82504L19.373 7.37289ZM15.0001 3.97977L15 5.9803C14.6468 5.98001 14.2908 6.05481 13.957 6.21116C13.8685 6.25266 13.7814 6.2999 13.6964 6.35301L13.2609 6.62517L12.2014 4.92918L12.6255 4.66415C12.6693 4.63678 12.7134 4.61025 12.7578 4.58457C13.4627 4.17645 14.2357 3.98075 15.0001 3.97977ZM16.445 12.8877L14.4753 11.6838L12.0828 13.1187L14.0963 14.3495L16.445 12.8877ZM12.1962 15.5321L10.1472 14.2797L7.75467 15.7147L9.84751 16.9939L12.1962 15.5321ZM7.9474 18.1765L5.81908 16.8756L4.49102 17.6721C3.92662 18.0106 3.77097 18.7586 4.15349 19.2941C4.49922 19.7782 5.16156 19.9104 5.66658 19.596L7.9474 18.1765Z" fill="black"/>
</svg>
