<svg width="24" height="24" viewBox="0 0 24 24" fill="none" xmlns="http://www.w3.org/2000/svg">
<path fill-rule="evenodd" clip-rule="evenodd" d="M2.20049 5.40046C2.53218 4.95887 3.15905 4.86978 3.60064 5.20147C4.93521 6.20391 6.45427 6.97325 8.09825 7.44927C8.10863 7.45208 8.11898 7.45506 8.12932 7.45823C9.35836 7.811 10.6569 7.99994 12.0001 7.99994C13.3431 7.99994 14.6416 7.81102 15.8706 7.45829C15.8811 7.45508 15.8916 7.45206 15.9021 7.44921C17.546 6.97318 19.065 6.20386 20.3995 5.20147C20.8411 4.86978 21.4679 4.95887 21.7996 5.40046C22.1313 5.84205 22.0422 6.46891 21.6006 6.8006C20.3759 7.72053 19.0146 8.46888 17.5527 9.00987L18.6411 11.297C19.2761 11.2341 19.9098 11.3776 20.4495 11.6924C21.0949 12.0689 21.4043 12.6715 21.5314 13.2302C21.6547 13.7719 21.6241 14.3304 21.5545 14.786L21.1927 17.153C21.1422 17.4835 20.9298 17.7669 20.6268 17.9082C20.3237 18.0495 19.9701 18.03 19.6845 17.8563L17.6387 16.612C17.245 16.3724 16.7975 16.0369 16.4617 15.5942C16.1154 15.1377 15.8526 14.5134 15.9791 13.777C16.0842 13.165 16.3791 12.5909 16.8303 12.1462L15.6138 9.58992C14.7663 9.78566 13.893 9.91406 13.0001 9.96917V12.1708C13.5997 12.3829 14.1115 12.7799 14.4663 13.2915C14.8922 13.9055 14.9179 14.5824 14.797 15.1425C14.6797 15.6856 14.416 16.1788 14.1603 16.5623L12.8321 18.5546C12.6466 18.8328 12.3344 18.9999 12.0001 18.9999C11.6657 18.9999 11.3535 18.8328 11.168 18.5546L9.83981 16.5623C9.58415 16.1788 9.3204 15.6856 9.20316 15.1425C9.08224 14.5824 9.10794 13.9055 9.53379 13.2915C9.88865 12.7799 10.4004 12.3829 11.0001 12.1708V9.96917C10.1081 9.91412 9.23576 9.78594 8.38904 9.59056L7.18441 12.1441C7.6368 12.5891 7.93247 13.164 8.03772 13.777C8.16419 14.5134 7.90142 15.1377 7.55513 15.5942C7.21935 16.0369 6.77186 16.3724 6.37808 16.612L4.33234 17.8563C4.04668 18.03 3.69308 18.0495 3.39006 17.9082C3.08703 17.7669 2.87467 17.4835 2.82415 17.153L2.46238 14.786C2.39274 14.3304 2.36216 13.7719 2.48542 13.2302C2.61253 12.6715 2.92189 12.0689 3.56732 11.6924C4.10618 11.378 4.73879 11.2345 5.37283 11.2967L6.45098 9.0112C4.98779 8.47011 3.62521 7.72128 2.39948 6.8006C1.95789 6.46891 1.8688 5.84205 2.20049 5.40046Z" fill="black"/>
</svg>
