<svg width="24" height="24" viewBox="0 0 24 24" fill="none" xmlns="http://www.w3.org/2000/svg">
<path fill-rule="evenodd" clip-rule="evenodd" d="M11.4408 2.39695C11.8061 2.29054 12.1941 2.29054 12.5594 2.39695C12.8194 2.47267 13.0248 2.60036 13.191 2.72221C13.3405 2.83185 13.5045 2.97242 13.6704 3.11464L18.038 6.85831C18.2663 7.05399 18.4848 7.24118 18.6454 7.40481C18.7803 7.54223 19.0754 7.85121 19.1354 8.30222C19.2008 8.79431 19.0186 9.28692 18.6487 9.61793C18.445 9.80016 18.2103 9.8883 18.0137 9.93322L19.0849 10.8705C19.308 11.0656 19.5221 11.253 19.6796 11.4168C19.813 11.5556 20.1013 11.8648 20.1576 12.3128C20.2193 12.8032 20.0355 13.2926 19.6661 13.621C19.6252 13.6574 19.5831 13.69 19.5403 13.7192L20.6772 15.0667C20.8339 15.2523 20.9922 15.4398 21.1075 15.6046C21.2162 15.7599 21.4159 16.0666 21.4237 16.471C21.4327 16.9332 21.228 17.3738 20.869 17.665C20.5548 17.9198 20.1917 17.965 20.0029 17.982C19.8025 18.0002 19.5571 18.0001 19.3143 18.0001L16.0001 18.0001V21.0001C16.0001 21.5523 15.5524 22.0001 15.0001 22.0001H9.0001C8.44781 22.0001 8.0001 21.5523 8.0001 21.0001V18.0001L4.68591 18.0001C4.44312 18.0001 4.19768 18.0002 3.99734 17.982C3.80854 17.965 3.44536 17.9198 3.13124 17.665C2.7722 17.3738 2.5675 16.9332 2.57645 16.471C2.58428 16.0666 2.78397 15.7599 2.89267 15.6046C3.00802 15.4398 3.16633 15.2523 3.32294 15.0667L4.45992 13.7192C4.41712 13.69 4.37498 13.6574 4.33407 13.621C3.96471 13.2926 3.78086 12.8032 3.84255 12.3128C3.89891 11.8648 4.18715 11.5556 4.32056 11.4168C4.47805 11.253 4.6922 11.0657 4.91524 10.8705C4.9248 10.8622 4.93437 10.8538 4.94395 10.8454L5.98646 9.93322C5.78991 9.8883 5.55522 9.80016 5.35154 9.61793C4.98158 9.28692 4.79935 8.79431 4.86483 8.30222C4.92484 7.85121 5.21985 7.54223 5.35477 7.40481C5.51543 7.24118 5.73387 7.05399 5.96222 6.8583C5.97189 6.85002 5.98158 6.84171 5.99128 6.8334L10.3298 3.11466C10.4957 2.97244 10.6597 2.83185 10.8092 2.72221C10.9754 2.60036 11.1808 2.47267 11.4408 2.39695Z" fill="black"/>
</svg>
