<svg width="24" height="24" viewBox="0 0 24 24" fill="none" xmlns="http://www.w3.org/2000/svg">
<g opacity="0.14">
<path d="M15.9998 16.0001C19.3136 16.0001 21.9998 13.3138 21.9998 10.0001L19.4998 9.50009L13.4998 3.50009L9.49985 7.50009L15.4998 13.5001L15.9998 16.0001Z" fill="black"/>
<path d="M13.4998 11.5001L11.4998 9.50009L2.70696 18.293C2.31643 18.6835 2.31643 19.3167 2.70696 19.7072L3.29274 20.293C3.68327 20.6835 4.31643 20.6835 4.70696 20.293L13.4998 11.5001Z" fill="black"/>
<path d="M15.4998 5.50009L17.4998 7.50009L19.2927 5.7072C19.6833 5.31668 19.6833 4.68351 19.2927 4.29299L18.707 3.7072C18.3164 3.31668 17.6833 3.31668 17.2927 3.7072L15.4998 5.50009Z" fill="black"/>
</g>
<path d="M13.4998 11.4998L4.70696 20.2927C4.31643 20.6833 3.68327 20.6833 3.29274 20.2927L2.70696 19.707C2.31643 19.3164 2.31643 18.6833 2.70696 18.2927L11.4998 9.49985M17.4998 7.49985L19.2927 5.70696C19.6833 5.31643 19.6833 4.68327 19.2927 4.29274L18.707 3.70696C18.3164 3.31643 17.6833 3.31643 17.2927 3.70696L15.4998 5.49985M21.9998 9.99985C21.9998 13.3136 19.3136 15.9998 15.9998 15.9998L15.4998 13.4998L9.49985 7.49985L13.4998 3.49985L19.4998 9.49985L21.9998 9.99985Z" stroke="black" stroke-width="2" stroke-linecap="round" stroke-linejoin="round"/>
</svg>
