<svg width="24" height="24" viewBox="0 0 24 24" fill="none" xmlns="http://www.w3.org/2000/svg">
<path opacity="0.14" d="M15.8737 21H8.12628C7.17892 21 6.36153 20.3353 6.16831 19.4079L4 9H20L17.8317 19.4079C17.6385 20.3353 16.8211 21 15.8737 21Z" fill="black"/>
<path d="M6 8.5V8C6 5.23858 8.23858 3 11 3H13C15.7614 3 18 5.23858 18 8V8.5M4 9L6.16831 19.4079C6.36153 20.3353 7.17892 21 8.12628 21H15.8737C16.8211 21 17.6385 20.3353 17.8317 19.4079L20 9M4 9H3M4 9H21" stroke="black" stroke-width="2" stroke-linecap="round" stroke-linejoin="round"/>
</svg>
