<svg width="24" height="24" viewBox="0 0 24 24" fill="none" xmlns="http://www.w3.org/2000/svg">
<path opacity="0.14" d="M2 18.5C2 17.1193 3.11929 16 4.5 16C5.42535 16 6.23328 16.5027 6.66554 17.25C6.79827 17.4794 6.8948 17.7319 6.94922 18H12.05C12.1044 17.7319 12.2017 17.4794 12.3345 17.25C12.7667 16.5027 13.5746 16 14.5 16C15.0628 16 15.5822 16.1862 16 16.5V12H11L7 9H2V18.5Z" fill="black"/>
<path d="M6.66554 17.25L7.53115 16.7493L6.66554 17.25ZM12.3345 17.25L11.4688 16.7493L12.3345 17.25ZM2 9V8C1.44772 8 1 8.44772 1 9H2ZM7 3V2C6.44772 2 6 2.44772 6 3H7ZM12 3L12.9138 2.59386C12.7533 2.23273 12.3952 2 12 2V3ZM16 12H17C17 11.8601 16.9706 11.7217 16.9138 11.5939L16 12ZM11 12L10.4 12.8C10.5731 12.9298 10.7836 13 11 13V12ZM15 16.5C15 17.0523 15.4477 17.5 16 17.5C16.5523 17.5 17 17.0523 17 16.5H15ZM22 17C22.5523 17 23 16.5523 23 16C23 15.4477 22.5523 15 22 15V17ZM19 16H18C18 16.5523 18.4477 17 19 17V16ZM20 3C20 2.44772 19.5523 2 19 2C18.4477 2 18 2.44772 18 3H20ZM6 18.5C6 19.3284 5.32843 20 4.5 20V22C6.433 22 8 20.433 8 18.5H6ZM4.5 20C3.67157 20 3 19.3284 3 18.5H1C1 20.433 2.567 22 4.5 22V20ZM3 18.5C3 17.6716 3.67157 17 4.5 17V15C2.567 15 1 16.567 1 18.5H3ZM4.5 17C5.05395 17 5.53907 17.2998 5.79994 17.7507L7.53115 16.7493C6.92749 15.7057 5.79675 15 4.5 15V17ZM5.79994 17.7507C5.92698 17.9703 6 18.2251 6 18.5H8C8 17.8642 7.82954 17.2651 7.53115 16.7493L5.79994 17.7507ZM16 18.5C16 19.3284 15.3284 20 14.5 20V22C16.433 22 18 20.433 18 18.5H16ZM14.5 20C13.6716 20 13 19.3284 13 18.5H11C11 20.433 12.567 22 14.5 22V20ZM14.5 17C15.3284 17 16 17.6716 16 18.5H18C18 16.567 16.433 15 14.5 15V17ZM13 18.5C13 18.2251 13.073 17.9703 13.2001 17.7507L11.4688 16.7493C11.1705 17.2651 11 17.8642 11 18.5H13ZM13.2001 17.7507C13.4609 17.2998 13.946 17 14.5 17V15C13.2032 15 12.0725 15.7057 11.4688 16.7493L13.2001 17.7507ZM6.94922 19H12.05V17H6.94922V19ZM3 18.5V9H1V18.5H3ZM2 10H7V8H2V10ZM8 9V3H6V9H8ZM7 4H12V2H7V4ZM11.0862 3.40614L15.0862 12.4061L16.9138 11.5939L12.9138 2.59386L11.0862 3.40614ZM16 11H11V13H16V11ZM11.6 11.2L7.6 8.2L6.4 9.8L10.4 12.8L11.6 11.2ZM15 12V16.5H17V12H15ZM22 15H19V17H22V15ZM20 16V3H18V16H20Z" fill="black"/>
</svg>
