<svg width="24" height="24" viewBox="0 0 24 24" fill="none" xmlns="http://www.w3.org/2000/svg">
<g opacity="0.14">
<path d="M21 18.6C21 19.9255 20.1046 21 19 21C17.8954 21 17 19.9255 17 18.6C17 18.2817 17.0516 17.9779 17.1454 17.7C17.4421 16.8205 19 15 19 15C19 15 20.5579 16.8205 20.8546 17.7C20.9484 17.9779 21 18.2817 21 18.6Z" fill="black"/>
<path d="M21 3H3V21H14V18H10H6V12V6H10H14H18V12H21V3Z" fill="black"/>
<path d="M3 3V2C2.44772 2 2 2.44772 2 3H3ZM21 3H22C22 2.44772 21.5523 2 21 2V3ZM3 21H2C2 21.5523 2.44772 22 3 22V21ZM14 21V22C14.5523 22 15 21.5523 15 21H14ZM21 12V13C21.5523 13 22 12.5523 22 12H21ZM6 6V5C5.44772 5 5 5.44772 5 6H6ZM18 6H19C19 5.44772 18.5523 5 18 5V6ZM6 18H5C5 18.5523 5.44772 19 6 19V18ZM19 15L19.7598 14.3498C19.5698 14.1278 19.2922 14 19 14C18.7078 14 18.4302 14.1278 18.2402 14.3498L19 15ZM17.1454 17.7L16.1978 17.3804L17.1454 17.7ZM20.8546 17.7L21.8022 17.3804L20.8546 17.7ZM3 4H21V2H3V4ZM4 21V3H2V21H4ZM14 20H3V22H14V20ZM20 3V12H22V3H20ZM6 7H18V5H6V7ZM7 18V6H5V18H7ZM14 17H6V19H14V17ZM17 6V12H19V6H17ZM6 13H18V11H6V13ZM11 18V6H9V18H11ZM15 18V6H13V18H15ZM20 18.6C20 19.5517 19.3893 20 19 20V22C20.8198 22 22 20.2993 22 18.6H20ZM19 20C18.6107 20 18 19.5517 18 18.6H16C16 20.2993 17.1802 22 19 22V20ZM18 18.6C18 18.3898 18.0341 18.194 18.0929 18.0196L16.1978 17.3804C16.0691 17.7619 16 18.1737 16 18.6H18ZM18.0929 18.0196C18.1267 17.9196 18.2248 17.7249 18.4034 17.4449C18.5718 17.1809 18.7774 16.8938 18.9821 16.6227C19.1855 16.3532 19.3811 16.1086 19.5263 15.9309C19.5986 15.8424 19.6579 15.7711 19.6987 15.7225C19.7191 15.6981 19.7349 15.6795 19.7453 15.6672C19.7505 15.6611 19.7543 15.6566 19.7568 15.6537C19.758 15.6523 19.7589 15.6512 19.7594 15.6507C19.7596 15.6504 19.7598 15.6502 19.7598 15.6501C19.7599 15.6501 19.7599 15.6501 19.7599 15.6501C19.7599 15.6501 19.7598 15.6501 19.7598 15.6501C19.7598 15.6502 19.7598 15.6502 19 15C18.2402 14.3498 18.2402 14.3499 18.2401 14.3499C18.2401 14.35 18.24 14.35 18.24 14.3501C18.2399 14.3502 18.2397 14.3504 18.2396 14.3506C18.2393 14.3509 18.2389 14.3514 18.2384 14.352C18.2374 14.3532 18.236 14.3548 18.2343 14.3568C18.2308 14.3609 18.2259 14.3667 18.2196 14.3741C18.207 14.3889 18.189 14.4102 18.1662 14.4374C18.1207 14.4918 18.0559 14.5696 17.9776 14.6654C17.8214 14.8566 17.609 15.1221 17.3858 15.4177C17.1639 15.7116 16.9244 16.0445 16.7173 16.3692C16.5203 16.678 16.3124 17.0406 16.1978 17.3804L18.0929 18.0196ZM19 15C18.2402 15.6502 18.2402 15.6502 18.2402 15.6501C18.2402 15.6501 18.2401 15.6501 18.2401 15.6501C18.2401 15.6501 18.2401 15.6501 18.2402 15.6501C18.2402 15.6502 18.2404 15.6504 18.2406 15.6507C18.2411 15.6512 18.242 15.6523 18.2432 15.6537C18.2457 15.6566 18.2495 15.6611 18.2547 15.6672C18.2651 15.6795 18.2809 15.6981 18.3012 15.7225C18.3421 15.7711 18.4014 15.8424 18.4737 15.9309C18.6189 16.1086 18.8145 16.3532 19.0179 16.6227C19.2226 16.8938 19.4282 17.1809 19.5966 17.4449C19.7752 17.7249 19.8733 17.9196 19.9071 18.0196L21.8022 17.3804C21.6876 17.0406 21.4797 16.678 21.2827 16.3692C21.0756 16.0445 20.8361 15.7116 20.6142 15.4177C20.391 15.1221 20.1786 14.8566 20.0224 14.6654C19.9441 14.5696 19.8793 14.4918 19.8338 14.4374C19.811 14.4102 19.793 14.3889 19.7804 14.3741C19.7741 14.3667 19.7692 14.3609 19.7657 14.3568C19.764 14.3548 19.7626 14.3532 19.7616 14.352C19.7611 14.3514 19.7607 14.3509 19.7604 14.3506C19.7603 14.3504 19.7601 14.3502 19.76 14.3501C19.76 14.35 19.7599 14.35 19.7599 14.3499C19.7598 14.3499 19.7598 14.3498 19 15ZM19.9071 18.0196C19.9659 18.194 20 18.3898 20 18.6H22C22 18.1737 21.9308 17.7619 21.8022 17.3804L19.9071 18.0196ZM15 21V18H13V21H15ZM18 13H21V11H18V13ZM14 17H10V19H14V17ZM10 17H6V19H10V17ZM7 18V12H5V18H7ZM7 12V6H5V12H7ZM6 7H10V5H6V7ZM10 7H14V5H10V7ZM14 7H18V5H14V7Z" fill="black"/>
</g>
<path d="M3 3V2C2.44772 2 2 2.44772 2 3H3ZM21 3H22C22 2.44772 21.5523 2 21 2V3ZM3 21H2C2 21.5523 2.44772 22 3 22V21ZM14 22C14.5523 22 15 21.5523 15 21C15 20.4477 14.5523 20 14 20V22ZM20 12C20 12.5523 20.4477 13 21 13C21.5523 13 22 12.5523 22 12H20ZM6 6V5C5.44772 5 5 5.44772 5 6H6ZM18 6H19C19 5.44772 18.5523 5 18 5V6ZM6 18H5C5 18.5523 5.44772 19 6 19V18ZM14 18V19C14.5523 19 15 18.5523 15 18H14ZM18 12V13C18.5523 13 19 12.5523 19 12H18ZM6 11C5.44772 11 5 11.4477 5 12C5 12.5523 5.44772 13 6 13V11ZM9 18C9 18.5523 9.44772 19 10 19C10.5523 19 11 18.5523 11 18H9ZM11 6C11 5.44772 10.5523 5 10 5C9.44772 5 9 5.44772 9 6H11ZM15 6C15 5.44772 14.5523 5 14 5C13.4477 5 13 5.44772 13 6H15ZM19 15L19.7598 14.3498C19.5698 14.1278 19.2922 14 19 14C18.7078 14 18.4302 14.1278 18.2402 14.3498L19 15ZM17.1454 17.7L16.1978 17.3804L17.1454 17.7ZM20.8546 17.7L21.8022 17.3804L20.8546 17.7ZM3 4H21V2H3V4ZM4 21V3H2V21H4ZM14 20H3V22H14V20ZM20 3V12H22V3H20ZM6 7H18V5H6V7ZM7 18V6H5V18H7ZM14 17H6V19H14V17ZM17 6V12H19V6H17ZM6 13H18V11H6V13ZM11 18V6H9V18H11ZM15 18V6H13V18H15ZM20 18.6C20 19.5517 19.3893 20 19 20V22C20.8198 22 22 20.2993 22 18.6H20ZM19 20C18.6107 20 18 19.5517 18 18.6H16C16 20.2993 17.1802 22 19 22V20ZM18 18.6C18 18.3898 18.0341 18.194 18.0929 18.0196L16.1978 17.3804C16.0691 17.7619 16 18.1737 16 18.6H18ZM18.0929 18.0196C18.1267 17.9196 18.2248 17.7249 18.4034 17.4449C18.5718 17.1809 18.7774 16.8938 18.9821 16.6227C19.1855 16.3532 19.3811 16.1086 19.5263 15.9309C19.5986 15.8424 19.6579 15.7711 19.6987 15.7225C19.7191 15.6981 19.7349 15.6795 19.7453 15.6672C19.7505 15.6611 19.7543 15.6566 19.7568 15.6537C19.758 15.6523 19.7589 15.6512 19.7594 15.6507C19.7596 15.6504 19.7598 15.6502 19.7598 15.6501C19.7599 15.6501 19.7599 15.6501 19.7599 15.6501C19.7599 15.6501 19.7598 15.6501 19.7598 15.6501C19.7598 15.6502 19.7598 15.6502 19 15C18.2402 14.3498 18.2402 14.3499 18.2401 14.3499C18.2401 14.35 18.24 14.35 18.24 14.3501C18.2399 14.3502 18.2397 14.3504 18.2396 14.3506C18.2393 14.3509 18.2389 14.3514 18.2384 14.352C18.2374 14.3532 18.236 14.3548 18.2343 14.3568C18.2308 14.3609 18.2259 14.3667 18.2196 14.3741C18.207 14.3889 18.189 14.4102 18.1662 14.4374C18.1207 14.4918 18.0559 14.5696 17.9776 14.6654C17.8214 14.8566 17.609 15.1221 17.3858 15.4177C17.1639 15.7116 16.9244 16.0445 16.7173 16.3692C16.5203 16.678 16.3124 17.0406 16.1978 17.3804L18.0929 18.0196ZM19 15C18.2402 15.6502 18.2402 15.6502 18.2402 15.6501C18.2402 15.6501 18.2401 15.6501 18.2401 15.6501C18.2401 15.6501 18.2401 15.6501 18.2402 15.6501C18.2402 15.6502 18.2404 15.6504 18.2406 15.6507C18.2411 15.6512 18.242 15.6523 18.2432 15.6537C18.2457 15.6566 18.2495 15.6611 18.2547 15.6672C18.2651 15.6795 18.2809 15.6981 18.3012 15.7225C18.3421 15.7711 18.4014 15.8424 18.4737 15.9309C18.6189 16.1086 18.8145 16.3532 19.0179 16.6227C19.2226 16.8938 19.4282 17.1809 19.5966 17.4449C19.7752 17.7249 19.8733 17.9196 19.9071 18.0196L21.8022 17.3804C21.6876 17.0406 21.4797 16.678 21.2827 16.3692C21.0756 16.0445 20.8361 15.7116 20.6142 15.4177C20.391 15.1221 20.1786 14.8566 20.0224 14.6654C19.9441 14.5696 19.8793 14.4918 19.8338 14.4374C19.811 14.4102 19.793 14.3889 19.7804 14.3741C19.7741 14.3667 19.7692 14.3609 19.7657 14.3568C19.764 14.3548 19.7626 14.3532 19.7616 14.352C19.7611 14.3514 19.7607 14.3509 19.7604 14.3506C19.7603 14.3504 19.7601 14.3502 19.76 14.3501C19.76 14.35 19.7599 14.35 19.7599 14.3499C19.7598 14.3499 19.7598 14.3498 19 15ZM19.9071 18.0196C19.9659 18.194 20 18.3898 20 18.6H22C22 18.1737 21.9308 17.7619 21.8022 17.3804L19.9071 18.0196Z" fill="black"/>
</svg>
