<svg width="24" height="24" viewBox="0 0 24 24" fill="none" xmlns="http://www.w3.org/2000/svg">
<g opacity="0.14">
<path d="M6.33394 10.0774L3.09087 18.9876C2.80753 19.7661 3.20891 20.6269 3.98738 20.9102C4.76585 21.1935 5.62661 20.7922 5.90995 20.0137L9.15301 11.1035L6.33394 10.0774Z" fill="black"/>
<path d="M16.5046 6.65734L16.6101 6.36837L7.5 3H4L2 8.49996L6.33394 10.0774L9.15301 11.1035L13.5742 12.7126L14.216 12.9462L16.5046 6.65734Z" fill="black"/>
<path d="M16.5046 6.65734L14.216 12.9462L13.5742 12.7126L14.2957 16.4852L16.3453 13.2378L19.744 15.0254L18.483 11.3982L21.9996 9.8555L18.3775 8.57991L19.364 4.86865L16.5046 6.65734Z" fill="black"/>
</g>
<path d="M7.27363 10.4194C7.46252 9.90043 7.19493 9.32659 6.67596 9.1377C6.15698 8.94881 5.58314 9.21639 5.39424 9.73537L7.27363 10.4194ZM3.09087 18.9876L2.15118 18.6456H2.15118L3.09087 18.9876ZM5.90995 20.0137L6.84964 20.3557L5.90995 20.0137ZM10.0927 11.4455C10.2816 10.9265 10.014 10.3527 9.49503 10.1638C8.97605 9.97487 8.40221 10.2425 8.21332 10.7614L10.0927 11.4455ZM3.98738 20.9102L3.64536 21.8499L3.98738 20.9102ZM16.6101 6.36837L17.5498 6.71039C17.7381 6.19328 17.4731 5.62127 16.9569 5.43043L16.6101 6.36837ZM14.216 12.9462L13.874 13.8859C14.1232 13.9766 14.3983 13.9646 14.6386 13.8525C14.879 13.7404 15.065 13.5375 15.1557 13.2882L14.216 12.9462ZM2 8.49996L1.06021 8.15822C0.871506 8.67714 1.13911 9.2508 1.65798 9.43965L2 8.49996ZM4 3V2C3.57949 2 3.20391 2.26307 3.06021 2.65825L4 3ZM7.5 3L7.84679 2.06206C7.73578 2.02101 7.61836 2 7.5 2V3ZM19.364 4.86865L20.3304 5.12553C20.4359 4.72876 20.2881 4.30785 19.9578 4.06405C19.6275 3.82026 19.1817 3.80314 18.8336 4.02086L19.364 4.86865ZM18.3775 8.57991L17.4111 8.32303C17.277 8.82728 17.5532 9.34982 18.0453 9.52313L18.3775 8.57991ZM21.9996 9.8555L22.4013 10.7713C22.7773 10.6063 23.0142 10.2284 22.9989 9.8181C22.9835 9.40784 22.719 9.04865 22.3318 8.91228L21.9996 9.8555ZM18.483 11.3982L18.0812 10.4824C17.6034 10.692 17.3671 11.2338 17.5384 11.7266L18.483 11.3982ZM19.744 15.0254L19.2785 15.9104C19.6419 16.1015 20.0851 16.0511 20.3963 15.7833C20.7075 15.5155 20.8234 15.0847 20.6885 14.697L19.744 15.0254ZM16.3453 13.2378L16.8108 12.3527C16.349 12.1099 15.7781 12.2628 15.4996 12.7041L16.3453 13.2378ZM14.2957 16.4852L13.3135 16.6731C13.3907 17.0763 13.7064 17.3915 14.1098 17.4678C14.5132 17.5441 14.9222 17.3661 15.1414 17.0189L14.2957 16.4852ZM5.39424 9.73537L2.15118 18.6456L4.03056 19.3297L7.27363 10.4194L5.39424 9.73537ZM6.84964 20.3557L10.0927 11.4455L8.21332 10.7614L4.97025 19.6717L6.84964 20.3557ZM4.97025 19.6717C4.87581 19.9312 4.58889 20.065 4.3294 19.9705L3.64536 21.8499C4.9428 22.3221 6.37741 21.6532 6.84964 20.3557L4.97025 19.6717ZM2.15118 18.6456C1.67894 19.9431 2.34791 21.3777 3.64536 21.8499L4.3294 19.9705C4.06991 19.8761 3.93612 19.5891 4.03056 19.3297L2.15118 18.6456ZM15.6705 6.02635L13.2763 12.6042L15.1557 13.2882L17.5498 6.71039L15.6705 6.02635ZM2.93979 8.84171L4.93979 3.34175L3.06021 2.65825L1.06021 8.15822L2.93979 8.84171ZM7.15321 3.93794L16.2634 7.30632L16.9569 5.43043L7.84679 2.06206L7.15321 3.93794ZM4 4H7.5V2H4V4ZM14.558 12.0065L2.34202 7.56027L1.65798 9.43965L13.874 13.8859L14.558 12.0065ZM18.3975 4.61177L17.4111 8.32303L19.344 8.8368L20.3304 5.12553L18.3975 4.61177ZM18.0453 9.52313L21.6674 10.7987L22.3318 8.91228L18.7097 7.6367L18.0453 9.52313ZM21.5979 8.93974L18.0812 10.4824L18.8847 12.3139L22.4013 10.7713L21.5979 8.93974ZM17.5384 11.7266L18.7995 15.3537L20.6885 14.697L19.4275 11.0698L17.5384 11.7266ZM20.2095 14.1403L16.8108 12.3527L15.8798 14.1228L19.2785 15.9104L20.2095 14.1403ZM15.4996 12.7041L13.4501 15.9515L15.1414 17.0189L17.191 13.7715L15.4996 12.7041ZM15.2779 16.2973L14.5564 12.5256L12.592 12.9014L13.3135 16.6731L15.2779 16.2973ZM17.0349 7.50513L19.8943 5.71644L18.8336 4.02086L15.9742 5.80955L17.0349 7.50513Z" fill="black"/>
</svg>
