<svg width="24" height="24" viewBox="0 0 24 24" fill="none" xmlns="http://www.w3.org/2000/svg">
<path opacity="0.14" d="M14 6.25195C17.4505 7.14004 20 10.2722 20 13.9999V15.0301C20.5721 15.1566 21 15.6668 21 16.277C21 18 16.9706 19 12 19C7.02944 19 3 18 3 16.277C3 15.6668 3.42791 15.1566 4 15.0301V13.9999C4 10.2722 6.54955 7.14004 10 6.25195V6C10 5.44772 10.4477 5 11 5H13C13.5523 5 14 5.44772 14 6V6.25195Z" fill="black"/>
<path d="M14 6.25195C17.4505 7.14004 20 10.2722 20 13.9999V14.9999M10 6.25195C6.54955 7.14004 4 10.2722 4 13.9999V14.9999M10 11V6C10 5.44772 10.4477 5 11 5H13C13.5523 5 14 5.44772 14 6V11M4.27698 15H19.723C20.4283 15 21 15.5717 21 16.277C21 18 16.9706 19 12 19C7.02944 19 3 18 3 16.277C3 15.5717 3.57173 15 4.27698 15Z" stroke="black" stroke-width="2" stroke-linecap="round" stroke-linejoin="round"/>
</svg>
