<svg width="24" height="24" viewBox="0 0 24 24" fill="none" xmlns="http://www.w3.org/2000/svg">
<g opacity="0.14">
<path d="M5 3L3 5L6 9H9V6L5 3Z" fill="black"/>
<path d="M20.2929 17.2929C20.6834 17.6834 20.6834 18.3166 20.2929 18.7071L18.7071 20.2929C18.3166 20.6834 17.6834 20.6834 17.2929 20.2929L13.5 16.5C12.9904 15.9904 12.7943 15.286 12.9116 14.6265C12.7824 14.5785 12.6553 14.5262 12.5305 14.4697L7.50023 19.5C6.6718 20.3284 5.32865 20.3284 4.50023 19.5C3.6718 18.6716 3.6718 17.3284 4.50023 16.5L9.53048 11.4697C9.18985 10.7165 9 9.88041 9 9C9 5.68629 11.6865 3 15.0002 3C15.8806 3 16.7168 3.18962 17.47 3.53026L13.8787 7.12157C13.6422 7.35799 13.5396 7.69693 13.6052 8.02479L13.8695 9.34628C13.9487 9.74214 14.2581 10.0516 14.6539 10.1307L15.9754 10.395C16.3033 10.4606 16.6422 10.358 16.8787 10.1216L20.47 6.53026C20.8106 7.28347 21.0002 8.11959 21.0002 9C21.0002 11.4334 19.5517 13.5284 17.4698 14.4698L20.2929 17.2929Z" fill="black"/>
</g>
<path d="M9 9H6L3 5L5 3L9 6V9ZM9 9L13.5 13.5M13.5 13.5C14.3284 12.6716 15.6716 12.6716 16.5 13.5L20.2929 17.2929C20.6834 17.6834 20.6834 18.3166 20.2929 18.7071L18.7071 20.2929C18.3166 20.6834 17.6834 20.6834 17.2929 20.2929L13.5 16.5C12.6716 15.6716 12.6716 14.3284 13.5 13.5ZM20.0014 12.3178C20.6332 11.3675 21.0014 10.2267 21.0014 9C21.0014 8.11959 20.8118 7.28347 20.4711 6.53026L16.8798 10.1216C16.6434 10.358 16.3045 10.4606 15.9766 10.395L14.6551 10.1307C14.2592 10.0516 13.9498 9.74214 13.8706 9.34628L13.6063 8.02479C13.5408 7.69693 13.6434 7.35799 13.8798 7.12157L17.4711 3.53026C16.7179 3.18962 15.8818 3 15.0014 3C13.7747 3 12.6339 3.36815 11.6836 4M8 13L4.5 16.5C3.67157 17.3284 3.67157 18.6716 4.5 19.5C5.32843 20.3284 6.67157 20.3284 7.5 19.5L10 17" stroke="black" stroke-width="2" stroke-linecap="round" stroke-linejoin="round"/>
</svg>
