<svg width="24" height="24" viewBox="0 0 24 24" fill="none" xmlns="http://www.w3.org/2000/svg">
<g opacity="0.14">
<path d="M14.3954 14.7031L9.70084 20.1801C9.32174 20.6224 8.64637 20.6483 8.23447 20.2364L3.76165 15.7636C3.34975 15.3517 3.37569 14.6763 3.81796 14.2972L9.29497 9.60265C9.6917 9.26259 10.2834 9.28531 10.6529 9.6548L14.3433 13.3452C14.7127 13.7147 14.7355 14.3064 14.3954 14.7031Z" fill="black"/>
<path d="M20.9981 6L17.9981 3L16.4981 4.5C15.6696 5.32843 15.6696 6.67157 16.4981 7.5C17.3265 8.32843 18.6696 8.32843 19.4981 7.5L20.9981 6Z" fill="black"/>
</g>
<path d="M16.4981 7.5C15.6696 6.67157 15.6696 5.32843 16.4981 4.5L17.9981 3L20.9981 6L19.4981 7.5C18.6696 8.32843 17.3265 8.32843 16.4981 7.5ZM16.4981 7.5L12.4981 11.5M9.70084 20.1801L14.3954 14.7031C14.7355 14.3064 14.7127 13.7147 14.3433 13.3452L10.6529 9.6548C10.2834 9.28531 9.6917 9.26259 9.29497 9.60265L3.81796 14.2972C3.37569 14.6763 3.34975 15.3517 3.76165 15.7636L8.23447 20.2364C8.64637 20.6483 9.32174 20.6224 9.70084 20.1801Z" stroke="black" stroke-width="2" stroke-linecap="round" stroke-linejoin="round"/>
</svg>
