<svg width="24" height="24" viewBox="0 0 24 24" fill="none" xmlns="http://www.w3.org/2000/svg">
<g opacity="0.14">
<path d="M19 13C19 14.1046 18.1046 15 17 15C15.8954 15 15 14.1046 15 13V9.41605C13.2341 10.1876 12 11.9497 12 14C12 15.1256 12.3719 16.1643 12.9996 17C13.5153 17.6865 14.2036 18.236 15 18.584L15 21H19V18.584C20.7659 17.8124 22 16.0503 22 14C22 12.3642 21.2144 10.9118 20 9.99964C19.6923 9.76849 19.357 9.57203 19 9.41605V13Z" fill="black"/>
<path d="M4 5H3C2.44772 5 2 5.44772 2 6V16C2 16.5523 2.44771 17 3 17H4H9.54241H12.9996C12.3719 16.1643 12 15.1256 12 14C12 11.9497 13.2341 10.1876 15 9.41605C15.6125 9.14845 16.2889 9 17 9C17.6904 9 18.348 9.13991 18.9462 9.39293C18.9642 9.40053 18.9821 9.40824 19 9.41605C19.357 9.57203 19.6923 9.76849 20 9.99964V6C20 5.44772 19.5523 5 19 5H18H4Z" fill="black"/>
</g>
<path d="M9.54241 17H3C2.44771 17 2 16.5523 2 16V6C2 5.44772 2.44772 5 3 5H19C19.5523 5 20 5.44772 20 6V6.5M4 5V3M18 5V3M4 17V21M19 21V18.584C20.7659 17.8124 22 16.0503 22 14C22 11.9497 20.7659 10.1876 19 9.41605V13C19 14.1046 18.1046 15 17 15C15.8954 15 15 14.1046 15 13V9.41605C13.2341 10.1876 12 11.9497 12 14C12 16.0503 13.2341 17.8124 15 18.584L15 21" stroke="black" stroke-width="2" stroke-linecap="round" stroke-linejoin="round"/>
</svg>
