<svg width="24" height="24" viewBox="0 0 24 24" fill="none" xmlns="http://www.w3.org/2000/svg">
<path opacity="0.14" d="M4 6H20C20.5523 6 21 6.44772 21 7V11.4C21 11.9601 21 12.2401 20.891 12.454C20.7951 12.6422 20.6422 12.7951 20.454 12.891C20.2401 13 19.9601 13 19.4 13H16V16.4C16 16.9601 16 17.2401 15.891 17.454C15.7951 17.6422 15.6422 17.7951 15.454 17.891C15.2401 18 14.9601 18 14.4 18H4C3.44772 18 3 17.5523 3 17V7C3 6.44772 3.44772 6 4 6Z" fill="black"/>
<path d="M16 18V19C16.2652 19 16.5196 18.8946 16.7071 18.7071L16 18ZM21 13L21.7071 13.7071C21.8946 13.5196 22 13.2652 22 13H21ZM16 13V12C15.4477 12 15 12.4477 15 13H16ZM6.5 8.5C5.94772 8.5 5.5 8.94772 5.5 9.5C5.5 10.0523 5.94772 10.5 6.5 10.5V8.5ZM6.509 10.5C7.06128 10.5 7.509 10.0523 7.509 9.5C7.509 8.94772 7.06128 8.5 6.509 8.5V10.5ZM4 7H20V5H4V7ZM4 17V7H2V17H4ZM16 17H4V19H16V17ZM20 7V13H22V7H20ZM2 17C2 18.1046 2.89543 19 4 19V17H4H2ZM20 7H22C22 5.89543 21.1046 5 20 5V7ZM4 5C2.89543 5 2 5.89543 2 7H4V7V5ZM16 14H21V12H16V14ZM17 18V13H15V18H17ZM16.7071 18.7071L21.7071 13.7071L20.2929 12.2929L15.2929 17.2929L16.7071 18.7071ZM6.5 10.5H6.509V8.5H6.5V10.5Z" fill="black"/>
</svg>
