<svg width="24" height="24" viewBox="0 0 24 24" fill="none" xmlns="http://www.w3.org/2000/svg">
<path opacity="0.14" d="M3 10V20C3 20.5523 3.44772 21 4 21H16V16H21V10C21 9.44772 20.5523 9 20 9H17H13.915C14.2801 8.51329 14.5 7.88541 14.5 7.2C14.5 6.82868 14.4355 6.47425 14.3183 6.15C13.9474 5.12386 12 3 12 3C12 3 10.0526 5.12386 9.68172 6.15C9.56453 6.47425 9.5 6.82868 9.5 7.2C9.5 7.88541 9.71989 8.51329 10.085 9H7H4C3.44772 9 3 9.44772 3 10Z" fill="black"/>
<path d="M16 21V22C16.2652 22 16.5196 21.8946 16.7071 21.7071L16 21ZM21 16L21.7071 16.7071C21.8946 16.5196 22 16.2652 22 16H21ZM7 10C7.55228 10 8 9.55228 8 9C8 8.44772 7.55228 8 7 8V10ZM17 8C16.4477 8 16 8.44772 16 9C16 9.55228 16.4477 10 17 10V8ZM16 16V15C15.4477 15 15 15.4477 15 16H16ZM6.5 11.5C5.94772 11.5 5.5 11.9477 5.5 12.5C5.5 13.0523 5.94772 13.5 6.5 13.5V11.5ZM6.509 13.5C7.06128 13.5 7.509 13.0523 7.509 12.5C7.509 11.9477 7.06128 11.5 6.509 11.5V13.5ZM12 3L12.7371 2.32417C12.5477 2.11761 12.2803 2 12 2C11.7197 2 11.4523 2.11761 11.2629 2.32417L12 3ZM9.68172 6.15L8.74126 5.8101L9.68172 6.15ZM14.3183 6.15L15.2587 5.8101L14.3183 6.15ZM4 20V10H2V20H4ZM16 20H4V22H16V20ZM20 10V16H22V10H20ZM4 10H7V8H4V10ZM17 10H20V8H17V10ZM2 20C2 21.1046 2.89543 22 4 22V20H4H2ZM22 10C22 8.89543 21.1046 8 20 8V10H22ZM4 10V8C2.89543 8 2 8.89543 2 10H4ZM16 17H21V15H16V17ZM17 21V16H15V21H17ZM16.7071 21.7071L21.7071 16.7071L20.2929 15.2929L15.2929 20.2929L16.7071 21.7071ZM6.5 13.5H6.509V11.5H6.5V13.5ZM13.5 7.2C13.5 8.30369 12.7249 9 12 9V11C14.0365 11 15.5 9.18911 15.5 7.2H13.5ZM12 9C11.2751 9 10.5 8.30369 10.5 7.2H8.5C8.5 9.18911 9.96345 11 12 11V9ZM10.5 7.2C10.5 6.94481 10.5443 6.70538 10.6222 6.4899L8.74126 5.8101C8.58476 6.24312 8.5 6.71256 8.5 7.2H10.5ZM10.6222 6.4899C10.6698 6.35806 10.8005 6.1191 11.026 5.78919C11.2399 5.47626 11.4999 5.13747 11.7574 4.81907C12.0136 4.50235 12.2598 4.2151 12.4423 4.00661C12.5333 3.90263 12.608 3.81887 12.6595 3.76157C12.6852 3.73293 12.7051 3.71094 12.7183 3.69638C12.7249 3.6891 12.7299 3.68368 12.733 3.68022C12.7346 3.6785 12.7358 3.67726 12.7364 3.67652C12.7368 3.67615 12.737 3.67591 12.7371 3.67579C12.7371 3.67573 12.7372 3.67571 12.7372 3.67571C12.7372 3.67572 12.7371 3.67574 12.7371 3.67575C12.7371 3.67578 12.7371 3.67583 12 3C11.2629 2.32417 11.2629 2.32423 11.2628 2.3243C11.2628 2.32434 11.2627 2.32441 11.2627 2.32448C11.2625 2.32462 11.2624 2.32478 11.2622 2.32498C11.2618 2.32538 11.2613 2.32591 11.2607 2.32657C11.2595 2.32788 11.2579 2.3297 11.2558 2.33202C11.2515 2.33666 11.2455 2.3433 11.2377 2.35183C11.2223 2.36888 11.2 2.39352 11.1717 2.42496C11.1152 2.48782 11.0349 2.578 10.9375 2.68916C10.7433 2.91097 10.4795 3.21881 10.2024 3.56132C9.92675 3.90216 9.63039 4.28673 9.37483 4.66062C9.13088 5.01754 8.87905 5.42887 8.74126 5.8101L10.6222 6.4899ZM12 3C11.2629 3.67583 11.2629 3.67578 11.2629 3.67575C11.2629 3.67574 11.2628 3.67572 11.2628 3.67571C11.2628 3.67571 11.2629 3.67573 11.2629 3.67579C11.263 3.67591 11.2632 3.67615 11.2636 3.67652C11.2642 3.67726 11.2654 3.67849 11.267 3.68022C11.2701 3.68368 11.2751 3.6891 11.2817 3.69638C11.2949 3.71094 11.3148 3.73293 11.3405 3.76157C11.392 3.81887 11.4667 3.90263 11.5577 4.00661C11.7402 4.2151 11.9864 4.50235 12.2426 4.81907C12.5001 5.13747 12.7601 5.47626 12.974 5.78919C13.1995 6.1191 13.3302 6.35806 13.3778 6.4899L15.2587 5.8101C15.121 5.42887 14.8691 5.01754 14.6252 4.66062C14.3696 4.28673 14.0733 3.90216 13.7976 3.56132C13.5205 3.21881 13.2567 2.91097 13.0625 2.68916C12.9651 2.578 12.8848 2.48782 12.8283 2.42496C12.8 2.39352 12.7777 2.36888 12.7623 2.35183C12.7545 2.3433 12.7485 2.33666 12.7442 2.33202C12.7421 2.3297 12.7405 2.32788 12.7393 2.32657C12.7387 2.32591 12.7382 2.32538 12.7378 2.32498C12.7376 2.32478 12.7375 2.32462 12.7373 2.32448C12.7373 2.32441 12.7372 2.32434 12.7372 2.3243C12.7371 2.32423 12.7371 2.32417 12 3ZM13.3778 6.4899C13.4557 6.70538 13.5 6.94481 13.5 7.2H15.5C15.5 6.71256 15.4152 6.24312 15.2587 5.8101L13.3778 6.4899Z" fill="black"/>
</svg>
