<svg width="24" height="24" viewBox="0 0 24 24" fill="none" xmlns="http://www.w3.org/2000/svg">
<g opacity="0.14">
<path d="M3 21.0002L8 8.00015L16 16.0002L3 21.0002Z" fill="black"/>
<path d="M18 8.00015L16 6.00015L19 3.00015C19.5523 2.44787 20.4477 2.44787 21 3.00015C21.5523 3.55244 21.5523 4.44787 21 5.00015L18 8.00015Z" fill="black"/>
</g>
<path d="M12.5 11.5002L17 7.00015M18 8.00015L16 6.00015L19 3.00015C19.5523 2.44787 20.4477 2.44787 21 3.00015C21.5523 3.55244 21.5523 4.44787 21 5.00015L18 8.00015ZM3 21.0002L8 8.00015L16 16.0002L3 21.0002Z" stroke="black" stroke-width="2" stroke-linecap="round" stroke-linejoin="round"/>
</svg>
