<svg width="24" height="24" viewBox="0 0 24 24" fill="none" xmlns="http://www.w3.org/2000/svg">
<g opacity="0.14">
<path d="M16 16C16 14.8954 16.8954 14 18 14C19.1046 14 20 14.8954 20 16H22V10H15V16H16Z" fill="black"/>
<path d="M12 12V8C12 6.89543 11.1046 6 10 6H4C2.89543 6 2 6.89543 2 8V12H12Z" fill="black"/>
</g>
<path d="M15 6V5C14.4477 5 14 5.44772 14 6H15ZM19 6L19.8 5.4C19.6111 5.14819 19.3148 5 19 5V6ZM14 16C14 16.5523 14.4477 17 15 17C15.5523 17 16 16.5523 16 16H14ZM22 10H23C23 9.78363 22.9298 9.5731 22.8 9.4L22 10ZM22 16V17C22.5523 17 23 16.5523 23 16H22ZM20.5 15C19.9477 15 19.5 15.4477 19.5 16C19.5 16.5523 19.9477 17 20.5 17V15ZM15 9C14.4477 9 14 9.44772 14 10C14 10.5523 14.4477 11 15 11V9ZM11 12C11 12.5523 11.4477 13 12 13C12.5523 13 13 12.5523 13 12H11ZM1 12C1 12.5523 1.44772 13 2 13C2.55228 13 3 12.5523 3 12H1ZM4.25 11C4.25 11.5523 4.69772 12 5.25 12C5.80228 12 6.25 11.5523 6.25 11H4.25ZM6.25 9C6.25 8.44772 5.80228 8 5.25 8C4.69772 8 4.25 8.44772 4.25 9H6.25ZM7.75 11C7.75 11.5523 8.19772 12 8.75 12C9.30228 12 9.75 11.5523 9.75 11H7.75ZM9.75 9C9.75 8.44772 9.30228 8 8.75 8C8.19772 8 7.75 8.44772 7.75 9H9.75ZM19 16C19 16.5523 18.5523 17 18 17V19C19.6569 19 21 17.6569 21 16H19ZM18 17C17.4477 17 17 16.5523 17 16H15C15 17.6569 16.3431 19 18 19V17ZM17 16C17 15.4477 17.4477 15 18 15V13C16.3431 13 15 14.3431 15 16H17ZM18 15C18.5523 15 19 15.4477 19 16H21C21 14.3431 19.6569 13 18 13V15ZM5 16C5 16.5523 4.55228 17 4 17V19C5.65685 19 7 17.6569 7 16H5ZM4 17C3.44772 17 3 16.5523 3 16H1C1 17.6569 2.34315 19 4 19V17ZM3 16C3 15.4477 3.44772 15 4 15V13C2.34315 13 1 14.3431 1 16H3ZM4 15C4.55228 15 5 15.4477 5 16H7C7 14.3431 5.65685 13 4 13V15ZM10 16C10 16.5523 9.55228 17 9 17V19C10.6569 19 12 17.6569 12 16H10ZM9 17C8.44772 17 8 16.5523 8 16H6C6 17.6569 7.34315 19 9 19V17ZM8 16C8 15.4477 8.44772 15 9 15V13C7.34315 13 6 14.3431 6 16H8ZM9 15C9.55228 15 10 15.4477 10 16H12C12 14.3431 10.6569 13 9 13V15ZM15 7H19V5H15V7ZM16 16V6H14V16H16ZM18.2 6.6L21.2 10.6L22.8 9.4L19.8 5.4L18.2 6.6ZM21 10V16H23V10H21ZM20.5 17H22V15H20.5V17ZM16 15H11V17H16V15ZM22 9H15V11H22V9ZM13 12V8H11V12H13ZM1 8V12H3V8H1ZM10 5H4V7H10V5ZM3 8C3 7.44772 3.44772 7 4 7V5C2.34315 5 1 6.34315 1 8H3ZM13 8C13 6.34315 11.6569 5 10 5V7C10.5523 7 11 7.44772 11 8H13ZM6.25 11V9H4.25V11H6.25ZM9.75 11V9H7.75V11H9.75Z" fill="black"/>
</svg>
