<svg width="24" height="24" viewBox="0 0 24 24" fill="none" xmlns="http://www.w3.org/2000/svg">
<path opacity="0.14" d="M15.0002 15C18.3139 15 21.0002 12.3137 21.0002 9C21.0002 8.11959 20.8106 7.28347 20.47 6.53026L16.8787 10.1216C16.6422 10.358 16.3033 10.4606 15.9754 10.395L14.6539 10.1307C14.2581 10.0516 13.9487 9.74214 13.8695 9.34628L13.6052 8.02479C13.5396 7.69693 13.6422 7.35799 13.8787 7.12157L17.47 3.53026C16.7168 3.18962 15.8806 3 15.0002 3C11.6865 3 9.00023 5.68629 9.00023 9C9.00023 9.88041 9.18985 10.7165 9.53048 11.4697L4.50023 16.5C3.6718 17.3284 3.6718 18.6716 4.50023 19.5C5.32865 20.3284 6.6718 20.3284 7.50023 19.5L12.5305 14.4697C13.2837 14.8104 14.1198 15 15.0002 15Z" fill="black"/>
<path d="M15.0002 15C18.3139 15 21.0002 12.3137 21.0002 9C21.0002 8.11959 20.8106 7.28347 20.47 6.53026L16.8787 10.1216C16.6422 10.358 16.3033 10.4606 15.9754 10.395L14.6539 10.1307C14.2581 10.0516 13.9487 9.74214 13.8695 9.34628L13.6052 8.02479C13.5396 7.69693 13.6422 7.35799 13.8787 7.12157L17.47 3.53026C16.7168 3.18962 15.8806 3 15.0002 3C11.6865 3 9.00023 5.68629 9.00023 9C9.00023 9.88041 9.18985 10.7165 9.53048 11.4697L4.50023 16.5C3.6718 17.3284 3.6718 18.6716 4.50023 19.5C5.32865 20.3284 6.6718 20.3284 7.50023 19.5L12.5305 14.4697C13.2837 14.8104 14.1198 15 15.0002 15Z" stroke="black" stroke-width="2" stroke-linejoin="round"/>
</svg>
