<svg width="24" height="24" viewBox="0 0 24 24" fill="none" xmlns="http://www.w3.org/2000/svg">
<path opacity="0.14" d="M14 16.2054V20.9999H10V16.2147C7.10049 15.3592 4.98438 12.6767 4.98438 9.49994C4.98438 6.50884 6.86041 3.95591 9.5 2.95361V9.04031L12 10.5403L14.5 9.04031V2.96557C17.1231 3.97609 18.9844 6.52066 18.9844 9.49994C18.9844 12.6652 16.8835 15.3399 14 16.2054Z" fill="black"/>
<path d="M14 20.9999V16.2054C16.8835 15.3399 18.9844 12.6652 18.9844 9.49994C18.9844 6.52066 17.1231 3.97609 14.5 2.96557V9.04031L12 10.5403L9.5 9.04031V2.95361C6.86041 3.95591 4.98438 6.50884 4.98438 9.49994C4.98438 12.6767 7.10049 15.3592 10 16.2147V20.9999" stroke="black" stroke-width="2" stroke-linecap="round" stroke-linejoin="round"/>
</svg>
