<svg width="24" height="24" viewBox="0 0 24 24" fill="none" xmlns="http://www.w3.org/2000/svg">
<path opacity="0.3" fill-rule="evenodd" clip-rule="evenodd" d="M9.94699 9.04007L8.80341 5.99053C8.86808 5.99684 8.93366 6.00007 8.99999 6.00007C9.67153 6.00007 10.2658 5.6691 10.6285 5.16138L11.7519 8.1571C12.1508 8.05459 12.569 8.00007 13 8.00007C14.0191 8.00007 14.9669 8.30494 15.7574 8.82846L18.0677 6.51811C18.2518 7.20633 18.7937 7.74828 19.4819 7.93232L17.1716 10.2427C17.6951 11.0331 18 11.981 18 13.0001C18 14.0191 17.6951 14.967 17.1716 15.7575L19.4819 18.0678C18.7937 18.2519 18.2518 18.7938 18.0677 19.482L15.7574 17.1717C14.9669 17.6952 14.0191 18.0001 13 18.0001C10.581 18.0001 8.56327 16.2823 8.1 14.0001H5.73242C5.90259 13.7059 5.99999 13.3644 5.99999 13.0001C5.99999 12.6358 5.90259 12.2942 5.73242 12.0001H8.1C8.34312 10.8024 9.01434 9.76016 9.94699 9.04007ZM13 15.0001C14.1046 15.0001 15 14.1046 15 13.0001C15 11.8955 14.1046 11.0001 13 11.0001C11.8954 11.0001 11 11.8955 11 13.0001C11 14.1046 11.8954 15.0001 13 15.0001Z" fill="black"/>
<path d="M9 6C10.1046 6 11 5.10457 11 4C11 2.89543 10.1046 2 9 2C7.89543 2 7 2.89543 7 4C7 5.10457 7.89543 6 9 6Z" fill="black"/>
<path d="M20 8C21.1046 8 22 7.10457 22 6C22 4.89543 21.1046 4 20 4C18.8954 4 18 4.89543 18 6C18 7.10457 18.8954 8 20 8Z" fill="black"/>
<path d="M6 13C6 14.1046 5.10457 15 4 15C2.89543 15 2 14.1046 2 13C2 11.8954 2.89543 11 4 11C5.10457 11 6 11.8954 6 13Z" fill="black"/>
<path d="M20 22C21.1046 22 22 21.1046 22 20C22 18.8954 21.1046 18 20 18C18.8954 18 18 18.8954 18 20C18 21.1046 18.8954 22 20 22Z" fill="black"/>
</svg>
