<svg width="24" height="24" viewBox="0 0 24 24" fill="none" xmlns="http://www.w3.org/2000/svg">
<path opacity="0.3" fill-rule="evenodd" clip-rule="evenodd" d="M12 2C12.5523 2 13 2.44772 13 3V11H21C21.5523 11 22 11.4477 22 12C22 12.5523 21.5523 13 21 13H13V21C13 21.5523 12.5523 22 12 22C11.4477 22 11 21.5523 11 21V13H3C2.44772 13 2 12.5523 2 12C2 11.4477 2.44772 11 3 11H11V3C11 2.44772 11.4477 2 12 2ZM14 16C14 15.4477 14.4477 15 15 15H20C20.5523 15 21 15.4477 21 16C21 16.5523 20.5523 17 20 17H15C14.4477 17 14 16.5523 14 16ZM14 19C14 18.4477 14.4477 18 15 18H20C20.5523 18 21 18.4477 21 19C21 19.5523 20.5523 20 20 20H15C14.4477 20 14 19.5523 14 19Z" fill="black"/>
<path d="M17.5 3C18.0523 3 18.5 3.44772 18.5 4V5.5H20C20.5523 5.5 21 5.94772 21 6.5C21 7.05228 20.5523 7.5 20 7.5H18.5V9C18.5 9.55228 18.0523 10 17.5 10C16.9477 10 16.5 9.55228 16.5 9V7.5H15C14.4477 7.5 14 7.05228 14 6.5C14 5.94772 14.4477 5.5 15 5.5H16.5V4C16.5 3.44772 16.9477 3 17.5 3Z" fill="black"/>
<path d="M3 7C3 6.44772 3.44772 6 4 6H9C9.55228 6 10 6.44772 10 7C10 7.55228 9.55228 8 9 8H4C3.44772 8 3 7.55228 3 7Z" fill="black"/>
<path d="M3.29289 15.7071C2.90237 15.3166 2.90237 14.6834 3.29289 14.2929C3.68342 13.9024 4.31658 13.9024 4.70711 14.2929L6.5 16.0858L8.29289 14.2929C8.68342 13.9024 9.31658 13.9024 9.70711 14.2929C10.0976 14.6834 10.0976 15.3166 9.70711 15.7071L7.91421 17.5L9.70711 19.2929C10.0976 19.6834 10.0976 20.3166 9.70711 20.7071C9.31658 21.0976 8.68342 21.0976 8.29289 20.7071L6.5 18.9142L4.70711 20.7071C4.31658 21.0976 3.68342 21.0976 3.29289 20.7071C2.90237 20.3166 2.90237 19.6834 3.29289 19.2929L5.08579 17.5L3.29289 15.7071Z" fill="black"/>
</svg>
