<svg width="24" height="24" viewBox="0 0 24 24" fill="none" xmlns="http://www.w3.org/2000/svg">
<path d="M12 4C10.6193 4 9.5 5.11929 9.5 6.5C9.5 7.88071 10.6193 9 12 9C13.3807 9 14.5 7.88071 14.5 6.5C14.5 5.11929 13.3807 4 12 4Z" fill="black"/>
<path d="M12 15C10.6193 15 9.5 16.1193 9.5 17.5C9.5 18.8807 10.6193 20 12 20C13.3807 20 14.5 18.8807 14.5 17.5C14.5 16.1193 13.3807 15 12 15Z" fill="black"/>
<path opacity="0.3" d="M2 12C2 11.4477 2.44772 11 3 11H21C21.5523 11 22 11.4477 22 12C22 12.5523 21.5523 13 21 13H3C2.44772 13 2 12.5523 2 12Z" fill="black"/>
</svg>
