<svg width="24" height="24" viewBox="0 0 24 24" fill="none" xmlns="http://www.w3.org/2000/svg">
<g opacity="0.3">
<path d="M12.7233 20.3095C13.1047 20.709 13.09 21.342 12.6905 21.7233C12.291 22.1047 11.658 22.09 11.2767 21.6905C9.86699 20.2137 9 18.2071 9 16C9 13.7929 9.86699 11.7863 11.2767 10.3095C11.658 9.91002 12.291 9.89531 12.6905 10.2767C13.09 10.658 13.1047 11.291 12.7233 11.6905C11.6556 12.8091 11 14.3261 11 16C11 17.6739 11.6556 19.1909 12.7233 20.3095Z" fill="black"/>
<path d="M19.2767 20.3095C18.8953 20.709 18.91 21.342 19.3095 21.7233C19.709 22.1047 20.342 22.09 20.7233 21.6905C22.133 20.2137 23 18.2071 23 16C23 13.7929 22.133 11.7863 20.7233 10.3095C20.342 9.91002 19.709 9.89531 19.3095 10.2767C18.91 10.658 18.8953 11.291 19.2767 11.6905C20.3444 12.8091 21 14.3261 21 16C21 17.6739 20.3444 19.1909 19.2767 20.3095Z" fill="black"/>
<path d="M18.7071 13.2929C19.0976 13.6834 19.0976 14.3166 18.7071 14.7071L17.4142 16L18.7071 17.2929C19.0976 17.6834 19.0976 18.3166 18.7071 18.7071C18.3166 19.0976 17.6834 19.0976 17.2929 18.7071L16 17.4142L14.7071 18.7071C14.3166 19.0976 13.6834 19.0976 13.2929 18.7071C12.9024 18.3166 12.9024 17.6834 13.2929 17.2929L14.5858 16L13.2929 14.7071C12.9024 14.3166 12.9024 13.6834 13.2929 13.2929C13.6834 12.9024 14.3166 12.9024 14.7071 13.2929L16 14.5858L17.2929 13.2929C17.6834 12.9024 18.3166 12.9024 18.7071 13.2929Z" fill="black"/>
</g>
<path fill-rule="evenodd" clip-rule="evenodd" d="M8 4C6.89543 4 6 4.89543 6 6V9H8C8.55228 9 9 9.44772 9 10C9 10.5523 8.55228 11 8 11H6V18C6 20.2091 4.20914 22 2 22C1.44772 22 1 21.5523 1 21C1 20.4477 1.44772 20 2 20C3.10457 20 4 19.1046 4 18V11H2C1.44772 11 1 10.5523 1 10C1 9.44772 1.44772 9 2 9H4V6C4 3.79086 5.79086 2 8 2H10C10.5523 2 11 2.44772 11 3C11 3.55228 10.5523 4 10 4H8Z" fill="black"/>
</svg>
