<svg width="24" height="24" viewBox="0 0 24 24" fill="none" xmlns="http://www.w3.org/2000/svg">
<path fill-rule="evenodd" clip-rule="evenodd" d="M2 21C2 20.4477 2.44772 20 3 20H21C21.5523 20 22 20.4477 22 21C22 21.5523 21.5523 22 21 22H3C2.44772 22 2 21.5523 2 21Z" fill="black"/>
<path opacity="0.3" fill-rule="evenodd" clip-rule="evenodd" d="M2.06826 2.63758C2.26844 2.12285 2.84798 1.86785 3.36271 2.06802L21.3627 9.06802C21.7471 9.2175 22.0003 9.58761 22.0003 10C22.0003 10.4124 21.7471 10.7826 21.3627 10.932L3.36271 17.932C2.84798 18.1322 2.26844 17.8772 2.06826 17.3625C1.86809 16.8477 2.12309 16.2682 2.63782 16.068L18.2412 10L2.63782 3.93203C2.12309 3.73186 1.86809 3.15231 2.06826 2.63758Z" fill="black"/>
</svg>
