<svg width="24" height="24" viewBox="0 0 24 24" fill="none" xmlns="http://www.w3.org/2000/svg">
<path opacity="0.3" fill-rule="evenodd" clip-rule="evenodd" d="M21.9323 11.6376C22.1324 12.1523 21.8774 12.7319 21.3627 12.932L3.36271 19.932C2.84798 20.1322 2.26844 19.8772 2.06826 19.3625C1.86809 18.8477 2.12309 18.2682 2.63782 18.068L20.6378 11.068C21.1526 10.8678 21.7321 11.1228 21.9323 11.6376Z" fill="black"/>
<path fill-rule="evenodd" clip-rule="evenodd" d="M2.06826 4.63758C2.26844 4.12285 2.84798 3.86785 3.36271 4.06802L21.3627 11.068C21.8774 11.2682 22.1324 11.8477 21.9323 12.3625C21.7321 12.8772 21.1526 13.1322 20.6378 12.932L2.63782 5.93203C2.12309 5.73186 1.86809 5.15231 2.06826 4.63758Z" fill="black"/>
</svg>
