<svg width="24" height="24" viewBox="0 0 24 24" fill="none" xmlns="http://www.w3.org/2000/svg">
<path opacity="0.3" fill-rule="evenodd" clip-rule="evenodd" d="M1.19995 11.5841C1.14168 11.8583 1.14168 12.1416 1.19995 12.4158C1.26734 12.7328 1.4314 13.0146 1.56186 13.2387L1.5974 13.3L5.67364 20.3602L5.7089 20.4216C5.83774 20.6467 5.99977 20.9296 6.24064 21.1465C6.44893 21.3341 6.69431 21.4757 6.96087 21.5623C7.26912 21.6625 7.5952 21.6613 7.85451 21.6604L7.92531 21.6602H16.0778L16.1486 21.6604C16.4079 21.6613 16.734 21.6625 17.0422 21.5623C17.3088 21.4757 17.5542 21.3341 17.7625 21.1465C18.0033 20.9297 18.1653 20.6467 18.2942 20.4217L18.3295 20.3602L22.4057 13.3L22.4412 13.2388C22.5717 13.0147 22.7358 12.7328 22.8031 12.4158C22.8614 12.1416 22.8614 11.8583 22.8031 11.5841C22.7358 11.2671 22.5717 10.9853 22.4412 10.7612L22.4057 10.7L18.3295 3.63971L18.2942 3.57831C18.1654 3.35328 18.0033 3.07029 17.7625 2.85342C17.5542 2.66588 17.3088 2.52421 17.0422 2.4376C16.734 2.33744 16.4079 2.33861 16.1486 2.33954L16.0778 2.33971H7.92531L7.85451 2.33954C7.59521 2.33861 7.26911 2.33744 6.96087 2.4376C6.69431 2.52421 6.44893 2.66588 6.24064 2.85342C5.99977 3.0703 5.83774 3.35329 5.70889 3.57832L5.67364 3.63971L1.5974 10.7L1.56186 10.7612C1.4314 10.9853 1.26734 11.2671 1.19995 11.5841ZM7 11.9999C7 11.4476 7.44772 10.9999 8 10.9999H11V7.99988C11 7.44759 11.4477 6.99988 12 6.99988C12.5523 6.99988 13 7.44759 13 7.99988V10.9999H16C16.5523 10.9999 17 11.4476 17 11.9999C17 12.5522 16.5523 12.9999 16 12.9999H13V15.9999C13 16.5522 12.5523 16.9999 12 16.9999C11.4477 16.9999 11 16.5522 11 15.9999V12.9999H8C7.44772 12.9999 7 12.5522 7 11.9999Z" fill="black"/>
<path d="M7 12C7 11.4477 7.44772 11 8 11H11V8C11 7.44772 11.4477 7 12 7C12.5523 7 13 7.44772 13 8V11H16C16.5523 11 17 11.4477 17 12C17 12.5523 16.5523 13 16 13H13V16C13 16.5523 12.5523 17 12 17C11.4477 17 11 16.5523 11 16V13H8C7.44772 13 7 12.5523 7 12Z" fill="black"/>
</svg>
