<svg width="24" height="24" viewBox="0 0 24 24" fill="none" xmlns="http://www.w3.org/2000/svg">
<path d="M12 7C11.4477 7 11 7.44772 11 8C11 8.55228 11.4477 9 12 9H12.009C12.5613 9 13.009 8.55228 13.009 8C13.009 7.44772 12.5613 7 12.009 7H12Z" fill="black"/>
<path d="M7 11C6.44772 11 6 11.4477 6 12C6 12.5523 6.44772 13 7 13H17C17.5523 13 18 12.5523 18 12C18 11.4477 17.5523 11 17 11H7Z" fill="black"/>
<path d="M12 15C11.4477 15 11 15.4477 11 16C11 16.5523 11.4477 17 12 17H12.009C12.5613 17 13.009 16.5523 13.009 16C13.009 15.4477 12.5613 15 12.009 15H12Z" fill="black"/>
<path opacity="0.3" fill-rule="evenodd" clip-rule="evenodd" d="M7.85451 2.33954L7.92531 2.33971H16.0778L16.1486 2.33954C16.4079 2.33861 16.734 2.33744 17.0422 2.4376C17.3088 2.52421 17.5542 2.66588 17.7625 2.85342C18.0033 3.0703 18.1654 3.35328 18.2942 3.57831L18.3295 3.63971L22.4057 10.7L22.4412 10.7612C22.5717 10.9853 22.7358 11.2671 22.8031 11.5841C22.8614 11.8583 22.8614 12.1416 22.8031 12.4158C22.7358 12.7328 22.5717 13.0146 22.4412 13.2387L22.4057 13.3L18.3295 20.3602L18.2942 20.4216C18.1654 20.6466 18.0033 20.9296 17.7625 21.1465C17.5542 21.3341 17.3088 21.4757 17.0422 21.5623C16.734 21.6625 16.4079 21.6613 16.1486 21.6604L16.0778 21.6602H7.92531L7.85452 21.6604C7.59521 21.6613 7.26912 21.6625 6.96087 21.5623C6.6943 21.4757 6.44892 21.3341 6.24064 21.1465C5.99977 20.9296 5.83774 20.6467 5.7089 20.4216L5.67364 20.3602L1.5974 13.3L1.56186 13.2387C1.4314 13.0146 1.26734 12.7328 1.19995 12.4158C1.14168 12.1416 1.14168 11.8583 1.19995 11.5841C1.26734 11.2671 1.4314 10.9853 1.56186 10.7612L1.5974 10.7L5.67364 3.63971L5.70889 3.57831C5.83774 3.35328 5.99977 3.0703 6.24064 2.85342C6.44893 2.66588 6.69431 2.52421 6.96087 2.4376C7.26912 2.33744 7.5952 2.33861 7.85451 2.33954ZM12 7C11.4477 7 11 7.44772 11 8C11 8.55228 11.4477 9 12 9H12.009C12.5613 9 13.009 8.55228 13.009 8C13.009 7.44772 12.5613 7 12.009 7H12ZM7 11C6.44772 11 6 11.4477 6 12C6 12.5523 6.44772 13 7 13H17C17.5523 13 18 12.5523 18 12C18 11.4477 17.5523 11 17 11H7ZM12 15C11.4477 15 11 15.4477 11 16C11 16.5523 11.4477 17 12 17H12.009C12.5613 17 13.009 16.5523 13.009 16C13.009 15.4477 12.5613 15 12.009 15H12Z" fill="black"/>
</svg>
