<svg width="24" height="24" viewBox="0 0 24 24" fill="none" xmlns="http://www.w3.org/2000/svg">
<path opacity="0.3" fill-rule="evenodd" clip-rule="evenodd" d="M1.19995 11.5841C1.14168 11.8583 1.14168 12.1416 1.19995 12.4158C1.26734 12.7328 1.4314 13.0146 1.56186 13.2387L1.5974 13.3L5.67364 20.3602L5.7089 20.4216C5.83774 20.6467 5.99977 20.9296 6.24064 21.1465C6.44893 21.3341 6.69431 21.4757 6.96087 21.5623C7.26912 21.6625 7.5952 21.6613 7.85451 21.6604L7.92531 21.6602H16.0778L16.1486 21.6604C16.4079 21.6613 16.734 21.6625 17.0422 21.5623C17.3088 21.4757 17.5542 21.3341 17.7625 21.1465C18.0033 20.9297 18.1653 20.6467 18.2942 20.4217L18.3295 20.3602L22.4057 13.3L22.4412 13.2388C22.5717 13.0147 22.7358 12.7328 22.8031 12.4158C22.8614 12.1416 22.8614 11.8583 22.8031 11.5841C22.7358 11.2671 22.5717 10.9853 22.4412 10.7612L22.4057 10.7L18.3295 3.63971L18.2942 3.57831C18.1654 3.35328 18.0033 3.07029 17.7625 2.85342C17.5542 2.66588 17.3088 2.52421 17.0422 2.4376C16.734 2.33744 16.4079 2.33861 16.1486 2.33954L16.0778 2.33971H7.92531L7.85451 2.33954C7.59521 2.33861 7.26911 2.33744 6.96087 2.4376C6.69431 2.52421 6.44893 2.66588 6.24064 2.85342C5.99977 3.0703 5.83774 3.35329 5.70889 3.57832L5.67364 3.63971L1.5974 10.7L1.56186 10.7612C1.4314 10.9853 1.26734 11.2671 1.19995 11.5841ZM12.0002 10.5858L14.2932 8.29273C14.6837 7.90221 15.3169 7.90221 15.7074 8.29273C16.0979 8.68326 16.0979 9.31642 15.7074 9.70695L13.4144 12L15.7073 14.2928C16.0978 14.6833 16.0978 15.3165 15.7073 15.707C15.3167 16.0976 14.6836 16.0976 14.293 15.707L12.0002 13.4142L9.70743 15.7069C9.3169 16.0975 8.68374 16.0975 8.29321 15.7069C7.90269 15.3164 7.90269 14.6833 8.29321 14.2927L10.586 12L8.29304 9.70703C7.90252 9.31651 7.90252 8.68334 8.29304 8.29282C8.68357 7.90229 9.31673 7.90229 9.70726 8.29282L12.0002 10.5858Z" fill="black"/>
<path d="M10.5858 12.0001L8.29306 14.2929C7.90254 14.6834 7.90254 15.3166 8.29306 15.7071C8.68359 16.0976 9.31675 16.0976 9.70727 15.7071L12 13.4143L14.2929 15.7072C14.6834 16.0977 15.3166 16.0977 15.7071 15.7072C16.0976 15.3167 16.0976 14.6835 15.7071 14.293L13.4143 12.0001L15.7073 9.70711C16.0978 9.31658 16.0978 8.68342 15.7073 8.29289C15.3168 7.90237 14.6836 7.90237 14.2931 8.29289L12 10.5859L9.70711 8.29298C9.31658 7.90245 8.68342 7.90245 8.29289 8.29298C7.90237 8.6835 7.90237 9.31667 8.29289 9.70719L10.5858 12.0001Z" fill="black"/>
</svg>
