<svg width="24" height="24" viewBox="0 0 24 24" fill="none" xmlns="http://www.w3.org/2000/svg">
<path opacity="0.3" fill-rule="evenodd" clip-rule="evenodd" d="M14.5 4C13.6716 4 13 4.67157 13 5.5V18.5C13 20.433 11.433 22 9.5 22C7.567 22 6 20.433 6 18.5V16C6 15.4477 6.44772 15 7 15C7.55228 15 8 15.4477 8 16V18.5C8 19.3284 8.67157 20 9.5 20C10.3284 20 11 19.3284 11 18.5V5.5C11 3.567 12.567 2 14.5 2C16.433 2 18 3.567 18 5.5V8C18 8.55228 17.5523 9 17 9C16.4477 9 16 8.55228 16 8V5.5C16 4.67157 15.3284 4 14.5 4Z" fill="black"/>
</svg>
