<svg width="24" height="24" viewBox="0 0 24 24" fill="none" xmlns="http://www.w3.org/2000/svg">
<path opacity="0.3" d="M3 2C2.44772 2 2 2.44772 2 3C2 3.55228 2.44772 4 3 4H9.31593L10.4436 6.89959L2.14682 20.4786C1.85887 20.9499 2.00749 21.5654 2.47877 21.8533C2.95004 22.1413 3.56552 21.9927 3.85347 21.5214L11.3551 9.24363L15.8201 20.7249C16.119 21.4936 16.8592 22 17.6841 22H21C21.5523 22 22 21.5523 22 21C22 20.4477 21.5523 20 21 20L17.6841 20L11.1799 3.27511C10.881 2.50636 10.1408 2 9.31593 2H3Z" fill="black"/>
</svg>
