<svg width="24" height="24" viewBox="0 0 24 24" fill="none" xmlns="http://www.w3.org/2000/svg">
<path opacity="0.3" fill-rule="evenodd" clip-rule="evenodd" d="M21.9317 2.63733C21.7316 2.1226 21.152 1.8676 20.6373 2.06778L2.63729 9.06778C2.25291 9.21725 1.99973 9.58737 1.99973 9.99978C1.99973 10.4122 2.25291 10.7823 2.63729 10.9318L20.6373 17.9318C21.152 18.132 21.7316 17.877 21.9317 17.3622C22.1319 16.8475 21.8769 16.2679 21.3622 16.0678L5.75876 9.99978L21.3622 3.93179C21.8769 3.73161 22.1319 3.15207 21.9317 2.63733Z" fill="black"/>
<path fill-rule="evenodd" clip-rule="evenodd" d="M22 21C22 20.4477 21.5523 20 21 20H3C2.44772 20 2 20.4477 2 21C2 21.5523 2.44772 22 3 22H21C21.5523 22 22 21.5523 22 21Z" fill="black"/>
</svg>
