<svg width="24" height="24" viewBox="0 0 24 24" fill="none" xmlns="http://www.w3.org/2000/svg">
<path fill-rule="evenodd" clip-rule="evenodd" d="M21.9317 4.63733C21.7316 4.1226 21.152 3.8676 20.6373 4.06778L2.63729 11.0678C2.12255 11.2679 1.86755 11.8475 2.06773 12.3622C2.2679 12.877 2.84744 13.132 3.36218 12.9318L21.3622 5.93179C21.8769 5.73161 22.1319 5.15207 21.9317 4.63733Z" fill="black"/>
<path opacity="0.3" fill-rule="evenodd" clip-rule="evenodd" d="M2.06773 11.6373C1.86755 12.1521 2.12255 12.7316 2.63729 12.9318L20.6373 19.9318C21.152 20.132 21.7316 19.877 21.9317 19.3622C22.1319 18.8475 21.8769 18.2679 21.3622 18.0678L3.36218 11.0678C2.84744 10.8676 2.2679 11.1226 2.06773 11.6373Z" fill="black"/>
</svg>
