<svg width="24" height="24" viewBox="0 0 24 24" fill="none" xmlns="http://www.w3.org/2000/svg">
<g opacity="0.3">
<path fill-rule="evenodd" clip-rule="evenodd" d="M2 16C2 15.4477 2.44772 15 3 15H21C21.5523 15 22 15.4477 22 16C22 16.5523 21.5523 17 21 17H3C2.44772 17 2 16.5523 2 16Z" fill="black"/>
<path fill-rule="evenodd" clip-rule="evenodd" d="M2 8C2 7.44772 2.44772 7 3 7H21C21.5523 7 22 7.44772 22 8C22 8.55228 21.5523 9 21 9H3C2.44772 9 2 8.55228 2 8Z" fill="black"/>
</g>
<path fill-rule="evenodd" clip-rule="evenodd" d="M19.6585 3.24744C20.0742 3.61112 20.1163 4.24288 19.7526 4.65852L5.75259 20.6585C5.38891 21.0742 4.75715 21.1163 4.34151 20.7526C3.92587 20.3889 3.88375 19.7571 4.24744 19.3415L18.2474 3.34151C18.6111 2.92587 19.2429 2.88375 19.6585 3.24744Z" fill="black"/>
</svg>
