<svg width="24" height="24" viewBox="0 0 24 24" fill="none" xmlns="http://www.w3.org/2000/svg">
<path opacity="0.3" fill-rule="evenodd" clip-rule="evenodd" d="M7.29289 1.29289C7.48043 1.10536 7.73478 1 8 1H16C16.2652 1 16.5196 1.10536 16.7071 1.29289L22.7071 7.29289C22.8946 7.48043 23 7.73478 23 8V16C23 16.2652 22.8946 16.5196 22.7071 16.7071L16.7071 22.7071C16.5196 22.8946 16.2652 23 16 23H8C7.73478 23 7.48043 22.8946 7.29289 22.7071L1.29289 16.7071C1.10536 16.5196 1 16.2652 1 16V8C1 7.73478 1.10536 7.48043 1.29289 7.29289L7.29289 1.29289ZM12 7C11.4477 7 11 7.44772 11 8C11 8.55228 11.4477 9 12 9H12.009C12.5613 9 13.009 8.55228 13.009 8C13.009 7.44772 12.5613 7 12.009 7H12ZM7 11C6.44772 11 6 11.4477 6 12C6 12.5523 6.44772 13 7 13H17C17.5523 13 18 12.5523 18 12C18 11.4477 17.5523 11 17 11H7ZM12 15C11.4477 15 11 15.4477 11 16C11 16.5523 11.4477 17 12 17H12.009C12.5613 17 13.009 16.5523 13.009 16C13.009 15.4477 12.5613 15 12.009 15H12Z" fill="black"/>
<path fill-rule="evenodd" clip-rule="evenodd" d="M6 12C6 11.4477 6.44772 11 7 11H17C17.5523 11 18 11.4477 18 12C18 12.5523 17.5523 13 17 13H7C6.44772 13 6 12.5523 6 12Z" fill="black"/>
<path fill-rule="evenodd" clip-rule="evenodd" d="M11 8C11 7.44772 11.4477 7 12 7H12.009C12.5613 7 13.009 7.44772 13.009 8C13.009 8.55228 12.5613 9 12.009 9H12C11.4477 9 11 8.55228 11 8Z" fill="black"/>
<path fill-rule="evenodd" clip-rule="evenodd" d="M11 16C11 15.4477 11.4477 15 12 15H12.009C12.5613 15 13.009 15.4477 13.009 16C13.009 16.5523 12.5613 17 12.009 17H12C11.4477 17 11 16.5523 11 16Z" fill="black"/>
</svg>
