<svg width="24" height="24" viewBox="0 0 24 24" fill="none" xmlns="http://www.w3.org/2000/svg">
<path opacity="0.3" fill-rule="evenodd" clip-rule="evenodd" d="M8 1C7.73478 1 7.48043 1.10536 7.29289 1.29289L1.29289 7.29289C1.10536 7.48043 1 7.73478 1 8V16C1 16.2652 1.10536 16.5196 1.29289 16.7071L7.29289 22.7071C7.48043 22.8946 7.73478 23 8 23H16C16.2652 23 16.5196 22.8946 16.7071 22.7071L22.7071 16.7071C22.8946 16.5196 23 16.2652 23 16V8C23 7.73478 22.8946 7.48043 22.7071 7.29289L16.7071 1.29289C16.5196 1.10536 16.2652 1 16 1H8ZM13 11H16C16.5523 11 17 11.4477 17 12C17 12.5523 16.5523 13 16 13H13V16C13 16.5523 12.5523 17 12 17C11.4477 17 11 16.5523 11 16V13H8C7.44772 13 7 12.5523 7 12C7 11.4477 7.44772 11 8 11H11V8C11 7.44772 11.4477 7 12 7C12.5523 7 13 7.44772 13 8V11Z" fill="black"/>
<path d="M13 8C13 7.44772 12.5523 7 12 7C11.4477 7 11 7.44772 11 8V11H8C7.44772 11 7 11.4477 7 12C7 12.5523 7.44772 13 8 13H11V16C11 16.5523 11.4477 17 12 17C12.5523 17 13 16.5523 13 16V13H16C16.5523 13 17 12.5523 17 12C17 11.4477 16.5523 11 16 11H13V8Z" fill="black"/>
</svg>
