<svg width="24" height="24" viewBox="0 0 24 24" fill="none" xmlns="http://www.w3.org/2000/svg">
<path opacity="0.3" fill-rule="evenodd" clip-rule="evenodd" d="M14.8292 6.10557C15.168 5.42801 15.8605 5 16.618 5H21C21.5523 5 22 5.44772 22 6C22 6.55228 21.5523 7 21 7L16.618 7L10.8944 18.4472C10.735 18.7661 10.4179 18.9759 10.0621 18.9981C9.70636 19.0202 9.36568 18.8513 9.16795 18.5547L5.46482 13H3C2.44772 13 2 12.5523 2 12C2 11.4477 2.44772 11 3 11H5.46482C6.13352 11 6.75799 11.3342 7.12892 11.8906L9.8762 16.0115L14.8292 6.10557Z" fill="black"/>
<path d="M21.7071 13.7071C22.0976 13.3166 22.0976 12.6834 21.7071 12.2929C21.3166 11.9024 20.6834 11.9024 20.2929 12.2929L18.5 14.0858L16.7071 12.2929C16.3166 11.9024 15.6834 11.9024 15.2929 12.2929C14.9024 12.6834 14.9024 13.3166 15.2929 13.7071L17.0858 15.5L15.2929 17.2929C14.9024 17.6834 14.9024 18.3166 15.2929 18.7071C15.6834 19.0976 16.3166 19.0976 16.7071 18.7071L18.5 16.9142L20.2929 18.7071C20.6834 19.0976 21.3166 19.0976 21.7071 18.7071C22.0976 18.3166 22.0976 17.6834 21.7071 17.2929L19.9142 15.5L21.7071 13.7071Z" fill="black"/>
</svg>
