<svg width="24" height="24" viewBox="0 0 24 24" fill="none" xmlns="http://www.w3.org/2000/svg">
<g opacity="0.3">
<path fill-rule="evenodd" clip-rule="evenodd" d="M6 3C6.55228 3 7 3.44772 7 4V20C7 20.5523 6.55228 21 6 21C5.44772 21 5 20.5523 5 20V4C5 3.44772 5.44772 3 6 3Z" fill="black"/>
<path fill-rule="evenodd" clip-rule="evenodd" d="M10 3C10.5523 3 11 3.44772 11 4V20C11 20.5523 10.5523 21 10 21C9.44772 21 9 20.5523 9 20V4C9 3.44772 9.44772 3 10 3Z" fill="black"/>
</g>
<path fill-rule="evenodd" clip-rule="evenodd" d="M14 3C14.5523 3 15 3.44772 15 4V20C15 20.5523 14.5523 21 14 21C13.4477 21 13 20.5523 13 20V4C13 3.44772 13.4477 3 14 3Z" fill="black"/>
</svg>
