<svg width="24" height="24" viewBox="0 0 24 24" fill="none" xmlns="http://www.w3.org/2000/svg">
<path opacity="0.3" d="M17.7071 6.29289C18.0976 6.68342 18.0976 7.31658 17.7071 7.70711L13.4142 12L17.7071 16.2929C18.0976 16.6834 18.0976 17.3166 17.7071 17.7071C17.3166 18.0976 16.6834 18.0976 16.2929 17.7071L12 13.4142L7.70711 17.7071C7.31658 18.0976 6.68342 18.0976 6.29289 17.7071C5.90237 17.3166 5.90237 16.6834 6.29289 16.2929L10.5858 12L6.29289 7.70711C5.90237 7.31658 5.90237 6.68342 6.29289 6.29289C6.68342 5.90237 7.31658 5.90237 7.70711 6.29289L12 10.5858L16.2929 6.29289C16.6834 5.90237 17.3166 5.90237 17.7071 6.29289Z" fill="black"/>
<path d="M4 3C4 2.44772 3.55228 2 3 2C2.44772 2 2 2.44772 2 3V21C2 21.5523 2.44772 22 3 22C3.55228 22 4 21.5523 4 21V3Z" fill="black"/>
<path d="M22 3C22 2.44772 21.5523 2 21 2C20.4477 2 20 2.44772 20 3V21C20 21.5523 20.4477 22 21 22C21.5523 22 22 21.5523 22 21V3Z" fill="black"/>
</svg>
