<svg width="24" height="24" viewBox="0 0 24 24" fill="none" xmlns="http://www.w3.org/2000/svg">
<path opacity="0.3" fill-rule="evenodd" clip-rule="evenodd" d="M1 6C1 5.44772 1.44772 5 2 5H2.228C4.31222 5 6.17782 6.29286 6.90965 8.24437L9.55852 15.308C9.94016 16.3257 10.9131 16.9999 12 16.9999C13.0869 16.9999 14.0598 16.3257 14.4415 15.308C14.6354 14.7909 15.2118 14.5289 15.7289 14.7228C16.2461 14.9167 16.5081 15.4931 16.3141 16.0102C15.6398 17.8086 13.9206 18.9999 12 18.9999C10.0794 18.9999 8.36023 17.8086 7.68586 16.0102L5.03699 8.94662C4.5979 7.77572 3.47853 7 2.228 7H2C1.44772 7 1 6.55228 1 6ZM21.772 7C20.5215 7 19.4021 7.77572 18.963 8.94663C18.7691 9.46375 18.1927 9.72575 17.6756 9.53183C17.1584 9.33791 16.8964 8.76149 17.0904 8.24437C17.8222 6.29286 19.6878 5 21.772 5H22C22.5523 5 23 5.44772 23 6C23 6.55228 22.5523 7 22 7H21.772Z" fill="black"/>
<path fill-rule="evenodd" clip-rule="evenodd" d="M12 7C10.9131 7 9.94016 7.67423 9.55852 8.69195C9.3646 9.20907 8.78818 9.47107 8.27106 9.27715C7.75394 9.08323 7.49194 8.50682 7.68586 7.9897C8.36023 6.19137 10.0794 5 12 5C13.9206 5 15.6398 6.19137 16.3141 7.9897L18.963 15.0533C19.4021 16.2242 20.5215 16.9999 21.772 16.9999H22C22.5523 16.9999 23 17.4477 23 17.9999C23 18.5522 22.5523 18.9999 22 18.9999H21.772C19.6878 18.9999 17.8222 17.7071 17.0904 15.7556L14.4415 8.69195C14.0598 7.67423 13.0869 7 12 7ZM6.32444 14.4681C6.84156 14.662 7.10357 15.2384 6.90965 15.7556C6.17782 17.7071 4.31222 18.9999 2.228 18.9999H2C1.44772 18.9999 1 18.5522 1 17.9999C1 17.4477 1.44772 16.9999 2 16.9999H2.228C3.47853 16.9999 4.5979 16.2242 5.03699 15.0533C5.23091 14.5362 5.80732 14.2742 6.32444 14.4681Z" fill="black"/>
</svg>
