<svg width="24" height="24" viewBox="0 0 24 24" fill="none" xmlns="http://www.w3.org/2000/svg">
<path opacity="0.3" fill-rule="evenodd" clip-rule="evenodd" d="M7.34556 7C6.40383 7 5.57619 7.62429 5.31748 8.52978L3.96178 13.2747C3.81006 13.8058 3.25657 14.1132 2.72554 13.9615C2.1945 13.8098 1.88701 13.2563 2.03873 12.7253L3.39443 7.98034C3.89846 6.21624 5.51086 5 7.34556 5C9.05847 5 10.5917 6.06254 11.1932 7.66639L14.096 15.4072C14.4552 16.3653 15.3711 17 16.3944 17C17.4903 17 18.4535 16.2735 18.7546 15.2197L20.0387 10.7253C20.1905 10.1942 20.7439 9.88675 21.275 10.0385C21.806 10.1902 22.1135 10.7437 21.9618 11.2747L20.6777 15.7691C20.1313 17.6815 18.3833 19 16.3944 19C14.5374 19 12.8753 17.8481 12.2233 16.1094L9.32049 8.36863C9.01178 7.54539 8.22478 7 7.34556 7Z" fill="black"/>
</svg>
