<svg width="24" height="24" viewBox="0 0 24 24" fill="none" xmlns="http://www.w3.org/2000/svg">
<path fill-rule="evenodd" clip-rule="evenodd" d="M9.54403 2.99983C9.59652 2.99986 9.6497 2.9999 9.70361 2.9999H14.2964C14.3503 2.9999 14.4035 2.99986 14.456 2.99983C15.4234 2.99915 16.1524 2.99864 16.8107 3.23476C17.3895 3.44238 17.9127 3.78065 18.3396 4.22331C18.8251 4.72675 19.1237 5.39176 19.5201 6.27424C19.5416 6.32211 19.5634 6.37062 19.5855 6.41979L21.9119 11.5895C21.97 11.7186 22 11.8584 22 11.9999V15.8385C22 16.3656 22 16.8204 21.9694 17.1949C21.9371 17.5903 21.8658 17.9835 21.673 18.3619C21.3854 18.9264 20.9265 19.3853 20.362 19.6729C19.9836 19.8657 19.5904 19.937 19.195 19.9693C18.8205 19.9999 18.3657 19.9999 17.8386 19.9999H6.16144C5.6343 19.9999 5.17954 19.9999 4.80497 19.9693C4.40963 19.937 4.01641 19.8657 3.63803 19.6729C3.07354 19.3853 2.6146 18.9264 2.32698 18.3619C2.13419 17.9835 2.06287 17.5903 2.03057 17.1949C1.99997 16.8204 1.99998 16.3656 2 15.8384L2 11.9999C2 11.8584 2.03002 11.7186 2.08808 11.5895L4.41447 6.41979C4.43659 6.37062 4.45838 6.32211 4.47989 6.27423C4.87626 5.39176 5.17495 4.72675 5.66043 4.22331C6.08729 3.78065 6.61046 3.44238 7.1893 3.23476C7.84762 2.99864 8.57662 2.99915 9.54403 2.99983ZM9.70361 4.9999C8.50384 4.9999 8.1527 5.01397 7.86453 5.11733C7.57511 5.22114 7.31353 5.39028 7.1001 5.6116C6.88759 5.83197 6.73065 6.14642 6.23831 7.24051L4.54659 10.9999H6.67452C6.70252 10.9999 6.73028 10.9999 6.75782 10.9998C7.16471 10.9995 7.52347 10.9991 7.87191 11.0828C8.17802 11.1563 8.47066 11.2775 8.73907 11.442C9.04462 11.6292 9.29807 11.8831 9.58552 12.1711C9.60497 12.1906 9.62458 12.2103 9.64437 12.2301L9.76985 12.3555C10.1494 12.7351 10.2285 12.8051 10.3059 12.8525C10.3954 12.9074 10.493 12.9478 10.595 12.9723C10.6833 12.9935 10.7887 12.9999 11.3255 12.9999H12.6745C13.2113 12.9999 13.3167 12.9935 13.405 12.9723C13.5071 12.9478 13.6046 12.9074 13.6941 12.8525C13.7715 12.8051 13.8506 12.7351 14.2302 12.3555L14.3556 12.2301C14.3754 12.2103 14.395 12.1906 14.4145 12.1711C14.7019 11.8831 14.9554 11.6292 15.2609 11.442C15.5293 11.2775 15.822 11.1563 16.1281 11.0828C16.4765 10.9991 16.8353 10.9995 17.2422 10.9998C17.2697 10.9999 17.2975 10.9999 17.3255 10.9999H19.4534L17.7617 7.24052C17.2693 6.14641 17.1124 5.83198 16.8999 5.6116C16.6865 5.39028 16.4249 5.22114 16.1355 5.11733C15.8473 5.01397 15.4962 4.9999 14.2964 4.9999H9.70361Z" fill="black"/>
</svg>
