<svg width="24" height="24" viewBox="0 0 24 24" fill="none" xmlns="http://www.w3.org/2000/svg">
<path fill-rule="evenodd" clip-rule="evenodd" d="M19.4387 1.99974C19.4712 1.99974 19.5046 1.99957 19.5389 1.9994C19.9081 1.99752 20.3779 1.99514 20.7991 2.19824C21.1508 2.36784 21.4688 2.66342 21.6636 3.0018C21.8964 3.40605 21.9266 3.84875 21.95 4.19088L21.9562 4.27843C21.9857 4.68185 22.0007 5.08913 22.0007 5.49974C22.0007 14.6124 14.6134 21.9997 5.50072 21.9997C5.09011 21.9997 4.68282 21.9847 4.27941 21.9552L4.19186 21.9491C3.84973 21.9257 3.40703 21.8954 3.00278 21.6627C2.66439 21.4678 2.36881 21.1498 2.19922 20.7981C1.99611 20.3769 1.9985 19.9071 2.00037 19.5379C2.00048 19.5162 2.00059 19.4949 2.00065 19.4739C2.00069 19.4617 2.00072 19.4497 2.00072 19.4377V16.6204L2.00047 16.5349C1.99917 16.2257 1.99754 15.8377 2.13362 15.4833C2.25101 15.1775 2.44169 14.9053 2.68891 14.6905C2.97546 14.4415 3.34069 14.3104 3.6317 14.206L3.71218 14.177L6.94521 13.0013C7.1432 12.9293 7.33962 12.8578 7.51268 12.8091C7.70553 12.7549 7.9353 12.7085 8.19734 12.7256C8.56668 12.7496 8.92211 12.8756 9.22407 13.0897C9.4383 13.2415 9.58753 13.4223 9.7031 13.5859C9.80682 13.7328 9.91431 13.912 10.0227 14.0927L10.0306 14.1058L11.1241 15.8283C13.1299 14.7837 14.783 13.1293 15.829 11.123L14.1068 10.0296L14.0937 10.0217C13.913 9.91334 13.7338 9.80584 13.5869 9.70212C13.4233 9.58656 13.2425 9.43733 13.0907 9.22309C12.8766 8.92113 12.7506 8.56571 12.7265 8.19636C12.7095 7.93432 12.7558 7.70456 12.8101 7.51171C12.8588 7.33863 12.9303 7.14226 13.0023 6.94426L14.1779 3.71121L14.2069 3.63072C14.3114 3.33972 14.4425 2.97449 14.6915 2.68793C14.9063 2.44072 15.1785 2.25004 15.4842 2.13264C15.8386 1.99657 16.2267 1.9982 16.5358 1.9995L16.6214 1.99974H19.4387Z" fill="black"/>
</svg>
