<svg width="24" height="24" viewBox="0 0 24 24" fill="none" xmlns="http://www.w3.org/2000/svg">
<path fill-rule="evenodd" clip-rule="evenodd" d="M14.9995 5C14.9995 3.34315 16.3427 2 17.9995 2C19.6564 2 20.9995 3.34315 20.9995 5V5.26794C21.3787 5.48685 21.6779 5.82568 21.8473 6.23463C21.9442 6.46868 21.9747 6.6944 21.9877 6.88477C21.9996 7.05886 21.9995 7.26348 21.9995 7.47352V7.52648C21.9995 7.73652 21.9996 7.94114 21.9877 8.11523C21.9747 8.3056 21.9442 8.53132 21.8473 8.76537C21.6443 9.25542 21.2549 9.64477 20.7649 9.84776C20.5308 9.9447 20.3051 9.97518 20.1147 9.98817C19.9407 10 19.736 10 19.526 10H16.473C16.263 10 16.0584 10 15.8843 9.98817C15.6939 9.97518 15.4682 9.9447 15.2341 9.84776C14.7441 9.64477 14.3547 9.25542 14.1518 8.76537C14.0548 8.53132 14.0243 8.3056 14.0113 8.11523C13.9995 7.94115 13.9995 7.73651 13.9995 7.52647V7.4735C13.9995 7.26346 13.9995 7.05885 14.0113 6.88477C14.0243 6.6944 14.0548 6.46868 14.1518 6.23463C14.3212 5.82568 14.6203 5.48685 14.9995 5.26794V5ZM18.9995 5C18.9995 4.44772 18.5518 4 17.9995 4C17.4472 4 16.9995 4.44772 16.9995 5L18.9995 5Z" fill="black"/>
<path d="M8.92861 9.71977L6.35323 12.8684C6.95402 13.8505 7.65937 14.7453 8.457 15.5429C9.38305 16.469 10.44 17.2707 11.6126 17.9287L14.1766 15.4089L14.2517 15.3336C14.5751 15.0087 14.8998 14.6826 15.306 14.4936C15.66 14.3288 16.0476 14.2493 16.4378 14.2612C16.8857 14.275 17.3125 14.4469 17.7378 14.618L17.8405 14.6593L19.4567 15.3058C19.775 15.4331 20.0643 15.5488 20.2997 15.6646C20.5539 15.7896 20.8127 15.9459 21.0395 16.1847C21.3713 16.534 21.5951 16.9716 21.684 17.4451C21.7448 17.7688 21.72 18.0701 21.6725 18.3494C21.6285 18.6081 21.5529 18.9103 21.4697 19.243L20.9702 21.2424C20.8589 21.6876 20.4589 22 20 22C16.8066 22 13.8832 21.3173 11.3614 20.0585C11.3494 20.0528 11.3376 20.0469 11.3259 20.0407C9.72418 19.2366 8.28521 18.1996 7.04277 16.9571C5.95662 15.8709 5.02748 14.6346 4.27368 13.2706C4.2676 13.2601 4.26173 13.2494 4.25607 13.2387C2.79682 10.5848 2 7.44999 2 4.00001C2 3.54116 2.31228 3.14118 2.75743 3.02988L4.75684 2.52996C5.08947 2.44678 5.39169 2.3712 5.65037 2.32724C5.92965 2.27978 6.23097 2.25495 6.55463 2.31572C7.02809 2.40462 7.46578 2.62842 7.81506 2.9602C8.05382 3.187 8.21012 3.4458 8.33516 3.70001C8.45097 3.93544 8.56664 4.22468 8.69396 4.54302L9.41694 6.35046L9.45284 6.43989C9.60328 6.81387 9.75453 7.18988 9.78168 7.58828C9.80537 7.93591 9.75613 8.28467 9.63712 8.61215C9.50072 8.98746 9.25127 9.3069 9.00317 9.6246L8.94391 9.70059C8.93889 9.70705 8.93379 9.71344 8.92861 9.71977Z" fill="black"/>
</svg>
