<svg width="24" height="24" viewBox="0 0 24 24" fill="none" xmlns="http://www.w3.org/2000/svg">
<path fill-rule="evenodd" clip-rule="evenodd" d="M16.9997 2C17.552 2 17.9997 2.44772 17.9997 3L17.9997 9C17.9997 9.55228 17.552 10 16.9997 10C16.4474 10 15.9997 9.55228 15.9997 9L15.9997 3C15.9997 2.44772 16.4474 2 16.9997 2ZM20.9997 2C21.552 2 21.9997 2.44772 21.9997 3V9C21.9997 9.55228 21.552 10 20.9997 10C20.4474 10 19.9997 9.55228 19.9997 9V3C19.9997 2.44772 20.4474 2 20.9997 2ZM6.36427 12.8864L8.9317 9.71596L8.94391 9.70058C8.96362 9.67524 8.98339 9.64992 9.00317 9.62459C9.25127 9.30688 9.50072 8.98745 9.63712 8.61214C9.75613 8.28465 9.80537 7.9359 9.78168 7.58826C9.75453 7.18986 9.60328 6.81386 9.45284 6.43988C9.44085 6.41006 9.42886 6.38025 9.41694 6.35045L8.69397 4.54302C8.56665 4.22468 8.45097 3.93543 8.33516 3.69999C8.21012 3.44579 8.05382 3.18699 7.81506 2.96018C7.46578 2.62841 7.02809 2.40461 6.55463 2.31571C6.23097 2.25494 5.92965 2.27977 5.65037 2.32723C5.39169 2.37119 5.08947 2.44676 4.75684 2.52994C4.74619 2.53261 4.73551 2.53528 4.7248 2.53795L2.75743 3.02987C2.31228 3.14117 2 3.54114 2 4C2 7.46018 2.80154 10.6033 4.26902 13.2622C4.27467 13.2729 4.28052 13.2834 4.28657 13.2939C5.03807 14.6487 5.96281 15.8771 7.04277 16.9571C8.28436 18.1987 9.72221 19.2351 11.3226 20.039C11.3343 20.0452 11.3462 20.0512 11.3581 20.0569C13.8807 21.3167 16.8052 22 20 22C20.4589 22 20.8589 21.6876 20.9702 21.2424L21.4697 19.243C21.5529 18.9103 21.6285 18.6081 21.6725 18.3494C21.72 18.0701 21.7448 17.7688 21.684 17.4451C21.5951 16.9716 21.3713 16.5339 21.0395 16.1847C20.8127 15.9459 20.5539 15.7896 20.2997 15.6646C20.0643 15.5487 19.775 15.4331 19.4567 15.3058L17.8405 14.6593C17.8062 14.6456 17.772 14.6318 17.7378 14.618C17.3125 14.4468 16.8857 14.275 16.4378 14.2612C16.0476 14.2492 15.66 14.3288 15.306 14.4935C14.8998 14.6826 14.5751 15.0087 14.2517 15.3335C14.2268 15.3586 14.2019 15.3836 14.1769 15.4086L11.6101 17.9274C10.4385 17.2695 9.38241 16.4683 8.457 15.5429C7.66425 14.7501 6.96265 13.8615 6.36427 12.8864Z" fill="black"/>
</svg>
