<svg width="24" height="24" viewBox="0 0 24 24" fill="none" xmlns="http://www.w3.org/2000/svg">
<path fill-rule="evenodd" clip-rule="evenodd" d="M12.0005 4C9.48265 4 7.20778 5.03263 5.57318 6.70004C5.18656 7.09443 4.55343 7.10072 4.15904 6.7141C3.76465 6.32748 3.75836 5.69434 4.14498 5.29996C6.14024 3.26464 8.92359 2 12.0005 2C15.0774 2 17.8608 3.26464 19.8561 5.29996C20.2427 5.69434 20.2364 6.32748 19.842 6.7141C19.4476 7.10072 18.8145 7.09443 18.4279 6.70004C16.7933 5.03263 14.5184 4 12.0005 4ZM12.0005 8C10.5197 8 9.19037 8.6424 8.27341 9.66691C7.90508 10.0784 7.27289 10.1135 6.86136 9.74513C6.44983 9.37681 6.41481 8.74461 6.78314 8.33309C8.06346 6.9026 9.92723 6 12.0005 6C14.0737 6 15.9375 6.9026 17.2178 8.33309C17.5862 8.74461 17.5511 9.37681 17.1396 9.74513C16.7281 10.1135 16.0959 10.0784 15.7276 9.66691C14.8106 8.6424 13.4812 8 12.0005 8ZM15.5485 13.6011C17.9065 14.2501 20.1631 15.5607 22.1425 17.5111C22.4693 17.8331 22.5351 18.3363 22.3019 18.7315L21.7037 19.7456C21.5295 20.0409 21.3712 20.3092 21.2209 20.5243C21.0587 20.7566 20.8649 20.9886 20.5945 21.1765C20.1988 21.4514 19.7322 21.6061 19.2508 21.622C18.9216 21.6329 18.6276 21.5626 18.3587 21.4733C18.1098 21.3905 17.8225 21.2699 17.5064 21.1371L16.7756 20.8303C16.746 20.8179 16.7164 20.8055 16.6867 20.7931C16.3147 20.6378 15.9407 20.4816 15.6379 20.2214C15.3737 19.9942 15.1598 19.7144 15.0101 19.3998C14.8384 19.0392 14.786 18.6373 14.7338 18.2376C14.7296 18.2057 14.7255 18.1739 14.7213 18.1421L14.7208 18.1387L14.3636 15.3702C13.5694 15.2013 12.7694 15.1206 11.9729 15.1264C11.0082 15.1336 10.0403 15.2678 9.0857 15.5316L9.10391 17.8426C9.10418 17.8795 9.10454 17.9169 9.10489 17.9538C9.10928 18.4121 9.11369 18.8723 8.96326 19.2943C8.83219 19.6621 8.61681 19.994 8.33439 20.2635C8.01025 20.5729 7.58824 20.7564 7.16788 20.9391C7.13402 20.9538 7.10017 20.9685 7.06639 20.9833L6.52888 21.2184C6.21476 21.3558 5.92936 21.4806 5.68162 21.5671C5.41413 21.6604 5.12116 21.735 4.7919 21.729C4.31024 21.7202 3.84139 21.5724 3.44175 21.3034C3.16855 21.1195 2.97134 20.8904 2.80572 20.6605C2.65231 20.4477 2.49007 20.1817 2.31152 19.889L1.69816 18.8839C1.45912 18.4922 1.51737 17.988 1.83946 17.6611C3.61201 15.8622 5.6212 14.5883 7.73546 13.8577C7.74804 13.853 7.76073 13.8487 7.77354 13.8446C9.13682 13.3779 10.5434 13.1369 11.9581 13.1265C13.1538 13.1177 14.3463 13.2736 15.514 13.5917C15.5256 13.5946 15.5371 13.5978 15.5485 13.6011Z" fill="black"/>
</svg>
