<svg width="24" height="24" viewBox="0 0 24 24" fill="none" xmlns="http://www.w3.org/2000/svg">
<path d="M4.46181 1.99964C4.49612 1.99981 4.52956 1.99998 4.56201 1.99998H7.37932L7.46487 1.99974C7.77404 1.99844 8.16208 1.99681 8.51647 2.13289C8.82222 2.25028 9.09445 2.44096 9.30926 2.68818C9.55826 2.97473 9.68933 3.33997 9.79377 3.63097L9.82278 3.71145L10.9984 6.9445C11.0705 7.1425 11.1419 7.33888 11.1906 7.51195C11.2449 7.7048 11.2912 7.93457 11.2742 8.19661C11.2501 8.56595 11.1241 8.92138 10.9101 9.22333C10.7582 9.43757 10.5775 9.5868 10.4138 9.70236C10.2669 9.80609 10.0877 9.91358 9.90701 10.022L9.89392 10.0298L8.17169 11.1232C9.21773 13.1295 10.8708 14.784 12.8766 15.8285L13.9702 14.1061L13.978 14.093C14.0864 13.9123 14.1939 13.7331 14.2976 13.5862C14.4132 13.4225 14.5624 13.2418 14.7766 13.0899C15.0786 12.8759 15.434 12.7498 15.8034 12.7258C16.0654 12.7088 16.2952 12.7551 16.488 12.8094C16.6611 12.8581 16.8575 12.9295 17.0555 13.0016L20.2885 14.1772L20.369 14.2062C20.66 14.3106 21.0253 14.4417 21.3118 14.6907C21.559 14.9055 21.7497 15.1778 21.8671 15.4835C22.0032 15.8379 22.0015 16.2259 22.0002 16.5351L22 16.6207V19.438L22.0001 19.4742L22.0003 19.5382C22.0022 19.9074 22.0046 20.3771 21.8015 20.7983C21.6319 21.15 21.3363 21.4681 20.9979 21.6629C20.5937 21.8957 20.151 21.9259 19.8089 21.9493L19.7213 21.9554C19.3179 21.985 18.9106 22 18.5 22C9.3873 22 2 14.6127 2 5.49998C2 5.08937 2.01502 4.68209 2.04456 4.27868L2.05068 4.19112C2.07407 3.849 2.10433 3.4063 2.33708 3.00205C2.53191 2.66367 2.84993 2.36808 3.20164 2.19849C3.62284 1.99538 4.0926 1.99777 4.46181 1.99964Z" fill="black"/>
<path fill-rule="evenodd" clip-rule="evenodd" d="M15 5C15 3.34315 16.3431 2 18 2C19.6569 2 21 3.34315 21 5V5.26794C21.3792 5.48685 21.6784 5.82568 21.8478 6.23463C21.9447 6.46868 21.9752 6.6944 21.9882 6.88477C22 7.05886 22 7.26348 22 7.47352V7.52648C22 7.73652 22 7.94114 21.9882 8.11523C21.9752 8.3056 21.9447 8.53132 21.8478 8.76537C21.6448 9.25542 21.2554 9.64477 20.7654 9.84776C20.5313 9.9447 20.3056 9.97518 20.1152 9.98817C19.9411 10 19.7365 10 19.5265 10H16.4735C16.2635 10 16.0589 10 15.8848 9.98817C15.6944 9.97518 15.4687 9.9447 15.2346 9.84776C14.7446 9.64477 14.3552 9.25542 14.1522 8.76537C14.0553 8.53132 14.0248 8.3056 14.0118 8.11523C14 7.94115 14 7.73651 14 7.52647V7.4735C14 7.26346 14 7.05885 14.0118 6.88477C14.0248 6.6944 14.0553 6.46868 14.1522 6.23463C14.3216 5.82568 14.6208 5.48685 15 5.26794V5ZM19 5C19 4.44772 18.5523 4 18 4C17.4477 4 17 4.44772 17 5L19 5Z" fill="black"/>
</svg>
