<svg width="24" height="24" viewBox="0 0 24 24" fill="none" xmlns="http://www.w3.org/2000/svg">
<path fill-rule="evenodd" clip-rule="evenodd" d="M15.2926 2.29289C15.6831 1.90237 16.3163 1.90237 16.7068 2.29289L18.4997 4.08579L20.2926 2.29289C20.6831 1.90237 21.3163 1.90237 21.7068 2.29289C22.0974 2.68342 22.0974 3.31658 21.7068 3.70711L19.9139 5.5L21.7068 7.29289C22.0974 7.68342 22.0974 8.31658 21.7068 8.70711C21.3163 9.09763 20.6831 9.09763 20.2926 8.70711L18.4997 6.91421L16.7068 8.70711C16.3163 9.09763 15.6831 9.09763 15.2926 8.70711C14.9021 8.31658 14.9021 7.68342 15.2926 7.29289L17.0855 5.5L15.2926 3.70711C14.9021 3.31658 14.9021 2.68342 15.2926 2.29289ZM6.35173 12.866L8.92819 9.72027C8.93351 9.71377 8.93876 9.70721 8.94391 9.70058C8.96362 9.67524 8.98339 9.64992 9.00317 9.62459C9.25127 9.30688 9.50072 8.98745 9.63712 8.61214C9.75613 8.28465 9.80537 7.9359 9.78168 7.58826C9.75453 7.18986 9.60328 6.81386 9.45284 6.43988C9.44085 6.41006 9.42886 6.38025 9.41694 6.35045L8.69397 4.54302C8.56665 4.22468 8.45097 3.93543 8.33516 3.69999C8.21012 3.44579 8.05382 3.18699 7.81506 2.96018C7.46578 2.62841 7.02809 2.40461 6.55463 2.31571C6.23097 2.25494 5.92965 2.27977 5.65037 2.32723C5.39169 2.37119 5.08947 2.44676 4.75684 2.52994C4.74619 2.53261 4.73551 2.53528 4.7248 2.53795L2.75743 3.02987C2.31228 3.14117 2 3.54114 2 4C2 7.4486 2.79619 10.5823 4.25431 13.2355C4.25998 13.2462 4.26585 13.2569 4.27192 13.2674C5.02604 14.6327 5.95578 15.8701 7.04277 16.9571C8.27964 18.194 9.71128 19.2273 11.3043 20.0299C11.316 20.036 11.3278 20.042 11.3397 20.0476C13.8664 21.3134 16.7974 22 20 22C20.4589 22 20.8589 21.6876 20.9702 21.2424L21.4697 19.243C21.5529 18.9103 21.6285 18.6081 21.6725 18.3494C21.72 18.0701 21.7448 17.7688 21.684 17.4451C21.5951 16.9716 21.3713 16.5339 21.0395 16.1847C20.8127 15.9459 20.5539 15.7896 20.2997 15.6646C20.0643 15.5487 19.775 15.4331 19.4567 15.3058L17.8405 14.6593C17.8062 14.6456 17.772 14.6318 17.7378 14.618C17.3125 14.4468 16.8857 14.275 16.4378 14.2612C16.0476 14.2492 15.66 14.3288 15.306 14.4935C14.8998 14.6826 14.5751 15.0087 14.2517 15.3335C14.2273 15.3581 14.2028 15.3827 14.1784 15.4071L11.5964 17.9196C10.4303 17.2633 9.37878 16.4647 8.457 15.5429C7.65871 14.7446 6.95285 13.849 6.35173 12.866Z" fill="black"/>
</svg>
