<svg width="24" height="24" viewBox="0 0 24 24" fill="none" xmlns="http://www.w3.org/2000/svg">
<path fill-rule="evenodd" clip-rule="evenodd" d="M17.9997 2C18.552 2 18.9997 2.44772 18.9997 3V5H20.9997C21.552 5 21.9997 5.44772 21.9997 6C21.9997 6.55228 21.552 7 20.9997 7H18.9997V9C18.9997 9.55228 18.552 10 17.9997 10C17.4474 10 16.9997 9.55228 16.9997 9V7H14.9997C14.4474 7 13.9997 6.55228 13.9997 6C13.9997 5.44772 14.4474 5 14.9997 5H16.9997V3C16.9997 2.44772 17.4474 2 17.9997 2ZM6.35008 12.8633L8.92773 9.72084C8.93321 9.71416 8.9386 9.7074 8.94391 9.70058C8.96362 9.67524 8.98339 9.64992 9.00317 9.62459C9.25127 9.30688 9.50072 8.98745 9.63712 8.61214C9.75613 8.28465 9.80537 7.9359 9.78168 7.58826C9.75453 7.18986 9.60328 6.81386 9.45284 6.43988C9.44085 6.41006 9.42886 6.38025 9.41694 6.35045L8.69397 4.54302C8.56665 4.22468 8.45097 3.93543 8.33516 3.69999C8.21012 3.44579 8.05382 3.18699 7.81506 2.96018C7.46578 2.62841 7.02809 2.40461 6.55463 2.31571C6.23097 2.25494 5.92965 2.27977 5.65037 2.32723C5.39169 2.37119 5.08947 2.44676 4.75684 2.52994C4.74619 2.53261 4.73551 2.53528 4.7248 2.53795L2.75743 3.02987C2.31228 3.14117 2 3.54114 2 4C2 7.44708 2.79548 10.5795 4.25238 13.232C4.25804 13.2427 4.26391 13.2534 4.26998 13.2639C5.02444 14.6305 5.95484 15.8692 7.04277 16.9571C8.29214 18.2065 9.74022 19.2481 11.3526 20.0541C11.3644 20.0603 11.3763 20.0662 11.3883 20.0719C13.904 21.3221 16.8179 22 20 22C20.4589 22 20.8589 21.6876 20.9702 21.2424L21.4697 19.243C21.5529 18.9103 21.6285 18.6081 21.6725 18.3494C21.72 18.0701 21.7448 17.7688 21.684 17.4451C21.5951 16.9716 21.3713 16.5339 21.0395 16.1847C20.8127 15.9459 20.5539 15.7896 20.2997 15.6646C20.0643 15.5487 19.775 15.4331 19.4567 15.3058L17.8405 14.6593C17.8062 14.6456 17.772 14.6318 17.7378 14.618C17.3125 14.4468 16.8857 14.275 16.4378 14.2612C16.0476 14.2492 15.66 14.3288 15.306 14.4935C14.8998 14.6826 14.5751 15.0087 14.2517 15.3335C14.226 15.3594 14.2002 15.3853 14.1744 15.4111L14.1736 15.4119L11.6328 17.94C10.4521 17.2798 9.38836 16.4743 8.457 15.5429C7.65798 14.7439 6.95155 13.8474 6.35008 12.8633Z" fill="black"/>
</svg>
