<svg width="24" height="24" viewBox="0 0 24 24" fill="none" xmlns="http://www.w3.org/2000/svg">
<path d="M4.56201 1.99998C4.52956 1.99998 4.49612 1.99981 4.46181 1.99964C4.0926 1.99777 3.62284 1.99538 3.20164 2.19849C2.84993 2.36808 2.53191 2.66367 2.33708 3.00205C2.10433 3.4063 2.07407 3.849 2.05068 4.19112L2.04456 4.27868C2.01502 4.68209 2 5.08937 2 5.49998C2 9.69649 3.56663 13.5271 6.14695 16.4388L2.29289 20.2929C1.90237 20.6834 1.90237 21.3166 2.29289 21.7071C2.68342 22.0976 3.31658 22.0976 3.70711 21.7071L21.7071 3.70711C22.0976 3.31658 22.0976 2.68342 21.7071 2.29289C21.3166 1.90237 20.6834 1.90237 20.2929 2.29289L9.48862 13.0972C8.98201 12.4901 8.53936 11.8284 8.17169 11.1232L9.89392 10.0298L9.90701 10.022C10.0877 9.91358 10.2669 9.80609 10.4138 9.70236C10.5775 9.5868 10.7582 9.43757 10.9101 9.22333C11.1241 8.92138 11.2501 8.56595 11.2742 8.19661C11.2912 7.93457 11.2449 7.7048 11.1906 7.51195C11.1419 7.33888 11.0705 7.1425 10.9984 6.9445L9.82278 3.71145L9.79377 3.63097C9.68933 3.33997 9.55826 2.97473 9.30926 2.68818C9.09445 2.44096 8.82222 2.25028 8.51647 2.13289C8.16208 1.99681 7.77404 1.99844 7.46487 1.99974L7.37932 1.99998H4.56201Z" fill="black"/>
<path d="M18.5 22C15.0202 22 11.792 20.9228 9.13065 19.0836L15.4277 12.7865C15.5502 12.7545 15.676 12.7341 15.8034 12.7258C16.0654 12.7088 16.2952 12.7551 16.488 12.8094C16.6611 12.8581 16.8575 12.9295 17.0555 13.0016L20.2885 14.1772L20.369 14.2062C20.66 14.3106 21.0253 14.4417 21.3118 14.6907C21.559 14.9055 21.7497 15.1778 21.8671 15.4835C22.0032 15.8379 22.0015 16.2259 22.0002 16.5351L22 16.6207V19.438L22.0001 19.4742L22.0003 19.5382C22.0022 19.9074 22.0046 20.3771 21.8015 20.7983C21.6319 21.15 21.3363 21.4681 20.9979 21.6629C20.5937 21.8957 20.151 21.9259 19.8089 21.9493L19.7213 21.9554C19.3179 21.985 18.9106 22 18.5 22Z" fill="black"/>
</svg>
