<svg width="24" height="24" viewBox="0 0 24 24" fill="none" xmlns="http://www.w3.org/2000/svg">
<path d="M4.24985 9.694L12.1609 5.73851C12.6478 5.49499 13.0727 5.28252 13.4198 5.1461C13.7501 5.01628 14.2208 4.86363 14.718 4.98203C15.3322 5.12828 15.8413 5.55593 16.0913 6.13567C16.2937 6.60502 16.2245 7.09499 16.1536 7.44273C16.0791 7.80815 15.9431 8.26331 15.7873 8.78499L15.1257 10.9998H8.37428C7.822 10.9998 7.37428 11.4475 7.37428 11.9998C7.37428 12.552 7.822 12.9998 8.37428 12.9998H15.1109L15.7748 15.2034C15.9324 15.7262 16.0698 16.1822 16.1454 16.5483C16.2172 16.8963 16.2878 17.3872 16.0859 17.8576C15.8366 18.4384 15.3274 18.8671 14.7127 19.0139C14.2148 19.1329 13.7431 18.9798 13.4124 18.8498C13.0645 18.713 12.6386 18.5 12.1501 18.2558L4.24986 14.3056C3.82307 14.0923 3.443 13.9023 3.155 13.7239C2.87113 13.548 2.50662 13.2856 2.30329 12.8569C2.04604 12.3145 2.04604 11.6852 2.30329 11.1428C2.50662 10.7141 2.87113 10.4516 3.15501 10.2758C3.443 10.0974 3.82307 9.90736 4.24985 9.694Z" fill="black"/>
<path d="M20.8743 6.99983C21.4266 6.99983 21.8743 7.44755 21.8743 7.99983C21.8743 8.55212 21.4266 8.99983 20.8743 8.99983H18.3743C17.822 8.99983 17.3743 8.55212 17.3743 7.99983C17.3743 7.44755 17.822 6.99983 18.3743 6.99983H20.8743Z" fill="black"/>
<path d="M19.8743 10.9998C20.4266 10.9998 20.8743 11.4475 20.8743 11.9998C20.8743 12.5521 20.4266 12.9998 19.8743 12.9998H18.3743C17.822 12.9998 17.3743 12.5521 17.3743 11.9998C17.3743 11.4475 17.822 10.9998 18.3743 10.9998H19.8743Z" fill="black"/>
<path d="M19.3743 14.9998C19.9266 14.9998 20.3743 15.4475 20.3743 15.9998C20.3743 16.5521 19.9266 16.9998 19.3743 16.9998H18.3743C17.822 16.9998 17.3743 16.5521 17.3743 15.9998C17.3743 15.4475 17.822 14.9998 18.3743 14.9998H19.3743Z" fill="black"/>
</svg>
