<svg width="24" height="24" viewBox="0 0 24 24" fill="none" xmlns="http://www.w3.org/2000/svg">
<path d="M18.0915 8.91974L7.85047 4.31131C7.10046 3.97378 6.47564 3.6926 5.97366 3.51871C5.48719 3.3502 4.90585 3.20128 4.32982 3.36156C3.57313 3.57211 2.95937 4.12603 2.67259 4.85725C2.45428 5.41388 2.54301 6.00739 2.66092 6.50853C2.78259 7.02566 2.99844 7.67594 3.25754 8.45652L4.10183 11.0002H11.5005C12.0528 11.0002 12.5005 11.448 12.5005 12.0002C12.5005 12.5525 12.0528 13.0002 11.5005 13.0002H4.12381L3.27766 15.5278C3.01572 16.3102 2.79759 16.9617 2.67425 17.4798C2.55481 17.9816 2.4642 18.5762 2.68187 19.1342C2.96767 19.8667 3.58148 20.4221 4.33889 20.6335C4.91575 20.7945 5.4984 20.6451 5.98576 20.4763C6.48899 20.3019 7.11559 20.0199 7.86801 19.6813L18.0915 15.0808C18.8251 14.7507 19.4377 14.475 19.8927 14.2189C20.3356 13.9697 20.8241 13.638 21.086 13.1083C21.4312 12.4099 21.4312 11.5905 21.086 10.8922C20.8241 10.3625 20.3356 10.0308 19.8927 9.78158C19.4377 9.52549 18.8251 9.24983 18.0915 8.91974Z" fill="black"/>
</svg>
