<svg width="24" height="24" viewBox="0 0 24 24" fill="none" xmlns="http://www.w3.org/2000/svg">
<path d="M19.7348 9.694L11.8238 5.73851C11.3368 5.49499 10.9119 5.28252 10.5648 5.1461C10.2345 5.01628 9.76382 4.86363 9.26659 4.98203C8.65242 5.12828 8.14337 5.55593 7.89337 6.13567C7.69097 6.60502 7.76014 7.09499 7.83104 7.44273C7.90554 7.80815 8.04153 8.26331 8.19738 8.78499L8.85898 10.9998H15.6104C16.1626 10.9998 16.6104 11.4475 16.6104 11.9998C16.6104 12.552 16.1626 12.9998 15.6104 12.9998H8.87373L8.20979 15.2034C8.05223 15.7262 7.91482 16.1822 7.83927 16.5483C7.76744 16.8963 7.69683 17.3872 7.89878 17.8576C8.14808 18.4384 8.65722 18.8671 9.27193 19.0139C9.76987 19.1329 10.2415 18.9798 10.5723 18.8498C10.9201 18.713 11.3461 18.5 11.8345 18.2558L19.7348 14.3056C20.1616 14.0923 20.5416 13.9023 20.8296 13.7239C21.1135 13.548 21.478 13.2856 21.6813 12.8569C21.9386 12.3145 21.9386 11.6852 21.6813 11.1428C21.478 10.7141 21.1135 10.4516 20.8296 10.2758C20.5416 10.0974 20.1616 9.90736 19.7348 9.694Z" fill="black"/>
<path d="M3.11035 6.99983C2.55807 6.99983 2.11035 7.44755 2.11035 7.99983C2.11035 8.55212 2.55807 8.99983 3.11035 8.99983H5.61035C6.16264 8.99983 6.61035 8.55212 6.61035 7.99983C6.61035 7.44755 6.16264 6.99983 5.61035 6.99983H3.11035Z" fill="black"/>
<path d="M4.11035 10.9998C3.55807 10.9998 3.11035 11.4475 3.11035 11.9998C3.11035 12.5521 3.55807 12.9998 4.11035 12.9998H5.61035C6.16264 12.9998 6.61035 12.5521 6.61035 11.9998C6.61035 11.4475 6.16264 10.9998 5.61035 10.9998H4.11035Z" fill="black"/>
<path d="M4.61035 14.9998C4.05807 14.9998 3.61035 15.4475 3.61035 15.9998C3.61035 16.5521 4.05807 16.9998 4.61035 16.9998H5.61035C6.16264 16.9998 6.61035 16.5521 6.61035 15.9998C6.61035 15.4475 6.16264 14.9998 5.61035 14.9998H4.61035Z" fill="black"/>
</svg>
