<svg width="24" height="24" viewBox="0 0 24 24" fill="none" xmlns="http://www.w3.org/2000/svg">
<path d="M13.3145 2.70689C12.4624 2.41014 11.535 2.41021 10.6829 2.70708C10.1298 2.8998 9.67361 3.24074 9.22797 3.65863C8.79701 4.06276 8.30993 4.60405 7.71707 5.26291L2.25667 11.3309C1.88724 11.7415 1.92056 12.3737 2.3311 12.7432C2.74164 13.1126 3.37392 13.0793 3.74335 12.6687L4.00001 12.3835L4.00001 16.2411C4 17.0461 3.99998 17.7105 4.0442 18.2517C4.09013 18.8138 4.18869 19.3305 4.43598 19.8158C4.81948 20.5684 5.4314 21.1804 6.18405 21.5639C6.66938 21.8112 7.18609 21.9097 7.74818 21.9556C8.28937 21.9999 8.95373 21.9998 9.75869 21.9998H14.2413C15.0463 21.9998 15.7106 21.9999 16.2518 21.9556C16.8139 21.9097 17.3306 21.8112 17.816 21.5639C18.5686 21.1804 19.1805 20.5684 19.564 19.8158C19.8113 19.3305 19.9099 18.8138 19.9558 18.2517C20 17.7105 20 17.0461 20 16.2412V12.3836L20.2568 12.6689C20.6263 13.0793 21.2585 13.1126 21.669 12.7431C22.0795 12.3736 22.1127 11.7413 21.7433 11.3308L20 9.39416V4.99983C20 4.44755 19.5523 3.99983 19 3.99983C18.4477 3.99983 18 4.44755 18 4.99983V7.17227L16.2808 5.2623C15.6878 4.60354 15.2006 4.06229 14.7696 3.65822C14.3239 3.24039 13.8677 2.89952 13.3145 2.70689Z" fill="black"/>
</svg>
