<svg width="24" height="24" viewBox="0 0 24 24" fill="none" xmlns="http://www.w3.org/2000/svg">
<path fill-rule="evenodd" clip-rule="evenodd" d="M10.6829 2.70708C11.535 2.41021 12.4624 2.41014 13.3145 2.70689C13.8677 2.89952 14.3239 3.24039 14.7696 3.65822C15.2006 4.06229 15.6878 4.60354 16.2808 5.2623L21.7433 11.3308C22.1127 11.7413 22.0795 12.3736 21.669 12.7431C21.2585 13.1126 20.6263 13.0793 20.2568 12.6689L20 12.3836V16.2412C20 17.0461 20 17.7105 19.9558 18.2517C19.9099 18.8138 19.8113 19.3305 19.564 19.8158C19.1805 20.5684 18.5686 21.1804 17.816 21.5639C17.3306 21.8112 16.8139 21.9097 16.2518 21.9556C15.7106 21.9999 15.0463 21.9998 14.2413 21.9998H9.75869C8.95373 21.9998 8.28937 21.9999 7.74818 21.9556C7.18609 21.9097 6.66938 21.8112 6.18405 21.5639C5.4314 21.1804 4.81948 20.5684 4.43598 19.8158C4.18869 19.3305 4.09013 18.8138 4.0442 18.2517C3.99998 17.7105 4 17.0461 4.00001 16.2411L4.00001 12.3835L3.74335 12.6688C3.37393 13.0793 2.74164 13.1126 2.3311 12.7432C1.92056 12.3738 1.88724 11.7415 2.25666 11.3309L7.71707 5.26291C8.30993 4.60406 8.79701 4.06276 9.22797 3.65863C9.67361 3.24074 10.1298 2.8998 10.6829 2.70708ZM12.3944 11.4469C12.6414 10.953 12.4412 10.3523 11.9472 10.1053C11.4532 9.85831 10.8526 10.0585 10.6056 10.5525L9.10557 13.5525C8.95058 13.8625 8.96714 14.2306 9.14935 14.5255C9.33156 14.8203 9.65342 14.9997 10 14.9997H12.382L11.6056 16.5525C11.3586 17.0465 11.5588 17.6472 12.0528 17.8942C12.5468 18.1411 13.1474 17.9409 13.3944 17.4469L14.8944 14.4469C15.0494 14.137 15.0329 13.7688 14.8507 13.474C14.6684 13.1792 14.3466 12.9997 14 12.9997H11.618L12.3944 11.4469Z" fill="black"/>
</svg>
