<svg width="24" height="24" viewBox="0 0 24 24" fill="none" xmlns="http://www.w3.org/2000/svg">
<path d="M11.1403 1.80161C11.7012 1.63384 12.2989 1.63384 12.8598 1.80161C13.2328 1.91318 13.5423 2.10561 13.8313 2.32501C14.1036 2.53168 14.4104 2.80439 14.7636 3.11842L21.6644 9.25246C21.9747 9.52829 22.0823 9.96717 21.9348 10.3553C21.789 10.7386 21.4243 10.9936 21.0153 10.9998H2.9848C2.57578 10.9936 2.21106 10.7386 2.06532 10.3553C1.91777 9.96717 2.02537 9.52829 2.33568 9.25246L9.23649 3.1184C9.58974 2.80438 9.89651 2.53168 10.1688 2.32501C10.4578 2.10561 10.7673 1.91318 11.1403 1.80161Z" fill="black"/>
<path d="M5 12.9998V16.9998H4C3.44772 16.9998 3 17.4475 3 17.9998C3 18.552 3.44772 18.9998 4 18.9998H20C20.5523 18.9998 21 18.552 21 17.9998C21 17.4475 20.5523 16.9998 20 16.9998H19V12.9998H17V16.9998H15V12.9998H13V16.9998H11V12.9998H9V16.9998H7V12.9998H5Z" fill="black"/>
<path d="M2 20.9998C2 20.4475 2.44772 19.9998 3 19.9998H21C21.5523 19.9998 22 20.4475 22 20.9998C22 21.552 21.5523 21.9998 21 21.9998H3C2.44772 21.9998 2 21.552 2 20.9998Z" fill="black"/>
</svg>
