<svg width="24" height="24" viewBox="0 0 24 24" fill="none" xmlns="http://www.w3.org/2000/svg">
<path fill-rule="evenodd" clip-rule="evenodd" d="M20.1891 4.46247C19.2629 2.37859 16.7847 1.48948 14.745 2.50932L14.553 2.60531C14.0748 2.8444 13.8693 3.41732 14.0864 3.90587L15.686 7.50496L13.8488 8.35287L12.9238 6.11741C12.7649 5.7334 12.385 5.48769 11.9696 5.50021C11.5542 5.51274 11.1899 5.78088 11.0544 6.17377L9.63187 10.2991L5 12.4369V9.99976C5 9.44747 4.55228 8.99976 4 8.99976C3.44772 8.99976 3 9.44747 3 9.99976V19.9998C2.44772 19.9998 2 20.4475 2 20.9998C2 21.552 2.44772 21.9998 3 21.9998H6.97585C6.99188 22.0001 7.00788 22.0001 7.02384 21.9998H17.9766C17.9923 22.0001 18.008 22.0001 18.0237 21.9998H21C21.5523 21.9998 22 21.552 22 20.9998C22 20.4475 21.5523 19.9998 21 19.9998H18.6682C17.5716 17.3497 16.4751 14.6996 15.3785 12.0496L13.5611 12.8884L14.8486 15.9998H9.78171L10.3423 14.3739L7.82635 15.5351L6.28683 19.9998H5V14.6396L16.4983 9.33277L18.0864 12.9059C18.1973 13.1554 18.4055 13.3488 18.6625 13.441C18.9196 13.5332 19.2032 13.5163 19.4474 13.3942L19.8833 13.1762C21.7961 12.2198 22.6183 9.92814 21.7497 7.97394L20.1891 4.46247ZM15.6762 17.9998L16.5038 19.9998H8.4024L9.09206 17.9998H15.6762Z" fill="black"/>
</svg>
