<svg width="24" height="24" viewBox="0 0 24 24" fill="none" xmlns="http://www.w3.org/2000/svg">
<path fill-rule="evenodd" clip-rule="evenodd" d="M6.85736 1.9997C6.88169 1.99979 6.90543 1.99987 6.92852 1.99987H17.0715C17.0946 1.99987 17.1183 1.99979 17.1426 1.9997C17.4032 1.99876 17.7308 1.99758 18.0403 2.09859C18.3078 2.18592 18.554 2.32876 18.7626 2.51776C19.0038 2.73633 19.1653 3.02136 19.2938 3.24804C19.3058 3.2692 19.3175 3.28986 19.3289 3.30991L22.8682 9.50373C23.0451 9.81324 23.0438 10.1935 22.8649 10.5018C22.686 10.8101 22.3565 10.9999 22 10.9999H21V20.9999C21 21.5522 20.5523 21.9999 20 21.9999C19.4477 21.9999 19 21.5522 19 20.9999V10.9999H15L15 18.6359C15 19.025 15 19.3752 14.9762 19.6665C14.9508 19.9785 14.8931 20.3099 14.7275 20.6348C14.4878 21.1052 14.1054 21.4877 13.635 21.7274C13.3101 21.8929 12.9786 21.9506 12.6666 21.9761C12.3753 21.9999 12.0252 21.9999 11.6361 21.9999H6.36389C5.97481 21.9999 5.62468 21.9999 5.33337 21.9761C5.0214 21.9506 4.68993 21.8929 4.36502 21.7274C3.89462 21.4877 3.51217 21.1052 3.27248 20.6348C3.10694 20.3099 3.04925 19.9785 3.02376 19.6665C2.99996 19.3752 2.99998 19.025 3 18.636L3 10.9999H2C1.64353 10.9999 1.31401 10.8101 1.13509 10.5018C0.956168 10.1935 0.954898 9.81324 1.13176 9.50373L4.67108 3.30991C4.68254 3.28986 4.69424 3.26921 4.70624 3.24804C4.83468 3.02137 4.99621 2.73633 5.23743 2.51776C5.44603 2.32876 5.69216 2.18592 5.95975 2.09859C6.2692 1.99758 6.59682 1.99876 6.85736 1.9997ZM5 10.9999V15.9999H13V10.9999H5Z" fill="black"/>
</svg>
