<svg width="24" height="24" viewBox="0 0 24 24" fill="none" xmlns="http://www.w3.org/2000/svg">
<path d="M10.5745 3.84183L4.82311 9.25487C4.33195 9.71714 4.08635 9.94829 3.89238 10.2158C3.72025 10.4531 3.57862 10.7112 3.47083 10.9838C3.34936 11.2911 3.28626 11.6224 3.16005 12.285L2.33213 16.6316C2.04659 18.1306 1.90383 18.8801 2.11074 19.466C2.29224 19.98 2.65038 20.4128 3.1213 20.6872C3.65812 21.0001 4.42113 21.0001 5.94714 21.0001H12V13.0002L17 21.0001H18.0529C19.5789 21.0001 20.3419 21.0001 20.8787 20.6872C21.3497 20.4128 21.7078 19.98 21.8893 19.466C22.0962 18.8801 21.9534 18.1306 21.6679 16.6316L20.84 12.285C20.7138 11.6224 20.6507 11.2911 20.5292 10.9838C20.4214 10.7112 20.2798 10.4531 20.1077 10.2158C19.9137 9.94829 19.6681 9.71715 19.1769 9.25487L13.4256 3.84183C12.9237 3.3695 12.6728 3.13333 12.3867 3.0442C12.1349 2.96574 11.8651 2.96574 11.6133 3.0442C11.3272 3.13333 11.0763 3.3695 10.5745 3.84183Z" fill="black"/>
</svg>
