<svg width="24" height="24" viewBox="0 0 24 24" fill="none" xmlns="http://www.w3.org/2000/svg">
<g opacity="0.14">
<path d="M3 6C3 7.65685 4.34315 9 6 9C6.39806 9 6.77802 8.92247 7.12559 8.78169C7.85278 9.53296 8.87185 10 10 10C11.1282 10 12.1472 9.53296 12.8744 8.78169C13.222 8.92247 13.6019 9 14 9C15.6569 9 17 7.65685 17 6C17 4.34315 15.6569 3 14 3C13.6019 3 13.222 3.07753 12.8744 3.21831C12.1472 2.46704 11.1282 2 10 2C8.87185 2 7.85278 2.46704 7.12559 3.21831C6.77802 3.07753 6.39806 3 6 3C4.34315 3 3 4.34315 3 6Z" fill="black"/>
<path d="M4 11V21C4 21.5523 4.44772 22 5 22H15C15.5523 22 16 21.5523 16 21V11H4Z" fill="black"/>
</g>
<path d="M4 11V21C4 21.5523 4.44772 22 5 22H15C15.5523 22 16 21.5523 16 21V11H20C20.5523 11 21 11.4477 21 12V15.4338C21 15.7851 20.8157 16.1106 20.5145 16.2913L16 19M8 19V13M12 19V13M6 9C4.34315 9 3 7.65685 3 6C3 4.34315 4.34315 3 6 3C6.39806 3 6.77802 3.07753 7.12559 3.21831C7.85278 2.46704 8.87185 2 10 2C11.1282 2 12.1472 2.46704 12.8744 3.21831C13.222 3.07753 13.6019 3 14 3C15.6569 3 17 4.34315 17 6C17 7.65685 15.6569 9 14 9C13.6019 9 13.222 8.92247 12.8744 8.78169C12.1472 9.53296 11.1282 10 10 10C8.87185 10 7.85278 9.53296 7.12559 8.78169C6.77802 8.92247 6.39806 9 6 9Z" stroke="black" stroke-width="2" stroke-linecap="round" stroke-linejoin="round"/>
</svg>
