<svg width="24" height="24" viewBox="0 0 24 24" fill="none" xmlns="http://www.w3.org/2000/svg">
<path opacity="0.14" d="M3 19V4C3 3.44772 3.44772 3 4 3H15C15.5523 3 16 3.44772 16 4V19C16 20.1046 15.1046 21 14 21H5C3.89543 21 3 20.1046 3 19Z" fill="black"/>
<path d="M16 6H20C20.5523 6 21 6.44772 21 7V11.4338C21 11.7851 20.8157 12.1106 20.5145 12.2913L16 15M6.5 16V8M12.5 16V8M9.5 16V8M3 4V19C3 20.1046 3.89543 21 5 21H14C15.1046 21 16 20.1046 16 19V4C16 3.44772 15.5523 3 15 3H4C3.44772 3 3 3.44772 3 4Z" stroke="black" stroke-width="2" stroke-linecap="round" stroke-linejoin="round"/>
</svg>
