<svg width="24" height="24" viewBox="0 0 24 24" fill="none" xmlns="http://www.w3.org/2000/svg">
<path opacity="0.14" d="M6 6.5C4.34315 6.5 3 7.84315 3 9.5C3 10.5435 3.53275 11.4625 4.3411 12C3.53275 12.5375 3 13.4565 3 14.5C3 16.1569 4.34315 17.5 6 17.5C7.65685 17.5 9 16.1569 9 14.5H15C15 16.1569 16.3431 17.5 18 17.5C19.6569 17.5 21 16.1569 21 14.5C21 13.4565 20.4672 12.5375 19.6589 12C20.4672 11.4625 21 10.5435 21 9.5C21 7.84315 19.6569 6.5 18 6.5C16.3431 6.5 15 7.84315 15 9.5H9C9 7.84315 7.65685 6.5 6 6.5Z" fill="black"/>
<path d="M6 6.5C4.34315 6.5 3 7.84315 3 9.5C3 10.5435 3.53275 11.4625 4.3411 12C3.53275 12.5375 3 13.4565 3 14.5C3 16.1569 4.34315 17.5 6 17.5C7.65685 17.5 9 16.1569 9 14.5H15C15 16.1569 16.3431 17.5 18 17.5C19.6569 17.5 21 16.1569 21 14.5C21 13.4565 20.4672 12.5375 19.6589 12C20.4672 11.4625 21 10.5435 21 9.5C21 7.84315 19.6569 6.5 18 6.5C16.3431 6.5 15 7.84315 15 9.5H9C9 7.84315 7.65685 6.5 6 6.5Z" stroke="black" stroke-width="2" stroke-linejoin="round"/>
</svg>
