<svg width="24" height="24" viewBox="0 0 24 24" fill="none" xmlns="http://www.w3.org/2000/svg">
<path opacity="0.14" d="M10 21H14C15.1046 21 16 20.1046 16 19V11C16 9.32132 14.9659 7.88416 13.5 7.29077V3H10.5V7.29077C9.03408 7.88416 8 9.32132 8 11V19C8 20.1046 8.89543 21 10 21Z" fill="black"/>
<path d="M10.8752 8.21771C11.3871 8.01048 11.6342 7.42749 11.4269 6.91556C11.2197 6.40362 10.6367 6.15661 10.1248 6.36383L10.8752 8.21771ZM13.8752 6.36383C13.3633 6.15661 12.7803 6.40362 12.5731 6.91556C12.3658 7.42749 12.6129 8.01048 13.1248 8.21771L13.8752 6.36383ZM9.5 2C8.94772 2 8.5 2.44772 8.5 3C8.5 3.55228 8.94772 4 9.5 4V2ZM14.5 4C15.0523 4 15.5 3.55228 15.5 3C15.5 2.44772 15.0523 2 14.5 2V4ZM12 12L12.7598 11.3498C12.5698 11.1278 12.2922 11 12 11C11.7078 11 11.4302 11.1278 11.2402 11.3498L12 12ZM12.9273 13.35L13.8749 13.0304L12.9273 13.35ZM11.0727 13.35L10.1251 13.0304L11.0727 13.35ZM10 22H14V20H10V22ZM17 19V11H15V19H17ZM7 11V19H9V11H7ZM14 22C15.6569 22 17 20.6569 17 19H15C15 19.5523 14.5523 20 14 20V22ZM10 20C9.44772 20 9 19.5523 9 19H7C7 20.6569 8.34315 22 10 22V20ZM10.1248 6.36383C8.29423 7.10482 7 8.90008 7 11H9C9 9.74257 9.77394 8.6635 10.8752 8.21771L10.1248 6.36383ZM17 11C17 8.90008 15.7058 7.10482 13.8752 6.36383L13.1248 8.21771C14.2261 8.6635 15 9.74257 15 11H17ZM11.5 7.2289V3H9.5V7.2289H11.5ZM14.5 7.2289L14.5 3L12.5 3L12.5 7.2289H14.5ZM9.5 4H14.5V2H9.5V4ZM10 13.8C10 14.8366 10.7325 16 12 16V14C12.0273 14 12.0501 14.0073 12.0634 14.014C12.0749 14.0198 12.072 14.0214 12.0611 14.0083C12.0375 13.98 12 13.9096 12 13.8H10ZM12 16C13.2675 16 14 14.8366 14 13.8H12C12 13.9096 11.9625 13.98 11.9389 14.0083C11.928 14.0214 11.9251 14.0198 11.9366 14.014C11.9499 14.0073 11.9727 14 12 14V16ZM14 13.8C14 13.5328 13.9567 13.2729 13.8749 13.0304L11.9798 13.6696C11.9917 13.705 12 13.7489 12 13.8H14ZM13.8749 13.0304C13.7973 12.8006 13.666 12.5773 13.5629 12.4157C13.4496 12.2382 13.3214 12.0602 13.2061 11.9076C13.0897 11.7533 12.9793 11.6153 12.8984 11.5163C12.8577 11.4666 12.824 11.426 12.8 11.3975C12.788 11.3832 12.7785 11.3718 12.7716 11.3638C12.7682 11.3597 12.7655 11.3565 12.7635 11.3542C12.7625 11.353 12.7617 11.3521 12.7611 11.3513C12.7608 11.351 12.7605 11.3507 12.7603 11.3504C12.7602 11.3503 12.7601 11.3502 12.76 11.3501C12.7599 11.35 12.7599 11.3499 12.7599 11.3499C12.7598 11.3499 12.7598 11.3498 12 12C11.2402 12.6502 11.2402 12.6501 11.2402 12.6501C11.2401 12.6501 11.2401 12.65 11.2401 12.65C11.24 12.65 11.24 12.65 11.24 12.6499C11.24 12.6499 11.24 12.6499 11.2401 12.65C11.2402 12.6501 11.2405 12.6505 11.241 12.6511C11.2419 12.6522 11.2436 12.6542 11.2459 12.6569C11.2506 12.6624 11.2579 12.671 11.2675 12.6825C11.2867 12.7054 11.315 12.7394 11.3497 12.7819C11.4195 12.8673 11.5131 12.9844 11.6099 13.1126C11.708 13.2425 11.8023 13.3745 11.8768 13.4914C11.9615 13.6242 11.9831 13.6796 11.9798 13.6696L13.8749 13.0304ZM12 12C11.2402 11.3498 11.2402 11.3499 11.2401 11.3499C11.2401 11.3499 11.2401 11.35 11.24 11.3501C11.2399 11.3502 11.2398 11.3503 11.2397 11.3504C11.2395 11.3507 11.2392 11.351 11.2389 11.3513C11.2383 11.3521 11.2375 11.353 11.2365 11.3542C11.2345 11.3565 11.2318 11.3597 11.2284 11.3638C11.2215 11.3718 11.212 11.3832 11.2 11.3975C11.176 11.426 11.1423 11.4666 11.1016 11.5163C11.0207 11.6153 10.9103 11.7533 10.7939 11.9076C10.6786 12.0602 10.5504 12.2382 10.4371 12.4157C10.334 12.5773 10.2027 12.8006 10.1251 13.0304L12.0202 13.6696C12.0169 13.6796 12.0385 13.6242 12.1232 13.4914C12.1977 13.3745 12.292 13.2425 12.3901 13.1126C12.4869 12.9844 12.5805 12.8673 12.6503 12.7819C12.685 12.7394 12.7133 12.7054 12.7325 12.6825C12.7421 12.671 12.7494 12.6624 12.7541 12.6569C12.7564 12.6542 12.7581 12.6522 12.759 12.6511C12.7595 12.6505 12.7598 12.6501 12.7599 12.65C12.76 12.6499 12.76 12.6499 12.76 12.6499C12.76 12.65 12.76 12.65 12.7599 12.65C12.7599 12.65 12.7599 12.6501 12.7598 12.6501C12.7598 12.6501 12.7598 12.6502 12 12ZM10.1251 13.0304C10.0433 13.2729 10 13.5328 10 13.8H12C12 13.7489 12.0083 13.705 12.0202 13.6696L10.1251 13.0304Z" fill="black"/>
</svg>
