<svg width="24" height="24" viewBox="0 0 24 24" fill="none" xmlns="http://www.w3.org/2000/svg">
<path opacity="0.14" d="M21 11H3C3 14.3313 4.80989 17.2398 7.5 18.796L7.82333 20.2212C7.92666 20.6767 8.33151 21 8.79855 21H14.251C14.695 21 15.0858 20.7073 15.2107 20.2813L15.5 19.2941C18.7319 17.9286 21 14.7292 21 11Z" fill="black"/>
<path d="M9.99921 7.99999L9.99971 7.5715C10.0005 6.90217 9.66637 6.27683 9.10954 5.9054L7.89092 5.09253C7.33582 4.72225 7.00195 4.09952 7.00076 3.43226L7 3M14.9992 7.99999L14.9997 7.5715C15.0005 6.90217 14.6664 6.27683 14.1095 5.9054L12.8909 5.09253C12.3358 4.72225 12.0019 4.09952 12.0008 3.43226L12 3M3 11H21C21 14.7292 18.7319 17.9286 15.5 19.2941L15.2107 20.2813C15.0858 20.7073 14.695 21 14.251 21H8.79855C8.33151 21 7.92666 20.6767 7.82333 20.2212L7.5 18.796C4.80989 17.2398 3 14.3313 3 11Z" stroke="black" stroke-width="2" stroke-linecap="round" stroke-linejoin="round"/>
</svg>
