<svg width="24" height="24" viewBox="0 0 24 24" fill="none" xmlns="http://www.w3.org/2000/svg">
<path opacity="0.14" fill-rule="evenodd" clip-rule="evenodd" d="M5.4 11C5.73137 11 6 11.2686 6 11.6V21H18V11.6C18 11.2686 18.2686 11 18.6 11C19.9255 11 21 9.92548 21 8.6V7.8C21 5.14903 18.851 3 16.2 3H7.8C5.14903 3 3 5.14903 3 7.8V8.6C3 9.92548 4.07452 11 5.4 11ZM12 9L9 12L12 15L15 12L12 9Z" fill="black"/>
<path d="M9 12L12 9L15 12L12 15L9 12Z" stroke="black" stroke-width="2" stroke-linecap="round" stroke-linejoin="round"/>
</svg>
