<svg width="24" height="24" viewBox="0 0 24 24" fill="none" xmlns="http://www.w3.org/2000/svg">
<g opacity="0.14">
<path d="M4 10V19H13.9981L14 10H14.3333C15.2538 10 16 9.25381 16 8.33333C16 6.49238 14.5076 5 12.6667 5H5.33333C3.49238 5 2 6.49238 2 8.33333C2 9.25381 2.74619 10 3.66667 10H4Z" fill="black"/>
<path d="M14 10L13.9981 19H19.9981L20 10H14.3333H14Z" fill="black"/>
<path d="M16 8.33333C16 9.25381 15.2538 10 14.3333 10H20H20.3314C21.2519 10 21.9981 9.25381 21.9981 8.33333C21.9981 6.49238 20.5057 5 18.6647 5H12.6667C14.5076 5 16 6.49238 16 8.33333Z" fill="black"/>
</g>
<path d="M14 10V19H4V10H3.66667C2.74619 10 2 9.25381 2 8.33333C2 6.49238 3.49238 5 5.33333 5H12.6667C14.5076 5 16 6.49238 16 8.33333C16 9.25381 15.2538 10 14.3333 10H14ZM14 10H20M13.9981 19H19.9981V10H20.3314C21.2519 10 21.9981 9.25381 21.9981 8.33333C21.9981 6.49238 20.5057 5 18.6647 5H12" stroke="black" stroke-width="2" stroke-linecap="round" stroke-linejoin="round"/>
</svg>
