<svg width="24" height="24" viewBox="0 0 24 24" fill="none" xmlns="http://www.w3.org/2000/svg">
<path opacity="0.14" d="M3 13C3 11.8954 3.89543 11 5 11H19C20.1046 11 21 11.8954 21 13V21H3V13Z" fill="black"/>
<path d="M7 11V8M12 11V8M17 11V8M3 16C4 16 5 15.5 6 14C7 15.5 8 16 9 16C10 16 11 15.5 12 14C13 15.5 14 16 15 16C16 16 17 15.5 18 14C19 15.5 20 16 21 16M21 21V13C21 11.8954 20.1046 11 19 11H5C3.89543 11 3 11.8954 3 13V21H21ZM7.37873 4.51493L7 3L6.62127 4.51493C6.55967 4.76132 6.74602 5 7 5C7.25398 5 7.44033 4.76132 7.37873 4.51493ZM12.3787 4.51493L12 3L11.6213 4.51493C11.5597 4.76132 11.746 5 12 5C12.254 5 12.4403 4.76132 12.3787 4.51493ZM17.3787 4.51493L17 3L16.6213 4.51493C16.5597 4.76132 16.746 5 17 5C17.254 5 17.4403 4.76132 17.3787 4.51493Z" stroke="black" stroke-width="2" stroke-linecap="round" stroke-linejoin="round"/>
</svg>
