<svg width="24" height="24" viewBox="0 0 24 24" fill="none" xmlns="http://www.w3.org/2000/svg">
<g opacity="0.14">
<path d="M21 10.9996H3V17.9996C3 19.1042 3.89543 19.9996 5 19.9996H19C20.1046 19.9996 21 19.1042 21 17.9996V10.9996Z" fill="black"/>
<path d="M3 10.9996H21C21 7.23128 18.0223 4.1584 14.2915 4.0056C14.1014 3.99782 13.9148 4.05387 13.7543 4.15598L3 10.9996Z" fill="black"/>
</g>
<path d="M3 10.9996H21M3 10.9996V17.9996C3 19.1042 3.89543 19.9996 5 19.9996H19C20.1046 19.9996 21 19.1042 21 17.9996V10.9996M3 10.9996L13.7543 4.15598C13.9148 4.05387 14.1014 3.99782 14.2915 4.0056C18.0223 4.1584 21 7.23128 21 10.9996M3 15.4996H21" stroke="black" stroke-width="2" stroke-linecap="round" stroke-linejoin="round"/>
</svg>
