<svg width="24" height="24" viewBox="0 0 24 24" fill="none" xmlns="http://www.w3.org/2000/svg">
<path opacity="0.14" d="M21 17V7C21 5.89543 20.1046 5 19 5H9C9 6.65685 7.65685 8 6 8C6 9.65685 4.65685 11 3 11V17C3 18.1046 3.89543 19 5 19H19C20.1046 19 21 18.1046 21 17Z" fill="black"/>
<path d="M8.5 19V6.65894M5.23438 10H13.9973M14 19V5M3 14.5H14M21 7V17C21 18.1046 20.1046 19 19 19H5C3.89543 19 3 18.1046 3 17V11C4.65685 11 6 9.65685 6 8C7.65685 8 9 6.65685 9 5H19C20.1046 5 21 5.89543 21 7Z" stroke="black" stroke-width="2" stroke-linecap="round" stroke-linejoin="round"/>
</svg>
