<svg width="24" height="24" viewBox="0 0 24 24" fill="none" xmlns="http://www.w3.org/2000/svg">
<g opacity="0.14">
<path d="M21 10.9999H3V17.9999C3 19.1045 3.89543 19.9999 5 19.9999H19C20.1046 19.9999 21 19.1045 21 17.9999V10.9999Z" fill="black"/>
<path d="M3 10.9999H21C21 7.23152 18.0223 4.15865 14.2915 4.00584C14.1014 3.99806 13.9148 4.05412 13.7543 4.15622L3 10.9999Z" fill="black"/>
</g>
<path d="M3 10.9999H21M3 10.9999V17.9999C3 19.1045 3.89543 19.9999 5 19.9999H19C20.1046 19.9999 21 19.1045 21 17.9999V10.9999M3 10.9999L13.7543 4.15622C13.9148 4.05412 14.1014 3.99806 14.2915 4.00584C18.0223 4.15865 21 7.23152 21 10.9999" stroke="black" stroke-width="2" stroke-linejoin="round"/>
</svg>
