<svg width="24" height="24" viewBox="0 0 24 24" fill="none" xmlns="http://www.w3.org/2000/svg">
<g opacity="0.14">
<path d="M6 14.5C6 16.7957 7.33189 18.8176 9.35276 20H17.6472C19.6681 18.8176 21 16.7957 21 14.5C21 13.984 20.9327 13.4819 20.8055 13H6.19455C6.06728 13.4819 6 13.984 6 14.5Z" fill="black"/>
<path d="M9.35276 9H17.6445L20 4H7L9.35004 9H9.35276Z" fill="black"/>
</g>
<path d="M6.19455 13H20.8055M6.19455 13C6.06728 13.4819 6 13.984 6 14.5C6 16.7957 7.33189 18.8176 9.35276 20H17.6472C19.6681 18.8176 21 16.7957 21 14.5C21 13.984 20.9327 13.4819 20.8055 13M6.19455 13C6.63351 11.3379 7.78609 9.91666 9.35276 9H17.6472C19.2139 9.91666 20.3665 11.3379 20.8055 13M7 4L9.35004 9H17.6445L20 4H6C4.34315 4 3 5.34315 3 7V9" stroke="black" stroke-width="2" stroke-linecap="round" stroke-linejoin="round"/>
</svg>
