<svg width="24" height="24" viewBox="0 0 24 24" fill="none" xmlns="http://www.w3.org/2000/svg">
<g opacity="0.14">
<path d="M13.2816 3C12.3903 3 11.5308 3.13691 10.7228 3.39094C10.623 3.42231 10.524 3.45586 10.4258 3.49077L13.8936 11.2235L14.957 9.81959L17.6959 6.2016L18.6681 4.9164C17.1972 3.71801 15.3229 3 13.2816 3Z" fill="black"/>
<path d="M3 13.2827C3 12.3914 3.13691 11.5319 3.39094 10.7239C3.42231 10.6241 3.45586 10.5251 3.49077 10.4269L11.2235 13.8947L9.82111 14.9563L6.20312 17.6952L4.9164 18.6692C3.71801 17.1983 3 15.324 3 13.2827Z" fill="black"/>
<path d="M10.2804 3.16412L13.8198 11.0566C14.0746 11.6246 13.952 12.2909 13.5118 12.7311L12.731 13.5119C12.2909 13.952 11.6246 14.0746 11.0566 13.8199L3.16406 10.2804C3.85891 6.68903 6.68898 3.85897 10.2804 3.16412Z" fill="black"/>
<path d="M6.20312 17.6971C6.91265 19.6246 8.77248 21 10.9551 21C10.5364 19.4896 9.72339 16.1666 9.82111 14.9583V14.9563L6.20312 17.6952V17.6971Z" fill="black"/>
<path d="M20.9988 10.9536C20.9988 8.77096 19.6233 6.91113 17.6959 6.2016L14.957 9.81959C16.1654 9.72186 19.4884 10.5349 20.9988 10.9536Z" fill="black"/>
</g>
<path d="M17.6959 6.2016C19.6233 6.91113 20.9988 8.77096 20.9988 10.9536C19.4884 10.5349 16.1654 9.72186 14.957 9.81959M17.6959 6.2016L18.6681 4.9164C17.1972 3.71801 15.3229 3 13.2816 3C12.3903 3 11.5308 3.13691 10.7228 3.39094C10.623 3.42231 10.524 3.45586 10.4258 3.49077L13.8936 11.2235L14.957 9.81959M17.6959 6.2016L14.957 9.81959M6.20312 17.6952L4.9164 18.6692C3.71801 17.1983 3 15.324 3 13.2827C3 12.3914 3.13691 11.5319 3.39094 10.7239C3.42231 10.6241 3.45586 10.5251 3.49077 10.4269L11.2235 13.8947L9.82111 14.9563M6.20312 17.6952V17.6971C6.91265 19.6246 8.77248 21 10.9551 21C10.5364 19.4896 9.72339 16.1666 9.82111 14.9583V14.9563M6.20312 17.6952L9.82111 14.9563M13.8198 11.0566L10.2804 3.16412C6.68898 3.85897 3.85891 6.68903 3.16406 10.2804L11.0566 13.8199C11.6246 14.0746 12.2909 13.952 12.731 13.5119L13.5118 12.7311C13.952 12.2909 14.0746 11.6246 13.8198 11.0566Z" stroke="black" stroke-width="2" stroke-linecap="round" stroke-linejoin="round"/>
</svg>
