<svg width="24" height="24" viewBox="0 0 24 24" fill="none" xmlns="http://www.w3.org/2000/svg">
<path opacity="0.14" fill-rule="evenodd" clip-rule="evenodd" d="M8 21C5.23858 21 3 18.7614 3 16C3 15.3406 3.12766 14.7109 3.35961 14.1345C3.68127 13.3351 4.09967 12.5656 4.29257 11.7258L4.35273 11.4638C4.75902 9.69498 4 7.8149 4 6C4 3.79086 5.79086 2 8 2C8.97292 2 9.86472 2.34735 10.5581 2.92482C10.8732 3.1872 11.1019 3.53397 11.3041 3.89066C12.0705 5.2425 13.3373 6.23922 14.8315 6.66613L15.1075 6.74499C15.6996 6.91417 16.318 6.97206 16.9233 7.08508C19.2437 7.51828 21 9.55403 21 12C21 14.7614 18.7614 17 16 17C14.4262 17 12.9443 17.741 12 19C11.0878 20.2143 9.63574 21 8 21ZM10.5 15.5C12.433 15.5 14 13.933 14 12C14 10.067 12.433 8.5 10.5 8.5C8.567 8.5 7 10.067 7 12C7 13.933 8.567 15.5 10.5 15.5Z" fill="black" stroke="black" stroke-width="2"/>
<path d="M9.5 12C9.7 11.4477 9.94772 11.2 10.5 11M8 21C5.23858 21 3 18.7614 3 16C3 15.3406 3.12766 14.7109 3.35961 14.1345C3.68127 13.3351 4.09967 12.5656 4.29257 11.7258L4.35273 11.4638C4.75902 9.69498 4 7.8149 4 6C4 3.79086 5.79086 2 8 2C8.97292 2 9.86472 2.34735 10.5581 2.92482C10.8732 3.1872 11.1019 3.53397 11.3041 3.89066C12.0705 5.2425 13.3373 6.23922 14.8315 6.66613L15.1075 6.74499C15.6996 6.91417 16.318 6.97206 16.9233 7.08508C19.2437 7.51828 21 9.55403 21 12C21 14.7614 18.7614 17 16 17C14.4262 17 12.9443 17.741 12 19C11.0878 20.2143 9.63574 21 8 21ZM14 12C14 13.933 12.433 15.5 10.5 15.5C8.567 15.5 7 13.933 7 12C7 10.067 8.567 8.5 10.5 8.5C12.433 8.5 14 10.067 14 12Z" stroke="black" stroke-width="2" stroke-linecap="round"/>
</svg>
