<svg width="24" height="24" viewBox="0 0 24 24" fill="none" xmlns="http://www.w3.org/2000/svg">
<path opacity="0.14" d="M13 6C17 6 20 9 21 12C20 15 17 18 13 18C9.5 18 8.5 17 7 15L3 17L5 12L3 7L7 9C8.5 7 9.5 6 13 6Z" fill="black"/>
<path d="M21 12L21.9487 12.3162C22.0171 12.111 22.0171 11.8891 21.9487 11.6838L21 12ZM7 9L6.55279 9.89443C6.98505 10.1106 7.51003 9.98663 7.8 9.6L7 9ZM3 7L3.44721 6.10557C3.07587 5.9199 2.62841 5.983 2.32289 6.26412C2.01737 6.54524 1.91733 6.9859 2.07152 7.37139L3 7ZM7 15L7.8 14.4C7.51003 14.0134 6.98505 13.8894 6.55279 14.1056L7 15ZM3 17L2.07152 16.6286C1.91733 17.0141 2.01737 17.4548 2.32289 17.7359C2.62841 18.017 3.07587 18.0801 3.44721 17.8944L3 17ZM5 12L5.92848 12.3714C6.02384 12.133 6.02384 11.867 5.92848 11.6286L5 12ZM13.2071 9.70711C13.5976 9.31658 13.5976 8.68342 13.2071 8.29289C12.8166 7.90237 12.1834 7.90237 11.7929 8.29289L13.2071 9.70711ZM9.79289 10.2929C9.40237 10.6834 9.40237 11.3166 9.79289 11.7071C10.1834 12.0976 10.8166 12.0976 11.2071 11.7071L9.79289 10.2929ZM17.2071 13.7071C17.5976 13.3166 17.5976 12.6834 17.2071 12.2929C16.8166 11.9024 16.1834 11.9024 15.7929 12.2929L17.2071 13.7071ZM13.7929 14.2929C13.4024 14.6834 13.4024 15.3166 13.7929 15.7071C14.1834 16.0976 14.8166 16.0976 15.2071 15.7071L13.7929 14.2929ZM16.2071 10.7071C16.5976 10.3166 16.5976 9.68342 16.2071 9.29289C15.8166 8.90237 15.1834 8.90237 14.7929 9.29289L16.2071 10.7071ZM10.7929 13.2929C10.4024 13.6834 10.4024 14.3166 10.7929 14.7071C11.1834 15.0976 11.8166 15.0976 12.2071 14.7071L10.7929 13.2929ZM21.9487 11.6838C20.8457 8.37486 17.5267 5 13 5V7C16.4733 7 19.1543 9.62514 20.0513 12.3162L21.9487 11.6838ZM13 5C11.1634 5 9.84111 5.26047 8.75386 5.88176C7.68166 6.49444 6.95008 7.39989 6.2 8.4L7.8 9.6C8.54992 8.60011 9.06834 8.00556 9.74614 7.61824C10.4089 7.23953 11.3366 7 13 7V5ZM7.44721 8.10557L3.44721 6.10557L2.55279 7.89443L6.55279 9.89443L7.44721 8.10557ZM20.0513 11.6838C19.1543 14.3749 16.4733 17 13 17V19C17.5267 19 20.8457 15.6251 21.9487 12.3162L20.0513 11.6838ZM13 17C11.3366 17 10.4089 16.7605 9.74614 16.3818C9.06834 15.9944 8.54992 15.3999 7.8 14.4L6.2 15.6C6.95008 16.6001 7.68166 17.5056 8.75386 18.1182C9.84111 18.7395 11.1634 19 13 19V17ZM6.55279 14.1056L2.55279 16.1056L3.44721 17.8944L7.44721 15.8944L6.55279 14.1056ZM2.07152 7.37139L4.07152 12.3714L5.92848 11.6286L3.92848 6.62861L2.07152 7.37139ZM4.07152 11.6286L2.07152 16.6286L3.92848 17.3714L5.92848 12.3714L4.07152 11.6286ZM11.7929 8.29289L9.79289 10.2929L11.2071 11.7071L13.2071 9.70711L11.7929 8.29289ZM15.7929 12.2929L13.7929 14.2929L15.2071 15.7071L17.2071 13.7071L15.7929 12.2929ZM14.7929 9.29289L10.7929 13.2929L12.2071 14.7071L16.2071 10.7071L14.7929 9.29289Z" fill="black"/>
</svg>
