<svg width="24" height="24" viewBox="0 0 24 24" fill="none" xmlns="http://www.w3.org/2000/svg">
<g opacity="0.14">
<path d="M17.6654 15L17.1977 19.2209C17.0851 20.2337 16.229 21 15.2099 21H8.79009C7.77099 21 6.91486 20.2337 6.80232 19.2209L6.33203 15L7.53567 15.4514C8.4686 15.8012 9.50507 15.7468 10.3963 15.3012C11.405 14.7968 12.5924 14.7968 13.6011 15.3012C14.4923 15.7468 15.5288 15.8012 16.4617 15.4514L17.6654 15Z" fill="black"/>
<path d="M13.5 9.4C13.5 10.2837 12.8284 11 12 11C11.1716 11 10.5 10.2837 10.5 9.4C10.5 9.18782 10.5387 8.98529 10.609 8.8C10.8316 8.21363 12 7 12 7C12 7 13.1684 8.21363 13.391 8.8C13.4613 8.98529 13.5 9.18782 13.5 9.4Z" fill="black"/>
</g>
<path d="M5 3V2C4.71556 2 4.44457 2.12113 4.25487 2.33308C4.06517 2.54503 3.9747 2.82773 4.00612 3.11043L5 3ZM19 3L19.9939 3.11043C20.0253 2.82773 19.9348 2.54503 19.7451 2.33308C19.5554 2.12113 19.2844 2 19 2V3ZM6.80232 19.2209L5.80843 19.3313L6.80232 19.2209ZM17.1977 19.2209L16.2038 19.1104L17.1977 19.2209ZM7.53567 15.4514L7.18455 16.3877H7.18455L7.53567 15.4514ZM16.4617 15.4514L16.1106 14.515H16.1106L16.4617 15.4514ZM13.6011 15.3012L13.1539 16.1957H13.1539L13.6011 15.3012ZM10.3963 15.3012L9.94904 14.4068L10.3963 15.3012ZM12 7L12.7204 6.30643C12.5319 6.11063 12.2718 6 12 6C11.7282 6 11.4681 6.11063 11.2796 6.30643L12 7ZM10.609 8.8L9.67409 8.4452L10.609 8.8ZM13.391 8.8L14.3259 8.4452L13.391 8.8ZM5 4H19V2H5V4ZM18.0061 2.88957L16.2038 19.1104L18.1916 19.3313L19.9939 3.11043L18.0061 2.88957ZM15.2099 20H8.79009V22H15.2099V20ZM7.7962 19.1104L5.99388 2.88957L4.00612 3.11043L5.80843 19.3313L7.7962 19.1104ZM8.79009 20C8.28054 20 7.85247 19.6169 7.7962 19.1104L5.80843 19.3313C5.97725 20.8506 7.26144 22 8.79009 22V20ZM16.2038 19.1104C16.1475 19.6169 15.7195 20 15.2099 20V22C16.7386 22 18.0228 20.8506 18.1916 19.3313L16.2038 19.1104ZM5.98091 15.9363L7.18455 16.3877L7.88679 14.515L6.68315 14.0637L5.98091 15.9363ZM16.8128 16.3877L18.0165 15.9363L17.3142 14.0637L16.1106 14.515L16.8128 16.3877ZM13.1539 16.1957C14.2938 16.7656 15.6196 16.8352 16.8128 16.3877L16.1106 14.515C15.438 14.7672 14.6908 14.728 14.0484 14.4068L13.1539 16.1957ZM10.8435 16.1957C11.5707 15.832 12.4267 15.832 13.1539 16.1957L14.0484 14.4068C12.7581 13.7617 11.2393 13.7617 9.94904 14.4068L10.8435 16.1957ZM7.18455 16.3877C8.37784 16.8352 9.70357 16.7656 10.8435 16.1957L9.94904 14.4068C9.30657 14.728 8.55936 14.7672 7.88679 14.515L7.18455 16.3877ZM12.5 9.4C12.5 9.79315 12.2163 10 12 10V12C13.4405 12 14.5 10.7742 14.5 9.4H12.5ZM12 10C11.7837 10 11.5 9.79315 11.5 9.4H9.5C9.5 10.7742 10.5595 12 12 12V10ZM11.5 9.4C11.5 9.31003 11.5163 9.22766 11.544 9.1548L9.67409 8.4452C9.56111 8.74292 9.5 9.06561 9.5 9.4H11.5ZM11.544 9.1548C11.5434 9.15625 11.5547 9.12839 11.5916 9.06642C11.6263 9.0082 11.6734 8.93704 11.7327 8.85444C11.8517 8.68865 11.9996 8.50474 12.1502 8.32744C12.2993 8.15184 12.4431 7.99196 12.5501 7.87557C12.6034 7.81763 12.647 7.77109 12.6768 7.73948C12.6917 7.72369 12.7031 7.71167 12.7105 7.70386C12.7143 7.69996 12.717 7.69711 12.7187 7.69538C12.7195 7.69451 12.7201 7.69392 12.7203 7.69362C12.7205 7.69346 12.7206 7.69338 12.7206 7.69338C12.7206 7.69337 12.7206 7.69338 12.7205 7.69342C12.7205 7.69343 12.7205 7.69347 12.7205 7.69348C12.7204 7.69352 12.7204 7.69357 12 7C11.2796 6.30643 11.2796 6.30649 11.2795 6.30655C11.2795 6.30658 11.2794 6.30664 11.2794 6.30669C11.2793 6.3068 11.2791 6.30692 11.279 6.30707C11.2787 6.30735 11.2784 6.30771 11.278 6.30815C11.2771 6.30902 11.276 6.31018 11.2746 6.31162C11.2719 6.31452 11.268 6.31856 11.2631 6.32369C11.2533 6.33394 11.2394 6.34857 11.2219 6.36711C11.187 6.40416 11.1375 6.45702 11.0778 6.52202C10.9587 6.6515 10.7965 6.83168 10.6258 7.03278C10.4564 7.23219 10.2705 7.46164 10.1078 7.68832C9.95783 7.89732 9.77827 8.17068 9.67409 8.4452L11.544 9.1548ZM12 7C11.2796 7.69357 11.2796 7.69352 11.2795 7.69348C11.2795 7.69347 11.2795 7.69343 11.2795 7.69342C11.2794 7.69338 11.2794 7.69337 11.2794 7.69338C11.2794 7.69338 11.2795 7.69346 11.2797 7.69362C11.2799 7.69392 11.2805 7.69451 11.2813 7.69538C11.283 7.69711 11.2857 7.69996 11.2895 7.70386C11.2969 7.71167 11.3083 7.72369 11.3232 7.73948C11.353 7.77109 11.3966 7.81763 11.4499 7.87557C11.5569 7.99196 11.7007 8.15184 11.8498 8.32744C12.0004 8.50474 12.1483 8.68865 12.2673 8.85444C12.3266 8.93704 12.3737 9.0082 12.4084 9.06642C12.4453 9.12839 12.4566 9.15625 12.456 9.1548L14.3259 8.4452C14.2217 8.17068 14.0422 7.89732 13.8922 7.68832C13.7295 7.46164 13.5436 7.23219 13.3742 7.03278C13.2035 6.83168 13.0413 6.6515 12.9222 6.52202C12.8625 6.45702 12.813 6.40416 12.7781 6.36711C12.7606 6.34857 12.7467 6.33394 12.7369 6.32369C12.732 6.31856 12.7281 6.31452 12.7254 6.31162C12.724 6.31018 12.7229 6.30902 12.722 6.30815C12.7216 6.30771 12.7213 6.30735 12.721 6.30707C12.7209 6.30692 12.7207 6.3068 12.7206 6.30669C12.7206 6.30664 12.7205 6.30658 12.7205 6.30655C12.7204 6.30649 12.7204 6.30643 12 7ZM12.456 9.1548C12.4837 9.22766 12.5 9.31003 12.5 9.4H14.5C14.5 9.06561 14.4389 8.74292 14.3259 8.4452L12.456 9.1548Z" fill="black"/>
</svg>
