<svg width="24" height="24" viewBox="0 0 24 24" fill="none" xmlns="http://www.w3.org/2000/svg">
<g opacity="0.14">
<path fill-rule="evenodd" clip-rule="evenodd" d="M12 3H6C4.89543 3 4 3.89543 4 5C4 6.10457 4.89543 7 6 7H8.27721C5.84696 7 3.82517 8.73238 3.50507 10.9897L20.4958 11C20.1804 8.73763 18.1561 7 15.7222 7H18C19.1046 7 20 6.10457 20 5C20 3.89543 19.1046 3 18 3H13.5H12Z" fill="black"/>
<path d="M7.35879 21H16.6406C17.4609 21 18.1982 20.4992 18.4828 19.7298C18.9507 18.4644 19.6407 16.4992 19.9997 15H3.99971C4.35868 16.4992 5.0487 18.4644 5.51666 19.7298C5.80119 20.4992 6.53847 21 7.35879 21Z" fill="black"/>
</g>
<path d="M19.9985 15H3.99854M3.50391 10.9897H20.4932M12 3V7M13.5 5V3M6 3H18C19.1046 3 20 3.89543 20 5C20 6.10457 19.1046 7 18 7H15H15.7222C18.5896 7 20.8885 9.41176 20.4943 12.252C20.3607 13.2153 20.1971 14.1757 19.9997 15C19.6407 16.4992 18.9507 18.4644 18.4828 19.7298C18.1982 20.4992 17.4609 21 16.6406 21H7.35879C6.53847 21 5.80119 20.4992 5.51666 19.7298C5.0487 18.4644 4.35868 16.4992 3.99971 15C3.80233 14.1757 3.63875 13.2153 3.50507 12.252C3.11095 9.41176 5.40976 7 8.27721 7H9H6C4.89543 7 4 6.10457 4 5C4 3.89543 4.89543 3 6 3Z" stroke="black" stroke-width="2" stroke-linecap="round" stroke-linejoin="round"/>
</svg>
