<svg width="24" height="24" viewBox="0 0 24 24" fill="none" xmlns="http://www.w3.org/2000/svg">
<g opacity="0.14">
<path d="M14 20L20 14C20.5523 13.4477 20.5523 12.5523 20 12L12 20C12.5523 20.5523 13.4477 20.5523 14 20Z" fill="black"/>
<path d="M8.55103 20.0476L20.0476 8.55103C21.3175 7.28116 21.3175 5.22228 20.0476 3.95241C18.7777 2.68253 16.7188 2.68253 15.449 3.95241L3.95241 15.449C2.68253 16.7188 2.68253 18.7777 3.95241 20.0476C5.22228 21.3175 7.28116 21.3175 8.55103 20.0476Z" fill="black"/>
<path d="M10 4L4 10C3.44771 10.5523 3.44771 11.4477 4 12L12 4C11.4477 3.44771 10.5523 3.44772 10 4Z" fill="black"/>
</g>
<path fill-rule="evenodd" clip-rule="evenodd" d="M14.7419 3.2453C16.4023 1.5849 19.0943 1.5849 20.7547 3.2453C22.4151 4.9057 22.4151 7.59774 20.7547 9.25814L9.25814 20.7547C7.59774 22.4151 4.9057 22.4151 3.2453 20.7547L3.95241 20.0476L3.2453 20.7547C1.5849 19.0943 1.5849 16.4023 3.2453 14.7419L14.7419 3.2453ZM19.3405 4.65951C18.4611 3.78016 17.0354 3.78016 16.1561 4.65951L4.65951 16.1561C3.78016 17.0354 3.78016 18.4611 4.65951 19.3405L3.96919 20.0308L4.65951 19.3405C5.53886 20.2198 6.96457 20.2198 7.84393 19.3405L19.3405 7.84392C20.2198 6.96457 20.2198 5.53886 19.3405 4.65951ZM9.29289 3.29289C10.2357 2.35009 11.7643 2.35008 12.7071 3.29289C13.0976 3.68342 13.0976 4.31658 12.7071 4.70711C12.3166 5.09763 11.6834 5.09763 11.2929 4.70711C11.1311 4.54535 10.8689 4.54535 10.7071 4.70711L4.70711 10.7071C4.54535 10.8689 4.54535 11.1311 4.70711 11.2929C5.09763 11.6834 5.09763 12.3166 4.70711 12.7071C4.31658 13.0976 3.68342 13.0976 3.29289 12.7071C2.35008 11.7643 2.35008 10.2357 3.29289 9.29289L9.29289 3.29289ZM17.8575 6.4855C18.1416 6.95908 17.9881 7.57334 17.5145 7.85749L16.4844 8.47555C15.7406 8.92185 15.1809 9.61951 14.9066 10.4424C14.5188 11.6059 13.6059 12.5188 12.4424 12.9066L12.3162 12.9487C11.6706 13.1639 11.1639 13.6706 10.9487 14.3162L10.8739 14.5405C10.524 15.5902 9.81019 16.4801 8.86141 17.0493L7.5145 17.8575C7.04092 18.1416 6.42666 17.9881 6.14251 17.5145C5.85836 17.0409 6.01192 16.4267 6.4855 16.1425L7.83242 15.3344C8.37181 15.0107 8.77764 14.5048 8.97655 13.9081L9.05132 13.6838C9.46561 12.4409 10.4409 11.4656 11.6838 11.0513L12 12L11.6838 11.0513L11.81 11.0092C12.3762 10.8205 12.8205 10.3762 13.0092 9.80999C13.4345 8.53413 14.3022 7.4525 15.4554 6.76057L16.4855 6.14251C16.9591 5.85836 17.5733 6.01192 17.8575 6.4855ZM19.2929 11.2929C19.6834 10.9024 20.3166 10.9024 20.7071 11.2929C21.6499 12.2357 21.6499 13.7643 20.7071 14.7071L14.7071 20.7071C13.7643 21.6499 12.2357 21.6499 11.2929 20.7071C10.9024 20.3166 10.9024 19.6834 11.2929 19.2929C11.6834 18.9024 12.3166 18.9024 12.7071 19.2929C12.8689 19.4547 13.1311 19.4547 13.2929 19.2929L19.2929 13.2929C19.4547 13.1311 19.4547 12.8689 19.2929 12.7071C18.9024 12.3166 18.9024 11.6834 19.2929 11.2929Z" fill="black"/>
</svg>
