<svg width="24" height="24" viewBox="0 0 24 24" fill="none" xmlns="http://www.w3.org/2000/svg">
<path opacity="0.14" d="M12 3C9.23858 3 7 5.23858 7 8H6C4.89543 8 4 8.89543 4 10C4 11.1046 4.89543 12 6 12H18C19.1046 12 20 11.1046 20 10C20 8.89543 19.1046 8 18 8H17C17 5.23858 14.7614 3 12 3Z" fill="black"/>
<path d="M15.6 15L12 21L8.4 15M7 8C7 5.23858 9.23858 3 12 3C14.7614 3 17 5.23858 17 8H18C19.1046 8 20 8.89543 20 10C20 11.1046 19.1046 12 18 12H6C4.89543 12 4 11.1046 4 10C4 8.89543 4.89543 8 6 8H7Z" stroke="black" stroke-width="2" stroke-linecap="round" stroke-linejoin="round"/>
</svg>
