<svg width="24" height="24" viewBox="0 0 24 24" fill="none" xmlns="http://www.w3.org/2000/svg">
<g opacity="0.14">
<path d="M20.3581 11.3581C20.7503 10.966 20.9572 10.434 20.994 9.82348C20.999 9.7413 21.0008 9.65769 20.9997 9.57281C20.9812 8.23255 20.2041 6.57433 18.8149 5.18514C17.409 3.77929 15.7276 3.0002 14.3791 3C13.6837 2.99989 13.0768 3.2069 12.6419 3.64186C11.3634 4.92033 12.0543 7.68409 14.1851 9.81487C16.3159 11.9457 19.0797 12.6366 20.3581 11.3581Z" fill="black"/>
<path d="M9 8.3791V13C9 14.1046 9.89543 15 11 15L15.5729 15C18.4862 15 20.8632 12.7044 20.994 9.82348C20.9572 10.434 20.7503 10.966 20.3581 11.3581C19.0797 12.6366 16.3159 11.9457 14.1851 9.81487C12.0543 7.68409 11.3634 4.92033 12.6419 3.64186C13.0768 3.2069 13.6837 2.99989 14.3791 3C11.4083 3 9 5.4083 9 8.3791Z" fill="black"/>
</g>
<path d="M3.58579 18.4142L4.29289 17.7071L3.58579 18.4142ZM3.58579 15.5858L2.87868 14.8787H2.87868L3.58579 15.5858ZM6.41421 15.5858L5.70711 16.2929C5.89464 16.4804 6.149 16.5858 6.41421 16.5858C6.67943 16.5858 6.93378 16.4804 7.12132 16.2929L6.41421 15.5858ZM8.41421 17.5858L7.70711 16.8787L7 17.5858L7.70711 18.2929L8.41421 17.5858ZM8.41421 20.4142L9.12132 21.1213L8.41421 20.4142ZM5.58579 20.4142L4.87868 21.1213H4.87868L5.58579 20.4142ZM5 19H6C6 18.4477 5.55228 18 5 18V19ZM15.5729 15V14V15ZM14.3791 3L14.3792 2L14.3791 3ZM20.9997 9.57281L21.9996 9.55907L20.9997 9.57281ZM18.8149 5.18514L19.522 4.47803V4.47803L18.8149 5.18514ZM20.3581 11.3581L19.651 10.651V10.651L20.3581 11.3581ZM14.1851 9.81487L13.478 10.522V10.522L14.1851 9.81487ZM12.6419 3.64186L13.349 4.34896V4.34896L12.6419 3.64186ZM4.29289 17.7071C3.90237 17.3166 3.90237 16.6834 4.29289 16.2929L2.87868 14.8787C1.70711 16.0503 1.70711 17.9497 2.87868 19.1213L4.29289 17.7071ZM4.29289 16.2929C4.68342 15.9024 5.31658 15.9024 5.70711 16.2929L7.12132 14.8787C5.94975 13.7071 4.05025 13.7071 2.87868 14.8787L4.29289 16.2929ZM7.70711 18.2929C8.09763 18.6834 8.09763 19.3166 7.70711 19.7071L9.12132 21.1213C10.2929 19.9497 10.2929 18.0503 9.12132 16.8787L7.70711 18.2929ZM7.70711 19.7071C7.31658 20.0976 6.68342 20.0976 6.29289 19.7071L4.87868 21.1213C6.05025 22.2929 7.94975 22.2929 9.12132 21.1213L7.70711 19.7071ZM6.29289 19.7071C6.09743 19.5116 6 19.2575 6 19H4C4 19.7662 4.29309 20.5357 4.87868 21.1213L6.29289 19.7071ZM5 18C4.74253 18 4.48835 17.9026 4.29289 17.7071L2.87868 19.1213C3.46427 19.7069 4.23378 20 5 20V18ZM9.12132 18.2929L11.7071 15.7071L10.2929 14.2929L7.70711 16.8787L9.12132 18.2929ZM7.12132 16.2929L9.70711 13.7071L8.29289 12.2929L5.70711 14.8787L7.12132 16.2929ZM8 8.3791V13H10V8.3791H8ZM11 16L15.5729 16V14L11 14L11 16ZM10 8.3791C10 5.96059 11.9606 4 14.3791 4V2C10.856 2 8 4.85602 8 8.3791H10ZM15.5729 16C19.1225 16 21.9999 13.1223 21.9997 9.57274L19.9997 9.57289C19.9998 12.0179 18.0179 14 15.5729 14V16ZM8 13C8 14.6569 9.34315 16 11 16V14C10.4477 14 10 13.5523 10 13H8ZM19.651 10.651C19.3577 10.9443 18.7696 11.1288 17.8338 10.8948C16.9205 10.6665 15.8515 10.067 14.8922 9.10777L13.478 10.522C14.6495 11.6935 16.0278 12.5049 17.3487 12.8351C18.6471 13.1597 20.08 13.0504 21.0652 12.0652L19.651 10.651ZM14.8922 9.10777C13.933 8.1485 13.3335 7.07952 13.1052 6.16621C12.8712 5.23038 13.0557 4.64224 13.349 4.34896L11.9348 2.93475C10.9496 3.91995 10.8403 5.35292 11.1649 6.65128C11.4951 7.97217 12.3065 9.35046 13.478 10.522L14.8922 9.10777ZM13.349 4.34896C13.5528 4.14516 13.8801 3.99992 14.3789 4L14.3792 2C13.4873 1.99987 12.6009 2.26863 11.9348 2.93475L13.349 4.34896ZM14.3789 4C15.384 4.00015 16.8256 4.61007 18.1078 5.89224L19.522 4.47803C17.9925 2.94851 16.0713 2.00026 14.3792 2L14.3789 4ZM18.1078 5.89224C19.3736 7.15812 19.986 8.58168 19.9998 9.58655L21.9996 9.55907C21.9765 7.88341 21.0345 5.99053 19.522 4.47803L18.1078 5.89224ZM19.9998 9.58655C20.0069 10.1047 19.8592 10.4429 19.651 10.651L21.0652 12.0652C21.747 11.3835 22.0121 10.4719 21.9996 9.55907L19.9998 9.58655ZM16.058 7.94032C16.1921 8.07442 16.2604 8.18593 16.2796 8.2282C16.2908 8.25292 16.2653 8.20932 16.2594 8.11166C16.2537 8.01554 16.2646 7.7423 16.5026 7.5043L17.9168 8.91851C18.2285 8.60684 18.2698 8.2236 18.2558 7.99166C18.2418 7.75816 18.1696 7.55289 18.1003 7.40059C17.9586 7.08883 17.731 6.7849 17.4722 6.5261L16.058 7.94032ZM16.5026 7.5043C16.7406 7.2663 17.0138 7.25537 17.1099 7.26115C17.2076 7.26702 17.2512 7.29255 17.2265 7.28131C17.1842 7.2621 17.0727 7.19377 16.9386 7.05967L15.5244 8.47388C15.7832 8.73267 16.0871 8.96034 16.3989 9.10205C16.5512 9.17127 16.7564 9.24351 16.9899 9.25754C17.2219 9.27148 17.6051 9.23019 17.9168 8.91851L16.5026 7.5043ZM16.9386 7.05967C16.8045 6.92556 16.7362 6.81406 16.717 6.77178C16.7057 6.74706 16.7313 6.79066 16.7371 6.88832C16.7429 6.98444 16.732 7.25768 16.494 7.49568L15.0798 6.08147C14.7681 6.39314 14.7268 6.77638 14.7407 7.00832C14.7548 7.24182 14.827 7.44709 14.8962 7.59939C15.0379 7.91115 15.2656 8.21508 15.5244 8.47388L16.9386 7.05967ZM16.494 7.49568C16.256 7.73368 15.9827 7.74461 15.8866 7.73883C15.7889 7.73296 15.7453 7.70743 15.7701 7.71867C15.8123 7.73788 15.9238 7.80621 16.058 7.94032L17.4722 6.5261C17.2134 6.26731 16.9094 6.03964 16.5977 5.89793C16.4454 5.82871 16.2401 5.75647 16.0066 5.74244C15.7747 5.7285 15.3914 5.76979 15.0798 6.08147L16.494 7.49568Z" fill="black"/>
</svg>
