<svg width="24" height="24" viewBox="0 0 24 24" fill="none" xmlns="http://www.w3.org/2000/svg">
<path opacity="0.14" d="M16.638 21H7.35987C6.12399 21 5.1839 19.8903 5.38708 18.6712L6.83098 10H17.1643L18.6108 18.6712C18.814 19.8903 17.8739 21 16.638 21Z" fill="black"/>
<path d="M5.38708 18.6712L4.40069 18.5068L5.38708 18.6712ZM18.6108 18.6712L19.5972 18.5068L18.6108 18.6712ZM16.6565 6.94558L15.6702 7.10997L16.6565 6.94558ZM7.34135 6.94558L8.32775 7.10997L7.34135 6.94558ZM11.9872 4C11.4349 4 10.9872 4.44772 10.9872 5C10.9872 5.55228 11.4349 6 11.9872 6V4ZM11.9972 6C12.5495 6 12.9972 5.55228 12.9972 5C12.9972 4.44772 12.5495 4 11.9972 4V6ZM9.99895 5.5C9.44666 5.5 8.99895 5.94772 8.99895 6.5C8.99895 7.05228 9.44666 7.5 9.99895 7.5V5.5ZM10.0089 7.5C10.5612 7.5 11.0089 7.05228 11.0089 6.5C11.0089 5.94772 10.5612 5.5 10.0089 5.5V7.5ZM13.9989 5.5C13.4467 5.5 12.9989 5.94772 12.9989 6.5C12.9989 7.05228 13.4467 7.5 13.9989 7.5V5.5ZM14.0089 7.5C14.5612 7.5 15.0089 7.05228 15.0089 6.5C15.0089 5.94772 14.5612 5.5 14.0089 5.5V7.5ZM15.6702 7.10997L17.6244 18.8356L19.5972 18.5068L17.6429 6.78118L15.6702 7.10997ZM16.638 20H7.35987V22H16.638V20ZM6.37348 18.8356L8.32775 7.10997L6.35496 6.78118L4.40069 18.5068L6.37348 18.8356ZM7.35987 20C6.74193 20 6.27189 19.4451 6.37348 18.8356L4.40069 18.5068C4.09592 20.3354 5.50605 22 7.35987 22V20ZM17.6244 18.8356C17.726 19.4451 17.256 20 16.638 20V22C18.4918 22 19.902 20.3354 19.5972 18.5068L17.6244 18.8356ZM11.9989 4C13.8183 4 15.371 5.31535 15.6702 7.10997L17.6429 6.78118C17.1831 4.02217 14.796 2 11.9989 2V4ZM11.9989 2C9.20189 2 6.81479 4.02217 6.35496 6.78118L8.32775 7.10997C8.62685 5.31535 10.1796 4 11.9989 4V2ZM6.83098 11H17.1643V9H6.83098V11ZM11.9872 6H11.9972V4H11.9872V6ZM9.99895 7.5H10.0089V5.5H9.99895V7.5ZM13.9989 7.5H14.0089V5.5H13.9989V7.5Z" fill="black"/>
</svg>
