<svg width="24" height="24" viewBox="0 0 24 24" fill="none" xmlns="http://www.w3.org/2000/svg">
<g opacity="0.14">
<path d="M21 20V16H17.3627C17.1228 16 16.885 16.0431 16.6604 16.1273L13 17.5L9.33958 16.1273C9.11502 16.0431 8.87715 16 8.63733 16H3V20H21Z" fill="black"/>
<path d="M3 5H21V9H3V5Z" fill="black"/>
</g>
<path d="M3 13L5.4315 12.3921C6.45118 12.1372 7.52525 12.2101 8.50113 12.6005L10.143 13.2572C11.3351 13.734 12.6649 13.734 13.857 13.2572L15.4989 12.6005C16.4747 12.2101 17.5488 12.1372 18.5685 12.3921L21 13M21 16V20H3V16H8.63733C8.87715 16 9.11502 16.0431 9.33958 16.1273L13 17.5L16.6604 16.1273C16.885 16.0431 17.1228 16 17.3627 16H21ZM3 5H21V9H3V5Z" stroke="black" stroke-width="2" stroke-linecap="round" stroke-linejoin="round"/>
</svg>
