<svg width="24" height="24" viewBox="0 0 24 24" fill="none" xmlns="http://www.w3.org/2000/svg">
<path opacity="0.14" d="M9.46154 15H9C7.34315 15 6 16.3431 6 18C6 19.6569 7.34315 21 9 21H9.75C15.9632 21 21 15.9632 21 9.75V9C21 7.34315 19.6569 6 18 6C16.3431 6 15 7.34315 15 9V9.46154C15 12.5203 12.5203 15 9.46154 15Z" fill="black"/>
<path d="M3 20V17M17 3H20M10 18C14.4183 18 18 14.4183 18 10M9 15H9.46154C12.5203 15 15 12.5203 15 9.46154V9C15 7.34315 16.3431 6 18 6C19.6569 6 21 7.34315 21 9V9.75C21 15.9632 15.9632 21 9.75 21H9C7.34315 21 6 19.6569 6 18C6 16.3431 7.34315 15 9 15Z" stroke="black" stroke-width="2" stroke-linecap="round"/>
</svg>
