<svg width="24" height="24" viewBox="0 0 24 24" fill="none" xmlns="http://www.w3.org/2000/svg">
<path opacity="0.14" d="M11.4 20H7.94204C5.21263 20 3 17.7874 3 15.058C3 14.397 3.33033 13.7798 3.88028 13.4131L7.2323 11.1785C8.39069 10.4062 9.32749 9.34501 9.95011 8.09978L10.8785 6.24301C11.5658 4.86835 12.9708 4 14.5078 4H14.6C18.1346 4 21 6.86538 21 10.4C21 15.7019 16.7019 20 11.4 20Z" fill="black"/>
<path d="M15 11H15.01M7.94204 20H11.4C16.7019 20 21 15.7019 21 10.4C21 6.86538 18.1346 4 14.6 4H14.5078C12.9708 4 11.5658 4.86835 10.8785 6.24301L9.95011 8.09978C9.32749 9.34501 8.39069 10.4062 7.2323 11.1785L3.88028 13.4131C3.33033 13.7798 3 14.397 3 15.058C3 17.7874 5.21263 20 7.94204 20ZM16.2832 7.23775L15.9629 7.09539C14.6302 6.5031 13.0748 7.16422 12.5764 8.53475L12.1823 9.61861C11.7392 10.8369 10.8973 11.8697 9.79324 12.5491L6.32321 14.6845C5.64716 15.1006 5.53701 16.0388 6.09831 16.6001C6.67447 17.1763 7.45591 17.5 8.27073 17.5H11.0774C11.6867 17.5 12.2915 17.3952 12.8653 17.1903L14.1064 16.747C16.9532 15.7303 18.6911 12.8503 18.2636 9.85781C18.0984 8.7018 17.3503 7.71201 16.2832 7.23775Z" stroke="black" stroke-width="2" stroke-linecap="round" stroke-linejoin="round"/>
</svg>
