<svg width="24" height="24" viewBox="0 0 24 24" fill="none" xmlns="http://www.w3.org/2000/svg">
<path opacity="0.14" d="M8.19425 21H16.8057C17.7834 21 18.6178 20.2932 18.7785 19.3288L20 12H14.9977L16.4977 13.5L13.9977 16L12.9977 15H9.99824H8.23047V12H5L6.22147 19.3288C6.3822 20.2932 7.21658 21 8.19425 21Z" fill="black"/>
<path d="M10 15H8.23223V11.4645H10M7.69373 21H16.3052C17.2829 21 18.1173 20.2932 18.278 19.3288L20.8054 4.1644C20.907 3.55487 20.437 3 19.819 3H4.17994C3.562 3 3.09195 3.55487 3.19354 4.1644L5.72094 19.3288C5.88167 20.2932 6.71605 21 7.69373 21ZM11.4995 13.5L13.9995 11L16.4995 13.5L13.9995 16L11.4995 13.5Z" stroke="black" stroke-width="2" stroke-linecap="round" stroke-linejoin="round"/>
</svg>
