<svg width="24" height="24" viewBox="0 0 24 24" fill="none" xmlns="http://www.w3.org/2000/svg">
<g opacity="0.14">
<path d="M18.0607 7.93934L20.5 5.5L18.5 3.5L16.0607 5.93934C15.3815 6.61847 14.4604 7 13.5 7C12.5396 7 11.6185 7.38153 10.9393 8.06066L10 9L15 14L15.9393 13.0607C16.6185 12.3815 17 11.4604 17 10.5C17 9.53957 17.3815 8.61847 18.0607 7.93934Z" fill="black"/>
<path d="M3 16L8 21L11 18L6 13L3 16Z" fill="black"/>
</g>
<path d="M20.5 5.5L18.0607 7.93934C17.3815 8.61847 17 9.53957 17 10.5C17 11.4604 16.6185 12.3815 15.9393 13.0607L8 21L3 16L10.9393 8.06066C11.6185 7.38153 12.5396 7 13.5 7C14.4604 7 15.3815 6.61847 16.0607 5.93934L18.5 3.5M15 14L10 9M11 18L6 13M21 6L18 3" stroke="black" stroke-width="2" stroke-linecap="round" stroke-linejoin="round"/>
</svg>
