<svg width="24" height="24" viewBox="0 0 24 24" fill="none" xmlns="http://www.w3.org/2000/svg">
<path fill-rule="evenodd" clip-rule="evenodd" d="M7.00012 2C7.55241 2 8.00012 2.44772 8.00012 3V18.5858L10.293 16.2929C10.6835 15.9024 11.3167 15.9024 11.7072 16.2929C12.0978 16.6834 12.0978 17.3166 11.7072 17.7071L7.70723 21.7071C7.3167 22.0976 6.68354 22.0976 6.29302 21.7071L2.29302 17.7071C1.90249 17.3166 1.90249 16.6834 2.29302 16.2929C2.68354 15.9024 3.3167 15.9024 3.70723 16.2929L6.00012 18.5858V3C6.00012 2.44772 6.44784 2 7.00012 2Z" fill="black"/>
<path d="M13.0001 21C13.0001 21.5523 13.4478 22 14.0001 22H21.0001C21.5524 22 22.0001 21.5523 22.0001 21C22.0001 20.4477 21.5524 20 21.0001 20H14.0001C13.4478 20 13.0001 20.4477 13.0001 21Z" fill="black"/>
<path d="M13.0001 15C13.0001 15.5523 13.4478 16 14.0001 16H19.0001C19.5524 16 20.0001 15.5523 20.0001 15C20.0001 14.4477 19.5524 14 19.0001 14H14.0001C13.4478 14 13.0001 14.4477 13.0001 15Z" fill="black"/>
<path d="M13.0001 9C13.0001 9.55229 13.4478 10 14.0001 10H17.0001C17.5524 10 18.0001 9.55229 18.0001 9C18.0001 8.44771 17.5524 8 17.0001 8H14.0001C13.4478 8 13.0001 8.44771 13.0001 9Z" fill="black"/>
<path d="M15.0001 2H14.0001C13.4478 2 13.0001 2.44772 13.0001 3C13.0001 3.55228 13.4478 4 14.0001 4H15.0001C15.5524 4 16.0001 3.55228 16.0001 3C16.0001 2.44772 15.5524 2 15.0001 2Z" fill="black"/>
</svg>
