<svg width="24" height="24" viewBox="0 0 24 24" fill="none" xmlns="http://www.w3.org/2000/svg">
<path fill-rule="evenodd" clip-rule="evenodd" d="M22.0002 5.5C22.0002 6.40709 21.6552 7.23358 21.0891 7.85537L18.7685 10.6402C18.4149 11.0645 17.7843 11.1218 17.3601 10.7682C16.9358 10.4147 16.8785 9.78409 17.232 9.35982L17.624 8.88942C16.1151 8.50046 15.0002 7.13042 15.0002 5.5C15.0002 3.567 16.5672 2 18.5002 2C20.4332 2 22.0002 3.567 22.0002 5.5ZM20.0002 5.5C20.0002 6.32843 19.3287 7 18.5002 7C17.6718 7 17.0002 6.32843 17.0002 5.5C17.0002 4.67157 17.6718 4 18.5002 4C19.3287 4 20.0002 4.67157 20.0002 5.5Z" fill="black"/>
<path d="M18.8829 13.0761C19.2566 13.2309 19.5002 13.5955 19.5002 14V20H20.5002C21.0525 20 21.5002 20.4477 21.5002 21C21.5002 21.5523 21.0525 22 20.5002 22H16.5002C15.948 22 15.5002 21.5523 15.5002 21C15.5002 20.4477 15.948 20 16.5002 20H17.5002V16.4142L17.2074 16.7071C16.8168 17.0976 16.1837 17.0976 15.7931 16.7071C15.4026 16.3166 15.4026 15.6834 15.7931 15.2929L17.7931 13.2929C18.0791 13.0069 18.5093 12.9213 18.8829 13.0761Z" fill="black"/>
<path d="M7.70735 2.29289C7.31683 1.90237 6.68366 1.90237 6.29314 2.29289L2.29314 6.29289C1.90261 6.68342 1.90261 7.31658 2.29314 7.70711C2.68366 8.09763 3.31683 8.09763 3.70735 7.70711L6.00024 5.41421V21C6.00024 21.5523 6.44796 22 7.00024 22C7.55253 22 8.00024 21.5523 8.00024 21V5.41421L10.2931 7.70711C10.6837 8.09763 11.3168 8.09763 11.7074 7.70711C12.0979 7.31658 12.0979 6.68342 11.7074 6.29289L7.70735 2.29289Z" fill="black"/>
</svg>
