<svg width="24" height="24" viewBox="0 0 24 24" fill="none" xmlns="http://www.w3.org/2000/svg">
<path d="M18.8828 2.07615C19.2565 2.23093 19.5001 2.59557 19.5001 3.00003V9.00003H20.5001C21.0524 9.00003 21.5001 9.44774 21.5001 10C21.5001 10.5523 21.0524 11 20.5001 11H16.5001C15.9478 11 15.5001 10.5523 15.5001 10C15.5001 9.44774 15.9478 9.00003 16.5001 9.00003H17.5001V5.41424L17.2072 5.70714C16.8167 6.09766 16.1835 6.09766 15.793 5.70714C15.4025 5.31661 15.4025 4.68345 15.793 4.29292L17.793 2.29292C18.079 2.00692 18.5091 1.92137 18.8828 2.07615Z" fill="black"/>
<path fill-rule="evenodd" clip-rule="evenodd" d="M22.0001 16.5C22.0001 17.4071 21.6551 18.2336 21.089 18.8554L18.7683 21.6402C18.4148 22.0645 17.7842 22.1218 17.3599 21.7682C16.9357 21.4147 16.8783 20.7841 17.2319 20.3598L17.6239 19.8894C16.1149 19.5005 15.0001 18.1304 15.0001 16.5C15.0001 14.567 16.5671 13 18.5001 13C20.4331 13 22.0001 14.567 22.0001 16.5ZM20.0001 16.5C20.0001 17.3284 19.3285 18 18.5001 18C17.6717 18 17.0001 17.3284 17.0001 16.5C17.0001 15.6716 17.6717 15 18.5001 15C19.3285 15 20.0001 15.6716 20.0001 16.5Z" fill="black"/>
<path d="M8.00012 3C8.00012 2.44772 7.55241 2 7.00012 2C6.44784 2 6.00012 2.44772 6.00012 3V18.5858L3.70723 16.2929C3.3167 15.9024 2.68354 15.9024 2.29302 16.2929C1.90249 16.6834 1.90249 17.3166 2.29302 17.7071L6.29302 21.7071C6.68354 22.0976 7.3167 22.0976 7.70723 21.7071L11.7072 17.7071C12.0978 17.3166 12.0978 16.6834 11.7072 16.2929C11.3167 15.9024 10.6835 15.9024 10.293 16.2929L8.00012 18.5858V3Z" fill="black"/>
</svg>
