<svg width="24" height="24" viewBox="0 0 24 24" fill="none" xmlns="http://www.w3.org/2000/svg">
<path d="M7.70723 3.29289C7.3167 2.90237 6.68354 2.90237 6.29302 3.29289L2.29302 7.29289C1.90249 7.68342 1.90249 8.31658 2.29302 8.70711C2.68354 9.09763 3.3167 9.09763 3.70723 8.70711L6.00012 6.41421V20C6.00012 20.5523 6.44784 21 7.00012 21C7.55241 21 8.00012 20.5523 8.00012 20V6.41421L10.293 8.70711C10.6835 9.09763 11.3167 9.09763 11.7072 8.70711C12.0978 8.31658 12.0978 7.68342 11.7072 7.29289L7.70723 3.29289Z" fill="black"/>
<path d="M14.8619 3.01695C15.0701 2.99994 15.3159 2.99997 15.5682 3H17.432C17.6844 2.99997 17.9302 2.99994 18.1384 3.01695C18.367 3.03563 18.6367 3.07969 18.9081 3.21799C19.2844 3.40974 19.5904 3.7157 19.7821 4.09202C19.9204 4.36345 19.9645 4.63318 19.9832 4.86178C20.0002 5.06993 20.0002 5.31572 20.0001 5.56811V7.4319C20.0002 7.68429 20.0002 7.93008 19.9832 8.13824C19.9645 8.36683 19.9204 8.63656 19.7821 8.90799C19.5904 9.28431 19.2844 9.59027 18.9081 9.78202C18.6367 9.92032 18.367 9.96438 18.1384 9.98306C17.9302 10.0001 17.6844 10 17.432 10H15.5682C15.3158 10 15.0701 10.0001 14.8619 9.98306C14.6333 9.96438 14.3636 9.92032 14.0921 9.78202C13.7158 9.59027 13.4099 9.28431 13.2181 8.90799C13.0798 8.63656 13.0357 8.36683 13.0171 8.13824C13.0001 7.93008 13.0001 7.68428 13.0001 7.4319V5.56809C13.0001 5.31572 13.0001 5.06993 13.0171 4.86178C13.0357 4.63318 13.0798 4.36345 13.2181 4.09202C13.4099 3.7157 13.7158 3.40974 14.0921 3.21799C14.3636 3.07969 14.6333 3.03563 14.8619 3.01695Z" fill="black"/>
<path d="M14.8619 12.0169C15.0701 11.9999 15.3158 12 15.5682 12H19.432C19.6844 12 19.9302 11.9999 20.1384 12.0169C20.367 12.0356 20.6367 12.0797 20.9081 12.218C21.2844 12.4097 21.5904 12.7157 21.7821 13.092C21.9204 13.3634 21.9645 13.6332 21.9832 13.8618C22.0002 14.0699 22.0002 14.3157 22.0001 14.5681V18.4319C22.0002 18.6843 22.0002 18.9301 21.9832 19.1382C21.9645 19.3668 21.9204 19.6366 21.7821 19.908C21.5904 20.2843 21.2844 20.5903 20.9081 20.782C20.6367 20.9203 20.367 20.9644 20.1384 20.9831C19.9303 21.0001 19.6844 21 19.4321 21H15.5681C15.3158 21 15.07 21.0001 14.8619 20.9831C14.6333 20.9644 14.3636 20.9203 14.0921 20.782C13.7158 20.5903 13.4099 20.2843 13.2181 19.908C13.0798 19.6366 13.0357 19.3668 13.0171 19.1382C13.0001 18.9301 13.0001 18.6843 13.0001 18.4319V14.5681C13.0001 14.3157 13.0001 14.0699 13.0171 13.8618C13.0357 13.6332 13.0798 13.3634 13.2181 13.092C13.4099 12.7157 13.7158 12.4097 14.0921 12.218C14.3636 12.0797 14.6333 12.0356 14.8619 12.0169Z" fill="black"/>
</svg>
