<svg width="24" height="24" viewBox="0 0 24 24" fill="none" xmlns="http://www.w3.org/2000/svg">
<path fill-rule="evenodd" clip-rule="evenodd" d="M6.29302 2.29289C6.68354 1.90237 7.3167 1.90237 7.70723 2.29289L11.7072 6.29289C12.0978 6.68342 12.0978 7.31658 11.7072 7.70711C11.3167 8.09763 10.6835 8.09763 10.293 7.70711L8.00012 5.41421V21C8.00012 21.5523 7.55241 22 7.00012 22C6.44784 22 6.00012 21.5523 6.00012 21V5.41421L3.70723 7.70711C3.3167 8.09763 2.68354 8.09763 2.29302 7.70711C1.90249 7.31658 1.90249 6.68342 2.29302 6.29289L6.29302 2.29289ZM18.5569 4H15.5001C14.9478 4 14.5001 3.55228 14.5001 3C14.5001 2.44772 14.9478 2 15.5001 2H20.5001C20.8747 2 21.2179 2.20935 21.3893 2.54242C21.5607 2.87549 21.5316 3.27642 21.3139 3.58124L17.4433 9H20.5001C21.0524 9 21.5001 9.44772 21.5001 10C21.5001 10.5523 21.0524 11 20.5001 11H15.5001C15.1255 11 14.7824 10.7907 14.611 10.4576C14.4396 10.1245 14.4687 9.72358 14.6864 9.41876L18.5569 4ZM18.0001 13C18.4002 13 18.7617 13.2384 18.9193 13.6061L21.9193 20.6061C22.1368 21.1137 21.9017 21.7016 21.394 21.9191C20.8864 22.1367 20.2985 21.9015 20.081 21.3939L19.9122 21H16.0881L15.9193 21.3939C15.7017 21.9015 15.1138 22.1367 14.6062 21.9191C14.0986 21.7016 13.8634 21.1137 14.081 20.6061L17.081 13.6061C17.2386 13.2384 17.6001 13 18.0001 13ZM16.9452 19H19.055L18.0001 16.5386L16.9452 19Z" fill="black"/>
</svg>
