<svg width="24" height="24" viewBox="0 0 24 24" fill="none" xmlns="http://www.w3.org/2000/svg">
<path d="M7.70735 2.29289C7.31683 1.90237 6.68366 1.90237 6.29314 2.29289L2.29314 6.29289C1.90261 6.68342 1.90261 7.31658 2.29314 7.70711C2.68366 8.09763 3.31683 8.09763 3.70735 7.70711L6.00024 5.41421V21C6.00024 21.5523 6.44796 22 7.00024 22C7.55253 22 8.00024 21.5523 8.00024 21V5.41421L10.2931 7.70711C10.6837 8.09763 11.3168 8.09763 11.7074 7.70711C12.0979 7.31658 12.0979 6.68342 11.7074 6.29289L7.70735 2.29289Z" fill="black"/>
<path d="M18.8829 2.07615C19.2566 2.23093 19.5002 2.59557 19.5002 3.00003V9.00003H20.5002C21.0525 9.00003 21.5002 9.44774 21.5002 10C21.5002 10.5523 21.0525 11 20.5002 11H16.5002C15.948 11 15.5002 10.5523 15.5002 10C15.5002 9.44774 15.948 9.00003 16.5002 9.00003H17.5002V5.41424L17.2074 5.70714C16.8168 6.09766 16.1837 6.09766 15.7931 5.70714C15.4026 5.31661 15.4026 4.68345 15.7931 4.29292L17.7931 2.29292C18.0791 2.00692 18.5093 1.92137 18.8829 2.07615Z" fill="black"/>
<path fill-rule="evenodd" clip-rule="evenodd" d="M22.0002 16.5C22.0002 17.4071 21.6552 18.2336 21.0891 18.8554L18.7685 21.6402C18.4149 22.0645 17.7843 22.1218 17.3601 21.7682C16.9358 21.4147 16.8785 20.7841 17.232 20.3598L17.624 19.8894C16.1151 19.5005 15.0002 18.1304 15.0002 16.5C15.0002 14.567 16.5672 13 18.5002 13C20.4332 13 22.0002 14.567 22.0002 16.5ZM20.0002 16.5C20.0002 17.3284 19.3287 18 18.5002 18C17.6718 18 17.0002 17.3284 17.0002 16.5C17.0002 15.6716 17.6718 15 18.5002 15C19.3287 15 20.0002 15.6716 20.0002 16.5Z" fill="black"/>
</svg>
