<svg width="24" height="24" viewBox="0 0 24 24" fill="none" xmlns="http://www.w3.org/2000/svg">
<path d="M8.00012 3C8.00012 2.44772 7.55241 2 7.00012 2C6.44784 2 6.00012 2.44772 6.00012 3V18.5858L3.70723 16.2929C3.3167 15.9024 2.68354 15.9024 2.29302 16.2929C1.90249 16.6834 1.90249 17.3166 2.29302 17.7071L6.29302 21.7071C6.68354 22.0976 7.3167 22.0976 7.70723 21.7071L11.7072 17.7071C12.0978 17.3166 12.0978 16.6834 11.7072 16.2929C11.3167 15.9024 10.6835 15.9024 10.293 16.2929L8.00012 18.5858V3Z" fill="black"/>
<path fill-rule="evenodd" clip-rule="evenodd" d="M22.0001 5.5C22.0001 6.40709 21.6551 7.23358 21.089 7.85537L18.7683 10.6402C18.4148 11.0645 17.7842 11.1218 17.3599 10.7682C16.9357 10.4147 16.8783 9.78409 17.2319 9.35982L17.6239 8.88942C16.1149 8.50046 15.0001 7.13042 15.0001 5.5C15.0001 3.567 16.5671 2 18.5001 2C20.4331 2 22.0001 3.567 22.0001 5.5ZM20.0001 5.5C20.0001 6.32843 19.3285 7 18.5001 7C17.6717 7 17.0001 6.32843 17.0001 5.5C17.0001 4.67157 17.6717 4 18.5001 4C19.3285 4 20.0001 4.67157 20.0001 5.5Z" fill="black"/>
<path d="M18.8828 13.0761C19.2565 13.2309 19.5001 13.5955 19.5001 14V20H20.5001C21.0524 20 21.5001 20.4477 21.5001 21C21.5001 21.5523 21.0524 22 20.5001 22H16.5001C15.9478 22 15.5001 21.5523 15.5001 21C15.5001 20.4477 15.9478 20 16.5001 20H17.5001V16.4142L17.2072 16.7071C16.8167 17.0976 16.1835 17.0976 15.793 16.7071C15.4025 16.3166 15.4025 15.6834 15.793 15.2929L17.793 13.2929C18.079 13.0069 18.5091 12.9213 18.8828 13.0761Z" fill="black"/>
</svg>
