<svg width="24" height="24" viewBox="0 0 24 24" fill="none" xmlns="http://www.w3.org/2000/svg">
<path fill-rule="evenodd" clip-rule="evenodd" d="M6.29302 2.29289C6.68354 1.90237 7.3167 1.90237 7.70723 2.29289L11.7072 6.29289C12.0978 6.68342 12.0978 7.31658 11.7072 7.70711C11.3167 8.09763 10.6835 8.09763 10.293 7.70711L8.00012 5.41421V21C8.00012 21.5523 7.55241 22 7.00012 22C6.44784 22 6.00012 21.5523 6.00012 21V5.41421L3.70723 7.70711C3.3167 8.09763 2.68354 8.09763 2.29302 7.70711C1.90249 7.31658 1.90249 6.68342 2.29302 6.29289L6.29302 2.29289ZM18.0001 2C18.4002 2 18.7617 2.2384 18.9193 2.60608L21.9193 9.60608C22.1368 10.1137 21.9017 10.7016 21.394 10.9191C20.8864 11.1367 20.2985 10.9015 20.081 10.3939L19.9122 10H16.0881L15.9193 10.3939C15.7017 10.9015 15.1138 11.1367 14.6062 10.9191C14.0986 10.7016 13.8634 10.1137 14.081 9.60608L17.081 2.60608C17.2386 2.2384 17.6001 2 18.0001 2ZM16.9452 8H19.055L18.0001 5.53859L16.9452 8ZM14.5001 14C14.5001 13.4477 14.9478 13 15.5001 13H20.5001C20.8747 13 21.2179 13.2093 21.3893 13.5424C21.5607 13.8755 21.5316 14.2764 21.3139 14.5812L17.4433 20H20.5001C21.0524 20 21.5001 20.4477 21.5001 21C21.5001 21.5523 21.0524 22 20.5001 22H15.5001C15.1255 22 14.7824 21.7907 14.611 21.4576C14.4396 21.1245 14.4687 20.7236 14.6864 20.4188L18.5569 15H15.5001C14.9478 15 14.5001 14.5523 14.5001 14Z" fill="black"/>
</svg>
