<svg width="24" height="24" viewBox="0 0 24 24" fill="none" xmlns="http://www.w3.org/2000/svg">
<path d="M7.70735 3.29289C7.31683 2.90237 6.68366 2.90237 6.29314 3.29289L2.29314 7.29289C1.90261 7.68342 1.90261 8.31658 2.29314 8.70711C2.68366 9.09763 3.31683 9.09763 3.70735 8.70711L6.00024 6.41421V20C6.00024 20.5523 6.44796 21 7.00024 21C7.55253 21 8.00024 20.5523 8.00024 20V6.41421L10.2931 8.70711C10.6837 9.09763 11.3168 9.09763 11.7074 8.70711C12.0979 8.31658 12.0979 7.68342 11.7074 7.29289L7.70735 3.29289Z" fill="black"/>
<path d="M14.862 3.01695C15.0702 2.99994 15.316 2.99997 15.5684 3H19.4322C19.6845 2.99997 19.9303 2.99994 20.1385 3.01695C20.3671 3.03563 20.6368 3.07969 20.9082 3.21799C21.2846 3.40974 21.5905 3.7157 21.7823 4.09202C21.9206 4.36345 21.9646 4.63318 21.9833 4.86178C22.0003 5.06994 22.0003 5.31574 22.0003 5.56812V9.43189C22.0003 9.68427 22.0003 9.93007 21.9833 10.1382C21.9646 10.3668 21.9206 10.6366 21.7823 10.908C21.5905 11.2843 21.2846 11.5903 20.9082 11.782C20.6368 11.9203 20.3671 11.9644 20.1385 11.9831C19.9303 12.0001 19.6845 12 19.4321 12H15.5684C15.316 12 15.0702 12.0001 14.862 11.9831C14.6334 11.9644 14.3637 11.9203 14.0923 11.782C13.7159 11.5903 13.41 11.2843 13.2182 10.908C13.0799 10.6366 13.0359 10.3668 13.0172 10.1382C13.0002 9.93008 13.0002 9.68428 13.0002 9.4319V5.56809C13.0002 5.31572 13.0002 5.06993 13.0172 4.86178C13.0359 4.63318 13.0799 4.36345 13.2182 4.09202C13.41 3.7157 13.7159 3.40974 14.0923 3.21799C14.3637 3.07969 14.6334 3.03563 14.862 3.01695Z" fill="black"/>
<path d="M15.5684 14H17.4321C17.6845 14 17.9303 13.9999 18.1385 14.0169C18.3671 14.0356 18.6368 14.0797 18.9082 14.218C19.2846 14.4097 19.5905 14.7157 19.7823 15.092C19.9206 15.3634 19.9646 15.6332 19.9833 15.8618C20.0003 16.0699 20.0003 16.3157 20.0003 16.5681V18.4319C20.0003 18.6843 20.0003 18.9301 19.9833 19.1382C19.9646 19.3668 19.9206 19.6366 19.7823 19.908C19.5905 20.2843 19.2846 20.5903 18.9082 20.782C18.6368 20.9203 18.3671 20.9644 18.1385 20.9831C17.9304 21.0001 17.6846 21 17.4323 21H15.5682C15.3159 21 15.0701 21.0001 14.862 20.9831C14.6334 20.9644 14.3637 20.9203 14.0923 20.782C13.7159 20.5903 13.41 20.2843 13.2182 19.908C13.0799 19.6366 13.0359 19.3668 13.0172 19.1382C13.0002 18.9301 13.0002 18.6843 13.0002 18.4319V16.5681C13.0002 16.3157 13.0002 16.0699 13.0172 15.8618C13.0359 15.6332 13.0799 15.3634 13.2182 15.092C13.41 14.7157 13.7159 14.4097 14.0923 14.218C14.3637 14.0797 14.6334 14.0356 14.862 14.0169C15.0702 13.9999 15.316 14 15.5684 14Z" fill="black"/>
</svg>
