<svg width="24" height="24" viewBox="0 0 24 24" fill="none" xmlns="http://www.w3.org/2000/svg">
<path d="M5.69506 15.728C5.65739 15.2494 5.85115 14.7816 6.21627 14.4698C6.54321 14.1905 6.93647 14.1462 7.12736 14.1292C7.34133 14.1103 7.60709 14.1103 7.87746 14.1104H16.0892C16.3596 14.1103 16.6253 14.1103 16.8393 14.1292C17.0302 14.1462 17.4234 14.1905 17.7504 14.4698C18.1155 14.7816 18.3093 15.2494 18.2716 15.728C18.2379 16.1567 17.9912 16.4661 17.8681 16.6131C17.7303 16.7777 17.5424 16.9656 17.3512 17.1567L13.2398 21.2682C13.1556 21.3524 13.055 21.453 12.9592 21.5344C12.8481 21.6287 12.6795 21.7542 12.4469 21.8298C12.1456 21.9277 11.8211 21.9277 11.5198 21.8298C11.2872 21.7542 11.1186 21.6287 11.0075 21.5344C10.9116 21.453 10.8111 21.3524 10.7269 21.2681L6.61558 17.1568C6.42437 16.9657 6.23641 16.7778 6.09852 16.6131C5.9755 16.4661 5.7288 16.1567 5.69506 15.728Z" fill="black"/>
</svg>
