<svg width="24" height="24" viewBox="0 0 24 24" fill="none" xmlns="http://www.w3.org/2000/svg">
<path d="M20 14.9998H19M14 14.9998H19M17 13.4998V14.9998M4.85714 7.99976H9.14286M4 10.9998L5.53848 5.61507C5.97492 4.08752 6.19315 3.32375 6.53044 3.13197C6.82159 2.96643 7.17841 2.96643 7.46956 3.13197C7.80685 3.32375 8.02508 4.08753 8.46152 5.61507L10 10.9998M14 20.9773C16.8033 20.7247 19 18.3688 19 15.4998V14.9998M20 20.9773C18.0763 20.804 16.4382 19.6402 15.5996 17.9998M14 6.99976C14.9319 6.99976 15.3978 6.99976 15.7654 7.152C16.2554 7.35499 16.6448 7.74434 16.8478 8.23439C17 8.60194 17 9.06788 17 9.99976M7 14.9998C7 15.9316 7 16.3976 7.15224 16.7651C7.35523 17.2552 7.74458 17.6445 8.23463 17.8475C8.60218 17.9998 9.06812 17.9998 10 17.9998" stroke="black" stroke-width="2" stroke-linecap="round" stroke-linejoin="round"/>
</svg>
