<svg width="24" height="24" viewBox="0 0 24 24" fill="none" xmlns="http://www.w3.org/2000/svg">
<path opacity="0.14" fill-rule="evenodd" clip-rule="evenodd" d="M12.1851 20.8649C12.3227 20.8391 12.4539 20.7735 12.7162 20.6423L19.1156 17.4424C19.4366 17.2818 19.5972 17.2016 19.7144 17.0818C19.8181 16.9759 19.897 16.8483 19.9453 16.7082C20 16.5497 20 16.3703 20 16.0113V7.98895C20 7.63 20 7.45053 19.9453 7.29208C19.9195 7.217 19.8848 7.1455 19.8422 7.07902C19.8054 7.02142 19.7626 6.96759 19.7144 6.91844C19.5972 6.79869 19.4366 6.71842 19.1156 6.55789L12.7162 3.35793C12.4539 3.22673 12.3227 3.16114 12.1851 3.13532C12.0632 3.11245 11.9382 3.11245 11.8163 3.13531C11.6787 3.16112 11.5475 3.2267 11.2851 3.35788L4.88451 6.55791C4.56343 6.71844 4.40289 6.7987 4.2856 6.91845C4.23746 6.9676 4.19467 7.02144 4.1578 7.07903C4.11523 7.14552 4.08056 7.21702 4.05466 7.29211C4 7.45057 4 7.63005 4 7.98902V16.0112C4 16.3702 4 16.5497 4.05466 16.7082C4.10299 16.8483 4.18188 16.9759 4.2856 17.0818C4.40289 17.2016 4.56343 17.2818 4.88451 17.4423L11.2851 20.6424C11.5475 20.7735 11.6787 20.8391 11.8163 20.865C11.877 20.8763 11.9385 20.8821 12 20.8821C12.062 20.8821 12.1239 20.8764 12.1851 20.8649ZM11.7305 4.2523C11.8709 4.18215 11.9419 4.147 11.9947 4.12404L11.9989 4.12222L12.0031 4.12404C12.0559 4.14701 12.1269 4.18215 12.2672 4.25232L13.7624 4.99999L7.99823 7.88208L6.23438 7.00015L11.7305 4.2523ZM10.2343 9.00011L15.9984 6.11807L17.7622 7.00008L11.9983 9.88208L10.2343 9.00011Z" fill="black"/>
<path d="M19.9453 16.7082L19 16.3821L19.9453 16.7082ZM19.1156 17.4424L19.5628 18.3368L19.1156 17.4424ZM19.7144 17.0818L19 16.3821L19.7144 17.0818ZM19.1156 6.55789L18.6683 7.4523L19.1156 6.55789ZM19.7144 6.91844L19 7.61814L19.7144 6.91844ZM19.9453 7.29208L20.8907 6.96602L19.9453 7.29208ZM11.2851 3.35788L10.838 2.46343L11.2851 3.35788ZM11.8163 3.13531L12.0007 4.11816L11.8163 3.13531ZM12.7162 3.35793L13.1635 2.46351L12.7162 3.35793ZM12.1851 3.13532L12.3695 2.15247L12.1851 3.13532ZM4.05466 7.29211L5 7.61819L4.05466 7.29211ZM4.88451 6.55791L4.43733 5.66347L4.88451 6.55791ZM4.2856 6.91845L3.5712 6.21872L4.2856 6.91845ZM4.88451 17.4423L4.43733 18.3368L4.88451 17.4423ZM4.2856 17.0818L3.5712 17.7815L4.2856 17.0818ZM4.05466 16.7082L3.10932 17.0342L4.05466 16.7082ZM11.2851 20.6424L11.7323 19.7479L11.2851 20.6424ZM11.8163 20.865L12.0007 19.8821L11.8163 20.865ZM12.7162 20.6423L12.269 19.7479L12.7162 20.6423ZM12.1851 20.8649L12.3695 21.8478L12.1851 20.8649ZM16.4472 5.89456C16.9412 5.64757 17.1414 5.04689 16.8944 4.55292C16.6474 4.05894 16.0468 3.85871 15.5528 4.1057L16.4472 5.89456ZM8.05279 14.1446C8.54676 14.3915 9.14744 14.1913 9.39443 13.6973C9.64142 13.2034 9.44119 12.6027 8.94721 12.3557L8.05279 14.1446ZM7.94721 11.8557C7.45324 11.6087 6.85256 11.8089 6.60557 12.3029C6.35858 12.7969 6.55881 13.3976 7.05279 13.6446L7.94721 11.8557ZM12 20.8821L11.9994 21.8821L12 20.8821ZM11.7323 19.7479L5.33169 16.5479L4.43733 18.3368L10.838 21.5368L11.7323 19.7479ZM5 16.0112V7.98902H3V16.0112H5ZM5.33169 7.45236L11.7323 4.25232L10.838 2.46343L4.43733 5.66347L5.33169 7.45236ZM12.269 4.25234L18.6683 7.4523L19.5628 5.66348L13.1635 2.46351L12.269 4.25234ZM19 7.98895V16.0113H21V7.98895H19ZM18.6683 16.548L12.269 19.7479L13.1635 21.5367L19.5628 18.3368L18.6683 16.548ZM19 16.0113C19 16.2029 18.9996 16.3014 18.9951 16.3727C18.9914 16.4322 18.9873 16.419 19 16.3821L20.8907 17.0342C21.013 16.6795 21 16.2978 21 16.0113H19ZM19.5628 18.3368C19.819 18.2087 20.1663 18.0496 20.4289 17.7815L19 16.3821C19.0273 16.3543 19.0409 16.352 18.9894 16.382C18.9276 16.4178 18.8397 16.4623 18.6683 16.548L19.5628 18.3368ZM19 16.3821L20.4289 17.7815C20.6363 17.5697 20.794 17.3145 20.8907 17.0342L19 16.3821ZM18.6683 7.4523C18.8397 7.53798 18.9276 7.58244 18.9894 7.6183C19.0409 7.64823 19.0273 7.646 19 7.61814L20.4289 6.21874C20.1663 5.95066 19.819 5.79159 19.5628 5.66348L18.6683 7.4523ZM21 7.98895C21 7.70249 21.013 7.32074 20.8907 6.96602L19 7.61814C18.9873 7.58127 18.9914 7.56808 18.9951 7.62757C18.9996 7.69886 19 7.79737 19 7.98895H21ZM11.7323 4.25232C11.8727 4.18216 11.9437 4.14702 11.9964 4.12406C12.0396 4.10529 12.0314 4.11239 12.0007 4.11816L11.6319 2.15245C11.3244 2.21013 11.0485 2.35818 10.838 2.46343L11.7323 4.25232ZM13.1635 2.46351C12.953 2.35825 12.677 2.21018 12.3695 2.15247L12.0007 4.11816C11.9699 4.11239 11.9617 4.10529 12.0049 4.12406C12.0576 4.14702 12.1287 4.18217 12.269 4.25234L13.1635 2.46351ZM12.0007 4.11816L12.3695 2.15247C12.1258 2.10674 11.8757 2.10673 11.6319 2.15245L12.0007 4.11816ZM5 7.98902C5 7.79743 5.00045 7.69891 5.00489 7.62762C5.0086 7.56812 5.01272 7.58132 5 7.61819L3.10932 6.96603C2.98695 7.32077 3 7.70255 3 7.98902H5ZM4.43733 5.66347C4.18109 5.79158 3.83378 5.95063 3.5712 6.21872L5 7.61819C4.97271 7.64605 4.95906 7.64827 5.01062 7.61835C5.0724 7.58249 5.16032 7.53803 5.33169 7.45236L4.43733 5.66347ZM5.33169 16.5479C5.16032 16.4622 5.0724 16.4178 5.01062 16.3819C4.95907 16.352 4.97271 16.3542 5 16.3821L3.5712 17.7815C3.83378 18.0496 4.18109 18.2087 4.43733 18.3368L5.33169 16.5479ZM3 16.0112C3 16.2977 2.98695 16.6795 3.10932 17.0342L5 16.3821C5.01272 16.4189 5.0086 16.4321 5.00489 16.3726C5.00045 16.3013 5 16.2028 5 16.0112H3ZM5 16.3821L3.10932 17.0342C3.20599 17.3145 3.36375 17.5698 3.5712 17.7815L5 16.3821ZM10.838 21.5368C11.0485 21.6421 11.3244 21.7901 11.6319 21.8478L12.0007 19.8821C12.0314 19.8879 12.0396 19.895 11.9964 19.8762C11.9437 19.8532 11.8727 19.8181 11.7323 19.7479L10.838 21.5368ZM12.269 19.7479C12.1287 19.8181 12.0576 19.8532 12.0049 19.8762C11.9617 19.895 11.9699 19.8879 12.0007 19.8821L12.3695 21.8478C12.677 21.7901 12.953 21.642 13.1635 21.5367L12.269 19.7479ZM15.5528 4.1057L7.55279 8.1057L8.44721 9.89456L16.4472 5.89456L15.5528 4.1057ZM8.94721 12.3557L7.94721 11.8557L7.05279 13.6446L8.05279 14.1446L8.94721 12.3557ZM5 7.61819L5 7.61819L3.31559 6.53987C3.23046 6.67285 3.16112 6.81585 3.10932 6.96603L5 7.61819ZM5 7.61819L5 7.61819L3.5712 6.21872C3.47491 6.31702 3.38933 6.42469 3.31559 6.53987L5 7.61819ZM12.4472 10.1057L4.60501 6.1846L3.71058 7.97346L11.5528 11.8946L12.4472 10.1057ZM19 7.61814L19 7.61814L20.6845 6.5399C20.6107 6.42471 20.5251 6.31704 20.4289 6.21874L19 7.61814ZM19 7.61814L19 7.61814L20.8907 6.96602C20.8389 6.81585 20.7696 6.67286 20.6845 6.5399L19 7.61814ZM19.395 6.18459L11.5528 10.1057L12.4472 11.8946L20.2894 7.97344L19.395 6.18459ZM11.6319 21.8478C11.7534 21.8706 11.8764 21.882 11.9994 21.8821L12.0007 19.8821H12.0007L11.6319 21.8478ZM11.9994 21.8821C12.1233 21.8822 12.2472 21.8707 12.3695 21.8478L12.0007 19.8821H12.0007L11.9994 21.8821ZM11 11.0001V20.8821H13V11.0001H11Z" fill="black"/>
</svg>
