<svg width="24" height="24" viewBox="0 0 24 24" fill="none" xmlns="http://www.w3.org/2000/svg">
<path opacity="0.14" d="M11.2851 20.6422L4.88451 17.4422C4.56345 17.2817 4.40289 17.2014 4.2856 17.0816C4.18188 16.9757 4.10299 16.8481 4.05466 16.708C4 16.5495 4 16.37 4 16.0111V7.98885C4 7.62988 4 7.4504 4.05466 7.29194C4.08056 7.21685 4.11523 7.14535 4.1578 7.07886L12 11V20.8819C11.9385 20.8819 11.877 20.8762 11.8163 20.8648C11.6787 20.839 11.5475 20.7734 11.2851 20.6422Z" fill="black"/>
<path d="M12 21.0001L11.5528 21.8946C11.8628 22.0496 12.2309 22.033 12.5258 21.8508C12.8206 21.6686 13 21.3467 13 21.0001H12ZM16.4472 5.89456C16.9412 5.64757 17.1414 5.04689 16.8944 4.55292C16.6474 4.05894 16.0468 3.85871 15.5528 4.1057L16.4472 5.89456ZM4.88451 17.4423L5.33172 16.5479L5.33169 16.5479L4.88451 17.4423ZM4.88451 6.55791L5.33169 7.45236L5.33169 7.45236L4.88451 6.55791ZM11.2851 3.35788L11.7323 4.25232L11.7323 4.25232L11.2851 3.35788ZM12.7162 3.35793L12.269 4.25234V4.25234L12.7162 3.35793ZM19.1156 6.55789L19.5628 5.66348V5.66348L19.1156 6.55789ZM19 9.00013C19 9.55241 19.4477 10.0001 20 10.0001C20.5523 10.0001 21 9.55241 21 9.00013H19ZM19.7144 6.91844L20.4289 6.21874L20.4289 6.21874L19.7144 6.91844ZM19.9453 7.29208L20.8907 6.96602V6.96602L19.9453 7.29208ZM11.8163 3.13531L12.0006 4.11816L12.0007 4.11816L11.8163 3.13531ZM12.1851 3.13532L12.0007 4.11816L12.0007 4.11816L12.1851 3.13532ZM4.05466 7.29211L5 7.61819H5L4.05466 7.29211ZM4.2856 6.91845L5 7.61819L5 7.61819L4.2856 6.91845ZM4.2856 17.0818L5 16.3821L5 16.3821L4.2856 17.0818ZM4.05466 16.7082L3.10932 17.0342L3.10932 17.0342L4.05466 16.7082ZM18.9912 13.0001L19.678 12.2733C19.2857 11.9026 18.6701 11.9101 18.287 12.2902L18.9912 13.0001ZM17.1484 14.902L17.8962 15.5659H17.8963L17.1484 14.902ZM20.8984 14.902L20.1506 15.5659L20.8984 14.902ZM8.05279 14.1446C8.54676 14.3915 9.14744 14.1913 9.39443 13.6973C9.64142 13.2034 9.44119 12.6027 8.94721 12.3557L8.05279 14.1446ZM7.94721 11.8557C7.45324 11.6087 6.85256 11.8089 6.60557 12.3029C6.35858 12.7969 6.55881 13.3976 7.05279 13.6446L7.94721 11.8557ZM19.8422 7.07902L20.6845 6.53989L19.8422 7.07902ZM11 11.0001V21.0001H13V11.0001H11ZM15.5528 4.1057L7.55279 8.1057L8.44721 9.89456L16.4472 5.89456L15.5528 4.1057ZM12.4472 20.1057L5.33172 16.5479L4.43729 18.3368L11.5528 21.8946L12.4472 20.1057ZM5 16.0112V7.98902H3V16.0112H5ZM5.33169 7.45236L11.7323 4.25232L10.838 2.46343L4.43733 5.66347L5.33169 7.45236ZM12.269 4.25234L18.6683 7.4523L19.5628 5.66348L13.1635 2.46351L12.269 4.25234ZM19 7.98895V9.00013H21V7.98895H19ZM18.6683 7.4523C18.8397 7.53798 18.9276 7.58244 18.9894 7.6183C19.0409 7.64823 19.0273 7.646 19 7.61814L20.4289 6.21874C20.1663 5.95066 19.819 5.79159 19.5628 5.66348L18.6683 7.4523ZM21 7.98895C21 7.70249 21.013 7.32075 20.8907 6.96602L19 7.61814C18.9873 7.58127 18.9914 7.56808 18.9951 7.62757C18.9996 7.69886 19 7.79737 19 7.98895H21ZM11.7323 4.25232C11.8726 4.18217 11.9437 4.14702 11.9964 4.12406C12.0396 4.10529 12.0314 4.11239 12.0006 4.11816L11.6319 2.15245C11.3244 2.21013 11.0485 2.35819 10.8379 2.46344L11.7323 4.25232ZM13.1635 2.46351C12.953 2.35825 12.677 2.21018 12.3695 2.15247L12.0007 4.11816C11.9699 4.11239 11.9617 4.10529 12.0049 4.12406C12.0576 4.14702 12.1287 4.18217 12.269 4.25234L13.1635 2.46351ZM12.0007 4.11816V4.11816L12.3695 2.15247C12.1258 2.10674 11.8757 2.10673 11.6319 2.15245L12.0007 4.11816ZM5 7.98902C5 7.79743 5.00045 7.69891 5.00489 7.62762C5.0086 7.56812 5.01272 7.58132 5 7.61819L3.10932 6.96603C2.98695 7.32077 3 7.70255 3 7.98902H5ZM4.43733 5.66347C4.1811 5.79157 3.83378 5.95063 3.5712 6.21872L5 7.61819C4.97271 7.64605 4.95906 7.64827 5.01063 7.61834C5.07241 7.58249 5.16033 7.53803 5.33169 7.45236L4.43733 5.66347ZM5.33169 16.5479C5.16032 16.4622 5.0724 16.4178 5.01062 16.3819C4.95906 16.352 4.97271 16.3542 5 16.3821L3.5712 17.7815C3.83378 18.0496 4.18109 18.2087 4.43733 18.3368L5.33169 16.5479ZM3 16.0112C3 16.2977 2.98695 16.6795 3.10932 17.0342L5 16.3821C5.01272 16.4189 5.0086 16.4321 5.00489 16.3726C5.00045 16.3013 5 16.2028 5 16.0112H3ZM5 16.3821L5 16.3821L3.10932 17.0342C3.20599 17.3145 3.36375 17.5698 3.5712 17.7815L5 16.3821ZM21 17.0176C21 18.107 20.1101 19.0001 19 19.0001V21.0001C21.2036 21.0001 23 19.2226 23 17.0176H21ZM19 19.0001C17.8899 19.0001 17 18.107 17 17.0176H15C15 19.2226 16.7964 21.0001 19 21.0001V19.0001ZM17 17.0176C17 16.9172 17.0553 16.7126 17.2489 16.4006C17.431 16.107 17.6715 15.819 17.8962 15.5659L16.4006 14.238C16.1586 14.5107 15.8248 14.9023 15.5495 15.346C15.2856 15.7714 15 16.3617 15 17.0176H17ZM17.8963 15.5659C18.1516 15.2783 18.5949 14.8201 18.9885 14.4205C19.1823 14.2236 19.3594 14.0457 19.488 13.917C19.5522 13.8527 19.6043 13.8008 19.6402 13.765C19.6582 13.7471 19.6721 13.7333 19.6815 13.724C19.6862 13.7193 19.6897 13.7158 19.6921 13.7135C19.6932 13.7123 19.6941 13.7114 19.6947 13.7109C19.695 13.7106 19.6952 13.7104 19.6953 13.7102C19.6954 13.7102 19.6954 13.7101 19.6954 13.7101C19.6954 13.7101 19.6955 13.7101 19.6955 13.7101C19.6955 13.7101 19.6955 13.7101 18.9912 13.0001C18.287 12.2902 18.287 12.2902 18.2869 12.2902C18.2869 12.2902 18.2869 12.2902 18.2869 12.2903C18.2868 12.2903 18.2867 12.2904 18.2867 12.2905C18.2865 12.2907 18.2862 12.2909 18.2859 12.2913C18.2852 12.2919 18.2842 12.2929 18.2829 12.2942C18.2803 12.2967 18.2766 12.3005 18.2716 12.3054C18.2618 12.3152 18.2474 12.3295 18.2289 12.3479C18.192 12.3847 18.1387 12.4378 18.0732 12.5034C17.9421 12.6345 17.7616 12.816 17.5634 13.0172C17.173 13.4137 16.695 13.9065 16.4006 14.238L17.8963 15.5659ZM18.9912 13.0001C18.3044 13.727 18.3044 13.727 18.3044 13.727C18.3044 13.727 18.3044 13.727 18.3044 13.727C18.3045 13.727 18.3045 13.7271 18.3046 13.7271C18.3047 13.7272 18.3049 13.7274 18.3052 13.7277C18.3058 13.7283 18.3067 13.7291 18.3079 13.7303C18.3103 13.7326 18.314 13.7361 18.3189 13.7407C18.3286 13.7499 18.3431 13.7637 18.3619 13.7815C18.3994 13.8171 18.4537 13.8688 18.5208 13.9329C18.6549 14.0612 18.8393 14.2386 19.0404 14.4347C19.4512 14.8353 19.9031 15.287 20.1506 15.5659L21.6462 14.238C21.3441 13.8977 20.8424 13.3985 20.4369 13.003C20.2299 12.8011 20.0406 12.619 19.9031 12.4875C19.8342 12.4217 19.7783 12.3684 19.7393 12.3314C19.7199 12.313 19.7047 12.2985 19.6943 12.2887C19.6891 12.2838 19.6851 12.28 19.6824 12.2774C19.681 12.2761 19.6799 12.2751 19.6792 12.2744C19.6788 12.2741 19.6785 12.2738 19.6783 12.2736C19.6782 12.2735 19.6782 12.2734 19.6781 12.2734C19.6781 12.2733 19.678 12.2733 19.678 12.2733C19.678 12.2733 19.678 12.2733 18.9912 13.0001ZM20.1506 15.5659C20.364 15.8062 20.5921 16.0912 20.7625 16.3807C20.9423 16.686 21 16.8997 21 17.0176H23C23 16.3792 22.7403 15.7979 22.486 15.366C22.2223 14.9181 21.8996 14.5234 21.6462 14.238L20.1506 15.5659ZM8.94721 12.3557L7.94721 11.8557L7.05279 13.6446L8.05279 14.1446L8.94721 12.3557ZM5 7.61819L5 7.61819L3.31559 6.53987C3.23046 6.67285 3.16112 6.81585 3.10932 6.96603L5 7.61819ZM5 7.61819L5 7.61819L3.5712 6.21871C3.47491 6.31702 3.38933 6.42469 3.31559 6.53987L5 7.61819ZM12.4472 10.1057L4.60501 6.1846L3.71058 7.97346L11.5528 11.8946L12.4472 10.1057ZM19 7.61814L19 7.61814L20.6845 6.53989C20.6107 6.42471 20.5251 6.31704 20.4289 6.21874L19 7.61814ZM19 7.61814V7.61814L20.8907 6.96602C20.8389 6.81585 20.7696 6.67286 20.6845 6.53989L19 7.61814ZM19.395 6.18459L11.5528 10.1057L12.4472 11.8946L20.2894 7.97344L19.395 6.18459Z" fill="black"/>
</svg>
