<svg width="24" height="24" viewBox="0 0 24 24" fill="none" xmlns="http://www.w3.org/2000/svg">
<path opacity="0.14" d="M11.2851 20.6422L4.88451 17.4422C4.56345 17.2817 4.40289 17.2014 4.2856 17.0816C4.18188 16.9757 4.10299 16.8481 4.05466 16.708C4 16.5495 4 16.37 4 16.0111V7.98885C4 7.62988 4 7.4504 4.05466 7.29194C4.08056 7.21685 4.11523 7.14535 4.1578 7.07886L12 11V20.8819C11.9385 20.8819 11.877 20.8762 11.8163 20.8648C11.6787 20.839 11.5475 20.7734 11.2851 20.6422Z" fill="black"/>
<path d="M18.6 14.376L18.5735 13.3764L18.5688 13.3765L18.6 14.376ZM17 15.6875L16 15.6858L17 15.6875ZM20.7593 15.4706C21.2953 15.6036 21.8376 15.2768 21.9706 14.7408C22.1035 14.2047 21.7768 13.6624 21.2407 13.5294L20.7593 15.4706ZM19 14.376L19.0067 15.376L19 14.376ZM19.1861 19.5991V20.5991C19.225 20.5991 19.2638 20.5968 19.3025 20.5923L19.1861 19.5991ZM17.124 18.5078C16.576 18.4393 16.0762 18.828 16.0077 19.376C15.9392 19.924 16.3279 20.4238 16.876 20.4923L17.124 18.5078ZM20 20.0001C20 19.4478 19.5523 19.0001 19 19.0001C18.4477 19.0001 18 19.4478 18 20.0001H20ZM18 21.0001C18 21.5524 18.4477 22.0001 19 22.0001C19.5523 22.0001 20 21.5524 20 21.0001H18ZM20 13.0001C20 12.4478 19.5523 12.0001 19 12.0001C18.4477 12.0001 18 12.4478 18 13.0001H20ZM18 14.0001C18 14.5524 18.4477 15.0001 19 15.0001C19.5523 15.0001 20 14.5524 20 14.0001H18ZM16.4472 5.89456C16.9412 5.64757 17.1414 5.04689 16.8944 4.55292C16.6474 4.05894 16.0468 3.85871 15.5528 4.1057L16.4472 5.89456ZM11.2851 20.6424L10.838 21.5368H10.838L11.2851 20.6424ZM4.88451 17.4423L5.33169 16.5479H5.33169L4.88451 17.4423ZM4.88451 6.55791L5.33169 7.45236L5.33169 7.45236L4.88451 6.55791ZM11.2851 3.35788L11.7323 4.25232L11.7323 4.25232L11.2851 3.35788ZM12.7162 3.35793L12.269 4.25234V4.25234L12.7162 3.35793ZM19.1156 6.55789L19.5628 5.66348V5.66348L19.1156 6.55789ZM19 9.00013C19 9.55241 19.4477 10.0001 20 10.0001C20.5523 10.0001 21 9.55241 21 9.00013H19ZM13.4476 21.3947C13.9416 21.1477 14.1418 20.547 13.8948 20.053C13.6478 19.559 13.0471 19.3588 12.5531 19.6058L13.4476 21.3947ZM12.7162 20.6423L13.1635 21.5367H13.1635L12.7162 20.6423ZM19.7144 6.91844L20.4289 6.21874L20.4289 6.21874L19.7144 6.91844ZM19.9453 7.29208L20.8907 6.96602V6.96602L19.9453 7.29208ZM11.8163 3.13531L12.0006 4.11816L12.0007 4.11816L11.8163 3.13531ZM12.1851 3.13532L12.0007 4.11816L12.0007 4.11816L12.1851 3.13532ZM4.05466 7.29211L5 7.61819H5L4.05466 7.29211ZM4.2856 6.91845L5 7.61819L5 7.61819L4.2856 6.91845ZM4.2856 17.0818L5 16.3821L5 16.3821L4.2856 17.0818ZM4.05466 16.7082L3.10932 17.0342L3.10932 17.0342L4.05466 16.7082ZM11.8163 20.865L11.6319 21.8478L11.8163 20.865ZM12.1851 20.8649L12.0007 19.8821L12.1851 20.8649ZM8.05279 14.1446C8.54676 14.3915 9.14744 14.1913 9.39443 13.6973C9.64142 13.2034 9.44119 12.6027 8.94721 12.3557L8.05279 14.1446ZM7.94721 11.8557C7.45324 11.6087 6.85256 11.8089 6.60557 12.3029C6.35858 12.7969 6.55881 13.3976 7.05279 13.6446L7.94721 11.8557ZM19.8422 7.07902L20.6845 6.53989L19.8422 7.07902ZM12 20.8821L11.9994 21.8821L12 20.8821ZM18.5688 13.3765C18.061 13.3923 17.4469 13.5054 16.9305 13.8612C16.3603 14.254 16.0014 14.8833 16 15.6858L18 15.6893C18.0002 15.5936 18.019 15.5566 18.0224 15.5502C18.0258 15.5438 18.0338 15.5298 18.0651 15.5082C18.1465 15.4522 18.3316 15.3849 18.6312 15.3755L18.5688 13.3765ZM16 15.6858C15.9984 16.6093 16.4958 17.2526 17.1512 17.6046C17.737 17.9192 18.4294 18 19 18V16C18.5706 16 18.2621 15.931 18.0975 15.8426C18.0623 15.8237 18.0408 15.8076 18.0288 15.797C18.0174 15.787 18.0137 15.7813 18.0131 15.7803C18.0127 15.7798 18.0106 15.7768 18.008 15.7673C18.0052 15.7572 17.9999 15.7329 18 15.6893L16 15.6858ZM19 18C19.4587 18 19.7608 18.0594 19.9175 18.14C19.9491 18.1563 19.9662 18.1693 19.9741 18.1761C19.978 18.1796 19.98 18.1818 19.9808 18.1827C19.9816 18.1836 19.9818 18.184 19.9819 18.1841C19.9819 18.1841 19.9825 18.1851 19.9836 18.1875C19.9846 18.1899 19.9866 18.195 19.9889 18.2035C19.9933 18.2202 20 18.2546 20 18.3125H22C22 17.8827 21.8986 17.4747 21.6744 17.1185C21.4517 16.7649 21.1463 16.5231 20.8325 16.3616C20.2392 16.0563 19.5413 16 19 16V18ZM21.2407 13.5294C20.5926 13.3687 19.6362 13.3718 18.9933 13.376L19.0067 15.376C19.734 15.3712 20.4074 15.3834 20.7593 15.4706L21.2407 13.5294ZM18.9933 13.376C18.9419 13.3764 18.9184 13.376 18.908 13.3758C18.8914 13.3754 18.9052 13.3756 18.8673 13.3742C18.7995 13.3717 18.7283 13.3723 18.5735 13.3764L18.6265 15.3757C18.7018 15.3737 18.7439 15.3729 18.7686 15.3727C18.7804 15.3727 18.7865 15.3727 18.7892 15.3727C18.7911 15.3728 18.7918 15.3728 18.7929 15.3728C18.7994 15.3731 18.7961 15.373 18.813 15.3737C18.8257 15.3742 18.8413 15.3748 18.8607 15.3752C18.8984 15.3761 18.9436 15.3764 19.0067 15.376L18.9933 13.376ZM20 18.3125C20 18.3413 19.9954 18.3337 20.005 18.3181C20.0107 18.3087 20.0017 18.33 19.9395 18.3689C19.7954 18.4592 19.5134 18.5539 19.0697 18.6059L19.3025 20.5923C19.8652 20.5264 20.4901 20.3841 21.0014 20.0637C21.5627 19.712 22 19.1267 22 18.3125H20ZM19.1861 18.5991C18.3702 18.5991 18.0503 18.6235 17.124 18.5078L16.876 20.4923C17.9497 20.6265 18.402 20.5991 19.1861 20.5991V18.5991ZM18 20.0001V21.0001H20V20.0001H18ZM18 13.0001V14.0001H20V13.0001H18ZM15.5528 4.1057L7.55279 8.1057L8.44721 9.89456L16.4472 5.89456L15.5528 4.1057ZM11.7323 19.7479L5.33169 16.5479L4.43733 18.3368L10.838 21.5368L11.7323 19.7479ZM5 16.0112V7.98902H3V16.0112H5ZM5.33169 7.45236L11.7323 4.25232L10.838 2.46343L4.43733 5.66347L5.33169 7.45236ZM12.269 4.25234L18.6683 7.4523L19.5628 5.66348L13.1635 2.46351L12.269 4.25234ZM19 7.98895V9.00013H21V7.98895H19ZM12.5531 19.6058L12.269 19.7479L13.1635 21.5367L13.4476 21.3947L12.5531 19.6058ZM18.6683 7.4523C18.8397 7.53798 18.9276 7.58244 18.9894 7.6183C19.0409 7.64823 19.0273 7.646 19 7.61814L20.4289 6.21874C20.1663 5.95066 19.819 5.79159 19.5628 5.66348L18.6683 7.4523ZM21 7.98895C21 7.70249 21.013 7.32075 20.8907 6.96602L19 7.61814C18.9873 7.58127 18.9914 7.56808 18.9951 7.62757C18.9996 7.69886 19 7.79737 19 7.98895H21ZM11.7323 4.25232C11.8726 4.18217 11.9437 4.14702 11.9964 4.12406C12.0396 4.10529 12.0314 4.11239 12.0006 4.11816L11.6319 2.15245C11.3244 2.21013 11.0485 2.35819 10.8379 2.46344L11.7323 4.25232ZM13.1635 2.46351C12.953 2.35825 12.677 2.21018 12.3695 2.15247L12.0007 4.11816C11.9699 4.11239 11.9617 4.10529 12.0049 4.12406C12.0576 4.14702 12.1287 4.18217 12.269 4.25234L13.1635 2.46351ZM12.0007 4.11816V4.11816L12.3695 2.15247C12.1258 2.10674 11.8757 2.10673 11.6319 2.15245L12.0007 4.11816ZM5 7.98902C5 7.79743 5.00045 7.69891 5.00489 7.62762C5.0086 7.56812 5.01272 7.58132 5 7.61819L3.10932 6.96603C2.98695 7.32077 3 7.70255 3 7.98902H5ZM4.43733 5.66347C4.1811 5.79157 3.83378 5.95063 3.5712 6.21872L5 7.61819C4.97271 7.64605 4.95906 7.64827 5.01063 7.61834C5.07241 7.58249 5.16033 7.53803 5.33169 7.45236L4.43733 5.66347ZM5.33169 16.5479C5.16032 16.4622 5.0724 16.4178 5.01062 16.3819C4.95906 16.352 4.97271 16.3542 5 16.3821L3.5712 17.7815C3.83378 18.0496 4.18109 18.2087 4.43733 18.3368L5.33169 16.5479ZM3 16.0112C3 16.2977 2.98695 16.6795 3.10932 17.0342L5 16.3821C5.01272 16.4189 5.0086 16.4321 5.00489 16.3726C5.00045 16.3013 5 16.2028 5 16.0112H3ZM5 16.3821L5 16.3821L3.10932 17.0342C3.20599 17.3145 3.36375 17.5698 3.5712 17.7815L5 16.3821ZM10.838 21.5368C11.0485 21.6421 11.3244 21.7901 11.6319 21.8478L12.0007 19.8821C12.0314 19.8879 12.0396 19.895 11.9964 19.8762C11.9437 19.8532 11.8727 19.8181 11.7323 19.7479L10.838 21.5368ZM12.269 19.7479C12.1287 19.8181 12.0576 19.8532 12.0049 19.8762C11.9617 19.895 11.9699 19.8879 12.0007 19.8821L12.3695 21.8478C12.677 21.7901 12.9529 21.642 13.1635 21.5367L12.269 19.7479ZM8.94721 12.3557L7.94721 11.8557L7.05279 13.6446L8.05279 14.1446L8.94721 12.3557ZM19 7.61814L19 7.61814L20.6845 6.53989C20.6107 6.42471 20.5251 6.31704 20.4289 6.21874L19 7.61814ZM19 7.61814V7.61814L20.8907 6.96602C20.8389 6.81585 20.7696 6.67286 20.6845 6.53989L19 7.61814ZM19.395 6.18459L11.5528 10.1057L12.4472 11.8946L20.2894 7.97344L19.395 6.18459ZM11.6319 21.8478C11.7534 21.8706 11.8764 21.882 11.9994 21.8821L12.0007 19.8821H12.0007L11.6319 21.8478ZM11.9994 21.8821C12.1233 21.8822 12.2472 21.8707 12.3695 21.8478L12.0007 19.8821H12.0007L11.9994 21.8821ZM11 11.0001V20.8821H13V11.0001H11ZM5 7.61819L5 7.61819L3.31559 6.53987C3.23046 6.67285 3.16112 6.81585 3.10932 6.96603L5 7.61819ZM5 7.61819L5 7.61819L3.5712 6.21871C3.47491 6.31702 3.38933 6.42469 3.31559 6.53987L5 7.61819ZM12.4472 10.1057L4.60501 6.1846L3.71058 7.97346L11.5528 11.8946L12.4472 10.1057Z" fill="black"/>
</svg>
