<svg width="24" height="24" viewBox="0 0 24 24" fill="none" xmlns="http://www.w3.org/2000/svg">
<path opacity="0.14" d="M11.2851 20.6422L4.88451 17.4422C4.56345 17.2817 4.40289 17.2014 4.2856 17.0816C4.18188 16.9757 4.10299 16.8481 4.05466 16.708C4 16.5495 4 16.37 4 16.0111V7.98885C4 7.62988 4 7.4504 4.05466 7.29194C4.08056 7.21685 4.11523 7.14535 4.1578 7.07886L12 11V20.8819C11.9385 20.8819 11.877 20.8762 11.8163 20.8648C11.6787 20.839 11.5475 20.7734 11.2851 20.6422Z" fill="black"/>
<path d="M16.7071 13.293C16.3166 12.9025 15.6834 12.9025 15.2929 13.293C14.9024 13.6835 14.9024 14.3167 15.2929 14.7072L16.7071 13.293ZM20.2929 19.7072C20.6834 20.0978 21.3166 20.0978 21.7071 19.7072C22.0976 19.3167 22.0976 18.6835 21.7071 18.293L20.2929 19.7072ZM21.7071 14.7072C22.0976 14.3167 22.0976 13.6835 21.7071 13.293C21.3166 12.9025 20.6834 12.9025 20.2929 13.293L21.7071 14.7072ZM15.2929 18.293C14.9024 18.6835 14.9024 19.3167 15.2929 19.7072C15.6834 20.0978 16.3166 20.0978 16.7071 19.7072L15.2929 18.293ZM12 21.0001L11.5528 21.8946C11.8628 22.0496 12.2309 22.033 12.5258 21.8508C12.8206 21.6686 13 21.3467 13 21.0001H12ZM16.4472 5.89456C16.9412 5.64757 17.1414 5.04689 16.8944 4.55292C16.6474 4.05894 16.0468 3.85871 15.5528 4.1057L16.4472 5.89456ZM4.88451 17.4423L5.33172 16.5479L5.33169 16.5479L4.88451 17.4423ZM4.88451 6.55791L5.33169 7.45236L5.33169 7.45236L4.88451 6.55791ZM11.2851 3.35788L11.7323 4.25232L11.7323 4.25232L11.2851 3.35788ZM12.7162 3.35793L12.269 4.25234V4.25234L12.7162 3.35793ZM19.1156 6.55789L19.5628 5.66348V5.66348L19.1156 6.55789ZM19 10.0001C19 10.5524 19.4477 11.0001 20 11.0001C20.5523 11.0001 21 10.5524 21 10.0001H19ZM19.7144 6.91844L20.4289 6.21874L20.4289 6.21874L19.7144 6.91844ZM19.9453 7.29208L20.8907 6.96602V6.96602L19.9453 7.29208ZM11.8163 3.13531L12.0006 4.11816L12.0007 4.11816L11.8163 3.13531ZM12.1851 3.13532L12.0007 4.11816L12.0007 4.11816L12.1851 3.13532ZM4.05466 7.29211L5 7.61819H5L4.05466 7.29211ZM4.2856 6.91845L5 7.61819L5 7.61819L4.2856 6.91845ZM4.2856 17.0818L5 16.3821L5 16.3821L4.2856 17.0818ZM4.05466 16.7082L3.10932 17.0342L3.10932 17.0342L4.05466 16.7082ZM8.05279 14.1446C8.54676 14.3915 9.14744 14.1913 9.39443 13.6973C9.64142 13.2034 9.44119 12.6027 8.94721 12.3557L8.05279 14.1446ZM7.94721 11.8557C7.45324 11.6087 6.85256 11.8089 6.60557 12.3029C6.35858 12.7969 6.55881 13.3976 7.05279 13.6446L7.94721 11.8557ZM19.8422 7.07902L20.6845 6.53989L19.8422 7.07902ZM15.2929 14.7072L20.2929 19.7072L21.7071 18.293L16.7071 13.293L15.2929 14.7072ZM20.2929 13.293L15.2929 18.293L16.7071 19.7072L21.7071 14.7072L20.2929 13.293ZM11 11.0001V21.0001H13V11.0001H11ZM15.5528 4.1057L7.55279 8.1057L8.44721 9.89456L16.4472 5.89456L15.5528 4.1057ZM12.4472 20.1057L5.33172 16.5479L4.43729 18.3368L11.5528 21.8946L12.4472 20.1057ZM5 16.0112V7.98902H3V16.0112H5ZM5.33169 7.45236L11.7323 4.25232L10.838 2.46343L4.43733 5.66347L5.33169 7.45236ZM12.269 4.25234L18.6683 7.4523L19.5628 5.66348L13.1635 2.46351L12.269 4.25234ZM19 7.98895V10.0001H21V7.98895H19ZM18.6683 7.4523C18.8397 7.53798 18.9276 7.58244 18.9894 7.6183C19.0409 7.64823 19.0273 7.646 19 7.61814L20.4289 6.21874C20.1663 5.95066 19.819 5.79159 19.5628 5.66348L18.6683 7.4523ZM21 7.98895C21 7.70249 21.013 7.32075 20.8907 6.96602L19 7.61814C18.9873 7.58127 18.9914 7.56808 18.9951 7.62757C18.9996 7.69886 19 7.79737 19 7.98895H21ZM11.7323 4.25232C11.8726 4.18217 11.9437 4.14702 11.9964 4.12406C12.0396 4.10529 12.0314 4.11239 12.0006 4.11816L11.6319 2.15245C11.3244 2.21013 11.0485 2.35819 10.8379 2.46344L11.7323 4.25232ZM13.1635 2.46351C12.953 2.35825 12.677 2.21018 12.3695 2.15247L12.0007 4.11816C11.9699 4.11239 11.9617 4.10529 12.0049 4.12406C12.0576 4.14702 12.1287 4.18217 12.269 4.25234L13.1635 2.46351ZM12.0007 4.11816V4.11816L12.3695 2.15247C12.1258 2.10674 11.8757 2.10673 11.6319 2.15245L12.0007 4.11816ZM5 7.98902C5 7.79743 5.00045 7.69891 5.00489 7.62762C5.0086 7.56812 5.01272 7.58132 5 7.61819L3.10932 6.96603C2.98695 7.32077 3 7.70255 3 7.98902H5ZM4.43733 5.66347C4.1811 5.79157 3.83378 5.95063 3.5712 6.21872L5 7.61819C4.97271 7.64605 4.95906 7.64827 5.01063 7.61834C5.07241 7.58249 5.16033 7.53803 5.33169 7.45236L4.43733 5.66347ZM5.33169 16.5479C5.16032 16.4622 5.0724 16.4178 5.01062 16.3819C4.95906 16.352 4.97271 16.3542 5 16.3821L3.5712 17.7815C3.83378 18.0496 4.18109 18.2087 4.43733 18.3368L5.33169 16.5479ZM3 16.0112C3 16.2977 2.98695 16.6795 3.10932 17.0342L5 16.3821C5.01272 16.4189 5.0086 16.4321 5.00489 16.3726C5.00045 16.3013 5 16.2028 5 16.0112H3ZM5 16.3821L5 16.3821L3.10932 17.0342C3.20599 17.3145 3.36375 17.5698 3.5712 17.7815L5 16.3821ZM8.94721 12.3557L7.94721 11.8557L7.05279 13.6446L8.05279 14.1446L8.94721 12.3557ZM5 7.61819L5 7.61819L3.31559 6.53987C3.23046 6.67285 3.16112 6.81585 3.10932 6.96603L5 7.61819ZM5 7.61819L5 7.61819L3.5712 6.21871C3.47491 6.31702 3.38933 6.42469 3.31559 6.53987L5 7.61819ZM12.4472 10.1057L4.60501 6.1846L3.71058 7.97346L11.5528 11.8946L12.4472 10.1057ZM19 7.61814L19 7.61814L20.6845 6.53989C20.6107 6.42471 20.5251 6.31704 20.4289 6.21874L19 7.61814ZM19 7.61814V7.61814L20.8907 6.96602C20.8389 6.81585 20.7696 6.67286 20.6845 6.53989L19 7.61814ZM19.395 6.18459L11.5528 10.1057L12.4472 11.8946L20.2894 7.97344L19.395 6.18459Z" fill="black"/>
</svg>
