<svg width="24" height="24" viewBox="0 0 24 24" fill="none" xmlns="http://www.w3.org/2000/svg">
<path d="M16.7351 4.40031C18.937 5.9902 20.9985 8.95331 20.9985 11.7897C20.9985 16.5989 16.9093 20.4974 11.8651 20.4974C8.70498 20.4974 5.3524 17.6532 3.71259 15.3277M16.7351 4.40031C18.5101 6.51569 17.0338 10.6767 13.4377 13.6942C9.84154 16.7118 5.4876 17.4431 3.71259 15.3277M16.7351 4.40031C14.9601 2.28494 10.6059 3.01628 7.0098 6.03379C3.41367 9.05131 1.93758 13.2123 3.71259 15.3277M12.9984 20.4309L11.9984 18.9974M18.1465 18.1109L16.4984 16.4974M20.8891 13.1401L19.4984 11.9974M13.6497 6.42223C14.4308 7.20328 13.481 9.41936 11.5284 11.372C9.57578 13.3246 7.35971 14.2743 6.57866 13.4933C5.79761 12.7123 6.74736 10.4962 8.69998 8.54355C10.6526 6.59093 12.8687 5.64119 13.6497 6.42223Z" stroke="black" stroke-width="2" stroke-linecap="round" stroke-linejoin="round"/>
</svg>
