<svg width="24" height="24" viewBox="0 0 24 24" fill="none" xmlns="http://www.w3.org/2000/svg">
<path d="M19.433 13.5327L18.5582 13.0482C18.5455 13.0713 18.5336 13.0948 18.5227 13.1189L19.433 13.5327ZM19.1516 14.1518L20.062 14.5656V14.5656L19.1516 14.1518ZM14.3953 18.9081L14.8091 19.8185H14.8091L14.3953 18.9081ZM7.41711 6.65109L6.54296 6.16544H6.54296L7.41711 6.65109ZM9.84941 4.63246L9.53319 3.68377L9.84941 4.63246ZM13.3527 19.46L13.891 20.3027H13.891L13.3527 19.46ZM14.2336 18.9816L13.8198 18.0712L13.8198 18.0712L14.2336 18.9816ZM5.93719 8.95249L5.19025 8.2876V8.2876L5.93719 8.95249ZM6.86417 7.64639L7.73833 8.13203L6.86417 7.64639ZM10.8173 4.17079L10.2791 3.32801V3.32801L10.8173 4.17079ZM4.67827 18.679L5.42881 18.0182L4.67827 18.679ZM4.70091 10.3413L5.44785 11.0062V11.0062L4.70091 10.3413ZM12.7839 19.8233L12.2456 18.9805H12.2456L12.7839 19.8233ZM18.5783 4.60315L17.9233 5.35876L18.5783 4.60315ZM19.9943 12.5193L19.1195 12.0348L19.9943 12.5193ZM11.0222 4.03998L11.5604 4.88276V4.88276L11.0222 4.03998ZM17.7281 8.99494C17.3376 8.60441 16.7044 8.60441 16.3139 8.99494C15.9234 9.38546 15.9234 10.0186 16.3139 10.4091L17.7281 8.99494ZM16.3203 10.4155C16.7108 10.806 17.344 10.806 17.7345 10.4155C18.125 10.025 18.125 9.39182 17.7345 9.0013L16.3203 10.4155ZM12.0713 8.99494C11.6808 8.60441 11.0476 8.60441 10.6571 8.99494C10.2665 9.38546 10.2665 10.0186 10.6571 10.4091L12.0713 8.99494ZM10.6634 10.4155C11.054 10.806 11.6871 10.806 12.0776 10.4155C12.4682 10.025 12.4682 9.39182 12.0776 9.0013L10.6634 10.4155ZM8.53578 13.9447C8.14527 13.5542 7.5121 13.5541 7.12156 13.9447C6.73102 14.3352 6.731 14.9683 7.12151 15.3589L8.53578 13.9447ZM7.12787 15.3652C7.51838 15.7558 8.15155 15.7558 8.54209 15.3653C8.93263 14.9748 8.93265 14.3416 8.54214 13.9511L7.12787 15.3652ZM12.7784 12.5305C12.3879 12.14 11.7548 12.1399 11.3642 12.5304C10.9737 12.9209 10.9736 13.5541 11.3641 13.9446L12.7784 12.5305ZM11.3705 13.951C11.761 14.3415 12.3941 14.3416 12.7847 13.9511C13.1753 13.5606 13.1753 12.9274 12.7848 12.5369L11.3705 13.951ZM11.3556 5.01357L11.5604 4.88276L10.4839 3.19719L10.2791 3.32801L11.3556 5.01357ZM5.44785 11.0062L6.68413 9.61738L5.19025 8.2876L3.95397 9.67644L5.44785 11.0062ZM19.1195 12.0348L18.5582 13.0482L20.3078 14.0172L20.8691 13.0037L19.1195 12.0348ZM12.8145 18.6172L12.2456 18.9805L13.3222 20.6661L13.891 20.3027L12.8145 18.6172ZM7.73833 8.13203L8.29127 7.13673L6.54296 6.16544L5.99001 7.16075L7.73833 8.13203ZM18.5227 13.1189L18.2413 13.738L20.062 14.5656L20.3434 13.9465L18.5227 13.1189ZM13.9815 17.9977L13.8198 18.0712L14.6474 19.892L14.8091 19.8185L13.9815 17.9977ZM18.2413 13.738C17.383 15.6262 15.8697 17.1395 13.9815 17.9977L14.8091 19.8185C17.1375 18.7601 19.0036 16.894 20.062 14.5656L18.2413 13.738ZM8.29127 7.13673C8.69946 6.40198 9.36825 5.84694 10.1656 5.58114L9.53319 3.68377C8.26109 4.1078 7.19416 4.99328 6.54296 6.16544L8.29127 7.13673ZM13.891 20.3027C14.1331 20.1481 14.3859 20.0108 14.6474 19.892L13.8198 18.0712C13.4722 18.2292 13.1363 18.4117 12.8145 18.6172L13.891 20.3027ZM6.68413 9.61738C7.08904 9.16251 7.44258 8.66438 7.73833 8.13203L5.99001 7.16075C5.76564 7.56461 5.49744 7.94251 5.19025 8.2876L6.68413 9.61738ZM10.2791 3.32801C10.046 3.47684 9.79551 3.59633 9.53319 3.68377L10.1656 5.58114C10.5841 5.44164 10.9838 5.25101 11.3556 5.01357L10.2791 3.32801ZM5.42881 18.0182C3.66233 16.0119 3.6705 13.0029 5.44785 11.0062L3.95397 9.67644C1.50455 12.4281 1.49329 16.5749 3.92773 19.3398L5.42881 18.0182ZM3.92773 19.3398C6.3036 22.0383 10.2921 22.6013 13.3222 20.6661L12.2456 18.9805C10.047 20.3848 7.15279 19.9762 5.42881 18.0182L3.92773 19.3398ZM17.9233 5.35876C19.8446 7.02426 20.3476 9.81722 19.1195 12.0348L20.8691 13.0037C22.5588 9.9527 21.8629 6.12701 19.2333 3.84754L17.9233 5.35876ZM19.2333 3.84754C16.7866 1.72652 13.2188 1.45055 10.4839 3.19719L11.5604 4.88276C13.543 3.61653 16.1405 3.81328 17.9233 5.35876L19.2333 3.84754ZM16.3139 10.4091L16.3203 10.4155L17.7345 9.0013L17.7281 8.99494L16.3139 10.4091ZM10.6571 10.4091L10.6634 10.4155L12.0776 9.0013L12.0713 8.99494L10.6571 10.4091ZM7.12151 15.3589L7.12787 15.3652L8.54214 13.9511L8.53578 13.9447L7.12151 15.3589ZM11.3641 13.9446L11.3705 13.951L12.7848 12.5369L12.7784 12.5305L11.3641 13.9446Z" fill="black"/>
</svg>
