<svg width="24" height="24" viewBox="0 0 24 24" fill="none" xmlns="http://www.w3.org/2000/svg">
<path d="M11.9964 11.3582L12 20.9999M11.9964 11.3582L12.0001 11.6352L11.7584 11.7704C10.0193 12.7439 7.89602 12.7298 6.16997 11.7332C4.44392 10.7367 3.37006 8.90498 3.34353 6.91209L3.33984 6.63515L3.58152 6.49988C5.32068 5.52641 7.44392 5.54054 9.16997 6.53708C10.896 7.53361 11.9699 9.36533 11.9964 11.3582ZM19.7041 3.48076L19.4426 3.38951C17.5608 2.73283 15.4723 3.11545 13.9455 4.39657C12.4187 5.67769 11.6793 7.66805 11.9992 9.63528L12.0437 9.90865L12.3052 9.9999C14.1869 10.6566 16.2755 10.274 17.8023 8.99284C19.329 7.71172 20.0685 5.72136 19.7486 3.75413L19.7041 3.48076Z" stroke="black" stroke-width="2" stroke-linecap="round" stroke-linejoin="round"/>
</svg>
