<svg width="24" height="24" viewBox="0 0 24 24" fill="none" xmlns="http://www.w3.org/2000/svg">
<path d="M10.9383 13.0606L11.6454 13.7677C12.303 14.4253 12.6318 14.7541 12.9739 14.9516C13.9021 15.4875 15.0457 15.4875 15.9739 14.9516C16.1635 14.8421 16.349 14.6923 16.5887 14.4685C16.9924 14.0916 16.9857 13.4512 16.5952 13.0606V13.0606C15.9376 12.403 15.6088 12.0742 15.2668 11.8768C14.3386 11.3409 13.195 11.3409 12.2668 11.8768C11.9247 12.0742 11.5959 12.403 10.9383 13.0606ZM10.9383 13.0606L10.2312 12.3535C9.57364 11.6959 9.24484 11.3671 9.04736 11.0251C8.51146 10.0969 8.51146 8.9533 9.04736 8.02509C9.15683 7.83549 9.30665 7.64995 9.53046 7.41023C9.90735 7.00653 10.5478 7.01325 10.9383 7.40377V7.40377C11.5959 8.06136 11.9247 8.39016 12.1222 8.7322C12.6581 9.6604 12.6581 10.804 12.1222 11.7322C11.9247 12.0742 11.5959 12.403 10.9383 13.0606ZM13.7668 10.2322L14.4739 10.9393C15.1315 11.5969 15.4602 11.9257 15.8023 12.1232C16.7305 12.6591 17.8741 12.6591 18.8023 12.1232C18.9919 12.0137 19.1774 11.8639 19.4172 11.6401C19.8209 11.2632 19.8141 10.6227 19.4236 10.2322V10.2322C18.766 9.57461 18.4372 9.24582 18.0952 9.04834C17.167 8.51244 16.0234 8.51244 15.0952 9.04834C14.7531 9.24582 14.4243 9.57461 13.7668 10.2322ZM13.7668 10.2322L13.0597 9.52509C12.4021 8.8675 12.0733 8.53871 11.8758 8.19667C11.3399 7.26846 11.3399 6.12487 11.8758 5.19667C11.9853 5.00706 12.1351 4.82153 12.3589 4.5818C12.7358 4.1781 13.3762 4.18482 13.7668 4.57535V4.57535C14.4243 5.23294 14.7531 5.56173 14.9506 5.90377C15.4865 6.83198 15.4865 7.97557 14.9506 8.90377C14.7531 9.24582 14.4243 9.57461 13.7668 10.2322ZM8.1099 15.8891L8.81701 16.5962C9.4746 17.2538 9.80339 17.5825 10.1454 17.78C11.0736 18.3159 12.2172 18.3159 13.1454 17.78C13.335 17.6706 13.5206 17.5207 13.7603 17.2969C14.164 16.92 14.1573 16.2796 13.7668 15.8891V15.8891C13.1092 15.2315 12.7804 14.9027 12.4383 14.7052C11.5101 14.1693 10.3665 14.1693 9.43833 14.7052C9.09629 14.9027 8.76749 15.2315 8.1099 15.8891ZM8.1099 15.8891L7.4028 15.1819C6.74521 14.5244 6.41641 14.1956 6.21893 13.8535C5.68304 12.9253 5.68304 11.7817 6.21893 10.8535C6.3284 10.6639 6.47822 10.4784 6.70203 10.2387C7.07893 9.83496 7.71938 9.84168 8.1099 10.2322V10.2322C8.76749 10.8898 9.09629 11.2186 9.29377 11.5606C9.82966 12.4888 9.82966 13.6324 9.29377 14.5606C9.09629 14.9027 8.76749 15.2315 8.1099 15.8891ZM15.181 8.81799L17.7359 8.307C18.3753 8.17912 18.9625 7.86484 19.4236 7.40377C19.8847 6.9427 20.199 6.35547 20.3268 5.71609L20.8378 3.16113L18.2829 3.67212C17.6435 3.8 17.0563 4.11428 16.5952 4.57535C16.1341 5.03642 15.8198 5.62365 15.692 6.26303L15.181 8.81799ZM15.181 8.81799L3.16016 20.8388" stroke="black" stroke-width="2" stroke-linecap="round" stroke-linejoin="round"/>
</svg>
