<svg width="24" height="24" viewBox="0 0 24 24" fill="none" xmlns="http://www.w3.org/2000/svg">
<path opacity="0.3" fill-rule="evenodd" clip-rule="evenodd" d="M12 2C7.02944 2 3 6.02944 3 11C3 15.7028 6.05282 19.441 10.8527 21.5992C11.5819 21.9271 12.4181 21.9271 13.1473 21.5992C17.9472 19.441 21 15.7028 21 11C21 6.02944 16.9706 2 12 2ZM13.2881 10.7513C13.4144 9.89978 14.0714 9.22458 14.9192 9.07509L16.6714 8.76613C16.988 8.71031 17.3121 8.81007 17.5424 9.03424C17.7728 9.25841 17.8814 9.57966 17.8342 9.89762L17.708 10.7487C17.5817 11.6002 16.9247 12.2755 16.077 12.4249L14.3247 12.7339C14.0082 12.7897 13.6841 12.69 13.4537 12.4658C13.2233 12.2416 13.1148 11.9204 13.1619 11.6024L13.2881 10.7513ZM7.91919 12.4249C7.07141 12.2754 6.4144 11.6002 6.28812 10.7487L6.16191 9.89759C6.11476 9.57963 6.22334 9.25838 6.45371 9.03421C6.68409 8.81004 7.00819 8.71028 7.32475 8.7661L9.07696 9.07506C9.92474 9.22455 10.5817 9.89976 10.708 10.7513L10.8342 11.6024C10.8814 11.9203 10.7728 12.2416 10.5424 12.4658C10.3121 12.6899 9.98796 12.7897 9.6714 12.7339L7.91919 12.4249Z" fill="black"/>
<path d="M7.91654 12.425C7.06876 12.2755 6.41175 11.6003 6.28547 10.7487L6.15927 9.89768C6.11211 9.57971 6.22069 9.25846 6.45107 9.03429C6.68144 8.81012 7.00554 8.71036 7.3221 8.76618L9.07431 9.07514C9.92209 9.22463 10.5791 9.89984 10.7054 10.7514L10.8316 11.6025C10.8787 11.9204 10.7702 12.2417 10.5398 12.4658C10.3094 12.69 9.98531 12.7898 9.66875 12.734L7.91654 12.425Z" fill="black"/>
<path d="M14.9165 9.07517C14.0688 9.22466 13.4117 9.89987 13.2855 10.7514L13.1593 11.6025C13.1121 11.9205 13.2207 12.2417 13.4511 12.4659C13.6814 12.69 14.0055 12.7898 14.3221 12.734L16.0743 12.425C16.9221 12.2755 17.5791 11.6003 17.7054 10.7488L17.8316 9.89771C17.8787 9.57974 17.7702 9.25849 17.5398 9.03432C17.3094 8.81015 16.9853 8.71039 16.6688 8.76621L14.9165 9.07517Z" fill="black"/>
</svg>
