<svg width="24" height="24" viewBox="0 0 24 24" fill="none" xmlns="http://www.w3.org/2000/svg">
<path opacity="0.3" fill-rule="evenodd" clip-rule="evenodd" d="M21.761 2.29601C21.4726 2.00516 21.0361 1.91952 20.6593 2.07986L15 4.48778V3.00002C15 2.64868 14.8156 2.32311 14.5143 2.14242C14.213 1.96172 13.8384 1.9527 13.5285 2.11817L13.5234 2.12088L13.5089 2.12867L13.454 2.15826C13.4062 2.18409 13.3365 2.22197 13.2471 2.27095C13.0684 2.3689 12.8111 2.51132 12.4942 2.69059C11.8609 3.04887 10.9875 3.55554 10.0265 4.14935C8.12874 5.32209 5.8036 6.88665 4.34705 8.3432C1.22286 11.4674 1.22286 16.5327 4.34705 19.6569C7.47125 22.7811 12.5366 22.7811 15.6608 19.6569C17.1157 18.2019 18.6915 15.8775 19.8758 13.979C20.4753 13.0179 20.9878 12.1443 21.3504 11.5108C21.5318 11.1938 21.6761 10.9365 21.7753 10.7578C21.8249 10.6684 21.8632 10.5986 21.8894 10.5509L21.9194 10.496L21.9303 10.4759C22.098 10.166 22.0902 9.79077 21.9098 9.4881C21.7295 9.18543 21.4031 9.00001 21.0508 9.00001L19.5267 9.00002L21.9675 3.39956C22.1311 3.02412 22.0493 2.58687 21.761 2.29601ZM14 3.00002L13.5285 2.11817C13.5285 2.11817 13.529 2.11787 14 3.00002Z" fill="black"/>
<path d="M11.9507 8.69098C11.8168 8.27896 11.4328 8 10.9996 8C10.5664 8 10.1824 8.27896 10.0486 8.69098L9.37501 10.7639H7.19538C6.76215 10.7639 6.3782 11.0429 6.24432 11.4549C6.11045 11.8669 6.25711 12.3183 6.6076 12.5729L8.37095 13.8541L7.69741 15.9271C7.56354 16.3391 7.71019 16.7904 8.06068 17.0451C8.41117 17.2997 8.88576 17.2997 9.23625 17.0451L10.9996 15.7639L12.763 17.0451C13.1135 17.2997 13.588 17.2997 13.9385 17.0451C14.289 16.7904 14.4357 16.3391 14.3018 15.9271L13.6283 13.8541L15.3916 12.5729C15.7421 12.3183 15.8888 11.8669 15.7549 11.4549C15.621 11.0429 15.2371 10.7639 14.8038 10.7639H12.6242L11.9507 8.69098Z" fill="black"/>
</svg>
