<svg width="24" height="24" viewBox="0 0 24 24" fill="none" xmlns="http://www.w3.org/2000/svg">
<path opacity="0.3" d="M14 3C10.134 3 7 6.13401 7 10C7 10.2043 7.00877 10.4066 7.02598 10.6066C6.89901 10.5614 6.76961 10.5125 6.63925 10.46C5.87764 10.1531 5.17037 9.75616 4.70711 9.29289C4.42111 9.0069 3.99099 8.92134 3.61732 9.07612C3.24364 9.2309 3 9.59554 3 10C3 13.866 6.13401 17 10 17C10.2043 17 10.4066 16.9912 10.6066 16.974C10.5614 17.101 10.5125 17.2304 10.46 17.3607C10.1531 18.1224 9.75616 18.8296 9.29289 19.2929C9.0069 19.5789 8.92134 20.009 9.07612 20.3827C9.2309 20.7564 9.59554 21 10 21C13.866 21 17 17.866 17 14C17 13.7957 16.9912 13.5934 16.974 13.3934C17.101 13.4386 17.2304 13.4875 17.3608 13.54C18.1224 13.8469 18.8296 14.2438 19.2929 14.7071C19.5789 14.9931 20.009 15.0787 20.3827 14.9239C20.7564 14.7691 21 14.4045 21 14C21 10.134 17.866 7 14 7C13.7957 7 13.5934 7.00877 13.3934 7.02598C13.4386 6.89901 13.4875 6.76961 13.54 6.63925C13.8469 5.87764 14.2438 5.17037 14.7071 4.70711C14.9931 4.42111 15.0787 3.99099 14.9239 3.61732C14.7691 3.24364 14.4045 3 14 3Z" fill="black"/>
<path fill-rule="evenodd" clip-rule="evenodd" d="M10 12C10 10.8954 10.8954 10 12 10C13.1046 10 14 10.8954 14 12C14 13.1046 13.1046 14 12 14C10.8954 14 10 13.1046 10 12Z" fill="black"/>
</svg>
