<svg width="24" height="24" viewBox="0 0 24 24" fill="none" xmlns="http://www.w3.org/2000/svg">
<path opacity="0.3" d="M9.15081 2.24076C8.88411 2.01216 8.51702 1.94025 8.18379 2.05133C7.85055 2.16241 7.60003 2.44019 7.52383 2.78308L6.66188 6.66188L2.78308 7.52383C2.44019 7.60003 2.16241 7.85055 2.05133 8.18379C1.94025 8.51702 2.01216 8.88411 2.24076 9.15081L4.68294 12L2.24076 14.8492C2.01216 15.1159 1.94025 15.483 2.05133 15.8162C2.16241 16.1495 2.44019 16.4 2.78308 16.4762L6.66187 17.3382L7.52383 21.2169C7.60003 21.5598 7.85055 21.8376 8.18379 21.9487C8.51702 22.0598 8.88411 21.9879 9.15081 21.7593L12 19.3171L14.8492 21.7593C15.1159 21.9879 15.483 22.0598 15.8162 21.9487C16.1495 21.8376 16.4 21.5598 16.4762 21.2169L17.3382 17.3382L21.2169 16.4762C21.5598 16.4 21.8376 16.1495 21.9487 15.8162C22.0598 15.483 21.9879 15.1159 21.7593 14.8492L19.3171 12L21.7593 9.15081C21.9879 8.88411 22.0598 8.51702 21.9487 8.18379C21.8376 7.85055 21.5598 7.60003 21.2169 7.52383L17.3382 6.66187L16.4762 2.78308C16.4 2.44019 16.1495 2.16241 15.8162 2.05133C15.483 1.94025 15.1159 2.01216 14.8492 2.24076L12 4.68294L9.15081 2.24076Z" fill="black"/>
<path fill-rule="evenodd" clip-rule="evenodd" d="M14.3859 8.44212C12.978 7.84172 11.2863 8.1111 10.1337 9.26374C8.62211 10.7753 8.62211 13.226 10.1337 14.7375C11.2864 15.8903 12.9836 16.1625 14.3931 15.56C14.7613 15.4026 15.0001 15.0406 15 14.6401C14.9999 14.2396 14.7608 13.8779 14.3924 13.7207C14.1775 13.629 13.9767 13.4967 13.8032 13.3233C13.0727 12.5928 13.0727 11.4084 13.8032 10.6779C13.9779 10.5032 14.1766 10.3716 14.3877 10.2811C14.7557 10.1233 14.9941 9.76133 14.9937 9.361C14.9933 8.96067 14.7542 8.59915 14.3859 8.44212Z" fill="black"/>
</svg>
