<svg width="24" height="24" viewBox="0 0 24 24" fill="none" xmlns="http://www.w3.org/2000/svg">
<path opacity="0.3" d="M9 6C4.58172 6 1 9.58172 1 14C1 18.4183 4.58172 22 9 22C13.4183 22 17 18.4183 17 14C17 9.58172 13.4183 6 9 6Z" fill="black"/>
<path d="M9.8576 7.0014C9.8576 6.73274 9.7495 6.47538 9.55765 6.28731C9.3658 6.09923 9.10635 5.99626 8.83774 6.0016C4.87929 6.08024 1.62782 9.03231 1.0804 12.858C1.03933 13.145 1.12485 13.4357 1.31479 13.6548C1.50473 13.8738 1.78039 13.9996 2.07032 13.9996H4.02427L5.3576 14.9996V15.4406C5.3576 16.1486 5.75017 16.7969 6.37468 17.1257C6.50834 18.1825 7.41049 18.9996 8.5035 18.9996H8.59367C9.44063 18.9996 10.2149 18.5211 10.5937 17.7636L11.6465 15.658C11.7853 15.3803 11.8576 15.0741 11.8576 14.7636V13.9996C11.8576 12.8951 10.9622 11.9996 9.8576 11.9996H8.97564L8.95286 11.9541L9.71456 10.0498C9.80905 9.8136 9.8576 9.5615 9.8576 9.30706V7.0014Z" fill="black"/>
<path d="M20 2C18.3431 2 17 3.34315 17 5C17 6.65685 18.3431 8 20 8C21.6569 8 23 6.65685 23 5C23 3.34315 21.6569 2 20 2Z" fill="black"/>
</svg>
