<svg width="24" height="24" viewBox="0 0 24 24" fill="none" xmlns="http://www.w3.org/2000/svg">
<g opacity="0.3">
<path fill-rule="evenodd" clip-rule="evenodd" d="M12 4C7.58172 4 4 7.58172 4 12C4 16.4183 7.58172 20 12 20C16.4183 20 20 16.4183 20 12C20 11.4477 20.4477 11 21 11C21.5523 11 22 11.4477 22 12C22 17.5228 17.5228 22 12 22C6.47715 22 2 17.5228 2 12C2 6.47715 6.47715 2 12 2C14.7611 2 17.2625 3.12038 19.0711 4.92893C19.4616 5.31946 19.4616 5.95262 19.0711 6.34315C18.6805 6.73367 18.0474 6.73367 17.6569 6.34315C16.208 4.89434 14.2094 4 12 4Z" fill="black"/>
<path fill-rule="evenodd" clip-rule="evenodd" d="M11.9991 8C10.5198 8 9.2267 8.80251 8.53357 10.0007C8.25703 10.4788 7.6453 10.6421 7.16724 10.3656C6.68918 10.0891 6.52582 9.47733 6.80236 8.99927C7.83828 7.20848 9.77695 6 11.9991 6C13.6556 6 15.157 6.67267 16.2417 7.75736C16.6322 8.14788 16.6322 8.78105 16.2417 9.17157C15.8512 9.5621 15.218 9.5621 14.8275 9.17157C14.1025 8.44662 13.1039 8 11.9991 8ZM16.9991 11C17.5513 11 17.9991 11.4477 17.9991 12C17.9991 14.2226 16.7901 16.1616 14.9987 17.1973C14.5205 17.4738 13.9088 17.3103 13.6324 16.8322C13.356 16.354 13.5195 15.7424 13.9976 15.4659C15.1962 14.7729 15.9991 13.4796 15.9991 12C15.9991 11.4477 16.4468 11 16.9991 11ZM7.16724 13.6344C7.6453 13.3579 8.25703 13.5212 8.53357 13.9993C8.88521 14.6071 9.39259 15.1144 10.0005 15.4659C10.4787 15.7424 10.6422 16.354 10.3657 16.8322C10.0893 17.3103 9.47758 17.4738 8.99946 17.1973C8.08844 16.6706 7.32929 15.9116 6.80236 15.0007C6.52582 14.5227 6.68918 13.9109 7.16724 13.6344Z" fill="black"/>
</g>
<path fill-rule="evenodd" clip-rule="evenodd" d="M21.7071 2.29289C22.0976 2.68342 22.0976 3.31658 21.7071 3.70711L12.7071 12.7071C12.3166 13.0976 11.6834 13.0976 11.2929 12.7071C10.9024 12.3166 10.9024 11.6834 11.2929 11.2929L20.2929 2.29289C20.6834 1.90237 21.3166 1.90237 21.7071 2.29289Z" fill="black"/>
<path fill-rule="evenodd" clip-rule="evenodd" d="M11 17C11 16.4477 11.4477 16 12 16H12.009C12.5613 16 13.009 16.4477 13.009 17C13.009 17.5523 12.5613 18 12.009 18H12C11.4477 18 11 17.5523 11 17Z" fill="black"/>
<path fill-rule="evenodd" clip-rule="evenodd" d="M6 12C6 11.4477 6.44772 11 7 11H7.009C7.56128 11 8.009 11.4477 8.009 12C8.009 12.5523 7.56128 13 7.009 13H7C6.44772 13 6 12.5523 6 12Z" fill="black"/>
</svg>
