<svg width="24" height="24" viewBox="0 0 24 24" fill="none" xmlns="http://www.w3.org/2000/svg">
<path opacity="0.3" d="M12 4C7.58172 4 4 7.58172 4 12C4 16.4183 7.58172 20 12 20C16.4183 20 20 16.4183 20 12C20 7.58172 16.4183 4 12 4Z" fill="black"/>
<path d="M21.4363 2.56363C20.9722 2.09952 20.3605 1.98318 19.8297 2.00188C19.2985 2.02059 18.7247 2.17477 18.1498 2.39887C17.1106 2.80389 15.8891 3.50887 14.5867 4.42735C15.3178 4.67702 16.0012 5.02959 16.6197 5.46778C17.4829 4.91293 18.2472 4.50742 18.8761 4.26233C19.3435 4.08015 19.6817 4.00833 19.9001 4.00064C19.9407 3.9992 19.973 4 19.9981 4.00179C20.0055 4.08495 20.0021 4.25392 19.9241 4.55724C19.7778 5.12649 19.428 5.90623 18.8581 6.85609C17.7264 8.74221 15.8453 11.105 13.4751 13.4751C11.105 15.8453 8.74221 17.7264 6.85609 18.8581C5.90623 19.428 5.12649 19.7778 4.55724 19.9241C4.25392 20.0021 4.08495 20.0055 4.0018 19.9981C4.00001 19.973 3.9992 19.9407 4.00064 19.9001C4.00833 19.6817 4.08015 19.3435 4.26233 18.8761C4.50743 18.2472 4.91295 17.4828 5.46783 16.6196C5.02964 16.0011 4.67707 15.3177 4.42741 14.5866C3.50889 15.889 2.8039 17.1106 2.39887 18.1498C2.17477 18.7247 2.02059 19.2985 2.00188 19.8297C1.98318 20.3605 2.09952 20.9722 2.56363 21.4363C3.26928 22.1419 4.29404 22.0568 5.0551 21.8612C5.89147 21.6462 6.86034 21.1879 7.88508 20.5731C9.94815 19.3352 12.4385 17.3403 14.8894 14.8894C17.3403 12.4385 19.3352 9.94815 20.5731 7.88508C21.1879 6.86034 21.6462 5.89147 21.8612 5.0551C22.0568 4.29404 22.1419 3.26928 21.4363 2.56363Z" fill="black"/>
</svg>
