<svg width="24" height="24" viewBox="0 0 24 24" fill="none" xmlns="http://www.w3.org/2000/svg">
<path opacity="0.3" d="M16.7074 2.29289C16.5198 2.10536 16.2655 2 16.0003 2C15.7351 2 15.4807 2.10536 15.2932 2.29289L7.57262 10.0134C5.67884 9.89509 3.74195 10.5596 2.29289 12.0086C1.90237 12.3991 1.90237 13.0323 2.29289 13.4228L5.72794 16.8579L4.51806 18.0677C4.35283 18.0236 4.17917 18 4 18C2.89543 18 2 18.8954 2 20C2 21.1046 2.89543 22 4 22C5.10457 22 6 21.1046 6 20C6 19.8208 5.97644 19.6472 5.93226 19.482L7.14215 18.2721L10.5772 21.7071C10.9677 22.0976 11.6009 22.0976 11.9914 21.7071C13.4403 20.2582 14.1048 18.3215 13.9866 16.4279L21.7074 8.70711C21.8949 8.51957 22.0003 8.26522 22.0003 8C22.0003 7.73478 21.8949 7.48043 21.7074 7.29289L16.7074 2.29289Z" fill="black"/>
<path d="M5.72794 16.8579L4.51806 18.0677C4.35283 18.0236 4.17917 18 4 18C2.89543 18 2 18.8954 2 20C2 21.1046 2.89543 22 4 22C5.10457 22 6 21.1046 6 20C6 19.8208 5.97644 19.6472 5.93226 19.482L7.14215 18.2721L5.72794 16.8579Z" fill="black"/>
<path d="M10.0091 2.00004C10.2775 2.00249 10.5336 2.11272 10.7199 2.30593L12.9583 4.62771L7.57262 10.0134C6.9429 9.97408 6.30842 10.0213 5.68869 10.1551L4.28009 8.69407C3.90171 8.3016 3.90741 7.67838 4.29289 7.29289L9.29289 2.29289C9.48267 2.10312 9.74076 1.99759 10.0091 2.00004Z" fill="black"/>
<path d="M13.8448 18.3115L15.3057 19.7199C15.6981 20.0983 16.3213 20.0926 16.7068 19.7071L21.7068 14.7071C21.8966 14.5173 22.0021 14.2592 21.9997 13.9908C21.9972 13.7225 21.887 13.4663 21.6938 13.2801L19.3724 11.042L13.9866 16.4279C14.0259 17.0575 13.9786 17.6919 13.8448 18.3115Z" fill="black"/>
</svg>
