<svg width="24" height="24" viewBox="0 0 24 24" fill="none" xmlns="http://www.w3.org/2000/svg">
<g opacity="0.3">
<path d="M5.74551 7.0099C6.09053 6.57864 6.02061 5.94935 5.58936 5.60433C5.1581 5.25932 4.52881 5.32923 4.18379 5.76049C1.04207 9.68754 1.29007 15.4316 4.9289 19.0704C7.74428 21.8858 11.8194 22.6701 15.3353 21.429C15.8561 21.2451 16.1292 20.6739 15.9454 20.1531C15.7615 19.6323 15.1903 19.3592 14.6695 19.543C11.8524 20.5374 8.59351 19.9066 6.34311 17.6562C3.4329 14.746 3.23333 10.15 5.74551 7.0099Z" fill="black"/>
<path d="M8.67008 2.56783C8.14919 2.75136 7.8757 3.32242 8.05924 3.84331C8.24278 4.36421 8.81383 4.63769 9.33473 4.45416C12.1509 3.4619 15.4076 4.09325 17.6568 6.34249C20.5672 9.25292 20.7666 13.8493 18.2539 16.9895C17.9088 17.4207 17.9786 18.05 18.4099 18.3951C18.8411 18.7401 19.4704 18.6703 19.8154 18.2391C22.9579 14.312 22.7101 8.56738 19.071 4.92828C16.2571 2.11435 12.1847 1.32944 8.67008 2.56783Z" fill="black"/>
<path fill-rule="evenodd" clip-rule="evenodd" d="M16.5948 7.4035C14.0563 4.8651 9.94077 4.8651 7.40236 7.40351C4.86395 9.94191 4.86396 14.0575 7.40236 16.5959C9.94077 19.1343 14.0563 19.1343 16.5947 16.5959C19.1332 14.0575 19.1332 9.94191 16.5948 7.4035ZM8.81657 8.81772C10.5739 7.06036 13.4232 7.06036 15.1805 8.81772C16.9379 10.5751 16.9379 13.4243 15.1805 15.1817C13.4232 16.939 10.5739 16.939 8.81658 15.1817C7.05922 13.4243 7.05922 10.5751 8.81657 8.81772Z" fill="black"/>
</g>
<path d="M3.62891 5.64014C3.62891 4.53557 4.52434 3.64014 5.62891 3.64014C6.73348 3.64014 7.62891 4.53557 7.62891 5.64014C7.62891 6.74471 6.73348 7.64014 5.62891 7.64014C5.11721 7.64014 4.64832 7.44667 4.29512 7.13046C3.88767 6.76568 3.62891 6.23247 3.62891 5.64014Z" fill="black"/>
<path d="M16.3711 18.3635C16.3711 17.2589 17.2665 16.3635 18.3711 16.3635C18.8787 16.3635 19.3443 16.5539 19.6965 16.8657C20.1088 17.2307 20.3711 17.7671 20.3711 18.3635C20.3711 19.4681 19.4757 20.3635 18.3711 20.3635C17.2665 20.3635 16.3711 19.4681 16.3711 18.3635Z" fill="black"/>
<path d="M17.8903 8.11114C17.8903 7.00657 16.9949 6.11113 15.8903 6.11113C14.7858 6.11113 13.8903 7.00657 13.8903 8.11114C13.8903 8.70346 14.1491 9.23668 14.5565 9.60146C14.9097 9.91766 15.3786 10.1111 15.8903 10.1111C16.9949 10.1111 17.8903 9.21571 17.8903 8.11114Z" fill="black"/>
<path d="M8.99971 12.0001C8.99971 10.3433 10.3429 9.00011 11.9997 9.00011C13.6566 9.00011 14.9997 10.3433 14.9997 12.0001C14.9997 13.657 13.6566 15.0001 11.9997 15.0001C10.3429 15.0001 8.99971 13.657 8.99971 12.0001Z" fill="black"/>
</svg>
