<svg width="24" height="24" viewBox="0 0 24 24" fill="none" xmlns="http://www.w3.org/2000/svg">
<path opacity="0.3" d="M9.54708 7.5498C9.92773 7.5498 10.2754 7.7659 10.4438 8.10724L12.1607 11.586L15.9997 12.1438C16.3763 12.1985 16.6893 12.4624 16.8069 12.8244C16.9245 13.1864 16.8264 13.5838 16.5539 13.8495L13.776 16.5573L14.4317 20.3808C14.4961 20.7559 14.3419 21.1351 14.0339 21.3588C13.726 21.5826 13.3177 21.6121 12.9808 21.4349L9.54708 19.6297L6.11339 21.4349C5.77647 21.6121 5.36821 21.5826 5.06026 21.3588C4.75232 21.1351 4.59809 20.7559 4.66244 20.3808L5.31822 16.5573L2.5403 13.8495C2.26773 13.5838 2.16963 13.1864 2.28725 12.8244C2.40488 12.4624 2.71783 12.1985 3.09451 12.1438L6.9335 11.586L8.65035 8.10724C8.81881 7.7659 9.16644 7.5498 9.54708 7.5498Z" fill="black"/>
<path d="M15.7071 3.70711C16.0976 3.31658 16.0976 2.68342 15.7071 2.29289C15.3166 1.90237 14.6834 1.90237 14.2929 2.29289L11.2929 5.29289C10.9024 5.68342 10.9024 6.31658 11.2929 6.70711C11.6834 7.09763 12.3166 7.09763 12.7071 6.70711L15.7071 3.70711Z" fill="black"/>
<path d="M21.7071 2.29289C22.0976 2.68342 22.0976 3.31658 21.7071 3.70711L15.7071 9.70711C15.3166 10.0976 14.6834 10.0976 14.2929 9.70711C13.9024 9.31658 13.9024 8.68342 14.2929 8.29289L20.2929 2.29289C20.6834 1.90237 21.3166 1.90237 21.7071 2.29289Z" fill="black"/>
<path d="M21.7071 8.70711C22.0976 8.31658 22.0976 7.68342 21.7071 7.29289C21.3166 6.90237 20.6834 6.90237 20.2929 7.29289L17.2929 10.2929C16.9024 10.6834 16.9024 11.3166 17.2929 11.7071C17.6834 12.0976 18.3166 12.0976 18.7071 11.7071L21.7071 8.70711Z" fill="black"/>
</svg>
