<svg width="24" height="24" viewBox="0 0 24 24" fill="none" xmlns="http://www.w3.org/2000/svg">
<path opacity="0.3" d="M15.2135 6.37634C15.481 6.48099 15.6906 6.69565 15.7889 6.9656L17.841 12.6038C17.9393 12.8737 17.9167 13.1729 17.779 13.425C17.6413 13.6772 17.4019 13.8579 17.1217 13.9212L15.9949 14.1757C15.9983 14.1176 16 14.059 16 14C16 12.3431 14.6569 11 13 11C11.3431 11 10 12.3431 10 14C10 14.5243 10.1345 15.0172 10.3709 15.4461L6.7811 16.2569C6.29019 16.3678 5.79336 16.0966 5.62114 15.6237L4.48631 12.5075C4.31405 12.0345 4.52028 11.5072 4.96774 11.2765L14.391 6.41877C14.6463 6.28714 14.946 6.27168 15.2135 6.37634Z" fill="black"/>
<path d="M19.2024 4.65825C19.0136 4.13927 18.4397 3.87169 17.9207 4.06058L14.162 5.42866C13.643 5.61755 13.3754 6.1914 13.5643 6.71037L16.3005 14.2279C16.3912 14.4771 16.5772 14.6801 16.8175 14.7922C17.0579 14.9043 17.3329 14.9163 17.5822 14.8256L21.3409 13.4575C21.5902 13.3668 21.7931 13.1808 21.9052 12.9404C22.0173 12.7001 22.0293 12.425 21.9386 12.1758L19.2024 4.65825Z" fill="black"/>
<path fill-rule="evenodd" clip-rule="evenodd" d="M2.65808 13.0606C3.17702 12.8716 3.75091 13.1391 3.9399 13.6581L4.48617 15.1581C4.67516 15.677 4.40768 16.2509 3.88874 16.4399C3.36979 16.6289 2.7959 16.3614 2.60691 15.8425L2.06064 14.3425C1.87165 13.8235 2.13913 13.2496 2.65808 13.0606Z" fill="black"/>
<path fill-rule="evenodd" clip-rule="evenodd" d="M13 13.0002C12.4477 13.0002 12 13.448 12 14.0002C12 14.3045 12.1348 14.5765 12.3514 14.7614C12.3606 14.7688 12.3697 14.7763 12.3787 14.7839C12.5496 14.9198 12.7641 15.0002 13 15.0002C13.2424 15.0002 13.4623 14.9152 13.6355 14.7724C13.8598 14.5874 14 14.3106 14 14.0002C14 13.448 13.5523 13.0002 13 13.0002ZM12.1757 16.8853C12.4378 16.9601 12.7144 17.0002 13 17.0002C13.2862 17.0002 13.5634 16.96 13.8261 16.8848L15.1074 19.4475C15.3544 19.9415 15.9551 20.1417 16.4491 19.8947C16.943 19.6477 17.1433 19.0471 16.8963 18.5531L15.4707 15.702C15.804 15.2188 16 14.6322 16 14.0002C16 12.3434 14.6569 11.0002 13 11.0002C11.3431 11.0002 10 12.3434 10 14.0002C10 14.633 10.1964 15.2202 10.5305 15.7038L9.10579 18.5531C8.8588 19.0471 9.05903 19.6477 9.55301 19.8947C10.047 20.1417 10.6477 19.9415 10.8946 19.4475L12.1757 16.8853Z" fill="black"/>
</svg>
