<svg width="24" height="24" viewBox="0 0 24 24" fill="none" xmlns="http://www.w3.org/2000/svg">
<path fill-rule="evenodd" clip-rule="evenodd" d="M13.2164 2.02378C13.7556 2.14357 14.0955 2.67774 13.9757 3.21688L13.7893 4.05572C14.433 4.13323 15.0525 4.28996 15.6383 4.5158L16.0233 2.78306C16.1431 2.24393 16.6773 1.90398 17.2164 2.02378C17.7556 2.14357 18.0955 2.67774 17.9757 3.21688L17.4642 5.51895C17.9379 5.86855 18.3714 6.27037 18.7565 6.71574C19.1177 7.13352 19.0718 7.76502 18.654 8.12624C18.2363 8.48745 17.6048 8.4416 17.2435 8.02382C17.1564 7.92305 17.0661 7.82535 16.9727 7.73087L14.7631 17.6753C15.7271 17.3358 16.5787 16.7451 17.2435 15.9761C17.6048 15.5583 18.2363 15.5125 18.654 15.8737C19.0718 16.2349 19.1177 16.8664 18.7565 17.2842C17.6161 18.6031 16.051 19.5401 14.2755 19.8699L13.9762 21.2169C13.8564 21.756 13.3222 22.096 12.7831 21.9762C12.244 21.8564 11.904 21.3222 12.0238 20.7831L12.2038 19.9728C11.5565 19.9187 10.932 19.7849 10.3396 19.5812L9.97619 21.2169C9.8564 21.756 9.32223 22.096 8.78309 21.9762C8.24396 21.8564 7.90401 21.3222 8.02381 20.7831L8.49633 18.6564C6.38434 17.2185 5 14.767 5 12C5 7.98595 7.91323 4.63602 11.735 4.08074L12.0233 2.78306C12.1431 2.24393 12.6773 1.90398 13.2164 2.02378ZM11.2581 6.22684C8.81046 6.93785 7 9.24052 7 12C7 13.7957 7.76671 15.398 8.97679 16.4941L11.2581 6.22684ZM10.7776 17.6101C11.3615 17.8375 11.9893 17.9719 12.6431 17.996L15.1979 6.49805C14.6243 6.24162 14.0033 6.0769 13.3526 6.02112L10.7776 17.6101Z" fill="black"/>
</svg>
