<svg width="24" height="24" viewBox="0 0 24 24" fill="none" xmlns="http://www.w3.org/2000/svg">
<path fill-rule="evenodd" clip-rule="evenodd" d="M20.4569 2.92168C20.6458 3.44066 20.3782 4.0145 19.8592 4.20339L15.1608 5.91349C15.1072 5.93297 15.0531 5.9476 14.9989 5.95759C14.9991 5.97168 14.9992 5.9858 14.9992 5.99994C14.9992 7.30616 14.1644 8.4174 12.9992 8.82923V19.9999H19.9992C20.5515 19.9999 20.9992 20.4477 20.9992 20.9999C20.9992 21.5522 20.5515 21.9999 19.9992 21.9999H11.9992C11.4469 21.9999 10.9992 21.5522 10.9992 20.9999V8.82923C10.4802 8.64578 10.0267 8.32354 9.68336 7.90711L4.82416 9.67571C4.30518 9.86461 3.73134 9.59702 3.54244 9.07804C3.35355 8.55906 3.62114 7.98522 4.14012 7.79633L8.99935 6.02771C8.99927 6.01846 8.99923 6.00921 8.99923 5.99994C8.99923 4.34308 10.3424 2.99994 11.9992 2.99994C12.9371 2.99994 13.7744 3.43029 14.3245 4.10429C14.3724 4.07713 14.4233 4.05357 14.4767 4.03411L19.1752 2.32401C19.6942 2.13511 20.268 2.4027 20.4569 2.92168ZM17.9992 7.99994C18.3605 7.99994 18.6937 8.1948 18.8708 8.50968L21.6653 13.4777C21.6697 13.4855 21.6742 13.4934 21.6788 13.5015C21.7425 13.6144 21.8246 13.7599 21.8868 13.9507C21.9352 14.0993 21.9744 14.3108 21.9825 14.4668C21.9927 14.6644 21.975 14.7858 21.9587 14.8964C21.6606 16.9284 19.8594 17.9999 17.9992 17.9999C16.0451 17.9999 14.4289 16.522 14.0733 14.9721C14.0447 14.8473 14.0281 14.7443 14.0274 14.5535C14.0269 14.4428 14.0415 14.3268 14.0512 14.2598C14.0609 14.1928 14.0797 14.0774 14.1114 13.9714C14.1756 13.757 14.2578 13.6114 14.323 13.4957C14.3264 13.4897 14.3298 13.4836 14.3331 13.4777L17.1276 8.50968C17.3048 8.1948 17.638 7.99994 17.9992 7.99994ZM5.99923 11.9999C6.3605 11.9999 6.69368 12.1948 6.8708 12.5097L9.66532 17.4777C9.6697 17.4855 9.67418 17.4934 9.67876 17.5015C9.74251 17.6144 9.82462 17.7599 9.8868 17.9507C9.9352 18.0993 9.97443 18.3108 9.98251 18.4668C9.99274 18.6645 9.97497 18.7858 9.95874 18.8964C9.66059 20.9284 7.85945 21.9999 5.99923 21.9999C4.04507 21.9999 2.42886 20.522 2.07331 18.9721C2.04469 18.8473 2.02814 18.7443 2.02735 18.5535C2.0269 18.4428 2.04149 18.3268 2.05117 18.2598C2.06085 18.1928 2.07967 18.0774 2.11144 17.9714C2.17565 17.757 2.25777 17.6114 2.32297 17.4957C2.3264 17.4897 2.32979 17.4836 2.33313 17.4777L5.12765 12.5097C5.30477 12.1948 5.63795 11.9999 5.99923 11.9999Z" fill="black"/>
</svg>
