<svg width="24" height="24" viewBox="0 0 24 24" fill="none" xmlns="http://www.w3.org/2000/svg">
<path fill-rule="evenodd" clip-rule="evenodd" d="M3.53936 2.92168C3.72825 2.4027 4.30209 2.13511 4.82107 2.32401L9.51953 4.03411C9.57376 4.05384 9.62524 4.07778 9.67374 4.10542C10.2238 3.43077 11.0616 2.99994 12 2.99994C13.6568 2.99994 15 4.34308 15 5.99994C15 6.00956 14.9999 6.01917 14.9998 6.02877L19.8562 7.79633C20.3751 7.98522 20.6427 8.55906 20.4538 9.07804C20.2649 9.59702 19.6911 9.86461 19.1721 9.67571L14.3152 7.90793C13.9719 8.32396 13.5187 8.6459 13 8.82923V20.9999C13 21.5522 12.5523 21.9999 12 21.9999H3.99997C3.44769 21.9999 2.99997 21.5522 2.99997 20.9999C2.99997 20.4477 3.44769 19.9999 3.99997 19.9999H11V8.82923C9.83478 8.4174 8.99997 7.30616 8.99997 5.99994C8.99997 5.98598 9.00007 5.97204 9.00026 5.95813C8.94507 5.94812 8.88998 5.93332 8.83549 5.91349L4.13703 4.20339C3.61805 4.0145 3.35047 3.44066 3.53936 2.92168ZM5.99997 7.99994C6.36125 7.99994 6.69443 8.1948 6.87155 8.50968L9.66607 13.4777C9.6694 13.4836 9.67279 13.4897 9.67623 13.4957C9.74142 13.6114 9.82355 13.757 9.88776 13.9714C9.91952 14.0774 9.93834 14.1928 9.94802 14.2598C9.95771 14.3268 9.9723 14.4428 9.97184 14.5535C9.97105 14.7443 9.95451 14.8473 9.92589 14.9721C9.57034 16.522 7.95413 17.9999 5.99997 17.9999C4.13975 17.9999 2.3386 16.9284 2.04046 14.8964C2.02422 14.7858 2.00646 14.6644 2.01669 14.4668C2.02477 14.3108 2.064 14.0993 2.1124 13.9507C2.17458 13.7599 2.25669 13.6144 2.32044 13.5015C2.32502 13.4934 2.3295 13.4855 2.33388 13.4777L5.1284 8.50968C5.30552 8.1948 5.6387 7.99994 5.99997 7.99994ZM18 11.9999C18.3612 11.9999 18.6944 12.1948 18.8715 12.5097L21.6661 17.4777C21.6694 17.4836 21.6728 17.4896 21.6762 17.4957C21.7414 17.6114 21.8235 17.757 21.8878 17.9714C21.9195 18.0774 21.9383 18.1928 21.948 18.2598C21.9577 18.3268 21.9723 18.4428 21.9718 18.5535C21.9711 18.7444 21.9545 18.8474 21.9259 18.9721C21.5703 20.522 19.9541 21.9999 18 21.9999C16.1398 21.9999 14.3386 20.9284 14.0405 18.8964C14.0242 18.7858 14.0065 18.6645 14.0167 18.4668C14.0248 18.3108 14.064 18.0993 14.1124 17.9507C14.1746 17.7599 14.2567 17.6144 14.3204 17.5015C14.325 17.4934 14.3295 17.4855 14.3339 17.4777L17.1284 12.5097C17.3055 12.1948 17.6387 11.9999 18 11.9999Z" fill="black"/>
</svg>
