<svg width="24" height="24" viewBox="0 0 24 24" fill="none" xmlns="http://www.w3.org/2000/svg">
<path fill-rule="evenodd" clip-rule="evenodd" d="M3.72528 4.03825C4.25631 3.88652 4.8098 4.19401 4.96152 4.72505L6.7543 10.9998H9.2457L11.0385 4.72505C11.1611 4.29575 11.5535 3.99977 12 3.99977C12.4465 3.99977 12.8389 4.29575 12.9615 4.72505L14.7543 10.9998H17.2457L19.0385 4.72505C19.1902 4.19401 19.7437 3.88652 20.2747 4.03825C20.8058 4.18997 21.1132 4.74346 20.9615 5.27449L19.3257 10.9998H21C21.5523 10.9998 22 11.4475 22 11.9998C22 12.5521 21.5523 12.9998 21 12.9998H18.7543L16.9615 19.2745C16.8389 19.7038 16.4465 19.9998 16 19.9998C15.5535 19.9998 15.1611 19.7038 15.0385 19.2745L13.2457 12.9998H10.7543L8.96152 19.2745C8.83887 19.7038 8.44648 19.9998 8 19.9998C7.55352 19.9998 7.16113 19.7038 7.03848 19.2745L5.2457 12.9998H3C2.44772 12.9998 2 12.5521 2 11.9998C2 11.4475 2.44772 10.9998 3 10.9998H4.67427L3.03848 5.27449C2.88675 4.74346 3.19424 4.18997 3.72528 4.03825ZM7.32573 12.9998L8 15.3597L8.67427 12.9998H7.32573ZM11.3257 10.9998H12.6743L12 8.63982L11.3257 10.9998ZM15.3257 12.9998L16 15.3597L16.6743 12.9998H15.3257Z" fill="black"/>
</svg>
