<svg width="24" height="24" viewBox="0 0 24 24" fill="none" xmlns="http://www.w3.org/2000/svg">
<path fill-rule="evenodd" clip-rule="evenodd" d="M6.47013 3.15214C6.93847 2.85943 7.55542 3.0018 7.84813 3.47013L12.0001 10.1133L16.1521 3.47013C16.4448 3.0018 17.0618 2.85943 17.5301 3.15214C17.9985 3.44485 18.1408 4.0618 17.8481 4.53013L13.8044 11.0001H16.0001C16.5524 11.0001 17.0001 11.4478 17.0001 12.0001C17.0001 12.5524 16.5524 13.0001 16.0001 13.0001H13.0001V15.0001H16.0001C16.5524 15.0001 17.0001 15.4478 17.0001 16.0001C17.0001 16.5524 16.5524 17.0001 16.0001 17.0001H13.0001V20.0001C13.0001 20.5524 12.5524 21.0001 12.0001 21.0001C11.4478 21.0001 11.0001 20.5524 11.0001 20.0001V17.0001H8.00013C7.44785 17.0001 7.00013 16.5524 7.00013 16.0001C7.00013 15.4478 7.44785 15.0001 8.00013 15.0001H11.0001V13.0001H8.00013C7.44785 13.0001 7.00013 12.5524 7.00013 12.0001C7.00013 11.4478 7.44785 11.0001 8.00013 11.0001H10.1959L6.15214 4.53013C5.85943 4.0618 6.0018 3.44485 6.47013 3.15214Z" fill="black"/>
</svg>
