<svg width="24" height="24" viewBox="0 0 24 24" fill="none" xmlns="http://www.w3.org/2000/svg">
<path d="M19 9.77794V16.1998C19 17.88 19 18.7201 18.673 19.3618C18.3854 19.9263 17.9265 20.3852 17.362 20.6729C17.2111 20.7497 17.0492 20.8086 16.868 20.8535M5 9.77728V16.1998C5 17.88 5 18.7201 5.32698 19.3618C5.6146 19.9263 6.07354 20.3852 6.63803 20.6729C6.78894 20.7497 6.95082 20.8086 7.13202 20.8535M21 11.9998L15.5668 5.96381C14.3311 4.59104 13.7133 3.90466 12.9856 3.65126C12.3466 3.4287 11.651 3.42875 11.0119 3.65141C10.2843 3.90491 9.66661 4.59139 8.43114 5.96433L3 11.9998M7.13202 20.8535C7.65017 18.6446 9.63301 16.9998 12 16.9998C14.367 16.9998 16.3498 18.6446 16.868 20.8535M7.13202 20.8535C7.72133 20.9998 8.51495 20.9998 9.8 20.9998H14.2C15.485 20.9998 16.2787 20.9998 16.868 20.8535M14 11.9998C14 13.1044 13.1046 13.9998 12 13.9998C10.8954 13.9998 10 13.1044 10 11.9998C10 10.8953 10.8954 9.99983 12 9.99983C13.1046 9.99983 14 10.8953 14 11.9998Z" stroke="black" stroke-width="2" stroke-linecap="round" stroke-linejoin="round"/>
</svg>
