<svg width="24" height="24" viewBox="0 0 24 24" fill="none" xmlns="http://www.w3.org/2000/svg">
<path d="M13 10.9999H12C11.0681 10.9999 10.6022 10.9999 10.2346 11.1522C9.74458 11.3552 9.35523 11.7445 9.15224 12.2346C9 12.6021 9 13.0681 9 13.9999C9 14.9318 9 15.3978 9.15224 15.7653C9.35523 16.2554 9.74458 16.6447 10.2346 16.8477C10.6022 16.9999 11.0681 16.9999 12 16.9999H13M15 8.99994H15.01M3 14.5999V12.1301C3 10.9814 3 10.407 3.14805 9.87807C3.2792 9.40953 3.49473 8.96886 3.78405 8.57768C4.11067 8.13608 4.56404 7.78346 5.47078 7.07822L8.07078 5.056C9.47608 3.96298 10.1787 3.41648 10.9546 3.2064C11.6392 3.02104 12.3608 3.02104 13.0454 3.2064C13.8213 3.41648 14.5239 3.96299 15.9292 5.056L18.5292 7.07822C19.436 7.78346 19.8893 8.13608 20.2159 8.57768C20.5053 8.96886 20.7208 9.40953 20.8519 9.87807C21 10.407 21 10.9814 21 12.1301V14.5999C21 16.8401 21 17.9603 20.564 18.8159C20.1805 19.5685 19.5686 20.1805 18.816 20.564C17.9603 20.9999 16.8402 20.9999 14.6 20.9999H9.4C7.15979 20.9999 6.03969 20.9999 5.18404 20.564C4.43139 20.1805 3.81947 19.5685 3.43597 18.8159C3 17.9603 3 16.8401 3 14.5999Z" stroke="black" stroke-width="2" stroke-linecap="round" stroke-linejoin="round"/>
</svg>
