<svg width="24" height="24" viewBox="0 0 24 24" fill="none" xmlns="http://www.w3.org/2000/svg">
<path d="M7 20.9999H4.6C4.03995 20.9999 3.75992 20.9999 3.54601 20.8909C3.35785 20.795 3.20487 20.642 3.10899 20.4538C3 20.2399 3 19.9599 3 19.3999V12.8894C3 12.7891 3 12.7389 3.00954 12.6908C3.018 12.6481 3.03201 12.6067 3.0512 12.5676C3.07284 12.5235 3.10329 12.4837 3.16419 12.4039L4.36419 10.8325C4.58035 10.5494 4.68843 10.4079 4.82038 10.3571C4.93599 10.3126 5.06401 10.3126 5.17962 10.3571C5.31157 10.4079 5.41965 10.5494 5.63581 10.8325L6.83581 12.4039C6.89671 12.4837 6.92716 12.5235 6.9488 12.5676C6.96799 12.6067 6.982 12.6481 6.99046 12.6908C7 12.7389 7 12.7891 7 12.8894M7 20.9999H17M7 20.9999V8.5082C7 8.25777 7 8.13255 7.02886 8.01504C7.05444 7.91087 7.09662 7.8115 7.15378 7.72073C7.21825 7.61833 7.30831 7.53134 7.48845 7.35736L10.8884 4.07346C11.2788 3.69641 11.474 3.50789 11.6976 3.43696C11.8944 3.37453 12.1056 3.37453 12.3024 3.43696C12.526 3.50789 12.7212 3.69641 13.1116 4.07345L16.5116 7.35736C16.6917 7.53134 16.7818 7.61833 16.8462 7.72073C16.9034 7.8115 16.9456 7.91087 16.9711 8.01504C17 8.13255 17 8.25777 17 8.50821V20.9999M17 20.9999H19.4C19.9601 20.9999 20.2401 20.9999 20.454 20.8909C20.6422 20.795 20.7951 20.642 20.891 20.4538C21 20.2399 21 19.9599 21 19.3999V12.8894C21 12.7891 21 12.7389 20.9905 12.6908C20.982 12.6481 20.968 12.6067 20.9488 12.5676C20.9272 12.5235 20.8967 12.4837 20.8358 12.4039L19.6358 10.8325C19.4197 10.5494 19.3116 10.4079 19.1796 10.3571C19.064 10.3126 18.936 10.3126 18.8204 10.3571C18.6884 10.4079 18.5803 10.5494 18.3642 10.8325L17.1642 12.4039C17.1033 12.4837 17.0728 12.5235 17.0512 12.5676C17.032 12.6067 17.018 12.6481 17.0095 12.6908C17 12.7389 17 12.7891 17 12.8894M14 20.9999V16.9999C14 15.8953 13.1046 14.9999 12 14.9999C10.8954 14.9999 10 15.8953 10 16.9999V20.9999H14Z" stroke="black" stroke-width="2" stroke-linecap="round" stroke-linejoin="round"/>
</svg>
