<svg width="24" height="24" viewBox="0 0 24 24" fill="none" xmlns="http://www.w3.org/2000/svg">
<path d="M10.0166 12.8478L12.5375 9.9487L13.8695 13.4975L10.0166 12.8478Z" fill="black"/>
<path fill-rule="evenodd" clip-rule="evenodd" d="M8.73152 2.33969C8.17434 2.339 7.68403 2.33839 7.22782 2.48662C6.82798 2.61654 6.45991 2.82904 6.14748 3.11036C5.791 3.43133 5.54638 3.85625 5.26839 4.33913L1.99974 10.0006C1.72055 10.4828 1.47486 10.9071 1.37513 11.3763C1.28772 11.7875 1.28772 12.2126 1.37513 12.6238C1.47486 13.093 1.72055 13.5173 1.99974 13.9995L5.26838 19.6609C5.54637 20.1438 5.79099 20.5688 6.14748 20.8897C6.45991 21.171 6.82798 21.3836 7.22782 21.5135C7.68403 21.6617 8.17434 21.6611 8.73152 21.6604H15.2688C15.826 21.6611 16.3163 21.6617 16.7725 21.5135C17.1724 21.3836 17.5404 21.171 17.8529 20.8897C18.2093 20.5688 18.454 20.1438 18.732 19.6609L22.0006 13.9995C22.2798 13.5173 22.5255 13.093 22.6252 12.6238C22.7126 12.2126 22.7126 11.7875 22.6252 11.3763C22.5255 10.9071 22.2798 10.4828 22.0006 10.0006L18.732 4.33915C18.454 3.85626 18.2093 3.43133 17.8529 3.11036C17.5404 2.82904 17.1724 2.61654 16.7725 2.48662C16.3163 2.33839 15.826 2.339 15.2688 2.33969H8.73152ZM14.8061 8.36568C14.7448 8.69816 14.6016 8.98907 14.4027 9.22645L15.7988 12.9459C16.7737 13.1525 17.4824 14.0844 17.29 15.128C17.0949 16.1865 16.0692 16.8235 15.0633 16.6539C14.3914 16.5406 13.8344 16.0848 13.5915 15.4789L9.49965 14.7889C9.06259 15.2525 8.4018 15.4819 7.74938 15.3719C6.73359 15.2006 5.98047 14.2465 6.17812 13.1746C6.37328 12.1161 7.39897 11.4791 8.4048 11.6487L11.0639 8.5954C10.9743 8.31668 10.9499 8.0106 11.0082 7.69426C11.2034 6.63581 12.2291 5.99875 13.2349 6.16835C14.2507 6.33964 15.0038 7.29372 14.8061 8.36568Z" fill="black"/>
</svg>
