<svg width="24" height="24" viewBox="0 0 24 24" fill="none" xmlns="http://www.w3.org/2000/svg">
<path opacity="0.3" fill-rule="evenodd" clip-rule="evenodd" d="M2 5C2 3.34315 3.34315 2 5 2H19C20.6569 2 22 3.34315 22 5V9C22 10.6569 20.6569 12 19 12H15V16.5C15 17.3284 15.6716 18 16.5 18C17.3284 18 18 17.3284 18 16.5C18 15.6716 17.3284 15 16.5 15C15.9477 15 15.5 14.5523 15.5 14C15.5 13.4477 15.9477 13 16.5 13C18.433 13 20 14.567 20 16.5C20 18.433 18.433 20 16.5 20C14.567 20 13 18.433 13 16.5V12H11V18.5C11 20.433 9.433 22 7.5 22C5.567 22 4 20.433 4 18.5C4 16.567 5.567 15 7.5 15C8.05228 15 8.5 15.4477 8.5 16C8.5 16.5523 8.05228 17 7.5 17C6.67157 17 6 17.6716 6 18.5C6 19.3284 6.67157 20 7.5 20C8.32843 20 9 19.3284 9 18.5V12H5C3.34315 12 2 10.6569 2 9V5ZM7 6C6.44772 6 6 6.44772 6 7C6 7.55228 6.44772 8 7 8H17C17.5523 8 18 7.55228 18 7C18 6.44772 17.5523 6 17 6H7Z" fill="black"/>
<path fill-rule="evenodd" clip-rule="evenodd" d="M6 7C6 6.44772 6.44772 6 7 6H17C17.5523 6 18 6.44772 18 7C18 7.55228 17.5523 8 17 8H7C6.44772 8 6 7.55228 6 7Z" fill="black"/>
<path d="M7.5 22C9.433 22 11 20.433 11 18.5V12H9V18.5C9 19.3284 8.32843 20 7.5 20C6.67157 20 6 19.3284 6 18.5C6 17.6716 6.67157 17 7.5 17C8.05228 17 8.5 16.5523 8.5 16C8.5 15.4477 8.05228 15 7.5 15C5.567 15 4 16.567 4 18.5C4 20.433 5.567 22 7.5 22Z" fill="black"/>
<path d="M16.5 18C15.6716 18 15 17.3284 15 16.5V12H13V16.5C13 18.433 14.567 20 16.5 20C18.433 20 20 18.433 20 16.5C20 14.567 18.433 13 16.5 13C15.9477 13 15.5 13.4477 15.5 14C15.5 14.5523 15.9477 15 16.5 15C17.3284 15 18 15.6716 18 16.5C18 17.3284 17.3284 18 16.5 18Z" fill="black"/>
</svg>
