<svg width="24" height="24" viewBox="0 0 24 24" fill="none" xmlns="http://www.w3.org/2000/svg">
<g opacity="0.3">
<path d="M14 5.5C14.5523 5.5 15 5.94772 15 6.5C15 6.77614 15.2239 7 15.5 7H16C17.1046 7 18 7.89543 18 9C18 9.55228 17.5523 10 17 10C16.4477 10 16 9.55228 16 9H15.5C14.1193 9 13 7.88071 13 6.5C13 5.94772 13.4477 5.5 14 5.5Z" fill="black"/>
<path d="M7.4234 10.25H7C6.44772 10.25 6 10.6977 6 11.25V12.75C6 13.3023 6.44772 13.75 7 13.75H10.9234L7.4234 10.25Z" fill="black"/>
<path fill-rule="evenodd" clip-rule="evenodd" d="M11.665 10.25L15.165 13.75H17C17.5523 13.75 18 13.3023 18 12.75V11.25C18 10.6977 17.5523 10.25 17 10.25H11.665Z" fill="black"/>
</g>
<path fill-rule="evenodd" clip-rule="evenodd" d="M4.90541 4.95253C1.02371 8.85964 1.03155 15.1737 4.92893 19.0711C8.83418 22.9763 15.1658 22.9763 19.0711 19.0711C22.9763 15.1658 22.9763 8.83418 19.0711 4.92893C15.1734 1.03129 8.85882 1.0237 4.95177 4.90617C4.94384 4.91361 4.936 4.9212 4.92825 4.92894C4.92048 4.93671 4.91287 4.94458 4.90541 4.95253ZM7.09363 5.68011C10.2321 3.23729 14.772 3.4583 17.6569 6.34315C20.5417 9.22799 20.7627 13.7679 18.3199 16.9064L7.09363 5.68011ZM5.6795 7.0944C3.23732 10.2328 3.45854 14.7722 6.34315 17.6569C9.22775 20.5415 13.7672 20.7627 16.9056 18.3205L5.6795 7.0944Z" fill="black"/>
</svg>
