<svg width="24" height="24" viewBox="0 0 24 24" fill="none" xmlns="http://www.w3.org/2000/svg">
<path opacity="0.3" d="M3 16C3 11.0294 7.02944 7 12 7C16.9706 7 21 11.0294 21 16V18H3V16Z" fill="black"/>
<path fill-rule="evenodd" clip-rule="evenodd" d="M2 19C2 18.4477 2.44772 18 3 18H21C21.5523 18 22 18.4477 22 19C22 19.5523 21.5523 20 21 20H3C2.44772 20 2 19.5523 2 19Z" fill="black"/>
<path d="M8 5C8 4.44772 8.44772 4 9 4H15C15.5523 4 16 4.44772 16 5C16 5.55228 15.5523 6 15 6H13V7.05493C12.6717 7.01863 12.338 7 12 7C11.662 7 11.3283 7.01863 11 7.05493V6H9C8.44772 6 8 5.55228 8 5Z" fill="black"/>
</svg>
