<svg width="24" height="24" viewBox="0 0 24 24" fill="none" xmlns="http://www.w3.org/2000/svg">
<g opacity="0.3">
<path d="M9.54305 9H9.17071C9.28367 8.6804 9.44925 8.38566 9.65704 8.12618C9.60763 8.40641 9.56941 8.69888 9.54305 9Z" fill="black"/>
<path d="M11.8757 7.5227C11.9182 7.40925 11.9603 7.31426 12 7.23584C12.0397 7.31426 12.0818 7.40925 12.1243 7.5227C12.2677 7.90509 12.3841 8.41143 12.4476 9H11.5524C11.6159 8.41143 11.7323 7.90509 11.8757 7.5227Z" fill="black"/>
<path d="M14.343 8.12618C14.3924 8.40641 14.4306 8.69888 14.4569 9H14.8293C14.7163 8.6804 14.5508 8.38566 14.343 8.12618Z" fill="black"/>
<path d="M11.8757 12.4773C11.7323 12.0949 11.6159 11.5886 11.5524 11H12.4476C12.3841 11.5886 12.2677 12.0949 12.1243 12.4773C12.0818 12.5908 12.0397 12.6857 12 12.7642C11.9603 12.6857 11.9182 12.5908 11.8757 12.4773Z" fill="black"/>
<path d="M9.54305 11C9.56941 11.3011 9.60763 11.5936 9.65704 11.8738C9.44925 11.6143 9.28367 11.3196 9.17071 11H9.54305Z" fill="black"/>
<path d="M14.4569 11C14.4306 11.3011 14.3924 11.5936 14.343 11.8738C14.5508 11.6143 14.7163 11.3196 14.8293 11H14.4569Z" fill="black"/>
<path fill-rule="evenodd" clip-rule="evenodd" d="M15.8385 2H8.16146C7.63434 1.99998 7.17953 1.99997 6.80498 2.03057C6.40963 2.06287 6.01641 2.13419 5.63803 2.32698C5.07355 2.6146 4.6146 3.07355 4.32698 3.63803C4.13419 4.01641 4.06287 4.40963 4.03057 4.80498C3.99997 5.17953 3.99998 5.6343 4 6.16142V19C4 20.6569 5.34315 22 7 22H19C19.5523 22 20 21.5523 20 21C20 20.4477 19.5523 20 19 20H7C6.44772 20 6 19.5523 6 19C6 18.4477 6.44772 18 7 18H19C19.5523 18 20 17.5523 20 17V6.16146C20 5.63436 20 5.17952 19.9694 4.80498C19.9371 4.40963 19.8658 4.01641 19.673 3.63803C19.3854 3.07355 18.9265 2.6146 18.362 2.32698C17.9836 2.13419 17.5904 2.06287 17.195 2.03057C16.8205 1.99997 16.3657 1.99998 15.8385 2ZM12 5C9.23858 5 7 7.23858 7 10C7 12.7614 9.23858 15 12 15C14.7614 15 17 12.7614 17 10C17 7.23858 14.7614 5 12 5Z" fill="black"/>
</g>
<path d="M19 18V20H7C6.44772 20 6 19.5523 6 19C6 18.4477 6.44772 18 7 18H19Z" fill="black"/>
<path fill-rule="evenodd" clip-rule="evenodd" d="M12 15C14.7614 15 17 12.7614 17 10C17 7.23858 14.7614 5 12 5C9.23857 5 7 7.23858 7 10C7 12.7614 9.23857 15 12 15ZM9.65704 8.12618C9.44925 8.38566 9.28367 8.6804 9.1707 9H9.54305C9.56941 8.69888 9.60762 8.40641 9.65704 8.12618ZM14.343 8.12618C14.3924 8.40641 14.4306 8.69888 14.4569 9H14.8293C14.7163 8.6804 14.5508 8.38566 14.343 8.12618ZM12.4476 9C12.3841 8.41143 12.2677 7.90509 12.1243 7.5227C12.0818 7.40925 12.0397 7.31426 12 7.23584C11.9603 7.31426 11.9182 7.40925 11.8757 7.5227C11.7323 7.90509 11.6159 8.41143 11.5524 9H12.4476ZM11.5524 11H12.4476C12.3841 11.5886 12.2677 12.0949 12.1243 12.4773C12.0818 12.5908 12.0397 12.6857 12 12.7642C11.9603 12.6857 11.9182 12.5908 11.8757 12.4773C11.7323 12.0949 11.6159 11.5886 11.5524 11ZM9.54305 11H9.1707C9.28367 11.3196 9.44925 11.6143 9.65704 11.8738C9.60762 11.5936 9.56941 11.3011 9.54305 11ZM14.343 11.8738C14.3924 11.5936 14.4306 11.3011 14.4569 11H14.8293C14.7163 11.3196 14.5507 11.6143 14.343 11.8738Z" fill="black"/>
</svg>
