<svg width="24" height="24" viewBox="0 0 24 24" fill="none" xmlns="http://www.w3.org/2000/svg">
<path opacity="0.3" fill-rule="evenodd" clip-rule="evenodd" d="M4.00092 5.95379L4 6L4 15.8385C3.99998 16.3657 3.99997 16.8205 4.03057 17.195C4.06287 17.5904 4.13419 17.9836 4.32698 18.362C4.6146 18.9265 5.07354 19.3854 5.63803 19.673C5.75735 19.7338 5.87813 19.7825 6 19.8218V21C6 21.5523 6.44772 22 7 22C7.55229 22 8 21.5523 8 21V20H16V21C16 21.5523 16.4477 22 17 22C17.5523 22 18 21.5523 18 21V19.8218C18.1219 19.7825 18.2427 19.7338 18.362 19.673C18.9265 19.3854 19.3854 18.9265 19.673 18.362C19.8658 17.9836 19.9371 17.5904 19.9694 17.195C20 16.8205 20 16.3657 20 15.8386V6L19.9991 5.95379C19.9984 5.93519 19.9972 5.91345 19.9953 5.88877C19.9914 5.83942 19.9846 5.77815 19.9727 5.70669C19.9489 5.56376 19.9046 5.37953 19.8226 5.1688C19.6565 4.74168 19.3442 4.22799 18.7758 3.74074C17.646 2.77236 15.6197 2 12 2C8.38035 2 6.354 2.77236 5.22421 3.74074C4.65576 4.22799 4.34348 4.74168 4.17737 5.1688C4.09542 5.37953 4.0511 5.56376 4.02728 5.70669C4.01537 5.77815 4.00856 5.83942 4.00472 5.88877C4.0028 5.91345 4.00162 5.93519 4.00092 5.95379ZM7 16C7 15.4477 7.44772 15 8 15H8.01C8.56229 15 9.01 15.4477 9.01 16C9.01 16.5523 8.56229 17 8.01 17H8C7.44772 17 7 16.5523 7 16ZM6 8H18V12H6V8ZM16 15C15.4477 15 15 15.4477 15 16C15 16.5523 15.4477 17 16 17H16.01C16.5623 17 17.01 16.5523 17.01 16C17.01 15.4477 16.5623 15 16.01 15H16Z" fill="black"/>
<path d="M3 7C3 6.44772 2.55228 6 2 6C1.44772 6 1 6.44772 1 7V10C1 10.5523 1.44772 11 2 11C2.55228 11 3 10.5523 3 10V7Z" fill="black"/>
<path d="M23 7C23 6.44772 22.5523 6 22 6C21.4477 6 21 6.44772 21 7V10C21 10.5523 21.4477 11 22 11C22.5523 11 23 10.5523 23 10V7Z" fill="black"/>
<path d="M18 8H6V12H18V8Z" fill="black"/>
</svg>
