<svg width="24" height="24" viewBox="0 0 24 24" fill="none" xmlns="http://www.w3.org/2000/svg">
<path opacity="0.3" fill-rule="evenodd" clip-rule="evenodd" d="M8.3435 9.2082C8.87802 8.99798 9.47789 8.99888 10.1614 8.9999H13.8386C14.5221 8.99888 15.122 8.99798 15.6565 9.2082C16.1239 9.39202 16.5376 9.69024 16.8598 10.0755C17.2283 10.5161 17.4171 11.0855 17.6323 11.7342L17.9487 12.6838C17.954 12.6997 17.9589 12.7157 17.9634 12.7317C18.2545 12.9837 18.4962 13.2909 18.673 13.6381C18.8658 14.0164 18.9371 14.4097 18.9694 14.805C19 15.1796 19 15.6343 19 16.1615V19C19 19.5523 18.5523 20 18 20C17.4477 20 17 19.5523 17 19H7C7 19.5523 6.55229 20 6 20C5.44772 20 5 19.5523 5 19L5 16.1615C4.99998 15.6343 4.99997 15.1796 5.03057 14.805C5.06287 14.4097 5.13419 14.0164 5.32698 13.6381C5.50385 13.2909 5.7455 12.9837 6.03665 12.7317C6.04112 12.7157 6.04601 12.6997 6.05132 12.6838L6.3677 11.7342C6.58286 11.0855 6.77171 10.5161 7.14017 10.0755C7.46236 9.69024 7.87612 9.39202 8.3435 9.2082ZM8.38906 12.0045C8.62564 12 8.88348 12 9.16146 12H14.8385C15.1165 12 15.3744 12 15.6109 12.0045C15.4562 11.5616 15.3963 11.4431 15.3256 11.3585C15.2182 11.2301 15.0803 11.1307 14.9245 11.0694C14.7908 11.0168 14.6083 11 13.6936 11H10.3064C9.39173 11 9.20921 11.0168 9.07551 11.0694C8.91972 11.1307 8.7818 11.2301 8.6744 11.3585C8.60367 11.4431 8.54384 11.5616 8.38906 12.0045ZM8.99975 14.5C8.44747 14.5 7.99975 14.9477 7.99975 15.5C7.99975 16.0523 8.44747 16.5 8.99975 16.5H9.00975C9.56204 16.5 10.0098 16.0523 10.0098 15.5C10.0098 14.9477 9.56204 14.5 9.00975 14.5H8.99975ZM14.9998 14.5C14.4475 14.5 13.9998 14.9477 13.9998 15.5C13.9998 16.0523 14.4475 16.5 14.9998 16.5H15.0098C15.562 16.5 16.0098 16.0523 16.0098 15.5C16.0098 14.9477 15.562 14.5 15.0098 14.5H14.9998Z" fill="black"/>
<path d="M11.188 4.26661C11.7051 4.03678 12.2954 4.03678 12.8125 4.26662L21.4064 8.08611C21.9111 8.31041 22.1384 8.90137 21.9141 9.40606C21.6898 9.91074 21.0988 10.138 20.5941 9.91373L12.0002 6.09424L3.40639 9.91373C2.9017 10.138 2.31074 9.91074 2.08644 9.40606C1.86213 8.90137 2.08943 8.31041 2.59411 8.08611L11.188 4.26661Z" fill="black"/>
<path d="M9.16302 11.9999C8.88505 11.9999 8.6272 11.9999 8.39062 12.0043C8.5454 11.5615 8.60523 11.443 8.67597 11.3584C8.78336 11.2299 8.92128 11.1305 9.07708 11.0693C9.21077 11.0167 9.3933 10.9999 10.308 10.9999H13.6951C14.6098 10.9999 14.7924 11.0167 14.9261 11.0693C15.0818 11.1305 15.2198 11.2299 15.3272 11.3584C15.3979 11.443 15.4577 11.5615 15.6125 12.0043C15.3759 11.9999 15.1181 11.9999 14.8401 11.9999H9.16302Z" fill="black"/>
</svg>
