<svg width="24" height="24" viewBox="0 0 24 24" fill="none" xmlns="http://www.w3.org/2000/svg">
<path opacity="0.3" fill-rule="evenodd" clip-rule="evenodd" d="M4 3C2.34315 3 1 4.34315 1 6V14C1 15.6569 2.34314 17 4 17C4 14.7909 5.79086 13 8 13C10.2091 13 12 14.7909 12 17H22C22.5523 17 23 16.5523 23 16C23 15.4477 22.5523 15 22 15H20V8C20 5.23858 17.7614 3 15 3H4ZM5.5 10C5.22386 10 5 9.77614 5 9.5V7.5C5 7.22386 5.22386 7 5.5 7H8.5C8.77614 7 9 7.22386 9 7.5V9.5C9 9.77614 8.77614 10 8.5 10H5.5ZM16 7.5C16 7.22386 15.7761 7 15.5 7H13.5C13.2239 7 13 7.22386 13 7.5V9.5C13 9.77614 13.2239 10 13.5 10H15.5C15.7761 10 16 9.77614 16 9.5V7.5Z" fill="black"/>
<path d="M5 7.5V9.5C5 9.77614 5.22386 10 5.5 10H8.5C8.77614 10 9 9.77614 9 9.5V7.5C9 7.22386 8.77614 7 8.5 7H5.5C5.22386 7 5 7.22386 5 7.5Z" fill="black"/>
<path d="M12 17C12 19.2091 10.2091 21 8 21C5.79086 21 4 19.2091 4 17C4 14.7909 5.79086 13 8 13C10.2091 13 12 14.7909 12 17Z" fill="black"/>
<path d="M13 7.5C13 7.22386 13.2239 7 13.5 7H15.5C15.7761 7 16 7.22386 16 7.5V9.5C16 9.77614 15.7761 10 15.5 10H13.5C13.2239 10 13 9.77614 13 9.5V7.5Z" fill="black"/>
</svg>
