<svg width="24" height="24" viewBox="0 0 24 24" fill="none" xmlns="http://www.w3.org/2000/svg">
<path opacity="0.3" fill-rule="evenodd" clip-rule="evenodd" d="M1 6C1 4.34315 2.34315 3 4 3H15C17.7614 3 20 5.23858 20 8V15H22C22.5523 15 23 15.4477 23 16C23 16.5523 22.5523 17 22 17H12C12 14.7909 10.2091 13 8 13C5.79086 13 4 14.7909 4 17C2.34314 17 1 15.6569 1 14V6ZM12 15H16V12.5C15.4477 12.5 15 12.0523 15 11.5C15 10.9477 15.4477 10.5 16 10.5V8C16 7.44772 15.5523 7 15 7H13C12.4477 7 12 7.44772 12 8V15ZM5 9.5C5 9.77614 5.22386 10 5.5 10H8.5C8.77614 10 9 9.77614 9 9.5V7.5C9 7.22386 8.77614 7 8.5 7H5.5C5.22386 7 5 7.22386 5 7.5V9.5Z" fill="black"/>
<path d="M12 15H16V12.5C15.4477 12.5 15 12.0523 15 11.5C15 10.9477 15.4477 10.5 16 10.5V8C16 7.44772 15.5523 7 15 7H13C12.4477 7 12 7.44772 12 8V15Z" fill="black"/>
<path d="M5 7.5V9.5C5 9.77614 5.22386 10 5.5 10H8.5C8.77614 10 9 9.77614 9 9.5V7.5C9 7.22386 8.77614 7 8.5 7H5.5C5.22386 7 5 7.22386 5 7.5Z" fill="black"/>
<path d="M12 17C12 19.2091 10.2091 21 8 21C5.79086 21 4 19.2091 4 17C4 14.7909 5.79086 13 8 13C10.2091 13 12 14.7909 12 17Z" fill="black"/>
</svg>
