<svg width="24" height="24" viewBox="0 0 24 24" fill="none" xmlns="http://www.w3.org/2000/svg">
<g opacity="0.3">
<path d="M16 10.9999H13.1614C12.4779 10.9989 11.878 10.998 11.3435 11.2082C10.9071 11.3798 10.5175 11.6512 10.2055 12.0001" fill="black"/>
<path fill-rule="evenodd" clip-rule="evenodd" d="M16 10.9999H13.1614C12.4779 10.9989 11.878 10.998 11.3435 11.2082C10.9071 11.3798 10.5175 11.6512 10.2055 12.0001L10.1402 12.0755C9.77171 12.5161 9.58286 13.0855 9.3677 13.7342L9.05132 14.6838C9.04601 14.6997 9.04112 14.7157 9.03665 14.7317C9.00025 14.7632 8.96464 14.7956 8.92982 14.8288C8.68611 15.0612 8.48175 15.3343 8.32699 15.6381C8.1342 16.0164 8.06287 16.4097 8.03057 16.805C7.99997 17.1796 7.99998 17.6343 8 18.1614L8 21C8 21.5523 8.44772 22 9 22C9.03452 22 9.06863 21.9983 9.10225 21.9949C9.6065 21.9437 10 21.5178 10 21H20C20 21.5523 20.4477 22 21 22C21.069 22 21.1364 21.9931 21.2015 21.9797C21.6572 21.8865 22 21.4833 22 21V18.1615C22 17.6343 22 17.1796 21.9694 16.805C21.9674 16.7803 21.9652 16.7556 21.9629 16.7309C21.9277 16.3606 21.8538 15.9928 21.673 15.6381C21.662 15.6164 21.6507 15.5948 21.6391 15.5735C21.4657 15.2528 21.2363 14.968 20.9633 14.7317C20.9589 14.7157 20.954 14.6998 20.9487 14.6838L20.6774 13.87L20.6323 13.7342C20.4171 13.0855 20.2283 12.5161 19.8598 12.0755C19.8196 12.0274 19.7778 11.9806 19.7348 11.9352C19.4334 11.6175 19.0655 11.3691 18.6565 11.2082C18.448 11.1262 18.2295 11.0763 18 11.046C17.6412 10.9987 17.2555 10.9993 16.8386 10.9999L16 10.9999ZM12.1615 14.0001C11.8835 14 11.6256 14 11.3891 14.0045C11.5438 13.5617 11.6037 13.4431 11.6744 13.3585C11.7818 13.2301 11.9197 13.1307 12.0755 13.0694C12.2092 13.0169 12.3917 13.0001 13.3064 13.0001H16.6936C17.6083 13.0001 17.7908 13.0169 17.9245 13.0694C18.0803 13.1307 18.2182 13.2301 18.3256 13.3585C18.3963 13.4431 18.4562 13.5617 18.6109 14.0045C18.3744 14 18.1165 14 17.8385 14.0001H15H12.1615ZM11 17.5C11 16.9477 11.4477 16.5 12 16.5H12.01C12.5623 16.5 13.01 16.9477 13.01 17.5C13.01 18.0523 12.5623 18.5 12.01 18.5H12C11.4477 18.5 11 18.0523 11 17.5ZM17 17.5C17 16.9477 17.4477 16.5 18 16.5H18.01C18.5623 16.5 19.01 16.9477 19.01 17.5C19.01 18.0523 18.5623 18.5 18.01 18.5H18C17.4477 18.5 17 18.0523 17 17.5Z" fill="black"/>
<path d="M5.39062 5.00446C5.6272 4.99998 5.88505 4.99999 6.16302 5H11.8401C12.1181 4.99999 12.3759 4.99998 12.6125 5.00446C12.4577 4.5616 12.3979 4.44307 12.3272 4.35849C12.2198 4.23007 12.0818 4.13066 11.9261 4.06939C11.7924 4.01681 11.6098 4 10.6951 4H7.30799C6.39329 4 6.21077 4.01681 6.07707 4.06939C5.92128 4.13066 5.78336 4.23007 5.67597 4.35849C5.60523 4.44307 5.5454 4.5616 5.39062 5.00446Z" fill="black"/>
</g>
<path fill-rule="evenodd" clip-rule="evenodd" d="M7.16137 2.00014C6.4779 1.99912 5.87802 1.99822 5.3435 2.20845C4.87612 2.39227 4.46236 2.69048 4.14018 3.07576C3.77171 3.51636 3.58286 4.08574 3.3677 4.73446L3.05132 5.68406C3.04601 5.69999 3.04112 5.71597 3.03665 5.73197C2.74551 5.98398 2.50385 6.29119 2.32698 6.63831C2.13419 7.01669 2.06287 7.40991 2.03057 7.80526C1.99997 8.1798 1.99999 8.63457 2 9.16167V12.0003C2 12.5526 2.44772 13.0003 3 13.0003C3.55229 13.0003 4 12.5526 4 12.0003H8.98899C9.09779 11.8039 9.22392 11.6126 9.37306 11.4342C9.80265 10.9205 10.3543 10.5229 10.9775 10.2778C11.6922 9.99672 12.4614 9.99852 13.0842 9.99997H16V9.16176C16 8.63462 16 8.17983 15.9694 7.80526C15.9371 7.40991 15.8658 7.01669 15.673 6.63831C15.4962 6.29119 15.2545 5.98398 14.9634 5.73197C14.9589 5.71597 14.954 5.69999 14.9487 5.68406L14.6323 4.73445C14.4171 4.08573 14.2283 3.51636 13.8598 3.07576C13.5376 2.69048 13.1239 2.39227 12.6565 2.20845C12.122 1.99822 11.5221 1.99912 10.8386 2.00014H7.16137ZM6.16146 5.00028C5.88349 5.00027 5.62564 5.00026 5.38907 5.00475C5.54384 4.56189 5.60367 4.44336 5.67441 4.35877C5.7818 4.23035 5.91972 4.13094 6.07552 4.06967C6.20921 4.01709 6.39173 4.00028 7.30643 4.00028H10.6936C11.6083 4.00028 11.7908 4.01709 11.9245 4.06967C12.0803 4.13094 12.2182 4.23035 12.3256 4.35878C12.3963 4.44336 12.4562 4.56189 12.6109 5.00475C12.3744 5.00027 12.1165 5.00027 11.8385 5.00028H6.16146ZM5 8.50024C5 7.94796 5.44772 7.50024 6 7.50024H6.01C6.56229 7.50024 7.01 7.94796 7.01 8.50024C7.01 9.05253 6.56229 9.50024 6.01 9.50024H6C5.44772 9.50024 5 9.05253 5 8.50024ZM11 8.50024C11 7.94796 11.4477 7.50024 12 7.50024H12.01C12.5623 7.50024 13.01 7.94796 13.01 8.50024C13.01 9.05253 12.5623 9.50024 12.01 9.50024H12C11.4477 9.50024 11 9.05253 11 8.50024Z" fill="black"/>
<path d="M11.3906 14.0047C11.6272 14.0002 11.8851 14.0002 12.163 14.0002H15.0016H17.8401C18.1181 14.0002 18.3759 14.0002 18.6125 14.0047C18.4577 13.5618 18.3979 13.4433 18.3272 13.3587C18.2198 13.2303 18.0818 13.1309 17.9261 13.0696C17.7924 13.017 17.6098 13.0002 16.6951 13.0002H13.308C12.3933 13.0002 12.2108 13.017 12.0771 13.0696C11.9213 13.1309 11.7834 13.2303 11.676 13.3587C11.6052 13.4433 11.5454 13.5618 11.3906 14.0047Z" fill="black"/>
</svg>
