<svg width="24" height="24" viewBox="0 0 24 24" fill="none" xmlns="http://www.w3.org/2000/svg">
<g opacity="0.3">
<path d="M8 16C6.34315 16 5 17.3431 5 19C5 20.6569 6.34315 22 8 22C9.65685 22 11 20.6569 11 19C11 17.3431 9.65685 16 8 16Z" fill="black"/>
<path d="M18 16C16.3431 16 15 17.3431 15 19C15 20.6569 16.3431 22 18 22C19.6569 22 21 20.6569 21 19C21 17.3431 19.6569 16 18 16Z" fill="black"/>
<path fill-rule="evenodd" clip-rule="evenodd" d="M12.3334 2.02372C12.0214 2.04921 11.6899 2.1069 11.365 2.27245C10.8946 2.51213 10.5122 2.89458 10.2725 3.36499C10.1069 3.68989 10.0493 4.02137 10.0238 4.33334C10.0076 4.53063 10.0024 4.75491 10.0008 4.99999L10 14.9999C9.62678 14.9997 9.29244 14.9978 9 14.9823V5.01758C8.93276 5.02114 8.86774 5.0254 8.80498 5.03053C8.40963 5.06283 8.01641 5.13415 7.63803 5.32694C7.07355 5.61456 6.6146 6.07351 6.32698 6.63799C6.13419 7.01637 6.06287 7.40959 6.03057 7.80494C5.99997 8.17949 5.99998 8.63423 6 9.16135L6.00006 11.0402C6.00043 11.4189 6.00302 11.7568 6.02047 12.0508C6.0234 12.1001 6.02675 12.1482 6.03057 12.195C6.06287 12.5903 6.13419 12.9836 6.32698 13.3619C6.6146 13.9264 7.07355 14.3854 7.63803 14.673C8.01641 14.8658 8.40963 14.9371 8.80498 14.9694C9.17955 15 9.63431 15 10.1615 15H17.8385C18.3657 15 18.8205 15 19.195 14.9694C19.5904 14.9371 19.9836 14.8658 20.362 14.673C20.9265 14.3854 21.3854 13.9264 21.673 13.3619C21.8658 12.9836 21.9371 12.5903 21.9694 12.195C22 11.8205 22 11.3658 22 10.8387V9.16144C22 8.63438 22 8.17946 21.9694 7.80494C21.9371 7.40959 21.8658 7.01637 21.673 6.63799C21.3854 6.07351 20.9265 5.61456 20.362 5.32694C19.9836 5.13415 19.5904 5.06283 19.195 5.03053C19.1323 5.0254 19.0672 5.02114 19 5.01758V14.9823C18.7076 14.9978 18.3732 14.9997 18 14.9999V4.99999C17.9983 4.75491 17.9924 4.53063 17.9762 4.33334C17.9508 4.02137 17.8931 3.68989 17.7275 3.36499C17.4878 2.89458 17.1054 2.51213 16.635 2.27245C16.3101 2.1069 15.9786 2.04921 15.6666 2.02372C15.6252 2.02034 15.5826 2.01743 15.5388 2.01494C15.3134 2.00212 15.058 2.00026 14.7802 2L13.2 2.00002C12.9234 2.00036 12.6692 2.00252 12.4453 2.01587C12.4071 2.01814 12.3698 2.02075 12.3334 2.02372ZM15.9829 4.4962C15.9935 4.62628 15.9976 4.78484 15.9991 4.99996H12.0009C12.0024 4.78484 12.0065 4.62628 12.0171 4.4962C12.0247 4.40305 12.0343 4.34669 12.0424 4.31246C12.0462 4.29618 12.0494 4.28617 12.0513 4.28075C12.0532 4.27555 12.0545 4.27297 12.0545 4.27297C12.1024 4.17889 12.1789 4.1024 12.273 4.05446C12.273 4.05446 12.2756 4.05315 12.2808 4.05129C12.2862 4.04936 12.2962 4.04614 12.3125 4.04231C12.3467 4.03425 12.4031 4.02469 12.4962 4.01708C12.6962 4.00074 12.9635 3.99996 13.4 3.99996H14.6C15.0365 3.99996 15.3038 4.00074 15.5038 4.01708C15.5969 4.02469 15.6533 4.03425 15.6875 4.04231C15.7038 4.04614 15.7138 4.04936 15.7192 4.05129C15.7244 4.05315 15.727 4.05446 15.727 4.05446C15.8211 4.1024 15.8976 4.17889 15.9455 4.27297C15.9455 4.27297 15.9468 4.27555 15.9487 4.28075C15.9506 4.28617 15.9538 4.29618 15.9577 4.31246C15.9657 4.34669 15.9753 4.40305 15.9829 4.4962Z" fill="black"/>
</g>
<path d="M9 5.01759C9.29244 5.00214 9.62678 5.00023 10 5V14.9999C9.62678 14.9997 9.29244 14.9978 9 14.9824V5.01759Z" fill="black"/>
<path d="M19 14.9824C18.7076 14.9978 18.3732 14.9997 18 14.9999V5C18.3732 5.00023 18.7076 5.00214 19 5.01759V14.9824Z" fill="black"/>
<path fill-rule="evenodd" clip-rule="evenodd" d="M1 3C1 2.44772 1.44772 2 2 2C3.65685 2 5 3.34315 5 5V15C5 15.5523 5.44772 16 6 16H22C22.5523 16 23 16.4477 23 17C23 17.5523 22.5523 18 22 18H6C4.34315 18 3 16.6569 3 15V5C3 4.44772 2.55228 4 2 4C1.44772 4 1 3.55228 1 3Z" fill="black"/>
</svg>
