<svg width="24" height="24" viewBox="0 0 24 24" fill="none" xmlns="http://www.w3.org/2000/svg">
<path fill-rule="evenodd" clip-rule="evenodd" d="M9 6C9 5.44772 9.44772 5 10 5H10.01C10.5623 5 11.01 5.44772 11.01 6C11.01 6.55228 10.5623 7 10.01 7H10C9.44772 7 9 6.55228 9 6Z" fill="black"/>
<path fill-rule="evenodd" clip-rule="evenodd" d="M7.10002 13C7.56329 10.7178 9.58104 9 12 9C14.7614 9 17 11.2386 17 14C17 16.7614 14.7614 19 12 19C9.58104 19 7.56329 17.2822 7.10002 15H7.10156H12.0015C12.5538 15 13.0015 14.5523 13.0015 14C13.0015 13.4477 12.5538 13 12.0015 13H7.10156H7.10002Z" fill="black"/>
<path opacity="0.3" fill-rule="evenodd" clip-rule="evenodd" d="M3 5C3 3.34315 4.34315 2 6 2H18C19.6569 2 21 3.34315 21 5V19C21 20.6569 19.6569 22 18 22H6C4.34315 22 3 20.6569 3 19V5ZM12 19C14.7614 19 17 16.7614 17 14C17 11.2386 14.7614 9 12 9C9.58104 9 7.56329 10.7178 7.10002 13H12C12.5523 13 13 13.4477 13 14C13 14.5523 12.5523 15 12 15H7.10002C7.56329 17.2822 9.58104 19 12 19ZM7 5C6.44772 5 6 5.44772 6 6C6 6.55228 6.44772 7 7 7H7.01C7.56228 7 8.01 6.55228 8.01 6C8.01 5.44772 7.56228 5 7.01 5H7ZM10 5C9.44772 5 9 5.44772 9 6C9 6.55228 9.44772 7 10 7H10.01C10.5623 7 11.01 6.55228 11.01 6C11.01 5.44772 10.5623 5 10.01 5H10Z" fill="black"/>
</svg>
