<svg width="24" height="24" viewBox="0 0 24 24" fill="none" xmlns="http://www.w3.org/2000/svg">
<path opacity="0.3" d="M12 2C10.747 2 9.54556 2.23094 8.43759 2.65346C4.67533 4.08818 2 7.73042 2 12C2 17.5228 6.47715 22 12 22C17.5228 22 22 17.5228 22 12C22 11.2376 21.9145 10.4941 21.7522 9.77871C20.7416 5.32525 16.7603 2 12 2Z" fill="black"/>
<path d="M7.86115 3.2249C7.75864 3.48811 7.77222 3.7824 7.89855 4.03505L8.88237 6.00268C8.52202 6.8294 8.86855 7.80278 9.68463 8.21082C10.2327 8.48484 10.8855 8.4442 11.3954 8.10431L12.0709 7.65396L12.1046 7.67082C12.6677 7.95235 13.3304 7.95234 13.8935 7.67082L13.9272 7.65396L14.3001 7.90255L12.8065 8.5L11.6657 8.5C11.0166 8.5 10.385 8.71053 9.86573 9.1L8.79906 9.9C8.29545 10.2777 7.99906 10.8705 7.99906 11.5V13C7.99906 14.1046 8.89449 15 9.99906 15H10.9991V17C10.9991 18.1046 11.8945 19 12.9991 19H13.4329C14.1354 19 14.7864 18.6314 15.1479 18.029L16.214 16.252C16.4005 15.9412 16.4991 15.5855 16.4991 15.223V14.9876C17.3442 14.8854 17.9991 14.1656 17.9991 13.2929C17.9991 12.8401 17.8192 12.4059 17.4991 12.0858L17.324 11.9107C17.603 11.7567 17.8427 11.5373 18.0214 11.2692L18.4673 10.6004L19.1122 10.7165C19.8089 10.842 20.4815 10.5923 20.914 10.1126C21.3575 9.62066 21.5375 8.89129 21.2431 8.17967C19.7432 4.55396 16.1706 2 11.9991 2C10.746 2 9.54463 2.23094 8.43665 2.65346C8.17272 2.75411 7.96367 2.96168 7.86115 3.2249Z" fill="black"/>
</svg>
