<svg width="24" height="24" viewBox="0 0 24 24" fill="none" xmlns="http://www.w3.org/2000/svg">
<path opacity="0.3" fill-rule="evenodd" clip-rule="evenodd" d="M5 7C3.34315 7 2 8.34315 2 10V20C2 21.6569 3.34315 23 5 23H19C20.6569 23 22 21.6569 22 20V10C22 8.34315 20.6569 7 19 7H5ZM12 10.5C10.8954 10.5 10 11.3954 10 12.5C10 13.6046 10.8954 14.5 12 14.5C13.1046 14.5 14 13.6046 14 12.5C14 11.3954 13.1046 10.5 12 10.5ZM12.0002 17.5C10.8552 17.5 10.1163 18.1554 9.97071 18.7412C9.83748 19.2772 9.29499 19.6037 8.75902 19.4705C8.22304 19.3372 7.89654 18.7948 8.02977 18.2588C8.45143 16.5624 10.1832 15.5 12.0002 15.5C13.8172 15.5 15.549 16.5624 15.9707 18.2588C16.1039 18.7948 15.7774 19.3372 15.2415 19.4705C14.7055 19.6037 14.163 19.2772 14.0298 18.7412C13.8842 18.1554 13.1452 17.5 12.0002 17.5Z" fill="black"/>
<path d="M4.29289 3.79289C3.90237 4.18342 3.90237 4.81658 4.29289 5.20711C4.68342 5.59763 5.31658 5.59763 5.70711 5.20711L7.5 3.41421L9.29289 5.20711C9.68342 5.59763 10.3166 5.59763 10.7071 5.20711C11.0976 4.81658 11.0976 4.18342 10.7071 3.79289L8.20711 1.29289C7.81658 0.902369 7.18342 0.902369 6.79289 1.29289L4.29289 3.79289Z" fill="black"/>
<path d="M13.2929 1.29289C13.6834 0.90237 14.3166 0.902369 14.7071 1.29289L16.5 3.08579L18.2929 1.29289C18.6834 0.902369 19.3166 0.902369 19.7071 1.29289C20.0976 1.68342 20.0976 2.31658 19.7071 2.70711L17.2071 5.20711C17.0196 5.39464 16.7652 5.5 16.5 5.5C16.2348 5.5 15.9804 5.39464 15.7929 5.20711L13.2929 2.70711C12.9024 2.31658 12.9024 1.68342 13.2929 1.29289Z" fill="black"/>
<path d="M9.97071 18.7412C10.1163 18.1554 10.8552 17.5 12.0002 17.5C13.1452 17.5 13.8842 18.1554 14.0298 18.7412C14.163 19.2772 14.7055 19.6037 15.2415 19.4705C15.7774 19.3372 16.1039 18.7948 15.9707 18.2588C15.549 16.5624 13.8172 15.5 12.0002 15.5C10.1832 15.5 8.45143 16.5624 8.02977 18.2588C7.89654 18.7948 8.22304 19.3372 8.75902 19.4705C9.29499 19.6037 9.83748 19.2772 9.97071 18.7412Z" fill="black"/>
<path d="M10 12.5C10 11.3954 10.8954 10.5 12 10.5C13.1046 10.5 14 11.3954 14 12.5C14 13.6046 13.1046 14.5 12 14.5C10.8954 14.5 10 13.6046 10 12.5Z" fill="black"/>
</svg>
