<svg width="24" height="24" viewBox="0 0 24 24" fill="none" xmlns="http://www.w3.org/2000/svg">
<path opacity="0.3" d="M6.94302 13.8192C6.77493 13.9369 6.57473 14 6.36956 14H5C2.79086 14 1 15.7909 1 18C1 20.2091 2.79086 22 5 22H6.36956C6.98507 22 7.58569 21.8107 8.08994 21.4577L17.057 15.1808C17.078 15.1661 17.0995 15.1522 17.1215 15.1392C17.2752 15.0483 17.4509 15 17.6304 15H19C21.2091 15 23 13.2091 23 11C23 8.79086 21.2091 7 19 7H17.6304C17.0149 7 16.4143 7.18933 15.9101 7.5423L6.94302 13.8192Z" fill="black"/>
<path d="M8.5 4C8.5 2.89543 9.39543 2 10.5 2C11.6046 2 12.5 2.89543 12.5 4C12.5 5.10457 11.6046 6 10.5 6C9.39543 6 8.5 5.10457 8.5 4Z" fill="black"/>
<path d="M12.8553 8.45995L8 11.8587V9.30005C8 7.91933 9.11929 6.80005 10.5 6.80005C11.586 6.80005 12.5102 7.49249 12.8553 8.45995Z" fill="black"/>
</svg>
