<svg width="24" height="24" viewBox="0 0 24 24" fill="none" xmlns="http://www.w3.org/2000/svg">
<g opacity="0.3">
<path d="M12 12.75C11.9501 12.7456 11.8531 12.7388 11.7297 12.7306C11.4534 12.7122 11.0452 12.6864 10.7388 12.6635C10.5572 12.6499 10.4113 12.6373 10.3502 12.6279C10.4193 12.6378 10.5632 12.6503 10.7388 12.6635C11.0486 12.6869 11.4572 12.7126 11.7297 12.7306C11.8585 12.7391 11.9569 12.746 12 12.75Z" fill="black"/>
<path d="M12.2697 11.25C12.2198 11.2456 12.1228 11.2389 11.9994 11.2306C11.7232 11.2122 11.3152 11.1865 11.0089 11.1636C10.8271 11.15 10.6811 11.1374 10.6199 11.1279C10.6891 11.1378 10.8331 11.1503 11.0089 11.1636C11.3186 11.1869 11.727 11.2126 11.9994 11.2306C12.1282 11.2392 12.2266 11.246 12.2697 11.25Z" fill="black"/>
<path d="M12.0159 12.75L12 12.75C11.9501 12.7456 11.8531 12.7388 11.7297 12.7306C11.4572 12.7126 11.0486 12.6869 10.7388 12.6635C10.5572 12.6499 10.4113 12.6373 10.3502 12.6279C9.03561 12.4396 7.00926 11.9892 6 11.1892L2.87066 13.1032L2.86667 13.1057C2.58479 13.2799 2.30932 13.5481 2.14521 13.9036C1.97062 14.2818 1.92146 14.7789 2.17895 15.2556C2.49632 15.8432 3.05502 16.2889 3.6544 16.6285C4.2706 16.9777 5.0271 17.2695 5.86912 17.5047C7.55539 17.9758 9.69408 18.2499 12 18.2499C14.306 18.2499 16.4447 17.9758 18.1309 17.5047C18.9729 17.2695 19.7294 16.9777 20.3456 16.6285C20.945 16.2889 21.5037 15.8432 21.8211 15.2556C22.0786 14.7789 22.0294 14.2818 21.8548 13.9036C21.6907 13.5481 21.4153 13.2799 21.1334 13.1057L19.9996 12.405C19.9999 12.42 20 12.435 20 12.45C20 12.7224 19.9608 12.9874 19.8871 13.2388C19.5465 14.4002 18.4738 15.25 17.2 15.25C16.771 15.25 16.3639 15.1531 16 14.9803C15.6361 15.1531 15.229 15.25 14.8 15.25C13.9799 15.25 13.2411 14.8962 12.7304 14.3359C12.3407 13.9084 12.0809 13.3577 12.0159 12.75Z" fill="black"/>
<path d="M12 5.75C9.63392 5.75 7.35869 6.74799 6.42314 9.0398C6.36711 9.18185 6.29278 9.38675 6.2483 9.5362C6.23744 9.5727 6.22691 9.60935 6.21673 9.64613C7.22599 10.4461 9.30531 10.9397 10.6199 11.1279C10.6891 11.1378 10.8331 11.1503 11.0089 11.1636C11.3152 11.1865 11.7232 11.2122 11.9994 11.2306C12.1282 11.2392 12.2266 11.246 12.2697 11.25C12.2403 11.1882 12.2132 11.125 12.1883 11.0607C12.0664 10.7459 12 10.4045 12 10.05C12 8.5036 13.2536 7.25 14.8 7.25C15.2289 7.25 15.6361 7.34692 16 7.51973C16.1657 7.44106 16.3403 7.37815 16.5217 7.33295C15.3321 6.07738 13.6222 5.75 12 5.75Z" fill="black"/>
</g>
<path d="M12.0159 12.7499C11.966 12.7455 11.8531 12.7387 11.7297 12.7305C11.4534 12.7121 11.0452 12.6863 10.7388 12.6634C10.5572 12.6498 10.4113 12.6372 10.3502 12.6277C10.4193 12.6377 10.5632 12.6501 10.7388 12.6634C11.0486 12.6867 11.4572 12.7124 11.7297 12.7305C11.8585 12.739 11.9728 12.7458 12.0159 12.7499Z" fill="black"/>
<path d="M12.2697 11.25C12.2198 11.2456 12.1228 11.2387 11.9994 11.2305C11.7232 11.2121 11.3152 11.1863 11.0089 11.1634C10.8271 11.1498 10.6811 11.1372 10.6199 11.1278C10.6891 11.1377 10.8331 11.1502 11.0089 11.1634C11.3186 11.1868 11.727 11.2125 11.9994 11.2305C12.1282 11.239 12.2266 11.246 12.2697 11.25Z" fill="black"/>
<path fill-rule="evenodd" clip-rule="evenodd" d="M14.8 7.25C13.2536 7.25 12 8.5036 12 10.05C12 10.4045 12.0664 10.7459 12.1883 11.0607C12.2132 11.125 12.2403 11.1882 12.2697 11.25C12.2198 11.2456 12.1228 11.2387 11.9994 11.2305C11.727 11.2125 11.3186 11.1868 11.0089 11.1634C10.8271 11.1498 10.6811 11.1372 10.6199 11.1278C9.30531 10.9395 7.22599 10.446 6.21673 9.646C6.14448 9.89005 6 10.5403 6 11.1891C7.00926 11.9891 9.03561 12.4395 10.3502 12.6277C10.4193 12.6377 10.5632 12.6501 10.7388 12.6634C11.0452 12.6863 11.4534 12.7121 11.7297 12.7305C11.8585 12.739 11.9728 12.7458 12.0159 12.7499C12.0808 13.3576 12.3406 13.9084 12.7304 14.3359C13.2411 14.8962 13.9799 15.25 14.8 15.25C15.229 15.25 15.6361 15.1531 16 14.9803C16.3639 15.1531 16.771 15.25 17.2 15.25C18.4738 15.25 19.5465 14.4002 19.8871 13.2388C19.9608 12.9874 20 12.7224 20 12.45C20 12.021 19.9031 11.6139 19.7303 11.25C19.9031 10.8861 20 10.479 20 10.05C20 8.5036 18.7464 7.25 17.2 7.25C16.7717 7.25 16.3643 7.34677 16 7.51973C15.6361 7.34692 15.2289 7.25 14.8 7.25ZM16 10.25C15.4477 10.25 15 10.6977 15 11.25C15 11.8023 15.4477 12.25 16 12.25H16.01C16.5623 12.25 17.01 11.8023 17.01 11.25C17.01 10.6977 16.5623 10.25 16.01 10.25H16Z" fill="black"/>
</svg>
