<svg width="24" height="24" viewBox="0 0 24 24" fill="none" xmlns="http://www.w3.org/2000/svg">
<g opacity="0.3">
<path d="M2 4C2 2.89543 2.89543 2 4 2C5.10457 2 6 2.89543 6 4C6 5.10457 5.10457 6 4 6C2.89543 6 2 5.10457 2 4Z" fill="black"/>
<path d="M13 2C13.5523 2 14 2.44772 14 3V3.75736C14 4.28779 14.2107 4.7965 14.5858 5.17157L14.8284 5.41421C15.5786 6.16436 16 7.18177 16 8.24264V9C16 9.55228 15.5523 10 15 10C14.4477 10 14 9.55228 14 9V8.24264C14 7.71221 13.7893 7.2035 13.4142 6.82843L13.1716 6.58579C12.4214 5.83564 12 4.81822 12 3.75736V3C12 2.44772 12.4477 2 13 2Z" fill="black"/>
<path d="M18 3C18 2.44772 17.5523 2 17 2C16.4477 2 16 2.44772 16 3V3.75736C16 4.81822 16.4214 5.83564 17.1716 6.58579L17.4142 6.82843C17.7893 7.2035 18 7.71221 18 8.24264V9C18 9.55228 18.4477 10 19 10C19.5523 10 20 9.55228 20 9V8.24264C20 7.18177 19.5786 6.16436 18.8284 5.41421L18.5858 5.17157C18.2107 4.7965 18 4.28779 18 3.75736V3Z" fill="black"/>
<path d="M8.53553 8.12132L12.4142 12H2V10.8284C2 8.71405 3.71405 7 5.82843 7C6.84379 7 7.81756 7.40335 8.53553 8.12132Z" fill="black"/>
</g>
<path fill-rule="evenodd" clip-rule="evenodd" d="M5 22C3.34315 22 2 20.6569 2 19V12H12.4142H19C20.6569 12 22 13.3431 22 15V19C22 20.6569 20.6569 22 19 22H5ZM8 16C8 15.4477 7.55228 15 7 15C6.44772 15 6 15.4477 6 16V18C6 18.5523 6.44772 19 7 19C7.55228 19 8 18.5523 8 18V16ZM12 15C12.5523 15 13 15.4477 13 16V18C13 18.5523 12.5523 19 12 19C11.4477 19 11 18.5523 11 18V16C11 15.4477 11.4477 15 12 15ZM18 16C18 15.4477 17.5523 15 17 15C16.4477 15 16 15.4477 16 16V18C16 18.5523 16.4477 19 17 19C17.5523 19 18 18.5523 18 18V16Z" fill="black"/>
</svg>
