<svg width="24" height="24" viewBox="0 0 24 24" fill="none" xmlns="http://www.w3.org/2000/svg">
<path d="M10.0189 11.3752L12.0052 9.44434H14.4808C14.8395 10.4281 15.0139 11.5415 15.0967 12.5634C15.1951 13.7786 15.1727 15.0012 15.1019 15.9999H9.26562C9.47389 15.2791 9.70062 14.3267 9.85077 13.3138C9.94826 12.6562 10.0096 11.9977 10.0189 11.3752Z" fill="black"/>
<path d="M17.8008 9.44444V7.27783C17.8008 6.72555 17.3531 6.27783 16.8008 6.27783C16.2485 6.27783 15.8008 6.72555 15.8008 7.27783V9.44444H17.8008Z" fill="black"/>
<g opacity="0.3">
<path d="M4.00001 7.88889H5.73575C5.08013 9.62766 5.46905 11.6576 6.90158 13.0503C7.28968 13.4276 7.90756 13.4277 8.29569 13.0504L12.0052 9.44444H20C20.5523 9.44444 21 8.99673 21 8.44444C21 5.71802 18.7347 3.55556 16 3.55556C15.0618 3.55556 14.1809 3.80902 13.4279 4.25132C12.366 2.87937 10.6832 2 8.79927 2C5.96312 2 3.48302 4.0042 3.01457 6.71884C2.96442 7.0095 3.04513 7.30747 3.23514 7.53307C3.42514 7.75868 3.70505 7.88889 4.00001 7.88889Z" fill="black"/>
<path d="M8 16C5.23858 16 3 18.2386 3 21C3 21.5523 3.44772 22 4 22H20C20.5523 22 21 21.5523 21 21C21 18.2386 18.7614 16 16 16H8Z" fill="black"/>
</g>
</svg>
