<svg width="24" height="24" viewBox="0 0 24 24" fill="none" xmlns="http://www.w3.org/2000/svg">
<g opacity="0.3">
<path d="M22 6.5H12V10.5C12 12.1569 13.3431 13.5 15 13.5H19C20.6569 13.5 22 12.1569 22 10.5V6.5Z" fill="black"/>
<path d="M6.5 20C8.433 20 10 18.433 10 16.5C10 14.567 8.433 13 6.5 13C4.567 13 3 14.567 3 16.5C3 18.433 4.567 20 6.5 20Z" fill="black"/>
</g>
<path fill-rule="evenodd" clip-rule="evenodd" d="M6.5 2C5.39543 2 4.5 2.89543 4.5 4V7C4.5 7.74028 4.9022 8.38663 5.5 8.73244V11.0907C2.93988 11.5609 1 13.8039 1 16.5C1 19.5376 3.46243 22 6.5 22C9.53757 22 12 19.5376 12 16.5C12 13.8039 10.0601 11.5609 7.5 11.0907V8.73244C8.0978 8.38663 8.5 7.74028 8.5 7V4C8.5 2.89543 7.60457 2 6.5 2ZM3 16.5C3 14.567 4.567 13 6.5 13C8.433 13 10 14.567 10 16.5C10 18.433 8.433 20 6.5 20C4.567 20 3 18.433 3 16.5Z" fill="black"/>
<path fill-rule="evenodd" clip-rule="evenodd" d="M16 2C14.8954 2 14 2.89543 14 4V4.5H12C11.4477 4.5 11 4.94772 11 5.5C11 6.05228 11.4477 6.5 12 6.5H22C22.5523 6.5 23 6.05228 23 5.5C23 4.94772 22.5523 4.5 22 4.5H20V4C20 2.89543 19.1046 2 18 2H16ZM18 4.5V4H16V4.5H18Z" fill="black"/>
</svg>
