<svg width="24" height="24" viewBox="0 0 24 24" fill="none" xmlns="http://www.w3.org/2000/svg">
<path opacity="0.3" fill-rule="evenodd" clip-rule="evenodd" d="M3.61498 7.53445C3.78787 7.20579 4.12864 7 4.5 7L15.5 7C15.8714 7 16.2121 7.20579 16.385 7.53445C16.5579 7.86311 16.5344 8.26051 16.324 8.56653L11 16.3106V21H13.5C14.0523 21 14.5 21.4477 14.5 22C14.5 22.5523 14.0523 23 13.5 23H6.5C5.94772 23 5.5 22.5523 5.5 22C5.5 21.4477 5.94772 21 6.5 21H9V16.3106L3.67596 8.56653C3.46557 8.26051 3.44209 7.86311 3.61498 7.53445Z" fill="black"/>
<path d="M12.6722 7C13.0841 5.83481 14.1953 5 15.5015 5C17.1584 5 18.5015 6.34315 18.5015 8C18.5015 9.65685 17.1584 11 15.5015 11C15.2317 11 14.9707 10.9646 14.7226 10.8981L13.5496 12.6044C14.1499 12.8591 14.81 13 15.5015 13C18.263 13 20.5015 10.7614 20.5015 8C20.5015 5.23858 18.263 3 15.5015 3C13.0826 3 11.0648 4.71776 10.6016 7L12.6722 7Z" fill="black"/>
</svg>
