<svg width="24" height="24" viewBox="0 0 24 24" fill="none" xmlns="http://www.w3.org/2000/svg">
<path opacity="0.3" fill-rule="evenodd" clip-rule="evenodd" d="M2 7C2 5.34315 3.34315 4 5 4H19C20.6569 4 22 5.34315 22 7V15C22 16.6569 20.6569 18 19 18V19C19 19.5523 18.5523 20 18 20C17.4477 20 17 19.5523 17 19V18H7V19C7 19.5523 6.55228 20 6 20C5.44772 20 5 19.5523 5 19V18C3.34315 18 2 16.6569 2 15V7ZM18 7C18.5523 7 19 7.44772 19 8V14C19 14.5523 18.5523 15 18 15C17.4477 15 17 14.5523 17 14V8C17 7.44772 17.4477 7 18 7ZM6.5 7.06301C5.39543 7.06301 4.5 7.95844 4.5 9.06301V13.063C4.5 14.1676 5.39543 15.063 6.5 15.063H13.5C14.6046 15.063 15.5 14.1676 15.5 13.063V9.06301C15.5 7.95844 14.6046 7.06301 13.5 7.06301H6.5Z" fill="black"/>
<path d="M4.5 9.06299C4.5 7.95842 5.39543 7.06299 6.5 7.06299H13.5C14.6046 7.06299 15.5 7.95842 15.5 9.06299V13.063C15.5 14.1676 14.6046 15.063 13.5 15.063H6.5C5.39543 15.063 4.5 14.1676 4.5 13.063V9.06299Z" fill="black"/>
</svg>
