<svg width="24" height="24" viewBox="0 0 24 24" fill="none" xmlns="http://www.w3.org/2000/svg">
<path opacity="0.3" fill-rule="evenodd" clip-rule="evenodd" d="M3 5C3 3.34315 4.34315 2 6 2H18C19.6569 2 21 3.34315 21 5V19C21 20.6569 19.6569 22 18 22H6C4.34315 22 3 20.6569 3 19V5ZM11 11C11 10.4477 10.5523 10 10 10C9.44772 10 9 10.4477 9 11V13C9 13.5523 9.44772 14 10 14C10.5523 14 11 13.5523 11 13V11ZM14 10C14.5523 10 15 10.4477 15 11V13C15 13.5523 14.5523 14 14 14C13.4477 14 13 13.5523 13 13V11C13 10.4477 13.4477 10 14 10Z" fill="black"/>
<path fill-rule="evenodd" clip-rule="evenodd" d="M8.5 8H15.5C16.3284 8 17 9.79086 17 12C17 14.2091 16.3284 16 15.5 16H8.5C7.67157 16 7 14.2091 7 12C7 9.79086 7.67157 8 8.5 8ZM10 10C10.5523 10 11 10.4477 11 11V13C11 13.5523 10.5523 14 10 14C9.44772 14 9 13.5523 9 13V11C9 10.4477 9.44772 10 10 10ZM14 10C14.5523 10 15 10.4477 15 11V13C15 13.5523 14.5523 14 14 14C13.4477 14 13 13.5523 13 13V11C13 10.4477 13.4477 10 14 10Z" fill="black"/>
</svg>
