<svg width="24" height="24" viewBox="0 0 24 24" fill="none" xmlns="http://www.w3.org/2000/svg">
<g opacity="0.3">
<path fill-rule="evenodd" clip-rule="evenodd" d="M8 2C5.23858 2 3 4.23858 3 7V8H21V7C21 4.23858 18.7614 2 16 2H8ZM6.5 6C6.5 5.44772 6.94772 5 7.5 5H7.51C8.06228 5 8.51 5.44772 8.51 6C8.51 6.55228 8.06228 7 7.51 7H7.5C6.94772 7 6.5 6.55228 6.5 6ZM9.5 6C9.5 5.44772 9.94772 5 10.5 5H10.51C11.0623 5 11.51 5.44772 11.51 6C11.51 6.55228 11.0623 7 10.51 7H10.5C9.94772 7 9.5 6.55228 9.5 6ZM12.5 6C12.5 5.44772 12.9477 5 13.5 5H13.51C14.0623 5 14.51 5.44772 14.51 6C14.51 6.55228 14.0623 7 13.51 7H13.5C12.9477 7 12.5 6.55228 12.5 6ZM15.5 6C15.5 5.44772 15.9477 5 16.5 5H16.51C17.0623 5 17.51 5.44772 17.51 6C17.51 6.55228 17.0623 7 16.51 7H16.5C15.9477 7 15.5 6.55228 15.5 6Z" fill="black"/>
<path fill-rule="evenodd" clip-rule="evenodd" d="M21 9H3V19C3 20.6569 4.34315 22 6 22H18C19.6569 22 21 20.6569 21 19V9ZM6 13C6 11.8954 6.89543 11 8 11H16C17.1046 11 18 11.8954 18 13V18C18 19.1046 17.1046 20 16 20H8C6.89543 20 6 19.1046 6 18V13Z" fill="black"/>
</g>
<path d="M21 8V9H3V8H21Z" fill="black"/>
<path fill-rule="evenodd" clip-rule="evenodd" d="M8 11C6.89543 11 6 11.8954 6 13V18C6 19.1046 6.89543 20 8 20H16C17.1046 20 18 19.1046 18 18V13C18 11.8954 17.1046 11 16 11H8ZM9 14.5C9 13.9477 9.44772 13.5 10 13.5H14C14.5523 13.5 15 13.9477 15 14.5C15 15.0523 14.5523 15.5 14 15.5H10C9.44772 15.5 9 15.0523 9 14.5Z" fill="black"/>
</svg>
