<svg width="24" height="24" viewBox="0 0 24 24" fill="none" xmlns="http://www.w3.org/2000/svg">
<g opacity="0.3">
<path d="M9.17071 9C9.28367 8.6804 9.44925 8.38566 9.65704 8.12618C9.60762 8.40641 9.56941 8.69888 9.54305 9H9.17071Z" fill="black"/>
<path d="M9.17071 11H9.54305C9.56941 11.3011 9.60762 11.5936 9.65704 11.8738C9.44925 11.6143 9.28367 11.3196 9.17071 11Z" fill="black"/>
<path d="M14.8293 11C14.7163 11.3196 14.5508 11.6143 14.343 11.8738C14.3924 11.5936 14.4306 11.3011 14.4569 11H14.8293Z" fill="black"/>
<path d="M12.1243 12.4773C12.2677 12.0949 12.3841 11.5886 12.4476 11H11.5524C11.6159 11.5886 11.7323 12.0949 11.8757 12.4773C11.9182 12.5908 11.9603 12.6857 12 12.7642C12.0397 12.6857 12.0818 12.5908 12.1243 12.4773Z" fill="black"/>
<path d="M11.8757 7.5227C11.7323 7.90509 11.6159 8.41143 11.5524 9H12.4476C12.3841 8.41143 12.2677 7.90509 12.1243 7.5227C12.0818 7.40925 12.0397 7.31426 12 7.23584C11.9603 7.31426 11.9182 7.40925 11.8757 7.5227Z" fill="black"/>
<path d="M14.343 8.12618C14.3924 8.40641 14.4306 8.69888 14.4569 9H14.8293C14.7163 8.6804 14.5508 8.38566 14.343 8.12618Z" fill="black"/>
<path fill-rule="evenodd" clip-rule="evenodd" d="M3 4C3 2.34315 4.34315 1 6 1H18C19.6569 1 21 2.34315 21 4V20C21 21.6569 19.6569 23 18 23H6C4.34315 23 3 21.6569 3 20V4ZM7 10C7 7.23858 9.23858 5 12 5C14.7614 5 17 7.23858 17 10C17 12.7614 14.7614 15 12 15C9.23858 15 7 12.7614 7 10ZM7 18C7 17.4477 7.44772 17 8 17H16C16.5523 17 17 17.4477 17 18C17 18.5523 16.5523 19 16 19H8C7.44772 19 7 18.5523 7 18Z" fill="black"/>
</g>
<path fill-rule="evenodd" clip-rule="evenodd" d="M12 5C9.23858 5 7 7.23858 7 10C7 12.7614 9.23858 15 12 15C14.7614 15 17 12.7614 17 10C17 7.23858 14.7614 5 12 5ZM9.17071 9C9.28367 8.6804 9.44925 8.38566 9.65704 8.12618C9.60762 8.40641 9.56941 8.69888 9.54305 9H9.17071ZM9.17071 11H9.54305C9.56941 11.3011 9.60762 11.5936 9.65704 11.8738C9.44925 11.6143 9.28367 11.3196 9.17071 11ZM14.8293 11C14.7163 11.3196 14.5508 11.6143 14.343 11.8738C14.3924 11.5936 14.4306 11.3011 14.4569 11H14.8293ZM12.1243 12.4773C12.2677 12.0949 12.3841 11.5886 12.4476 11H11.5524C11.6159 11.5886 11.7323 12.0949 11.8757 12.4773C11.9182 12.5908 11.9603 12.6857 12 12.7642C12.0397 12.6857 12.0818 12.5908 12.1243 12.4773ZM11.8757 7.5227C11.7323 7.90509 11.6159 8.41143 11.5524 9H12.4476C12.3841 8.41143 12.2677 7.90509 12.1243 7.5227C12.0818 7.40925 12.0397 7.31426 12 7.23584C11.9603 7.31426 11.9182 7.40925 11.8757 7.5227ZM14.343 8.12618C14.3924 8.40641 14.4306 8.69888 14.4569 9H14.8293C14.7163 8.6804 14.5508 8.38566 14.343 8.12618Z" fill="black"/>
<path d="M8 17C7.44772 17 7 17.4477 7 18C7 18.5523 7.44772 19 8 19H16C16.5523 19 17 18.5523 17 18C17 17.4477 16.5523 17 16 17H8Z" fill="black"/>
</svg>
