<svg width="24" height="24" viewBox="0 0 24 24" fill="none" xmlns="http://www.w3.org/2000/svg">
<g opacity="0.3">
<path d="M2 7C2 5.34315 3.34315 4 5 4C6.65685 4 8 5.34315 8 7C8 8.65685 6.65685 10 5 10C3.34315 10 2 8.65685 2 7Z" fill="black"/>
<path d="M16.3767 7C14.9667 7 13.6004 7.36683 12.4011 8.04131L22.1006 15.3272C22.3521 15.5161 22.5 15.8122 22.5 16.1267V17.6716L22.2981 17.4697C21.3571 16.5287 20.0808 16 18.75 16C17.4192 16 16.1429 16.5287 15.2019 17.4697L14.9697 17.7019C14.7788 17.8928 14.5199 18 14.25 18C13.9801 18 13.7212 17.8928 13.5303 17.7019L13.2981 17.4697C12.3571 16.5287 11.0808 16 9.75 16C8.41921 16 7.14292 16.5287 6.2019 17.4697L5.96967 17.7019C5.7788 17.8928 5.51993 18 5.25 18C4.98007 18 4.7212 17.8928 4.53033 17.7019L4.32341 17.495L6.31794 12.5087C6.85306 11.1709 7.58241 9.91925 8.4825 8.79414C8.95186 8.20745 9.48034 7.68062 10.0559 7.21954C11.8323 5.79649 14.057 5 16.3767 5H20.9984C21.5507 5 21.9984 5.44772 21.9984 6C21.9984 6.55228 21.5507 7 20.9984 7H16.3767Z" fill="black"/>
</g>
<path fill-rule="evenodd" clip-rule="evenodd" d="M9.75 19C9.21485 19 8.70163 19.2126 8.32322 19.591L8.09099 19.8232C7.33751 20.5767 6.31558 21 5.25 21C4.18442 21 3.16249 20.5767 2.40901 19.8232L1.79289 19.2071C1.40237 18.8166 1.40237 18.1834 1.79289 17.7929C2.18342 17.4024 2.81658 17.4024 3.20711 17.7929L3.82322 18.409C4.20163 18.7874 4.71486 19 5.25 19C5.78515 19 6.29837 18.7874 6.67678 18.409L6.90901 18.1768C7.66249 17.4233 8.68442 17 9.75 17C10.8156 17 11.8375 17.4233 12.591 18.1768L12.8232 18.409C13.2016 18.7874 13.7149 19 14.25 19C14.7851 19 15.2984 18.7874 15.6768 18.409L15.909 18.1768C16.6625 17.4233 17.6844 17 18.75 17C19.8156 17 20.8375 17.4233 21.591 18.1768L22.2071 18.7929C22.5976 19.1834 22.5976 19.8166 22.2071 20.2071C21.8166 20.5976 21.1834 20.5976 20.7929 20.2071L20.1768 19.591C19.7984 19.2126 19.2851 19 18.75 19C18.2149 19 17.7016 19.2126 17.3232 19.591L17.091 19.8232C16.3375 20.5767 15.3156 21 14.25 21C13.1844 21 12.1625 20.5767 11.409 19.8232L11.1768 19.591C10.7984 19.2126 10.2851 19 9.75 19Z" fill="black"/>
</svg>
