<svg width="24" height="24" viewBox="0 0 24 24" fill="none" xmlns="http://www.w3.org/2000/svg">
<path opacity="0.3" d="M11.3931 8.864L11.4441 9H15.0011C15.5534 9 16.0011 9.44772 16.0011 10C16.0011 10.5523 15.5534 11 15.0011 11H12.1941L13.6941 15H14.7651C15.9014 15 16.9402 15.642 17.4484 16.6584L18.9841 19.7298L20.6297 19.0715C21.1425 18.8664 21.7245 19.1158 21.9296 19.6286C22.1347 20.1414 21.8853 20.7234 21.3725 20.9285L18.8725 21.9285C18.3896 22.1216 17.8393 21.9124 17.6067 21.4472L15.6595 17.5528C15.4901 17.214 15.1438 17 14.7651 17H10.3871C9.1366 17 8.01724 16.2243 7.57815 15.0534L6.01363 10.8813C5.30938 9.00331 6.69768 7 8.70338 7C9.90084 7 10.9727 7.74279 11.3931 8.864Z" fill="black"/>
<path d="M7.00026 2C5.89569 2 5.00026 2.89543 5.00026 4C5.00026 5.10457 5.89569 6 7.00026 6C8.10483 6 9.00026 5.10457 9.00026 4C9.00026 2.89543 8.10483 2 7.00026 2Z" fill="black"/>
<path d="M3.95809 8.71265C3.79939 8.18366 3.24191 7.88348 2.71292 8.04217C2.18392 8.20087 1.88374 8.75836 2.04244 9.28735L4.18725 16.4367C4.82173 18.5517 6.76834 20 8.97639 20H13.0003C13.5525 20 14.0003 19.5523 14.0003 19C14.0003 18.4477 13.5525 18 13.0003 18H8.97639C7.65156 18 6.48359 17.131 6.10291 15.862L3.95809 8.71265Z" fill="black"/>
</svg>
