<svg width="24" height="24" viewBox="0 0 24 24" fill="none" xmlns="http://www.w3.org/2000/svg">
<path d="M17.0002 2C15.8956 2 15.0002 2.89543 15.0002 4C15.0002 5.10457 15.8956 6 17.0002 6C18.1048 6 19.0002 5.10457 19.0002 4C19.0002 2.89543 18.1048 2 17.0002 2Z" fill="black"/>
<path d="M14.2848 5.87411C12.3964 5.24462 10.3324 6.09954 9.44219 7.87998L9.10579 8.55279C8.8588 9.04677 9.05903 9.64744 9.55301 9.89443C10.047 10.1414 10.6477 9.94119 10.8946 9.44721L11.231 8.77441C11.6208 7.99485 12.4606 7.57016 13.2975 7.68797L12.0301 12.7575C11.9033 13.2644 12.1883 13.7834 12.684 13.9487L15.5413 14.9011L18.3898 16.9357C18.5617 17.0586 18.6904 17.2327 18.7572 17.4332L20.0515 21.3162C20.2262 21.8402 20.7925 22.1233 21.3164 21.9487C21.8404 21.774 22.1236 21.2077 21.9489 20.6838L20.6546 16.8008C20.4541 16.1993 20.0682 15.6768 19.5522 15.3082L17.1355 13.582L17.9221 10.4356L18.3236 11.0378C18.6602 11.5428 19.1421 11.9338 19.7056 12.1592L21.6288 12.9285C22.1416 13.1336 22.7236 12.8842 22.9287 12.3714C23.1338 11.8586 22.8844 11.2766 22.3716 11.0715L20.4484 10.3022C20.2605 10.2271 20.0999 10.0968 19.9877 9.92845L18.3323 7.4453C18.2089 7.26027 18.0274 7.12164 17.8164 7.05132L14.2848 5.87411Z" fill="black"/>
<path d="M12.9808 16.1961C13.0891 15.6546 12.7379 15.1277 12.1963 15.0194C11.6548 14.9111 11.128 15.2623 11.0196 15.8039L10.5536 18.134L9.14273 20.4855C8.85858 20.9591 9.01214 21.5733 9.48572 21.8575C9.9593 22.1416 10.5736 21.9881 10.8577 21.5145L12.3577 19.0145C12.4167 18.9162 12.4583 18.8085 12.4808 18.6961L12.9808 16.1961Z" fill="black"/>
<path opacity="0.3" d="M9.90943 11.797C10.0734 11.2696 9.77889 10.7092 9.25152 10.5451C8.72415 10.3811 8.16368 10.6757 7.99966 11.203L7.50279 12.8007L4.41957 12.0299C3.90507 11.9013 3.37964 12.1966 3.22215 12.703L1.04512 19.703C0.963441 19.9657 0.993531 20.2503 1.12831 20.4901C1.26309 20.7298 1.49065 20.9035 1.75747 20.9702L5.75747 21.9702C6.27196 22.0988 6.79739 21.8034 6.95489 21.297L9.90943 11.797Z" fill="black"/>
</svg>
