<svg width="24" height="24" viewBox="0 0 24 24" fill="none" xmlns="http://www.w3.org/2000/svg">
<path opacity="0.3" d="M7.5 2C7.18265 2 6.88415 2.15063 6.69561 2.4059C6.50707 2.66117 6.45089 2.99077 6.54422 3.29409L7.97276 7.93683L7.25623 7.69798L6.42848 5.62861C6.32684 5.37451 6.12549 5.17316 5.87139 5.07152L3.37139 4.07152C3.0633 3.94829 2.71414 3.9859 2.43937 4.17193C2.1646 4.35796 2 4.66818 2 5V10.5C2 10.8448 2.17762 11.1653 2.47 11.348L6.47 13.848C6.54092 13.8923 6.61711 13.9276 6.6968 13.9529L17.2373 17.3067C17.6903 17.4509 18.1711 17.4853 18.6401 17.4071L19.8395 17.2072C21.0862 16.9994 22 15.9207 22 14.6568C22 13.971 21.7276 13.3134 21.2427 12.8285L19.5988 11.1846C19.2143 10.8001 18.7326 10.5274 18.2051 10.3955L15.1734 9.63757L11.6647 3.05882C11.3171 2.4071 10.6386 2 9.9 2H7.5Z" fill="black"/>
<path d="M3.5 15.5C3.5 14.9477 3.94772 14.5 4.5 14.5H4.51C5.06228 14.5 5.51 14.9477 5.51 15.5C5.51 16.0523 5.06228 16.5 4.51 16.5H4.5C3.94772 16.5 3.5 16.0523 3.5 15.5Z" fill="black"/>
<path d="M9.98828 16.5C9.436 16.5 8.98828 16.9477 8.98828 17.5C8.98828 18.0523 9.436 18.5 9.98828 18.5H9.99828C10.5506 18.5 10.9983 18.0523 10.9983 17.5C10.9983 16.9477 10.5506 16.5 9.99828 16.5H9.98828Z" fill="black"/>
<path d="M2 21C2 20.4477 2.44772 20 3 20H21C21.5523 20 22 20.4477 22 21C22 21.5523 21.5523 22 21 22H3C2.44772 22 2 21.5523 2 21Z" fill="black"/>
</svg>
