<svg width="24" height="24" viewBox="0 0 24 24" fill="none" xmlns="http://www.w3.org/2000/svg">
<g opacity="0.3">
<path d="M17.9988 2C16.6181 2 15.4988 3.11929 15.4988 4.5C15.4988 5.88071 16.6181 7 17.9988 7C19.3795 7 20.4988 5.88071 20.4988 4.5C20.4988 3.11929 19.3795 2 17.9988 2Z" fill="black"/>
<path d="M17.7498 8.5C16.2462 8.5 14.9748 9.61309 14.7761 11.1035L14.1585 15.7357C14.0284 16.7112 14.6216 17.5982 15.4988 17.895V21C15.4988 21.5523 15.9465 22 16.4988 22C17.0511 22 17.4988 21.5523 17.4988 21V18H18.4988V21C18.4988 21.5523 18.9465 22 19.4988 22C20.0511 22 20.4988 21.5523 20.4988 21V17.895C21.3759 17.5982 21.9691 16.7112 21.839 15.7357L21.2214 11.1035C21.0227 9.61309 19.7513 8.5 18.2477 8.5H17.7498Z" fill="black"/>
<path d="M5.99857 2.5C4.61785 2.5 3.49857 3.61929 3.49857 5C3.49857 6.38071 4.61785 7.5 5.99857 7.5C7.37928 7.5 8.49857 6.38071 8.49857 5C8.49857 3.61929 7.37928 2.5 5.99857 2.5Z" fill="black"/>
<path d="M5 9C3.34231 9 1.99881 10.3445 2 12.0022L2.00176 14.4509C2.00242 15.3811 2.63806 16.1626 3.49857 16.3856V21C3.49857 21.5523 3.94628 22 4.49857 22C5.05085 22 5.49857 21.5523 5.49857 21V16.4495H6.49857V21C6.49857 21.5523 6.94628 22 7.49857 22C8.05085 22 8.49857 21.5523 8.49857 21V16.3875C9.36316 16.1668 10.0025 15.3828 10.0025 14.4495V12C10.0025 10.3431 8.65933 9 7.00247 9H5Z" fill="black"/>
</g>
<path d="M13 3C13 2.44772 12.5523 2 12 2C11.4477 2 11 2.44772 11 3V21C11 21.5523 11.4477 22 12 22C12.5523 22 13 21.5523 13 21V3Z" fill="black"/>
</svg>
