<svg width="24" height="24" viewBox="0 0 24 24" fill="none" xmlns="http://www.w3.org/2000/svg">
<g opacity="0.3">
<path d="M6.71895 2.37534C6.90872 2.1381 7.19605 2 7.49985 2H10.4998C10.8036 2 11.0909 2.13808 11.2807 2.37527L13.2809 4.87527C13.5321 5.18925 13.5708 5.62315 13.3791 5.97664L11.9337 8.64255C11.0414 8.23011 10.0476 8 9 8C7.95236 8 6.95848 8.23014 6.06615 8.64263L4.62088 5.97658C4.42927 5.62313 4.46797 5.18929 4.71911 4.87534L6.71895 2.37534Z" fill="black"/>
<path d="M9.00001 10C9.02707 10 9.05408 10.0002 9.08103 10.0006L9.00001 10Z" fill="black"/>
<path d="M22.0006 15C22.0006 11.134 18.8666 8 15.0006 8C14.3961 8 13.8095 8.07662 13.25 8.22068C14.0133 8.70012 14.6899 9.3049 15.2509 10.0062C17.896 10.1366 20.0006 12.3225 20.0006 15C20.0006 17.6775 17.896 19.8634 15.2509 19.9938C14.6899 20.6951 14.0133 21.2999 13.25 21.7793C13.8095 21.9234 14.3961 22 15.0006 22C18.8666 22 22.0006 18.866 22.0006 15Z" fill="black"/>
</g>
<path fill-rule="evenodd" clip-rule="evenodd" d="M9 10C6.23858 10 4 12.2386 4 15C4 17.7614 6.23858 20 9 20C11.7614 20 14 17.7614 14 15C14 12.2386 11.7614 10 9 10ZM2 15C2 11.134 5.13401 8 9 8C12.866 8 16 11.134 16 15C16 18.866 12.866 22 9 22C5.13401 22 2 18.866 2 15Z" fill="black"/>
</svg>
