<svg width="24" height="24" viewBox="0 0 24 24" fill="none" xmlns="http://www.w3.org/2000/svg">
<g opacity="0.3">
<path d="M9.71895 2.37534C9.90872 2.1381 10.196 2 10.4998 2H13.4998C13.8036 2 14.0909 2.13808 14.2807 2.37527L16.2809 4.87527C16.5321 5.18925 16.5708 5.62315 16.3791 5.97664L14.9337 8.64255C14.0414 8.23011 13.0476 8 12 8C10.9524 8 9.95848 8.23014 9.06615 8.64263L7.62088 5.97658C7.42927 5.62313 7.46797 5.18929 7.71911 4.87534L9.71895 2.37534Z" fill="black"/>
<path d="M12 10C12.0271 10 12.0541 10.0002 12.081 10.0006L12 10Z" fill="black"/>
</g>
<path fill-rule="evenodd" clip-rule="evenodd" d="M12 10C9.23858 10 7 12.2386 7 15C7 17.7614 9.23858 20 12 20C14.7614 20 17 17.7614 17 15C17 12.2386 14.7614 10 12 10ZM5 15C5 11.134 8.13401 8 12 8C15.866 8 19 11.134 19 15C19 18.866 15.866 22 12 22C8.13401 22 5 18.866 5 15Z" fill="black"/>
</svg>
