<svg width="24" height="24" viewBox="0 0 24 24" fill="none" xmlns="http://www.w3.org/2000/svg">
<g opacity="0.3">
<path d="M3.19369 5.0813C3.74399 4.42055 4.57288 4 5.5 4H13.5C14.4271 4 15.256 4.42055 15.8063 5.0813C15.5459 5.02799 15.2762 5 15 5H4C3.7238 5 3.45414 5.02799 3.19369 5.0813Z" fill="black"/>
<path d="M2.5 17.7092V19C2.5 20.6569 3.84315 22 5.5 22H18C20.2091 22 22 20.2091 22 18V11.7324C22.5978 11.3866 23 10.7403 23 10C23 8.89543 22.1046 8 21 8C19.8954 8 19 8.89543 19 10C19 10.7403 19.4022 11.3866 20 11.7324V18C20 19.1046 19.1046 20 18 20H16.3293C16.4398 19.6872 16.5 19.3506 16.5 19V17.7092C16.0368 17.8967 15.5304 18 15 18H4C3.46955 18 2.96322 17.8967 2.5 17.7092Z" fill="black"/>
</g>
<path fill-rule="evenodd" clip-rule="evenodd" d="M1.50476 7.33397C1.77461 6.93075 2.13964 6.5967 2.56761 6.36372C2.99324 6.13202 3.48129 6 4 6H15C15.5187 6 16.0067 6.13165 16.4323 6.36336C16.8603 6.59633 17.2254 6.93075 17.4952 7.33397C17.7772 7.75535 17.9553 8.25226 17.9927 8.78829C17.9975 8.85822 18 8.92882 18 9V14C18 14.116 17.9934 14.2305 17.9806 14.343C17.9253 14.8295 17.7537 15.2804 17.4943 15.6674C17.2389 16.0486 16.8984 16.3679 16.5 16.5983C16.0587 16.8536 15.5464 17 15 17H4C3.45357 17 2.94126 16.8539 2.5 16.5987C2.10164 16.3683 1.76112 16.0486 1.5057 15.6674C1.18629 15.1906 1 14.617 1 14V9C1 8.38356 1.18592 7.81054 1.50476 7.33397ZM3.5 10.5C3.5 9.94772 3.94772 9.5 4.5 9.5H6C6.32798 9.5 6.63511 9.66083 6.82193 9.93041C7.00874 10.2 7.05149 10.544 6.93633 10.8511L6.18633 12.8511C5.99241 13.3682 5.416 13.6302 4.89888 13.4363C4.38176 13.2424 4.11975 12.666 4.31367 12.1489L4.557 11.5H4.5C3.94772 11.5 3.5 11.0523 3.5 10.5ZM7.75 10.5C7.75 9.94772 8.19772 9.5 8.75 9.5H10.25C10.578 9.5 10.8851 9.66083 11.0719 9.93041C11.2587 10.2 11.3015 10.544 11.1863 10.8511L10.4363 12.8511C10.2424 13.3682 9.666 13.6302 9.14888 13.4363C8.63176 13.2424 8.36975 12.666 8.56367 12.1489L8.807 11.5H8.75C8.19772 11.5 7.75 11.0523 7.75 10.5ZM12 10.5C12 9.94772 12.4477 9.5 13 9.5H14.5C14.828 9.5 15.1351 9.66083 15.3219 9.93041C15.5087 10.2 15.5515 10.544 15.4363 10.8511L14.6863 12.8511C14.4924 13.3682 13.916 13.6302 13.3989 13.4363C12.8818 13.2424 12.6198 12.666 12.8137 12.1489L13.057 11.5H13C12.4477 11.5 12 11.0523 12 10.5Z" fill="black"/>
</svg>
