<svg width="24" height="24" viewBox="0 0 24 24" fill="none" xmlns="http://www.w3.org/2000/svg">
<g opacity="0.3">
<path d="M17 4C17 3.44772 16.5523 3 16 3C15.4477 3 15 3.44772 15 4V4.5C15 6.01459 15.4912 7.48833 16.4 8.7L17 9.5C17.6491 10.3655 18 11.4181 18 12.5V13C18 13.5523 18.4477 14 19 14C19.5523 14 20 13.5523 20 13V12.5C20 10.9854 19.5088 9.51167 18.6 8.3L18 7.5C17.3509 6.63452 17 5.58185 17 4.5V4Z" fill="black"/>
<path d="M20 4C20 3.44772 19.5523 3 19 3C18.4477 3 18 3.44772 18 4C18 5.16277 18.316 6.30367 18.9143 7.30074L20.2875 9.58943C20.7537 10.3665 21 11.2557 21 12.1619V13C21 13.5523 21.4477 14 22 14C22.5523 14 23 13.5523 23 13V12.1619C23 10.8932 22.6552 9.64834 22.0025 8.56043L20.6292 6.27174C20.2175 5.58551 20 4.80028 20 4Z" fill="black"/>
<path d="M20 16C20 15.4477 19.5523 15 19 15C18.4477 15 18 15.4477 18 16V20C18 20.5523 18.4477 21 19 21C19.5523 21 20 20.5523 20 20V16Z" fill="black"/>
<path d="M23 16C23 15.4477 22.5523 15 22 15C21.4477 15 21 15.4477 21 16V20C21 20.5523 21.4477 21 22 21C22.5523 21 23 20.5523 23 20V16Z" fill="black"/>
</g>
<path fill-rule="evenodd" clip-rule="evenodd" d="M3 15C1.89543 15 1 15.8954 1 17V19C1 20.1046 1.89543 21 3 21H16C16.5523 21 17 20.5523 17 20V16C17 15.4477 16.5523 15 16 15H3ZM8 19V17H15V19H8Z" fill="black"/>
</svg>
