<svg width="24" height="24" viewBox="0 0 24 24" fill="none" xmlns="http://www.w3.org/2000/svg">
<path opacity="0.3" d="M4 9C2.89543 9 2 9.89543 2 11C2 15.9706 6.02944 20 11 20H13C17.9706 20 22 15.9706 22 11C22 9.89543 21.1046 9 20 9C18.1189 9 16.3698 9.57821 14.9246 10.5667C13.6973 11.4061 12.6877 12.5428 12 13.8732C11.3123 12.5428 10.3027 11.4061 9.07539 10.5667C7.63018 9.57821 5.88111 9 4 9Z" fill="black"/>
<path d="M16.4026 9.7481C16.1474 8.12049 15.3916 6.55478 14.1353 5.30071L13.4209 4.58763C13.0287 4.19606 12.513 4.00019 12.0009 4C11.4883 3.99981 10.9719 4.19568 10.5793 4.58763L9.86492 5.30071C8.60859 6.55478 7.85281 8.12049 7.59766 9.74809C8.11773 9.97511 8.61223 10.2498 9.07551 10.5667C10.3029 11.4061 11.3124 12.5428 12.0001 13.8732C12.6878 12.5428 13.6974 11.4061 14.9247 10.5667C15.388 10.2498 15.8825 9.97512 16.4026 9.7481Z" fill="black"/>
</svg>
