<svg width="24" height="24" viewBox="0 0 24 24" fill="none" xmlns="http://www.w3.org/2000/svg">
<path opacity="0.3" fill-rule="evenodd" clip-rule="evenodd" d="M16 4.5C16 3.94772 16.4477 3.5 17 3.5H21C21.5523 3.5 22 3.94772 22 4.5C22 5.05228 21.5523 5.5 21 5.5H17C16.4477 5.5 16 5.05228 16 4.5ZM11 9.5C11 8.94772 11.4477 8.5 12 8.5H17C17.5523 8.5 18 8.94772 18 9.5C18 10.0523 17.5523 10.5 17 10.5H12C11.4477 10.5 11 10.0523 11 9.5ZM6 14.5C6 13.9477 6.44772 13.5 7 13.5H12C12.5523 13.5 13 13.9477 13 14.5C13 15.0523 12.5523 15.5 12 15.5H7C6.44772 15.5 6 15.0523 6 14.5ZM2 19.5C2 18.9477 2.44772 18.5 3 18.5H7C7.55228 18.5 8 18.9477 8 19.5C8 20.0523 7.55228 20.5 7 20.5H3C2.44772 20.5 2 20.0523 2 19.5Z" fill="black"/>
<path fill-rule="evenodd" clip-rule="evenodd" d="M17 3.5C17.5523 3.5 18 3.94772 18 4.5V9.5C18 10.0523 17.5523 10.5 17 10.5C16.4477 10.5 16 10.0523 16 9.5V4.5C16 3.94772 16.4477 3.5 17 3.5ZM12 8.5C12.5523 8.5 13 8.94772 13 9.5V14.5C13 15.0523 12.5523 15.5 12 15.5C11.4477 15.5 11 15.0523 11 14.5V9.5C11 8.94772 11.4477 8.5 12 8.5ZM7 13.5C7.55228 13.5 8 13.9477 8 14.5V19.5C8 20.0523 7.55228 20.5 7 20.5C6.44772 20.5 6 20.0523 6 19.5V14.5C6 13.9477 6.44772 13.5 7 13.5Z" fill="black"/>
</svg>
