<svg width="24" height="24" viewBox="0 0 24 24" fill="none" xmlns="http://www.w3.org/2000/svg">
<path opacity="0.3" d="M7 6C5.34315 6 4 7.34315 4 9V19C4 20.6569 5.34315 22 7 22H17C18.6569 22 20 20.6569 20 19V9C20 7.34315 18.6569 6 17 6H7Z" fill="black"/>
<path d="M11 1C9.34315 1 8 2.34315 8 4V6H10V4C10 3.44772 10.4477 3 11 3H13C13.5523 3 14 3.44772 14 4V6H16V4C16 2.34315 14.6569 1 13 1H11Z" fill="black"/>
<path d="M15 22C15 22.5523 15.4477 23 16 23C16.5523 23 17 22.5523 17 22H15Z" fill="black"/>
<path d="M7 22C7 22.5523 7.44772 23 8 23C8.55228 23 9 22.5523 9 22H7Z" fill="black"/>
<path fill-rule="evenodd" clip-rule="evenodd" d="M8 12C8 11.4477 8.44772 11 9 11H15C15.5523 11 16 11.4477 16 12C16 12.5523 15.5523 13 15 13H9C8.44772 13 8 12.5523 8 12Z" fill="black"/>
<path fill-rule="evenodd" clip-rule="evenodd" d="M8 16C8 15.4477 8.44772 15 9 15H15C15.5523 15 16 15.4477 16 16C16 16.5523 15.5523 17 15 17H9C8.44772 17 8 16.5523 8 16Z" fill="black"/>
</svg>
