<svg width="24" height="24" viewBox="0 0 24 24" fill="none" xmlns="http://www.w3.org/2000/svg">
<path opacity="0.3" fill-rule="evenodd" clip-rule="evenodd" d="M5 5C3.34315 5 2 6.34315 2 8V16C2 17.6569 3.34315 19 5 19H19C20.6569 19 22 17.6569 22 16V14C20.8954 14 20 13.1046 20 12C20 10.8954 20.8954 10 22 10V8C22 6.34315 20.6569 5 19 5H5ZM16 14C15.4477 14 15 14.4477 15 15C15 15.5523 15.4477 16 16 16H16.01C16.5623 16 17.01 15.5523 17.01 15C17.01 14.4477 16.5623 14 16.01 14H16ZM15 12C15 11.4477 15.4477 11 16 11H16.01C16.5623 11 17.01 11.4477 17.01 12C17.01 12.5523 16.5623 13 16.01 13H16C15.4477 13 15 12.5523 15 12ZM16 8C15.4477 8 15 8.44772 15 9C15 9.55228 15.4477 10 16 10H16.01C16.5623 10 17.01 9.55228 17.01 9C17.01 8.44772 16.5623 8 16.01 8H16Z" fill="black"/>
<path d="M16 8C15.4477 8 15 8.44772 15 9C15 9.55228 15.4477 10 16 10H16.01C16.5623 10 17.01 9.55228 17.01 9C17.01 8.44772 16.5623 8 16.01 8H16Z" fill="black"/>
<path d="M15 12C15 11.4477 15.4477 11 16 11H16.01C16.5623 11 17.01 11.4477 17.01 12C17.01 12.5523 16.5623 13 16.01 13H16C15.4477 13 15 12.5523 15 12Z" fill="black"/>
<path d="M15 15C15 14.4477 15.4477 14 16 14H16.01C16.5623 14 17.01 14.4477 17.01 15C17.01 15.5523 16.5623 16 16.01 16H16C15.4477 16 15 15.5523 15 15Z" fill="black"/>
</svg>
