<svg width="24" height="24" viewBox="0 0 24 24" fill="none" xmlns="http://www.w3.org/2000/svg">
<g opacity="0.3">
<path d="M17.4073 12.7398C18.3099 10.887 18.8153 9.01409 18.8664 7.45876C18.8919 6.68257 18.806 5.93424 18.5576 5.29443C18.3057 4.64531 17.863 4.05779 17.1666 3.747C16.4763 3.43889 15.7408 3.49406 15.082 3.71884C14.4271 3.94231 13.7836 4.35205 13.1831 4.86593C11.98 5.89553 10.8045 7.46453 9.9011 9.31869C9.74808 9.63279 9.60648 9.94748 9.47656 10.2611L11.3037 11.0765C11.4228 10.7858 11.5583 10.4908 11.703 10.194C12.5134 8.53069 13.5313 7.20035 14.4835 6.38546C14.9608 5.97702 15.3863 5.72825 15.7279 5.61167C16.0658 5.49639 16.2543 5.52996 16.3515 5.57336C16.4428 5.61409 16.5767 5.71792 16.6931 6.01803C16.8132 6.32745 16.8874 6.78623 16.8675 7.39307C16.8277 8.60356 16.4157 10.1994 15.6046 11.8641C15.4498 12.1818 15.2884 12.4878 15.1203 12.7799L16.9551 13.5988C17.1107 13.3204 17.2642 13.0336 17.4073 12.7398Z" fill="black"/>
<path d="M8.66016 19L12.3039 11.5211L14.1313 12.3367L10.8849 19H8.66016Z" fill="black"/>
</g>
<path d="M6.10102 7.62096C8.05922 3.60174 13.0068 1.90155 17.1477 3.73821C16.4627 3.43921 15.7344 3.49538 15.0815 3.71817C14.4266 3.94164 13.7831 4.35138 13.1826 4.86526C11.9795 5.89486 10.8074 7.46404 9.90406 9.31821L9.90498 9.31865C9.75195 9.63276 9.61035 9.94744 9.48043 10.2611L6.59244 8.97213C6.34494 8.86167 6.15287 8.65547 6.06023 8.40075C5.96759 8.14603 5.98231 7.86462 6.10102 7.62096Z" fill="black"/>
<path d="M16.959 13.5988L19.9027 14.9126C20.3951 15.1323 20.9731 14.9221 21.2092 14.4374C23.18 10.3923 21.3377 5.6199 17.1845 3.75464C17.8703 4.06751 18.3075 4.65038 18.5572 5.29376C18.8055 5.93357 18.8914 6.6819 18.8659 7.45809C18.8148 9.01355 18.3094 10.8867 17.4066 12.7396L17.4075 12.7401C17.2644 13.0338 17.1146 13.3204 16.959 13.5988Z" fill="black"/>
<path d="M15.6094 11.8645C15.4546 12.1822 15.2922 12.4878 15.1242 12.7799L11.3075 11.0765C11.4267 10.7858 11.5585 10.4911 11.7032 10.1942L11.7022 10.1937C12.5128 8.53027 13.5307 7.19976 14.483 6.38479C14.9603 5.97635 15.3858 5.72758 15.7274 5.611C16.0653 5.49572 16.2538 5.52929 16.351 5.57269C16.4423 5.61342 16.5762 5.71724 16.6926 6.01736C16.8127 6.32678 16.8869 6.78555 16.867 7.3924C16.8272 8.60289 16.4195 10.1994 15.6085 11.8641L15.6094 11.8645Z" fill="black"/>
<path d="M2 20C2 19.4477 2.44772 19 3 19H21C21.5523 19 22 19.4477 22 20C22 20.5523 21.5523 21 21 21H3C2.44772 21 2 20.5523 2 20Z" fill="black"/>
</svg>
