<svg width="24" height="24" viewBox="0 0 24 24" fill="none" xmlns="http://www.w3.org/2000/svg">
<path opacity="0.3" fill-rule="evenodd" clip-rule="evenodd" d="M6 2C4.34315 2 3 3.34315 3 5V19C3 20.6569 4.34315 22 6 22H18C19.6569 22 21 20.6569 21 19V5C21 3.34315 19.6569 2 18 2H6ZM6 6C6 5.44772 6.44772 5 7 5H7.01C7.56228 5 8.01 5.44772 8.01 6C8.01 6.55228 7.56228 7 7.01 7H7C6.44772 7 6 6.55228 6 6ZM9 6C9 5.44772 9.44772 5 10 5H10.01C10.5623 5 11.01 5.44772 11.01 6C11.01 6.55228 10.5623 7 10.01 7H10C9.44772 7 9 6.55228 9 6ZM12 20C15.3137 20 18 17.3137 18 14C18 10.6863 15.3137 8 12 8C8.68629 8 6 10.6863 6 14C6 17.3137 8.68629 20 12 20Z" fill="black"/>
<path fill-rule="evenodd" clip-rule="evenodd" d="M9 6C9 5.44772 9.44772 5 10 5H10.01C10.5623 5 11.01 5.44772 11.01 6C11.01 6.55228 10.5623 7 10.01 7H10C9.44772 7 9 6.55228 9 6Z" fill="black"/>
<path d="M7 13C6.44772 13 6 13.4477 6 14C6 17.3137 8.68629 20 12 20C14.7971 20 17.1449 18.0869 17.8109 15.4993C17.888 15.1999 17.8222 14.8817 17.6328 14.6373C17.4434 14.393 17.1516 14.25 16.8425 14.25H14.6475C13.8837 14.25 13.1304 14.0722 12.4472 13.7306C11.4863 13.2501 10.4268 13 9.35246 13H7Z" fill="black"/>
</svg>
