<svg width="24" height="24" viewBox="0 0 24 24" fill="none" xmlns="http://www.w3.org/2000/svg">
<path opacity="0.3" fill-rule="evenodd" clip-rule="evenodd" d="M9.75 18C9.21485 18 8.70163 18.2126 8.32322 18.591L8.09099 18.8232C7.33751 19.5767 6.31558 20 5.25 20C4.18442 20 3.16249 19.5767 2.40901 18.8232L1.79289 18.2071C1.40237 17.8166 1.40237 17.1834 1.79289 16.7929C2.18342 16.4024 2.81658 16.4024 3.20711 16.7929L3.82322 17.409C4.20163 17.7874 4.71486 18 5.25 18C5.78514 18 6.29837 17.7874 6.67678 17.409L6.90901 17.1768C7.66249 16.4233 8.68442 16 9.75 16C10.8156 16 11.8375 16.4233 12.591 17.1768L12.8232 17.409C13.2016 17.7874 13.7149 18 14.25 18C14.7851 18 15.2984 17.7874 15.6768 17.409L15.909 17.1768C16.6625 16.4233 17.6844 16 18.75 16C19.8156 16 20.8375 16.4233 21.591 17.1768L22.2071 17.7929C22.5976 18.1834 22.5976 18.8166 22.2071 19.2071C21.8166 19.5976 21.1834 19.5976 20.7929 19.2071L20.1768 18.591C19.7984 18.2126 19.2851 18 18.75 18C18.2149 18 17.7016 18.2126 17.3232 18.591L17.091 18.8232C16.3375 19.5767 15.3156 20 14.25 20C13.1844 20 12.1625 19.5767 11.409 18.8232L11.1768 18.591C10.7984 18.2126 10.2851 18 9.75 18Z" fill="black"/>
<path d="M6 7.5C6 6.67157 6.67157 6 7.5 6C8.32843 6 9 6.67157 9 7.5V9C9 9.55228 9.44772 10 10 10C10.5523 10 11 9.55228 11 9V7.5C11 5.567 9.433 4 7.5 4C5.567 4 4 5.567 4 7.5V17.5662C4.35425 17.8458 4.79417 18 5.25 18C5.50944 18 5.76373 17.95 6 17.8554V14H13V17.5662C13.3542 17.8458 13.7942 18 14.25 18C14.5094 18 14.7637 17.95 15 17.8554V7.5C15 6.67157 15.6716 6 16.5 6C17.3284 6 18 6.67157 18 7.5V9C18 9.55228 18.4477 10 19 10C19.5523 10 20 9.55228 20 9V7.5C20 5.567 18.433 4 16.5 4C14.567 4 13 5.567 13 7.5V12H6V7.5Z" fill="black"/>
</svg>
