<svg width="24" height="24" viewBox="0 0 24 24" fill="none" xmlns="http://www.w3.org/2000/svg">
<path opacity="0.3" fill-rule="evenodd" clip-rule="evenodd" d="M9 12C6.79086 12 5 13.7909 5 16C5 18.2091 6.79086 20 9 20C11.2091 20 13 18.2091 13 16C13 13.7909 11.2091 12 9 12ZM3 16C3 12.6863 5.68629 10 9 10C12.3137 10 15 12.6863 15 16C15 19.3137 12.3137 22 9 22C5.68629 22 3 19.3137 3 16Z" fill="black"/>
<path d="M14 4C14 2.89543 14.8954 2 16 2C17.1046 2 18 2.89543 18 4C18 5.10457 17.1046 6 16 6C14.8954 6 14 5.10457 14 4Z" fill="black"/>
<path d="M12.1995 10.9234C12.8039 11.3051 13.3354 11.7917 13.7684 12.3578L15.4245 8.38476C15.6325 7.88588 15.4061 7.31445 14.9185 7.09111L13.6307 6.44722C11.6548 5.45926 9.25211 6.26016 8.26415 8.23607L8.10579 8.55279C7.8588 9.04677 8.05903 9.64744 8.55301 9.89443C8.6904 9.96313 8.83606 9.99723 8.98006 10C8.9867 10 8.99335 10 9 10C9.00633 10 9.01266 10 9.01899 10C9.37876 9.99297 9.72256 9.7914 9.89465 9.44722L10.053 9.1305C10.547 8.14254 11.7483 7.74209 12.7363 8.23607L13.2191 8.47746L12.1995 10.9234Z" fill="black"/>
<path d="M14.1973 13C14.5487 13.6074 14.7966 14.2821 14.917 15H18.6122L17.0509 19.6838C16.8763 20.2077 17.1594 20.774 17.6834 20.9487C18.2073 21.1233 18.7736 20.8402 18.9483 20.3162L20.5095 15.6325C20.9412 14.3374 19.9773 13 18.6122 13H14.1973Z" fill="black"/>
<path d="M12.6454 14.3511C12.6579 14.3843 12.672 14.4167 12.6878 14.4481C12.6741 14.4156 12.66 14.3832 12.6454 14.3511Z" fill="black"/>
</svg>
